<?xml version="1.0" standalone="no"?>
<!DOCTYPE svg PUBLIC "-//W3C//DTD SVG 20010904//EN"
 "http://www.w3.org/TR/2001/REC-SVG-20010904/DTD/svg10.dtd">
<svg version="1.0" xmlns="http://www.w3.org/2000/svg"
 width="1024.000000pt" height="1024.000000pt" viewBox="0 0 1024.000000 1024.000000"
 preserveAspectRatio="xMidYMid meet">
<metadata>
Created by potrace 1.10, written by Peter Selinger 2001-2011
</metadata>
<g transform="translate(0.000000,1024.000000) scale(0.100000,-0.100000)"
fill="#000000" stroke="none">
<path d="M2835 8014 c-5 -2 -36 -10 -67 -19 -42 -12 -59 -22 -64 -38 -3 -12
-24 -41 -46 -64 -48 -49 -93 -61 -137 -38 -17 8 -39 15 -51 15 -18 0 -20 -6
-20 -68 0 -49 -8 -93 -30 -157 -16 -49 -30 -90 -30 -92 0 -2 24 -3 53 -3 48 0
57 -4 115 -50 l62 -51 0 -113 0 -112 -47 -68 c-44 -63 -54 -71 -128 -103 -112
-49 -187 -68 -359 -92 -82 -12 -156 -27 -165 -34 -182 -155 -196 -169 -277
-298 -45 -71 -87 -135 -93 -142 -5 -7 -117 -55 -247 -107 -220 -88 -241 -98
-302 -152 -36 -33 -82 -63 -105 -70 -32 -10 -44 -21 -68 -64 -39 -69 -110
-134 -146 -134 -17 0 -46 -14 -71 -35 -24 -19 -72 -51 -107 -71 -59 -35 -64
-40 -80 -93 -16 -55 -20 -59 -86 -96 -52 -29 -77 -51 -100 -87 -17 -26 -49
-62 -71 -79 -24 -20 -52 -58 -75 -103 l-36 -71 17 -72 18 -72 -47 -85 -46 -85
43 -24 c260 -149 263 -150 355 -131 29 6 51 -30 32 -52 -7 -9 -9 -18 -3 -24
16 -16 333 -199 422 -245 116 -58 308 -226 305 -265 -2 -21 17 -133 33 -192 3
-9 24 -31 47 -48 l42 -31 150 2 c86 1 178 -3 215 -10 58 -10 71 -10 119 7 l54
18 179 -57 c157 -51 193 -59 291 -65 109 -7 113 -8 152 -41 40 -35 41 -35 115
-29 41 3 174 2 295 -3 197 -7 224 -6 261 9 l40 17 38 -30 c42 -33 81 -40 212
-38 l82 2 188 -102 c104 -56 252 -133 330 -170 80 -38 190 -102 255 -147 74
-52 180 -111 302 -170 103 -50 187 -88 187 -86 0 3 -12 21 -26 40 -24 31 -25
34 -7 34 11 0 30 -11 43 -25 13 -14 28 -25 33 -25 5 0 25 -7 44 -17 l35 -16
-29 -12 c-27 -12 -25 -14 126 -89 93 -47 162 -76 177 -74 21 3 16 10 -47 60
-74 61 -77 75 -6 34 23 -13 60 -27 82 -31 36 -5 43 -12 72 -64 24 -43 29 -61
21 -69 -14 -14 -24 -6 99 -81 149 -91 322 -151 544 -190 187 -33 408 -83 680
-155 141 -37 181 -52 275 -104 60 -33 110 -57 112 -52 2 5 -2 26 -8 48 -15 58
-65 98 -132 107 -29 4 -71 18 -93 31 -22 12 -65 26 -95 30 -30 4 -71 15 -90
24 l-34 18 52 7 c29 4 52 10 52 14 0 3 -35 41 -77 84 l-78 77 -95 -11 c-53 -6
-99 -16 -105 -23 -13 -16 -70 -36 -103 -36 -14 0 -44 11 -66 24 -23 13 -64 27
-93 31 -31 4 -58 14 -69 26 -16 18 -16 19 12 19 16 0 35 -4 43 -9 10 -6 24 -5
40 3 28 14 124 15 154 1 13 -5 24 -2 35 9 16 16 16 19 0 46 l-17 30 32 8 c22
6 33 15 35 30 5 32 20 27 38 -12 l16 -33 92 -7 c104 -8 115 -16 204 -133 l47
-63 86 0 c65 0 90 -4 99 -15 11 -13 3 -15 -59 -15 -74 0 -77 -2 -65 -47 6 -21
12 -23 84 -23 42 0 91 -5 108 -11 25 -9 41 -7 77 6 48 19 56 37 30 65 -22 24
-32 90 -14 90 25 0 36 -14 83 -107 l46 -92 -30 -63 c-17 -35 -30 -68 -30 -74
0 -14 44 -34 73 -34 36 0 197 32 197 39 0 3 -11 13 -26 22 -25 15 -24 16 58
33 46 10 102 28 124 42 l42 24 6 -23 c9 -34 8 -35 -29 -47 -32 -10 -33 -13
-23 -36 6 -13 21 -27 32 -29 12 -3 80 -18 152 -35 195 -45 298 -52 551 -41
185 9 219 13 230 27 10 14 24 16 90 11 43 -4 163 -11 267 -17 103 -6 192 -13
197 -16 6 -3 85 -10 177 -15 92 -5 179 -12 195 -15 25 -5 27 -3 27 28 0 28 -7
38 -50 67 -85 58 -79 64 138 156 l187 80 118 115 c144 139 144 139 34 246 -64
63 -80 74 -142 93 l-70 21 -33 88 c-27 71 -31 93 -23 115 15 40 141 237 152
237 14 0 11 -18 -7 -45 -30 -46 -12 -84 61 -132 36 -24 69 -43 73 -43 21 0 52
50 58 92 6 43 9 47 58 71 28 14 70 29 94 32 35 6 48 15 77 52 29 37 35 55 35
93 0 42 -4 50 -38 77 -30 24 -50 31 -107 37 -113 11 -113 11 -131 73 -12 42
-14 75 -9 143 6 82 10 92 41 129 69 81 114 220 114 355 0 100 17 143 94 236
25 30 46 58 46 61 0 3 -16 26 -35 50 -51 64 -47 94 17 144 81 64 89 112 29
183 -21 26 -55 79 -75 119 -32 65 -41 75 -98 107 -56 31 -69 44 -113 117 -27
45 -57 87 -67 93 -13 8 -36 -3 -110 -52 l-94 -62 -78 15 c-69 13 -88 13 -154
1 -70 -13 -79 -13 -111 4 l-35 18 -112 -56 c-104 -51 -116 -55 -151 -46 -33 8
-42 17 -77 79 -107 193 -156 298 -156 335 0 36 -1 38 -71 69 -83 36 -90 36
-217 15 -88 -15 -103 -15 -187 0 -111 20 -185 21 -185 4 0 -7 9 -42 21 -78 19
-62 19 -66 2 -97 -19 -36 -69 -59 -107 -49 -18 4 -32 -4 -65 -39 -53 -57 -81
-71 -156 -78 -91 -9 -191 -44 -233 -81 -71 -62 -83 -66 -192 -66 -96 0 -104
-2 -145 -30 -28 -19 -56 -30 -79 -30 -20 0 -38 -6 -43 -14 -4 -8 -24 -17 -43
-20 -32 -6 -40 -2 -91 44 -48 42 -59 58 -70 102 -6 29 -25 91 -40 137 -16 46
-27 86 -25 90 2 3 11 30 19 58 16 52 16 53 -9 82 -15 18 -53 40 -95 57 -39 16
-85 42 -103 58 -64 63 -88 76 -136 76 -33 0 -52 6 -64 18 -31 35 -90 45 -181
31 -96 -14 -116 -6 -162 67 -28 43 -29 44 -83 44 -30 0 -77 8 -105 19 -43 16
-51 24 -63 59 -12 38 -12 43 12 81 26 41 32 96 18 149 -7 22 -7 22 -66 -15
l-59 -37 -47 17 c-26 9 -83 22 -126 29 -92 13 -116 30 -134 95 -27 94 -125
224 -226 299 -63 46 -80 54 -117 54 -91 0 -207 57 -207 101 0 47 -30 89 -98
138 -92 67 -120 111 -137 216 -7 45 -18 91 -23 102 -6 10 -48 39 -94 65 -78
43 -89 46 -183 53 -109 8 -153 22 -230 71 -35 22 -72 35 -121 43 -42 6 -128
34 -216 70 -118 49 -159 61 -224 67 l-79 6 -160 103 c-213 137 -238 144 -325
100 -61 -31 -69 -31 -128 -1 -26 13 -51 22 -57 20z"/>
</g>
</svg>
