<?xml version="1.0" standalone="no"?>
<!DOCTYPE svg PUBLIC "-//W3C//DTD SVG 20010904//EN"
 "http://www.w3.org/TR/2001/REC-SVG-20010904/DTD/svg10.dtd">
<svg version="1.0" xmlns="http://www.w3.org/2000/svg"
 width="1024.000000pt" height="1024.000000pt" viewBox="0 0 1024.000000 1024.000000"
 preserveAspectRatio="xMidYMid meet">
<metadata>
Created by potrace 1.10, written by Peter Selinger 2001-2011
</metadata>
<g transform="translate(0.000000,1024.000000) scale(0.100000,-0.100000)"
fill="#000000" stroke="none">
<path d="M2243 10170 c-42 -54 -67 -76 -122 -106 -61 -33 -72 -44 -89 -83 -18
-44 -22 -47 -100 -76 l-82 -29 0 -43 c0 -40 -2 -43 -28 -43 -20 0 -35 -9 -50
-29 -15 -20 -41 -36 -87 -51 -58 -19 -65 -24 -65 -48 0 -21 -9 -32 -38 -49
-36 -20 -41 -29 -66 -115 -15 -51 -41 -116 -57 -144 -27 -48 -29 -58 -29 -165
0 -87 -4 -120 -15 -137 -14 -19 -14 -25 0 -53 17 -31 17 -31 -19 -61 l-36 -29
24 -48 c22 -42 102 -320 94 -325 -2 -1 -50 -17 -108 -36 -91 -30 -107 -40
-128 -70 -21 -30 -23 -42 -17 -90 4 -30 10 -98 15 -150 4 -52 11 -104 16 -115
4 -11 56 -77 116 -147 l108 -128 0 -80 c0 -45 5 -123 11 -173 10 -82 9 -101
-9 -176 l-20 -83 47 -78 46 -78 95 -27 c52 -15 140 -44 195 -66 55 -21 130
-45 166 -54 60 -13 71 -13 119 1 46 14 64 14 139 2 54 -8 150 -12 261 -10 96
2 276 -2 400 -8 216 -11 229 -11 330 10 187 38 189 38 267 -13 49 -31 116 -60
228 -97 88 -29 189 -66 225 -82 71 -32 202 -68 247 -68 16 0 77 -20 135 -45
85 -36 119 -45 165 -45 56 0 61 -2 133 -60 41 -33 107 -79 145 -102 77 -45 96
-61 208 -161 l76 -69 107 -21 107 -22 31 -86 c28 -79 36 -91 87 -132 53 -44
58 -52 93 -149 19 -57 44 -134 55 -173 30 -113 89 -246 136 -307 66 -86 111
-182 120 -256 7 -61 9 -65 55 -98 26 -19 78 -68 114 -109 l67 -74 68 -210 68
-210 -24 -168 -24 -168 -117 -120 c-104 -106 -122 -130 -157 -205 -23 -52 -57
-105 -85 -136 -36 -38 -49 -61 -55 -94 -8 -46 -18 -59 -117 -146 -31 -27 -51
-55 -59 -82 -11 -37 -9 -48 15 -114 35 -95 75 -157 156 -243 l66 -70 123 -379
c130 -401 150 -490 151 -651 0 -69 -6 -113 -26 -180 -24 -83 -26 -104 -25
-260 l2 -170 62 -63 c44 -45 87 -76 147 -107 172 -88 316 -276 416 -543 l39
-104 80 -58 c152 -110 215 -166 261 -230 58 -81 65 -86 120 -95 35 -5 65 0
142 24 53 17 127 33 163 37 l67 5 37 55 c21 30 75 84 120 120 121 96 165 162
253 389 l75 190 4 195 c4 162 2 215 -15 316 -19 118 -22 126 -85 233 -52 87
-73 135 -97 224 -32 112 -32 112 -25 287 4 96 11 195 16 219 12 54 4 61 -68
61 -29 0 -69 8 -88 17 -35 17 -38 17 -67 0 -21 -12 -52 -17 -107 -17 l-78 0
-10 45 -10 45 33 6 c38 7 39 10 23 51 -7 15 -15 66 -19 113 -8 82 -7 87 20
130 49 79 56 131 37 267 -22 152 -21 181 5 305 18 85 28 111 56 146 34 41 36
42 81 37 33 -5 63 0 106 15 54 18 67 19 135 9 70 -10 81 -15 154 -72 76 -59
81 -65 99 -125 17 -59 21 -64 61 -81 39 -17 43 -23 55 -73 10 -43 20 -58 46
-75 27 -18 34 -30 39 -70 l7 -48 -60 -63 -60 -63 -42 26 c-22 15 -42 25 -44
23 -1 -2 -8 -13 -14 -25 -10 -20 -7 -27 22 -59 l33 -36 78 24 c74 22 80 26
111 73 29 45 43 56 151 109 l119 58 102 152 c56 83 147 227 203 320 117 195
128 232 90 306 -24 46 -23 39 -4 222 6 51 2 68 -49 200 -31 78 -61 166 -68
193 -7 28 -38 115 -69 195 -38 95 -60 167 -65 208 -4 41 -28 120 -70 227 -52
135 -64 179 -70 248 -6 70 -13 95 -49 162 l-41 80 -70 -3 c-51 -2 -81 -9 -113
-27 l-43 -24 6 32 c4 18 8 39 11 48 5 19 49 40 129 64 73 21 85 30 85 64 0 15
26 68 62 125 74 118 88 176 74 296 l-9 79 37 49 c20 27 41 72 48 101 l11 51
59 16 c55 16 61 20 84 65 13 26 37 85 54 130 28 77 30 92 30 223 l0 141 -60
33 c-33 18 -120 56 -193 83 l-132 51 -118 -5 c-85 -4 -128 -1 -150 8 -28 11
-42 10 -116 -12 l-84 -24 -139 16 c-122 13 -148 20 -209 50 -59 30 -78 35
-141 35 -108 0 -314 28 -484 65 -125 28 -170 43 -255 86 -101 51 -107 52 -204
57 -55 2 -171 -1 -258 -6 -158 -10 -159 -10 -228 15 -63 24 -71 30 -88 68 -10
24 -63 94 -116 156 l-98 114 -204 103 c-113 56 -212 102 -221 102 -9 0 -86 36
-172 79 -85 44 -189 93 -232 110 -42 16 -102 47 -135 67 -35 23 -77 41 -108
45 -37 6 -57 16 -75 37 -14 16 -50 47 -80 69 -40 29 -62 54 -79 91 -19 41 -37
60 -86 92 -55 36 -222 112 -330 151 -30 11 -49 28 -77 71 -21 31 -58 70 -82
87 -29 20 -45 40 -49 60 -5 24 -20 37 -80 70 -46 25 -87 41 -109 41 -43 0 -68
38 -68 104 0 43 -5 51 -73 128 -41 46 -82 99 -92 118 -10 19 -39 67 -66 106
-26 39 -75 136 -109 216 l-62 145 -63 22 c-34 12 -91 41 -126 65 l-64 43 -42
-20 -42 -20 -45 41 c-26 24 -61 45 -88 52 -191 50 -224 62 -274 97 -108 76
-124 83 -199 82 l-70 0 -52 -69z"/>
<path d="M4820 5092 c-67 -37 -98 -48 -145 -52 l-59 -5 -63 -100 c-115 -184
-206 -365 -213 -422 l-6 -53 45 0 c26 1 111 9 189 19 141 18 146 18 240 -2 74
-15 115 -30 173 -63 l76 -44 106 0 c98 0 115 3 199 35 84 31 98 41 149 97 69
77 109 183 109 290 l0 65 -152 119 c-83 65 -158 123 -165 127 -26 16 -197 37
-298 36 l-100 0 -85 -47z"/>
</g>
</svg>
