<?xml version="1.0" standalone="no"?>
<!DOCTYPE svg PUBLIC "-//W3C//DTD SVG 20010904//EN"
 "http://www.w3.org/TR/2001/REC-SVG-20010904/DTD/svg10.dtd">
<svg version="1.0" xmlns="http://www.w3.org/2000/svg"
 width="1024.000000pt" height="1024.000000pt" viewBox="0 0 1024.000000 1024.000000"
 preserveAspectRatio="xMidYMid meet">
<metadata>
Created by potrace 1.10, written by Peter Selinger 2001-2011
</metadata>
<g transform="translate(0.000000,1024.000000) scale(0.100000,-0.100000)"
fill="#000000" stroke="none">
<path d="M2663 9140 c-1055 -4 -1345 -8 -1355 -17 -16 -17 -237 -18 -273 -1
-21 10 -31 9 -48 -2 -16 -11 -73 -15 -222 -18 -174 -3 -213 -1 -302 17 -81 17
-138 21 -282 21 l-181 0 0 -4010 0 -4010 1496 0 c1062 0 1501 -3 1516 -11 24
-13 263 -13 4301 -5 l2927 7 0 4019 0 4020 -3117 -2 c-1715 -2 -3722 -5 -4460
-8z"/>
</g>
</svg>
