<?xml version="1.0" standalone="no"?>
<!DOCTYPE svg PUBLIC "-//W3C//DTD SVG 20010904//EN"
 "http://www.w3.org/TR/2001/REC-SVG-20010904/DTD/svg10.dtd">
<svg version="1.0" xmlns="http://www.w3.org/2000/svg"
 width="1024.000000pt" height="1024.000000pt" viewBox="0 0 1024.000000 1024.000000"
 preserveAspectRatio="xMidYMid meet">
<metadata>
Created by potrace 1.10, written by Peter Selinger 2001-2011
</metadata>
<g transform="translate(0.000000,1024.000000) scale(0.100000,-0.100000)"
fill="#000000" stroke="none">
<path d="M1097 10096 c-76 -80 -165 -180 -198 -223 -51 -67 -57 -79 -45 -92
46 -53 75 -154 81 -280 3 -61 20 -81 66 -81 34 0 59 -9 59 -21 0 -5 -7 -9 -15
-9 -8 0 -19 -8 -24 -18 -14 -26 8 -49 61 -62 39 -10 47 -17 55 -43 9 -31 10
-32 64 -29 50 3 56 1 85 -30 28 -29 32 -42 37 -106 6 -70 5 -74 -24 -106 -36
-41 -40 -106 -9 -165 10 -21 29 -78 41 -126 20 -79 25 -88 55 -102 34 -16 43
-42 70 -193 4 -22 22 -51 47 -77 38 -40 45 -43 93 -43 50 0 53 -1 62 -32 6
-18 13 -64 17 -102 7 -86 27 -122 71 -131 28 -5 38 -15 59 -56 14 -28 34 -63
45 -77 l21 -26 -44 -27 c-24 -15 -47 -34 -50 -42 -3 -8 21 -86 54 -174 55
-143 60 -164 56 -218 -4 -56 -2 -63 30 -101 l33 -41 -21 -19 c-19 -17 -20 -28
-18 -150 l3 -131 -33 -42 c-18 -22 -46 -49 -62 -58 -23 -14 -29 -24 -29 -51 0
-45 -24 -88 -59 -106 -37 -19 -50 -85 -26 -123 9 -13 15 -36 13 -51 -3 -25 -8
-28 -70 -37 -61 -9 -73 -15 -128 -63 -33 -29 -60 -60 -60 -69 0 -9 -6 -13 -14
-10 -8 3 -30 9 -49 12 -32 6 -35 5 -46 -26 -6 -17 -11 -59 -11 -91 0 -56 -4
-65 -50 -131 -27 -38 -69 -83 -92 -98 -47 -32 -56 -47 -57 -100 -1 -45 -26
-69 -74 -69 -28 0 -40 -6 -57 -29 -42 -60 -71 -139 -77 -212 l-6 -72 -104
-119 c-56 -65 -103 -120 -103 -122 0 -1 27 0 60 2 57 4 60 3 60 -19 0 -12 -10
-33 -22 -46 -21 -22 -21 -26 -7 -51 11 -21 24 -28 52 -30 23 -2 41 -10 47 -21
5 -10 27 -26 50 -35 37 -14 39 -18 29 -39 -8 -18 -7 -33 5 -62 9 -20 16 -46
16 -56 0 -32 49 -25 61 9 5 15 23 36 39 46 17 9 33 28 36 42 6 21 4 36 -8 109
-3 17 6 21 87 31 82 10 172 39 248 79 35 18 47 12 110 -50 109 -107 157 -199
94 -181 -71 21 -82 19 -97 -16 -18 -40 -49 -46 -157 -28 -93 16 -158 7 -179
-25 -15 -23 -14 -27 11 -71 l27 -46 -29 -36 c-16 -20 -34 -37 -40 -39 -6 -2
-18 14 -27 37 -12 31 -21 40 -39 40 -13 0 -27 -3 -31 -7 -15 -15 -91 -1 -116
22 -44 40 -65 40 -95 1 -21 -27 -26 -44 -23 -71 4 -33 2 -35 -24 -35 -38 0
-99 -42 -87 -61 14 -22 10 -52 -11 -79 -46 -58 -2 -176 82 -220 27 -14 48 -31
48 -38 0 -7 -13 -33 -30 -57 -16 -24 -30 -55 -30 -69 0 -22 -4 -26 -30 -26
-30 0 -34 -7 -31 -55 1 -11 -10 -36 -24 -55 -23 -32 -24 -35 -8 -42 10 -3 35
-7 55 -7 27 -1 40 -7 48 -21 6 -11 21 -20 33 -20 20 0 990 -536 3347 -1849
l616 -342 22 -157 22 -157 -45 -40 c-40 -36 -45 -45 -51 -97 l-7 -58 34 0 c19
0 53 -9 77 -20 39 -18 42 -22 42 -58 0 -24 7 -48 18 -60 29 -33 802 -611 1199
-896 l373 -267 37 26 c43 29 69 32 94 9 12 -11 27 -13 53 -9 32 6 36 11 36 37
0 16 10 42 22 59 l22 30 17 -33 17 -33 7 50 c9 58 41 122 66 130 12 4 21 24
29 63 20 109 54 187 132 306 125 192 163 273 181 396 16 104 54 210 104 290
12 19 26 46 31 60 7 17 38 41 96 73 l87 49 -2 71 c-2 68 1 77 50 176 46 91 50
105 38 120 -34 39 -38 58 -27 151 6 51 16 106 24 124 34 83 266 186 417 186
l76 0 41 44 c23 24 51 47 64 51 62 19 95 85 67 136 -12 22 8 60 21 39 4 -7 16
-7 39 1 29 10 32 15 29 40 l-5 29 24 -22 c17 -16 22 -29 18 -45 -4 -18 -1 -23
15 -23 40 0 60 19 60 55 0 48 -9 65 -35 65 -21 0 -25 8 -40 72 -9 40 -29 96
-45 124 -16 29 -26 55 -23 58 25 24 76 -19 88 -75 11 -47 23 -25 30 55 10 109
45 104 45 -6 0 -40 20 -43 83 -14 31 15 72 26 97 26 40 0 42 1 36 25 -5 21 -3
25 14 25 11 0 23 -6 26 -14 10 -25 75 5 139 66 86 80 225 277 225 318 0 27
-51 97 -311 428 l-311 396 7 2045 7 2046 213 210 213 210 280 379 c155 209
279 383 276 387 -2 4 -15 10 -29 13 -14 4 -47 20 -74 36 -55 34 -113 39 -179
16 -27 -10 -115 -17 -280 -22 l-241 -7 -90 83 c-50 46 -93 92 -97 102 -3 12
-15 18 -34 18 -46 0 -60 10 -60 41 0 24 -11 37 -60 73 l-61 44 -226 -99 c-124
-54 -231 -103 -237 -108 -6 -5 -38 -16 -71 -25 -33 -9 -153 -62 -267 -118
l-207 -102 -43 -95 c-36 -80 -61 -116 -159 -229 -64 -74 -121 -148 -126 -166
-13 -45 -54 -49 -79 -7 -18 31 -42 40 -156 56 -27 4 -48 11 -48 16 0 14 -26
11 -39 -4 -19 -24 -118 -9 -174 26 -48 29 -50 30 -147 23 -133 -9 -224 11
-297 66 -49 37 -55 39 -84 29 -47 -16 -76 -13 -109 11 -29 21 -31 21 -65 5
-30 -14 -68 -17 -224 -17 -175 0 -189 1 -206 20 -10 11 -23 20 -30 20 -7 0
-19 8 -28 18 -9 9 -248 168 -531 352 -425 276 -515 339 -516 358 0 16 -6 22
-23 22 -16 0 -28 9 -35 25 -9 18 -19 25 -41 25 -16 0 -56 15 -88 34 l-58 34
-434 11 -434 12 -127 89 -128 90 -819 6 -818 5 -138 -145z"/>
</g>
</svg>
