<?xml version="1.0" standalone="no"?>
<!DOCTYPE svg PUBLIC "-//W3C//DTD SVG 20010904//EN"
 "http://www.w3.org/TR/2001/REC-SVG-20010904/DTD/svg10.dtd">
<svg version="1.0" xmlns="http://www.w3.org/2000/svg"
 width="1024.000000pt" height="1024.000000pt" viewBox="0 0 1024.000000 1024.000000"
 preserveAspectRatio="xMidYMid meet">
<metadata>
Created by potrace 1.10, written by Peter Selinger 2001-2011
</metadata>
<g transform="translate(0.000000,1024.000000) scale(0.100000,-0.100000)"
fill="#000000" stroke="none">
<path d="M3733 10219 c-29 -18 -33 -26 -33 -64 0 -41 2 -45 35 -56 39 -15 40
-16 23 -70 -8 -29 -8 -48 0 -77 10 -32 20 -42 67 -65 30 -15 57 -27 59 -27 3
0 7 14 11 30 5 25 12 30 35 30 16 0 34 2 42 5 8 3 22 -11 36 -35 17 -31 21
-48 16 -79 -6 -40 -5 -42 80 -134 l86 -94 -20 -114 c-11 -63 -22 -123 -25
-135 -3 -16 11 -33 68 -79 93 -76 176 -155 188 -177 6 -12 6 -33 -1 -59 -9
-31 -8 -59 1 -112 12 -63 20 -81 84 -166 39 -53 74 -101 78 -108 4 -7 -21 -35
-65 -72 -40 -33 -104 -100 -142 -148 l-69 -88 -87 3 c-84 4 -88 3 -107 -22
-14 -17 -31 -26 -48 -26 -24 0 -54 -22 -55 -40 0 -3 16 -14 35 -24 l35 -19 -5
-61 -6 -61 64 -99 64 -98 -79 -146 c-43 -80 -78 -156 -78 -169 0 -26 -12 -30
-30 -9 -9 11 -17 12 -34 5 -21 -10 -22 -14 -13 -60 9 -44 7 -56 -13 -99 -27
-58 -21 -73 31 -68 35 3 39 1 54 -32 13 -29 14 -47 7 -95 -8 -50 -7 -67 10
-112 l21 -53 -26 -33 c-25 -33 -25 -34 -9 -79 15 -43 15 -48 -7 -124 -13 -43
-34 -98 -47 -121 -31 -55 -31 -86 2 -108 22 -14 25 -22 20 -50 -6 -28 1 -47
36 -111 24 -42 48 -78 53 -80 6 -1 49 -8 98 -14 55 -8 87 -17 87 -24 0 -7 -13
-25 -29 -40 -17 -16 -31 -40 -33 -54 -2 -19 -12 -28 -37 -37 -25 -8 -38 -20
-45 -43 -18 -52 -33 -60 -100 -53 l-59 7 -66 -51 c-66 -52 -66 -52 -91 -34
-14 10 -49 19 -80 21 l-55 4 -73 -102 c-63 -89 -72 -107 -72 -145 0 -64 9 -87
35 -93 38 -10 42 -80 11 -217 -24 -107 -25 -118 -11 -168 l14 -55 -36 -48
c-22 -31 -45 -83 -64 -144 -34 -113 -31 -108 -68 -123 -19 -8 -34 -26 -44 -51
-13 -33 -25 -44 -74 -66 -32 -14 -71 -29 -88 -33 -27 -6 -30 -10 -27 -42 5
-40 11 -45 69 -54 36 -5 47 -13 72 -49 l29 -42 -44 -27 c-39 -23 -43 -30 -34
-46 6 -12 33 -26 69 -36 l58 -17 38 -77 c22 -47 49 -85 66 -97 21 -14 30 -30
35 -62 10 -64 57 -82 97 -37 15 17 39 28 72 34 27 5 50 9 51 8 0 -1 14 -20 32
-43 20 -27 44 -44 70 -52 50 -15 67 -50 58 -119 -8 -56 14 -100 63 -129 24
-14 38 -38 70 -119 37 -96 43 -105 129 -190 82 -82 90 -94 97 -138 5 -42 11
-50 40 -64 31 -15 36 -15 59 1 23 14 26 24 26 70 0 45 3 54 20 59 15 4 29 -6
54 -35 l34 -40 17 26 c10 14 41 39 70 56 l53 30 92 -13 c91 -14 92 -14 102 8
9 20 20 23 92 29 44 4 116 15 159 25 76 18 78 18 91 -1 8 -11 55 -64 106 -119
l92 -99 -3 -78 c-3 -78 12 -155 32 -168 8 -4 9 -34 5 -88 -6 -75 -5 -86 23
-150 l29 -70 -24 -35 c-20 -30 -24 -48 -24 -108 0 -39 7 -102 16 -140 l16 -68
-56 -52 c-31 -29 -56 -59 -56 -67 0 -8 -16 -27 -34 -41 -63 -48 -76 -82 -69
-179 l6 -84 -47 -75 c-36 -58 -66 -90 -122 -133 l-74 -57 0 -73 c0 -71 0 -73
28 -79 18 -4 50 -32 93 -83 36 -42 69 -83 73 -89 4 -8 -5 -28 -24 -51 l-30
-38 26 -102 27 -102 69 -22 c78 -25 101 -51 113 -127 8 -46 45 -90 78 -91 9 0
17 -7 17 -16 0 -9 49 -64 109 -122 87 -87 109 -114 115 -144 5 -29 20 -49 67
-90 35 -30 72 -73 85 -100 20 -40 30 -48 61 -54 22 -4 43 -2 55 5 20 13 31 9
66 -22 17 -16 22 -31 22 -70 0 -41 -5 -53 -29 -76 -16 -15 -47 -35 -70 -45
-47 -22 -59 -47 -38 -80 9 -13 17 -38 19 -57 3 -30 7 -34 43 -41 22 -5 80 -7
130 -6 l90 3 0 98 c0 55 -3 101 -7 104 -15 9 -7 66 18 129 21 53 24 70 15 97
-5 17 -13 54 -17 81 -6 42 -15 57 -58 100 -28 28 -60 68 -71 88 l-19 38 34 29
c19 17 48 33 63 36 32 8 47 37 47 95 0 22 9 54 20 72 10 18 17 41 14 53 -2 11
2 52 10 90 13 60 21 75 53 103 78 68 110 85 148 78 19 -4 39 -15 45 -26 11
-21 56 -27 88 -11 9 5 58 21 107 36 50 15 101 37 115 50 14 12 44 34 67 48 54
34 58 41 37 76 -17 29 -17 38 4 208 12 98 38 271 58 383 l37 205 -21 90 c-12
49 -26 120 -32 157 l-10 68 70 149 c38 82 70 155 70 163 0 19 -71 42 -104 34
l-27 -7 21 38 c11 21 29 53 39 71 15 26 19 50 17 112 l-3 79 -194 255 c-159
209 -197 266 -215 319 -17 49 -52 105 -152 238 -179 240 -585 744 -597 742
-14 -3 -37 -113 -32 -155 3 -23 -1 -44 -10 -57 -8 -12 -11 -27 -7 -33 5 -7 9
-20 9 -30 3 -30 46 -59 80 -52 124 23 169 13 185 -45 5 -20 10 -40 10 -44 0
-5 8 -21 19 -35 18 -27 31 -81 37 -156 2 -21 16 -64 31 -95 20 -40 27 -68 25
-97 -2 -23 1 -45 7 -49 6 -3 11 -19 11 -34 0 -16 7 -34 15 -41 9 -8 15 -29 15
-56 0 -33 5 -46 20 -54 13 -7 20 -21 20 -40 0 -19 7 -33 20 -40 29 -16 25 -52
-10 -85 -26 -25 -32 -27 -40 -15 -5 8 -10 18 -10 23 0 4 -11 13 -25 19 -14 6
-28 22 -31 35 -4 13 -26 37 -50 54 -32 22 -45 38 -50 64 -7 41 -59 110 -82
111 -10 0 -28 6 -42 12 -14 6 -32 13 -41 15 -16 5 -39 91 -39 144 0 16 -11 30
-34 44 -19 11 -39 33 -46 49 -12 29 -35 45 -51 34 -5 -3 2 -19 16 -36 28 -33
25 -54 -5 -38 -21 11 -41 -7 -22 -19 16 -9 62 -80 62 -94 0 -7 -12 -19 -27
-27 -24 -14 -29 -25 -38 -89 l-10 -73 -55 -18 c-30 -11 -65 -19 -78 -20 -19 0
-21 3 -12 19 16 31 13 38 -40 70 -30 18 -55 43 -61 59 -6 15 -23 41 -39 57
-25 26 -30 43 -41 129 l-12 100 30 25 c33 29 63 83 63 115 0 12 7 32 16 44 8
12 14 32 13 45 -2 12 5 35 16 51 19 29 19 29 -3 44 -12 8 -22 23 -22 33 0 11
-6 19 -13 19 -20 0 -44 31 -52 67 -6 32 -25 56 -25 32 0 -8 -6 -6 -18 4 -16
14 -23 15 -51 4 -29 -10 -34 -10 -43 6 -5 10 -23 33 -39 51 -16 19 -32 49 -35
67 -4 19 -17 45 -29 59 -32 35 -59 113 -50 142 5 12 18 37 31 54 29 37 31 87
7 154 -16 44 -16 51 2 124 15 66 16 83 5 115 -9 28 -9 43 -1 59 15 27 14 32
-4 32 -9 0 -15 9 -15 24 0 13 -9 35 -20 49 -21 27 -28 111 -10 122 18 11 11
31 -15 43 -13 6 -37 29 -53 51 -37 51 -51 158 -26 197 11 16 14 36 10 61 -3
21 -9 57 -12 81 -7 43 -36 75 -66 71 -29 -3 -49 2 -43 11 4 6 -7 23 -22 39
-16 16 -35 47 -41 69 -7 23 -16 43 -21 46 -14 9 8 115 38 180 21 45 27 72 24
102 -4 34 0 45 25 72 17 18 35 32 41 32 5 0 18 9 28 19 10 10 27 21 38 23 17
3 20 11 17 45 -1 23 2 44 8 48 5 3 10 17 10 30 0 17 6 25 22 27 12 2 36 22 53
45 16 23 44 47 61 53 46 16 58 46 51 133 -4 55 -12 87 -34 125 -24 43 -26 54
-15 69 22 33 25 45 14 64 -7 10 -12 38 -12 60 0 28 -9 58 -27 88 -23 39 -25
49 -16 83 8 29 7 42 -3 55 -18 24 -17 71 1 90 12 11 15 34 14 86 -1 40 -1 156
-1 259 1 108 -3 199 -9 214 -7 20 -6 41 2 76 11 41 11 50 -4 66 -25 27 -21 47
14 76 26 22 30 30 24 57 -8 36 10 79 33 79 8 0 21 -8 29 -17 13 -17 14 -16 8
7 -4 14 -10 45 -12 69 -4 35 -16 58 -54 103 -27 33 -49 65 -49 73 0 8 -18 26
-40 40 -21 13 -44 35 -51 47 -7 13 -27 38 -45 55 -49 49 -64 74 -64 110 0 41
-38 116 -73 143 -25 20 -27 26 -21 69 4 35 2 57 -10 80 -10 18 -14 40 -11 50
3 10 1 40 -5 66 -10 45 -9 50 15 75 l27 28 -44 30 c-23 17 -59 47 -78 67 -19
21 -48 45 -63 55 -27 17 -33 17 -83 3 -51 -15 -56 -15 -105 5 -47 20 -53 20
-86 7 -66 -28 -146 -14 -162 27 -5 13 -36 52 -69 88 -49 53 -62 63 -74 53 -10
-9 -45 -11 -113 -8 l-99 4 -80 80 -81 80 -32 -20z"/>
</g>
</svg>
