<?xml version="1.0" standalone="no"?>
<!DOCTYPE svg PUBLIC "-//W3C//DTD SVG 20010904//EN"
 "http://www.w3.org/TR/2001/REC-SVG-20010904/DTD/svg10.dtd">
<svg version="1.0" xmlns="http://www.w3.org/2000/svg"
 width="1024.000000pt" height="1024.000000pt" viewBox="0 0 1024.000000 1024.000000"
 preserveAspectRatio="xMidYMid meet">
<metadata>
Created by potrace 1.10, written by Peter Selinger 2001-2011
</metadata>
<g transform="translate(0.000000,1024.000000) scale(0.100000,-0.100000)"
fill="#000000" stroke="none">
<path d="M10180 8220 c-14 -4 -39 -8 -55 -9 -20 -1 -55 -19 -102 -55 -66 -50
-75 -54 -113 -49 -36 5 -42 3 -47 -15 -6 -26 -81 -76 -110 -74 -12 1 -35 -3
-50 -9 -15 -6 -61 -15 -100 -19 -67 -7 -77 -11 -127 -54 -40 -34 -67 -49 -107
-57 -30 -6 -91 -30 -136 -52 -77 -39 -84 -45 -98 -87 -14 -40 -26 -52 -108
-108 -56 -38 -102 -62 -119 -62 -31 0 -152 -61 -189 -96 -23 -22 -33 -24 -125
-24 -68 0 -108 5 -128 15 -38 20 -41 19 -55 -12 -7 -16 -45 -71 -84 -124 -91
-122 -155 -170 -276 -208 -77 -24 -99 -37 -149 -82 -39 -37 -84 -65 -137 -87
-43 -19 -112 -56 -153 -84 -48 -32 -89 -52 -116 -56 -22 -3 -61 -16 -85 -29
-24 -12 -52 -23 -61 -23 -10 0 -29 -9 -42 -20 -14 -10 -101 -41 -194 -67
l-169 -48 -180 0 -180 0 -70 -43 c-38 -23 -76 -42 -83 -42 -7 0 -39 -25 -71
-54 -42 -40 -86 -69 -166 -106 l-110 -52 -93 7 c-90 6 -96 5 -133 -20 -60 -39
-153 -65 -238 -65 -60 0 -92 -7 -159 -32 -78 -29 -88 -31 -128 -20 -62 17
-129 15 -144 -3 -9 -11 -33 -15 -87 -15 -59 0 -83 5 -125 26 -42 21 -55 24
-75 15 -34 -16 -153 -13 -183 4 -14 8 -52 14 -87 15 -34 0 -74 5 -88 10 -53
20 -159 31 -210 21 -43 -8 -62 -6 -132 16 -80 24 -83 25 -138 8 -62 -18 -81
-16 -195 20 -120 37 -140 38 -185 4 -32 -24 -48 -29 -98 -29 -75 0 -161 26
-208 62 -33 25 -45 28 -114 28 -69 0 -81 3 -122 31 -24 17 -71 41 -102 54 -32
12 -82 38 -113 58 l-55 35 -7 -76 c-3 -41 -6 -103 -6 -136 0 -58 2 -63 30 -79
29 -18 30 -21 31 -95 1 -42 4 -140 8 -217 5 -118 4 -149 -11 -200 -10 -33 -23
-90 -29 -127 -18 -116 -53 -212 -100 -276 -34 -47 -65 -73 -149 -125 -62 -38
-121 -68 -145 -72 -36 -5 -43 -3 -70 25 -16 16 -39 30 -51 30 -12 0 -35 11
-51 24 -15 13 -53 29 -83 37 -30 7 -86 30 -125 50 -38 20 -88 42 -110 49 -22
7 -49 19 -60 26 -11 8 -43 14 -73 14 -29 0 -62 5 -73 11 -11 5 -47 15 -81 20
-52 8 -63 7 -79 -7 -13 -12 -29 -15 -58 -11 -36 4 -41 3 -49 -23 -9 -23 -17
-28 -62 -33 -29 -4 -64 -14 -79 -24 -19 -12 -42 -16 -88 -14 l-62 2 -22 -43
c-12 -24 -46 -69 -75 -100 -37 -38 -54 -65 -54 -83 0 -30 -55 -142 -115 -236
-38 -59 -52 -71 -129 -113 -51 -28 -92 -57 -98 -70 -14 -31 -138 -71 -194 -63
-21 4 -65 9 -96 13 -54 6 -59 9 -113 70 -31 36 -71 72 -88 81 -60 31 -97 67
-97 94 0 19 -10 34 -38 53 -22 15 -45 24 -53 21 -8 -3 -26 -23 -42 -44 -26
-37 -27 -45 -27 -150 0 -130 12 -162 108 -290 l55 -75 5 -103 c4 -100 4 -103
-17 -103 -17 0 -21 -6 -21 -34 0 -28 6 -38 30 -53 19 -11 28 -23 25 -33 -3 -8
4 -28 15 -45 28 -42 26 -93 -5 -125 l-25 -26 35 -49 c18 -28 45 -72 59 -100
28 -54 126 -135 164 -135 13 0 29 -16 48 -47 23 -41 28 -61 32 -148 4 -95 6
-103 39 -149 33 -46 34 -51 28 -106 -6 -55 -5 -59 17 -65 23 -8 49 -26 113
-78 18 -15 54 -35 80 -43 25 -9 69 -37 98 -63 79 -72 109 -90 138 -84 16 3 45
-5 77 -21 28 -14 66 -26 84 -26 18 0 68 -12 110 -26 67 -22 84 -33 125 -79 43
-48 54 -54 107 -64 32 -6 92 -29 133 -51 41 -22 87 -40 103 -40 15 0 53 -11
84 -25 72 -32 122 -33 131 -4 7 20 11 21 89 15 78 -6 83 -6 105 18 13 14 38
28 55 32 17 3 44 15 59 26 24 17 34 19 66 10 31 -7 46 -6 76 9 34 17 40 17 54
4 14 -12 25 -12 83 1 76 17 96 11 176 -53 49 -40 152 -188 189 -271 25 -57 26
-91 8 -179 l-7 -33 83 5 c46 2 107 7 135 10 43 6 63 2 115 -20 79 -34 129 -43
129 -24 0 8 3 23 6 34 3 14 -9 38 -44 81 -74 92 -78 107 -63 233 12 95 17 111
46 148 50 66 190 168 255 186 36 11 67 28 88 50 22 23 53 40 93 52 56 17 72
17 252 4 191 -13 312 -15 375 -4 21 4 50 24 83 56 49 49 50 49 79 34 54 -28
168 -10 183 30 5 11 21 15 57 15 44 0 60 6 107 40 31 22 68 40 82 40 45 1 107
35 130 73 27 45 108 77 270 109 l114 22 64 77 c54 66 73 81 119 98 66 25 156
28 174 6 7 -8 23 -15 35 -15 20 0 27 11 50 79 27 82 79 151 123 165 23 8 27
37 42 280 13 218 24 242 145 314 87 51 90 52 167 52 44 0 111 5 149 12 99 16
195 -2 269 -51 30 -20 67 -42 82 -49 16 -6 48 -30 72 -52 24 -22 53 -40 64
-40 34 0 154 49 179 72 16 15 23 33 23 59 l0 37 68 12 c37 6 90 14 117 17 28
3 55 12 61 20 10 12 20 12 72 -1 33 -9 81 -16 106 -16 30 0 65 -9 97 -26 37
-18 59 -23 80 -19 25 6 36 1 70 -30 32 -29 43 -34 54 -25 11 9 19 8 37 -4 12
-9 26 -16 30 -16 16 0 7 48 -12 65 -15 13 -20 31 -20 66 0 32 -8 64 -25 95
-14 26 -25 53 -25 59 0 7 -19 28 -43 48 -24 20 -58 64 -81 105 -21 38 -50 76
-63 83 -50 27 -225 221 -251 279 -26 57 -68 110 -87 110 -22 0 -103 96 -120
143 -12 31 -27 52 -40 57 -25 10 -35 29 -35 71 0 16 -7 47 -16 69 -15 36 -15
54 -5 141 6 55 11 124 11 155 0 76 21 121 87 179 51 46 55 53 44 73 -16 30 -5
47 76 122 60 55 71 61 100 57 22 -4 39 0 56 13 22 17 26 18 46 4 44 -31 81
-35 113 -13 16 12 36 18 44 15 24 -9 95 13 130 39 27 21 34 36 50 112 17 84
21 90 85 163 36 41 118 125 181 185 108 103 120 112 204 144 49 19 122 56 163
84 90 60 212 117 252 117 41 0 69 21 150 112 102 116 197 195 262 217 70 24
101 45 115 76 6 14 20 25 30 25 13 0 23 15 37 53 38 108 116 217 156 217 11 0
31 11 44 24 13 13 46 29 74 36 28 6 75 29 105 50 42 29 66 39 108 43 92 8 145
33 189 92 31 41 41 65 45 106 4 32 16 70 31 92 36 57 23 76 -37 57z"/>
</g>
</svg>
