<?xml version="1.0" standalone="no"?>
<!DOCTYPE svg PUBLIC "-//W3C//DTD SVG 20010904//EN"
 "http://www.w3.org/TR/2001/REC-SVG-20010904/DTD/svg10.dtd">
<svg version="1.0" xmlns="http://www.w3.org/2000/svg"
 width="1024.000000pt" height="1024.000000pt" viewBox="0 0 1024.000000 1024.000000"
 preserveAspectRatio="xMidYMid meet">
<metadata>
Created by potrace 1.10, written by Peter Selinger 2001-2011
</metadata>
<g transform="translate(0.000000,1024.000000) scale(0.100000,-0.100000)"
fill="#000000" stroke="none">
<path d="M2790 7880 l0 -2130 -1396 0 c-1326 0 -1396 -1 -1389 -17 4 -10 9
-43 10 -72 3 -50 7 -58 42 -87 21 -17 52 -34 69 -38 41 -9 64 -35 107 -121 50
-101 116 -167 195 -195 56 -21 72 -34 164 -132 66 -71 118 -118 149 -134 40
-20 50 -31 60 -64 19 -64 124 -156 241 -213 53 -25 114 -62 136 -81 22 -20 44
-36 50 -36 17 0 100 -93 116 -130 8 -19 20 -60 26 -91 8 -41 24 -74 62 -125
74 -101 81 -122 82 -250 1 -108 2 -113 32 -155 17 -24 50 -81 74 -127 48 -93
93 -136 193 -186 48 -24 66 -40 80 -68 35 -72 122 -121 236 -135 49 -5 61 -12
97 -49 40 -40 56 -48 147 -68 15 -4 48 -29 75 -57 56 -60 81 -76 92 -59 5 8
17 5 43 -10 22 -13 62 -24 97 -27 l60 -6 0 41 c0 35 5 45 33 66 18 14 40 37
47 51 8 15 28 30 51 36 35 11 37 14 32 44 -4 22 3 47 21 83 14 28 26 64 26 79
0 15 27 84 60 153 l59 125 73 17 c40 10 90 17 111 16 35 -2 39 1 58 39 11 23
29 45 39 48 10 3 58 -10 107 -30 48 -19 97 -35 108 -35 64 2 83 2 110 0 17 -1
43 2 59 6 16 4 31 2 35 -3 3 -6 29 -18 58 -27 46 -15 55 -15 86 -3 19 8 38 20
41 26 10 16 26 13 26 -4 0 -11 7 -14 24 -9 16 4 25 1 30 -11 4 -11 12 -14 26
-10 15 5 20 2 20 -12 0 -25 37 -83 53 -83 7 0 19 -6 25 -12 7 -7 20 -13 30
-13 14 0 17 -8 14 -41 -2 -38 1 -43 29 -54 17 -8 81 -53 142 -102 61 -48 114
-88 117 -88 4 0 33 -37 65 -82 32 -46 68 -94 80 -108 12 -14 30 -54 40 -90 9
-36 39 -106 66 -156 27 -50 49 -101 49 -113 0 -12 19 -43 43 -69 24 -26 48
-59 55 -74 6 -16 16 -28 22 -28 13 0 13 -27 -1 -32 -16 -5 37 -162 67 -198 15
-17 56 -50 93 -74 57 -36 71 -51 90 -95 14 -34 30 -55 46 -61 17 -6 27 -22 35
-52 24 -93 33 -108 101 -172 38 -36 76 -66 84 -66 8 0 33 -7 55 -16 30 -12 48
-30 75 -74 40 -65 43 -99 17 -174 l-17 -49 36 -36 c40 -40 56 -101 39 -146
-19 -50 -11 -69 68 -161 l78 -90 28 -119 c25 -106 32 -121 64 -150 27 -26 33
-38 29 -57 -6 -23 -4 -25 103 -46 85 -17 119 -28 154 -54 25 -17 46 -37 46
-42 0 -6 4 -18 10 -26 7 -12 12 -12 34 0 23 12 29 11 64 -13 42 -30 58 -33 64
-15 5 15 168 -88 168 -107 0 -7 34 -22 75 -34 75 -23 77 -23 148 -5 70 17 72
17 164 -6 89 -23 95 -26 163 -92 41 -39 84 -71 103 -76 30 -8 32 -7 35 22 4
38 25 53 82 61 25 3 55 8 68 11 l23 5 -23 31 c-13 17 -40 47 -60 68 -29 28
-38 45 -38 71 0 56 -39 201 -64 239 -27 41 -36 68 -71 205 -30 123 -31 139 -6
132 16 -4 19 3 24 67 15 173 19 296 11 296 -5 0 -20 -7 -32 -16 -20 -14 -29
-13 -102 8 -44 12 -80 26 -80 30 0 4 9 12 20 18 l21 11 -21 26 c-47 61 -8 73
43 13 l34 -40 44 45 c46 46 67 47 49 1 -15 -42 -12 -48 16 -30 31 21 43 44 83
164 18 52 41 110 51 128 11 17 15 32 10 32 -5 0 -12 -5 -15 -10 -9 -15 -85 83
-85 109 0 16 -6 21 -25 21 -30 0 -75 21 -94 44 -10 12 -8 17 9 26 18 10 25 8
40 -8 17 -18 22 -18 87 -6 76 15 99 11 124 -20 10 -11 19 -19 21 -16 119 151
131 171 122 194 -9 23 -15 20 -54 -29 -48 -61 -62 -65 -54 -15 7 40 6 40 -27
40 l-33 0 33 34 c21 22 29 36 21 41 -22 14 9 34 44 28 25 -4 39 1 63 21 34 29
43 26 43 -18 0 -28 1 -29 14 -10 10 13 11 23 4 31 -11 14 1 42 28 64 16 13 17
10 11 -49 l-7 -64 39 31 c60 48 67 59 52 83 -9 15 -10 23 -2 31 19 19 12 45
-16 67 -25 19 -26 23 -12 33 21 16 35 69 16 61 -8 -3 -20 2 -27 10 -10 13 -9
20 4 41 9 14 20 25 25 25 5 0 32 -45 61 -100 28 -55 56 -100 61 -100 23 0 199
84 196 93 -7 23 -36 32 -58 19 -24 -15 -59 -7 -59 14 0 8 9 14 20 14 21 0 24
8 14 34 -4 11 -19 16 -45 16 -38 0 -39 1 -39 38 0 21 -7 48 -16 61 -15 21 -15
24 12 52 l28 30 18 -23 c10 -13 18 -30 18 -38 0 -22 60 -56 69 -41 4 6 15 9
24 5 18 -7 24 11 7 21 -5 3 -10 19 -10 36 0 16 5 29 10 29 6 0 10 -5 10 -11 0
-8 4 -8 14 0 12 10 16 5 26 -23 12 -39 40 -69 40 -44 0 21 33 48 57 48 11 0
26 7 33 15 33 40 42 -10 9 -56 l-20 -29 43 0 c33 0 70 14 162 61 114 59 120
61 155 49 26 -8 44 -9 64 -1 80 31 -9 -19 -246 -137 -240 -120 -268 -136 -306
-182 -23 -28 -65 -62 -92 -75 -27 -14 -83 -48 -125 -75 -42 -28 -83 -50 -90
-50 -8 0 -14 -8 -14 -18 0 -10 -23 -35 -51 -57 -52 -40 -143 -162 -155 -209
-4 -19 -13 -26 -30 -26 -17 0 -24 -6 -24 -20 0 -11 -15 -43 -34 -72 -53 -84
-111 -207 -131 -278 -9 -36 -25 -81 -35 -100 -14 -28 -19 -65 -21 -180 -2 -80
1 -160 5 -177 11 -46 0 -76 -24 -63 -40 21 -29 -25 44 -178 48 -101 90 -209
117 -302 38 -127 44 -140 50 -112 5 23 -2 62 -23 130 -16 53 -38 136 -49 184
-10 47 -33 121 -50 165 -31 78 -31 79 -32 278 l-1 200 32 94 c63 184 223 472
328 590 70 79 237 208 315 244 53 24 84 46 108 76 44 56 143 119 319 203 79
37 164 82 189 99 24 17 92 53 149 80 94 44 114 59 192 137 48 49 149 134 227
190 77 55 153 114 169 131 28 29 28 31 8 31 -11 0 -24 5 -27 10 -9 14 -25 2
-25 -19 0 -10 -52 -61 -122 -121 -68 -58 -168 -148 -223 -201 -63 -60 -111
-99 -130 -103 -26 -6 -23 -3 20 27 78 53 155 140 155 174 0 16 7 38 15 49 19
26 19 51 -2 63 -15 8 -14 10 10 16 21 6 31 3 41 -10 16 -23 46 -13 46 14 0 11
3 27 6 36 7 17 74 55 99 55 8 0 15 6 15 13 0 6 3 22 6 34 4 15 1 23 -14 27
-14 5 -18 13 -15 30 4 17 -5 32 -31 57 -41 38 -43 45 -19 71 11 13 12 18 3 18
-9 0 -11 10 -7 34 5 30 2 35 -18 40 -18 5 -25 15 -30 47 -9 53 1 60 31 22 20
-26 114 -90 118 -81 1 2 13 27 26 55 23 53 33 62 45 43 10 -17 26 -11 56 21
23 25 32 28 47 20 19 -10 19 -14 -13 -128 -19 -65 -32 -120 -29 -122 3 -3 25
0 49 7 59 16 73 15 91 -3 12 -12 19 -12 36 -2 16 9 22 9 25 0 3 -7 9 -13 14
-13 5 0 64 27 132 60 133 65 232 95 284 87 l33 -6 -30 37 c-19 23 -30 48 -30
67 1 60 74 185 109 185 22 0 46 26 65 70 12 30 12 45 1 105 -8 39 -21 85 -30
103 -18 35 -20 29 30 97 13 18 13 24 0 49 -24 45 -18 78 22 137 50 71 87 164
85 210 -2 22 3 41 13 49 19 16 19 39 -1 61 -17 19 -11 39 12 39 18 0 18 5 -2
36 -13 19 -14 28 -5 37 18 18 13 37 -13 48 -16 8 -26 23 -31 46 -3 19 -17 44
-31 55 -18 17 -24 32 -24 63 0 32 -7 52 -30 80 -32 41 -36 50 -20 60 19 12 10
33 -19 44 -41 18 -58 53 -43 95 16 44 15 56 -9 120 -20 55 -122 181 -161 200
-17 9 -18 39 -18 742 l0 732 -46 4 c-33 2 -48 -1 -54 -12 -7 -12 -12 -12 -33
-1 -22 12 -28 11 -48 -3 -39 -27 -64 -20 -93 24 -25 37 -30 40 -60 35 -28 -6
-39 -2 -67 23 -19 16 -59 37 -90 45 -30 9 -64 26 -74 37 -10 11 -30 20 -44 20
-18 0 -46 19 -91 62 -58 55 -145 108 -177 108 -7 0 -34 -13 -59 -30 -26 -16
-61 -32 -78 -36 -42 -7 -126 13 -152 37 l-21 20 -94 -46 c-95 -46 -107 -48
-166 -24 -24 10 -37 10 -55 2 -13 -7 -42 -15 -64 -18 -29 -4 -51 -17 -75 -41
-21 -22 -42 -34 -60 -34 -20 0 -32 -9 -48 -35 -11 -19 -25 -35 -30 -35 -6 0
-27 20 -47 45 -21 24 -41 42 -45 39 -15 -9 -129 68 -135 92 -8 30 -9 30 -46
-6 -16 -16 -39 -30 -51 -30 -39 1 -104 37 -123 69 -25 42 -50 41 -58 -2 -3
-19 -18 -45 -32 -58 -14 -13 -37 -43 -51 -66 -14 -24 -31 -43 -38 -43 -16 0
-65 56 -65 74 0 7 7 21 15 32 14 18 20 54 10 54 -3 0 -19 -10 -35 -22 -23 -17
-33 -19 -42 -10 -17 17 -23 15 -64 -20 -44 -39 -67 -30 -72 26 -2 27 -7 36
-17 32 -7 -2 -30 -8 -49 -12 -38 -7 -38 -6 -50 49 -4 16 -16 31 -29 36 -18 7
-28 1 -61 -36 -38 -43 -101 -83 -131 -83 -25 0 -72 28 -79 47 -4 10 1 28 13
44 25 33 14 46 -43 51 -45 4 -78 39 -80 86 -1 26 -3 28 -23 19 -15 -7 -35 -5
-69 7 -81 28 -93 23 -151 -63 -1 -2 -27 15 -56 38 -57 44 -83 49 -147 30 -49
-15 -141 11 -188 53 -25 21 -38 26 -45 19 -17 -17 -88 -13 -127 7 -31 15 -37
25 -52 82 -14 54 -23 71 -60 102 -24 21 -46 38 -50 38 -5 0 -8 -15 -8 -34 0
-47 -30 -54 -88 -20 l-44 26 -41 -22 c-38 -20 -46 -21 -82 -8 -31 10 -47 24
-70 62 -49 80 -98 126 -134 126 l-31 0 -2 918 -3 917 -1187 3 -1188 2 0 -2130z"/>
<path d="M9425 3481 c-43 -15 -82 -36 -123 -69 -34 -27 -40 -37 -31 -48 9 -11
19 -9 58 13 25 14 69 43 97 64 27 20 59 39 70 42 10 2 3 5 -16 5 -19 0 -44 -3
-55 -7z"/>
</g>
</svg>
