<?xml version="1.0" standalone="no"?>
<!DOCTYPE svg PUBLIC "-//W3C//DTD SVG 20010904//EN"
 "http://www.w3.org/TR/2001/REC-SVG-20010904/DTD/svg10.dtd">
<svg version="1.0" xmlns="http://www.w3.org/2000/svg"
 width="1024.000000pt" height="1024.000000pt" viewBox="0 0 1024.000000 1024.000000"
 preserveAspectRatio="xMidYMid meet">
<metadata>
Created by potrace 1.10, written by Peter Selinger 2001-2011
</metadata>
<g transform="translate(0.000000,1024.000000) scale(0.100000,-0.100000)"
fill="#000000" stroke="none">
<path d="M5640 10233 c-45 -7 -150 -44 -156 -55 -10 -17 -212 -108 -238 -108
-13 0 -41 -6 -62 -14 -24 -8 -114 -16 -235 -20 -108 -4 -214 -12 -235 -18 -21
-5 -73 -15 -114 -22 -41 -7 -86 -17 -100 -23 -14 -7 -46 -15 -73 -18 -34 -5
-52 -13 -63 -29 -8 -14 -40 -33 -74 -45 -33 -12 -72 -32 -87 -45 -16 -13 -42
-31 -60 -39 -17 -9 -34 -26 -38 -37 -3 -11 -26 -32 -51 -46 -28 -17 -52 -41
-65 -66 -11 -22 -34 -47 -52 -56 -18 -9 -63 -49 -102 -88 -38 -39 -104 -92
-146 -117 -62 -39 -91 -66 -155 -147 -43 -55 -92 -126 -109 -158 -16 -32 -52
-88 -78 -125 -27 -37 -55 -88 -62 -115 -17 -62 -66 -169 -113 -245 -118 -193
-350 -486 -439 -554 -18 -14 -43 -42 -55 -62 -34 -57 -110 -143 -276 -314
-180 -187 -247 -279 -244 -337 2 -23 -5 -55 -16 -77 -33 -65 -35 -109 -7 -218
16 -65 25 -128 25 -181 0 -85 16 -141 50 -179 29 -31 62 -133 69 -211 3 -39
11 -77 17 -85 7 -8 15 -30 18 -49 8 -39 33 -143 67 -268 20 -77 21 -97 16
-295 -7 -242 -21 -325 -68 -399 -43 -66 -88 -159 -89 -180 0 -31 -238 -208
-335 -249 -37 -16 -80 -39 -95 -52 -16 -12 -52 -35 -80 -52 -29 -16 -81 -49
-116 -72 -35 -24 -67 -43 -71 -43 -3 0 -24 -15 -47 -33 -23 -19 -70 -47 -106
-62 -36 -16 -74 -37 -85 -47 -12 -10 -36 -21 -54 -24 -21 -5 -48 -23 -73 -50
-22 -24 -58 -54 -81 -68 -57 -33 -105 -86 -161 -177 -55 -90 -58 -128 -21
-234 14 -38 25 -77 25 -86 0 -19 92 -150 161 -229 27 -31 61 -83 76 -117 22
-47 55 -89 147 -182 65 -67 132 -129 149 -137 99 -52 281 -192 429 -331 36
-35 72 -63 78 -63 37 0 340 -335 340 -375 0 -8 14 -23 30 -35 17 -12 39 -38
49 -58 11 -21 40 -57 66 -82 55 -53 135 -194 135 -237 0 -17 9 -50 20 -74 28
-63 28 -206 0 -242 -11 -14 -20 -39 -20 -55 0 -17 -10 -56 -22 -87 -17 -44
-29 -60 -57 -75 -54 -28 -89 -61 -109 -100 -9 -19 -33 -44 -52 -56 -19 -12
-44 -32 -55 -43 -11 -12 -44 -46 -73 -76 -66 -68 -73 -88 -63 -170 11 -95 31
-113 201 -187 l75 -32 220 -1 c188 0 226 3 264 18 42 17 45 17 97 -3 30 -11
73 -20 94 -20 22 0 40 -4 40 -10 0 -23 62 -77 102 -89 24 -8 69 -36 103 -65
63 -55 160 -129 208 -159 15 -10 39 -39 54 -65 21 -39 39 -55 92 -83 56 -30
73 -45 113 -106 26 -39 66 -84 89 -100 22 -15 68 -52 101 -80 41 -36 69 -53
88 -53 15 0 36 -10 50 -25 13 -14 33 -25 46 -25 12 0 35 -7 50 -15 34 -19 152
-12 196 11 15 8 38 14 52 14 14 0 113 45 220 100 109 56 207 100 223 100 45 0
106 20 135 45 15 13 47 26 70 30 24 4 59 14 78 22 19 9 76 19 127 24 51 4 112
14 135 22 24 8 84 18 133 22 50 4 101 13 115 20 15 7 79 14 155 17 122 4 133
6 179 33 37 21 54 40 69 74 19 44 31 64 105 179 18 29 53 94 78 145 60 125 86
172 110 199 12 13 30 41 41 63 11 22 28 55 39 74 26 44 266 284 314 313 41 25
141 103 205 159 22 20 69 55 105 79 36 24 90 69 120 101 30 31 74 66 98 78 23
12 53 38 66 59 35 54 110 132 128 132 25 0 55 43 61 89 4 31 15 54 40 80 18
20 62 77 97 126 35 50 88 116 119 148 53 56 189 157 210 157 6 0 34 20 64 44
29 24 63 49 75 55 12 6 31 28 42 49 11 20 49 76 83 124 34 47 76 105 92 129
17 23 44 57 61 74 18 17 42 52 54 76 12 24 43 67 69 94 27 28 60 72 75 98 15
26 47 70 72 98 24 27 44 54 44 59 0 4 20 32 44 60 28 32 48 69 56 98 8 34 25
61 60 97 27 28 64 74 82 102 18 28 51 78 74 110 22 32 44 75 47 97 3 21 23 70
43 110 20 39 47 91 60 116 69 133 98 412 53 510 -11 25 -29 68 -40 97 -11 28
-35 71 -54 95 -19 23 -35 48 -35 54 0 6 -14 23 -30 37 -16 15 -30 34 -30 42 0
9 -17 34 -39 58 -21 23 -57 78 -80 122 -23 44 -51 96 -62 115 -11 19 -38 73
-60 120 -22 47 -46 96 -54 110 -8 14 -17 37 -20 52 -3 16 -19 35 -40 48 -19
12 -35 28 -35 36 0 8 -16 31 -35 53 -19 21 -35 44 -35 50 0 7 -9 30 -20 51
-11 22 -27 68 -36 103 -8 34 -21 76 -29 92 -8 17 -17 51 -20 77 -4 30 -16 59
-31 77 -15 18 -29 51 -34 83 -5 29 -18 79 -29 110 -12 32 -21 80 -21 107 0 34
-8 62 -25 92 -31 55 -31 94 -1 156 13 26 32 71 42 99 18 51 17 55 -3 182 -18
104 -28 142 -54 188 -18 32 -36 78 -40 103 -14 84 -36 144 -66 180 -16 20 -48
75 -71 123 -23 47 -46 89 -52 93 -5 3 -10 18 -10 33 0 15 -11 59 -25 97 -13
39 -25 84 -25 101 0 16 -5 35 -12 42 -6 6 -13 49 -16 94 -3 60 -10 89 -23 107
-14 17 -19 40 -19 86 0 41 -7 78 -20 106 -26 57 -27 171 -2 231 24 61 25 375
1 428 -9 19 -24 61 -33 92 -19 65 -70 146 -116 184 -17 15 -38 40 -47 58 -23
46 -52 74 -84 81 -16 4 -41 21 -54 40 -21 27 -44 39 -123 65 -53 17 -114 43
-134 57 -61 41 -144 65 -260 73 -104 8 -109 9 -150 44 -37 32 -48 36 -97 36
-97 0 -170 17 -191 43 -10 13 -38 29 -62 36 -24 7 -63 20 -88 29 -25 8 -81 19
-125 23 -189 19 -304 44 -321 70 -3 5 -40 9 -82 9 -55 0 -89 6 -121 20 -53 24
-89 25 -152 3 -45 -16 -50 -16 -84 0 -20 9 -39 16 -43 16 -4 -1 -18 -4 -32 -6z"/>
</g>
</svg>
