<?xml version="1.0" standalone="no"?>
<!DOCTYPE svg PUBLIC "-//W3C//DTD SVG 20010904//EN"
 "http://www.w3.org/TR/2001/REC-SVG-20010904/DTD/svg10.dtd">
<svg version="1.0" xmlns="http://www.w3.org/2000/svg"
 width="1024.000000pt" height="1024.000000pt" viewBox="0 0 1024.000000 1024.000000"
 preserveAspectRatio="xMidYMid meet">
<metadata>
Created by potrace 1.10, written by Peter Selinger 2001-2011
</metadata>
<g transform="translate(0.000000,1024.000000) scale(0.100000,-0.100000)"
fill="#000000" stroke="none">
<path d="M6381 8544 c-47 -10 -74 -11 -100 -4 -52 14 -101 12 -107 -4 -3 -8
-35 -34 -70 -57 -53 -34 -67 -39 -79 -29 -13 10 -19 10 -34 -4 -13 -12 -27
-14 -52 -9 -44 8 -96 30 -104 43 -3 5 -17 10 -30 10 -13 0 -27 5 -30 10 -3 6
-13 10 -21 10 -12 0 -14 -9 -9 -43 5 -33 3 -46 -9 -56 -14 -11 -14 -16 -1 -33
12 -18 12 -24 -3 -46 -9 -14 -34 -38 -56 -53 -55 -40 -109 -40 -151 1 -27 27
-35 29 -58 21 -16 -6 -37 -7 -59 0 -18 5 -51 9 -72 9 -22 0 -47 7 -56 15 -15
14 -20 13 -43 -6 -15 -11 -27 -29 -27 -39 0 -18 -40 -36 -50 -21 -14 21 -65
28 -97 13 -18 -9 -33 -20 -33 -25 0 -9 -32 -52 -84 -110 -15 -18 -37 -49 -47
-70 -11 -21 -35 -55 -53 -75 -19 -20 -37 -52 -41 -70 -10 -47 -9 -103 2 -111
15 -10 24 -59 12 -66 -7 -5 -6 -12 4 -23 24 -28 30 -63 17 -103 -11 -33 -17
-39 -42 -39 -16 0 -31 6 -34 15 -4 8 -14 15 -23 15 -10 0 -27 10 -40 21 -19
17 -22 28 -16 56 5 28 1 41 -19 68 -35 45 -88 55 -145 26 -34 -18 -44 -19 -62
-9 -17 11 -22 10 -34 -5 -19 -27 -49 -18 -53 16 -3 21 -9 27 -27 27 -13 0 -33
-9 -44 -21 -11 -12 -24 -18 -30 -15 -6 4 -13 -8 -17 -29 -7 -39 -7 -39 -35
-24 -16 8 -26 7 -45 -6 -21 -14 -24 -14 -24 0 0 8 -8 20 -19 27 -14 9 -18 20
-14 48 9 68 -68 127 -111 85 -8 -8 -27 -14 -43 -13 -65 4 -80 -1 -107 -42 -14
-22 -32 -40 -39 -40 -7 0 -17 19 -23 43 -9 42 -9 42 -67 51 -49 8 -61 7 -74
-7 -16 -15 -19 -14 -45 26 -15 23 -28 48 -28 55 0 19 -40 14 -47 -5 -20 -59
-85 -81 -123 -43 -11 11 -32 20 -46 20 -24 0 -26 -2 -20 -34 6 -30 3 -37 -24
-56 -49 -35 -68 -3 -30 50 l21 29 -52 16 c-62 18 -83 19 -110 5 -13 -7 -25 -7
-38 0 -14 7 -28 7 -47 0 -25 -10 -26 -9 -22 19 3 20 0 32 -10 36 -11 4 -13 16
-8 50 l7 45 -53 0 c-30 0 -59 -5 -65 -11 -8 -8 -17 -8 -31 0 -11 6 -30 11 -42
11 -11 0 -32 12 -45 26 -33 35 -72 44 -112 26 -38 -18 -63 -5 -63 35 0 19 -5
24 -22 23 -81 -7 -119 0 -144 27 -21 22 -35 28 -72 29 -26 0 -60 8 -77 16 -25
12 -49 13 -134 6 -94 -8 -106 -7 -125 10 -43 38 -66 41 -136 18 -67 -21 -130
-24 -284 -13 -66 5 -71 4 -113 -26 -33 -25 -42 -38 -41 -57 3 -33 -6 -46 -53
-76 -22 -14 -52 -38 -67 -55 -25 -27 -30 -29 -61 -20 -19 6 -38 8 -43 4 -6 -3
-7 3 -3 16 5 16 1 23 -18 30 -14 6 -28 14 -31 19 -3 6 -24 3 -51 -7 -33 -12
-44 -20 -39 -31 4 -8 5 -22 4 -30 -1 -8 -1 -47 -1 -87 0 -40 -4 -75 -9 -78
-13 -8 -13 -85 0 -85 5 0 18 -19 28 -42 10 -24 26 -49 35 -57 10 -7 17 -28 17
-47 0 -18 5 -36 10 -39 6 -3 10 -14 10 -24 0 -10 6 -24 14 -30 7 -6 16 -25 20
-42 3 -17 19 -43 36 -59 16 -15 30 -37 30 -48 0 -18 -4 -20 -30 -12 -28 8 -32
6 -41 -17 -7 -20 -6 -35 6 -60 9 -18 20 -33 25 -33 18 0 9 -114 -13 -175 l-22
-60 -83 -5 -83 -5 -47 -52 c-26 -29 -83 -78 -126 -109 -93 -65 -284 -255 -340
-337 -24 -34 -47 -57 -58 -57 -11 0 -18 -7 -18 -18 0 -10 -15 -25 -33 -35 -41
-23 -66 -79 -45 -104 9 -12 13 -48 11 -132 0 -64 -3 -127 -5 -141 -2 -18 4
-28 24 -38 35 -16 50 -44 46 -82 l-3 -29 -73 30 c-93 37 -107 37 -120 -1 -7
-19 -24 -36 -46 -47 -32 -15 -36 -21 -36 -54 0 -23 -6 -41 -15 -46 -8 -5 -21
-28 -30 -53 -16 -45 -50 -95 -96 -142 -47 -47 -54 -88 -30 -161 22 -66 65
-137 82 -137 6 0 35 -23 65 -51 38 -37 54 -59 54 -78 0 -42 13 -52 72 -55 76
-4 82 -10 74 -64 -4 -28 -2 -50 5 -58 17 -21 29 -17 29 11 0 24 3 25 38 19 31
-5 42 -2 62 18 14 13 30 33 36 43 14 25 60 13 69 -18 4 -12 21 -37 38 -55 29
-30 36 -32 95 -32 83 0 150 -17 163 -42 9 -17 17 -19 68 -13 53 6 61 4 118
-29 63 -37 85 -38 147 -5 18 11 102 4 123 -9 5 -4 19 -28 30 -53 13 -28 33
-54 52 -65 17 -10 37 -34 46 -56 12 -32 20 -38 44 -38 67 0 93 13 159 80 63
63 71 68 122 74 31 4 94 4 140 1 51 -4 105 -2 135 5 28 7 78 12 112 12 60 0
63 1 83 34 12 18 32 42 44 51 12 10 26 29 29 43 10 38 18 44 72 58 60 15 141
68 150 97 5 19 6 19 16 3 14 -25 69 -24 69 0 0 9 -9 23 -20 30 -26 16 -26 42
-1 42 11 0 41 -11 66 -24 52 -28 75 -25 75 10 0 29 11 30 35 4 14 -16 26 -19
48 -14 21 4 32 1 41 -12 15 -20 36 -11 36 15 0 9 6 26 14 37 14 18 15 18 21
-9 9 -34 37 -36 59 -3 23 36 54 43 73 16 13 -18 21 -20 58 -15 41 7 43 6 65
-32 39 -64 61 -83 96 -83 35 0 46 -10 48 -44 1 -15 9 -22 29 -24 15 -2 27 -10
27 -17 0 -23 18 -27 42 -11 31 22 58 20 58 -3 0 -10 -6 -24 -14 -30 -8 -6 -16
-21 -19 -31 -7 -27 18 -26 37 2 l15 21 9 -24 c5 -13 11 -33 13 -43 6 -31 26
-29 32 2 7 37 59 62 88 44 10 -7 32 -9 50 -5 38 7 59 -14 59 -60 0 -16 9 -40
20 -54 11 -14 20 -34 20 -45 0 -15 4 -17 16 -10 11 6 27 4 46 -5 27 -14 31
-14 54 8 29 27 41 19 46 -31 2 -26 7 -35 21 -34 21 2 20 5 2 -40 -14 -34 -13
-41 8 -37 5 1 1 -9 -7 -21 -9 -12 -16 -42 -16 -66 0 -31 -7 -53 -26 -77 -16
-22 -23 -39 -18 -47 5 -7 7 -37 5 -66 -2 -44 -1 -51 13 -46 9 3 22 2 29 -4 6
-5 24 -12 38 -15 25 -6 33 -20 53 -80 10 -32 36 -31 72 4 l34 33 0 -36 c0 -20
-5 -40 -11 -43 -7 -5 -8 -25 -4 -56 6 -40 4 -49 -8 -49 -28 0 -29 -19 -3 -44
27 -24 37 -88 16 -101 -18 -11 -1 -23 41 -30 30 -5 43 -13 50 -32 8 -22 14
-25 49 -21 32 3 40 0 40 -13 0 -9 9 -24 20 -34 17 -16 20 -31 20 -117 0 -91
-1 -98 -20 -98 -28 0 -25 -16 7 -46 16 -14 39 -36 53 -49 14 -12 36 -28 49
-35 21 -11 22 -13 8 -27 -13 -13 -23 -14 -58 -5 -46 12 -59 9 -59 -14 0 -34
-46 0 -75 55 -17 33 -35 41 -35 15 0 -11 -6 -13 -19 -9 -15 5 -24 -2 -38 -27
-16 -29 -18 -31 -21 -11 -2 12 -15 26 -30 32 -15 6 -32 21 -37 33 -14 30 -32
33 -40 9 -8 -27 -22 -27 -30 -1 -3 11 -10 20 -15 20 -12 0 -24 -46 -15 -59 3
-6 -1 -11 -9 -11 -8 0 -19 -8 -25 -17 -5 -10 -13 -15 -16 -11 -4 4 -3 12 1 20
4 7 8 38 9 70 1 53 -1 58 -21 58 -12 0 -27 -7 -34 -15 -7 -8 -25 -15 -41 -15
-19 0 -34 -8 -44 -24 -9 -13 -24 -26 -34 -29 -18 -4 -18 -9 -7 -64 9 -42 10
-66 2 -82 -9 -20 -6 -27 22 -52 18 -16 32 -31 32 -34 0 -2 -14 -25 -32 -50
-28 -40 -31 -48 -19 -66 7 -12 11 -22 9 -24 -2 -1 -28 -10 -58 -20 -79 -25
-88 -36 -82 -96 4 -45 2 -51 -17 -56 -12 -3 -21 -13 -21 -24 0 -15 -7 -19 -35
-19 -25 0 -35 -4 -35 -16 0 -10 -6 -14 -15 -10 -19 7 -38 -59 -29 -103 4 -20
3 -31 -5 -31 -6 0 -11 -13 -11 -30 0 -33 -19 -40 -40 -15 -19 22 -86 19 -110
-5 -24 -24 -26 -40 -5 -40 9 0 15 -9 15 -25 0 -36 23 -76 57 -101 53 -39 130
-73 181 -80 55 -7 96 1 74 15 -10 6 -10 15 -3 34 12 32 25 33 69 7 40 -24 39
-24 45 0 5 20 21 29 94 51 24 6 50 20 59 31 13 13 31 18 76 18 66 0 107 -15
158 -58 29 -25 35 -38 40 -81 11 -108 52 -41 56 91 l3 87 -45 -6 c-31 -4 -44
-2 -44 6 0 25 118 135 227 213 68 48 140 109 181 155 84 93 97 115 87 139 -5
11 -16 39 -24 63 -14 36 -24 47 -57 60 -22 9 -52 25 -65 36 -48 38 -44 105 7
105 15 0 23 -4 19 -11 -9 -14 22 -47 67 -70 44 -22 53 -35 50 -70 -1 -18 5
-29 23 -39 20 -11 22 -16 14 -32 -6 -10 -9 -27 -7 -36 3 -14 6 -12 17 8 35 65
126 217 141 235 10 11 22 34 28 51 8 27 7 35 -9 51 -33 32 -15 50 54 58 34 4
88 16 120 27 47 17 62 19 83 9 45 -20 74 -13 110 26 19 20 37 33 41 30 4 -4 1
-13 -5 -19 -7 -7 -12 -15 -12 -19 0 -13 52 -20 66 -9 9 8 37 10 86 5 107 -10
124 11 103 126 -8 41 16 99 40 99 18 0 20 -16 4 -26 -6 -3 -17 -21 -25 -40
-12 -28 -12 -37 0 -61 8 -15 21 -45 30 -67 14 -33 20 -38 42 -33 19 3 30 -2
46 -23 17 -23 31 -30 79 -35 63 -7 77 -25 37 -46 -27 -14 -204 -3 -261 17 -22
8 -72 14 -111 14 -42 0 -77 5 -84 12 -24 24 -22 0 2 -29 34 -41 77 -58 105
-43 14 7 27 7 39 1 9 -5 43 -12 75 -16 42 -5 60 -13 68 -27 6 -11 9 -21 7 -22
-35 -26 -82 -46 -105 -46 -39 0 -61 -23 -43 -45 18 -22 50 -19 50 5 0 29 15
25 40 -10 15 -21 30 -30 50 -30 15 0 30 -7 34 -15 3 -8 17 -15 30 -15 26 0 56
-32 56 -60 0 -11 25 -22 86 -39 l87 -24 51 19 c36 13 79 19 146 20 126 1 125
0 110 19 -19 23 -3 31 28 13 32 -19 62 -8 62 22 0 11 5 20 10 20 6 0 10 -17
10 -37 0 -33 1 -35 13 -18 15 20 42 12 33 -10 -3 -8 1 -19 9 -25 10 -8 14 -8
18 2 3 9 12 4 27 -15 21 -26 23 -27 46 -12 13 8 31 15 40 15 13 0 14 3 5 14
-10 12 -8 19 7 34 16 16 22 17 36 7 13 -10 15 -22 10 -53 -3 -23 -3 -57 0 -77
6 -32 10 -35 41 -35 19 0 35 -4 35 -10 0 -5 -7 -7 -15 -4 -11 5 -17 -3 -21
-25 -7 -33 -11 -36 -33 -22 -10 7 -23 3 -39 -10 -18 -14 -28 -16 -38 -8 -9 8
-22 2 -51 -24 -66 -59 -105 -71 -129 -40 -12 16 -14 15 -28 -18 -10 -24 -26
-41 -48 -50 -55 -22 -128 -79 -134 -105 -3 -13 -13 -24 -20 -24 -8 0 -27 -8
-42 -18 -36 -24 -60 -38 -105 -62 -39 -22 -59 -51 -39 -58 7 -2 12 -14 12 -26
0 -17 9 -24 42 -33 36 -10 45 -9 66 7 13 11 43 22 67 25 49 8 63 0 170 -91 33
-28 75 -59 93 -68 30 -16 35 -16 67 0 19 9 35 20 35 24 0 15 46 26 78 18 35
-9 41 -28 16 -49 -18 -15 -12 -49 16 -88 11 -14 25 -52 31 -84 11 -54 10 -60
-11 -89 -19 -26 -21 -38 -16 -82 4 -29 2 -64 -3 -79 -7 -18 -7 -28 1 -33 12
-8 -44 -34 -73 -34 -24 0 -24 -5 0 -39 13 -17 42 -35 84 -50 55 -19 67 -28 76
-53 l11 -30 86 7 c100 8 147 25 180 65 14 16 40 34 59 40 19 6 35 17 35 23 0
7 9 18 19 24 10 7 26 34 35 61 15 46 24 55 97 101 88 57 118 71 153 71 27 0
131 44 141 60 3 6 28 21 55 35 26 13 50 29 52 36 4 12 64 15 97 4 16 -5 20 -3
15 9 -3 9 -3 24 1 34 4 9 9 24 10 34 1 9 9 28 18 42 15 23 24 26 73 26 63 0
127 -27 145 -63 16 -30 30 -37 51 -26 10 6 27 8 37 4 12 -4 21 2 29 20 13 27
13 27 113 9 17 -3 31 2 44 16 10 11 27 20 37 20 23 0 78 27 78 39 0 5 -7 15
-16 22 -21 17 -14 122 10 148 9 10 16 22 16 28 0 6 8 9 18 7 10 -3 28 6 44 23
l27 28 -37 30 c-34 27 -45 30 -126 34 -75 3 -95 0 -131 -18 -27 -14 -45 -30
-49 -45 -9 -37 -56 -44 -96 -14 -20 15 -30 29 -27 40 8 29 -32 22 -43 -7 -5
-14 -14 -25 -20 -25 -5 0 -10 -8 -10 -17 0 -10 -6 -26 -13 -35 -17 -22 -105
-68 -130 -68 -11 0 -25 -6 -31 -14 -16 -19 -66 -30 -66 -14 0 14 -106 68 -132
68 -18 0 -58 41 -58 60 0 8 9 23 20 35 17 18 18 26 9 60 -15 52 -88 126 -118
118 -15 -4 -21 -1 -21 11 0 9 -6 16 -14 16 -8 0 -16 5 -18 12 -3 9 -12 9 -36
-1 -17 -7 -40 -10 -49 -6 -16 6 -14 9 10 21 35 19 34 57 0 62 -31 5 -29 30 2
38 29 7 34 24 7 24 -19 0 -63 -30 -100 -67 -12 -13 -29 -23 -38 -23 -13 0 -12
4 4 27 11 16 32 39 46 52 26 25 34 59 16 77 -5 5 -7 45 -3 97 l6 87 41 0 c24
0 52 8 66 17 13 10 51 32 85 48 43 21 64 39 73 61 8 16 24 34 35 40 28 12 34
50 12 74 -9 10 -15 25 -13 32 3 8 9 5 17 -10 6 -12 18 -22 26 -22 9 0 15 -13
17 -37 4 -47 32 -57 50 -18 10 23 9 33 -9 68 -30 60 -35 76 -39 137 -4 60 9
96 25 71 5 -8 12 -39 16 -69 4 -30 15 -68 26 -86 10 -17 19 -42 19 -55 0 -22
1 -23 18 -9 9 9 28 19 41 23 13 4 63 46 110 94 73 73 93 88 133 96 25 6 56 8
67 3 11 -4 34 -2 51 3 42 15 60 6 60 -31 0 -21 -11 -43 -37 -71 -35 -39 -36
-41 -13 -37 20 2 35 22 73 93 26 50 52 91 57 93 5 2 25 14 45 28 20 13 44 24
55 24 10 0 22 5 25 10 9 15 77 11 99 -5 15 -12 17 -22 12 -57 -6 -39 -5 -41 7
-23 8 11 24 50 36 87 17 50 32 75 57 96 88 72 182 93 194 42 6 -24 7 -23 35
20 16 25 43 68 61 96 l33 51 72 6 c42 4 78 12 88 21 9 8 32 14 51 13 19 -1 47
2 63 6 22 6 27 4 27 -10 1 -44 16 -41 73 12 36 33 57 61 57 75 0 12 8 34 19
48 10 15 20 39 23 54 4 23 1 27 -21 30 -29 3 -28 -2 -15 121 6 63 10 70 46
102 22 18 51 36 65 40 14 3 40 17 57 30 17 13 43 28 59 34 15 6 27 16 27 23 0
7 11 36 24 64 l24 51 178 1 c204 2 280 9 310 29 18 11 25 34 39 126 16 106 56
214 85 232 13 8 13 66 0 100 -6 15 -33 52 -60 83 -41 46 -50 63 -50 93 0 34
-3 38 -51 60 -50 24 -50 24 -45 64 11 93 21 120 43 123 12 2 31 -2 43 -8 38
-21 107 53 80 85 -14 17 -50 20 -50 4 0 -5 -4 -7 -10 -4 -5 3 -35 10 -65 15
-41 7 -63 17 -85 39 -17 16 -30 32 -30 34 0 5 58 16 101 20 38 3 55 22 68 74
13 50 57 99 104 115 15 6 27 13 27 17 0 4 -11 34 -24 67 -22 55 -27 60 -70 74
-42 14 -65 32 -66 52 0 3 16 12 35 18 19 6 37 15 40 20 11 18 -8 61 -34 74
-23 12 -36 12 -92 -1 -61 -15 -69 -15 -111 1 -42 16 -57 33 -72 79 -5 15 -19
17 -105 17 l-99 0 -32 40 c-35 44 -68 52 -87 20 -7 -11 -27 -27 -44 -36 -30
-15 -32 -15 -58 9 -14 14 -39 29 -54 33 -22 5 -27 11 -24 26 4 14 -5 26 -36
46 -28 19 -42 23 -45 14 -2 -7 -22 -12 -49 -12 -37 0 -50 5 -74 31 -16 17 -29
35 -29 40 0 5 -31 9 -70 9 -73 0 -76 -2 -60 -46 6 -14 8 -41 4 -59 -5 -29 -9
-32 -30 -26 -14 3 -33 20 -44 36 -11 17 -54 49 -102 76 l-83 46 -3 46 c-2 37
-9 51 -33 72 -17 14 -36 25 -43 25 -7 0 -21 9 -31 20 -16 18 -16 20 -1 26 9 4
16 17 16 34 0 27 -1 28 -32 19 -18 -5 -47 -9 -64 -9 -19 0 -54 -15 -93 -40
-48 -31 -71 -40 -106 -40 -35 0 -58 -9 -107 -40 -77 -50 -98 -56 -136 -36 -17
9 -49 16 -71 16 -22 0 -43 5 -46 10 -3 6 -33 28 -65 50 -74 50 -116 52 -232 9
-121 -44 -118 -43 -118 -26 0 9 -14 32 -31 51 -43 50 -50 82 -32 162 16 77 9
120 -30 183 -11 19 -24 59 -28 89 -8 58 -27 81 -67 82 -37 0 -60 17 -72 55
-22 67 -65 77 -178 39 -59 -20 -82 -18 -82 5 0 11 -13 29 -29 40 -24 17 -44
21 -110 21 -87 0 -95 6 -65 49 17 23 12 32 -20 44 -6 2 -5 15 1 33 16 44 4 91
-31 129 l-32 33 36 11 c19 6 50 20 67 31 31 19 32 22 27 67 -7 54 -38 94 -95
124 -31 15 -42 31 -68 93 -17 41 -31 81 -31 90 0 8 -10 27 -23 43 -13 15 -38
50 -56 77 -35 50 -94 86 -141 85 -14 -1 -54 -7 -89 -15z"/>
</g>
</svg>
