<?xml version="1.0" standalone="no"?>
<!DOCTYPE svg PUBLIC "-//W3C//DTD SVG 20010904//EN"
 "http://www.w3.org/TR/2001/REC-SVG-20010904/DTD/svg10.dtd">
<svg version="1.0" xmlns="http://www.w3.org/2000/svg"
 width="1024.000000pt" height="1024.000000pt" viewBox="0 0 1024.000000 1024.000000"
 preserveAspectRatio="xMidYMid meet">
<metadata>
Created by potrace 1.10, written by Peter Selinger 2001-2011
</metadata>
<g transform="translate(0.000000,1024.000000) scale(0.100000,-0.100000)"
fill="#000000" stroke="none">
<path d="M1760 7545 c-19 -7 -58 -14 -87 -14 -49 -1 -54 -3 -78 -38 -21 -31
-25 -49 -25 -106 0 -62 -3 -72 -32 -108 -22 -28 -39 -39 -58 -39 -15 0 -35 -9
-44 -19 -15 -16 -16 -25 -6 -61 10 -38 9 -45 -8 -62 -18 -19 -21 -19 -50 -4
-17 9 -54 41 -83 71 -47 50 -217 185 -233 185 -3 0 -6 -12 -6 -27 0 -37 -10
-50 -53 -76 -20 -12 -52 -44 -71 -72 -19 -27 -55 -62 -78 -76 -36 -21 -44 -31
-46 -60 -2 -20 -15 -46 -31 -64 -15 -16 -32 -42 -39 -57 -6 -15 -29 -38 -50
-52 -27 -17 -54 -50 -87 -106 -50 -86 -94 -120 -153 -120 -24 0 -32 -8 -54
-54 l-27 -54 28 -37 28 -38 -24 -43 c-13 -24 -39 -52 -58 -64 -28 -17 -34 -28
-40 -71 -6 -45 -10 -50 -36 -56 -22 -4 -29 -11 -29 -29 0 -14 -10 -30 -25 -40
-28 -19 -32 -41 -10 -70 8 -10 15 -31 15 -46 0 -15 9 -42 20 -60 12 -21 20
-51 20 -80 0 -26 4 -58 10 -72 12 -33 -2 -41 -40 -21 -16 8 -30 13 -30 10 0
-4 16 -27 35 -52 19 -25 35 -49 35 -54 0 -4 -20 -24 -44 -44 -30 -24 -47 -47
-51 -68 -17 -85 -26 -104 -49 -115 -14 -6 -45 -37 -71 -69 -51 -66 -58 -103
-24 -139 18 -19 29 -22 63 -18 36 5 44 2 70 -25 21 -21 39 -31 60 -31 24 0 35
-7 47 -29 16 -28 127 -111 148 -111 13 0 115 -64 154 -97 16 -12 35 -23 43
-23 13 0 13 27 0 124 0 5 19 16 45 24 44 14 46 14 100 -18 29 -18 65 -45 79
-60 14 -14 45 -34 70 -44 25 -10 66 -31 92 -48 39 -25 56 -29 99 -27 46 3 54
0 74 -25 21 -26 24 -27 72 -18 63 11 103 -6 103 -43 0 -14 5 -25 12 -25 6 0
45 -17 86 -37 63 -31 77 -42 92 -77 10 -23 45 -84 78 -136 60 -97 85 -116 117
-90 10 9 26 7 66 -7 40 -14 55 -25 65 -48 10 -24 34 -41 126 -87 62 -31 135
-64 162 -73 34 -12 54 -27 67 -50 13 -21 32 -36 58 -44 21 -6 42 -18 45 -26 3
-9 18 -15 35 -15 24 0 36 9 62 45 l32 45 77 0 c69 0 79 -3 100 -25 18 -20 33
-25 70 -25 40 0 51 -5 80 -35 19 -20 44 -35 57 -35 12 0 73 -33 134 -73 l111
-74 145 44 c153 47 173 47 173 -1 0 -12 12 -39 27 -61 18 -27 31 -63 38 -110
13 -93 30 -102 138 -78 l75 16 30 -25 c24 -20 45 -26 107 -31 46 -4 94 -2 121
4 41 11 47 10 68 -10 12 -11 32 -21 44 -21 15 0 27 -11 39 -37 21 -44 70 -73
124 -73 30 0 39 6 60 37 13 21 38 45 56 53 30 14 31 16 18 40 -19 33 -18 37 4
59 14 14 40 21 93 26 83 8 160 -10 259 -61 41 -20 152 -64 164 -64 1 0 22 29
46 65 34 49 50 65 68 65 16 0 47 22 92 65 37 36 72 65 78 65 6 0 17 -12 25
-27 10 -20 33 -36 76 -53 43 -17 66 -33 73 -50 7 -14 16 -28 20 -31 5 -4 73
-10 151 -14 185 -9 203 -13 273 -71 67 -55 67 -56 80 -225 l6 -86 57 -31 c45
-25 70 -32 112 -32 47 0 58 -4 83 -30 23 -24 37 -30 72 -30 39 0 45 -3 60 -34
12 -26 24 -36 49 -41 24 -4 34 -11 34 -24 0 -10 12 -26 26 -36 22 -14 27 -15
37 -2 13 15 121 29 157 20 16 -4 20 -14 20 -43 0 -22 -7 -45 -16 -54 -14 -15
-13 -17 17 -30 42 -18 145 -10 179 14 14 10 66 37 115 59 57 27 99 54 116 75
16 19 44 37 69 45 39 12 42 11 61 -13 15 -20 30 -26 58 -26 30 0 40 -5 54 -29
9 -16 17 -37 17 -46 0 -10 9 -57 21 -106 18 -79 23 -89 43 -89 12 0 32 -7 44
-16 13 -9 34 -14 48 -11 20 3 24 0 24 -19 0 -34 26 -30 45 6 8 16 29 37 45 45
17 9 30 24 30 34 0 14 14 25 45 37 42 16 46 16 64 0 10 -9 36 -20 57 -23 22
-3 47 -12 56 -21 14 -11 29 -13 70 -7 111 16 243 4 271 -24 6 -6 29 -11 52
-11 22 0 49 -7 59 -15 11 -8 31 -15 44 -15 14 0 48 -20 83 -49 66 -55 112 -68
201 -58 78 10 192 69 224 116 14 22 38 44 53 51 16 6 38 24 50 41 12 16 26 29
30 29 5 0 19 -29 31 -65 30 -89 56 -118 126 -138 49 -14 59 -14 68 -2 9 11 19
12 56 2 25 -7 56 -20 70 -30 24 -17 26 -17 40 2 8 10 22 32 31 48 14 26 24 31
91 43 71 12 80 11 142 -10 l66 -22 29 24 c17 13 30 31 30 41 1 21 34 23 51 2
7 -8 27 -15 45 -15 29 0 33 4 39 35 7 34 7 34 51 28 30 -4 50 -1 60 7 13 11
17 8 25 -17 8 -21 29 -40 75 -66 35 -20 66 -37 68 -37 3 0 23 31 46 68 27 45
41 80 41 103 0 65 21 152 52 213 30 59 30 62 23 160 -7 100 -8 102 -56 174
-51 77 -52 80 -49 124 1 28 -33 60 -112 102 -36 19 -37 22 -49 105 -14 98 0
232 27 262 15 17 15 21 -5 52 -17 28 -21 50 -21 120 0 80 2 89 35 144 19 32
46 92 60 133 21 62 25 86 19 136 -5 49 -3 67 11 88 24 37 16 106 -19 146 -14
17 -29 43 -32 56 l-6 25 -24 -22 c-13 -12 -24 -31 -24 -41 0 -24 -26 -23 -77
4 -38 20 -44 21 -69 8 -15 -8 -39 -35 -53 -58 -41 -69 -44 -72 -68 -66 -17 5
-23 14 -23 34 0 25 -5 29 -38 35 -22 3 -54 1 -77 -7 -32 -10 -44 -22 -61 -57
-35 -72 -97 -88 -162 -42 -41 29 -71 26 -122 -10 -37 -27 -49 -31 -88 -26 -37
4 -53 0 -81 -19 -30 -20 -48 -24 -117 -24 -80 0 -83 1 -147 45 -133 91 -162
105 -219 103 -36 -2 -70 5 -103 20 -27 11 -84 32 -125 44 -70 21 -76 26 -95
64 -27 55 -44 74 -66 74 -13 0 -19 -7 -19 -23 0 -45 -41 -60 -90 -33 -53 30
-84 -25 -70 -126 14 -96 -13 -120 -145 -129 l-90 -6 -54 41 c-59 44 -65 56
-75 137 -4 31 -13 65 -20 74 -20 27 -70 11 -106 -35 -29 -37 -30 -41 -30 -139
0 -94 -2 -104 -24 -126 -21 -21 -28 -22 -66 -14 -48 11 -111 41 -127 61 -5 7
-13 22 -16 33 -11 42 -83 192 -102 217 -11 13 -32 31 -45 38 -33 17 -79 71
-80 92 0 10 -9 42 -20 72 -19 51 -22 54 -47 47 -20 -5 -29 -16 -36 -42 -5 -19
-12 -38 -16 -42 -12 -12 -100 11 -129 33 -38 31 -104 26 -177 -11 l-60 -31
-135 6 c-121 5 -138 9 -172 31 -74 49 -80 76 -39 185 41 110 18 196 -57 218
-77 23 -114 7 -133 -59 -16 -51 -37 -62 -119 -62 -83 0 -109 13 -213 110 -93
85 -119 99 -198 108 -49 5 -63 12 -112 55 -57 52 -92 70 -132 70 -38 0 -75 39
-81 85 -10 81 -38 148 -67 164 -19 11 -29 27 -33 52 -4 26 -13 40 -31 48 -26
12 -27 14 -7 109 6 29 4 33 -27 46 -19 8 -52 33 -74 55 -21 23 -43 41 -47 41
-5 0 -18 -11 -30 -25 -27 -31 -41 -31 -95 1 -48 28 -68 26 -118 -10 -16 -12
-42 -28 -57 -35 -16 -8 -28 -17 -28 -20 -2 -23 -55 -65 -101 -80 -46 -15 -55
-23 -63 -49 -5 -20 -15 -32 -26 -32 -9 0 -55 27 -101 60 -46 32 -92 65 -102
72 -11 7 -24 39 -32 73 -13 56 -20 66 -95 138 -45 42 -90 77 -100 77 -36 0
-50 12 -50 41 0 23 -9 35 -41 56 -34 22 -44 25 -60 15 -14 -9 -25 -9 -43 -1
-19 9 -29 8 -47 -5 -35 -24 -66 -20 -82 10 -9 18 -38 37 -93 60 -67 30 -89 35
-146 33 -56 -2 -73 2 -112 25 -56 33 -62 42 -36 56 11 6 20 20 20 31 0 16 -19
29 -86 60 -47 22 -88 48 -91 57 -23 62 -82 102 -150 102 -29 0 -53 4 -53 9 0
19 -67 49 -125 56 -63 7 -172 40 -192 59 -9 8 -9 21 0 54 l11 42 -94 95 -95
95 -90 -1 c-75 -2 -105 3 -175 26 -102 34 -279 44 -340 20z"/>
</g>
</svg>
