<?xml version="1.0" standalone="no"?>
<!DOCTYPE svg PUBLIC "-//W3C//DTD SVG 20010904//EN"
 "http://www.w3.org/TR/2001/REC-SVG-20010904/DTD/svg10.dtd">
<svg version="1.0" xmlns="http://www.w3.org/2000/svg"
 width="1024.000000pt" height="1024.000000pt" viewBox="0 0 1024.000000 1024.000000"
 preserveAspectRatio="xMidYMid meet">
<metadata>
Created by potrace 1.10, written by Peter Selinger 2001-2011
</metadata>
<g transform="translate(0.000000,1024.000000) scale(0.100000,-0.100000)"
fill="#000000" stroke="none">
<path d="M7483 9180 c-102 -36 -140 -74 -97 -98 13 -7 14 -15 5 -48 -14 -50
-14 -54 3 -54 8 0 17 12 21 28 l7 27 11 -25 c15 -35 17 -36 27 -20 7 11 11 11
24 1 8 -7 20 -10 26 -6 14 8 13 32 -1 37 -9 3 -8 11 2 28 7 14 15 43 18 65 5
35 10 40 34 43 24 3 27 0 27 -25 0 -15 -9 -41 -20 -58 -13 -20 -20 -47 -20
-82 l0 -51 -46 -16 c-39 -13 -50 -13 -73 -2 -28 14 -93 6 -99 -13 -2 -7 -33
-11 -77 -11 -62 0 -73 -3 -78 -19 -2 -10 0 -26 5 -35 7 -12 3 -24 -15 -45 -24
-28 -24 -31 -12 -98 9 -50 23 -86 54 -135 l43 -67 -32 -56 -32 -57 31 -32 c31
-32 34 -33 76 -23 44 10 46 9 102 -35 32 -25 59 -55 61 -67 2 -11 16 -30 32
-41 16 -11 39 -37 51 -57 22 -36 23 -36 33 -14 7 15 6 55 -1 123 -6 55 -9 107
-6 115 8 20 72 -43 133 -132 26 -38 73 -92 104 -118 52 -45 59 -48 86 -39 28
10 29 9 44 -36 18 -52 21 -118 6 -127 -5 -3 -10 1 -10 9 0 18 -8 20 -30 6 -13
-8 -13 -16 1 -67 15 -57 15 -60 -10 -135 -22 -64 -32 -81 -63 -102 l-38 -25
-41 54 c-36 47 -69 71 -69 48 0 -3 24 -52 53 -107 30 -56 60 -118 66 -139 8
-23 23 -43 37 -49 19 -9 24 -19 24 -49 0 -28 5 -41 20 -49 12 -6 25 -22 30
-35 7 -18 14 -23 26 -18 14 5 16 2 10 -21 -5 -20 0 -35 19 -60 31 -41 31 -60
3 -88 -13 -12 -36 -49 -53 -82 -21 -43 -36 -62 -52 -64 -16 -2 -23 -12 -28
-42 -4 -22 -15 -50 -25 -63 -19 -24 -19 -24 5 -35 45 -21 52 -47 58 -204 4
-115 2 -151 -9 -165 -7 -10 -14 -29 -14 -43 0 -16 -12 -34 -33 -52 -31 -24
-37 -25 -81 -15 l-47 11 -47 -47 -47 -46 -70 7 -69 7 -30 48 -29 47 12 88 c9
61 22 103 43 142 25 44 31 69 35 135 4 70 -2 111 -51 335 -61 274 -65 334 -25
384 18 23 18 23 -5 34 -27 12 -81 76 -126 150 -31 51 -33 57 -27 128 l6 75
-27 -3 c-22 -3 -31 5 -59 52 -29 49 -31 55 -15 64 26 14 26 15 7 36 -23 25
-65 27 -65 3 0 -10 -24 23 -54 72 -49 80 -54 94 -49 131 5 41 5 41 -28 47 -19
2 -38 1 -43 -4 -15 -13 -28 -11 -53 10 -19 16 -26 38 -38 130 -9 61 -13 116
-10 121 3 6 14 10 25 10 11 0 22 11 28 29 7 19 18 31 34 33 32 4 39 53 9 63
-14 4 -21 15 -21 31 0 36 34 31 66 -11 17 -23 35 -35 50 -35 18 0 25 -7 32
-32 l8 -33 -55 -5 c-62 -6 -81 -14 -81 -36 0 -11 15 -14 65 -14 60 0 65 -2 71
-24 3 -14 3 -34 -1 -45 -6 -21 -7 -21 -56 4 -47 25 -66 21 -33 -6 11 -9 14
-23 11 -45 -4 -26 0 -37 24 -60 23 -22 29 -36 30 -73 0 -25 10 -73 22 -105 21
-58 24 -61 82 -83 41 -16 67 -21 83 -15 22 7 19 12 -57 81 l-81 73 0 86 c0 62
4 90 15 102 8 9 31 55 49 101 l34 84 -29 30 c-16 17 -29 35 -29 40 0 6 -4 16
-9 23 -7 12 -14 11 -38 -2 -34 -17 -43 -13 -43 19 0 19 7 23 41 28 22 3 42 7
44 9 1 1 6 29 9 60 l7 56 -59 41 -59 40 -60 -62 c-44 -46 -70 -84 -99 -147
-21 -47 -42 -91 -47 -98 -5 -7 -47 -35 -94 -63 -63 -39 -88 -60 -103 -89 -11
-22 -20 -43 -20 -47 0 -5 51 -39 113 -76 133 -79 162 -108 250 -248 78 -123
104 -192 118 -306 12 -109 29 -141 110 -207 101 -84 136 -148 169 -313 22
-108 26 -151 22 -224 -4 -84 -3 -93 23 -141 27 -50 28 -52 21 -177 -7 -111
-16 -159 -77 -394 -38 -147 -69 -286 -69 -308 0 -27 -14 -68 -46 -130 -45 -90
-45 -91 -38 -162 6 -58 14 -82 41 -123 l34 -52 42 10 c23 5 42 10 43 11 0 1
15 27 32 57 43 75 84 106 260 194 143 71 156 76 217 76 51 0 80 -6 132 -30 49
-22 81 -30 124 -30 49 0 60 -4 76 -24 10 -13 74 -54 142 -91 137 -73 233 -146
296 -227 26 -34 67 -69 109 -94 l67 -40 79 8 c77 8 80 8 137 -23 32 -18 95
-59 141 -92 87 -62 116 -98 206 -255 58 -102 65 -148 41 -261 -10 -45 -15 -84
-11 -88 16 -17 85 72 113 145 28 75 28 75 91 105 52 24 71 28 110 24 99 -12
191 -39 288 -83 96 -43 103 -49 139 -105 32 -49 44 -59 67 -59 32 0 38 21 12
42 -78 62 -84 72 -84 148 0 39 5 80 11 92 9 16 6 25 -14 47 -38 39 -49 78 -42
142 6 51 10 57 38 70 47 20 46 55 -3 184 -40 105 -41 109 -29 163 11 45 19 58
45 74 32 19 44 51 44 122 0 16 12 45 27 64 l26 35 -1 193 c-1 175 -3 196 -20
221 -16 22 -21 52 -26 147 -5 101 -10 126 -30 160 -29 50 -66 178 -66 232 -1
24 -10 55 -25 79 -14 23 -25 55 -25 76 0 22 -7 42 -19 53 -10 9 -22 31 -25 48
-18 90 -27 109 -57 120 -16 5 -29 16 -29 23 0 8 -11 27 -24 43 -15 17 -23 36
-20 48 5 19 -46 71 -163 164 -24 18 -43 37 -43 42 0 5 -30 44 -68 88 -56 66
-85 90 -172 141 -118 69 -130 80 -130 124 0 26 -7 35 -54 63 -75 44 -176 190
-176 254 0 33 -8 41 -76 77 -47 25 -63 39 -67 59 -4 16 -20 36 -42 50 -28 18
-35 28 -35 55 0 46 -62 107 -111 109 -19 0 -43 -4 -54 -9 -11 -6 -34 -8 -51
-6 -39 6 -74 -11 -74 -36 0 -17 -18 -31 -41 -31 -5 0 -9 7 -9 15 0 8 -25 34
-55 58 -30 23 -55 49 -55 58 0 8 -5 20 -12 27 -15 15 -65 16 -74 1 -4 -8 -26
-9 -65 -5 -54 6 -59 5 -59 -13 0 -11 5 -23 10 -26 6 -3 10 -17 10 -29 0 -17 9
-27 30 -36 26 -11 30 -18 30 -49 0 -64 -9 -80 -52 -93 -36 -11 -108 -77 -108
-100 0 -4 14 -8 30 -8 23 0 33 6 40 25 7 19 17 25 39 25 19 0 48 15 87 45 61
48 70 52 76 34 6 -19 65 17 72 43 l6 23 20 -25 c11 -14 20 -30 20 -35 0 -18
-58 -75 -77 -75 -11 0 -34 -11 -53 -25 -19 -14 -40 -25 -47 -25 -7 0 -18 -20
-24 -45 -13 -51 -35 -60 -45 -17 -10 48 -13 52 -35 52 -18 0 -20 -5 -16 -26 6
-35 -21 -44 -139 -44 -84 0 -104 4 -167 30 -40 17 -86 43 -103 58 -44 38 -95
144 -106 222 -5 36 -12 80 -15 98 -5 32 -4 33 21 26 16 -4 44 0 70 10 59 22
94 74 104 152 l8 59 29 -45 c24 -37 29 -56 29 -110 1 -45 7 -74 19 -93 l18
-27 -34 -16 c-33 -16 -34 -18 -26 -53 5 -20 6 -44 3 -55 -6 -17 -2 -18 42 -12
27 4 72 18 99 31 28 12 67 31 88 40 l39 17 -25 26 c-14 15 -36 50 -50 78 -14
28 -42 65 -62 82 -19 18 -62 76 -94 129 -33 54 -73 108 -89 120 -18 13 -33 36
-37 55 -5 22 -37 62 -104 130 -90 92 -98 98 -136 97 -22 0 -64 -9 -92 -19z"/>
<path d="M1730 5265 c-7 -8 -21 -15 -31 -15 -10 0 -23 -9 -28 -19 -13 -23
-106 -71 -137 -71 -12 0 -24 -7 -28 -15 -3 -9 -18 -15 -34 -15 -16 0 -37 -9
-47 -20 -16 -17 -16 -23 -2 -63 l15 -43 -42 -57 c-22 -31 -63 -70 -89 -87 -26
-17 -45 -35 -42 -40 4 -7 13 -7 25 0 33 18 37 11 43 -68 6 -101 -1 -172 -19
-172 -7 0 -31 -9 -54 -21 -22 -11 -59 -23 -82 -26 l-43 -6 24 27 c14 14 35 26
47 26 25 0 45 21 26 28 -7 2 -12 9 -12 16 0 20 46 58 66 54 15 -2 20 4 22 29
3 25 -3 36 -27 54 -16 12 -32 30 -34 40 -6 22 -34 36 -48 22 -6 -6 -1 -18 12
-31 32 -35 18 -86 -52 -187 -59 -83 -60 -87 -59 -148 1 -34 -1 -71 -5 -82 -4
-14 0 -27 14 -39 12 -11 21 -23 21 -28 0 -16 -39 -8 -58 13 l-20 20 -18 -23
c-11 -13 -26 -27 -35 -30 -12 -5 -15 -14 -12 -32 6 -31 22 -33 56 -6 29 23 48
25 65 8 7 -7 39 -13 73 -14 51 -2 60 0 57 14 -2 10 -19 20 -41 25 -27 7 -37
14 -35 26 5 25 54 26 84 2 15 -12 35 -21 46 -21 12 0 24 -12 33 -32 15 -37 5
-59 -25 -51 -12 3 -22 -2 -29 -16 -10 -17 -21 -21 -66 -21 -47 0 -55 -3 -55
-19 0 -26 77 -47 119 -33 25 9 31 8 31 -2 0 -8 23 -28 50 -46 30 -19 50 -39
50 -50 0 -11 16 -28 40 -41 45 -25 47 -30 23 -55 -14 -13 -29 -16 -84 -11
-100 8 -130 25 -158 86 l-25 51 -23 -22 c-17 -16 -38 -23 -81 -25 -130 -6
-150 -1 -189 56 -35 50 -94 70 -152 52 -21 -6 -40 -11 -43 -11 -2 0 -15 23
-28 50 -25 54 -31 58 -50 36 -14 -18 -36 -11 -70 20 -15 13 -37 25 -50 25 -36
3 -144 -31 -133 -41 4 -5 35 -10 68 -12 l60 -3 3 -37 3 -38 -40 0 c-27 0 -49
-8 -68 -23 -15 -13 -47 -34 -70 -47 -65 -36 -56 -54 12 -26 28 12 35 12 35 2
0 -20 -33 -45 -68 -52 -26 -5 -35 -2 -56 22 -13 16 -27 26 -31 22 -3 -3 -7
-40 -8 -82 -1 -44 -6 -76 -12 -76 -6 0 -19 -17 -30 -37 -11 -20 -35 -55 -52
-77 -38 -48 -40 -57 -13 -81 27 -24 25 -43 -5 -57 -14 -6 -28 -21 -31 -34 -4
-15 -11 -20 -25 -17 -22 6 -23 4 -9 -31 5 -14 16 -26 25 -26 8 0 15 -7 15 -16
0 -12 6 -15 23 -10 12 3 32 6 43 6 14 0 31 15 48 40 35 53 70 67 115 45 32
-15 35 -15 55 5 13 11 36 20 53 20 17 0 50 7 73 15 26 9 57 13 76 9 25 -5 40
-1 60 15 15 12 36 21 48 21 26 -1 56 -22 56 -40 0 -8 8 -22 17 -32 15 -17 15
-23 4 -51 -8 -18 -14 -41 -15 -53 -3 -26 -26 -58 -48 -67 -10 -3 -18 -16 -18
-27 0 -12 -11 -36 -25 -54 -14 -18 -25 -42 -25 -53 0 -25 -40 -63 -67 -63 -11
0 -40 7 -63 15 -23 8 -62 15 -87 15 -38 0 -50 -6 -92 -45 -52 -48 -73 -54
-110 -29 -19 14 -27 14 -49 4 -15 -7 -36 -13 -47 -14 -29 -1 -105 -87 -105
-119 0 -14 7 -28 16 -31 19 -7 18 -8 32 20 9 17 25 23 72 29 58 7 62 6 96 -25
26 -22 40 -28 47 -21 15 15 78 13 100 -3 27 -21 24 -99 -5 -118 -17 -11 -27
-12 -40 -5 -13 9 -22 7 -37 -7 -38 -34 -22 -65 23 -45 58 27 91 -29 112 -189
6 -46 4 -56 -15 -76 -15 -16 -24 -41 -28 -79 -5 -45 -10 -57 -29 -66 -15 -6
-25 -7 -29 -1 -11 19 -42 10 -53 -15 -6 -13 -25 -31 -42 -40 -32 -17 -39 -39
-16 -48 8 -3 22 -18 32 -32 14 -21 15 -30 5 -51 -10 -22 -9 -26 7 -31 24 -6
62 -181 42 -193 -10 -6 -1 -24 32 -72 50 -70 71 -128 59 -161 -7 -18 0 -30 32
-64 37 -39 44 -43 76 -37 26 5 37 3 47 -11 10 -14 20 -16 46 -10 91 22 285 -3
376 -48 41 -20 44 -20 53 -4 12 20 56 22 93 6 19 -9 27 -22 32 -54 5 -36 10
-44 32 -48 15 -3 43 -1 63 5 27 8 46 6 82 -6 26 -9 68 -16 93 -16 72 0 111
-34 67 -59 -29 -16 -3 -34 31 -21 39 14 53 13 74 -10 17 -19 19 -19 52 -2 21
10 37 27 40 42 8 34 31 36 60 5 20 -21 22 -28 12 -50 -7 -14 -12 -53 -12 -85
0 -32 -5 -71 -12 -85 -13 -29 -12 -31 25 -40 23 -6 27 -4 27 14 0 17 6 21 34
21 18 0 39 7 46 15 9 11 32 15 79 15 59 0 67 2 76 22 10 24 17 25 91 13 36 -6
42 -5 46 12 7 26 55 36 67 15 6 -10 16 -13 36 -8 26 7 27 9 22 51 -4 23 -8 49
-9 56 -2 7 12 17 30 22 26 8 36 7 53 -9 16 -14 24 -16 37 -7 10 6 41 14 69 18
45 6 52 4 57 -13 12 -36 40 -51 111 -58 62 -6 74 -10 110 -44 56 -52 95 -80
111 -80 22 0 17 16 -16 53 -16 19 -30 44 -30 55 0 34 19 72 35 72 9 0 15 6 14
13 -3 26 2 36 19 39 11 2 17 13 17 32 0 28 10 38 48 50 9 3 17 14 17 25 0 33
53 55 96 41 19 -6 49 -10 67 -9 48 4 106 -11 117 -31 6 -12 3 -34 -11 -71 -19
-50 -20 -56 -5 -86 15 -32 15 -34 -7 -43 -12 -5 -55 -14 -94 -20 -66 -11 -73
-14 -73 -35 0 -16 -7 -25 -25 -29 -48 -12 -16 -76 38 -76 47 0 59 -12 55 -55
-3 -41 -6 -39 75 -59 25 -6 27 -4 27 22 0 24 8 32 55 55 31 15 64 27 74 27 26
0 32 10 16 26 -7 8 -11 22 -8 33 3 13 -2 20 -19 24 -18 5 -23 13 -24 42 -1 45
13 44 61 -5 35 -36 37 -40 17 -40 -34 0 -26 -16 23 -47 37 -24 44 -33 45 -60
0 -30 -3 -33 -30 -33 -18 0 -30 -5 -30 -13 0 -21 22 -37 49 -37 29 0 91 -34
91 -50 0 -5 11 -10 25 -10 14 0 25 5 25 10 0 6 9 10 19 10 11 0 23 5 26 11 4
6 14 8 22 5 9 -4 22 -1 29 5 11 9 15 7 20 -6 11 -29 63 -10 112 40 27 29 52
45 67 45 14 0 29 9 35 20 9 17 7 20 -15 26 -14 4 -29 4 -32 0 -12 -12 -33 17
-33 47 l0 30 25 -23 c14 -13 25 -18 25 -12 0 7 11 12 24 12 37 0 75 -55 69
-98 -5 -32 -4 -33 23 -27 16 4 35 8 42 11 8 2 12 24 12 63 0 57 -2 62 -55 126
-45 55 -55 74 -55 105 0 41 13 50 77 50 31 0 32 -1 26 -32 -3 -18 -6 -35 -5
-38 1 -44 1 -44 27 -20 14 13 25 34 25 47 0 13 9 32 20 43 12 12 20 33 20 55
0 30 -9 45 -50 85 -27 28 -53 50 -58 50 -6 0 -12 7 -16 15 -3 9 -18 15 -35 15
-57 0 -61 6 -61 85 0 67 -2 75 -25 92 -17 12 -28 33 -34 65 -4 26 -20 61 -35
79 -17 20 -25 38 -21 48 4 9 12 28 17 44 12 32 17 33 69 6 41 -20 41 -20 63
-1 11 11 28 22 36 23 31 6 78 -13 105 -41 15 -16 42 -32 59 -36 17 -4 45 -21
61 -39 18 -20 48 -37 75 -45 25 -6 61 -27 80 -45 20 -19 72 -48 122 -68 l88
-35 207 8 c204 8 208 8 231 -13 22 -20 23 -20 40 -3 12 14 14 20 5 23 -7 3
-13 13 -13 24 0 15 4 17 24 9 18 -7 28 -5 37 6 9 11 22 14 46 9 36 -7 73 8 73
30 0 10 -9 12 -37 8 -21 -3 -40 -7 -42 -9 -7 -6 -41 50 -41 67 0 20 31 49 53
49 9 0 17 -7 17 -15 0 -23 13 -18 49 19 30 31 32 38 26 74 -6 35 -4 42 15 52
15 8 26 8 32 2 6 -6 22 -7 40 -2 26 8 28 7 22 -12 -12 -40 17 -38 72 5 56 45
63 64 22 59 -31 -3 -67 41 -45 55 12 8 57 91 57 105 0 4 -12 8 -27 10 -23 3
-28 9 -35 43 -4 22 -15 52 -23 68 -15 24 -15 27 -1 27 25 0 19 49 -9 86 -26
34 -32 54 -16 54 5 0 22 5 36 10 22 8 25 13 15 25 -8 9 -22 12 -41 8 -22 -4
-29 -2 -29 10 0 8 9 17 20 20 27 7 28 72 2 86 -24 13 -42 -4 -42 -36 0 -16 -6
-23 -20 -23 -11 0 -20 -4 -20 -9 0 -6 -19 -11 -42 -13 -40 -3 -43 -5 -46 -35
-3 -35 -16 -43 -26 -18 -6 17 -47 20 -62 5 -6 -6 -25 -7 -49 -3 l-38 8 28 33
28 33 -54 -3 c-48 -3 -54 -6 -57 -26 -3 -16 -8 -22 -19 -18 -8 3 -16 6 -17 6
-2 0 -1 11 1 25 4 19 0 25 -21 31 -19 4 -26 13 -26 29 0 13 5 25 11 27 6 2 -9
14 -32 27 -39 22 -43 23 -54 8 -7 -10 -22 -17 -34 -17 -16 0 -26 -9 -34 -30
-9 -24 -24 -35 -79 -56 l-67 -25 -36 28 -35 28 31 8 c20 5 36 4 45 -4 11 -9
23 -3 62 33 26 25 59 52 74 62 33 22 44 62 23 86 -21 24 -4 37 70 52 46 9 58
9 65 -2 6 -10 17 -6 46 18 21 18 46 32 55 32 9 0 22 7 29 15 16 19 5 49 -15
41 -43 -17 -47 -15 -17 11 24 21 32 36 32 61 0 17 4 32 9 32 12 0 41 -46 41
-64 0 -9 12 -22 27 -29 l27 -14 -22 -12 c-12 -6 -22 -18 -22 -27 0 -22 28 -28
49 -10 22 20 32 20 76 -1 43 -20 54 -11 33 25 -26 43 -13 109 23 128 20 10 29
22 29 38 0 54 -24 74 -40 34 -6 -17 -9 -18 -9 -6 -1 9 -11 18 -23 20 -13 2
-24 11 -26 21 -3 14 5 17 52 17 60 0 76 13 76 64 0 18 4 24 15 20 10 -4 15 0
15 13 0 11 9 28 20 38 25 22 25 27 0 42 -28 18 -50 6 -50 -28 0 -18 -5 -29
-13 -29 -8 0 -22 -9 -32 -20 -10 -11 -29 -20 -42 -20 -13 0 -33 -5 -44 -10
-29 -16 -41 -3 -23 24 9 14 29 27 50 31 34 6 67 46 51 61 -12 13 -129 -31
-144 -53 -18 -27 -73 -33 -73 -8 0 20 -29 19 -51 -1 -20 -18 -39 -11 -39 14
-1 22 -84 72 -118 71 -15 0 -37 2 -48 6 -17 5 -23 2 -27 -17 -4 -14 -18 -30
-32 -38 -14 -7 -25 -17 -25 -21 0 -12 38 -21 60 -14 11 4 20 2 20 -4 0 -15
-35 -31 -70 -31 l-30 0 16 -26 c15 -22 15 -27 3 -35 -25 -16 -57 -10 -64 11
-12 38 -31 20 -44 -41 -11 -56 -14 -60 -28 -47 -13 14 -13 21 6 63 25 57 25
55 4 55 -10 0 -31 -18 -47 -40 -18 -24 -38 -40 -51 -40 -11 0 -30 -7 -41 -15
-18 -12 -24 -12 -42 1 -30 21 -28 52 3 60 13 3 27 15 30 25 4 10 17 22 31 25
18 5 24 13 24 33 -1 25 -1 25 -15 7 -8 -11 -20 -16 -30 -12 -10 4 -23 -2 -33
-13 -12 -13 -48 -24 -112 -36 -131 -25 -133 -25 -153 -82 -10 -28 -32 -63 -49
-79 l-31 -29 8 35 c4 19 9 69 10 110 3 66 6 77 29 95 15 12 26 31 26 45 0 55
10 68 56 75 37 5 44 10 44 28 0 24 -59 77 -85 77 -11 0 -15 7 -13 23 2 18 8
21 33 19 28 -3 29 -2 13 14 -15 15 -23 16 -55 6 -31 -9 -41 -9 -61 4 -22 14
-25 14 -42 -1 -14 -13 -34 -15 -94 -12 -42 2 -82 9 -88 15 -7 7 -20 12 -29 12
-10 0 -22 13 -28 32 -19 53 -38 68 -74 57 -18 -5 -33 -9 -35 -9 -10 0 -32 76
-32 110 0 36 -3 40 -25 40 -17 0 -29 9 -40 30 -14 27 -14 30 5 40 11 6 20 17
20 26 0 8 8 17 18 21 29 10 102 74 102 89 0 9 11 14 30 14 30 0 31 1 24 38 -9
48 -11 52 -34 52 -10 0 -22 5 -25 10 -3 6 1 10 11 10 12 0 15 6 10 23 -3 12
-6 30 -6 40 0 10 -8 17 -20 17 -12 0 -20 -7 -20 -16 0 -13 -7 -15 -34 -11 -45
7 -51 -1 -21 -29 14 -13 25 -31 25 -41 -1 -11 -40 -47 -103 -93 -56 -41 -123
-94 -150 -117 -26 -24 -51 -43 -55 -43 -4 0 -14 -5 -22 -10 -13 -8 -12 -11 5
-23 15 -11 23 -12 38 -3 15 9 22 7 38 -13 15 -18 19 -39 19 -101 0 -43 -4 -90
-10 -104 -12 -32 -46 -35 -55 -5 -6 19 -8 19 -24 5 -10 -9 -25 -16 -33 -16 -9
0 -21 -7 -28 -15 -7 -9 -29 -15 -52 -15 -36 0 -38 1 -28 21 7 11 27 27 45 35
47 19 50 31 14 49 l-31 17 -42 -41 c-32 -31 -50 -41 -75 -41 -18 0 -40 -7 -48
-16 -19 -18 -26 -10 -38 43 -6 28 -1 39 31 78 l37 46 -31 32 c-24 25 -32 42
-32 70 0 31 -3 37 -21 37 -29 0 -129 -57 -156 -89 -18 -20 -22 -22 -23 -9 0 9
5 20 10 23 18 11 11 25 -11 22 -18 -2 -25 7 -40 50 l-18 53 41 35 c32 27 51
35 80 35 41 0 59 20 39 43 -14 18 5 37 36 37 14 0 23 6 23 15 0 8 -9 15 -20
15 -29 0 -38 30 -15 46 16 12 22 12 39 -1 52 -38 62 -39 100 -10 33 25 36 32
36 79 0 51 0 51 -49 79 -27 15 -63 27 -79 27 -17 0 -34 5 -37 10 -3 6 -17 10
-30 10 -15 0 -32 11 -45 30 -12 17 -37 37 -55 44 -41 17 -51 46 -31 85 18 34
9 45 -28 35 -22 -5 -25 -2 -34 38 -6 29 -6 49 2 63 6 11 10 33 8 49 -4 28 -4
28 -56 22 l-52 -7 -58 66 c-56 64 -76 104 -76 156 0 14 -9 34 -20 44 -18 16
-24 17 -132 0 -62 -9 -123 -21 -136 -26 -13 -5 -33 -9 -46 -9 -12 0 -44 -7
-70 -16 -46 -16 -48 -16 -117 12 -47 19 -74 36 -79 50 -6 14 -21 24 -45 28
-20 4 -51 16 -68 27 -38 23 -41 23 -57 4z m1524 -3951 c4 -10 1 -14 -6 -12
-15 5 -23 28 -10 28 5 0 13 -7 16 -16z"/>
<path d="M3464 4974 c-4 -21 -18 -47 -32 -59 -22 -19 -24 -25 -14 -53 8 -25 8
-33 -5 -43 -8 -7 -19 -25 -25 -38 -8 -22 -5 -29 19 -48 36 -29 44 -29 77 2 38
35 51 31 71 -17 l18 -43 7 31 c10 44 14 49 59 64 23 7 48 21 57 32 11 11 31
18 56 18 21 0 38 3 38 8 0 4 -10 25 -23 47 -21 37 -26 40 -72 43 -37 2 -54 9
-67 25 l-16 21 -19 -23 c-25 -31 -50 -23 -90 30 l-32 41 -7 -38z"/>
<path d="M3321 4645 c2 -81 11 -110 37 -113 18 -3 22 1 22 25 0 16 7 39 16 51
14 21 14 22 -10 22 -14 0 -26 3 -26 8 0 4 -9 18 -20 32 l-20 25 1 -50z"/>
<path d="M4256 4296 c-3 -14 -19 -34 -35 -45 -20 -15 -30 -32 -35 -61 -6 -36
-9 -40 -36 -40 -20 0 -30 -5 -30 -15 0 -21 -27 -30 -44 -16 -11 10 -23 2 -57
-39 l-42 -50 -67 0 c-48 0 -71 -4 -80 -15 -16 -20 -40 -19 -40 1 0 10 -7 14
-22 12 -20 -3 -23 -9 -24 -48 -1 -25 -4 -55 -9 -67 -5 -16 -3 -23 6 -23 7 0
21 -8 31 -17 18 -16 24 -14 111 30 69 34 108 48 156 53 36 3 71 13 78 20 12
12 18 11 38 -2 30 -20 44 -1 19 27 -15 17 -15 19 -1 19 9 0 19 -4 22 -10 12
-19 23 -10 29 25 5 27 13 36 34 41 15 4 38 15 51 26 13 10 33 18 45 18 50 1
75 49 47 89 -16 22 -26 27 -51 23 -40 -6 -60 13 -60 54 0 40 -25 47 -34 10z"/>
</g>
</svg>
