<?xml version="1.0" standalone="no"?>
<!DOCTYPE svg PUBLIC "-//W3C//DTD SVG 20010904//EN"
 "http://www.w3.org/TR/2001/REC-SVG-20010904/DTD/svg10.dtd">
<svg version="1.0" xmlns="http://www.w3.org/2000/svg"
 width="1024.000000pt" height="1024.000000pt" viewBox="0 0 1024.000000 1024.000000"
 preserveAspectRatio="xMidYMid meet">
<metadata>
Created by potrace 1.10, written by Peter Selinger 2001-2011
</metadata>
<g transform="translate(0.000000,1024.000000) scale(0.100000,-0.100000)"
fill="#000000" stroke="none">
<path d="M2855 10220 c-14 -15 -31 -20 -72 -20 -29 0 -53 -4 -53 -10 0 -5 -16
-17 -35 -26 -19 -9 -35 -22 -35 -28 0 -6 -15 -43 -33 -81 -25 -53 -31 -77 -26
-100 13 -56 10 -63 -23 -70 -17 -4 -47 -24 -67 -44 l-35 -36 -4 25 c-2 14 -9
28 -16 32 -18 12 -36 9 -36 -6 0 -8 -8 -24 -18 -36 -20 -24 -48 -19 -57 11 -6
17 -8 18 -31 3 -18 -12 -36 -15 -69 -10 -42 7 -45 6 -51 -18 -8 -32 -11 -32
-36 -1 -17 21 -28 25 -77 25 -37 0 -65 -6 -81 -17 -17 -12 -25 -13 -28 -5 -2
7 -15 26 -28 41 -19 23 -23 36 -18 60 6 26 2 37 -21 61 -21 22 -39 30 -87 35
-32 4 -61 5 -64 3 -2 -3 3 -21 11 -41 9 -23 15 -68 15 -119 0 -75 -3 -87 -30
-128 -16 -25 -101 -115 -189 -200 l-159 -155 -12 -65 c-17 -101 4 -186 66
-260 43 -51 63 -141 57 -257 -6 -108 8 -207 33 -234 12 -14 13 -22 4 -38 -6
-12 -8 -25 -5 -30 3 -5 39 -30 79 -54 l75 -45 22 24 c13 14 34 24 50 24 15 0
31 5 34 10 11 18 25 10 25 -14 0 -20 -11 -27 -86 -55 -48 -17 -88 -30 -89 -29
0 2 -6 14 -11 27 -8 20 -26 28 -91 46 -74 19 -85 20 -128 7 l-47 -13 24 -27
c19 -21 27 -46 36 -112 7 -47 15 -95 18 -107 5 -18 0 -25 -21 -35 -17 -7 -35
-29 -46 -52 -15 -35 -16 -43 -3 -79 8 -22 23 -54 33 -71 20 -32 47 -123 39
-132 -3 -2 -22 10 -44 26 l-38 31 -18 -23 c-10 -13 -23 -42 -29 -65 -10 -36
-18 -46 -56 -64 -51 -25 -82 -78 -83 -141 0 -53 -33 -119 -74 -148 -52 -36
-63 -84 -35 -144 16 -32 33 -49 60 -61 58 -27 64 -72 35 -261 -21 -141 -25
-154 -77 -254 l-54 -105 -57 -20 c-77 -28 -105 -56 -113 -115 -6 -44 -3 -54
23 -92 16 -24 35 -61 41 -83 14 -51 14 -144 0 -199 -9 -36 -8 -49 6 -75 8 -17
20 -57 26 -88 6 -33 22 -71 37 -91 24 -32 27 -45 30 -135 5 -140 -10 -208 -63
-283 -24 -33 -54 -87 -67 -120 l-24 -59 43 -132 c38 -118 44 -147 53 -280 19
-289 18 -283 114 -392 74 -83 76 -104 25 -260 -49 -155 -89 -218 -153 -244
-41 -17 -143 -34 -226 -39 -39 -3 -47 -7 -65 -38 -18 -31 -20 -52 -20 -200 -1
-174 -3 -186 -53 -245 l-24 -29 28 -23 29 -23 -37 0 c-45 0 -47 -8 -13 -48 32
-38 32 -72 -1 -152 -24 -60 -25 -70 -25 -284 -1 -121 5 -277 12 -346 7 -69 12
-152 11 -185 -3 -99 18 -145 97 -209 56 -45 70 -62 76 -93 4 -25 25 -58 62
-101 l55 -62 5 -81 c7 -92 20 -109 88 -109 22 0 63 -3 91 -6 47 -6 53 -10 85
-58 46 -70 119 -157 203 -244 l71 -72 4 -81 3 -80 52 -29 c58 -34 124 -39 181
-16 19 8 56 18 82 22 26 3 71 15 98 25 60 23 123 24 149 4 28 -21 59 -19 91 6
25 20 31 21 80 10 42 -9 59 -10 76 0 15 8 42 9 83 4 34 -4 109 -6 167 -5 198
3 281 -28 323 -121 20 -44 132 -152 246 -238 25 -19 65 -53 90 -76 25 -23 61
-51 81 -62 42 -24 212 -85 284 -102 28 -7 76 -25 108 -42 53 -27 66 -29 164
-29 103 0 110 -2 186 -37 l79 -37 -36 -11 c-21 -6 -46 -24 -61 -45 l-25 -34
22 -9 c13 -4 34 -18 48 -31 14 -13 41 -29 60 -36 19 -7 46 -24 61 -37 19 -18
37 -23 76 -23 48 0 52 2 62 31 l10 30 31 -17 c21 -13 30 -26 30 -45 0 -18 9
-32 27 -44 39 -26 69 -22 102 14 23 25 37 31 69 31 31 0 51 8 84 34 87 70 420
236 474 237 16 0 49 8 74 18 l45 19 38 -35 c32 -28 41 -32 53 -22 12 10 22 10
48 1 90 -33 200 -47 288 -38 97 10 118 6 118 -24 0 -17 6 -20 48 -20 53 0 92
-26 92 -61 0 -25 26 -77 53 -106 24 -27 51 -29 100 -8 25 10 71 15 141 15 122
0 140 -4 126 -30 -8 -16 -3 -20 43 -30 84 -20 113 -35 136 -74 l23 -36 51 44
c66 55 46 46 374 182 195 81 330 145 453 213 196 110 299 149 421 159 l83 7
16 53 c27 92 159 232 285 302 33 18 107 61 165 95 58 35 124 69 148 76 36 11
42 16 42 40 0 18 7 32 20 39 26 14 25 24 -6 66 -21 27 -25 41 -21 70 12 72 39
112 183 275 12 13 76 75 142 136 111 104 120 116 125 155 7 61 22 119 35 145
7 12 12 50 12 85 l0 63 70 74 c69 73 160 193 160 211 0 6 -15 10 -34 10 -36 0
-46 15 -46 72 0 23 -5 27 -42 33 -123 18 -123 18 -124 144 0 68 -6 108 -18
136 l-17 40 -13 -24 -14 -24 -7 22 c-5 18 0 30 24 55 l32 33 -25 11 c-21 9
-26 23 -41 107 -19 103 -13 158 20 185 22 18 19 26 -16 41 l-31 12 6 61 c5 47
12 66 34 89 l27 28 -29 -11 c-16 -6 -32 -7 -35 -2 -3 4 -25 33 -48 63 -43 55
-48 73 -37 116 5 17 14 23 35 23 33 0 34 5 14 40 -25 44 -19 76 20 100 l35 21
-20 39 c-25 49 -25 60 0 60 11 0 20 -7 20 -15 0 -24 29 -17 56 13 13 15 38 53
56 85 42 78 88 117 137 117 21 0 72 3 114 6 73 7 77 8 77 31 0 34 17 63 61
104 35 33 39 42 39 85 0 27 3 59 6 71 5 20 0 24 -55 40 -45 13 -61 23 -61 36
0 21 31 23 63 4 14 -9 40 -12 70 -9 39 3 50 9 64 32 18 31 43 45 97 55 38 8
39 10 14 108 -14 56 -98 133 -154 141 -36 4 -200 85 -240 117 -6 5 -17 28 -25
51 -9 28 -23 47 -43 57 -16 9 -45 30 -65 47 -20 17 -62 40 -95 50 -39 12 -64
27 -74 44 -9 14 -30 41 -48 61 -31 35 -32 39 -27 102 5 60 2 73 -30 144 -20
43 -41 110 -48 148 -9 56 -18 77 -44 105 -32 34 -75 109 -75 130 0 5 11 10 24
10 53 0 57 8 28 55 -24 40 -30 44 -77 51 -27 3 -67 16 -87 28 -31 17 -38 27
-38 53 0 29 -5 34 -72 67 -39 20 -92 56 -117 79 -50 47 -154 127 -164 127 -4
0 -25 -20 -48 -45 l-42 -45 -17 39 c-14 29 -34 48 -83 78 -44 26 -83 61 -117
103 -28 35 -79 83 -113 106 -34 23 -121 102 -193 176 -128 130 -132 134 -143
192 -15 80 -74 200 -111 226 -17 12 -39 39 -50 61 l-20 39 -71 0 c-52 0 -80 5
-112 22 -34 18 -64 22 -162 26 l-120 4 -51 54 c-43 46 -55 54 -87 54 -30 0
-37 4 -37 19 0 10 -11 26 -25 35 -20 13 -25 25 -25 60 0 29 -7 53 -22 72 -12
16 -22 30 -23 31 -1 1 -18 9 -38 18 l-37 15 -25 -50 c-23 -45 -28 -50 -60 -50
-24 0 -37 6 -45 20 -6 11 -34 38 -61 60 -43 34 -58 40 -97 40 -44 0 -48 2 -64
38 -50 106 -105 188 -141 207 -20 11 -37 28 -37 37 0 46 -46 136 -97 189 -29
31 -59 72 -65 91 -15 43 -95 129 -178 193 -32 25 -75 66 -96 90 -43 53 -76 59
-123 20 -24 -21 -31 -36 -37 -83 -3 -31 -13 -74 -21 -94 -14 -36 -18 -38 -59
-38 -37 0 -45 -4 -58 -28 -10 -19 -33 -35 -71 -51 -52 -22 -58 -22 -67 -7 -5
9 -19 16 -31 16 -12 0 -67 32 -122 71 -120 85 -111 75 -95 94 12 14 8 22 -28
55 -23 21 -42 44 -42 51 0 8 -14 43 -30 77 -29 61 -69 105 -209 228 -29 26
-32 33 -23 51 10 18 6 23 -25 44 -21 13 -61 58 -90 99 -43 60 -63 79 -103 97
-37 17 -50 28 -50 43 0 41 -81 95 -172 114 -21 5 -28 12 -28 30 0 32 -32 69
-117 135 -39 30 -99 91 -134 137 -57 73 -70 84 -116 99 l-51 16 1 42 c1 55
-31 121 -61 125 -12 2 -22 9 -22 16 0 23 -29 41 -42 28 -18 -18 -26 -14 -33
17 -6 30 -26 41 -77 41 -49 0 -58 9 -58 55 0 39 -4 47 -44 79 -34 29 -52 36
-85 36 -23 0 -54 -6 -69 -14 -58 -29 -92 -28 -148 4 -64 36 -66 36 -89 10z"/>
</g>
</svg>
