<?xml version="1.0" standalone="no"?>
<!DOCTYPE svg PUBLIC "-//W3C//DTD SVG 20010904//EN"
 "http://www.w3.org/TR/2001/REC-SVG-20010904/DTD/svg10.dtd">
<svg version="1.0" xmlns="http://www.w3.org/2000/svg"
 width="1024.000000pt" height="1024.000000pt" viewBox="0 0 1024.000000 1024.000000"
 preserveAspectRatio="xMidYMid meet">
<metadata>
Created by potrace 1.10, written by Peter Selinger 2001-2011
</metadata>
<g transform="translate(0.000000,1024.000000) scale(0.100000,-0.100000)"
fill="#000000" stroke="none">
<path d="M1297 9082 c-24 -25 -26 -32 -20 -82 9 -83 43 -139 84 -140 20 0 49
-31 49 -53 0 -9 12 -23 28 -31 15 -8 36 -23 46 -35 11 -12 29 -21 42 -21 30 0
136 -100 171 -160 14 -25 36 -56 49 -70 12 -14 27 -37 33 -52 6 -15 25 -37 44
-50 19 -12 45 -42 58 -67 40 -76 127 -151 184 -161 31 -5 37 -23 20 -62 -5
-13 -3 -18 8 -18 8 0 17 7 21 15 7 20 70 20 90 0 8 -9 18 -38 22 -65 7 -55 19
-63 36 -25 6 14 16 24 22 22 6 -2 53 -17 103 -32 87 -26 94 -27 111 -12 26 24
32 21 32 -12 0 -45 10 -49 177 -68 45 -5 55 -2 87 22 20 15 40 24 44 20 4 -4
1 -10 -5 -12 -7 -3 -13 -13 -13 -24 0 -13 7 -19 23 -19 12 0 33 -8 46 -17 15
-10 45 -17 76 -17 l51 -1 -24 43 -24 42 -48 -6 c-30 -4 -50 -2 -54 5 -4 6 -1
11 7 11 34 0 28 48 -11 93 -19 21 -63 22 -103 2 -33 -17 -49 -13 -49 13 -1 14
-4 13 -20 -7 l-20 -23 -36 32 c-20 17 -56 41 -80 53 -32 15 -48 30 -56 54 -7
18 -19 33 -28 33 -32 1 -97 40 -152 93 l-58 55 0 67 c0 57 -6 79 -36 140 -25
52 -43 77 -62 85 -46 18 -69 34 -97 68 -20 24 -35 32 -60 32 -32 0 -136 60
-165 95 -7 8 -37 22 -66 31 -30 8 -56 20 -59 25 -4 5 -18 9 -33 9 -23 0 -35
11 -70 65 -35 52 -50 66 -80 75 -20 5 -42 10 -47 10 -6 0 -26 13 -45 30 -48
40 -105 41 -143 2z"/>
<path d="M708 8819 c-18 -10 -25 -59 -9 -59 10 0 41 45 41 60 0 13 -10 12 -32
-1z"/>
<path d="M783 8788 c-26 -34 -32 -90 -11 -115 5 -7 7 -17 3 -23 -4 -7 -9 -28
-10 -48 -2 -20 -7 -49 -11 -64 -4 -18 -2 -28 5 -28 6 0 11 6 11 14 0 23 24 25
37 2 10 -19 12 -17 23 22 6 24 18 46 26 49 20 7 18 29 -6 53 -11 11 -20 27
-20 35 0 9 -9 15 -24 15 -35 0 -39 14 -16 52 11 18 20 36 20 41 0 11 -17 8
-27 -5z"/>
<path d="M290 8524 c-6 -14 -10 -28 -10 -31 0 -3 -11 -21 -25 -39 -34 -44 -32
-74 8 -111 29 -28 40 -31 119 -37 l87 -6 26 34 c24 31 25 38 15 75 -10 37 -14
40 -53 46 -32 5 -48 15 -67 40 -23 31 -58 55 -81 55 -5 0 -14 -12 -19 -26z"/>
<path d="M8 7996 c-19 -43 -5 -56 61 -56 48 0 62 4 70 18 15 28 -27 62 -78 62
-34 0 -43 -4 -53 -24z"/>
<path d="M3903 7908 c-40 -24 -42 -45 -7 -58 35 -14 44 -13 44 4 0 8 10 22 21
30 25 17 19 46 -8 45 -10 0 -33 -10 -50 -21z"/>
<path d="M3968 7833 c-40 -10 -17 -39 67 -83 47 -25 85 -48 85 -52 0 -3 3 -13
6 -22 5 -12 -6 -16 -58 -18 l-63 -3 48 -24 c26 -14 47 -30 47 -36 0 -17 34
-45 53 -45 9 0 17 7 17 15 0 23 68 9 101 -21 29 -28 69 -32 69 -7 0 9 -18 33
-40 55 -32 29 -49 38 -77 38 -34 0 -35 1 -29 33 4 23 0 41 -14 65 -22 35 -25
37 -83 47 -20 3 -53 19 -71 35 -19 17 -35 29 -37 29 -2 -1 -12 -3 -21 -6z"/>
<path d="M4240 7701 c0 -29 39 -70 114 -121 67 -46 86 -74 86 -130 0 -17 -7
-30 -16 -34 -14 -5 -10 -13 22 -41 21 -19 47 -34 57 -35 37 0 67 -31 67 -66 0
-33 1 -34 41 -34 32 0 42 -4 46 -20 4 -14 14 -20 33 -20 22 0 30 -7 45 -40 13
-28 24 -40 39 -40 12 0 27 -9 33 -19 8 -13 19 -18 33 -14 17 5 20 1 20 -26 0
-25 5 -32 28 -37 40 -8 71 -25 105 -56 16 -16 35 -28 43 -28 8 0 36 -16 63
-35 35 -25 59 -35 86 -35 36 0 37 -1 32 -30 l-6 -30 52 0 c28 -1 63 -7 77 -15
14 -8 34 -14 46 -15 12 0 25 -10 32 -24 7 -16 27 -29 62 -41 44 -14 49 -19 38
-32 -10 -12 -9 -18 7 -29 17 -13 21 -13 32 1 10 15 14 15 41 1 21 -11 32 -25
34 -43 2 -23 8 -28 30 -29 15 -1 33 -6 40 -11 7 -6 28 -14 47 -18 19 -4 57
-22 86 -40 61 -40 114 -62 175 -76 65 -15 158 -77 162 -109 2 -17 18 -35 49
-55 25 -16 72 -54 105 -84 75 -68 99 -80 121 -58 16 16 15 19 -10 45 -19 20
-27 39 -27 64 0 30 -4 37 -25 42 -21 5 -24 10 -16 25 14 25 5 31 -41 31 -34 0
-78 23 -78 41 0 3 17 6 37 5 32 -1 41 4 70 43 l34 44 -37 13 c-20 7 -41 19
-45 26 -5 7 -27 39 -50 71 -31 43 -48 57 -66 57 -14 0 -38 11 -55 25 -16 14
-35 25 -41 25 -7 0 -38 24 -69 54 -42 38 -58 60 -58 79 0 22 -11 32 -63 62
-35 19 -71 35 -80 35 -8 0 -34 16 -57 35 -49 41 -106 59 -176 57 -37 -1 -59 4
-75 17 -36 28 -106 61 -128 61 -17 0 -20 5 -14 30 5 29 4 30 -31 30 -20 0 -36
-4 -36 -10 0 -16 -27 -12 -70 10 -28 14 -40 27 -40 42 0 27 -27 47 -63 48 -35
0 -87 26 -87 44 0 22 -88 96 -122 103 -20 4 -54 27 -89 62 -126 122 -165 151
-204 151 -28 0 -47 9 -78 35 -49 42 -84 46 -93 10 l-6 -25 -30 25 c-16 14 -41
25 -54 25 -14 0 -47 11 -74 25 -59 30 -60 30 -60 6z"/>
<path d="M1418 7623 c-37 -48 -37 -105 -2 -184 25 -54 30 -60 73 -72 45 -12
46 -14 55 -62 6 -35 6 -50 -3 -53 -6 -2 -11 -17 -11 -34 0 -29 1 -30 40 -26
l40 4 0 -37 c0 -37 29 -77 37 -52 2 6 17 30 33 52 17 22 32 58 36 80 4 28 13
42 30 50 35 15 64 69 64 117 0 47 -9 54 -71 54 -57 0 -74 12 -111 81 -23 45
-44 69 -78 90 -63 40 -98 38 -132 -8z"/>
<path d="M1444 7305 c-8 -13 -14 -32 -12 -42 4 -24 39 -29 54 -8 11 14 10 23
-2 46 -18 35 -19 35 -40 4z"/>
<path d="M2214 7231 c-22 -4 -53 -17 -69 -29 -15 -12 -33 -22 -40 -22 -7 0
-20 -21 -30 -46 -21 -55 -16 -152 9 -187 9 -12 26 -36 37 -54 21 -33 51 -44
174 -64 28 -4 64 -11 80 -14 28 -6 32 -4 56 47 24 48 25 56 13 88 -7 19 -13
54 -13 78 -1 29 -7 47 -21 59 -11 10 -20 22 -20 29 0 6 -18 36 -41 67 -43 61
-46 62 -135 48z"/>
<path d="M1440 7111 c-14 -28 -13 -42 7 -56 21 -15 35 -140 19 -167 -8 -13 -2
-25 27 -58 21 -22 40 -54 44 -70 7 -40 20 -38 38 6 21 51 19 91 -10 149 -13
28 -25 59 -25 70 0 10 -8 40 -17 65 -28 76 -61 101 -83 61z"/>
<path d="M2805 7063 c-11 -2 -30 -6 -41 -8 -13 -3 -27 -18 -34 -37 -7 -18 -24
-44 -36 -58 -13 -14 -32 -50 -43 -80 -43 -123 -80 -185 -96 -160 -3 5 -19 10
-34 10 -27 0 -51 -30 -51 -64 0 -28 63 -138 86 -148 27 -13 66 7 85 44 17 33
25 36 109 44 41 3 85 10 97 15 15 5 25 3 34 -7 9 -10 22 -14 41 -10 32 6 52
-16 68 -74 7 -25 22 -44 55 -65 24 -16 45 -36 45 -43 0 -17 -30 -28 -39 -13
-14 22 -111 41 -111 22 0 -16 64 -78 85 -82 13 -3 22 -15 25 -34 3 -17 14 -34
28 -41 12 -6 33 -20 45 -31 40 -36 53 -35 96 9 35 35 43 39 57 27 14 -11 13
-15 -7 -30 -23 -17 -23 -18 -4 -39 31 -34 56 -44 113 -46 46 -2 54 1 71 25 10
14 23 41 30 60 10 30 9 37 -9 56 -11 12 -20 31 -20 42 0 26 -43 79 -70 88 -15
5 -20 15 -20 45 0 32 -6 44 -30 62 -16 12 -30 30 -30 41 0 57 -58 92 -138 83
-58 -7 -92 9 -92 43 0 9 -7 25 -15 35 -10 14 -15 45 -15 101 0 77 -2 83 -29
109 -16 16 -35 42 -42 58 -20 48 -84 68 -164 51z"/>
<path d="M2280 6760 c0 -11 40 -50 51 -50 4 0 10 -13 14 -30 10 -46 42 -80 76
-80 24 0 29 4 29 24 0 14 -4 28 -10 31 -5 3 -10 21 -10 38 -1 54 -29 77 -94
77 -31 0 -56 -4 -56 -10z"/>
<path d="M2180 6714 c0 -9 14 -28 30 -42 17 -15 30 -33 30 -42 0 -26 98 -120
125 -120 27 0 33 14 12 27 -27 17 -57 67 -57 95 0 45 -57 98 -104 98 -26 0
-36 -4 -36 -16z"/>
<path d="M7476 6498 c-37 -53 -14 -102 89 -187 57 -47 83 -78 105 -122 35 -69
35 -69 12 -69 -10 0 -30 -13 -45 -28 -34 -35 -37 -86 -6 -102 17 -10 19 -17
14 -50 -10 -60 17 -135 77 -215 l53 -69 3 -105 c4 -103 5 -106 38 -145 19 -22
34 -45 34 -52 0 -8 9 -18 20 -24 12 -6 31 -35 44 -64 20 -45 30 -56 60 -66 21
-7 50 -29 69 -52 17 -22 40 -48 50 -57 9 -9 39 -37 66 -63 33 -33 57 -48 75
-48 15 0 29 -6 32 -14 3 -8 22 -21 42 -29 20 -8 48 -27 61 -41 14 -14 33 -26
43 -26 10 0 22 -8 25 -17 4 -10 17 -32 30 -49 13 -17 23 -39 23 -48 0 -30 27
-69 85 -126 31 -30 66 -74 76 -98 14 -31 24 -42 36 -40 15 3 18 14 17 68 -1
36 -9 85 -19 110 -9 25 -22 59 -29 76 -6 18 -17 39 -25 47 -7 9 -22 34 -34 56
-12 22 -35 61 -52 87 -19 32 -25 49 -17 52 19 6 14 74 -8 102 -25 32 -25 48 1
76 l20 22 -44 17 -44 17 5 43 c4 40 2 44 -19 47 -21 3 -25 11 -34 63 -9 49
-15 62 -38 75 -29 16 -36 40 -11 40 11 0 14 6 9 23 -8 26 -45 60 -95 86 -19
11 -55 38 -80 60 -25 23 -56 44 -70 47 -14 3 -42 9 -62 15 l-38 10 0 55 c0 41
5 63 21 82 13 17 18 34 14 49 -4 19 0 24 22 29 16 3 33 7 39 9 7 2 14 20 16
41 4 32 -1 45 -37 88 -22 28 -58 60 -78 71 -29 15 -37 26 -37 47 0 21 -10 34
-44 57 -46 32 -81 80 -106 146 -12 32 -21 41 -44 43 -16 2 -39 16 -53 33 -18
21 -34 29 -59 29 -28 0 -32 -3 -27 -17 4 -10 18 -29 32 -42 32 -30 14 -40 -32
-18 -18 9 -45 19 -61 22 -16 3 -42 19 -58 36 -16 16 -31 29 -33 29 -2 0 -11
-10 -19 -22z"/>
<path d="M2621 6365 c-17 -20 -31 -40 -31 -45 0 -5 -34 -45 -75 -90 l-75 -80
15 -30 c8 -16 34 -39 56 -51 26 -13 51 -38 71 -69 23 -37 38 -51 62 -56 17 -3
41 -15 53 -26 17 -16 27 -18 50 -11 43 15 34 36 -22 54 l-50 16 0 79 0 79 28
0 c22 -1 29 5 33 25 3 14 13 46 21 71 19 56 14 82 -27 132 -40 48 -68 48 -109
2z"/>
<path d="M5950 6382 c-19 -4 -35 -13 -34 -19 1 -7 2 -24 3 -38 2 -35 67 -105
97 -105 17 0 24 -6 24 -18 0 -36 95 -56 133 -28 31 24 21 49 -28 69 l-45 19 0
53 c0 36 -4 55 -14 58 -26 10 -101 15 -136 9z"/>
<path d="M3701 6219 c-11 -19 -19 -21 -71 -16 -55 6 -84 -3 -60 -18 5 -3 10
-23 9 -43 0 -32 -1 -34 -9 -14 -10 23 -25 29 -35 12 -3 -5 -19 -10 -35 -10
-33 0 -37 -9 -46 -93 -5 -55 -3 -66 18 -97 30 -45 125 -109 160 -110 55 0 163
125 170 197 l3 38 -44 5 c-58 6 -62 23 -11 39 42 12 80 57 80 94 0 38 -106 52
-129 16z"/>
<path d="M2883 5943 c-44 -3 -51 -7 -46 -21 9 -27 34 -42 68 -42 36 0 120 -28
180 -59 21 -12 45 -21 52 -21 22 0 14 45 -12 70 -14 13 -25 29 -25 36 0 31
-96 47 -217 37z"/>
<path d="M3954 5927 c-5 -8 -28 -29 -51 -46 -52 -38 -56 -70 -14 -119 23 -27
33 -32 54 -27 15 4 31 13 38 21 6 8 17 14 25 14 21 0 27 38 10 62 -9 12 -16
32 -16 44 0 12 -8 32 -19 45 -16 20 -19 21 -27 6z"/>
<path d="M4091 5856 c-8 -10 -8 -16 2 -25 16 -13 27 -5 27 21 0 21 -13 23 -29
4z"/>
<path d="M5282 5435 c-17 -20 -32 -40 -32 -45 0 -6 -6 -10 -14 -10 -19 0 -8
-40 13 -47 9 -3 26 -9 37 -15 15 -7 28 -7 42 1 35 18 62 13 72 -14 5 -14 16
-25 23 -25 22 0 55 43 62 81 6 31 3 39 -20 57 -15 12 -42 24 -61 28 -19 3 -37
10 -40 15 -12 20 -51 7 -82 -26z"/>
<path d="M6788 5414 c-53 -34 -56 -38 -46 -60 10 -20 18 -24 58 -24 38 0 51
-5 75 -30 32 -34 66 -38 118 -16 45 19 69 48 60 73 -12 31 -68 73 -94 72 -13
-1 -37 3 -52 10 -42 17 -57 14 -119 -25z"/>
<path d="M7093 5363 c-7 -2 -13 -14 -13 -25 0 -11 -11 -33 -25 -50 -14 -16
-25 -35 -25 -42 0 -21 33 -44 82 -57 39 -11 52 -10 73 1 22 12 26 20 23 54 -2
33 -7 42 -25 44 -11 2 -33 21 -47 43 -15 21 -27 39 -29 38 -1 0 -8 -3 -14 -6z"/>
<path d="M6943 5223 c-33 -6 -33 -53 0 -53 13 0 32 6 42 14 16 12 17 16 6 30
-7 9 -16 15 -20 15 -3 -1 -16 -4 -28 -6z"/>
<path d="M6118 5049 c-36 -23 -48 -38 -48 -56 0 -13 -10 -37 -22 -53 -17 -23
-19 -33 -10 -42 7 -7 12 -36 12 -65 0 -39 6 -62 21 -83 l22 -28 -22 -28 c-11
-14 -21 -33 -21 -40 0 -7 25 -34 55 -61 l56 -48 -7 -51 -6 -52 56 -13 c54 -12
57 -14 51 -39 -5 -22 3 -33 60 -80 87 -72 97 -76 139 -56 45 21 65 20 91 -4
14 -13 41 -23 76 -26 30 -3 71 -13 92 -21 31 -14 46 -14 86 -5 34 8 67 8 108
2 32 -6 111 -10 175 -10 64 0 119 -4 123 -9 3 -6 32 -30 64 -54 52 -40 66 -45
128 -52 58 -5 79 -13 119 -41 54 -38 89 -39 153 -2 18 10 66 25 106 33 92 17
113 30 135 80 l17 40 -31 27 -31 27 18 32 c10 17 16 33 15 34 -2 2 -32 21 -67
44 -57 37 -71 41 -125 41 l-61 0 -18 63 c-15 51 -29 73 -80 125 -39 39 -70 62
-84 62 -42 0 -92 31 -98 62 -7 31 -34 53 -77 63 -14 4 -36 18 -49 31 -18 19
-33 24 -70 24 -26 0 -59 4 -73 10 -47 17 -206 15 -260 -3 -47 -17 -50 -17 -82
2 l-34 20 -35 -21 c-28 -16 -47 -19 -82 -15 -40 4 -53 12 -92 55 -67 72 -147
134 -184 141 -21 5 -39 18 -52 39 -18 27 -25 31 -65 31 -34 1 -57 -7 -92 -30z"/>
<path d="M8665 4920 c-9 -14 37 -141 58 -163 18 -18 18 -20 2 -37 -16 -18 -16
-22 -1 -60 21 -52 20 -120 -1 -164 -13 -29 -14 -39 -4 -65 15 -34 94 -93 89
-65 -2 9 7 23 18 30 21 14 23 12 53 -41 37 -65 90 -105 104 -79 5 9 6 37 3 63
-30 200 -48 249 -119 317 -39 37 -56 63 -61 88 -9 47 -58 119 -90 134 -16 7
-26 20 -26 32 0 21 -14 27 -25 10z"/>
<path d="M9540 4411 c-23 -7 -25 -11 -24 -67 0 -88 53 -179 84 -148 8 8 5 27
-10 68 l-22 56 26 44 c22 38 23 45 10 50 -18 7 -30 6 -64 -3z"/>
<path d="M8662 3630 c-7 -11 -23 -20 -37 -20 -14 0 -26 -3 -26 -7 -6 -31 -7
-107 -3 -150 l5 -53 96 0 c100 0 132 -9 187 -53 28 -22 28 -25 16 -61 -10 -32
-10 -40 6 -57 9 -10 26 -19 37 -19 14 0 17 -4 12 -17 -17 -40 -28 -91 -22
-105 3 -10 25 -18 61 -22 37 -5 56 -12 56 -21 0 -16 69 -75 88 -75 28 0 70
-30 95 -69 23 -34 48 -51 169 -111 138 -68 146 -71 233 -76 50 -3 102 -10 116
-15 15 -6 54 -16 88 -23 54 -11 63 -11 76 4 14 16 19 15 67 -9 43 -21 70 -26
155 -29 90 -4 103 -2 103 12 0 24 -42 36 -126 36 -67 0 -74 2 -74 20 0 12 7
20 16 20 25 0 43 30 44 72 0 64 -13 84 -61 92 -59 9 -70 20 -56 56 12 33 -3
60 -34 60 -16 0 -19 8 -19 46 0 38 -6 53 -39 92 -22 26 -43 60 -47 75 -6 25
-9 27 -38 21 -17 -3 -49 -15 -70 -26 l-39 -20 -68 27 c-47 18 -95 28 -158 32
-86 6 -91 7 -122 39 -28 29 -40 34 -80 34 -39 0 -49 4 -63 25 -9 14 -22 25
-30 25 -7 0 -57 38 -111 85 -68 59 -107 85 -124 85 -14 0 -49 16 -78 36 -28
19 -78 42 -110 49 -75 18 -76 18 -91 -5z"/>
<path d="M9258 3623 c-20 -5 -26 -67 -8 -78 6 -3 10 -15 10 -26 0 -11 7 -22
15 -25 22 -9 65 23 65 46 0 28 -60 88 -82 83z"/>
<path d="M6620 1425 l-21 -34 41 -54 40 -54 83 -6 c45 -4 110 -9 143 -13 60
-6 63 -5 109 30 52 39 60 41 100 26 20 -8 26 -15 22 -30 -4 -18 0 -20 35 -20
35 0 48 -7 94 -50 48 -45 57 -50 99 -50 26 0 63 -9 85 -20 57 -29 80 -27 80 9
0 26 4 30 40 36 35 6 60 27 60 50 0 3 -24 17 -52 30 -37 18 -69 25 -108 24
l-55 -1 48 -13 c26 -7 55 -19 63 -26 25 -21 -38 -48 -111 -49 -60 0 -60 0 -98
47 -34 42 -36 48 -20 54 10 4 32 8 48 9 27 1 28 2 10 12 -10 6 -71 15 -135 19
-123 7 -344 56 -412 90 -25 13 -58 19 -102 19 -63 0 -65 -1 -86 -35z"/>
</g>
</svg>
