<?xml version="1.0" standalone="no"?>
<!DOCTYPE svg PUBLIC "-//W3C//DTD SVG 20010904//EN"
 "http://www.w3.org/TR/2001/REC-SVG-20010904/DTD/svg10.dtd">
<svg version="1.0" xmlns="http://www.w3.org/2000/svg"
 width="1024.000000pt" height="1024.000000pt" viewBox="0 0 1024.000000 1024.000000"
 preserveAspectRatio="xMidYMid meet">
<metadata>
Created by potrace 1.10, written by Peter Selinger 2001-2011
</metadata>
<g transform="translate(0.000000,1024.000000) scale(0.100000,-0.100000)"
fill="#000000" stroke="none">
<path d="M73 8393 c-7 -27 -15 -58 -19 -70 -5 -17 -2 -23 10 -23 9 0 39 -24
67 -52 50 -52 51 -54 44 -98 -4 -25 -11 -67 -14 -93 -8 -51 -21 -67 -58 -67
-30 0 -33 -46 -4 -55 24 -7 35 -34 20 -51 -16 -20 44 -48 86 -40 33 7 33 6 54
-56 41 -127 43 -146 30 -216 -12 -58 -17 -67 -50 -88 -50 -31 -54 -39 -30 -73
l21 -29 -21 -27 c-20 -24 -21 -30 -9 -66 13 -39 13 -40 -20 -74 -29 -29 -32
-38 -26 -69 4 -20 3 -42 -1 -49 -4 -6 -15 -32 -23 -57 -9 -28 -24 -49 -37 -55
-13 -5 -23 -17 -23 -26 0 -9 -14 -35 -31 -58 -39 -55 -51 -132 -24 -161 10
-11 23 -20 30 -20 35 0 175 -216 175 -271 0 -16 7 -41 16 -54 11 -16 14 -34
10 -51 -4 -15 -2 -40 5 -55 11 -28 13 -28 70 -22 76 8 89 -3 89 -72 0 -38 -6
-60 -21 -79 -17 -21 -20 -35 -15 -66 3 -22 2 -41 -4 -45 -20 -13 -9 -53 25
-88 21 -22 35 -46 35 -61 0 -14 13 -41 30 -59 36 -41 37 -50 9 -85 -18 -23
-20 -35 -14 -87 6 -52 11 -63 43 -92 20 -18 50 -40 65 -49 28 -15 29 -16 22
-88 -7 -69 -6 -74 15 -89 14 -10 25 -31 29 -54 6 -34 10 -38 41 -43 19 -4 53
-15 75 -26 37 -18 41 -23 48 -73 8 -47 6 -57 -12 -82 -24 -32 -18 -61 18 -93
12 -11 27 -39 33 -63 9 -36 17 -46 44 -58 19 -8 37 -21 40 -29 3 -9 -8 -40
-25 -70 -22 -38 -30 -62 -26 -79 5 -17 -1 -33 -20 -55 -28 -33 -27 -41 9 -80
l21 -23 -23 -40 -23 -40 30 -35 c30 -34 31 -36 16 -64 -22 -43 -10 -72 38 -95
24 -11 52 -36 66 -57 21 -33 29 -38 78 -44 75 -9 100 -36 69 -76 -9 -12 -11
-40 -9 -88 4 -57 1 -76 -12 -90 -25 -28 -15 -41 50 -64 50 -18 60 -25 63 -47
2 -21 -5 -31 -37 -52 l-41 -27 0 -80 0 -79 34 6 c77 12 120 -24 63 -53 -18 -9
-34 -18 -36 -20 -1 -1 5 -26 14 -55 14 -42 15 -58 6 -89 -15 -51 -14 -70 6
-92 14 -16 15 -23 5 -39 -14 -21 -8 -37 20 -57 31 -22 38 -46 27 -87 -9 -33
-8 -45 12 -87 18 -40 20 -52 11 -73 -6 -14 -19 -25 -28 -25 -17 0 -17 3 3
-147 5 -39 4 -42 -36 -68 -33 -23 -41 -33 -41 -59 0 -20 7 -36 20 -44 11 -6
26 -27 34 -46 10 -24 22 -35 45 -39 23 -5 42 -22 76 -68 48 -65 52 -78 33 -97
-6 -6 -10 -13 -7 -16 2 -2 409 -9 904 -16 779 -10 1056 -10 2065 5 641 9 1208
14 1260 11 52 -4 551 9 1109 29 774 26 1018 32 1029 23 7 -7 27 -38 43 -70 24
-48 34 -58 55 -58 32 0 74 -42 74 -73 0 -37 70 -107 107 -107 26 0 31 -5 37
-31 3 -17 6 -40 6 -49 0 -22 50 -74 90 -95 25 -13 32 -13 57 0 15 7 36 16 46
19 19 6 24 64 7 96 -7 12 -5 34 6 69 17 60 12 83 -27 129 -16 18 -29 40 -29
49 0 68 144 168 270 187 85 13 146 35 170 61 21 23 25 38 27 101 2 48 8 83 18
97 8 12 15 43 15 70 0 37 5 53 23 70 13 12 36 42 50 67 14 25 51 70 81 100 38
36 57 64 60 85 3 16 10 66 16 110 15 104 1 189 -43 263 -25 42 -36 52 -58 52
-28 0 -61 34 -129 134 l-34 50 18 45 c10 25 32 104 50 175 28 111 36 132 61
152 49 39 84 46 139 30 48 -15 50 -14 107 15 45 22 73 29 121 30 35 0 97 4
139 7 71 7 78 10 130 54 30 25 73 56 96 68 41 21 44 21 92 5 30 -9 56 -13 65
-8 7 4 32 32 55 60 26 33 59 61 89 75 l47 23 7 77 c4 47 15 93 28 119 13 25
20 52 17 68 -10 51 18 80 162 168 32 19 36 28 52 105 10 45 27 116 39 157 26
96 26 176 -1 243 -11 29 -20 71 -18 93 3 69 0 83 -21 90 -12 4 -32 24 -45 45
-20 31 -44 48 -130 89 -167 81 -222 143 -211 234 4 35 1 60 -10 82 -21 45
-118 142 -159 159 -18 8 -39 27 -47 42 -7 16 -25 31 -42 35 -15 4 -46 20 -67
35 -44 30 -49 53 -22 108 16 35 16 36 -14 85 -17 27 -38 74 -47 104 -10 33
-26 63 -40 75 -14 11 -77 30 -153 46 -208 44 -254 61 -285 100 -18 22 -39 36
-61 40 -52 10 -83 45 -98 110 -9 43 -10 65 -1 94 18 59 -5 123 -64 178 -29 27
-34 39 -34 75 0 24 -11 97 -25 163 -31 148 -27 255 11 296 50 55 133 275 119
319 -9 29 -46 58 -109 83 -33 13 -68 35 -78 49 -17 23 -18 31 -8 65 10 34 9
46 -10 93 -17 43 -20 66 -14 108 l6 53 -4228 0 -4229 0 -12 -47z"/>
</g>
</svg>
