<?xml version="1.0" standalone="no"?>
<!DOCTYPE svg PUBLIC "-//W3C//DTD SVG 20010904//EN"
 "http://www.w3.org/TR/2001/REC-SVG-20010904/DTD/svg10.dtd">
<svg version="1.0" xmlns="http://www.w3.org/2000/svg"
 width="1024.000000pt" height="1024.000000pt" viewBox="0 0 1024.000000 1024.000000"
 preserveAspectRatio="xMidYMid meet">
<metadata>
Created by potrace 1.10, written by Peter Selinger 2001-2011
</metadata>
<g transform="translate(0.000000,1024.000000) scale(0.100000,-0.100000)"
fill="#000000" stroke="none">
<path d="M2170 8279 c0 -1818 -1 -1965 -17 -2009 l-17 -48 32 -31 c17 -18 34
-47 38 -66 3 -18 15 -42 25 -51 15 -13 18 -25 14 -46 -5 -20 -1 -35 14 -54 27
-35 27 -48 -8 -108 -26 -47 -27 -52 -12 -68 9 -9 25 -41 35 -70 11 -29 30 -69
43 -88 12 -19 23 -44 23 -56 0 -12 11 -36 25 -55 14 -19 34 -49 46 -67 19 -28
26 -32 50 -27 24 6 33 1 55 -24 20 -24 34 -31 61 -31 50 0 88 -41 98 -105 4
-33 19 -66 41 -96 19 -26 34 -55 34 -66 0 -11 -20 -46 -45 -77 -35 -46 -45
-67 -45 -96 0 -23 -7 -43 -17 -51 -20 -17 -103 -186 -103 -211 0 -10 -9 -44
-19 -75 -11 -32 -26 -83 -35 -114 -9 -30 -27 -72 -41 -93 -14 -20 -25 -42 -25
-49 0 -7 -13 -28 -28 -47 -34 -41 -46 -86 -25 -94 11 -5 11 -9 1 -25 -9 -14
-9 -23 -1 -33 15 -18 -7 -82 -41 -117 -13 -14 -34 -47 -44 -72 -20 -46 -56
-80 -100 -93 -12 -4 -28 -19 -36 -34 -28 -56 -96 -229 -96 -247 0 -10 -18 -37
-40 -62 -36 -38 -40 -48 -35 -77 5 -22 1 -44 -9 -64 -15 -29 -14 -32 14 -73
28 -42 28 -67 0 -84 -16 -10 20 -55 43 -55 11 0 28 7 38 16 15 14 19 12 47
-21 18 -23 32 -33 36 -26 4 6 22 11 41 11 35 0 45 -13 45 -56 0 -14 6 -24 15
-24 26 0 65 -23 65 -38 0 -8 -18 -41 -40 -73 -45 -66 -49 -87 -20 -112 26 -22
26 -61 -1 -88 -17 -17 -19 -28 -14 -59 7 -41 -4 -72 -36 -103 -18 -17 -19 -62
-19 -1307 l0 -1290 3055 0 3055 0 0 1739 0 1739 -24 6 c-14 3 -35 20 -48 38
-13 17 -47 55 -76 85 -47 46 -53 56 -47 82 5 23 2 29 -14 34 -12 3 -21 13 -21
23 0 31 -49 92 -70 87 -12 -3 -20 2 -25 18 -7 22 -8 22 -23 -7 -19 -38 -17
-37 -40 -25 -27 14 -47 -9 -38 -45 5 -19 0 -33 -20 -56 -20 -25 -24 -38 -20
-61 7 -36 23 -57 42 -57 19 0 18 -29 -2 -37 -8 -3 -34 0 -57 7 -23 7 -76 15
-117 16 -72 3 -77 2 -128 -32 -30 -20 -55 -34 -56 -32 -23 37 -61 78 -73 78
-9 0 -31 -10 -50 -21 -24 -15 -43 -19 -64 -15 -17 3 -29 1 -29 -5 0 -5 -6 -9
-12 -7 -7 1 -25 -1 -41 -5 -18 -5 -37 -2 -56 8 -17 8 -37 12 -45 9 -9 -4 -29
5 -47 20 -17 14 -35 26 -40 26 -6 0 -28 -15 -49 -32 -34 -29 -40 -38 -40 -75
0 -24 -7 -48 -16 -57 -19 -20 -17 -20 -65 4 -23 12 -48 18 -60 15 -11 -4 -25
-2 -32 3 -7 5 -43 12 -81 15 -38 4 -79 13 -92 22 -21 14 -27 14 -53 1 -67 -35
-114 -111 -81 -131 14 -9 12 -17 -11 -44 l-20 -24 -32 30 c-18 17 -54 43 -80
58 -64 37 -99 109 -67 141 7 7 4 16 -10 29 -11 10 -20 24 -20 30 0 7 -9 24
-21 39 -20 25 -20 28 -4 52 19 30 14 64 -16 102 -10 14 -19 35 -19 47 0 29
-33 70 -81 101 -47 29 -65 30 -104 4 -40 -26 -52 -25 -59 6 -5 18 -19 31 -47
42 -33 13 -44 25 -75 86 -32 66 -34 71 -18 83 10 7 24 13 32 13 12 0 13 10 8
46 -3 26 -6 57 -6 70 0 15 -12 30 -35 44 -19 12 -35 29 -35 39 0 12 -7 17 -21
17 -18 -1 -27 12 -49 66 -15 37 -46 88 -69 114 -29 34 -40 53 -35 67 4 13 -4
29 -26 52 -27 28 -30 37 -25 66 5 28 2 38 -19 58 -29 27 -35 77 -14 110 16 26
-5 76 -28 67 -9 -4 -23 -1 -30 5 -11 9 -10 18 6 50 11 21 20 44 20 52 0 20
-65 48 -78 35 -8 -8 -13 -6 -18 8 -17 53 -49 102 -62 96 -8 -2 -18 1 -22 8
-14 23 -41 3 -34 -24 4 -17 0 -30 -16 -44 -12 -11 -26 -24 -30 -29 -25 -27
-110 -110 -123 -121 -10 -7 -27 -10 -41 -6 -22 5 -26 2 -36 -35 -11 -42 -50
-81 -81 -81 -10 0 -25 13 -33 29 -9 16 -27 32 -41 35 -15 4 -30 17 -35 32 -12
31 -88 68 -107 52 -21 -17 -27 -2 -13 32 10 25 10 36 0 55 -11 21 -10 26 16
48 21 18 28 34 30 65 2 34 -3 45 -32 73 -19 18 -34 37 -34 42 0 5 14 33 32 62
26 44 39 55 73 65 22 6 47 10 55 8 22 -5 24 31 4 68 -16 29 -16 36 -4 59 13
24 13 28 -5 41 -10 8 -27 14 -37 14 -10 0 -21 8 -25 18 -3 9 -12 25 -20 34
-13 15 -12 21 11 55 33 49 33 62 -4 74 -25 9 -30 16 -30 44 0 32 2 34 38 37
l37 3 -3 68 c-2 41 1 74 8 82 6 8 15 57 18 109 6 77 11 98 26 109 18 13 18 18
6 60 -15 55 -9 74 22 79 21 3 24 11 35 98 7 52 10 101 8 108 -3 7 -23 12 -54
12 -42 0 -52 -4 -69 -27 l-20 -28 -37 18 c-27 13 -41 15 -56 7 -26 -15 -53 -5
-73 25 -15 23 -15 27 -1 49 15 23 15 26 -4 45 -29 29 -52 26 -86 -9 -22 -23
-32 -27 -46 -19 -22 11 -24 31 -7 60 11 18 10 23 -16 44 -15 12 -48 32 -72 44
-64 32 -88 71 -79 127 6 43 5 47 -33 84 -22 21 -48 41 -59 44 -18 6 -64 76
-111 171 -23 45 -63 86 -107 108 -42 21 -60 45 -75 100 -14 54 -37 71 -80 62
-16 -3 -31 -2 -35 4 -3 6 -16 11 -29 11 -23 0 -60 35 -110 103 -15 21 -47 47
-71 58 -24 11 -51 29 -61 40 -9 10 -30 19 -46 19 -40 0 -35 15 16 51 l43 31
-24 44 c-13 23 -33 46 -44 49 -26 9 -24 17 15 64 38 45 38 71 3 96 -19 14 -20
18 -9 47 12 32 11 34 -23 63 -19 17 -35 38 -35 48 0 12 -8 17 -25 17 -27 0
-45 30 -45 76 0 16 -16 41 -46 72 -26 26 -71 84 -100 130 l-54 83 0 779 0 780
-495 0 -495 0 0 -1961z"/>
</g>
</svg>
