<?xml version="1.0" standalone="no"?>
<!DOCTYPE svg PUBLIC "-//W3C//DTD SVG 20010904//EN"
 "http://www.w3.org/TR/2001/REC-SVG-20010904/DTD/svg10.dtd">
<svg version="1.0" xmlns="http://www.w3.org/2000/svg"
 width="1024.000000pt" height="1024.000000pt" viewBox="0 0 1024.000000 1024.000000"
 preserveAspectRatio="xMidYMid meet">
<metadata>
Created by potrace 1.10, written by Peter Selinger 2001-2011
</metadata>
<g transform="translate(0.000000,1024.000000) scale(0.100000,-0.100000)"
fill="#000000" stroke="none">
<path d="M3849 10223 c-8 -9 -47 -31 -87 -50 -70 -32 -74 -32 -104 -17 -17 9
-58 20 -91 24 -52 8 -68 6 -116 -14 -51 -20 -60 -21 -94 -10 -46 16 -115 0
-208 -47 l-61 -30 -23 21 -24 22 -85 -46 c-47 -25 -123 -66 -169 -91 -52 -28
-104 -66 -142 -105 -86 -87 -122 -104 -207 -96 -68 7 -68 7 -68 -18 0 -16 -8
-30 -22 -37 -70 -36 -178 -117 -189 -141 -6 -16 -19 -28 -28 -28 -9 0 -29 -18
-44 -40 l-28 -40 -39 20 c-44 22 -122 26 -183 9 -35 -9 -41 -17 -92 -120 -55
-109 -56 -110 -113 -135 -31 -14 -81 -34 -111 -45 -29 -10 -68 -28 -86 -39
-20 -12 -50 -20 -77 -20 -37 0 -47 4 -55 23 -8 17 -7 30 4 51 l15 28 -54 -5
c-29 -3 -70 -9 -90 -12 -23 -5 -54 -1 -85 9 -91 30 -274 58 -351 53 -40 -2
-75 -6 -77 -9 -3 -3 131 -245 298 -539 167 -294 320 -564 341 -601 40 -72 40
-84 -6 -135 -16 -17 -18 -25 -9 -41 18 -34 13 -47 -24 -65 -31 -15 -35 -21
-35 -57 0 -22 -4 -40 -8 -40 -5 0 -16 -6 -26 -13 -16 -12 -16 -20 -5 -102 9
-69 9 -116 -1 -214 -12 -122 -13 -126 -53 -180 -22 -30 -50 -72 -63 -94 l-23
-40 35 -42 c32 -39 34 -47 34 -113 0 -70 1 -72 50 -137 28 -36 50 -70 50 -76
0 -5 -22 -9 -50 -9 -48 0 -50 -1 -50 -28 0 -17 -10 -38 -24 -52 -14 -12 -28
-37 -32 -54 -15 -75 -46 -126 -90 -152 -40 -23 -44 -30 -50 -75 -7 -55 -10
-57 -74 -80 -33 -11 -50 -25 -64 -51 -20 -35 -20 -35 3 -91 19 -46 28 -57 46
-57 17 0 32 -13 54 -47 16 -27 49 -69 72 -95 40 -47 41 -48 16 -48 -32 0 -87
-71 -87 -113 0 -24 -3 -28 -20 -24 -16 4 -22 -2 -29 -29 -19 -68 30 -146 104
-165 22 -5 48 -13 58 -16 10 -2 27 -26 38 -51 37 -86 61 -108 136 -126 37 -8
79 -17 93 -19 21 -2 16 -7 -35 -32 -33 -17 -61 -30 -63 -31 -2 -1 5 -31 15
-65 l19 -64 94 0 c84 0 94 -2 100 -20 13 -34 -6 -55 -49 -55 -38 0 -39 -1 -45
-44 l-7 -44 -82 -9 c-66 -6 -82 -11 -85 -26 -3 -14 4 -17 37 -17 48 0 54 -8
40 -49 -13 -36 -13 -36 -69 -16 -23 8 -44 15 -46 15 -1 0 -4 -14 -6 -32 -3
-27 -13 -37 -72 -74 -51 -30 -75 -52 -89 -80 -41 -84 -151 -234 -170 -234 -10
0 -45 -16 -77 -36 -48 -30 -61 -44 -73 -79 l-15 -42 58 -28 c57 -27 58 -28 64
-79 3 -28 6 -72 6 -97 0 -43 3 -48 41 -75 56 -39 81 -90 77 -161 l-3 -57 77
-45 c42 -25 80 -49 83 -53 4 -3 1 -24 -5 -45 -11 -36 -10 -44 14 -91 34 -66
51 -177 37 -240 -9 -43 -8 -49 14 -72 17 -18 22 -32 18 -52 -3 -18 2 -36 16
-54 17 -22 21 -40 21 -105 l0 -79 42 -26 c71 -45 156 -124 167 -155 8 -23 16
-29 38 -29 19 -1 45 -16 80 -48 l53 -47 -59 -91 c-48 -72 -68 -94 -100 -109
-59 -26 -54 -50 18 -104 l59 -44 -17 -61 c-20 -68 -41 -85 -119 -94 -51 -6
-63 -24 -34 -55 11 -12 23 -44 27 -72 4 -27 14 -57 22 -66 12 -15 10 -19 -21
-39 -40 -24 -41 -28 -22 -73 11 -26 33 -42 110 -82 l96 -50 -35 -30 c-32 -27
-36 -37 -45 -105 -9 -73 -9 -76 16 -97 15 -14 38 -23 57 -23 30 0 41 -10 120
-112 l86 -113 1 -144 0 -144 36 -44 37 -45 -7 -94 c-4 -52 -4 -94 1 -94 4 -1
25 -16 46 -34 l39 -32 -15 -36 c-14 -34 -14 -37 9 -59 23 -23 23 -25 9 -78
-13 -50 -13 -56 4 -80 26 -37 33 -89 31 -223 -2 -111 -1 -116 20 -123 11 -4
25 -17 30 -30 14 -37 112 -38 265 -2 193 45 190 43 210 81 10 18 35 44 57 57
35 22 38 28 38 67 0 37 2 43 18 38 12 -4 26 1 37 14 10 11 42 28 72 37 43 14
53 21 53 39 0 12 9 47 21 77 l21 55 147 52 c80 28 152 59 159 68 6 9 12 35 12
59 0 24 9 61 20 83 11 22 20 51 20 65 0 15 4 25 8 23 5 -1 34 -16 65 -33 52
-27 57 -33 57 -64 l0 -34 53 6 52 5 50 -74 c44 -64 55 -75 90 -82 32 -7 43 -6
55 7 13 14 40 15 220 11 194 -5 207 -6 234 -27 19 -15 42 -23 68 -23 21 0 52
-7 67 -15 16 -8 47 -17 68 -21 23 -3 56 -20 77 -38 l38 -31 -17 -37 -18 -36
57 -73 c53 -68 56 -76 56 -129 0 -47 4 -60 25 -80 17 -16 25 -34 25 -56 0 -23
6 -37 20 -44 24 -13 20 -21 76 158 31 103 42 126 61 133 14 5 30 25 39 46 9
21 43 95 76 165 l61 128 67 0 c52 0 73 -4 93 -20 22 -18 27 -18 34 -5 8 13 41
12 288 -6 376 -26 345 -19 345 -79 0 -45 3 -51 47 -89 33 -28 50 -36 54 -28 4
7 82 214 173 460 l166 449 0 191 1 192 135 158 136 158 83 192 82 192 434 46
c418 45 442 49 649 101 l215 54 335 -42 335 -41 306 -188 c259 -159 309 -194
323 -223 16 -32 16 -34 -2 -39 -17 -4 -17 -8 4 -109 12 -58 25 -108 28 -111 3
-3 35 11 71 31 38 21 80 36 99 36 30 0 34 4 40 32 6 30 1 38 -84 123 l-91 91
157 267 c111 191 161 267 174 267 33 0 42 99 11 121 -18 13 -15 24 72 252 86
226 92 238 119 244 41 8 43 18 8 68 -17 25 -42 74 -56 111 -13 36 -33 83 -44
104 -24 47 -24 48 -5 52 12 2 8 19 -20 82 -31 71 -33 82 -20 96 8 9 15 19 15
23 0 3 -25 27 -56 53 l-56 48 -27 -32 -26 -33 -25 26 c-14 15 -58 50 -98 79
-91 63 -165 160 -187 243 -8 32 -15 66 -15 76 0 10 -10 41 -22 69 -21 48 -21
51 -3 80 10 17 24 65 31 107 13 76 19 85 73 121 17 12 23 28 28 72 4 45 10 57
26 62 17 4 18 10 12 43 -4 21 -9 41 -11 45 -10 16 -39 7 -69 -21 l-30 -29
-648 67 c-356 38 -651 71 -654 75 -7 6 -20 335 -22 517 l-1 77 -125 156 c-69
85 -125 158 -125 161 0 3 59 2 130 -2 l130 -6 0 109 c0 60 3 125 6 145 5 30 1
41 -25 71 -29 34 -31 40 -25 90 5 48 4 55 -20 77 -14 14 -26 32 -26 40 0 9
-14 47 -30 86 -37 86 -38 125 -4 192 l27 52 -18 79 c-17 74 -21 81 -52 96 -19
9 -42 16 -52 16 -10 0 -26 9 -37 21 -10 12 -37 30 -59 41 -22 12 -51 29 -64
39 -13 11 -32 19 -41 19 -10 0 -25 11 -34 25 -9 14 -27 27 -41 31 -18 4 -25
14 -27 37 -2 26 -8 33 -30 35 -18 2 -31 -4 -41 -18 -14 -21 -18 -21 -71 -9
-44 10 -71 10 -120 1 -86 -16 -131 -15 -168 4 -27 14 -40 15 -81 5 -63 -14
-130 -14 -145 1 -7 7 -12 26 -12 43 0 25 -6 33 -30 42 -19 7 -34 22 -41 40 -6
20 -24 36 -55 51 -31 16 -49 32 -59 56 -18 43 -109 86 -183 86 -41 0 -52 4
-57 19 -6 21 -16 25 -79 36 -25 4 -40 13 -43 25 -5 17 -67 40 -111 40 -26 0
-69 49 -77 88 -6 29 -10 32 -46 32 -30 0 -42 5 -55 25 -9 14 -33 34 -53 46
-27 15 -41 32 -52 62 -16 47 -32 50 -100 21 -35 -15 -38 -15 -98 15 -33 17
-61 38 -61 46 0 22 -38 43 -140 76 -101 33 -92 32 -300 10 -92 -10 -96 -10
-113 11 -15 18 -20 20 -28 7 -5 -7 -9 -18 -9 -23 0 -5 -11 3 -25 18 -13 14
-30 26 -37 26 -7 0 -42 14 -77 30 -62 30 -63 31 -58 64 7 46 -26 78 -91 86
l-47 5 -3 43 c-3 40 -14 53 -27 32 -10 -16 -25 -11 -25 8 0 15 -6 17 -37 14
-38 -5 -38 -5 -19 16 18 21 18 22 -9 32 -16 6 -49 14 -74 17 -52 7 -62 16 -55
53 3 14 -2 39 -10 55 -9 17 -16 39 -16 50 -1 49 -11 65 -44 65 -17 0 -38 -5
-46 -10 -10 -6 -20 -4 -32 7 -22 19 -22 35 -4 71 29 58 29 67 -8 87 -45 24
-69 96 -65 192 2 40 -2 77 -9 90 -16 30 -16 30 18 48 29 15 30 18 30 83 -1 43
-6 74 -15 86 -10 13 -15 44 -15 92 0 68 -2 74 -28 93 -27 19 -29 23 -21 68 4
26 8 66 8 88 1 27 13 64 36 105 39 73 45 133 20 193 -19 46 -19 106 0 131 8
11 15 25 15 32 0 14 -80 124 -90 124 -4 0 -14 -7 -21 -17z"/>
</g>
</svg>
