<?xml version="1.0" standalone="no"?>
<!DOCTYPE svg PUBLIC "-//W3C//DTD SVG 20010904//EN"
 "http://www.w3.org/TR/2001/REC-SVG-20010904/DTD/svg10.dtd">
<svg version="1.0" xmlns="http://www.w3.org/2000/svg"
 width="1024.000000pt" height="1024.000000pt" viewBox="0 0 1024.000000 1024.000000"
 preserveAspectRatio="xMidYMid meet">
<metadata>
Created by potrace 1.10, written by Peter Selinger 2001-2011
</metadata>
<g transform="translate(0.000000,1024.000000) scale(0.100000,-0.100000)"
fill="#000000" stroke="none">
<path d="M4656 10219 c-47 -37 -28 -79 57 -127 31 -18 64 -47 80 -71 28 -41
56 -52 74 -28 5 6 17 33 27 58 16 44 16 49 0 83 -10 20 -21 36 -26 36 -4 0
-25 16 -47 35 -33 30 -45 35 -88 35 -36 0 -58 -6 -77 -21z"/>
<path d="M5093 10027 c-34 -18 -62 -37 -62 -42 -1 -6 -14 -25 -30 -42 -36 -40
-111 -55 -141 -28 -17 16 -19 16 -29 -4 -6 -11 -16 -44 -21 -73 -6 -29 -29
-90 -51 -136 -29 -57 -40 -90 -36 -109 3 -15 1 -38 -4 -51 -6 -17 -6 -29 3
-39 7 -8 12 -54 14 -114 2 -116 13 -140 73 -158 58 -17 71 -42 75 -146 3 -75
7 -90 24 -104 13 -10 26 -37 33 -69 8 -41 20 -61 49 -88 46 -43 100 -164 100
-225 0 -30 10 -58 36 -100 19 -33 39 -59 42 -59 4 0 15 -15 25 -32 26 -48 83
-107 111 -114 31 -7 131 24 153 48 9 10 18 42 21 72 4 45 11 62 43 101 22 26
39 56 39 66 0 10 -15 36 -33 56 -18 21 -41 50 -50 65 -12 19 -28 29 -54 33
-70 11 -85 19 -109 65 -26 49 -29 89 -13 171 11 53 10 55 -25 108 -20 29 -36
64 -36 77 0 39 -57 92 -115 106 -105 26 -132 64 -136 188 -2 105 25 206 61
225 13 7 40 40 60 74 39 65 90 126 111 133 14 5 13 9 -24 133 -7 22 -19 41
-27 42 -8 1 -43 -12 -77 -30z"/>
<path d="M4464 9319 c-24 -6 -44 -17 -48 -27 -3 -9 -22 -39 -41 -67 -20 -27
-38 -61 -42 -75 -3 -14 -11 -32 -18 -40 -8 -10 -10 -23 -5 -36 11 -29 26 -37
54 -30 18 4 25 15 29 47 8 58 63 165 98 191 16 12 29 28 29 35 0 15 1 14 -56
2z"/>
<path d="M4796 8616 c-15 -30 -37 -63 -48 -73 -40 -36 -58 -88 -58 -169 0 -70
-4 -84 -35 -141 -41 -74 -42 -83 -15 -83 13 0 24 -10 30 -26 6 -15 20 -38 31
-52 17 -23 19 -35 14 -94 -5 -55 -4 -68 8 -68 17 0 191 91 217 113 47 40 39
238 -19 475 -43 170 -43 172 -70 172 -23 0 -32 -8 -55 -54z"/>
<path d="M5508 8199 c-15 -6 -30 -19 -33 -29 -3 -10 -25 -34 -49 -53 -29 -25
-46 -48 -55 -79 -7 -24 -19 -53 -27 -65 -17 -28 -6 -35 43 -27 24 3 51 1 70
-8 39 -16 102 -91 110 -130 7 -34 32 -37 86 -8 20 11 47 20 59 20 13 0 29 4
37 9 21 14 41 82 35 121 -11 69 -22 84 -91 120 -37 19 -72 44 -77 55 -23 42
-58 85 -69 84 -7 0 -24 -5 -39 -10z"/>
<path d="M4858 7938 c-89 -37 -96 -42 -87 -60 10 -18 20 -19 115 -16 91 3 106
6 125 25 l22 22 -27 35 c-15 20 -32 36 -39 35 -7 0 -56 -18 -109 -41z"/>
<path d="M5000 7860 c-14 -4 -81 -9 -150 -9 -69 -1 -130 -5 -135 -9 -6 -4 -12
-34 -13 -67 -2 -43 -9 -68 -25 -90 -26 -35 -33 -145 -10 -145 7 0 13 -9 13
-21 0 -11 10 -29 21 -38 18 -15 32 -16 83 -9 90 12 133 40 267 173 114 113
120 121 114 151 -10 53 -95 86 -165 64z"/>
<path d="M5490 7430 c-11 -7 -12 -12 -3 -21 14 -14 53 -2 53 17 0 16 -28 18
-50 4z"/>
<path d="M4730 7370 c-41 -41 -18 -70 57 -70 84 0 173 55 132 81 -8 5 -49 9
-91 9 -65 0 -81 -3 -98 -20z"/>
<path d="M5417 7167 c-23 -18 -27 -27 -22 -50 8 -31 31 -34 114 -15 57 13 68
37 29 62 -44 27 -90 28 -121 3z"/>
<path d="M5500 7082 c-29 -13 -101 -100 -111 -134 -5 -18 -14 -78 -19 -133 -5
-55 -14 -122 -20 -150 -35 -155 57 -294 193 -295 58 0 97 46 97 116 0 32 8 46
58 96 31 32 64 58 74 58 19 0 88 90 88 115 0 18 -93 115 -111 115 -10 0 -84
98 -111 148 -27 50 -98 83 -138 64z"/>
<path d="M4867 6722 c-22 -24 -21 -45 1 -65 38 -34 92 -10 92 40 0 23 -5 32
-22 37 -38 10 -54 7 -71 -12z"/>
<path d="M4627 6693 c-40 -6 -67 -55 -67 -120 0 -28 -4 -54 -9 -57 -25 -16
-38 -210 -19 -283 5 -21 -14 -312 -23 -341 -8 -24 -7 -44 5 -80 8 -26 20 -74
26 -107 14 -69 24 -85 54 -85 11 0 30 -7 40 -15 33 -25 79 -18 139 22 64 42
79 67 107 182 19 75 19 90 8 238 -6 87 -12 203 -13 258 -1 112 -16 185 -46
224 -71 94 -144 171 -160 170 -8 -1 -27 -4 -42 -6z"/>
<path d="M5428 6323 c-45 -28 -67 -109 -68 -245 0 -117 19 -157 73 -158 44 0
87 35 87 71 0 12 21 65 47 118 40 81 47 105 47 154 0 40 -4 61 -14 67 -26 17
-142 11 -172 -7z"/>
<path d="M5367 5693 c-57 -75 -107 -171 -107 -205 0 -28 23 -48 56 -48 34 0
111 -68 132 -118 25 -58 39 -71 84 -78 29 -5 36 -2 45 19 13 27 61 46 118 47
45 1 188 24 201 33 7 4 18 30 24 59 11 43 11 53 -2 62 -8 6 -17 19 -21 29 -9
23 -11 22 -118 -18 -51 -20 -100 -33 -111 -30 -10 4 -25 19 -33 35 -8 16 -27
42 -41 57 -24 25 -26 34 -21 86 3 31 3 66 0 77 -8 30 -54 50 -112 50 -49 0
-51 -1 -94 -57z"/>
<path d="M4736 5335 c-69 -19 -83 -36 -68 -78 7 -18 12 -41 12 -51 0 -10 12
-37 26 -61 23 -40 24 -48 13 -79 -11 -30 -10 -38 5 -61 16 -24 23 -26 59 -22
56 6 127 34 154 59 12 12 30 41 39 65 16 42 16 48 -1 101 -23 76 -47 106 -95
126 -48 19 -77 19 -144 1z"/>
<path d="M5426 5205 c-7 -19 7 -57 27 -73 12 -10 20 -8 45 13 38 32 33 49 -17
64 -48 14 -48 14 -55 -4z"/>
<path d="M5423 5080 c-13 -5 -23 -15 -24 -22 0 -7 -2 -105 -3 -218 -2 -113 -6
-223 -10 -245 -7 -32 -4 -45 11 -64 27 -34 71 -23 80 19 8 43 90 100 142 100
43 0 71 26 71 65 0 11 13 45 30 75 17 32 29 71 30 93 0 21 7 52 16 68 8 17 14
33 11 35 -2 2 -30 9 -62 15 -37 7 -75 22 -101 41 -57 41 -142 58 -191 38z"/>
<path d="M4821 4909 c-30 -5 -63 -17 -73 -26 -27 -24 -57 -112 -48 -143 4 -14
4 -34 -1 -45 -13 -35 -10 -154 6 -184 8 -16 28 -34 44 -41 26 -10 37 -10 73 5
45 17 105 58 124 84 17 22 28 279 14 316 -18 48 -32 51 -139 34z"/>
<path d="M4946 4274 c-60 -19 -116 -54 -146 -91 -20 -25 -22 -35 -16 -98 3
-38 13 -83 21 -100 8 -16 21 -55 29 -86 19 -70 53 -105 114 -118 44 -9 52 -8
117 26 39 19 93 52 120 73 28 20 75 55 105 77 30 22 67 52 82 66 25 23 26 27
16 68 -6 24 -18 53 -28 64 -9 11 -23 31 -32 45 -13 21 -24 26 -67 28 -35 1
-70 12 -108 32 -64 34 -126 38 -207 14z"/>
<path d="M5651 3719 c-13 -5 -29 -16 -35 -23 -6 -8 -33 -17 -60 -21 -35 -5
-74 -23 -137 -63 -48 -32 -107 -69 -132 -84 -42 -24 -45 -29 -49 -75 -5 -61
28 -130 73 -157 44 -26 111 -27 139 -1 15 14 37 20 67 20 44 0 47 2 84 55 l38
55 -10 80 c-14 105 -7 150 27 186 31 33 30 41 -5 28z"/>
<path d="M5216 2109 c-33 -22 -61 -41 -64 -43 -8 -9 28 -63 62 -94 36 -33 42
-47 28 -68 -10 -16 -135 -91 -158 -96 -10 -2 -28 -17 -38 -33 -11 -17 -36 -38
-56 -47 -65 -32 -86 -95 -65 -197 7 -36 18 -79 24 -94 6 -16 11 -41 11 -56 0
-19 9 -34 30 -49 16 -12 32 -22 36 -22 3 0 23 -15 44 -32 21 -18 58 -44 82
-57 50 -27 37 -30 165 42 37 22 83 41 103 44 68 9 81 14 118 46 20 18 49 41
64 50 36 23 68 86 68 134 -1 22 -11 55 -25 78 -14 22 -34 58 -44 80 -11 22
-38 57 -60 79 -22 21 -38 42 -35 47 9 15 -17 168 -35 202 -42 81 -65 107 -101
112 -91 15 -94 14 -154 -26z"/>
<path d="M5466 531 c-7 -10 28 -43 37 -35 8 8 -11 44 -23 44 -5 0 -11 -4 -14
-9z"/>
<path d="M5137 154 c-39 -20 -50 -22 -72 -12 -14 6 -25 15 -25 20 0 4 -7 8
-15 8 -19 0 -19 -19 -1 -45 7 -11 17 -31 21 -45 9 -31 54 -80 73 -80 23 0 71
59 82 102 6 21 13 45 16 52 9 24 -32 24 -79 0z"/>
</g>
</svg>
