<?xml version="1.0" standalone="no"?>
<!DOCTYPE svg PUBLIC "-//W3C//DTD SVG 20010904//EN"
 "http://www.w3.org/TR/2001/REC-SVG-20010904/DTD/svg10.dtd">
<svg version="1.0" xmlns="http://www.w3.org/2000/svg"
 width="1024.000000pt" height="1024.000000pt" viewBox="0 0 1024.000000 1024.000000"
 preserveAspectRatio="xMidYMid meet">
<metadata>
Created by potrace 1.10, written by Peter Selinger 2001-2011
</metadata>
<g transform="translate(0.000000,1024.000000) scale(0.100000,-0.100000)"
fill="#000000" stroke="none">
<path d="M4766 10231 c-26 -5 -32 -14 -53 -81 -13 -41 -21 -87 -19 -101 5 -26
5 -26 -341 -129 -388 -117 -334 -111 -518 -55 -99 30 -144 57 -158 95 -6 16
-20 31 -32 34 -20 5 -259 -54 -444 -109 -46 -14 -98 -25 -117 -25 -51 0 -145
-39 -184 -76 -20 -19 -43 -34 -53 -34 -9 0 -35 -7 -58 -17 -40 -16 -41 -17
-36 -54 6 -48 -26 -157 -76 -256 -48 -95 -88 -139 -133 -147 -29 -6 -34 -10
-29 -27 4 -12 4 -36 1 -54 -5 -27 -14 -36 -47 -49 -40 -16 -41 -18 -34 -52 3
-20 3 -60 0 -89 -7 -52 -7 -53 -49 -61 -37 -8 -44 -15 -68 -62 -19 -38 -25
-62 -21 -86 5 -31 2 -35 -33 -52 -44 -21 -53 -48 -34 -95 11 -24 10 -33 -2
-47 -40 -45 -86 -149 -91 -204 -7 -69 -11 -78 -42 -78 -16 0 -26 -7 -31 -22
-14 -47 -33 -58 -99 -58 -55 0 -63 -3 -75 -24 -10 -19 -10 -34 0 -75 6 -27 9
-54 6 -59 -3 -6 -22 -13 -41 -16 -31 -6 -35 -11 -35 -36 0 -19 -7 -34 -20 -42
-13 -8 -18 -19 -14 -33 4 -17 -4 -25 -45 -44 -45 -22 -58 -23 -144 -17 l-95 7
-46 -40 c-53 -46 -53 -46 -92 -26 -34 18 -58 19 -85 5 -15 -8 -19 -21 -19 -57
0 -37 -6 -53 -27 -75 l-27 -28 18 -85 c9 -47 15 -89 11 -94 -3 -5 -18 -12 -34
-16 -32 -7 -63 -55 -81 -127 -9 -34 -23 -57 -49 -79 -57 -48 -157 -109 -179
-109 -12 0 -37 -20 -61 -49 -37 -44 -45 -49 -97 -55 -66 -8 -110 13 -142 69
-23 38 -59 60 -116 70 -32 6 -41 4 -64 -18 -16 -14 -73 -41 -137 -62 -60 -21
-122 -44 -137 -52 -39 -19 -44 -53 -18 -118 19 -46 20 -60 11 -86 -12 -35 -15
-108 -5 -133 10 -26 53 -19 85 13 23 24 29 38 29 75 0 24 5 48 11 52 9 5 10
-11 5 -59 -8 -74 1 -88 41 -62 17 12 36 15 62 11 20 -3 42 -7 49 -8 20 -2 14
-18 -11 -27 -17 -7 -24 -5 -31 10 -11 23 -25 24 -32 4 -9 -22 92 -111 153
-134 59 -23 75 -20 118 19 22 20 49 30 105 40 92 15 100 18 100 36 0 8 7 14
15 14 19 0 19 -9 -1 -31 -14 -16 -14 -18 5 -29 31 -16 139 -2 176 23 17 11 45
34 63 51 29 27 32 28 32 9 0 -14 -21 -34 -69 -66 l-70 -46 -98 9 c-54 5 -105
11 -114 12 -19 3 -169 -136 -169 -156 0 -18 37 -64 62 -77 17 -9 74 -15 213
-21 17 -1 65 4 109 11 83 13 143 8 189 -16 46 -23 25 -24 -41 -2 l-62 21 -124
-21 c-68 -12 -137 -22 -153 -22 -66 -2 -266 22 -299 36 -20 8 -42 15 -49 15
-21 0 -152 -109 -159 -132 -16 -61 6 -229 40 -300 10 -22 14 -43 9 -55 -7 -17
-8 -17 -15 2 -6 17 -8 15 -15 -15 -4 -19 -8 -62 -8 -95 0 -66 28 -136 63 -155
29 -16 56 -74 76 -168 16 -75 22 -88 68 -138 61 -67 103 -81 172 -57 34 11 55
29 88 72 63 81 68 85 110 71 48 -16 58 -30 41 -60 -8 -14 -21 -40 -30 -58 -10
-21 -41 -50 -88 -80 -149 -99 -167 -114 -167 -143 0 -15 4 -39 10 -53 5 -14 6
-26 3 -26 -4 0 -36 30 -72 66 -89 89 -150 114 -281 114 -74 0 -104 4 -133 19
-20 10 -37 17 -37 15 0 -3 9 -23 21 -45 18 -36 19 -51 13 -133 -5 -73 -3 -98
9 -122 25 -49 94 -120 167 -174 75 -54 115 -106 125 -163 4 -21 21 -50 43 -71
64 -64 94 -194 72 -311 -7 -36 -10 -69 -6 -72 3 -3 32 12 63 34 32 22 86 54
119 71 34 17 70 43 80 57 11 14 37 32 59 40 46 16 133 19 168 6 18 -7 30 -6
43 4 11 8 22 15 27 15 10 0 9 -44 -3 -74 -8 -22 0 -37 77 -138 47 -62 101
-129 119 -149 17 -20 35 -47 39 -60 12 -39 36 -59 77 -65 46 -8 48 -17 6 -29
-27 -8 -34 -17 -42 -49 -12 -52 9 -170 39 -222 13 -23 22 -44 18 -47 -3 -3 -2
-27 1 -52 l7 -45 92 -44 c51 -25 110 -56 132 -71 l40 -25 -40 6 c-22 3 -52 14
-66 24 -15 10 -55 31 -89 45 -75 32 -110 28 -165 -15 -21 -17 -60 -38 -86 -47
-41 -15 -48 -21 -43 -38 10 -30 92 -118 128 -137 30 -16 79 -65 158 -160 31
-38 49 -49 123 -74 96 -32 89 -34 127 35 21 38 75 54 133 41 22 -5 54 -10 70
-10 36 0 60 -14 51 -29 -5 -8 -16 -7 -36 4 -43 22 -142 20 -164 -4 -20 -22
-39 -127 -27 -150 13 -24 52 -56 88 -75 17 -9 41 -33 53 -54 17 -31 32 -42 74
-56 36 -13 66 -16 92 -12 23 4 53 2 69 -4 75 -29 204 -62 246 -63 43 -1 51 4
134 74 48 41 108 89 133 108 41 30 75 65 107 108 7 10 20 12 38 8 32 -8 36
-25 7 -25 -15 0 -26 -13 -39 -44 -12 -26 -27 -45 -40 -49 -21 -5 -45 -49 -56
-100 -3 -18 -17 -35 -37 -45 -54 -30 -88 -63 -88 -87 0 -25 40 -69 83 -92 31
-16 27 -17 98 38 19 14 52 37 74 50 l40 23 -16 -24 c-9 -14 -36 -40 -60 -59
-24 -18 -45 -40 -47 -48 -2 -7 12 -32 32 -53 20 -22 36 -45 36 -51 0 -6 9 -42
21 -80 25 -83 48 -99 136 -99 31 0 77 -7 101 -17 34 -13 52 -14 87 -6 35 8 42
7 38 -4 -9 -22 -59 -43 -104 -43 -47 0 -156 -18 -179 -30 -8 -4 -31 -37 -51
-74 -20 -37 -48 -79 -63 -94 -32 -34 -32 -55 -3 -107 22 -39 24 -40 81 -43 33
-2 72 2 88 9 24 10 32 9 49 -7 19 -17 19 -19 3 -24 -19 -7 7 -24 145 -96 95
-49 75 -57 -27 -10 -84 39 -168 56 -276 56 -58 0 -76 -4 -112 -27 -24 -16 -44
-31 -44 -35 0 -9 31 -18 250 -69 185 -44 487 -150 860 -302 107 -43 207 -80
221 -80 15 -1 36 -10 47 -20 10 -10 77 -40 148 -68 71 -28 150 -60 177 -70 26
-10 55 -19 65 -19 10 0 41 -11 68 -25 27 -14 92 -44 144 -66 52 -23 127 -62
165 -88 39 -26 176 -99 305 -161 133 -65 247 -126 262 -142 15 -15 34 -28 44
-28 9 0 32 -13 51 -30 18 -16 40 -30 47 -30 7 0 21 -19 30 -42 10 -27 33 -57
62 -80 l46 -38 42 30 c22 16 57 33 76 36 l35 7 -24 -26 c-13 -15 -34 -43 -46
-64 l-23 -37 52 -22 c28 -12 89 -38 135 -58 113 -49 159 -55 206 -26 32 20 41
21 80 11 61 -15 64 -15 76 15 7 21 6 31 -8 46 -16 18 -15 19 5 34 12 8 22 19
22 23 0 9 49 65 114 131 30 30 35 44 37 85 1 28 -1 65 -6 83 l-8 34 53 -3 c48
-3 54 -1 62 22 13 32 1 144 -18 181 l-16 30 42 -7 42 -7 -17 30 c-17 27 -17
31 -1 53 9 13 16 39 17 59 1 42 21 102 37 108 6 2 14 -13 18 -32 3 -20 9 -36
13 -36 4 0 19 25 34 55 24 50 30 55 67 61 28 5 47 15 57 30 9 14 32 28 57 34
96 25 147 52 182 98 19 25 34 49 34 54 0 6 20 33 45 61 25 29 45 62 45 74 0
21 36 57 68 68 10 2 28 24 41 48 17 31 39 52 75 72 28 15 78 54 111 86 33 32
81 67 107 79 26 11 50 29 53 41 4 11 54 55 112 99 87 65 110 78 132 74 21 -4
37 2 72 30 24 20 85 63 134 97 109 74 130 93 158 141 15 28 25 37 39 32 10 -3
31 3 48 13 22 13 30 25 30 46 0 60 24 110 77 163 29 29 63 54 75 56 17 2 34
26 68 90 45 85 80 122 140 148 14 6 34 20 46 31 12 11 49 25 82 31 102 19 96
-9 102 498 l5 434 63 19 c46 14 62 23 62 37 0 10 17 40 38 67 21 26 57 83 80
125 43 76 43 77 108 98 59 20 77 21 188 15 119 -7 125 -6 155 16 30 22 32 22
68 5 29 -14 38 -15 42 -5 7 21 82 98 131 134 61 44 69 73 37 128 -16 28 -26
65 -30 110 -6 61 -4 74 18 115 14 26 25 57 25 68 0 12 9 41 20 65 11 24 20 59
20 77 0 18 12 51 27 75 24 38 27 53 31 169 l5 126 38 18 c22 9 39 20 39 24 0
13 -130 62 -195 75 -53 10 -65 9 -103 -7 -24 -10 -59 -18 -78 -18 -60 0 -100
-37 -150 -139 -49 -100 -51 -103 -176 -203 -48 -39 -107 -96 -131 -128 -61
-82 -152 -156 -204 -164 -41 -7 -42 -7 -68 38 l-27 46 -83 0 c-79 0 -84 1
-104 27 l-20 28 -39 -85 c-55 -117 -112 -176 -112 -115 0 13 -5 35 -11 48 -9
20 -6 32 20 74 19 30 31 64 31 84 0 49 21 73 94 107 l64 30 0 51 c0 60 28 182
53 233 11 21 19 53 19 71 0 23 10 47 31 73 55 68 119 172 119 193 0 15 6 21
23 21 12 0 39 11 59 25 25 17 51 25 80 25 38 0 51 7 108 56 73 62 78 71 79
134 1 65 -13 107 -47 135 -34 28 -56 98 -41 126 13 26 12 29 -17 29 -22 0 -31
11 -70 94 -37 79 -48 94 -72 99 -27 6 -28 7 -45 133 -10 75 -28 156 -44 198
-23 62 -27 89 -31 208 -3 131 -2 139 23 188 l26 50 -93 60 c-77 50 -100 60
-136 60 -23 0 -53 7 -65 15 -18 12 -38 13 -112 5 -123 -13 -133 -13 -139 8 -3
9 8 67 24 127 36 131 37 155 10 162 -11 3 -20 11 -20 18 0 23 30 38 78 40 36
1 58 9 95 35 56 40 59 59 20 130 l-28 50 23 39 c33 59 29 93 -15 142 -21 23
-55 53 -76 66 -20 13 -53 46 -73 73 -20 28 -42 50 -50 50 -7 0 -20 14 -29 30
-18 36 -22 36 -51 9 -21 -20 -24 -20 -53 -4 -17 8 -50 16 -74 17 l-42 0 3 53
4 52 -64 46 c-101 75 -124 97 -98 97 6 0 21 7 34 15 22 14 23 19 12 46 -10 27
-8 37 17 81 16 28 27 51 25 53 -2 1 -32 17 -68 35 -36 18 -67 34 -69 36 -2 2
2 17 9 33 11 28 9 33 -24 77 -20 26 -36 53 -36 60 0 8 -17 25 -38 38 -35 22
-40 31 -51 88 -7 34 -15 69 -17 76 -2 8 -25 12 -68 12 -57 0 -65 3 -80 25 -9
13 -16 44 -16 68 0 43 -43 186 -73 242 -9 17 -45 56 -81 88 -36 32 -66 64 -66
71 0 19 -117 128 -171 159 -25 15 -68 30 -95 33 -52 7 -92 24 -117 48 -9 10
-17 48 -22 108 -11 140 -63 228 -136 228 -35 0 -37 2 -43 38 l-6 39 -397 6
c-487 8 -1757 7 -1797 -2z"/>
<path d="M2612 2617 c-23 -24 -29 -57 -12 -57 24 0 60 34 60 56 0 30 -20 31
-48 1z"/>
<path d="M920 2425 c-19 -19 -42 -35 -52 -35 -40 0 -2 -44 45 -52 31 -6 33 -1
12 26 -20 27 -19 33 8 42 29 8 58 34 51 45 -10 17 -30 9 -64 -26z"/>
<path d="M2540 2436 c0 -3 10 -26 22 -51 23 -46 35 -53 68 -35 23 12 16 40
-10 40 -10 0 -32 12 -49 26 -17 14 -31 23 -31 20z"/>
<path d="M2085 2388 c-16 -6 -39 -18 -50 -28 -30 -25 -56 -32 -73 -18 -21 18
-217 24 -237 8 -14 -11 -14 -15 1 -31 23 -25 10 -37 -15 -15 -14 13 -21 14
-27 5 -5 -9 -10 -7 -20 6 -11 14 -20 16 -51 9 -21 -4 -65 -7 -99 -5 -45 2 -63
-1 -73 -13 -8 -9 -20 -16 -27 -16 -8 0 -30 -10 -49 -22 -38 -25 -47 -58 -16
-58 10 0 22 -7 25 -16 9 -22 8 -26 -5 -19 -6 4 -39 9 -74 11 -46 2 -67 -1 -75
-11 -16 -19 -3 -40 15 -25 16 14 93 -7 145 -39 22 -13 52 -21 81 -21 29 0 51
-6 59 -15 9 -11 35 -15 106 -15 89 0 95 -1 127 -30 26 -23 44 -30 75 -30 23 0
45 -6 52 -15 9 -11 23 -13 51 -9 51 8 82 -1 121 -35 39 -33 87 -51 138 -51 23
0 48 -9 70 -25 19 -14 41 -25 51 -25 9 0 22 -7 29 -15 7 -8 23 -15 37 -15 17
0 42 -18 79 -57 59 -62 59 -61 42 -167 -5 -29 22 -40 69 -27 49 13 53 23 53
148 l0 92 50 62 c44 55 50 68 50 109 0 37 -5 51 -25 70 -28 26 -35 66 -10 56
18 -7 35 23 35 62 0 28 -14 46 -55 68 -11 6 -42 23 -68 37 -55 31 -74 33 -122
12 -43 -17 -53 -40 -30 -65 21 -23 15 -35 -13 -26 -39 13 -43 87 -6 106 62 34
47 67 -44 94 -53 15 -147 12 -158 -5 -9 -15 -54 -10 -60 6 -7 17 -35 18 -79 3z"/>
<path d="M2690 2305 c0 -14 67 -55 90 -55 22 0 8 26 -26 48 -41 26 -64 28 -64
7z"/>
<path d="M1110 2220 c0 -5 5 -12 10 -15 6 -3 10 -10 10 -16 0 -15 -19 -10 -39
10 -18 18 -31 18 -31 0 0 -12 66 -49 88 -49 13 0 22 9 26 26 4 15 6 27 4 29
-13 10 -68 22 -68 15z"/>
<path d="M2730 2040 c0 -10 9 -24 20 -30 23 -12 27 -1 10 31 -14 25 -30 24
-30 -1z"/>
<path d="M2797 2041 c-7 -29 27 -58 48 -41 8 7 15 23 15 36 0 20 -5 24 -29 24
-20 0 -30 -6 -34 -19z"/>
</g>
</svg>
