<?xml version="1.0" standalone="no"?>
<!DOCTYPE svg PUBLIC "-//W3C//DTD SVG 20010904//EN"
 "http://www.w3.org/TR/2001/REC-SVG-20010904/DTD/svg10.dtd">
<svg version="1.0" xmlns="http://www.w3.org/2000/svg"
 width="1024.000000pt" height="1024.000000pt" viewBox="0 0 1024.000000 1024.000000"
 preserveAspectRatio="xMidYMid meet">
<metadata>
Created by potrace 1.10, written by Peter Selinger 2001-2011
</metadata>
<g transform="translate(0.000000,1024.000000) scale(0.100000,-0.100000)"
fill="#000000" stroke="none">
<path d="M6220 8603 c-8 -3 -31 -15 -50 -28 -19 -13 -53 -26 -75 -30 -21 -4
-52 -13 -67 -21 -15 -8 -55 -14 -88 -14 -45 0 -69 -5 -89 -19 -15 -11 -44 -21
-66 -23 -35 -3 -43 -9 -88 -74 l-49 -71 26 -89 c34 -118 27 -150 -48 -221 -40
-39 -62 -53 -83 -53 -33 0 -82 -46 -128 -121 -26 -43 -33 -47 -76 -53 -49 -7
-70 -25 -123 -109 -9 -16 -33 -38 -52 -49 -19 -11 -34 -25 -34 -32 0 -6 -9
-29 -19 -50 -11 -21 -23 -52 -26 -68 -5 -21 -16 -34 -36 -41 -15 -6 -33 -24
-40 -39 -8 -19 -37 -43 -90 -74 -43 -26 -81 -55 -84 -65 -4 -10 -26 -27 -50
-38 -37 -16 -46 -26 -61 -68 l-17 -48 -151 0 -151 0 -70 -45 c-62 -40 -76 -45
-130 -46 -33 -1 -95 -11 -139 -22 -74 -20 -83 -20 -148 -7 -153 33 -297 8
-358 -61 -16 -19 -30 -41 -30 -49 0 -13 44 -51 121 -106 21 -14 21 -18 10 -66
-10 -42 -25 -64 -84 -125 -147 -152 -243 -262 -262 -302 l-20 -41 -235 -11
c-206 -10 -241 -14 -283 -33 -46 -21 -50 -22 -120 -7 l-72 15 -95 -53 c-52
-29 -129 -65 -170 -81 -43 -16 -109 -53 -155 -87 -43 -32 -86 -58 -95 -58 -8
0 -55 -13 -104 -29 l-90 -29 -87 74 c-76 64 -88 79 -94 114 -10 58 -37 54 -70
-9 -31 -63 -88 -96 -250 -146 -66 -20 -137 -47 -157 -61 -36 -23 -43 -24 -228
-24 l-190 0 -36 -57 c-20 -32 -56 -75 -79 -95 -33 -29 -43 -46 -48 -77 -2 -21
-30 -87 -62 -145 -51 -95 -61 -108 -99 -125 -53 -23 -86 -67 -86 -115 0 -40
-32 -132 -67 -192 -13 -23 -27 -62 -31 -85 -7 -44 -7 -44 -113 -99 -58 -30
-123 -69 -143 -87 l-38 -31 41 -55 c32 -42 50 -56 76 -61 70 -14 106 -150 74
-285 -8 -37 -7 -48 10 -74 l19 -30 -24 -38 c-37 -60 -29 -109 25 -144 30 -19
31 -23 31 -88 0 -49 -6 -79 -21 -108 -17 -34 -18 -46 -10 -71 6 -17 11 -76 11
-132 l1 -101 52 -41 c29 -23 77 -54 107 -69 30 -15 83 -52 116 -81 l61 -54 7
-88 c10 -127 43 -248 81 -302 203 -287 279 -387 343 -452 71 -73 79 -77 130
-84 48 -6 55 -10 70 -40 12 -25 24 -35 48 -40 26 -5 39 -16 59 -50 26 -44 26
-45 10 -94 -15 -44 -15 -51 -1 -79 11 -21 16 -59 16 -127 0 -75 4 -102 16
-115 8 -9 22 -43 30 -76 23 -90 23 -91 37 -72 7 9 24 19 38 22 22 6 39 36 128
238 103 231 103 232 99 298 -4 58 -1 73 24 123 24 49 28 70 28 136 l0 79 72
21 c55 16 86 32 125 67 50 43 53 45 116 45 51 0 80 7 132 30 37 17 79 30 93
30 14 0 51 7 82 16 51 14 68 14 179 1 97 -12 127 -20 145 -36 17 -16 35 -21
77 -21 30 0 87 -10 128 -22 67 -20 79 -21 150 -9 42 7 93 20 113 30 l37 18 51
-30 c35 -20 55 -26 62 -19 10 10 7 65 -11 162 -5 30 -10 118 -10 196 -1 77 -6
167 -12 199 -11 58 -10 59 17 79 15 12 52 35 82 51 49 27 56 36 79 95 14 36
41 84 60 107 52 64 93 150 93 193 l0 37 51 7 c28 4 76 18 107 32 92 41 204 82
250 93 23 5 54 16 68 26 36 23 160 5 187 -28 38 -48 58 -64 144 -117 48 -30
108 -71 133 -92 25 -20 61 -44 81 -52 44 -19 121 -105 147 -166 17 -39 28 -49
81 -74 55 -27 65 -29 94 -18 50 18 191 16 207 -3 7 -8 24 -15 38 -15 17 0 40
-14 64 -37 35 -34 41 -36 95 -34 45 2 71 -4 114 -23 36 -17 83 -28 132 -32 75
-7 77 -6 99 21 19 24 26 27 64 21 24 -3 119 -28 210 -56 188 -57 262 -69 320
-50 44 14 84 46 84 68 0 9 13 38 29 66 21 38 26 57 20 74 -12 33 -2 48 39 58
33 8 41 16 68 73 32 67 46 80 131 126 l52 27 29 -21 c17 -11 41 -21 54 -21 33
0 132 -35 175 -61 38 -23 92 -22 122 4 9 8 36 21 61 30 25 8 76 27 113 41 37
14 88 26 113 26 25 0 62 9 82 19 21 11 64 27 97 36 33 10 78 30 101 46 26 18
49 26 62 22 25 -6 90 40 103 74 6 17 16 23 39 23 44 0 156 -45 198 -80 41 -34
105 -41 145 -16 35 22 125 39 172 33 39 -6 46 -4 68 22 18 22 30 28 50 24 42
-8 54 10 60 93 4 49 11 82 22 93 8 10 13 25 10 33 -7 18 28 34 100 43 28 4 56
12 63 18 11 8 16 7 23 -6 6 -10 22 -17 39 -17 17 0 40 -10 56 -25 15 -14 35
-25 45 -25 10 0 20 -4 23 -9 9 -14 75 -21 102 -10 19 7 31 5 47 -6 25 -18 60
-19 89 -4 14 8 23 8 31 0 6 -6 25 -11 43 -11 17 0 43 -9 57 -20 14 -11 34 -20
45 -20 11 0 25 -6 31 -14 7 -8 20 -12 31 -9 11 3 31 -4 46 -16 22 -17 35 -20
88 -15 33 3 68 8 76 11 25 10 74 2 85 -12 6 -7 27 -16 46 -20 32 -6 36 -4 57
34 46 81 131 106 233 68 113 -43 168 -75 175 -102 9 -35 34 -32 34 4 0 41 -34
94 -79 124 -32 21 -40 34 -55 91 -10 36 -24 71 -32 77 -12 10 -12 15 1 35 21
33 20 91 -3 98 -14 5 -17 14 -14 40 2 21 -3 44 -13 60 -22 33 -135 96 -173 96
-16 0 -37 9 -46 19 -10 11 -30 21 -45 23 -18 2 -27 10 -29 26 -5 31 -74 66
-115 58 -27 -5 -36 0 -79 44 l-48 50 -34 -30 c-37 -33 -46 -36 -46 -18 0 22
45 78 73 89 22 9 27 17 25 38 -2 21 -19 35 -88 73 -47 26 -97 61 -113 78 l-27
30 37 68 37 68 -48 62 c-49 62 -54 65 -147 86 -20 4 -38 25 -70 78 -25 41 -56
78 -73 87 -16 9 -68 42 -115 74 -85 57 -86 57 -161 57 l-75 1 -30 39 c-18 23
-47 45 -72 55 -37 14 -43 21 -43 46 0 25 -6 33 -39 47 -21 9 -53 34 -72 56
l-33 38 42 37 c40 34 42 39 42 91 0 51 -3 59 -38 93 -28 28 -46 37 -71 37 -29
0 -51 17 -161 120 l-127 120 -70 0 c-39 0 -74 -5 -81 -12 -6 -6 -53 -12 -109
-14 -83 -3 -105 0 -144 17 l-46 21 -6 96 -7 96 36 37 c32 33 35 41 32 85 l-3
49 -165 18 c-151 16 -222 17 -260 3 -10 -4 -20 6 -30 27 -12 25 -22 33 -47 35
-47 5 -60 33 -38 83 23 51 10 69 -44 62 -34 -5 -39 -2 -44 18 -11 41 -8 46 58
89 59 38 65 45 65 76 0 22 6 37 15 40 13 5 15 41 15 240 l0 233 -106 163 c-59
89 -153 223 -209 298 -83 110 -111 140 -153 163 -57 31 -67 44 -138 169 l-49
88 -80 0 c-44 0 -105 7 -135 15 -56 15 -93 18 -120 8z"/>
</g>
</svg>
