<?xml version="1.0" standalone="no"?>
<!DOCTYPE svg PUBLIC "-//W3C//DTD SVG 20010904//EN"
 "http://www.w3.org/TR/2001/REC-SVG-20010904/DTD/svg10.dtd">
<svg version="1.0" xmlns="http://www.w3.org/2000/svg"
 width="1024.000000pt" height="1024.000000pt" viewBox="0 0 1024.000000 1024.000000"
 preserveAspectRatio="xMidYMid meet">
<metadata>
Created by potrace 1.10, written by Peter Selinger 2001-2011
</metadata>
<g transform="translate(0.000000,1024.000000) scale(0.100000,-0.100000)"
fill="#000000" stroke="none">
<path d="M5389 10215 c-25 -13 -51 -31 -58 -39 -18 -22 -41 -20 -41 3 0 23
-19 31 -72 31 -32 0 -55 -10 -118 -55 l-77 -54 -23 -118 c-22 -109 -26 -120
-63 -160 -37 -41 -39 -44 -23 -61 30 -34 18 -58 -95 -186 -92 -105 -109 -129
-99 -141 8 -10 10 -28 5 -52 -4 -21 -8 -64 -9 -95 -1 -54 -3 -60 -51 -108 -33
-34 -57 -50 -71 -48 -11 1 -32 -5 -47 -15 -14 -9 -31 -17 -37 -17 -6 0 -26
-11 -43 -24 -18 -14 -44 -28 -60 -31 -15 -4 -32 -15 -37 -24 -7 -14 -2 -21 22
-35 26 -16 29 -23 24 -48 -3 -16 -26 -53 -51 -82 -33 -39 -45 -62 -45 -85 0
-17 -6 -34 -14 -37 -8 -3 -11 -15 -8 -29 2 -13 0 -37 -6 -54 -7 -19 -7 -32 0
-39 7 -7 6 -17 -1 -30 -6 -11 -11 -30 -11 -41 0 -14 -24 -33 -90 -72 -82 -47
-90 -54 -90 -82 0 -19 -12 -45 -35 -73 -23 -27 -35 -53 -35 -72 0 -25 -12 -41
-64 -86 -35 -31 -70 -56 -79 -56 -8 0 -43 -23 -76 -51 -48 -40 -59 -54 -51
-64 7 -8 8 -28 5 -49 -5 -26 -14 -37 -34 -44 -35 -12 -67 1 -113 45 -24 23
-42 34 -53 29 -22 -8 -85 43 -85 70 0 30 -59 106 -79 100 -49 -14 -80 -16 -86
-7 -3 6 -19 11 -35 11 -49 0 -60 9 -60 50 0 37 -1 38 -70 69 -81 36 -88 37
-134 15 -26 -13 -40 -14 -63 -6 -28 9 -35 6 -94 -40 -65 -50 -68 -51 -131 -32
-15 4 -18 -1 -18 -31 0 -28 -5 -38 -20 -42 -11 -3 -20 -14 -20 -24 0 -10 -9
-23 -20 -29 -20 -11 -20 -21 -20 -1848 0 -1742 -1 -1849 -20 -2062 -11 -124
-45 -601 -75 -1060 -30 -459 -71 -1042 -90 -1295 -31 -408 -115 -1690 -115
-1755 0 -14 4 -31 8 -38 11 -16 39 -6 44 16 3 9 17 24 32 32 23 12 29 12 36 1
11 -19 40 -6 40 18 0 12 9 20 25 23 14 3 25 2 25 -2 0 -3 9 -16 20 -28 25 -26
81 -30 100 -7 9 11 16 13 24 5 19 -19 64 -11 84 15 22 28 63 33 82 10 16 -19
80 -19 106 0 12 9 43 14 87 15 l67 0 0 -35 c0 -33 2 -35 33 -35 18 0 38 5 45
12 8 8 21 9 49 1 146 -42 194 -49 243 -36 49 13 65 47 40 88 -27 43 -61 152
-67 212 -6 51 -6 52 45 100 50 48 61 56 132 87 19 9 58 33 85 54 43 33 50 43
53 77 4 54 69 123 121 127 31 3 36 7 44 38 5 19 15 42 23 51 8 8 14 28 14 42
0 21 5 27 22 27 29 0 169 72 164 85 -2 6 -7 17 -11 26 -4 11 0 18 14 22 13 3
21 13 21 26 0 11 9 25 21 32 l21 11 -22 23 c-15 16 -21 31 -17 46 3 12 -1 32
-10 45 -22 34 -10 74 21 74 18 0 25 6 28 23 3 19 10 22 61 25 49 3 57 6 57 22
0 16 7 20 33 20 17 0 45 9 61 19 23 15 34 17 49 10 26 -15 31 -6 32 54 1 29 4
58 9 65 15 25 52 12 101 -38 27 -28 57 -50 66 -50 9 0 19 -7 23 -15 8 -22 31
-18 50 8 16 22 16 22 10 -12 -8 -42 15 -39 29 5 14 42 26 54 57 54 15 0 42 3
59 6 l32 7 -7 58 c-6 52 -4 59 11 59 28 0 72 38 78 68 4 18 28 47 66 81 39 33
61 60 61 74 0 12 7 31 15 41 8 11 15 41 15 67 0 53 8 65 71 98 34 18 49 35 66
72 18 40 26 49 47 49 28 0 42 31 33 76 -3 20 4 32 36 59 22 19 44 35 49 35 4
0 17 18 28 40 12 24 27 40 38 40 25 0 57 36 82 92 l21 47 -20 78 c-20 77 -20
78 -1 98 15 16 20 36 20 81 l0 59 58 42 c103 75 110 86 115 183 2 47 11 103
19 125 15 37 15 41 -3 66 -10 15 -21 51 -25 81 -6 54 -6 56 24 74 22 13 32 27
34 48 2 22 9 32 23 34 11 1 28 16 37 32 13 23 27 31 58 36 l41 7 -21 21 c-11
12 -20 34 -20 48 0 15 -14 43 -33 66 -21 25 -40 64 -51 106 l-19 67 27 28 c18
19 26 38 26 62 0 47 30 73 100 89 92 21 107 33 115 89 6 42 2 57 -24 109 -22
43 -31 76 -31 109 0 31 -7 59 -20 78 -13 20 -20 47 -20 81 0 37 -5 56 -19 68
-11 10 -22 13 -25 8 -10 -17 -80 8 -100 35 -10 14 -21 46 -24 72 -3 28 -13 55
-27 71 -19 21 -23 40 -28 126 -3 66 -1 107 6 120 7 11 14 100 18 224 l6 205
52 166 c28 92 51 175 51 187 0 11 9 49 21 84 11 34 24 97 28 138 9 89 51 192
85 208 19 8 27 6 43 -9 17 -18 24 -19 72 -8 41 9 54 16 62 36 17 44 10 77 -22
102 -28 22 -31 22 -48 7 -26 -24 -95 0 -99 35 -2 19 -19 33 -75 62 -113 59
-137 84 -144 150 -3 30 -2 93 2 139 l7 85 38 22 c33 19 40 28 45 66 6 36 12
46 36 55 19 8 29 20 29 33 0 11 11 35 25 52 46 61 75 171 75 289 0 34 7 108
15 166 8 58 15 139 15 180 1 62 5 82 25 115 14 22 25 51 25 64 0 13 20 50 45
83 25 33 45 68 45 77 0 9 23 34 50 55 28 21 50 40 50 42 0 3 -6 15 -14 27 -9
15 -12 36 -7 64 5 34 14 48 52 77 46 35 47 36 54 108 4 40 11 81 16 90 5 10
14 41 19 70 6 28 19 61 29 72 14 15 21 43 25 101 4 44 9 101 12 126 5 41 3 47
-15 52 -18 4 -20 9 -12 30 5 14 7 34 4 46 -4 16 -1 21 14 21 31 0 43 38 25 79
-13 34 -12 122 5 218 4 27 2 32 -19 35 -27 4 -27 1 -7 163 13 98 12 115 -2
159 -16 47 -17 48 -29 27 -9 -17 -18 -21 -35 -17 -28 7 -85 -12 -85 -28 0 -7
-23 -18 -50 -25 -28 -7 -56 -21 -63 -31 -8 -11 -32 -21 -62 -25 -32 -5 -63
-18 -87 -37 -23 -18 -39 -25 -43 -18 -12 19 4 57 25 63 12 3 20 13 20 26 l0
21 -40 -20 c-50 -26 -60 -25 -60 3 0 33 -18 49 -42 36 -10 -5 -23 -7 -28 -4
-5 3 -27 -3 -49 -15 -22 -11 -55 -20 -73 -20 -39 0 -169 -68 -216 -113 -19
-18 -40 -44 -48 -59 -8 -16 -21 -28 -29 -28 -27 0 4 60 41 78 27 12 34 22 34
44 0 37 23 71 72 107 37 28 39 30 20 40 -17 9 -37 3 -107 -29 -48 -22 -99 -40
-114 -40 -40 0 -71 38 -71 86 0 46 17 61 160 144 85 49 140 100 140 130 0 8
18 25 40 38 37 21 39 24 28 50 -6 15 -28 44 -47 65 -36 38 -37 39 -97 34 -34
-2 -69 0 -78 5 -13 7 -23 5 -39 -9 -27 -24 -63 -19 -79 10 -23 45 -60 48 -129
12z"/>
<path d="M7514 8999 c-3 -6 -16 -8 -28 -5 -18 4 -28 -4 -56 -51 -23 -38 -33
-66 -32 -87 2 -23 -4 -38 -22 -55 -14 -14 -26 -33 -26 -43 0 -10 -7 -18 -15
-18 -10 0 -15 -10 -15 -29 0 -18 -8 -34 -22 -44 l-23 -15 34 -13 34 -12 -21
-18 c-12 -9 -30 -15 -41 -12 -13 3 -25 -5 -40 -26 -18 -25 -20 -33 -9 -50 10
-17 7 -28 -26 -78 -46 -71 -101 -187 -116 -244 -7 -23 -23 -51 -36 -61 -17
-14 -24 -29 -24 -52 0 -20 -8 -40 -20 -51 -18 -17 -19 -20 -5 -28 13 -7 14
-12 4 -23 -9 -11 -7 -14 11 -14 13 0 24 8 27 19 2 10 15 24 28 31 13 7 33 35
44 63 17 39 24 48 33 39 28 -28 -100 -206 -141 -195 -26 7 -47 -22 -31 -42 16
-20 7 -29 -33 -32 -73 -5 -107 -10 -113 -16 -11 -11 18 -38 34 -32 8 3 30 1
48 -5 42 -14 96 12 139 67 60 77 155 212 155 222 0 5 27 61 60 124 33 62 60
123 60 134 0 10 14 29 30 41 26 19 30 29 30 68 0 31 7 54 20 71 11 14 20 40
20 58 0 26 10 42 53 82 29 27 63 55 75 62 32 17 29 61 -7 95 -24 23 -28 32
-19 46 9 14 6 25 -11 54 l-23 36 25 0 c32 0 62 -42 48 -68 -7 -14 -5 -21 10
-30 10 -7 21 -12 23 -12 9 0 12 50 3 59 -5 5 -12 24 -16 42 -5 24 -15 36 -38
46 -22 9 -34 9 -39 2z"/>
<path d="M7680 6492 c0 -16 -9 -37 -20 -47 -11 -10 -20 -25 -20 -33 0 -9 -7
-23 -16 -33 -8 -9 -11 -20 -6 -23 13 -8 52 23 52 42 1 17 22 52 33 52 3 0 11
-17 17 -37 7 -21 19 -46 28 -55 14 -17 13 -18 -11 -18 -15 0 -41 -12 -59 -29
-28 -25 -30 -31 -19 -45 20 -23 7 -44 -33 -51 -19 -4 -44 -18 -57 -31 -16 -17
-33 -24 -61 -24 -45 0 -49 16 -13 50 28 26 32 40 12 40 -18 0 -97 -82 -97
-101 0 -9 -11 -26 -25 -39 -14 -13 -25 -33 -25 -44 0 -12 -23 -55 -50 -96 -39
-58 -50 -84 -50 -114 0 -36 1 -38 13 -22 19 26 57 13 57 -20 0 -20 -5 -24 -28
-24 -42 0 -60 -38 -37 -74 18 -27 18 -27 -16 -62 -30 -31 -33 -41 -36 -99 -1
-36 -10 -79 -19 -97 -34 -65 8 -221 70 -262 16 -10 26 -26 26 -39 0 -30 24
-62 38 -53 18 11 14 35 -9 68 -17 23 -19 32 -9 38 21 13 2 50 -26 50 -28 0
-52 44 -35 64 7 8 4 16 -10 24 -26 16 -26 62 0 62 11 0 27 -10 37 -22 16 -22
16 -21 10 31 -3 30 -11 58 -17 62 -9 5 -7 13 4 30 15 21 15 24 0 41 -15 17
-15 18 4 18 29 0 35 11 17 31 -15 16 -13 21 16 63 51 76 63 113 65 216 3 112
15 150 47 150 47 0 68 12 68 36 0 13 9 28 19 34 26 13 32 13 30 -2 -2 -7 1
-28 5 -45 7 -29 11 -33 42 -33 34 0 34 0 19 -24 -15 -23 -15 -24 14 -29 37 -8
56 -39 41 -67 -8 -15 -6 -21 10 -30 26 -14 26 -42 0 -58 -11 -6 -17 -18 -14
-26 3 -8 -1 -25 -9 -36 -13 -19 -13 -26 -1 -57 14 -31 13 -37 -1 -53 -11 -12
-13 -24 -7 -40 l8 -23 22 28 c25 32 58 28 47 -5 -5 -16 -2 -20 18 -20 57 0 60
115 5 202 -24 38 -28 53 -22 82 4 22 2 42 -5 50 -6 7 -9 21 -5 30 3 9 1 16 -5
16 -6 0 -11 17 -11 37 0 23 -7 45 -20 58 l-20 22 25 13 c19 10 25 21 25 48 0
37 57 142 77 142 6 0 19 10 27 22 8 11 36 33 62 49 41 23 44 28 26 33 -11 4
-29 2 -39 -5 -15 -9 -26 -8 -51 5 -36 19 -37 23 -17 50 22 29 18 37 -10 26
-21 -8 -27 -6 -32 8 -6 18 -42 51 -55 52 -5 0 -8 -13 -8 -28z"/>
<path d="M7560 5542 c0 -13 -9 -22 -25 -26 -29 -7 -36 -46 -8 -46 13 0 14 -3
5 -12 -19 -19 -14 -56 9 -69 l21 -11 -23 -24 c-12 -13 -28 -24 -36 -24 -7 0
-13 -9 -13 -19 0 -33 -11 -51 -32 -51 -16 0 -19 5 -15 21 4 16 1 20 -16 17
-17 -2 -23 -11 -25 -36 -3 -29 0 -34 29 -44 31 -11 31 -11 26 -64 -5 -48 -3
-54 13 -54 27 0 61 59 48 83 -7 14 -6 22 7 31 15 11 15 15 4 34 -17 28 2 66
42 82 32 14 79 70 79 96 0 17 -13 16 -77 -2 -13 -4 -23 -2 -23 4 0 6 13 13 29
17 30 6 51 39 51 80 0 14 -6 25 -12 25 -7 0 -23 3 -35 6 -18 5 -23 2 -23 -14z"/>
<path d="M7668 5504 c-10 -9 4 -44 17 -44 27 0 45 13 45 31 0 14 -7 19 -28 19
-16 0 -31 -3 -34 -6z"/>
<path d="M7298 5082 c-14 -3 -18 -14 -18 -48 0 -49 14 -56 65 -32 31 14 36 58
5 58 -10 0 -23 6 -27 13 -4 7 -16 11 -25 9z"/>
</g>
</svg>
