<?xml version="1.0" standalone="no"?>
<!DOCTYPE svg PUBLIC "-//W3C//DTD SVG 20010904//EN"
 "http://www.w3.org/TR/2001/REC-SVG-20010904/DTD/svg10.dtd">
<svg version="1.0" xmlns="http://www.w3.org/2000/svg"
 width="1024.000000pt" height="1024.000000pt" viewBox="0 0 1024.000000 1024.000000"
 preserveAspectRatio="xMidYMid meet">
<metadata>
Created by potrace 1.10, written by Peter Selinger 2001-2011
</metadata>
<g transform="translate(0.000000,1024.000000) scale(0.100000,-0.100000)"
fill="#000000" stroke="none">
<path d="M3920 8093 c-31 -11 -60 -47 -60 -74 0 -16 -8 -32 -22 -41 -22 -15
-22 -16 -5 -41 19 -30 32 -32 88 -15 27 8 39 17 39 30 0 24 23 23 113 -5 63
-20 78 -22 108 -12 19 7 55 16 79 20 25 4 58 18 73 31 16 13 42 24 58 24 26 0
29 3 29 33 l0 33 -82 -4 c-50 -2 -119 2 -173 12 -87 15 -214 20 -245 9z"/>
<path d="M4683 7908 c-6 -7 -16 -23 -22 -35 -9 -19 -8 -24 9 -33 15 -8 27 -7
49 5 38 19 44 30 31 55 -12 22 -52 27 -67 8z"/>
<path d="M6253 7798 c-51 -26 -61 -47 -34 -68 11 -8 23 -27 26 -42 10 -41 74
-78 134 -78 67 0 98 15 105 52 14 73 12 76 -78 119 -46 21 -90 39 -97 38 -8 0
-33 -10 -56 -21z"/>
<path d="M6706 7633 c-31 -26 -56 -50 -56 -53 0 -3 20 -13 45 -23 34 -15 58
-17 102 -13 l58 7 100 -79 c55 -44 118 -85 139 -92 22 -7 68 -32 102 -56 35
-23 71 -45 81 -48 10 -3 41 -33 68 -67 28 -34 71 -78 97 -98 44 -36 52 -38
139 -44 51 -4 93 -8 94 -10 1 -1 63 -79 138 -174 206 -260 202 -253 221 -413
14 -114 22 -142 48 -190 17 -30 45 -67 63 -82 l32 -27 34 25 c40 29 67 84 68
136 1 20 12 58 25 85 13 26 27 63 30 80 5 30 2 34 -39 59 -25 14 -66 52 -91
84 -49 62 -122 128 -191 172 -54 35 -210 184 -218 208 -3 10 -26 26 -49 35
-32 12 -54 31 -82 70 -45 62 -90 92 -195 129 -41 15 -98 43 -126 64 -191 141
-236 169 -284 177 -53 8 -206 103 -238 147 -14 21 -33 38 -42 38 -9 0 -42 -21
-73 -47z"/>
<path d="M108 6387 c3 -1252 3 -1253 -18 -1272 -11 -10 -20 -31 -20 -48 0 -17
-16 -59 -36 -94 -35 -63 -35 -65 -23 -114 10 -37 24 -60 56 -90 l43 -39 1
-383 c1 -210 5 -566 8 -792 l6 -410 52 -9 c48 -8 54 -7 82 17 52 43 82 44 159
2 67 -37 67 -37 128 -26 34 6 87 11 118 11 32 0 94 9 139 21 112 29 186 17
313 -52 l92 -49 141 80 c115 66 154 83 217 95 42 8 90 23 108 33 31 18 31 18
34 112 l3 94 -58 58 c-95 97 -175 149 -241 157 -34 4 -76 18 -103 34 -37 22
-58 27 -113 27 -37 0 -65 4 -62 9 9 15 124 34 166 27 22 -3 61 -16 86 -28 l45
-23 77 27 c48 17 109 29 162 33 100 7 198 24 206 36 11 18 -41 90 -80 112 -22
12 -49 37 -60 56 l-19 33 24 -7 c13 -4 38 -18 55 -31 25 -20 43 -24 95 -24 36
0 70 -5 75 -10 6 -6 25 -7 43 -4 25 5 31 11 28 25 -4 15 0 17 28 12 27 -4 34
-2 40 16 5 16 -16 53 -89 160 -53 77 -99 147 -102 156 -14 35 37 -9 71 -61 30
-47 40 -54 132 -93 120 -52 151 -52 168 -1 15 45 34 48 70 10 22 -23 37 -30
67 -30 l39 0 -26 43 c-34 59 -32 78 4 43 l29 -27 7 37 7 38 20 -32 c23 -36 34
-39 60 -15 17 15 19 15 36 0 10 -9 32 -19 48 -23 24 -5 32 -2 40 15 6 14 13
18 23 12 11 -7 11 -15 1 -46 -10 -30 -10 -40 1 -50 13 -13 195 -55 237 -55 11
0 43 -16 72 -35 48 -33 57 -35 131 -35 64 0 93 -6 154 -30 42 -17 97 -35 123
-40 26 -6 57 -12 68 -15 12 -3 27 -19 35 -37 7 -18 34 -55 59 -83 26 -28 56
-77 69 -110 17 -42 44 -81 90 -130 153 -162 147 -153 132 -177 -12 -19 -8 -26
54 -88 46 -46 80 -72 115 -84 46 -17 49 -19 43 -46 -8 -43 3 -75 31 -88 14 -6
35 -31 47 -54 28 -55 27 -55 42 -35 11 16 21 11 104 -48 105 -74 177 -159 188
-221 10 -52 11 -54 80 -113 49 -42 67 -51 98 -51 26 0 52 -10 82 -30 37 -26
53 -30 108 -30 56 0 67 3 79 22 15 22 15 22 55 4 22 -9 48 -31 57 -47 15 -25
23 -29 44 -25 15 3 57 10 94 16 37 6 78 14 91 19 20 8 35 1 93 -39 38 -27 74
-49 81 -50 6 0 39 12 72 26 l60 26 51 -31 c39 -24 62 -31 101 -31 28 0 60 -7
73 -15 15 -10 60 -18 127 -22 80 -4 115 -11 150 -29 25 -12 63 -25 85 -29 59
-10 64 -13 57 -31 -5 -12 -14 -15 -43 -10 -25 4 -41 1 -48 -7 -8 -10 11 -25
82 -65 88 -49 96 -52 165 -52 58 0 87 6 145 30 142 59 141 78 -4 141 -56 23
-100 48 -100 56 0 18 55 21 146 7 34 -5 53 -1 100 22 56 26 57 28 29 31 -89 9
-115 15 -115 26 0 9 -13 11 -40 9 -77 -8 -129 7 -174 48 -39 36 -45 38 -132
45 l-91 7 -73 73 c-58 59 -71 77 -65 94 5 18 14 21 65 21 48 0 64 4 89 26 17
14 31 29 31 34 0 4 -24 21 -52 38 -50 27 -62 29 -196 35 l-143 6 -76 48 c-42
26 -80 50 -84 53 -5 3 -11 23 -14 45 -6 38 -2 44 54 113 l61 74 -17 29 c-12
20 -28 31 -53 35 -19 3 -53 10 -75 15 -36 7 -43 5 -70 -21 -26 -25 -39 -30
-78 -30 -33 0 -49 -5 -53 -15 -9 -23 -75 -18 -146 10 l-63 25 -28 120 -28 119
-50 38 c-65 49 -109 117 -109 169 -1 21 -13 77 -28 124 l-28 85 -62 15 c-50
12 -64 20 -68 37 -6 23 -18 27 -110 38 l-52 7 -31 68 c-39 84 -62 105 -228
206 l-130 79 -7 89 c-6 81 -10 94 -41 136 -18 25 -46 52 -60 60 -25 14 -26 17
-20 70 10 96 15 110 39 116 13 3 105 1 206 -5 175 -10 185 -9 216 9 17 11 47
20 66 20 20 0 51 7 71 15 l35 14 -13 58 c-8 32 -19 84 -25 115 -9 47 -17 61
-43 77 -18 11 -48 45 -67 76 -25 39 -54 68 -97 96 -93 61 -130 71 -208 59 -71
-11 -87 -6 -192 60 -31 20 -60 30 -85 30 -30 0 -63 16 -152 70 -93 57 -121 70
-155 70 -28 0 -65 12 -114 37 -57 29 -98 42 -197 58 l-125 21 -3 38 c-3 32 2
44 28 71 l32 33 -11 132 -10 132 -84 87 c-46 47 -108 112 -138 143 -53 57 -56
58 -127 68 -67 9 -80 15 -142 64 -38 29 -94 81 -125 115 -39 42 -65 61 -81 61
-57 0 -98 28 -134 92 -44 77 -61 83 -219 70 l-115 -9 -82 72 c-47 42 -94 76
-112 80 -17 3 -39 17 -49 31 -27 37 -313 134 -394 134 -49 0 -116 18 -357 96
-273 89 -300 100 -337 135 -36 34 -47 39 -89 39 -37 0 -57 6 -81 25 -18 13
-77 41 -131 61 -55 21 -139 58 -189 84 -74 39 -103 49 -160 54 l-70 6 3 -1253z"/>
<path d="M6750 7432 c-34 -16 -41 -40 -10 -34 18 4 76 4 105 0 30 -5 30 27 0
40 -35 16 -54 15 -95 -6z"/>
<path d="M7640 6575 c-14 -8 -37 -14 -51 -15 -21 0 -28 -6 -32 -30 -6 -27 -10
-30 -45 -30 -30 0 -45 7 -72 35 l-34 35 -90 -1 c-135 -1 -135 0 -76 -89 28
-41 50 -85 50 -98 0 -12 7 -33 15 -46 13 -20 42 -243 33 -252 -2 -1 -53 -8
-113 -14 -61 -6 -133 -21 -161 -31 -45 -18 -58 -30 -108 -102 -43 -63 -56 -91
-56 -119 0 -58 -24 -77 -107 -84 -70 -7 -73 -8 -99 -45 l-26 -38 -79 39 c-43
22 -84 40 -91 40 -7 0 -31 -14 -52 -30 -63 -48 -87 -42 -147 38 -46 62 -50 70
-46 114 2 29 14 63 31 88 31 48 31 46 4 53 -40 11 -96 -34 -138 -109 l-38 -68
28 -45 28 -45 -56 -42 c-53 -40 -58 -42 -87 -30 -64 27 -97 27 -144 1 -37 -22
-56 -25 -133 -25 -86 0 -92 1 -158 40 -38 22 -73 40 -79 40 -6 0 -36 -11 -67
-25 -41 -18 -61 -22 -74 -15 -24 13 -101 13 -136 0 -24 -9 -32 -7 -66 21 -62
49 -102 28 -119 -66 -6 -34 -3 -45 23 -83 35 -51 77 -72 193 -97 66 -15 88
-25 130 -60 28 -23 69 -52 93 -64 24 -12 51 -35 60 -52 9 -16 20 -29 23 -29 3
0 20 11 39 25 28 21 45 25 99 25 82 0 113 -17 171 -96 l43 -59 146 1 c80 1
168 6 194 13 27 6 53 9 59 5 5 -3 32 -12 59 -19 47 -13 53 -12 107 13 31 14
78 38 103 54 31 19 60 28 88 28 36 0 44 4 59 31 31 56 36 59 114 73 67 11 90
21 172 75 52 35 118 87 147 118 48 50 50 55 35 72 -9 10 -16 27 -16 39 0 20 3
21 103 16 73 -4 105 -9 113 -20 22 -28 67 -15 162 46 l92 59 0 44 c0 42 -3 45
-59 86 -65 47 -78 77 -59 132 l11 32 87 -6 87 -7 56 71 c65 82 78 131 54 202
-10 31 -12 57 -6 93 13 80 11 93 -15 105 -17 8 -29 8 -44 0 -21 -11 -32 1 -32
39 0 13 -59 62 -73 60 -1 -1 -13 -7 -27 -15z"/>
<path d="M3421 6295 c-20 -30 -23 -41 -15 -63 10 -28 24 -30 82 -17 21 5 23
10 20 58 -3 50 -4 52 -33 55 -25 2 -34 -4 -54 -33z"/>
<path d="M9303 5978 c-12 -13 -26 -39 -31 -58 -8 -31 -4 -45 29 -112 l39 -77
30 10 c27 10 30 15 30 54 0 65 -20 145 -43 177 -25 34 -28 34 -54 6z"/>
<path d="M4188 5883 c-33 -21 -44 -78 -19 -107 25 -30 92 -56 113 -45 31 17
24 83 -14 130 -35 44 -42 45 -80 22z"/>
<path d="M4691 5697 c-20 -10 -22 -16 -18 -51 5 -32 18 -52 78 -112 l73 -74
28 27 c23 22 28 35 28 75 0 44 -3 49 -37 71 -107 67 -127 75 -152 64z"/>
<path d="M9440 5680 c0 -12 -7 -34 -15 -50 -17 -33 -23 -142 -11 -208 7 -36
15 -47 49 -69 23 -14 71 -53 107 -85 36 -33 83 -69 105 -80 28 -14 45 -31 57
-59 17 -40 17 -40 -8 -51 -19 -9 -24 -19 -24 -46 0 -29 10 -43 76 -105 42 -40
102 -85 133 -101 54 -28 59 -29 170 -23 130 6 149 16 158 83 9 66 -12 113 -92
209 -58 69 -96 102 -165 147 -61 39 -100 73 -125 107 -24 34 -45 52 -66 56
-33 7 -52 38 -63 99 -8 44 -56 120 -81 130 -9 3 -32 6 -51 6 -19 0 -61 14 -94
30 -58 29 -60 29 -60 10z"/>
<path d="M6920 3689 c-14 -5 -33 -22 -42 -37 -17 -28 -16 -29 13 -46 23 -14
29 -24 29 -51 0 -20 -6 -38 -15 -43 -13 -7 -12 -12 10 -32 15 -15 29 -20 34
-14 5 5 13 60 16 122 8 121 8 121 -45 101z"/>
<path d="M7930 3296 c0 -2 20 -14 45 -26 30 -14 53 -35 68 -60 17 -30 31 -41
65 -51 39 -11 48 -10 88 9 24 12 44 26 44 31 0 20 -83 79 -125 90 -41 10 -185
16 -185 7z"/>
<path d="M6355 3168 c-68 -36 -92 -92 -61 -147 14 -25 91 -81 111 -81 8 0 15
23 19 59 5 46 2 70 -14 115 -25 64 -28 68 -55 54z"/>
<path d="M6490 3021 c0 -26 8 -41 35 -65 l34 -31 -31 -32 c-49 -50 -32 -57
100 -42 107 12 110 12 138 -10 25 -20 29 -20 37 -5 6 10 5 25 -1 39 -6 13 -8
33 -5 45 9 35 -41 80 -90 80 -24 0 -51 8 -70 22 -20 15 -53 25 -89 28 l-58 6
0 -35z"/>
<path d="M6734 2749 c3 -17 6 -36 6 -41 0 -5 13 -14 29 -19 18 -6 32 -20 35
-35 4 -14 16 -49 27 -79 18 -49 23 -55 49 -55 16 0 53 -9 81 -20 28 -12 53
-19 54 -18 11 11 55 136 55 154 0 51 -64 43 -75 -8 -14 -61 -52 -65 -83 -9
-12 21 -44 56 -71 76 -27 21 -55 48 -62 61 -7 13 -21 24 -32 24 -17 0 -19 -5
-13 -31z"/>
</g>
</svg>
