<?xml version="1.0" standalone="no"?>
<!DOCTYPE svg PUBLIC "-//W3C//DTD SVG 20010904//EN"
 "http://www.w3.org/TR/2001/REC-SVG-20010904/DTD/svg10.dtd">
<svg version="1.0" xmlns="http://www.w3.org/2000/svg"
 width="1024.000000pt" height="1024.000000pt" viewBox="0 0 1024.000000 1024.000000"
 preserveAspectRatio="xMidYMid meet">
<metadata>
Created by potrace 1.10, written by Peter Selinger 2001-2011
</metadata>
<g transform="translate(0.000000,1024.000000) scale(0.100000,-0.100000)"
fill="#000000" stroke="none">
<path d="M9622 10170 c-208 -84 -271 -105 -342 -115 -30 -4 -67 -16 -82 -26
-56 -40 -178 -90 -317 -129 -249 -71 -410 -141 -597 -259 -32 -20 -72 -35
-105 -40 -108 -15 -198 -80 -434 -311 -268 -262 -408 -376 -550 -446 l-74 -37
-73 11 c-72 11 -111 7 -173 -17 -39 -16 -89 -7 -215 41 -124 47 -128 47 -290
-24 -75 -32 -130 -50 -157 -50 -24 -1 -44 -7 -47 -14 -7 -18 -90 -73 -137 -89
-22 -8 -79 -19 -127 -25 -115 -14 -140 -23 -253 -86 -115 -65 -137 -67 -258
-20 -150 58 -246 115 -271 161 -19 36 -102 41 -157 9 -56 -33 -73 -31 -125 16
l-45 39 -28 -29 c-24 -25 -176 -106 -233 -124 -22 -7 -37 4 -80 58 -20 27 -25
28 -49 17 -24 -11 -29 -9 -56 17 l-29 30 53 17 c57 19 99 49 99 73 0 11 10 12
48 7 29 -4 76 0 126 10 44 9 88 14 99 11 12 -3 25 2 33 11 8 13 30 17 80 19
89 2 144 24 144 57 0 42 -73 51 -140 17 -36 -18 -90 -27 -90 -15 0 3 9 19 21
34 19 26 20 31 6 57 -8 16 -25 38 -36 48 -20 18 -23 18 -37 4 -13 -12 -14 -20
-5 -36 17 -31 14 -47 -16 -83 -35 -41 -96 -69 -154 -69 -80 0 -154 46 -267
165 l-98 104 -73 11 c-83 12 -86 13 -204 92 -97 65 -144 88 -180 88 -19 0 -28
9 -40 42 -16 39 -18 40 -35 25 -11 -10 -54 -21 -110 -28 -104 -14 -116 -10
-105 43 7 34 3 35 -53 2 -65 -38 -68 -30 -21 77 l16 36 -52 -14 c-38 -10 -449
-29 -1477 -68 -784 -30 -1426 -55 -1427 -55 -7 0 -2 -7410 5 -7410 4 0 33 23
65 50 32 28 63 50 67 50 5 0 22 -17 37 -37 50 -67 106 -113 180 -150 l72 -36
63 38 c64 38 82 42 131 30 23 -6 38 0 82 30 88 60 129 34 122 -77 -3 -57 -3
-57 32 -72 20 -8 61 -22 91 -31 69 -19 127 -52 153 -87 11 -14 28 -66 38 -114
16 -72 25 -95 53 -124 62 -66 66 -76 66 -181 0 -89 2 -100 25 -127 37 -44 171
-96 317 -122 48 -9 70 -7 137 10 101 26 120 25 181 -4 27 -13 73 -27 100 -31
60 -8 82 -33 90 -104 l5 -46 46 -5 c70 -8 95 -30 102 -86 3 -27 12 -53 21 -60
23 -16 244 -90 250 -83 3 3 10 30 16 60 7 36 18 61 34 75 29 26 131 61 201 70
52 6 60 3 153 -66 19 -14 61 -26 127 -36 124 -18 152 -34 190 -107 28 -53 48
-76 68 -77 4 0 30 21 57 46 l49 46 55 -16 c67 -20 107 -20 151 -2 27 12 36 23
45 57 13 46 61 99 90 99 35 0 51 13 76 61 33 67 61 83 125 75 44 -6 59 -2 128
29 43 19 87 35 98 35 38 0 54 -32 52 -101 -1 -36 5 -98 14 -139 9 -41 21 -101
26 -132 18 -102 52 -130 182 -148 96 -14 138 -42 195 -131 32 -48 62 -81 98
-105 56 -37 79 -75 92 -147 7 -44 44 -77 86 -77 15 0 68 15 116 34 138 54 197
69 250 61 60 -8 123 13 139 47 7 13 21 79 32 146 26 155 36 193 63 227 22 29
30 29 135 9 76 -15 107 85 61 195 -19 47 -20 56 -8 105 17 71 7 116 -36 167
-50 60 -46 101 16 146 109 81 102 72 109 153 6 69 28 131 50 144 5 4 19 36 31
72 19 57 29 70 72 101 36 26 57 52 75 90 39 82 83 92 118 28 10 -20 28 -37 39
-40 12 -2 33 -6 47 -9 27 -6 86 -75 130 -153 l24 -42 -26 -28 c-78 -83 -71
-132 19 -133 35 0 59 33 82 112 12 40 27 79 32 86 18 21 53 13 95 -23 37 -32
83 -47 83 -27 0 4 -14 27 -30 52 -35 53 -36 63 -10 124 24 52 22 56 -42 143
-56 77 -65 100 -45 120 14 15 19 15 48 0 71 -34 100 30 80 178 l-13 94 26 45
c29 49 51 66 88 66 22 0 23 4 23 65 0 84 15 100 93 100 31 0 87 -4 125 -8 l67
-9 0 87 c0 109 14 139 80 169 27 13 76 48 110 79 49 46 68 57 94 57 41 0 51
-11 96 -103 32 -66 37 -72 65 -71 17 1 71 25 120 53 67 38 99 51 130 51 69 0
80 8 110 71 31 64 50 81 113 100 36 10 48 22 87 84 25 40 79 112 122 161 154
177 247 254 308 254 49 0 76 36 84 112 8 74 12 83 54 104 18 9 35 22 39 27 8
13 -12 53 -58 117 -50 70 -45 96 21 117 44 14 58 50 44 108 -13 51 -3 70 53
103 33 19 34 30 8 82 -39 77 -19 105 56 77 49 -18 51 -15 29 38 -19 43 -13 67
19 89 30 19 39 54 27 107 -7 30 -6 54 5 88 8 28 11 65 8 97 -6 46 -4 52 20 67
24 16 26 22 26 98 0 88 13 126 54 152 28 19 46 71 46 136 0 40 5 49 45 86 61
58 107 162 93 214 -6 20 -8 57 -5 83 6 45 5 48 -29 69 l-35 21 24 27 c23 25
47 121 49 197 0 16 -29 95 -66 175 -36 81 -66 154 -66 163 0 46 72 128 112
128 12 0 43 -3 68 -7 36 -5 54 -2 90 17 l45 23 3 1948 c2 1554 0 1947 -10
1947 -7 0 -91 -31 -186 -70z"/>
</g>
</svg>
