<?xml version="1.0" standalone="no"?>
<!DOCTYPE svg PUBLIC "-//W3C//DTD SVG 20010904//EN"
 "http://www.w3.org/TR/2001/REC-SVG-20010904/DTD/svg10.dtd">
<svg version="1.0" xmlns="http://www.w3.org/2000/svg"
 width="1024.000000pt" height="1024.000000pt" viewBox="0 0 1024.000000 1024.000000"
 preserveAspectRatio="xMidYMid meet">
<metadata>
Created by potrace 1.10, written by Peter Selinger 2001-2011
</metadata>
<g transform="translate(0.000000,1024.000000) scale(0.100000,-0.100000)"
fill="#000000" stroke="none">
<path d="M8603 10228 c-13 -6 -23 -19 -23 -29 0 -12 -13 -24 -35 -33 l-35 -15
21 -35 c19 -32 19 -37 5 -42 -11 -4 -16 -19 -16 -43 0 -20 -10 -56 -21 -81
-11 -25 -29 -76 -39 -115 -11 -38 -26 -91 -34 -117 -14 -44 -14 -48 5 -73 23
-28 19 -82 -7 -92 -16 -6 -18 -41 -4 -78 7 -19 6 -32 -4 -48 -9 -13 -17 -68
-21 -139 -6 -95 -11 -123 -27 -143 -25 -32 -77 -34 -103 -5 -10 11 -29 20 -42
20 -19 0 -23 -5 -23 -29 0 -16 -7 -34 -15 -41 -8 -7 -15 -24 -15 -39 0 -51
-19 -54 -66 -11 -24 22 -50 40 -57 40 -8 0 -22 9 -32 20 -10 11 -28 20 -40 20
-11 0 -26 5 -32 11 -8 8 -16 7 -31 -2 -18 -11 -24 -10 -39 4 -18 15 -20 14
-46 -18 -15 -19 -27 -45 -27 -59 0 -20 -8 -27 -42 -38 -51 -17 -78 -58 -57
-85 11 -13 10 -18 -9 -33 -12 -10 -22 -29 -22 -44 0 -13 -5 -28 -10 -31 -17
-11 -42 -67 -33 -74 5 -3 19 -20 31 -37 25 -36 15 -54 -30 -54 -24 0 -28 -4
-28 -30 0 -23 -4 -30 -20 -30 -12 0 -25 -10 -32 -25 -12 -27 -27 -32 -46 -13
-19 19 -66 -22 -70 -60 -3 -30 -5 -32 -46 -32 -24 0 -48 -6 -53 -12 -6 -7 -13
-40 -16 -72 -3 -33 -12 -63 -19 -67 -22 -15 -77 -10 -116 10 -20 10 -59 21
-86 25 -43 5 -52 3 -85 -23 -51 -40 -74 -45 -96 -21 -26 28 -62 25 -94 -9 -20
-22 -39 -30 -83 -35 -61 -8 -97 4 -132 43 -18 19 -30 21 -154 21 -128 0 -135
-1 -164 -25 -20 -17 -42 -25 -67 -25 -27 0 -44 -7 -61 -25 -22 -23 -25 -24
-46 -10 -13 8 -28 15 -34 15 -16 0 -12 -52 11 -116 18 -51 20 -73 15 -171 l-6
-111 30 -11 c25 -8 30 -15 30 -42 0 -27 17 -48 125 -154 119 -117 125 -125
125 -163 0 -47 -35 -148 -62 -178 -10 -12 -21 -39 -25 -60 -8 -57 -38 -101
-78 -114 -19 -6 -35 -16 -35 -21 0 -6 -11 -21 -25 -34 -30 -31 -65 -33 -65 -5
0 16 -7 20 -30 20 -16 0 -30 5 -30 10 0 6 -13 10 -29 10 -16 0 -34 7 -41 16
-20 24 -48 35 -104 44 -28 4 -59 11 -68 15 -15 6 -18 2 -18 -29 l0 -37 -47 5
c-123 13 -224 16 -241 7 -12 -7 -33 -5 -68 6 -89 27 -104 35 -117 62 -12 24
-17 26 -67 23 -30 -2 -59 -8 -65 -13 -16 -15 -50 -10 -68 11 -20 23 -35 25
-60 5 -16 -12 -23 -11 -50 6 -18 10 -47 19 -66 19 -28 0 -32 2 -21 15 10 12 7
15 -17 21 -15 4 -40 16 -55 27 -16 12 -45 21 -70 22 -54 2 -99 23 -76 36 9 5
19 20 22 34 4 16 13 25 26 25 11 0 20 7 20 15 0 8 -8 15 -18 15 -19 0 -82 59
-82 76 0 6 -16 25 -35 44 -40 39 -43 50 -15 50 11 0 20 4 20 8 0 32 -126 146
-176 158 -19 5 -22 9 -14 24 13 25 13 27 -6 34 -22 8 -114 -51 -114 -73 0 -28
-20 -91 -29 -91 -5 0 -12 11 -15 25 -9 36 -24 22 -32 -30 -7 -52 -29 -60 -39
-15 -7 31 -55 71 -102 85 -35 10 -30 -29 7 -57 l30 -22 -37 -39 c-43 -45 -81
-63 -97 -47 -18 18 -35 11 -42 -17 -10 -43 -32 -73 -54 -73 -25 0 -25 -3 0
-75 20 -58 20 -59 1 -79 -11 -12 -26 -48 -35 -80 -8 -33 -25 -73 -37 -90 l-22
-29 21 -65 c16 -49 19 -69 10 -79 -14 -17 -36 -17 -54 2 -9 8 -19 15 -24 15
-13 0 -104 -110 -133 -161 -15 -25 -27 -55 -27 -66 0 -14 -10 -24 -30 -32 -16
-5 -30 -16 -30 -23 0 -8 -9 -31 -20 -53 -11 -22 -20 -45 -20 -51 0 -7 -15 -17
-34 -24 -18 -6 -43 -22 -56 -35 -18 -19 -27 -22 -41 -14 -17 9 -19 6 -19 -25
0 -34 -2 -35 -45 -42 -53 -8 -59 -13 -45 -49 9 -24 7 -31 -15 -51 -14 -13 -25
-30 -25 -38 0 -8 -10 -21 -22 -27 -32 -16 -31 -15 -18 -39 9 -18 6 -27 -20
-60 -21 -26 -40 -40 -55 -40 -14 0 -33 -13 -49 -32 -15 -18 -31 -39 -37 -45
-14 -18 -46 -16 -53 2 -8 23 -61 18 -102 -10 -42 -29 -62 -31 -70 -10 -10 24
-52 18 -70 -10 -9 -14 -22 -25 -29 -25 -23 0 -125 -90 -125 -111 0 -10 11 -29
25 -41 13 -11 22 -25 19 -30 -9 -15 -108 -9 -132 8 -29 20 -47 7 -69 -48 -16
-39 -30 -46 -64 -28 -16 9 -19 7 -19 -10 0 -15 -8 -22 -29 -26 -25 -5 -30 -12
-33 -38 -2 -26 -8 -32 -31 -34 -26 -3 -27 -6 -21 -38 6 -34 -3 -43 -23 -23 -7
7 -35 11 -64 10 -36 0 -58 4 -71 16 -15 13 -23 14 -44 4 -21 -9 -25 -16 -20
-36 6 -24 5 -25 -45 -25 -40 0 -58 -6 -83 -25 -92 -76 -137 -104 -176 -112
-38 -7 -45 -13 -56 -45 -11 -34 -11 -38 12 -59 36 -34 32 -50 -11 -38 -27 8
-40 6 -59 -6 -30 -20 -70 -11 -83 17 -8 19 -14 15 -62 -46 -35 -44 -52 -73
-48 -85 4 -17 0 -18 -34 -14 -31 5 -47 0 -78 -20 -35 -23 -40 -32 -43 -69 l-3
-43 -94 -46 c-104 -52 -144 -85 -271 -232 -47 -54 -102 -110 -123 -124 -55
-38 -87 -80 -87 -114 0 -16 5 -29 10 -29 23 0 7 -37 -36 -80 -25 -25 -70 -73
-101 -108 -54 -59 -57 -65 -54 -110 1 -26 -5 -66 -13 -90 -17 -48 -12 -72 14
-72 20 0 30 19 30 55 0 12 6 25 13 28 15 5 37 99 37 152 0 34 22 61 39 50 18
-11 68 23 82 56 l13 33 8 -29 c9 -35 -5 -63 -37 -71 -19 -5 -25 -13 -25 -35 0
-16 8 -37 19 -48 10 -10 21 -30 25 -46 5 -20 12 -26 26 -22 15 4 23 -4 36 -39
19 -49 21 -50 44 -29 15 13 22 12 68 -10 29 -14 66 -25 82 -25 l31 0 -17 -31
c-17 -34 -9 -49 29 -49 12 0 17 -8 17 -29 0 -17 -4 -33 -10 -36 -17 -11 -11
-25 11 -25 14 0 24 -10 32 -30 8 -22 16 -28 29 -24 14 4 18 0 18 -20 0 -14 -5
-28 -10 -31 -6 -3 -10 -16 -10 -29 0 -12 -5 -27 -11 -33 -11 -11 -2 -83 11
-83 4 0 30 20 56 45 37 34 57 45 81 45 31 0 32 1 23 25 -8 21 -6 27 8 32 31
12 43 43 17 43 -8 0 -15 7 -15 15 0 8 4 15 9 15 17 0 21 50 6 80 -30 58 -9 55
34 -5 27 -38 37 -45 66 -45 24 0 38 -6 45 -20 6 -11 20 -20 31 -20 14 0 25
-13 38 -42 10 -24 28 -49 39 -55 18 -11 23 -10 35 7 17 24 30 13 41 -34 6 -26
8 -27 25 -12 23 21 28 20 34 -5 5 -17 11 -19 40 -14 41 8 87 -17 87 -47 0 -26
29 -68 47 -68 8 0 23 5 34 11 20 10 20 10 -1 45 -26 41 -20 44 15 8 26 -25 27
-26 47 -8 11 11 26 32 33 49 13 29 13 27 14 -40 1 -63 4 -74 32 -108 35 -43
81 -51 99 -18 5 11 24 22 41 26 17 4 45 20 63 35 32 29 95 53 83 33 -15 -24
64 -31 83 -8 7 8 20 15 29 15 21 -1 -27 -39 -49 -40 -77 -1 -149 -65 -130
-114 8 -22 7 -26 -10 -26 -31 0 -45 -36 -25 -66 13 -20 14 -28 4 -40 -6 -8
-17 -14 -25 -14 -7 0 -20 -10 -29 -22 -15 -22 -14 -24 6 -41 20 -16 24 -16 39
-2 21 19 46 19 54 0 7 -19 50 -19 66 0 14 17 40 20 40 5 0 -5 -8 -19 -17 -30
-13 -15 -30 -20 -70 -20 -50 0 -53 -1 -53 -25 0 -15 6 -25 14 -25 20 0 31 -19
18 -32 -5 -5 -7 -18 -5 -29 4 -15 11 -18 27 -13 20 6 20 6 -2 -19 -19 -20 -23
-32 -17 -58 6 -28 5 -31 -10 -25 -23 8 -45 -11 -45 -39 0 -17 -5 -22 -18 -19
-25 7 -86 -59 -79 -85 3 -14 0 -21 -9 -21 -19 0 -56 -77 -49 -101 4 -10 11
-19 16 -19 5 0 9 -9 9 -19 0 -11 5 -23 10 -26 24 -15 8 -27 -30 -22 -37 5 -40
3 -40 -18 0 -13 -7 -25 -15 -28 -8 -4 -26 -25 -41 -47 -21 -31 -25 -46 -18
-58 8 -12 3 -22 -23 -45 -38 -34 -63 -76 -63 -107 0 -12 -10 -35 -21 -52 -19
-25 -21 -40 -17 -102 3 -40 8 -78 12 -84 4 -7 26 -12 49 -12 42 0 43 -1 56
-47 9 -30 29 -63 53 -87 35 -35 41 -38 75 -31 21 3 53 15 71 26 18 10 50 19
71 19 27 0 44 7 61 25 l24 25 25 -24 c14 -13 42 -26 63 -29 64 -10 138 -72
138 -117 0 -21 -30 -8 -42 18 -9 18 -22 28 -40 30 -24 3 -28 -1 -34 -32 -8
-45 -27 -48 -22 -4 3 30 -1 35 -47 60 -61 33 -62 33 -70 7 -6 -19 -12 -21 -55
-15 -36 5 -50 3 -60 -9 -7 -8 -19 -15 -26 -15 -8 0 -14 -3 -14 -7 0 -5 -9 -19
-20 -33 l-19 -25 -25 24 c-22 21 -28 22 -61 11 -20 -7 -50 -9 -67 -6 -30 6
-31 6 -25 -29 3 -19 2 -35 -2 -35 -4 0 -22 16 -41 35 -19 19 -39 35 -45 35
-11 0 -4 -111 9 -140 5 -13 -1 -15 -34 -12 -37 4 -40 2 -40 -20 0 -14 -3 -28
-6 -31 -12 -11 -44 13 -44 33 0 14 -11 22 -37 29 -63 18 -74 15 -67 -16 12
-49 23 -73 34 -73 5 0 10 -18 10 -41 0 -33 -6 -47 -30 -69 -16 -15 -30 -37
-30 -49 0 -12 -4 -21 -10 -21 -5 0 -10 7 -10 15 0 33 -19 11 -46 -52 -16 -38
-46 -85 -68 -107 -37 -37 -38 -40 -28 -75 6 -20 13 -62 15 -94 2 -38 11 -67
24 -85 23 -31 60 -41 69 -18 7 18 49 22 59 6 3 -5 -3 -10 -14 -10 -11 0 -28
-11 -39 -25 -22 -28 -42 -33 -42 -10 0 8 -7 15 -15 15 -8 0 -24 9 -36 21 l-21
21 -35 -34 c-19 -18 -39 -44 -44 -57 -8 -19 -15 -22 -37 -18 -21 4 -34 -1 -60
-26 -25 -25 -44 -33 -85 -37 -44 -4 -52 -8 -55 -27 -3 -22 8 -28 103 -52 51
-13 198 8 222 32 15 15 20 14 62 -17 101 -73 136 -88 188 -80 26 3 60 13 75
20 48 24 212 18 247 -9 11 -9 8 -16 -15 -34 -25 -20 -27 -25 -16 -43 16 -27
15 -30 -8 -30 -13 0 -20 7 -20 19 0 30 -25 44 -62 35 -18 -4 -49 -6 -69 -5
-32 1 -37 -2 -41 -24 -4 -17 4 -40 24 -71 24 -38 32 -44 51 -38 22 7 22 7 3
-15 -16 -17 -26 -20 -55 -15 -20 4 -49 13 -65 21 -26 14 -31 13 -55 -5 -15
-11 -41 -23 -58 -26 -17 -4 -34 -14 -37 -23 -8 -19 9 -40 18 -24 11 17 29 13
22 -5 -10 -25 22 -54 58 -54 19 0 36 -7 43 -18 6 -10 35 -24 65 -31 65 -16
113 -5 150 34 23 25 52 32 62 16 3 -5 15 -7 26 -4 16 4 20 0 21 -21 1 -14 2
-30 3 -35 1 -5 -18 -23 -41 -40 -49 -35 -55 -56 -18 -63 14 -3 25 -2 25 2 0 4
13 10 30 12 26 4 30 2 30 -19 l0 -24 30 21 c17 12 40 39 51 61 11 22 23 38 27
36 4 -3 25 -13 46 -23 l39 -18 21 27 c12 15 30 27 40 27 14 0 16 -5 11 -28 -4
-21 -1 -33 15 -47 12 -11 20 -13 20 -6 0 7 5 9 11 5 8 -4 6 -11 -4 -21 -13
-13 -18 -13 -45 1 -48 25 -77 20 -116 -19 -20 -19 -45 -35 -57 -35 -20 0 -21
-1 -5 -25 9 -14 13 -25 8 -25 -4 0 -25 -23 -45 -50 -36 -49 -37 -51 -22 -79
22 -43 30 -44 44 -5 17 47 63 67 130 58 l47 -6 17 43 c8 24 17 53 19 63 5 29
25 30 32 1 7 -27 33 -34 42 -10 9 23 33 18 44 -10 7 -18 17 -25 35 -25 25 0
25 0 25 89 0 63 4 91 13 93 12 5 18 35 17 96 0 40 5 40 25 2 23 -44 65 -42
101 5 30 39 26 59 -6 30 -20 -18 -20 -18 -20 18 0 26 4 37 15 37 8 0 15 5 15
11 0 7 -12 10 -29 7 -23 -3 -27 -1 -23 14 2 10 1 25 -2 35 -6 14 -11 12 -34
-15 l-27 -31 -37 25 c-44 28 -73 68 -65 88 6 15 63 16 102 2 52 -19 85 -37 85
-46 0 -5 5 -10 10 -10 6 0 10 9 10 20 0 28 32 26 78 -5 20 -14 42 -25 49 -25
16 0 17 -22 2 -37 -7 -7 -9 -23 -5 -38 6 -22 11 -26 32 -22 20 3 23 1 19 -14
-4 -12 8 -31 42 -62 27 -25 53 -60 58 -79 8 -27 15 -33 39 -33 15 -1 34 -9 41
-18 7 -9 20 -17 29 -17 15 0 15 3 1 30 -8 16 -15 37 -15 46 0 10 -8 26 -17 36
-13 15 -15 23 -6 36 16 26 24 21 66 -38 44 -63 53 -69 71 -44 12 16 14 12 21
-36 4 -30 23 -84 43 -122 32 -60 40 -69 74 -79 21 -5 43 -7 48 -4 15 9 12 81
-4 119 -16 38 -7 62 30 76 17 7 24 17 24 35 0 24 2 25 22 13 13 -7 31 -11 42
-9 10 1 31 -3 47 -9 26 -11 33 -10 67 14 21 14 47 26 59 26 11 0 23 7 27 15 7
19 46 20 46 1 0 -19 39 -66 64 -77 11 -5 50 -34 86 -64 86 -73 113 -80 186
-50 52 21 59 28 77 72 19 48 24 147 11 221 -5 28 -3 32 15 32 12 0 38 9 58 20
21 11 45 20 54 20 9 0 43 28 76 63 51 53 63 72 72 117 11 52 16 58 81 108 69
52 70 54 70 100 0 43 5 52 54 105 29 31 59 57 67 57 8 0 36 22 63 49 45 45 51
48 77 39 24 -8 36 -6 72 15 37 22 49 24 83 17 57 -14 107 -12 130 4 17 12 30
12 96 -4 41 -10 85 -23 97 -30 19 -10 29 -7 70 19 53 34 107 40 184 19 36 -9
56 -8 110 5 93 24 111 22 142 -14 l26 -32 40 18 c21 10 44 24 50 31 8 10 18
10 51 -2 22 -8 83 -21 134 -30 l94 -16 109 77 c117 82 164 124 207 187 25 35
29 53 37 156 5 65 12 124 16 132 4 8 22 24 39 35 29 18 31 25 32 74 l0 55 -75
73 c-42 40 -78 73 -80 73 -3 0 -5 -7 -5 -15 0 -11 -11 -15 -40 -15 -39 0 -42
3 -83 68 -24 37 -55 73 -70 81 -16 8 -27 24 -29 40 -3 24 -11 28 -85 48 -93
24 -138 51 -147 88 -4 16 -13 25 -25 25 -13 0 -21 9 -26 30 -4 16 -10 30 -14
30 -4 0 -29 16 -54 36 -36 28 -47 43 -47 65 0 18 -9 35 -29 51 -16 13 -45 56
-65 96 -37 74 -59 89 -86 57 -7 -9 -29 -15 -53 -15 -31 0 -51 9 -89 37 -39 31
-55 37 -86 34 -20 -2 -44 -7 -53 -12 -13 -7 -23 1 -43 32 -26 39 -28 40 -51
25 -21 -14 -27 -13 -78 15 -44 23 -58 37 -68 66 -15 46 -6 123 16 139 14 10
16 21 10 50 -6 34 -5 36 9 25 9 -8 16 -21 16 -31 0 -15 18 -30 37 -30 2 0 2
14 -2 31 -7 30 -7 30 29 24 33 -7 36 -5 36 17 0 14 -9 33 -21 44 -16 15 -24
16 -39 6 -27 -16 -69 -15 -76 2 -7 18 33 59 50 53 8 -3 23 8 35 24 31 42 51
38 51 -10 0 -39 40 -141 68 -173 8 -10 26 -18 39 -18 22 0 23 3 18 38 -12 74
-28 138 -46 185 -13 33 -19 74 -19 133 0 91 12 127 58 176 24 26 24 28 8 62
-9 18 -16 39 -16 45 0 6 -18 11 -40 11 -34 0 -40 3 -46 26 -4 14 -4 53 -1 86
5 52 10 65 41 97 20 20 36 46 36 58 0 26 82 103 110 103 11 0 27 -11 36 -25
13 -20 19 -23 30 -14 8 6 14 17 14 23 0 7 10 22 23 34 18 17 36 22 75 22 50 0
53 2 58 28 5 26 12 30 69 41 61 12 63 14 70 47 3 19 2 42 -4 51 -14 26 13 73
43 73 23 0 75 48 112 105 15 23 22 26 53 21 20 -4 63 -9 96 -12 37 -4 68 -13
80 -24 18 -16 23 -17 45 -5 14 8 37 14 52 15 29 0 48 24 48 59 0 45 44 35 65
-15 18 -45 37 -43 59 5 25 57 78 101 123 101 28 0 43 8 69 35 22 24 42 35 61
35 20 0 40 11 62 34 19 19 58 43 91 55 65 24 77 35 86 78 5 25 1 34 -21 51
-14 11 -30 22 -35 24 -5 2 -7 20 -3 41 4 28 11 39 29 43 12 3 30 14 40 25 10
11 35 22 56 25 21 4 41 11 44 15 3 5 15 9 27 9 36 -1 164 72 182 103 31 53 78
98 126 122 26 14 51 30 54 36 5 6 20 8 40 5 28 -6 37 -2 64 29 17 20 31 40 31
46 0 6 14 24 30 41 17 16 30 38 30 49 0 11 16 54 35 96 23 49 35 91 35 118 0
39 3 44 31 54 46 16 52 14 71 -19 23 -41 35 -38 49 13 7 26 26 56 51 80 30 28
38 42 33 58 -6 19 -5 20 15 9 19 -10 31 -7 80 19 34 18 73 31 94 31 20 0 36 3
36 8 0 4 11 20 23 36 26 32 95 49 200 50 31 0 57 2 57 5 1 6 7 34 32 147 13
57 13 62 -4 73 -40 25 -47 77 -50 376 -1 108 9 202 23 211 5 3 9 18 9 33 0 16
11 44 23 63 14 19 26 57 30 86 6 51 6 52 -21 52 -21 0 -45 19 -109 86 l-83 87
0 71 c0 43 10 111 25 171 21 81 32 106 59 135 41 42 56 71 56 103 0 38 20 86
41 98 14 7 27 5 48 -6 51 -26 57 -21 66 48 5 34 7 82 6 106 -1 44 22 111 38
111 5 0 22 -7 37 -15 27 -14 29 -13 32 3 2 9 8 21 13 26 5 6 9 19 9 30 0 31
34 166 42 166 4 0 14 -7 22 -16 13 -12 17 -13 20 -2 2 7 9 33 16 57 10 38 13
42 22 27 14 -24 28 -4 28 40 0 27 4 32 32 38 24 5 37 1 53 -14 27 -25 35 -25
35 0 0 12 -7 20 -16 20 -28 0 -10 35 23 44 19 6 33 18 36 30 15 63 49 132 83
167 21 21 41 39 45 39 4 0 9 -17 11 -37 4 -47 25 -54 39 -14 6 17 17 31 24 31
7 0 16 16 19 35 5 26 12 35 26 35 22 0 26 20 9 37 -8 8 -7 16 2 31 10 16 10
26 1 46 -14 31 2 36 34 11 28 -21 46 -18 70 13 20 24 25 25 43 15 34 -21 43
-16 36 17 -5 24 -3 30 11 30 14 0 16 -7 11 -40 -5 -39 -4 -40 24 -40 22 0 29
5 29 19 0 10 6 21 14 24 8 3 17 16 19 29 3 13 4 6 3 -14 -2 -20 -8 -43 -14
-50 -9 -11 -6 -20 14 -41 26 -28 61 -35 95 -17 26 14 24 32 -6 68 -27 32 -31
53 -15 82 15 28 -36 130 -65 130 -53 0 -65 11 -65 54 0 27 -11 60 -31 96 -16
30 -35 85 -41 121 -8 46 -18 70 -31 78 -31 20 -50 -4 -44 -56 4 -35 0 -46 -19
-64 -31 -29 -43 -18 -52 47 -6 40 -11 49 -28 49 -25 0 -164 123 -164 146 0 10
-11 26 -23 36 -38 30 -46 55 -53 162 -7 94 -5 104 17 146 24 46 24 46 4 62
-16 12 -38 14 -105 10 -47 -2 -91 -2 -97 0 -16 6 -17 33 -2 33 7 0 9 10 5 26
-4 14 -2 32 4 39 31 37 -36 61 -84 30 -18 -12 -37 -14 -92 -8 -58 7 -69 11
-73 28 -6 35 -36 43 -78 23z m1067 -1153 c0 -1 -7 -8 -15 -15 -13 -10 -15 -9
-15 8 0 15 5 20 15 16 8 -4 15 -7 15 -9z m-7445 -8885 c3 -5 2 -10 -3 -10 -5
0 -25 -3 -43 -6 -34 -6 -34 -6 -9 9 30 18 47 20 55 7z"/>
<path d="M1442 3670 c-6 -16 -22 -35 -36 -41 -28 -13 -43 -39 -21 -39 21 0 30
-41 11 -52 -19 -11 -22 -58 -3 -58 7 0 33 20 57 45 24 25 50 45 57 45 19 0 16
30 -4 53 -17 18 -17 19 0 32 23 17 21 31 -5 39 -39 10 -46 7 -56 -24z"/>
<path d="M1068 3617 c-35 -28 -35 -37 -1 -37 14 0 35 -7 45 -17 17 -15 19 -15
38 2 59 53 -20 103 -82 52z"/>
<path d="M1168 3559 c-22 -12 -24 -59 -3 -59 8 0 17 11 21 25 9 35 3 46 -18
34z"/>
<path d="M1288 1669 c-20 -14 -28 -30 -28 -50 0 -32 14 -38 28 -13 10 19 74
11 93 -12 6 -8 18 -14 25 -14 22 0 16 40 -12 77 -30 39 -65 43 -106 12z"/>
</g>
</svg>
