<?xml version="1.0" standalone="no"?>
<!DOCTYPE svg PUBLIC "-//W3C//DTD SVG 20010904//EN"
 "http://www.w3.org/TR/2001/REC-SVG-20010904/DTD/svg10.dtd">
<svg version="1.0" xmlns="http://www.w3.org/2000/svg"
 width="1024.000000pt" height="1024.000000pt" viewBox="0 0 1024.000000 1024.000000"
 preserveAspectRatio="xMidYMid meet">
<metadata>
Created by potrace 1.10, written by Peter Selinger 2001-2011
</metadata>
<g transform="translate(0.000000,1024.000000) scale(0.100000,-0.100000)"
fill="#000000" stroke="none">
<path d="M5195 10215 c-28 -14 -59 -22 -71 -19 -31 8 -61 -11 -80 -49 -20 -39
-31 -47 -66 -47 -23 0 -28 -5 -28 -23 0 -28 -12 -43 -73 -92 -50 -40 -97 -108
-97 -141 0 -11 -16 -44 -35 -74 -38 -60 -43 -87 -20 -96 8 -4 15 -14 15 -23 0
-22 -87 -171 -117 -198 -13 -12 -33 -44 -44 -70 -25 -58 -52 -89 -101 -114
-21 -10 -42 -28 -47 -38 -6 -10 -28 -26 -50 -34 -28 -12 -42 -25 -50 -48 -16
-45 -14 -55 7 -36 20 18 52 23 52 8 0 -5 -18 -24 -40 -42 -22 -19 -57 -48 -78
-66 -24 -20 -43 -47 -51 -73 -18 -61 -71 -106 -190 -162 -140 -65 -167 -87
-176 -139 -6 -35 -4 -43 14 -55 12 -9 21 -22 21 -31 0 -29 61 -127 104 -168
36 -33 44 -48 50 -90 4 -32 17 -64 36 -89 33 -44 37 -73 15 -115 -18 -35 -37
-43 -81 -35 -30 5 -34 4 -34 -15 0 -12 7 -33 16 -46 15 -23 14 -28 -14 -87
-16 -35 -52 -87 -80 -117 -54 -58 -49 -57 -144 -35 -24 5 -29 1 -48 -36 -12
-23 -30 -45 -41 -47 -25 -7 -24 -20 7 -64 l25 -37 -35 -71 c-50 -99 -47 -134
14 -143 36 -4 37 -34 3 -76 -43 -55 -44 -57 -28 -96 21 -49 19 -81 -6 -97
l-20 -14 21 -47 c17 -39 18 -51 9 -72 -10 -22 -9 -29 5 -45 10 -11 30 -24 46
-31 25 -10 34 -9 73 14 51 30 67 32 130 10 57 -19 141 -107 157 -162 16 -58
13 -252 -5 -303 -14 -40 -14 -51 0 -117 16 -71 17 -73 67 -101 49 -28 50 -29
106 -14 50 13 60 13 88 -1 43 -20 77 -80 109 -191 43 -154 50 -162 163 -199
70 -23 107 -69 157 -193 39 -96 41 -98 94 -126 60 -31 142 -93 171 -130 10
-13 26 -42 35 -63 9 -23 28 -48 46 -58 66 -39 91 -132 47 -173 -13 -12 -47
-31 -77 -42 -30 -11 -65 -30 -78 -43 -24 -22 -24 -22 -74 -4 -49 17 -52 17
-71 -1 -11 -10 -43 -50 -71 -90 -36 -52 -62 -78 -91 -92 -49 -23 -142 -51
-168 -51 -11 0 -35 -12 -55 -28 -20 -15 -54 -36 -77 -47 -22 -11 -46 -30 -51
-41 -18 -37 -116 -114 -146 -114 -35 0 -78 -35 -96 -79 -8 -20 -24 -46 -35
-57 -13 -14 -16 -24 -9 -29 23 -14 9 -26 -29 -23 -29 1 -46 -4 -63 -20 -13
-13 -41 -26 -62 -29 l-38 -6 8 -76 c4 -42 7 -88 7 -103 -1 -16 -3 -54 -4 -85
l-3 -58 -81 0 c-76 0 -84 -2 -141 -38 -76 -46 -162 -87 -186 -87 -11 0 -32 -8
-47 -17 -24 -14 -35 -15 -66 -5 -34 10 -43 8 -123 -32 -47 -24 -99 -46 -116
-50 -40 -10 -55 -24 -55 -50 0 -16 -24 -36 -105 -84 -57 -35 -116 -78 -131
-97 -34 -45 -64 -126 -64 -175 0 -37 -3 -41 -30 -47 -16 -3 -30 -11 -30 -17 0
-7 -11 -27 -25 -46 -15 -21 -25 -47 -25 -68 0 -48 -29 -90 -122 -176 l-81 -74
22 -45 c12 -25 28 -51 36 -57 17 -14 53 -17 78 -6 14 7 17 3 17 -24 0 -27 3
-30 20 -25 15 5 20 2 20 -12 0 -10 5 -25 10 -33 8 -13 12 -12 25 7 8 12 22 29
30 37 10 9 11 17 5 21 -5 3 -10 13 -10 22 0 11 6 14 24 9 l24 -6 -16 61 c-14
55 -13 64 2 95 12 27 14 40 5 55 -19 37 -3 43 32 11 27 -25 32 -33 22 -43 -19
-19 -16 -35 11 -47 13 -6 27 -20 30 -30 5 -14 13 -18 26 -15 29 8 70 -5 70
-22 0 -9 -6 -12 -15 -9 -32 13 -66 -8 -116 -72 -42 -52 -56 -64 -73 -60 -16 4
-25 -2 -38 -24 -9 -17 -24 -30 -32 -30 -21 0 -89 -101 -76 -114 15 -15 13
-189 -2 -204 -17 -17 -26 -15 -31 6 -3 9 -5 -12 -4 -48 l2 -65 48 -7 c34 -4
57 -15 79 -37 32 -32 86 -61 111 -61 8 0 20 -13 25 -30 6 -16 31 -61 56 -99
33 -52 57 -76 95 -97 30 -17 51 -36 51 -46 0 -55 69 -104 138 -99 44 4 66 -17
109 -104 34 -67 78 -125 95 -125 4 0 8 12 8 26 0 26 2 26 43 20 49 -8 87 -30
87 -52 0 -8 7 -17 16 -21 11 -4 14 -14 10 -33 -5 -26 -1 -29 54 -49 40 -15 66
-32 81 -52 12 -17 32 -34 45 -39 13 -6 28 -20 33 -32 5 -13 17 -42 26 -65 15
-35 16 -45 5 -58 -11 -14 -6 -23 36 -66 l48 -49 15 27 c8 16 17 46 21 68 5 34
9 40 28 38 14 -2 22 3 22 12 0 13 6 11 29 -6 21 -16 33 -19 46 -12 16 9 16 11
1 16 -25 10 -19 33 15 61 25 22 41 26 89 26 49 0 61 -4 70 -20 10 -19 12 -19
45 -3 47 23 53 11 18 -34 -17 -21 -33 -56 -37 -80 l-6 -43 84 0 c55 0 106 -7
145 -19 l61 -19 0 22 c0 11 5 28 10 36 9 13 11 13 20 0 5 -8 10 -30 10 -47 0
-29 3 -33 26 -33 16 0 39 -13 60 -34 33 -33 34 -37 34 -107 0 -131 -36 -237
-148 -436 -79 -143 -82 -154 -109 -389 -6 -60 -3 -62 99 -71 63 -5 69 -4 135
33 47 26 62 39 50 42 -10 2 -32 -2 -48 -8 -35 -15 -45 -9 -29 19 8 15 20 21
46 21 39 0 54 21 33 46 -10 13 -10 17 2 25 22 14 59 11 65 -6 3 -8 -4 -28 -15
-44 -22 -31 -26 -48 -13 -68 5 -9 20 4 46 40 21 28 72 79 114 112 105 84 108
90 72 144 -36 53 -40 86 -10 78 30 -8 25 24 -8 57 -26 24 -30 25 -42 11 -20
-24 -43 -19 -34 8 16 52 35 77 58 77 20 0 26 -7 36 -50 7 -27 18 -50 25 -50
12 0 65 68 65 83 0 4 -13 7 -30 7 -32 0 -42 23 -15 34 8 3 15 10 15 17 0 6 -7
8 -16 5 -18 -7 -43 19 -44 46 0 20 55 68 78 68 37 0 66 -96 37 -120 -15 -13
-15 -15 5 -30 21 -16 21 -16 -29 -90 -28 -40 -47 -78 -44 -83 8 -14 38 24 86
111 22 41 65 101 95 133 45 49 52 62 42 74 -7 8 -23 15 -37 15 -24 0 -24 0 -6
30 18 31 33 39 33 18 1 -7 25 37 54 97 29 61 71 133 94 162 23 29 39 58 36 66
-9 25 140 200 243 284 67 54 92 85 93 112 0 7 -15 0 -35 -18 -33 -29 -46 -35
-61 -28 -4 1 -10 -8 -15 -21 -5 -14 -20 -25 -38 -28 -19 -4 -32 -14 -35 -28
-3 -11 -17 -29 -31 -39 l-25 -18 0 36 c0 20 7 49 15 66 14 26 14 30 0 35 -20
8 -55 8 -81 -1 -14 -4 -27 -1 -39 11 -16 17 -16 18 4 26 24 9 27 23 7 31 -8 3
-16 16 -18 29 -2 15 -15 28 -35 37 -31 14 -49 38 -38 50 3 3 15 0 25 -7 11 -7
26 -12 34 -12 8 0 27 -16 42 -36 26 -33 31 -35 66 -30 32 5 38 4 38 -12 0 -32
11 -31 57 4 44 34 52 34 85 6 11 -9 24 -12 35 -7 19 9 29 11 54 13 8 1 23 8
33 15 17 13 17 15 1 46 l-17 33 -23 -22 c-20 -19 -23 -19 -29 -5 -12 32 -6 64
15 75 24 14 43 2 66 -44 15 -28 16 -29 29 -11 9 12 12 34 8 65 -4 36 -1 50 11
60 15 13 15 15 -4 29 -20 15 -20 18 -6 39 20 28 40 28 82 -1 30 -19 33 -26 28
-55 l-6 -33 37 16 c57 24 51 12 -16 -29 -63 -39 -94 -73 -130 -146 l-22 -44
51 47 c32 28 107 74 192 117 76 39 139 75 139 80 0 6 -9 18 -20 27 -11 10 -20
23 -20 29 0 6 -14 14 -31 18 -22 4 -29 10 -26 20 7 18 -65 32 -111 21 -42 -9
-55 16 -37 68 7 21 15 39 17 40 35 18 45 31 59 70 19 58 57 90 95 81 20 -5 34
-23 61 -78 19 -39 32 -59 29 -45 -4 19 0 31 14 44 29 26 25 50 -12 79 l-33 26
28 0 c32 0 33 3 7 38 -13 17 -18 35 -14 45 8 21 24 22 24 2 0 -19 48 -31 63
-16 8 8 0 20 -31 47 -60 51 -75 85 -68 148 10 80 -37 136 -58 69 -6 -19 -11
-21 -26 -13 -10 5 -22 20 -25 31 -5 16 -9 18 -15 8 -7 -10 -11 -10 -24 0 -12
10 -19 11 -30 2 -10 -9 -16 -8 -26 4 -7 8 -24 14 -38 13 -20 -2 -31 5 -50 32
-21 31 -22 35 -7 38 10 2 30 -5 46 -17 15 -12 41 -21 57 -21 16 0 35 -7 42
-15 10 -13 15 -12 30 8 16 19 19 20 25 6 5 -14 12 -15 48 -6 29 7 42 7 44 0 2
-6 13 -9 24 -6 15 4 18 2 13 -11 -4 -10 0 -18 10 -22 9 -3 16 -12 16 -20 0
-16 46 -19 55 -4 10 16 101 12 115 -5 8 -10 21 -13 33 -9 19 6 20 3 14 -60 -7
-74 0 -84 49 -72 50 13 70 116 25 131 -37 11 -100 82 -107 120 -7 38 7 68 21
45 8 -12 45 40 45 63 0 7 20 23 45 37 25 14 45 29 45 33 0 10 43 5 74 -8 16
-7 18 -5 14 18 -4 18 2 37 18 59 13 17 24 39 24 49 0 29 26 42 74 35 l43 -7
-11 41 c-10 39 -9 43 14 61 14 10 31 19 39 19 7 0 11 6 8 15 -4 8 4 22 17 32
12 10 21 24 18 31 -6 20 28 52 55 52 30 0 29 15 -3 37 -26 16 -26 17 -6 32 34
26 19 68 -29 81 -38 11 -39 12 -39 58 0 75 44 212 68 212 9 0 32 59 32 83 0 9
11 24 25 33 14 9 25 23 25 32 0 8 12 25 26 39 36 34 30 66 -16 74 l-35 6 33 8
c20 5 30 11 24 17 -11 11 3 94 20 117 6 9 30 35 52 58 l40 43 -47 0 c-27 0
-67 8 -90 19 -23 10 -58 22 -77 26 -53 11 -76 25 -59 36 25 15 80 10 106 -11
36 -28 67 -25 105 10 26 23 30 32 20 39 -12 7 -11 14 3 41 16 31 16 34 0 42
-12 7 -15 17 -11 34 6 22 5 23 -14 12 -17 -11 -23 -9 -42 10 -32 31 -15 56 41
60 33 3 41 7 41 22 0 11 -9 24 -20 30 -11 6 -24 19 -30 30 -10 18 -7 20 24 20
26 0 36 -5 41 -20 3 -11 15 -25 26 -31 18 -9 28 -3 75 48 29 32 54 67 54 77 0
17 -6 18 -80 12 -79 -6 -79 -6 -112 25 l-33 30 30 -5 c92 -19 106 -18 167 4
50 18 63 20 67 9 2 -8 10 14 17 49 7 35 16 72 19 82 5 17 2 20 -23 20 -16 0
-37 -9 -47 -20 -42 -47 -83 -33 -120 40 -27 54 -31 70 -14 70 5 0 19 -23 31
-50 18 -42 25 -50 47 -50 17 0 38 11 56 30 22 23 32 27 47 19 13 -7 20 -6 23
3 9 25 73 303 71 306 -2 1 -26 -3 -54 -9 -41 -10 -54 -10 -67 1 -25 21 -19 43
10 36 20 -5 25 -3 25 14 0 26 15 26 34 -1 27 -39 52 -17 75 69 34 130 99 476
101 543 0 3 -12 6 -27 5 -21 -1 -29 -7 -31 -23 -3 -19 -7 -21 -21 -13 -13 6
-24 4 -40 -6 -28 -20 -32 -16 -25 27 4 24 16 42 37 57 82 58 99 76 92 105 -6
22 -13 27 -39 27 -32 0 -155 -54 -206 -90 -16 -11 -35 -20 -43 -20 -51 0 -5
72 62 97 25 9 64 30 85 45 44 32 58 34 76 13 7 -8 21 -15 31 -15 15 0 19 7 19
35 0 44 -23 60 -138 92 -55 16 -105 38 -136 60 -27 19 -85 53 -129 74 l-81 39
-33 -20 c-42 -24 -51 -25 -82 -1 -24 18 -24 18 -67 -26 -44 -47 -69 -52 -69
-14 0 17 -12 27 -56 45 -81 33 -114 60 -134 108 -9 23 -33 59 -54 80 -43 42
-45 42 -100 -29 -25 -33 -39 -43 -61 -43 -16 0 -31 4 -35 10 -8 12 102 119
130 126 38 9 69 0 80 -23 11 -25 55 -32 55 -9 0 7 11 29 24 49 21 31 23 40 15
79 -15 67 0 94 58 111 45 13 49 17 72 73 13 32 24 75 23 94 -3 106 -1 125 13
147 9 13 39 39 68 57 29 19 60 43 71 55 10 11 22 18 27 15 4 -2 13 5 20 18 11
20 8 25 -21 50 -36 30 -36 47 0 28 38 -20 47 4 14 34 -36 31 -10 37 29 6 22
-17 26 -18 31 -4 3 9 6 34 6 57 0 56 12 76 35 57 15 -13 20 -10 45 20 l29 35
-8 -35 c-4 -19 -13 -44 -19 -55 -6 -11 -13 -36 -17 -55 -3 -19 -30 -78 -60
-130 -30 -52 -53 -95 -52 -96 1 0 39 3 85 9 86 10 93 16 66 55 -20 29 -14 35
22 22 l29 -10 -25 19 c-29 23 -22 38 10 21 14 -7 20 -8 16 -1 -8 12 20 82 37
93 6 4 17 3 23 -3 8 -6 17 -1 28 16 10 15 25 35 34 46 20 24 52 132 52 177 0
23 17 61 54 121 72 117 113 199 127 257 7 27 32 93 56 147 44 100 147 470 141
509 -3 21 -149 110 -793 481 -367 211 -508 296 -765 462 -96 62 -260 166 -365
230 -104 65 -282 176 -395 246 -113 71 -212 129 -220 128 -8 0 -37 -11 -65
-24z"/>
<path d="M7272 4469 c-13 -16 -19 -29 -13 -29 18 0 13 -38 -14 -111 -18 -50
-22 -75 -16 -92 5 -12 13 -38 18 -57 8 -30 12 -13 32 125 12 88 25 168 28 178
7 26 -9 20 -35 -14z"/>
<path d="M7226 4080 c-12 -42 -13 -56 -4 -74 11 -18 13 -13 20 49 4 38 5 71 3
73 -2 2 -11 -19 -19 -48z"/>
<path d="M7217 3921 c-4 -18 -6 -59 -6 -90 l2 -56 8 75 c10 82 7 125 -4 71z"/>
<path d="M7186 3665 c-19 -44 -20 -61 -5 -71 7 -4 7 -10 1 -16 -6 -6 -19 -4
-36 7 -24 16 -26 16 -26 1 0 -9 16 -33 35 -54 34 -36 34 -36 35 -12 1 14 5 59
10 100 4 41 7 77 5 79 -2 2 -11 -14 -19 -34z"/>
<path d="M7152 3458 c-7 -7 -12 -18 -12 -26 0 -12 -3 -12 -16 -1 -9 7 -25 14
-36 14 -20 2 -20 1 -3 -12 11 -7 22 -13 27 -13 14 0 8 -24 -12 -50 -11 -14
-20 -36 -20 -49 0 -18 13 -4 51 55 29 44 52 81 51 84 -1 10 -19 9 -30 -2z"/>
<path d="M6952 3077 c-12 -13 -22 -31 -22 -40 0 -10 -7 -20 -15 -23 -8 -4 -15
-16 -15 -28 0 -11 -13 -43 -28 -71 -78 -139 -146 -252 -162 -270 -11 -11 -29
-43 -41 -70 -26 -59 -89 -147 -121 -169 -18 -13 -19 -16 -6 -16 36 0 145 163
303 450 59 107 116 210 127 228 23 37 11 43 -20 9z"/>
<path d="M6449 2335 c-15 -30 -22 -32 -79 -24 -18 3 -25 -1 -28 -16 -6 -30
-19 -40 -36 -26 -8 7 -17 8 -20 3 -3 -5 6 -14 19 -20 26 -12 32 -27 15 -37 -5
-3 -10 -20 -10 -36 0 -22 -10 -40 -36 -64 -29 -27 -34 -39 -28 -57 4 -13 15
-29 25 -36 19 -13 26 -52 10 -52 -5 0 -14 7 -21 15 -11 14 -15 14 -36 0 -22
-14 -24 -13 -44 15 -12 17 -30 30 -41 30 -11 0 -33 14 -48 31 l-28 30 -17 -40
c-9 -23 -16 -48 -16 -56 0 -23 48 -30 69 -11 24 22 57 20 81 -4 37 -37 23 -67
-21 -45 -37 20 -42 19 -27 -4 6 -10 16 -17 22 -15 6 2 17 0 25 -5 12 -8 12
-12 2 -24 -18 -23 3 -30 36 -13 41 21 94 80 162 180 58 85 70 114 36 86 -9 -7
-19 -10 -23 -6 -4 4 7 20 25 34 17 15 41 51 54 80 20 49 21 56 7 85 l-15 31
-14 -29z"/>
</g>
</svg>
