<?xml version="1.0" standalone="no"?>
<!DOCTYPE svg PUBLIC "-//W3C//DTD SVG 20010904//EN"
 "http://www.w3.org/TR/2001/REC-SVG-20010904/DTD/svg10.dtd">
<svg version="1.0" xmlns="http://www.w3.org/2000/svg"
 width="1024.000000pt" height="1024.000000pt" viewBox="0 0 1024.000000 1024.000000"
 preserveAspectRatio="xMidYMid meet">
<metadata>
Created by potrace 1.10, written by Peter Selinger 2001-2011
</metadata>
<g transform="translate(0.000000,1024.000000) scale(0.100000,-0.100000)"
fill="#000000" stroke="none">
<path d="M4445 10020 c-16 -11 -58 -29 -92 -40 -107 -33 -226 -105 -323 -195
-41 -38 -66 -49 -264 -114 -324 -108 -370 -129 -443 -204 -47 -48 -68 -80 -93
-142 -18 -44 -66 -136 -106 -205 -61 -105 -76 -139 -93 -215 -10 -50 -37 -156
-59 -236 -33 -120 -50 -163 -102 -254 -34 -61 -81 -157 -104 -215 -28 -71 -59
-127 -93 -170 -40 -51 -53 -78 -63 -125 -7 -39 -33 -99 -72 -169 l-61 -108
-29 -182 c-25 -153 -34 -188 -58 -226 -15 -25 -42 -74 -59 -110 -17 -36 -60
-105 -96 -155 -36 -49 -70 -106 -76 -125 -6 -19 -26 -62 -44 -95 -18 -33 -45
-91 -61 -130 -16 -38 -49 -95 -75 -126 -39 -47 -47 -65 -53 -113 -4 -39 -29
-107 -77 -214 -106 -233 -116 -250 -192 -332 -38 -41 -121 -143 -183 -226 -62
-84 -133 -168 -157 -188 -36 -29 -48 -49 -71 -114 -33 -95 -85 -172 -263 -388
-74 -91 -168 -220 -215 -296 -79 -129 -91 -143 -256 -299 -95 -90 -199 -184
-231 -209 -146 -115 -179 -150 -232 -247 -28 -52 -49 -96 -47 -98 8 -7 2333
-319 3583 -481 754 -98 1374 -181 1379 -185 5 -4 11 -41 14 -81 2 -40 9 -81
14 -91 5 -11 61 -88 124 -172 l114 -154 0 -65 c0 -87 34 -163 104 -236 53 -55
53 -56 153 -345 l101 -290 8 -225 9 -225 51 -85 c43 -71 53 -98 64 -165 9 -64
23 -101 66 -182 53 -99 58 -105 167 -191 62 -49 131 -99 153 -110 52 -27 90
-90 110 -187 8 -38 18 -73 22 -76 5 -5 3984 65 4000 70 2 1 -12 30 -32 65 -23
41 -36 77 -36 101 0 24 -10 51 -30 80 -58 84 -70 126 -70 246 0 105 -1 109
-25 125 -24 16 -27 15 -80 -25 -31 -23 -63 -41 -72 -39 -11 2 -21 22 -29 58
-19 79 -18 83 11 76 14 -3 36 -9 49 -12 18 -5 28 1 45 25 28 39 20 75 -20 91
-23 10 -29 19 -29 41 0 43 35 39 61 -6 23 -39 26 -40 53 -20 17 13 18 17 3 52
-11 28 -13 51 -6 88 4 28 8 73 9 100 0 28 9 70 20 93 23 51 18 90 -14 96 -11
3 -43 7 -69 10 -28 3 -61 16 -80 30 -18 13 -83 49 -145 80 l-113 56 -50 108
c-28 59 -67 145 -86 192 l-35 85 12 135 c7 74 11 159 9 189 l-4 54 -55 19
c-30 10 -75 23 -100 29 -42 9 -140 73 -167 108 -6 9 -32 53 -58 99 -30 54 -73
109 -126 163 -69 69 -88 98 -143 207 -35 70 -80 156 -100 191 -35 62 -37 68
-42 190 -7 155 -23 210 -73 253 -38 32 -38 35 -44 118 -4 61 -13 103 -33 150
-26 61 -27 73 -27 210 l1 145 -49 104 -49 104 -10 291 c-6 160 -13 297 -15
304 -3 8 13 35 34 60 49 59 58 88 36 112 -15 17 -19 17 -93 -11 -114 -43 -157
-40 -243 16 -47 31 -73 55 -80 74 -6 17 -31 43 -59 62 -30 20 -54 46 -60 63
-32 94 -116 87 -197 -16 -16 -19 -63 -65 -105 -101 -70 -61 -79 -66 -98 -55
-11 7 -22 20 -25 29 -3 9 -17 22 -31 29 -23 13 -27 11 -52 -13 -22 -22 -29
-41 -37 -104 l-10 -76 -90 -33 c-77 -28 -104 -33 -181 -33 -131 -1 -151 4
-157 43 -3 17 0 57 6 89 10 50 9 62 -7 91 -14 26 -15 38 -7 54 18 34 80 57
170 62 77 5 85 7 93 29 8 23 7 24 -39 18 -38 -4 -55 -1 -82 16 l-34 20 -18
-22 c-16 -19 -39 -26 -136 -41 -65 -11 -134 -24 -153 -29 -19 -6 -84 -11 -145
-11 l-110 0 -49 -40 c-26 -22 -56 -40 -66 -40 -10 0 -25 -3 -33 -6 -18 -6 -37
42 -37 92 0 31 3 34 30 34 22 0 30 5 30 18 1 32 38 100 59 107 12 4 30 0 43
-9 40 -28 75 -20 101 22 14 20 41 57 61 81 21 25 49 68 63 95 67 132 152 237
241 298 14 9 39 43 56 74 37 69 147 169 258 234 40 24 91 57 113 75 22 17 67
44 99 59 58 26 215 136 251 176 17 18 30 20 159 20 148 0 245 -15 406 -65 41
-13 113 -33 160 -45 93 -23 144 -50 245 -131 57 -46 68 -60 81 -106 18 -62 36
-68 76 -25 29 29 42 59 63 138 18 68 6 119 -44 192 -58 86 -77 129 -120 269
-21 70 -53 154 -71 185 -17 32 -42 85 -55 118 -13 34 -41 82 -62 108 -73 88
-73 88 -66 206 6 103 5 107 -18 133 -28 30 -181 133 -226 152 -26 10 -35 25
-61 94 -17 45 -34 102 -38 127 -4 27 -18 60 -35 82 -16 20 -40 65 -53 100 -13
34 -40 98 -60 142 -35 77 -36 81 -36 208 0 90 5 147 16 185 15 52 15 59 0 90
-17 36 -20 76 -6 108 6 14 1 33 -17 64 -29 49 -32 89 -15 180 6 35 9 67 7 71
-3 4 -55 16 -117 26 -108 18 -115 21 -158 60 -38 35 -149 88 -701 333 l-657
291 -913 0 c-898 0 -915 0 -944 -20z"/>
<path d="M8235 9554 c-124 -43 -123 -42 -130 -87 -4 -26 -26 -70 -58 -116 -48
-70 -76 -148 -77 -208 0 -19 6 -23 30 -23 17 0 47 9 67 20 21 11 51 20 66 20
20 0 37 10 55 31 27 31 234 174 285 197 15 6 48 12 73 12 25 0 70 7 100 16 47
13 56 21 69 51 8 19 15 37 15 39 0 2 -36 4 -79 4 -45 0 -128 10 -193 24 -159
34 -178 35 -223 20z"/>
<path d="M8543 9286 c-63 -16 -83 -31 -83 -63 0 -31 28 -73 49 -74 9 0 34 -28
57 -62 33 -50 47 -64 77 -71 42 -11 42 -10 23 -114 l-13 -72 39 -6 c37 -6 38
-8 22 -25 -41 -46 20 -67 102 -35 59 23 64 34 35 81 -17 29 -19 58 -5 123 6
30 54 32 54 1 0 -15 11 -25 40 -36 22 -9 40 -20 40 -25 0 -4 7 -8 16 -8 12 0
8 -9 -15 -36 -18 -20 -34 -49 -38 -65 -6 -32 -28 -49 -62 -49 -34 0 -26 -37
12 -57 l32 -18 -42 -3 c-50 -4 -53 -15 -16 -54 l27 -28 -30 0 c-16 1 -40 10
-53 20 -21 18 -23 26 -17 70 4 28 4 50 1 50 -19 0 -45 -23 -45 -40 0 -29 -13
-31 -79 -16 -57 13 -60 13 -51 -4 5 -9 25 -31 45 -49 27 -23 45 -31 74 -31 25
0 44 -7 56 -20 16 -18 17 -25 6 -60 -16 -55 -7 -80 29 -80 37 0 44 -12 30 -56
-14 -41 -46 -44 -43 -4 1 18 -9 32 -33 50 -25 18 -34 33 -34 54 0 39 -45 86
-81 86 -37 0 -59 9 -59 25 0 11 -11 10 -52 -4 -28 -10 -53 -22 -55 -27 -4 -14
84 -64 113 -64 22 0 24 -4 24 -46 0 -46 0 -46 -29 -41 -16 3 -45 17 -66 31
-59 40 -99 43 -161 12 -53 -25 -54 -27 -54 -68 l0 -43 118 -2 c122 -1 172 -12
172 -38 0 -20 -15 -19 -92 5 -61 19 -150 26 -182 14 -11 -4 -16 -19 -16 -53 0
-44 -2 -47 -45 -74 l-45 -29 0 -82 c0 -79 1 -82 28 -98 15 -8 57 -21 95 -28
54 -10 72 -18 92 -42 14 -16 25 -36 25 -43 0 -8 13 -29 29 -47 23 -27 29 -45
34 -102 3 -47 11 -77 26 -97 12 -15 21 -38 21 -51 0 -14 22 -48 53 -83 50 -56
55 -67 80 -167 15 -59 27 -116 27 -127 0 -11 11 -33 25 -49 14 -17 29 -52 34
-79 10 -48 57 -171 81 -210 20 -32 64 -53 109 -53 22 0 61 -5 86 -12 41 -11
47 -10 77 12 119 86 261 218 392 361 119 131 167 193 229 294 71 118 81 140
128 303 50 168 51 177 36 206 -9 17 -21 77 -27 134 -12 102 -12 102 -40 102
-19 0 -29 -6 -33 -20 l-5 -20 -35 20 c-27 16 -61 65 -155 223 -66 111 -160
264 -209 341 -86 135 -91 141 -258 288 -148 130 -182 156 -265 195 -66 31
-121 49 -180 59 -101 16 -128 16 -197 0z"/>
<path d="M8015 8708 c-3 -13 -5 -53 -3 -88 3 -64 4 -65 46 -93 40 -27 42 -30
28 -46 -9 -10 -16 -24 -16 -33 0 -21 42 -58 67 -58 11 0 28 -9 38 -20 18 -19
17 -20 -6 -20 -13 1 -41 7 -61 14 -45 16 -47 11 -12 -35 40 -54 74 -126 74
-158 0 -48 19 -47 68 2 43 43 46 50 47 99 0 51 -1 53 -35 64 l-34 11 31 16
c20 11 34 27 38 46 6 29 26 41 72 41 30 0 56 50 44 82 -8 20 -20 26 -87 37
-175 29 -170 26 -209 92 -20 32 -40 59 -45 59 -5 0 -15 3 -24 6 -10 4 -17 -2
-21 -18z"/>
<path d="M9450 6063 c-22 -20 -35 -46 -46 -88 -9 -32 -24 -76 -35 -97 -26 -51
-25 -61 9 -55 142 30 141 29 182 13 22 -9 67 -16 99 -16 57 0 60 -2 107 -48
27 -26 56 -58 64 -70 16 -23 171 -84 243 -95 l37 -6 0 50 0 50 -146 142 c-135
131 -150 143 -198 153 -88 18 -125 35 -147 65 -19 26 -26 29 -80 29 -50 0 -63
-4 -89 -27z"/>
</g>
</svg>
