<?xml version="1.0" standalone="no"?>
<!DOCTYPE svg PUBLIC "-//W3C//DTD SVG 20010904//EN"
 "http://www.w3.org/TR/2001/REC-SVG-20010904/DTD/svg10.dtd">
<svg version="1.0" xmlns="http://www.w3.org/2000/svg"
 width="1024.000000pt" height="1024.000000pt" viewBox="0 0 1024.000000 1024.000000"
 preserveAspectRatio="xMidYMid meet">
<metadata>
Created by potrace 1.10, written by Peter Selinger 2001-2011
</metadata>
<g transform="translate(0.000000,1024.000000) scale(0.100000,-0.100000)"
fill="#000000" stroke="none">
<path d="M6619 10141 c-65 -125 -91 -145 -181 -138 -77 7 -143 45 -245 141
l-83 78 -57 -28 c-68 -33 -131 -94 -156 -150 -25 -54 -60 -74 -136 -74 -34 0
-61 -3 -61 -7 0 -5 19 -21 41 -38 22 -16 43 -41 46 -55 4 -15 -6 -73 -25 -146
-18 -67 -32 -142 -32 -166 0 -64 -30 -102 -140 -178 -58 -40 -96 -73 -98 -85
-1 -11 6 -47 18 -79 11 -33 20 -69 20 -81 0 -13 7 -28 15 -35 22 -19 19 -23
-30 -43 -24 -10 -63 -32 -85 -48 -50 -36 -52 -67 -10 -116 27 -30 30 -41 30
-100 0 -61 3 -70 31 -99 39 -40 35 -56 -38 -137 -72 -80 -93 -115 -93 -153 0
-19 -13 -49 -34 -78 -30 -43 -33 -52 -24 -78 9 -24 6 -34 -16 -66 -14 -20 -48
-59 -76 -87 -59 -58 -63 -82 -25 -153 15 -29 25 -63 25 -89 0 -34 5 -46 24
-58 16 -11 26 -29 30 -58 11 -72 25 -102 56 -120 23 -14 30 -25 30 -50 0 -18
1 -45 2 -62 1 -16 -2 -42 -6 -56 -6 -23 -3 -29 28 -47 20 -12 36 -27 36 -35 0
-15 -55 -69 -87 -86 -12 -6 -33 -11 -48 -11 -39 0 -42 -26 -6 -70 34 -43 36
-52 19 -80 -10 -16 -9 -23 10 -43 l22 -24 -68 -46 c-37 -26 -74 -47 -83 -47
-22 0 -41 -24 -78 -98 -52 -104 -147 -192 -213 -197 -15 -1 -34 -8 -43 -15 -8
-7 -44 -16 -80 -19 -80 -9 -107 -31 -135 -115 -25 -75 -28 -80 -65 -98 -45
-23 -108 -29 -162 -18 -41 9 -60 7 -133 -15 -183 -54 -233 -83 -271 -157 -11
-21 -33 -45 -49 -53 -36 -18 -37 -31 -9 -121 20 -64 20 -75 9 -155 -11 -74
-10 -93 3 -135 42 -131 48 -231 17 -259 -26 -24 -25 -37 7 -86 31 -47 29 -52
-52 -148 -30 -35 -52 -68 -49 -73 3 -5 -8 -21 -25 -37 -17 -16 -31 -38 -31
-49 0 -10 -9 -31 -21 -46 -22 -28 -22 -43 2 -124 12 -37 11 -46 -5 -73 -14
-23 -16 -41 -12 -74 7 -42 6 -44 -40 -81 -26 -22 -53 -54 -61 -72 -7 -18 -20
-35 -28 -39 -9 -3 -15 -18 -15 -38 0 -18 -9 -44 -20 -58 -17 -21 -20 -40 -20
-119 0 -74 -4 -102 -20 -133 -11 -21 -25 -54 -31 -72 -15 -47 -115 -152 -165
-174 -68 -29 -114 -107 -114 -194 0 -44 -31 -139 -70 -213 -15 -28 -20 -51
-16 -67 9 -37 -7 -59 -74 -105 -63 -43 -75 -63 -65 -110 5 -21 -1 -51 -21
-100 l-27 -70 26 -66 26 -65 -29 -73 c-26 -63 -29 -83 -27 -163 2 -80 -1 -94
-19 -115 -37 -41 -37 -47 0 -93 41 -50 43 -58 18 -107 -16 -31 -17 -44 -9 -86
16 -78 -5 -157 -54 -204 l-38 -37 -10 -148 c-5 -95 -15 -162 -25 -187 -22 -53
-20 -68 14 -136 28 -55 29 -64 23 -137 -6 -74 -8 -80 -44 -113 -21 -19 -39
-42 -40 -50 -7 -37 15 -104 43 -136 l31 -35 -27 -28 c-15 -15 -31 -44 -37 -64
-11 -40 -33 -56 -127 -88 -78 -27 -85 -34 -67 -70 20 -37 19 -112 -2 -152 -9
-18 -32 -56 -51 -84 -34 -52 -35 -54 -24 -110 6 -32 14 -80 17 -107 10 -90 82
-190 147 -203 32 -6 68 -58 89 -130 l12 -43 106 0 c58 0 189 -7 291 -15 108
-8 322 -15 513 -15 244 0 334 -3 350 -12 15 -9 107 -15 307 -19 830 -18 1543
-39 1581 -48 107 -25 136 -13 215 90 61 80 88 93 175 84 80 -8 78 -11 57 102
-11 61 -10 68 10 107 47 88 125 113 227 72 109 -43 117 -40 131 57 11 82 48
111 183 143 36 8 90 26 120 39 39 18 71 25 117 25 59 0 67 -3 104 -36 l40 -36
52 12 c29 7 59 14 66 16 6 2 12 13 12 24 0 21 -14 27 -25 10 -11 -18 -54 -11
-65 11 -20 36 -24 122 -7 143 14 19 15 19 46 -11 17 -17 31 -39 31 -47 0 -9 3
-16 8 -16 11 0 42 60 42 83 0 11 29 70 64 131 35 61 69 128 76 148 6 21 17 41
24 45 20 13 77 114 74 131 -2 9 -14 19 -28 22 -14 3 -30 16 -36 29 -17 33
-131 147 -182 181 -37 25 -47 27 -73 18 -16 -5 -35 -8 -43 -5 -10 4 -17 -14
-28 -69 l-14 -74 31 0 c20 0 40 -9 53 -23 28 -30 28 -41 -3 -55 -34 -16 -56
-15 -79 3 -23 17 -76 19 -124 6 -30 -9 -32 -8 -32 17 0 18 15 40 54 76 57 53
80 93 70 123 -4 10 -23 33 -43 50 l-36 33 28 0 c15 0 36 -5 46 -12 15 -9 24
-8 44 5 25 16 26 16 46 -11 l20 -27 1 27 c0 15 -5 48 -12 73 -16 58 2 170 37
238 14 27 25 54 25 60 0 5 -63 71 -139 146 -131 128 -139 138 -134 168 4 26
-2 40 -32 78 -30 36 -44 45 -69 45 -56 0 -99 67 -111 171 -3 30 -8 70 -10 90
-4 30 2 46 30 88 31 44 34 55 29 93 -5 33 -2 47 10 57 18 15 21 47 6 56 -5 3
-10 18 -10 33 0 15 -7 49 -15 76 -21 70 -19 91 16 130 l30 35 -26 40 c-26 39
-27 43 -35 293 -8 221 -31 543 -45 618 -3 14 -12 313 -20 665 -28 1152 -82
2461 -160 3920 -41 770 -77 1404 -78 1410 -2 5 -28 -37 -58 -94z"/>
</g>
</svg>
