<?xml version="1.0" standalone="no"?>
<!DOCTYPE svg PUBLIC "-//W3C//DTD SVG 20010904//EN"
 "http://www.w3.org/TR/2001/REC-SVG-20010904/DTD/svg10.dtd">
<svg version="1.0" xmlns="http://www.w3.org/2000/svg"
 width="1024.000000pt" height="1024.000000pt" viewBox="0 0 1024.000000 1024.000000"
 preserveAspectRatio="xMidYMid meet">
<metadata>
Created by potrace 1.10, written by Peter Selinger 2001-2011
</metadata>
<g transform="translate(0.000000,1024.000000) scale(0.100000,-0.100000)"
fill="#000000" stroke="none">
<path d="M4655 10212 c-17 -15 -72 -42 -122 -60 -74 -27 -97 -40 -118 -68 -23
-30 -26 -42 -21 -74 6 -36 3 -41 -29 -66 -23 -17 -35 -35 -35 -50 0 -22 -4
-24 -52 -24 -44 0 -62 -7 -124 -45 -78 -49 -85 -51 -133 -34 -35 12 -38 24
-15 50 18 20 11 39 -13 39 -29 0 -93 -44 -113 -77 -12 -21 -20 -52 -20 -82 0
-69 -10 -74 -89 -45 -44 17 -78 38 -103 64 -47 50 -75 57 -119 31 -19 -12 -41
-21 -50 -21 -18 0 -59 40 -59 58 0 7 -4 12 -9 12 -24 0 -43 -15 -63 -51 -12
-21 -30 -41 -40 -45 -14 -4 -18 -14 -16 -37 3 -30 1 -32 -30 -35 -26 -3 -38
-11 -53 -37 -26 -44 -45 -50 -65 -20 -8 13 -44 42 -80 65 -35 23 -64 46 -64
51 0 5 -10 9 -22 9 -13 0 -52 14 -88 31 -35 17 -66 27 -67 22 -16 -46 -42 -77
-73 -87 -30 -9 -35 -16 -38 -46 -4 -40 -25 -68 -64 -84 l-27 -12 37 -55 c20
-31 102 -124 181 -207 l145 -152 -3 -57 -3 -56 34 21 c29 19 34 27 38 76 3 30
8 58 12 62 11 11 45 -23 52 -52 6 -21 11 -24 29 -18 42 13 52 10 50 -16 -2
-14 -5 -46 -7 -72 -3 -42 -9 -53 -46 -86 -32 -28 -42 -43 -37 -56 5 -12 13
-15 27 -11 40 13 18 -29 -23 -44 -23 -9 -27 -15 -21 -34 9 -29 117 -182 163
-230 51 -55 154 -100 207 -92 37 5 44 2 85 -33 24 -22 58 -46 76 -56 58 -30
102 -14 67 25 -19 21 -19 21 14 38 18 10 21 15 12 26 -10 12 -4 13 37 8 47 -5
51 -4 79 29 16 19 41 43 57 53 24 16 30 16 45 3 9 -8 36 -20 58 -26 33 -10 45
-20 60 -50 20 -43 103 -142 118 -142 6 0 17 -4 24 -8 25 -16 -2 -53 -59 -80
-33 -17 -55 -35 -58 -46 -5 -28 37 -56 71 -49 16 3 35 0 43 -7 13 -11 20 -9
40 10 l23 22 16 -30 c20 -39 20 -39 -4 -45 -10 -3 -27 -21 -36 -40 -14 -30
-15 -39 -4 -52 18 -21 33 -19 60 10 30 32 80 35 80 5 0 -16 7 -20 34 -20 37 0
62 -27 72 -79 5 -23 2 -32 -16 -43 -25 -15 -54 -68 -65 -118 -9 -44 -22 -60
-48 -60 -12 0 -35 -14 -53 -31 -27 -26 -37 -30 -64 -24 -20 4 -34 15 -40 30
-8 22 -12 23 -42 14 -52 -16 -168 -32 -225 -30 l-53 1 20 -32 c11 -18 20 -40
20 -49 0 -23 -37 -58 -109 -102 -33 -21 -61 -42 -61 -47 0 -17 128 -80 163
-80 29 0 42 -7 70 -40 23 -27 39 -38 50 -34 9 3 28 -3 43 -15 15 -12 33 -21
41 -21 8 0 32 -20 54 -44 32 -35 59 -51 137 -81 53 -21 103 -46 111 -56 10
-14 26 -19 63 -19 43 0 55 -5 98 -42 l48 -41 -5 -53 c-5 -48 -2 -59 42 -143
42 -79 53 -92 84 -102 74 -24 109 -48 116 -77 3 -16 19 -39 35 -51 21 -15 30
-30 30 -49 0 -16 16 -54 35 -86 42 -70 140 -183 166 -191 13 -4 19 -16 19 -34
0 -36 28 -65 100 -101 33 -17 69 -43 80 -58 15 -20 28 -28 43 -25 19 3 27 -8
57 -69 19 -39 54 -92 78 -116 47 -49 46 -44 32 -126 -9 -57 -8 -60 19 -91 16
-18 31 -49 35 -68 5 -26 18 -45 47 -68 46 -36 50 -34 71 34 12 39 31 45 36 11
2 -10 20 -44 40 -74 36 -53 39 -55 87 -58 71 -4 95 -18 95 -57 0 -20 8 -39 23
-53 26 -25 45 -27 81 -11 38 18 76 -10 76 -56 0 -37 -23 -65 -75 -92 -16 -9
-33 -21 -37 -27 -4 -6 -8 -7 -8 -2 0 6 -13 -3 -30 -19 -37 -35 -39 -71 -5 -87
13 -6 28 -24 34 -39 5 -16 15 -29 20 -29 6 0 17 -16 25 -35 10 -24 22 -35 35
-35 12 0 21 -5 21 -11 0 -8 12 -10 34 -6 30 5 35 3 38 -16 2 -13 13 -23 28
-27 31 -7 37 -33 15 -67 -16 -24 -16 -28 6 -74 l23 -49 -32 -33 c-17 -17 -34
-45 -38 -60 -3 -16 -17 -33 -31 -40 l-24 -10 33 -34 c22 -23 27 -33 16 -33
-29 0 -31 -47 -3 -88 19 -27 25 -50 25 -89 0 -28 5 -64 10 -79 9 -22 7 -31 -8
-48 -56 -65 -106 -165 -100 -201 3 -11 -2 -27 -10 -35 -13 -12 -12 -15 4 -27
11 -8 30 -17 44 -20 33 -8 41 -22 34 -56 -4 -21 8 -55 51 -141 31 -63 59 -131
62 -153 4 -28 -5 -71 -31 -154 l-37 -116 9 -157 c9 -151 10 -159 38 -199 l29
-41 -49 -93 -49 -93 -32 20 c-19 12 -50 20 -76 20 -38 0 -48 -5 -89 -48 -94
-95 -93 -95 -137 -83 -56 15 -92 0 -143 -60 -37 -44 -46 -49 -81 -49 -22 0
-56 7 -76 15 -49 21 -63 1 -26 -37 l26 -27 -27 -35 c-26 -34 -26 -37 -11 -66
8 -16 20 -30 25 -30 6 0 10 -7 10 -16 0 -12 -11 -15 -57 -13 -32 2 -66 -1 -76
-5 -14 -7 -18 -2 -23 23 -7 34 -29 40 -90 22 -29 -8 -33 -6 -44 17 -12 26 -12
26 -27 7 -8 -11 -17 -32 -20 -47 -5 -26 -7 -27 -51 -21 -37 5 -47 3 -58 -12
-18 -25 -18 -72 1 -125 8 -23 15 -57 15 -74 1 -17 6 -41 13 -53 18 -33 113
-100 167 -118 37 -12 50 -22 54 -41 4 -15 2 -32 -5 -40 -12 -15 -10 -29 16
-88 l16 -39 -47 6 c-37 4 -54 12 -70 32 -31 40 -60 29 -78 -27 -3 -11 -15 -18
-30 -18 -21 0 -26 6 -32 35 -3 20 -15 40 -25 46 -14 7 -19 21 -19 50 0 46 -21
61 -49 35 -10 -9 -49 -27 -87 -40 -38 -13 -86 -34 -107 -46 -37 -22 -40 -22
-73 -6 -20 9 -65 21 -102 26 -63 9 -68 8 -83 -12 -21 -27 -15 -45 25 -80 l31
-27 -80 -81 c-76 -76 -82 -80 -125 -80 -61 0 -162 -22 -191 -42 -15 -9 -31
-36 -42 -69 l-17 -54 46 -46 c43 -44 49 -46 75 -37 44 15 98 2 111 -28 8 -18
22 -26 52 -31 37 -6 96 -52 96 -75 0 -5 -30 -36 -66 -71 l-66 -62 -5 -90 c-3
-50 -12 -102 -20 -118 -7 -15 -13 -44 -12 -65 1 -20 -6 -64 -15 -97 -20 -73
-21 -153 -2 -174 11 -14 11 -26 0 -80 -7 -36 -11 -67 -8 -70 4 -5 20 0 77 24
13 6 17 2 17 -18 0 -14 5 -29 10 -32 6 -3 10 -17 10 -30 0 -28 -22 -35 -64
-22 -24 8 -31 7 -46 -12 -13 -18 -24 -22 -51 -19 -25 2 -34 -1 -37 -14 -2 -12
7 -20 37 -27 23 -6 59 -16 81 -21 29 -8 64 -8 123 1 90 13 112 28 122 82 5 27
14 36 52 51 51 21 103 84 103 125 0 14 5 42 10 61 22 78 287 209 423 210 27 0
45 7 62 25 23 22 25 32 25 114 l0 89 34 -34 c36 -36 51 -39 156 -35 42 2 61 8
78 25 l24 23 -26 49 c-30 58 -54 87 -84 103 -13 7 -22 21 -22 35 0 35 28 24
64 -24 35 -46 83 -71 97 -49 23 37 0 82 -60 116 -72 40 -67 53 19 53 39 0 70
4 70 9 0 6 16 7 35 4 l35 -6 0 42 c0 38 -3 42 -29 47 -15 3 -41 17 -57 30
l-29 23 38 1 c37 0 77 27 77 52 0 7 -12 24 -27 40 -30 31 -26 46 7 28 12 -6
29 -9 37 -6 14 6 14 9 -2 25 -27 31 -16 49 22 39 30 -8 32 -10 21 -34 -10 -21
-8 -28 10 -46 12 -12 23 -20 24 -17 2 2 11 18 20 34 20 37 35 40 82 21 30 -13
36 -20 36 -46 0 -37 1 -37 131 21 49 22 102 39 123 39 20 0 36 4 36 8 0 4 15
25 34 45 25 27 42 37 64 37 17 0 43 10 59 24 39 32 68 46 96 46 35 0 122 95
131 143 6 32 11 37 34 37 15 0 39 -6 53 -14 32 -16 52 -7 69 34 9 21 21 31 45
36 23 4 36 14 47 38 13 27 24 34 68 44 40 9 56 10 67 1 11 -10 22 -4 56 28 60
56 94 75 130 71 25 -2 32 1 35 17 2 11 9 36 16 55 8 21 12 56 9 88 -6 52 9 74
20 31 12 -46 53 8 79 107 11 41 11 49 -9 85 -12 21 -17 39 -12 39 5 0 14 11
19 25 l9 25 25 -25 c34 -34 58 -33 54 3 -2 19 -12 31 -34 41 -45 19 -65 66
-48 111 17 47 7 139 -17 163 -22 21 -25 47 -6 47 26 0 50 -27 56 -65 3 -21 12
-40 19 -43 14 -4 49 68 54 113 3 29 2 30 -34 27 -34 -3 -38 -1 -38 20 0 14
-11 35 -25 48 -32 30 -31 38 2 38 20 0 38 12 65 42 21 23 38 49 38 56 0 8 9
14 21 14 25 0 59 17 59 30 0 5 -24 27 -52 49 -73 55 -81 70 -67 125 9 37 8 50
-5 77 -10 21 -13 36 -7 43 13 15 1 33 -23 37 -20 4 -43 55 -31 67 4 4 17 -5
30 -20 15 -17 30 -26 39 -22 13 5 13 12 -4 56 -10 28 -28 59 -40 70 -13 13
-20 31 -20 58 0 21 -5 51 -10 65 -6 17 -7 33 -1 43 8 14 11 13 21 -13 22 -62
22 -61 32 -33 6 19 5 37 -6 63 -9 21 -16 52 -16 69 -1 36 -20 66 -44 66 -9 0
-21 11 -26 24 -5 13 -14 27 -19 31 -6 3 -11 11 -11 17 0 6 10 2 23 -9 45 -41
50 -40 45 8 -5 43 -58 140 -91 167 -21 18 -33 108 -16 128 19 23 -18 123 -50
135 -18 7 -22 15 -18 35 2 15 -4 50 -14 80 -11 29 -19 59 -19 66 0 7 -9 19
-21 26 l-21 13 22 24 c17 18 21 30 16 52 -4 15 -10 43 -13 61 -4 23 -11 32
-24 32 -10 0 -23 9 -29 20 -13 24 -35 26 -44 5 -9 -25 -26 -17 -32 15 -7 34
-11 36 -35 14 -25 -22 -34 -13 -49 51 -8 35 -26 70 -47 94 -18 22 -41 57 -49
78 -18 43 -51 83 -70 83 -6 0 -17 14 -24 30 -7 17 -21 35 -31 41 -27 14 -24
46 6 65 14 9 25 23 25 30 0 20 -64 18 -84 -2 -9 -8 -26 -14 -38 -12 l-23 3 23
23 c12 12 22 30 22 41 0 15 -7 18 -40 17 -50 -1 -66 13 -50 45 11 19 10 24 -6
36 -16 12 -20 11 -30 -2 -6 -8 -23 -15 -37 -15 -14 0 -29 -5 -32 -10 -8 -12
-46 -3 -57 14 -4 6 -8 23 -8 37 0 23 -8 30 -56 49 -53 22 -228 129 -221 136 8
9 95 -30 113 -51 19 -20 25 -22 39 -11 16 11 15 14 -11 35 -40 31 -103 71
-112 71 -4 0 -28 20 -52 45 -39 39 -50 45 -87 45 -40 0 -43 2 -52 38 -6 20
-11 47 -11 60 0 28 -25 78 -54 111 -11 13 -53 38 -93 56 -47 22 -73 40 -78 55
-4 12 -28 37 -55 56 -53 38 -74 75 -84 145 -5 36 -12 49 -31 57 -14 7 -25 19
-25 27 0 9 -10 29 -21 45 l-22 29 27 31 c31 38 32 42 5 65 -12 12 -19 29 -17
45 3 32 -8 50 -32 50 -11 0 -35 16 -54 35 -20 19 -44 35 -55 35 -10 0 -22 7
-25 16 -4 10 -16 14 -34 12 -23 -2 -36 6 -70 45 -23 27 -42 52 -42 58 0 5 -6
9 -14 9 -25 0 -46 30 -46 67 0 20 -9 46 -20 60 -11 14 -20 41 -20 59 0 26 -4
33 -22 36 -16 2 -25 13 -31 39 -5 24 -18 41 -38 53 -30 18 -49 51 -49 86 0 14
11 22 40 30 52 14 71 47 46 84 -20 32 -20 33 4 39 13 3 20 14 20 30 0 14 5 38
11 54 16 42 32 142 31 195 0 41 2 47 25 53 21 5 24 11 21 35 -3 21 1 35 14 47
10 9 18 29 18 44 0 34 7 39 95 64 57 16 73 26 92 54 13 19 36 42 52 52 16 9
32 30 35 46 7 25 9 26 20 10 15 -20 49 -23 63 -4 24 33 53 147 55 221 2 71 4
76 16 57 8 -12 23 -21 33 -21 23 0 24 10 4 36 -22 29 -18 36 14 29 40 -9 55
20 53 103 0 36 3 60 9 57 5 -4 9 -12 9 -18 1 -14 35 -57 45 -57 4 0 5 12 2 27
-6 32 39 83 72 83 14 0 21 6 21 20 0 27 19 25 51 -6 l28 -26 29 21 c17 11 42
21 56 21 16 0 32 9 42 26 15 22 19 23 26 10 11 -20 28 -21 28 -2 0 8 25 36 55
61 52 45 71 72 43 62 -7 -2 -22 0 -32 6 -15 7 -23 5 -36 -10 -26 -33 -56 -38
-63 -11 -8 28 7 38 60 38 32 0 46 5 55 20 7 11 20 20 28 21 8 0 27 8 41 17 53
34 84 57 94 68 15 18 65 26 80 14 20 -16 51 3 59 36 6 21 3 30 -11 37 -10 6
-36 29 -57 51 -95 99 -132 106 -247 51 -85 -41 -95 -42 -102 -15 -4 16 -14 20
-47 20 -33 0 -43 4 -47 20 -4 15 -14 20 -39 20 -48 0 -134 65 -134 102 0 44
-9 59 -29 46 -31 -19 -67 -2 -83 38 l-15 37 -22 -32 c-14 -20 -31 -31 -46 -31
-23 0 -23 1 -19 100 l5 99 -39 20 c-57 29 -63 41 -60 112 l3 63 37 9 c33 8 39
15 64 73 15 35 33 69 41 75 20 17 16 26 -17 45 -16 10 -36 34 -44 55 -14 35
-17 37 -73 43 -87 10 -93 9 -147 -19 -42 -22 -52 -24 -61 -12 -16 22 -71 47
-105 47 -17 0 -55 -8 -84 -19 -67 -23 -101 -17 -138 25 -16 18 -44 38 -62 44
-19 6 -42 20 -51 30 -14 15 -21 17 -31 9 -11 -9 -15 -2 -20 30 -5 33 -16 49
-48 75 -41 33 -98 66 -113 66 -4 0 -22 -13 -38 -28z"/>
</g>
</svg>
