<?xml version="1.0" standalone="no"?>
<!DOCTYPE svg PUBLIC "-//W3C//DTD SVG 20010904//EN"
 "http://www.w3.org/TR/2001/REC-SVG-20010904/DTD/svg10.dtd">
<svg version="1.0" xmlns="http://www.w3.org/2000/svg"
 width="1024.000000pt" height="1024.000000pt" viewBox="0 0 1024.000000 1024.000000"
 preserveAspectRatio="xMidYMid meet">
<metadata>
Created by potrace 1.10, written by Peter Selinger 2001-2011
</metadata>
<g transform="translate(0.000000,1024.000000) scale(0.100000,-0.100000)"
fill="#000000" stroke="none">
<path d="M5865 9335 c-38 -7 -121 -32 -183 -55 -100 -37 -117 -40 -145 -30
-29 10 -34 8 -58 -18 -21 -23 -28 -43 -33 -103 -6 -60 -48 -237 -58 -244 -2
-1 -28 -16 -58 -35 -99 -60 -259 -211 -260 -246 0 -5 14 -28 30 -51 30 -41 30
-41 18 -104 l-13 -64 -60 -21 -60 -22 -28 24 c-41 34 -87 31 -162 -11 -56 -31
-65 -33 -99 -24 -21 6 -39 9 -41 7 -2 -2 9 -55 25 -118 16 -63 30 -122 30
-130 0 -9 -33 -44 -74 -78 -66 -56 -78 -62 -118 -62 -43 0 -47 -3 -94 -61 -55
-69 -64 -74 -151 -84 -57 -6 -64 -10 -83 -40 -17 -27 -39 -41 -129 -77 -108
-43 -109 -44 -188 -133 -44 -50 -102 -108 -129 -130 -59 -48 -61 -50 -69 -94
-4 -19 -26 -60 -51 -91 -43 -55 -44 -55 -116 -65 l-73 -10 -7 -55 c-3 -30 -15
-84 -26 -120 l-19 -65 -66 -3 c-63 -3 -66 -4 -100 -46 -19 -23 -54 -51 -76
-61 l-42 -18 -32 31 c-29 28 -40 32 -88 32 l-55 0 -20 -62 -20 -63 -68 -5 -67
-5 -33 -75 -32 -75 -49 -3 c-28 -1 -91 -16 -142 -33 l-92 -30 -54 -97 -54 -97
-59 -12 c-32 -6 -92 -16 -131 -23 l-73 -12 -55 -66 -55 -66 0 -76 c0 -124 -57
-247 -208 -447 l-99 -133 -33 -164 -32 -165 41 -71 c22 -40 41 -73 41 -75 0
-2 -19 -6 -42 -10 -115 -17 -106 -13 -114 -63 -4 -28 -16 -54 -30 -67 l-23
-22 30 -41 c28 -38 30 -45 19 -76 -14 -45 -57 -71 -139 -85 -35 -6 -65 -12
-66 -13 -1 -2 -17 -47 -34 -100 l-33 -98 -87 0 -88 0 -18 -48 c-10 -26 -35
-65 -56 -87 -43 -45 -49 -76 -27 -148 12 -39 12 -40 -30 -76 -41 -34 -42 -38
-42 -93 0 -31 5 -69 10 -84 10 -26 7 -32 -43 -82 -48 -48 -57 -53 -75 -43 -18
10 -32 4 -96 -41 l-75 -53 -1 -67 0 -66 -161 -194 c-89 -106 -166 -196 -172
-199 -5 -4 -44 -10 -86 -14 -42 -4 -79 -9 -82 -10 -3 -2 -1 -34 5 -70 l9 -66
-42 -43 c-39 -40 -42 -47 -34 -73 9 -27 11 -28 91 -31 91 -3 139 14 200 71
l32 31 0 -60 c0 -47 30 -190 42 -199 2 -1 42 3 90 8 110 13 148 -1 202 -74
l36 -49 65 0 c64 0 65 -1 89 -37 13 -21 32 -68 41 -105 l18 -68 116 0 c115 0
117 0 209 41 51 23 94 40 96 38 2 -2 31 -46 65 -96 34 -51 64 -93 66 -93 3 0
28 14 56 31 l51 32 47 -47 c46 -45 48 -46 112 -46 l65 0 38 -50 c38 -49 39
-50 95 -51 56 0 56 0 99 -54 60 -77 66 -97 52 -175 -12 -66 -12 -66 22 -135
20 -39 50 -115 68 -171 28 -85 38 -104 66 -122 20 -13 57 -62 98 -131 64 -105
69 -111 139 -151 39 -24 117 -58 171 -76 l100 -34 248 0 c239 0 249 1 300 24
29 13 64 36 78 51 14 15 66 52 115 82 50 31 93 61 97 66 3 6 9 36 13 68 l7 57
78 22 c70 20 82 27 106 62 15 21 55 61 89 88 38 30 68 64 79 89 l18 40 82 4
c63 3 106 13 193 45 61 22 139 46 172 53 l61 12 0 37 c0 21 14 69 31 109 l32
71 52 0 c28 0 77 5 108 11 41 9 64 9 88 0 25 -8 47 -8 91 0 49 10 64 19 98 55
22 24 40 50 40 57 0 8 -18 37 -40 65 -39 49 -40 52 -40 130 l0 80 35 6 c45 9
51 4 59 -39 9 -49 43 -47 105 4 39 32 56 40 96 43 46 3 50 5 59 36 l9 32 144
0 c127 0 149 -2 185 -21 l42 -21 56 62 56 63 45 -64 c44 -64 45 -64 114 -78
39 -8 98 -14 132 -13 l61 1 7 -39 c7 -42 12 -45 76 -55 31 -5 66 0 119 14 41
12 75 21 77 21 1 0 25 -38 54 -85 46 -76 68 -101 69 -77 0 4 13 22 28 40 27
32 28 33 62 19 19 -8 54 -18 76 -22 l42 -6 31 81 c27 71 31 95 31 176 0 91 1
94 23 94 12 -1 46 -21 76 -45 l55 -44 40 21 c69 35 177 68 225 68 46 0 46 1
99 75 30 41 56 75 57 75 2 0 27 -5 55 -11 l50 -11 0 -89 0 -89 39 0 c34 0 44
6 70 39 23 28 50 46 103 68 67 27 74 32 82 65 8 31 5 43 -22 90 l-32 55 26 24
c14 13 43 55 65 94 21 38 55 91 75 118 l36 47 -66 0 -66 0 0 64 0 65 53 30 54
31 69 -20 c38 -11 97 -20 131 -20 l63 0 0 74 c0 83 -9 74 92 92 31 5 39 12 48
40 11 34 12 34 73 34 50 0 70 -5 99 -25 33 -22 47 -25 132 -25 l94 0 67 120
67 120 44 0 c38 0 46 4 56 25 14 31 138 112 184 121 44 8 48 15 70 107 16 68
22 80 51 98 42 26 43 55 3 144 -22 50 -30 82 -30 125 0 66 -5 62 113 76 50 5
60 10 75 36 9 16 42 44 72 63 53 32 60 33 190 39 74 3 182 9 240 12 58 4 121
2 140 -3 23 -6 50 -6 80 2 44 11 45 11 48 57 2 37 -37 232 -50 242 -1 2 -25
16 -52 31 -38 22 -61 47 -104 113 -30 47 -65 116 -78 154 l-23 69 45 21 c32
16 43 26 38 38 -3 8 -9 57 -12 108 -4 83 -7 95 -27 108 -14 9 -27 33 -34 59
-10 38 -8 52 12 109 13 35 37 81 54 103 26 33 31 49 37 123 3 47 9 102 12 123
l7 37 67 0 c65 0 68 1 79 29 7 15 30 45 52 67 61 59 56 88 -27 158 l-65 56
-75 0 -74 0 0 44 c0 43 0 43 -52 63 l-53 20 -3 56 c-2 44 -7 59 -22 67 -19 10
-29 60 -12 60 4 0 18 9 32 19 l24 19 -47 23 -47 23 0 65 c0 63 -2 67 -33 87
-30 19 -36 19 -96 7 -35 -7 -95 -22 -132 -33 -69 -21 -69 -21 -114 -1 -29 13
-92 66 -182 154 l-138 135 22 68 c12 38 27 102 34 143 7 45 20 89 34 110 13
20 33 59 44 87 l20 52 -25 23 c-18 17 -24 33 -24 65 0 41 0 42 -46 53 -26 7
-73 25 -105 42 -59 29 -59 30 -59 73 0 40 -4 47 -34 65 -35 22 -40 34 -51 111
-5 39 -2 52 27 99 31 50 38 56 101 77 37 12 81 32 97 44 l30 21 -54 45 c-48
39 -56 50 -66 98 -10 49 -9 59 9 95 12 22 21 42 21 45 0 3 -52 32 -115 66
-107 57 -119 66 -172 137 -32 41 -63 82 -70 90 -7 9 -70 22 -195 39 -209 29
-229 27 -409 -32 -78 -26 -113 -43 -135 -65 -16 -17 -74 -66 -129 -108 l-100
-76 -80 -8 c-44 -4 -105 -10 -135 -13 l-55 -5 -55 55 c-30 31 -63 56 -73 56
-10 0 -35 -10 -56 -22 l-38 -22 -69 31 c-38 17 -68 35 -66 42 1 6 3 16 5 23 1
6 -13 16 -31 21 -30 9 -36 7 -66 -22 -19 -18 -77 -52 -129 -76 l-96 -43 -76
65 c-75 64 -77 66 -112 55 -30 -9 -50 -6 -141 22 l-107 32 -10 61 c-5 34 -14
66 -20 71 -5 5 -49 26 -97 47 l-88 38 0 51 c0 51 -1 52 -83 134 -89 89 -84 87
-192 67z"/>
<path d="M980 4706 c0 -30 8 -40 56 -79 54 -43 56 -44 100 -34 25 6 43 15 41
21 -3 6 -13 37 -23 69 l-18 57 -78 0 -78 0 0 -34z"/>
<path d="M590 4059 c0 -18 14 -32 55 -56 l55 -32 0 28 c0 39 -28 69 -72 77
-35 6 -38 4 -38 -17z"/>
<path d="M2220 972 c0 -38 2 -71 5 -74 8 -7 105 13 105 22 0 12 -91 120 -101
120 -5 0 -9 -31 -9 -68z"/>
</g>
</svg>
