<?xml version="1.0" standalone="no"?>
<!DOCTYPE svg PUBLIC "-//W3C//DTD SVG 20010904//EN"
 "http://www.w3.org/TR/2001/REC-SVG-20010904/DTD/svg10.dtd">
<svg version="1.0" xmlns="http://www.w3.org/2000/svg"
 width="1024.000000pt" height="1024.000000pt" viewBox="0 0 1024.000000 1024.000000"
 preserveAspectRatio="xMidYMid meet">
<metadata>
Created by potrace 1.10, written by Peter Selinger 2001-2011
</metadata>
<g transform="translate(0.000000,1024.000000) scale(0.100000,-0.100000)"
fill="#000000" stroke="none">
<path d="M5070 10233 c-25 -1 -110 -9 -190 -18 -85 -9 -595 -30 -1225 -50
-594 -19 -1117 -38 -1162 -41 l-83 -6 0 -561 c-1 -485 6 -765 51 -2047 l53
-1485 -48 -1430 c-26 -786 -47 -1436 -46 -1442 0 -19 -52 -16 -110 7 -63 25
-96 25 -109 2 -5 -10 -43 -31 -83 -47 -40 -15 -79 -32 -86 -38 -9 -7 -11 -35
-9 -98 l4 -89 48 -51 c38 -41 46 -55 41 -76 -4 -14 -2 -31 5 -39 9 -11 9 -21
1 -38 -6 -13 -8 -34 -5 -46 4 -15 -3 -30 -22 -50 -26 -27 -27 -33 -21 -84 6
-46 14 -63 46 -97 32 -35 38 -47 33 -71 -5 -24 -2 -30 15 -34 18 -5 19 -8 6
-32 -7 -15 -16 -40 -19 -55 -5 -27 -8 -28 -43 -22 -34 5 -40 2 -81 -39 -25
-25 -42 -49 -38 -53 4 -3 13 -1 19 5 16 16 25 15 32 -3 4 -11 -9 -22 -44 -40
-28 -14 -50 -30 -50 -36 0 -5 -14 -15 -31 -21 -20 -7 -27 -13 -19 -18 15 -9 5
-64 -15 -80 -11 -9 -12 -17 -4 -32 10 -19 11 -19 37 -2 76 51 185 107 261 134
79 29 106 36 226 61 l40 8 -45 -4 c-25 -2 -59 -7 -77 -10 -29 -6 -31 -5 -26
14 3 12 19 32 35 46 32 27 121 57 143 48 10 -3 15 1 15 14 0 11 7 28 15 39 15
19 15 19 30 0 12 -16 17 -17 30 -6 12 10 18 8 34 -11 17 -21 22 -22 40 -11 33
19 44 15 73 -31 15 -24 45 -53 66 -65 39 -22 39 -22 57 -2 14 15 15 20 4 20
-10 0 -15 15 -16 50 -2 43 0 50 16 50 10 0 24 -7 31 -15 12 -14 16 -13 40 10
18 17 30 23 34 16 13 -20 24 -11 38 31 7 24 22 47 34 53 12 6 29 17 38 24 9 7
16 11 16 7 0 -3 24 7 53 24 30 16 59 30 65 30 14 0 16 -61 3 -76 -16 -17 -30
-73 -20 -79 5 -4 -2 -23 -16 -43 -14 -20 -25 -40 -25 -44 0 -18 99 32 144 73
42 38 77 56 196 101 80 31 170 64 200 74 49 16 52 18 30 24 -16 4 -39 0 -64
-13 -22 -10 -82 -34 -135 -53 -53 -19 -113 -44 -134 -55 -43 -24 -57 -18 -77
31 -11 27 -10 34 13 68 14 20 41 55 60 77 l35 40 19 -24 c31 -38 55 -22 47 29
-6 33 -4 40 10 40 10 0 26 -5 37 -10 19 -11 19 -11 -1 -49 l-19 -39 27 -5 c15
-3 33 -1 40 5 8 7 17 7 28 -3 14 -11 20 -7 50 27 18 21 36 50 39 64 3 14 14
42 24 62 11 22 15 40 10 44 -6 3 -7 14 -4 24 3 10 1 21 -5 25 -22 13 -8 25 30
25 51 0 68 -26 46 -69 -14 -27 -14 -30 6 -47 15 -14 22 -16 25 -6 7 18 31 14
38 -7 4 -13 12 -17 29 -14 19 4 25 0 30 -21 3 -14 13 -26 21 -26 23 0 28 20
10 40 -15 17 -14 20 27 52 93 74 100 77 125 61 27 -18 29 -30 6 -55 -15 -17
-14 -18 20 -18 31 0 37 -3 37 -22 0 -12 -10 -33 -22 -46 l-23 -25 49 7 c62 8
73 18 82 69 5 34 13 47 42 65 l36 24 23 -27 c13 -14 23 -33 23 -41 0 -9 11
-14 31 -14 27 0 30 2 19 16 -11 13 -10 16 8 21 12 3 22 12 22 19 0 8 9 14 20
14 22 0 26 -10 10 -26 -6 -6 33 -10 115 -10 119 0 125 1 125 21 -1 20 -1 20
-16 0 -27 -37 -42 13 -28 97 6 36 7 37 30 21 17 -11 24 -12 24 -3 0 7 7 10 15
6 13 -5 13 -2 -1 19 -9 14 -14 32 -10 40 4 10 -1 15 -14 15 -11 0 -20 -7 -20
-15 0 -8 -5 -15 -10 -15 -16 0 -24 31 -11 39 8 5 10 18 5 34 -3 16 -2 27 4 27
6 0 17 3 26 6 10 4 18 -1 23 -12 3 -11 15 -30 25 -43 10 -13 18 -35 18 -48 0
-33 35 -80 44 -58 3 9 19 15 41 15 l35 0 0 60 c0 89 18 157 52 195 l29 34 -25
17 c-33 21 -33 34 -1 34 30 0 31 12 4 56 l-21 34 31 -5 c17 -3 45 -7 61 -10
24 -4 30 -1 30 13 0 10 -5 23 -12 30 -8 8 -5 14 16 22 15 5 31 10 35 10 4 0
14 -49 22 -110 14 -100 13 -113 -2 -152 -15 -40 -15 -45 2 -86 24 -56 24 -64
-6 -92 -14 -13 -33 -48 -41 -77 -8 -29 -20 -53 -25 -53 -5 0 -27 9 -49 20 -49
25 -53 25 -45 0 3 -10 1 -28 -4 -38 -9 -17 -6 -20 17 -25 48 -10 120 -64 154
-116 24 -35 41 -51 61 -53 32 -5 32 -2 11 51 -13 34 -14 46 -4 78 24 73 83
178 131 233 27 31 49 63 49 72 0 8 18 42 40 74 50 73 58 112 37 178 -9 28 -18
76 -21 107 -4 52 -2 59 22 82 15 13 41 32 59 41 l32 16 -24 25 c-14 13 -25 31
-25 40 0 27 -40 17 -53 -13 -7 -16 -18 -27 -25 -24 -7 2 -34 -10 -61 -27 -26
-17 -53 -31 -59 -31 -24 0 -11 26 23 44 19 11 60 46 91 78 l56 58 -7 50 c-6
41 -3 57 16 92 30 55 28 52 35 45 3 -3 -2 -53 -12 -112 l-17 -106 53 -54 53
-54 29 31 c15 16 28 41 28 53 0 13 11 37 25 53 30 36 31 45 4 81 -16 22 -19
39 -17 87 3 58 4 59 34 62 19 2 38 -3 47 -13 14 -14 17 -11 24 27 7 31 4 72
-9 143 -23 132 -23 153 9 232 46 117 33 279 -29 379 -14 22 -27 47 -31 57 -3
9 -15 17 -25 17 -31 0 -65 45 -58 74 6 26 36 37 36 14 0 -19 10 -3 20 32 9 31
8 32 -16 26 -14 -4 -32 -2 -40 4 -7 7 -17 9 -23 6 -12 -8 -25 30 -16 45 4 6
-2 17 -14 25 -25 18 -27 46 -6 64 12 10 13 16 5 24 -8 8 -16 6 -29 -9 -27 -32
-97 -73 -107 -63 -10 11 20 46 57 67 28 16 36 26 32 41 -3 11 -8 21 -12 21 -3
1 -15 3 -26 4 -11 1 -30 5 -41 9 -27 8 -22 35 18 90 15 21 28 45 28 53 0 7 5
13 11 13 8 0 10 -20 7 -61 l-4 -62 29 36 c24 31 32 35 48 27 13 -8 19 -22 19
-48 l0 -36 30 32 c36 39 86 62 137 62 20 0 56 9 79 21 38 18 44 25 49 63 12
76 5 91 -40 94 -42 4 -75 25 -75 49 0 8 24 38 54 67 l55 52 -22 34 c-20 32
-21 32 -30 12 -13 -28 -19 -27 -44 1 -19 20 -19 25 -7 55 17 39 38 41 60 6 15
-22 19 -23 32 -11 12 13 12 23 -1 83 -9 38 -19 101 -22 139 -6 56 -13 78 -34
104 l-27 33 -52 -26 c-54 -27 -87 -33 -97 -16 -3 6 0 10 8 10 7 0 26 13 41 29
21 22 39 30 81 34 66 7 75 12 75 42 0 18 -7 25 -28 30 -16 3 -46 23 -67 45
l-38 39 -25 -20 c-14 -10 -42 -22 -64 -25 -40 -7 -41 -8 -52 -88 -3 -23 -13
-44 -26 -53 -11 -8 -29 -32 -40 -54 -21 -39 -37 -48 -57 -28 -13 13 11 67 56
123 34 43 36 52 20 107 -10 32 -9 42 4 63 15 22 15 26 1 37 -25 21 -36 48 -25
66 7 12 5 21 -7 30 -12 9 -13 12 -4 13 9 0 11 7 7 21 -4 13 -1 25 9 32 13 11
12 16 -13 44 -16 17 -36 33 -46 35 -29 6 -21 23 12 26 43 4 107 -52 108 -94
l0 -29 95 -12 c52 -6 118 -14 145 -17 l50 -6 -37 22 c-21 12 -38 26 -38 30 0
12 48 10 55 -2 3 -5 14 -10 25 -10 29 0 13 36 -39 87 -37 37 -41 44 -22 38 74
-22 84 -31 98 -86 7 -29 18 -59 24 -66 16 -18 73 -18 66 1 -3 7 -9 35 -13 61
-6 42 -5 47 10 42 11 -5 28 6 53 34 31 34 38 38 50 26 13 -12 11 -18 -11 -42
-14 -15 -26 -24 -26 -19 0 5 -6 0 -12 -11 -7 -11 -13 -69 -15 -132 l-2 -112
44 -31 c24 -16 46 -30 49 -30 4 0 15 14 26 32 16 26 18 43 13 90 l-6 59 48 44
47 45 -15 39 c-13 30 -14 47 -6 76 8 27 7 51 -1 84 -11 44 -11 47 18 72 l30
27 -38 6 c-45 7 -120 70 -156 132 -15 26 -33 44 -44 44 -23 0 -45 26 -30 35 5
3 10 15 10 25 0 14 10 20 40 25 27 5 46 15 60 34 l19 28 -21 10 c-16 7 -30 5
-49 -6 -22 -13 -30 -13 -43 -2 -21 18 -13 27 29 35 45 9 45 26 -1 128 -20 44
-33 83 -29 86 4 4 10 1 12 -5 7 -19 23 -16 23 5 0 9 -9 23 -20 29 -12 8 -19
23 -18 40 1 16 -5 49 -12 76 -17 56 -8 70 56 92 21 7 40 20 42 27 2 8 -18 42
-43 76 -33 45 -51 62 -68 62 -19 0 -31 14 -61 72 -28 55 -34 73 -24 80 10 6 5
22 -19 67 -18 33 -33 63 -33 68 0 4 20 -14 44 -42 36 -40 47 -48 57 -37 7 6
26 12 41 12 24 0 28 4 28 30 0 22 14 45 51 86 40 44 49 61 44 78 -4 11 -7 32
-7 46 2 78 0 147 -6 247 -8 125 1 134 38 35 12 -32 31 -67 42 -79 12 -12 17
-27 13 -34 -5 -7 -1 -17 9 -24 14 -11 15 -16 2 -46 -26 -64 -28 -79 -13 -79 9
0 17 5 19 11 6 17 58 -30 58 -52 0 -22 -25 -26 -34 -4 -12 32 -35 10 -114
-110 -45 -68 -88 -128 -95 -132 -14 -9 -37 -48 -37 -63 0 -6 11 -15 25 -20 14
-5 30 -21 37 -35 15 -32 46 -42 62 -19 8 10 20 15 30 11 22 -9 16 -75 -8 -93
-16 -12 -15 -17 23 -67 41 -53 50 -77 31 -77 -5 0 -10 -9 -10 -20 0 -11 6 -20
13 -20 21 0 47 -34 47 -61 -1 -13 -9 -46 -19 -74 l-17 -50 30 -10 c28 -9 31
-14 34 -60 2 -27 9 -53 15 -57 22 -14 37 -8 37 14 0 20 1 20 19 4 16 -15 19
-28 15 -76 -4 -63 8 -85 31 -54 17 24 33 9 17 -16 -18 -29 -15 -47 14 -73 21
-19 28 -38 33 -83 l6 -59 115 -6 c159 -7 215 -38 192 -103 -16 -45 -15 -64 7
-91 26 -34 41 -14 42 60 0 33 4 69 8 80 7 18 10 17 30 -15 l21 -35 0 36 c0 24
5 39 15 43 9 3 15 19 15 41 0 30 -4 37 -35 49 -34 14 -41 27 -47 86 -3 21 -9
26 -43 30 -52 7 -85 32 -129 99 -34 51 -36 58 -36 142 0 53 4 91 11 95 6 4 8
20 4 40 -4 21 -2 34 5 34 13 0 30 -43 30 -76 0 -18 5 -24 23 -24 13 0 28 5 35
12 9 9 12 9 12 -2 0 -10 4 -9 18 3 10 10 22 15 25 12 4 -3 5 -2 2 1 -2 4 -57
37 -122 74 l-118 67 -5 49 c-6 54 -31 109 -54 117 -8 3 -22 17 -31 31 -15 22
-15 32 -4 74 12 48 11 53 -25 142 -21 52 -34 100 -31 111 3 10 24 35 46 56 62
59 64 64 25 122 l-35 51 36 106 36 107 -27 116 c-18 78 -26 144 -26 204 0 104
18 98 -190 62 -80 -14 -151 -25 -157 -25 -10 0 -13 154 -13 735 l0 735 -477
-2 c-263 -1 -498 -3 -523 -5z"/>
<path d="M6778 7294 c-3 -2 -3 -24 -1 -48 4 -35 1 -47 -20 -71 -21 -25 -27
-27 -41 -16 -13 11 -20 11 -41 -3 -14 -9 -25 -25 -25 -35 0 -23 83 -101 108
-101 23 0 77 -55 95 -99 l14 -33 8 28 c4 16 9 74 9 129 1 60 7 109 15 123 22
40 10 61 -55 97 -34 19 -63 32 -66 29z"/>
<path d="M6962 7177 c7 -12 14 -40 15 -62 6 -156 12 -198 34 -221 35 -38 1
-29 -51 12 -42 34 -45 35 -48 15 -2 -12 4 -53 12 -91 22 -95 20 -128 -8 -164
-28 -38 -34 -63 -41 -188 -3 -64 -12 -112 -25 -143 -24 -56 -25 -65 -5 -65 18
0 20 -33 3 -59 -11 -18 -12 -18 -30 4 -10 13 -18 33 -18 45 0 37 -26 6 -39
-47 -15 -60 -4 -227 18 -268 l16 -30 5 51 c6 56 24 86 48 82 25 -5 44 75 37
153 l-6 66 33 22 33 21 23 -28 c20 -23 22 -34 17 -79 -7 -61 3 -85 65 -156 42
-48 43 -49 31 -88 -11 -37 -10 -46 11 -87 43 -86 57 -67 107 141 14 59 33 89
67 108 23 12 27 11 35 -4 6 -9 19 -17 29 -17 17 0 20 8 22 48 4 88 -1 111 -42
189 -32 59 -41 86 -38 116 2 28 -2 41 -15 48 -9 6 -17 15 -17 21 0 6 -20 39
-45 74 -25 34 -45 70 -45 79 0 9 -9 33 -20 55 -11 22 -20 46 -20 55 0 20 19
20 26 0 4 -10 13 -13 25 -10 14 5 20 -2 30 -34 9 -31 15 -38 25 -30 9 7 18 5
33 -8 12 -10 30 -26 40 -35 11 -10 23 -37 27 -65 4 -29 14 -53 26 -61 20 -15
16 -34 -6 -26 -8 3 -16 -4 -19 -15 -9 -34 10 -24 74 38 l60 58 -14 34 c-29 69
-247 408 -301 467 -21 24 -75 55 -149 85 l-37 16 12 -22z"/>
<path d="M6266 7105 c3 -16 6 -40 7 -52 1 -15 9 -23 20 -23 16 0 16 2 -1 38
-11 20 -22 44 -26 52 -3 8 -3 2 0 -15z"/>
<path d="M7715 6158 c-4 -18 -25 -68 -46 -111 -48 -95 -66 -163 -79 -292 -5
-55 -12 -111 -16 -125 -7 -31 32 -92 63 -100 24 -5 64 -54 83 -100 9 -23 9
-34 -5 -61 -17 -32 -18 -32 -32 -13 -8 10 -31 52 -50 92 -20 39 -40 72 -44 72
-5 0 -9 -29 -9 -64 0 -65 4 -75 71 -165 30 -40 23 -75 -16 -76 -22 0 -35 -8
-52 -34 -28 -42 -26 -65 6 -69 l24 -4 -7 -136 c-6 -118 -9 -139 -26 -152 -24
-19 -38 -113 -20 -135 16 -19 31 -19 24 0 -5 12 3 15 35 15 39 0 43 3 58 37
11 27 14 57 10 101 -8 102 16 157 64 145 28 -8 30 -31 7 -76 -12 -23 -27 -71
-35 -106 -8 -39 -24 -77 -42 -100 -45 -58 -51 -74 -53 -163 -2 -101 9 -165 33
-197 24 -30 23 -41 -6 -126 l-24 -69 31 -36 c52 -61 109 -144 115 -168 3 -13
-1 -51 -9 -85 -8 -34 -13 -81 -10 -104 4 -42 -1 -49 -32 -44 -5 1 -6 -8 -2
-21 3 -13 6 -31 6 -41 0 -15 4 -14 38 8 33 22 70 30 159 34 19 1 22 5 17 31
-11 54 2 74 76 119 39 23 76 41 83 40 26 -3 34 2 45 26 7 15 20 25 33 25 19 0
21 4 15 44 -7 42 -5 45 38 83 39 34 43 42 31 54 -17 17 -49 239 -37 251 5 5
21 -7 36 -27 16 -20 36 -35 48 -35 15 0 19 -5 15 -19 -3 -11 1 -22 8 -24 7 -3
15 -20 19 -38 3 -18 8 -30 10 -28 9 10 -43 702 -71 934 -16 144 -23 165 -78
245 -37 55 -37 55 -32 139 4 64 10 90 26 112 30 40 41 109 43 267 l2 135 -105
25 c-57 13 -137 32 -178 41 -68 16 -80 23 -98 59 -1 3 -138 41 -150 42 -1 0
-5 -15 -8 -32z"/>
<path d="M6388 6084 c-5 -4 -8 -17 -8 -29 0 -11 -6 -27 -12 -33 -10 -10 -6
-17 17 -36 21 -17 30 -33 31 -59 3 -33 1 -35 -37 -41 l-39 -6 0 -55 c0 -70 26
-139 49 -129 26 11 59 6 104 -17 92 -46 101 -71 67 -181 -11 -34 -20 -71 -20
-80 0 -10 -4 -18 -10 -18 -34 0 -66 -210 -40 -261 19 -36 51 -69 69 -69 42 0
82 47 141 163 l59 118 -5 87 c-8 134 -31 179 -114 227 -12 7 -13 6 -3 -7 7 -8
10 -18 6 -21 -14 -14 -34 -6 -45 18 -6 14 -17 25 -25 25 -21 0 -86 36 -107 59
-11 12 -25 21 -33 21 -7 0 -18 12 -23 26 -12 30 1 60 29 69 28 9 36 41 17 70
-13 20 -14 28 -4 45 11 17 8 24 -19 52 -17 18 -33 41 -35 51 -1 11 -6 15 -10
11z"/>
<path d="M6220 6016 c0 -2 10 -27 23 -55 22 -50 24 -51 39 -34 26 29 38 69 25
82 -10 10 -87 16 -87 7z"/>
<path d="M7411 5819 l-72 -71 -41 10 c-50 13 -80 0 -128 -54 -40 -46 -63 -98
-55 -127 6 -21 5 -21 -9 -3 -11 13 -22 17 -41 12 -36 -9 -46 -42 -28 -91 18
-51 13 -80 -32 -186 -25 -61 -43 -89 -60 -97 -35 -16 -47 -68 -23 -107 26 -43
23 -70 -13 -97 -63 -48 -76 -66 -138 -201 -61 -134 -63 -138 -46 -163 16 -24
15 -26 -15 -61 -28 -31 -31 -41 -25 -72 19 -107 19 -117 -10 -139 -36 -28 -49
-28 -74 4 -20 25 -20 25 -31 4 -10 -18 -7 -25 14 -47 33 -32 42 -68 27 -97 -9
-16 -10 -37 -3 -75 6 -34 6 -66 0 -91 -11 -41 -5 -75 11 -66 5 4 16 3 25 0 12
-5 16 -20 15 -63 l0 -56 -91 -58 c-70 -45 -93 -55 -99 -45 -12 18 -11 56 1 63
6 3 10 18 10 33 l0 27 -29 -35 c-15 -19 -65 -64 -109 -98 -83 -66 -102 -89
-78 -98 18 -7 36 -56 36 -95 0 -36 9 -36 67 -2 40 23 49 25 75 15 30 -11 30
-11 12 9 -17 19 -17 20 17 17 19 -1 37 -7 42 -13 5 -6 15 -1 27 15 11 14 25
31 30 38 20 23 50 14 62 -19 8 -22 15 -28 27 -24 32 14 45 10 51 -15 6 -24 6
-24 34 13 24 31 27 42 21 77 -6 37 -5 41 23 57 29 17 30 19 36 124 6 88 4 114
-8 138 -23 43 -20 54 17 71 30 14 32 19 35 73 2 31 7 57 11 57 15 0 64 -146
56 -169 -4 -15 1 -29 19 -48 14 -16 37 -41 51 -58 l26 -30 17 24 c9 14 22 38
27 55 14 42 42 44 120 8 80 -38 103 -69 88 -123 -6 -21 -7 -39 -4 -39 10 0 71
97 71 114 0 9 -12 16 -32 18 -19 2 -38 13 -50 29 l-20 26 85 204 c46 112 87
213 91 223 5 15 -3 29 -35 58 -39 35 -41 41 -35 76 4 20 7 43 6 50 -3 33 -1
70 5 95 5 18 1 42 -13 75 -20 46 -20 49 -3 142 l17 95 -35 50 c-34 46 -36 54
-35 125 0 41 4 131 9 200 7 110 11 127 31 147 18 18 34 23 73 23 l50 0 -17 29
c-12 21 -20 27 -29 20 -7 -7 -18 -7 -30 0 -10 5 -26 12 -37 15 -32 11 -1 90
33 84 9 -1 28 6 43 16 34 22 59 18 75 -14 8 -16 13 -19 13 -9 0 9 6 22 14 28
11 9 11 19 0 63 -23 88 -30 88 -113 7z"/>
<path d="M6971 5858 c-1 -10 -10 -26 -22 -37 -32 -29 -21 -54 24 -55 20 -1 37
4 36 9 -1 20 -38 99 -38 83z"/>
<path d="M6144 4965 c-14 -19 -41 -69 -60 -112 -29 -67 -34 -89 -34 -158 0
-55 -8 -106 -25 -165 -14 -47 -28 -111 -32 -142 l-6 -57 67 -69 c59 -61 65
-71 51 -82 -40 -33 -56 -98 -31 -119 8 -7 24 -57 37 -111 18 -83 24 -98 36
-88 13 10 68 24 133 32 36 5 37 6 13 16 -14 6 -34 35 -54 77 -46 101 -46 117
1 170 47 53 53 93 16 93 -47 0 -52 23 -27 121 23 87 23 91 7 156 -17 64 -16
69 5 150 22 83 22 85 5 181 -21 113 -25 122 -54 133 -18 7 -26 2 -48 -26z"/>
<path d="M5935 4000 c4 -30 11 -89 15 -130 5 -41 11 -87 15 -103 6 -21 1 -36
-19 -65 -21 -30 -26 -50 -26 -95 0 -65 12 -72 50 -32 19 20 25 40 28 91 l4 66
29 -4 c26 -4 29 -1 35 27 4 26 -39 271 -50 282 -2 2 -16 -1 -32 -7 -24 -9 -31
-8 -42 7 -13 16 -13 11 -7 -37z"/>
<path d="M2870 2130 c-11 -8 -7 -9 15 -4 37 8 45 14 19 14 -10 0 -26 -5 -34
-10z"/>
<path d="M4360 893 c0 -45 4 -64 15 -70 13 -8 13 -14 -5 -50 -11 -23 -20 -51
-20 -62 0 -12 -16 -39 -36 -61 -41 -45 -40 -47 4 -24 54 27 91 0 72 -52 -15
-40 -12 -54 15 -64 28 -11 29 -19 15 -70 -9 -32 -8 -33 5 -16 8 11 15 34 15
50 1 57 19 111 65 191 25 44 45 91 45 106 0 26 -41 91 -75 119 -13 10 -16 11
-11 2 11 -19 -22 -52 -51 -52 -29 0 -39 21 -23 50 10 19 9 26 -9 43 l-21 21 0
-61z"/>
<path d="M4163 448 c-29 -29 -59 -69 -67 -88 -15 -38 -40 -184 -40 -237 1 -67
71 -127 139 -119 22 3 88 10 146 15 59 5 143 19 188 31 91 25 111 46 111 115
0 28 -5 38 -25 47 -14 6 -32 28 -42 49 -10 23 -21 35 -29 32 -7 -3 -25 7 -39
23 -14 15 -25 22 -25 15 0 -18 -28 -13 -51 10 -20 20 -21 20 -40 3 -14 -12
-23 -14 -30 -7 -8 8 -4 15 12 27 26 18 27 18 -26 37 -24 9 -48 27 -60 47 -12
19 -28 31 -42 32 -12 0 -23 5 -25 10 -2 6 -27 -13 -55 -42z"/>
</g>
</svg>
