<?xml version="1.0" standalone="no"?>
<!DOCTYPE svg PUBLIC "-//W3C//DTD SVG 20010904//EN"
 "http://www.w3.org/TR/2001/REC-SVG-20010904/DTD/svg10.dtd">
<svg version="1.0" xmlns="http://www.w3.org/2000/svg"
 width="1024.000000pt" height="1024.000000pt" viewBox="0 0 1024.000000 1024.000000"
 preserveAspectRatio="xMidYMid meet">
<metadata>
Created by potrace 1.10, written by Peter Selinger 2001-2011
</metadata>
<g transform="translate(0.000000,1024.000000) scale(0.100000,-0.100000)"
fill="#000000" stroke="none">
<path d="M5879 7216 c-115 -25 -132 -36 -123 -81 5 -30 1 -38 -43 -82 -26 -26
-55 -62 -64 -79 -10 -18 -34 -40 -60 -53 -24 -12 -54 -30 -66 -40 -25 -21 -30
-60 -11 -79 9 -9 9 -15 1 -23 -9 -9 -18 -8 -35 3 -44 28 -77 30 -115 7 -31
-20 -35 -26 -30 -55 4 -24 0 -37 -13 -49 -23 -21 -38 -13 -56 31 -8 19 -21 34
-30 34 -8 0 -69 -57 -136 -126 -67 -69 -134 -132 -148 -139 -30 -16 -225 -66
-368 -96 -53 -10 -107 -28 -124 -40 -16 -12 -58 -30 -91 -41 -34 -10 -107 -40
-162 -67 -55 -27 -116 -52 -136 -55 -21 -4 -47 -19 -65 -37 -16 -18 -84 -78
-152 -135 -96 -81 -130 -104 -153 -104 -33 0 -79 -20 -98 -44 -7 -8 -27 -18
-44 -21 -18 -4 -61 -23 -95 -42 -74 -41 -162 -60 -342 -74 -69 -6 -140 -14
-158 -19 -22 -6 -61 -4 -115 6 -45 7 -120 14 -167 14 -78 0 -89 3 -137 33 -51
32 -275 270 -296 315 -5 12 -19 22 -29 22 -10 0 -23 11 -29 24 -11 23 -44 36
-94 36 -13 0 -29 10 -38 24 -15 22 -14 26 4 60 l19 36 -24 0 c-14 0 -32 10
-43 25 -10 14 -33 28 -53 32 -29 5 -33 4 -24 -8 6 -8 14 -24 16 -36 6 -21 3
-22 -43 -16 -45 5 -49 4 -49 -15 0 -13 17 -31 51 -53 37 -23 57 -45 70 -75 16
-36 25 -43 56 -49 21 -3 55 -17 76 -31 31 -20 37 -30 37 -58 0 -28 -5 -36 -30
-46 -24 -10 -37 -10 -56 -1 -14 6 -40 11 -59 11 -29 0 -36 4 -41 25 -9 37 -35
31 -77 -20 -21 -25 -44 -45 -51 -45 -7 0 -20 18 -29 40 -13 33 -20 40 -42 40
-18 0 -29 -6 -32 -19 -5 -20 -62 -41 -109 -41 -37 1 -65 17 -99 58 -21 25 -34
32 -63 32 -44 0 -117 21 -134 38 -9 9 -8 20 2 51 11 35 11 46 -4 83 -23 61
-21 83 10 97 22 9 31 9 50 -4 13 -8 32 -15 44 -15 17 0 20 6 20 43 0 36 -6 49
-33 75 l-33 32 -29 -30 c-18 -19 -39 -30 -56 -30 -15 0 -40 -5 -55 -10 -38
-15 -60 -5 -121 53 -40 38 -53 57 -53 78 0 26 4 29 30 29 37 0 41 29 9 61 -22
22 -22 34 1 117 15 51 6 65 -79 120 -30 19 -94 70 -142 113 -48 44 -90 79 -93
79 -2 0 -6 -12 -8 -27 -3 -25 -7 -28 -34 -25 -29 3 -32 1 -38 -37 -3 -23 -10
-41 -14 -41 -12 0 -74 40 -117 75 -22 18 -65 46 -96 64 -46 26 -66 31 -120 31
-151 0 -179 -24 -138 -112 12 -26 21 -50 18 -52 -2 -2 -31 -17 -63 -33 l-60
-28 2 -170 c1 -93 5 -245 8 -337 l7 -166 30 -6 c31 -6 113 -64 156 -110 15
-16 40 -28 67 -32 40 -6 44 -9 64 -60 l22 -54 -23 -47 c-22 -43 -33 -53 -117
-96 -91 -47 -95 -51 -119 -105 -31 -71 -26 -106 31 -192 41 -62 43 -69 54
-180 16 -168 11 -196 -48 -242 -27 -21 -75 -46 -108 -56 -70 -23 -152 -76
-152 -100 0 -28 71 -90 111 -97 34 -6 40 -14 92 -110 l56 -103 -7 -87 c-5 -47
-5 -88 -2 -90 3 -2 20 3 38 11 34 14 36 24 12 94 -5 14 -11 64 -15 112 -5 79
-4 91 19 135 23 47 28 50 103 76 66 22 98 27 208 29 l130 3 73 -37 c40 -21 84
-38 97 -38 34 0 48 32 40 91 -6 41 -4 49 9 49 9 0 18 -11 21 -25 21 -104 22
-104 87 -77 29 12 70 22 91 22 30 0 37 4 37 19 0 14 10 21 35 25 43 8 55 2 55
-30 0 -19 5 -24 23 -24 30 0 57 29 57 62 0 22 5 26 35 30 52 6 63 -13 31 -55
-31 -41 -33 -60 -7 -84 14 -13 17 -23 11 -33 -21 -32 -12 -50 25 -50 33 0 37
-4 55 -45 14 -32 25 -45 40 -45 15 0 20 7 20 24 0 14 -5 28 -11 32 -23 14 25
27 101 29 42 1 82 5 88 9 6 3 15 0 19 -9 5 -8 22 -17 39 -21 29 -5 33 -3 50
33 12 23 27 39 40 41 20 3 21 1 11 -38 -14 -49 -8 -54 73 -70 30 -6 90 -23
132 -36 88 -29 124 -26 113 9 -4 12 -9 38 -12 57 l-6 35 25 -30 c32 -39 48
-69 48 -93 0 -10 18 -33 40 -51 22 -17 40 -36 40 -41 0 -5 -15 -10 -32 -12
-29 -3 -33 -6 -33 -33 0 -24 5 -31 23 -33 13 -2 27 -14 32 -26 5 -13 16 -26
24 -29 9 -4 16 -14 16 -24 0 -10 9 -29 19 -42 15 -20 19 -21 24 -7 9 23 26 20
38 -8 8 -17 8 -29 0 -44 -14 -27 12 -92 41 -100 20 -5 20 -10 16 -119 -3 -62
-4 -113 -2 -113 1 0 15 5 31 11 44 18 103 27 109 17 3 -5 -9 -22 -26 -38 l-31
-29 30 -15 c17 -9 43 -16 58 -16 15 0 62 -11 103 -24 41 -13 112 -27 158 -31
63 -6 85 -12 92 -25 5 -10 24 -20 42 -24 18 -3 40 -16 48 -27 26 -33 44 -15
58 56 19 101 18 104 -26 98 -28 -4 -41 0 -55 15 -17 19 -17 19 17 25 20 3 51
18 71 33 43 33 46 74 11 151 -24 51 -24 51 -4 56 12 4 40 -5 68 -21 41 -23 51
-25 74 -14 l26 12 -16 40 c-17 43 -14 60 9 42 8 -7 18 -7 27 -2 36 23 43 13
37 -55 -2 -37 -11 -73 -20 -83 -29 -33 -30 -59 -2 -81 15 -11 36 -23 46 -26
15 -5 17 -10 9 -20 -6 -7 -8 -25 -4 -39 3 -15 1 -32 -6 -41 -18 -22 -3 -55 26
-55 18 0 27 -9 38 -34 9 -22 24 -37 45 -44 20 -7 31 -18 31 -30 0 -11 9 -31
20 -45 22 -27 26 -52 10 -62 -12 -7 -3 -52 16 -79 7 -11 21 -53 30 -93 10 -46
26 -85 41 -103 29 -35 24 -67 -14 -76 -21 -6 -24 -11 -20 -38 2 -17 -2 -40
-10 -52 -18 -28 -7 -54 23 -54 19 0 24 -5 24 -24 0 -33 52 -48 100 -28 27 11
59 13 142 7 102 -6 110 -5 164 19 42 19 73 26 120 26 35 0 66 5 70 11 4 7 21
9 45 5 21 -3 40 -2 44 4 9 15 97 11 119 -5 25 -19 46 -3 46 36 0 30 57 99 82
99 8 0 23 9 33 20 17 18 16 21 -9 64 -14 24 -26 49 -26 54 0 5 23 23 50 41 50
33 51 33 148 28 53 -3 114 -9 135 -13 28 -4 44 -2 65 12 15 10 47 21 72 25
110 18 181 63 197 127 5 22 -1 32 -40 66 -39 34 -48 48 -53 86 -6 43 -17 57
-203 246 -159 163 -207 205 -252 226 -50 23 -61 34 -93 92 -43 76 -77 104
-141 113 -45 6 -47 7 -81 74 -32 64 -34 75 -34 165 0 89 2 100 27 133 54 73
106 121 133 121 15 0 70 7 124 15 84 12 113 22 225 79 71 36 171 92 222 126
51 33 108 63 126 66 25 5 33 12 38 35 4 19 24 41 58 66 29 20 72 54 97 74 25
20 74 50 110 66 100 45 190 115 190 148 0 3 -17 -8 -38 -24 -51 -42 -90 -48
-163 -26 -67 21 -76 44 -21 57 17 4 46 11 64 16 28 6 33 14 46 60 l15 53 -30
32 c-56 59 -56 65 -6 129 37 49 49 58 76 58 46 0 77 10 77 25 0 16 32 25 94
25 48 0 50 1 123 79 88 95 153 131 236 131 30 0 74 7 98 15 34 12 82 15 207
14 151 -2 164 -4 193 -25 18 -13 72 -32 130 -45 74 -17 118 -33 167 -63 60
-37 71 -49 103 -111 35 -69 36 -70 74 -69 22 1 41 6 42 11 2 6 9 18 16 27 11
16 18 11 60 -47 59 -80 74 -93 122 -110 26 -9 41 -21 45 -36 5 -20 6 -21 28
-6 12 9 22 22 22 30 0 22 37 38 44 20 3 -8 -1 -18 -9 -23 -25 -14 -29 -65 -7
-86 19 -17 21 -17 47 0 26 17 28 17 41 0 7 -11 15 -23 16 -28 2 -5 22 -12 44
-15 33 -4 43 -11 62 -44 27 -47 29 -79 3 -79 -10 0 -24 -7 -31 -15 -11 -13 -9
-19 8 -38 12 -12 24 -42 28 -67 9 -62 27 -94 73 -131 22 -17 42 -43 46 -58 12
-48 53 -101 80 -101 19 0 26 7 34 38 13 46 14 77 1 116 -20 64 -40 167 -35
176 11 18 35 -3 45 -38 5 -21 10 -56 10 -79 0 -45 9 -53 30 -28 10 12 10 21 0
44 -29 70 25 95 67 31 12 -19 30 -46 39 -59 l17 -24 12 39 c6 22 17 49 24 59
11 19 12 18 8 -5 -2 -14 -6 -31 -8 -39 -5 -20 28 -26 48 -10 15 13 14 61 -3
117 -5 18 -2 22 14 22 28 0 34 -12 34 -74 1 -62 -14 -93 -44 -98 -25 -3 -43
-59 -25 -77 34 -34 127 39 127 99 0 25 4 30 25 30 14 0 43 -12 65 -26 22 -15
43 -25 46 -22 3 3 -7 35 -22 72 -14 36 -24 73 -20 81 8 22 36 7 36 -20 0 -12
9 -30 20 -40 10 -9 25 -34 31 -54 7 -20 19 -41 27 -47 14 -10 13 -12 -6 -18
-29 -10 -28 -32 4 -52 29 -19 54 -63 54 -94 0 -12 12 -37 26 -55 28 -37 73
-55 135 -55 53 0 193 -101 225 -162 27 -52 -15 -33 -91 41 -52 51 -81 71 -108
76 -58 11 -61 2 -12 -35 46 -34 46 -35 21 -38 -15 -2 -42 5 -60 16 -18 11 -50
25 -72 32 -41 13 -84 46 -84 64 0 6 -10 41 -21 78 -15 45 -28 69 -40 73 -11 4
-19 16 -19 28 -1 65 -35 93 -46 37 -8 -36 -24 -40 -24 -6 0 26 -24 51 -39 41
-6 -3 -20 -38 -32 -78 -11 -40 -32 -91 -46 -115 l-24 -43 -35 20 c-19 12 -37
21 -38 21 -2 0 -15 -18 -30 -40 -25 -37 -26 -44 -15 -80 7 -22 20 -47 31 -56
29 -27 24 -88 -13 -146 -17 -27 -41 -50 -53 -52 -64 -13 -83 -13 -106 -1 -29
17 -74 19 -99 5 -15 -8 -17 -16 -11 -47 3 -21 11 -47 17 -58 6 -11 14 -40 18
-64 10 -63 37 -117 79 -159 113 -115 181 -231 171 -289 -7 -40 16 -79 53 -88
44 -11 109 -86 117 -137 4 -23 16 -57 26 -74 28 -46 117 -126 181 -163 46 -26
65 -45 94 -93 38 -66 194 -238 226 -250 10 -4 33 -18 51 -31 58 -43 65 -42 72
11 3 26 10 67 16 92 6 25 18 73 25 108 16 72 72 157 127 191 54 33 58 69 27
221 -18 88 -18 101 -5 133 13 32 17 34 46 28 29 -6 35 -13 53 -69 16 -47 37
-79 89 -137 61 -68 72 -75 105 -75 29 0 41 6 55 28 11 15 53 45 95 68 70 38
79 46 121 117 32 53 54 80 74 86 37 13 42 33 24 90 -11 34 -13 60 -7 84 6 27
4 39 -6 48 -24 20 -16 45 33 102 34 42 67 66 125 96 44 23 93 41 108 41 19 0
33 7 40 21 9 17 7 26 -14 54 -32 41 -86 188 -86 232 0 51 -82 206 -122 231
-54 33 -85 74 -97 127 -7 28 -30 87 -53 132 -36 75 -45 85 -92 110 l-51 28 -3
67 c-2 57 0 70 18 88 11 11 29 20 40 20 11 0 20 5 20 10 0 24 -32 70 -71 103
-33 28 -53 37 -98 43 -46 5 -63 13 -95 43 -21 20 -45 50 -52 68 -8 17 -26 38
-41 45 -16 7 -39 34 -53 60 -41 76 -57 88 -111 88 -44 0 -50 3 -75 38 -15 20
-40 54 -56 74 -19 24 -28 49 -28 72 0 40 -14 57 -80 96 -28 17 -49 39 -62 68
-19 39 -116 132 -139 132 -14 0 -11 -18 8 -48 l17 -27 -25 21 c-13 12 -42 31
-64 42 -22 11 -51 32 -64 46 -48 51 -143 104 -209 116 -35 6 -76 16 -90 21
-15 6 -65 17 -111 25 -50 9 -142 37 -222 69 -75 30 -142 55 -148 55 -6 0 -18
11 -27 25 -12 19 -25 25 -53 25 -20 0 -65 7 -101 16 -48 11 -88 13 -153 8 -83
-6 -89 -5 -125 19 -31 22 -48 26 -97 25 -33 0 -68 -5 -77 -10 -10 -5 -37 -13
-60 -18 -24 -5 -67 -15 -96 -21 -50 -11 -54 -11 -74 11 -20 21 -27 22 -137 19
l-116 -4 -3 48 c-4 57 9 77 50 77 48 0 108 41 108 74 0 3 -62 2 -137 -1 -106
-4 -145 -10 -168 -23 -54 -32 -99 -33 -173 -7 -54 20 -87 25 -172 25 -58 0
-121 5 -140 11 -19 6 -66 11 -103 11 -62 0 -68 2 -62 19 9 28 -18 30 -126 7z"/>
<path d="M1230 6769 c-29 -12 -40 -26 -40 -56 0 -24 53 -73 80 -73 9 0 23 -7
30 -15 11 -13 15 -13 21 -3 22 34 1 131 -31 148 -22 12 -27 12 -60 -1z"/>
<path d="M1437 6614 c-3 -4 5 -15 18 -26 17 -13 24 -29 24 -51 0 -18 4 -48 9
-67 l10 -35 13 31 c7 17 27 39 46 49 40 22 42 42 6 51 -16 4 -44 18 -63 31
-35 23 -52 28 -63 17z"/>
<path d="M1231 6517 c-15 -19 8 -117 28 -117 29 0 81 41 81 65 0 46 -81 84
-109 52z"/>
<path d="M1514 6412 c-24 -16 -2 -152 26 -152 4 0 15 -3 23 -6 11 -4 19 5 27
30 10 32 9 42 -10 80 -11 24 -28 47 -36 50 -19 7 -17 7 -30 -2z"/>
<path d="M1657 6314 c-9 -10 11 -42 33 -54 21 -11 60 2 60 20 0 17 -80 46 -93
34z"/>
<path d="M6983 5330 c-31 -12 -28 -30 8 -58 l29 -24 0 30 c0 17 3 37 6 46 7
18 -8 20 -43 6z"/>
<path d="M7084 5288 c-27 -13 -34 -46 -34 -165 0 -91 1 -97 30 -129 16 -18 32
-49 36 -69 6 -36 12 -39 51 -29 l23 6 -20 28 c-11 16 -20 39 -20 52 0 20 7 26
42 34 31 7 47 17 60 39 17 30 17 33 -17 135 l-33 105 -49 2 c-26 1 -58 -3 -69
-9z"/>
<path d="M6750 5191 c0 -15 51 -51 71 -51 24 0 26 45 3 54 -24 9 -74 7 -74 -3z"/>
<path d="M6794 5020 c-22 -9 -31 -35 -41 -121 -4 -41 -2 -47 21 -63 l26 -17
20 46 c11 25 26 48 34 51 26 10 26 33 -1 74 -29 43 -28 43 -59 30z"/>
<path d="M2190 3674 c-30 -30 -62 -56 -72 -60 -9 -3 -20 -15 -23 -27 -4 -12
-27 -41 -53 -63 l-46 -42 38 -55 c27 -40 50 -60 78 -72 33 -13 44 -25 60 -64
17 -39 29 -53 66 -70 43 -21 179 -50 235 -51 25 0 27 3 27 39 0 21 -5 52 -11
70 -11 30 -13 31 -67 31 -49 1 -59 4 -76 26 -26 37 -17 117 19 150 31 29 33
60 3 70 -35 10 -58 35 -58 61 0 29 -34 99 -52 105 -7 3 -38 -19 -68 -48z"/>
<path d="M3345 3622 c-11 -4 -45 -23 -75 -43 -30 -20 -66 -40 -80 -44 -58 -17
-66 -45 -13 -45 25 0 58 13 104 41 46 27 74 39 88 34 33 -10 110 29 111 58 0
9 -107 8 -135 -1z"/>
<path d="M2137 3123 c-13 -14 -13 -19 6 -52 11 -20 22 -38 24 -40 6 -8 51 40
56 59 3 13 -5 22 -33 33 -34 13 -40 13 -53 0z"/>
</g>
</svg>
