<?xml version="1.0" standalone="no"?>
<!DOCTYPE svg PUBLIC "-//W3C//DTD SVG 20010904//EN"
 "http://www.w3.org/TR/2001/REC-SVG-20010904/DTD/svg10.dtd">
<svg version="1.0" xmlns="http://www.w3.org/2000/svg"
 width="1024.000000pt" height="1024.000000pt" viewBox="0 0 1024.000000 1024.000000"
 preserveAspectRatio="xMidYMid meet">
<metadata>
Created by potrace 1.10, written by Peter Selinger 2001-2011
</metadata>
<g transform="translate(0.000000,1024.000000) scale(0.100000,-0.100000)"
fill="#000000" stroke="none">
<path d="M7740 6330 c-52 -11 -135 -30 -185 -44 -71 -21 -112 -26 -198 -26
l-108 0 17 -32 c9 -18 27 -44 40 -58 l24 -26 -26 -37 c-13 -20 -31 -37 -38
-37 -7 0 -64 11 -126 25 -85 20 -130 36 -185 69 l-74 43 -98 -13 c-54 -7 -194
-13 -311 -14 l-212 0 -78 44 c-43 25 -117 56 -170 70 -86 25 -104 26 -275 24
l-182 -3 68 -40 c37 -21 67 -42 67 -45 0 -4 -11 -17 -24 -29 l-25 -23 -143 26
c-160 29 -181 30 -222 13 l-30 -13 48 -37 c27 -20 44 -37 37 -37 -6 0 -53 9
-104 21 -175 39 -312 59 -412 59 l-100 -1 -59 -44 c-38 -29 -70 -45 -88 -45
-27 0 -28 -2 -28 -45 l0 -45 58 0 59 0 12 -39 c12 -42 14 -43 103 -61 32 -6
98 -29 148 -50 157 -68 169 -70 546 -70 326 0 353 2 713 40 481 51 509 52 626
3 l90 -38 -335 -6 c-184 -3 -416 -13 -515 -22 -99 -9 -231 -19 -292 -23 l-113
-7 0 -33 0 -34 98 0 c75 0 146 -10 297 -40 l199 -40 285 0 c189 0 328 5 411
15 70 8 211 15 321 15 l196 0 54 -70 54 -69 365 0 c336 -1 378 1 525 23 88 14
214 38 280 55 68 17 188 37 275 46 235 24 318 34 403 52 64 13 77 19 71 32
-18 45 -18 45 84 74 88 24 116 27 253 27 l154 0 130 51 c72 29 133 55 138 59
4 3 1 26 -8 49 -8 24 -15 61 -15 82 l0 39 -67 0 c-38 0 -151 7 -253 15 -102 8
-258 15 -346 15 -108 0 -255 10 -445 30 -380 40 -429 50 -529 100 l-83 41 -31
-29 c-17 -17 -54 -42 -83 -56 -44 -22 -66 -26 -135 -26 -75 0 -87 -3 -128 -30
-43 -28 -50 -30 -150 -30 -58 0 -145 -5 -193 -11 -49 -6 -91 -9 -93 -6 -2 2
34 25 81 52 l85 47 0 74 c0 41 -1 74 -2 73 -2 0 -46 -9 -98 -19z"/>
<path d="M3306 5991 c-26 -26 -70 -59 -97 -71 -27 -13 -49 -27 -49 -31 0 -28
112 -162 264 -316 l179 -182 -84 22 c-80 22 -159 61 -493 243 -48 27 -108 66
-132 88 -63 54 -253 117 -376 124 l-88 4 -69 -56 -70 -56 -100 0 c-56 0 -101
-3 -101 -7 0 -3 18 -30 40 -59 36 -48 39 -56 28 -79 -6 -14 -14 -25 -17 -25
-4 0 -67 24 -141 54 -74 30 -154 60 -177 67 -42 12 -43 13 -43 56 0 32 4 43
15 43 18 0 190 17 252 26 l42 5 -13 37 -13 37 -89 -5 c-100 -6 -389 -6 -569 0
-147 4 -556 -13 -575 -25 -7 -5 -88 -11 -179 -15 -147 -5 -173 -9 -227 -31
-61 -25 -63 -26 -106 -9 -24 9 -62 29 -83 43 -31 21 -52 27 -92 27 -29 0 -53
-4 -53 -9 0 -12 48 -193 52 -196 2 -1 19 -12 38 -25 19 -13 62 -49 95 -80 33
-31 86 -78 118 -103 54 -43 64 -47 113 -47 45 0 71 8 144 45 90 45 90 45 197
45 l108 0 -56 -56 -56 -56 -104 -13 c-57 -8 -132 -15 -166 -15 -63 0 -63 0
-63 -29 0 -32 5 -34 110 -46 101 -11 109 -14 112 -43 3 -23 12 -30 63 -49 33
-12 120 -36 194 -55 l134 -33 86 -80 c47 -44 105 -95 127 -112 l42 -33 333 0
c327 0 336 1 419 25 47 14 162 37 255 51 224 33 215 30 215 64 0 27 -4 29 -57
40 -86 17 -83 14 -83 74 l0 54 78 26 c42 14 80 26 83 26 4 0 47 -54 80 -102 3
-5 37 -2 76 6 l71 15 90 -39 c127 -55 185 -70 271 -71 87 0 307 -22 316 -31 3
-3 -29 -9 -72 -13 -83 -8 -221 -39 -458 -105 -250 -70 -278 -73 -697 -79
l-378 -6 56 -97 55 -98 92 0 c51 0 148 -7 217 -15 69 -8 164 -15 213 -15 48 0
87 -2 87 -5 0 -6 -40 -87 -45 -93 -2 -2 -36 2 -77 9 -67 11 -85 10 -223 -15
-82 -15 -151 -29 -152 -30 -1 -1 19 -28 44 -59 38 -49 62 -66 147 -110 99 -51
103 -52 211 -57 100 -6 123 -11 255 -59 80 -29 201 -79 270 -111 141 -65 194
-83 295 -100 51 -8 91 -23 147 -56 l77 -44 104 0 c138 0 242 22 346 75 l85 42
-42 28 c-23 15 -42 29 -42 30 0 1 24 19 54 41 41 29 61 53 82 97 23 47 45 71
119 131 144 117 212 151 325 166 75 10 103 18 135 40 65 46 102 91 130 161
l26 66 127 28 c70 15 133 33 140 39 20 19 42 114 42 184 l0 62 103 0 c131 0
674 70 824 107 l113 27 81 -39 81 -40 -43 -8 c-24 -4 -143 -11 -264 -15 l-220
-7 153 -42 c185 -50 248 -89 307 -190 20 -34 41 -66 48 -71 7 -5 95 -19 197
-32 102 -12 198 -25 214 -29 l30 -7 -50 -28 c-27 -16 -99 -64 -161 -107 l-112
-79 -111 0 c-60 0 -110 -4 -110 -8 0 -4 23 -25 51 -46 l52 -38 361 27 c332 24
368 29 452 56 l91 30 83 -36 c45 -19 87 -38 93 -42 5 -3 -24 -24 -66 -45 -79
-39 -87 -50 -64 -83 13 -17 21 -17 203 20 151 30 220 39 339 43 l150 5 166 82
165 83 230 29 c215 28 227 30 189 41 -102 31 -308 52 -503 52 -225 1 -274 9
-412 67 -52 22 -113 46 -135 54 l-40 12 78 26 c42 14 77 28 77 31 0 3 -33 17
-72 31 -67 22 -93 24 -308 29 l-235 5 -23 60 c-12 33 -30 76 -40 95 l-17 35
-185 5 c-152 4 -193 9 -232 25 -27 11 -48 22 -48 26 0 3 15 10 33 15 29 9 32
13 35 55 l3 45 -198 37 c-109 21 -210 40 -226 43 -17 4 -33 16 -42 33 -14 27
-17 28 -122 35 -59 5 -191 11 -293 15 -158 7 -198 12 -270 34 -50 15 -133 30
-200 37 -214 19 -197 14 -228 77 -26 54 -30 57 -137 111 l-110 55 -83 -12
c-89 -13 -213 -56 -274 -97 -21 -13 -40 -24 -42 -24 -2 0 -10 16 -16 36 -16
48 0 85 52 119 22 15 36 30 32 35 -5 4 -34 15 -64 25 -30 9 -108 39 -172 66
-117 49 -119 49 -225 48 -60 0 -142 -6 -183 -13 l-75 -14 -118 44 -118 44
-152 0 -153 0 -48 -49z"/>
<path d="M99 5206 l103 -104 77 -12 c83 -13 233 -55 470 -132 141 -46 157 -49
193 -39 21 7 38 15 38 19 0 10 -63 69 -117 111 -34 26 -65 37 -160 57 -65 14
-152 41 -193 59 -41 19 -88 37 -103 41 -15 3 -58 28 -95 55 l-67 49 -125 0
-125 0 104 -104z"/>
<path d="M9830 5231 c65 -40 65 -40 165 -40 l100 1 -117 33 c-65 19 -139 37
-165 40 l-48 7 65 -41z"/>
</g>
</svg>
