<?xml version="1.0" standalone="no"?>
<!DOCTYPE svg PUBLIC "-//W3C//DTD SVG 20010904//EN"
 "http://www.w3.org/TR/2001/REC-SVG-20010904/DTD/svg10.dtd">
<svg version="1.0" xmlns="http://www.w3.org/2000/svg"
 width="1024.000000pt" height="1024.000000pt" viewBox="0 0 1024.000000 1024.000000"
 preserveAspectRatio="xMidYMid meet">
<metadata>
Created by potrace 1.10, written by Peter Selinger 2001-2011
</metadata>
<g transform="translate(0.000000,1024.000000) scale(0.100000,-0.100000)"
fill="#000000" stroke="none">
<path d="M1016 8289 c-395 -81 -722 -151 -726 -156 -15 -18 -63 -468 -120
-1134 -32 -383 -85 -938 -116 -1233 -30 -296 -54 -539 -52 -541 4 -4 590 -95
610 -95 7 0 34 17 60 39 l47 38 -29 28 c-36 34 -46 63 -63 180 -12 81 -11 96
4 148 18 59 34 84 116 175 60 66 121 86 211 71 39 -6 80 -5 130 3 64 11 73 15
68 31 -2 10 2 21 10 24 21 8 54 77 54 112 0 28 37 71 61 71 5 0 37 -21 72 -46
44 -31 70 -59 85 -90 20 -41 24 -44 62 -44 22 0 40 1 40 3 0 2 -16 41 -36 88
-28 67 -46 94 -90 135 l-55 50 41 19 c39 18 44 18 112 2 39 -10 72 -16 73 -15
1 2 11 25 22 51 l20 48 74 -93 c40 -51 78 -96 84 -100 5 -4 36 -8 67 -8 54 0
59 -2 84 -36 16 -20 30 -54 33 -77 l6 -41 167 -26 166 -26 57 -48 c44 -39 55
-53 51 -70 -3 -12 -6 -47 -6 -78 0 -54 -2 -58 -27 -64 -25 -7 -24 -8 28 -34
45 -23 119 -94 119 -114 0 -3 -21 -3 -46 1 l-45 6 2 -59 c1 -32 -4 -104 -11
-158 l-13 -100 34 -29 c19 -15 70 -50 114 -77 l80 -48 175 -7 c153 -7 182 -11
234 -32 l59 -24 41 32 c22 18 45 39 49 46 10 16 22 16 86 2 58 -12 114 -57
190 -152 45 -58 50 -69 60 -142 8 -57 26 -111 65 -199 47 -105 60 -126 99
-155 45 -34 46 -37 62 -124 9 -50 20 -117 23 -150 l7 -60 320 -246 c304 -234
323 -250 370 -323 48 -73 56 -80 214 -182 l163 -107 47 10 46 10 100 -98 c96
-95 103 -99 180 -123 73 -22 98 -38 283 -176 111 -84 214 -157 228 -162 40
-16 92 -12 135 11 l40 20 76 -41 c42 -23 103 -61 137 -84 45 -31 82 -47 145
-61 82 -18 84 -20 102 -59 l17 -40 -29 -58 c-40 -79 -52 -169 -36 -281 l12
-88 156 7 157 7 71 -71 72 -71 46 20 c25 10 57 28 71 39 l26 21 21 -26 c18
-24 24 -26 55 -17 28 7 43 5 72 -9 l36 -18 16 39 c11 27 16 71 16 132 l0 92
69 106 c45 68 73 123 81 157 11 49 14 53 53 66 42 13 42 14 79 119 l37 107
-56 38 c-58 40 -92 83 -138 172 -26 52 -27 59 -20 147 6 83 9 95 31 109 32 20
30 37 -7 91 l-30 45 -87 -2 c-116 -1 -162 17 -162 65 l0 33 -96 29 c-53 16
-99 35 -102 42 -2 7 5 46 17 85 11 40 21 83 21 95 0 16 7 26 21 29 12 3 22 17
26 33 4 22 17 33 65 53 l59 26 197 -25 c254 -32 256 -32 304 31 36 48 38 53
38 128 0 42 2 77 4 77 3 0 16 -4 31 -10 23 -9 27 -7 35 16 6 14 10 39 10 55 0
26 2 29 19 19 30 -16 32 -13 25 39 l-6 48 36 7 c27 5 36 12 36 26 0 21 -12 23
-65 10 -23 -5 -42 0 -78 19 -32 16 -44 27 -35 32 7 4 84 13 171 20 152 13 158
14 153 34 -4 15 4 28 29 48 l35 27 -35 46 c-19 25 -35 56 -35 69 0 13 -3 30
-6 39 -4 11 4 17 29 21 l36 7 7 89 c5 73 10 92 26 100 22 12 27 9 99 -53 67
-58 93 -61 137 -15 17 18 92 62 170 101 l139 69 20 61 c13 41 24 61 35 61 9 0
48 -31 87 -68 70 -68 71 -69 50 -86 -21 -16 -20 -17 30 -41 28 -13 51 -27 51
-31 0 -5 -56 -56 -124 -116 l-124 -107 30 -38 c23 -30 36 -38 62 -38 29 0 38
-7 70 -55 20 -30 40 -55 44 -55 39 0 217 48 298 80 l100 41 82 -35 c70 -30 86
-34 102 -24 17 11 23 8 48 -21 l29 -35 32 47 c31 46 34 47 83 47 l50 0 -16 24
c-15 24 -14 26 10 45 15 12 29 35 33 52 5 27 13 34 51 45 39 12 49 11 88 -6
25 -11 48 -20 53 -20 15 0 10 47 -11 100 -11 28 -18 55 -15 60 3 5 40 -1 82
-12 71 -20 77 -20 88 -4 7 9 19 14 27 11 11 -5 18 6 28 39 11 42 18 48 104
100 50 30 101 65 114 79 l23 25 -53 5 c-29 4 -98 9 -153 12 -151 9 -171 13
-183 39 -7 15 -31 31 -71 46 l-62 23 -23 -22 c-12 -11 -32 -21 -44 -21 -22 0
-23 2 -40 90 l-8 45 -81 -3 -80 -2 -7 40 c-3 22 -16 60 -28 85 -20 41 -25 45
-59 45 -35 0 -37 2 -43 40 -6 40 -18 48 -45 31 -10 -7 -12 -20 -7 -51 3 -23 4
-63 0 -88 l-6 -47 -42 3 -43 4 -7 -48 c-3 -26 -6 -60 -6 -75 0 -28 -1 -29 -54
-29 -32 0 -73 8 -100 20 -25 10 -84 25 -131 31 l-85 12 0 40 c0 42 -22 97 -48
120 -15 13 -25 12 -85 -6 l-68 -20 -27 26 c-21 20 -38 27 -69 27 -61 0 -93 15
-93 43 0 18 21 38 98 90 63 44 112 88 141 125 25 32 64 69 87 84 32 20 43 33
48 63 7 34 12 39 89 74 80 37 147 83 147 102 0 5 -28 23 -63 40 l-63 31 -92
-46 c-88 -44 -93 -48 -122 -106 -17 -33 -33 -60 -36 -60 -2 0 -22 9 -43 20
l-38 19 -45 -28 c-30 -19 -48 -39 -52 -57 -4 -15 -38 -66 -76 -113 -68 -85
-71 -87 -172 -130 -106 -46 -209 -122 -238 -176 -9 -17 -22 -25 -40 -25 -15 0
-56 -20 -96 -48 l-69 -47 -3 -62 -3 -62 -80 -63 c-59 -47 -82 -72 -89 -97 -5
-19 -27 -53 -49 -75 -35 -38 -39 -47 -44 -108 -4 -63 -4 -67 19 -72 20 -5 24
-13 24 -47 0 -41 0 -41 -32 -36 -18 2 -41 0 -51 -5 -14 -7 -46 6 -144 59 -69
37 -132 78 -141 91 -14 22 -14 25 10 45 20 17 27 35 31 75 6 52 6 52 -22 52
-23 0 -31 7 -45 38 -28 61 -43 77 -59 63 -10 -7 -23 -8 -38 -3 -16 6 -87 1
-209 -15 -189 -25 -270 -25 -395 -3 l-60 11 -63 227 c-49 182 -62 244 -64 312
l-3 85 -151 3 -151 3 -7 143 c-6 119 -5 149 7 173 12 21 17 84 23 241 4 117 4
212 1 212 -4 0 -40 -21 -82 -47 -41 -25 -77 -44 -80 -41 -3 2 -40 78 -84 169
l-80 164 -88 48 c-84 45 -93 54 -177 162 -48 63 -92 115 -97 115 -5 0 -63 -34
-130 -76 l-121 -75 -367 35 -367 35 -315 -44 c-173 -24 -326 -46 -340 -49 -23
-4 -46 19 -230 232 -255 295 -239 273 -254 333 -14 51 -70 149 -86 149 -14 0
-39 -57 -39 -89 0 -28 -2 -30 -28 -25 l-29 6 -7 -73 c-9 -101 -15 -122 -35
-116 -42 12 -46 11 -49 -11 -5 -36 17 -82 40 -82 10 0 30 -11 43 -24 13 -13
38 -27 55 -31 36 -8 36 -9 7 -59 -18 -32 -33 -43 -92 -66 -38 -14 -85 -34
-103 -44 -30 -15 -36 -16 -50 -3 -45 41 -177 27 -222 -23 -21 -23 -35 -28 -95
-34 -38 -3 -86 -9 -105 -12 -51 -8 -72 12 -77 73 -5 48 -4 51 23 60 l29 10
-35 7 c-19 5 -52 19 -72 33 -31 21 -38 32 -38 59 0 40 -2 41 -42 12 -26 -18
-34 -19 -51 -9 -10 7 -39 19 -63 26 -40 12 -44 12 -44 -5 0 -10 -7 -23 -15
-30 -13 -11 -16 -8 -21 19 -6 30 -29 53 -111 110 l-33 22 0 -40 c0 -40 1 -41
35 -41 30 0 35 -3 35 -22 0 -19 -10 -26 -60 -40 -32 -10 -75 -18 -93 -18 -19
0 -54 -7 -77 -15 -57 -20 -87 -11 -110 36 -27 51 -25 112 6 235 l25 102 -34
49 c-25 34 -38 67 -46 114 -17 103 -15 132 15 160 29 27 29 51 -1 129 -30 79
-4 192 61 261 15 15 33 58 46 105 14 52 36 100 64 141 37 55 72 130 62 137 -1
1 -326 -64 -722 -145z"/>
</g>
</svg>
