<?xml version="1.0" standalone="no"?>
<!DOCTYPE svg PUBLIC "-//W3C//DTD SVG 20010904//EN"
 "http://www.w3.org/TR/2001/REC-SVG-20010904/DTD/svg10.dtd">
<svg version="1.0" xmlns="http://www.w3.org/2000/svg"
 width="1024.000000pt" height="1024.000000pt" viewBox="0 0 1024.000000 1024.000000"
 preserveAspectRatio="xMidYMid meet">
<metadata>
Created by potrace 1.10, written by Peter Selinger 2001-2011
</metadata>
<g transform="translate(0.000000,1024.000000) scale(0.100000,-0.100000)"
fill="#000000" stroke="none">
<path d="M0 7342 l0 -658 44 -61 c25 -34 63 -75 84 -93 29 -23 43 -44 51 -76
8 -30 15 -42 25 -38 8 3 16 -4 20 -19 3 -14 17 -32 31 -41 20 -13 25 -25 25
-56 0 -21 5 -42 10 -45 18 -11 11 -58 -12 -83 -21 -22 -22 -24 -5 -33 9 -6 17
-21 17 -35 0 -17 7 -28 20 -31 28 -7 25 -17 -16 -51 l-36 -30 36 -12 c20 -6
36 -15 36 -18 0 -4 18 -18 41 -32 22 -14 49 -41 59 -61 20 -38 36 -49 75 -49
12 0 25 -7 29 -15 3 -9 18 -15 39 -15 25 0 38 -7 55 -30 12 -16 22 -38 22 -49
0 -11 16 -32 37 -48 62 -47 90 -81 125 -151 21 -43 42 -71 59 -79 15 -7 43
-31 63 -53 36 -40 36 -41 21 -70 -15 -29 -15 -31 11 -54 51 -46 63 -55 93 -70
38 -20 44 -31 31 -56 -17 -32 -2 -43 30 -20 35 25 61 25 91 1 19 -16 22 -22
12 -32 -17 -17 -17 -56 -1 -62 7 -2 21 1 31 7 13 8 24 7 47 -6 29 -16 31 -16
72 7 50 29 86 32 95 8 12 -31 -15 -177 -36 -194 -16 -13 -18 -24 -14 -58 4
-31 1 -46 -12 -61 -14 -16 -16 -25 -8 -43 7 -16 6 -36 -4 -72 -8 -27 -17 -81
-21 -120 -7 -69 -7 -70 -34 -67 -22 2 -28 -2 -28 -16 0 -10 9 -27 20 -37 23
-21 26 -53 7 -80 -18 -24 2 -67 38 -83 26 -12 32 -31 15 -48 -7 -7 -4 -19 10
-36 11 -15 20 -33 20 -41 0 -26 -30 -47 -68 -47 -31 0 -41 -6 -60 -35 -29 -46
-28 -61 8 -94 25 -23 29 -32 24 -59 -4 -17 -17 -38 -31 -47 -19 -13 -22 -19
-13 -30 6 -7 8 -25 4 -39 -6 -24 -4 -26 25 -26 31 0 71 -29 71 -52 0 -7 19
-28 41 -47 l40 -33 24 22 c12 12 25 35 29 51 5 24 10 30 28 28 13 -2 33 2 45
9 33 18 123 115 123 133 0 9 9 24 19 33 29 26 68 10 95 -39 15 -27 29 -41 45
-43 14 -1 30 -7 38 -13 15 -13 17 -45 3 -54 -5 -3 -10 -17 -10 -31 0 -19 5
-24 26 -24 26 0 26 -1 20 -52 -5 -43 -3 -61 14 -93 13 -25 18 -50 15 -66 -4
-19 1 -35 20 -57 14 -16 25 -35 25 -41 0 -7 17 -38 39 -69 21 -31 45 -71 54
-88 10 -19 24 -31 34 -30 10 0 19 -7 21 -19 2 -11 15 -29 28 -40 16 -14 26
-35 30 -66 6 -41 3 -49 -19 -70 l-26 -24 29 -47 c16 -26 43 -54 59 -63 16 -8
33 -24 36 -35 l7 -21 33 21 c33 20 36 21 69 5 65 -31 109 -89 137 -183 9 -32
10 -45 1 -54 -17 -17 -15 -48 3 -48 9 0 15 -9 15 -24 0 -14 5 -28 11 -31 6 -4
7 -19 4 -35 -9 -40 8 -66 63 -94 26 -13 53 -34 60 -45 22 -38 35 -25 30 30
l-5 50 51 39 c46 34 53 36 68 23 11 -10 27 -13 46 -9 19 5 45 0 76 -14 38 -16
52 -18 62 -9 11 9 19 8 32 -5 10 -9 28 -16 40 -16 17 0 22 8 27 43 6 39 12 46
57 71 l50 28 22 -21 c14 -13 30 -19 39 -15 9 3 26 -1 38 -10 20 -13 25 -13 51
0 18 9 41 13 58 9 19 -4 40 1 66 15 42 22 46 21 80 -36 10 -17 14 -16 63 15
42 28 56 32 74 24 13 -6 31 -7 46 -2 14 6 38 5 60 -1 56 -15 65 -12 35 13 -22
20 -25 28 -19 56 4 18 14 35 22 38 11 4 13 15 9 38 -7 37 10 58 43 53 11 -2
26 5 33 15 12 17 16 17 43 3 34 -18 105 -121 105 -153 0 -12 15 -38 33 -57 17
-19 44 -48 58 -65 15 -17 32 -31 38 -31 8 0 11 90 11 316 l0 315 138 -6 c75
-3 254 -5 397 -5 143 1 1429 3 2858 6 l2597 4 0 2490 0 2490 -5120 0 -5120 0
0 -658z"/>
</g>
</svg>
