<?xml version="1.0" standalone="no"?>
<!DOCTYPE svg PUBLIC "-//W3C//DTD SVG 20010904//EN"
 "http://www.w3.org/TR/2001/REC-SVG-20010904/DTD/svg10.dtd">
<svg version="1.0" xmlns="http://www.w3.org/2000/svg"
 width="1024.000000pt" height="1024.000000pt" viewBox="0 0 1024.000000 1024.000000"
 preserveAspectRatio="xMidYMid meet">
<metadata>
Created by potrace 1.10, written by Peter Selinger 2001-2011
</metadata>
<g transform="translate(0.000000,1024.000000) scale(0.100000,-0.100000)"
fill="#000000" stroke="none">
<path d="M5540 10233 c-22 -9 -30 -24 -30 -64 0 -24 -7 -42 -21 -55 -47 -43
-64 -130 -28 -152 31 -20 22 -63 -16 -75 -41 -13 -115 -65 -115 -80 0 -7 -16
-21 -37 -32 -38 -21 -63 -65 -63 -110 0 -17 23 -51 70 -105 61 -69 69 -82 60
-100 -13 -25 -31 -25 -80 0 -22 11 -46 20 -54 20 -9 0 -16 12 -18 33 -2 27
-11 36 -50 57 -46 24 -47 24 -83 7 -22 -10 -60 -17 -97 -17 -70 0 -83 -7 -197
-118 -109 -104 -135 -126 -151 -127 -8 0 -16 -10 -18 -22 -3 -18 -10 -23 -32
-23 -18 0 -33 -8 -44 -25 -19 -29 -58 -51 -108 -60 -19 -4 -52 -21 -73 -38
l-37 -30 4 -87 c3 -59 10 -99 24 -127 23 -45 19 -57 -40 -120 -27 -30 -29 -35
-19 -67 12 -38 9 -46 -19 -46 -12 0 -32 -21 -56 -60 -29 -47 -42 -60 -62 -60
-21 0 -29 -9 -47 -55 -27 -65 -29 -88 -7 -106 24 -20 44 -65 44 -98 0 -17 -13
-53 -30 -79 -16 -27 -30 -54 -30 -60 0 -7 -11 -19 -25 -28 -14 -9 -25 -25 -25
-35 0 -10 -9 -23 -20 -29 -12 -6 -31 -35 -44 -64 -13 -30 -28 -56 -34 -60 -6
-3 -29 -62 -52 -131 -23 -69 -47 -125 -54 -125 -6 0 -29 9 -51 20 -22 11 -56
20 -76 20 -29 0 -39 5 -44 20 -8 25 -71 28 -101 5 -29 -22 -49 -18 -82 15 -25
24 -35 28 -54 21 -27 -10 -26 -24 3 -94 22 -52 40 -172 28 -184 -11 -12 -31
-129 -33 -194 -2 -75 -17 -93 -71 -84 l-42 6 -7 -83 c-11 -115 -8 -162 10
-245 22 -95 10 -130 -47 -139 -37 -6 -39 -8 -39 -43 0 -20 -4 -41 -8 -48 -12
-19 -57 -3 -77 28 -17 25 -26 29 -55 27 -33 -3 -35 -5 -32 -36 1 -18 -5 -43
-13 -55 -17 -25 -20 -158 -6 -249 13 -74 4 -128 -19 -128 -10 0 -23 6 -29 14
-7 8 -23 17 -36 20 -14 4 -25 13 -25 21 0 17 -40 29 -68 21 -10 -4 -28 -15
-39 -25 -18 -17 -20 -26 -12 -65 5 -25 6 -52 4 -58 -3 -7 10 -62 29 -123 30
-101 36 -111 67 -127 22 -12 41 -34 56 -65 13 -26 32 -56 43 -68 11 -11 25
-36 31 -55 35 -100 90 -142 133 -101 l23 22 17 -26 c10 -16 12 -25 5 -25 -14
0 -2 -128 13 -147 18 -23 27 -14 30 30 l3 42 29 -30 c24 -26 28 -27 22 -8 -4
12 -4 33 0 47 5 22 12 26 40 26 57 0 74 -27 74 -115 0 -73 1 -75 24 -75 16 0
27 7 31 19 8 25 44 71 56 71 14 0 11 -26 -6 -40 -24 -20 -18 -38 15 -45 27 -6
30 -10 30 -45 0 -28 5 -40 18 -44 9 -3 31 -17 47 -31 l30 -26 -35 7 c-19 3
-42 13 -51 20 -21 18 -49 8 -49 -18 0 -11 11 -33 25 -50 14 -16 25 -38 25 -48
0 -17 4 -18 31 -8 16 6 32 8 35 5 9 -9 -16 -47 -31 -47 -24 0 -112 58 -130 86
-16 25 -17 25 -36 8 -10 -9 -19 -22 -19 -27 0 -5 20 -32 45 -58 29 -31 45 -57
45 -74 0 -14 8 -32 18 -40 9 -8 38 -33 63 -55 25 -22 54 -40 64 -40 16 0 17 8
11 80 -4 44 -4 80 1 79 24 -4 33 4 34 29 1 25 2 25 11 -8 13 -45 14 -75 4
-126 -6 -33 -3 -45 12 -64 16 -20 22 -22 35 -12 19 16 31 0 23 -32 -4 -16 1
-29 14 -41 11 -10 20 -29 20 -42 0 -29 13 -55 53 -106 28 -36 29 -39 12 -57
-17 -19 -17 -21 8 -44 27 -25 44 -96 33 -140 -3 -14 -2 -28 4 -31 5 -3 10 -25
10 -49 0 -23 5 -47 12 -54 7 -7 13 -54 15 -122 2 -88 0 -112 -12 -116 -8 -3
-11 -12 -8 -21 4 -9 -1 -21 -12 -29 -13 -10 -20 -33 -24 -85 -5 -50 -12 -75
-24 -84 -9 -7 -17 -19 -17 -28 0 -33 -40 -182 -50 -185 -5 -2 -10 -10 -10 -19
0 -8 -6 -29 -14 -46 -15 -35 -28 -178 -18 -193 4 -5 15 -15 25 -23 16 -13 23
-9 67 34 28 27 50 57 50 67 0 11 11 23 25 28 14 5 37 22 50 37 l24 28 1 -35
c0 -32 -7 -42 -70 -95 -38 -33 -70 -63 -70 -66 0 -4 -3 -14 -6 -22 -3 -9 3
-17 18 -20 17 -5 30 1 51 23 33 35 41 38 32 10 -4 -14 -1 -22 10 -26 9 -4 21
-17 26 -30 12 -32 35 -30 54 3 8 16 26 42 40 58 21 25 27 28 35 15 7 -11 2
-21 -20 -40 -31 -25 -41 -70 -17 -70 8 0 24 -11 36 -24 14 -14 30 -22 41 -19
20 5 50 69 50 107 0 25 35 76 52 76 6 0 6 -6 -2 -15 -19 -22 -6 -134 17 -151
15 -11 19 -10 22 4 2 9 13 26 26 38 12 11 26 40 30 65 l9 44 4 -43 c2 -31 -2
-49 -17 -68 -16 -20 -18 -31 -11 -45 15 -27 26 -31 73 -24 35 6 48 15 78 53
19 26 52 77 73 114 40 74 72 98 130 98 28 0 46 10 86 45 28 25 57 45 65 45 23
0 27 18 11 42 -10 14 -16 44 -16 76 0 29 -5 62 -10 73 -8 15 -7 19 3 19 9 0
16 -14 20 -38 13 -92 43 -119 121 -108 80 12 134 58 188 161 42 78 47 95 42
130 -4 22 -9 44 -12 50 -3 5 -7 43 -8 85 -3 73 -2 74 14 50 9 -14 38 -45 64
-69 27 -24 48 -50 48 -56 0 -7 6 -18 14 -24 8 -6 16 -37 18 -71 3 -36 11 -66
21 -78 9 -10 17 -28 17 -39 0 -11 14 -32 30 -46 17 -15 30 -37 30 -50 0 -44
13 -51 61 -36 43 14 109 14 109 1 0 -4 -8 -17 -18 -30 -16 -21 -21 -22 -45
-11 -21 10 -30 9 -43 -2 -21 -18 -13 -85 14 -112 25 -25 42 -15 42 24 0 24 4
30 18 27 29 -5 26 -47 -7 -100 -17 -27 -31 -55 -31 -62 0 -6 23 -34 50 -61 70
-69 83 -116 72 -259 -7 -96 -6 -109 9 -117 9 -5 22 -22 27 -38 8 -24 7 -32 -5
-43 -13 -10 -14 -27 -9 -96 8 -100 21 -125 56 -118 25 4 25 4 27 -67 2 -78 18
-133 56 -193 32 -52 37 -82 23 -123 -13 -38 0 -150 27 -226 l14 -40 11 35 c6
19 14 59 17 89 8 61 25 52 25 -15 0 -32 6 -46 31 -70 35 -32 79 -121 79 -158
0 -52 12 -86 31 -86 12 0 21 -10 25 -28 4 -15 12 -34 19 -42 14 -16 21 -58 30
-160 5 -66 -7 -145 -29 -190 -7 -14 -9 -36 -6 -50 4 -14 3 -30 -2 -37 -25 -31
21 -70 49 -42 6 6 19 9 28 7 15 -3 15 -6 -5 -30 -20 -26 -20 -29 -6 -50 9 -12
16 -30 16 -40 0 -27 -46 -23 -72 7 -12 14 -27 25 -33 25 -16 0 -45 -33 -45
-52 0 -27 44 -58 83 -58 30 0 37 -4 37 -19 0 -11 -5 -23 -10 -26 -17 -10 -11
-21 16 -34 30 -13 60 -7 68 15 5 12 8 12 24 -3 17 -17 16 -18 -10 -30 -30 -13
-36 -41 -18 -88 8 -22 6 -32 -10 -52 -19 -24 -19 -28 -5 -49 21 -32 19 -71 -5
-101 -25 -32 -26 -59 -2 -73 16 -10 16 -10 0 -20 -10 -6 -18 -20 -18 -30 0
-13 -12 -25 -35 -34 -23 -10 -35 -22 -35 -35 0 -32 -11 -50 -26 -44 -20 7 -19
-77 1 -156 15 -57 15 -62 -5 -101 l-21 -40 31 -45 c41 -59 48 -62 56 -20 4 23
18 45 40 63 24 20 36 41 44 77 6 27 16 56 23 64 7 8 12 43 12 78 0 63 1 66 37
95 21 16 47 50 57 74 11 24 25 44 31 44 18 0 89 83 96 113 3 15 23 48 44 72
21 24 46 65 55 92 9 26 22 60 27 76 6 15 16 27 23 27 12 0 75 64 75 76 0 2 -7
16 -16 29 -9 13 -15 37 -14 52 4 56 -1 73 -28 105 -37 44 -79 196 -62 228 18
33 3 58 -41 72 -45 13 -107 77 -115 118 -2 14 -11 45 -20 70 -29 83 -29 98 0
111 35 16 40 41 26 130 -7 41 -15 99 -20 129 -4 30 -21 81 -38 112 -17 31 -34
73 -38 93 -3 19 -10 35 -14 35 -5 0 -37 25 -72 55 -35 30 -82 63 -106 72 -37
14 -43 20 -48 55 -7 43 -38 88 -59 88 -8 0 -20 10 -26 22 -7 13 -29 42 -50 65
-35 38 -39 48 -39 95 0 37 -6 61 -20 78 -23 29 -23 33 -10 82 9 32 15 37 49
43 31 5 41 12 46 32 5 23 9 25 46 20 36 -5 41 -3 50 21 7 19 8 48 1 92 -12 74
-5 259 10 278 6 7 33 12 63 12 l53 0 25 74 25 74 -27 26 c-36 34 -48 33 -68
-9 -23 -48 -40 -44 -49 10 -3 25 -24 74 -45 109 -35 58 -38 67 -28 95 24 68
-9 123 -81 138 -22 4 -32 13 -36 32 -4 14 -28 49 -54 76 -26 28 -55 64 -63 80
-9 17 -61 75 -116 130 -56 55 -101 107 -101 117 0 10 8 34 17 53 17 35 17 38
0 67 -9 16 -17 39 -17 51 0 12 -9 37 -20 55 -16 26 -26 32 -54 32 -38 0 -66
28 -66 66 0 11 -9 29 -20 39 -18 17 -28 45 -15 45 3 0 23 -9 44 -20 38 -19 39
-19 56 0 12 14 25 17 50 13 26 -4 35 -1 49 18 9 13 16 39 16 59 0 20 7 46 16
58 8 12 11 22 7 22 -5 0 -24 14 -43 31 l-34 31 31 13 c35 15 71 91 58 122 -18
41 10 203 36 203 21 0 69 54 75 86 l6 34 67 -35 c58 -31 72 -34 96 -25 15 6
43 8 62 4 27 -5 41 -2 64 15 42 31 104 51 160 51 l48 0 6 58 c3 31 11 68 18
82 12 24 18 25 98 26 105 1 143 20 136 68 -2 17 -7 39 -12 49 -6 15 0 17 54
17 50 0 71 6 123 34 l61 35 48 -24 47 -24 17 89 c17 89 18 91 65 125 41 30 56
35 102 35 42 0 59 5 72 19 17 19 17 20 -18 26 -31 6 -36 11 -36 36 0 19 5 29
15 29 19 0 65 68 65 97 0 38 11 53 34 48 16 -5 43 14 117 79 l96 85 -12 58
c-6 32 -16 57 -21 56 -5 -2 -38 -13 -74 -25 -36 -12 -71 -23 -77 -24 -7 -2
-13 -17 -13 -33 0 -42 -9 -60 -39 -75 -52 -27 -88 -29 -110 -7 -22 22 -56 27
-80 12 -9 -6 -29 -2 -58 12 -36 17 -43 25 -41 46 3 22 -3 27 -37 39 -56 18
-64 32 -53 90 9 51 6 77 -17 106 -10 14 -18 16 -27 9 -21 -17 -90 -3 -95 18
-5 16 -15 19 -74 19 -37 0 -80 -5 -95 -10 -20 -8 -36 -8 -57 1 -27 12 -29 15
-24 53 3 23 22 76 42 119 35 75 36 81 25 129 -8 42 -8 54 4 67 8 9 19 28 25
44 6 15 17 27 26 27 10 0 15 10 15 34 0 19 3 41 6 50 4 12 0 16 -15 16 -12 0
-35 10 -52 22 -29 21 -31 22 -43 6 -18 -25 -67 -25 -123 -1 -26 12 -56 24 -66
27 -14 5 -16 10 -7 26 15 29 -13 122 -44 142 -8 5 -7 11 2 20 24 24 14 65 -28
110 -61 67 -65 124 -9 153 28 15 66 61 58 70 -3 2 -22 0 -44 -5 -53 -13 -112
-12 -135 0 -27 15 -205 -8 -254 -32 -21 -11 -62 -39 -91 -63 -69 -56 -91 -63
-118 -36 l-21 20 37 54 c38 54 48 103 23 113 -8 3 -11 14 -9 28 6 28 -12 66
-31 66 -30 0 -39 28 -31 97 7 69 23 94 83 133 21 14 21 18 10 47 -10 27 -9 43
2 90 15 56 16 58 62 71 69 19 129 93 143 175 7 41 25 48 62 22 21 -15 23 -13
65 61 42 74 43 75 79 73 35 -3 69 13 69 32 0 4 -18 29 -40 54 -22 25 -40 50
-40 55 0 5 18 26 40 46 46 43 48 50 19 59 -15 5 -20 13 -15 28 3 12 15 58 27
102 22 83 22 113 -1 265 -6 36 -12 121 -14 190 -2 69 -4 133 -5 143 -1 12 -9
17 -30 17 -21 0 -32 6 -36 20 -8 25 -65 29 -65 5 0 -8 -13 -29 -30 -47 l-29
-33 -1 28 c0 15 -8 44 -19 65 -10 20 -21 58 -25 83 -4 26 -13 55 -21 65 -8 11
-15 40 -15 65 0 38 -6 53 -29 78 -17 18 -33 41 -36 52 -9 28 -62 52 -101 46
-32 -5 -33 -4 -36 31 -3 33 -6 37 -30 37 -16 1 -33 6 -40 13 -13 13 -24 14
-48 5z"/>
<path d="M3457 4933 c-22 -4 -27 -8 -21 -21 3 -9 9 -27 11 -39 3 -14 13 -23
24 -23 11 0 19 -5 19 -10 0 -6 12 -15 27 -21 20 -8 30 -6 41 5 31 31 -15 120
-60 115 -7 -1 -26 -4 -41 -6z"/>
<path d="M6020 1435 c-5 -14 -14 -25 -20 -25 -13 0 -13 -37 0 -45 6 -3 10 -22
10 -41 0 -38 1 -39 46 -22 33 12 44 31 44 80 0 20 -4 26 -15 22 -10 -4 -15 0
-15 13 0 20 -18 43 -32 43 -5 0 -13 -11 -18 -25z"/>
<path d="M5834 1295 c-8 -34 0 -41 32 -27 27 13 25 25 -6 42 -17 9 -21 6 -26
-15z"/>
<path d="M5890 1221 c13 -25 33 -28 28 -4 -2 10 -11 19 -21 21 -16 3 -17 1 -7
-17z"/>
<path d="M5870 973 c0 -31 15 -61 26 -51 9 10 -5 78 -16 78 -6 0 -10 -12 -10
-27z"/>
<path d="M5997 984 c-8 -14 -37 -134 -37 -155 0 -34 28 -20 50 26 16 33 20 53
15 77 -9 41 -21 63 -28 52z"/>
<path d="M6070 938 c0 -29 4 -58 8 -65 7 -11 62 -37 67 -31 1 2 5 31 8 66 5
60 4 64 -20 73 -54 20 -63 14 -63 -43z"/>
</g>
</svg>
