<?xml version="1.0" standalone="no"?>
<!DOCTYPE svg PUBLIC "-//W3C//DTD SVG 20010904//EN"
 "http://www.w3.org/TR/2001/REC-SVG-20010904/DTD/svg10.dtd">
<svg version="1.0" xmlns="http://www.w3.org/2000/svg"
 width="1024.000000pt" height="1024.000000pt" viewBox="0 0 1024.000000 1024.000000"
 preserveAspectRatio="xMidYMid meet">
<metadata>
Created by potrace 1.10, written by Peter Selinger 2001-2011
</metadata>
<g transform="translate(0.000000,1024.000000) scale(0.100000,-0.100000)"
fill="#000000" stroke="none">
<path d="M1037 9563 c-4 -3 -7 -14 -7 -24 0 -10 -9 -23 -19 -29 -25 -13 -98
-13 -106 0 -8 13 -157 3 -243 -16 -78 -17 -148 -52 -219 -111 -49 -39 -60 -44
-87 -38 -48 12 -75 9 -97 -11 -15 -14 -23 -15 -42 -6 -12 6 -52 10 -90 9 -89
-4 -102 -17 -116 -121 -10 -67 -9 -83 4 -102 16 -25 20 -64 6 -64 -4 0 -6 -11
-3 -25 3 -17 11 -25 26 -25 11 0 30 -7 40 -15 11 -8 27 -13 36 -10 10 3 29 -9
49 -29 30 -31 33 -39 28 -73 -4 -20 -1 -54 5 -74 9 -33 8 -41 -12 -71 -13 -18
-34 -43 -47 -56 -29 -29 -31 -82 -3 -107 12 -11 20 -31 20 -51 0 -30 3 -33 41
-39 38 -7 40 -9 37 -38 -3 -30 -6 -32 -46 -35 l-42 -3 0 -75 c0 -81 -16 -125
-64 -177 -14 -15 -26 -33 -26 -39 0 -5 14 -28 31 -49 26 -34 36 -39 70 -39 26
0 51 -8 70 -22 29 -22 31 -22 43 -5 10 13 28 17 83 17 51 0 74 4 83 15 16 19
59 19 80 0 9 -8 40 -18 70 -22 45 -7 56 -13 70 -38 12 -22 27 -32 58 -38 27
-5 42 -14 42 -23 0 -25 28 -27 65 -5 48 28 67 26 34 -3 -15 -13 -30 -33 -34
-45 -5 -16 -14 -21 -41 -21 -38 0 -42 -8 -16 -31 9 -9 30 -37 45 -64 25 -42
31 -47 57 -43 33 5 39 -4 33 -48 -6 -37 8 -49 37 -34 16 9 22 8 26 -4 8 -21
42 -30 58 -17 8 7 44 18 80 25 70 15 88 12 174 -25 23 -11 51 -19 60 -19 10 0
23 -5 29 -11 6 -6 56 -15 110 -19 54 -4 113 -13 131 -19 23 -7 50 -7 83 -1 39
8 58 6 88 -6 37 -14 40 -19 46 -65 6 -41 12 -52 35 -64 16 -8 47 -15 69 -15
34 0 44 -6 74 -42 l35 -42 39 42 c25 27 50 44 73 48 19 4 65 25 102 48 l67 41
-3 43 c-2 23 -11 51 -21 62 -10 11 -14 20 -8 20 6 0 21 -21 35 -47 20 -39 31
-49 64 -59 22 -7 55 -19 73 -29 36 -18 61 -8 61 26 0 28 14 31 84 18 l65 -12
51 46 c49 44 80 59 80 38 0 -6 -4 -13 -10 -16 -14 -9 -12 -25 3 -25 6 0 38 18
70 40 31 22 66 40 77 40 11 0 20 5 20 10 0 6 11 16 25 22 29 13 38 36 29 72
-5 20 -11 25 -25 21 -40 -13 -14 47 28 64 29 11 120 11 139 -2 10 -6 109 -9
289 -10 33 0 54 -5 61 -15 10 -14 17 -14 54 -3 32 9 45 20 53 42 11 29 12 29
73 23 61 -6 62 -6 95 28 50 51 100 79 122 67 13 -8 17 -6 17 4 0 8 14 20 31
27 29 12 30 15 24 54 -7 46 -73 186 -93 199 -7 5 -29 24 -50 44 -20 19 -62 59
-92 87 -30 29 -71 65 -90 81 -19 15 -46 51 -60 79 -22 44 -30 51 -58 54 -19 2
-44 -4 -59 -13 -25 -17 -26 -17 -62 22 -20 22 -45 43 -56 47 -16 4 -21 15 -22
44 -1 20 -2 44 -4 52 -1 9 1 28 5 44 6 24 1 33 -30 63 -34 32 -42 35 -83 30
-25 -3 -50 -12 -56 -21 -7 -9 -20 -16 -29 -16 -9 0 -34 -9 -56 -20 -47 -24
-50 -24 -50 -6 0 8 -16 31 -35 52 -19 20 -35 41 -35 45 0 5 -9 9 -19 9 -11 0
-35 9 -54 20 -34 20 -46 43 -47 85 -1 25 -59 54 -95 47 -20 -3 -33 -19 -55
-62 -27 -53 -32 -58 -70 -64 -35 -6 -49 -2 -86 21 -24 15 -44 33 -44 39 0 19
-45 54 -91 69 -45 15 -99 57 -99 76 0 6 -9 32 -21 59 -14 33 -30 52 -49 60
-16 7 -36 20 -46 31 -9 10 -28 19 -41 19 -13 0 -34 7 -47 15 -30 20 -50 11
-75 -31 -42 -71 -79 -53 -83 39 -3 61 -4 62 -40 80 -30 13 -47 15 -78 8 -35
-8 -42 -6 -50 9 -13 24 -13 57 0 65 6 3 10 15 10 26 0 29 -51 25 -80 -6 l-23
-24 -16 21 c-17 21 -60 32 -171 44 -30 3 -67 10 -81 15 -17 7 -35 6 -54 -1
-22 -8 -31 -7 -45 5 -22 20 -64 19 -85 -1 -23 -24 -104 -25 -134 -2 -25 19
-43 23 -54 11z"/>
<path d="M4017 7536 c7 -67 -7 -78 -48 -37 -17 17 -37 31 -45 31 -8 0 -17 7
-20 15 -4 8 -16 15 -29 15 -17 0 -27 -10 -39 -40 -9 -22 -23 -40 -31 -40 -11
0 -15 11 -15 40 0 47 -15 52 -60 19 -22 -17 -36 -20 -63 -15 -29 5 -35 3 -40
-14 -3 -11 4 -36 14 -57 10 -20 19 -51 19 -69 0 -24 8 -38 34 -58 19 -14 36
-36 38 -48 2 -15 10 -23 23 -24 11 -1 27 -4 37 -8 27 -12 5 -64 -54 -123 -28
-29 -49 -55 -45 -59 3 -3 28 -1 55 6 27 6 76 10 108 8 33 -1 66 2 74 7 8 6 54
10 102 11 47 0 92 5 100 11 21 16 106 34 132 27 37 -9 66 4 66 30 0 12 11 33
25 46 24 23 35 70 15 70 -13 0 -60 52 -60 67 0 19 -93 93 -118 93 -36 0 -82
28 -82 50 0 23 -66 100 -85 100 -10 0 -12 -13 -8 -54z"/>
<path d="M3514 7399 c-3 -6 -15 -9 -25 -6 -30 8 -25 -39 6 -59 24 -16 27 -15
44 0 18 16 22 16 50 2 37 -20 41 -20 41 -1 0 8 -9 20 -20 27 -11 7 -20 18 -20
24 0 23 -63 33 -76 13z"/>
<path d="M3660 7274 c0 -9 7 -14 17 -12 25 5 28 28 4 28 -12 0 -21 -6 -21 -16z"/>
<path d="M4762 6878 c-7 -7 -12 -21 -12 -31 0 -14 -4 -17 -17 -12 -45 20 -68
16 -96 -13 -28 -29 -28 -29 -11 -65 14 -30 23 -36 53 -39 28 -2 36 -7 36 -23
0 -11 -7 -21 -15 -22 -8 -1 -37 -5 -63 -8 -42 -6 -50 -10 -59 -36 -8 -24 -15
-29 -44 -29 -30 0 -37 5 -45 29 -12 35 -30 44 -63 31 -26 -9 -46 -59 -46 -111
0 -35 -7 -39 -38 -23 -15 8 -46 14 -69 14 -35 0 -43 -3 -43 -18 0 -17 -5 -17
-64 -9 -57 9 -68 8 -100 -11 l-36 -21 -29 24 c-31 27 -107 35 -127 15 -17 -17
-76 30 -86 68 -9 33 -28 36 -28 4 0 -9 -7 -30 -15 -46 -20 -38 -10 -48 66 -70
75 -21 95 -43 79 -90 -10 -31 -14 -35 -31 -25 -32 17 -55 2 -104 -67 -38 -52
-51 -64 -74 -64 -20 0 -31 -7 -39 -25 -6 -14 -17 -25 -23 -25 -6 0 -9 -7 -6
-15 4 -8 2 -17 -3 -20 -6 -4 -10 -14 -10 -24 0 -10 -7 -24 -15 -31 -11 -9 -12
-16 -5 -25 8 -9 4 -17 -15 -29 -14 -9 -25 -24 -25 -34 0 -19 61 -82 97 -101
37 -19 89 -13 121 14 28 23 31 24 118 15 49 -5 90 -10 92 -10 1 0 2 -11 2 -24
0 -13 11 -40 25 -60 31 -46 35 -106 6 -106 -32 0 -34 -19 -6 -56 25 -33 30
-35 69 -29 38 6 40 5 21 -10 -49 -37 -67 -59 -54 -63 33 -10 39 -23 23 -47
-19 -29 -5 -61 32 -75 13 -5 24 -18 24 -28 0 -20 -29 -52 -48 -52 -21 0 -42
-32 -42 -64 0 -18 -9 -45 -20 -59 -13 -17 -19 -37 -17 -63 l2 -39 -45 0 c-25
-1 -60 -9 -77 -18 -35 -18 -66 -67 -61 -95 1 -9 -1 -22 -5 -28 -3 -6 4 -27 16
-45 19 -28 29 -34 62 -35 22 -1 65 -9 96 -18 47 -14 58 -22 72 -51 15 -31 32
-41 61 -36 5 1 27 -1 47 -4 47 -8 55 -28 33 -81 -16 -38 -16 -38 11 -60 23
-18 25 -24 16 -43 -13 -24 -29 -26 -65 -10 -29 14 -76 4 -76 -15 0 -7 9 -25
20 -39 17 -22 26 -25 57 -20 l36 6 -6 -43 c-4 -32 0 -54 14 -82 24 -46 19 -58
-25 -58 -24 0 -43 9 -70 36 -27 26 -44 35 -64 33 -15 -2 -33 0 -39 4 -8 5 -27
-2 -46 -18 -34 -25 -34 -26 -41 -130 -7 -115 -1 -139 39 -149 15 -4 25 -13 25
-24 0 -11 14 -25 35 -35 23 -11 35 -24 35 -37 0 -28 28 -82 51 -98 26 -18 24
-38 -3 -46 -36 -9 -119 -7 -163 5 -71 19 -105 22 -120 9 -22 -18 -9 -59 33
-102 l35 -37 -30 -48 c-17 -26 -34 -58 -38 -71 -11 -39 12 -86 61 -123 51 -38
92 -108 126 -217 19 -62 22 -97 19 -206 -1 -29 5 -46 23 -65 13 -14 45 -59 71
-99 28 -45 62 -82 86 -97 21 -14 39 -32 39 -39 0 -31 64 -56 159 -63 59 -4 91
-10 91 -18 0 -6 -13 -24 -30 -40 l-30 -29 28 -18 c15 -10 40 -18 56 -18 20 0
44 -15 85 -52 60 -54 84 -87 94 -129 4 -17 27 -39 69 -67 35 -22 88 -65 118
-96 30 -31 79 -67 109 -81 29 -15 78 -51 107 -81 44 -44 63 -56 106 -66 29 -7
56 -18 61 -24 4 -7 49 -33 100 -57 50 -24 100 -53 111 -65 10 -12 34 -26 52
-32 37 -13 44 -37 23 -83 -9 -21 -7 -30 12 -56 19 -25 30 -31 61 -31 32 0 45
-7 71 -35 30 -33 37 -36 82 -34 39 2 76 -8 165 -43 111 -43 115 -46 113 -74
-1 -17 5 -37 17 -49 10 -11 20 -36 22 -55 3 -34 4 -35 62 -47 32 -6 72 -21 87
-32 23 -17 33 -19 48 -11 29 15 109 13 118 -4 10 -18 86 -24 105 -9 24 20 68
3 86 -33 8 -19 21 -34 29 -34 7 0 17 -9 23 -20 12 -22 40 -26 57 -9 9 9 25 5
66 -14 30 -14 63 -23 74 -21 13 4 23 -2 31 -18 19 -34 103 -79 126 -66 13 7
25 6 41 -2 33 -18 68 -6 99 35 32 41 50 44 72 10 15 -22 23 -25 79 -25 62 0
64 -1 96 -41 42 -54 133 -113 162 -105 15 4 30 -3 48 -20 25 -24 32 -25 100
-21 41 3 88 8 104 12 24 5 35 2 49 -14 18 -19 26 -20 143 -14 79 4 131 2 146
-4 12 -6 57 -23 101 -38 43 -14 121 -51 174 -81 53 -30 102 -54 108 -54 6 0
19 -9 28 -19 26 -29 115 -40 343 -43 187 -2 203 -1 223 17 14 12 33 18 53 17
42 -4 117 51 117 85 0 25 10 29 27 12 14 -14 73 18 73 41 0 8 41 56 90 105 50
49 90 93 90 97 0 18 -21 3 -108 -78 -70 -65 -92 -81 -92 -66 0 11 3 22 8 24
16 7 102 108 102 120 0 21 -89 117 -108 116 -9 0 -29 3 -44 7 -51 14 -45 -19
16 -87 31 -34 56 -64 56 -67 0 -4 -9 -12 -19 -18 -18 -11 -31 -2 -123 81 -86
80 -105 93 -121 84 -12 -6 -17 -17 -14 -29 4 -13 0 -19 -11 -19 -28 0 -45 17
-40 38 3 12 -3 34 -16 53 -45 69 -46 73 -31 89 13 12 17 12 29 -5 13 -19 15
-18 51 9 32 25 36 32 31 59 -8 41 -33 77 -52 77 -12 0 -15 6 -10 23 3 12 6 30
6 41 0 16 5 17 44 12 32 -5 54 -3 75 8 48 25 74 20 92 -17 9 -20 32 -40 59
-54 53 -28 78 -29 87 -5 4 9 15 28 25 41 17 22 17 26 3 47 -8 13 -15 34 -15
46 0 13 -7 52 -14 88 -12 55 -12 70 0 97 15 38 20 39 53 16 23 -16 23 -17 5
-23 -17 -6 -16 -9 11 -23 58 -32 113 -91 136 -147 12 -30 29 -61 37 -67 11 -9
15 -28 13 -67 -2 -53 -2 -55 26 -58 24 -3 28 -8 31 -36 2 -19 -1 -46 -6 -62
-9 -24 -7 -31 13 -50 17 -16 25 -37 29 -84 10 -85 12 -88 69 -69 38 12 47 19
41 32 -4 9 -8 27 -9 41 -1 15 -10 29 -23 35 -25 11 -31 41 -6 31 30 -11 51 11
58 61 3 26 13 61 21 77 17 32 16 34 -17 50 -16 9 -22 19 -20 37 2 13 4 36 4
51 1 18 5 25 14 21 10 -4 14 6 14 36 0 39 -2 41 -30 41 -38 0 -70 34 -70 76 0
46 22 49 71 9 48 -41 63 -44 54 -12 -9 28 -53 87 -66 87 -5 0 -9 13 -9 29 0
22 6 31 29 41 25 10 36 9 74 -8 24 -11 54 -34 66 -51 21 -29 51 -42 51 -22 0
5 9 11 20 14 25 6 36 35 23 56 -5 8 -27 25 -49 36 -52 27 -61 56 -40 129 14
48 22 60 47 69 61 23 21 44 -77 41 -68 -3 -71 -2 -87 25 -33 56 -11 121 41
121 36 0 49 10 53 40 3 21 10 26 47 30 40 5 45 8 57 43 18 52 41 75 79 79 37
4 43 31 8 36 -12 2 -28 12 -35 23 -7 11 -34 36 -61 55 -50 37 -80 39 -115 11
-13 -11 -122 -38 -129 -32 -2 2 4 17 13 34 13 26 20 30 40 25 18 -4 35 1 60
20 19 15 47 26 62 26 49 0 153 12 158 19 2 4 -12 27 -32 51 -19 25 -47 65 -61
90 -34 59 -116 153 -147 170 -15 8 -25 22 -25 35 0 12 -8 29 -17 37 -18 15
-134 72 -165 82 -9 3 -26 25 -37 50 -15 34 -26 47 -48 51 -49 11 -53 14 -53
36 0 35 -38 78 -82 91 -25 7 -62 33 -97 66 -31 30 -79 69 -106 87 -28 18 -57
40 -64 49 -16 19 -28 20 -62 2 -23 -12 -27 -11 -37 4 -6 10 -28 23 -49 30 -21
6 -80 32 -131 56 -86 41 -132 54 -132 37 0 -12 33 -64 74 -117 43 -56 44 -66
11 -66 -14 0 -25 5 -25 10 0 22 -32 22 -55 0 l-24 -22 50 -65 c27 -35 49 -68
49 -73 0 -4 -15 -3 -32 2 -74 24 -86 34 -149 111 -32 38 -56 46 -77 25 -9 -9
-2 -21 31 -53 36 -34 47 -53 60 -108 19 -75 21 -115 7 -137 -7 -11 -10 0 -10
37 0 43 -6 59 -33 95 -18 24 -36 50 -39 59 -4 9 -27 24 -52 32 -46 16 -46 16
-46 -7 0 -13 11 -39 24 -58 13 -19 26 -51 30 -70 4 -20 15 -47 26 -61 24 -30
26 -89 5 -107 -13 -11 -15 -6 -15 35 0 38 -6 55 -31 86 -26 33 -37 39 -67 39
-21 0 -55 -10 -77 -21 -32 -17 -43 -19 -58 -9 -22 14 -37 0 -37 -35 0 -12 -13
-27 -30 -37 -27 -15 -30 -22 -30 -68 0 -36 -4 -50 -14 -50 -7 0 -25 -9 -40
-21 -20 -16 -26 -17 -26 -6 0 9 6 18 13 21 8 3 6 9 -7 20 -27 22 -56 20 -83
-6 -24 -23 -31 -11 -13 23 12 22 59 26 91 7 17 -11 22 -10 35 7 13 17 12 21
-11 43 -14 12 -25 29 -25 36 0 7 -11 18 -25 24 -28 13 -35 38 -8 28 39 -15
106 6 151 47 40 38 119 148 135 190 3 9 18 22 32 27 14 5 37 30 52 54 22 36
38 49 78 64 46 18 50 22 56 58 3 21 15 58 27 81 28 53 28 79 1 94 -26 13 -65
-4 -75 -33 -7 -23 -46 -33 -72 -19 -27 14 -24 15 -67 -19 -21 -16 -49 -30 -62
-30 -15 0 -39 -14 -60 -35 -19 -19 -39 -35 -44 -35 -5 0 -9 -4 -9 -8 0 -16
-105 -122 -119 -122 -8 0 -27 -12 -42 -26 l-27 -26 1 48 2 49 -58 -3 c-33 -1
-69 -9 -83 -19 -25 -16 -26 -16 -22 7 4 34 85 63 149 55 64 -8 95 6 101 44 5
37 -16 61 -85 91 -47 21 -52 26 -42 53 5 12 14 11 60 -4 29 -9 64 -25 78 -34
36 -23 81 -34 100 -23 10 5 26 27 38 49 19 38 19 42 4 65 -14 22 -22 24 -96
24 -47 0 -94 -6 -114 -14 -44 -19 -53 -5 -25 34 24 33 45 46 137 79 l62 23 66
-56 c69 -58 117 -76 154 -57 14 8 21 21 21 39 0 23 -6 30 -32 37 -22 7 -40 23
-58 54 -27 47 -39 56 -84 66 -26 5 -28 9 -22 38 13 69 12 71 -20 82 -17 5 -37
15 -45 21 -8 6 -31 15 -53 18 -24 5 -49 19 -68 39 -29 31 -29 32 -44 12 -8
-11 -17 -31 -20 -45 -10 -45 -13 -50 -34 -50 -12 0 -31 -5 -42 -11 -19 -10
-20 -9 -16 32 3 37 0 46 -30 75 -19 18 -41 35 -50 37 -10 2 -7 3 6 1 12 -2 33
-7 45 -10 34 -8 53 16 61 78 6 49 4 55 -21 76 l-28 23 35 30 c28 24 32 31 20
39 -8 5 -19 5 -25 1 -5 -5 -35 -11 -65 -14 -30 -3 -65 -8 -77 -12 -40 -13 -25
9 24 35 58 31 77 68 48 100 -11 12 -31 20 -50 20 -20 0 -35 6 -39 15 -3 8 -14
15 -25 15 -10 0 -44 21 -75 47 -43 36 -56 54 -56 75 0 24 -6 29 -52 42 -126
35 -154 37 -220 15 -51 -18 -75 -21 -142 -15 -45 3 -102 13 -128 23 -39 14
-48 21 -48 41 0 29 -30 82 -47 82 -6 0 -16 -6 -20 -13 -4 -8 -16 -17 -26 -20
-17 -6 -18 0 -17 66 1 90 -8 138 -28 155 -21 16 -27 15 -46 -4 -10 -9 -16 -33
-16 -58 0 -36 -4 -45 -25 -54 -24 -11 -25 -10 -25 18 0 16 -4 32 -10 35 -5 3
-10 14 -10 25 0 10 -15 27 -35 39 -35 21 -43 35 -25 46 16 10 12 45 -5 45 -8
0 -29 14 -47 30 -32 31 -52 37 -63 20 -4 -6 -31 7 -65 30 -32 22 -71 40 -85
40 -14 0 -39 10 -55 22 -29 21 -30 21 -50 3 -11 -10 -20 -29 -20 -41 0 -27
-108 -144 -132 -144 -8 0 -29 -19 -46 -42 -18 -24 -47 -61 -67 -83 l-35 -40
26 75 c15 41 34 82 43 91 35 33 44 73 27 114 -22 52 -20 98 4 120 13 12 20 31
20 57 0 43 18 57 53 41 30 -14 47 -6 47 23 0 22 -4 24 -43 24 -80 0 -280 -119
-291 -173 -8 -39 -68 -97 -89 -86 -8 5 -39 6 -69 1 -47 -6 -54 -11 -63 -37
-15 -44 -24 -55 -45 -55 -10 0 -20 -5 -22 -11 -3 -9 -19 -7 -57 6 -29 9 -61
15 -72 12 -12 -3 -19 0 -19 9 0 17 1 17 -39 3 -17 -6 -31 -15 -31 -19 0 -12
-69 -50 -91 -50 -23 0 -99 -46 -99 -60 0 -6 -14 -10 -30 -10 -17 0 -45 -7 -61
-16 -28 -14 -32 -14 -50 2 -10 9 -19 28 -19 41 0 26 65 103 86 103 20 0 57 62
42 71 -8 5 1 21 25 48 40 45 49 89 22 111 -20 16 -16 49 7 64 15 9 23 5 47
-22 37 -40 62 -41 85 -1 17 29 17 31 1 49 -16 18 -16 22 5 66 l23 47 -24 44
c-22 41 -23 45 -6 54 42 24 -11 56 -63 37 -25 -8 -34 -7 -49 6 -20 18 -44 20
-70 6 -14 -7 -23 -4 -37 11 -11 12 -31 27 -45 35 -22 11 -29 11 -48 -2 -11 -8
-21 -21 -21 -28 0 -8 -10 -16 -22 -20 -18 -5 -31 2 -55 29 -18 19 -33 44 -33
55 0 32 -28 36 -58 8 -19 -18 -59 -34 -131 -52 -57 -14 -118 -35 -135 -45 -19
-12 -59 -22 -106 -26 -41 -4 -92 -13 -113 -21 -66 -25 -103 -19 -140 23 -45
51 -74 102 -82 144 -6 34 -4 38 29 58 19 12 38 31 41 41 4 13 14 19 28 18 27
-2 87 32 87 49 0 8 13 16 29 19 19 4 39 20 56 43 14 21 43 48 65 60 34 19 40
27 40 56 0 44 25 60 105 69 39 4 72 15 96 31 19 14 42 25 51 25 16 0 50 48 63
89 5 17 1 23 -22 32 -15 6 -36 18 -46 27 -19 17 -87 156 -87 178 0 7 -9 16
-20 19 -11 4 -33 17 -48 30 -22 18 -32 21 -40 13z m3489 -3905 c-12 -20 -14
-14 -5 12 4 9 9 14 11 11 3 -2 0 -13 -6 -23z"/>
</g>
</svg>
