<?xml version="1.0" standalone="no"?>
<!DOCTYPE svg PUBLIC "-//W3C//DTD SVG 20010904//EN"
 "http://www.w3.org/TR/2001/REC-SVG-20010904/DTD/svg10.dtd">
<svg version="1.0" xmlns="http://www.w3.org/2000/svg"
 width="1024.000000pt" height="1024.000000pt" viewBox="0 0 1024.000000 1024.000000"
 preserveAspectRatio="xMidYMid meet">
<metadata>
Created by potrace 1.10, written by Peter Selinger 2001-2011
</metadata>
<g transform="translate(0.000000,1024.000000) scale(0.100000,-0.100000)"
fill="#000000" stroke="none">
<path d="M8135 9396 c-27 -13 -66 -27 -85 -31 -19 -4 -65 -25 -102 -46 -36
-22 -78 -39 -91 -39 -19 0 -37 -16 -75 -67 -27 -38 -52 -76 -55 -85 -7 -20 15
-30 48 -22 44 11 62 -10 73 -83 7 -50 7 -71 -1 -78 -48 -42 -77 -88 -77 -125
0 -21 -4 -42 -10 -45 -5 -3 -10 -21 -10 -40 0 -19 -4 -37 -10 -40 -5 -3 -10
-18 -10 -33 0 -15 -11 -49 -24 -77 -24 -49 -24 -50 -5 -53 52 -9 30 -72 -30
-90 -23 -7 -41 -17 -41 -21 0 -5 -21 -34 -47 -65 -33 -40 -51 -55 -62 -50 -9
3 -43 10 -76 14 -33 5 -69 12 -81 15 -19 6 -23 -4 -55 -107 -19 -62 -33 -121
-31 -132 1 -10 -7 -34 -19 -52 -13 -22 -18 -41 -14 -55 5 -14 0 -28 -15 -44
-31 -33 -20 -76 25 -101 34 -18 35 -18 57 3 13 11 43 25 67 31 37 9 48 8 75
-9 17 -10 43 -19 58 -19 22 0 29 7 40 43 13 39 18 43 61 51 41 8 53 6 100 -17
29 -15 60 -27 70 -27 9 0 17 -7 17 -15 0 -8 21 -26 46 -41 80 -47 129 -141 90
-173 -7 -6 -64 -13 -127 -16 -103 -5 -115 -7 -139 -30 -17 -16 -38 -25 -59
-25 -27 0 -34 -5 -42 -30 -10 -26 -16 -30 -47 -30 -21 0 -47 -8 -58 -18 -30
-23 -64 -95 -64 -132 0 -20 -6 -33 -17 -37 -10 -3 -31 -18 -48 -33 -34 -31
-112 -60 -162 -60 -28 0 -33 -4 -33 -24 0 -24 -82 -110 -129 -135 -33 -18
-153 -5 -185 20 -16 12 -40 19 -71 19 l-46 0 -41 -85 -40 -85 40 -47 c22 -27
49 -56 60 -66 11 -10 18 -26 15 -35 -5 -18 -68 -69 -119 -95 -17 -9 -43 -35
-59 -59 -61 -93 -96 -128 -127 -128 -16 0 -46 -11 -66 -25 -25 -17 -50 -25
-79 -25 -23 0 -45 -5 -48 -11 -4 -6 -33 -9 -68 -8 -34 2 -79 -3 -99 -10 -25
-8 -43 -9 -55 -3 -13 8 -24 5 -42 -9 -13 -10 -37 -19 -53 -19 -46 0 -173 -60
-277 -130 l-94 -62 -33 16 c-25 12 -34 22 -34 41 0 25 0 25 -36 10 -54 -22
-93 -19 -191 19 -48 18 -106 37 -128 40 -47 8 -62 19 -94 64 -19 27 -28 32
-65 32 -23 0 -91 9 -151 20 -73 13 -112 17 -119 10 -16 -16 -112 -12 -267 11
-108 16 -148 18 -166 10 -18 -8 -31 -8 -53 4 -16 8 -52 15 -80 15 -46 0 -50 2
-50 23 0 13 -15 37 -34 56 -27 26 -39 53 -61 129 -17 57 -36 103 -47 111 -10
7 -18 26 -18 42 0 26 -3 29 -32 29 -25 0 -49 13 -93 50 -33 28 -69 53 -80 56
-11 3 -40 25 -65 49 -43 41 -48 43 -125 49 -50 4 -127 21 -207 46 l-127 40
-11 38 c-14 52 -14 54 20 92 25 30 29 44 30 91 0 39 5 61 16 70 22 18 11 93
-20 134 -13 17 -27 53 -31 81 -10 62 -60 137 -87 128 -13 -4 -21 2 -30 21 -9
20 -16 25 -32 20 -12 -4 -38 -9 -58 -12 -31 -4 -38 -2 -38 12 0 10 -8 39 -17
65 -14 40 -24 52 -59 68 -34 17 -41 25 -37 41 3 12 -2 33 -12 47 -14 22 -15
30 -5 49 18 34 7 42 -52 39 -29 -1 -68 -3 -85 -3 -30 -1 -33 -4 -33 -34 0 -52
-40 -83 -118 -92 -60 -7 -63 -8 -87 -49 -22 -37 -25 -55 -25 -133 0 -101 -4
-108 -78 -136 -56 -22 -67 -21 -96 8 -19 19 -36 25 -69 25 -30 0 -56 8 -89 29
-92 58 -78 64 -152 -64 -36 -63 -66 -122 -66 -131 0 -9 -16 -38 -35 -63 l-34
-47 21 -22 c19 -18 20 -24 8 -51 -12 -29 -30 -42 -30 -21 0 5 -18 14 -40 20
-21 6 -43 17 -48 26 -7 13 -27 14 -154 6 -80 -6 -155 -15 -166 -21 -29 -15
-17 -41 18 -41 15 0 33 -7 41 -16 10 -13 9 -21 -6 -47 -16 -26 -19 -50 -17
-132 1 -55 4 -126 8 -157 l6 -58 -31 0 c-26 0 -31 -4 -31 -25 0 -18 -5 -25
-18 -25 -28 0 -52 -32 -58 -76 -10 -70 -24 -94 -53 -94 -15 0 -31 -4 -37 -10
-5 -5 -65 -21 -134 -35 -116 -24 -127 -28 -155 -61 l-30 -34 -78 10 c-43 6
-96 17 -117 25 l-40 14 -52 -59 -52 -60 -68 0 -67 0 -7 35 c-7 41 -19 51 -39
35 -9 -7 -29 -9 -52 -5 -29 4 -52 0 -96 -20 -32 -14 -68 -25 -80 -25 -35 -1
-71 -34 -72 -67 0 -22 -7 -31 -33 -43 -37 -17 -48 -44 -32 -84 8 -23 7 -31 -6
-40 -10 -8 -14 -23 -12 -46 3 -33 6 -35 46 -41 32 -4 53 -15 80 -42 36 -36 36
-37 24 -82 -7 -25 -12 -81 -12 -125 l0 -80 -27 -2 c-16 0 -40 0 -56 1 -18 2
-29 -4 -34 -15 -9 -24 58 -84 95 -84 34 0 52 -16 52 -47 0 -16 4 -21 16 -16 8
3 25 -4 40 -17 29 -28 33 -93 7 -122 -13 -15 -14 -23 -5 -44 7 -13 12 -34 12
-45 0 -17 5 -18 38 -13 36 6 38 4 50 -29 17 -47 141 -127 196 -127 32 0 36 -3
34 -22 -1 -13 1 -60 6 -106 8 -81 9 -84 45 -106 20 -13 44 -38 54 -55 18 -30
18 -31 0 -31 -35 0 -61 -52 -31 -62 8 -3 7 -11 -5 -28 -33 -47 -10 -134 38
-146 15 -4 22 -11 18 -20 -3 -8 0 -35 6 -59 14 -57 1 -81 -48 -88 -20 -3 -46
-9 -57 -12 -18 -6 -22 -2 -28 29 -6 33 -10 36 -41 36 -35 0 -35 0 -35 -46 0
-30 8 -59 21 -81 20 -31 20 -36 6 -50 -12 -12 -13 -22 -5 -43 7 -22 5 -36 -7
-60 -16 -32 -16 -32 7 -25 13 4 27 11 32 16 13 12 35 -21 36 -52 0 -34 36 -79
61 -79 31 0 101 -61 96 -82 -4 -12 5 -25 26 -40 61 -41 117 -102 117 -125 0
-33 28 -41 46 -14 13 18 63 51 79 51 3 0 5 -6 5 -14 0 -16 61 -69 129 -111 24
-15 55 -40 68 -56 14 -16 30 -29 36 -29 18 0 67 -87 67 -118 0 -17 8 -32 21
-41 20 -12 24 -10 44 14 18 24 24 26 43 16 25 -13 26 -22 13 -69 -10 -32 -8
-34 57 -85 36 -29 69 -51 72 -51 3 1 15 5 28 9 20 6 22 3 22 -33 0 -43 10 -52
59 -52 22 0 35 -10 57 -42 15 -24 30 -45 32 -48 1 -2 12 1 23 8 18 11 21 11
26 -7 6 -25 45 -36 56 -16 14 26 43 16 104 -32 l58 -48 85 1 c54 0 104 7 138
18 29 10 59 15 67 12 17 -6 21 -81 6 -105 -11 -18 7 -61 26 -61 14 0 93 75 93
89 0 11 86 66 118 76 39 11 92 -3 92 -25 0 -10 8 -21 18 -24 45 -12 130 -26
153 -24 44 4 89 -22 96 -53 6 -32 13 -34 118 -30 63 3 90 18 106 59 5 12 16
22 25 22 25 0 84 48 95 77 8 20 14 24 34 19 35 -9 84 14 166 79 78 60 99 66
114 33 8 -18 23 -25 78 -34 65 -10 68 -10 85 11 9 13 38 29 64 38 44 14 47 14
64 -4 16 -18 16 -21 -1 -54 -23 -42 -15 -53 28 -37 29 11 34 10 50 -9 17 -22
17 -23 -13 -54 -16 -17 -30 -39 -30 -48 0 -19 5 -20 35 -8 14 6 28 2 48 -15
16 -13 41 -24 56 -24 15 0 32 -5 39 -12 9 -9 16 -5 32 14 23 30 48 28 97 -9
23 -16 34 -35 38 -61 4 -20 14 -59 22 -86 13 -42 17 -46 30 -34 8 8 24 13 36
11 19 -4 22 -12 24 -56 7 -150 2 -212 -19 -253 -21 -40 -21 -43 -5 -68 23 -34
22 -36 -12 -36 -25 0 -31 -5 -36 -30 -5 -23 -12 -30 -29 -30 -17 0 -25 -8 -32
-32 -6 -20 -17 -34 -29 -36 -35 -7 -57 -34 -51 -63 4 -21 0 -29 -20 -38 -24
-11 -26 -15 -20 -64 10 -77 10 -109 1 -134 -9 -29 7 -30 43 -4 34 24 98 34
155 26 38 -6 44 -10 40 -26 -3 -11 1 -33 8 -51 7 -17 12 -44 11 -59 -1 -15 2
-30 8 -34 5 -3 10 -16 10 -29 0 -34 19 -46 72 -46 43 0 48 -2 48 -22 0 -13 -9
-34 -20 -48 -11 -14 -20 -38 -20 -53 0 -16 -11 -43 -26 -62 -14 -18 -21 -35
-17 -38 19 -11 119 -37 144 -37 26 0 27 -2 22 -35 -5 -30 -2 -36 21 -46 17 -8
26 -20 26 -35 0 -21 2 -22 24 -13 16 8 33 8 53 2 24 -9 33 -6 61 18 41 36 72
38 72 5 0 -13 7 -29 15 -36 8 -7 15 -23 15 -36 0 -22 4 -24 43 -22 23 1 53 -1
66 -6 l23 -8 -3 85 c-3 63 -8 90 -22 104 -20 23 -22 81 -3 106 11 14 15 15 25
4 19 -24 77 -14 111 18 16 16 30 35 30 42 0 25 41 10 94 -34 l29 -24 38 37
c37 36 40 37 52 20 13 -18 15 -18 30 4 l16 23 35 -26 c42 -32 56 -34 56 -7 0
27 25 36 54 20 19 -10 29 -9 52 4 48 26 64 42 64 64 0 14 17 30 52 52 l52 32
25 -31 c15 -18 35 -31 48 -31 13 0 24 -8 28 -20 7 -22 21 -25 59 -10 17 6 27
6 32 -1 3 -6 20 -9 38 -8 67 4 76 1 76 -29 0 -16 -9 -37 -20 -47 -25 -23 -25
-37 -1 -59 11 -10 21 -30 23 -44 2 -18 10 -28 23 -30 11 -2 29 -14 40 -26 33
-39 103 -64 148 -53 29 7 42 6 55 -6 18 -15 92 -13 92 3 0 5 10 10 22 12 14 2
24 12 28 26 l5 24 24 -26 c17 -18 35 -26 57 -26 18 0 34 -5 36 -11 7 -20 98
-2 98 19 0 13 3 12 16 -6 8 -12 26 -22 40 -22 28 0 29 -7 9 -34 -16 -21 -21
-116 -6 -116 5 0 12 -16 15 -36 4 -19 14 -38 22 -41 7 -3 14 -14 14 -24 0 -16
8 -19 55 -19 50 0 56 2 70 30 15 28 14 30 -10 46 -15 10 -25 26 -25 39 0 15
-8 26 -20 30 -11 3 -20 13 -20 20 0 9 6 12 15 9 33 -13 64 5 76 45 12 42 44
61 156 96 29 9 69 28 90 42 24 17 53 27 78 28 37 1 65 9 120 35 11 5 29 10 39
12 11 2 24 16 30 34 7 18 16 29 24 26 7 -2 21 2 30 10 9 8 25 18 35 21 14 5
16 14 11 49 -3 24 -13 60 -21 81 -12 27 -13 41 -6 48 8 8 15 4 24 -12 26 -50
64 -89 87 -89 12 0 39 7 59 15 20 9 44 13 54 10 14 -5 18 1 21 22 3 30 38 47
38 18 0 -33 29 -26 66 15 38 42 39 42 52 21 18 -27 48 -27 55 0 4 14 12 19 24
17 10 -3 41 7 68 21 28 14 64 28 80 31 24 4 31 11 33 33 2 15 12 32 23 37 11
6 24 30 30 55 7 29 17 45 27 45 8 0 32 18 53 40 21 22 42 40 48 40 12 0 61 56
90 103 14 23 20 44 16 57 -4 14 -2 20 8 20 8 0 22 9 32 20 10 11 29 20 42 20
22 0 23 3 17 35 -6 34 -5 35 25 35 28 0 31 3 31 30 0 20 5 30 15 30 17 0 34
29 32 55 -2 17 3 20 36 17 31 -2 37 0 37 16 0 11 -7 22 -15 26 -8 3 -15 12
-15 19 0 8 7 20 15 27 18 15 20 53 3 79 -9 15 -7 24 12 52 15 21 20 34 12 37
-6 2 -23 12 -37 23 -43 34 -15 47 49 23 12 -5 16 0 16 18 0 14 9 33 20 43 11
10 20 28 20 40 0 12 8 30 19 39 10 9 22 36 25 59 6 36 63 214 73 226 2 3 9 -1
15 -7 17 -17 26 -15 33 8 3 11 17 23 30 26 l23 6 -20 34 c-15 26 -18 41 -12
57 14 33 6 75 -17 82 -38 12 -22 35 25 35 l44 0 -13 48 c-7 26 -16 54 -19 63
-4 9 0 21 9 29 20 16 4 30 -36 30 -15 0 -38 13 -59 35 -19 19 -41 35 -50 35
-9 0 -40 -18 -70 -40 -48 -36 -55 -38 -70 -25 -15 14 -20 14 -46 0 -32 -16
-41 -7 -24 24 8 16 21 21 51 21 49 0 79 15 79 39 0 10 16 27 39 39 21 12 42
29 45 38 3 8 22 22 41 30 52 21 48 53 -14 98 -27 20 -56 36 -65 36 -9 0 -25 9
-36 20 -14 14 -33 20 -62 20 -36 0 -45 4 -55 26 -11 24 -11 26 10 19 12 -3 36
-10 53 -14 18 -5 47 -20 65 -34 19 -14 51 -28 72 -32 33 -6 37 -5 37 14 0 15
-10 23 -40 31 -54 15 -60 30 -11 30 47 0 49 7 20 44 -14 17 -30 26 -50 26 -22
0 -29 5 -29 19 0 25 -23 43 -79 62 -43 15 -46 18 -49 54 -3 28 -15 53 -44 87
-22 27 -63 92 -92 146 l-52 97 -66 15 c-37 8 -75 23 -85 33 -11 9 -29 17 -40
17 -23 0 -36 39 -22 62 5 7 9 23 9 34 0 12 6 27 14 33 8 7 18 26 21 42 5 22
12 29 30 29 18 0 25 7 30 30 3 16 15 41 26 55 17 21 18 25 5 25 -9 0 -16 8
-16 19 0 27 17 35 28 15 8 -15 11 -15 41 1 26 13 32 22 30 43 -3 21 8 38 49
80 29 28 57 52 62 52 6 0 28 17 51 37 l40 37 30 -18 c17 -10 32 -16 34 -14 2
2 13 36 24 76 l20 72 -35 0 c-20 0 -44 5 -55 11 -16 8 -25 7 -37 -4 -27 -23
-49 -27 -112 -20 -47 5 -60 9 -60 23 0 9 -12 22 -26 29 -23 10 -32 8 -75 -20
-30 -19 -49 -38 -49 -49 0 -11 -13 -27 -30 -37 -16 -9 -30 -22 -30 -29 0 -6
-9 -23 -21 -38 -17 -21 -29 -26 -68 -26 -26 0 -52 5 -59 12 -7 7 -12 37 -12
69 0 42 -6 65 -23 90 -23 35 -61 49 -80 30 -16 -16 -91 -13 -129 5 -18 8 -43
30 -54 47 l-21 32 20 67 c21 71 46 91 77 63 21 -19 34 -19 50 0 6 7 31 17 54
20 39 6 43 10 59 55 9 26 17 59 17 73 0 13 7 30 15 37 8 7 15 19 15 26 0 8 6
14 13 14 6 1 42 23 80 51 45 33 67 56 67 70 0 11 12 35 26 54 14 18 30 49 35
68 7 28 16 37 40 42 18 4 36 2 44 -5 12 -10 18 -10 30 0 12 10 19 10 27 2 7
-7 24 -12 39 -12 20 0 30 -7 39 -30 11 -27 9 -37 -15 -93 -15 -34 -38 -72 -51
-84 -13 -12 -24 -33 -24 -47 0 -14 -4 -28 -10 -31 -5 -3 -10 -9 -10 -13 0 -9
50 -32 71 -32 15 0 15 -4 2 -45 -12 -36 -22 -47 -49 -57 -22 -8 -34 -19 -34
-30 0 -21 -1 -21 56 -7 29 8 44 17 44 28 0 9 13 24 29 33 17 9 39 34 50 56 22
43 119 132 143 132 9 0 18 9 21 20 3 12 14 20 25 20 12 0 24 5 27 10 3 6 17
10 31 10 52 0 114 55 114 100 0 17 112 150 127 150 7 0 23 18 35 40 13 21 33
42 45 45 30 7 59 60 72 129 16 88 49 117 86 76 21 -24 72 -26 155 -6 69 16 78
41 30 86 -18 16 -30 35 -28 42 6 19 68 47 105 48 36 0 63 30 63 70 0 34 10 47
40 51 32 5 50 51 32 80 -16 25 -5 69 17 69 9 -1 25 -15 36 -33 16 -24 28 -32
50 -32 27 0 31 4 35 35 4 25 12 38 33 48 26 12 27 17 27 83 0 43 -5 78 -14 92
-8 12 -17 43 -21 68 -4 27 -26 80 -51 124 -24 43 -44 82 -44 89 0 6 15 18 32
27 37 18 45 30 53 83 5 31 8 35 18 24 9 -11 31 -13 99 -9 101 7 113 14 97 59
-9 27 -8 37 10 68 14 23 19 44 15 60 -3 13 -1 30 5 38 13 15 16 94 9 261 -5
117 -5 121 19 147 29 30 26 74 -8 104 -12 11 -19 30 -19 55 0 35 -2 38 -32 41
-26 2 -45 -6 -85 -37 -29 -22 -53 -48 -53 -57 0 -13 -8 -18 -28 -18 -37 0
-104 -66 -96 -95 4 -17 -6 -24 -68 -46 -127 -46 -161 -55 -166 -41 -2 6 -20
21 -40 32 -34 19 -37 24 -34 59 3 33 0 41 -27 60 -23 17 -31 30 -31 53 0 29
-1 30 -35 24 -30 -6 -42 -2 -74 23 -51 41 -85 52 -131 45 -30 -5 -48 -1 -75
15 -33 19 -38 20 -65 6 -16 -8 -49 -15 -73 -15 -62 0 -88 23 -94 84 -4 36 -11
50 -24 53 -11 3 -19 14 -19 25 0 31 -25 70 -74 115 -25 23 -46 51 -46 62 0 11
-11 33 -25 49 -14 17 -25 34 -25 39 0 5 -13 22 -30 38 -16 16 -30 39 -30 51 0
13 -6 27 -14 31 -7 4 -21 25 -31 45 -9 21 -25 40 -36 43 -10 4 -19 10 -19 15
0 17 -65 70 -87 70 -12 0 -33 4 -47 9 -16 7 -35 6 -55 -2 -27 -10 -38 -8 -87
17 -79 38 -136 42 -199 12z"/>
<path d="M6954 1295 c-4 -10 -21 -15 -53 -15 -25 0 -55 -7 -66 -15 -14 -11
-32 -13 -66 -9 -37 5 -47 3 -52 -10 -4 -10 -18 -16 -40 -16 -30 0 -35 -4 -40
-29 -4 -18 -25 -45 -57 -72 l-50 -42 0 -63 c0 -35 5 -66 10 -69 6 -3 10 -21
10 -40 0 -32 2 -34 54 -49 30 -9 68 -16 84 -16 17 0 34 -4 37 -10 3 -5 19 -10
36 -10 24 0 29 4 29 24 0 20 6 25 39 31 22 3 49 17 62 31 12 13 28 24 35 24
18 0 34 33 34 70 0 60 21 117 56 151 28 27 34 40 34 76 0 35 -3 43 -18 43 -10
0 -27 7 -38 15 -24 18 -33 19 -40 0z"/>
</g>
</svg>
