<?xml version="1.0" standalone="no"?>
<!DOCTYPE svg PUBLIC "-//W3C//DTD SVG 20010904//EN"
 "http://www.w3.org/TR/2001/REC-SVG-20010904/DTD/svg10.dtd">
<svg version="1.0" xmlns="http://www.w3.org/2000/svg"
 width="1024.000000pt" height="1024.000000pt" viewBox="0 0 1024.000000 1024.000000"
 preserveAspectRatio="xMidYMid meet">
<metadata>
Created by potrace 1.10, written by Peter Selinger 2001-2011
</metadata>
<g transform="translate(0.000000,1024.000000) scale(0.100000,-0.100000)"
fill="#000000" stroke="none">
<path d="M8151 10213 c-23 -16 -41 -21 -55 -16 -12 4 -32 7 -46 7 -23 1 -25
-2 -23 -38 2 -32 0 -37 -15 -33 -45 12 -47 12 -47 -11 0 -13 -7 -27 -15 -32
-11 -7 -12 -14 -2 -34 8 -19 20 -25 48 -28 41 -3 56 -22 24 -31 -11 -3 -20
-13 -20 -25 0 -11 -7 -25 -14 -32 -9 -7 -15 -29 -15 -53 1 -23 -2 -59 -6 -80
-5 -26 -3 -44 8 -61 20 -30 14 -36 -29 -29 -32 5 -34 4 -34 -21 0 -15 -6 -29
-14 -32 -8 -3 -12 -13 -9 -23 3 -11 -2 -21 -13 -25 -14 -6 -16 -1 -10 33 3 22
2 42 -3 45 -5 3 -4 25 1 52 9 41 8 49 -11 67 -19 19 -24 20 -44 8 l-22 -14 20
24 c11 13 23 26 26 29 19 16 29 55 27 110 -2 66 -15 94 -38 85 -17 -6 -70 -86
-70 -104 0 -7 -9 -20 -21 -30 -15 -12 -23 -36 -31 -96 -7 -49 -18 -88 -28
-100 -10 -11 -23 -37 -28 -57 -6 -21 -20 -51 -31 -67 -22 -30 -28 -85 -12 -96
11 -6 1 -47 -23 -93 -9 -17 -16 -44 -17 -59 -1 -28 -1 -27 -10 5 -12 41 -28
37 -45 -9 l-12 -34 -1 51 c-1 38 5 58 20 78 16 21 20 36 16 62 -4 22 0 44 10
63 16 26 15 31 -4 72 l-21 44 30 55 c17 30 39 66 49 79 11 13 19 31 19 40 0
10 7 26 15 37 8 10 15 31 15 47 0 24 -3 27 -34 27 -19 0 -36 -5 -38 -12 -3 -8
-12 -4 -26 10 -25 25 -62 29 -62 7 0 -15 4 -25 28 -72 9 -17 8 -22 -4 -27 -8
-3 -16 0 -18 7 -12 40 -17 48 -31 53 -9 4 -22 -1 -31 -12 -14 -18 -15 -17 -9
13 6 33 -11 56 -21 29 -9 -24 -31 -19 -38 9 -5 18 -13 25 -31 25 -29 0 -40
-27 -29 -73 13 -53 4 -78 -20 -58 -23 19 -36 4 -36 -40 0 -38 1 -39 34 -39 26
0 41 -7 60 -31 14 -17 26 -40 26 -52 0 -19 -3 -17 -28 12 -37 45 -65 40 -73
-14 -8 -46 -30 -105 -40 -105 -4 0 -3 17 2 38 11 49 6 61 -43 100 -58 46 -78
43 -78 -12 0 -37 -5 -48 -27 -65 l-28 -20 35 -14 c19 -9 52 -18 73 -22 34 -7
37 -9 23 -24 -8 -9 -26 -36 -41 -61 l-26 -45 6 36 c6 32 3 39 -23 58 -29 21
-87 28 -107 13 -12 -9 -59 -80 -67 -103 -7 -17 24 -52 52 -61 9 -3 10 -7 3
-11 -6 -4 -23 5 -37 18 -15 14 -38 25 -52 25 -28 0 -78 -44 -72 -63 7 -22 72
-47 121 -47 44 0 47 2 47 26 0 17 4 24 13 20 6 -3 20 -9 30 -12 11 -4 17 -17
17 -35 0 -16 5 -29 13 -29 7 0 5 -5 -5 -10 -45 -27 2 -110 61 -110 18 0 22 -3
12 -9 -7 -5 -21 -6 -31 -4 -13 3 -23 -4 -33 -22 l-14 -28 -6 32 c-4 17 -13 31
-21 31 -8 0 -17 15 -20 35 -4 19 -11 35 -16 35 -6 0 -10 14 -10 30 0 30 0 30
-58 30 -34 0 -66 6 -78 15 -27 18 -103 45 -130 45 -21 0 -44 -35 -44 -66 0
-21 -41 2 -47 26 -4 16 -9 15 -48 -13 -24 -18 -47 -40 -50 -50 -7 -20 19 -57
41 -57 7 0 18 -8 23 -18 11 -20 102 -72 129 -73 11 0 12 -2 5 -6 -7 -2 -13
-18 -13 -34 0 -28 -15 -40 -22 -18 -3 9 -9 9 -25 0 -18 -9 -23 -8 -28 9 -8 25
-58 52 -80 44 -13 -5 -15 -15 -10 -43 5 -32 2 -41 -24 -69 -26 -27 -31 -29
-31 -12 0 10 5 22 10 25 17 10 11 25 -10 25 -11 0 -25 -9 -32 -20 -11 -17 -14
-17 -28 -5 -14 12 -19 13 -34 2 -15 -11 -19 -36 -26 -151 -4 -76 -12 -142 -17
-147 -13 -13 -14 141 -3 209 10 56 -1 93 -33 120 -17 14 -40 -7 -52 -48 -4
-14 -20 -41 -36 -60 -15 -20 -32 -51 -37 -70 l-10 -35 -7 43 c-4 23 -13 42
-20 42 -26 0 -145 -62 -145 -76 0 -8 -7 -14 -15 -14 -18 0 -19 5 -3 29 15 25
-7 59 -56 85 -47 25 -65 12 -42 -32 19 -36 21 -68 3 -35 -11 19 -14 20 -31 8
-10 -8 -30 -12 -45 -9 -22 5 -31 0 -45 -21 -17 -26 -17 -27 6 -33 20 -6 19 -7
-12 -12 -33 -5 -35 -8 -41 -50 -4 -26 -2 -47 4 -49 5 -2 18 -12 29 -23 21 -21
64 -18 104 7 11 7 31 15 45 17 17 2 31 16 48 51 26 52 49 52 30 0 -7 -23 -7
-37 0 -52 6 -11 11 -29 11 -40 0 -11 10 -37 21 -58 l22 -38 -26 30 c-14 17
-28 47 -31 67 -3 20 -10 39 -15 42 -4 3 -32 -3 -62 -14 -29 -11 -55 -20 -56
-20 -2 0 -3 -11 -3 -25 0 -16 15 -42 40 -69 44 -47 43 -63 -1 -40 -18 9 -36
30 -45 54 -11 26 -23 40 -34 40 -22 0 -50 -26 -50 -46 0 -8 -5 -12 -11 -9 -6
4 -7 19 -4 35 8 37 -49 108 -71 89 -11 -9 -14 -8 -14 1 0 10 -3 10 -14 1 -11
-10 -20 -10 -37 -1 -21 12 -22 11 -16 -24 5 -33 4 -35 -13 -26 -26 14 -40 12
-40 -5 0 -8 -7 -15 -15 -15 -19 0 -19 -10 0 -37 14 -20 14 -23 -4 -33 -11 -5
-33 -10 -49 -10 -16 0 -31 -3 -35 -6 -9 -10 4 -34 19 -34 8 0 14 -4 14 -10 0
-5 -7 -10 -15 -10 -22 0 -18 -28 5 -35 23 -7 27 -25 6 -25 -40 0 -22 -49 18
-51 18 -1 17 -3 -6 -12 -16 -6 -28 -14 -28 -19 0 -4 -6 -8 -14 -8 -21 0 -27
-27 -10 -45 11 -11 20 -12 34 -5 25 13 30 13 30 -4 0 -7 7 -19 15 -26 20 -17
45 3 45 36 0 13 12 37 28 53 26 27 30 28 87 22 66 -7 68 -5 -39 -43 -32 -11
-42 -20 -48 -47 -11 -39 -2 -54 16 -28 18 23 23 22 20 -5 -1 -13 -3 -32 -3
-43 -1 -18 -7 -20 -52 -16 l-50 3 7 -37 c6 -35 6 -37 -14 -26 -17 9 -23 7 -36
-11 -19 -27 -21 -84 -3 -91 12 -5 -25 -23 -59 -29 -16 -3 -20 5 -24 54 -3 31
-8 59 -12 63 -3 4 5 23 18 42 26 38 30 53 14 53 -5 0 -16 14 -25 30 -9 17 -22
30 -29 30 -18 0 -27 -35 -13 -49 7 -7 7 -11 1 -11 -6 0 -15 5 -21 11 -16 16
-35 1 -28 -22 5 -14 2 -17 -8 -13 -11 4 -13 -1 -10 -20 4 -18 -1 -27 -17 -36
-18 -10 -21 -18 -17 -46 7 -40 -10 -56 -19 -19 -5 22 -9 24 -22 13 -14 -11
-15 -10 -8 7 4 10 10 38 13 62 6 42 5 43 -26 49 -42 9 -47 20 -17 39 14 9 28
29 31 45 3 16 12 33 19 39 18 15 50 115 43 135 -15 39 -81 -4 -97 -65 -8 -27
-19 -44 -36 -51 -59 -27 -87 -165 -42 -207 19 -18 19 -21 5 -27 -10 -3 -17
-17 -17 -29 0 -13 -5 -27 -11 -30 -18 -12 -22 3 -10 34 10 24 10 34 -3 59 -9
17 -16 40 -16 52 0 11 -4 20 -8 20 -5 0 -12 12 -18 26 l-9 26 -27 -22 c-16
-12 -28 -28 -28 -37 0 -10 -6 -14 -19 -10 -21 5 -37 -29 -22 -47 5 -6 12 -22
15 -36 6 -21 5 -22 -4 -7 -14 22 -21 21 -76 -3 -43 -20 -48 -27 -45 -62 1 -9
-3 -19 -9 -23 -16 -10 -12 -51 8 -75 16 -20 21 -21 41 -10 24 13 71 6 71 -10
0 -6 -13 -10 -29 -10 -36 0 -46 -13 -31 -40 8 -15 21 -20 51 -20 32 0 41 4 51
25 10 22 50 54 106 84 17 9 22 9 22 -1 0 -8 -16 -22 -36 -33 -31 -16 -35 -23
-30 -46 4 -23 0 -31 -30 -48 -19 -12 -45 -21 -56 -21 -20 0 -57 -10 -120 -33
-16 -5 -28 -17 -28 -26 0 -21 -38 -45 -53 -33 -7 5 -29 9 -50 9 -27 1 -41 -5
-52 -20 -13 -19 -18 -20 -35 -9 -29 18 -72 -13 -65 -46 8 -34 -4 -65 -22 -58
-8 4 -22 -3 -33 -16 -11 -14 -29 -23 -45 -23 -24 0 -30 -8 -54 -67 -15 -37
-32 -73 -39 -80 -16 -16 -16 -68 1 -68 17 1 69 51 87 86 9 16 25 30 37 32 11
2 29 12 39 23 9 10 25 19 35 19 9 0 19 5 21 11 2 6 22 14 43 18 35 6 40 10 40
33 1 31 -1 30 44 45 29 11 36 10 46 -4 11 -15 15 -15 53 0 47 19 127 76 158
113 l21 25 -5 -30 c-2 -17 -1 -38 2 -47 6 -16 8 -16 25 0 10 9 28 36 41 61 12
24 29 46 38 50 12 5 12 2 -1 -19 -16 -24 -16 -25 14 -31 17 -4 33 -13 36 -21
10 -27 31 -14 49 30 16 38 20 42 37 32 15 -9 22 -6 43 17 17 20 24 23 24 12 0
-8 7 -18 15 -21 19 -8 74 17 80 36 4 11 17 14 56 11 41 -2 54 1 70 18 23 24
51 28 43 6 -11 -28 68 -19 96 10 13 14 27 25 30 25 4 0 5 -11 2 -25 -2 -14
-10 -25 -17 -25 -7 0 -20 -11 -29 -25 -9 -14 -25 -25 -35 -25 -10 0 -30 -9
-44 -20 -29 -23 -47 -26 -47 -6 0 7 -7 19 -16 27 -13 10 -25 9 -72 -6 -31 -11
-61 -25 -65 -32 -4 -7 -21 -13 -37 -13 -36 0 -37 -8 -8 -40 13 -14 33 -39 45
-57 19 -28 20 -34 8 -47 -8 -8 -15 -21 -15 -28 -1 -13 -23 -48 -31 -48 -2 0
-5 30 -6 67 -1 41 -7 71 -16 80 -15 15 -47 8 -47 -12 0 -7 -6 -18 -14 -24 -8
-7 -18 -26 -21 -42 -9 -41 -29 -50 -23 -10 3 18 1 34 -3 37 -18 11 -89 -42
-105 -79 -16 -35 -16 -38 0 -56 9 -10 36 -22 59 -26 l42 -7 -40 -19 c-47 -22
-66 -24 -60 -6 3 7 -3 29 -14 49 l-18 37 -32 -23 c-18 -13 -47 -49 -66 -80
-27 -44 -32 -62 -26 -84 9 -31 8 -79 -2 -89 -12 -11 -8 -23 7 -23 28 0 116 53
116 69 0 20 56 55 76 47 19 -7 18 -26 -1 -26 -8 0 -15 -7 -15 -16 0 -8 -4 -13
-9 -10 -14 9 -41 -5 -41 -20 0 -8 -7 -26 -16 -40 -13 -19 -14 -28 -5 -37 6 -6
11 -18 11 -27 0 -11 14 -19 43 -26 37 -8 42 -13 45 -39 l3 -30 -18 22 c-10 12
-31 25 -46 29 -16 4 -34 18 -43 35 -8 17 -23 29 -34 29 -26 0 -113 -79 -106
-96 3 -7 -2 -15 -10 -18 -8 -3 -14 -14 -14 -25 0 -11 -23 -39 -52 -65 l-52
-46 31 -6 c33 -7 36 -34 4 -34 -10 0 -28 -11 -40 -24 -13 -14 -29 -22 -37 -19
-18 7 -36 -40 -28 -72 8 -31 -5 -73 -16 -54 -7 10 -12 10 -23 1 -7 -6 -33 -19
-57 -27 -66 -23 -74 -33 -54 -64 9 -14 23 -31 30 -37 12 -9 2 -15 -46 -30 -33
-10 -60 -23 -60 -30 0 -6 -7 -14 -15 -18 -24 -9 -17 -22 18 -34 l32 -10 -31
-1 c-30 -1 -31 -3 -28 -38 2 -21 6 -54 9 -73 l6 -35 -16 28 c-18 31 -19 31
-46 16 -19 -10 -19 -12 -5 -34 20 -30 21 -55 2 -55 -7 0 -16 -14 -20 -32 -5
-24 -1 -37 16 -55 l21 -23 -25 0 c-14 0 -30 -6 -36 -13 -15 -18 12 -57 39 -57
32 0 13 -17 -27 -23 -39 -7 -104 -50 -104 -71 0 -7 -10 -17 -22 -23 -23 -10
-88 -121 -88 -149 0 -27 26 -14 64 32 21 25 40 43 43 41 7 -8 -45 -86 -67 -99
-11 -7 -20 -23 -20 -36 0 -13 -7 -31 -16 -39 -11 -11 -14 -26 -9 -50 4 -25 2
-33 -9 -33 -18 0 -28 -30 -25 -73 2 -18 -5 -44 -15 -59 -26 -39 -46 -114 -46
-169 0 -26 -4 -51 -10 -54 -6 -4 -10 5 -10 19 0 14 -6 26 -12 26 -20 -1 -48
-25 -48 -42 0 -15 -19 -38 -32 -38 -5 0 -4 9 2 21 7 11 9 27 6 35 -5 13 -9 13
-33 0 -58 -30 -69 -42 -54 -60 7 -9 24 -16 37 -16 24 0 24 0 4 -20 -11 -11
-20 -25 -20 -31 0 -6 -11 -8 -28 -4 -16 3 -40 1 -55 -4 -22 -9 -29 -7 -45 14
-15 19 -29 24 -75 26 -31 1 -58 1 -61 -2 -2 -2 -6 -25 -10 -50 -6 -43 -5 -47
16 -53 17 -4 28 0 41 16 15 18 20 20 28 7 5 -7 9 -17 9 -21 0 -4 16 -23 35
-43 23 -23 30 -35 20 -35 -8 0 -15 -7 -15 -15 0 -8 2 -15 4 -15 13 0 77 27
107 46 34 21 36 21 58 4 l24 -17 -37 -6 c-43 -7 -99 -44 -90 -59 5 -7 -2 -9
-18 -5 -17 5 -30 2 -38 -8 -7 -8 -21 -15 -32 -15 -10 0 -21 -7 -24 -15 -4 -9
-19 -15 -36 -15 -16 0 -36 -7 -44 -15 -9 -8 -11 -15 -5 -15 6 0 11 -5 11 -11
0 -8 -12 -9 -37 -4 -37 7 -37 6 -20 -12 21 -24 22 -33 2 -33 -8 0 -15 -4 -15
-9 0 -5 -16 -12 -35 -15 -29 -6 -37 -12 -41 -36 -4 -16 -13 -31 -21 -34 -13
-5 -13 -9 -2 -23 12 -15 11 -16 -8 -11 -24 6 -39 -19 -34 -54 1 -11 -4 -18
-13 -18 -9 0 -16 -8 -16 -17 -1 -18 -33 -46 -97 -84 -35 -20 -43 -43 -18 -53
23 -8 19 -46 -5 -46 -13 0 -20 -7 -20 -20 0 -17 -3 -19 -18 -11 -16 8 -24 2
-52 -37 -27 -39 -30 -48 -18 -56 13 -8 12 -12 -4 -28 -19 -19 -25 -58 -9 -58
5 0 16 6 23 13 14 15 73 37 96 37 9 0 6 -7 -11 -20 -14 -11 -29 -20 -34 -20
-13 0 -83 -37 -102 -53 -25 -23 -98 -57 -121 -57 -11 0 -20 -7 -20 -15 0 -8 7
-15 15 -15 9 0 15 -9 15 -24 0 -14 5 -28 10 -31 17 -10 11 -21 -15 -33 -25
-12 -26 -11 -20 22 4 19 2 43 -4 55 -13 23 -37 28 -43 10 -3 -9 -10 -9 -27 1
-20 10 -30 9 -65 -8 -22 -11 -60 -28 -84 -37 -26 -11 -39 -22 -33 -28 5 -5 17
-4 31 3 12 6 25 9 28 5 11 -10 -29 -35 -57 -35 -51 0 -164 -45 -158 -63 2 -6
20 -13 40 -15 20 -2 37 -7 37 -13 0 -5 -5 -9 -11 -9 -8 0 -9 -15 -4 -46 4 -32
3 -44 -4 -39 -6 3 -11 19 -11 35 0 23 -4 27 -19 23 -11 -3 -22 -11 -25 -19
-11 -27 -26 -14 -19 17 6 29 4 31 -18 24 -13 -4 -30 -12 -37 -18 -9 -7 -18 -4
-32 8 -20 18 -21 18 -36 -4 -9 -12 -22 -20 -28 -18 -7 3 -18 -4 -24 -14 -10
-15 -24 -19 -66 -19 -44 0 -61 -5 -88 -27 -18 -15 -35 -29 -38 -31 -2 -1 1 -6
8 -11 6 -4 14 -21 18 -38 5 -26 2 -33 -28 -51 -20 -13 -43 -18 -59 -15 -18 3
-34 -3 -55 -20 -16 -14 -26 -28 -23 -32 4 -3 35 -1 70 6 118 21 137 21 186 3
74 -27 80 -34 48 -60 -23 -18 -32 -20 -52 -11 -16 7 -30 7 -47 -1 -27 -12 -36
-7 -36 19 0 37 -44 34 -54 -4 -5 -20 -6 -20 -26 6 -24 30 -42 34 -60 12 -13
-16 -50 -21 -50 -7 0 14 -75 8 -98 -8 -15 -10 -23 -27 -25 -50 -2 -30 -6 -35
-30 -38 -15 -2 -27 -10 -27 -17 0 -23 34 -35 97 -35 l58 -1 -40 -15 c-86 -34
-116 -28 -136 24 -7 18 -15 23 -35 20 -29 -3 -39 -17 -49 -61 -5 -23 -8 -26
-24 -17 -11 5 -33 7 -51 4 -28 -6 -31 -10 -28 -38 2 -24 8 -32 27 -34 13 -2
33 1 45 6 49 23 51 22 82 -43 l29 -63 -37 -4 c-21 -2 -38 -3 -38 -2 0 1 6 14
14 28 8 15 12 35 9 45 -4 16 -13 18 -69 13 -54 -4 -68 -2 -85 14 -20 18 -21
18 -35 -1 -8 -10 -14 -21 -14 -24 1 -12 25 -38 40 -43 12 -4 10 -7 -7 -16 -20
-11 -24 -9 -39 13 -9 14 -16 37 -16 51 -1 28 -36 58 -65 52 -27 -5 -25 -58 2
-68 27 -10 42 -29 50 -61 6 -23 3 -27 -22 -33 -22 -6 -31 -3 -45 14 -10 12
-18 19 -18 15 0 -4 -7 -2 -15 5 -19 16 -38 4 -26 -18 12 -22 -4 -52 -27 -52
-28 0 -44 -35 -30 -65 14 -30 16 -30 91 -4 67 24 85 18 43 -16 -19 -15 -27
-29 -23 -39 8 -21 -41 -35 -53 -15 -7 11 -13 9 -30 -6 -29 -26 -23 -66 13 -83
32 -15 36 -32 7 -32 -28 0 -25 -17 10 -47 36 -30 38 -43 6 -43 -14 0 -37 -5
-53 -11 -26 -10 -27 -12 -8 -19 16 -6 17 -9 5 -13 -69 -22 -100 -28 -118 -23
-31 10 -50 -29 -22 -44 14 -7 20 -8 20 0 0 16 51 33 63 21 6 -6 18 -4 33 6 23
15 24 14 24 -12 0 -18 -6 -28 -20 -32 -28 -7 -25 -38 6 -51 14 -7 22 -17 19
-22 -9 -15 -27 -12 -55 10 -14 11 -40 20 -59 20 l-33 0 23 -19 c22 -18 22 -20
7 -26 -10 -4 -18 -18 -18 -31 0 -13 -4 -24 -10 -24 -5 0 -10 8 -10 18 -1 13
-8 9 -31 -17 l-31 -33 21 -21 c19 -19 22 -19 38 -5 17 15 45 27 68 29 16 1 47
32 56 56 8 21 10 21 39 7 16 -9 30 -19 30 -24 0 -4 9 -10 20 -13 11 -3 20 -12
20 -21 0 -20 33 -21 63 -2 12 8 54 18 92 24 39 6 78 13 88 17 13 5 16 3 12 -8
-7 -17 34 -32 49 -17 5 5 17 -1 28 -16 21 -26 64 -32 99 -13 11 5 29 9 40 7
19 -3 18 -6 -11 -38 -25 -28 -38 -35 -70 -35 -25 0 -44 7 -52 17 -7 9 -37 24
-65 33 -49 16 -55 16 -78 1 -22 -14 -25 -15 -25 -1 0 8 -6 15 -12 15 -7 0 -23
3 -35 6 -17 5 -23 2 -23 -9 0 -10 -17 -19 -50 -27 -45 -11 -53 -10 -83 9 -39
24 -82 27 -94 8 -4 -7 -29 -24 -56 -37 -42 -22 -45 -26 -25 -31 22 -5 22 -6 4
-16 -13 -7 -17 -16 -12 -29 6 -16 9 -16 17 -4 8 11 12 12 16 3 2 -7 13 -13 24
-13 10 0 19 -5 19 -11 0 -15 64 -39 88 -32 13 3 22 1 22 -6 0 -6 -7 -11 -15
-11 -22 0 -19 -44 5 -65 11 -10 18 -21 15 -25 -2 -4 -33 22 -69 57 -54 55 -68
64 -88 58 -34 -11 -35 -15 -8 -35 46 -34 60 -50 60 -65 0 -21 -17 -19 -24 3
-6 17 -76 68 -76 55 1 -21 48 -89 68 -98 12 -5 22 -18 22 -28 0 -17 -1 -17
-30 0 -23 13 -32 15 -42 5 -19 -19 -25 -14 -32 30 -11 65 -29 33 -21 -36 8
-58 24 -73 41 -36 10 23 20 17 52 -27 25 -37 29 -68 7 -77 -11 -4 -15 1 -15
18 0 16 -7 26 -21 29 -19 5 -21 2 -17 -24 3 -17 -1 -34 -8 -40 -11 -9 -11 -14
1 -26 22 -21 19 -42 -5 -36 -24 6 -28 -18 -5 -37 8 -7 15 -20 15 -30 0 -10 7
-23 15 -30 17 -14 27 2 30 49 1 14 3 36 3 49 3 38 22 24 22 -17 0 -50 8 -71
27 -71 10 0 12 -6 8 -21 -7 -20 7 -38 29 -39 4 0 23 17 42 37 35 38 54 40 35
5 -20 -38 -14 -52 20 -45 l30 6 -14 -34 c-12 -32 -17 -34 -65 -37 -42 -2 -52
0 -52 12 0 9 -7 16 -15 16 -11 0 -15 -11 -15 -42 0 -29 -3 -38 -9 -29 -5 8 -7
28 -5 45 6 38 -8 61 -31 52 -13 -4 -16 -14 -13 -37 5 -30 5 -30 -35 -24 -46 8
-48 -10 -3 -35 23 -13 28 -13 36 0 8 12 10 12 15 -2 8 -20 -30 -75 -40 -58 -3
5 -18 10 -32 10 -22 0 -24 -3 -18 -22 14 -46 25 -144 19 -180 -7 -48 8 -49 35
-3 20 34 44 45 56 25 3 -5 -3 -23 -15 -40 -11 -16 -29 -43 -40 -60 -11 -16
-20 -39 -20 -50 0 -12 -12 -37 -27 -57 -16 -21 -28 -51 -30 -72 -1 -20 -5 -55
-8 -79 -7 -40 -6 -42 19 -42 21 0 30 7 41 34 8 18 22 36 31 40 23 9 33 -3 11
-15 -20 -11 -24 -63 -4 -57 6 2 18 19 26 36 8 18 22 32 31 32 9 0 21 5 28 12
9 9 12 8 12 -5 0 -16 3 -15 29 4 52 38 150 14 164 -42 8 -29 -12 -34 -23 -5
-7 21 -16 26 -42 26 -45 0 -79 -10 -72 -21 3 -5 14 -9 25 -9 13 0 19 -7 19
-21 0 -11 8 -23 18 -25 9 -3 22 -16 29 -30 13 -27 13 -27 -40 -38 -33 -8 -46
-34 -26 -50 25 -19 49 -59 49 -83 0 -31 -11 -29 -45 7 -16 17 -36 29 -44 28
-11 -2 -17 6 -19 25 -2 15 -9 27 -18 27 -21 0 -17 13 10 39 29 27 25 45 -14
61 -38 16 -53 5 -46 -31 3 -16 2 -29 -3 -29 -5 0 -11 -30 -14 -67 -5 -66 -37
-153 -56 -153 -20 0 44 -159 82 -205 54 -64 164 -169 227 -216 25 -18 51 -42
58 -51 7 -10 25 -18 40 -19 15 0 21 -3 13 -6 -19 -7 -60 -55 -61 -69 0 -13 58
-39 123 -55 26 -6 47 -15 47 -20 0 -5 11 -2 25 7 28 18 31 14 13 -16 -16 -26
-3 -37 20 -17 23 21 51 22 58 2 4 -10 20 -15 49 -15 24 0 47 -4 50 -10 10 -16
38 -11 65 10 18 14 41 20 83 20 51 0 57 2 57 20 0 33 27 35 53 4 27 -31 47
-26 47 12 0 13 4 24 9 24 5 0 26 16 47 35 21 19 44 35 51 35 21 0 87 49 110
82 13 18 37 37 55 42 22 8 38 24 55 55 22 43 66 91 82 91 5 0 11 7 15 15 3 8
1 15 -4 15 -5 0 -7 6 -4 14 3 7 14 11 28 9 17 -4 31 5 57 34 19 22 42 42 52
46 10 4 17 17 17 31 0 17 7 26 24 30 24 6 66 64 66 92 0 12 4 12 31 -2 23 -11
28 -19 20 -27 -24 -24 -13 -39 24 -33 19 3 50 9 69 12 28 5 36 12 41 35 4 16
13 29 21 29 8 0 14 5 14 10 0 24 29 8 32 -17 2 -20 9 -29 26 -31 22 -3 30 12
12 23 -12 8 0 138 14 147 18 12 9 121 -12 138 -25 21 -16 47 20 59 18 6 39 18
49 27 15 14 17 13 23 -11 4 -15 3 -32 -2 -38 -5 -7 -14 -26 -20 -44 -8 -25 -8
-33 4 -37 8 -3 14 -19 14 -37 0 -23 5 -32 20 -36 13 -4 20 -13 19 -27 -4 -45
2 -67 19 -73 20 -7 62 -43 62 -54 0 -4 -16 -5 -35 -2 -48 8 -45 -9 12 -52 l47
-36 37 41 c37 40 68 50 99 30 11 -7 14 -28 12 -95 -3 -95 2 -102 59 -87 29 7
35 14 40 44 3 19 15 48 27 63 14 18 22 42 22 68 0 22 7 63 16 92 16 49 16 54
-9 142 -28 106 -26 139 14 162 17 9 35 33 44 58 14 36 15 48 4 78 -16 44 -5
55 56 55 36 0 47 6 91 53 103 107 107 114 99 180 -6 57 -5 61 24 91 37 39 53
133 27 155 -16 14 -86 222 -86 256 0 10 -12 37 -27 58 -26 38 -27 40 -8 53 11
8 44 14 79 14 73 0 81 5 91 50 4 19 17 46 29 60 13 14 28 45 35 69 l13 44 -60
86 c-40 59 -70 91 -94 103 -21 10 -46 34 -61 60 l-25 43 18 225 18 225 -35 94
c-36 98 -36 104 -9 199 12 42 13 64 5 102 -9 44 -8 53 20 109 l31 60 -35 77
c-19 42 -35 88 -35 102 0 14 17 48 38 76 l38 51 -12 60 -12 59 43 48 c24 27
62 83 85 126 55 103 117 165 192 193 l58 22 105 -48 c95 -44 106 -47 134 -35
48 19 68 97 61 230 l-5 104 -72 51 c-40 27 -72 56 -73 63 0 7 54 104 120 214
96 160 120 208 120 238 0 22 8 48 20 62 13 17 21 48 25 94 3 38 13 133 22 212
13 117 14 155 4 205 -6 34 -11 76 -10 92 0 17 -1 39 -3 50 -3 18 4 20 72 25
61 4 87 12 138 39 70 38 91 70 71 107 -22 43 -2 117 52 189 29 38 62 99 81
147 24 64 43 96 84 140 l54 57 0 97 c0 88 -3 102 -27 143 -37 64 -34 107 13
146 30 27 40 48 74 159 39 123 42 131 106 202 37 41 70 74 75 74 5 0 42 -13
84 -30 42 -16 80 -30 85 -30 13 0 80 134 80 158 0 10 -9 45 -20 77 -11 32 -20
79 -20 105 0 46 1 48 38 63 32 13 61 14 163 8 122 -8 147 -14 300 -76 12 -5
23 6 42 39 l25 46 -35 29 -36 30 42 46 c67 73 77 124 40 217 -12 29 -25 63
-30 75 -7 20 -4 23 29 29 20 3 54 19 74 35 20 16 39 29 41 29 3 0 8 -15 11
-34 5 -28 12 -35 36 -38 25 -4 31 -1 36 19 4 13 15 30 26 37 19 13 18 15 -13
60 l-33 46 39 40 c33 34 45 40 80 40 37 0 46 -6 122 -82 75 -77 85 -91 128
-195 52 -125 50 -124 171 -139 27 -4 61 -13 77 -21 25 -13 32 -11 94 22 36 19
72 35 80 35 8 0 13 11 13 29 0 28 22 61 40 61 5 0 25 -10 45 -21 20 -12 71
-32 113 -44 63 -18 79 -27 90 -49 18 -35 65 -34 70 2 2 12 13 27 24 33 19 10
20 17 14 76 l-7 65 46 46 c43 42 74 103 75 143 0 9 -9 38 -21 63 -18 42 -20
61 -16 174 9 222 9 241 3 251 -4 6 2 27 14 48 11 21 35 73 54 115 38 84 54 98
116 98 35 0 50 7 97 48 30 26 58 56 62 66 10 24 102 57 125 44 9 -5 16 -17 16
-28 0 -20 48 -65 80 -75 11 -4 27 -19 34 -34 16 -30 95 -61 157 -61 50 0 87
-30 131 -106 l40 -68 -41 -91 c-23 -49 -44 -113 -47 -140 -5 -46 -4 -52 24
-79 17 -16 37 -26 44 -24 7 3 21 28 31 56 15 40 17 65 12 114 -7 61 -6 64 19
77 14 8 28 22 31 31 3 9 25 35 50 59 53 50 64 90 41 146 -19 46 -19 42 0 49
10 4 26 -3 42 -19 31 -32 60 -39 117 -30 36 5 48 12 60 36 16 31 11 53 -19 78
-9 8 -20 30 -26 50 -9 34 -13 37 -47 38 -56 2 -83 -5 -83 -22 0 -24 -15 -17
-30 13 -8 15 -15 28 -16 30 -1 1 -8 0 -17 -4 -12 -4 -15 -13 -11 -30 8 -30 -8
-49 -57 -75 -51 -26 -52 -25 -14 17 33 35 37 69 11 86 -20 14 -55 8 -65 -9
-10 -17 -10 -17 -11 -1 0 14 -4 16 -24 8 -24 -9 -24 -8 -19 24 5 31 3 35 -30
45 -28 9 -41 9 -58 1 -16 -9 -23 -9 -28 -1 -4 6 -34 15 -67 19 -52 6 -59 10
-62 31 -3 20 -1 22 15 15 25 -13 271 -11 312 2 33 10 45 26 82 107 15 32 28
46 92 93 32 24 46 41 43 51 -3 8 -6 27 -6 43 0 22 -6 30 -29 38 -23 8 -32 7
-42 -4 -10 -12 -15 -10 -30 15 -9 16 -27 36 -40 44 -20 15 -25 14 -71 -9 l-49
-25 17 25 c20 32 12 56 -20 56 -19 0 -23 4 -19 21 5 18 2 20 -28 17 -29 -2
-34 -7 -37 -30 -4 -34 -22 -37 -22 -4 0 13 -7 29 -15 36 -12 10 -22 6 -56 -20
-23 -19 -40 -27 -39 -19 5 31 -1 60 -9 54 -5 -3 -19 8 -31 25 -15 21 -30 30
-50 30 -41 0 -80 -17 -86 -37 -3 -10 -12 -31 -20 -46 -16 -33 -20 -217 -4
-217 6 0 10 -4 10 -10 0 -5 -19 -10 -42 -10 -32 0 -49 -6 -70 -27 -37 -35 -35
-21 6 57 29 57 32 69 24 100 l-10 35 -13 -26 c-8 -14 -25 -30 -39 -37 -32 -14
-32 -14 -1 28 22 30 23 35 9 43 -8 5 -26 6 -40 3 -13 -4 -24 -2 -24 3 0 10 34
21 67 21 17 0 29 13 48 50 30 59 31 86 5 120 -15 20 -21 23 -31 13 -20 -20
-29 -15 -29 16 0 40 -9 42 -49 14z m-1066 -785 c-11 -36 -25 -45 -25 -17 0 27
7 39 22 39 5 0 6 -10 3 -22z m-895 -630 c0 -5 -4 -8 -10 -8 -5 0 -10 10 -10
23 0 18 2 19 10 7 5 -8 10 -18 10 -22z m-110 -218 c0 -13 -11 -13 -30 0 -12 8
-11 10 8 10 12 0 22 -4 22 -10z m-447 -265 c-3 -9 -8 -14 -10 -11 -3 3 -2 9 2
15 9 16 15 13 8 -4z m27 -99 c0 -2 -12 -11 -27 -20 l-28 -17 24 20 c23 21 31
25 31 17z m-827 -1293 c-7 -2 -21 -2 -30 0 -10 3 -4 5 12 5 17 0 24 -2 18 -5z"/>
<path d="M7006 9804 c-5 -12 -14 -14 -47 -9 -39 7 -40 6 -30 -13 6 -11 20 -24
31 -27 28 -9 25 -16 -15 -48 l-35 -28 -17 35 c-9 19 -20 33 -25 30 -13 -8 -9
-48 8 -72 13 -20 13 -22 0 -22 -8 0 -20 8 -25 18 -7 14 -19 17 -50 14 -38 -4
-40 -6 -34 -30 5 -21 3 -24 -12 -18 -10 3 -24 1 -31 -5 -10 -8 -14 -8 -14 0 0
6 -11 11 -25 11 -21 0 -23 -3 -16 -22 7 -18 15 -22 39 -20 38 4 47 -11 32 -49
-10 -23 -10 -32 0 -44 12 -14 16 -13 36 6 14 13 29 19 40 15 37 -14 79 5 119
56 22 27 49 67 60 88 11 21 31 58 44 81 22 41 22 43 5 56 -23 17 -31 16 -38
-3z"/>
<path d="M6092 9288 c-19 -19 -14 -42 12 -67 13 -12 26 -35 29 -51 10 -48 68
-53 96 -8 12 20 12 23 -5 33 -10 5 -40 31 -66 58 -27 26 -50 47 -51 47 -2 0
-8 -5 -15 -12z"/>
<path d="M6325 9243 c-33 -50 -32 -84 3 -109 23 -18 31 -19 56 -9 29 12 30 15
27 71 -4 93 -41 113 -86 47z"/>
<path d="M5980 9247 c0 -9 6 -17 13 -20 7 -2 0 -10 -16 -17 -34 -16 -32 -44 4
-48 33 -4 51 18 47 60 -2 25 -8 34 -25 36 -15 2 -23 -2 -23 -11z"/>
<path d="M6050 9197 c0 -19 21 -37 42 -37 25 0 23 16 -4 34 -27 19 -38 20 -38
3z"/>
<path d="M5886 9152 c-13 -21 -18 -92 -7 -92 6 0 11 4 11 9 0 6 12 16 27 23
33 16 45 43 14 33 -17 -5 -21 -2 -21 14 0 21 -14 28 -24 13z"/>
<path d="M5969 9113 c-1 -10 -1 -21 0 -25 0 -5 -10 -8 -23 -8 -34 0 -42 -17
-19 -42 18 -21 18 -21 -11 -14 -24 6 -27 4 -22 -9 3 -9 6 -21 6 -26 0 -5 9 -9
19 -9 11 0 32 -16 47 -35 31 -41 63 -46 96 -13 12 12 35 23 52 25 48 5 53 9
60 45 4 18 9 45 13 61 3 18 1 27 -8 27 -7 0 -26 -12 -43 -27 -28 -27 -28 -27
-13 -3 22 32 22 33 -15 49 -28 13 -32 12 -44 -3 -12 -17 -13 -17 -26 3 -16 27
-67 29 -69 4z m134 -103 c-3 -11 -7 -20 -9 -20 -2 0 -4 9 -4 20 0 11 4 20 9
20 5 0 7 -9 4 -20z"/>
<path d="M6421 9116 c-17 -20 -4 -56 18 -56 28 0 47 28 34 48 -14 23 -37 26
-52 8z"/>
</g>
</svg>
