<?xml version="1.0" standalone="no"?>
<!DOCTYPE svg PUBLIC "-//W3C//DTD SVG 20010904//EN"
 "http://www.w3.org/TR/2001/REC-SVG-20010904/DTD/svg10.dtd">
<svg version="1.0" xmlns="http://www.w3.org/2000/svg"
 width="1024.000000pt" height="1024.000000pt" viewBox="0 0 1024.000000 1024.000000"
 preserveAspectRatio="xMidYMid meet">
<metadata>
Created by potrace 1.10, written by Peter Selinger 2001-2011
</metadata>
<g transform="translate(0.000000,1024.000000) scale(0.100000,-0.100000)"
fill="#000000" stroke="none">
<path d="M2030 10224 c-45 -20 -77 -50 -101 -96 -12 -24 -34 -45 -59 -58 -21
-11 -43 -26 -47 -33 -14 -24 -57 -47 -85 -47 -16 0 -41 -12 -61 -30 l-35 -30
-160 0 c-88 0 -167 -3 -176 -6 -24 -9 -19 -30 17 -71 18 -21 40 -50 49 -64 13
-21 30 -29 79 -38 81 -16 153 -65 196 -133 32 -51 33 -55 32 -158 -1 -58 -4
-116 -8 -130 -5 -18 -1 -34 13 -56 l20 -32 76 38 c70 35 136 59 220 78 25 6
35 14 35 28 0 15 -17 25 -80 46 -99 33 -95 32 -95 6 0 -32 -11 -45 -42 -53
-23 -6 -28 -3 -33 17 -3 13 1 39 9 58 9 23 12 52 9 88 -7 59 9 81 57 82 45 0
55 -14 42 -56 -6 -20 -9 -41 -7 -45 3 -4 28 -10 55 -14 46 -6 51 -10 57 -36 6
-30 45 -69 68 -69 22 0 65 -60 65 -91 0 -20 8 -34 25 -45 14 -9 31 -27 38 -40
7 -12 36 -48 66 -79 54 -56 56 -57 100 -52 37 4 50 1 72 -18 15 -12 46 -25 69
-29 48 -7 147 -70 156 -98 3 -10 43 -44 90 -74 46 -31 103 -78 128 -105 25
-28 53 -49 65 -49 22 0 57 -41 90 -107 12 -23 30 -47 41 -53 32 -17 96 -110
114 -165 9 -27 39 -85 66 -128 l51 -79 -5 -170 c-4 -137 -8 -173 -21 -187 -12
-15 -14 -32 -9 -88 5 -54 3 -75 -9 -94 -8 -13 -19 -46 -22 -72 -8 -49 -19 -66
-61 -94 -19 -12 -24 -24 -24 -57 1 -22 6 -51 13 -63 l13 -23 34 20 c19 11 64
34 100 51 63 30 68 31 165 25 166 -11 252 -26 282 -50 l28 -21 -140 -7 c-322
-15 -449 -30 -476 -57 -4 -3 -10 -16 -14 -28 -6 -23 -6 -23 87 -17 51 3 116
13 143 22 39 13 85 17 213 16 90 -1 191 -5 226 -9 63 -6 63 -6 164 -101 56
-53 102 -101 102 -108 0 -6 15 -43 34 -82 30 -62 40 -74 92 -105 69 -41 102
-91 111 -171 3 -29 16 -69 28 -88 13 -19 31 -75 41 -124 l18 -88 66 -45 c54
-35 69 -52 78 -81 7 -21 39 -67 75 -107 74 -81 115 -155 123 -223 10 -79 61
-203 117 -281 20 -27 31 -59 37 -104 10 -64 24 -96 86 -188 17 -25 41 -79 54
-120 13 -41 27 -78 32 -84 4 -5 8 -23 8 -40 0 -23 13 -45 50 -87 40 -45 50
-63 50 -92 0 -25 6 -38 19 -46 24 -13 57 -66 64 -106 7 -36 109 -218 144 -255
13 -15 41 -34 61 -43 29 -13 47 -34 82 -94 62 -107 198 -284 242 -316 26 -19
55 -58 94 -130 34 -63 66 -109 81 -117 35 -19 53 -57 40 -86 -15 -33 -44 -29
-52 7 -5 23 -12 30 -30 30 -20 0 -23 -6 -27 -41 -4 -40 -1 -44 43 -78 27 -20
53 -52 62 -72 13 -32 12 -39 -4 -70 -22 -41 -24 -82 -5 -98 8 -7 17 -29 21
-49 10 -59 18 -65 85 -70 l63 -5 -6 -63 -5 -62 57 -21 c31 -11 85 -22 121 -24
36 -3 72 -8 81 -12 13 -5 23 5 41 37 l23 43 73 3 c70 3 76 1 185 -52 61 -30
139 -76 172 -103 55 -44 66 -60 138 -203 70 -140 79 -163 86 -235 9 -80 33
-136 117 -265 12 -19 37 -82 54 -140 34 -117 34 -164 -4 -205 -21 -22 -49 -78
-76 -153 -7 -18 -30 -46 -51 -63 -22 -17 -39 -38 -39 -48 0 -24 -51 -99 -97
-144 -31 -29 -39 -44 -35 -63 8 -41 26 -33 87 36 6 6 33 26 60 43 35 23 58 48
78 85 16 28 32 52 38 52 12 0 11 -37 -2 -63 -17 -33 -91 -108 -116 -118 -15
-5 -23 -17 -23 -32 0 -33 -30 -57 -71 -57 -42 0 -55 -8 -68 -43 -10 -26 -13
-27 -73 -25 -68 3 -82 12 -67 40 5 10 8 18 6 18 -3 0 -91 -20 -197 -45 -106
-25 -194 -45 -197 -45 -2 0 -3 -17 -1 -38 3 -33 1 -37 -23 -40 -17 -2 -37 6
-54 21 l-28 23 -40 -43 c-22 -24 -46 -43 -54 -43 -8 0 -56 -14 -106 -32 -83
-28 -98 -37 -152 -94 -46 -47 -83 -73 -152 -107 -98 -48 -144 -79 -208 -138
-27 -24 -63 -44 -110 -59 -94 -30 -179 -77 -199 -110 -23 -39 -95 -48 -165
-20 -29 11 -53 20 -55 20 -5 0 12 -92 26 -140 11 -37 18 -46 41 -48 20 -3 27
-9 27 -25 0 -15 24 -46 66 -87 36 -36 84 -91 105 -123 31 -44 53 -64 99 -87
33 -17 71 -30 85 -30 20 0 29 -8 41 -36 17 -41 16 -41 149 -8 89 22 109 21
225 -10 52 -14 105 -28 117 -31 11 -2 26 -17 32 -32 6 -16 22 -43 35 -60 l24
-33 43 35 c24 19 61 40 81 45 29 8 38 17 43 40 4 17 15 32 27 36 11 3 28 24
38 47 33 74 84 146 110 155 14 5 34 26 45 45 12 22 31 41 49 47 17 6 44 24 61
40 36 35 101 50 214 50 53 0 89 -6 117 -19 31 -14 45 -16 53 -8 33 33 -13 61
-99 59 -36 -1 -76 2 -90 7 -14 5 -37 12 -52 15 -54 12 -28 46 34 46 17 0 50
11 72 24 60 35 116 37 155 4 18 -16 50 -30 75 -33 42 -7 44 -8 49 -48 5 -35 2
-46 -19 -68 -13 -14 -22 -32 -19 -40 3 -8 -9 -23 -30 -37 -41 -26 -47 -47 -10
-38 44 11 71 24 84 40 12 14 17 14 48 1 33 -14 36 -13 68 11 18 14 36 31 39
39 3 8 30 31 61 51 40 27 59 34 67 26 7 -7 22 -6 50 4 22 8 60 14 84 14 38 0
45 4 59 30 18 35 18 35 51 14 29 -20 46 -14 115 39 51 39 122 55 259 58 167 5
174 3 204 -41 17 -26 34 -40 48 -40 13 0 41 -22 74 -58 43 -48 61 -60 101 -70
46 -11 49 -10 69 15 19 22 32 26 93 31 69 5 71 4 80 -22 6 -14 8 -39 5 -55 -5
-22 1 -36 26 -65 26 -30 39 -36 70 -36 35 0 39 3 50 35 14 42 9 51 -30 60 -35
8 -34 5 -13 50 16 34 16 36 -5 58 -26 27 -30 82 -7 91 8 3 15 15 15 26 0 14
-7 20 -23 20 -21 0 -25 8 -41 80 -15 64 -27 91 -62 136 -24 31 -44 61 -44 66
0 5 -25 75 -55 154 -30 80 -59 173 -65 207 -15 83 -161 355 -236 439 -30 33
-54 66 -54 73 0 23 -141 295 -153 295 -7 0 -35 11 -63 24 -43 20 -57 35 -100
102 -58 94 -124 283 -124 359 0 75 -9 94 -51 115 -41 21 -59 46 -59 79 0 11
-17 35 -37 53 -119 105 -153 142 -153 167 0 54 -30 150 -64 207 -51 85 -169
198 -233 223 -39 15 -74 43 -140 109 -56 56 -99 91 -118 96 -104 25 -99 21
-141 101 -33 65 -47 80 -91 106 -29 17 -61 42 -72 58 -13 18 -50 39 -112 65
-108 44 -162 78 -239 151 -113 107 -292 217 -371 229 -51 7 -68 25 -113 113
-14 28 -50 78 -79 110 -57 62 -117 150 -142 209 -8 19 -31 56 -50 82 -20 26
-67 95 -105 155 -43 67 -98 134 -144 180 -77 74 -94 103 -151 255 -15 40 -46
96 -69 125 -105 130 -144 194 -151 243 -4 27 -20 82 -35 122 -23 58 -40 84
-83 125 -48 45 -61 67 -100 162 -25 61 -55 142 -67 180 -13 39 -36 96 -51 127
-16 32 -29 68 -29 82 0 13 -40 105 -89 204 -68 137 -91 193 -96 238 -14 106
-76 179 -213 248 -61 31 -115 98 -132 164 -12 49 -46 84 -107 112 -31 14 -48
30 -64 62 -28 55 -91 140 -150 203 -25 28 -67 75 -91 106 -41 51 -45 62 -51
127 -4 40 -3 82 3 96 9 24 7 27 -28 41 -34 14 -41 24 -65 85 -22 57 -27 86
-27 157 0 51 -7 111 -17 146 -14 50 -15 69 -5 117 7 31 12 75 12 98 0 23 9 56
20 74 14 24 21 61 26 130 l7 96 -32 16 c-17 9 -42 34 -56 55 -17 28 -40 47
-79 64 -46 21 -60 34 -86 80 -37 67 -110 136 -211 201 -58 38 -87 66 -125 119
-31 44 -75 89 -121 124 -83 63 -109 92 -118 134 -6 25 -19 36 -87 70 -44 22
-92 54 -105 70 l-24 29 -28 -21 -27 -20 -196 61 c-107 33 -199 60 -204 60 -5
-1 -25 -8 -44 -16z"/>
</g>
</svg>
