<?xml version="1.0" standalone="no"?>
<!DOCTYPE svg PUBLIC "-//W3C//DTD SVG 20010904//EN"
 "http://www.w3.org/TR/2001/REC-SVG-20010904/DTD/svg10.dtd">
<svg version="1.0" xmlns="http://www.w3.org/2000/svg"
 width="1024.000000pt" height="1024.000000pt" viewBox="0 0 1024.000000 1024.000000"
 preserveAspectRatio="xMidYMid meet">
<metadata>
Created by potrace 1.10, written by Peter Selinger 2001-2011
</metadata>
<g transform="translate(0.000000,1024.000000) scale(0.100000,-0.100000)"
fill="#000000" stroke="none">
<path d="M476 8273 c-4 -12 -4 -33 0 -47 4 -17 2 -26 -5 -26 -6 0 -1 -15 11
-32 35 -51 101 -118 116 -118 7 0 27 -7 43 -16 40 -20 48 -11 21 25 -11 15
-27 44 -35 64 -9 19 -26 41 -39 47 -25 13 -78 67 -78 79 0 4 -6 16 -14 26 -13
18 -14 18 -20 -2z"/>
<path d="M0 8240 c0 -25 6 -33 33 -45 25 -10 32 -19 32 -40 0 -33 31 -58 44
-37 6 10 10 6 14 -15 3 -15 1 -32 -4 -37 -15 -16 -11 -56 6 -56 8 0 15 9 15
20 0 11 6 20 13 20 25 0 74 -39 87 -69 12 -31 11 -34 -20 -66 -33 -34 -33 -35
-15 -55 10 -11 24 -20 32 -20 8 0 13 -12 13 -30 l0 -31 -57 3 c-60 2 -103 -13
-103 -36 0 -7 18 -34 40 -59 23 -26 38 -51 34 -60 -7 -19 18 -28 56 -20 37 7
43 15 44 62 1 25 6 37 18 39 23 4 34 -41 19 -74 -9 -20 -8 -26 4 -30 24 -10
17 -29 -15 -41 -37 -14 -39 -29 -2 -35 15 -3 35 -9 45 -13 15 -6 17 -1 17 39
l0 46 49 0 c46 0 50 -2 85 -47 20 -25 36 -56 36 -69 0 -13 11 -31 27 -42 l26
-19 -29 -37 c-34 -42 -57 -45 -114 -16 -48 25 -49 25 -43 0 3 -11 19 -31 35
-43 80 -61 97 -80 112 -124 9 -26 16 -58 16 -73 0 -18 14 -40 46 -70 25 -25
54 -60 66 -78 23 -37 87 -82 118 -82 12 0 20 -7 20 -17 0 -10 4 -25 10 -33 8
-12 11 -12 27 2 21 18 43 13 43 -11 0 -9 13 -32 30 -51 16 -19 29 -44 30 -55
0 -11 18 -42 40 -70 22 -27 48 -63 58 -79 31 -52 57 -75 96 -88 49 -16 64 -38
50 -75 -9 -26 -14 -28 -62 -28 -29 0 -52 -3 -52 -6 0 -14 39 -39 62 -39 24 0
58 -27 58 -46 0 -5 23 -32 50 -59 29 -28 50 -58 50 -70 0 -18 12 -24 77 -41
76 -19 76 -19 87 -59 10 -36 15 -40 46 -43 19 -2 41 -8 48 -14 9 -8 16 -6 26
7 12 17 14 17 29 -5 11 -16 13 -27 7 -35 -12 -14 -2 -23 51 -47 40 -18 49 -15
49 14 0 27 24 17 28 -11 3 -20 8 -22 35 -18 40 5 103 -39 85 -60 -6 -7 -17
-13 -24 -13 -9 0 -14 -11 -14 -31 0 -31 1 -32 40 -26 30 4 40 2 40 -8 0 -21
19 -28 37 -13 14 11 16 11 11 -2 -2 -8 -19 -16 -36 -18 -40 -4 -43 -32 -7 -56
14 -9 25 -23 25 -31 0 -8 6 -15 14 -15 8 0 23 -14 33 -31 18 -30 23 -31 72
-18 9 2 17 -5 19 -16 6 -30 22 -45 47 -45 18 0 26 9 37 42 8 26 20 44 31 46
22 4 23 -30 2 -48 -12 -10 -13 -16 -4 -26 6 -8 18 -14 25 -14 10 0 12 -8 8
-30 -7 -31 3 -39 23 -19 15 15 43 4 43 -17 0 -10 7 -26 17 -36 9 -11 11 -18 5
-18 -8 0 -12 -24 -12 -71 0 -68 2 -73 35 -106 19 -19 35 -38 35 -42 0 -3 24
-27 54 -53 30 -26 64 -68 76 -93 19 -40 26 -45 55 -45 42 0 64 -24 47 -51 -14
-21 -16 -59 -4 -59 4 0 8 -16 8 -35 0 -49 13 -59 52 -40 40 21 46 30 32 55
-13 25 -3 83 13 77 7 -2 12 -15 13 -28 2 -44 4 -49 19 -49 9 0 20 11 25 25 11
30 21 32 37 7 9 -15 7 -21 -8 -30 -10 -7 -19 -19 -19 -27 0 -19 9 -19 34 0 11
8 23 15 28 15 9 0 58 -52 58 -62 0 -4 -17 -16 -37 -26 l-37 -19 28 -18 c14
-10 28 -16 30 -14 2 2 7 12 13 22 9 17 10 17 33 -1 l24 -20 42 34 c41 34 42
34 48 12 3 -13 6 -33 6 -45 0 -13 5 -23 10 -23 6 0 10 -6 10 -14 0 -7 11 -25
25 -40 14 -15 25 -33 25 -41 0 -26 54 -105 72 -105 23 0 91 -32 101 -47 4 -7
19 -13 33 -13 17 0 28 -7 31 -20 6 -23 33 -26 52 -7 18 18 42 -17 35 -53 -8
-35 19 -86 54 -104 15 -8 61 -24 102 -36 41 -13 86 -28 100 -35 30 -15 102
-35 151 -42 24 -3 39 0 48 11 8 9 24 16 37 16 21 0 23 -2 13 -19 -7 -10 -9
-26 -6 -35 7 -18 42 -22 52 -6 8 12 25 13 25 1 0 -5 -9 -11 -20 -14 -34 -9
-22 -34 46 -94 69 -62 107 -78 206 -89 51 -6 67 -13 111 -50 54 -47 77 -55 77
-26 0 30 16 45 39 37 21 -6 30 -45 11 -45 -17 0 -11 -24 8 -37 25 -15 87 -9
88 8 1 22 38 79 49 76 6 -2 11 -18 13 -36 3 -26 12 -38 48 -61 39 -24 43 -30
28 -38 -16 -9 -15 -13 7 -52 30 -54 49 -62 49 -22 0 35 27 64 40 42 5 -7 3
-21 -3 -32 -10 -16 -8 -22 8 -33 11 -8 31 -24 44 -37 l23 -23 -6 33 c-3 18 -1
32 4 32 6 0 10 -10 10 -22 0 -13 7 -32 15 -42 23 -30 18 -36 -25 -36 -33 0
-40 -3 -40 -20 0 -33 35 -44 81 -26 52 21 70 20 132 -5 63 -26 120 -85 106
-110 -8 -15 -2 -18 46 -24 38 -5 56 -12 60 -24 7 -22 61 -81 74 -81 6 0 11 18
11 39 0 45 12 58 30 36 7 -8 19 -15 28 -15 12 0 14 9 9 43 -6 40 -4 46 23 65
34 26 50 28 50 7 0 -8 9 -23 20 -32 11 -10 20 -25 20 -34 0 -24 44 -49 86 -49
50 0 73 -30 74 -97 0 -63 7 -83 29 -83 10 0 28 -14 41 -32 l23 -31 -44 7 c-24
3 -60 9 -79 12 l-35 6 21 -22 c12 -12 39 -24 62 -27 38 -5 40 -7 39 -39 -1
-28 -5 -34 -22 -34 -12 0 -30 7 -41 15 -10 8 -27 15 -38 15 -14 0 -17 -5 -12
-22 3 -13 6 -35 6 -50 0 -37 34 -47 64 -19 31 29 50 26 67 -10 11 -23 27 -35
64 -48 41 -14 52 -23 60 -49 8 -23 24 -38 59 -56 52 -26 136 -43 136 -27 0 10
61 44 67 37 3 -2 -1 -14 -8 -27 -10 -20 -9 -25 10 -40 11 -9 21 -22 21 -28 0
-15 27 -14 33 2 3 8 7 6 12 -6 4 -10 1 -27 -9 -42 -22 -33 -20 -45 7 -45 17 0
25 8 32 32 7 22 17 34 32 36 13 2 25 14 32 33 12 36 43 38 102 9 29 -15 41
-29 46 -50 3 -17 12 -30 19 -30 8 0 14 -8 14 -19 0 -16 -11 -19 -70 -25 -39
-4 -70 -11 -70 -16 0 -18 33 -40 61 -40 16 0 29 -4 29 -9 0 -13 -39 -21 -72
-14 -28 5 -47 -6 -48 -29 0 -9 58 -28 86 -28 19 0 23 -6 26 -37 3 -34 6 -38
34 -41 28 -3 32 0 39 30 4 18 9 27 12 21 11 -28 23 -10 23 32 0 26 9 63 20 84
16 33 25 39 57 44 25 3 44 -1 55 -10 12 -11 28 -13 59 -8 41 7 42 7 35 -16
-18 -56 -19 -72 -7 -64 8 4 26 -5 46 -25 30 -29 38 -32 70 -26 24 5 39 14 44
28 7 20 8 20 38 -9 17 -17 49 -39 72 -49 24 -12 41 -26 41 -36 0 -10 6 -18 14
-18 8 0 28 -11 45 -25 23 -20 39 -25 67 -23 23 2 39 -2 41 -9 3 -7 -3 -13 -11
-13 -24 0 -41 -42 -27 -67 16 -31 171 -47 171 -18 0 20 34 19 66 -1 13 -9 28
-14 31 -10 12 11 -24 61 -46 64 -25 4 -28 34 -6 52 8 7 15 18 15 24 0 6 5 28
11 49 7 26 15 37 29 37 17 0 18 -3 9 -24 -9 -18 -7 -31 10 -65 24 -46 44 -47
31 -2 -6 23 -5 31 7 35 18 7 33 -1 33 -18 0 -7 11 -27 25 -46 17 -23 22 -37
15 -44 -5 -5 -10 -14 -10 -18 0 -12 45 -9 58 4 9 9 12 9 12 -3 0 -8 -9 -20
-20 -27 -26 -16 -17 -32 18 -32 32 0 132 93 113 104 -6 4 -11 15 -11 24 0 12
3 13 12 4 19 -19 49 -15 46 6 -2 14 3 16 29 14 28 -3 33 0 38 25 4 15 17 61
30 101 19 61 21 74 9 79 -22 8 -16 31 8 35 40 6 30 32 -24 63 -35 21 -54 39
-59 57 -4 15 -21 39 -38 54 -17 14 -39 39 -48 55 -15 24 -22 29 -44 24 -36 -8
-45 9 -14 23 22 10 25 18 25 67 0 53 -2 57 -60 121 -64 71 -157 134 -196 134
-13 0 -47 9 -76 20 -29 11 -74 20 -100 20 -48 0 -48 0 -48 34 0 30 -4 35 -32
41 -34 7 -78 8 -137 3 -21 -2 -36 2 -38 10 -3 7 5 12 21 12 16 0 26 6 26 15 0
10 10 15 30 15 47 0 36 24 -31 69 -62 42 -85 45 -74 10 9 -28 -26 -25 -62 5
-15 13 -37 25 -48 28 -13 2 -19 10 -17 24 2 16 -11 27 -67 54 -58 28 -72 40
-90 77 -14 29 -40 57 -80 86 -33 23 -58 47 -56 53 2 6 -16 30 -40 54 -29 29
-41 48 -38 61 4 14 -7 31 -38 59 -24 21 -49 39 -55 40 -6 0 -29 16 -50 36
l-39 37 47 -6 c26 -4 49 -3 52 1 3 5 -5 21 -17 36 -22 27 -23 27 -54 11 -18
-9 -33 -23 -33 -31 0 -22 -57 -17 -93 8 -40 27 -87 70 -87 78 0 4 11 5 25 2
20 -3 25 0 25 17 0 13 -7 21 -17 22 -10 1 -42 2 -70 4 -41 1 -64 10 -107 38
-30 20 -66 39 -80 43 -15 3 -34 19 -43 34 -9 16 -35 38 -57 51 -63 35 -140 94
-171 131 -25 30 -60 46 -110 51 -14 2 -19 -4 -20 -23 0 -21 -5 -26 -33 -28
-30 -3 -33 -1 -27 17 3 11 1 38 -5 61 -9 33 -15 40 -35 40 -28 0 -32 12 -10
30 23 19 18 33 -10 26 -18 -5 -25 -2 -25 8 0 8 -16 20 -35 27 -19 7 -35 19
-35 25 0 7 -9 16 -20 19 -11 3 -20 13 -20 21 0 8 -6 14 -13 14 -8 0 -24 11
-37 25 -33 35 -43 31 -37 -12 11 -76 23 -108 45 -118 23 -10 30 -25 10 -25 -6
0 -4 -7 5 -18 10 -10 17 -33 17 -50 0 -30 -2 -32 -36 -32 -21 0 -33 4 -29 10
3 6 13 10 21 10 8 0 14 3 14 8 0 11 -77 52 -98 52 -11 0 -25 7 -32 15 -13 16
-7 20 35 27 27 4 32 48 8 71 -10 9 -33 29 -50 43 -18 14 -33 35 -33 47 0 27
-46 104 -70 117 -18 10 -19 8 -15 -20 3 -16 7 -43 10 -60 7 -43 -21 -39 -39 5
-18 42 -48 47 -64 9 -11 -22 -9 -30 14 -60 l26 -34 -26 0 c-19 0 -29 7 -36 26
-6 14 -14 22 -20 19 -17 -10 -12 71 5 85 25 21 17 30 -27 30 -38 0 -46 4 -65
35 -13 19 -23 38 -23 43 0 4 -15 22 -33 40 -36 35 -76 41 -122 20 -24 -11 -29
-9 -44 11 -13 17 -31 25 -66 28 -30 4 -67 18 -99 38 -63 41 -76 53 -98 94 -10
17 -32 39 -49 49 -49 27 -89 62 -89 79 0 14 2 14 18 0 10 -10 22 -17 27 -17 5
0 16 -6 24 -14 26 -22 80 -30 87 -13 9 25 -23 74 -53 82 -15 3 -42 20 -59 37
-27 25 -35 28 -53 19 -21 -12 -25 -9 -22 21 3 22 -83 37 -112 18 -22 -13 -37
-1 -37 31 0 21 -24 40 -92 73 -66 31 -108 80 -127 146 -7 25 -18 51 -23 58 -8
9 -5 12 11 12 19 0 21 4 16 34 -5 24 -1 45 14 74 42 83 32 91 -119 101 l-96 6
-55 65 c-30 36 -73 75 -96 86 -23 12 -38 25 -34 30 5 5 5 36 1 69 -5 44 -3 63
7 73 18 18 18 20 -21 62 -22 25 -37 35 -44 28 -6 -6 -27 -1 -60 16 -57 29 -78
32 -86 14 -3 -9 -8 -8 -16 5 -9 13 -25 17 -74 17 -40 0 -79 7 -107 19 -24 11
-70 24 -101 31 -45 9 -79 27 -160 84 -57 40 -108 71 -115 69 -6 -2 -14 -16
-18 -30 l-6 -26 -20 21 c-10 12 -19 30 -19 41 0 36 -105 101 -165 101 -30 0
-35 3 -35 23 0 24 -104 170 -125 175 -7 2 -18 16 -25 32 -7 16 -21 32 -31 35
-11 4 -24 15 -30 27 -25 47 -82 98 -109 98 -38 0 -87 19 -94 36 -3 8 -14 14
-24 14 -10 0 -40 23 -67 50 -34 35 -57 50 -75 50 -14 0 -35 7 -46 15 -10 8
-27 15 -36 15 -22 0 -29 13 -42 71 -8 35 -19 54 -43 71 -18 13 -60 45 -95 71
-82 63 -284 149 -378 162 -41 6 -53 12 -60 30 -11 30 -40 46 -68 38 -12 -3
-36 0 -52 7 -35 14 -70 6 -52 -12 7 -7 12 -30 12 -52 0 -25 9 -53 24 -75 13
-20 26 -51 30 -69 l6 -33 -25 18 c-13 10 -25 21 -25 26 0 4 -9 16 -20 27 -21
21 -90 29 -90 10 0 -23 -22 -7 -38 28 -14 31 -21 37 -44 34 -31 -4 -134 46
-164 79 -12 13 -24 36 -28 51 -12 54 -98 125 -170 144 -22 5 -34 20 -57 71
-20 46 -33 63 -43 60 -10 -4 -17 3 -21 23 -6 28 -27 41 -87 54 -15 4 -43 22
-62 41 -43 43 -56 44 -56 5z"/>
<path d="M6756 7705 c-10 -10 -35 -15 -80 -15 -59 0 -66 -2 -66 -19 0 -23 28
-34 64 -25 18 4 26 2 26 -7 1 -8 18 -26 39 -40 56 -39 60 -76 17 -159 -37 -71
-50 -121 -66 -250 -16 -121 -42 -172 -128 -249 -52 -45 -72 -70 -72 -87 0 -18
5 -24 23 -24 32 1 98 17 160 40 48 18 56 25 61 53 3 18 29 65 56 106 56 83 68
138 28 127 -13 -3 -33 -9 -45 -12 -36 -10 -44 20 -31 132 10 88 15 102 40 127
18 18 28 39 28 57 0 25 5 30 35 36 21 4 48 1 65 -6 24 -10 33 -10 45 0 25 21
17 41 -36 89 -28 25 -62 67 -75 94 -26 51 -57 62 -88 32z"/>
<path d="M8433 7524 c-26 -11 -35 -23 -46 -61 -11 -38 -21 -52 -50 -68 -31
-17 -40 -18 -54 -7 -57 41 -107 55 -175 49 -59 -5 -73 -10 -112 -43 -43 -36
-62 -68 -86 -151 -23 -75 -19 -77 136 -69 l135 8 20 -26 c17 -22 29 -26 69
-26 35 0 50 -4 54 -16 4 -12 14 -15 34 -11 15 3 38 -1 53 -10 23 -14 27 -24
31 -77 3 -34 1 -63 -4 -65 -22 -8 -48 -47 -48 -71 0 -17 -14 -39 -40 -65 -22
-21 -44 -53 -50 -69 -6 -17 -25 -41 -43 -53 -17 -13 -46 -34 -63 -48 -30 -24
-122 -55 -165 -55 -12 0 -34 9 -50 21 -22 15 -41 19 -81 17 -53 -3 -53 -3 -56
-38 -4 -43 17 -65 98 -107 62 -33 88 -70 69 -101 -10 -16 -7 -25 14 -56 14
-21 35 -44 46 -53 12 -8 32 -36 46 -63 13 -26 55 -79 92 -117 37 -37 80 -84
94 -103 l25 -34 110 -3 c60 -2 125 -8 144 -13 19 -6 68 -10 108 -10 l72 0 0
-49 c0 -65 28 -95 96 -105 58 -7 84 -29 109 -94 19 -46 87 -112 117 -112 11 0
33 7 50 16 17 9 42 14 55 11 26 -5 100 31 123 59 9 10 11 40 7 107 -9 132 0
161 72 227 90 83 98 110 41 144 -17 9 -30 21 -30 27 0 5 -18 9 -40 9 -56 0
-113 26 -133 59 -12 21 -17 52 -17 110 0 134 -40 188 -148 198 -63 6 -104 23
-143 59 -17 17 -43 27 -77 31 -75 8 -83 23 -43 80 33 46 33 47 26 127 -4 45
-6 142 -5 215 l2 135 44 49 c62 70 60 127 -5 127 -64 0 -80 9 -93 53 -15 51
-74 90 -169 111 -82 19 -123 19 -166 0z"/>
<path d="M6370 6809 c-13 -6 -47 -9 -74 -7 -49 3 -75 -13 -39 -25 10 -4 25
-12 35 -19 21 -15 90 6 128 39 l25 22 -25 0 c-14 0 -36 -5 -50 -10z"/>
<path d="M9815 5080 c-9 -29 -100 -90 -135 -90 -18 0 -33 -6 -36 -15 -8 -21
-43 -19 -99 5 -26 11 -69 20 -96 20 -48 0 -49 0 -49 -31 0 -20 15 -54 41 -93
l41 -61 -6 -78 c-6 -91 11 -140 61 -169 42 -24 64 -53 57 -72 -3 -9 -12 -16
-20 -16 -13 0 -53 -56 -67 -94 -7 -17 -4 -18 40 -12 68 9 183 7 205 -5 11 -6
18 -21 18 -37 0 -16 12 -42 28 -62 25 -30 36 -34 93 -41 35 -4 71 -10 80 -14
11 -4 24 1 35 13 25 25 115 62 152 62 49 0 55 18 48 128 -3 55 -2 123 4 157
21 116 30 238 18 252 -16 20 -46 16 -81 -11 -26 -20 -49 -25 -127 -31 -93 -7
-97 -6 -127 19 -16 14 -47 57 -67 95 -35 67 -36 72 -22 100 8 15 22 31 31 34
8 4 15 17 15 31 0 30 -27 42 -35 16z"/>
<path d="M5309 3238 c-1 -2 -2 -19 -3 -39 -3 -36 -2 -37 26 -27 28 10 33 22
22 52 -5 13 -41 23 -45 14z"/>
<path d="M5232 3221 c-11 -7 -10 -10 3 -15 9 -3 24 -6 32 -6 13 0 13 3 3 15
-14 17 -20 18 -38 6z"/>
<path d="M5407 3158 c8 -59 10 -60 58 -27 32 22 43 35 36 42 -7 7 -15 6 -24
-2 -12 -9 -16 -8 -21 4 -3 8 -16 15 -29 15 -21 0 -23 -4 -20 -32z"/>
<path d="M5456 3052 c-15 -17 -16 -24 -5 -44 13 -23 13 -23 21 10 12 45 6 58
-16 34z"/>
<path d="M7391 2141 c-12 -12 -23 -15 -33 -10 -9 5 -22 3 -34 -5 -18 -14 -18
-15 -1 -33 23 -26 22 -53 -3 -53 -23 0 -25 -9 -8 -45 6 -14 19 -25 29 -25 10
0 21 -4 24 -10 11 -18 56 -11 76 13 28 33 23 40 -21 34 -37 -5 -40 -3 -40 19
0 22 4 24 48 24 45 0 48 1 58 36 11 34 10 37 -20 55 -39 24 -51 24 -75 0z"/>
</g>
</svg>
