<?xml version="1.0" standalone="no"?>
<!DOCTYPE svg PUBLIC "-//W3C//DTD SVG 20010904//EN"
 "http://www.w3.org/TR/2001/REC-SVG-20010904/DTD/svg10.dtd">
<svg version="1.0" xmlns="http://www.w3.org/2000/svg"
 width="1024.000000pt" height="1024.000000pt" viewBox="0 0 1024.000000 1024.000000"
 preserveAspectRatio="xMidYMid meet">
<metadata>
Created by potrace 1.10, written by Peter Selinger 2001-2011
</metadata>
<g transform="translate(0.000000,1024.000000) scale(0.100000,-0.100000)"
fill="#000000" stroke="none">
<path d="M3549 7630 c-24 -67 -53 -96 -106 -106 -30 -6 -38 -14 -54 -52 -27
-62 -37 -74 -58 -63 -26 14 -56 -17 -71 -74 -7 -27 -22 -62 -32 -77 -22 -32
-23 -85 -2 -109 9 -10 18 -31 20 -47 5 -44 41 -120 63 -134 18 -11 19 -19 14
-78 -7 -68 -51 -160 -78 -160 -7 0 -24 -9 -37 -20 -19 -14 -34 -18 -60 -14
-37 6 -68 -13 -68 -42 0 -16 -57 -44 -88 -44 -10 0 -25 11 -32 25 -8 14 -36
39 -64 56 -48 30 -51 30 -82 16 -28 -14 -33 -14 -38 -1 -3 8 -15 14 -26 14
-12 0 -37 12 -56 26 -27 21 -41 25 -66 20 -22 -4 -37 -1 -50 11 -15 14 -22 14
-42 3 -15 -8 -38 -10 -63 -6 -21 4 -60 10 -88 13 -57 6 -72 15 -77 46 -3 19
-11 23 -63 27 -53 4 -60 8 -63 28 -2 12 -12 27 -23 32 -17 9 -19 22 -19 105 0
57 -4 96 -11 101 -6 3 -45 10 -88 15 -42 5 -92 15 -111 22 -60 25 -134 47
-153 47 -21 0 -34 27 -19 42 15 15 -3 48 -27 48 -10 0 -26 -9 -36 -20 -26 -28
-36 -25 -74 25 -38 51 -48 55 -60 21 -13 -33 -37 -39 -108 -25 -56 11 -64 11
-89 -7 -14 -10 -36 -24 -47 -31 -11 -6 -23 -17 -28 -24 -6 -10 -30 -13 -87
-10 -62 2 -81 -1 -91 -13 -8 -9 -24 -16 -37 -16 -13 0 -28 -9 -34 -20 -7 -14
-21 -20 -44 -20 -18 0 -55 -7 -82 -15 -27 -8 -59 -15 -71 -15 -12 0 -28 -9
-36 -21 -10 -13 -30 -23 -59 -26 -67 -9 -81 -20 -75 -56 6 -44 -1 -57 -28 -57
-13 0 -36 -5 -50 -12 -19 -9 -28 -9 -37 0 -19 19 -48 14 -48 -7 0 -29 -73 -46
-83 -18 -3 9 -11 9 -35 1 -26 -10 -33 -9 -48 7 -13 15 -31 19 -76 19 -72 0
-94 -11 -103 -50 -4 -16 -12 -30 -18 -30 -7 0 -31 -8 -54 -17 -44 -19 -69 -53
-51 -71 14 -14 1 -32 -23 -32 -15 0 -19 -7 -19 -39 0 -33 5 -42 35 -62 33 -23
34 -24 16 -44 -33 -36 -30 -48 18 -84 25 -19 48 -39 50 -45 2 -5 15 -20 28
-32 16 -14 26 -36 28 -61 3 -30 13 -47 52 -83 26 -25 56 -57 65 -72 19 -29 71
-46 92 -29 17 14 76 3 76 -14 0 -7 9 -33 20 -59 21 -45 26 -49 80 -50 20 -1
26 -7 28 -29 2 -18 15 -35 37 -50 37 -24 43 -43 50 -153 3 -39 12 -90 20 -114
8 -23 15 -51 15 -61 0 -9 12 -27 28 -39 34 -27 46 -90 42 -215 -1 -32 -8 -45
-35 -68 l-34 -28 6 -84 c4 -63 3 -85 -6 -85 -6 0 -34 -21 -62 -46 -39 -37 -53
-60 -68 -108 -17 -55 -17 -63 -4 -78 10 -11 13 -27 10 -45 -8 -40 21 -113 45
-113 11 0 39 -13 63 -30 24 -16 55 -30 69 -30 14 0 27 -4 31 -9 11 -19 68 -40
126 -47 33 -4 70 -14 82 -24 42 -33 114 -53 168 -48 39 4 60 1 83 -13 17 -9
54 -21 81 -25 28 -3 75 -19 105 -34 72 -37 230 -180 253 -231 10 -21 28 -44
40 -50 12 -7 34 -27 50 -45 15 -18 52 -47 83 -65 50 -28 62 -31 120 -27 35 2
64 1 64 -2 0 -3 -9 -16 -20 -30 -11 -14 -20 -41 -20 -60 0 -29 6 -39 33 -56
30 -20 37 -34 70 -145 21 -69 37 -145 37 -172 0 -44 7 -59 69 -150 46 -68 71
-116 76 -143 l6 -41 61 -7 c85 -9 166 -8 186 3 12 5 74 -9 192 -45 133 -40
235 -63 425 -94 l250 -42 75 16 c46 10 93 14 121 10 27 -4 54 -2 67 5 40 21
193 -4 369 -62 l162 -53 49 -65 c45 -58 56 -66 115 -86 36 -13 87 -23 113 -23
39 0 69 -12 171 -66 164 -87 245 -114 342 -114 42 0 93 5 114 11 58 16 74 6
73 -44 l-1 -42 64 -3 c36 -2 74 -10 87 -19 23 -15 26 -14 74 31 27 25 54 46
61 46 6 0 38 16 71 36 115 70 475 231 546 244 37 7 80 22 97 35 45 33 70 38
104 20 26 -13 42 -14 96 -5 35 6 77 15 92 21 15 5 39 7 53 4 43 -12 219 -8
234 4 9 7 33 9 70 5 34 -4 61 -3 68 4 7 6 31 13 53 17 23 5 65 26 99 51 38 28
70 44 89 44 46 0 155 66 171 104 7 17 25 42 40 55 14 14 26 30 26 37 0 7 26
48 59 92 46 62 68 83 102 96 24 10 58 31 76 47 19 16 40 29 47 29 7 0 25 18
40 40 14 22 39 46 55 54 16 9 31 26 33 40 7 35 -48 115 -115 167 -78 62 -103
125 -72 179 8 14 14 43 15 64 0 22 15 74 33 117 41 97 75 119 183 119 69 0 71
-1 107 -39 42 -45 47 -47 225 -61 l134 -11 42 39 c23 21 60 48 82 61 24 13 48
37 57 56 9 18 36 56 61 84 31 34 46 61 46 79 0 20 10 33 35 50 31 22 38 23 70
12 30 -10 44 -9 78 3 23 9 62 19 87 22 66 11 109 36 133 81 13 22 45 54 76 75
66 44 74 58 60 98 -15 43 -6 82 35 150 58 95 130 141 221 141 52 1 75 19 75
59 0 65 28 86 75 55 32 -21 53 -12 66 26 6 16 17 30 25 30 8 0 34 20 59 44 41
41 45 43 64 29 18 -12 28 -12 57 -3 19 7 45 10 56 7 14 -4 22 0 25 14 5 19 51
27 67 12 4 -5 26 -13 49 -18 33 -9 51 -7 91 7 28 9 63 17 79 18 17 0 27 5 27
15 0 8 9 19 20 25 29 15 25 54 -13 130 -28 56 -42 72 -102 112 -39 26 -85 61
-104 78 -20 18 -45 30 -61 30 -24 0 -29 5 -34 33 -6 33 -8 34 -73 43 -65 9
-67 10 -93 54 l-26 45 -79 3 c-50 2 -88 -2 -103 -10 -17 -9 -30 -9 -52 -1
l-29 11 -56 -109 -55 -108 -75 34 c-104 47 -152 53 -189 22 -26 -21 -35 -23
-70 -15 -34 8 -43 6 -51 -7 -29 -50 -67 -95 -78 -95 -6 1 -40 23 -74 51 -59
47 -63 52 -63 91 0 35 6 49 36 79 l37 37 -13 64 c-11 61 -10 68 14 128 14 35
26 75 26 89 0 14 27 129 60 256 l59 229 -21 23 c-12 13 -30 23 -39 23 -10 0
-34 8 -53 17 -30 14 -42 14 -75 5 -22 -7 -50 -25 -63 -41 -21 -24 -33 -29 -96
-34 l-73 -6 -31 35 c-70 77 -170 116 -224 86 -16 -8 -27 -8 -48 3 -35 19 -56
10 -106 -47 -23 -27 -49 -48 -58 -48 -10 0 -59 -40 -109 -88 -91 -85 -93 -89
-93 -133 0 -45 -1 -46 -40 -59 -22 -7 -45 -19 -51 -26 -7 -9 -25 -11 -53 -8
-34 5 -49 2 -79 -19 -45 -31 -149 -67 -192 -67 -17 0 -40 -7 -52 -15 -12 -8
-28 -12 -36 -9 -18 7 -72 -20 -80 -39 -6 -16 -122 -87 -142 -87 -8 0 -30 7
-49 17 -31 14 -37 15 -58 1 -30 -20 -173 -22 -189 -2 -7 8 -21 11 -39 7 -22
-4 -34 0 -52 19 -30 33 -68 42 -95 23 -12 -8 -29 -12 -37 -9 -9 3 -46 1 -83
-6 l-67 -13 -46 50 c-25 28 -57 54 -73 57 -31 7 -67 58 -67 94 0 67 -54 102
-160 102 -51 0 -54 2 -124 69 -39 37 -81 74 -93 80 -12 6 -55 11 -95 10 -53
-1 -87 5 -126 20 -29 12 -72 21 -95 21 -23 0 -60 7 -84 16 -42 16 -43 16 -73
-10 -32 -27 -115 -56 -159 -56 -45 0 -91 -18 -127 -49 -36 -32 -65 -38 -109
-21 -19 7 -39 7 -65 -1 -31 -10 -42 -9 -60 4 -16 11 -29 13 -46 7 -19 -8 -26
-5 -35 13 -17 31 -40 46 -72 47 -15 0 -44 10 -65 23 -20 12 -46 27 -57 33 -11
6 -21 20 -23 30 -2 12 -16 25 -34 32 -29 11 -30 14 -25 51 4 31 1 44 -14 57
-15 13 -16 20 -7 31 9 11 9 23 -1 50 -7 19 -14 71 -15 114 -1 43 -6 83 -11 88
-20 20 -152 63 -190 63 -29 -1 -51 6 -80 28 -22 16 -79 50 -127 75 -70 36 -98
45 -138 45 -62 0 -113 20 -134 52 -10 16 -37 31 -73 42 -32 10 -69 29 -83 43
-28 28 -96 73 -110 73 -5 0 -19 -27 -31 -60z"/>
</g>
</svg>
