<?xml version="1.0" standalone="no"?>
<!DOCTYPE svg PUBLIC "-//W3C//DTD SVG 20010904//EN"
 "http://www.w3.org/TR/2001/REC-SVG-20010904/DTD/svg10.dtd">
<svg version="1.0" xmlns="http://www.w3.org/2000/svg"
 width="1024.000000pt" height="1024.000000pt" viewBox="0 0 1024.000000 1024.000000"
 preserveAspectRatio="xMidYMid meet">
<metadata>
Created by potrace 1.10, written by Peter Selinger 2001-2011
</metadata>
<g transform="translate(0.000000,1024.000000) scale(0.100000,-0.100000)"
fill="#000000" stroke="none">
<path d="M6192 8213 c-17 -25 -17 -32 -6 -58 7 -16 13 -40 14 -53 0 -12 9 -40
20 -62 34 -67 -5 -133 -67 -109 -38 14 -63 38 -63 61 0 12 -11 23 -30 29 -16
6 -30 15 -30 20 0 5 -9 9 -21 9 -41 0 -59 18 -59 61 0 38 -2 40 -27 37 -26 -3
-28 -6 -31 -56 -3 -56 25 -131 76 -200 33 -45 24 -75 -28 -96 -22 -9 -56 -16
-74 -16 -27 0 -35 -5 -40 -24 -7 -30 -50 -46 -123 -46 -43 0 -62 6 -103 33
-28 18 -50 40 -50 50 0 25 -12 21 -45 -13 -27 -29 -75 -41 -75 -20 0 13 -70
90 -81 90 -20 0 -7 -46 21 -75 l30 -31 -23 -35 c-29 -44 -52 -47 -87 -14 -28
26 -71 43 -142 52 -33 4 -38 2 -52 -25 -8 -16 -22 -32 -31 -36 -21 -8 -85 24
-85 43 0 9 -6 28 -14 43 -8 15 -17 40 -21 57 -5 23 -14 32 -43 42 -20 6 -54
23 -75 37 -30 20 -42 23 -55 15 -28 -17 -25 -52 13 -149 42 -106 42 -152 1
-179 -19 -13 -32 -14 -72 -5 -52 12 -64 22 -64 57 0 12 -9 27 -20 33 -18 9
-20 8 -20 -16 0 -25 -2 -26 -40 -21 -50 6 -54 -13 -10 -51 17 -15 30 -32 30
-39 0 -24 -22 -24 -48 0 -30 28 -99 60 -113 51 -5 -3 -9 -12 -9 -20 0 -10 -13
-14 -47 -14 -41 0 -50 4 -84 41 -37 40 -42 42 -109 47 -64 4 -73 3 -95 -18
-17 -16 -25 -34 -25 -56 0 -26 -11 -44 -49 -82 -58 -60 -122 -86 -148 -59 -14
14 -19 14 -45 1 -35 -18 -36 -32 0 -40 38 -10 51 -32 52 -86 0 -64 -17 -63
-117 5 -83 57 -128 77 -174 77 -28 0 -29 -2 -29 -49 0 -49 0 -49 53 -79 61
-34 70 -44 83 -92 8 -30 5 -43 -18 -90 -15 -30 -27 -47 -27 -38 -1 9 -13 26
-28 38 -23 18 -35 20 -82 15 -31 -4 -68 -15 -83 -25 -33 -24 -108 -20 -188 10
-72 27 -120 27 -127 0 -6 -22 -37 -27 -50 -7 -5 7 -10 -9 -13 -42 -4 -44 -10
-58 -32 -74 l-28 -21 -30 22 -30 22 -55 -45 c-73 -59 -107 -61 -152 -8 l-31
38 -7 -40 c-4 -22 -15 -53 -24 -68 -16 -28 -15 -31 22 -97 20 -38 37 -79 37
-90 0 -12 7 -34 15 -50 21 -41 11 -80 -22 -80 -13 0 -35 -12 -50 -26 -18 -18
-34 -24 -57 -22 -30 3 -31 2 -29 -37 1 -22 4 -54 8 -72 6 -27 4 -32 -15 -35
-20 -3 -20 -6 18 -64 39 -60 41 -61 93 -66 32 -3 57 -12 64 -22 7 -9 20 -16
29 -16 13 0 16 10 16 50 0 28 4 50 8 50 5 0 21 -13 37 -30 37 -38 45 -38 45 2
l0 33 24 -25 c29 -30 39 -60 26 -80 -8 -13 -13 -13 -41 3 -41 23 -62 22 -54
-2 12 -39 -58 -59 -94 -27 -25 23 -34 20 -51 -16 -21 -45 -46 -58 -63 -34 -21
29 -51 13 -63 -34 -12 -43 -4 -60 28 -60 14 0 18 -8 18 -33 0 -26 13 -47 60
-100 48 -54 60 -75 60 -101 0 -44 -25 -54 -56 -25 l-23 21 -16 -56 c-9 -32
-14 -64 -11 -72 9 -23 69 -44 125 -44 44 0 49 3 55 25 6 23 11 25 60 25 29 0
56 -3 60 -7 4 -4 36 -6 71 -5 37 2 65 -1 69 -7 4 -6 2 -28 -4 -50 -10 -37 -13
-39 -58 -45 -125 -15 -200 -18 -219 -8 -15 8 -25 8 -38 -2 -17 -12 -15 -15 19
-42 20 -16 36 -32 36 -36 0 -5 -20 -8 -45 -8 -40 0 -46 -3 -60 -31 -14 -27
-15 -36 -1 -82 8 -29 19 -83 25 -121 10 -66 9 -70 -14 -98 -46 -55 -26 -98 47
-98 26 0 43 -11 85 -52 32 -32 68 -57 91 -63 l37 -11 3 -129 c2 -113 5 -132
23 -151 11 -11 32 -54 48 -95 25 -67 32 -76 72 -96 52 -26 89 -29 89 -8 0 8 3
15 8 15 18 -1 31 -18 41 -57 9 -33 18 -44 37 -49 17 -4 29 -2 35 7 11 19 87
12 126 -12 23 -15 32 -16 35 -7 8 24 35 -10 64 -80 30 -74 75 -127 115 -137
22 -6 28 -1 43 34 18 39 19 40 85 46 36 3 74 7 85 8 30 3 74 129 69 198 -3 30
0 66 6 82 l11 27 112 0 c95 0 124 -4 183 -25 39 -13 77 -25 85 -25 8 0 24 -15
36 -33 17 -26 20 -41 15 -82 -8 -62 -60 -142 -105 -160 -50 -21 -67 -47 -73
-113 -4 -44 -1 -72 13 -108 21 -55 23 -132 6 -269 -13 -105 -39 -187 -83 -258
-17 -27 -39 -84 -50 -126 -10 -42 -26 -93 -34 -114 -8 -20 -15 -55 -15 -77 0
-36 3 -41 38 -56 77 -32 87 -31 116 18 14 25 26 54 26 66 0 27 109 125 155
139 29 9 41 8 64 -5 26 -15 30 -14 62 6 27 16 44 19 78 15 35 -5 45 -3 53 11
13 24 49 36 145 51 48 8 93 21 110 33 33 24 95 42 143 42 45 1 58 12 104 87
63 105 108 126 211 95 53 -16 61 -22 65 -48 3 -16 20 -59 38 -96 25 -49 39
-68 59 -73 14 -3 27 -4 29 -2 3 2 9 32 15 65 11 61 11 62 -21 102 -38 47 -31
66 20 55 23 -5 40 -21 66 -60 21 -31 50 -60 72 -71 57 -29 82 -55 82 -84 0
-40 69 -70 160 -70 l69 0 7 -45 c4 -27 12 -45 19 -45 7 0 38 -20 68 -45 64
-52 102 -59 116 -21 14 35 43 42 61 14 8 -13 50 -60 93 -104 92 -96 128 -112
230 -99 88 11 135 11 147 -1 6 -6 -1 -31 -20 -73 -36 -76 -37 -102 -6 -155 19
-33 36 -46 83 -65 165 -67 153 -59 153 -105 0 -33 6 -48 26 -67 35 -33 99
-153 114 -215 l13 -51 91 -35 c50 -19 125 -41 166 -49 l75 -14 5 -50 c3 -27
11 -60 18 -73 l13 -22 39 20 c32 16 50 19 94 14 l54 -6 7 40 c6 35 11 42 46
56 22 9 58 16 80 16 35 0 49 7 96 50 34 31 64 50 79 50 16 0 33 12 53 40 16
23 41 50 55 61 l25 20 48 -24 c26 -13 66 -30 88 -37 62 -20 93 -44 124 -92 25
-40 37 -48 113 -76 88 -33 136 -38 256 -26 57 6 61 8 51 26 -9 17 -5 26 27 59
21 21 46 41 55 44 19 7 43 104 28 120 -5 5 -9 30 -9 56 0 37 7 55 34 91 38 49
61 58 151 58 52 0 53 0 59 34 8 39 0 81 -20 111 -8 11 -14 42 -14 70 1 44 6
55 41 94 35 39 47 46 107 57 45 9 102 12 175 7 104 -6 109 -5 133 18 56 52 67
105 35 168 -19 37 -22 38 -83 45 -51 5 -68 12 -91 34 -38 38 -51 97 -30 133
15 25 15 29 -6 58 -23 33 -60 41 -79 19 -5 -7 -16 -32 -23 -55 -6 -24 -16 -43
-20 -43 -13 0 -39 137 -39 209 0 39 -5 91 -12 116 -10 37 -17 47 -45 56 -25 8
-33 16 -33 35 0 27 -65 207 -87 241 -10 15 -13 35 -8 62 7 43 -3 70 -60 156
-31 46 -34 58 -37 142 -3 69 -1 94 9 97 23 9 2 34 -65 76 -61 39 -71 42 -122
38 -83 -6 -89 4 -89 179 0 117 -4 149 -21 192 -11 30 -20 75 -20 107 0 44 -6
64 -29 97 -26 40 -39 86 -56 215 -6 44 -93 229 -117 249 -7 6 -39 19 -70 29
-37 11 -76 34 -109 63 l-52 45 7 98 c8 124 28 167 125 265 65 66 76 73 131 84
33 6 80 24 103 39 27 17 65 30 103 35 32 4 93 16 134 27 63 16 103 19 245 17
94 -1 191 1 217 5 42 7 51 5 93 -24 l46 -32 34 27 c31 23 35 31 35 72 0 27 8
58 19 77 11 17 36 85 56 151 35 111 42 124 94 180 62 67 91 136 91 219 0 41 5
53 33 80 28 29 49 37 174 66 l142 33 59 67 c64 71 82 113 82 193 0 46 -3 50
-72 120 -83 84 -162 141 -183 133 -8 -3 -21 -21 -29 -40 -10 -24 -28 -42 -58
-57 -24 -12 -62 -39 -84 -59 -38 -35 -48 -39 -120 -45 -67 -7 -90 -4 -154 15
-109 33 -146 39 -232 40 -78 0 -160 18 -311 67 l-78 25 -237 -22 c-176 -16
-266 -20 -352 -15 -125 7 -164 21 -214 74 -17 17 -37 31 -46 31 -8 0 -39 16
-69 35 -29 19 -59 35 -67 35 -8 0 -17 13 -20 30 -4 20 -13 30 -24 30 -10 0
-44 14 -76 31 -51 26 -154 58 -191 59 -9 0 -11 -10 -7 -30 8 -35 -9 -60 -40
-60 -11 0 -30 -7 -40 -15 -18 -14 -23 -13 -50 13 -57 53 -130 92 -172 92 -45
0 -108 27 -161 67 -33 26 -45 28 -150 34 -112 5 -113 6 -148 39 -19 19 -37 41
-40 51 -3 9 -20 19 -38 23 -25 5 -35 2 -48 -15 -15 -21 -16 -21 -46 18 -17 21
-35 35 -39 30 -4 -4 -3 -31 3 -60 13 -62 -2 -97 -43 -97 -28 0 -43 25 -25 43
22 22 12 45 -21 52 -18 4 -43 13 -55 21 l-23 14 0 -84 c0 -67 -3 -85 -16 -90
-26 -10 -51 -7 -83 12 -30 16 -31 20 -31 83 0 44 -5 70 -14 78 -7 6 -16 29
-20 51 -5 31 -11 40 -26 40 -11 0 -20 6 -20 13 0 11 -39 37 -55 37 -2 0 -12
-12 -23 -27z"/>
<path d="M4294 8003 c-3 -21 -15 -48 -26 -60 -20 -21 -20 -21 4 -34 12 -6 39
-25 58 -41 48 -39 71 -38 63 5 -18 91 -55 165 -85 167 -4 0 -10 -17 -14 -37z"/>
<path d="M3428 7271 c10 -72 92 -94 92 -26 0 39 -20 55 -68 55 -26 0 -28 -3
-24 -29z"/>
<path d="M3310 7246 c17 -24 43 -49 56 -55 33 -14 34 -14 34 7 0 17 -35 50
-85 79 -36 22 -37 14 -5 -31z"/>
<path d="M1229 6479 c3 -89 3 -91 -18 -80 -17 10 -23 7 -37 -14 -15 -23 -21
-25 -57 -20 -28 5 -37 4 -33 -4 10 -16 -34 -131 -50 -131 -8 0 -14 -11 -14
-25 0 -20 -5 -25 -25 -25 -17 0 -29 -9 -39 -28 -8 -15 -26 -33 -40 -40 -22
-10 -26 -9 -32 10 -6 19 -12 20 -74 16 -37 -3 -77 -12 -89 -20 -36 -26 -281
-5 -281 23 0 18 -17 8 -39 -22 l-23 -31 28 -29 c18 -19 38 -29 56 -29 18 0 28
-5 28 -15 0 -8 21 -29 47 -45 46 -29 52 -30 148 -28 77 2 105 7 124 20 13 10
41 18 61 18 33 0 44 -7 94 -61 l56 -60 0 -104 c0 -101 1 -104 28 -124 26 -20
26 -21 8 -36 -11 -8 -18 -16 -15 -18 2 -2 21 -15 41 -29 l38 -25 -37 -17 -36
-17 43 -44 c51 -52 88 -61 183 -45 72 13 88 27 117 98 7 18 26 51 41 72 16 22
29 53 29 69 0 43 24 59 60 38 15 -9 38 -17 49 -17 24 0 25 -6 6 -40 -24 -42
-17 -43 34 -6 27 20 60 36 74 36 25 0 26 1 25 70 0 39 -1 70 -2 70 -1 0 -17
-4 -36 -10 l-35 -9 25 20 c19 17 33 19 66 14 25 -3 45 -2 49 4 3 6 19 8 34 5
23 -5 30 -2 35 13 5 15 15 18 53 17 42 -2 48 -5 56 -29 8 -22 14 -26 40 -23
17 2 32 8 34 13 2 6 -15 34 -37 64 -48 63 -54 113 -17 132 32 17 32 17 7 44
-28 30 -40 32 -40 5 0 -33 -53 -27 -84 11 -25 29 -34 79 -28 152 1 12 -6 17
-26 17 -58 0 -101 13 -107 30 -8 25 -48 39 -136 49 -42 5 -89 15 -105 22 -27
13 -29 19 -36 88 -3 40 -11 78 -17 84 -6 6 -35 12 -65 15 -41 3 -60 10 -77 28
-12 13 -25 24 -28 24 -3 0 -4 -41 -2 -91z"/>
<path d="M2173 6407 l-63 -21 0 -48 c0 -36 5 -53 22 -70 13 -13 30 -36 38 -53
8 -16 23 -31 33 -33 25 -5 67 25 67 47 0 17 18 31 40 31 5 0 14 -25 20 -55 11
-55 12 -55 48 -55 33 1 35 2 20 14 -27 20 -22 41 15 58 29 14 34 13 62 -3 17
-11 35 -19 41 -19 24 0 24 34 1 69 -13 20 -27 46 -31 59 -11 33 -40 44 -100
37 -49 -6 -55 -5 -99 29 -26 20 -48 36 -50 35 -1 0 -30 -10 -64 -22z"/>
<path d="M2134 5333 c-13 -29 -13 -41 -4 -58 9 -17 9 -28 0 -45 -10 -18 -17
-21 -51 -15 -48 8 -57 -7 -39 -71 15 -53 47 -74 111 -74 l41 0 -4 -40 c-2 -22
0 -40 5 -40 4 0 30 -20 56 -45 l49 -46 6 35 c5 27 13 37 38 45 52 18 92 14
118 -14 24 -25 24 -26 6 -57 l-19 -31 24 6 c13 4 32 7 43 7 15 0 17 5 13 29
-4 19 -1 33 8 41 19 16 19 74 1 89 -22 18 -56 97 -56 128 0 16 5 35 10 43 15
24 -36 68 -105 90 -33 11 -85 29 -115 39 -30 11 -70 20 -88 21 -29 0 -35 -5
-48 -37z"/>
<path d="M1142 5183 l-51 -68 -83 -23 c-46 -12 -102 -22 -126 -22 -23 0 -61
-6 -83 -12 -41 -13 -41 -13 -34 -53 16 -100 17 -136 5 -165 -11 -27 -17 -31
-44 -28 -30 3 -31 5 -41 65 -11 71 -47 121 -66 93 -5 -8 -8 -25 -6 -38 5 -26
-19 -48 -80 -76 -53 -23 -63 -49 -63 -151 0 -64 -3 -85 -13 -85 -24 0 -58 46
-72 96 -7 27 -21 70 -31 97 -20 52 -39 62 -143 74 -54 6 -54 6 -47 -18 4 -13
8 -31 9 -39 3 -21 -45 -25 -82 -5 l-31 16 0 -30 c0 -25 6 -31 50 -50 27 -12
50 -28 50 -36 0 -8 13 -29 29 -47 16 -19 32 -50 36 -70 6 -29 13 -39 37 -47
28 -10 29 -13 23 -51 -5 -32 -3 -46 11 -61 16 -18 16 -20 -1 -39 -18 -20 -18
-20 -52 6 -32 24 -33 24 -33 4 0 -12 7 -35 16 -51 14 -28 14 -32 -1 -49 -17
-18 -18 -18 -51 3 -18 12 -39 34 -45 50 -6 15 -15 27 -20 27 -17 0 -19 -40 -4
-70 l16 -32 -33 4 c-41 4 -48 -17 -23 -72 13 -29 34 -48 85 -79 37 -22 80 -43
94 -47 22 -5 26 -3 26 15 0 20 2 21 27 7 28 -14 36 -31 83 -158 17 -47 26 -58
44 -58 35 0 117 -31 123 -46 3 -8 19 -14 38 -14 27 0 34 -4 37 -25 3 -14 2
-28 -2 -30 -16 -10 -69 -137 -67 -158 3 -33 -37 -35 -58 -4 -25 39 -49 24 -69
-44 -11 -36 -30 -70 -47 -86 -15 -15 -25 -31 -22 -35 9 -16 -7 -58 -22 -58 -9
0 -15 -9 -15 -24 0 -13 -10 -30 -22 -38 -17 -11 -21 -23 -20 -57 2 -53 7 -61
37 -61 15 0 25 -7 29 -22 3 -13 14 -34 25 -47 17 -22 20 -23 41 -8 12 8 44 44
70 80 38 49 59 68 94 81 l45 17 -2 58 c-1 46 5 69 26 111 17 32 27 68 27 94 0
23 7 52 16 64 11 15 18 60 24 135 11 158 15 165 105 210 44 22 98 39 130 43
41 5 56 11 60 25 10 29 51 25 59 -6 9 -37 39 -32 59 10 17 37 47 48 47 18 1
-42 15 -44 74 -8 62 37 85 37 83 -2 -2 -22 3 -26 28 -28 17 -1 45 -8 62 -16
29 -12 35 -11 50 4 15 15 15 18 1 34 -29 33 -60 105 -50 115 15 15 62 11 127
-10 33 -11 63 -18 67 -15 5 2 11 22 14 43 4 22 13 45 20 51 8 6 14 26 14 44 0
18 6 37 13 43 10 8 17 0 30 -39 15 -40 22 -49 41 -49 27 0 32 8 41 76 4 28 17
59 29 72 l21 24 -33 27 c-33 26 -33 27 -14 44 29 26 76 22 90 -8 7 -14 23 -30
37 -37 31 -14 59 7 76 60 7 20 20 50 30 67 11 16 19 40 19 53 0 20 4 22 23 16
12 -4 25 -11 28 -16 4 -7 14 -6 27 1 21 11 30 39 34 116 l3 40 20 -33 c16 -27
25 -33 48 -29 19 2 27 -1 27 -11 0 -25 38 -78 65 -90 28 -13 30 -8 10 28 -8
14 -14 31 -15 38 0 16 30 15 53 -3 22 -16 67 -1 67 21 0 29 -94 122 -140 139
-25 8 -70 31 -100 49 -48 28 -56 38 -68 79 -13 46 -14 47 -52 47 -33 0 -52 10
-111 55 -39 30 -78 55 -88 55 -9 0 -29 7 -45 15 -15 8 -40 15 -55 15 -15 0
-36 7 -49 15 -16 12 -35 14 -74 10 -88 -10 -93 -13 -106 -47 -7 -18 -20 -44
-30 -56 l-18 -24 -31 26 c-34 29 -71 34 -79 11 -4 -8 -18 -15 -34 -15 -22 0
-39 14 -85 73 -32 39 -61 76 -65 80 -4 5 -30 -22 -58 -60z"/>
<path d="M100 4548 c-14 -6 -41 -13 -60 -17 -38 -7 -48 -26 -28 -54 12 -15 20
-16 73 -6 33 6 63 14 68 18 11 11 -3 71 -17 70 -6 0 -22 -5 -36 -11z"/>
<path d="M1090 3892 c0 -10 -7 -28 -16 -41 -15 -22 -15 -24 4 -43 l20 -21 36
22 c20 13 36 24 36 26 0 2 -9 20 -21 39 -22 38 -59 49 -59 18z"/>
<path d="M3474 3841 c-23 -14 -33 -30 -41 -66 -14 -61 -7 -85 24 -85 19 0 28
9 45 47 11 25 23 63 25 85 6 44 -5 48 -53 19z"/>
<path d="M2253 2868 c-6 -7 -8 -30 -6 -50 4 -28 10 -38 23 -38 10 0 25 -3 34
-6 13 -5 16 2 16 34 0 22 -3 47 -6 56 -7 19 -47 21 -61 4z"/>
</g>
</svg>
