<?xml version="1.0" standalone="no"?>
<!DOCTYPE svg PUBLIC "-//W3C//DTD SVG 20010904//EN"
 "http://www.w3.org/TR/2001/REC-SVG-20010904/DTD/svg10.dtd">
<svg version="1.0" xmlns="http://www.w3.org/2000/svg"
 width="1024.000000pt" height="1024.000000pt" viewBox="0 0 1024.000000 1024.000000"
 preserveAspectRatio="xMidYMid meet">
<metadata>
Created by potrace 1.10, written by Peter Selinger 2001-2011
</metadata>
<g transform="translate(0.000000,1024.000000) scale(0.100000,-0.100000)"
fill="#000000" stroke="none">
<path d="M4391 10161 c-19 -67 -29 -83 -64 -113 -23 -19 -67 -71 -99 -115
l-56 -81 26 -37 26 -36 -50 -152 -50 -152 -143 -75 c-127 -67 -145 -79 -167
-119 -13 -23 -24 -45 -24 -47 0 -2 14 -19 31 -39 26 -30 29 -36 14 -41 -12 -5
-14 -14 -9 -37 5 -25 2 -33 -22 -52 l-28 -22 43 -104 43 -103 -32 -29 c-49
-44 -51 -85 -6 -145 42 -58 46 -96 14 -113 -13 -7 -27 -18 -31 -25 -6 -10 -13
-11 -33 -2 -37 17 -60 -12 -87 -114 -18 -68 -34 -101 -77 -159 -29 -41 -67
-88 -83 -106 -25 -27 -29 -37 -25 -75 4 -36 -2 -57 -35 -123 l-40 -80 12 -82
c9 -62 9 -87 0 -107 -9 -20 -9 -32 -1 -51 16 -34 -16 -102 -50 -107 -21 -3
-24 -11 -33 -89 -6 -48 -17 -95 -25 -105 -8 -11 -16 -21 -17 -23 -1 -2 -9 2
-17 8 -16 13 -18 9 -31 -57 -9 -46 39 -190 69 -202 l21 -9 -22 -6 -21 -7 20
-46 c34 -80 66 -205 66 -258 0 -62 11 -103 22 -84 7 11 13 10 34 -4 29 -19 33
-38 11 -56 -20 -16 -20 -135 0 -170 22 -38 18 -54 -17 -73 -81 -45 -96 -67
-117 -167 -11 -52 -24 -96 -29 -98 -5 -1 -18 -9 -28 -17 -18 -15 -18 -16 4
-34 19 -16 24 -33 29 -99 6 -87 -2 -152 -19 -152 -6 0 -32 -19 -57 -43 -25
-24 -53 -48 -62 -53 -8 -5 -25 -23 -36 -40 -18 -26 -22 -46 -23 -135 -1 -57 2
-117 8 -134 7 -24 6 -34 -10 -51 -18 -20 -18 -22 5 -85 14 -35 27 -89 31 -119
4 -30 14 -62 23 -72 25 -27 7 -51 -62 -82 l-65 -29 0 -59 c0 -73 -33 -160 -58
-151 -13 6 -14 -2 -9 -58 6 -56 5 -66 -12 -79 -23 -17 -39 -70 -22 -70 19 0
12 -45 -14 -94 -20 -38 -23 -51 -14 -73 6 -18 8 -67 4 -133 -7 -97 -6 -108 14
-142 16 -27 21 -49 19 -85 -3 -48 -3 -48 -45 -57 -36 -7 -43 -13 -43 -33 0
-13 5 -33 10 -43 8 -15 6 -21 -10 -30 -15 -8 -20 -21 -20 -55 0 -55 24 -96 72
-126 44 -27 45 -32 18 -59 -12 -12 -20 -33 -20 -53 0 -30 4 -35 48 -53 l47
-20 -33 -19 c-29 -17 -33 -24 -29 -50 3 -16 -2 -51 -10 -77 -8 -26 -13 -54
-10 -62 4 -9 31 -16 81 -21 41 -3 80 -12 85 -19 6 -7 8 -27 5 -45 -5 -25 -11
-31 -33 -31 -15 0 -31 4 -36 9 -6 4 -42 4 -82 -2 -67 -10 -73 -13 -73 -34 0
-21 4 -23 58 -23 l57 -1 34 -49 c31 -46 32 -52 21 -80 -8 -19 -23 -33 -47 -41
-19 -6 -36 -16 -39 -23 -2 -6 4 -37 15 -69 l20 -58 -45 -22 -46 -22 29 -11
c24 -10 30 -22 44 -80 l17 -69 -45 -20 -45 -19 4 -51 c3 -27 8 -57 12 -66 5
-12 -5 -24 -42 -47 -69 -45 -88 -70 -100 -134 -10 -51 -9 -62 12 -114 l23 -56
-54 -87 c-29 -47 -66 -96 -81 -108 -16 -14 -59 -30 -104 -40 l-77 -16 -9 -41
c-4 -23 -4 -64 0 -93 5 -34 3 -82 -6 -140 l-14 -87 62 -64 61 -64 53 6 c28 3
76 9 105 12 49 6 53 5 64 -18 15 -32 5 -75 -20 -93 -20 -14 -20 -15 -2 -35 18
-20 18 -23 2 -83 l-16 -62 47 -48 48 -47 274 -10 c254 -9 281 -11 349 -35 41
-14 91 -25 111 -25 20 0 61 -8 91 -19 62 -21 149 -36 149 -25 0 4 -26 44 -59
88 -98 136 -141 239 -141 341 0 54 4 69 33 110 27 39 45 53 112 82 44 19 101
43 127 52 25 9 55 27 66 41 30 39 54 123 47 163 -6 28 -1 45 20 81 15 25 39
56 55 69 15 13 40 43 54 65 19 31 33 42 51 42 31 0 156 63 210 106 22 17 50
34 63 38 13 4 22 15 22 27 0 11 7 22 15 25 11 5 12 10 3 24 -9 14 -7 33 6 83
21 75 15 119 -17 140 -13 8 -63 18 -113 22 l-91 7 -98 78 c-53 42 -110 97
-126 121 -28 44 -28 45 -14 94 9 28 28 68 44 90 16 22 40 63 55 92 23 46 31
53 68 63 101 25 117 31 123 50 8 24 53 34 155 35 64 0 75 3 78 18 2 10 -4 27
-14 38 -17 18 -16 20 5 43 13 14 36 30 51 36 52 22 58 65 34 260 -5 42 -4 46
25 63 18 11 31 26 31 38 0 16 22 30 100 66 55 26 100 49 100 53 0 4 -17 12
-39 18 -67 20 -131 52 -131 65 0 19 85 57 128 57 43 0 62 -14 62 -46 0 -32 43
-44 111 -32 30 5 56 11 57 13 15 15 19 83 6 124 -24 83 -27 85 -114 57 -60
-19 -69 -24 -42 -25 24 -1 32 -5 32 -20 0 -22 -38 -32 -97 -24 -32 4 -40 9
-36 23 4 14 -6 20 -47 30 -45 11 -54 17 -66 46 -8 20 -14 68 -14 118 0 47 -4
95 -9 108 -4 13 -11 50 -15 84 -6 57 -5 61 19 74 22 12 37 10 132 -19 60 -18
128 -47 153 -63 l44 -31 108 7 c93 6 117 12 190 44 46 20 94 44 106 53 21 15
21 17 6 62 -9 26 -20 49 -25 53 -12 7 -11 71 1 79 6 3 10 20 10 36 0 46 17 72
44 65 21 -5 24 -1 33 52 10 55 9 59 -17 92 -43 55 -50 75 -50 134 0 64 13 72
53 32 14 -13 42 -29 63 -35 125 -35 496 16 836 114 152 44 301 130 319 185 6
19 33 60 58 90 26 30 74 91 106 135 49 66 60 89 65 132 8 69 -13 143 -40 143
-11 0 -43 12 -70 28 -41 22 -52 34 -61 66 -13 46 -5 99 22 142 26 43 24 52
-21 109 -32 41 -61 62 -162 115 -150 79 -163 96 -143 190 11 53 11 62 -6 90
-22 36 -23 51 -7 135 10 58 15 66 61 101 l49 39 -5 84 c-3 48 -1 94 5 107 8
16 6 33 -7 66 -16 43 -16 47 5 104 12 32 25 76 30 96 4 21 12 43 18 50 17 21
32 186 20 220 -12 35 -4 49 81 136 34 35 68 79 75 97 8 18 24 39 37 45 53 29
107 91 129 150 14 37 29 62 41 65 11 4 26 21 35 38 9 18 45 59 80 92 36 33 86
92 112 130 43 63 52 72 100 87 30 9 70 32 90 50 20 18 85 58 144 88 l107 55
42 73 c35 62 40 80 35 110 -3 20 0 51 6 68 9 27 7 46 -14 120 -22 80 -29 92
-71 127 l-46 40 -48 -13 c-26 -7 -55 -14 -65 -16 -13 -4 -17 -24 -23 -112 -5
-82 -13 -120 -32 -164 -22 -50 -34 -62 -106 -110 -45 -30 -91 -59 -101 -64
-11 -6 -24 -24 -30 -41 -15 -44 -17 -45 -72 -28 -27 8 -54 15 -60 15 -6 0 -25
-20 -43 -45 l-32 -45 -28 19 c-25 18 -30 19 -49 5 -19 -13 -28 -12 -84 3 -35
9 -82 29 -105 45 -40 27 -48 28 -167 31 -68 1 -127 5 -131 9 -4 4 13 33 39 65
35 46 48 73 59 125 14 65 65 170 110 225 13 15 33 44 45 64 l22 36 -44 60
c-57 77 -158 142 -271 173 -95 26 -93 24 -223 134 l-104 86 -60 0 c-57 0 -62
2 -156 69 -53 38 -108 81 -122 96 -14 15 -65 57 -115 94 -90 67 -90 68 -109
135 -18 64 -22 70 -72 102 -29 18 -69 54 -90 79 -52 64 -83 75 -212 72 -59 -1
-113 1 -121 3 -9 4 -20 -15 -36 -60 -12 -36 -30 -80 -39 -97 -9 -18 -16 -53
-16 -79 l0 -48 -60 102 c-75 126 -84 132 -223 132 l-103 0 -30 33 c-17 17 -47
56 -68 85 -21 28 -39 52 -40 52 -1 0 -12 -35 -25 -79z"/>
<path d="M3780 376 l0 -325 93 5 c107 7 238 -6 380 -38 l100 -22 66 19 c46 14
90 19 147 17 l81 -2 26 39 26 39 -67 7 c-37 4 -116 16 -175 27 -99 19 -114 25
-165 66 -31 24 -102 65 -157 91 -93 45 -105 53 -168 129 -58 71 -73 83 -107
88 -33 5 -39 11 -42 33 -2 15 4 35 15 48 19 21 19 22 -1 51 -54 74 -52 83 -52
-272z"/>
</g>
</svg>
