<?xml version="1.0" standalone="no"?>
<!DOCTYPE svg PUBLIC "-//W3C//DTD SVG 20010904//EN"
 "http://www.w3.org/TR/2001/REC-SVG-20010904/DTD/svg10.dtd">
<svg version="1.0" xmlns="http://www.w3.org/2000/svg"
 width="1024.000000pt" height="1024.000000pt" viewBox="0 0 1024.000000 1024.000000"
 preserveAspectRatio="xMidYMid meet">
<metadata>
Created by potrace 1.10, written by Peter Selinger 2001-2011
</metadata>
<g transform="translate(0.000000,1024.000000) scale(0.100000,-0.100000)"
fill="#000000" stroke="none">
<path d="M1326 8644 c-5 -13 -14 -15 -41 -11 -28 5 -33 3 -28 -10 4 -10 -3
-23 -18 -34 -20 -15 -21 -19 -6 -19 11 0 17 -8 17 -24 0 -15 7 -26 17 -28 9
-2 18 -14 19 -28 2 -14 6 -40 10 -59 7 -33 6 -34 -22 -26 -90 22 -164 14 -164
-20 0 -7 -7 -21 -16 -30 -15 -15 -18 -14 -42 1 -24 16 -28 15 -81 -11 -116
-58 -112 -56 -128 -43 -8 6 -21 24 -29 40 -8 15 -19 28 -25 28 -6 0 -37 15
-68 34 -72 43 -215 65 -264 41 -17 -8 -40 -15 -52 -15 -31 0 -117 -30 -138
-48 -19 -17 -15 -41 14 -84 23 -32 24 -51 4 -68 -13 -11 -20 -9 -42 11 -14 13
-32 39 -40 58 -18 41 -50 70 -80 71 -12 0 -29 10 -38 23 l-16 22 -34 -40 c-33
-38 -34 -40 -13 -43 12 -2 36 -20 54 -39 34 -37 35 -53 2 -119 -19 -36 -30
-104 -18 -104 6 0 5 -11 0 -26 -13 -33 -14 -32 14 -27 36 7 39 -11 6 -52 -44
-55 -20 -78 30 -30 23 22 29 24 58 13 17 -7 35 -9 39 -5 14 14 2 81 -17 100
-33 30 -26 55 18 59 l37 3 -3 48 c-4 52 4 57 48 32 14 -8 37 -14 53 -15 22 0
27 -4 27 -25 0 -28 3 -29 30 -15 29 15 49 2 62 -42 15 -49 51 -77 79 -60 10 7
26 12 34 12 8 0 15 7 15 15 0 19 27 19 60 0 38 -21 87 -19 100 5 6 11 20 20
30 20 15 0 20 7 20 25 0 22 3 24 30 19 25 -6 30 -3 30 13 0 43 64 70 90 38 11
-13 8 -20 -15 -45 -27 -29 -29 -65 -2 -55 7 3 23 -8 35 -25 29 -39 52 -39 52
0 0 21 5 30 17 30 9 0 25 8 35 17 18 16 22 16 46 2 20 -11 27 -23 28 -45 2
-68 27 -70 97 -9 54 47 86 56 107 30 18 -21 77 -19 89 3 5 10 7 37 4 60 -5 39
-4 42 18 42 13 0 30 -4 38 -9 9 -6 28 -4 53 6 21 8 45 13 53 9 17 -6 21 -61 5
-71 -5 -3 -10 -13 -10 -21 0 -10 12 -14 41 -14 22 0 48 -4 58 -9 12 -7 35 -1
81 20 86 38 110 38 110 0 0 -36 -35 -81 -63 -81 -12 0 -40 -15 -62 -33 -31
-24 -40 -39 -40 -62 0 -30 -1 -30 -70 -38 -138 -16 -136 -15 -202 -82 -34 -34
-71 -69 -83 -78 -18 -12 -20 -19 -11 -35 8 -15 7 -23 -5 -33 -23 -19 -5 -28
72 -32 39 -3 80 -10 93 -16 23 -13 41 -7 41 13 0 7 8 21 19 30 25 23 65 12 92
-25 11 -16 31 -32 44 -35 38 -9 52 -32 32 -51 -13 -13 -21 -14 -41 -5 -20 9
-33 6 -78 -18 -29 -16 -82 -43 -118 -60 -77 -36 -158 -90 -165 -108 -9 -23 4
-32 31 -22 47 18 96 2 129 -42 28 -37 33 -39 65 -33 57 11 73 11 77 -2 2 -7
-11 -18 -29 -26 -18 -8 -41 -24 -52 -35 -16 -19 -17 -25 -6 -52 18 -44 43 -55
76 -33 25 16 28 16 69 -6 31 -16 55 -21 91 -19 l49 3 -2 -40 c-2 -37 -1 -39
12 -21 8 11 15 29 15 39 0 17 5 19 31 13 18 -3 38 -1 45 5 8 6 21 9 29 5 10
-4 15 1 15 14 0 23 1 24 51 8 35 -10 42 -9 62 9 12 12 40 29 62 40 36 16 40
22 43 59 3 47 -16 74 -52 74 -12 0 -31 6 -41 14 -18 13 -18 15 -1 41 13 20 15
30 7 38 -16 16 -13 44 5 51 36 14 60 6 71 -23 11 -29 11 -29 91 -28 74 0 81 2
84 21 2 15 10 21 28 21 22 0 25 5 28 38 3 29 7 37 23 37 47 0 80 -46 48 -66
-23 -14 34 -44 83 -44 59 0 78 -7 78 -30 0 -10 7 -23 15 -30 20 -16 144 -42
158 -33 7 4 52 8 102 8 110 2 307 22 356 37 22 6 43 7 50 2 8 -5 23 -10 34
-11 11 -1 38 -4 60 -7 22 -3 56 -6 76 -5 26 0 50 -11 92 -42 59 -44 67 -58 43
-78 -10 -8 -30 -6 -81 10 -57 17 -72 19 -94 9 -14 -7 -51 -15 -81 -19 -47 -5
-55 -9 -60 -31 -5 -19 -12 -24 -31 -22 -54 7 -117 2 -164 -12 -27 -9 -72 -16
-100 -16 -53 0 -139 -34 -164 -63 -9 -11 -29 -17 -57 -17 -24 0 -44 -2 -44 -5
0 -3 15 -20 34 -38 39 -37 56 -67 56 -97 0 -14 8 -24 21 -27 14 -4 19 -12 16
-24 -6 -23 11 -29 41 -16 18 8 31 7 55 -5 18 -9 44 -19 59 -22 36 -8 110 -66
126 -99 16 -32 31 -34 65 -7 35 28 49 25 45 -7 -2 -21 -14 -33 -46 -50 -24
-13 -50 -30 -58 -38 -9 -8 -30 -15 -47 -14 -56 0 -101 -7 -125 -19 -13 -8 -36
-10 -56 -7 -20 4 -36 2 -40 -4 -4 -6 -22 -11 -39 -11 -44 0 -91 -43 -77 -70 6
-11 8 -43 4 -75 -7 -56 2 -69 26 -40 7 8 21 15 31 15 10 0 21 5 24 10 10 17
39 11 53 -10 12 -20 12 -20 44 0 39 24 108 27 108 6 0 -8 -16 -24 -35 -36 -19
-12 -35 -24 -35 -26 0 -2 23 -2 52 0 41 3 53 8 59 24 4 11 15 25 25 30 23 13
105 3 126 -15 23 -20 48 -10 48 19 0 38 14 51 48 43 43 -9 72 9 72 45 0 23 5
30 20 30 16 0 19 5 14 29 -7 31 10 71 29 71 7 0 18 -9 25 -20 18 -29 41 -25
53 9 8 23 17 30 47 33 51 7 59 2 67 -38 4 -26 16 -41 47 -60 l40 -26 -31 -32
c-17 -17 -31 -35 -31 -38 0 -9 93 -33 116 -30 11 2 33 -2 48 -8 23 -8 32 -7
53 10 14 11 30 20 35 20 18 0 78 -68 78 -88 0 -36 36 -47 82 -26 37 17 42 17
71 1 18 -9 43 -17 57 -19 32 -4 39 -49 15 -94 -16 -30 -16 -34 0 -64 l17 -33
-38 -34 c-22 -19 -54 -41 -71 -49 -41 -18 -41 -29 -3 -49 17 -9 30 -20 30 -25
0 -6 28 -10 63 -10 57 0 66 -3 92 -30 16 -16 37 -30 47 -30 10 0 22 -8 25 -17
11 -28 55 -62 90 -69 19 -3 33 -13 36 -25 3 -11 14 -19 26 -19 11 0 26 -9 33
-20 8 -12 24 -20 41 -20 36 0 67 -16 67 -35 0 -25 45 -17 69 11 21 24 28 26
71 20 61 -8 75 6 66 67 -6 42 -5 44 28 60 40 19 124 11 154 -15 9 -9 39 -18
66 -21 34 -3 54 -11 65 -25 12 -15 30 -22 65 -24 27 -2 51 -8 53 -14 7 -21
-27 -43 -75 -49 -26 -3 -55 -10 -65 -16 -10 -5 -22 -7 -28 -3 -6 3 -29 -7 -52
-23 -23 -15 -48 -28 -56 -28 -8 0 -16 -6 -19 -14 -4 -11 2 -12 24 -7 16 4 43
10 60 13 l30 5 -1 -64 c-1 -34 -4 -69 -6 -76 -2 -8 6 -21 18 -29 19 -13 23
-13 27 -2 13 43 17 50 31 56 9 3 28 0 43 -8 15 -7 30 -15 35 -17 4 -2 7 8 7
22 0 31 13 40 47 31 22 -5 24 -10 18 -33 -20 -73 5 -150 45 -137 9 3 36 -2 60
-10 39 -14 45 -14 60 0 24 22 38 19 55 -15 9 -17 20 -28 25 -25 5 3 18 0 30
-7 25 -16 27 -66 3 -75 -10 -3 -25 -12 -33 -19 -8 -7 -28 -14 -45 -16 -27 -3
-30 -6 -28 -34 2 -19 -4 -37 -12 -44 -8 -7 -15 -27 -15 -45 0 -43 -9 -65 -26
-65 -15 0 -18 -12 -7 -24 4 -4 8 -15 8 -24 0 -13 7 -16 27 -14 17 2 40 -6 59
-20 23 -17 42 -22 77 -21 36 1 54 -4 80 -23 29 -23 35 -24 66 -13 41 15 66 1
66 -36 0 -28 17 -42 55 -47 23 -2 30 -8 31 -26 1 -12 4 -25 7 -28 8 -8 40 -8
63 0 14 4 29 0 44 -12 23 -18 24 -18 42 0 27 27 117 25 147 -3 13 -12 21 -30
19 -42 -3 -19 -9 -22 -38 -19 -35 3 -35 3 -37 -40 -1 -38 4 -48 45 -90 l45
-47 28 19 c34 25 46 25 54 0 12 -39 35 -15 35 37 0 25 1 26 50 20 40 -5 50 -3
50 9 0 21 24 27 62 16 83 -25 86 -25 90 10 2 25 8 33 23 33 12 0 21 -8 23 -20
7 -46 13 -51 28 -30 13 18 17 18 47 5 17 -7 67 -15 110 -18 66 -3 77 -6 77
-22 0 -27 -23 -40 -64 -37 -27 1 -41 -3 -50 -15 -20 -32 4 -52 70 -59 32 -3
83 -14 112 -25 l52 -19 -4 -90 -4 -90 -54 -1 c-68 -1 -74 -5 -81 -51 -3 -21
-8 -46 -12 -55 -5 -14 6 -23 58 -48 35 -16 69 -30 76 -30 6 0 17 -11 23 -25 9
-20 19 -25 46 -25 24 0 42 -8 59 -26 18 -19 31 -25 56 -22 31 3 32 2 34 -37 3
-72 14 -115 30 -115 11 0 13 -7 9 -27 -5 -24 3 -37 49 -87 30 -32 55 -67 55
-77 0 -24 38 -87 60 -99 10 -6 29 -10 43 -10 30 0 63 -35 72 -78 5 -26 3 -33
-12 -39 -39 -14 -43 -23 -26 -57 8 -17 31 -44 49 -59 21 -18 34 -37 34 -52 0
-26 15 -41 25 -25 10 17 25 11 25 -9 0 -11 5 -23 11 -27 6 -3 8 -20 5 -38 -5
-27 -1 -38 25 -67 28 -31 30 -38 24 -84 -3 -27 -13 -58 -22 -67 -20 -22 -9
-38 27 -38 37 0 45 -25 21 -63 l-20 -31 45 -52 c24 -29 44 -57 44 -63 0 -6 13
-17 30 -26 17 -9 30 -20 30 -25 0 -6 9 -10 19 -10 29 0 71 -56 71 -94 0 -27
-6 -35 -32 -47 -48 -21 -47 -38 1 -32 35 5 41 3 41 -12 0 -10 -7 -27 -17 -37
-24 -27 -8 -34 34 -14 42 20 57 9 49 -36 -5 -25 -3 -28 24 -28 28 0 30 -3 30
-35 0 -40 5 -42 33 -18 18 17 19 17 33 -2 8 -10 14 -31 14 -45 0 -14 6 -34 13
-44 12 -17 14 -16 25 8 14 30 52 36 52 8 0 -29 54 -73 101 -83 58 -13 109 -68
109 -116 0 -34 1 -35 35 -31 25 3 40 -1 51 -13 15 -17 14 -20 -5 -45 -16 -21
-18 -30 -10 -40 16 -20 39 -17 39 4 0 26 46 50 68 35 9 -6 16 -19 14 -29 -2
-11 -4 -30 -5 -44 -2 -20 -8 -26 -35 -28 -24 -2 -36 -11 -47 -32 -19 -37 -19
-50 0 -50 9 0 15 -9 15 -24 0 -29 35 -41 74 -26 17 6 35 6 53 -1 43 -16 56 -5
48 41 -6 35 -5 40 13 40 21 0 32 -18 32 -51 0 -29 51 -25 89 7 36 30 37 37 11
86 -16 31 -17 38 -5 48 10 9 20 8 43 -4 46 -24 57 -42 43 -72 -6 -14 -11 -34
-11 -44 0 -21 24 -27 35 -9 5 7 14 4 27 -7 16 -16 21 -16 28 -4 12 19 10 149
-2 156 -4 3 -8 12 -8 20 0 11 8 14 28 12 24 -3 27 -7 30 -47 2 -25 10 -50 18
-55 8 -6 22 -26 32 -45 23 -47 38 -49 56 -6 9 20 20 34 25 31 12 -8 21 45 11
65 -5 9 -25 28 -45 43 -33 25 -51 75 -22 63 86 -38 136 -57 152 -57 29 0 67
29 58 43 -5 7 -8 23 -8 37 0 22 -5 26 -40 30 -32 4 -41 10 -43 27 -4 30 -60
76 -81 67 -9 -4 -25 -6 -36 -6 -11 1 -29 2 -39 2 -11 1 -38 -17 -60 -39 -45
-45 -86 -53 -122 -26 -10 8 -32 15 -47 15 -34 0 -48 28 -23 46 15 11 26 10 65
-5 51 -21 86 -13 97 21 3 11 19 24 35 30 40 14 37 32 -3 24 -23 -4 -42 0 -65
14 -27 16 -46 19 -122 15 l-89 -3 -26 36 c-14 20 -22 40 -17 45 5 5 40 -1 80
-13 54 -16 76 -18 91 -10 29 16 25 27 -19 50 -22 11 -44 26 -48 32 -15 24 -72
58 -96 58 -12 0 -27 4 -33 9 -5 6 -35 24 -67 41 -44 23 -66 30 -88 25 -22 -5
-31 -2 -35 10 -6 16 4 28 31 39 6 2 5 9 -2 17 -20 21 -15 48 10 54 24 6 120
-38 197 -91 76 -53 108 -66 129 -54 45 23 96 5 71 -25 -18 -21 1 -40 79 -80
36 -19 80 -43 96 -54 35 -24 110 -28 138 -6 20 14 41 11 67 -11 8 -7 26 -12
40 -11 14 0 34 -2 45 -6 14 -5 30 1 50 17 26 21 28 27 17 43 -24 35 -24 43 -2
78 30 48 56 46 71 -5 14 -45 34 -52 43 -15 9 36 28 40 75 16 31 -16 46 -19 65
-11 14 5 31 7 38 5 7 -3 38 1 68 8 l55 13 -3 53 -3 53 40 -7 c37 -6 42 -4 52
19 10 20 9 29 -2 42 -12 15 -11 19 9 32 12 8 22 25 22 38 0 24 -8 28 -44 24
-10 -1 -27 8 -37 19 -23 25 -37 27 -45 6 -8 -20 -42 -29 -59 -15 -8 7 -15 28
-15 47 0 41 -22 53 -50 28 -17 -15 -24 -16 -46 -7 -24 12 -25 15 -18 72 5 50
4 60 -9 60 -8 0 -18 7 -21 16 -4 11 -14 14 -34 9 -19 -4 -33 -1 -41 9 -7 9
-41 17 -86 21 -88 9 -116 29 -97 70 10 21 7 28 -21 57 -28 29 -40 34 -97 38
-64 5 -65 5 -65 35 0 21 7 33 25 42 30 15 128 17 166 3 15 -6 31 -7 35 -3 13
13 -7 129 -30 177 -25 50 -25 64 -6 90 10 13 11 24 5 37 -6 10 -10 30 -10 46
0 17 -14 46 -36 73 -19 24 -38 57 -41 72 -3 15 -12 29 -20 32 -11 5 -13 14 -8
34 10 40 24 52 62 52 l34 0 -7 50 c-6 47 -5 50 21 62 28 13 29 27 9 96 -5 18
-3 22 18 22 13 0 29 -5 36 -12 19 -19 22 -4 11 56 -7 40 -7 67 0 85 5 14 11
37 13 51 2 17 13 30 36 40 25 12 31 19 26 35 -3 11 -7 35 -8 53 -2 19 -9 38
-17 43 -18 11 -29 11 -29 0 0 -5 -9 -13 -21 -16 -16 -5 -19 -14 -17 -38 3 -27
-1 -33 -22 -35 -13 -2 -39 -17 -58 -33 -18 -16 -42 -29 -53 -29 -11 0 -36 -17
-57 -38 -20 -21 -58 -46 -85 -56 -50 -19 -51 -20 -62 -108 -8 -60 -22 -69 -52
-34 -27 31 -31 87 -8 106 19 16 19 30 1 30 -8 0 -29 18 -46 40 l-32 41 -35
-21 c-49 -29 -100 -26 -135 7 -21 20 -28 23 -28 11 0 -25 -81 -44 -117 -27
-39 19 -66 79 -67 151 -1 66 15 88 65 88 34 0 43 22 28 67 -6 19 -8 46 -4 60
l6 26 86 -7 86 -6 31 36 c28 32 38 37 96 43 36 4 71 10 78 14 22 15 2 27 -43
27 -34 0 -52 7 -77 28 -18 15 -45 33 -59 39 -31 14 -49 71 -38 123 13 58 -9
80 -81 80 -51 0 -61 3 -78 25 -12 15 -26 23 -35 19 -9 -3 -27 2 -41 11 -24 16
-27 16 -52 -4 -20 -16 -30 -18 -46 -10 -10 6 -22 17 -25 25 -6 17 -33 18 -68
2 -22 -10 -28 -9 -41 10 -9 13 -26 22 -41 22 -15 0 -45 16 -74 41 -61 51 -71
88 -40 159 12 28 19 55 16 60 -3 5 4 27 17 48 22 39 22 40 2 67 -41 58 -45 70
-40 113 3 23 13 56 21 72 18 34 4 41 -31 15 -26 -19 -63 -19 -86 2 -17 15 -20
15 -48 -5 -16 -12 -43 -22 -60 -22 -17 0 -38 -4 -48 -8 -9 -5 -32 -16 -49 -25
-29 -14 -34 -14 -48 -1 -19 19 -19 25 0 50 8 10 15 33 15 49 0 24 10 38 50 70
28 22 53 48 56 58 3 11 22 37 41 58 34 38 35 40 18 53 -19 14 -68 5 -81 -15
-3 -5 -14 -9 -25 -9 -19 0 -20 4 -14 39 8 48 -4 57 -46 35 -26 -13 -33 -14
-40 -2 -17 26 -8 39 49 66 47 22 58 32 60 55 3 21 -1 27 -16 27 -11 0 -25 -7
-32 -15 -29 -35 -56 4 -31 44 6 10 5 27 -4 48 -10 24 -11 41 -5 58 6 16 6 34
0 51 -12 30 -6 44 19 44 27 0 33 12 14 32 -21 24 -31 23 -35 -4 -3 -24 -15
-26 -68 -13 -20 5 -27 1 -35 -17 -13 -30 -46 -34 -69 -9 -24 26 -14 55 30 80
34 20 38 41 9 41 -13 0 -27 28 -24 46 4 24 -3 35 -28 45 -23 9 -29 6 -49 -18
-20 -25 -24 -26 -49 -15 -22 10 -26 18 -22 38 4 22 -1 28 -30 41 -32 13 -37
13 -55 -4 -19 -17 -22 -16 -82 15 -35 18 -82 48 -104 67 -22 19 -43 35 -46 35
-14 0 -4 -53 17 -96 l22 -46 -22 -15 c-36 -24 -30 -62 17 -106 29 -27 40 -45
40 -66 0 -16 7 -34 15 -41 11 -9 15 -27 13 -54 -3 -39 -2 -41 29 -44 42 -4 61
-27 45 -53 -17 -27 -15 -47 8 -71 11 -12 20 -31 20 -43 0 -12 9 -30 20 -40 11
-10 20 -31 20 -47 0 -18 5 -28 14 -28 21 0 57 -50 54 -74 -2 -14 -13 -23 -33
-26 -27 -5 -30 -8 -27 -38 4 -37 -14 -92 -30 -92 -6 0 -24 10 -41 23 -23 16
-46 22 -84 22 -60 0 -69 6 -54 34 10 17 5 33 -29 97 -22 41 -56 94 -76 117
-20 23 -44 65 -53 92 -15 46 -19 50 -49 51 -18 1 -38 6 -45 13 -19 19 -29 12
-25 -19 2 -18 -3 -34 -14 -42 -17 -14 -58 -117 -58 -148 0 -11 -4 -20 -9 -20
-12 0 -72 -97 -70 -113 6 -45 -25 -55 -81 -27 -42 21 -49 45 -14 45 21 0 49
64 64 147 5 27 12 53 15 59 8 12 -14 69 -26 69 -5 0 -9 11 -9 25 0 30 40 75
67 75 13 1 8 9 -21 35 -31 28 -37 39 -32 59 5 21 -1 31 -34 57 -43 35 -48 50
-25 69 13 10 23 10 55 -5 31 -14 43 -15 54 -6 24 20 47 106 51 187 3 69 2 76
-18 83 -12 5 -31 18 -41 30 -11 11 -22 21 -26 21 -3 0 -17 -20 -29 -45 -15
-30 -29 -45 -41 -45 -26 0 -43 35 -36 71 5 27 3 29 -23 29 -16 0 -34 -7 -41
-15 -7 -9 -20 -14 -29 -12 -29 6 -71 -23 -86 -59 -9 -22 -20 -34 -28 -31 -7 2
-31 -3 -55 -12 -32 -12 -51 -29 -75 -66 -26 -40 -38 -51 -64 -53 -27 -3 -34
-9 -45 -44 -18 -53 -60 -87 -83 -68 -16 13 -16 25 -1 61 5 11 1 18 -13 22 -14
3 -31 -8 -60 -40 -25 -28 -46 -43 -55 -40 -9 4 -16 -3 -20 -19 -8 -29 -51 -53
-67 -37 -6 6 -7 28 -2 59 8 46 11 49 53 65 62 23 60 47 -6 78 -37 17 -60 36
-79 67 -16 26 -37 45 -53 49 -38 9 -52 24 -52 52 0 37 29 86 46 79 9 -3 31 -6
49 -6 21 0 51 -12 85 -36 38 -26 58 -34 76 -30 16 4 24 13 22 24 -2 13 5 17
32 17 21 1 50 10 68 24 28 19 32 28 32 67 0 25 5 54 10 64 9 17 14 18 36 8 16
-8 28 -8 32 -2 4 5 19 17 34 26 34 22 43 50 25 83 -10 21 -11 35 -3 61 16 50
44 54 88 10 60 -60 122 -62 116 -4 -4 47 20 47 125 -2 48 -22 94 -40 102 -40
19 0 19 20 0 47 -11 16 -14 34 -9 64 7 40 6 42 -17 36 -13 -3 -38 -11 -56 -18
-30 -12 -35 -11 -94 29 -34 23 -66 42 -71 42 -5 0 -6 15 -2 34 6 33 4 35 -32
45 -32 9 -44 7 -83 -12 -38 -19 -53 -22 -84 -14 -35 9 -39 7 -76 -30 -38 -39
-85 -58 -117 -46 -9 3 -21 -3 -30 -16 -8 -11 -21 -21 -28 -21 -7 0 -21 -9 -32
-21 -24 -26 -67 -49 -92 -49 -11 0 -30 8 -42 18 -18 14 -35 18 -69 14 -43 -4
-48 -2 -59 22 -7 15 -12 31 -12 36 0 21 34 40 73 40 23 0 51 7 61 15 11 8 31
15 45 15 28 1 68 25 54 33 -4 2 -51 8 -103 12 -52 4 -101 11 -107 17 -7 6 -13
23 -13 39 0 32 27 45 80 37 26 -4 30 -1 30 19 0 13 -7 37 -15 54 -9 16 -13 34
-10 39 11 19 52 10 76 -16 34 -37 70 -53 103 -47 26 5 28 9 23 39 -6 37 11 58
56 69 l28 7 -18 31 c-16 26 -25 31 -63 33 -31 2 -53 -4 -72 -18 -24 -17 -29
-17 -34 -4 -3 9 4 32 16 51 31 50 16 63 -38 36 -45 -23 -75 -18 -109 18 -16
17 -23 18 -60 8 -46 -12 -73 0 -73 34 0 32 -19 30 -42 -5 l-23 -35 -33 25
c-28 22 -37 24 -65 15 -17 -5 -45 -13 -62 -18 -25 -7 -31 -15 -37 -53 -6 -30
-4 -53 4 -67 8 -18 9 -29 0 -48 -7 -14 -12 -55 -12 -90 0 -55 -3 -66 -22 -79
-32 -23 -74 -20 -98 6 -21 23 -23 33 -20 81 1 19 -5 34 -19 44 -12 8 -21 24
-21 36 0 28 26 67 45 67 9 0 16 15 20 38 3 20 8 47 11 59 2 12 0 25 -6 28 -5
3 -10 26 -10 50 0 47 -3 50 -75 61 -26 3 -56 15 -66 25 -27 27 -86 35 -108 15
-25 -23 -30 -21 -85 24 -54 45 -51 44 -76 30 -14 -8 -25 -7 -40 2 -17 11 -23
9 -45 -15 -17 -17 -36 -27 -55 -27 -35 0 -66 -36 -48 -57 6 -7 19 -13 29 -13
22 0 23 -4 9 -31 -6 -11 -21 -19 -35 -19 -14 0 -34 -9 -44 -19 -10 -10 -37
-22 -59 -26 -22 -3 -48 -15 -58 -26 -9 -10 -23 -19 -31 -19 -47 0 -99 -58 -74
-83 22 -22 12 -38 -21 -35 -25 2 -36 -2 -43 -17 -16 -32 -82 -60 -114 -49 -30
11 -31 27 -7 94 24 65 38 90 51 90 16 0 52 41 57 65 2 14 15 21 47 27 26 4 55
18 71 33 14 14 31 25 38 25 7 0 12 9 12 19 0 11 5 23 10 26 15 10 12 71 -5 85
-19 16 -19 40 0 40 25 0 38 41 25 75 l-12 30 -18 -23 c-24 -29 -40 -21 -40 18
0 28 -2 29 -24 19 -29 -14 -60 -86 -51 -122 9 -35 -11 -69 -38 -65 -19 3 -22
9 -22 48 l0 45 -55 -4 c-69 -4 -90 -15 -90 -47 0 -24 -3 -26 -32 -22 -18 3
-40 8 -48 12 -12 5 -18 -2 -25 -26 -6 -19 -22 -38 -40 -48 -20 -11 -32 -27
-36 -50 -4 -19 -16 -42 -27 -51 -11 -9 -27 -32 -35 -52 -9 -21 -28 -42 -46
-52 -38 -19 -41 -51 -7 -67 30 -13 42 -38 24 -50 -19 -12 -75 -10 -97 3 -14
10 -26 7 -59 -11 -52 -29 -75 -16 -70 39 3 34 5 36 41 39 31 3 37 7 37 27 0
13 -4 27 -10 30 -5 3 -10 21 -10 39 0 18 -9 45 -20 59 -23 29 -25 38 -8 55 6
6 12 26 12 44 1 29 5 33 57 50 36 12 60 26 66 40 5 11 25 26 43 32 19 6 33 16
30 21 -7 14 -97 10 -115 -5 -9 -7 -22 -9 -32 -5 -10 5 -22 7 -26 6 -20 -4 -48
22 -45 42 2 16 11 23 33 25 37 4 59 22 26 22 -33 0 -25 44 9 48 48 6 51 9 38
37 -10 22 -16 25 -37 19 -15 -4 -55 -6 -90 -6 -78 2 -94 -8 -79 -49 8 -24 7
-33 -6 -47 -11 -13 -14 -29 -10 -54 5 -30 3 -37 -14 -42 -30 -10 -122 45 -122
73 0 4 -15 12 -32 18 -32 9 -33 9 -35 -21 -1 -17 3 -47 9 -68 9 -32 8 -40 -11
-67 -12 -16 -30 -33 -41 -36 -15 -5 -20 -15 -20 -41 0 -28 -4 -35 -17 -32 -13
2 -20 17 -25 53 -6 40 -14 56 -42 80 -30 26 -35 37 -38 80 -3 46 -5 50 -30 53
-20 2 -28 -1 -28 -12 0 -22 -39 -29 -125 -24 -60 4 -81 10 -109 31 -19 15 -48
27 -64 27 -16 0 -35 7 -42 15 -15 17 -25 11 -44 -27 -14 -27 -62 -40 -154 -42
-55 -1 -65 -4 -85 -28 -22 -27 -22 -27 -62 -11 -35 14 -92 22 -160 23 -11 0
-36 -2 -56 -6 -47 -8 -86 11 -68 32 6 8 18 14 25 14 9 0 14 12 14 34 0 40 17
50 60 35 23 -9 39 -7 74 6 27 10 53 14 67 10 l23 -7 -22 33 c-12 20 -34 38
-52 43 -54 16 -29 64 38 73 40 5 42 7 26 24 -9 10 -31 25 -50 34 -40 19 -43
34 -9 65 18 17 31 21 53 17 19 -4 43 1 65 12 26 13 50 17 86 13 41 -4 52 -1
57 12 4 10 18 16 35 16 34 0 52 28 43 65 -8 31 -37 40 -110 32 -41 -4 -54 -2
-54 7 0 8 -6 19 -14 25 -10 8 -19 6 -39 -9 -14 -11 -30 -20 -36 -20 -6 0 -11
-13 -11 -28 0 -56 -43 -68 -92 -27 -16 14 -34 25 -39 25 -13 0 -53 -89 -53
-120 -1 -26 -3 -26 -66 -13 -33 6 -57 -21 -62 -67 -3 -31 -6 -35 -35 -38 -22
-2 -37 3 -52 19 -15 16 -34 23 -65 25 -53 2 -63 -3 -67 -36 -5 -31 -40 -34
-53 -4 -5 11 -22 26 -37 31 -21 8 -26 16 -22 31 3 14 -2 24 -15 31 -29 16
-132 17 -183 1 -55 -16 -98 -3 -119 36 -18 33 -33 30 -53 -12 -15 -30 -21 -34
-40 -28 -12 5 -31 7 -42 6 -11 -1 -33 -3 -50 -4 -40 -4 -44 20 -10 60 20 24
24 35 16 50 -7 14 -5 26 10 48 l19 29 -48 5 c-26 3 -64 0 -87 -8 -35 -11 -76
-9 -63 4 8 8 -26 97 -38 101 -7 2 -14 -4 -18 -13z"/>
<path d="M4245 4788 c-17 -10 -38 -18 -48 -18 -14 0 -16 -5 -10 -27 4 -16 7
-40 7 -55 -1 -22 3 -28 20 -28 23 0 79 -19 113 -38 12 -7 29 -12 37 -12 22 0
20 -37 -2 -44 -10 -4 -31 -20 -47 -36 l-29 -30 32 0 c17 0 34 5 38 11 3 6 17
8 31 4 38 -9 90 4 96 25 4 15 14 18 51 17 31 -1 51 3 62 15 15 15 15 17 -7 28
-13 7 -44 32 -69 57 -25 25 -89 67 -145 97 l-101 52 -29 -18z"/>
<path d="M10084 2219 l-28 -18 37 -16 c36 -15 48 -37 27 -50 -5 -3 -10 -16
-10 -28 0 -17 9 -25 41 -35 52 -16 61 -9 70 60 4 29 11 65 14 79 l7 27 -65 0
c-47 0 -73 -6 -93 -19z"/>
</g>
</svg>
