<?xml version="1.0" standalone="no"?>
<!DOCTYPE svg PUBLIC "-//W3C//DTD SVG 20010904//EN"
 "http://www.w3.org/TR/2001/REC-SVG-20010904/DTD/svg10.dtd">
<svg version="1.0" xmlns="http://www.w3.org/2000/svg"
 width="1024.000000pt" height="1024.000000pt" viewBox="0 0 1024.000000 1024.000000"
 preserveAspectRatio="xMidYMid meet">
<metadata>
Created by potrace 1.10, written by Peter Selinger 2001-2011
</metadata>
<g transform="translate(0.000000,1024.000000) scale(0.100000,-0.100000)"
fill="#000000" stroke="none">
<path d="M9420 9660 c-52 -10 -174 -46 -270 -80 -96 -33 -257 -80 -357 -104
l-181 -43 -129 21 c-120 19 -136 25 -219 72 -59 35 -106 54 -139 59 l-50 6
-36 -48 c-31 -41 -41 -67 -63 -173 -22 -98 -35 -136 -63 -179 l-35 -54 20 -54
20 -54 -35 -26 -36 -27 5 -92 5 -91 -41 -48 c-26 -29 -59 -54 -86 -65 -43 -17
-46 -17 -104 3 -33 11 -90 42 -126 69 l-67 48 -51 -15 -51 -15 -7 -58 c-11
-81 -10 -117 5 -297 l14 -161 -39 -88 -39 -88 -175 -136 c-166 -131 -178 -142
-251 -247 -74 -106 -81 -113 -192 -187 -135 -90 -333 -191 -482 -248 -148 -55
-287 -142 -313 -196 l-20 -40 -533 -186 -534 -185 -210 -18 -210 -17 -119 -50
c-114 -48 -121 -50 -160 -38 -22 7 -76 33 -120 58 -44 24 -146 67 -225 93
-118 40 -158 49 -216 49 -38 0 -99 5 -135 10 -36 5 -139 14 -230 21 -94 6
-211 21 -272 34 -104 23 -110 27 -265 127 -130 85 -191 117 -345 182 -169 71
-191 78 -231 72 -43 -7 -49 -4 -158 67 l-114 75 -98 166 c-92 159 -97 170 -97
225 l0 57 -67 46 c-38 25 -102 60 -143 78 -41 18 -108 50 -147 72 -95 52 -134
48 -189 -18 -56 -69 -134 -254 -134 -318 0 -32 -13 -91 -36 -159 l-36 -107 22
-143 c30 -195 69 -287 159 -381 49 -51 84 -77 137 -101 39 -18 92 -54 121 -81
51 -49 52 -50 122 -264 67 -202 71 -220 71 -305 l0 -90 -60 -39 c-49 -31 -69
-53 -101 -108 -85 -146 -123 -270 -139 -458 -17 -192 -25 -229 -63 -269 -18
-20 -38 -48 -44 -62 -9 -21 -27 -30 -107 -54 -96 -29 -96 -29 -96 -62 0 -28
-4 -33 -24 -33 -21 0 -27 -9 -46 -65 -16 -49 -30 -72 -58 -94 -35 -27 -42 -29
-102 -24 l-65 5 -58 -49 c-98 -82 -193 -199 -339 -417 l-140 -208 28 -112 c15
-61 31 -116 36 -123 23 -29 129 -77 240 -107 114 -31 123 -32 186 -21 96 17
269 90 316 134 21 20 79 90 129 156 188 248 269 332 385 398 l41 23 248 -34
248 -34 125 16 c69 9 177 21 240 27 63 5 140 13 170 17 39 5 125 -2 291 -23
l236 -30 126 -150 c160 -191 214 -231 331 -246 98 -13 194 -5 344 27 63 13
124 24 136 24 12 0 61 -16 109 -35 69 -28 100 -35 155 -35 37 0 191 -16 342
-36 216 -27 304 -43 410 -74 74 -21 201 -57 282 -79 117 -31 155 -46 188 -73
23 -18 114 -124 202 -236 124 -158 160 -211 165 -240 2 -20 18 -63 34 -94 29
-56 30 -62 45 -323 l15 -267 45 -132 c25 -72 62 -199 83 -283 l38 -151 -24
-124 -25 -123 27 -120 c15 -66 46 -181 70 -255 24 -74 55 -187 71 -250 23 -98
35 -126 78 -190 27 -41 61 -84 75 -95 14 -10 55 -47 92 -82 73 -70 157 -114
256 -133 95 -19 395 -8 508 19 50 12 144 26 210 32 155 14 241 44 309 110 l50
47 -1 133 c-1 104 -7 161 -27 252 -28 126 -33 231 -16 332 5 33 17 128 25 210
8 83 19 177 25 210 5 33 10 100 10 148 0 57 12 154 34 275 19 103 40 223 46
267 11 68 21 95 73 185 33 58 82 137 108 177 35 54 48 85 53 127 6 48 12 58
39 75 18 11 69 58 115 104 l82 85 0 110 0 110 -75 157 -75 158 0 303 0 304 76
134 77 133 92 49 93 49 10 77 c16 107 63 197 139 264 51 44 69 53 151 74 50
13 92 29 92 35 0 6 7 64 15 128 l14 118 127 199 c102 162 140 213 198 266 39
37 80 70 91 74 34 12 302 33 343 27 35 -6 41 -4 61 23 18 26 28 30 67 30 37 0
64 10 133 49 47 26 123 60 169 75 78 26 82 29 82 57 0 23 14 42 66 92 l67 63
-212 157 c-185 137 -211 160 -212 184 0 15 -10 130 -22 255 l-23 228 24 47
c13 27 52 77 87 113 34 36 67 74 73 85 5 11 13 56 17 100 3 44 13 119 20 167
13 83 13 90 -9 161 -13 42 -48 115 -81 168 -90 145 -155 290 -155 347 0 26 -7
72 -15 102 -8 30 -15 85 -15 122 0 60 -4 73 -39 130 -29 47 -43 85 -55 151
-17 89 -17 89 8 185 24 95 32 189 28 323 l-2 67 -69 36 c-38 20 -71 36 -72 35
-2 0 -47 -9 -99 -19z"/>
</g>
</svg>
