<?xml version="1.0" standalone="no"?>
<!DOCTYPE svg PUBLIC "-//W3C//DTD SVG 20010904//EN"
 "http://www.w3.org/TR/2001/REC-SVG-20010904/DTD/svg10.dtd">
<svg version="1.0" xmlns="http://www.w3.org/2000/svg"
 width="1024.000000pt" height="1024.000000pt" viewBox="0 0 1024.000000 1024.000000"
 preserveAspectRatio="xMidYMid meet">
<metadata>
Created by potrace 1.10, written by Peter Selinger 2001-2011
</metadata>
<g transform="translate(0.000000,1024.000000) scale(0.100000,-0.100000)"
fill="#000000" stroke="none">
<path d="M2653 6338 c2 -7 12 -54 22 -104 18 -89 18 -93 1 -119 l-18 -28 -327
6 c-179 4 -536 10 -792 13 l-466 7 -41 -37 c-47 -43 -88 -47 -86 -8 1 39 -23
24 -39 -25 -15 -47 -15 -49 9 -92 23 -41 23 -46 8 -69 -14 -21 -20 -23 -60
-17 -64 9 -70 -15 -16 -66 23 -21 42 -45 42 -52 0 -30 -28 -40 -89 -33 -84 10
-87 -5 -12 -73 33 -32 61 -64 61 -73 0 -21 -24 -40 -74 -58 -37 -14 -41 -19
-44 -54 -2 -22 -14 -55 -28 -75 -13 -20 -24 -40 -24 -46 0 -5 23 -31 52 -56
49 -44 52 -48 40 -73 -15 -33 -42 -33 -72 -1 -13 14 -29 25 -36 25 -12 0 -44
-37 -44 -51 0 -3 22 -16 50 -29 28 -13 50 -27 50 -30 0 -15 -29 -31 -65 -37
-29 -5 -40 -13 -55 -44 -23 -45 -71 -66 -114 -49 -36 13 -42 13 -60 -6 -19
-18 -21 -65 -4 -82 7 -7 34 -12 60 -12 43 0 48 -2 48 -22 0 -35 -11 -45 -73
-72 -41 -19 -55 -30 -51 -41 4 -8 9 -15 13 -15 3 0 19 -10 35 -23 25 -20 27
-26 17 -45 -17 -32 -40 -27 -83 15 -31 31 -42 36 -56 27 -28 -18 -27 -78 2
-121 14 -21 26 -43 26 -50 0 -7 -17 -24 -38 -38 l-37 -26 -17 22 c-11 12 -18
38 -18 60 0 28 -4 39 -15 39 -8 0 -15 -7 -15 -15 0 -8 -16 -32 -35 -54 -38
-42 -44 -65 -19 -75 11 -4 14 -1 9 13 -3 11 3 28 14 42 l20 24 31 -31 c31 -31
32 -32 16 -62 -9 -17 -16 -44 -16 -60 0 -42 -21 -66 -54 -60 -21 4 -26 2 -24
-11 2 -11 16 -17 41 -19 27 -2 42 -10 54 -28 15 -24 15 -27 -7 -56 l-23 -31
27 -19 c30 -23 33 -48 8 -71 -22 -20 -45 -21 -74 -6 -28 15 -48 -10 -48 -60 0
-51 -9 -60 -66 -67 -47 -7 -74 -19 -74 -34 0 -10 2449 -21 2469 -11 9 6 815 4
1976 -5 1078 -7 2114 -13 2303 -14 l342 0 0 54 c0 88 20 257 35 292 12 29 58
64 84 64 5 0 13 -9 16 -20 12 -37 133 -22 181 22 15 14 23 36 28 76 12 116 18
137 50 171 43 46 156 131 174 131 8 0 35 12 59 26 55 32 195 44 267 24 46 -13
46 -12 88 24 67 58 176 126 201 126 24 0 56 28 76 68 8 15 21 22 40 22 18 0
37 10 54 30 37 42 126 67 179 51 49 -15 62 -6 94 63 12 27 28 53 36 57 10 6
10 15 -1 44 -11 32 -11 39 5 56 20 23 63 25 90 4 27 -21 30 -19 43 24 13 44
57 87 144 139 58 35 73 35 111 -4 14 -14 14 -18 1 -44 -8 -16 -15 -38 -15 -50
0 -16 6 -20 33 -20 55 0 120 54 180 150 34 53 110 100 161 100 23 0 51 7 62
15 29 22 44 19 101 -21 86 -59 118 -40 219 133 38 64 88 137 111 161 40 42 45
44 85 39 24 -2 51 -8 61 -12 17 -7 18 -4 12 39 -7 41 -4 52 16 79 19 26 24 48
29 123 4 71 9 97 24 113 l19 21 -154 0 c-88 0 -159 -4 -165 -10 -5 -5 -34 -13
-64 -17 -67 -8 -1399 -7 -1748 2 -228 6 -256 5 -272 -10 -17 -15 -62 -15 -652
-1 -348 9 -673 21 -723 27 -49 5 -382 16 -740 24 -357 8 -731 22 -830 30 -151
12 -327 14 -1092 8 l-913 -6 0 21 c0 21 -4 22 -121 22 -93 0 -120 -3 -116 -12z"/>
</g>
</svg>
