<?xml version="1.0" standalone="no"?>
<!DOCTYPE svg PUBLIC "-//W3C//DTD SVG 20010904//EN"
 "http://www.w3.org/TR/2001/REC-SVG-20010904/DTD/svg10.dtd">
<svg version="1.0" xmlns="http://www.w3.org/2000/svg"
 width="1024.000000pt" height="1024.000000pt" viewBox="0 0 1024.000000 1024.000000"
 preserveAspectRatio="xMidYMid meet">
<metadata>
Created by potrace 1.10, written by Peter Selinger 2001-2011
</metadata>
<g transform="translate(0.000000,1024.000000) scale(0.100000,-0.100000)"
fill="#000000" stroke="none">
<path d="M1030 9919 c-41 -5 -80 -11 -86 -13 -6 -2 -48 -71 -94 -152 -90 -162
-87 -145 -26 -189 13 -10 19 -27 20 -57 1 -37 -2 -43 -21 -46 -25 -4 -30 7
-12 25 18 18 1 50 -38 74 -37 23 -37 23 -63 -22 -5 -10 -29 -20 -55 -23 -40
-6 -44 -9 -35 -26 13 -24 13 -30 -1 -30 -11 0 -38 -29 -39 -41 0 -3 25 -14 56
-25 35 -12 63 -29 75 -45 23 -33 23 -41 3 -81 -12 -24 -13 -36 -5 -54 l11 -24
-94 0 c-86 0 -148 -11 -170 -31 -5 -4 1 -21 13 -38 33 -45 11 -41 -67 15 -2 1
2 11 9 22 22 35 -1 48 -95 55 -46 3 -97 2 -112 -2 l-29 -8 38 -12 c20 -7 37
-19 37 -27 0 -13 -107 -74 -130 -74 -13 0 -112 -61 -107 -67 2 -2 26 1 52 7
38 9 49 8 59 -4 6 -7 35 -20 65 -27 43 -11 58 -20 73 -45 19 -32 50 -43 123
-44 20 0 36 -9 49 -26 18 -26 18 -26 -13 -58 -17 -18 -31 -35 -31 -39 0 -11
169 -8 232 3 50 10 61 8 95 -10 21 -11 45 -20 55 -20 9 0 37 -23 61 -51 l45
-51 -17 -52 c-15 -45 -16 -60 -5 -121 21 -117 22 -115 -35 -115 -44 0 -49 -2
-55 -26 -5 -19 -2 -33 12 -48 30 -33 31 -49 6 -79 -28 -33 -32 -62 -8 -53 9 3
19 6 23 6 4 0 13 15 19 34 11 29 19 35 52 41 35 6 58 -1 99 -32 3 -2 -6 -11
-18 -20 -13 -8 -29 -31 -37 -49 -11 -26 -20 -34 -40 -34 -33 0 -64 -17 -64
-35 0 -10 -10 -15 -30 -15 -32 0 -36 -6 -20 -30 14 -22 -17 -50 -57 -50 -19 0
-52 -9 -75 -21 -33 -17 -46 -19 -65 -10 -38 17 -59 13 -71 -14 -7 -14 -23 -31
-37 -37 -14 -6 -24 -17 -21 -24 2 -6 10 -30 17 -53 7 -24 20 -43 31 -47 25 -7
59 -83 47 -104 -23 -41 -26 -43 -49 -30 -21 11 -22 11 -16 -13 5 -21 2 -26
-16 -29 -13 -2 -40 3 -61 11 -34 13 -40 13 -53 -1 -14 -14 -14 -18 2 -43 17
-26 17 -28 -5 -73 -13 -26 -41 -62 -62 -80 l-39 -33 25 -49 c23 -46 24 -49 8
-89 -16 -40 -15 -41 8 -60 23 -18 23 -21 10 -53 -31 -76 -19 -151 30 -186 23
-16 24 -35 4 -52 -8 -7 -15 -23 -15 -36 0 -21 5 -24 40 -24 38 0 40 -1 40 -32
0 -33 17 -66 74 -147 22 -32 28 -52 29 -93 0 -64 14 -82 78 -103 51 -17 89
-61 89 -104 0 -48 27 -88 81 -119 42 -24 63 -46 96 -99 41 -68 41 -68 22 -89
-15 -15 -18 -29 -13 -48 6 -24 10 -26 65 -26 33 0 75 -7 94 -14 42 -18 199
-46 258 -46 23 -1 53 -7 67 -15 14 -8 39 -14 56 -15 16 0 35 -5 42 -12 9 -9
15 -9 24 0 21 21 72 14 98 -13 18 -19 34 -25 64 -25 23 0 47 4 55 9 9 6 28 -1
60 -24 81 -57 177 -105 210 -105 24 0 39 -9 64 -37 55 -62 59 -70 47 -93 -10
-18 -7 -22 27 -36 69 -29 119 -89 159 -191 35 -89 40 -96 109 -154 l72 -60 7
-69 c7 -69 8 -71 46 -90 21 -11 40 -25 42 -31 3 -9 17 -7 51 6 44 16 47 20 47
53 0 19 10 51 22 71 13 20 21 44 20 54 -8 47 47 136 85 137 7 0 17 8 22 19 6
10 34 28 63 41 75 32 178 104 156 108 -10 2 -36 -7 -59 -20 -38 -21 -41 -21
-50 -5 -6 9 -19 17 -29 17 -11 0 -20 5 -20 11 0 21 41 79 56 79 22 0 57 -20
72 -42 20 -28 60 -24 68 7 3 14 4 34 1 45 -4 15 1 19 26 22 25 2 32 9 39 34 4
17 15 37 23 44 12 10 13 16 4 26 -9 11 -5 14 24 14 26 0 37 5 42 19 4 13 12
17 29 14 20 -4 25 0 28 18 2 19 8 23 28 21 69 -7 90 -14 90 -28 0 -12 5 -12
32 2 31 16 32 18 13 28 -11 6 -41 32 -66 58 -42 43 -50 47 -78 42 -21 -4 -37
-16 -46 -34 -10 -20 -24 -29 -51 -33 -48 -8 -67 6 -52 38 6 13 20 26 31 29 20
5 20 6 2 33 -10 15 -27 34 -37 41 -26 18 -25 72 1 72 26 0 33 13 25 45 -5 19
-21 33 -58 51 -28 13 -62 31 -76 39 -14 8 -50 15 -80 15 -55 0 -55 0 -88 51
-18 27 -30 54 -27 59 3 4 -7 13 -22 19 -25 10 -24 11 15 6 24 -3 70 -8 103
-12 l61 -6 -4 29 -3 29 -136 3 -136 3 -11 -26 c-6 -14 -19 -25 -28 -25 -34 0
16 -39 55 -43 20 -2 -5 -4 -55 -5 -88 -2 -91 -1 -102 23 -6 14 -19 25 -28 25
-20 0 -175 113 -192 139 -11 20 -4 29 12 14 16 -16 75 -30 85 -20 22 22 11 37
-25 37 -31 0 -37 4 -47 30 -6 17 -17 30 -24 30 -7 0 -16 12 -19 26 -5 19 -20
32 -51 46 -31 14 -49 29 -58 51 -16 37 -6 43 49 33 24 -5 36 -16 55 -52 32
-59 62 -74 154 -74 90 0 137 14 137 42 0 10 -5 16 -10 13 -6 -3 -19 -3 -31 0
-19 7 -20 8 -3 26 9 11 15 21 13 23 -16 13 -52 26 -77 26 -17 0 -37 9 -51 24
-18 19 -40 27 -103 36 -44 6 -95 10 -113 9 -47 -5 -65 15 -65 70 0 25 4 51 8
58 10 16 81 2 127 -25 20 -12 50 -22 66 -22 17 0 44 -7 60 -16 23 -12 34 -13
44 -4 39 32 150 33 140 1 -3 -10 6 -22 25 -33 19 -11 30 -25 30 -39 0 -14 5
-19 14 -16 8 3 30 9 48 12 30 6 39 1 103 -58 52 -48 84 -68 120 -79 47 -13 50
-16 53 -50 4 -42 5 -43 231 -197 l134 -91 83 0 c46 0 86 5 89 10 3 6 30 10 59
10 l54 0 7 -37 c8 -43 27 -84 48 -102 12 -9 13 -20 7 -42 -8 -27 -4 -37 35
-87 33 -42 45 -66 45 -91 0 -27 13 -47 74 -115 49 -53 87 -108 110 -155 33
-69 34 -75 21 -102 -8 -15 -37 -46 -63 -68 l-49 -41 9 -63 c17 -133 26 -151
85 -188 l54 -32 -6 -47 -6 -47 118 -103 c65 -57 125 -109 133 -116 13 -11 33
-9 114 12 l98 25 193 -76 c130 -50 207 -75 235 -75 37 0 280 -33 338 -45 15
-4 22 -13 22 -28 0 -13 14 -45 31 -70 26 -39 38 -48 70 -53 57 -9 56 -21 -2
-29 -49 -7 -50 -8 -47 -39 3 -30 5 -31 48 -31 25 0 68 3 97 7 51 7 52 6 55
-20 3 -25 7 -27 56 -30 41 -2 70 -13 138 -53 71 -41 94 -49 135 -49 39 0 70
-10 152 -51 56 -28 122 -68 147 -89 25 -20 79 -56 121 -79 73 -42 77 -46 93
-97 l17 -54 100 -51 c95 -47 109 -58 269 -220 165 -165 170 -171 176 -220 6
-41 12 -52 35 -64 15 -8 31 -20 34 -26 12 -18 35 -200 35 -272 l0 -69 33 2
c17 1 38 2 45 1 19 -2 14 -60 -9 -92 -24 -35 -20 -72 17 -135 l23 -42 -51 -6
c-37 -5 -62 -16 -94 -43 -41 -35 -43 -38 -27 -55 15 -17 15 -24 3 -71 -8 -29
-14 -86 -15 -127 -1 -93 -5 -101 -48 -89 -51 15 -168 13 -178 -3 -17 -27 -10
-64 15 -76 15 -7 25 -21 28 -41 4 -27 -1 -34 -34 -56 -37 -25 -38 -26 -38 -88
l0 -62 93 -62 c64 -43 107 -81 142 -126 27 -35 80 -88 117 -118 44 -36 68 -62
70 -78 2 -17 21 -37 60 -63 54 -37 60 -39 95 -29 65 19 121 14 134 -10 10 -20
16 -21 91 -15 79 7 80 6 226 -49 81 -31 177 -74 214 -95 47 -28 72 -38 86 -32
10 4 55 41 100 82 120 112 121 156 5 259 l-58 52 23 65 c22 63 22 67 6 85 -11
12 -30 19 -54 19 -27 0 -43 7 -64 29 -22 23 -40 30 -84 36 -73 9 -143 47 -198
108 -35 39 -44 57 -44 86 0 30 -9 47 -49 92 -44 50 -48 57 -35 74 19 26 18 29
-18 48 l-33 17 70 -6 c51 -4 112 -21 230 -66 148 -56 181 -75 204 -117 7 -12
12 -13 24 -3 11 10 26 10 65 0 43 -9 56 -18 77 -50 27 -41 23 -41 137 -23 25
4 31 -1 58 -55 16 -32 34 -80 40 -107 21 -96 62 -187 104 -233 82 -89 78 -77
56 -154 -11 -38 -35 -92 -54 -120 -19 -28 -39 -68 -46 -88 -11 -36 -10 -39 37
-102 44 -60 54 -68 122 -93 53 -20 90 -43 135 -84 33 -30 93 -74 131 -97 100
-60 150 -127 230 -311 36 -83 65 -158 65 -168 0 -10 -7 -42 -15 -72 -13 -52
-13 -56 7 -84 l21 -30 29 59 c37 79 36 119 -8 205 -26 53 -34 78 -29 100 9 41
-10 90 -50 129 -33 32 -35 38 -29 77 3 24 3 63 0 88 -6 40 -10 45 -33 45 -14
0 -41 11 -59 25 -39 30 -49 31 -67 5 -13 -19 -15 -18 -38 17 -16 26 -44 47
-86 68 -51 25 -62 34 -62 55 -1 21 13 33 94 80 75 42 105 66 138 110 23 30 59
74 80 97 35 38 41 41 63 31 18 -8 42 -8 93 1 l70 13 40 66 c59 99 73 145 65
219 -5 54 -3 66 15 92 17 23 20 35 12 49 -6 10 -17 38 -25 61 -12 37 -12 43 0
48 22 8 9 57 -33 127 -20 32 -41 77 -48 99 -10 33 -18 43 -42 49 -26 7 -31 14
-37 48 -6 36 -12 43 -51 62 -49 24 -52 29 -30 48 8 7 15 23 15 35 0 18 9 26
36 35 30 10 40 22 59 63 20 47 21 53 6 78 -15 27 -15 29 12 57 19 20 49 35 95
47 37 10 76 26 88 36 13 12 35 19 61 19 27 0 43 5 47 15 3 8 14 15 24 15 22 0
52 30 52 51 0 8 23 29 50 47 43 28 50 37 50 65 0 26 -6 36 -30 50 -22 13 -30
26 -30 46 0 18 -12 39 -39 65 -32 32 -47 38 -95 43 -52 5 -60 9 -79 40 -13 20
-43 45 -72 60 -81 41 -132 80 -155 118 -23 38 -52 44 -116 26 l-31 -9 -6 172
c-4 94 -7 367 -7 607 l0 436 140 28 c157 31 153 25 81 107 -37 41 -40 49 -31
73 9 23 7 28 -10 32 -11 3 -20 11 -20 17 0 22 32 106 40 106 4 0 12 13 18 28
9 26 13 28 48 24 26 -3 50 -15 74 -37 36 -34 65 -43 163 -52 56 -5 60 -7 90
-49 26 -37 35 -44 57 -40 20 5 29 -1 46 -28 19 -29 20 -36 8 -48 -13 -12 -12
-18 6 -41 18 -23 29 -27 72 -27 34 0 58 -6 70 -17 15 -13 23 -15 37 -6 11 7
23 7 33 2 13 -7 25 1 52 34 30 37 34 47 29 83 l-5 40 41 -4 c22 -2 45 -10 52
-18 6 -8 20 -14 31 -14 18 0 20 5 14 31 -3 17 -6 37 -6 44 0 7 -21 21 -47 30
-38 14 -57 30 -95 80 -43 58 -46 66 -38 96 5 18 9 33 7 34 -1 1 -22 15 -47 30
-25 15 -70 52 -101 82 l-56 55 -76 -30 c-70 -27 -84 -29 -162 -24 l-86 5 -27
45 c-14 25 -36 73 -47 106 -12 34 -26 60 -31 60 -5 -1 -28 -4 -51 -8 l-43 -6
-256 341 c-140 187 -253 343 -251 346 3 2 48 7 101 10 91 6 96 7 96 28 0 15
-13 31 -38 47 -33 22 -52 26 -152 31 -63 3 -125 8 -137 12 -16 5 -23 2 -28
-14 -5 -16 -15 -21 -40 -21 -31 0 -41 9 -121 113 -49 61 -199 252 -334 422
-136 171 -270 343 -299 383 -37 51 -59 72 -74 72 -16 0 -36 20 -72 72 -91 132
-290 472 -327 558 -42 98 -227 664 -258 790 -28 110 -77 228 -135 323 -37 62
-55 81 -100 106 -48 27 -105 41 -105 26 0 -3 11 -23 25 -45 14 -22 25 -49 25
-62 0 -12 7 -29 15 -38 12 -14 14 -26 7 -57 -5 -23 -5 -67 0 -103 6 -51 5 -73
-8 -107 l-17 -43 -61 0 c-37 0 -82 -8 -114 -20 -29 -11 -76 -20 -105 -20 -48
0 -57 -4 -87 -35 -23 -24 -43 -35 -63 -35 -20 0 -44 -13 -79 -45 -47 -42 -54
-45 -107 -45 -31 0 -78 -8 -104 -17 l-49 -18 -20 28 c-11 15 -51 45 -89 68
-44 25 -84 59 -110 92 -45 56 -68 65 -84 30 -6 -16 -18 -23 -36 -23 -14 0 -34
-9 -44 -20 -17 -19 -18 -19 -69 0 -28 11 -68 20 -88 20 -28 0 -38 5 -43 21 -7
20 -13 21 -103 17 -54 -2 -105 -8 -114 -12 -13 -6 -18 -4 -18 6 0 8 -20 34
-45 58 l-46 45 32 26 c31 25 32 27 25 83 -7 55 -8 57 -56 81 -33 17 -66 25
-99 25 -46 0 -52 3 -66 31 -10 18 -31 37 -53 46 -20 8 -54 31 -74 51 -35 33
-38 40 -38 92 0 47 -4 60 -25 80 l-24 23 -76 -57 c-76 -57 -77 -58 -128 -51
-46 7 -60 15 -132 82 -54 50 -108 88 -165 118 -47 23 -94 52 -104 64 -22 24
-45 25 -96 6 -34 -12 -38 -11 -138 42 l-103 54 -360 -206 c-210 -121 -367
-205 -377 -203 -10 3 -213 79 -452 169 -412 155 -447 170 -657 285 l-221 120
-79 -8 -78 -9 -165 62 c-111 41 -175 71 -195 90 -28 26 -37 29 -95 28 -36 -1
-99 -5 -140 -10z"/>
</g>
</svg>
