<?xml version="1.0" standalone="no"?>
<!DOCTYPE svg PUBLIC "-//W3C//DTD SVG 20010904//EN"
 "http://www.w3.org/TR/2001/REC-SVG-20010904/DTD/svg10.dtd">
<svg version="1.0" xmlns="http://www.w3.org/2000/svg"
 width="1024.000000pt" height="1024.000000pt" viewBox="0 0 1024.000000 1024.000000"
 preserveAspectRatio="xMidYMid meet">
<metadata>
Created by potrace 1.10, written by Peter Selinger 2001-2011
</metadata>
<g transform="translate(0.000000,1024.000000) scale(0.100000,-0.100000)"
fill="#000000" stroke="none">
<path d="M4276 8622 c-4 -28 -12 -42 -31 -50 -31 -14 -95 -15 -150 -2 -38 9
-42 7 -77 -27 -47 -45 -39 -69 26 -78 40 -6 46 -11 59 -44 8 -20 14 -37 13
-39 -2 -1 -22 5 -46 13 -57 20 -89 19 -173 -6 -40 -12 -73 -23 -74 -23 -1 -1
2 -19 8 -39 8 -30 6 -45 -16 -96 -14 -33 -25 -70 -25 -81 0 -11 -1 -20 -2 -20
-2 0 -70 -13 -153 -30 -82 -16 -161 -30 -174 -30 -32 0 -102 -59 -137 -113
-25 -41 -32 -45 -83 -53 -51 -8 -57 -12 -78 -49 -19 -33 -23 -55 -23 -130 0
-87 1 -92 35 -142 21 -32 35 -64 35 -83 0 -17 5 -51 11 -76 9 -33 17 -46 35
-50 l24 -6 -28 -27 c-15 -14 -35 -37 -45 -50 l-16 -24 -63 18 c-43 12 -118 20
-233 25 -105 5 -210 16 -275 29 -129 26 -224 27 -321 2 -143 -36 -141 -36
-185 7 -117 115 -158 173 -190 270 -26 78 -38 99 -70 125 -21 18 -46 39 -56
47 -12 10 -24 46 -34 100 l-17 85 -95 90 c-53 50 -132 112 -176 139 -89 54
-306 161 -348 171 -17 4 -65 -4 -135 -24 -89 -25 -127 -31 -210 -31 -96 0
-105 -2 -185 -38 -45 -21 -112 -44 -147 -51 -62 -12 -69 -17 -255 -173 -105
-89 -192 -164 -193 -167 -2 -3 12 -16 31 -29 28 -19 34 -31 39 -68 2 -25 -1
-65 -9 -89 l-13 -45 48 -52 c75 -84 109 -135 116 -181 4 -23 20 -90 36 -149
37 -138 37 -168 -1 -223 -25 -36 -33 -62 -41 -132 -10 -76 -15 -92 -49 -137
-25 -34 -45 -78 -60 -131 -20 -70 -21 -87 -11 -147 6 -37 11 -103 11 -147 0
-47 4 -83 11 -87 6 -3 29 -34 51 -68 l40 -61 -6 54 c-6 49 -6 53 11 45 10 -4
68 -10 128 -14 121 -6 275 -49 275 -75 0 -8 -9 -37 -20 -65 -26 -66 -26 -123
1 -159 20 -27 20 -30 4 -55 -15 -23 -24 -26 -76 -26 -57 0 -59 1 -59 26 0 14
5 34 11 45 24 45 0 36 -66 -24 -50 -45 -78 -81 -98 -123 l-27 -59 39 -100 40
-100 0 67 1 67 33 -10 c17 -5 54 -14 81 -19 118 -24 121 -25 149 -88 14 -31
28 -68 32 -82 6 -22 36 -77 64 -120 6 -9 33 -17 68 -20 53 -5 58 -7 61 -30 2
-14 21 -41 44 -61 l40 -37 -27 -83 c-20 -60 -41 -99 -71 -134 -37 -44 -43 -59
-52 -120 -5 -39 -6 -95 -1 -125 14 -98 9 -185 -16 -310 -31 -153 -33 -284 -5
-445 11 -64 20 -141 20 -170 0 -43 4 -55 18 -58 79 -22 141 -31 223 -31 95 -1
98 0 180 42 48 25 104 46 130 49 87 10 129 78 129 209 0 43 1 45 44 64 31 13
50 30 67 59 18 32 36 47 86 70 35 17 90 51 123 76 l60 46 143 18 c123 15 147
16 182 4 22 -8 85 -18 140 -23 229 -21 299 -7 319 65 9 31 22 47 61 72 35 23
56 31 70 26 11 -4 63 -7 115 -8 82 -1 102 -5 146 -27 27 -15 67 -30 88 -33 32
-7 42 -3 76 24 23 18 50 31 67 31 26 0 33 -8 71 -85 23 -47 42 -97 42 -110 0
-69 71 -109 274 -155 72 -16 176 -46 231 -68 l99 -39 12 -48 c14 -55 17 -58
63 -74 58 -19 117 -14 163 15 l42 27 54 -17 c45 -15 61 -16 100 -6 45 12 49
11 102 -20 30 -18 78 -41 107 -51 29 -9 69 -29 90 -43 27 -19 51 -26 85 -26
l48 0 0 -62 c0 -54 7 -76 43 -148 37 -75 48 -88 87 -107 25 -13 53 -32 62 -44
15 -18 27 -20 98 -18 l80 2 23 -34 c17 -26 33 -35 67 -42 59 -12 77 -29 112
-107 45 -100 87 -159 123 -174 19 -8 37 -26 44 -44 7 -16 22 -33 34 -36 12 -3
142 -6 289 -6 l267 0 15 -52 c8 -29 17 -93 21 -143 3 -49 12 -121 20 -160 13
-64 12 -79 -8 -184 -22 -113 -22 -114 -2 -127 59 -39 58 -37 61 -129 2 -48 6
-100 9 -116 6 -26 10 -29 49 -29 40 0 46 -4 96 -62 68 -82 104 -106 179 -124
57 -13 69 -12 134 4 99 25 158 14 188 -34 11 -19 35 -42 52 -50 53 -27 76 -54
92 -110 9 -30 19 -54 24 -54 5 0 45 36 89 81 l81 80 50 -25 c31 -16 67 -26 95
-26 41 0 49 5 132 82 49 46 110 94 137 108 44 24 47 27 47 66 0 23 3 62 6 87
6 43 8 46 51 58 l44 12 -50 51 c-31 31 -53 64 -57 84 l-6 32 45 -6 c38 -6 61
-1 139 31 51 20 116 50 144 66 28 16 64 29 80 29 16 0 54 10 84 22 31 12 88
24 130 28 81 5 79 4 67 70 -5 22 1 28 56 53 34 15 74 27 90 27 17 0 27 5 27
15 0 8 19 23 43 33 32 14 56 37 89 83 95 135 98 143 98 266 l0 111 50 112 c39
88 50 123 50 165 0 29 3 73 6 99 7 46 7 46 93 92 81 44 90 47 154 45 37 -1 91
4 120 13 28 8 82 20 118 26 l67 12 21 71 c12 40 21 83 21 95 0 30 46 95 81
116 25 15 28 15 42 -7 9 -14 37 -30 73 -41 33 -10 82 -31 111 -47 59 -33 177
-61 243 -59 71 2 103 26 113 85 6 33 4 63 -3 88 -8 29 -8 51 0 90 8 34 9 64 3
87 -12 46 3 118 31 150 49 55 49 56 27 97 -22 45 -55 63 -111 63 -28 0 -67 14
-132 49 -51 27 -107 52 -124 56 -17 3 -42 17 -55 31 -28 30 -76 44 -151 44
-50 0 -59 -3 -81 -30 -14 -16 -32 -30 -39 -30 -52 0 -235 97 -453 239 -71 46
-182 109 -245 139 -112 54 -186 105 -322 225 l-66 59 -56 -18 -55 -17 -181
109 c-173 104 -183 113 -246 192 -60 75 -75 87 -153 127 -47 24 -102 60 -121
80 -38 41 -328 235 -462 310 -77 43 -87 52 -111 101 -18 37 -27 71 -27 104 0
37 -7 60 -30 97 -17 27 -33 67 -36 89 -3 21 -15 60 -26 86 -18 40 -27 49 -72
66 -46 17 -51 22 -54 52 -2 19 -16 52 -31 74 -60 88 -101 183 -102 238 0 29
-8 75 -17 101 -38 107 -203 257 -283 257 -20 0 -56 7 -79 15 -23 8 -44 15 -45
15 -2 0 -6 -20 -9 -44 -10 -61 -42 -83 -100 -66 -23 6 -58 22 -78 36 -45 29
-50 29 -73 4 -17 -18 -19 -18 -49 -3 -52 28 -133 33 -195 12 -104 -36 -190 -5
-359 129 -37 30 -41 37 -36 65 4 18 15 51 26 75 l20 43 -31 70 c-35 79 -37 91
-16 109 13 11 23 9 56 -9 22 -13 43 -21 45 -18 3 3 2 21 -1 40 -6 29 -19 44
-83 90 -43 30 -95 60 -116 67 l-40 13 22 18 c12 9 27 19 32 21 6 2 5 17 -2 41
-10 33 -9 43 6 71 16 30 16 36 3 62 -27 53 -90 91 -184 114 -48 11 -58 10
-108 -11 l-55 -23 -87 30 -88 29 -3 41 c-2 33 -11 49 -46 83 -38 37 -47 41
-64 32 -11 -6 -40 -11 -64 -11 -42 0 -47 4 -163 120 -66 66 -123 120 -126 120
-4 0 -9 -17 -13 -38z"/>
</g>
</svg>
