<?xml version="1.0" standalone="no"?>
<!DOCTYPE svg PUBLIC "-//W3C//DTD SVG 20010904//EN"
 "http://www.w3.org/TR/2001/REC-SVG-20010904/DTD/svg10.dtd">
<svg version="1.0" xmlns="http://www.w3.org/2000/svg"
 width="1024.000000pt" height="1024.000000pt" viewBox="0 0 1024.000000 1024.000000"
 preserveAspectRatio="xMidYMid meet">
<metadata>
Created by potrace 1.10, written by Peter Selinger 2001-2011
</metadata>
<g transform="translate(0.000000,1024.000000) scale(0.100000,-0.100000)"
fill="#000000" stroke="none">
<path d="M4376 10208 c-22 -29 -23 -34 -11 -58 12 -22 11 -29 -5 -50 -18 -23
-17 -24 22 -79 53 -73 53 -73 158 -110 86 -31 90 -34 90 -63 0 -22 -4 -29 -15
-25 -54 22 -248 76 -286 81 -41 6 -130 -14 -225 -51 -8 -3 -14 6 -16 24 -3 28
-4 28 -63 25 -56 -3 -62 -2 -74 22 -13 23 -18 25 -85 23 -39 0 -80 2 -92 7
-19 7 -21 2 -32 -70 -7 -43 -18 -82 -25 -86 -19 -12 -37 -9 -37 5 0 7 -6 21
-13 31 -12 16 -16 15 -57 -18 -60 -47 -80 -37 -80 40 0 31 -4 54 -9 52 -5 -1
-33 -34 -63 -73 l-54 -70 -71 -3 c-47 -2 -94 4 -142 17 -67 19 -79 27 -162
106 -70 66 -96 85 -118 85 -30 0 -41 -18 -41 -72 0 -38 -13 -42 -67 -18 -41
19 -59 21 -125 15 l-78 -6 0 35 c0 25 -7 40 -26 55 -24 19 -28 19 -61 6 -47
-20 -66 -19 -88 5 -17 19 -19 19 -37 4 -13 -13 -18 -31 -18 -73 0 -50 -4 -61
-37 -103 -30 -36 -43 -45 -60 -41 -12 3 -64 6 -115 6 -128 2 -323 -46 -402
-99 -49 -32 -58 -35 -88 -26 -18 6 -104 12 -190 15 l-157 5 -118 -75 c-65 -42
-140 -97 -168 -124 l-50 -48 -113 58 -112 58 -43 -20 c-23 -11 -62 -23 -87
-27 -43 -8 -47 -6 -109 41 -62 48 -65 49 -133 49 -57 0 -79 -5 -129 -30 -41
-21 -71 -30 -96 -28 -34 3 -38 0 -86 -68 -49 -70 -49 -72 -37 -110 7 -22 25
-52 41 -69 l28 -30 -14 -65 c-8 -36 -11 -68 -7 -71 4 -3 27 -14 52 -24 25 -10
88 -43 141 -72 76 -42 105 -53 141 -53 43 0 51 -5 194 -126 82 -70 150 -127
151 -128 2 -1 -2 -18 -7 -36 -8 -29 -7 -37 12 -57 l21 -22 -26 -60 c-21 -49
-24 -66 -16 -93 5 -18 9 -53 9 -78 0 -42 4 -50 54 -99 48 -47 63 -74 122 -207
l67 -153 -28 -68 -27 -68 26 -20 c22 -18 25 -26 20 -60 -3 -22 -23 -74 -44
-115 -21 -41 -63 -132 -93 -202 -66 -154 -125 -232 -167 -223 -25 6 -28 3 -34
-32 -3 -21 -6 -52 -6 -70 0 -39 -17 -52 -29 -21 -8 21 -10 19 -37 -30 -27 -49
-33 -54 -87 -70 -49 -14 -64 -24 -92 -62 -21 -28 -34 -60 -36 -84 l-4 -40 46
-10 c58 -14 110 -59 143 -125 27 -53 35 -134 15 -147 -19 -12 -46 -88 -52
-152 -7 -62 -6 -65 52 -180 32 -64 56 -123 54 -130 -3 -7 2 -24 11 -37 13 -20
25 -25 60 -25 29 0 52 -7 70 -21 24 -19 26 -26 26 -94 l0 -73 -36 10 c-43 12
-48 8 -39 -30 4 -22 21 -40 60 -66 53 -35 105 -110 105 -151 0 -19 -30 -32
-91 -40 -70 -9 -102 -47 -107 -128 l-4 -63 68 -27 c38 -16 100 -47 138 -69 63
-37 73 -40 118 -35 45 6 59 2 141 -40 51 -25 119 -65 152 -88 33 -23 90 -59
126 -79 l66 -36 142 0 143 0 70 42 70 42 88 -13 c49 -7 119 -20 157 -28 37 -9
87 -17 109 -17 26 -1 50 -8 63 -20 22 -20 22 -20 69 26 l47 46 125 5 c114 6
128 5 155 -13 19 -12 47 -20 75 -20 41 0 52 -6 120 -65 l75 -65 80 -1 80 0 85
-63 c69 -50 96 -79 145 -151 52 -76 66 -91 105 -105 55 -21 96 -76 106 -140 4
-30 17 -57 40 -82 41 -46 48 -61 64 -126 9 -41 16 -52 29 -48 9 2 26 7 39 11
19 5 23 2 28 -22 8 -40 174 -156 210 -147 21 5 24 3 24 -19 0 -13 3 -39 6 -56
6 -27 10 -31 40 -31 31 0 34 -3 34 -30 0 -24 7 -35 35 -51 26 -16 36 -29 41
-57 11 -66 14 -72 37 -68 12 2 101 18 197 36 96 17 195 36 220 41 43 10 45 9
75 -26 l30 -35 83 10 83 9 72 64 c40 35 104 89 144 121 l72 57 72 -7 c71 -7
72 -7 103 -52 17 -25 78 -108 135 -184 l103 -139 -12 -92 c-11 -81 -11 -108 5
-215 10 -67 21 -122 24 -122 3 0 22 -4 43 -9 l36 -8 47 68 c27 40 54 69 64 68
9 0 48 -12 86 -27 l70 -27 42 -80 c23 -44 50 -85 60 -92 30 -20 262 -103 288
-103 17 0 35 -17 70 -66 l47 -66 57 7 c31 3 63 8 71 11 8 3 44 42 80 88 l65
84 105 35 c58 19 139 45 180 57 67 21 82 30 135 86 l61 64 52 -36 c40 -26 73
-39 134 -49 44 -8 82 -16 83 -17 1 -2 29 -39 62 -83 l60 -81 5 -99 c3 -74 10
-114 27 -155 l22 -55 -50 -92 c-28 -50 -63 -123 -77 -162 l-26 -71 32 -49 c17
-28 39 -52 48 -55 9 -2 53 -12 97 -22 72 -15 101 -30 293 -148 l214 -131 -6
-35 c-4 -19 -9 -122 -12 -227 l-6 -193 30 -17 30 -17 -22 -44 -21 -44 38 -30
37 -30 0 -90 c0 -49 4 -97 9 -106 5 -10 41 -33 80 -51 69 -34 70 -35 81 -83 5
-27 10 -55 10 -62 0 -7 16 -35 35 -62 30 -42 35 -57 35 -104 0 -42 17 -107 71
-269 l72 -215 -18 -93 c-9 -51 -15 -100 -11 -108 4 -11 23 -15 78 -15 92 0
133 12 172 49 17 16 42 32 56 36 14 4 61 34 104 66 66 49 87 59 120 59 30 0
56 10 104 42 l64 42 115 -58 c108 -53 117 -56 148 -45 28 11 37 10 60 -5 23
-15 40 -17 120 -11 l92 7 7 -26 c3 -14 10 -26 15 -26 19 0 44 43 48 84 5 40 1
54 -37 117 -23 40 -48 93 -55 120 -12 45 -12 49 11 70 26 24 30 49 13 80 -8
16 -1 47 35 150 25 72 46 132 46 134 0 2 -14 6 -30 10 -18 4 -36 17 -44 33
-13 24 -12 30 6 55 l21 29 -42 42 c-32 33 -41 49 -41 77 0 26 -8 43 -30 64
-26 24 -29 34 -24 62 6 32 5 33 -23 27 -20 -4 -33 -1 -42 10 -8 10 -29 16 -52
16 -43 0 -43 0 -54 106 -5 51 -3 63 10 68 29 11 49 6 95 -23 l45 -29 50 54
c28 29 62 56 76 59 l26 7 9 -94 9 -94 85 94 c47 53 92 98 100 102 8 4 38 18
65 31 l50 24 -45 3 c-75 4 -87 10 -114 56 -22 37 -32 45 -66 51 -39 7 -42 10
-81 86 l-40 80 27 34 26 35 -62 70 c-34 38 -64 70 -67 70 -2 0 -20 -11 -40
-24 -41 -28 -29 -34 -151 64 l-81 65 -47 118 c-45 116 -46 119 -30 150 8 18
20 51 26 75 9 36 14 42 33 38 12 -3 59 -8 103 -11 l82 -6 22 54 c19 46 28 56
52 59 20 3 32 0 38 -12 8 -15 127 -56 137 -46 2 2 -25 37 -61 77 -51 58 -66
81 -66 105 0 26 6 34 32 45 18 7 49 28 68 45 22 20 51 34 78 39 23 4 42 8 42
10 0 1 -7 18 -15 38 -12 29 -31 44 -109 86 -77 42 -104 51 -144 51 -36 0 -54
-5 -67 -20 -12 -13 -25 -17 -45 -14 -15 4 -37 1 -48 -5 -17 -9 -20 -7 -26 27
-3 20 -6 54 -6 74 0 24 -8 46 -23 64 l-24 27 -31 -23 c-27 -20 -35 -22 -57
-12 -14 6 -37 30 -52 52 -27 38 -30 40 -68 34 -22 -4 -120 -46 -217 -95 -148
-74 -186 -89 -225 -89 -27 -1 -59 -7 -73 -15 -14 -8 -28 -14 -31 -15 -4 0 -10
33 -13 73 -15 154 -8 141 -120 229 -99 78 -101 79 -146 73 -43 -5 -46 -4 -68
30 -18 29 -20 39 -11 56 6 12 7 24 2 28 -4 4 -27 22 -51 41 -45 34 -120 137
-165 226 l-26 51 -184 76 c-101 42 -216 84 -255 94 -80 19 -74 9 -87 138 -4
40 -18 82 -42 128 -32 63 -34 70 -19 86 10 11 16 36 16 69 l0 52 -77 50 c-77
49 -79 50 -159 50 -64 0 -106 8 -197 35 -63 19 -133 35 -154 35 -32 0 -46 7
-76 38 l-37 38 22 51 21 51 111 21 c218 40 489 32 523 -15 7 -11 34 -40 60
-67 l48 -47 20 41 c18 36 28 44 90 68 l70 26 3 65 c3 56 8 71 38 109 40 52 40
56 14 96 -11 17 -20 35 -20 41 0 14 80 57 148 79 28 9 52 17 52 18 0 1 -6 25
-14 54 -14 51 -14 52 14 78 24 23 29 38 39 126 17 155 20 147 -58 207 -87 67
-107 116 -32 77 28 -14 29 -14 35 17 13 65 8 77 -33 94 -27 11 -43 25 -52 47
-7 18 -14 33 -15 35 -1 2 -13 -3 -26 -11 -12 -9 -39 -18 -58 -22 -32 -6 -42
-2 -91 39 -31 25 -65 46 -75 46 -25 0 -185 67 -391 164 -157 73 -166 76 -237
76 l-74 0 -119 125 c-101 108 -123 137 -155 208 -51 114 -50 113 -105 121 -26
3 -81 18 -121 32 -60 22 -80 35 -114 76 l-41 49 13 53 c7 30 10 69 6 88 -5 27
0 45 20 82 l27 48 -59 60 c-57 57 -61 59 -101 55 -56 -6 -93 29 -93 89 0 26
-9 53 -29 83 -44 66 -36 99 51 187 63 64 72 78 82 129 11 55 13 58 56 74 25
10 144 90 265 180 l220 162 37 100 37 100 -17 47 c-16 42 -21 47 -45 44 -19
-2 -27 2 -27 12 0 10 -13 17 -35 21 -19 3 -51 7 -70 11 -28 4 -39 12 -52 40
-14 29 -22 34 -50 34 -30 0 -33 3 -33 29 0 20 -10 38 -34 59 -24 20 -37 43
-42 69 -12 68 -53 93 -89 53 -24 -27 -30 -26 -55 15 l-22 35 31 56 32 55 -56
24 c-69 31 -75 31 -75 1 0 -24 -16 -36 -49 -36 -10 0 -30 -9 -43 -20 -22 -17
-35 -19 -92 -13 l-66 6 -37 61 c-20 34 -37 62 -38 64 -1 1 -27 -7 -59 -19 -36
-14 -56 -28 -56 -38 -1 -37 -15 -44 -67 -32 -39 10 -53 19 -68 44 -10 18 -34
49 -53 70 -32 33 -42 37 -83 37 l-48 0 -6 58 c-3 31 -8 74 -11 95 l-6 38 -61
-3 c-51 -2 -62 -6 -65 -21 -2 -10 4 -27 13 -37 19 -20 16 -52 -7 -83 -10 -14
-34 -20 -92 -26 l-78 -7 6 90 c9 114 22 134 102 159 48 14 70 16 119 8 55 -9
67 -7 143 22 l82 30 0 90 0 90 -31 -7 c-22 -4 -39 0 -58 13 -15 11 -40 21 -56
23 -26 3 -30 8 -33 37 -4 35 -7 39 -74 87 l-36 26 -62 -45 -61 -45 -102 5
c-56 3 -102 6 -103 7 -1 0 -4 15 -7 32 -6 30 -2 35 52 73 48 33 60 47 66 77 6
35 3 40 -45 89 -49 50 -51 54 -48 101 l3 49 -42 3 c-37 3 -50 -3 -112 -49 -43
-32 -74 -64 -80 -81 -8 -23 -15 -28 -33 -23 -88 21 -123 23 -137 10 -12 -12
-20 -9 -51 19 -26 24 -53 36 -96 45 -55 10 -62 15 -83 51 -12 22 -24 40 -26
40 -2 0 -15 -14 -29 -32z"/>
<path d="M6563 7604 c-31 -24 -33 -29 -33 -87 0 -53 3 -64 21 -75 19 -12 21
-20 16 -62 -5 -43 -3 -49 18 -60 22 -12 29 -9 80 31 31 24 63 49 71 55 9 7 14
31 14 68 0 47 -5 64 -27 93 -27 36 -76 63 -110 63 -10 0 -33 -12 -50 -26z"/>
</g>
</svg>
