<?xml version="1.0" standalone="no"?>
<!DOCTYPE svg PUBLIC "-//W3C//DTD SVG 20010904//EN"
 "http://www.w3.org/TR/2001/REC-SVG-20010904/DTD/svg10.dtd">
<svg version="1.0" xmlns="http://www.w3.org/2000/svg"
 width="1024.000000pt" height="1024.000000pt" viewBox="0 0 1024.000000 1024.000000"
 preserveAspectRatio="xMidYMid meet">
<metadata>
Created by potrace 1.10, written by Peter Selinger 2001-2011
</metadata>
<g transform="translate(0.000000,1024.000000) scale(0.100000,-0.100000)"
fill="#000000" stroke="none">
<path d="M4160 8594 c-8 -2 -32 -5 -52 -9 -36 -6 -38 -8 -39 -43 -1 -20 -4
-47 -7 -60 -11 -37 -148 -139 -262 -194 -57 -27 -138 -74 -180 -103 -61 -43
-88 -55 -145 -65 -96 -18 -255 -73 -300 -103 l-38 -26 -81 66 c-74 60 -199
133 -228 133 -6 0 -41 -19 -77 -42 -36 -23 -67 -42 -68 -42 0 -1 -8 -53 -17
-116 -22 -157 -21 -153 -57 -174 l-32 -19 6 -67 c4 -48 15 -86 36 -129 17 -33
31 -65 31 -71 0 -5 -25 -26 -55 -46 -30 -20 -55 -42 -55 -48 0 -6 7 -33 15
-60 l15 -48 -34 -34 c-39 -39 -59 -41 -149 -18 -121 31 -396 10 -599 -47 -87
-24 -110 -42 -97 -76 7 -20 16 -23 59 -23 33 0 67 8 98 24 89 44 144 57 233
54 56 -2 84 -7 84 -15 0 -6 -30 -34 -66 -61 -109 -83 -119 -99 -119 -195 0
-58 -6 -94 -19 -122 -19 -43 -86 -108 -103 -103 -6 2 -17 26 -23 52 -11 43
-27 65 -47 66 -11 0 -48 -67 -48 -88 0 -15 -12 -27 -43 -40 -23 -11 -49 -28
-58 -38 -16 -20 -107 -244 -131 -323 -11 -38 -19 -46 -58 -62 -56 -22 -125
-24 -181 -3 -24 9 -83 17 -131 19 -48 2 -97 9 -109 16 -13 7 -98 16 -198 21
-148 7 -185 12 -245 34 -60 22 -81 25 -136 19 -56 -6 -78 -15 -163 -67 -54
-34 -113 -80 -132 -103 -30 -38 -36 -55 -51 -148 -16 -103 -17 -105 -55 -133
-42 -31 -55 -60 -45 -96 10 -38 36 -61 131 -117 50 -30 122 -77 162 -105 66
-46 74 -57 94 -111 30 -81 86 -139 176 -181 60 -28 83 -34 141 -34 38 0 87 6
109 14 l40 14 61 -55 c35 -31 62 -63 62 -74 0 -10 -16 -34 -36 -52 l-36 -33
18 -37 c14 -29 16 -44 8 -74 -8 -32 -3 -63 32 -201 23 -89 48 -194 55 -232 10
-60 19 -77 61 -127 49 -58 177 -149 291 -207 77 -39 84 -48 64 -94 -9 -20 -24
-68 -33 -107 -13 -54 -27 -82 -60 -120 -51 -61 -93 -194 -76 -243 l10 -29 -80
-6 c-112 -9 -150 -35 -232 -157 -35 -52 -71 -108 -79 -125 -16 -31 -128 -149
-251 -265 -104 -98 -126 -153 -137 -343 -10 -163 -4 -190 46 -223 21 -14 25
-24 25 -65 0 -67 22 -117 57 -130 70 -26 115 -54 181 -114 40 -36 91 -74 113
-86 l41 -20 36 24 c69 46 147 85 192 97 25 6 59 24 75 39 53 49 117 78 230
105 61 15 130 33 155 41 25 7 61 18 80 22 28 7 36 14 40 38 4 21 13 32 34 40
25 8 31 6 50 -18 l23 -28 35 39 c20 22 39 50 43 62 5 17 12 20 28 16 62 -18
77 -18 82 -2 3 9 7 24 10 33 4 12 8 14 17 5 20 -20 58 -15 58 7 0 26 25 44 50
36 12 -4 36 -19 53 -34 52 -46 226 -162 259 -173 37 -13 130 5 170 33 14 11
33 38 41 62 14 41 13 44 -10 72 -39 48 -73 122 -73 158 0 23 17 60 56 123 68
108 88 130 136 155 21 11 45 33 53 49 12 24 20 29 38 25 61 -16 328 9 375 34
11 6 38 11 59 11 31 0 41 -5 54 -29 11 -18 43 -41 93 -66 43 -21 85 -49 93
-62 24 -36 69 -32 87 10 19 41 32 56 79 91 29 22 41 41 53 85 9 31 27 72 40
91 38 55 26 133 -26 180 -34 30 -49 87 -50 183 l0 67 29 0 c15 0 40 9 54 20
14 12 43 27 64 34 42 14 63 47 84 130 10 39 18 51 43 61 52 22 87 56 112 109
13 28 24 66 24 84 0 20 10 46 24 65 14 18 35 68 47 112 40 139 92 186 235 212
49 9 103 16 119 17 17 1 39 7 50 13 15 9 25 8 45 -3 14 -8 37 -18 53 -24 15
-5 27 -15 27 -22 0 -20 56 -68 79 -68 14 0 21 -6 21 -20 0 -10 9 -24 20 -30
11 -6 20 -17 20 -25 0 -20 45 -41 118 -53 72 -13 142 -59 142 -95 0 -12 11
-30 25 -42 23 -19 24 -22 13 -68 -7 -28 -19 -52 -30 -58 -13 -7 -18 -22 -18
-57 0 -27 -5 -53 -10 -58 -15 -15 -28 -109 -18 -127 4 -9 2 -29 -7 -51 -8 -19
-15 -53 -15 -75 0 -35 4 -43 30 -56 16 -8 35 -15 43 -15 8 0 18 -9 23 -20 9
-19 10 -19 53 9 27 18 63 31 97 36 43 5 57 12 74 35 18 26 23 27 50 17 33 -12
35 -21 19 -64 -14 -38 -31 -162 -34 -253 -2 -81 -19 -202 -30 -220 -4 -6 -1
-42 6 -79 9 -56 9 -78 -1 -118 -7 -26 -14 -91 -15 -143 -1 -67 -10 -123 -28
-190 -30 -108 -33 -174 -12 -275 8 -38 15 -83 15 -99 0 -16 12 -44 30 -66 25
-32 28 -42 21 -67 -7 -25 -4 -39 17 -74 14 -24 28 -60 31 -79 5 -27 12 -36 29
-38 14 -2 28 -15 34 -30 7 -15 22 -38 34 -52 13 -14 37 -59 54 -99 16 -41 35
-80 41 -88 6 -7 32 -13 58 -14 25 -1 57 -4 71 -8 28 -8 140 32 152 54 4 7 20
18 35 24 16 7 41 33 57 58 23 36 42 51 92 73 34 16 81 47 103 69 22 22 53 43
68 47 16 4 36 15 45 25 9 9 31 20 48 24 22 5 41 22 71 66 28 41 46 59 61 59
21 0 41 11 148 83 l45 30 83 -12 c71 -10 88 -10 114 3 17 9 52 19 79 22 62 8
124 53 133 94 3 17 9 43 12 60 4 18 30 51 70 90 35 33 64 66 64 74 0 8 16 20
35 27 29 11 35 18 35 41 0 15 4 28 10 28 5 0 16 15 24 34 13 31 18 34 72 40
33 4 79 8 104 10 25 1 57 10 73 20 23 15 27 25 27 63 0 35 6 49 26 68 15 14
31 25 36 25 6 0 21 9 34 19 21 17 36 19 92 14 55 -4 70 -2 81 11 7 9 20 16 29
16 16 0 55 11 127 36 26 9 42 11 49 4 6 -6 25 -10 44 -10 22 0 47 -10 71 -29
52 -41 74 -45 118 -22 33 16 43 17 68 7 25 -11 34 -25 51 -78 l21 -66 -33 -16
c-19 -8 -40 -13 -49 -10 -10 4 -18 -3 -25 -21 -14 -37 -13 -43 9 -50 11 -3 24
-19 30 -36 10 -30 11 -30 68 -23 64 7 59 5 162 88 l72 59 21 -20 20 -21 29 32
c20 24 43 36 82 45 122 27 127 30 147 74 16 39 23 44 96 71 76 28 79 28 128
13 37 -11 69 -13 116 -7 60 6 67 5 85 -16 11 -12 34 -29 51 -37 29 -15 32 -14
59 7 16 13 37 21 46 19 10 -3 34 0 54 7 33 11 45 9 112 -16 74 -28 76 -30 105
-89 17 -33 31 -61 33 -63 1 -1 36 17 76 41 41 24 96 52 123 63 62 24 77 53 52
97 -17 31 -17 32 3 48 14 12 21 29 21 52 0 57 -36 90 -145 133 -92 36 -96 39
-123 89 -47 87 -55 112 -48 157 6 38 15 49 66 88 72 55 77 79 21 105 -22 9
-52 30 -67 46 l-28 29 31 38 c63 78 51 152 -42 266 -41 50 -53 76 -78 160 -56
200 -59 227 -31 343 31 132 30 152 -6 211 -66 107 -146 149 -387 203 -100 22
-104 22 -142 4 -40 -18 -40 -18 -105 10 -36 15 -74 25 -85 22 -11 -2 -29 2
-41 10 -24 17 -114 14 -182 -7 -35 -10 -38 -14 -38 -48 -1 -20 -7 -48 -14 -62
-12 -21 -12 -29 4 -61 l19 -36 -56 -13 c-80 -17 -153 -6 -200 31 -27 22 -46
29 -66 26 -23 -3 -33 3 -53 28 -13 18 -24 45 -24 61 0 23 -13 43 -55 84 -44
44 -55 61 -55 87 0 18 -9 47 -19 64 -11 18 -25 63 -32 100 -11 60 -10 72 7
113 18 43 22 46 73 58 66 14 81 39 57 87 -11 21 -35 41 -71 58 -48 24 -57 33
-81 87 -16 34 -38 95 -50 136 -20 68 -24 75 -50 80 -28 5 -29 7 -37 90 -10
107 -5 126 39 152 l35 20 -24 32 c-27 34 -54 43 -134 45 -56 1 -110 -23 -254
-115 l-67 -42 -213 -26 c-118 -14 -337 -35 -487 -46 -257 -19 -280 -22 -395
-57 -147 -45 -180 -68 -249 -175 -81 -127 -104 -127 -291 6 -72 50 -135 90
-140 88 -6 -2 -36 -15 -66 -29 -54 -26 -57 -26 -112 -12 -53 14 -59 14 -83 -4
-38 -28 -66 -15 -66 31 0 20 -7 71 -17 113 -15 73 -18 78 -52 93 -21 10 -59
15 -92 14 -76 -2 -137 35 -179 109 -70 124 -132 132 -327 46 -71 -32 -148 -73
-172 -92 -23 -19 -106 -63 -184 -99 -78 -35 -154 -73 -168 -83 -62 -44 -134
-10 -164 76 -18 53 -18 58 -2 88 9 18 19 49 23 70 6 34 3 42 -27 73 -31 32
-37 34 -100 34 -36 0 -85 -7 -108 -15 -35 -12 -55 -13 -114 -3 -71 11 -72 10
-125 -21 -29 -17 -55 -31 -58 -31 -3 0 -32 16 -64 36 l-58 36 -44 -25 c-43
-25 -45 -26 -353 -31 -170 -4 -356 -9 -412 -12 l-102 -5 -20 40 c-17 32 -21
59 -21 136 0 92 -2 99 -45 192 -25 53 -45 102 -45 110 0 8 14 46 30 85 18 42
30 88 30 114 0 33 5 46 20 54 27 15 31 11 65 -59 16 -34 33 -61 39 -61 6 0 35
11 64 25 l52 24 0 70 c0 60 3 72 20 81 13 7 20 21 20 39 0 25 3 28 21 24 12
-4 32 3 51 17 27 20 36 21 59 13 25 -10 36 -6 99 34 l71 46 95 -7 c97 -7 304
-61 465 -122 l76 -28 111 33 111 34 103 -14 c82 -12 103 -18 102 -30 -1 -9 -4
-36 -8 -61 -7 -44 -6 -46 24 -58 30 -12 33 -11 75 30 29 28 45 54 49 78 9 55
67 129 108 137 19 4 52 26 80 53 l48 46 137 15 138 16 3 48 c3 44 2 47 -21 47
-14 0 -44 -9 -68 -19 -24 -11 -71 -23 -104 -27 -49 -6 -76 -17 -152 -66 -58
-37 -97 -57 -105 -52 -7 4 -41 30 -74 56 -56 44 -62 52 -69 96 -8 54 -20 72
-46 72 -10 0 -24 9 -31 20 -9 13 -28 22 -60 26 -27 4 -48 10 -48 15 0 5 -32
43 -71 84 -61 64 -69 76 -53 82 11 3 33 17 50 30 17 13 42 23 56 23 17 0 37
12 55 33 16 17 52 43 79 57 30 15 50 33 52 45 4 20 27 41 170 152 83 64 83 63
-8 109 -30 15 -57 29 -59 30 -2 2 6 19 18 39 24 41 18 61 -24 89 -14 9 -36 41
-49 71 -23 52 -26 53 -79 65 -50 12 -57 17 -73 51 -19 44 -32 57 -54 53z"/>
</g>
</svg>
