<?xml version="1.0" standalone="no"?>
<!DOCTYPE svg PUBLIC "-//W3C//DTD SVG 20010904//EN"
 "http://www.w3.org/TR/2001/REC-SVG-20010904/DTD/svg10.dtd">
<svg version="1.0" xmlns="http://www.w3.org/2000/svg"
 width="1024.000000pt" height="1024.000000pt" viewBox="0 0 1024.000000 1024.000000"
 preserveAspectRatio="xMidYMid meet">
<metadata>
Created by potrace 1.10, written by Peter Selinger 2001-2011
</metadata>
<g transform="translate(0.000000,1024.000000) scale(0.100000,-0.100000)"
fill="#000000" stroke="none">
<path d="M5871 10207 c-10 -28 -18 -36 -46 -41 -21 -4 -32 -11 -29 -19 5 -15
-107 -57 -153 -57 -40 0 -46 -9 -48 -84 -1 -40 -9 -78 -24 -109 -25 -54 -55
-73 -186 -117 -101 -35 -295 -151 -360 -217 -84 -85 -85 -85 -268 -91 l-163
-5 -55 32 c-54 30 -105 39 -155 25 -21 -5 -54 -78 -54 -117 0 -11 -7 -34 -16
-53 -13 -28 -26 -37 -67 -49 -51 -15 -52 -15 -174 26 l-123 41 -49 -39 c-27
-21 -57 -50 -67 -64 -9 -14 -44 -41 -76 -58 -40 -22 -63 -42 -71 -62 -8 -21
-29 -38 -67 -57 -52 -26 -55 -30 -61 -72 -3 -26 -19 -66 -37 -94 -17 -27 -36
-64 -42 -82 -6 -18 -22 -40 -36 -49 -20 -13 -23 -19 -13 -31 10 -12 18 -8 53
23 40 36 41 37 44 14 2 -12 -3 -28 -11 -34 -13 -11 -22 -47 -43 -187 -4 -23
-17 -44 -37 -62 l-31 -26 47 -7 c52 -8 54 -14 41 -96 -8 -46 -33 -59 -120 -59
-52 0 -76 -6 -124 -30 -54 -27 -62 -36 -104 -112 -58 -107 -110 -168 -142
-168 -17 0 -24 -6 -24 -20 0 -12 -21 -33 -60 -60 -33 -22 -64 -49 -70 -60 -8
-14 -26 -21 -71 -26 -50 -6 -66 -12 -90 -38 l-29 -31 41 -20 c51 -26 79 -69
79 -120 0 -22 7 -65 15 -95 16 -61 19 -118 6 -138 -5 -9 -18 -11 -37 -7 -16 3
-39 8 -51 11 -28 5 -31 34 -4 34 14 0 20 9 23 33 3 17 9 40 13 51 7 16 5 17
-23 11 -29 -6 -32 -3 -52 34 -11 23 -27 41 -35 41 -8 0 -26 22 -39 48 -19 38
-33 52 -65 64 -23 9 -44 25 -47 35 -23 72 -44 79 -92 30 -39 -40 -40 -60 -7
-99 14 -16 28 -42 32 -56 3 -15 23 -52 43 -82 20 -30 46 -81 58 -113 l22 -58
-28 -10 c-15 -5 -33 -12 -39 -14 -7 -2 -20 -31 -29 -64 -18 -63 -47 -99 -116
-140 l-37 -22 -12 23 c-19 38 -61 78 -82 78 -17 0 -18 -5 -12 -52 7 -48 5 -54
-18 -72 -16 -14 -32 -45 -45 -88 l-20 -67 27 -24 c14 -13 41 -33 59 -43 31
-18 33 -23 31 -64 -5 -93 -1 -107 29 -113 27 -6 62 -57 62 -92 0 -9 10 -15 25
-15 15 0 25 6 25 15 0 12 4 13 25 3 14 -6 25 -16 25 -21 0 -6 10 -21 23 -35
21 -22 21 -24 5 -36 -10 -7 -18 -20 -18 -29 0 -9 -8 -20 -17 -26 -17 -9 -17
-11 1 -24 18 -13 18 -17 6 -47 l-14 -33 -17 22 c-9 11 -19 21 -22 21 -2 0 -2
-21 0 -47 4 -34 19 -69 49 -117 30 -48 44 -81 44 -105 1 -20 7 -47 15 -61 12
-23 11 -27 -13 -52 -19 -21 -35 -28 -64 -28 -33 0 -41 -5 -63 -40 -34 -55 -33
-80 4 -80 48 0 55 -19 62 -179 3 -86 12 -161 20 -183 11 -28 13 -66 8 -158 -7
-131 -11 -141 -76 -181 -28 -18 -33 -26 -33 -60 0 -31 10 -53 51 -109 28 -39
54 -70 58 -70 4 0 18 23 31 51 23 47 25 49 34 29 8 -17 6 -24 -7 -31 -22 -13
-33 -75 -16 -95 13 -16 39 -15 109 2 20 5 16 0 -17 -26 -35 -25 -43 -38 -43
-63 0 -36 -74 -137 -159 -217 -39 -37 -49 -55 -60 -102 -11 -51 -15 -58 -36
-58 -30 0 -45 -26 -45 -80 0 -23 -10 -64 -22 -92 -18 -42 -29 -53 -66 -69 -24
-10 -54 -19 -67 -19 -15 0 -26 -7 -30 -20 -4 -14 -15 -20 -35 -20 -22 0 -30 6
-38 30 l-11 30 -33 -19 c-18 -10 -63 -29 -100 -41 -58 -18 -74 -29 -116 -78
-27 -31 -59 -83 -72 -115 -21 -50 -22 -62 -12 -90 7 -19 12 -46 12 -61 0 -14
7 -29 15 -32 8 -4 15 -12 15 -19 0 -7 7 -15 15 -19 18 -6 19 -26 4 -60 -9 -19
-16 -23 -28 -17 -9 5 -42 12 -73 15 -54 7 -60 6 -103 -25 -43 -31 -85 -84 -85
-106 0 -6 27 -20 60 -32 33 -12 60 -28 60 -35 0 -20 132 -146 152 -146 10 0
22 -9 28 -20 7 -13 21 -20 40 -20 22 0 37 -11 66 -45 26 -32 44 -45 62 -45 15
0 45 -16 74 -41 30 -25 62 -43 86 -46 20 -4 58 -16 85 -28 36 -17 56 -21 86
-15 44 8 71 -6 71 -38 0 -26 60 -78 99 -87 30 -6 31 -9 31 -59 0 -52 0 -52 45
-74 26 -13 65 -22 90 -22 38 0 46 -4 61 -29 11 -19 28 -31 48 -35 77 -13 351
-26 374 -18 6 2 12 21 12 41 0 62 67 106 100 66 7 -8 28 -15 46 -15 19 0 34
-4 34 -10 0 -5 10 -10 23 -10 16 0 32 -16 61 -60 21 -33 57 -74 80 -91 37 -28
46 -30 94 -25 51 6 55 5 98 -32 53 -47 116 -68 157 -53 37 14 84 14 93 0 3 -6
33 -28 65 -49 51 -33 64 -37 103 -33 l45 5 3 -43 c3 -40 6 -44 37 -52 82 -21
201 -148 201 -214 0 -21 9 -36 31 -52 20 -15 27 -26 20 -30 -8 -6 -7 -17 4
-44 17 -40 74 -77 120 -77 28 0 58 -17 124 -69 30 -24 52 -35 70 -33 34 4 121
-44 121 -67 0 -9 14 -38 30 -65 24 -38 28 -51 20 -67 -6 -10 -8 -35 -4 -54 9
-50 81 -100 131 -92 45 8 82 -10 89 -42 3 -14 14 -56 24 -93 l18 -66 -24 -23
c-44 -41 -21 -109 36 -109 14 0 39 -14 57 -32 33 -31 36 -33 106 -30 58 3 75
7 90 24 l17 21 61 -28 c42 -19 71 -25 92 -22 86 15 124 24 144 35 12 7 40 12
61 12 35 0 45 6 79 44 47 53 113 96 113 73 0 -17 21 -27 54 -27 13 0 42 -13
64 -30 23 -16 46 -30 52 -30 5 0 14 -9 20 -20 11 -21 50 -26 122 -14 28 5 38
12 40 28 2 16 11 22 35 24 17 2 37 10 43 18 7 8 29 14 50 14 38 0 84 -29 173
-107 21 -19 48 -33 63 -33 14 0 38 -7 53 -15 16 -8 47 -17 69 -21 33 -5 43
-13 61 -45 19 -33 27 -39 55 -39 21 0 40 -8 55 -24 l22 -23 -211 -319 -210
-319 47 -22 c50 -23 98 -30 107 -14 3 5 27 12 52 16 46 6 48 6 96 -42 28 -27
53 -64 60 -85 14 -49 78 -111 109 -106 22 3 27 25 170 808 82 443 148 822 148
842 1 29 7 41 26 54 21 14 25 24 25 66 0 35 -6 58 -20 75 -11 14 -20 37 -20
51 0 13 -15 45 -34 71 -48 66 -68 108 -64 139 1 15 -1 52 -5 83 -8 53 -10 57
-39 63 -17 3 -55 24 -83 46 -29 22 -56 40 -61 40 -5 1 -30 20 -55 44 l-47 42
10 215 c5 118 11 219 13 226 2 7 37 22 77 34 40 12 91 35 114 50 58 39 136 43
182 9 26 -19 48 -25 104 -28 66 -4 71 -3 64 14 -4 10 -11 48 -16 84 -4 36 -15
82 -24 103 -19 43 -60 65 -88 48 -12 -7 -33 -8 -69 -1 -28 6 -73 10 -98 10
-26 0 -52 5 -57 10 -8 8 -19 7 -39 0 -15 -6 -29 -9 -30 -8 -1 2 0 92 3 200 l5
197 46 6 c25 3 68 10 95 14 28 5 62 5 80 0 36 -11 323 -12 600 -2 l197 6 -32
33 c-31 32 -32 35 -18 60 7 15 19 29 26 31 25 10 60 -7 71 -33 16 -34 74 -104
87 -104 42 0 85 24 110 61 34 53 98 121 147 161 l39 30 44 -17 c40 -15 45 -20
45 -47 0 -22 15 -49 53 -97 30 -36 64 -93 76 -126 21 -55 22 -70 16 -184 -7
-117 -6 -123 11 -118 11 3 40 8 67 12 52 7 54 11 33 70 -8 22 -26 92 -40 156
-15 63 -41 144 -58 180 -16 35 -30 78 -30 95 1 23 -8 40 -33 64 -39 38 -47 87
-19 110 13 12 3 26 -82 111 -54 54 -108 100 -121 104 -15 3 -30 19 -38 39 -12
27 -22 35 -59 45 -25 6 -59 11 -75 11 -17 0 -31 4 -31 8 0 15 237 242 253 242
21 0 76 58 84 89 5 19 0 30 -23 49 -16 14 -45 57 -64 96 -29 58 -40 72 -63 76
-23 4 -32 15 -50 60 -13 30 -46 99 -75 153 -49 95 -51 100 -37 127 24 47 19
85 -15 113 -30 25 -30 26 -14 63 25 59 31 282 10 362 -19 77 -15 87 61 159
l55 51 -7 57 c-9 76 5 107 77 175 l58 55 -30 48 c-25 39 -28 49 -15 53 8 4 15
16 15 29 0 19 -12 28 -74 54 -83 35 -135 39 -210 16 -27 -8 -65 -15 -85 -15
-20 0 -56 -10 -80 -21 -38 -17 -57 -19 -126 -13 -69 5 -86 4 -109 -11 -26 -17
-31 -17 -124 3 -163 35 -155 35 -200 -3 -44 -38 -90 -46 -113 -19 -9 11 -22
14 -44 10 -30 -6 -36 -1 -199 199 -92 113 -171 205 -176 205 -5 0 -25 14 -44
31 -33 29 -39 30 -90 24 -66 -9 -181 24 -191 54 -4 14 -20 20 -67 25 -88 9
-146 7 -153 -4 -12 -19 -85 -51 -141 -61 -46 -8 -59 -8 -72 4 -10 8 -46 17
-82 20 -235 21 -213 22 -257 -6 l-41 -26 -59 25 c-53 23 -63 32 -91 84 -18 31
-32 69 -32 84 0 34 -50 66 -106 66 -33 0 -44 5 -62 30 -20 26 -22 41 -22 154
0 100 4 133 19 169 11 25 24 48 30 51 13 8 13 79 2 149 -7 42 -18 58 -93 135
l-84 87 -33 123 c-47 182 -42 172 -101 172 -50 0 -50 0 -50 33 0 17 -3 42 -6
54 -6 22 -7 22 -86 -18 -64 -32 -88 -39 -125 -37 l-45 3 45 60 c24 33 52 76
60 96 8 20 29 46 46 58 42 30 111 167 111 219 0 21 9 64 19 94 11 31 22 102
26 163 8 107 8 109 62 204 30 52 62 114 73 137 10 23 28 47 39 53 12 7 21 20
21 30 0 46 123 136 177 129 27 -3 32 4 111 160 76 150 85 162 110 162 15 0 95
19 177 42 140 40 153 45 192 85 22 24 50 43 61 43 11 0 31 9 46 21 34 27 34
71 1 115 -14 18 -25 44 -25 57 0 20 -10 30 -52 51 -29 14 -62 26 -74 26 -13 0
-29 8 -36 18 -18 26 -32 32 -86 41 -26 5 -54 12 -63 15 -13 6 -20 -1 -28 -27z"/>
</g>
</svg>
