<?xml version="1.0" standalone="no"?>
<!DOCTYPE svg PUBLIC "-//W3C//DTD SVG 20010904//EN"
 "http://www.w3.org/TR/2001/REC-SVG-20010904/DTD/svg10.dtd">
<svg version="1.0" xmlns="http://www.w3.org/2000/svg"
 width="1024.000000pt" height="1024.000000pt" viewBox="0 0 1024.000000 1024.000000"
 preserveAspectRatio="xMidYMid meet">
<metadata>
Created by potrace 1.10, written by Peter Selinger 2001-2011
</metadata>
<g transform="translate(0.000000,1024.000000) scale(0.100000,-0.100000)"
fill="#000000" stroke="none">
<path d="M3165 10233 c-119 -3 -151 -7 -158 -18 -9 -17 -93 -20 -167 -5 -39 7
-49 5 -76 -15 -39 -30 -90 -165 -138 -367 l-35 -146 23 -80 c22 -77 23 -81 5
-99 -22 -23 -15 -73 13 -81 11 -2 32 -30 48 -62 l29 -57 -21 -59 c-12 -32 -39
-84 -60 -115 l-37 -57 -118 -7 c-145 -9 -152 -15 -152 -120 0 -63 2 -72 24
-88 21 -15 30 -16 72 -6 26 7 64 20 85 30 107 54 186 28 273 -87 l55 -73 0
-90 c0 -88 -1 -90 -44 -160 -32 -52 -45 -84 -49 -124 -7 -67 -34 -122 -101
-205 l-51 -63 -67 4 -68 4 -31 -48 c-17 -27 -39 -49 -48 -49 -11 0 -29 -25
-52 -72 -35 -72 -35 -74 -24 -131 7 -32 14 -59 16 -60 2 -2 28 -20 57 -41 l52
-38 0 -73 c0 -70 2 -75 29 -94 24 -17 30 -31 36 -77 5 -46 14 -64 45 -98 36
-39 38 -46 49 -141 10 -87 9 -107 -4 -145 -9 -25 -23 -69 -30 -98 l-14 -53 40
-86 c23 -51 39 -99 37 -117 -1 -24 17 -56 84 -151 72 -100 87 -128 93 -170 4
-27 27 -108 52 -180 44 -125 48 -133 113 -200 51 -52 75 -87 94 -134 14 -36
26 -69 26 -75 -1 -6 -14 -27 -30 -46 -34 -39 -36 -51 -15 -111 20 -56 48 -85
165 -169 128 -92 137 -102 142 -175 4 -57 9 -68 105 -207 l100 -147 7 -115 c5
-79 4 -127 -5 -154 -15 -51 -8 -77 36 -135 19 -25 35 -54 35 -65 0 -32 36 -68
128 -129 102 -68 139 -106 148 -151 4 -20 18 -42 35 -54 43 -32 99 -124 120
-195 20 -72 52 -117 144 -201 53 -48 72 -75 105 -148 36 -76 40 -95 35 -134
-6 -42 15 -217 34 -285 7 -25 1 -46 -30 -114 -45 -97 -47 -121 -19 -257 14
-69 26 -104 40 -114 10 -8 37 -43 59 -78 l41 -62 -15 -103 c-25 -179 -25 -186
6 -247 36 -72 72 -105 143 -130 73 -25 140 -84 185 -165 l33 -60 -10 -167
c-10 -147 -14 -173 -37 -217 -20 -40 -25 -65 -25 -121 0 -61 7 -89 48 -198 34
-89 51 -149 56 -200 5 -58 13 -83 35 -116 36 -51 129 -125 205 -163 l58 -28
-7 -60 c-4 -39 -23 -96 -54 -165 -26 -58 -56 -126 -67 -152 -17 -43 -22 -48
-50 -48 -20 0 -39 9 -54 25 -26 27 -70 34 -70 11 0 -53 49 -96 111 -96 22 0
43 -10 70 -35 36 -33 44 -35 105 -35 49 0 76 -6 104 -21 35 -20 39 -20 68 -5
17 9 48 16 69 16 21 0 49 7 62 16 17 13 36 15 79 11 49 -5 59 -3 85 19 24 20
40 25 71 23 23 -2 59 2 81 9 22 6 56 14 77 17 46 7 51 23 37 98 -12 59 -12 61
12 76 13 9 47 38 76 64 43 40 64 52 123 67 40 10 96 31 126 47 l54 28 0 55 c0
39 6 62 20 80 11 14 20 41 20 60 0 47 43 150 72 172 13 10 44 25 69 33 41 14
49 14 75 0 33 -17 94 -19 143 -5 43 12 106 -17 115 -53 3 -14 16 -31 29 -40
21 -13 27 -12 87 24 57 35 71 39 129 39 36 0 85 -5 108 -10 37 -9 53 -6 125
20 45 17 91 30 101 30 11 0 45 27 78 63 47 52 66 66 101 73 l43 9 8 85 c4 47
10 114 13 150 3 36 10 69 15 74 5 6 9 52 9 104 0 84 3 98 28 140 24 41 27 57
27 132 l0 85 99 52 c55 29 103 56 108 61 5 5 -1 20 -13 36 -21 26 -21 32 -10
92 l12 65 -31 25 c-34 29 -38 49 -13 76 15 17 15 19 0 36 -23 25 -21 49 3 57
17 5 20 15 20 66 0 42 7 72 22 102 17 32 23 67 28 152 6 97 10 116 35 159 41
69 36 123 -20 250 -25 54 -48 114 -51 134 -4 19 -25 74 -46 121 -33 71 -39 93
-35 130 3 29 -2 63 -14 99 -10 30 -19 69 -19 86 0 17 -7 101 -17 187 l-16 156
21 30 c19 27 29 31 88 36 37 4 69 9 72 12 3 3 -2 13 -11 22 -8 10 -18 35 -22
56 -6 31 -11 37 -32 37 -13 0 -44 11 -67 25 l-42 25 -2 77 c-1 43 2 83 6 90 8
12 69 31 132 40 33 5 110 65 110 85 0 5 -12 27 -26 49 -20 32 -24 49 -20 74 5
27 3 33 -21 46 -16 7 -31 15 -34 16 -3 2 -10 -7 -16 -20 l-11 -24 -82 16 c-46
9 -85 22 -90 31 -15 23 -12 50 5 50 8 0 21 12 29 28 8 15 32 37 55 50 54 30
62 70 31 150 -22 59 -51 201 -43 215 2 4 11 7 19 7 23 0 36 47 22 73 -7 12
-18 38 -23 57 -12 38 -3 35 -124 39 l-44 1 7 63 c5 45 14 69 31 87 13 14 33
59 44 100 19 65 28 81 72 122 46 41 50 48 39 68 -6 12 -10 23 -8 24 2 1 15 7
29 13 23 10 27 19 34 75 8 68 8 70 -1 141 l-6 47 48 21 c27 12 51 23 52 25 11
8 -13 46 -34 54 -22 9 -24 14 -24 85 0 70 -1 75 -23 81 -33 8 -50 81 -34 141
10 38 9 45 -17 82 -23 33 -27 48 -23 76 9 53 -2 105 -22 105 -10 0 -32 15 -50
34 -30 31 -33 39 -30 84 l4 49 -65 45 c-60 42 -65 48 -62 79 1 19 10 48 19 66
15 29 16 39 4 95 -15 67 -15 76 -5 125 5 26 2 34 -20 48 -25 17 -28 17 -45 1
-15 -13 -24 -15 -38 -7 -11 5 -43 13 -72 17 -43 6 -61 3 -100 -16 -45 -21 -50
-21 -78 -6 -34 17 -43 45 -43 133 0 39 6 62 21 82 25 33 41 143 32 216 -7 59
-33 92 -79 101 -18 3 -40 14 -49 24 -15 16 -21 17 -53 6 -25 -9 -51 -10 -86
-4 -96 16 -96 16 -96 48 0 25 -8 36 -45 59 -52 33 -165 183 -165 220 0 13 -13
47 -29 75 -20 37 -30 70 -34 121 -4 53 -9 72 -23 80 -10 5 -27 21 -39 34 -11
13 -37 43 -58 65 l-39 40 7 78 c6 62 11 81 26 89 29 15 23 52 -18 103 l-38 46
-89 0 c-78 0 -93 3 -112 21 -29 27 -70 19 -86 -16 -6 -14 -16 -25 -22 -25 -34
0 -163 33 -177 46 -8 8 -28 14 -43 14 -16 0 -41 11 -58 25 -16 14 -38 25 -49
25 -23 0 -25 26 -5 75 l14 34 -31 7 c-17 3 -39 11 -49 17 -13 9 -26 7 -54 -6
-36 -17 -37 -17 -58 3 -29 26 -34 26 -72 -11 -30 -29 -40 -32 -126 -40 -51 -5
-110 -10 -130 -13 -34 -4 -40 -1 -59 30 -17 28 -27 34 -54 34 -18 0 -38 6 -44
13 -6 8 -23 12 -41 9 -28 -4 -30 -3 -30 31 0 52 -29 54 -77 5 -29 -30 -45 -39
-68 -37 -80 5 -93 1 -105 -37 l-12 -36 -24 23 -24 22 -24 -22 -24 -23 -7 31
c-8 36 -15 38 -40 11 -22 -24 -58 -26 -76 -4 -12 15 -15 13 -35 -12 -18 -22
-25 -25 -37 -16 -8 7 -27 10 -46 6 -30 -6 -31 -6 -31 29 0 30 -6 41 -32 59
-28 19 -32 28 -30 55 3 27 -1 35 -23 45 -15 7 -35 29 -46 50 -14 28 -28 40
-50 45 -23 4 -35 16 -55 54 -13 27 -24 62 -24 79 0 41 -16 70 -38 70 -48 0
-122 126 -122 206 0 43 -72 123 -151 166 -44 24 -59 38 -59 54 0 13 -17 36
-42 58 -24 20 -56 48 -71 63 -26 23 -29 24 -46 9 -21 -19 -119 -21 -191 -5
-66 15 -80 16 -245 12z"/>
</g>
</svg>
