<?xml version="1.0" standalone="no"?>
<!DOCTYPE svg PUBLIC "-//W3C//DTD SVG 20010904//EN"
 "http://www.w3.org/TR/2001/REC-SVG-20010904/DTD/svg10.dtd">
<svg version="1.0" xmlns="http://www.w3.org/2000/svg"
 width="1024.000000pt" height="1024.000000pt" viewBox="0 0 1024.000000 1024.000000"
 preserveAspectRatio="xMidYMid meet">
<metadata>
Created by potrace 1.10, written by Peter Selinger 2001-2011
</metadata>
<g transform="translate(0.000000,1024.000000) scale(0.100000,-0.100000)"
fill="#000000" stroke="none">
<path d="M7100 10202 c-23 -41 -25 -42 -76 -42 -34 0 -56 5 -64 15 -12 14 -40
21 -40 9 0 -23 28 -46 75 -60 31 -8 53 -20 50 -25 -10 -14 -63 -11 -90 7 -22
14 -27 14 -60 -1 -44 -22 -53 -35 -32 -50 10 -7 17 -20 17 -29 0 -24 -34 -88
-59 -110 -20 -18 -20 -19 -1 -56 22 -42 58 -61 158 -80 59 -12 65 -16 149
-102 l88 -89 -4 -82 c-2 -54 -10 -95 -22 -119 -11 -21 -19 -58 -19 -85 0 -30
-7 -60 -20 -80 -19 -31 -19 -33 -1 -45 28 -20 41 -78 29 -131 -8 -41 -12 -46
-45 -52 -46 -8 -133 -74 -167 -125 -20 -31 -33 -40 -54 -40 -16 0 -44 -11 -62
-25 -19 -14 -51 -31 -71 -37 -33 -9 -41 -8 -67 11 -31 21 -59 26 -77 13 -6 -4
-22 -25 -36 -47 -15 -22 -45 -62 -68 -90 -22 -27 -41 -58 -41 -67 0 -12 -8
-18 -24 -18 -30 0 -86 -82 -86 -127 0 -20 -10 -39 -30 -58 -21 -20 -30 -38
-30 -61 0 -24 -5 -34 -20 -39 -34 -11 -58 -79 -75 -207 -4 -29 -16 -59 -31
-77 -18 -21 -24 -41 -24 -74 0 -25 -5 -49 -10 -52 -6 -4 -8 -21 -4 -41 5 -30
2 -40 -22 -65 -15 -16 -34 -29 -41 -29 -8 0 -39 -23 -69 -51 -44 -42 -54 -58
-54 -84 0 -18 -7 -38 -15 -45 -23 -19 -19 -80 7 -107 21 -22 21 -24 5 -58 -9
-20 -17 -57 -17 -83 0 -40 -5 -53 -27 -75 -16 -14 -47 -30 -70 -35 -25 -6 -74
-34 -125 -72 -46 -34 -90 -65 -98 -70 -13 -7 -11 -12 8 -32 26 -28 28 -62 7
-115 -31 -79 -69 -251 -72 -330 l-4 -81 -40 -7 c-32 -6 -39 -11 -39 -29 0 -27
-29 -56 -55 -56 -11 0 -31 -12 -46 -26 -25 -24 -28 -25 -56 -11 -25 13 -32 13
-56 1 -24 -13 -27 -20 -27 -64 0 -46 -2 -50 -23 -50 -13 0 -36 -13 -52 -30
-16 -16 -37 -30 -46 -30 -10 0 -31 -17 -48 -37 -29 -36 -31 -42 -31 -125 0
-80 -2 -88 -25 -106 -24 -19 -24 -21 -11 -59 l14 -39 -65 -120 c-88 -160 -116
-236 -110 -296 4 -44 2 -48 -25 -59 -22 -9 -28 -18 -28 -43 -1 -47 -80 -190
-107 -194 -25 -4 -27 -10 -14 -45 5 -13 11 -50 12 -83 l3 -58 -35 -8 c-19 -5
-59 -20 -89 -34 -46 -21 -61 -35 -92 -87 -26 -43 -34 -65 -28 -77 6 -11 0 -30
-21 -63 -19 -31 -29 -60 -29 -86 0 -37 -2 -40 -37 -48 -30 -7 -38 -14 -45 -41
-6 -21 -15 -32 -26 -32 -10 0 -27 -7 -38 -15 -25 -19 -32 -19 -39 4 -5 18 -13
19 -93 14 -86 -6 -88 -5 -105 20 -12 18 -37 150 -37 194 0 2 -31 3 -70 3 l-70
0 -57 85 c-45 69 -68 93 -114 121 -32 19 -68 47 -80 62 -12 15 -23 23 -26 17
-2 -5 -23 -41 -46 -80 l-42 -70 -151 -3 -150 -3 -15 46 -14 45 -128 -105 c-92
-75 -136 -105 -155 -105 -15 0 -43 -3 -64 -6 -36 -6 -36 -6 -43 -68 -4 -33
-18 -87 -32 -118 -25 -56 -27 -58 -65 -58 -33 0 -42 -5 -56 -29 -16 -29 -46
-41 -97 -41 -24 0 -35 -22 -35 -72 0 -24 -4 -28 -29 -28 -26 0 -34 -8 -71 -75
-39 -70 -44 -75 -81 -81 -34 -6 -53 -22 -145 -120 -62 -67 -114 -114 -125
-114 -10 0 -23 -8 -28 -19 -6 -10 -24 -24 -41 -31 -20 -8 -29 -18 -26 -29 15
-54 15 -78 2 -96 -20 -28 -9 -74 27 -112 l31 -33 -21 -22 c-11 -13 -33 -46
-47 -75 -23 -46 -26 -64 -26 -156 0 -103 0 -103 -31 -133 -17 -16 -46 -60 -63
-99 -21 -45 -42 -75 -58 -84 -22 -11 -25 -18 -21 -50 4 -32 0 -42 -29 -71
l-34 -35 1 -114 c1 -99 4 -115 20 -127 23 -17 57 -18 73 -2 7 7 12 34 12 60 0
48 13 64 24 30 9 -27 53 -65 65 -57 6 3 11 14 11 23 1 15 2 15 15 -1 13 -18
14 -18 23 0 8 14 5 30 -9 63 -17 38 -18 45 -5 58 13 13 15 10 21 -22 4 -20 15
-46 25 -59 12 -15 23 -62 34 -145 12 -98 20 -129 40 -155 36 -48 53 -87 60
-139 6 -37 11 -48 25 -48 9 0 36 -16 58 -35 23 -19 49 -35 58 -35 9 0 34 -13
54 -29 33 -26 38 -28 56 -15 27 20 33 18 56 -21 15 -24 28 -35 44 -35 40 0 75
18 75 39 0 13 8 21 22 23 36 5 33 37 -10 121 -2 4 5 7 15 7 10 0 31 -18 46
-40 36 -51 60 -65 77 -45 28 34 34 14 13 -42 -3 -8 13 -14 46 -19 48 -6 50 -8
37 -23 -13 -14 -13 -19 -2 -32 11 -11 11 -20 1 -42 l-12 -29 -31 27 -31 26 -6
-28 c-12 -54 -13 -55 -35 -41 -15 9 -22 10 -31 1 -9 -9 -3 -22 25 -54 32 -37
36 -49 36 -96 0 -46 3 -53 19 -53 13 0 23 -11 31 -35 6 -19 16 -35 22 -35 12
0 69 -60 143 -150 42 -52 54 -75 60 -115 4 -27 13 -62 21 -77 21 -41 17 -81
-11 -108 -24 -22 -25 -29 -25 -134 0 -104 -2 -117 -36 -201 -33 -83 -35 -95
-29 -162 3 -42 2 -81 -4 -91 -25 -47 32 -144 92 -156 17 -3 39 -14 49 -22 14
-14 22 -15 46 -5 22 9 36 9 68 -3 35 -12 42 -12 59 1 17 13 95 15 565 12 l545
-4 3 47 3 47 52 8 c30 6 61 5 73 0 13 -5 45 -4 85 3 70 13 101 14 169 5 25 -4
63 -2 85 3 26 6 49 5 64 -1 16 -8 28 -7 41 1 27 17 182 7 196 -13 13 -18 37
-19 64 -3 15 10 23 9 40 -7 19 -17 23 -17 53 -3 28 14 36 14 52 2 24 -17 49
-17 100 1 36 13 41 13 52 -1 7 -10 19 -14 29 -10 9 4 42 -1 72 -9 53 -16 55
-16 76 4 27 25 34 26 57 5 15 -13 21 -14 46 -2 17 8 58 13 103 11 41 0 87 3
102 9 21 8 36 7 62 -6 19 -9 43 -16 53 -16 13 0 23 -12 31 -34 l13 -35 509 -3
508 -3 27 -25 c22 -21 28 -22 35 -10 5 8 10 18 10 22 0 12 32 25 75 32 36 6
44 3 82 -29 30 -25 51 -35 76 -35 19 0 51 -7 70 -15 20 -8 48 -15 62 -15 20 0
25 -5 25 -23 0 -13 11 -34 24 -46 l24 -22 20 25 c17 22 21 24 32 11 9 -11 17
-12 31 -4 14 7 25 6 40 -4 17 -13 27 -13 70 0 l50 15 37 -40 c48 -51 73 -58
129 -37 33 13 60 16 106 11 34 -3 93 -9 130 -12 57 -6 71 -11 84 -30 10 -15
25 -24 42 -24 18 0 40 -13 66 -40 29 -29 47 -40 70 -40 58 0 74 -10 85 -51 14
-50 46 -69 66 -41 8 12 24 22 37 24 20 3 22 8 18 53 -4 59 -11 73 -58 126 -29
32 -34 44 -29 67 4 15 9 39 11 53 1 14 8 36 14 47 6 11 11 41 11 67 0 41 2 45
18 36 10 -6 28 -7 40 -4 l21 5 -20 49 c-10 28 -19 64 -19 82 0 18 -11 51 -25
75 -17 31 -23 51 -18 73 3 19 -1 44 -12 69 -17 39 -17 41 0 75 18 32 18 35 2
53 -19 21 -23 83 -6 114 16 30 -50 128 -87 128 -26 0 -61 30 -97 84 -11 16
-25 25 -33 22 -8 -3 -20 -3 -28 0 -8 3 -77 74 -153 157 -76 84 -175 192 -221
240 -138 146 -282 359 -282 416 0 16 28 44 56 55 1 1 5 11 8 23 6 18 2 24 -17
28 -34 9 -57 55 -57 115 0 50 -2 53 -69 120 -38 39 -75 70 -83 70 -7 0 -50 29
-94 64 l-81 64 -21 113 c-32 171 -33 179 -39 242 -4 43 -1 64 12 83 15 24 15
26 -8 54 -14 16 -27 44 -31 64 -6 29 -12 36 -39 41 -44 10 -77 42 -77 77 0 23
6 31 30 39 27 10 30 16 30 50 0 22 7 53 15 68 12 25 12 31 0 47 -20 26 -18 82
4 123 17 31 17 38 4 69 -11 26 -12 45 -4 80 12 57 2 72 -46 72 -45 0 -69 14
-88 50 -25 48 -19 82 21 121 20 18 42 46 50 61 12 23 21 28 50 28 41 0 107 31
140 67 18 20 24 37 24 73 0 36 5 51 24 70 14 12 28 37 31 54 4 17 18 50 31 72
13 23 33 67 44 98 19 50 24 56 50 56 43 0 86 42 94 90 8 51 89 215 110 223 12
5 13 13 5 39 -14 47 -2 106 24 119 43 22 207 193 207 216 0 12 9 28 20 36 12
8 34 32 50 53 25 33 29 48 30 99 0 58 -2 63 -41 100 -46 45 -139 219 -139 261
0 26 -113 244 -196 380 -24 40 -47 87 -50 105 -12 60 -20 68 -76 71 -52 3 -52
3 -63 43 -5 22 -20 51 -32 63 -13 12 -23 25 -23 30 0 4 -33 6 -73 4 l-73 -4
-66 70 c-36 39 -69 79 -72 90 -4 11 -46 50 -94 86 -126 95 -132 101 -132 132
0 22 -28 56 -142 171 -116 117 -147 143 -170 143 -63 0 -49 55 39 155 47 53
76 97 94 143 l27 67 88 3 c118 4 294 -14 371 -39 54 -18 68 -19 100 -8 25 8
69 10 136 6 94 -6 102 -5 143 19 41 24 44 25 74 9 23 -12 45 -15 79 -10 31 4
58 1 82 -9 30 -13 52 -13 135 -4 133 14 150 29 94 83 -17 16 -61 45 -97 65
-51 27 -69 42 -77 66 -16 44 -75 112 -117 134 -29 15 -38 27 -44 56 -3 21 -24
58 -45 83 -26 31 -40 60 -45 91 -4 25 -21 81 -38 125 -29 77 -30 86 -31 245
-1 110 -6 172 -14 187 -7 12 -12 58 -12 107 0 78 3 90 30 134 35 58 37 76 10
120 -16 26 -20 50 -20 116 0 70 -3 86 -20 101 -18 16 -20 26 -14 95 6 66 4 81
-15 118 -14 28 -33 47 -55 56 -46 19 -56 42 -56 124 0 76 -9 113 -46 183 -13
26 -24 59 -24 74 0 42 -58 114 -92 115 -22 0 -27 5 -30 28 -2 22 -8 28 -35 30
-21 2 -34 10 -38 23 -4 12 -15 19 -30 19 -18 0 -30 10 -43 37 l-19 36 -23 -41z"/>
<path d="M1742 1867 c-18 -34 -36 -81 -39 -104 -3 -24 -12 -48 -19 -54 -8 -6
-14 -19 -14 -29 0 -13 -11 -20 -37 -25 -22 -4 -52 -20 -70 -38 -40 -37 -44
-91 -13 -142 21 -35 14 -33 180 -51 l55 -6 21 43 c12 24 45 84 73 133 28 49
51 99 51 112 0 13 16 41 35 63 28 31 35 47 35 79 0 55 -33 80 -81 63 -44 -15
-75 -14 -93 4 -29 29 -50 17 -84 -48z"/>
</g>
</svg>
