<?xml version="1.0" standalone="no"?>
<!DOCTYPE svg PUBLIC "-//W3C//DTD SVG 20010904//EN"
 "http://www.w3.org/TR/2001/REC-SVG-20010904/DTD/svg10.dtd">
<svg version="1.0" xmlns="http://www.w3.org/2000/svg"
 width="1024.000000pt" height="1024.000000pt" viewBox="0 0 1024.000000 1024.000000"
 preserveAspectRatio="xMidYMid meet">
<metadata>
Created by potrace 1.10, written by Peter Selinger 2001-2011
</metadata>
<g transform="translate(0.000000,1024.000000) scale(0.100000,-0.100000)"
fill="#000000" stroke="none">
<path d="M2015 9144 c-8 -9 -22 -31 -30 -50 -15 -37 -37 -43 -69 -19 -16 12
-26 10 -87 -21 -59 -29 -72 -32 -89 -22 -17 11 -23 9 -48 -15 -15 -15 -39 -27
-53 -27 -13 0 -53 -14 -88 -30 -36 -17 -76 -30 -90 -28 -20 2 -31 -5 -46 -27
-15 -21 -30 -31 -53 -33 -23 -2 -40 -13 -58 -38 -30 -39 -40 -41 -69 -14 -20
19 -21 19 -360 -80 -187 -55 -341 -100 -342 -100 -2 0 -10 -43 -18 -98 -9 -57
-47 -102 -88 -102 -24 0 -41 -12 -85 -60 -30 -33 -63 -60 -72 -60 -23 0 -60
-42 -60 -68 0 -12 -6 -22 -14 -22 -9 0 -16 -12 -18 -27 -2 -22 -11 -30 -36
-39 -37 -12 -75 -72 -74 -116 0 -16 -14 -49 -34 -78 -55 -80 -46 -120 32 -155
29 -13 60 -35 69 -49 10 -14 26 -26 36 -26 10 0 30 -16 45 -35 35 -47 57 -57
129 -64 49 -5 60 -9 63 -26 2 -11 41 -58 86 -105 44 -47 93 -101 107 -120 15
-19 52 -50 84 -69 54 -33 59 -34 101 -23 24 7 79 12 122 12 76 0 79 -1 111
-34 24 -25 44 -66 76 -160 26 -74 58 -147 78 -174 18 -26 41 -68 51 -94 10
-26 22 -50 27 -54 23 -14 51 -93 73 -204 27 -137 40 -161 96 -190 39 -20 100
-105 100 -140 0 -8 27 -39 60 -70 51 -47 60 -61 60 -90 1 -19 13 -64 28 -99
27 -61 31 -65 75 -78 39 -11 56 -24 93 -72 54 -70 73 -84 193 -146 92 -48 145
-92 267 -226 45 -49 88 -133 103 -199 5 -23 18 -52 29 -63 11 -12 30 -47 41
-78 12 -31 29 -64 39 -72 10 -9 63 -37 118 -63 125 -59 176 -94 205 -141 49
-83 91 -125 153 -153 81 -36 93 -51 79 -101 -8 -30 -7 -43 4 -59 12 -18 12
-21 -1 -26 -8 -3 -20 -3 -26 1 -8 5 -10 -6 -5 -39 5 -31 4 -46 -4 -46 -26 0
-7 -49 40 -103 47 -53 54 -57 82 -51 34 7 47 -6 47 -47 0 -18 9 -33 27 -44 24
-16 25 -19 10 -30 -35 -25 -20 -63 46 -115 l50 -40 23 21 22 21 12 -23 c8 -14
10 -43 6 -80 -4 -46 -2 -61 12 -78 23 -28 226 -141 252 -141 12 0 54 -27 94
-60 41 -32 91 -66 113 -75 45 -18 123 -112 123 -148 0 -12 -12 -33 -26 -48
l-26 -27 23 -43 c12 -24 32 -59 45 -79 12 -19 24 -41 26 -49 2 -8 11 -23 21
-33 9 -10 17 -31 17 -48 0 -19 7 -33 21 -40 30 -17 49 -66 36 -99 -8 -21 -5
-37 12 -75 25 -57 26 -84 6 -132 -14 -34 -14 -37 10 -68 34 -44 41 -86 21
-124 -23 -45 -20 -67 17 -108 48 -55 114 -94 159 -94 28 0 46 -7 63 -25 14
-13 25 -29 25 -34 0 -6 21 -24 46 -42 28 -19 52 -45 61 -68 8 -20 31 -50 51
-66 34 -30 35 -32 23 -68 -12 -35 -10 -46 26 -142 35 -97 40 -105 64 -105 24
0 28 -6 43 -58 22 -79 21 -94 -14 -150 -36 -58 -37 -73 -9 -98 47 -42 63 -93
63 -197 1 -97 2 -99 30 -124 30 -26 58 -27 146 -7 20 4 42 -7 103 -51 58 -43
88 -58 120 -61 34 -4 38 -3 20 5 -20 9 -23 19 -25 68 -3 92 -2 94 49 183 39
69 48 94 48 133 0 26 3 47 7 47 3 0 13 3 21 6 9 3 16 -3 20 -15 6 -24 28 -26
76 -10 31 11 33 15 46 89 3 19 17 52 32 72 32 48 24 59 -17 24 -51 -42 -93
-36 -177 25 l-71 51 16 27 c12 21 21 26 42 23 21 -3 34 4 60 35 l34 38 -37 3
c-29 3 -37 7 -37 23 0 16 5 18 24 13 22 -5 25 -2 32 31 5 29 2 43 -16 67 -26
35 -20 46 15 30 24 -11 25 -10 25 26 0 56 -62 189 -105 225 -29 23 -33 32 -24
43 6 8 19 14 28 14 9 0 22 5 29 12 6 6 13 10 14 7 2 -2 11 -17 20 -34 10 -16
23 -29 29 -27 7 2 22 -7 35 -19 24 -22 54 -20 54 4 0 14 56 29 105 29 31 0
127 -27 164 -47 27 -13 39 -15 58 -6 31 14 59 13 105 -3 21 -8 35 -10 33 -5
-3 4 -26 39 -50 76 l-45 68 32 3 c25 3 38 -2 55 -22 26 -30 53 -33 95 -9 28
17 30 17 44 -2 8 -11 22 -43 30 -72 8 -28 21 -57 29 -63 22 -18 45 -4 45 26
l0 26 62 -7 c57 -7 61 -6 53 11 -17 41 -11 59 19 62 22 3 38 -5 71 -38 l41
-41 12 26 c15 32 26 32 40 0 15 -32 15 -65 2 -65 -15 0 -12 -26 5 -40 13 -11
13 -14 -2 -26 -16 -12 -16 -13 -2 -14 9 0 62 36 118 80 91 72 101 83 101 113
0 49 -23 73 -95 97 -63 21 -125 66 -125 90 0 9 16 11 60 6 57 -7 60 -6 60 14
0 12 -5 30 -10 41 -9 17 -7 19 17 19 21 0 32 8 44 33 10 20 22 31 33 29 14 -3
16 2 10 32 l-6 36 38 0 c22 0 56 5 77 11 45 12 70 -1 65 -35 -3 -18 -9 -21
-44 -18 -38 3 -44 0 -97 -57 -76 -83 -79 -97 -31 -138 22 -18 53 -40 71 -50
31 -16 33 -16 52 1 19 17 21 17 27 3 4 -10 -4 -29 -20 -48 -53 -63 -18 -75 61
-20 38 27 88 49 147 66 98 28 118 30 147 15 13 -8 19 -7 19 0 0 17 -47 60 -66
60 -9 0 -63 -25 -120 -56 -114 -61 -140 -64 -123 -14 14 39 50 67 103 80 114
28 146 41 170 73 14 18 26 26 26 20 0 -18 25 -16 40 2 7 8 20 15 30 15 11 0
20 10 24 24 3 13 28 49 56 79 27 30 50 57 50 60 0 2 -12 7 -28 10 -58 12 -105
73 -50 65 17 -2 24 7 38 50 10 29 21 56 24 60 11 10 26 -19 26 -50 0 -23 6
-29 40 -39 33 -10 45 -10 67 2 44 23 307 284 421 417 146 171 217 230 366 302
68 33 143 76 167 96 l43 36 18 -22 c10 -12 26 -33 37 -48 17 -24 21 -25 44
-13 14 7 52 35 84 62 36 30 62 44 67 38 6 -5 18 -9 28 -9 15 0 18 9 18 51 0
30 -7 63 -17 80 -9 15 -14 32 -10 36 14 13 47 -33 55 -76 l7 -43 48 65 c50 69
55 79 33 71 -19 -7 -36 26 -36 70 0 33 -4 37 -68 71 -114 59 -140 143 -84 268
18 41 25 47 51 47 39 0 39 -11 1 -75 -16 -27 -30 -60 -30 -72 0 -21 4 -23 63
-23 l63 0 11 43 c13 48 79 131 98 123 8 -3 21 17 35 57 35 97 84 188 134 249
26 32 42 59 36 63 -19 12 170 246 334 413 222 227 421 360 654 437 l84 28 -65
66 c-857 881 -2146 2202 -2226 2283 l-106 106 -1193 18 -1194 18 7 91 c4 49
10 119 15 155 l8 65 -155 208 c-86 114 -159 207 -164 207 -6 0 -44 -24 -87
-54 -42 -29 -92 -61 -111 -71 -34 -17 -35 -17 -53 5 -26 33 -22 80 11 130 29
43 29 44 13 79 -9 20 -17 37 -17 38 -1 2 -566 28 -1256 58 -1172 51 -1513 60
-1563 40 -14 -6 -24 -2 -38 18 -23 31 -31 33 -53 11z"/>
<path d="M8042 3285 c-17 -14 -41 -40 -53 -56 l-21 -29 45 29 c52 36 70 56 65
72 -2 7 -16 1 -36 -16z"/>
<path d="M7780 3055 c-14 -16 -10 -18 14 -9 9 3 16 10 16 15 0 14 -16 11 -30
-6z"/>
<path d="M5522 2260 c-17 -23 -27 -28 -36 -21 -17 15 -58 2 -52 -16 3 -8 6
-17 6 -19 0 -2 14 -4 30 -4 36 0 41 -27 10 -55 -27 -25 -26 -36 16 -115 47
-90 95 -146 118 -137 13 5 15 11 6 26 -15 29 -12 41 11 41 13 0 25 -11 35 -35
11 -27 20 -35 39 -35 42 0 33 -42 -15 -74 -22 -14 -40 -32 -40 -39 0 -21 29
-56 61 -72 l29 -16 0 81 c0 64 3 80 15 80 22 0 32 -28 38 -103 2 -37 8 -71 11
-75 4 -3 37 23 74 59 37 36 115 109 175 163 135 124 138 142 24 164 -49 10
-64 9 -87 -3 -16 -8 -34 -15 -40 -15 -15 0 -12 46 5 60 47 39 -22 85 -145 96
-95 8 -139 23 -172 58 -13 14 -39 27 -58 31 -31 6 -38 3 -58 -25z"/>
<path d="M5387 1823 c-12 -12 -7 -36 10 -48 16 -12 16 -14 -1 -40 -17 -25 -17
-27 0 -23 30 6 39 32 25 77 -11 40 -20 48 -34 34z"/>
<path d="M5325 1771 c-6 -11 9 -23 19 -14 9 9 7 23 -3 23 -6 0 -12 -4 -16 -9z"/>
<path d="M6150 1765 c-7 -9 -11 -18 -8 -20 3 -3 11 1 18 10 7 9 11 18 8 20 -3
3 -11 -1 -18 -10z"/>
<path d="M5883 1673 c-3 -10 -8 -22 -11 -27 -3 -5 0 -6 6 -2 18 11 35 46 22
46 -6 0 -13 -8 -17 -17z"/>
<path d="M5595 1557 c-16 -34 -29 -68 -29 -75 -1 -7 -17 -26 -36 -42 -32 -27
-33 -29 -12 -30 12 0 40 9 62 20 45 23 82 26 75 8 -3 -7 -43 -32 -88 -55 -95
-49 -134 -85 -143 -132 l-7 -34 52 29 c85 47 144 97 178 148 17 26 43 60 57
75 35 37 33 56 -11 97 -66 61 -67 61 -98 -9z"/>
<path d="M5385 1410 c-17 -11 -36 -18 -42 -15 -20 7 -15 0 17 -23 l30 -22 15
36 c8 21 14 38 12 40 -1 2 -16 -6 -32 -16z"/>
<path d="M5309 1267 c-42 -28 -53 -79 -20 -97 19 -9 24 -5 51 37 50 78 36 105
-31 60z"/>
</g>
</svg>
