<?xml version="1.0" standalone="no"?>
<!DOCTYPE svg PUBLIC "-//W3C//DTD SVG 20010904//EN"
 "http://www.w3.org/TR/2001/REC-SVG-20010904/DTD/svg10.dtd">
<svg version="1.0" xmlns="http://www.w3.org/2000/svg"
 width="1024.000000pt" height="1024.000000pt" viewBox="0 0 1024.000000 1024.000000"
 preserveAspectRatio="xMidYMid meet">
<metadata>
Created by potrace 1.10, written by Peter Selinger 2001-2011
</metadata>
<g transform="translate(0.000000,1024.000000) scale(0.100000,-0.100000)"
fill="#000000" stroke="none">
<path d="M7380 9882 c0 -13 -14 -24 -41 -35 -34 -13 -40 -20 -34 -36 3 -11 1
-58 -6 -103 -8 -61 -17 -90 -34 -108 -36 -39 -85 -125 -85 -149 0 -13 6 -21
18 -21 20 -1 57 -26 45 -31 -5 -2 -23 -23 -41 -46 -33 -43 -34 -43 -19 -85 13
-40 12 -45 -6 -70 -29 -40 -39 -120 -21 -164 10 -24 15 -64 13 -118 -1 -44 4
-94 10 -110 10 -24 7 -40 -14 -103 -17 -50 -25 -97 -25 -141 0 -90 -31 -175
-86 -232 -32 -33 -45 -56 -50 -88 -10 -61 -55 -127 -105 -153 -56 -28 -115
-20 -189 24 -30 19 -69 39 -86 46 -20 8 -36 25 -47 50 -25 56 -116 111 -182
111 -55 0 -82 16 -158 93 -86 87 -181 148 -244 155 -34 4 -46 10 -53 27 -5 14
-20 25 -39 28 -22 5 -36 16 -47 40 -12 26 -35 43 -110 81 -52 26 -99 56 -104
66 -15 28 4 74 80 190 71 110 88 157 51 145 -31 -9 -45 26 -28 68 15 36 46 60
90 71 24 6 27 4 27 -19 0 -37 27 -31 36 8 4 17 7 40 5 50 -1 9 11 34 27 55 16
20 39 56 51 79 21 42 21 42 2 53 -11 5 -27 10 -36 10 -9 0 -31 11 -49 25 l-32
24 -33 -20 c-32 -19 -32 -21 -16 -39 19 -21 14 -50 -8 -50 -16 0 -41 26 -50
52 -5 15 -11 16 -32 8 -39 -15 -47 -13 -35 9 5 11 10 23 10 26 0 14 -86 -8
-102 -26 -21 -25 -46 -24 -75 3 -18 17 -41 23 -101 28 -49 4 -107 18 -160 38
-59 23 -100 32 -142 32 -35 0 -63 5 -69 13 -6 6 -22 27 -37 45 -33 41 -79 44
-115 6 -23 -25 -23 -26 -6 -55 9 -17 17 -41 17 -55 0 -35 -63 -73 -141 -84
-107 -16 -136 -13 -161 15 -24 28 -44 31 -83 13 -16 -7 -25 -19 -25 -34 0 -17
-4 -21 -20 -17 -11 3 -36 2 -55 -1 -34 -7 -35 -9 -35 -51 0 -40 -2 -44 -30
-50 -17 -4 -30 -11 -30 -15 0 -5 -10 -18 -22 -30 -21 -19 -21 -21 -4 -56 9
-20 16 -37 14 -39 -37 -26 -56 -35 -73 -35 -16 0 -27 -13 -45 -56 -12 -31 -38
-76 -56 -100 -42 -55 -43 -89 -4 -134 33 -39 38 -60 14 -60 -16 0 -15 -19 3
-67 7 -17 6 -17 -22 1 -17 10 -42 30 -57 44 l-28 26 0 -28 c0 -23 -3 -26 -14
-17 -21 17 -117 44 -151 42 -33 -2 -75 -36 -75 -61 0 -17 -18 -40 -32 -40 -4
0 1 24 12 53 l21 52 -113 107 c-72 69 -125 111 -147 117 -19 6 -44 20 -57 32
-32 30 -65 18 -58 -20 5 -22 1 -31 -20 -44 -32 -22 -36 -21 -36 3 0 33 -48 27
-61 -7 -8 -19 -13 -23 -16 -13 -3 8 -6 21 -9 28 -3 10 -9 10 -24 2 -16 -9 -19
-15 -11 -24 8 -10 7 -17 -4 -26 -9 -7 -13 -21 -9 -34 2 -11 -1 -29 -9 -39 -12
-18 -15 -17 -45 17 -17 20 -33 36 -36 36 -2 0 -7 -15 -10 -33 -5 -29 -12 -36
-46 -46 -27 -8 -45 -21 -54 -40 -13 -25 -13 -30 4 -47 10 -10 21 -29 25 -42 6
-20 4 -21 -20 -12 -55 21 -105 0 -105 -43 0 -9 -5 -17 -11 -17 -6 0 -33 -10
-61 -22 l-50 -22 6 -80 c4 -53 3 -93 -5 -116 -16 -46 -14 -45 -45 -21 -32 25
-52 27 -61 5 -5 -13 -9 -12 -28 6 -18 17 -30 20 -54 15 -32 -7 -39 -19 -20
-31 6 -4 8 -20 4 -40 -5 -30 -1 -40 29 -76 37 -43 46 -68 23 -68 -8 0 -24 -11
-37 -25 -17 -18 -21 -31 -17 -55 4 -16 5 -30 3 -30 -8 0 -104 158 -129 214
-16 35 -31 56 -36 50 -5 -5 -25 -29 -45 -53 -20 -24 -53 -56 -74 -71 -59 -43
-84 -134 -65 -243 4 -26 10 -36 19 -33 8 3 18 -3 24 -13 8 -16 -4 -29 -87 -92
-93 -72 -96 -76 -127 -152 -41 -99 -82 -140 -212 -210 -117 -64 -174 -78 -299
-75 -100 2 -172 -20 -160 -50 8 -22 -13 -32 -68 -32 -58 0 -102 -17 -162 -64
-62 -47 -130 -57 -180 -26 -32 20 -36 20 -57 6 -30 -21 -38 -20 -38 7 -1 20
-4 19 -35 -15 -24 -25 -49 -41 -77 -47 -27 -6 -56 -24 -87 -54 -101 -97 -187
-157 -262 -182 -92 -32 -119 -57 -149 -145 -20 -58 -28 -70 -46 -70 -17 0 -23
8 -28 41 -4 22 -4 63 0 90 6 47 6 49 -18 49 -22 0 -30 -11 -62 -80 -49 -108
-51 -125 -27 -188 18 -45 20 -66 15 -135 -6 -77 -9 -86 -55 -154 -34 -50 -49
-81 -49 -105 0 -91 118 -353 211 -467 26 -32 27 -35 14 -71 -8 -21 -20 -50
-27 -64 l-13 -26 -24 51 c-19 39 -29 49 -43 46 -14 -4 -18 1 -18 19 0 32 -26
84 -54 106 -29 24 -36 22 -36 -9 0 -57 20 -102 61 -137 36 -30 40 -38 37 -72
-5 -64 -32 -57 -69 19 -34 69 -69 103 -69 68 0 -11 -6 -21 -12 -24 -10 -4 -10
-7 -1 -18 7 -7 13 -21 13 -31 0 -11 21 -45 48 -76 26 -32 72 -95 102 -142 53
-81 55 -87 66 -182 11 -99 11 -99 57 -146 48 -50 79 -122 51 -122 -21 0 -18
-6 42 -83 l56 -72 -6 -113 c-5 -110 -5 -115 34 -241 28 -89 59 -162 101 -237
68 -123 78 -170 61 -319 -7 -69 -10 -76 -19 -55 -8 18 -10 -12 -9 -120 1 -158
-11 -220 -44 -220 -9 0 -37 7 -60 15 -23 8 -45 15 -48 15 -5 0 6 -166 14 -210
5 -24 12 -29 51 -35 54 -8 122 -54 176 -119 21 -25 43 -46 48 -46 6 0 43 -14
82 -31 65 -29 78 -31 143 -26 40 3 91 1 115 -4 26 -6 46 -6 52 0 5 5 21 6 40
0 20 -5 35 -5 41 1 6 6 23 10 38 10 16 0 31 7 34 15 4 9 19 15 35 15 26 0 28
2 19 19 -16 30 -13 38 21 52 18 7 45 24 62 38 22 19 43 26 76 27 64 2 124 32
117 58 -3 11 3 28 14 40 11 12 28 32 38 46 19 23 21 24 71 12 75 -17 115 -15
144 8 18 14 40 20 79 20 30 0 59 5 66 12 9 9 28 8 82 -1 39 -7 87 -10 106 -7
26 5 36 3 41 -9 4 -12 12 -15 27 -10 11 4 66 9 121 11 82 4 102 2 111 -11 9
-12 17 -13 38 -5 15 5 37 10 50 10 41 0 102 64 130 138 40 104 57 126 112 146
27 9 65 25 84 36 78 43 195 100 204 100 6 0 22 16 36 35 38 53 78 62 187 38
l89 -19 170 46 c121 33 197 61 270 97 l100 51 105 1 c66 0 122 6 154 16 38 11
72 14 141 9 76 -5 96 -4 115 10 13 9 43 16 67 16 38 0 52 -7 115 -58 120 -97
119 -97 189 -77 l59 16 70 -44 69 -45 50 16 50 16 31 -30 c25 -24 30 -35 27
-66 -2 -21 -2 -38 1 -38 2 0 19 9 37 21 26 16 35 18 38 7 2 -7 9 -28 15 -47
10 -31 9 -33 -10 -28 -19 5 -21 3 -15 -25 3 -17 6 -37 6 -44 0 -7 41 -46 91
-86 73 -59 90 -77 86 -95 -3 -16 11 -36 55 -80 50 -50 58 -62 53 -85 -4 -17
-1 -36 9 -50 9 -12 16 -38 16 -56 0 -29 -3 -34 -20 -29 -25 6 -19 -4 42 -74
44 -49 49 -52 75 -43 25 9 28 14 28 58 0 53 26 86 52 65 10 -9 15 -6 22 12 42
111 80 152 186 199 65 29 81 41 84 60 1 14 18 42 37 62 19 21 34 47 34 57 0
11 5 23 11 26 6 4 23 25 39 47 23 31 27 46 23 74 -4 21 -2 34 5 34 16 0 34
-38 27 -59 -3 -10 1 -34 10 -54 19 -45 19 -44 -5 -50 -22 -6 -24 -19 -10 -87
l8 -45 -53 -53 -54 -54 -13 -141 c-11 -112 -16 -141 -27 -139 -8 2 -31 0 -51
-3 -29 -5 -40 -13 -53 -41 -26 -55 -23 -67 16 -58 17 5 65 7 105 6 l72 -3 0
27 c0 15 11 42 25 60 18 23 27 51 32 93 3 34 9 61 13 61 4 0 11 16 14 35 4 19
11 35 16 35 20 0 74 -117 91 -198 l17 -85 -33 -46 c-45 -64 -68 -111 -54 -111
6 0 24 -14 39 -30 26 -28 30 -29 44 -14 9 8 16 24 16 35 0 29 26 34 84 16 64
-21 118 -75 176 -177 35 -62 43 -87 48 -142 3 -42 0 -79 -8 -97 -11 -28 -9
-36 30 -108 39 -73 142 -220 164 -235 6 -4 40 -15 76 -24 77 -21 150 -66 150
-94 0 -31 48 -27 60 5 8 21 14 24 42 18 18 -3 46 -15 62 -26 20 -14 42 -20 71
-18 36 1 46 -3 67 -27 18 -22 37 -31 73 -36 34 -6 54 -15 67 -32 11 -13 26
-24 35 -24 8 0 28 -8 44 -17 30 -18 36 -16 51 18 8 17 197 151 223 157 36 10
50 52 17 52 -10 0 -22 3 -25 7 -11 10 65 52 94 53 23 0 28 -6 37 -40 l10 -40
-45 -32 c-50 -34 -50 -34 34 -63 57 -20 70 -17 54 13 -16 30 -3 62 25 62 29 0
40 -21 26 -47 -15 -26 9 -64 57 -91 23 -13 41 -28 41 -34 0 -6 7 -20 16 -29
13 -14 21 -16 35 -8 21 11 39 5 39 -14 0 -7 9 -23 20 -37 20 -24 21 -25 35 -6
8 11 15 34 15 51 0 44 21 68 92 108 35 20 116 83 181 140 117 103 120 104 179
111 86 9 188 8 223 -3 52 -14 144 30 183 88 36 52 42 96 24 176 -10 45 -9 52
8 65 15 12 23 41 35 140 17 141 54 254 109 329 39 54 56 100 56 151 0 55 25
116 67 164 37 42 63 109 63 161 0 13 26 71 58 129 44 80 69 113 109 144 60 48
183 214 183 249 0 13 11 33 25 45 18 16 25 32 25 58 0 20 4 40 9 45 16 17 42
178 31 189 -15 15 -11 88 5 110 8 11 15 30 15 43 0 12 14 65 30 116 18 56 30
116 30 147 0 64 12 105 51 183 17 31 25 57 19 57 -5 0 -10 15 -10 33 0 49 -59
257 -81 285 -10 14 -19 29 -19 34 0 5 -10 18 -22 28 -19 15 -21 21 -10 31 15
16 18 384 3 374 -9 -5 -31 52 -31 80 0 6 -5 27 -11 48 -7 27 -15 37 -30 37
-12 0 -34 9 -50 20 -24 18 -29 30 -35 80 -5 47 -10 60 -23 60 -25 0 -97 80
-111 122 -14 44 -56 81 -84 74 -23 -6 -120 65 -164 122 -29 36 -31 44 -38 163
-5 105 -10 127 -27 147 -27 29 -37 28 -37 -3 0 -14 -3 -25 -6 -25 -21 0 -73
45 -92 79 -17 30 -27 38 -42 34 -16 -4 -20 -14 -20 -51 l0 -46 -55 54 c-53 53
-55 56 -55 110 0 60 -22 133 -48 165 -10 11 -26 38 -37 59 -11 21 -41 57 -67
80 -54 46 -64 76 -23 68 14 -2 25 -1 25 2 0 15 -41 86 -49 86 -5 0 -23 12 -40
26 -24 20 -31 22 -31 10 0 -26 -34 -18 -51 13 -12 20 -27 30 -53 35 -26 5 -40
15 -48 31 -8 17 -15 22 -23 15 -8 -7 -18 4 -33 35 -20 41 -25 45 -57 45 -28 0
-43 7 -66 32 l-29 32 0 -28 0 -28 -47 35 c-27 19 -58 37 -70 41 -33 10 -57 55
-54 103 2 36 -3 48 -34 81 -39 44 -42 64 -25 167 9 53 7 66 -15 121 -14 34
-25 74 -25 88 0 20 -6 25 -27 28 -20 2 -29 9 -31 24 -2 12 -14 32 -28 45 -16
15 -24 33 -24 58 0 45 -18 143 -36 201 -8 25 -14 59 -14 77 0 17 -5 35 -11 38
-7 5 -5 15 5 31 18 26 20 38 7 29 -5 -3 -32 17 -60 44 -27 27 -62 51 -76 55
-14 4 -29 14 -32 24 -28 79 -32 86 -51 69 -10 -10 -27 -14 -39 -11 -16 4 -26
-1 -38 -20 -12 -18 -26 -26 -46 -26 -33 0 -49 24 -68 103 -6 27 -18 59 -26 71
-12 18 -13 28 -3 53 9 24 9 38 1 55 -7 13 -14 48 -16 78 -2 30 -10 56 -16 58
-6 2 -11 17 -11 33 0 19 -11 39 -34 62 -44 45 -53 73 -30 98 22 24 8 55 -24
52 -23 -3 -33 18 -57 117 -33 132 -35 139 -56 145 -15 5 -17 10 -10 19 14 16
4 26 -26 26 -16 0 -23 -6 -23 -18z"/>
<path d="M7968 1199 l3 -122 54 -72 c56 -77 69 -99 109 -188 l25 -57 -29 15
c-16 8 -31 15 -34 15 -2 0 15 -54 38 -120 37 -106 48 -127 93 -173 28 -29 62
-74 76 -101 l24 -49 64 2 c35 1 78 -3 95 -8 24 -7 35 -5 45 5 8 7 32 20 54 27
28 10 41 20 43 36 3 19 0 21 -25 15 l-28 -6 30 26 c17 14 35 25 41 26 6 0 9
13 6 31 -3 23 1 34 17 45 11 8 21 24 21 35 0 23 4 23 35 3 23 -15 23 -16 7
-44 -16 -28 -16 -30 8 -55 l25 -26 18 23 c15 18 18 32 13 67 -8 55 10 201 30
259 13 34 20 42 41 42 l25 0 -7 188 -7 187 -36 38 c-20 20 -41 37 -48 37 -6 0
-41 -13 -77 -30 -51 -23 -81 -30 -127 -30 -39 0 -69 -6 -86 -16 -14 -9 -50
-23 -80 -30 l-55 -12 -119 54 c-110 50 -216 83 -265 84 -19 0 -20 -6 -17 -121z"/>
</g>
</svg>
