<?xml version="1.0" standalone="no"?>
<!DOCTYPE svg PUBLIC "-//W3C//DTD SVG 20010904//EN"
 "http://www.w3.org/TR/2001/REC-SVG-20010904/DTD/svg10.dtd">
<svg version="1.0" xmlns="http://www.w3.org/2000/svg"
 width="1024.000000pt" height="1024.000000pt" viewBox="0 0 1024.000000 1024.000000"
 preserveAspectRatio="xMidYMid meet">
<metadata>
Created by potrace 1.10, written by Peter Selinger 2001-2011
</metadata>
<g transform="translate(0.000000,1024.000000) scale(0.100000,-0.100000)"
fill="#000000" stroke="none">
<path d="M2580 8525 c-26 -19 -47 -25 -85 -25 -55 0 -73 -13 -124 -88 -26 -37
-87 -72 -145 -83 -33 -6 -45 -3 -70 16 -64 47 -142 40 -148 -13 -2 -19 -14
-33 -39 -46 l-35 -19 -130 33 c-71 18 -154 35 -184 39 -30 4 -77 19 -105 33
-27 14 -97 45 -154 68 -114 47 -125 48 -361 32 -84 -6 -95 -9 -99 -27 -7 -37
-61 -51 -61 -16 0 28 -13 33 -38 15 -14 -10 -22 -26 -22 -45 0 -41 -12 -61
-81 -131 -53 -54 -63 -60 -89 -54 -24 4 -33 1 -45 -17 -8 -12 -37 -40 -65 -61
-39 -30 -50 -44 -50 -67 0 -26 2 -28 26 -19 43 17 70 3 88 -45 15 -38 15 -47
3 -78 -8 -19 -25 -41 -37 -50 -19 -13 -21 -21 -15 -54 3 -21 18 -50 32 -65 26
-27 26 -28 10 -68 -11 -30 -13 -49 -6 -73 5 -17 9 -52 9 -76 0 -33 6 -49 26
-70 14 -14 42 -48 61 -75 33 -45 36 -56 40 -135 2 -50 11 -99 20 -118 13 -27
14 -41 4 -89 -6 -32 -11 -88 -11 -126 0 -68 0 -68 -25 -62 -19 5 -38 -4 -87
-40 -34 -25 -72 -46 -85 -46 -28 0 -28 5 -1 -86 18 -64 25 -75 47 -81 14 -3
53 -29 86 -58 96 -83 134 -105 182 -105 l43 0 0 -40 c0 -26 -6 -42 -17 -48
-12 -7 -15 -18 -10 -47 4 -25 1 -48 -10 -69 -9 -17 -19 -44 -23 -61 -5 -24
-13 -32 -47 -41 -62 -18 -93 -42 -93 -73 0 -66 -141 -226 -247 -279 -23 -12
-44 -26 -48 -32 -3 -5 -3 -32 1 -59 l6 -49 47 -9 c45 -8 46 -9 61 -60 12 -44
19 -53 43 -59 24 -5 36 -21 75 -100 l47 -94 -22 -131 c-13 -71 -30 -147 -40
-167 -10 -20 -57 -76 -105 -123 -48 -48 -88 -90 -88 -93 0 -4 7 -23 15 -43 15
-34 14 -38 -3 -56 -25 -24 -126 -30 -160 -9 -21 14 -24 13 -38 -6 -12 -17 -21
-20 -52 -15 -20 3 -45 12 -56 19 -16 11 -24 9 -57 -18 -35 -28 -39 -36 -39
-78 0 -42 8 -60 65 -146 36 -55 65 -109 65 -120 0 -12 -7 -45 -16 -73 -17 -50
-17 -51 9 -84 17 -22 42 -39 79 -52 45 -15 60 -26 83 -63 20 -32 41 -49 74
-63 25 -11 55 -30 66 -44 11 -13 80 -53 153 -89 72 -36 132 -67 132 -70 0 -22
-69 -152 -128 -238 -39 -59 -72 -118 -72 -130 0 -13 -9 -29 -20 -36 -15 -9
-20 -23 -20 -52 0 -40 0 -40 38 -40 33 0 40 -4 54 -33 9 -18 21 -60 28 -92 7
-33 18 -72 26 -87 15 -28 11 -48 -16 -88 -10 -14 -21 -39 -24 -56 -7 -30 -3
-35 61 -89 37 -32 97 -84 132 -116 l63 -58 -6 -48 c-4 -26 -9 -73 -12 -104
l-6 -57 41 -28 c51 -37 81 -90 81 -143 0 -38 -3 -43 -34 -56 -22 -10 -37 -25
-44 -45 -6 -17 -18 -33 -27 -36 -8 -3 -15 -17 -15 -30 0 -32 33 -39 113 -26
155 27 171 26 229 -11 29 -19 80 -50 113 -68 l60 -35 3 -64 3 -65 68 -70 c38
-38 74 -80 80 -92 27 -52 104 -17 146 67 13 26 36 61 50 78 18 21 30 53 39
104 12 65 43 148 108 286 11 24 32 49 49 57 16 9 37 30 46 49 10 18 47 57 83
87 74 63 188 207 251 318 56 98 133 205 161 224 13 8 46 47 73 88 l50 73 -1
106 c-1 90 -5 114 -28 170 -14 35 -42 80 -61 100 -48 49 -53 80 -22 132 14 24
39 56 56 72 29 28 33 28 108 24 72 -4 83 -8 131 -43 28 -21 56 -51 61 -67 17
-47 47 -45 160 9 l101 48 21 55 c11 30 34 71 51 89 l31 35 15 -22 15 -23 32
31 c32 31 33 32 59 14 23 -14 33 -15 65 -5 21 6 56 11 78 11 30 0 45 6 65 28
50 54 61 79 54 126 -7 43 -6 46 25 62 27 13 51 15 128 11 132 -7 152 -16 201
-90 36 -55 40 -67 34 -103 -3 -23 -1 -51 5 -62 8 -15 7 -23 -3 -31 -17 -14
-49 -121 -44 -151 2 -17 14 -27 43 -37 22 -7 53 -27 70 -43 17 -17 41 -30 53
-30 15 0 22 -6 22 -20 0 -26 -35 -34 -111 -26 -58 7 -59 7 -59 -19 0 -38 35
-47 154 -39 113 7 187 24 261 62 45 23 66 26 220 32 129 6 186 4 237 -6 59
-12 79 -12 191 5 69 11 134 25 146 33 12 7 26 27 32 45 6 18 19 39 29 46 10 7
35 37 55 67 20 30 52 69 71 87 27 26 34 40 34 70 0 43 8 56 91 159 55 68 61
72 106 76 60 6 152 43 244 99 95 57 143 64 226 33 38 -15 85 -24 118 -24 97 0
259 -21 276 -36 9 -8 19 -33 23 -54 5 -35 10 -40 32 -40 14 0 34 -5 46 -11 11
-6 35 -8 53 -5 31 6 33 9 40 61 6 49 9 54 35 60 50 11 99 -4 115 -36 8 -15 15
-35 15 -43 0 -9 19 -25 41 -37 l42 -21 106 30 c93 27 127 31 280 36 l173 6 34
29 c40 35 75 43 279 57 l90 6 18 -30 c20 -35 57 -49 209 -81 128 -27 369 -30
422 -5 33 16 38 16 119 -10 47 -14 99 -26 116 -26 17 0 48 -11 69 -24 20 -14
55 -32 77 -41 53 -22 174 -174 194 -243 7 -26 23 -58 36 -72 13 -14 28 -44 34
-67 21 -78 29 -81 166 -74 67 4 126 11 133 15 7 4 12 32 12 72 0 57 5 75 50
165 l51 100 -7 89 -7 89 37 6 c26 5 43 3 61 -9 33 -22 178 -56 237 -56 36 0
54 6 78 26 49 42 63 77 55 145 -8 65 -1 79 86 174 24 27 39 54 44 82 3 23 13
47 21 54 8 6 14 22 14 34 0 12 9 33 19 47 11 13 22 40 26 60 6 29 12 37 34 41
35 7 56 52 46 99 -21 103 -22 105 -87 137 -34 17 -68 31 -76 31 -8 0 -62 46
-121 103 -77 75 -126 113 -180 141 -40 21 -98 56 -128 77 -30 21 -71 43 -92
50 -50 16 -61 27 -61 59 0 21 -7 30 -30 40 -17 7 -33 22 -36 35 -3 13 -34 45
-67 71 -34 27 -98 80 -142 119 -44 39 -93 81 -110 92 -31 21 -133 57 -195 68
-61 11 -68 15 -80 44 -9 23 -20 30 -51 35 -22 4 -82 20 -134 36 -51 17 -106
29 -122 28 -15 -1 -40 6 -55 16 -26 17 -27 17 -49 -13 -18 -25 -30 -31 -61
-31 -36 0 -37 -1 -32 -30 l6 -30 -51 0 c-29 0 -74 -7 -102 -16 -27 -9 -60 -13
-74 -10 -24 6 -68 46 -133 121 -36 43 -51 41 -32 -5 17 -41 6 -51 -68 -67 -84
-17 -100 -16 -138 14 -26 19 -51 28 -92 31 -41 3 -64 11 -82 27 -39 35 -114
57 -157 46 -26 -7 -41 -7 -57 3 -11 8 -33 16 -48 20 -25 6 -27 9 -17 33 9 25
6 30 -28 60 -73 64 -78 66 -120 52 -21 -7 -60 -13 -87 -14 -57 0 -80 -25 -24
-26 18 0 41 -4 50 -7 17 -7 16 -9 -2 -40 l-21 -33 -30 25 c-23 20 -42 26 -77
26 -26 0 -65 5 -87 11 -32 9 -55 8 -116 -6 -72 -17 -80 -17 -118 -1 -23 9 -57
16 -76 16 -34 0 -35 1 -35 38 0 20 9 51 20 67 17 25 20 47 20 133 l0 102 168
0 c145 0 179 -4 261 -25 107 -28 214 -32 349 -13 78 10 88 10 148 -12 56 -19
75 -21 149 -15 79 6 85 8 85 29 0 29 48 104 102 158 37 37 95 145 84 156 -2 2
-38 6 -80 9 -70 5 -79 4 -101 -17 -21 -20 -28 -22 -50 -12 -41 19 -42 56 -3
105 55 66 61 82 39 101 -9 9 -21 16 -25 16 -4 0 -31 -22 -59 -49 -32 -30 -74
-58 -107 -71 -73 -27 -98 -50 -102 -91 -3 -38 -33 -52 -53 -26 -25 35 -186 87
-329 108 -177 26 -240 18 -297 -37 -36 -35 -38 -36 -135 -41 -77 -4 -108 -10
-139 -28 -74 -41 -128 -48 -213 -28 -66 15 -77 21 -97 53 -13 19 -44 54 -69
77 -57 54 -107 139 -99 170 4 19 -4 32 -41 66 -36 34 -46 50 -46 75 0 17 -14
59 -32 92 -29 56 -30 61 -15 78 28 30 20 57 -23 87 -35 24 -40 33 -40 67 0 21
8 55 19 76 12 24 20 67 23 120 l5 83 -58 53 c-68 63 -135 98 -187 98 -20 -1
-83 -5 -140 -11 -123 -12 -156 -29 -175 -86 -13 -38 -17 -41 -73 -54 -96 -23
-235 -19 -325 11 -52 17 -82 22 -98 16 -28 -10 -103 10 -223 59 l-88 36 -51
102 c-57 115 -71 131 -149 170 -52 26 -59 27 -152 21 -90 -6 -102 -9 -154 -42
-56 -36 -59 -36 -128 -30 -39 4 -75 11 -80 16 -6 6 -25 10 -43 10 -44 0 -86
22 -152 81 -80 71 -157 109 -223 109 l-53 0 -82 83 c-44 45 -84 93 -88 107
-10 33 -22 40 -72 40 -37 0 -44 -4 -58 -30 l-16 -30 -39 20 c-52 26 -97 26
-105 0 -8 -25 -35 -26 -42 -2 -3 12 -27 26 -72 40 -82 27 -78 27 -121 -3z"/>
<path d="M9030 3520 c-52 -12 -48 -103 5 -116 13 -3 26 -19 34 -39 10 -28 20
-37 54 -46 23 -6 66 -20 94 -31 l53 -20 26 31 26 31 127 0 c123 0 128 -1 151
-25 12 -13 27 -22 31 -19 5 3 9 30 9 60 0 50 -2 56 -31 73 -46 28 -90 33 -139
16 -66 -23 -115 -20 -137 10 -16 23 -21 24 -55 15 -34 -10 -47 -7 -130 28 -63
26 -101 36 -118 32z"/>
</g>
</svg>
