<?xml version="1.0" standalone="no"?>
<!DOCTYPE svg PUBLIC "-//W3C//DTD SVG 20010904//EN"
 "http://www.w3.org/TR/2001/REC-SVG-20010904/DTD/svg10.dtd">
<svg version="1.0" xmlns="http://www.w3.org/2000/svg"
 width="1024.000000pt" height="1024.000000pt" viewBox="0 0 1024.000000 1024.000000"
 preserveAspectRatio="xMidYMid meet">
<metadata>
Created by potrace 1.10, written by Peter Selinger 2001-2011
</metadata>
<g transform="translate(0.000000,1024.000000) scale(0.100000,-0.100000)"
fill="#000000" stroke="none">
<path d="M8231 10198 c-21 -24 -42 -38 -57 -38 -37 0 -86 -24 -112 -54 -24
-29 -110 -84 -157 -102 -159 -61 -199 -74 -219 -74 -12 0 -33 -11 -46 -25 -13
-13 -46 -37 -74 -52 -47 -26 -60 -28 -167 -28 -110 0 -118 -2 -156 -28 -21
-15 -51 -27 -67 -27 -37 0 -78 -23 -110 -61 -38 -45 -84 -43 -130 6 -41 44
-79 55 -196 60 -102 4 -113 -2 -150 -85 -24 -55 -34 -66 -86 -96 -56 -32 -64
-34 -149 -32 -59 0 -98 6 -114 15 -15 10 -35 13 -57 8 -19 -3 -43 -1 -54 5
-15 8 -25 8 -34 1 -13 -11 -49 -9 -86 7 -22 9 -29 6 -57 -24 -54 -58 -136 -82
-164 -48 -11 14 -27 15 -106 9 l-93 -7 0 25 c0 35 -17 77 -31 77 -7 0 -21 8
-31 17 -11 10 -31 18 -46 19 -18 1 -26 6 -24 16 3 21 -16 34 -60 42 -31 6 -39
3 -48 -14 -6 -11 -21 -22 -33 -25 -13 -4 -27 -16 -32 -28 -17 -38 -61 -52
-125 -39 -31 7 -117 12 -192 12 l-136 0 -7 -67 c-7 -79 -24 -152 -38 -171 -6
-8 -13 -32 -16 -55 -4 -28 -13 -45 -26 -52 -11 -5 -30 -19 -41 -30 -11 -11
-29 -25 -39 -30 -15 -9 -16 -14 -6 -33 8 -16 9 -28 1 -41 -5 -11 -10 -33 -10
-48 0 -16 -5 -34 -11 -40 -9 -9 -5 -20 15 -43 14 -17 26 -40 26 -50 0 -11 5
-30 12 -44 9 -21 7 -41 -11 -106 -19 -72 -20 -83 -7 -114 10 -25 13 -57 9
-116 -5 -72 -4 -84 16 -110 11 -16 21 -38 21 -50 0 -11 73 -113 162 -227 89
-115 175 -232 191 -262 15 -30 68 -106 118 -169 l89 -116 0 -63 c0 -36 5 -73
10 -83 8 -15 3 -34 -23 -87 l-34 -68 14 -65 c17 -77 11 -186 -13 -250 -11 -29
-18 -81 -20 -145 l-2 -100 -57 -29 c-48 -25 -69 -30 -136 -31 -43 -1 -83 -5
-87 -11 -14 -15 -30 -64 -47 -146 -10 -47 -22 -78 -29 -78 -7 0 -20 -8 -28
-17 -19 -22 -10 -52 25 -80 32 -24 43 -79 27 -128 -8 -25 -9 -40 -1 -48 6 -8
6 -18 1 -27 -6 -8 -10 -30 -10 -47 0 -36 -13 -40 -78 -27 -24 5 -31 13 -36 37
-5 26 -1 36 29 67 19 20 35 41 35 48 0 15 -46 45 -59 38 -14 -9 -41 4 -41 20
0 8 -11 19 -24 24 -27 10 -56 46 -56 70 0 8 -32 47 -70 87 -39 40 -70 79 -70
86 0 19 -30 45 -67 58 -26 9 -33 18 -43 59 -10 41 -9 52 4 73 21 31 15 45 -39
86 -37 27 -45 39 -45 65 0 26 7 35 41 54 49 28 85 97 75 144 -6 33 7 66 36 86
10 7 18 19 18 26 0 7 9 21 21 32 16 15 20 27 16 59 -2 22 0 66 6 98 6 38 6 61
-1 70 -9 11 -14 64 -14 168 0 42 -5 51 -62 114 -61 67 -64 69 -90 57 -15 -6
-46 -12 -70 -12 -26 0 -48 -6 -56 -15 -8 -10 -17 -12 -29 -6 -19 11 -83 -9
-110 -33 -17 -15 -19 -15 -24 -1 -11 27 -43 18 -53 -17 -11 -39 -30 -47 -39
-16 -4 13 -26 43 -50 68 -23 25 -50 68 -60 95 -10 28 -31 65 -47 83 -15 18
-28 43 -28 56 0 13 -9 31 -20 41 -21 19 -66 16 -124 -11 -17 -7 -189 -54 -383
-104 -276 -71 -363 -97 -400 -120 -26 -17 -58 -30 -72 -30 -29 0 -51 -11 -108
-52 -32 -23 -71 -34 -233 -64 -194 -36 -196 -37 -382 -121 -183 -83 -188 -86
-194 -119 -7 -40 6 -78 54 -150 27 -42 32 -58 27 -85 -3 -19 -6 -43 -5 -54 1
-11 4 -81 8 -155 l7 -135 136 -3 c119 -2 139 -5 153 -21 17 -19 18 -19 53 5
25 17 50 24 83 24 43 0 52 -4 102 -53 47 -45 65 -55 127 -71 56 -15 85 -29
124 -63 29 -24 55 -53 59 -64 12 -31 84 -56 183 -64 77 -5 105 -13 193 -52
l102 -46 0 -37 c0 -37 1 -37 46 -44 26 -3 62 -6 80 -6 19 0 34 -2 34 -5 0 -19
-58 -116 -72 -121 -18 -5 -18 -7 2 -39 11 -18 27 -70 35 -114 8 -44 19 -90 25
-102 9 -16 8 -24 -3 -37 -30 -37 -39 -76 -23 -112 17 -43 2 -148 -25 -167 -13
-9 -15 -23 -12 -55 3 -24 0 -54 -5 -68 -7 -19 -5 -37 9 -73 11 -26 19 -58 19
-70 0 -12 7 -35 15 -50 13 -26 13 -31 0 -50 -8 -12 -15 -30 -15 -40 0 -10 -5
-15 -11 -12 -13 9 -66 -13 -73 -30 -2 -7 7 -35 21 -62 26 -48 26 -49 8 -76
-13 -20 -25 -27 -51 -27 -49 0 -86 -19 -82 -44 2 -12 -4 -26 -12 -33 -24 -19
1 -49 39 -45 27 2 31 -1 31 -22 0 -14 4 -27 10 -31 5 -3 6 -15 1 -28 -5 -12
-12 -45 -16 -74 -4 -30 -14 -58 -25 -68 -10 -9 -22 -31 -25 -47 -6 -24 -2 -35
20 -58 22 -23 25 -34 20 -61 -5 -32 -3 -36 49 -71 54 -37 54 -38 45 -75 -4
-21 -11 -59 -14 -85 -4 -32 -12 -49 -23 -53 -39 -13 -84 -62 -88 -95 -2 -19
-8 -36 -12 -39 -5 -3 -34 -40 -65 -83 -41 -55 -64 -78 -85 -83 -16 -3 -41 -19
-56 -34 l-27 -28 11 -82 11 -81 -51 -62 c-27 -35 -50 -69 -50 -76 0 -7 11 -35
25 -62 24 -48 25 -50 5 -50 -12 0 -91 -67 -202 -172 -101 -95 -267 -251 -371
-347 -216 -200 -197 -154 -172 -401 17 -172 19 -311 5 -362 -10 -34 -7 -46 23
-111 25 -54 36 -95 42 -153 7 -77 8 -80 51 -119 l44 -41 0 -82 c0 -59 5 -92
17 -115 21 -40 19 -109 -7 -307 -11 -80 -29 -226 -40 -325 -12 -99 -30 -204
-41 -235 -26 -74 -18 -131 24 -166 l30 -25 -8 -87 c-9 -98 -9 -136 2 -311 10
-157 -1 -150 234 -157 l156 -4 32 70 c18 41 31 87 31 111 0 64 38 269 60 321
25 58 25 58 0 58 -26 0 -54 -45 -53 -86 1 -42 -7 -43 -29 -4 -11 19 -28 33
-47 36 -24 5 -30 12 -35 46 -4 22 -13 50 -22 63 -14 22 -13 25 20 58 24 24 33
41 29 55 -3 11 -1 28 5 38 9 15 11 14 25 -12 l15 -29 7 30 c23 111 42 136 147
199 124 72 439 199 648 260 348 102 587 182 665 224 56 30 80 51 125 109 30
39 67 81 83 93 39 31 87 104 87 135 0 15 12 46 26 70 17 29 24 55 22 77 -4 41
-33 51 -42 14 -8 -31 -23 -34 -28 -6 -5 35 -22 27 -30 -15 -11 -56 -16 -67
-27 -61 -5 4 -3 28 6 59 8 28 18 68 23 87 5 25 8 28 9 12 2 -45 21 -10 21 39
0 36 10 74 35 130 21 49 35 96 35 121 0 32 10 54 45 105 51 72 58 89 34 85
-23 -3 -29 26 -29 134 0 59 5 104 15 128 8 20 18 69 21 109 5 59 3 80 -11 107
l-18 34 -28 -32 c-48 -54 -56 -45 -55 66 0 53 -1 117 -3 142 -1 25 0 62 4 82
6 30 2 47 -20 85 -25 45 -26 54 -21 138 l5 90 -15 -48 c-8 -26 -19 -45 -25
-42 -13 8 -11 35 2 35 13 0 2 62 -13 71 -5 3 4 20 21 37 37 36 41 57 9 48 -13
-3 -41 -8 -63 -11 l-40 -6 42 18 c23 10 47 23 52 28 15 16 -16 166 -39 190
-20 19 -20 19 -20 -2 0 -12 -8 -23 -20 -26 -16 -4 -20 0 -20 22 0 17 -11 39
-30 57 -16 16 -30 39 -30 52 0 13 -4 21 -9 18 -13 -8 -23 24 -12 38 5 6 18 34
29 62 19 48 20 52 4 69 -16 16 -15 17 15 10 26 -5 33 -3 33 9 0 8 -5 18 -11
22 -7 4 -8 21 -5 43 4 20 8 46 10 58 1 13 10 31 20 42 16 18 16 20 -9 49 -38
45 -30 49 16 7 37 -33 45 -36 78 -30 47 9 154 68 210 117 24 21 47 38 52 38 4
0 11 9 14 20 3 11 12 20 20 20 7 0 58 45 112 100 54 56 122 117 151 137 28 20
52 39 52 43 0 4 26 15 58 25 31 11 65 28 74 40 12 13 18 15 18 6 0 -10 9 -12
35 -8 39 6 43 2 18 -26 -17 -18 -17 -19 7 -16 17 3 26 11 28 27 4 24 22 31 22
7 0 -24 14 -17 34 15 9 17 16 43 15 58 -3 26 25 82 41 82 13 0 310 284 310
296 0 3 -10 3 -22 -1 -23 -6 -23 -6 1 13 13 11 31 18 40 15 9 -2 23 8 33 24
82 131 109 168 132 180 25 13 29 21 27 53 0 10 1 11 5 3 7 -17 31 -17 41 0 4
6 35 25 68 41 33 16 67 33 75 37 8 5 22 12 30 15 48 20 120 58 149 79 19 14
44 25 56 25 12 0 45 7 73 15 46 14 52 19 52 43 0 38 16 60 23 33 6 -25 29 -27
100 -7 29 8 64 17 79 20 16 4 27 12 25 18 -1 8 17 13 53 15 36 2 59 8 67 18 7
11 13 12 18 6 9 -16 76 -13 105 4 14 8 43 15 65 15 50 0 75 14 58 31 -10 10
-9 17 4 31 9 10 20 18 25 18 5 0 22 10 38 21 23 18 26 25 18 39 -12 19 -3 70
12 70 5 0 7 -13 4 -29 -3 -16 -2 -31 3 -34 13 -8 143 49 172 76 14 13 58 41
96 61 85 46 91 51 78 68 -6 7 -13 32 -16 56 -5 39 -4 42 19 42 14 0 27 7 30
15 8 19 19 19 38 0 21 -21 37 -11 69 43 15 26 37 62 49 81 22 34 13 35 -24 3
-10 -8 -18 -10 -18 -4 0 5 17 23 39 39 63 47 172 146 184 169 7 12 36 40 65
63 36 29 52 49 52 65 0 14 10 30 25 40 45 29 63 113 32 144 -10 9 -17 11 -17
5 0 -14 -26 -24 -44 -17 -8 3 -12 12 -9 20 6 17 80 50 101 46 17 -4 15 39 -4
66 -8 12 -11 22 -6 22 6 0 12 -6 15 -14 4 -11 67 -30 67 -20 0 18 -27 54 -41
54 -35 0 -28 18 10 24 55 9 80 33 83 81 1 22 -4 50 -10 61 -9 18 -9 24 3 34
15 12 21 50 8 50 -3 0 -15 -7 -25 -17 -11 -10 -18 -12 -18 -4 0 6 11 17 25 23
21 9 25 18 23 42 -4 42 -39 48 -65 11 -10 -14 -26 -36 -36 -48 -18 -22 -18
-22 -11 13 4 19 7 46 6 58 -2 18 6 27 28 35 30 11 35 23 30 77 -3 36 -21 42
-47 18 -20 -18 -23 -19 -23 -5 0 9 -7 17 -15 17 -22 0 -18 27 5 40 11 6 19 14
18 18 -1 4 4 20 11 36 8 19 8 33 2 39 -6 6 -4 18 6 33 12 19 13 30 5 52 -6 15
-14 59 -17 98 -6 65 -5 73 14 86 20 14 20 15 -14 28 -19 8 -35 15 -35 17 0 1
14 25 30 51 27 45 30 57 30 134 0 53 6 99 15 121 23 57 20 69 -17 65 -26 -2
-32 -7 -30 -22 2 -10 -2 -22 -9 -27 -23 -14 -39 2 -39 42 0 40 0 40 55 43 11
1 21 9 23 20 5 25 24 44 38 39 17 -6 35 22 28 41 -4 10 -13 15 -20 12 -9 -3
-14 2 -14 13 0 10 8 22 17 25 13 6 14 9 5 15 -7 4 -14 25 -15 45 -2 35 -4 37
-28 32 -21 -4 -28 -1 -32 15 -4 16 3 25 29 41 36 21 44 38 19 38 -10 0 -15 10
-15 30 0 17 -7 33 -17 39 -10 5 -14 13 -10 17 5 5 12 2 16 -5 10 -16 17 -5 19
29 2 25 17 134 29 198 3 19 0 44 -6 56 -7 12 -11 26 -10 32 1 5 -1 16 -5 26
-4 9 -3 31 2 50 6 22 5 39 -2 50 -7 12 -6 24 3 45 31 64 33 72 27 88 -3 9 -10
14 -15 10 -6 -3 -19 2 -31 12 -21 19 -26 33 -10 33 5 0 20 11 34 25 14 14 33
25 42 25 12 0 15 6 12 24 -3 16 3 34 18 53 27 32 31 63 8 63 -11 0 -14 8 -12
32 2 24 12 38 35 53 18 11 32 25 33 31 0 11 -45 29 -62 26 -5 -1 -8 6 -8 16 0
22 39 42 83 42 l32 1 -28 20 c-19 15 -26 27 -22 40 5 14 1 19 -14 19 -11 0
-23 5 -26 10 -3 6 -1 10 4 10 6 0 11 11 11 25 0 15 -6 25 -14 25 -8 0 -16 3
-18 8 -1 4 -18 -9 -37 -30z"/>
</g>
</svg>
