<?xml version="1.0" standalone="no"?>
<!DOCTYPE svg PUBLIC "-//W3C//DTD SVG 20010904//EN"
 "http://www.w3.org/TR/2001/REC-SVG-20010904/DTD/svg10.dtd">
<svg version="1.0" xmlns="http://www.w3.org/2000/svg"
 width="1024.000000pt" height="1024.000000pt" viewBox="0 0 1024.000000 1024.000000"
 preserveAspectRatio="xMidYMid meet">
<metadata>
Created by potrace 1.10, written by Peter Selinger 2001-2011
</metadata>
<g transform="translate(0.000000,1024.000000) scale(0.100000,-0.100000)"
fill="#000000" stroke="none">
<path d="M7537 10205 c-18 -38 -58 -55 -82 -35 -21 17 -32 5 -27 -28 2 -16 -3
-50 -12 -76 l-16 -47 38 -77 c21 -42 54 -112 72 -155 32 -74 33 -79 21 -126
-9 -36 -10 -55 -2 -70 16 -29 14 -53 -9 -102 -16 -37 -20 -66 -20 -182 0 -138
0 -138 -27 -162 -16 -13 -40 -29 -55 -35 -14 -7 -32 -25 -39 -41 -17 -43 -5
-172 21 -214 40 -65 21 -141 -51 -193 -39 -29 -44 -30 -69 -17 -14 7 -32 20
-38 28 -14 16 -66 11 -82 -8 -14 -16 -74 11 -88 41 -12 25 -100 48 -119 32 -7
-6 -13 -7 -13 -3 0 13 -32 -19 -40 -40 -8 -21 13 -75 29 -75 5 0 25 -23 45
-50 l36 -51 -26 -24 c-14 -13 -39 -36 -55 -52 -17 -15 -33 -40 -36 -55 -5 -24
-10 -28 -39 -28 -26 0 -38 -6 -51 -27 -23 -36 -33 -43 -63 -43 -36 0 -77 -62
-63 -93 12 -26 2 -109 -16 -131 -18 -21 -3 -64 30 -83 16 -10 31 -25 34 -34 6
-18 58 -61 87 -72 9 -3 22 -25 28 -48 10 -37 8 -51 -19 -133 -17 -51 -31 -109
-31 -129 0 -51 28 -117 50 -117 10 0 30 -3 46 -6 25 -5 30 -2 41 25 7 20 18
31 30 31 39 0 58 26 58 77 0 42 3 49 28 61 15 7 37 26 48 42 18 24 25 27 46
19 13 -5 48 -9 76 -9 29 0 60 -7 70 -15 17 -12 23 -10 58 13 21 15 38 32 39
38 0 16 -65 64 -87 64 -22 0 -93 65 -93 85 0 8 -6 18 -13 22 -7 4 -21 21 -31
36 -16 27 -19 27 -35 13 -37 -33 -88 -15 -168 58 -88 80 4 225 131 206 46 -7
115 -54 164 -112 29 -34 39 -35 47 -5 11 34 46 67 71 67 13 0 29 8 36 18 7 9
45 39 83 65 63 42 76 47 126 47 39 0 63 -6 80 -18 13 -11 46 -27 73 -38 28
-10 83 -40 124 -66 110 -73 246 -138 286 -138 52 0 126 -36 179 -88 l47 -46 0
34 c0 19 7 58 16 85 9 31 13 66 9 92 -10 69 19 146 101 270 41 61 87 119 102
129 15 10 54 43 87 74 49 47 68 59 106 64 25 4 57 2 71 -3 14 -5 60 -7 102 -4
l76 6 0 34 c0 27 5 35 26 43 36 14 46 12 40 -7 -3 -10 -1 -24 3 -32 14 -21 76
24 96 69 13 28 26 39 68 54 29 10 67 21 85 23 27 4 37 13 57 54 18 35 37 54
65 69 41 21 50 35 28 42 -27 9 -61 -6 -108 -49 -39 -35 -54 -43 -72 -38 -34
11 -58 35 -58 59 0 12 -7 30 -15 40 -8 11 -18 41 -21 67 -5 40 -11 49 -35 59
-46 20 -61 52 -53 118 3 31 17 83 30 114 13 32 24 64 24 71 0 8 9 26 20 40 21
26 26 82 10 107 -7 12 -12 12 -28 -4 -11 -9 -26 -32 -33 -49 -7 -18 -39 -60
-71 -94 -32 -34 -58 -66 -58 -72 0 -5 -19 -23 -42 -39 -42 -29 -45 -29 -128
-22 -103 9 -116 14 -136 51 -18 35 -29 37 -39 7 -8 -22 -8 -22 -12 4 -5 29 -9
32 -97 47 -80 15 -82 14 -55 -9 l24 -19 -36 -1 c-34 0 -69 23 -69 46 0 5 -27
19 -61 32 -108 42 -274 158 -391 274 -60 58 -108 112 -108 120 0 25 -89 145
-123 167 -18 11 -56 44 -84 73 -28 29 -75 74 -105 100 l-55 47 -16 -34z"/>
<path d="M7136 10143 c9 -49 22 -75 37 -70 31 10 5 107 -29 107 -12 0 -14 -8
-8 -37z"/>
<path d="M7234 10029 c-13 -15 -15 -22 -6 -31 7 -7 12 -22 12 -35 0 -31 39
-31 68 0 27 28 27 39 5 59 -30 25 -60 28 -79 7z"/>
<path d="M6533 7980 c-28 -12 -37 -43 -20 -75 12 -24 15 -25 27 -11 14 17 32
96 21 95 -3 0 -16 -4 -28 -9z"/>
<path d="M7237 7476 c-33 -73 -46 -168 -27 -191 11 -14 18 -12 56 10 23 14 52
25 64 25 11 0 32 11 46 25 14 14 29 25 34 25 5 0 19 -19 31 -42 21 -41 21 -44
6 -93 -9 -27 -18 -61 -21 -75 -3 -14 -10 -32 -15 -40 -8 -12 -12 -12 -29 3
-10 9 -22 17 -26 17 -3 0 -24 12 -46 26 -22 15 -43 25 -46 22 -3 -3 -10 -27
-17 -54 -7 -26 -16 -49 -22 -50 -22 -7 -46 26 -55 72 -28 152 -39 168 -101
158 -25 -4 -39 -1 -49 10 -15 20 -30 21 -30 2 0 -7 -9 -25 -21 -39 l-20 -26
22 -31 c13 -16 28 -30 33 -31 6 0 0 -5 -13 -10 -22 -9 -23 -13 -17 -63 6 -48
5 -56 -19 -85 -19 -21 -39 -33 -66 -37 -33 -6 -45 -15 -79 -62 l-39 -55 20
-25 c10 -14 19 -38 19 -55 0 -19 10 -41 25 -57 l26 -27 -16 -74 c-8 -41 -15
-83 -15 -95 0 -27 -60 -84 -88 -84 -18 0 -22 -6 -22 -28 0 -32 34 -55 60 -41
8 4 23 10 33 13 12 4 17 16 18 43 0 21 3 31 6 23 3 -8 12 -21 21 -27 14 -12
14 -13 -2 -13 -24 0 -15 -40 20 -85 20 -27 24 -43 24 -101 0 -128 -11 -201
-34 -225 -19 -21 -66 -179 -66 -222 0 -38 -34 -124 -65 -162 -40 -49 -70 -109
-80 -155 -4 -19 -13 -44 -20 -56 -9 -13 -13 -47 -12 -90 2 -50 -3 -82 -17
-112 -10 -23 -22 -42 -26 -42 -4 0 -55 -32 -114 -71 -123 -82 -176 -138 -176
-184 0 -18 -11 -46 -26 -66 -14 -19 -36 -57 -49 -86 -19 -42 -38 -63 -94 -103
-38 -28 -77 -63 -86 -77 -15 -22 -22 -25 -60 -21 -41 5 -46 3 -91 -43 -39 -40
-55 -49 -82 -49 -19 0 -51 -10 -70 -22 -19 -12 -58 -27 -86 -33 -45 -10 -52
-15 -56 -41 -3 -18 -21 -45 -47 -68 l-42 -37 -60 21 -60 22 1 42 c1 22 8 48
15 57 12 14 11 22 -3 53 -20 40 -26 43 -44 21 -20 -24 -50 -1 -50 39 0 36 23
54 45 36 14 -11 45 -3 45 11 0 6 23 24 50 41 44 27 50 35 50 65 0 26 5 36 20
40 24 6 28 51 5 59 -20 8 -83 -13 -128 -44 -20 -14 -61 -31 -89 -38 -64 -17
-83 -34 -102 -92 -20 -58 -20 -80 0 -84 11 -2 18 -15 20 -38 1 -19 6 -62 9
-96 6 -53 4 -67 -18 -110 -42 -82 -173 -259 -222 -300 -56 -47 -64 -55 -117
-119 -56 -68 -70 -103 -52 -129 8 -11 14 -28 14 -37 0 -9 11 -24 24 -33 33
-21 40 -48 22 -88 -12 -28 -14 -29 -15 -10 -1 23 -8 26 -35 16 -10 -4 -16 -18
-16 -41 l0 -36 -40 6 c-33 4 -39 3 -30 -8 16 -20 -7 -54 -32 -47 -14 3 -21 -2
-25 -17 -4 -14 -13 -21 -30 -21 -21 0 -22 3 -13 20 11 20 10 20 -25 3 -31 -15
-37 -15 -45 -3 -6 8 -10 11 -10 6 0 -5 -11 1 -25 14 -24 22 -27 23 -42 7 -13
-13 -14 -19 -3 -31 10 -13 10 -16 -4 -16 -17 0 -56 34 -56 49 0 5 -6 11 -12
14 -10 3 -10 7 -2 18 14 17 24 68 17 86 -7 18 -77 17 -93 -2 -7 -8 -19 -15
-26 -15 -7 0 -21 -11 -30 -25 -18 -28 -40 -31 -77 -12 -14 8 -61 14 -105 15
-83 3 -153 -19 -197 -59 -15 -13 -43 -20 -95 -24 -41 -3 -110 -11 -152 -17
-59 -8 -85 -8 -107 2 -25 10 -35 8 -69 -9 -47 -24 -107 -30 -124 -13 -21 21
-32 13 -12 -9 l19 -22 -40 7 c-47 9 -49 11 -41 31 5 13 17 20 75 41 8 2 11 8
7 11 -9 10 -130 21 -136 14 -14 -16 -75 -41 -101 -41 -16 0 -51 -12 -79 -27
-40 -23 -50 -33 -50 -55 0 -32 -55 -90 -113 -119 -20 -11 -37 -23 -37 -28 0
-21 -53 -70 -96 -90 -25 -12 -88 -62 -138 -112 -51 -49 -100 -89 -109 -89 -43
0 -106 -43 -175 -119 -77 -86 -92 -92 -143 -65 -42 21 -103 10 -151 -29 -40
-32 -48 -57 -23 -77 23 -19 19 -61 -6 -67 -18 -5 -20 -11 -15 -42 3 -20 6 -44
6 -53 0 -10 7 -18 15 -18 32 0 4 -32 -30 -35 -5 0 -16 -4 -22 -8 -8 -5 -20 0
-30 13 -20 23 -43 26 -61 7 -7 -6 -34 -17 -60 -22 -45 -10 -47 -12 -50 -47 -2
-27 -12 -45 -37 -67 -30 -26 -32 -31 -19 -39 21 -12 2 -25 -37 -26 -20 -1 -32
6 -40 22 -16 28 -23 28 -37 -3 -6 -14 -18 -25 -27 -25 -19 0 -20 -19 0 -26 24
-9 18 -21 -16 -33 -50 -17 -80 -14 -86 9 -7 28 -41 25 -55 -5 -6 -14 -17 -25
-25 -25 -12 0 -11 -4 1 -22 9 -12 16 -38 16 -58 l-1 -35 -22 28 c-13 15 -30
27 -39 27 -8 0 -21 7 -28 15 -7 8 -17 12 -22 9 -9 -6 -28 -48 -32 -71 -1 -7
-5 -16 -9 -19 -14 -15 -6 -32 18 -38 15 -4 30 -17 35 -32 6 -14 14 -23 19 -19
6 3 15 -4 21 -15 6 -11 26 -26 45 -34 39 -16 60 -52 68 -114 l5 -43 -25 16
c-15 10 -34 14 -49 11 -26 -7 -30 4 -14 33 11 21 -27 83 -61 102 -25 13 -23
15 -36 -45 -14 -61 -5 -85 41 -123 20 -15 36 -34 36 -41 0 -7 7 -15 15 -18 12
-5 10 -12 -10 -42 -28 -41 -32 -72 -10 -72 9 0 15 9 15 24 0 18 6 25 22 28 13
2 28 15 35 29 18 37 32 46 83 54 38 5 47 3 57 -13 9 -15 8 -25 -3 -47 -13 -26
-10 -70 4 -63 4 2 25 12 47 21 35 16 85 72 85 96 0 5 -10 21 -22 36 -19 25
-26 27 -70 22 -52 -7 -59 0 -28 28 24 22 26 65 5 106 -15 29 -15 31 14 59 23
23 30 26 35 15 3 -8 14 -15 24 -15 22 0 52 -57 52 -99 0 -17 10 -37 25 -51 14
-13 39 -45 56 -71 29 -46 30 -49 14 -73 -9 -13 -27 -32 -41 -41 -36 -24 -30
-36 16 -29 27 5 40 3 40 -5 0 -6 -6 -14 -14 -17 -8 -3 -17 -26 -21 -54 -4 -27
-12 -51 -19 -53 -7 -3 -18 -25 -25 -50 -7 -24 -29 -66 -50 -93 -30 -39 -43
-49 -67 -49 -49 0 -54 -9 -54 -99 0 -62 -4 -87 -15 -96 -21 -17 -20 -21 20
-64 28 -31 35 -47 35 -80 0 -22 3 -51 6 -63 9 -33 -35 -73 -83 -74 -34 0 -36
-1 -16 -11 15 -7 21 -19 21 -39 -1 -45 16 -56 97 -64 64 -6 75 -9 75 -26 0
-19 27 -39 54 -39 8 0 18 12 24 28 7 21 3 39 -20 87 -38 82 -37 123 9 198 20
34 38 63 39 65 1 2 18 -4 38 -12 38 -16 43 -30 25 -69 -11 -24 -12 -24 -38 -9
-32 18 -64 10 -54 -14 4 -10 14 -14 29 -11 23 4 24 1 24 -46 0 -29 6 -57 14
-66 19 -21 23 -61 8 -88 -7 -12 -12 -31 -12 -43 0 -12 -11 -35 -25 -52 -14
-16 -25 -36 -25 -43 0 -21 16 -26 30 -10 7 8 36 22 64 30 38 11 55 23 68 45
10 17 33 37 52 45 39 16 51 30 36 40 -6 4 -7 11 -4 17 4 6 -1 17 -11 24 -15
12 -17 18 -7 39 16 36 73 35 96 -1 13 -18 24 -24 43 -22 22 2 28 11 40 53 8
28 26 65 41 84 23 30 26 46 32 146 4 89 10 118 28 149 12 20 22 48 22 62 0 40
62 176 83 182 11 3 16 10 12 20 -3 8 0 19 7 23 10 7 11 12 1 28 -15 23 -7 51
13 51 8 0 18 10 23 23 7 18 61 71 129 127 6 6 12 21 12 33 0 13 5 28 12 35 8
8 5 14 -16 22 -15 5 -32 10 -37 10 -16 0 -9 20 16 46 14 14 25 29 25 33 0 5
-20 12 -45 15 -53 8 -62 19 -41 51 34 51 25 57 -74 53 -94 -3 -100 -1 -100 43
0 14 7 19 25 19 15 0 41 15 65 36 37 34 40 40 40 90 0 52 -1 54 -43 79 -56 32
-72 32 -113 -5 -40 -35 -97 -48 -121 -29 -9 8 -34 19 -56 24 -32 8 -42 16 -50
40 -5 17 -16 37 -23 46 -16 18 -19 75 -4 84 14 9 12 52 -2 58 -9 3 -7 11 8 27
27 27 53 21 77 -19 11 -19 27 -30 49 -34 28 -5 37 -1 60 25 14 17 31 27 37 24
6 -4 19 -2 29 3 13 7 22 7 30 -1 7 -7 25 -5 61 8 64 23 101 11 94 -30 -6 -29
8 -34 27 -11 18 22 28 19 45 -15 9 -17 22 -30 29 -30 7 0 30 -13 51 -30 21
-16 39 -30 40 -30 1 0 0 12 -3 26 -3 18 3 33 23 54 19 20 26 35 22 50 -3 12
-1 34 4 48 6 15 11 44 11 65 0 32 7 43 40 70 30 24 50 32 79 32 34 0 39 -3 39
-22 0 -14 -6 -23 -15 -23 -8 0 -15 -4 -15 -10 0 -5 -7 -10 -16 -10 -22 0 -13
-34 10 -38 10 -2 21 0 25 6 4 6 24 6 59 -1 52 -11 52 -11 90 25 28 27 51 38
100 48 35 7 66 18 68 24 3 7 34 12 81 13 74 2 78 3 109 37 37 40 37 40 64 26
14 -8 28 -5 57 11 l37 21 32 -34 c26 -29 34 -33 48 -22 9 6 25 10 35 7 10 -3
34 9 59 30 32 27 38 37 29 47 -10 10 -8 12 6 6 24 -8 69 3 64 17 -4 14 35 51
69 65 16 6 58 15 94 20 36 5 72 12 81 16 9 4 33 -5 60 -24 24 -16 49 -30 56
-30 7 0 29 -12 50 -26 32 -22 45 -25 82 -20 25 3 54 15 66 26 28 26 92 26 123
1 23 -20 29 -46 12 -56 -5 -3 -10 -17 -10 -31 0 -14 -6 -24 -14 -24 -7 0 -29
-22 -47 -50 -22 -32 -41 -50 -55 -50 -11 0 -35 -11 -53 -24 -31 -23 -32 -25
-13 -35 25 -14 33 -66 15 -102 -8 -16 -11 -38 -8 -50 4 -12 1 -27 -7 -37 -26
-30 -19 -59 18 -83 19 -11 41 -34 50 -51 13 -24 18 -27 30 -17 12 10 19 8 37
-9 17 -18 19 -26 11 -40 -26 -41 92 -122 177 -122 12 0 27 -7 34 -16 10 -14
15 -13 41 13 16 16 36 34 44 39 8 5 33 47 55 94 42 89 91 160 113 160 6 0 12
7 12 15 0 8 7 15 16 15 13 0 15 7 10 35 -6 31 -5 35 15 35 17 0 20 4 15 23 -8
33 19 67 52 67 15 0 38 8 52 17 13 9 34 17 48 18 13 0 32 11 41 24 18 24 18
24 24 2 5 -22 31 -29 42 -11 10 15 25 12 25 -6 0 -31 25 -7 28 27 1 19 8 44
14 56 9 19 7 25 -18 47 -16 13 -42 27 -58 30 -16 4 -44 17 -62 31 -18 14 -37
25 -43 25 -5 0 -17 20 -27 45 -17 44 -16 46 4 68 27 30 72 115 72 139 0 10 8
22 18 25 9 4 28 15 41 25 34 26 43 11 27 -42 -8 -26 -10 -53 -5 -65 4 -11 8
-35 8 -53 1 -34 16 -72 29 -72 4 0 13 4 21 9 11 7 10 13 -4 35 -13 19 -14 30
-7 39 7 8 7 18 2 27 -6 10 -4 21 7 33 19 21 33 7 33 -33 0 -15 5 -31 12 -38
15 -15 72 -15 115 0 29 10 36 10 44 -2 24 -38 -20 -84 -93 -99 -32 -7 -58 -34
-45 -48 4 -4 58 10 120 30 62 20 124 37 138 37 32 0 42 9 28 26 -6 7 -8 18 -4
24 7 12 42 -28 37 -42 -1 -5 43 -8 98 -8 76 0 111 -5 150 -20 75 -30 90 -27
84 13 -5 26 1 41 30 79 20 26 36 54 36 62 0 9 22 30 48 48 39 26 49 37 49 60
0 40 19 55 84 62 52 7 57 5 73 -18 21 -33 20 -39 -6 -51 -21 -9 -23 -15 -20
-76 3 -41 0 -69 -7 -73 -19 -12 -12 -64 13 -93 24 -28 24 -28 68 -12 40 15 45
20 66 80 13 35 29 70 37 79 7 8 18 28 24 43 9 24 8 31 -8 45 -26 23 -35 67
-16 82 8 7 15 21 15 32 0 32 31 68 81 93 41 21 54 23 95 16 51 -10 74 -31 74
-67 0 -12 7 -25 16 -28 9 -4 17 -5 18 -4 1 2 8 20 15 41 11 33 11 41 -3 56 -9
10 -17 39 -18 67 -3 44 -1 49 19 52 12 2 28 13 36 26 13 19 13 25 1 41 -22 30
-17 45 14 45 16 0 37 7 48 15 27 21 55 18 88 -8 27 -22 28 -26 20 -63 -7 -29
-20 -45 -52 -67 -23 -16 -42 -34 -42 -41 0 -8 -13 -19 -30 -26 l-29 -12 21
-28 c17 -23 19 -35 12 -71 -4 -24 -7 -63 -5 -87 2 -33 -2 -47 -16 -57 -13 -11
-14 -14 -4 -15 8 0 23 -7 33 -17 16 -14 22 -14 43 -3 14 7 25 22 25 33 0 28
89 107 121 107 25 0 96 41 111 64 4 6 8 49 8 95 0 46 5 101 11 122 14 44 87
112 134 123 17 4 43 12 58 18 l28 11 -34 36 c-52 54 -147 248 -147 299 0 22 4
43 8 46 5 3 7 19 4 35 -9 64 74 339 103 341 6 0 25 21 43 45 l32 44 0 221 c0
242 -7 288 -53 363 -25 41 -28 54 -24 105 5 71 27 128 56 148 12 9 20 22 17
29 -5 15 17 39 27 29 3 -3 19 3 35 15 43 30 83 27 115 -9 19 -21 36 -30 59
-30 l31 0 -20 23 c-37 41 -53 114 -28 124 10 3 12 9 7 17 -5 6 -12 30 -16 52
-4 31 -2 45 9 54 9 7 13 21 10 30 -3 10 6 40 20 66 21 39 24 53 16 71 -9 20
-8 23 9 23 13 0 24 10 30 25 5 14 18 25 27 25 11 0 23 13 31 33 8 17 18 42 23
55 5 12 16 25 24 28 14 6 13 8 -2 20 -11 8 -14 17 -8 21 6 5 11 26 13 47 1 21
9 44 18 50 9 7 15 19 13 27 -2 7 1 25 5 38 9 25 -9 71 -28 71 -10 0 -14 81 -5
105 4 12 -35 117 -57 150 -9 14 -23 25 -30 25 -9 0 -14 11 -14 28 0 15 -19 73
-42 130 -44 108 -84 156 -137 164 -21 3 -29 16 -56 98 -31 94 -32 94 -43 62
-15 -43 -22 -40 -22 9 0 33 4 42 21 46 19 5 20 10 12 57 -4 28 -6 109 -4 180
l3 129 -35 -22 c-19 -11 -41 -21 -50 -21 -8 0 -35 20 -59 44 -33 34 -52 45
-83 49 l-40 4 -28 -61z"/>
<path d="M6076 5295 c-22 -25 -45 -45 -53 -45 -8 0 -13 -12 -13 -29 0 -16 -4
-41 -9 -55 -7 -18 -6 -28 5 -36 7 -7 14 -9 14 -4 0 4 5 3 11 -3 11 -11 -4 -72
-24 -100 -11 -16 5 -17 50 -4 39 11 93 70 110 120 17 49 17 50 -17 49 -41 -1
-46 7 -32 45 13 37 16 107 5 107 -5 0 -26 -21 -47 -45z"/>
<path d="M3325 3998 c-27 -78 4 -116 59 -74 43 32 41 63 -3 82 -44 18 -47 18
-56 -8z"/>
<path d="M3207 3882 c-10 -10 -17 -22 -17 -25 0 -15 38 -6 54 12 15 17 15 19
1 25 -22 8 -20 9 -38 -12z"/>
<path d="M3255 3849 c-4 -6 -4 -13 -1 -16 8 -8 36 5 36 17 0 13 -27 13 -35 -1z"/>
<path d="M3210 3816 c0 -2 7 -9 15 -16 12 -10 15 -10 15 4 0 9 -7 16 -15 16
-8 0 -15 -2 -15 -4z"/>
<path d="M1204 2989 c-10 -12 -29 -25 -41 -30 -24 -9 -31 -43 -13 -54 8 -5 8
-11 0 -20 -6 -7 -8 -19 -5 -26 2 -8 -8 -30 -24 -49 l-29 -35 31 -10 c21 -7 40
-8 54 -2 18 8 20 15 16 43 -5 28 0 38 26 64 36 37 46 69 34 106 -12 36 -25 39
-49 13z"/>
<path d="M4265 2828 c-34 -18 -76 -62 -95 -98 -10 -19 -27 -44 -39 -54 -21
-19 -30 -76 -11 -76 6 0 10 -7 10 -16 0 -19 32 -14 90 14 28 14 34 22 32 42
-7 63 -3 90 18 118 13 17 20 40 18 55 -3 22 -6 24 -23 15z"/>
<path d="M3853 2813 c-32 -4 -49 -33 -19 -33 7 0 18 -6 24 -12 6 -7 25 -13 44
-13 30 0 33 3 36 33 4 35 1 36 -85 25z"/>
<path d="M1074 2714 c-26 -61 -23 -85 9 -97 25 -8 31 -6 45 14 9 13 15 32 14
43 -2 10 7 29 19 42 l22 24 -30 0 c-17 0 -39 3 -47 6 -12 5 -20 -4 -32 -32z"/>
<path d="M3667 2696 c-8 -21 -92 -76 -115 -76 -11 0 -27 -3 -36 -6 -14 -5 -14
-9 -1 -34 22 -42 19 -56 -22 -101 l-37 -41 -60 5 c-50 5 -65 2 -88 -15 -37
-26 -72 -18 -87 20 -16 39 -58 82 -80 82 -24 0 -98 -65 -106 -93 -3 -12 -10
-31 -15 -42 -5 -11 -11 -33 -15 -48 -3 -17 -29 -50 -62 -80 -31 -29 -70 -65
-86 -80 -16 -16 -74 -50 -128 -78 -55 -27 -99 -54 -99 -60 0 -12 36 -3 65 17
11 8 27 14 36 14 9 0 28 9 42 20 35 28 59 26 52 -2 -2 -13 -6 -39 -7 -58 -3
-31 0 -35 27 -40 17 -3 30 -10 30 -15 0 -6 3 -15 7 -21 4 -6 5 -20 1 -32 -4
-18 -9 -20 -24 -11 -29 15 -38 -19 -11 -40 26 -20 15 -47 -17 -38 -14 3 -21 0
-21 -9 0 -8 8 -14 18 -14 11 0 27 -9 37 -20 10 -11 13 -20 7 -20 -12 0 -17
-32 -6 -43 4 -3 17 1 31 10 18 12 27 13 36 4 6 -6 19 -11 29 -11 23 0 23 -11
-1 -60 l-19 -40 31 0 c18 0 38 -4 46 -9 10 -6 22 -5 35 5 27 19 29 18 65 -12
27 -22 32 -24 37 -9 4 9 1 26 -5 38 -9 18 -9 35 3 80 18 71 22 77 46 77 13 0
27 14 40 40 11 22 25 40 30 40 16 0 40 56 40 93 0 34 15 57 37 57 7 0 31 13
53 29 22 16 69 37 106 47 61 16 68 16 117 1 53 -17 68 -29 156 -127 34 -38 51
-50 54 -40 42 152 86 232 144 260 17 8 42 26 55 40 13 14 39 37 58 52 27 21
32 29 21 36 -11 8 -10 14 4 36 17 26 17 26 -19 59 -40 37 -46 69 -19 99 15 17
15 20 -12 48 -22 23 -32 27 -46 19 -14 -7 -27 -5 -48 6 -17 8 -36 15 -44 15
-7 0 -28 15 -46 34 -19 19 -40 32 -47 29 -8 -3 -14 1 -14 11 0 13 -4 15 -19 6
-25 -13 -98 -13 -106 0 -9 14 -22 12 -28 -4z"/>
<path d="M3174 2656 c-3 -8 -4 -27 -2 -42 3 -27 4 -27 21 -10 21 22 23 66 2
66 -9 0 -18 -6 -21 -14z"/>
<path d="M3117 2643 c-10 -3 -16 -10 -14 -16 6 -20 25 -19 37 2 11 21 9 22
-23 14z"/>
<path d="M2882 2563 c2 -11 14 -19 33 -21 30 -4 30 -4 11 17 -23 26 -49 28
-44 4z"/>
<path d="M2745 2430 c-17 -19 -18 -22 -2 -37 13 -13 20 -14 28 -6 7 7 24 10
38 7 19 -4 32 1 46 17 l20 22 -35 -5 c-21 -3 -43 0 -56 8 -18 13 -23 12 -39
-6z"/>
<path d="M1322 2398 c-11 -34 -11 -43 0 -49 24 -16 48 -9 60 16 10 22 8 29
-12 50 -13 14 -26 25 -29 25 -4 0 -12 -19 -19 -42z"/>
<path d="M1216 2121 c-11 -12 -25 -21 -32 -21 -7 0 -16 -15 -19 -32 -4 -18
-14 -41 -23 -51 -23 -26 -7 -32 30 -10 23 13 38 34 51 67 21 58 19 75 -7 47z"/>
<path d="M952 1893 c-18 -26 -21 -39 -16 -72 7 -46 21 -53 30 -17 3 13 19 33
35 45 34 25 42 58 10 41 -27 -14 -29 -13 -33 13 -3 21 -4 20 -26 -10z"/>
<path d="M901 1821 c-16 -10 -6 -31 15 -31 8 0 14 9 14 20 0 22 -7 25 -29 11z"/>
<path d="M850 1791 c0 -10 30 -24 37 -17 3 3 2 9 -2 15 -8 13 -35 15 -35 2z"/>
<path d="M800 1756 c0 -7 7 -19 16 -27 13 -10 17 -10 25 2 15 25 10 39 -16 39
-15 0 -25 -6 -25 -14z"/>
<path d="M771 1734 c-8 -13 -14 -15 -17 -6 -8 18 -32 15 -42 -5 -5 -10 -12
-33 -15 -51 -7 -35 -6 -36 51 -46 28 -5 35 -2 39 14 4 15 11 19 24 15 24 -8
26 26 3 46 -9 7 -20 22 -24 33 -7 20 -7 20 -19 0z"/>
<path d="M896 1733 c-9 -9 -7 -33 3 -33 12 0 22 28 12 34 -5 3 -11 3 -15 -1z"/>
<path d="M1686 1583 c9 -38 22 -50 30 -28 8 19 -5 46 -25 53 -8 3 -10 -4 -5
-25z"/>
<path d="M1475 1541 c-3 -2 -5 -15 -5 -27 0 -13 -4 -26 -10 -29 -15 -9 -13
-95 3 -95 6 0 3 -6 -8 -12 -29 -16 -29 -16 -12 -33 9 -8 25 -15 36 -15 15 0
21 -6 21 -24 0 -28 24 -51 46 -42 10 4 14 16 12 38 -2 25 -8 34 -25 36 -31 5
-29 19 8 53 27 25 31 36 32 86 l2 58 -48 5 c-26 4 -50 4 -52 1z"/>
<path d="M1650 1519 c0 -6 -8 -8 -19 -4 -23 7 -44 -17 -39 -46 2 -17 11 -22
40 -24 20 -1 41 1 45 4 12 9 32 69 25 75 -10 10 -52 6 -52 -5z"/>
<path d="M1354 1094 c3 -9 6 -18 6 -20 0 -12 29 -2 34 12 9 23 8 24 -20 24
-20 0 -25 -4 -20 -16z"/>
<path d="M1279 1033 c-8 -2 -23 -17 -32 -32 -20 -34 -21 -41 -6 -41 13 0 69
58 69 71 0 9 -4 10 -31 2z"/>
<path d="M1996 382 c-26 -30 -66 -119 -66 -149 0 -14 -11 -38 -25 -55 -24 -29
-31 -61 -19 -92 5 -12 10 -13 30 -4 18 9 24 19 24 44 0 23 10 44 30 67 17 19
30 42 30 51 0 10 5 26 11 37 5 11 9 42 7 70 -3 51 -3 51 -22 31z"/>
<path d="M1652 139 c-36 -17 -41 -23 -37 -44 3 -14 7 -36 10 -50 4 -18 15 -27
42 -34 40 -11 63 -3 87 31 24 34 19 52 -22 85 l-38 31 -42 -19z"/>
</g>
</svg>
