<?xml version="1.0" standalone="no"?>
<!DOCTYPE svg PUBLIC "-//W3C//DTD SVG 20010904//EN"
 "http://www.w3.org/TR/2001/REC-SVG-20010904/DTD/svg10.dtd">
<svg version="1.0" xmlns="http://www.w3.org/2000/svg"
 width="1024.000000pt" height="1024.000000pt" viewBox="0 0 1024.000000 1024.000000"
 preserveAspectRatio="xMidYMid meet">
<metadata>
Created by potrace 1.10, written by Peter Selinger 2001-2011
</metadata>
<g transform="translate(0.000000,1024.000000) scale(0.100000,-0.100000)"
fill="#000000" stroke="none">
<path d="M5933 10187 c-27 -46 -38 -55 -80 -68 -38 -11 -51 -21 -62 -46 -11
-25 -26 -36 -74 -54 -87 -33 -119 -65 -153 -155 l-29 -75 -127 -70 c-71 -39
-174 -89 -230 -113 -98 -41 -115 -44 -384 -80 l-280 -37 -100 22 c-54 11 -116
30 -136 40 -28 14 -59 19 -126 19 -60 0 -107 6 -143 18 -54 18 -57 18 -499
-19 -438 -36 -445 -37 -462 -18 -9 11 -18 25 -20 31 -4 10 -29 9 -111 -3 -103
-15 -108 -15 -158 6 -45 18 -60 19 -119 11 -65 -9 -69 -8 -124 22 l-56 32
-182 0 c-250 0 -523 -18 -570 -37 -34 -14 -40 -14 -61 0 -41 27 -72 11 -131
-67 -69 -90 -89 -154 -80 -251 l6 -70 77 -80 c43 -44 105 -119 138 -166 50
-71 61 -94 65 -137 4 -43 13 -61 47 -102 41 -48 43 -54 52 -147 8 -80 27 -149
101 -373 50 -151 101 -295 114 -320 34 -65 78 -253 119 -510 31 -192 43 -244
85 -355 26 -71 51 -149 55 -172 4 -24 11 -43 16 -43 5 0 9 -11 9 -25 0 -14 10
-45 21 -68 17 -32 20 -47 12 -67 -12 -33 0 -62 37 -83 25 -15 29 -25 36 -83 4
-42 17 -87 36 -123 16 -31 69 -151 119 -268 l90 -212 -7 -393 -7 -393 -60
-135 c-49 -110 -103 -269 -94 -276 37 -27 45 -24 101 40 73 83 96 147 96 270
0 143 5 158 62 201 48 38 50 38 68 19 16 -15 21 -45 31 -157 6 -77 7 -142 3
-146 -5 -4 -29 -14 -54 -21 -42 -12 -43 -14 -20 -21 l25 -7 -22 -7 c-32 -10
-29 -23 18 -71 l40 -41 -7 -72 -7 -71 -145 0 c-120 0 -149 -3 -163 -16 -18
-16 -18 -18 2 -45 20 -29 22 -29 120 -29 l99 0 0 -42 1 -43 33 36 34 37 6 -30
c11 -56 6 -141 -15 -252 -20 -107 -22 -113 -67 -158 -41 -42 -52 -48 -101 -54
-52 -6 -59 -10 -90 -51 -32 -43 -33 -49 -28 -107 3 -33 9 -70 12 -82 5 -17
-16 -39 -139 -137 -80 -64 -169 -132 -198 -151 -29 -19 -83 -63 -120 -98 l-67
-63 -15 -137 -15 -138 33 -97 c30 -88 69 -167 120 -245 10 -15 45 -40 79 -56
34 -16 79 -45 100 -63 l39 -34 -16 -55 c-24 -79 -94 -165 -222 -268 -101 -82
-113 -96 -137 -154 -27 -62 -30 -65 -114 -113 -71 -42 -104 -70 -195 -169 -60
-65 -140 -165 -178 -221 -38 -56 -131 -178 -207 -270 -76 -92 -154 -189 -173
-215 -56 -75 -279 -347 -358 -437 -92 -104 -100 -133 -51 -194 l33 -42 148 7
c136 7 173 4 285 -19 13 -3 41 -33 69 -73 40 -59 58 -74 123 -110 42 -22 128
-63 192 -90 105 -45 124 -50 220 -56 57 -4 178 -14 268 -22 151 -13 168 -13
208 2 37 14 53 15 113 5 56 -9 90 -8 182 5 142 20 251 14 340 -19 36 -14 99
-31 141 -37 67 -11 87 -10 193 10 l119 22 110 88 c61 49 189 158 285 244 l175
156 175 74 c96 41 201 85 234 98 52 20 69 35 151 133 128 152 376 412 457 479
36 31 161 129 276 219 194 151 222 176 355 328 105 120 194 209 333 330 104
91 250 224 324 295 208 201 377 338 561 458 42 27 83 62 92 78 17 30 79 62
144 74 57 10 134 58 188 115 47 50 50 51 95 47 26 -3 60 -14 76 -25 51 -36 68
-36 120 -3 26 16 53 30 60 30 7 0 17 23 24 50 9 40 20 56 49 77 20 15 56 46
81 69 33 30 59 45 99 54 42 10 57 19 70 42 47 87 72 118 91 118 27 0 100 58
100 80 0 10 11 34 25 54 35 52 35 120 0 148 -20 16 -25 28 -25 65 0 42 4 49
49 90 34 30 51 55 55 78 4 20 28 60 56 93 50 60 120 191 120 225 0 10 22 60
49 110 27 51 65 142 85 202 33 99 43 118 102 188 37 42 77 80 90 83 31 8 60
49 69 97 8 42 71 136 115 174 17 13 37 37 46 52 9 15 43 42 76 60 37 21 70 49
88 75 49 68 69 84 122 91 67 9 97 42 66 73 -9 9 -5 12 18 12 25 0 37 9 61 43
17 23 36 61 42 85 9 30 20 46 42 58 22 11 41 37 70 97 21 44 39 88 39 96 0 8
12 34 26 59 21 35 24 49 16 67 -7 15 -7 46 1 98 10 72 9 79 -16 144 -15 38
-36 118 -48 179 -15 80 -39 156 -92 286 l-71 178 -78 77 -78 78 -27 -17 c-21
-13 -29 -29 -39 -77 -7 -33 -15 -65 -18 -70 -12 -19 -60 -17 -122 5 -36 13
-84 24 -108 24 -33 0 -57 9 -104 40 -53 34 -66 48 -97 112 -20 40 -75 141
-122 223 -67 119 -94 157 -129 183 -35 26 -44 39 -44 62 0 23 -8 35 -39 55
-33 22 -39 33 -45 71 -4 31 -1 54 9 74 20 38 20 37 -16 45 -23 5 -35 17 -52
51 -11 24 -28 46 -37 49 -10 3 -22 23 -29 45 -6 22 -18 40 -25 40 -9 0 -16 17
-20 45 -7 41 -10 45 -35 45 -22 0 -29 7 -39 34 -7 18 -31 55 -53 80 l-41 46
-30 -21 c-16 -12 -34 -32 -40 -45 -6 -13 -19 -24 -30 -24 -15 0 -18 8 -18 50
0 47 -2 52 -34 71 -19 11 -37 31 -40 44 -9 37 -42 31 -96 -17 -67 -62 -168
-138 -180 -138 -6 0 -32 11 -58 24 -34 18 -129 110 -347 336 l-300 312 -11
132 c-7 83 -17 143 -28 163 -9 18 -16 47 -16 65 0 24 -14 52 -50 102 -27 38
-50 77 -50 87 0 10 -7 37 -17 60 -12 31 -13 46 -6 59 6 9 32 55 58 103 l46 86
-48 65 c-40 54 -62 73 -133 112 -57 32 -95 61 -117 89 -26 35 -39 43 -75 48
-24 3 -54 4 -66 0 -15 -3 -36 4 -63 22 -40 26 -43 26 -78 12 -64 -28 -76 -29
-96 -7 -31 35 -57 25 -92 -33z"/>
</g>
</svg>
