<?xml version="1.0" standalone="no"?>
<!DOCTYPE svg PUBLIC "-//W3C//DTD SVG 20010904//EN"
 "http://www.w3.org/TR/2001/REC-SVG-20010904/DTD/svg10.dtd">
<svg version="1.0" xmlns="http://www.w3.org/2000/svg"
 width="1024.000000pt" height="1024.000000pt" viewBox="0 0 1024.000000 1024.000000"
 preserveAspectRatio="xMidYMid meet">
<metadata>
Created by potrace 1.10, written by Peter Selinger 2001-2011
</metadata>
<g transform="translate(0.000000,1024.000000) scale(0.100000,-0.100000)"
fill="#000000" stroke="none">
<path d="M6760 10211 c0 -11 -93 -102 -140 -136 -26 -20 -42 -25 -64 -21 -16
4 -35 1 -43 -6 -11 -9 -22 -9 -48 1 -26 9 -39 9 -56 0 -16 -8 -23 -8 -29 1 -6
9 -13 9 -28 1 -11 -6 -36 -11 -54 -11 -19 0 -43 -7 -54 -15 -27 -20 -52 -18
-66 5 -20 31 -110 28 -150 -5 -16 -14 -41 -25 -54 -25 -14 0 -43 -9 -65 -21
-40 -20 -42 -20 -61 -2 -19 17 -20 17 -34 -2 -8 -10 -14 -36 -14 -57 0 -31 -4
-38 -19 -38 -12 0 -37 -23 -65 -59 -36 -47 -46 -68 -46 -98 0 -34 -6 -44 -46
-77 l-45 -38 -23 21 -22 21 -34 -35 c-41 -42 -67 -45 -80 -9 -12 31 -22 26
-81 -40 l-37 -40 -41 27 c-22 15 -50 27 -61 27 -13 0 -20 7 -20 19 0 14 -13
23 -49 35 -64 21 -81 20 -81 -3 0 -26 -42 -51 -100 -58 -47 -5 -49 -4 -56 21
-7 30 -24 35 -24 7 0 -11 -3 -26 -6 -35 -5 -13 -9 -12 -23 6 l-18 21 -31 -46
c-19 -27 -28 -48 -22 -52 12 -8 13 -45 1 -45 -5 0 -19 8 -32 19 l-23 18 -49
-53 c-27 -30 -57 -54 -67 -54 -13 0 -21 -10 -25 -32 -9 -40 -22 -57 -51 -68
-15 -6 -28 -26 -39 -62 -10 -29 -24 -57 -31 -61 -8 -4 -14 -16 -14 -25 -1 -34
-43 -69 -91 -76 -42 -6 -47 -10 -57 -43 -9 -30 -9 -40 3 -53 8 -9 15 -21 15
-26 -1 -15 -44 -59 -77 -79 -28 -16 -30 -21 -25 -61 l5 -44 -39 1 c-22 0 -55
6 -74 13 -32 12 -36 11 -50 -10 l-15 -23 -51 33 c-42 26 -59 31 -93 28 -33 -3
-41 -8 -41 -24 0 -32 -19 -58 -43 -58 -70 -1 -89 -29 -56 -84 l21 -36 -21 -29
c-25 -35 -64 -46 -103 -30 -23 9 -28 18 -28 45 0 32 -2 34 -35 34 -29 0 -35
-4 -35 -20 0 -11 -8 -23 -17 -27 -10 -3 -32 -19 -50 -36 l-31 -29 -48 16 c-26
9 -57 24 -68 34 -17 15 -125 62 -142 62 -2 0 -4 -13 -4 -29 0 -18 8 -34 21
-43 21 -13 21 -15 5 -45 -9 -18 -16 -41 -16 -53 0 -18 -6 -20 -55 -20 -53 0
-55 -1 -90 -46 -23 -32 -35 -58 -35 -80 0 -45 -9 -64 -31 -64 -24 0 -24 -2 1
-50 22 -43 24 -58 11 -79 -8 -12 -18 -11 -61 8 -63 27 -71 22 -78 -49 -4 -44
-7 -50 -24 -44 -18 5 -18 4 -3 -31 8 -21 15 -39 15 -40 0 -2 -20 -10 -44 -18
-39 -13 -46 -13 -57 -1 -13 16 -35 19 -43 6 -3 -5 5 -23 17 -40 16 -24 28 -31
43 -27 16 3 25 -4 42 -34 l22 -39 -35 -22 c-30 -18 -40 -20 -66 -11 -36 13
-49 -7 -29 -44 20 -37 -6 -129 -38 -133 -18 -3 -22 -10 -22 -38 0 -29 -4 -34
-27 -39 -16 -3 -41 -9 -56 -13 l-28 -7 25 -47 24 -46 -22 -21 c-17 -16 -35
-21 -73 -21 -58 0 -78 -16 -94 -75 -9 -30 -18 -40 -54 -56 -23 -10 -50 -30
-59 -43 -24 -38 -56 -65 -98 -83 -21 -9 -34 -21 -30 -27 3 -6 6 -27 7 -46 0
-35 0 -35 42 -32 38 3 43 0 57 -27 9 -16 16 -34 16 -38 0 -5 -27 -26 -60 -47
-32 -21 -62 -45 -65 -54 -2 -10 -26 -29 -53 -44 -26 -15 -56 -36 -66 -47 -13
-15 -26 -19 -47 -14 -63 12 -97 -14 -79 -62 5 -14 7 -38 4 -54 -5 -24 -16 -34
-64 -54 l-57 -25 -8 -87 c-6 -75 -9 -85 -23 -79 -70 29 -71 29 -87 9 -13 -18
-12 -22 14 -45 16 -14 33 -42 39 -62 10 -37 9 -39 -30 -72 -23 -20 -54 -36
-72 -38 -27 -3 -31 -7 -37 -40 -6 -38 -69 -125 -98 -136 -38 -14 -41 -58 -9
-119 26 -48 21 -58 -33 -68 -29 -5 -41 -2 -65 19 -30 25 -31 25 -59 6 -16 -10
-44 -42 -62 -71 -27 -43 -33 -63 -33 -106 0 -48 -2 -53 -25 -59 -17 -4 -32 -1
-44 10 -29 27 -73 20 -109 -17 -18 -18 -32 -43 -32 -55 0 -30 -54 -45 -92 -26
-35 18 -48 18 -48 -1 0 -8 -13 -21 -29 -29 -16 -9 -31 -25 -34 -37 -6 -21 -8
-22 -114 -15 -104 7 -111 6 -168 -20 -90 -41 -134 -80 -141 -126 -6 -32 -14
-42 -50 -62 l-43 -24 -20 34 c-33 56 -43 46 -56 -51 -4 -27 -13 -60 -21 -72
-14 -22 -15 -22 -44 -4 -16 9 -40 33 -53 52 -12 19 -33 35 -45 37 -21 3 -22 0
-20 -62 1 -49 -3 -70 -15 -84 -20 -22 -22 -81 -4 -104 6 -9 30 -27 53 -41 30
-18 47 -39 63 -76 17 -40 38 -64 100 -113 43 -35 92 -70 107 -79 26 -14 60
-89 289 -630 142 -338 265 -639 273 -669 17 -67 24 -76 63 -84 17 -3 43 -15
59 -26 15 -11 35 -20 44 -20 10 0 16 -9 16 -22 0 -41 35 -83 83 -102 52 -20
41 11 108 -303 l32 -152 42 -7 c50 -7 251 0 282 10 23 8 26 3 38 -66 5 -33 3
-38 -18 -43 -25 -7 -59 -54 -67 -95 -4 -18 -13 -26 -31 -28 -25 -3 -26 -6 -32
-85 -10 -122 -8 -292 3 -321 7 -18 17 -26 34 -26 22 0 25 -5 30 -58 13 -123
13 -127 -9 -132 -15 -5 -20 -14 -20 -39 0 -54 24 -61 91 -28 32 16 79 31 106
34 39 5 52 11 60 29 10 22 68 41 88 29 23 -14 42 -72 47 -144 5 -70 8 -79 41
-113 20 -21 44 -38 54 -38 11 0 23 -13 32 -35 15 -34 15 -34 87 -37 l73 -3 33
-43 c26 -35 33 -53 33 -89 0 -36 7 -55 36 -94 35 -48 37 -49 90 -49 54 0 54 0
54 -31 0 -22 11 -44 36 -71 32 -36 35 -44 33 -91 -4 -68 8 -87 83 -131 35 -20
98 -62 140 -92 70 -49 79 -59 89 -100 9 -36 18 -47 44 -58 22 -10 45 -34 71
-76 36 -59 43 -64 148 -117 l110 -55 189 7 c176 7 192 9 224 31 37 25 119 42
132 28 5 -5 16 -39 26 -76 21 -80 62 -124 146 -157 50 -20 58 -20 88 -8 31 13
36 12 87 -15 l53 -29 128 15 c121 14 129 14 153 -3 14 -10 47 -33 73 -52 l48
-34 19 25 c22 29 27 118 9 153 -7 11 -12 56 -11 100 l0 79 53 34 c29 19 59 34
66 34 7 0 24 17 38 39 20 29 26 51 26 92 0 42 8 69 35 120 25 50 32 74 28 97
-4 18 0 41 10 60 22 42 20 69 -4 77 -13 4 -20 15 -20 30 0 16 -11 30 -37 46
l-36 23 51 45 c43 38 52 52 52 79 0 32 0 32 53 32 28 1 63 7 77 15 14 8 37 14
51 15 14 0 36 11 49 25 13 14 40 28 60 31 35 6 37 8 58 77 12 40 22 79 22 87
1 8 7 24 15 34 9 12 15 42 15 72 0 44 -4 54 -25 68 -20 13 -25 25 -25 55 0 35
-3 40 -37 54 -25 10 -47 30 -63 56 -16 27 -32 41 -49 43 -18 2 -33 15 -49 45
-23 42 -23 43 -3 43 11 0 26 10 32 22 7 13 29 42 50 65 22 24 39 47 39 53 0 5
9 10 21 10 12 0 36 7 55 16 28 13 37 14 49 4 9 -7 49 -15 90 -18 72 -4 75 -4
75 17 0 43 18 59 89 77 l68 18 6 69 c3 39 12 77 21 86 8 9 19 36 26 61 14 53
42 87 80 95 35 8 56 31 65 74 l7 34 48 -6 c27 -3 67 -15 89 -26 57 -29 147
-28 240 4 95 32 175 71 198 97 17 20 24 20 158 13 77 -4 168 -7 201 -6 34 1
87 -5 117 -14 55 -16 56 -16 107 10 29 15 108 51 177 80 l125 54 48 -19 c60
-23 110 -13 141 29 20 27 24 29 78 24 38 -4 66 -1 82 8 13 7 42 15 63 18 34 5
41 11 50 39 14 40 17 42 126 78 47 15 94 35 106 43 11 9 49 37 83 64 40 29 73
47 91 47 15 0 39 9 53 20 16 12 40 20 65 20 36 0 43 4 63 38 35 58 59 80 115
106 30 14 59 36 69 53 17 29 28 37 141 99 51 29 65 32 92 25 39 -12 43 -6 51
66 5 50 9 57 41 73 19 10 60 24 90 31 83 18 143 73 113 102 -3 4 -5 34 -4 67
2 57 1 60 -21 60 -31 0 -42 9 -63 50 -27 54 -85 109 -122 116 -30 6 -57 24
-35 24 6 0 20 11 33 25 13 13 32 25 41 25 24 0 46 74 31 100 -24 37 -25 83 -3
125 24 47 26 85 5 85 -24 0 -18 19 10 32 19 9 24 16 19 32 -3 12 -8 28 -10 37
-3 10 3 18 16 22 24 6 26 34 5 83 -18 45 -4 82 34 86 25 3 26 6 29 71 3 67 3
67 32 67 18 0 34 8 44 21 9 13 21 19 30 16 10 -4 21 4 33 24 10 17 35 40 56
50 25 13 37 26 37 40 0 18 3 19 15 9 12 -10 21 -8 48 9 28 17 50 21 124 21 61
0 94 4 100 13 9 11 30 152 36 237 2 33 4 35 44 40 87 10 112 75 48 127 -33 26
-35 30 -25 63 9 30 6 39 -16 74 -22 32 -24 43 -15 58 17 28 13 79 -9 103 -17
19 -18 24 -6 40 12 17 18 18 49 8 40 -12 47 -9 47 21 0 12 7 32 16 44 12 18
19 20 35 12 15 -9 21 -7 26 6 5 13 15 15 59 9 36 -4 54 -3 54 4 0 6 6 11 14
11 8 0 16 10 18 22 2 16 12 24 35 29 17 3 43 16 58 28 15 11 33 21 41 21 7 0
19 19 27 43 12 36 18 42 41 40 25 -2 26 0 26 53 0 49 2 54 23 54 55 0 63 8 75
78 6 37 8 93 5 125 -6 56 -6 57 21 57 22 0 26 4 26 31 0 18 -12 48 -29 72 -27
39 -30 52 -36 159 -8 127 -15 143 -69 150 -35 4 -45 24 -17 33 35 11 28 59
-13 92 -28 21 -33 30 -25 45 7 12 5 27 -5 46 -12 23 -28 33 -74 46 -32 9 -75
16 -96 16 -32 0 -38 4 -47 30 -7 17 -18 30 -28 30 -33 0 -39 19 -34 103 4 61
10 87 24 103 11 12 19 35 19 56 0 29 -16 56 -91 154 l-90 119 -67 12 c-67 12
-67 12 -110 -18 -50 -36 -76 -35 -80 3 -2 19 -16 35 -48 55 -24 15 -44 33 -44
40 0 30 -24 63 -47 63 -21 0 -23 4 -23 54 0 49 -3 57 -35 85 -20 17 -42 31
-50 31 -8 0 -15 7 -15 15 0 21 -41 35 -98 35 -45 0 -48 2 -80 49 -24 35 -42
51 -64 55 -27 5 -30 9 -25 34 5 25 -2 37 -61 95 -49 48 -79 68 -109 77 -41 10
-43 13 -43 49 l0 37 -74 24 c-60 19 -77 28 -86 49 -6 15 -27 46 -48 70 -34 40
-40 43 -60 32 -15 -8 -22 -21 -22 -40 0 -28 -2 -29 -52 -33 -49 -4 -57 -1
-110 36 -49 35 -57 46 -58 73 0 25 -7 36 -30 50 -35 20 -38 43 -10 68 14 13
17 22 10 29 -5 5 -10 25 -10 42 0 18 -4 35 -9 38 -5 4 -16 26 -24 50 -14 41
-14 45 6 65 l21 21 -21 21 c-18 18 -19 26 -11 51 6 16 9 30 7 32 -2 1 -37 22
-77 46 l-73 43 -42 -41 c-24 -23 -46 -42 -49 -42 -3 0 -22 22 -41 48 -31 44
-40 50 -83 56 -41 5 -54 2 -100 -24 -30 -16 -63 -30 -73 -30 -23 0 -41 28 -41
64 0 14 -5 37 -12 51 -10 23 -8 33 18 80 l29 54 -35 36 c-28 29 -41 35 -75 35
-34 0 -47 6 -76 36 -33 35 -36 36 -89 30 l-56 -7 -56 55 c-59 58 -60 62 -73
196 -9 94 -16 111 -84 182 -86 92 -201 171 -201 139z"/>
</g>
</svg>
