<?xml version="1.0" standalone="no"?>
<!DOCTYPE svg PUBLIC "-//W3C//DTD SVG 20010904//EN"
 "http://www.w3.org/TR/2001/REC-SVG-20010904/DTD/svg10.dtd">
<svg version="1.0" xmlns="http://www.w3.org/2000/svg"
 width="1024.000000pt" height="1024.000000pt" viewBox="0 0 1024.000000 1024.000000"
 preserveAspectRatio="xMidYMid meet">
<metadata>
Created by potrace 1.10, written by Peter Selinger 2001-2011
</metadata>
<g transform="translate(0.000000,1024.000000) scale(0.100000,-0.100000)"
fill="#000000" stroke="none">
<path d="M3640 9923 c0 -5 9 -81 20 -169 11 -87 40 -391 65 -674 119 -1351
214 -2376 300 -3240 24 -245 63 -645 85 -890 22 -245 43 -460 46 -478 5 -30
43 -65 163 -149 6 -4 -100 -526 -108 -535 -11 -12 -2303 38 -2338 52 -31 11
-32 13 -26 56 5 35 2 45 -11 50 -29 11 -56 -24 -56 -71 0 -60 -20 -75 -104
-75 -38 0 -79 -6 -94 -14 -16 -8 -76 -18 -134 -22 -106 -7 -107 -6 -139 20
-30 25 -37 27 -133 26 -62 -1 -119 4 -148 13 l-46 14 -6 -31 c-4 -17 -15 -40
-26 -51 -40 -40 -80 -98 -80 -116 0 -31 -17 -22 -44 25 -26 45 -105 122 -169
166 -20 14 -43 41 -52 60 -22 48 -60 90 -82 90 -10 -1 -38 -18 -62 -40 -39
-34 -47 -37 -68 -27 -31 14 -32 12 -78 -118 -29 -83 -36 -116 -38 -192 -2 -90
-3 -93 -36 -127 -38 -40 -124 -74 -144 -58 -7 5 -27 7 -45 5 -26 -4 -32 -9
-26 -22 29 -69 29 -68 0 -122 l-27 -53 40 -35 c23 -20 45 -48 51 -63 6 -18 17
-28 30 -28 19 0 20 -6 20 -102 0 -102 0 -103 28 -119 25 -14 28 -21 24 -54 -4
-34 -9 -39 -53 -57 -45 -19 -49 -23 -49 -55 0 -28 10 -46 49 -89 41 -45 50
-62 53 -97 3 -39 5 -42 34 -45 24 -2 36 3 52 23 18 22 26 25 55 20 27 -5 38
-15 52 -43 9 -21 18 -53 19 -72 1 -24 17 -56 46 -97 l43 -62 -7 -77 c-4 -54
-11 -81 -21 -87 -24 -13 -20 -112 6 -148 l21 -29 -21 -43 c-12 -24 -21 -55
-21 -69 0 -19 -6 -27 -25 -32 -32 -8 -33 -41 -3 -57 13 -7 40 -32 61 -56 51
-57 86 -58 154 -5 26 21 54 46 62 55 7 10 28 17 45 17 41 0 96 -53 96 -92 0
-37 45 -88 77 -88 33 0 109 61 117 94 3 14 16 28 27 31 12 4 37 18 58 32 47
32 108 28 188 -14 146 -75 179 -91 198 -96 15 -5 29 5 58 44 30 39 45 49 67
49 19 0 33 7 40 20 8 15 21 20 53 20 52 0 67 13 67 57 0 22 -6 36 -20 43 -32
17 -24 38 22 50 53 15 88 7 163 -33 47 -25 59 -37 57 -52 -2 -11 -10 -24 -18
-28 -23 -13 -16 -41 16 -72 24 -23 30 -37 30 -71 0 -38 2 -42 30 -47 28 -6 30
-10 30 -49 0 -24 -6 -69 -14 -100 -15 -65 -8 -78 53 -99 23 -8 34 -19 38 -40
6 -34 45 -79 68 -79 8 0 15 -6 15 -13 0 -8 17 -19 39 -25 71 -22 82 -68 21
-87 -19 -6 -61 -35 -92 -65 -45 -43 -57 -62 -60 -90 l-3 -35 47 -3 c43 -3 49
0 60 22 9 22 18 26 53 26 69 0 90 -48 66 -151 -5 -24 -3 -70 7 -134 15 -91 18
-99 46 -116 17 -11 39 -19 48 -19 9 0 18 -9 20 -22 2 -15 13 -24 38 -31 50
-13 60 -24 60 -68 0 -39 0 -39 39 -39 37 0 41 4 71 53 57 92 64 97 145 97 67
0 73 -2 83 -25 7 -14 19 -28 27 -31 8 -4 15 -17 15 -30 0 -23 3 -24 58 -24 47
0 63 -4 78 -21 23 -25 67 -49 90 -49 10 0 25 7 35 16 14 12 15 20 6 44 -14 38
-2 52 61 65 37 8 52 8 73 -4 44 -25 94 16 54 45 -15 11 -17 23 -12 68 3 30 11
64 17 76 12 21 12 21 47 -14 41 -40 89 -49 99 -18 21 65 27 72 55 72 15 0 31
5 34 10 10 16 35 -8 52 -48 12 -28 11 -35 -4 -58 -16 -26 -16 -27 5 -44 29
-24 28 -61 -3 -90 -26 -25 -34 -68 -12 -74 6 -2 29 -9 50 -15 33 -11 41 -10
72 9 19 12 35 30 35 40 0 44 151 109 257 110 67 0 79 14 88 98 9 92 9 101 0
220 -9 100 -4 111 40 112 11 0 37 16 57 35 44 42 68 111 68 193 0 48 -5 60
-34 97 -19 23 -45 63 -58 89 -19 40 -20 48 -8 56 24 15 191 69 235 75 150 22
143 18 268 140 l116 113 -10 59 c-6 32 -15 81 -21 110 -15 72 -2 87 64 78 68
-10 88 9 88 80 0 36 -5 57 -16 66 -8 7 -27 35 -41 63 l-25 50 25 22 c14 12 34
28 44 36 11 7 31 34 46 60 15 27 41 55 57 63 33 17 44 19 35 6 -3 -6 16 -13
42 -17 32 -5 79 -26 143 -65 108 -67 160 -78 160 -34 0 27 13 33 85 37 l39 3
-3 91 c-1 50 2 109 8 131 9 34 16 42 42 47 24 4 38 0 64 -20 24 -18 43 -24 67
-22 l33 3 7 70 c11 111 26 141 122 237 117 118 129 120 262 39 l99 -60 32 32
c30 30 34 41 50 151 l18 118 275 98 c151 54 292 105 312 114 21 9 71 45 112
81 l74 65 86 0 c82 0 87 -1 97 -24 l11 -24 52 24 c28 13 56 24 63 24 6 0 49
-16 95 -36 78 -34 86 -35 133 -25 28 6 70 9 95 5 25 -3 64 -1 87 5 34 9 55 8
108 -5 61 -15 72 -16 148 0 81 16 82 17 137 79 30 34 73 81 95 105 l40 42 534
27 534 28 21 33 21 34 110 -6 c61 -3 122 -9 138 -12 24 -6 27 -3 27 19 0 13 6
30 14 36 8 6 23 34 35 60 20 48 53 71 101 71 19 0 70 50 70 70 0 7 13 50 29
94 16 45 31 110 34 146 6 90 45 168 89 177 l31 6 -5 191 c-3 121 -1 197 5 208
11 17 -70 1336 -83 1351 -3 4 -128 -14 -276 -41 -251 -46 -270 -48 -278 -31
-4 9 -28 25 -51 34 -65 24 -71 37 -41 82 14 21 26 48 26 61 0 12 6 25 14 28
21 8 28 32 15 55 -5 11 -20 68 -32 127 -14 65 -31 120 -44 138 -30 42 -86 61
-222 74 -63 6 -141 18 -174 27 -54 15 -65 24 -116 85 -31 37 -64 68 -74 68
-10 0 -32 -8 -50 -17 -36 -19 -59 -18 -134 3 -85 23 -143 88 -143 158 0 20 -6
27 -27 31 -70 14 -140 39 -168 60 -16 13 -48 25 -70 27 l-40 3 -1 108 c0 80
-4 111 -15 121 -8 7 -178 116 -378 241 -294 183 -439 283 -745 509 -210 155
-847 606 -1416 1003 l-1035 721 -410 6 c-225 3 -458 9 -517 12 -65 4 -108 3
-108 -3z"/>
</g>
</svg>
