<?xml version="1.0" standalone="no"?>
<!DOCTYPE svg PUBLIC "-//W3C//DTD SVG 20010904//EN"
 "http://www.w3.org/TR/2001/REC-SVG-20010904/DTD/svg10.dtd">
<svg version="1.0" xmlns="http://www.w3.org/2000/svg"
 width="1024.000000pt" height="1024.000000pt" viewBox="0 0 1024.000000 1024.000000"
 preserveAspectRatio="xMidYMid meet">
<metadata>
Created by potrace 1.10, written by Peter Selinger 2001-2011
</metadata>
<g transform="translate(0.000000,1024.000000) scale(0.100000,-0.100000)"
fill="#000000" stroke="none">
<path d="M5830 10198 c-228 -22 -417 -42 -419 -44 -9 -8 21 -262 39 -334 10
-41 21 -111 25 -155 3 -44 8 -101 11 -126 l6 -47 -149 -6 c-81 -3 -196 -9
-255 -12 -101 -5 -106 -5 -113 15 -8 27 -45 28 -45 2 0 -18 -14 -19 -237 -25
-131 -3 -282 -9 -335 -12 l-97 -6 5 69 c4 52 1 73 -10 87 -15 18 -17 18 -35 2
-16 -14 -18 -27 -13 -82 4 -49 1 -68 -11 -82 -13 -15 -14 -35 -5 -152 5 -74
11 -137 14 -139 2 -2 240 6 529 19 289 13 527 21 530 18 3 -2 -22 -101 -55
-219 -63 -227 -62 -216 -14 -245 17 -10 14 -19 -43 -105 -34 -52 -74 -121 -88
-154 -15 -33 -54 -102 -87 -152 -53 -81 -63 -91 -79 -82 -13 6 -19 21 -19 42
0 27 -6 37 -34 53 -18 10 -124 125 -236 254 -111 129 -206 239 -210 243 -8 9
-344 96 -372 97 -10 0 -21 -13 -28 -36 -7 -19 -10 -37 -8 -38 1 -2 75 -21 163
-42 159 -38 160 -39 203 -83 23 -25 42 -51 42 -58 0 -17 -43 -83 -54 -83 -4 0
-35 7 -68 16 -33 8 -72 12 -88 9 -17 -4 -55 4 -107 23 -43 16 -135 45 -204 65
l-124 35 -408 6 c-224 3 -415 10 -425 14 -9 5 -63 7 -119 4 l-103 -4 0 -490 0
-491 52 7 c28 4 54 9 57 11 3 2 2 191 -3 420 -4 229 -6 418 -3 421 3 3 26 2
51 -1 l46 -7 0 -84 c0 -76 2 -84 19 -84 27 0 29 6 37 98 l7 82 48 0 48 0 3
-82 c3 -81 4 -83 28 -83 25 0 25 2 28 88 l3 87 48 0 c58 0 61 -5 61 -101 l0
-69 30 0 30 0 0 85 0 85 44 0 c53 0 56 -6 56 -101 l0 -69 30 0 30 0 0 80 0 80
54 0 c63 0 60 5 71 -133 6 -72 9 -78 27 -75 17 2 27 21 49 93 26 83 27 91 12
103 -16 11 -16 14 2 32 20 19 21 19 155 -14 74 -18 171 -39 215 -45 75 -12
175 -53 175 -72 0 -4 -21 -22 -46 -40 -31 -21 -52 -45 -65 -76 l-19 -45 72
-68 c73 -69 99 -81 137 -61 12 7 29 50 51 125 l34 115 45 -41 c150 -136 141
-123 138 -179 l-2 -51 45 -18 c54 -21 62 -46 26 -85 -23 -25 -26 -36 -26 -107
0 -117 -1 -118 -118 -118 -53 0 -115 -5 -136 -10 -45 -10 -90 -53 -129 -121
-21 -38 -24 -49 -14 -62 11 -15 16 -15 56 3 45 21 71 25 71 13 0 -5 3 -17 6
-29 4 -16 -6 -28 -50 -57 l-56 -37 15 -35 c8 -19 22 -52 31 -72 9 -21 30 -57
46 -79 l30 -41 -26 -141 c-14 -77 -26 -148 -26 -158 0 -21 101 -184 114 -184
4 0 35 16 68 36 38 23 65 33 76 29 14 -6 2 -21 -62 -80 -67 -63 -78 -77 -74
-99 3 -15 1 -29 -4 -32 -5 -3 -8 -20 -6 -36 l3 -30 -187 -65 -187 -65 29 -76
c81 -220 122 -327 124 -329 7 -8 131 47 129 56 -2 6 -30 85 -64 177 -33 91
-59 167 -57 169 11 11 154 62 160 57 4 -4 36 -83 72 -177 l65 -170 40 2 40 2
18 -55 c16 -52 16 -55 -1 -67 -17 -13 -13 -27 63 -239 44 -124 81 -230 81
-236 0 -5 -71 -36 -157 -67 -87 -32 -172 -64 -190 -71 l-31 -12 23 -64 c13
-34 28 -75 34 -90 l10 -28 35 21 34 20 -15 45 c-8 25 -14 46 -12 48 7 5 162
56 164 53 1 -1 15 -36 30 -77 16 -41 31 -78 35 -82 3 -4 29 -1 58 7 40 10 54
11 57 2 6 -18 35 -120 35 -123 0 -1 -77 -28 -171 -59 -138 -46 -169 -60 -164
-73 3 -8 15 -54 27 -101 12 -47 84 -250 160 -450 117 -309 136 -366 123 -373
-8 -5 -15 -15 -15 -23 0 -22 -41 -47 -56 -34 -18 15 -86 -39 -79 -62 3 -8 -3
-23 -13 -33 -17 -14 -21 -15 -31 -2 -11 13 -19 11 -62 -15 -41 -26 -47 -34
-39 -49 8 -14 4 -21 -15 -34 -13 -9 -34 -16 -45 -16 -12 0 -38 -11 -58 -25
-29 -20 -39 -22 -48 -12 -19 20 -313 415 -799 1072 -271 366 -461 632 -465
650 -4 21 -12 31 -28 33 -38 6 -52 -15 -52 -75 l0 -55 482 -641 c265 -353 594
-789 732 -969 250 -326 251 -327 291 -330 33 -2 40 -7 40 -24 0 -11 28 -52 61
-90 34 -38 73 -92 87 -120 14 -27 33 -56 41 -63 9 -8 16 -28 16 -47 0 -18 5
-36 10 -39 6 -3 10 -20 10 -37 0 -16 9 -41 20 -55 11 -14 20 -34 20 -45 0 -11
13 -25 35 -35 35 -16 35 -16 63 10 15 15 35 27 44 27 8 0 21 7 28 15 18 22 50
19 50 -4 0 -34 11 -50 44 -61 46 -15 63 -64 41 -116 -29 -69 -41 -76 -115 -69
-40 4 -76 14 -93 27 -16 11 -35 17 -45 13 -14 -5 -5 -18 45 -66 58 -56 64 -59
110 -59 68 0 88 -22 79 -85 -7 -43 -5 -48 35 -95 39 -46 46 -50 86 -50 35 0
43 -3 43 -19 0 -15 10 -20 45 -25 33 -5 50 -14 65 -36 27 -38 27 -106 -1 -136
-19 -20 -20 -26 -9 -95 6 -41 14 -100 17 -133 4 -46 10 -60 24 -63 12 -3 19
-14 19 -29 0 -14 10 -30 25 -40 14 -9 25 -24 25 -33 0 -9 9 -27 19 -41 17 -22
18 -27 5 -51 -20 -39 2 -202 26 -196 12 3 21 -6 30 -32 7 -20 21 -42 31 -49
11 -7 19 -19 19 -26 0 -7 12 -31 26 -52 51 -75 48 -97 -32 -218 -18 -28 -36
-63 -39 -77 -4 -15 -17 -32 -31 -39 -16 -9 -24 -22 -24 -40 0 -15 -5 -42 -11
-59 -7 -21 -8 -36 -2 -42 6 -6 5 -39 -5 -92 -10 -61 -11 -92 -4 -122 6 -22 8
-52 5 -66 -3 -16 6 -53 21 -91 14 -35 26 -78 26 -94 0 -22 8 -33 30 -46 17 -9
40 -37 52 -63 14 -28 31 -48 45 -51 12 -3 25 -15 29 -26 3 -10 26 -43 52 -71
35 -40 55 -54 84 -59 22 -4 72 -23 113 -43 40 -19 80 -35 88 -35 7 0 22 -9 32
-20 12 -13 31 -20 56 -20 21 0 53 -9 71 -20 33 -20 102 -27 125 -12 6 4 14 25
18 47 13 81 15 85 38 85 12 1 33 7 47 15 14 8 39 14 57 15 29 0 33 4 44 40 11
37 10 42 -9 63 -52 55 -49 243 4 306 13 16 24 37 24 47 0 11 12 46 26 79 14
33 32 77 39 97 18 49 60 102 108 135 36 25 38 29 37 82 -1 84 5 133 19 159 10
19 9 28 -8 56 -25 40 -27 86 -5 127 11 23 13 38 6 58 -8 22 -5 35 14 67 13 21
24 51 24 65 0 15 7 32 15 39 8 7 17 28 20 49 10 61 21 78 55 85 28 5 32 9 28
31 -4 17 0 26 12 30 25 8 121 103 148 146 l22 37 -45 40 c-35 31 -45 46 -45
71 0 17 -9 45 -19 62 -13 21 -18 42 -14 59 3 15 -2 40 -10 56 -8 16 -19 57
-26 91 -12 64 -6 93 24 118 7 6 15 46 19 90 3 43 11 84 16 89 6 6 10 29 10 52
0 30 7 51 24 71 20 24 21 30 10 41 -24 22 -17 69 15 98 26 23 81 117 81 139 0
4 13 29 29 55 28 45 102 235 121 309 7 27 5 40 -9 60 -20 27 -28 73 -34 182
l-4 65 38 22 c29 17 39 29 39 48 0 14 7 39 16 56 9 17 14 42 11 57 -19 93 -27
115 -41 123 -32 18 -106 133 -136 210 -38 98 -48 183 -27 224 13 26 13 32 1
49 -8 11 -13 28 -10 37 2 11 -5 25 -20 35 l-24 18 25 168 c14 93 25 213 25
267 0 74 4 100 15 110 8 7 15 27 15 44 0 17 7 39 15 50 10 13 12 33 8 66 -5
40 -2 53 16 76 11 15 21 31 21 36 0 5 9 21 20 37 17 22 19 32 11 53 -5 14 -17
28 -25 31 -9 4 -16 16 -16 28 0 18 4 20 26 15 27 -7 26 1 -2 35 -12 13 -10 19
15 43 22 22 28 33 22 49 -5 14 -2 26 11 39 10 10 18 29 18 42 0 19 -7 25 -35
30 -41 8 -42 17 -20 136 14 75 14 75 -11 97 -32 30 -32 85 1 138 38 62 30 146
-23 229 -23 37 -25 50 -23 126 1 47 13 153 27 235 21 123 29 154 49 175 13 14
42 68 66 120 l42 95 5 190 c8 307 7 324 -17 403 -20 66 -22 94 -22 296 0 284
38 602 82 688 16 32 19 59 19 190 1 145 2 155 25 193 23 37 25 50 25 157 0 66
7 148 15 190 17 81 11 276 -9 302 -6 8 -277 116 -602 240 -434 166 -601 226
-630 225 -21 -1 -226 -19 -454 -41z"/>
</g>
</svg>
