<?xml version="1.0" standalone="no"?>
<!DOCTYPE svg PUBLIC "-//W3C//DTD SVG 20010904//EN"
 "http://www.w3.org/TR/2001/REC-SVG-20010904/DTD/svg10.dtd">
<svg version="1.0" xmlns="http://www.w3.org/2000/svg"
 width="1024.000000pt" height="1024.000000pt" viewBox="0 0 1024.000000 1024.000000"
 preserveAspectRatio="xMidYMid meet">
<metadata>
Created by potrace 1.10, written by Peter Selinger 2001-2011
</metadata>
<g transform="translate(0.000000,1024.000000) scale(0.100000,-0.100000)"
fill="#000000" stroke="none">
<path d="M2935 8864 l-279 -74 -117 12 -118 12 -153 -37 c-151 -35 -155 -36
-233 -23 -64 10 -133 10 -349 0 -148 -7 -272 -16 -276 -21 -105 -118 -464
-503 -737 -790 l-353 -372 -138 -278 -138 -278 -23 -180 -23 -180 36 -255 c20
-141 58 -366 85 -500 l49 -245 6 -275 c7 -274 7 -276 61 -585 30 -170 61 -353
70 -405 8 -52 18 -105 20 -117 3 -14 36 -44 84 -78 l78 -55 7 -62 c3 -35 17
-115 31 -178 23 -113 27 -120 158 -352 107 -189 158 -267 251 -386 l118 -148
321 -87 c177 -48 414 -106 527 -128 273 -54 619 -150 925 -256 237 -82 260
-93 430 -192 l179 -105 226 -53 c442 -103 1128 -202 1939 -278 l274 -26 81
-62 c45 -35 170 -118 279 -186 164 -101 233 -137 409 -212 l211 -90 206 -18
206 -19 265 53 c146 30 380 79 520 110 l255 57 255 130 c140 72 298 155 350
184 88 50 98 58 133 117 32 54 37 73 37 124 0 55 4 67 53 145 29 46 88 126
131 178 43 52 82 105 87 117 4 12 27 95 51 184 42 162 43 164 105 244 35 44
90 120 123 169 59 89 60 90 60 160 0 44 -9 101 -24 151 -48 165 -9 342 98 445
44 42 46 47 46 98 0 45 8 69 43 134 44 84 52 91 130 102 47 7 51 6 97 -33 l49
-41 12 22 c20 36 12 210 -11 283 -18 55 -28 68 -119 147 -87 76 -107 100 -155
185 -87 155 -203 421 -272 628 -64 190 -64 190 -58 275 5 70 11 93 35 131 50
79 39 125 -61 268 l-65 92 -31 329 -30 328 -62 95 c-57 86 -71 99 -161 161
-64 43 -134 80 -198 104 -54 20 -152 66 -218 102 -115 63 -123 70 -248 205
-71 77 -187 215 -258 307 -119 153 -137 172 -239 248 -61 44 -168 118 -238
162 -70 45 -170 114 -222 153 -52 39 -138 101 -191 137 l-95 66 -415 -88
c-228 -48 -531 -117 -674 -153 -202 -51 -318 -74 -520 -102 -340 -48 -442 -45
-705 20 -96 23 -213 45 -259 49 -46 3 -86 8 -90 11 -3 3 -10 45 -16 93 l-10
87 -126 0 -126 0 -242 164 c-160 108 -282 182 -359 218 -115 54 -116 55 -246
64 -72 4 -156 10 -186 13 -45 3 -107 -10 -335 -70z"/>
<path d="M10118 4018 l-35 -63 -69 -3 -69 -3 -34 -47 c-37 -50 -58 -99 -66
-159 -4 -34 -1 -41 29 -65 l33 -28 81 12 81 12 86 117 c88 120 90 127 79 211
-6 39 -11 48 -41 62 -18 9 -35 16 -37 16 -3 0 -20 -28 -38 -62z"/>
<path d="M9994 3563 c-17 -2 -43 -17 -58 -32 l-26 -27 29 -41 30 -41 -30 -41
c-24 -34 -29 -50 -29 -101 0 -58 32 -150 52 -150 5 0 42 18 83 41 65 35 76 45
84 77 37 140 40 161 35 209 -6 48 -9 52 -58 82 -29 17 -59 30 -66 29 -8 0 -29
-3 -46 -5z"/>
<path d="M9880 2940 c-41 -62 -51 -85 -48 -112 7 -78 109 -17 141 85 23 73 22
83 -12 95 -29 10 -30 9 -81 -68z"/>
<path d="M9431 2361 c-19 -5 -28 -18 -37 -55 -12 -46 -11 -49 18 -91 l31 -44
37 19 c52 27 64 79 33 145 -17 36 -31 41 -82 26z"/>
</g>
</svg>
