<?xml version="1.0" standalone="no"?>
<!DOCTYPE svg PUBLIC "-//W3C//DTD SVG 20010904//EN"
 "http://www.w3.org/TR/2001/REC-SVG-20010904/DTD/svg10.dtd">
<svg version="1.0" xmlns="http://www.w3.org/2000/svg"
 width="1024.000000pt" height="1024.000000pt" viewBox="0 0 1024.000000 1024.000000"
 preserveAspectRatio="xMidYMid meet">
<metadata>
Created by potrace 1.10, written by Peter Selinger 2001-2011
</metadata>
<g transform="translate(0.000000,1024.000000) scale(0.100000,-0.100000)"
fill="#000000" stroke="none">
<path d="M665 8639 c-82 -10 -159 -18 -170 -18 -26 -1 -251 -188 -289 -240
-21 -28 -43 -45 -78 -58 -49 -17 -51 -21 -63 -83 -4 -19 -21 -49 -37 -67 l-30
-31 41 -60 c37 -54 41 -67 41 -120 l0 -59 108 -50 108 -51 28 -96 c16 -53 30
-96 31 -96 10 0 242 93 248 100 5 4 4 36 -1 71 -10 62 -9 65 16 92 22 23 34
27 78 27 l52 0 39 97 c21 53 45 100 53 104 8 5 49 16 91 24 l76 16 59 76 c79
103 77 97 69 163 l-7 59 -62 21 c-53 17 -74 32 -151 110 -49 50 -92 89 -95 89
-3 -1 -72 -10 -155 -20z"/>
<path d="M2276 7760 l-109 -29 -81 -80 -81 -81 49 -49 48 -48 -67 -18 c-52
-14 -95 -38 -198 -110 -73 -50 -152 -103 -177 -118 l-46 -26 -89 59 -89 59
-33 -19 c-18 -11 -49 -29 -67 -40 l-35 -21 -40 21 -41 20 -60 -30 -59 -30 18
-42 c10 -24 33 -74 50 -112 l31 -68 44 36 c25 20 49 36 55 36 7 0 45 -25 86
-56 64 -48 74 -60 80 -94 6 -36 9 -39 48 -45 79 -12 79 -12 72 -58 -4 -23 -12
-45 -17 -48 -6 -4 -55 -10 -109 -14 -55 -3 -99 -9 -99 -11 0 -9 113 -174 120
-174 3 0 46 13 94 30 79 26 103 41 260 164 l173 134 239 11 c288 13 274 13
274 2 0 -5 -25 -43 -57 -85 l-56 -76 -89 0 -88 0 -318 -159 -319 -159 -38
-106 c-20 -59 -41 -108 -45 -111 -4 -2 -32 -7 -62 -11 -50 -6 -63 -2 -188 51
-74 32 -136 58 -136 59 -1 0 -5 49 -9 108 l-7 106 46 7 c47 7 48 9 61 73 6 31
2 38 -62 105 l-69 72 -18 125 c-23 159 -58 245 -128 316 l-50 52 20 86 c22 96
22 96 -48 71 -23 -8 -46 -15 -50 -15 -3 0 -17 23 -30 51 -13 28 -27 52 -32 55
-4 3 -99 -39 -211 -92 l-204 -96 -18 -77 c-15 -66 -34 -102 -137 -266 l-120
-189 8 -51 c9 -47 11 -50 41 -53 24 -2 41 -13 60 -39 l27 -35 -18 -163 c-10
-90 -15 -168 -12 -174 4 -5 43 -29 87 -53 73 -40 79 -45 73 -68 -10 -37 -9
-43 41 -203 44 -140 46 -152 37 -205 l-10 -57 134 -135 c74 -74 134 -141 134
-148 0 -7 -29 -71 -65 -142 l-65 -129 39 -109 40 -110 -20 -147 c-11 -81 -18
-149 -16 -151 2 -2 112 -7 244 -11 l241 -6 218 -218 219 -219 41 41 c36 35 49
41 111 51 l69 10 78 89 78 89 78 0 78 0 7 -51 c4 -28 25 -104 46 -167 28 -85
39 -133 39 -177 l0 -61 -58 -28 -57 -27 -88 -168 -87 -168 48 -117 c43 -104
60 -130 147 -237 55 -65 102 -119 105 -119 3 0 51 13 108 29 l102 28 0 -58 0
-58 -55 -17 c-30 -10 -55 -20 -55 -23 0 -3 38 -49 85 -101 47 -52 133 -165
191 -250 59 -85 108 -156 110 -158 1 -2 90 14 198 36 108 22 198 36 200 33 2
-3 24 -70 50 -148 l47 -141 37 -9 c29 -7 45 -20 75 -63 21 -30 43 -55 48 -55
5 0 39 24 74 54 l65 54 0 156 c0 126 -4 170 -20 226 -15 54 -17 71 -7 77 6 5
46 27 88 50 74 41 77 44 117 122 23 45 53 102 68 128 l27 48 -18 40 -18 40 28
40 28 40 -28 203 c-26 188 -31 210 -77 322 -27 66 -76 161 -109 211 l-60 91
39 99 40 99 -30 38 -30 38 73 154 c40 85 74 153 75 152 2 -2 -1 -39 -6 -83 -8
-75 -6 -89 41 -298 29 -132 49 -243 49 -280 l0 -61 106 -55 c105 -55 106 -55
175 -152 38 -53 69 -100 69 -104 0 -4 -20 -40 -45 -80 -41 -65 -45 -78 -45
-133 0 -33 2 -61 5 -61 2 0 29 12 59 26 42 21 60 38 82 76 28 47 140 141 169
141 27 0 195 -110 252 -166 l61 -60 51 18 50 19 48 117 48 118 70 31 70 31 58
-20 58 -20 31 49 30 48 86 7 c48 3 104 8 125 11 l37 6 0 -60 0 -60 -95 -18
c-52 -10 -95 -20 -95 -23 0 -3 22 -80 49 -171 l48 -164 27 42 c14 23 28 42 30
42 2 0 11 -98 21 -217 l18 -218 45 -85 c25 -46 59 -98 75 -115 16 -16 36 -46
44 -65 9 -19 39 -62 68 -96 43 -49 95 -86 262 -191 277 -174 342 -213 353
-213 5 0 26 25 47 56 29 44 41 54 57 50 36 -8 219 -44 256 -49 31 -4 43 1 95
43 68 57 44 62 218 -50 91 -59 119 -82 126 -105 6 -16 28 -88 51 -160 l41
-130 59 -48 59 -48 61 41 60 41 -40 79 -40 80 84 55 c46 30 93 55 103 55 11 0
44 -17 74 -39 42 -30 88 -86 207 -250 85 -116 156 -211 158 -211 9 0 152 308
173 373 13 37 28 67 34 67 7 0 68 -21 137 -46 116 -42 129 -49 186 -105 l61
-61 59 30 59 30 12 98 c11 95 13 99 50 131 21 18 41 32 46 33 4 0 7 -54 7
-120 l0 -120 159 0 159 0 52 42 c96 78 83 76 146 22 106 -93 94 -88 171 -65
37 10 106 24 153 30 104 14 146 24 142 37 -2 5 -32 46 -67 91 -52 66 -65 90
-65 118 l0 35 66 0 c40 0 112 12 186 30 66 17 122 30 123 28 1 -2 14 -22 29
-45 14 -24 32 -43 39 -43 36 1 99 44 151 104 l58 66 30 223 30 222 -18 97 c-9
53 -20 101 -23 106 -3 4 -40 17 -81 28 l-74 19 -40 87 -39 87 48 126 c47 124
48 126 39 197 l-9 72 -91 21 c-50 12 -148 43 -218 70 -82 31 -130 45 -134 38
-4 -6 -40 -60 -80 -121 l-73 -110 35 -71 c20 -39 36 -72 36 -75 0 -5 -43 -11
-131 -21 l-56 -6 -48 -105 c-26 -57 -52 -104 -57 -104 -4 0 -48 20 -96 44 -86
43 -162 109 -162 140 0 8 -3 21 -6 29 -4 12 8 16 57 22 l61 7 -93 94 -94 94
-76 0 -76 0 -48 -60 -48 -60 -25 22 c-31 30 -38 44 -46 93 l-6 40 135 145 135
145 0 51 0 52 71 18 71 18 30 61 30 60 -36 62 c-20 34 -36 65 -36 70 0 5 20
18 45 29 l45 19 -170 149 c-93 82 -229 192 -302 244 -111 80 -150 101 -243
135 -100 37 -120 49 -220 131 -60 50 -151 130 -201 179 -88 85 -95 89 -168
108 -76 19 -76 19 -115 -1 l-40 -20 -158 129 c-87 70 -255 199 -373 285 l-215
157 -100 -6 c-55 -3 -121 -8 -147 -11 l-47 -6 -32 52 c-29 48 -40 55 -171 121
-109 55 -164 90 -247 158 -135 112 -309 213 -432 252 -71 22 -129 32 -239 40
l-145 11 -60 58 -60 59 -144 -30 c-131 -26 -152 -28 -225 -19 -44 5 -85 10
-91 10 -6 0 -28 -29 -48 -65 -21 -36 -40 -65 -43 -65 -2 0 -38 25 -78 55 l-74
56 29 97 30 97 -57 125 c-59 129 -99 186 -209 295 -123 122 -137 130 -299 174
l-147 40 -79 -50 -79 -50 -88 17 c-102 19 -103 20 -207 111 l-78 70 -147 -42
c-80 -23 -167 -45 -193 -49 l-48 -7 0 55 0 56 105 0 106 0 30 67 c25 56 29 77
27 132 l-3 64 -104 29 -104 29 -60 -20 -59 -20 -107 29 c-96 27 -255 51 -321
49 -14 0 -74 -14 -134 -29z"/>
</g>
</svg>
