<?xml version="1.0" standalone="no"?>
<!DOCTYPE svg PUBLIC "-//W3C//DTD SVG 20010904//EN"
 "http://www.w3.org/TR/2001/REC-SVG-20010904/DTD/svg10.dtd">
<svg version="1.0" xmlns="http://www.w3.org/2000/svg"
 width="1024.000000pt" height="1024.000000pt" viewBox="0 0 1024.000000 1024.000000"
 preserveAspectRatio="xMidYMid meet">
<metadata>
Created by potrace 1.10, written by Peter Selinger 2001-2011
</metadata>
<g transform="translate(0.000000,1024.000000) scale(0.100000,-0.100000)"
fill="#000000" stroke="none">
<path d="M4425 9579 c-1635 -42 -2568 -49 -3778 -28 -351 6 -640 9 -642 7 -2
-2 1 -24 6 -49 9 -43 11 -45 42 -42 32 4 32 3 74 -94 24 -54 43 -108 43 -120
0 -11 11 -45 25 -75 29 -62 31 -94 8 -120 -15 -17 -14 -18 21 -18 53 0 114
-34 122 -68 3 -15 7 -32 9 -37 1 -6 23 -16 49 -22 52 -14 62 -35 53 -104 -5
-39 -3 -42 65 -107 l69 -67 -26 -58 c-30 -64 -29 -93 0 -90 43 6 72 -12 151
-88 45 -44 97 -88 115 -97 23 -12 36 -28 43 -54 9 -30 14 -36 26 -28 30 19 57
11 70 -20 17 -41 46 -60 91 -60 37 0 53 12 74 54 9 17 20 21 56 20 25 0 60 -6
78 -14 28 -11 32 -17 27 -39 -4 -14 -8 -32 -9 -40 -1 -8 18 -26 43 -41 57 -33
58 -57 5 -87 -22 -12 -44 -24 -48 -26 -5 -1 -5 -10 -2 -19 5 -12 19 -15 58
-14 l52 1 3 -34 c2 -20 -2 -37 -10 -42 -21 -14 -77 -10 -103 7 -33 21 -45 11
-45 -40 0 -49 -13 -64 -82 -94 -51 -22 -72 -60 -49 -91 23 -32 23 -43 4 -63
-12 -11 -35 -23 -54 -27 -25 -5 -34 -13 -40 -35 -7 -26 -3 -34 41 -73 26 -25
53 -57 60 -73 6 -15 19 -31 29 -36 10 -5 44 -38 77 -74 56 -62 61 -65 104 -65
40 0 45 -3 48 -23 2 -13 -3 -31 -11 -40 -49 -57 -41 -125 18 -162 46 -28 65
-57 65 -97 0 -29 3 -33 28 -33 20 0 32 -8 44 -28 9 -15 26 -36 38 -47 21 -19
21 -19 66 5 50 28 74 22 85 -21 3 -13 12 -23 19 -21 62 14 68 14 79 -7 9 -16
8 -28 -5 -53 -10 -18 -19 -62 -21 -98 -3 -36 -5 -1176 -6 -2535 l-2 -2470
3378 -3 c1969 -1 3377 -6 3377 -11 0 -18 30 -20 58 -4 47 27 59 14 67 -74 l7
-78 54 -24 c76 -33 82 -42 60 -103 -12 -34 -15 -62 -11 -89 6 -37 4 -42 -33
-77 -22 -20 -43 -47 -47 -60 -3 -12 -24 -31 -45 -42 -59 -30 -105 -75 -138
-134 -17 -29 -54 -72 -83 -97 -33 -27 -61 -62 -75 -94 l-24 -50 492 -3 c390
-2 495 0 505 11 7 7 16 35 19 62 9 69 26 92 89 120 77 34 75 51 -22 141 -81
76 -87 94 -38 116 20 9 37 9 75 -1 38 -10 57 -10 85 -1 51 17 45 40 -23 76
-62 34 -86 70 -62 98 13 17 61 20 95 7 29 -12 54 -2 69 28 16 31 13 43 -27 98
l-29 42 21 29 c11 17 21 35 21 41 0 6 -16 44 -36 83 -30 60 -34 75 -25 95 15
32 56 47 95 33 68 -24 79 -56 49 -141 -17 -48 -17 -49 4 -70 l21 -21 15 23 c8
13 25 60 37 104 12 44 33 101 46 127 43 85 87 88 154 8 37 -44 47 -51 74 -48
27 3 32 8 44 53 8 28 28 68 45 89 l31 40 -27 48 c-33 58 -34 81 -6 109 16 16
29 20 55 16 31 -5 34 -3 34 19 0 19 -5 24 -24 24 -29 0 -56 33 -56 69 0 13 15
40 34 61 58 64 105 222 74 248 -12 9 -24 8 -56 -5 -59 -23 -88 -9 -97 47 -4
24 -15 46 -26 53 -10 6 -26 33 -35 59 -17 53 -38 66 -65 42 -27 -24 -24 -35
21 -79 44 -43 48 -59 22 -93 l-18 -23 -56 50 c-32 27 -71 52 -88 56 -30 7 -30
7 -29 70 1 61 0 66 -47 129 -27 36 -57 80 -66 98 -20 36 -24 83 -8 93 20 13 9
22 -37 31 -46 9 -48 11 -51 46 -5 53 30 115 76 135 55 25 72 43 72 74 0 45
-29 119 -76 191 -64 100 -75 126 -72 166 3 38 4 38 51 25 25 -8 21 16 -13 67
-22 34 -30 57 -30 91 l0 47 -64 27 c-51 22 -67 34 -75 56 -8 23 -16 29 -39 29
-38 0 -62 28 -62 73 0 30 -7 44 -40 73 -60 54 -123 101 -171 125 l-43 23 -48
-27 c-26 -15 -54 -27 -62 -27 -19 0 -85 78 -93 109 -5 19 0 30 22 48 l28 24
-35 -6 c-32 -6 -39 -3 -77 36 -23 24 -60 52 -84 64 -25 12 -56 40 -77 68 -24
32 -42 47 -58 47 -31 0 -92 32 -123 67 -15 15 -39 52 -53 81 -22 43 -35 57
-71 72 -24 10 -50 29 -59 42 -21 33 -36 127 -36 224 l0 83 59 78 c72 97 76
104 91 178 19 101 30 124 91 197 32 39 59 79 59 89 0 10 -12 50 -26 88 -15 41
-24 80 -20 93 3 13 39 65 81 116 41 51 75 99 75 105 0 25 -31 56 -102 103 -56
37 -105 58 -213 91 -77 23 -157 43 -177 43 -47 0 -86 -32 -127 -105 -17 -30
-39 -59 -50 -65 -83 -44 -185 65 -231 246 -24 93 -25 139 -5 188 14 34 14 39
-6 77 -13 27 -24 74 -29 130 -15 156 -72 227 -296 366 -167 103 -214 146 -238
214 -27 79 -42 97 -80 104 -41 8 -71 38 -88 86 -9 25 -40 58 -103 111 -49 41
-113 99 -141 129 -50 53 -51 56 -57 130 -8 99 -10 102 -68 144 -57 41 -62 64
-28 139 l20 47 -55 92 c-62 103 -71 134 -84 262 -14 140 21 359 74 462 l24 48
-29 25 c-16 14 -50 58 -75 98 -26 40 -57 78 -71 84 -13 6 -44 42 -69 79 -25
38 -64 81 -86 95 -22 14 -51 46 -65 70 l-26 44 -157 -1 c-86 -1 -818 -19
-1627 -40z"/>
</g>
</svg>
