<?xml version="1.0" standalone="no"?>
<!DOCTYPE svg PUBLIC "-//W3C//DTD SVG 20010904//EN"
 "http://www.w3.org/TR/2001/REC-SVG-20010904/DTD/svg10.dtd">
<svg version="1.0" xmlns="http://www.w3.org/2000/svg"
 width="1024.000000pt" height="1024.000000pt" viewBox="0 0 1024.000000 1024.000000"
 preserveAspectRatio="xMidYMid meet">
<metadata>
Created by potrace 1.10, written by Peter Selinger 2001-2011
</metadata>
<g transform="translate(0.000000,1024.000000) scale(0.100000,-0.100000)"
fill="#000000" stroke="none">
<path d="M2035 10228 c-63 -9 -77 -16 -140 -63 -53 -41 -96 -63 -178 -92
l-108 -38 -60 -102 -61 -103 -118 0 -118 0 -101 -207 c-56 -115 -150 -297
-208 -407 l-105 -198 37 -162 37 -161 -25 -62 -25 -61 20 -84 c15 -62 18 -101
13 -153 l-6 -70 90 -230 91 -230 59 -34 c66 -38 67 -39 77 -169 5 -70 2 -86
-29 -179 l-35 -102 23 -108 c37 -179 39 -289 10 -527 l-25 -207 20 -237 c12
-130 23 -246 26 -257 3 -11 30 -73 61 -137 l56 -116 -37 -147 -36 -146 41
-134 42 -133 103 -86 103 -87 -19 -67 c-10 -37 -32 -122 -50 -189 l-31 -122
49 -89 49 -89 12 -174 c6 -96 14 -199 17 -229 l5 -55 -60 -67 -61 -66 0 -128
0 -128 72 -235 71 -235 -13 -90 c-7 -50 -14 -95 -17 -101 -2 -6 56 -43 129
-82 l133 -71 38 -95 c46 -118 128 -375 129 -403 0 -11 -19 -79 -43 -151 l-43
-131 40 -79 39 -78 249 -5 248 -5 38 -95 c20 -52 48 -138 60 -190 l23 -95 -37
-74 c-21 -40 -34 -77 -29 -81 4 -4 67 -50 138 -101 l130 -94 145 -28 145 -28
124 50 c69 28 132 51 140 51 39 0 340 -140 489 -227 l163 -96 146 -13 c158
-13 160 -13 493 62 l75 16 125 -75 c69 -42 233 -151 366 -244 l241 -168 178
-202 178 -203 111 0 111 1 63 78 c62 76 64 78 140 100 l77 22 104 129 103 128
54 -24 c30 -13 56 -24 58 -24 16 0 81 112 105 181 17 46 50 127 75 181 l45 96
93 49 93 49 90 -23 c50 -12 93 -23 96 -23 4 0 12 20 19 45 14 50 37 82 130
182 l62 66 106 13 c65 7 108 18 113 26 5 7 39 66 76 132 l68 118 82 33 c94 38
195 115 286 218 57 65 58 66 175 104 l117 39 32 80 c22 53 32 97 33 134 1 50
4 59 43 101 28 30 55 49 78 54 59 13 69 22 69 64 0 26 14 64 47 123 45 83 50
88 169 174 l122 89 50 203 c48 200 49 205 36 265 -20 95 -20 95 29 99 l42 3 3
62 c3 62 3 62 60 111 56 48 58 53 96 169 l39 119 -21 173 -22 173 -82 91 c-45
51 -93 104 -106 119 -13 15 -28 48 -33 75 -8 40 -20 58 -76 115 -37 38 -72 68
-78 68 -6 0 -25 -29 -42 -64 l-32 -64 -64 -7 c-61 -7 -66 -5 -154 39 -170 85
-262 144 -280 181 -10 19 -101 108 -203 199 -174 155 -189 167 -253 186 l-68
21 -54 -45 -53 -46 -80 0 -80 0 -149 120 c-141 113 -152 120 -228 140 -44 12
-107 29 -140 39 l-59 17 -66 109 -66 109 -53 13 -53 14 -55 -48 c-30 -26 -60
-52 -67 -57 -9 -6 -59 16 -156 70 l-144 79 -48 76 -49 76 -117 27 c-83 19
-205 62 -419 148 l-301 122 -12 62 c-7 35 -17 70 -24 78 -6 9 -103 67 -216
130 l-205 114 -202 289 c-182 259 -208 291 -253 316 l-50 29 -1 76 c-1 43 -4
109 -8 149 l-6 71 -127 111 c-121 106 -132 118 -273 323 l-147 212 16 136 c9
74 16 138 16 141 0 3 -32 18 -71 35 -70 28 -71 30 -106 99 -20 39 -78 173
-130 299 -89 219 -93 232 -93 304 0 56 -9 105 -37 201 -20 69 -38 128 -39 130
-2 2 -22 -4 -46 -13 -42 -16 -45 -15 -193 27 l-150 44 -115 167 c-110 159
-118 168 -180 202 -36 20 -87 55 -115 79 -27 23 -158 126 -289 229 -179 140
-245 186 -265 185 -14 -1 -57 -6 -96 -11z"/>
</g>
</svg>
