<?xml version="1.0" standalone="no"?>
<!DOCTYPE svg PUBLIC "-//W3C//DTD SVG 20010904//EN"
 "http://www.w3.org/TR/2001/REC-SVG-20010904/DTD/svg10.dtd">
<svg version="1.0" xmlns="http://www.w3.org/2000/svg"
 width="1024.000000pt" height="1024.000000pt" viewBox="0 0 1024.000000 1024.000000"
 preserveAspectRatio="xMidYMid meet">
<metadata>
Created by potrace 1.10, written by Peter Selinger 2001-2011
</metadata>
<g transform="translate(0.000000,1024.000000) scale(0.100000,-0.100000)"
fill="#000000" stroke="none">
<path d="M9990 9856 c-37 -14 -37 -16 -26 -82 6 -36 4 -43 -16 -56 -46 -31
-79 -30 -163 3 -73 28 -86 30 -155 24 -53 -5 -88 -14 -119 -32 -67 -39 -121
-92 -121 -119 0 -23 -4 -24 -57 -24 -48 0 -76 -8 -158 -46 -55 -26 -136 -56
-181 -67 -80 -20 -81 -21 -117 -76 -67 -102 -138 -166 -220 -197 -131 -49
-142 -57 -206 -153 -33 -49 -74 -99 -91 -111 -18 -13 -56 -52 -86 -89 -46 -56
-63 -69 -112 -86 l-57 -20 -3 -52 c-3 -47 -6 -54 -28 -59 -13 -3 -33 -19 -44
-34 -18 -26 -23 -27 -57 -19 -75 17 -76 16 -69 -48 14 -120 5 -111 109 -115
87 -3 95 -5 147 -41 42 -28 65 -37 97 -37 36 0 43 3 43 19 0 16 8 20 38 23 31
2 38 7 40 28 2 13 17 40 34 59 16 18 34 44 40 57 7 14 29 30 56 41 25 9 58 28
75 42 28 24 31 24 86 12 111 -26 130 -26 140 2 6 15 19 27 32 29 16 2 25 14
33 43 l12 40 179 6 c223 7 274 21 314 86 16 26 43 52 72 68 26 14 64 44 85 67
25 29 51 46 78 53 35 9 41 15 44 40 2 17 15 42 29 57 14 14 22 31 19 37 -8 13
87 14 151 2 35 -7 45 -5 72 16 25 20 31 32 31 63 0 29 6 43 22 55 22 14 24 14
41 -10 27 -36 67 -33 98 8 22 29 24 41 24 137 -1 58 -5 122 -9 143 -8 35 -6
41 24 72 19 19 41 58 51 87 9 29 20 61 24 70 5 13 -1 20 -28 32 -24 10 -36 22
-39 38 -3 21 -8 23 -73 25 -38 1 -86 -4 -105 -11z"/>
<path d="M7210 6164 c-85 -36 -141 -42 -266 -28 -316 36 -456 32 -522 -14 -24
-18 -39 -21 -70 -16 -50 8 -277 -22 -357 -47 -43 -13 -91 -19 -166 -19 -100 0
-107 -1 -145 -29 -21 -16 -109 -64 -194 -107 l-155 -79 -195 0 c-126 -1 -202
-5 -216 -13 -16 -9 -34 -7 -85 9 -83 27 -169 38 -359 48 -140 7 -160 10 -207
34 -36 18 -68 27 -101 27 l-48 0 -42 -65 -41 -65 -67 0 c-62 0 -69 -2 -105
-35 -31 -27 -48 -35 -78 -35 -50 0 -101 -44 -101 -87 0 -27 -4 -30 -51 -41
-83 -19 -99 -17 -99 16 0 16 -8 36 -18 45 -17 16 -20 15 -42 -8 -14 -15 -35
-25 -52 -25 -23 0 -28 4 -28 24 0 26 -8 30 -72 42 l-38 6 0 -55 0 -55 -93 -16
c-93 -17 -94 -17 -131 5 l-37 21 -44 -34 c-44 -34 -46 -35 -168 -42 -69 -3
-146 -13 -173 -21 -34 -10 -96 -15 -199 -15 -145 0 -151 -1 -197 -28 -72 -41
-186 -134 -198 -161 -10 -22 -13 -23 -87 -16 l-76 7 6 -24 c4 -12 7 -31 7 -40
0 -9 11 -30 25 -47 24 -27 25 -35 19 -93 l-6 -64 36 -11 c31 -9 39 -8 60 8 13
10 37 19 54 19 26 0 32 -6 57 -65 15 -36 32 -65 38 -65 18 0 97 32 97 39 0 4
-14 18 -32 31 l-31 23 54 28 c65 34 80 35 104 9 11 -12 31 -20 52 -20 18 0 50
-7 71 -15 20 -9 79 -19 132 -22 110 -7 177 -34 223 -89 16 -19 50 -46 75 -61
26 -15 73 -47 105 -71 57 -45 57 -45 57 -99 0 -48 5 -62 50 -128 64 -94 184
-400 209 -532 l18 -93 -32 -47 c-23 -35 -38 -76 -53 -148 -12 -55 -37 -161
-56 -235 -19 -74 -39 -169 -45 -210 -9 -62 -16 -79 -39 -98 l-27 -23 24 -19
c13 -11 30 -20 38 -20 9 0 12 -7 9 -17 -2 -10 -10 -44 -17 -75 l-12 -58 46
-59 c26 -33 47 -69 47 -82 0 -39 41 -160 70 -208 21 -35 31 -68 40 -141 6 -52
16 -125 21 -162 8 -62 7 -70 -21 -133 -16 -37 -37 -94 -46 -127 -20 -78 -71
-142 -132 -162 -24 -9 -71 -37 -106 -64 -80 -63 -84 -65 -191 -95 -81 -22
-100 -23 -185 -16 -127 11 -193 29 -267 73 -59 34 -66 36 -154 36 l-92 0 -33
-36 c-29 -31 -34 -42 -34 -86 0 -45 -5 -57 -47 -110 -57 -70 -206 -177 -267
-189 -22 -5 -51 -11 -63 -14 -16 -4 -23 -15 -28 -45 -5 -31 -17 -48 -53 -78
-101 -84 -256 -122 -495 -122 -75 0 -138 -4 -141 -8 -16 -26 -97 -67 -197
-101 -105 -36 -114 -41 -120 -68 -9 -43 -79 -163 -113 -194 -27 -23 -41 -27
-128 -33 -53 -4 -123 -16 -154 -26 -32 -11 -79 -20 -106 -20 -79 0 -114 -31
-165 -146 -27 -61 -43 -111 -43 -136 l0 -40 98 4 c106 4 117 8 272 98 41 24
95 49 119 57 24 7 58 24 75 37 50 37 147 83 217 101 77 20 105 14 223 -50 l79
-44 51 26 c28 15 77 32 109 39 83 17 328 8 438 -17 48 -10 109 -19 137 -19 49
0 51 -1 81 -48 17 -26 44 -62 60 -81 29 -33 29 -33 81 -22 28 6 68 11 88 11
20 0 83 11 140 25 57 14 121 25 142 25 22 0 58 7 80 16 34 14 67 15 213 10
525 -20 487 -20 572 4 68 19 93 21 175 15 138 -10 180 -10 321 0 102 6 153 4
261 -10 134 -18 134 -18 268 4 92 16 143 29 163 43 33 23 130 47 195 48 24 0
117 -22 209 -50 113 -34 193 -52 250 -57 83 -6 84 -6 123 26 45 36 68 38 212
16 72 -11 112 -12 149 -5 29 6 69 10 89 10 25 0 66 15 121 44 46 24 110 54
142 67 40 16 63 32 73 50 14 28 26 32 119 45 107 14 189 70 216 147 9 26 29
50 59 72 25 18 62 52 83 75 43 48 54 49 164 9 42 -14 65 -28 69 -42 3 -11 13
-35 21 -54 l14 -34 29 21 30 21 -45 88 c-60 121 -92 255 -77 332 7 40 7 79 0
132 -8 57 -8 90 1 134 7 32 17 137 21 233 9 186 25 257 75 325 13 17 35 54 50
84 l27 53 27 -26 27 -26 12 47 c6 27 14 56 17 66 6 14 2 17 -21 17 -16 1 -40
7 -54 15 -23 13 -27 12 -46 -13 l-22 -26 -45 34 -46 35 -105 315 c-120 359
-186 608 -186 702 0 35 5 98 12 140 l11 77 76 44 c42 25 86 48 99 52 26 8 26
11 7 90 -8 33 -14 94 -15 136 0 49 -7 96 -20 135 -11 32 -34 139 -50 239 -16
99 -41 233 -55 297 -32 150 -33 228 -2 276 12 20 27 54 32 77 l11 40 93 7 93
7 63 68 c35 37 67 80 70 95 4 17 14 28 28 30 14 2 31 19 47 49 14 25 43 61 64
80 68 59 126 147 126 192 0 21 5 48 12 60 7 12 15 47 18 77 l5 54 72 41 c97
54 133 90 133 131 0 22 9 42 25 58 47 48 36 52 -76 30 -22 -4 -30 1 -50 35
l-24 40 -35 -15z"/>
<path d="M1277 5173 c-4 -3 -7 -13 -7 -22 0 -8 -10 -25 -22 -38 -14 -15 -24
-43 -29 -81 -4 -31 -8 -64 -10 -72 -3 -11 6 -16 31 -18 32 -3 38 1 53 33 9 20
17 42 17 50 0 22 29 33 72 28 55 -8 51 19 -14 79 -49 45 -76 57 -91 41z"/>
<path d="M1733 5158 c-35 -7 -47 -17 -68 -52 -14 -23 -25 -46 -25 -49 0 -12
40 -7 114 15 70 20 73 22 83 60 l10 38 -36 -1 c-20 -1 -55 -5 -78 -11z"/>
</g>
</svg>
