<?xml version="1.0" standalone="no"?>
<!DOCTYPE svg PUBLIC "-//W3C//DTD SVG 20010904//EN"
 "http://www.w3.org/TR/2001/REC-SVG-20010904/DTD/svg10.dtd">
<svg version="1.0" xmlns="http://www.w3.org/2000/svg"
 width="1024.000000pt" height="1024.000000pt" viewBox="0 0 1024.000000 1024.000000"
 preserveAspectRatio="xMidYMid meet">
<metadata>
Created by potrace 1.10, written by Peter Selinger 2001-2011
</metadata>
<g transform="translate(0.000000,1024.000000) scale(0.100000,-0.100000)"
fill="#000000" stroke="none">
<path d="M5128 10228 c-26 -6 -56 -20 -69 -34 -32 -34 -37 -120 -14 -229 l18
-84 -28 -43 c-34 -51 -48 -114 -32 -143 6 -11 16 -49 23 -85 11 -59 11 -67 -9
-105 -30 -59 -50 -147 -34 -157 21 -13 106 -9 144 7 36 15 38 15 55 -7 10 -13
21 -34 24 -48 3 -14 12 -46 20 -72 24 -81 23 -83 -63 -113 -60 -21 -108 -29
-208 -35 -71 -5 -150 -16 -174 -24 -24 -9 -52 -16 -62 -16 -10 0 -30 -11 -45
-24 l-28 -23 41 -26 c23 -15 44 -36 48 -48 4 -11 4 -57 0 -102 -7 -76 -13 -92
-102 -270 -72 -146 -110 -238 -163 -396 -37 -113 -78 -231 -90 -261 -18 -46
-23 -85 -29 -230 -5 -114 -5 -182 2 -195 6 -11 129 -215 274 -453 l263 -433
-215 -668 c-119 -368 -295 -924 -393 -1237 l-178 -567 -324 -115 c-672 -237
-1651 -566 -2398 -808 -705 -227 -773 -251 -769 -269 2 -11 191 -476 420
-1032 230 -557 417 -1020 417 -1028 0 -9 20 -27 44 -42 l44 -27 162 -385 c89
-212 165 -389 169 -394 10 -10 130 18 222 53 98 38 235 56 293 40 56 -16 82
-4 141 65 54 64 109 94 171 95 23 0 69 3 103 6 61 7 62 8 96 58 59 90 62 90
546 102 l256 6 7 -26 c4 -18 22 -34 58 -52 47 -24 57 -26 103 -17 77 16 237
64 265 81 48 30 180 167 191 199 7 23 19 35 45 43 33 11 34 13 28 50 -4 27 -1
53 11 82 41 100 39 122 -16 186 -45 51 -46 74 -8 138 32 53 125 144 148 144 5
0 15 19 22 43 6 23 22 60 35 82 25 44 55 59 194 98 113 31 141 36 304 47 87 6
171 16 185 22 14 5 116 11 226 12 l200 3 5 32 c3 21 15 37 35 50 17 10 42 39
55 65 20 37 30 46 52 46 41 0 78 54 78 114 0 36 9 63 35 110 25 45 35 75 35
107 0 24 9 73 20 107 11 35 20 90 20 121 0 56 2 59 48 102 26 25 66 68 90 97
84 101 169 145 437 229 44 13 116 39 160 56 79 31 82 31 295 35 200 3 217 5
237 24 15 14 29 19 47 14 19 -5 29 0 45 20 26 34 26 60 0 103 -16 27 -19 44
-15 75 6 39 5 42 -23 52 -25 10 -31 20 -41 67 -10 51 -9 63 14 137 14 45 26
89 26 98 0 9 -25 54 -55 100 l-55 82 -3 112 c-2 109 -1 114 26 154 37 54 62
123 76 209 7 39 18 99 26 135 9 36 15 94 15 130 0 80 25 122 100 171 49 31 50
34 50 80 0 45 3 50 55 96 51 45 55 51 55 93 1 56 22 85 79 105 48 17 128 20
150 6 12 -8 13 -14 2 -37 -7 -15 -16 -50 -22 -78 -5 -27 -16 -58 -25 -67 -10
-12 -14 -27 -10 -42 6 -27 37 -37 113 -37 24 0 55 -7 69 -17 14 -9 45 -19 69
-23 42 -6 45 -5 56 22 6 16 23 38 37 49 22 17 29 38 49 136 25 125 47 178 94
225 16 16 29 34 29 39 0 5 18 18 40 29 37 19 40 23 40 63 l-1 42 -29 -35 c-40
-47 -40 -15 0 35 17 21 30 46 30 57 0 10 15 32 34 49 24 21 38 44 46 80 13 53
67 125 163 218 26 26 58 63 70 83 32 53 125 133 254 218 102 67 114 77 127
118 9 24 32 67 53 95 45 62 82 150 83 193 0 30 27 78 76 137 13 16 24 34 24
41 0 7 23 35 51 61 47 44 51 51 45 83 -3 21 0 45 9 63 8 15 15 35 15 45 0 9
32 59 72 112 l71 96 8 90 c5 50 12 112 17 138 6 31 6 62 -1 88 -10 35 -17 42
-49 52 -26 8 -45 8 -60 1 -18 -8 -33 -3 -78 24 -49 30 -60 33 -104 27 -46 -6
-50 -4 -90 33 -22 22 -55 49 -72 61 -17 11 -73 64 -126 117 -92 93 -96 100
-117 173 -26 90 -58 128 -143 174 -38 20 -58 37 -58 49 0 10 -20 41 -45 69
-25 28 -45 57 -45 65 0 8 -13 36 -30 61 -16 26 -33 62 -36 81 -4 23 -16 39
-39 53 -59 36 -145 138 -145 170 0 32 -39 70 -72 70 -26 0 -94 51 -135 103 -6
8 -34 20 -62 27 -47 11 -53 10 -83 -11 -26 -19 -50 -24 -122 -29 l-90 -5 -65
39 c-89 54 -180 76 -315 76 -104 0 -111 1 -137 26 -32 30 -81 43 -167 44 -51
0 -75 6 -131 35 -38 19 -107 44 -153 55 -215 52 -341 109 -511 227 l-98 68
-78 140 c-77 139 -78 140 -150 185 -63 40 -78 55 -126 133 -31 49 -66 103 -80
121 -35 46 -89 166 -120 269 -26 85 -27 87 -53 81 -15 -4 -35 -11 -44 -15 -9
-5 -37 -9 -61 -9 -56 0 -92 -27 -108 -81 -9 -30 -17 -39 -34 -39 -13 0 -28 -7
-35 -15 -20 -25 -41 -17 -87 30 -40 42 -43 49 -43 100 0 29 5 57 10 60 18 11
10 42 -15 59 -27 18 -30 18 -97 4z"/>
<path d="M8533 4921 c-44 -37 -63 -74 -63 -118 0 -38 -43 -89 -82 -97 -28 -6
-37 -16 -60 -64 -24 -52 -26 -64 -21 -144 6 -97 19 -120 48 -88 10 11 26 20
36 20 10 0 25 13 33 29 8 15 26 36 40 45 24 15 26 23 26 81 0 81 33 140 83
151 89 18 116 112 53 182 -38 42 -48 43 -93 3z"/>
</g>
</svg>
