<?xml version="1.0" standalone="no"?>
<!DOCTYPE svg PUBLIC "-//W3C//DTD SVG 20010904//EN"
 "http://www.w3.org/TR/2001/REC-SVG-20010904/DTD/svg10.dtd">
<svg version="1.0" xmlns="http://www.w3.org/2000/svg"
 width="1024.000000pt" height="1024.000000pt" viewBox="0 0 1024.000000 1024.000000"
 preserveAspectRatio="xMidYMid meet">
<metadata>
Created by potrace 1.10, written by Peter Selinger 2001-2011
</metadata>
<g transform="translate(0.000000,1024.000000) scale(0.100000,-0.100000)"
fill="#000000" stroke="none">
<path d="M5760 8106 c0 -9 -7 -12 -19 -9 -19 5 -25 -1 -81 -87 -41 -63 -37
-69 15 -21 24 22 51 41 59 41 8 0 21 9 29 20 7 10 24 24 38 29 l24 10 -22 7
c-13 3 -23 10 -23 15 0 5 -4 9 -10 9 -5 0 -10 -6 -10 -14z"/>
<path d="M5288 7993 c7 -3 16 -2 19 1 4 3 -2 6 -13 5 -11 0 -14 -3 -6 -6z"/>
<path d="M4990 7960 c-50 -5 -100 -22 -219 -77 -175 -80 -221 -111 -221 -150
0 -26 1 -25 38 15 23 25 48 42 61 42 12 0 81 29 154 65 73 36 141 65 152 65
11 0 43 11 70 24 28 14 46 24 40 24 -5 -1 -39 -4 -75 -8z"/>
<path d="M4070 7451 c-8 -5 -35 -11 -60 -15 -46 -7 -90 -29 -90 -45 0 -15 51
-22 84 -11 17 5 44 24 60 40 29 32 32 44 6 31z"/>
<path d="M5545 7270 c11 -5 36 -8 55 -8 32 0 33 1 10 8 -14 4 -38 8 -55 8 -25
1 -27 -1 -10 -8z"/>
<path d="M5677 7232 c18 -31 18 -31 37 -12 23 23 20 28 -23 36 l-32 7 18 -31z"/>
<path d="M5829 7195 c-8 -16 -26 -37 -41 -48 -23 -17 -31 -18 -56 -8 -27 11
-37 9 -103 -25 -72 -37 -77 -38 -214 -44 -179 -8 -211 -19 -294 -95 -69 -63
-187 -123 -219 -110 -8 3 -21 0 -28 -6 -10 -8 -32 -2 -93 26 -70 33 -83 36
-112 26 -19 -5 -59 -13 -89 -16 -30 -3 -87 -11 -127 -17 -53 -8 -87 -8 -135 1
-60 12 -66 11 -117 -13 -30 -13 -85 -30 -121 -37 -60 -10 -79 -9 -161 9 -52
11 -143 28 -204 37 -120 18 -237 43 -356 76 l-75 21 -39 -26 c-21 -14 -42 -26
-47 -26 -5 0 -24 -11 -42 -25 -46 -35 -77 -31 -175 22 -88 48 -91 45 -23 -28
l34 -36 -29 -6 c-15 -3 -33 -1 -40 5 -8 6 -19 6 -32 -1 -44 -24 -54 -15 -49
41 4 40 11 57 32 75 l27 23 -24 29 c-22 27 -26 28 -40 14 -14 -15 -22 -12 -81
26 l-66 43 -31 -26 c-35 -29 -37 -30 -75 -16 -36 14 -125 -6 -172 -38 -22 -15
-46 -22 -65 -20 -36 4 -47 -16 -18 -32 34 -18 26 -49 -16 -66 -21 -8 -46 -19
-55 -24 -10 -6 -34 -10 -53 -10 -28 0 -35 -4 -35 -19 0 -12 -18 -31 -48 -51
-29 -18 -56 -46 -65 -66 -28 -59 -63 -58 -140 2 -50 39 -58 39 -81 -8 -6 -12
-21 -24 -33 -26 -12 -2 -27 -10 -33 -18 -7 -8 -23 -14 -37 -14 -14 0 -26 -7
-29 -17 -17 -56 -47 -93 -129 -158 -49 -40 -127 -107 -172 -148 -45 -42 -102
-86 -125 -98 -24 -12 -81 -58 -128 -104 -68 -66 -105 -93 -185 -133 -76 -38
-123 -71 -195 -137 -98 -89 -152 -122 -278 -170 -111 -41 -163 -81 -178 -135
-11 -38 -11 -47 1 -60 8 -9 15 -25 15 -34 0 -30 -50 -113 -76 -125 -33 -15
-33 -66 1 -112 52 -72 64 -94 70 -131 5 -28 14 -42 31 -50 28 -13 29 -21 10
-75 -8 -24 -12 -58 -9 -86 4 -34 1 -54 -12 -73 -16 -24 -20 -25 -74 -19 l-58
7 -78 -86 c-42 -47 -83 -86 -89 -86 -7 0 -20 -16 -29 -35 l-16 -34 35 -27 c27
-21 51 -28 110 -34 71 -7 78 -10 118 -49 23 -22 48 -41 56 -41 8 0 25 15 38
34 13 19 36 40 53 46 36 15 54 3 80 -56 9 -23 23 -45 29 -49 6 -4 20 -26 31
-49 24 -51 92 -138 116 -148 10 -3 32 -7 49 -7 35 -1 98 -55 126 -109 22 -41
86 -71 149 -72 46 0 46 0 53 -40 4 -23 19 -54 37 -75 30 -34 34 -35 79 -29 49
6 93 -8 119 -40 8 -10 29 -16 53 -16 41 0 98 -24 98 -41 0 -6 -5 -20 -11 -31
-9 -16 -8 -35 0 -74 18 -78 31 -84 101 -46 68 38 86 39 116 11 l23 -21 83 47
c105 60 116 70 124 112 3 18 14 37 23 42 9 4 68 6 132 3 l117 -4 48 -87 c26
-47 49 -88 50 -90 2 -2 16 4 31 14 36 24 140 30 203 11 42 -12 51 -12 69 0 27
20 51 6 90 -49 16 -24 46 -56 65 -71 20 -15 36 -33 36 -41 0 -8 -18 -56 -40
-106 -31 -72 -40 -105 -40 -149 0 -44 -5 -63 -25 -90 -19 -26 -25 -46 -25 -87
0 -51 1 -53 28 -53 40 0 70 -25 78 -65 8 -45 -2 -57 -82 -94 -62 -29 -76 -51
-34 -51 10 0 33 -13 51 -30 32 -28 33 -29 46 -10 8 11 24 20 37 20 41 0 93 62
76 90 -16 25 -11 39 21 55 39 20 45 14 32 -30 -10 -30 -8 -36 10 -48 18 -12
20 -18 11 -48 -6 -19 -16 -33 -23 -31 -20 4 -41 -18 -41 -44 0 -49 85 -73 112
-31 9 12 39 31 69 41 89 31 165 73 187 103 17 23 22 25 36 14 21 -18 20 -28
-3 -36 -11 -3 -21 -19 -25 -36 -4 -19 -13 -33 -26 -36 -10 -3 -22 -14 -25 -24
-4 -11 -24 -33 -46 -51 -21 -17 -39 -35 -39 -40 0 -6 16 -29 34 -52 41 -49 85
-140 87 -176 1 -42 12 -55 48 -57 41 -2 66 -25 66 -60 0 -20 12 -36 50 -65 39
-29 50 -44 50 -65 0 -24 4 -28 25 -26 14 2 66 7 115 13 120 13 195 13 250 -2
39 -11 46 -10 57 5 7 9 31 23 53 30 25 9 54 31 80 61 l40 48 1 106 c1 60 7
126 15 151 17 54 69 107 119 122 33 10 42 8 94 -21 51 -29 59 -31 86 -20 49
20 55 34 40 95 -7 30 -16 55 -20 55 -3 0 -14 6 -24 13 -17 12 -17 15 0 49 16
35 16 42 0 140 -10 60 -26 114 -37 130 -17 25 -17 30 -4 69 20 55 20 54 -15
76 l-30 19 20 37 c13 24 20 56 20 92 0 46 3 56 23 67 12 7 92 18 177 24 l155
13 47 -26 c42 -23 50 -24 78 -13 27 11 35 10 65 -6 29 -15 40 -16 65 -7 23 9
32 8 41 -3 6 -8 19 -14 29 -14 31 0 73 65 72 112 0 18 8 34 24 47 45 35 174
184 174 201 0 9 14 21 34 28 32 12 34 15 29 51 l-5 38 86 32 c92 33 153 40
162 18 2 -7 -2 -31 -10 -54 -14 -39 -13 -43 9 -74 12 -19 44 -52 71 -74 88
-72 82 -69 108 -56 12 7 36 11 52 9 22 -2 30 -9 32 -28 2 -14 8 -40 13 -58 11
-34 17 -36 102 -46 38 -5 47 -3 47 10 0 9 -9 23 -21 33 -20 16 -21 21 -10 91
7 41 13 74 14 75 1 0 28 9 60 20 32 10 67 29 77 42 10 13 22 23 27 22 32 -6
59 6 99 43 41 38 46 40 57 23 19 -25 49 -15 68 22 9 18 19 30 23 26 3 -3 24 8
46 26 33 26 44 30 55 21 25 -21 72 18 66 53 -1 5 8 21 19 36 13 19 19 42 17
67 -2 36 0 39 24 39 16 0 37 11 51 26 24 25 30 27 109 24 46 -1 96 -5 112 -9
24 -7 29 -5 42 27 13 32 13 39 -3 66 -9 17 -23 31 -29 31 -7 0 -13 9 -13 19 0
11 -10 27 -22 35 l-21 15 48 93 c27 51 59 114 72 139 21 39 23 53 15 82 -17
61 28 79 71 28 24 -29 24 -29 54 -12 31 19 70 71 53 71 -5 0 -10 7 -10 15 0 8
5 15 10 15 16 0 11 22 -10 45 -25 27 -17 59 12 52 17 -5 19 -2 14 18 -5 20 4
31 59 74 35 28 71 51 79 51 9 0 27 21 42 46 23 39 31 45 53 41 14 -3 42 1 61
9 49 21 76 11 130 -48 39 -42 46 -55 37 -69 -8 -13 -1 -29 39 -79 26 -34 50
-57 52 -51 5 16 70 13 120 -4 24 -9 71 -18 104 -22 51 -5 59 -9 55 -24 -8 -29
72 -51 111 -30 9 6 28 12 42 15 16 4 41 28 68 65 34 47 46 58 63 54 15 -4 19
-11 15 -26 -4 -18 -1 -19 35 -13 34 6 39 4 39 -14 0 -14 7 -20 24 -20 39 0 48
21 31 71 l-16 43 32 31 c29 28 31 29 42 11 47 -74 66 -80 148 -45 49 21 58 32
39 44 -20 12 -9 32 25 48 l35 17 0 -31 c0 -24 4 -30 15 -25 8 3 22 9 30 12 9
4 15 0 15 -9 0 -12 9 -14 39 -10 22 3 41 1 45 -5 5 -8 13 -8 30 -1 17 8 29 8
44 0 17 -9 21 -7 27 17 11 44 52 57 86 26 17 -15 22 -15 63 2 34 14 44 23 40
36 -4 14 2 17 35 16 29 0 49 7 71 26 18 14 37 26 44 26 7 0 17 10 23 23 13 28
94 53 123 37 16 -8 20 -7 20 5 0 8 18 27 40 41 48 32 94 90 86 110 -4 9 3 18
19 24 14 5 25 16 25 25 0 8 12 18 27 21 21 6 31 2 48 -20 l22 -28 42 21 c31
16 41 27 41 46 0 31 3 31 47 -2 25 -19 38 -24 41 -15 8 25 130 -2 124 -28 -2
-7 5 -9 17 -5 21 6 148 9 191 3 16 -2 25 2 28 13 2 12 -4 15 -26 11 -48 -7
-232 87 -232 119 0 13 -130 248 -140 254 -4 3 -11 -11 -14 -30 -5 -24 -11 -33
-21 -28 -18 6 -20 64 -3 81 18 18 5 24 -127 68 -118 40 -209 80 -321 143 -53
29 -75 36 -83 28 -17 -17 -13 -37 9 -37 10 0 35 -14 54 -31 20 -17 40 -28 46
-24 6 4 18 1 26 -6 9 -7 32 -12 52 -11 24 1 51 -6 76 -22 l40 -24 -32 -7 c-17
-3 -55 -5 -83 -4 -45 3 -53 0 -60 -18 -4 -12 -28 -33 -53 -48 -48 -28 -53 -34
-36 -51 8 -8 -1 -19 -29 -38 -38 -27 -40 -27 -65 -11 -30 20 -41 52 -33 101 8
51 -11 53 -102 10 -114 -53 -139 -56 -185 -16 -20 18 -39 43 -42 56 -5 19 -14
23 -47 26 -32 2 -42 7 -41 20 1 11 -12 20 -43 27 -64 17 -123 74 -130 128 -5
38 -3 43 21 54 30 14 32 26 10 58 -14 19 -14 25 -3 31 10 7 11 14 0 36 -9 20
-15 24 -20 15 -5 -8 -17 -11 -30 -6 -18 5 -21 2 -21 -19 0 -19 -5 -26 -19 -26
-12 0 -21 -9 -25 -25 -8 -32 -26 -23 -26 13 -1 15 -14 42 -30 62 -39 45 -40
65 -2 55 15 -4 44 -7 65 -6 22 0 47 -4 58 -9 14 -8 23 -6 41 12 l22 22 -28 7
c-16 4 -37 16 -48 25 -19 18 -19 18 1 26 27 10 28 56 1 105 -11 21 -20 52 -20
69 0 27 -12 42 -77 101 -159 140 -147 133 -216 133 -62 0 -210 15 -251 25 -11
2 -15 2 -8 -1 19 -9 14 -26 -18 -61 -20 -22 -42 -35 -68 -39 -34 -5 -40 -3
-56 21 l-18 28 -25 -32 c-29 -36 -36 -38 -63 -11 -22 22 -28 97 -10 130 12 23
9 25 -68 41 l-62 13 -33 -36 c-57 -63 -123 -64 -151 -3 -16 34 -16 36 4 62
l21 27 -23 12 c-13 6 -76 32 -140 58 -171 67 -235 61 -318 -29 -58 -63 -154
-92 -335 -101 -71 -4 -145 -13 -164 -20 -71 -29 -133 -12 -339 93 -79 40 -148
70 -153 67 -5 -3 -17 4 -27 15 -10 12 -35 23 -58 27 -39 6 -43 4 -55 -21z"/>
<path d="M8580 6668 c0 -39 8 -46 26 -28 14 14 58 -21 74 -59 15 -37 7 -74
-22 -101 -12 -11 -17 -20 -11 -20 24 0 43 -30 33 -50 -8 -15 -6 -20 11 -25 23
-8 39 7 39 38 0 22 0 22 69 -12 38 -20 62 -26 68 -20 9 9 85 -62 94 -89 3 -8
13 -9 31 -4 25 7 22 10 -79 97 -58 50 -157 140 -219 200 l-114 110 0 -37z"/>
<path d="M9199 6197 c15 -19 46 -23 56 -7 3 6 0 10 -7 10 -7 0 -24 3 -38 7
-22 6 -24 5 -11 -10z"/>
<path d="M8790 6170 c-21 -21 -23 -30 -15 -52 4 -9 17 -13 39 -10 19 2 44 -2
57 -9 13 -7 48 -13 77 -14 56 -2 75 -11 53 -25 -11 -6 -2 -16 34 -39 54 -34
67 -37 84 -18 8 11 -17 32 -118 101 -71 49 -134 85 -140 82 -6 -4 -11 -16 -11
-27 0 -10 -6 -19 -14 -19 -22 0 -30 19 -16 35 19 23 -6 19 -30 -5z"/>
<path d="M2807 2633 c-4 -3 -7 -19 -7 -34 0 -27 2 -28 33 -22 42 8 42 8 29 38
-11 23 -40 33 -55 18z"/>
</g>
</svg>
