<?xml version="1.0" standalone="no"?>
<!DOCTYPE svg PUBLIC "-//W3C//DTD SVG 20010904//EN"
 "http://www.w3.org/TR/2001/REC-SVG-20010904/DTD/svg10.dtd">
<svg version="1.0" xmlns="http://www.w3.org/2000/svg"
 width="1024.000000pt" height="1024.000000pt" viewBox="0 0 1024.000000 1024.000000"
 preserveAspectRatio="xMidYMid meet">
<metadata>
Created by potrace 1.10, written by Peter Selinger 2001-2011
</metadata>
<g transform="translate(0.000000,1024.000000) scale(0.100000,-0.100000)"
fill="#000000" stroke="none">
<path d="M5470 10221 c-27 -20 -71 -32 -224 -62 -54 -10 -105 -24 -112 -30
-18 -15 -157 -24 -180 -11 -16 9 -29 1 -84 -52 -62 -60 -69 -64 -126 -71 -59
-6 -64 -9 -125 -72 -35 -36 -98 -93 -139 -126 l-75 -62 -75 -1 c-42 -1 -91 -8
-112 -17 -34 -14 -37 -19 -53 -91 l-17 -76 -86 -52 c-48 -28 -90 -56 -94 -62
-4 -6 -8 -45 -8 -87 l0 -76 -105 -21 -106 -21 -80 -73 -80 -73 135 -65 134
-65 -65 -145 c-88 -195 -146 -415 -162 -621 l-12 -146 56 -96 55 -96 0 -132
c0 -128 -1 -133 -31 -185 l-30 -53 13 -88 14 -88 55 -3 55 -3 17 -66 17 -67
-42 -45 c-24 -25 -69 -73 -100 -106 l-58 -60 -85 -292 c-47 -161 -85 -295 -85
-298 0 -2 -36 -21 -80 -41 l-79 -36 6 -43 c7 -51 8 -51 -128 -60 l-96 -7 -79
-115 c-69 -100 -82 -127 -105 -211 -30 -111 -12 -101 -166 -89 l-81 7 -60 -50
c-56 -46 -61 -55 -85 -132 -20 -64 -29 -122 -37 -248 l-11 -165 31 -130 c28
-118 37 -141 104 -255 63 -106 82 -151 127 -293 l53 -169 90 -46 c62 -32 108
-65 146 -104 44 -45 67 -60 114 -75 58 -17 62 -21 155 -138 52 -66 98 -125
102 -130 4 -6 22 -114 39 -240 16 -127 32 -240 35 -252 3 -14 158 -137 452
-359 247 -185 449 -338 450 -339 1 0 125 -593 274 -1316 149 -722 275 -1317
278 -1321 4 -4 94 23 201 61 147 52 229 75 333 92 l138 24 188 231 188 231 32
204 c17 112 31 214 31 225 0 12 -36 139 -80 282 l-80 260 6 102 7 101 94 104
94 103 122 32 122 32 48 66 c27 37 62 88 78 114 16 26 50 64 76 83 41 30 55
35 94 33 l47 -3 95 110 95 110 259 134 c230 118 269 141 338 204 58 53 99 81
159 107 l80 35 30 67 29 67 -78 118 -78 117 12 56 c6 30 14 66 18 79 5 22 4
22 -17 11 -23 -12 -23 -11 -17 26 4 21 20 58 37 82 27 38 31 54 37 135 5 77 3
94 -10 106 -23 19 -76 5 -89 -24 -21 -46 -36 -37 -50 28 -12 58 -15 62 -48 71
-32 9 -49 22 -50 37 0 3 29 0 64 -6 52 -10 68 -10 90 2 20 11 31 11 47 2 12
-6 46 -11 77 -12 52 0 55 1 68 33 17 40 14 46 -33 55 -21 3 -61 21 -89 39 -64
43 -135 79 -141 72 -3 -2 7 -22 21 -43 14 -20 26 -42 26 -47 0 -5 -42 -7 -100
-3 -121 6 -158 25 -196 98 -22 44 -23 50 -8 56 9 3 46 -1 82 -9 38 -10 74 -13
86 -8 17 6 6 12 -54 30 -48 14 -86 33 -106 52 -24 23 -37 28 -54 23 -22 -7
-23 -5 -17 33 4 22 2 53 -4 70 -8 25 -7 37 10 71 12 22 21 50 21 62 0 23 -49
119 -60 119 -4 0 -35 18 -67 40 l-60 40 -49 -17 c-27 -9 -50 -17 -52 -18 -1
-1 2 -15 8 -30 27 -71 -29 -127 -154 -153 -65 -13 -70 -13 -95 5 -14 11 -33
32 -41 46 -14 25 -13 28 24 66 34 35 40 48 43 93 6 76 -3 85 -70 71 -30 -6
-84 -23 -120 -37 -58 -24 -69 -25 -118 -16 -118 24 -177 57 -310 177 -154 138
-180 171 -219 268 -17 42 -41 98 -55 125 -34 66 -34 143 -1 208 13 26 30 66
37 90 9 33 23 51 55 73 24 16 52 42 63 58 17 24 29 29 76 33 30 3 63 12 72 20
10 9 34 19 53 23 42 9 101 50 126 87 11 16 45 39 79 54 134 59 161 75 180 104
11 16 28 33 38 36 9 3 24 19 32 35 9 17 27 31 43 35 60 15 82 33 82 68 0 27 9
41 43 73 23 21 56 44 72 51 17 8 54 46 88 90 44 59 57 84 57 112 1 47 16 70
77 118 43 35 52 47 58 84 13 86 17 97 37 104 11 3 26 20 33 38 8 18 20 38 28
45 8 6 18 23 21 36 5 18 15 26 41 31 31 5 34 8 23 22 -7 8 -36 25 -64 38 -39
17 -57 33 -77 66 -22 38 -24 51 -20 113 3 39 11 79 18 90 23 37 22 59 -3 93
-20 28 -24 42 -20 83 5 48 4 50 -49 108 -44 49 -60 60 -96 66 -76 12 -77 12
-77 60 0 40 -4 47 -37 69 -34 24 -39 24 -60 11 -12 -8 -39 -15 -60 -14 -35 0
-43 6 -107 86 -51 63 -77 107 -100 167 -17 45 -44 98 -60 119 l-28 37 4 137 5
138 50 110 51 110 50 5 c27 3 57 11 66 19 9 8 62 26 117 42 56 15 103 29 104
31 1 2 25 48 53 103 88 176 289 433 326 419 8 -3 23 7 35 21 19 26 20 29 4 63
-9 21 -18 53 -21 72 -2 19 -13 47 -24 63 -13 19 -18 36 -13 55 4 22 -1 34 -27
59 l-33 32 -73 -34 c-58 -28 -76 -42 -89 -71 -28 -58 -163 -132 -290 -160
l-81 -17 -41 -72 c-23 -39 -41 -78 -41 -87 0 -11 -18 -18 -69 -27 -99 -16
-141 -14 -179 9 -18 11 -39 35 -46 52 -13 31 -15 32 -71 29 -60 -3 -75 6 -75
42 0 25 53 45 139 53 39 4 71 10 71 14 0 17 -78 77 -121 93 -52 20 -65 40 -84
131 -16 72 -11 86 26 86 22 0 29 5 29 20 0 11 -6 22 -12 24 -7 2 -35 10 -62
17 -44 11 -47 14 -30 26 10 7 30 13 46 13 32 0 108 28 108 40 0 14 -18 22
-175 81 l-150 56 -42 -19 c-36 -16 -49 -17 -82 -8 -34 9 -42 16 -51 48 -5 20
-10 43 -10 49 0 7 -10 15 -22 17 -72 15 -101 18 -173 21 -65 3 -85 0 -105 -14z"/>
<path d="M6924 5186 c-9 -23 -60 -30 -86 -12 -27 19 -86 20 -109 3 -40 -30
-51 -155 -19 -217 19 -37 40 -53 40 -30 0 17 56 11 73 -8 10 -10 17 -35 17
-54 0 -20 6 -41 14 -47 12 -10 18 -7 32 13 23 37 104 90 104 70 0 -25 18 -6
25 27 6 24 17 35 52 51 l44 19 -3 52 c-3 49 -5 52 -33 57 -37 6 -66 26 -89 63
-20 29 -53 36 -62 13z"/>
</g>
</svg>
