<?xml version="1.0" standalone="no"?>
<!DOCTYPE svg PUBLIC "-//W3C//DTD SVG 20010904//EN"
 "http://www.w3.org/TR/2001/REC-SVG-20010904/DTD/svg10.dtd">
<svg version="1.0" xmlns="http://www.w3.org/2000/svg"
 width="1024.000000pt" height="1024.000000pt" viewBox="0 0 1024.000000 1024.000000"
 preserveAspectRatio="xMidYMid meet">
<metadata>
Created by potrace 1.10, written by Peter Selinger 2001-2011
</metadata>
<g transform="translate(0.000000,1024.000000) scale(0.100000,-0.100000)"
fill="#000000" stroke="none">
<path d="M3030 9885 l0 -355 -1239 0 -1239 0 -6 -25 c-8 -31 11 -103 34 -130
12 -14 19 -45 23 -105 7 -109 47 -241 84 -269 31 -26 29 -47 -22 -163 -33 -74
-34 -81 -18 -93 15 -11 15 -13 -6 -20 l-23 -7 21 -19 c22 -21 28 -54 11 -64
-16 -10 -12 -45 6 -45 11 0 15 -6 11 -20 -3 -11 -1 -20 4 -20 14 0 11 -28 -3
-33 -10 -4 -9 -8 2 -16 12 -8 11 -14 -10 -36 l-24 -26 23 -66 c17 -47 21 -68
13 -71 -15 -5 -16 -32 -2 -32 6 0 10 -9 10 -19 0 -11 -4 -23 -10 -26 -14 -9
-13 -41 3 -66 9 -17 9 -23 0 -26 -20 -7 -27 -70 -11 -96 11 -16 12 -27 5 -38
-8 -13 -2 -40 25 -110 20 -52 39 -121 43 -154 4 -33 18 -83 31 -111 13 -28 24
-57 24 -65 0 -8 14 -42 32 -76 27 -51 31 -66 22 -81 -9 -14 -8 -22 2 -36 7
-11 25 -55 40 -100 15 -45 32 -88 39 -96 7 -8 27 -68 44 -133 26 -95 30 -121
20 -133 -9 -12 -9 -20 1 -38 10 -19 9 -33 -4 -79 -21 -71 -20 -92 3 -125 17
-24 22 -63 36 -310 13 -221 14 -294 5 -335 -11 -48 -10 -57 14 -110 18 -39 34
-61 51 -67 28 -11 30 -17 15 -55 -6 -15 -19 -61 -30 -103 -18 -67 -19 -84 -8
-130 9 -41 9 -71 0 -130 -12 -75 -11 -80 17 -159 17 -44 33 -105 37 -134 4
-30 11 -63 17 -74 6 -11 23 -56 38 -99 19 -54 39 -91 64 -116 44 -45 54 -84
55 -205 0 -64 7 -116 25 -179 22 -82 24 -96 13 -153 -9 -48 -9 -78 0 -126 19
-100 2 -212 -49 -317 -37 -78 -47 -91 -112 -141 -104 -78 -167 -139 -167 -161
0 -22 21 -64 66 -133 18 -27 43 -77 54 -110 29 -79 60 -107 161 -140 110 -36
156 -66 180 -118 18 -41 19 -90 19 -1549 l0 -1508 3129 0 3128 0 -24 107 c-35
161 -38 202 -18 262 16 50 16 53 -4 114 -28 81 -116 211 -195 285 -52 48 -75
62 -127 76 -79 23 -106 41 -164 115 -34 43 -56 61 -85 70 -52 15 -159 120
-193 190 -15 30 -27 71 -27 91 0 44 -42 107 -92 138 -18 11 -75 32 -127 47
-149 42 -195 73 -240 163 -25 50 -45 60 -178 95 -110 28 -197 77 -211 116 -16
45 -76 105 -140 139 -84 45 -90 60 -54 157 23 64 27 86 20 108 -7 20 -6 41 5
74 16 49 14 64 -29 208 -14 47 -13 51 6 75 39 48 52 87 40 128 -14 50 -13 198
2 225 6 12 24 38 39 57 36 45 79 143 79 180 0 31 -97 208 -123 224 -11 7 -23
6 -40 -3 -32 -17 -82 -6 -102 22 -20 29 -21 206 -1 246 8 15 31 36 51 47 41
22 81 85 96 153 21 97 92 176 183 207 28 10 54 28 67 46 20 27 26 29 60 24 36
-6 39 -4 39 17 0 43 45 61 90 37 16 -8 24 -4 45 25 42 54 66 108 55 119 -16
16 -12 40 10 54 19 12 20 23 20 240 0 125 3 332 7 460 l6 233 39 -6 38 -7 0
47 c0 40 4 48 29 63 17 9 35 27 40 39 14 31 87 110 137 147 23 17 77 59 121
93 44 34 97 68 118 77 21 9 88 64 149 124 62 59 147 134 191 167 44 33 95 77
115 98 19 21 84 90 144 154 59 64 124 141 144 172 45 72 206 237 347 356 271
229 439 318 855 455 192 63 292 101 339 129 36 22 84 47 107 55 71 25 120 54
155 92 19 20 55 51 82 69 l48 32 -58 7 c-32 4 -75 9 -95 12 -30 5 -50 0 -97
-25 -33 -17 -65 -31 -70 -31 -24 0 -134 85 -156 121 -31 49 -73 75 -143 91
-45 10 -76 9 -180 -6 -105 -14 -136 -15 -179 -5 -42 10 -60 10 -92 -1 -38 -12
-42 -11 -74 13 l-33 25 -60 -20 c-32 -11 -79 -21 -103 -22 -38 -1 -47 3 -57
22 -6 13 -17 29 -23 35 -6 6 -11 25 -11 42 0 22 -10 41 -35 65 -29 28 -35 41
-35 77 0 36 -3 43 -19 43 -33 0 -64 -16 -115 -58 -27 -23 -63 -44 -80 -48 -53
-11 -88 -34 -168 -109 -92 -87 -145 -115 -215 -115 -33 0 -55 -5 -63 -15 -16
-19 -49 -19 -56 0 -10 24 -38 26 -99 5 -32 -11 -59 -20 -60 -20 -1 0 0 23 3
50 l5 50 -44 0 c-69 0 -89 16 -122 96 l-28 72 -62 7 c-34 3 -82 15 -107 25
-25 10 -62 21 -82 25 -21 3 -50 16 -65 29 -22 19 -28 35 -34 91 -9 87 -32 120
-85 120 -22 1 -52 5 -67 9 -22 7 -33 4 -52 -14 -23 -22 -40 -23 -88 -4 -11 4
-18 -5 -27 -30 -11 -33 -9 -41 19 -93 17 -31 30 -57 28 -58 -1 -2 -21 -12 -44
-24 -70 -35 -86 -30 -136 47 -88 134 -97 154 -97 219 0 102 -20 114 -160 98
-58 -6 -68 -5 -93 15 -22 17 -27 29 -25 53 3 26 9 34 43 46 22 8 41 15 42 16
1 0 -1 14 -5 29 -7 26 -10 28 -74 29 -59 2 -78 8 -170 56 -57 29 -115 64 -130
76 -26 22 -30 22 -87 10 -65 -13 -129 -7 -211 20 -43 14 -51 14 -96 -1 -27 -9
-79 -32 -116 -50 -59 -30 -67 -37 -70 -65 -5 -50 -40 -69 -144 -79 -49 -5
-109 -16 -134 -25 -30 -11 -59 -14 -90 -9 -89 13 -108 38 -87 117 15 59 9 90
-22 106 -12 7 -98 11 -223 11 -229 0 -254 7 -282 74 -14 33 -17 34 -82 42 -49
5 -77 3 -99 -6 -16 -8 -47 -14 -67 -14 -48 0 -192 72 -238 119 -35 36 -35 37
-33 118 1 45 2 93 3 107 1 25 -92 360 -125 450 -30 81 -35 114 -35 233 0 111
-1 117 -20 117 -11 0 -41 19 -67 43 l-46 42 -101 0 c-81 0 -108 4 -129 18
l-27 17 0 -355z"/>
</g>
</svg>
