<?xml version="1.0" standalone="no"?>
<!DOCTYPE svg PUBLIC "-//W3C//DTD SVG 20010904//EN"
 "http://www.w3.org/TR/2001/REC-SVG-20010904/DTD/svg10.dtd">
<svg version="1.0" xmlns="http://www.w3.org/2000/svg"
 width="1024.000000pt" height="1024.000000pt" viewBox="0 0 1024.000000 1024.000000"
 preserveAspectRatio="xMidYMid meet">
<metadata>
Created by potrace 1.10, written by Peter Selinger 2001-2011
</metadata>
<g transform="translate(0.000000,1024.000000) scale(0.100000,-0.100000)"
fill="#000000" stroke="none">
<path d="M7460 10233 c0 -14 -162 -1058 -165 -1061 -2 -2 -545 46 -1208 107
-663 61 -1218 111 -1234 111 l-28 0 -68 -397 c-37 -219 -115 -701 -173 -1072
-57 -371 -105 -675 -107 -676 -1 -1 -63 -23 -137 -48 -127 -44 -139 -46 -206
-41 l-71 7 -197 -114 c-182 -104 -202 -118 -257 -183 l-60 -71 6 -154 c5 -135
1 -212 -36 -600 -22 -245 -43 -448 -44 -449 -2 -2 -502 35 -1112 82 -609 47
-1183 90 -1275 96 -154 9 -175 13 -282 50 -105 36 -125 40 -215 40 l-99 0 -42
-72 c-23 -40 -60 -115 -81 -167 -34 -82 -39 -103 -39 -173 0 -78 0 -79 23 -72
30 9 26 3 52 91 12 44 37 105 55 137 39 69 44 65 66 -59 23 -133 49 -203 106
-290 l53 -80 3 59 c3 54 4 58 25 52 12 -3 25 -6 29 -6 15 0 48 -80 48 -117 0
-75 26 -149 73 -216 52 -73 59 -113 28 -153 -11 -13 -22 -48 -26 -77 -6 -44
-14 -58 -51 -92 -31 -29 -44 -49 -44 -68 0 -20 5 -27 20 -27 23 0 23 -2 9 -55
-8 -29 -33 -63 -96 -126 -64 -65 -84 -92 -81 -109 l3 -22 27 21 c18 14 29 18
33 10 4 -6 16 -9 26 -6 17 5 17 3 3 -18 -21 -32 -66 -48 -118 -43 l-43 5 8
-46 c15 -80 17 -86 75 -166 32 -44 63 -102 71 -130 18 -60 25 -279 25 -680 -1
-282 -1 -294 -30 -426 -29 -134 -31 -139 -127 -308 -56 -99 -115 -218 -140
-283 -23 -62 -72 -174 -109 -248 -55 -108 -76 -163 -106 -282 -21 -81 -36
-148 -34 -148 3 0 17 6 32 14 38 20 71 59 125 146 41 68 51 77 96 94 68 24
127 14 187 -32 46 -35 47 -35 125 -29 48 4 101 16 140 32 70 28 115 30 297 15
104 -8 116 -7 145 10 46 28 225 28 317 0 44 -13 94 -20 155 -20 141 0 159 -5
186 -54 12 -22 48 -68 80 -101 68 -73 79 -92 79 -143 0 -43 12 -52 77 -52 29
0 36 -6 57 -49 l25 -48 98 -22 c54 -13 105 -24 113 -27 8 -2 34 -21 57 -41 35
-32 59 -74 144 -258 56 -121 106 -225 111 -232 5 -6 21 -14 36 -18 15 -3 46
-25 70 -48 40 -39 42 -44 42 -99 0 -82 35 -150 96 -186 109 -65 199 -144 247
-217 l48 -73 114 -17 114 -17 83 47 c46 26 84 48 85 49 0 0 -4 36 -11 78 l-12
78 86 162 c86 161 87 163 141 191 29 15 70 44 91 64 l36 35 41 -28 c40 -28 41
-30 41 -89 l0 -60 162 -144 163 -144 86 92 87 91 50 0 c52 0 62 9 62 51 0 17
8 19 76 19 41 0 106 5 143 11 l69 10 140 -57 140 -57 158 9 159 9 3 67 3 67
51 31 c27 17 51 30 53 28 1 -2 -7 -33 -18 -71 -11 -37 -18 -69 -16 -71 4 -4
2935 -227 2974 -226 18 0 30 38 113 343 50 188 92 348 92 354 0 6 -38 42 -84
78 l-84 67 -6 61 c-6 70 -30 7046 -25 7051 2 2 272 -14 599 -35 327 -20 623
-39 658 -41 34 -2 62 -1 62 2 -1 3 -56 48 -123 100 -67 52 -320 260 -562 461
-467 387 -1871 1540 -1892 1553 -7 4 -13 4 -13 -1z"/>
</g>
</svg>
