<?xml version="1.0" standalone="no"?>
<!DOCTYPE svg PUBLIC "-//W3C//DTD SVG 20010904//EN"
 "http://www.w3.org/TR/2001/REC-SVG-20010904/DTD/svg10.dtd">
<svg version="1.0" xmlns="http://www.w3.org/2000/svg"
 width="1024.000000pt" height="1024.000000pt" viewBox="0 0 1024.000000 1024.000000"
 preserveAspectRatio="xMidYMid meet">
<metadata>
Created by potrace 1.10, written by Peter Selinger 2001-2011
</metadata>
<g transform="translate(0.000000,1024.000000) scale(0.100000,-0.100000)"
fill="#000000" stroke="none">
<path d="M214 9502 c-23 -37 -45 -76 -48 -88 -4 -13 -37 -37 -86 -64 -59 -32
-80 -48 -80 -63 0 -11 13 -63 29 -116 l30 -96 1 -295 c2 -277 1 -298 -19 -347
l-20 -51 56 -43 c60 -46 157 -161 173 -205 6 -14 13 -117 17 -227 l6 -202 40
-73 c30 -55 56 -87 102 -125 l63 -52 12 -75 c7 -41 24 -103 37 -137 20 -51 32
-66 66 -86 76 -44 157 -67 266 -75 l104 -7 -53 -69 -53 -69 6 -117 5 -118 -45
-43 c-72 -71 -151 -190 -169 -258 -16 -57 -20 -62 -54 -71 -21 -6 -42 -16 -48
-23 -13 -16 -32 -131 -32 -191 0 -38 -6 -56 -30 -86 -53 -67 -64 -134 -34
-208 12 -32 23 -41 53 -51 22 -6 46 -9 54 -5 12 4 24 -10 45 -53 17 -32 48
-89 71 -128 35 -59 41 -78 41 -125 0 -50 3 -59 32 -87 18 -17 66 -52 106 -76
40 -25 85 -61 101 -81 16 -20 64 -62 105 -92 63 -46 93 -60 170 -81 88 -24 96
-28 123 -67 16 -22 42 -72 58 -111 16 -38 40 -86 55 -105 49 -65 86 -135 103
-193 15 -55 15 -64 -4 -160 -10 -56 -22 -160 -25 -232 l-5 -130 63 -31 63 -31
15 -89 c16 -96 49 -161 118 -239 43 -48 240 -205 257 -205 7 0 20 18 29 40 12
31 23 42 44 46 25 5 30 12 40 64 9 41 9 66 2 86 -22 56 51 62 117 8 37 -31 46
-46 65 -111 17 -58 28 -78 48 -88 14 -7 36 -25 49 -39 14 -14 29 -26 35 -26 6
0 29 -14 50 -30 l40 -30 30 29 c52 48 109 81 142 81 39 0 90 -60 108 -128 14
-53 120 -206 164 -236 41 -27 67 -73 97 -167 l26 -84 98 -85 c97 -84 98 -86
109 -145 7 -33 37 -121 68 -195 31 -74 69 -168 86 -208 27 -65 39 -80 121
-152 l92 -80 92 0 c93 0 94 0 201 -54 59 -30 137 -76 174 -103 58 -42 72 -60
108 -130 l42 -81 61 -17 c175 -47 290 -91 326 -123 23 -21 32 -35 24 -38 -8
-4 5 -26 38 -63 l50 -58 92 15 c126 19 238 10 287 -22 56 -37 176 -69 230 -63
71 8 159 52 198 97 31 37 37 40 85 40 96 0 165 36 200 106 14 27 32 36 164 84
81 29 172 64 202 77 87 38 130 32 252 -32 l105 -54 61 -103 c42 -72 63 -118
68 -153 11 -81 60 -191 148 -335 l83 -135 134 -5 c87 -4 146 -11 165 -20 23
-11 79 -15 235 -16 238 -1 317 -14 388 -64 41 -29 46 -30 55 -15 30 54 73 68
125 41 60 -30 235 -49 417 -44 170 5 174 5 205 31 17 15 36 27 41 27 5 0 26
-16 47 -35 33 -29 48 -35 108 -41 38 -4 99 -17 136 -30 37 -12 75 -20 85 -18
10 2 61 9 113 14 52 5 111 12 130 16 l35 6 2 106 c3 121 26 292 49 367 9 28
39 97 67 155 62 128 154 234 215 245 38 7 107 43 192 100 34 23 67 36 105 40
52 7 59 11 111 69 81 88 90 126 57 220 -24 66 -57 86 -143 86 -109 0 -107 -1
-114 98 -9 134 -88 423 -123 454 -39 33 -103 57 -208 76 -92 17 -130 31 -230
81 -160 80 -225 138 -297 268 -30 54 -64 120 -74 146 -21 54 -67 97 -179 169
-39 25 -82 62 -98 85 l-28 40 19 49 c85 216 116 281 150 318 102 112 129 157
150 256 31 141 36 210 23 282 -18 95 -55 154 -121 193 -54 33 -56 33 -122 23
-60 -10 -71 -9 -123 12 -78 32 -168 100 -185 140 -14 33 -15 56 -10 236 2 93
0 106 -28 170 -71 163 -112 277 -112 314 0 47 21 151 50 244 23 74 21 154 -5
180 -7 7 -37 16 -66 19 -29 4 -56 10 -59 14 -4 5 -10 67 -14 138 l-6 130 90
48 90 48 0 82 c0 77 3 89 52 202 l53 120 -3 170 c-1 94 3 224 9 290 9 111 9
123 -10 165 -22 52 -36 120 -53 275 l-13 110 -45 12 c-25 6 -91 12 -147 12
l-103 1 -97 52 c-54 28 -120 68 -148 88 -69 51 -123 79 -244 130 -57 24 -104
49 -106 55 -18 68 -46 118 -92 166 -53 56 -54 56 -136 68 -102 14 -156 14
-211 0 -39 -10 -53 -7 -147 25 -57 19 -185 58 -283 86 l-180 52 -100 94 -101
95 -135 -5 c-178 -7 -187 -10 -199 -54 -6 -19 -23 -48 -37 -64 -25 -25 -34
-28 -93 -27 -36 0 -82 6 -101 13 -27 10 -49 10 -110 0 -133 -23 -143 -28 -222
-115 -92 -101 -292 -263 -366 -296 -31 -14 -99 -36 -151 -49 -52 -12 -99 -28
-105 -34 -16 -16 -7 -78 19 -130 14 -27 30 -81 36 -120 13 -79 9 -90 -42 -90
-14 0 -50 -7 -79 -16 -41 -12 -74 -14 -137 -9 -46 4 -83 10 -83 14 0 4 31 13
70 20 71 13 81 20 56 40 -10 9 -30 6 -82 -13 -153 -54 -303 -95 -368 -102 -54
-5 -100 -20 -202 -65 -128 -58 -134 -59 -220 -59 -151 0 -255 24 -364 82 -110
59 -290 168 -338 204 -21 16 -45 53 -68 103 -33 72 -39 79 -76 90 -26 8 -69
10 -127 6 -83 -7 -90 -6 -147 23 -32 16 -82 33 -110 37 -44 6 -58 13 -102 58
-47 47 -55 63 -93 177 -36 108 -43 142 -49 250 -4 69 -11 132 -14 140 -5 11
-23 15 -75 15 -62 0 -71 3 -89 25 -11 14 -47 38 -80 54 -33 16 -65 39 -72 51
-7 12 -34 33 -61 45 -27 13 -49 29 -49 35 0 16 35 46 102 89 l58 36 -31 83
c-25 69 -29 91 -24 138 l6 56 -71 46 c-63 42 -75 47 -127 47 -88 0 -203 -43
-293 -108 -62 -45 -88 -73 -145 -159 -110 -163 -100 -154 -193 -168 -124 -18
-300 -3 -432 36 l-106 31 -79 131 c-88 143 -271 407 -283 407 -4 -1 -26 -31
-48 -68z"/>
</g>
</svg>
