<?xml version="1.0" standalone="no"?>
<!DOCTYPE svg PUBLIC "-//W3C//DTD SVG 20010904//EN"
 "http://www.w3.org/TR/2001/REC-SVG-20010904/DTD/svg10.dtd">
<svg version="1.0" xmlns="http://www.w3.org/2000/svg"
 width="1024.000000pt" height="1024.000000pt" viewBox="0 0 1024.000000 1024.000000"
 preserveAspectRatio="xMidYMid meet">
<metadata>
Created by potrace 1.10, written by Peter Selinger 2001-2011
</metadata>
<g transform="translate(0.000000,1024.000000) scale(0.100000,-0.100000)"
fill="#000000" stroke="none">
<path d="M4285 10202 c-38 -21 -97 -55 -130 -76 -138 -90 -203 -119 -470 -208
-81 -27 -211 -48 -311 -49 -39 -1 -172 54 -203 82 l-23 21 26 27 c14 15 26 32
26 39 0 18 -31 15 -45 -4 -9 -13 -16 -14 -30 -6 -13 7 -24 7 -37 -1 -14 -10
-23 -6 -52 22 l-34 33 -6 -284 c-3 -155 -11 -1498 -16 -2983 -6 -1485 -13
-2732 -16 -2771 l-5 -71 -49 -12 c-39 -10 -54 -20 -71 -47 -17 -28 -19 -37 -9
-49 10 -12 10 -19 -4 -34 -9 -10 -14 -24 -12 -32 2 -8 7 -26 10 -40 5 -22 10
-25 35 -21 27 4 29 1 34 -35 7 -53 -16 -91 -89 -151 -33 -28 -67 -64 -74 -81
-11 -28 -11 -33 6 -45 16 -12 16 -18 6 -40 -11 -26 -11 -26 29 -26 39 0 40 -1
34 -28 -5 -25 -1 -30 39 -50 l45 -21 -4 -100 -4 -100 46 -21 c84 -37 103 -70
63 -110 -16 -16 -18 -25 -10 -40 8 -14 4 -33 -16 -78 l-26 -60 27 -46 c18 -31
24 -52 20 -67 -5 -16 2 -30 31 -60 27 -28 35 -42 27 -50 -6 -6 -8 -30 -5 -54
3 -31 0 -52 -11 -68 -8 -13 -21 -44 -27 -68 -16 -59 -30 -73 -100 -94 -51 -15
-60 -22 -60 -42 0 -17 -6 -23 -22 -23 -21 0 -23 -5 -23 -53 0 -28 4 -58 8 -64
11 -17 0 -33 -22 -33 -20 0 -37 -18 -63 -66 -17 -31 -17 -32 12 -73 17 -22 30
-45 30 -49 0 -5 -51 -31 -112 -59 -113 -50 -149 -83 -94 -83 34 0 33 -16 -3
-89 -36 -71 -74 -117 -113 -137 -36 -19 -58 -68 -58 -129 0 -51 -23 -105 -45
-105 -24 0 -44 40 -38 74 l6 31 -21 -19 c-12 -11 -22 -25 -22 -33 0 -24 -30
-73 -45 -73 -18 0 -28 34 -20 63 7 20 4 19 -26 -9 -19 -18 -49 -35 -67 -39
-29 -6 -33 -10 -26 -28 4 -12 6 -46 5 -75 -2 -65 8 -85 59 -113 50 -28 55 -42
31 -93 -25 -54 -51 -135 -51 -159 0 -10 -15 -34 -34 -53 -28 -28 -42 -34 -75
-34 -30 0 -41 -4 -41 -15 0 -9 9 -15 24 -15 33 0 40 -14 21 -43 -13 -21 -13
-27 2 -65 l16 -43 -27 -28 -28 -29 17 -52 c20 -60 14 -96 -19 -111 -20 -9 -32
-7 -70 16 -25 15 -46 24 -46 20 0 -3 15 -33 32 -65 21 -38 43 -64 61 -71 35
-15 40 -24 27 -49 -12 -22 -49 -27 -81 -10 -16 9 -19 7 -19 -14 0 -34 15 -41
60 -26 38 13 40 12 104 -34 35 -25 68 -46 73 -46 11 0 84 75 107 110 23 35 21
43 -24 95 -22 26 -40 57 -40 70 0 27 37 75 73 94 23 12 27 9 80 -43 57 -57
123 -95 165 -96 13 0 54 18 91 40 37 22 80 40 95 40 l28 0 -7 -74 c-8 -95 1
-116 53 -116 30 0 45 7 69 32 62 65 64 113 7 169 -19 18 -34 39 -34 46 0 7 12
38 27 68 21 43 32 55 47 53 17 -3 19 -10 17 -63 -3 -81 12 -100 77 -99 41 0
59 7 112 45 57 40 69 44 119 44 66 -1 110 -23 236 -120 121 -93 142 -104 263
-135 39 -10 45 -16 75 -76 29 -59 34 -64 57 -59 37 9 79 54 90 95 5 19 12 65
16 102 12 115 58 162 173 174 92 9 107 17 182 90 102 97 122 89 207 -82 56
-111 59 -113 132 -80 49 22 63 25 81 15 22 -11 23 -31 3 -126 -6 -31 -5 -33
24 -33 46 0 70 27 88 100 9 36 21 68 28 72 6 4 39 8 72 8 79 0 95 15 66 62
-30 48 -41 197 -18 233 14 22 24 25 71 25 70 0 103 13 116 47 9 25 6 31 -30
66 -43 40 -51 66 -27 86 16 13 39 5 85 -30 28 -23 41 -24 41 -5 0 25 32 41 84
41 48 0 51 2 54 27 3 22 -2 28 -35 38 -45 15 -73 37 -73 59 0 21 28 61 41 61
16 0 137 -119 160 -156 17 -29 19 -38 9 -74 -18 -67 -5 -104 57 -160 84 -77
116 -90 221 -90 94 0 111 -8 126 -57 8 -27 44 -73 57 -73 5 0 9 16 9 35 0 29
6 39 32 55 17 10 54 24 82 31 83 19 104 34 111 77 3 20 10 56 15 80 6 23 10
90 10 148 0 58 5 115 11 127 6 12 35 47 64 77 35 37 56 70 64 100 15 53 27 69
59 81 18 7 32 4 57 -11 18 -11 40 -20 49 -20 19 0 107 43 148 72 31 22 62 98
85 208 29 143 64 183 169 193 79 8 107 23 134 76 10 21 33 50 51 62 82 62 92
77 86 126 -2 25 -14 58 -26 74 -17 23 -21 43 -21 104 0 57 -5 86 -21 116 -18
36 -19 45 -8 71 19 47 58 88 84 88 12 0 38 -7 57 -14 30 -13 43 -13 94 -1 115
28 143 20 214 -56 72 -76 116 -77 202 -4 127 108 250 175 324 175 28 0 71 7
95 15 33 12 63 14 128 9 l85 -7 -22 35 c-32 52 -28 77 18 119 22 20 40 43 40
51 0 34 -26 49 -95 58 -72 9 -99 27 -88 58 4 10 24 39 45 66 64 81 63 113 -4
196 -67 82 -70 88 -63 109 3 11 25 31 48 44 23 14 53 37 67 51 l24 27 7 2177
c4 1197 10 2745 13 3440 l6 1262 -1998 0 -1997 -1 -70 -37z"/>
</g>
</svg>
