<?xml version="1.0" standalone="no"?>
<!DOCTYPE svg PUBLIC "-//W3C//DTD SVG 20010904//EN"
 "http://www.w3.org/TR/2001/REC-SVG-20010904/DTD/svg10.dtd">
<svg version="1.0" xmlns="http://www.w3.org/2000/svg"
 width="1024.000000pt" height="1024.000000pt" viewBox="0 0 1024.000000 1024.000000"
 preserveAspectRatio="xMidYMid meet">
<metadata>
Created by potrace 1.10, written by Peter Selinger 2001-2011
</metadata>
<g transform="translate(0.000000,1024.000000) scale(0.100000,-0.100000)"
fill="#000000" stroke="none">
<path d="M6362 8183 l-1402 -838 -586 -480 c-323 -264 -601 -488 -618 -497
-18 -10 -224 -53 -501 -104 -258 -48 -471 -87 -472 -88 -2 -2 -51 -1065 -68
-1476 -8 -206 -18 -416 -21 -466 l-6 -91 -80 -39 -80 -39 -54 -95 c-52 -93
-57 -98 -159 -170 -78 -55 -107 -81 -115 -104 l-10 -31 -187 9 c-161 8 -190 7
-217 -7 -25 -12 -139 -21 -546 -42 -283 -14 -529 -28 -547 -31 -25 -4 -41 -17
-70 -59 l-38 -55 -105 0 c-84 0 -126 -6 -212 -29 l-107 -29 -40 30 -40 29 -35
-27 -34 -27 -2 -101 c-7 -273 -6 -276 48 -300 39 -18 39 -19 46 -86 5 -54 14
-82 46 -138 37 -64 48 -75 157 -147 65 -43 137 -86 160 -94 30 -11 59 -35 98
-81 30 -36 55 -70 55 -76 0 -5 -7 -19 -15 -30 -14 -19 -15 -19 -54 4 -22 12
-43 22 -46 22 -3 0 -4 -51 -3 -112 l3 -113 91 -50 c58 -32 119 -77 166 -121
l74 -70 94 -15 95 -15 64 28 c35 16 68 27 72 26 5 -2 35 -34 68 -73 l60 -70
-66 -67 c-49 -50 -64 -70 -56 -80 5 -7 56 -71 112 -141 l103 -129 20 33 c19
31 19 39 8 102 -7 37 -10 70 -9 71 2 2 46 27 98 56 l94 52 86 -85 c47 -46 108
-97 134 -113 38 -23 57 -45 88 -100 21 -40 46 -74 54 -78 8 -3 48 -31 89 -62
l75 -56 33 23 c18 12 34 23 36 25 2 1 -6 37 -17 80 -18 71 -19 80 -4 107 10
21 13 44 9 75 -3 24 1 90 10 145 l16 102 86 66 c82 63 92 74 170 203 l82 137
0 102 0 103 72 60 c39 32 80 65 91 73 10 7 82 31 160 52 l140 39 33 -21 c31
-19 39 -19 139 -9 96 10 110 14 153 45 98 70 241 50 429 -60 92 -54 96 -55
171 -55 l77 -1 92 -82 c74 -65 110 -108 177 -208 73 -109 89 -127 116 -133 50
-10 53 -9 116 39 56 42 62 44 126 45 60 0 82 6 201 59 l133 59 114 -21 115
-20 56 -61 c47 -51 83 -76 205 -142 l149 -81 243 -19 244 -19 75 82 c43 48
119 114 177 156 l101 74 77 -10 c71 -8 83 -7 175 21 148 45 279 63 388 51 173
-18 342 -58 461 -110 l112 -49 144 0 145 0 179 135 c122 92 187 135 205 135
64 0 85 11 113 58 20 33 26 54 22 74 -6 32 -48 97 -109 171 l-40 48 13 59 13
60 45 0 c35 0 54 7 94 37 49 36 56 36 70 1 2 -3 19 -8 38 -10 l35 -3 -3 61 -4
61 45 12 c42 12 46 16 57 60 8 29 28 62 55 91 41 43 43 49 50 123 l7 79 553
638 552 638 7 234 c13 433 67 1050 121 1383 19 116 37 257 41 314 7 102 9 107
56 190 28 47 56 93 64 102 8 8 14 27 14 40 0 26 -20 40 -115 79 -75 31 -123
69 -151 116 -17 29 -36 46 -59 54 -28 9 -34 17 -40 50 -6 35 -3 46 28 87 57
78 57 75 -42 210 -49 67 -94 131 -101 143 -6 11 -15 108 -20 218 -11 230 -19
302 -55 471 -15 69 -32 169 -38 223 l-12 98 -242 -112 -242 -111 -230 162
c-126 88 -240 165 -253 171 -20 8 -885 230 -898 230 -3 0 -637 -377 -1408
-837z"/>
</g>
</svg>
