<?xml version="1.0" standalone="no"?>
<!DOCTYPE svg PUBLIC "-//W3C//DTD SVG 20010904//EN"
 "http://www.w3.org/TR/2001/REC-SVG-20010904/DTD/svg10.dtd">
<svg version="1.0" xmlns="http://www.w3.org/2000/svg"
 width="1024.000000pt" height="1024.000000pt" viewBox="0 0 1024.000000 1024.000000"
 preserveAspectRatio="xMidYMid meet">
<metadata>
Created by potrace 1.10, written by Peter Selinger 2001-2011
</metadata>
<g transform="translate(0.000000,1024.000000) scale(0.100000,-0.100000)"
fill="#000000" stroke="none">
<path d="M6713 8720 c-29 -17 -57 -30 -62 -30 -6 0 -48 -18 -94 -40 -49 -23
-91 -37 -103 -34 -12 3 -26 -1 -33 -10 -8 -9 -19 -16 -25 -16 -22 0 -56 -45
-56 -74 0 -15 -4 -25 -10 -21 -5 3 -10 15 -10 26 0 10 -4 19 -10 19 -5 0 -10
-8 -10 -19 0 -12 -9 -20 -27 -24 -37 -7 -42 0 -18 21 11 9 29 27 39 40 l19 22
-32 0 c-24 0 -34 -5 -38 -19 -3 -11 -19 -25 -37 -31 -30 -12 -126 -21 -126
-13 0 9 45 42 58 43 20 0 13 30 -7 30 -11 0 -23 5 -26 10 -9 14 -45 12 -43 -2
2 -9 -10 -13 -35 -13 -28 0 -44 -6 -57 -22 -26 -32 -33 -29 -26 12 7 34 6 35
-14 23 -12 -7 -26 -32 -32 -55 -11 -46 -27 -56 -35 -23 -6 23 -8 24 -35 9 -15
-8 -17 -13 -8 -19 17 -11 3 -31 -17 -23 -9 4 -19 -1 -25 -11 -9 -16 -11 -16
-24 1 -7 10 -14 26 -14 36 0 10 -8 17 -20 17 -24 0 -25 -7 -4 -48 17 -35 9
-66 -10 -40 -6 8 -19 17 -28 21 -10 3 -18 15 -18 26 0 11 -4 22 -9 26 -13 8
-18 -86 -6 -107 13 -23 -1 -34 -21 -17 -10 8 -14 23 -11 42 4 33 -10 43 -49
33 -26 -7 -26 -7 -7 -21 11 -8 23 -24 26 -36 5 -18 3 -20 -21 -14 -15 4 -30
12 -35 18 -5 9 -11 8 -20 -4 -12 -15 -14 -15 -36 2 -28 23 -45 15 -38 -17 3
-18 -3 -31 -25 -49 -16 -14 -26 -29 -23 -35 11 -18 -27 -24 -40 -6 -11 15 -13
12 -20 -20 -4 -22 -2 -41 4 -47 6 -6 11 -20 10 -31 0 -20 -1 -20 -16 2 -8 12
-19 22 -23 22 -4 0 -11 -10 -14 -22 l-7 -23 -11 23 c-14 28 -19 28 -48 -3
l-23 -24 37 -41 c20 -22 36 -42 36 -45 0 -3 -16 -5 -35 -5 -20 0 -34 5 -32 11
1 6 -6 16 -16 22 -14 10 -21 9 -30 -3 -23 -29 -64 -43 -110 -37 -25 4 -48 2
-54 -4 -8 -8 -13 -7 -17 0 -4 6 -16 11 -27 11 -11 0 -33 6 -48 14 -26 14 -32
13 -97 -21 -75 -40 -139 -56 -222 -57 -47 -1 -58 -5 -86 -34 -30 -30 -35 -32
-59 -21 -25 11 -68 6 -119 -16 -13 -5 -18 -2 -18 9 0 25 -38 19 -66 -11 -13
-14 -27 -23 -31 -20 -10 11 -33 -14 -33 -35 0 -10 7 -21 15 -25 12 -4 8 -11
-17 -30 -37 -26 -54 -78 -35 -102 10 -12 9 -13 -8 -7 -11 5 -28 11 -37 13 -10
3 -18 9 -18 14 0 12 -51 11 -69 0 -9 -6 -12 -21 -9 -45 3 -24 0 -36 -9 -36 -7
0 -18 -19 -24 -42 -7 -24 -17 -47 -22 -53 -6 -6 -7 -2 -3 11 11 37 -3 54 -45
54 -31 0 -45 -7 -74 -35 -19 -20 -35 -42 -35 -50 0 -8 -25 -26 -55 -40 -77
-37 -151 -33 -174 9 -19 34 -32 36 -46 7 -18 -38 -64 -17 -49 23 7 17 -22 46
-45 46 -26 0 -84 -21 -100 -36 -12 -11 -12 -15 2 -28 9 -9 19 -25 22 -36 8
-26 32 -26 40 0 4 11 15 20 27 20 15 0 18 -3 11 -12 -5 -7 -17 -34 -27 -60
-13 -35 -23 -48 -37 -48 -13 0 -19 -7 -19 -24 0 -13 -7 -27 -16 -30 -25 -9
-27 -7 -13 10 11 14 10 18 -6 30 -17 13 -22 11 -47 -13 -15 -14 -30 -35 -34
-45 -3 -10 -9 -16 -14 -13 -15 9 -19 -40 -5 -62 8 -12 17 -40 21 -62 5 -34 11
-41 35 -46 32 -7 95 10 120 32 30 25 133 14 149 -17 7 -13 5 -27 -7 -48 -16
-28 -16 -32 1 -71 10 -22 27 -48 37 -56 9 -9 38 -69 63 -133 26 -64 59 -133
75 -151 l29 -35 78 12 c43 7 88 19 101 27 23 15 32 45 14 45 -15 0 -42 31 -36
41 4 5 15 9 26 9 23 0 39 35 32 72 -4 23 -1 27 26 33 17 4 31 12 31 20 0 7 11
16 25 19 14 4 30 17 34 29 15 38 35 49 72 40 27 -7 41 -20 56 -51 0 -2 11 3
23 10 23 14 22 14 66 -47 10 -14 24 -18 49 -17 24 2 41 -4 55 -18 25 -25 45
-25 93 0 20 11 48 20 61 20 26 0 39 20 30 45 -4 10 -20 15 -44 15 -22 0 -42 5
-45 10 -12 19 -24 10 -31 -25 -3 -19 -10 -35 -15 -35 -15 0 -14 3 65 170 17
36 74 71 111 68 27 -3 33 2 60 54 21 40 39 61 58 67 15 6 36 26 48 45 27 47
72 73 139 81 47 6 66 3 121 -20 37 -14 79 -39 94 -56 18 -18 39 -29 56 -29 31
0 48 -18 29 -30 -7 -4 -10 -12 -7 -17 3 -5 -18 -21 -47 -36 -29 -15 -68 -43
-86 -62 l-33 -34 24 -10 c17 -6 29 -5 40 5 8 8 26 14 40 14 13 0 64 8 113 17
88 17 89 17 127 -5 44 -25 76 -27 103 -7 12 9 42 15 74 15 29 0 62 4 72 10 25
13 50 3 50 -21 0 -10 3 -19 7 -19 10 0 136 71 158 90 32 27 90 57 125 65 20 4
34 15 37 26 7 24 44 34 72 20 13 -7 40 -9 70 -5 44 6 54 3 95 -26 31 -21 56
-30 74 -28 21 2 28 -2 30 -19 4 -24 47 -57 63 -48 5 4 17 1 26 -6 14 -12 15
-9 8 29 -6 39 -5 42 15 42 14 0 24 -8 27 -20 7 -26 24 -21 40 11 12 22 10 26
-15 46 -15 12 -41 34 -59 48 -18 15 -30 32 -27 40 3 7 1 23 -6 34 -9 17 -20
21 -60 21 -56 0 -68 19 -25 38 14 6 25 20 25 30 0 11 9 27 20 37 11 10 20 24
20 30 0 7 11 20 25 29 15 10 25 26 25 40 0 13 7 29 15 36 8 7 15 27 15 46 0
23 7 38 22 48 26 18 50 98 42 138 -5 24 -9 27 -32 22 -15 -4 -45 -26 -67 -49
-30 -31 -57 -48 -105 -64 -79 -26 -105 -42 -184 -118 -33 -32 -73 -66 -87 -75
-14 -9 -40 -46 -57 -82 -17 -36 -36 -66 -42 -66 -5 0 -10 -6 -10 -12 0 -7 -21
-21 -46 -32 -32 -13 -57 -34 -86 -72 -30 -40 -50 -56 -78 -64 -27 -7 -45 -21
-60 -45 -25 -40 -27 -41 -50 -20 -15 13 -28 14 -81 6 -34 -6 -65 -9 -67 -6 -3
2 2 15 10 27 15 24 13 94 -3 104 -14 8 -11 24 5 24 7 0 34 32 59 70 30 48 60
80 91 100 43 27 59 50 36 50 -5 0 2 12 15 26 17 19 23 33 19 52 -6 28 25 72
49 72 7 0 20 9 30 20 9 11 26 20 37 20 10 0 24 9 30 20 10 18 107 70 131 70
27 0 104 70 126 115 13 28 33 64 43 80 11 17 24 40 30 53 5 12 20 27 34 33 15
7 28 26 36 52 6 23 23 55 36 72 13 17 27 49 32 71 5 27 14 40 27 42 11 2 46
31 78 63 62 63 85 79 114 79 11 0 32 14 49 31 16 18 61 47 99 65 39 19 77 38
85 43 8 5 23 12 33 15 9 3 17 12 17 21 0 25 -60 18 -117 -15z"/>
<path d="M4577 8562 c-20 -22 -22 -52 -3 -52 7 0 25 9 40 21 21 17 24 24 15
35 -16 19 -33 18 -52 -4z"/>
<path d="M6792 7962 c-80 -41 -135 -97 -146 -149 -8 -37 5 -43 37 -18 21 16
47 10 47 -11 0 -17 20 -18 72 -2 52 15 63 37 43 85 -16 38 -16 39 26 63 9 5
19 23 21 40 6 40 -8 39 -100 -8z"/>
<path d="M3426 7715 c-11 -8 -28 -15 -38 -15 -10 0 -18 -7 -18 -15 0 -25 76
-19 137 11 29 15 53 28 53 30 0 12 -118 1 -134 -11z"/>
<path d="M6534 7565 c-4 -10 -14 -13 -28 -9 -29 7 -50 -18 -41 -47 6 -19 4
-21 -13 -16 -23 5 -48 -16 -37 -33 8 -13 51 -13 78 1 43 22 77 62 77 91 0 30
-26 40 -36 13z"/>
<path d="M1092 7453 c6 -44 11 -38 -168 -208 -80 -75 -92 -83 -97 -66 -6 26
-27 28 -27 3 0 -10 -6 -24 -12 -30 -21 -21 11 -34 71 -27 61 6 81 18 81 47 0
10 47 66 110 129 61 61 110 117 110 123 0 12 -32 46 -59 61 -11 7 -13 0 -9
-32z"/>
<path d="M6922 7366 c-29 -17 -67 -48 -85 -67 -18 -19 -49 -47 -69 -63 -20
-15 -49 -49 -64 -74 -15 -26 -42 -64 -60 -84 -18 -20 -38 -56 -44 -78 -8 -31
-33 -65 -96 -130 -46 -48 -84 -94 -84 -102 0 -8 9 -27 21 -42 14 -18 19 -34
15 -51 -5 -18 -1 -27 15 -35 17 -10 27 -7 58 14 20 14 43 26 50 26 23 0 76 32
112 69 84 83 128 121 143 121 8 0 30 18 47 40 26 32 39 40 66 40 31 0 33 2 33
34 0 41 33 102 59 109 14 3 17 11 14 29 -4 22 0 26 28 32 l33 6 -42 43 c-35
36 -42 49 -42 82 0 41 -27 107 -45 111 -5 1 -34 -12 -63 -30z"/>
<path d="M7413 7243 c3 -58 6 -68 23 -71 10 -1 25 2 33 7 11 7 10 13 -4 35
-10 14 -15 37 -13 50 4 21 -16 46 -37 46 -3 0 -4 -30 -2 -67z"/>
<path d="M7186 7248 c-18 -10 -18 -12 -2 -23 15 -11 14 -14 -9 -29 -14 -9 -25
-23 -25 -31 0 -19 42 -48 51 -34 4 6 21 8 44 3 37 -7 38 -6 32 19 -5 18 -2 27
9 31 24 9 54 7 54 -4 0 -5 5 -10 10 -10 6 0 10 9 10 19 0 11 5 23 10 26 13 8
13 45 0 45 -6 0 -26 -7 -45 -14 -30 -13 -38 -13 -62 -1 -33 18 -51 18 -77 3z"/>
<path d="M2730 7206 c0 -7 6 -19 14 -26 8 -6 13 -17 10 -23 -5 -16 77 -60 89
-48 5 5 6 28 2 50 -6 35 -10 41 -26 36 -11 -4 -33 1 -51 9 -38 19 -38 19 -38
2z"/>
<path d="M769 7084 c-7 -9 -19 -31 -24 -48 -8 -24 -15 -30 -32 -28 -18 3 -23
-3 -28 -32 -10 -50 16 -81 30 -36 3 11 13 20 21 20 18 0 54 36 54 54 0 8 5 18
10 21 14 8 13 28 -3 49 -12 17 -14 17 -28 0z"/>
<path d="M550 6856 c-16 -20 -9 -60 13 -64 12 -2 17 3 17 18 0 13 8 24 20 27
11 3 20 12 20 19 0 19 -54 18 -70 0z"/>
<path d="M538 6760 c-23 -14 -61 -77 -53 -90 12 -19 35 -10 51 23 10 17 24 37
32 43 8 6 12 16 8 22 -9 14 -16 15 -38 2z"/>
<path d="M317 6541 c-19 -22 -44 -59 -55 -84 -11 -24 -25 -48 -31 -51 -6 -4
-11 -16 -11 -26 0 -10 -11 -31 -24 -47 -21 -25 -41 -94 -27 -92 10 0 91 119
91 133 0 7 7 20 16 27 14 11 18 10 30 -5 12 -17 13 -17 20 9 4 18 23 37 56 57
52 32 98 101 76 114 -10 7 -17 0 -54 -51 -20 -27 -50 -8 -46 29 2 14 1 26 -1
26 -3 0 -21 -18 -40 -39z"/>
<path d="M8950 6356 c0 -7 7 -19 15 -26 8 -7 15 -23 15 -36 0 -20 5 -24 29
-24 16 0 43 -3 60 -6 45 -9 42 -45 -8 -99 -29 -32 -41 -55 -46 -89 -10 -62 0
-96 26 -96 19 0 21 4 15 44 -8 50 2 64 64 96 113 58 87 171 -43 186 -49 6 -62
12 -80 35 -22 31 -47 38 -47 15z"/>
<path d="M5232 6127 c-38 -12 -49 -42 -33 -89 8 -22 10 -71 5 -152 l-7 -119
39 22 c62 35 80 54 109 111 25 50 27 61 22 136 -2 45 -8 87 -11 93 -9 14 -80
13 -124 -2z"/>
<path d="M7 6116 c-4 -10 -7 -44 -7 -77 0 -52 2 -59 20 -59 10 0 23 7 28 17 9
15 10 14 16 -4 4 -11 2 -32 -4 -47 -15 -41 -13 -46 25 -46 40 0 44 13 21 78
-12 35 -12 43 0 61 9 13 12 30 8 48 -11 45 -15 46 -45 17 -16 -15 -29 -23 -29
-18 0 6 -6 18 -13 28 -13 18 -14 18 -20 2z"/>
<path d="M2480 5959 c0 -12 -20 -42 -46 -68 -42 -42 -47 -44 -59 -28 -10 15
-14 15 -24 3 -9 -10 -37 -14 -114 -12 -56 1 -108 5 -114 9 -9 6 -13 1 -13 -14
0 -34 -49 -98 -87 -114 -18 -8 -33 -19 -33 -24 0 -15 -66 -14 -108 1 -31 12
-36 11 -51 -9 -16 -19 -19 -20 -43 -5 -24 14 -28 14 -54 -7 -19 -15 -31 -18
-38 -11 -5 5 -26 10 -45 10 l-36 1 25 22 c20 17 26 33 28 75 3 51 2 53 -18 42
-12 -6 -26 -23 -32 -36 -10 -22 -17 -25 -43 -20 -44 9 -73 -22 -57 -60 19 -40
15 -54 -15 -54 -16 0 -35 4 -43 9 -25 17 -31 0 -9 -27 20 -26 20 -27 2 -30
-23 -5 -63 -41 -63 -58 0 -24 -22 -27 -49 -7 -14 11 -48 23 -75 27 -44 7 -51
5 -67 -15 -16 -22 -18 -22 -42 -6 -23 15 -26 15 -42 -3 -10 -11 -25 -22 -35
-25 -9 -3 -22 -17 -28 -30 -14 -31 -44 -32 -57 -3 -6 12 -15 23 -22 25 -15 5
-33 -59 -33 -119 0 -27 -5 -50 -12 -55 -7 -4 -18 -17 -24 -27 -5 -11 -30 -25
-55 -33 -47 -14 -91 -47 -102 -77 -6 -15 -14 -17 -47 -12 -42 7 -48 0 -30 -35
8 -15 7 -19 -5 -19 -19 0 -20 -24 -2 -39 8 -6 28 -14 46 -17 22 -5 33 -14 37
-30 4 -15 13 -24 26 -24 18 0 20 -5 14 -31 -3 -17 -6 -43 -6 -58 0 -22 -11
-33 -57 -61 -75 -46 -94 -68 -91 -105 3 -27 -1 -31 -33 -39 -23 -6 -41 -19
-52 -39 -16 -26 -21 -29 -53 -24 -63 10 -89 -1 -111 -46 -21 -46 -20 -79 3
-70 8 3 14 -1 14 -11 0 -9 -7 -16 -16 -16 -8 0 -12 -5 -9 -10 4 -6 -5 -24 -19
-41 -30 -36 -32 -51 -9 -74 12 -13 13 -19 4 -24 -9 -6 -1 -22 28 -55 23 -26
41 -56 41 -67 0 -14 9 -21 31 -26 51 -10 68 -83 19 -83 -25 0 -28 -38 -2 -47
9 -3 31 -18 47 -33 31 -28 112 -50 186 -50 27 0 39 -5 44 -17 10 -33 54 -73
82 -78 15 -2 87 -11 158 -20 72 -9 153 -22 180 -30 28 -8 93 -24 145 -36 52
-12 111 -27 130 -34 112 -39 169 -55 198 -55 22 0 32 -5 32 -15 0 -8 5 -15 10
-15 6 0 16 -12 22 -26 l12 -25 18 23 18 23 19 -23 c13 -15 30 -22 55 -22 29 0
38 5 51 30 19 37 42 39 51 5 7 -29 16 -31 34 -10 16 19 40 20 40 1 0 -16 24
-28 35 -18 4 4 39 7 78 8 40 0 82 6 94 12 36 20 106 15 120 -8 11 -16 17 -18
42 -9 43 15 121 87 138 126 12 30 17 33 58 33 52 0 90 29 82 61 -4 14 1 21 20
25 13 4 30 1 36 -5 15 -15 37 -14 37 2 0 17 73 97 88 97 6 0 17 -9 25 -20 25
-36 94 -2 85 42 -4 20 65 13 77 -8 6 -9 23 -32 39 -51 l29 -34 23 22 c13 13
24 30 24 39 0 21 73 73 96 68 9 -1 26 -15 37 -30 17 -23 18 -30 7 -43 -7 -8
-10 -18 -7 -21 6 -6 132 23 158 36 15 9 38 49 59 107 13 36 31 35 48 -3 7 -13
15 -24 19 -24 5 0 23 19 42 41 25 30 31 43 22 52 -19 19 -13 36 19 56 28 17
29 19 12 34 -16 15 -19 13 -50 -23 -17 -21 -32 -48 -32 -59 0 -27 -40 -30 -40
-3 0 9 -7 26 -15 36 -8 11 -12 29 -9 43 5 17 -1 29 -25 50 -35 31 -39 48 -15
57 15 6 15 8 -2 27 -10 11 -37 28 -61 39 -47 20 -48 22 -34 48 6 9 12 29 16
45 6 30 26 35 45 13 6 -8 18 -12 26 -9 11 4 12 9 5 16 -20 20 -11 44 25 72 25
19 33 30 25 38 -7 7 -18 7 -36 -1 -29 -13 -32 -6 -9 19 22 24 10 39 -32 39
-38 0 -40 4 -19 53 13 31 13 36 -1 41 -9 3 -26 3 -40 0 -18 -5 -24 -2 -24 10
0 10 -9 16 -25 16 -23 0 -24 2 -13 25 6 14 22 32 35 40 14 10 23 25 23 42 0
14 13 54 29 88 26 54 28 65 18 97 -9 27 -22 41 -61 61 -28 14 -61 29 -73 32
-28 8 -73 60 -73 86 0 25 -68 59 -118 59 -25 0 -50 9 -72 25 -19 14 -45 25
-58 25 -21 0 -22 2 -12 15 10 12 10 15 -4 15 -9 0 -16 7 -16 16 0 9 -9 18 -20
21 -20 5 -28 23 -10 23 6 0 10 7 10 15 0 18 -26 20 -37 3 -5 -8 -10 4 -13 32
-5 41 -10 48 -54 78 -62 41 -92 39 -124 -8 -30 -45 -40 -48 -52 -15 -18 48
-12 91 15 109 32 21 32 51 -2 120 -23 47 -30 55 -48 50 -18 -4 -22 -1 -21 18
1 15 -6 24 -19 26 -11 2 -24 10 -28 18 -12 22 -37 17 -37 -7z"/>
<path d="M9093 5943 c-7 -2 -13 -13 -13 -23 0 -14 10 -21 34 -26 50 -9 62 3
35 32 -22 24 -33 27 -56 17z"/>
<path d="M8597 5692 c-16 -17 -15 -20 13 -47 29 -28 30 -28 50 -10 11 10 20
31 20 47 0 25 -3 28 -33 28 -20 0 -41 -8 -50 -18z"/>
<path d="M4274 5682 c-15 -9 -34 -47 -34 -65 0 -23 31 -29 52 -10 32 29 15 98
-18 75z"/>
<path d="M9632 5493 c2 -10 10 -18 18 -18 8 0 16 8 18 18 2 12 -3 17 -18 17
-15 0 -20 -5 -18 -17z"/>
<path d="M3617 5353 c-2 -5 -1 -19 2 -32 6 -21 8 -22 20 -7 7 8 11 23 7 31 -6
16 -22 20 -29 8z"/>
<path d="M4344 5295 c-5 -19 4 -41 32 -87 41 -65 72 -90 59 -47 -14 44 -70
159 -77 159 -4 0 -10 -11 -14 -25z"/>
<path d="M3835 5213 c-61 -30 -100 -140 -60 -173 8 -7 15 -20 15 -29 0 -25 23
-70 39 -76 8 -3 27 3 42 14 15 11 35 18 46 15 14 -4 27 3 43 23 19 24 21 38
18 94 -3 56 -8 71 -37 107 -35 45 -55 50 -106 25z"/>
<path d="M9375 5177 c-27 -21 -13 -67 20 -67 22 0 25 4 25 40 0 43 -12 50 -45
27z"/>
<path d="M3706 5003 c-11 -11 -6 -40 9 -53 8 -7 15 -22 15 -34 0 -28 52 -79
76 -74 35 6 26 35 -25 83 -28 26 -51 54 -51 61 0 15 -15 26 -24 17z"/>
<path d="M8228 4994 c-33 -17 -45 -56 -29 -90 9 -20 18 -24 54 -24 41 0 47 3
71 40 31 47 31 52 8 73 -23 21 -68 21 -104 1z"/>
<path d="M4690 4879 c-14 -25 -4 -75 16 -83 8 -3 14 1 14 8 0 9 7 12 19 9 31
-8 38 33 10 63 -28 29 -45 30 -59 3z"/>
<path d="M5269 4863 c-2 -31 2 -47 27 -100 21 -46 28 -53 54 -53 34 0 45 24
30 66 -6 16 -9 43 -5 60 5 29 3 32 -26 38 -55 11 -79 7 -80 -11z"/>
<path d="M4959 4465 c-48 -26 -79 -103 -65 -160 5 -20 13 -25 36 -25 27 0 30
3 30 30 0 30 0 30 25 14 33 -21 74 -91 101 -168 16 -49 25 -62 44 -64 56 -9
73 68 45 195 -29 128 -31 131 -96 163 -65 33 -82 36 -120 15z"/>
<path d="M8816 4440 l-28 -18 20 -20 c11 -11 25 -30 32 -41 14 -27 46 -27 60
-1 12 22 -3 90 -20 90 -5 0 -14 2 -22 4 -7 3 -26 -4 -42 -14z"/>
<path d="M9332 3884 c-28 -19 -28 -25 3 -58 14 -15 25 -31 25 -36 0 -4 13 -13
29 -18 24 -9 34 -6 65 16 76 53 51 112 -48 112 -30 0 -61 -6 -74 -16z"/>
<path d="M9601 3586 c-7 -8 -8 -17 -4 -19 13 -8 74 7 76 18 3 16 -58 18 -72 1z"/>
<path d="M2334 3468 c-12 -6 -29 -28 -38 -51 -15 -37 -15 -42 1 -59 15 -17 15
-18 -6 -18 -14 0 -21 -5 -19 -12 6 -19 85 -22 111 -5 12 8 34 17 50 21 15 3
27 12 27 20 0 22 -21 76 -30 76 -11 0 -21 -30 -14 -41 3 -5 -2 -9 -10 -9 -11
0 -13 8 -9 33 4 28 1 35 -19 44 -15 7 -30 7 -44 1z"/>
<path d="M10127 3306 c-41 -11 -44 -29 -6 -34 15 -2 32 5 43 17 22 24 11 30
-37 17z"/>
<path d="M1157 3142 c-26 -29 -20 -57 23 -107 26 -30 40 -56 40 -74 0 -28 26
-61 48 -61 16 0 15 15 -2 48 -7 15 -16 59 -20 97 -9 104 -14 115 -46 115 -15
0 -34 -8 -43 -18z"/>
<path d="M6390 3025 c-7 -8 -20 -15 -29 -15 -21 0 -41 -19 -41 -38 0 -22 81
-202 91 -202 17 0 89 113 89 140 0 6 -14 8 -40 4 -22 -4 -40 -3 -40 0 0 4 13
21 30 39 31 33 34 44 24 71 -8 21 -67 21 -84 1z"/>
<path d="M10016 2803 c-12 -12 -6 -33 9 -33 8 0 15 6 15 14 0 17 -14 28 -24
19z"/>
<path d="M9687 2363 c-4 -3 -7 -12 -7 -20 0 -9 18 -13 65 -13 65 0 75 6 53 28
-13 13 -100 17 -111 5z"/>
<path d="M9121 2317 c-30 -15 -38 -35 -17 -43 17 -7 65 25 66 44 0 15 -18 15
-49 -1z"/>
<path d="M3137 2242 c-37 -39 -37 -85 1 -98 24 -8 31 -5 64 26 21 19 38 44 38
56 0 50 -61 60 -103 16z"/>
<path d="M6954 2135 c-14 -9 -25 -34 -33 -75 -14 -70 -8 -100 20 -100 14 0 23
14 36 60 25 84 62 79 63 -9 0 -21 23 -50 41 -51 14 0 29 55 29 105 0 51 -2 55
-24 55 -13 0 -37 7 -52 15 -36 19 -54 19 -80 0z"/>
<path d="M9015 2123 c-48 -9 -65 -26 -65 -61 0 -36 21 -61 52 -62 16 0 58 60
58 84 0 22 -24 43 -45 39z"/>
<path d="M2776 2104 c-13 -9 -25 -10 -43 -3 -39 15 -43 11 -43 -36 0 -33 -4
-45 -15 -45 -8 0 -15 7 -15 16 0 12 -7 15 -27 11 -174 -32 -180 -35 -189 -113
-10 -90 -11 -93 -52 -100 -20 -4 -48 -15 -61 -25 -17 -14 -40 -19 -81 -19 -81
0 -143 -24 -176 -68 -36 -48 -44 -53 -71 -47 -34 8 -35 -9 -3 -40 25 -24 41
-29 140 -41 111 -14 111 -14 158 11 26 14 56 35 67 47 l20 23 3 -52 c2 -43 6
-53 21 -53 28 0 86 85 71 105 -4 6 -15 34 -26 63 -18 52 -18 54 -1 67 10 7 37
16 60 20 36 5 47 14 77 56 19 27 42 49 49 49 8 0 27 12 43 27 20 19 31 23 40
15 7 -6 29 -12 48 -14 30 -2 35 -7 33 -25 -2 -18 2 -23 22 -23 27 0 32 -18 14
-52 -13 -24 -5 -35 15 -19 11 9 24 10 53 2 31 -9 40 -8 49 4 8 11 21 13 43 9
27 -6 31 -4 31 15 0 24 4 25 30 11 15 -8 21 -6 29 9 6 11 25 22 42 26 19 4 34
16 40 32 18 47 11 63 -33 83 -51 23 -78 25 -78 6 0 -7 -7 -19 -15 -26 -13 -10
-19 -10 -35 5 -11 10 -20 26 -20 35 0 12 -9 16 -36 16 -24 0 -41 7 -52 21 -21
26 -100 37 -126 17z"/>
<path d="M9791 1721 c-28 -38 -26 -63 4 -89 14 -12 25 -26 25 -32 0 -15 36
-12 50 5 10 12 7 17 -14 26 -20 10 -26 19 -26 45 0 18 5 36 10 39 6 3 10 13
10 21 0 25 -38 15 -59 -15z"/>
<path d="M6037 1683 c-27 -4 -27 -6 -21 -52 5 -36 2 -55 -10 -73 -16 -25 -16
-25 27 -42 53 -20 71 -20 91 -1 10 10 13 26 9 49 -3 19 -1 36 6 40 21 14 11
45 -23 65 -18 12 -37 20 -42 20 -5 -1 -21 -4 -37 -6z"/>
<path d="M10196 1648 c-15 -38 -12 -48 15 -48 16 0 19 7 19 40 0 48 -15 52
-34 8z"/>
<path d="M2310 1555 c-19 -22 -7 -41 13 -21 18 19 22 36 8 36 -5 0 -14 -7 -21
-15z"/>
<path d="M10180 1506 c0 -17 18 -25 42 -18 9 2 14 10 11 18 -7 18 -53 18 -53
0z"/>
</g>
</svg>
