<?xml version="1.0" standalone="no"?>
<!DOCTYPE svg PUBLIC "-//W3C//DTD SVG 20010904//EN"
 "http://www.w3.org/TR/2001/REC-SVG-20010904/DTD/svg10.dtd">
<svg version="1.0" xmlns="http://www.w3.org/2000/svg"
 width="1024.000000pt" height="1024.000000pt" viewBox="0 0 1024.000000 1024.000000"
 preserveAspectRatio="xMidYMid meet">
<metadata>
Created by potrace 1.10, written by Peter Selinger 2001-2011
</metadata>
<g transform="translate(0.000000,1024.000000) scale(0.100000,-0.100000)"
fill="#000000" stroke="none">
<path d="M1720 9113 c0 -621 -3 -1636 -6 -2258 l-7 -1130 159 -140 c87 -78
404 -357 704 -620 1225 -1078 1765 -1582 4125 -3849 561 -540 1052 -1011 1091
-1049 l71 -68 17 25 c22 34 20 52 -6 70 -21 15 -21 16 -4 35 10 10 28 22 42
25 20 5 24 12 24 44 0 20 -5 56 -10 79 -5 23 -17 87 -25 142 -11 75 -24 119
-52 175 -36 74 -37 76 -21 109 15 31 15 37 1 56 -14 20 -13 24 2 41 16 18 16
21 -6 51 -12 18 -24 46 -26 63 -1 17 -7 73 -12 124 -10 98 -4 133 25 150 15 8
13 13 -13 49 -16 22 -37 58 -47 81 -17 38 -18 44 -3 74 14 29 14 36 0 68 -8
19 -17 40 -20 47 -3 7 22 24 64 43 54 25 72 29 86 20 15 -9 26 -7 53 9 41 25
80 27 88 6 4 -13 9 -13 25 -3 15 9 23 9 35 -1 11 -9 20 -10 35 -2 50 27 100
-4 135 -83 29 -65 45 -78 104 -83 40 -4 50 -1 69 19 13 13 27 45 32 72 5 26
24 70 42 99 l34 52 3 4293 2 4292 -3405 0 -3405 0 0 -1127z"/>
</g>
</svg>
