<?xml version="1.0" standalone="no"?>
<!DOCTYPE svg PUBLIC "-//W3C//DTD SVG 20010904//EN"
 "http://www.w3.org/TR/2001/REC-SVG-20010904/DTD/svg10.dtd">
<svg version="1.0" xmlns="http://www.w3.org/2000/svg"
 width="1024.000000pt" height="1024.000000pt" viewBox="0 0 1024.000000 1024.000000"
 preserveAspectRatio="xMidYMid meet">
<metadata>
Created by potrace 1.10, written by Peter Selinger 2001-2011
</metadata>
<g transform="translate(0.000000,1024.000000) scale(0.100000,-0.100000)"
fill="#000000" stroke="none">
<path d="M6450 10237 c0 -3 23 -13 50 -22 47 -16 67 -35 36 -35 -23 0 -28 -18
-16 -56 9 -26 30 -49 82 -86 65 -47 69 -53 52 -65 -28 -20 -68 -16 -94 12 -20
21 -21 25 -7 31 14 5 11 10 -12 30 -39 32 -58 30 -110 -11 -51 -40 -49 -40
-80 -18 -23 15 -25 15 -37 -2 -9 -11 -27 -19 -46 -19 -23 -1 -34 -6 -36 -18
-2 -11 3 -18 12 -18 21 0 20 -29 0 -51 -16 -17 -15 -19 11 -29 l28 -11 -31
-32 c-49 -50 -49 -51 78 -250 l43 -69 -32 -25 c-31 -25 -32 -26 -12 -39 11 -8
25 -30 31 -50 15 -43 4 -58 -50 -71 -23 -6 -39 -18 -48 -36 -9 -18 -21 -27
-37 -27 -16 0 -40 -17 -72 -52 -82 -87 -105 -108 -114 -102 -23 14 -4 54 61
128 39 43 70 83 70 87 0 17 -20 18 -60 4 -53 -19 -50 -19 -50 10 0 13 8 29 18
34 38 20 151 138 157 163 6 23 0 36 -38 80 -24 29 -48 64 -52 76 -7 23 -9 21
-55 -30 -27 -29 -49 -47 -50 -40 0 21 26 76 44 91 15 13 15 15 0 32 -15 17
-15 20 0 43 9 14 16 33 16 43 0 27 -47 123 -60 123 -7 0 -30 -16 -53 -35 -23
-20 -52 -35 -66 -35 -18 -1 -37 -14 -62 -43 -36 -42 -36 -42 -19 -70 11 -17
20 -24 24 -18 12 18 37 12 43 -9 7 -27 23 -25 23 3 1 21 1 21 21 -5 11 -16 27
-28 35 -28 8 0 14 -9 14 -20 0 -11 7 -23 15 -26 20 -8 19 -29 -6 -109 -15 -51
-24 -65 -37 -63 -13 3 -17 15 -18 58 0 74 0 74 -30 110 -20 23 -29 28 -35 19
-6 -10 -12 -10 -26 4 -10 9 -28 14 -38 11 -26 -7 -59 47 -51 82 5 19 2 24 -12
24 -10 0 -24 6 -30 12 -10 10 -15 10 -22 -2 -17 -27 -11 -50 18 -63 51 -22 55
-52 15 -133 l-26 -54 -24 22 -23 22 22 24 c18 20 20 26 9 30 -8 3 -26 16 -39
29 -18 18 -28 21 -35 14 -17 -17 -57 -13 -64 5 -3 9 -1 25 6 36 17 28 5 38
-45 38 -43 0 -44 -1 -44 -32 0 -34 -32 -98 -49 -98 -5 0 -11 6 -13 12 -3 9
-12 8 -31 -5 -15 -9 -45 -17 -70 -17 -33 0 -49 -6 -65 -23 -24 -25 -30 -25
-169 -2 -41 7 -43 6 -43 -16 0 -13 -7 -42 -14 -64 -8 -22 -17 -66 -21 -97 -5
-39 -12 -58 -21 -58 -8 0 -20 -15 -27 -32 -20 -47 -43 -64 -63 -47 -14 11 -18
11 -29 -4 -6 -9 -15 -14 -18 -11 -3 4 -5 -6 -4 -22 2 -25 -2 -29 -28 -32 -36
-4 -45 -16 -45 -59 0 -37 15 -51 28 -27 9 15 14 14 48 -14 22 -18 50 -40 64
-51 l25 -19 -61 -18 c-49 -15 -60 -22 -56 -36 2 -10 -1 -18 -7 -18 -24 0 -9
-18 40 -49 59 -37 59 -36 52 -12 -7 29 9 32 52 8 30 -17 40 -29 40 -47 0 -17
-5 -24 -15 -21 -8 3 -28 5 -45 5 -27 1 -30 -3 -33 -30 -4 -42 -36 -72 -57 -54
-12 10 -19 9 -39 -3 -19 -13 -30 -14 -53 -5 -26 10 -36 8 -74 -15 -35 -21 -39
-27 -21 -27 15 0 22 -6 22 -20 0 -12 6 -20 13 -19 15 2 77 -23 77 -32 0 -14
-55 -42 -83 -41 -28 1 -28 0 -11 -19 17 -19 16 -19 -62 -18 -61 2 -92 -3 -137
-20 -32 -13 -61 -29 -64 -37 -3 -8 -11 -14 -18 -14 -18 0 -55 -48 -55 -71 0
-26 -49 -61 -74 -53 -20 6 -20 6 2 -15 25 -25 27 -32 10 -49 -14 -14 -21 -10
89 -67 62 -32 90 -52 86 -61 -7 -20 37 -18 51 2 11 14 15 13 43 -10 37 -31 51
-32 96 -6 19 11 51 21 73 23 35 2 39 0 44 -28 5 -30 5 -30 38 28 18 31 35 57
38 57 3 0 4 -16 2 -35 -4 -39 -5 -39 21 -23 26 16 51 3 51 -27 0 -26 1 -25 46
19 51 52 88 66 110 44 13 -13 13 -18 -1 -44 -28 -53 -16 -53 77 2 98 58 103
60 113 43 5 -7 14 -4 26 7 23 21 38 10 21 -16 -9 -14 -9 -20 1 -23 9 -3 7 -14
-7 -41 -20 -38 -36 -47 -36 -19 0 9 -13 -4 -30 -30 -16 -25 -38 -52 -49 -59
-15 -9 -18 -19 -14 -40 5 -23 -1 -34 -33 -64 -22 -20 -38 -40 -36 -46 2 -6 -7
-35 -19 -64 -18 -43 -27 -54 -46 -54 -12 0 -56 -13 -98 -30 -77 -31 -129 -38
-140 -20 -11 17 -25 11 -25 -10 0 -31 -36 -95 -65 -118 -14 -12 -40 -24 -58
-28 -18 -3 -51 -24 -74 -45 -24 -22 -52 -39 -63 -39 -11 0 -29 -9 -41 -21 -20
-20 -20 -21 -3 -41 14 -15 26 -18 51 -14 97 17 97 17 151 -14 44 -26 51 -34
41 -46 -15 -18 -39 -18 -65 1 -22 15 -34 11 -34 -10 0 -7 18 -15 41 -18 37 -5
89 -39 89 -58 0 -16 -75 -31 -131 -26 -56 5 -59 4 -59 -17 0 -28 61 -87 119
-116 39 -19 42 -24 27 -32 -10 -6 -33 -8 -52 -5 -19 3 -34 2 -34 -4 0 -17 -17
-9 -57 29 -22 21 -43 49 -46 63 -9 36 -46 72 -66 63 -67 -28 -67 -28 -100 -5
l-31 22 -37 -30 c-21 -17 -47 -31 -58 -31 -32 0 -123 49 -130 70 -8 24 -26 30
-106 37 -78 7 -119 -1 -119 -22 0 -9 -17 -56 -37 -105 -29 -69 -43 -92 -60
-96 -13 -4 -23 -14 -23 -24 0 -28 -11 -51 -21 -44 -5 3 -7 15 -3 27 4 17 -4
31 -33 59 -53 49 -103 108 -103 120 0 5 4 18 10 28 8 15 6 17 -8 13 -20 -5
-42 31 -42 67 0 13 -7 20 -20 20 -10 0 -40 7 -66 16 l-46 16 -28 -34 c-28 -33
-28 -33 -49 -14 -14 13 -37 20 -69 20 -26 1 -52 5 -58 9 -7 4 -26 2 -43 -4
-23 -8 -35 -8 -44 0 -10 8 -17 7 -25 -1 -9 -9 -16 -8 -29 5 -23 20 -98 24
-140 6 -30 -12 -38 -11 -100 18 -94 44 -136 50 -173 23 -17 -12 -30 -26 -30
-33 0 -6 15 -26 33 -45 17 -19 28 -36 22 -38 -5 -2 -26 -12 -45 -22 -33 -16
-35 -20 -40 -80 -7 -85 -30 -106 -109 -100 l-54 5 32 -26 c29 -24 43 -61 23
-61 -12 0 -12 -119 -1 -126 5 -3 9 -16 9 -30 0 -24 -10 -31 -63 -48 -17 -6
-17 -9 8 -37 14 -18 24 -38 21 -45 -7 -19 29 -18 59 2 17 11 25 26 25 45 0 19
5 29 15 29 8 0 19 9 25 20 8 16 17 19 33 14 30 -9 32 -11 17 -29 -8 -10 -9
-15 -1 -15 21 0 11 -20 -14 -26 -35 -9 -67 -57 -73 -109 -4 -39 -1 -48 26 -75
17 -16 40 -30 52 -30 28 0 36 -26 15 -50 -20 -22 -13 -56 15 -63 11 -3 24 1
31 9 15 19 29 8 29 -22 0 -33 -22 -40 -73 -23 -65 21 -114 5 -103 -34 3 -11
-3 -36 -13 -56 -10 -20 -21 -53 -24 -74 -5 -34 -3 -39 21 -48 37 -15 120 12
163 52 26 24 38 29 58 24 33 -8 47 -8 100 1 32 5 45 3 52 -7 8 -12 10 -12 18
0 13 21 138 6 151 -19 18 -33 -22 -120 -56 -120 -9 0 -12 -12 -10 -37 4 -39
19 -51 69 -52 54 -2 16 -44 -59 -67 -39 -11 -55 -12 -77 -3 -24 10 -36 8 -77
-11 -46 -21 -53 -22 -90 -10 -35 12 -45 11 -76 -3 -19 -9 -59 -20 -89 -23 -30
-4 -55 -8 -55 -10 0 -1 5 -15 10 -30 8 -21 6 -41 -11 -91 -16 -49 -18 -67 -9
-78 6 -8 9 -27 5 -47 -6 -33 -5 -34 91 -96 90 -58 101 -62 155 -62 32 0 69 4
83 10 20 7 26 6 26 -4 0 -23 -23 -34 -94 -44 -66 -9 -72 -8 -124 19 -68 36
-117 38 -147 5 l-23 -25 -66 22 c-70 22 -97 18 -104 -16 -4 -19 46 -47 84 -47
23 0 25 -3 20 -25 -4 -14 -2 -25 4 -25 5 0 10 -7 10 -15 0 -11 -7 -14 -25 -9
-15 4 -25 2 -25 -5 0 -22 -21 -10 -41 23 -19 33 -23 35 -84 38 l-64 3 21 -22
21 -23 -24 0 c-13 0 -37 7 -52 15 -31 16 -60 8 -70 -19 -7 -17 1 -26 22 -26 9
0 31 -22 49 -50 28 -43 40 -52 86 -65 30 -9 63 -24 75 -34 24 -21 28 -51 7
-51 -7 0 -26 -18 -40 -41 -25 -37 -29 -39 -44 -26 -9 8 -30 17 -47 21 -27 5
-34 1 -63 -39 -21 -29 -26 -42 -16 -38 11 4 22 -1 31 -13 12 -16 17 -17 46 -5
61 25 73 24 95 -4 11 -14 22 -30 24 -35 2 -6 29 -19 60 -30 71 -25 108 -16
108 28 0 40 27 74 52 66 13 -4 27 1 42 15 25 23 56 20 56 -6 0 -11 7 -14 25
-11 31 6 42 -7 42 -54 l1 -38 -69 -20 c-68 -21 -88 -33 -70 -45 12 -7 4 -31
-23 -67 -22 -31 -21 -32 12 -42 18 -6 22 -3 22 13 0 27 5 27 49 -8 61 -47 78
-54 115 -41 26 8 37 20 50 53 21 55 113 169 133 165 27 -5 39 -34 27 -66 -9
-24 -8 -31 5 -39 14 -10 13 -12 -9 -21 -25 -11 -25 -11 6 -11 l31 -1 -1 62 -1
63 44 3 c49 4 53 -14 8 -36 -36 -17 -34 -29 8 -53 34 -20 39 -39 9 -39 -8 0
-14 -9 -14 -20 0 -17 -5 -19 -24 -14 -41 10 -48 -3 -26 -46 26 -51 25 -57 -10
-103 -30 -41 -30 -62 1 -72 30 -10 39 3 39 54 0 33 6 56 19 72 19 24 19 24 40
5 l21 -19 -22 -24 -22 -23 24 -43 c12 -23 26 -46 31 -51 4 -5 39 1 78 13 93
28 180 39 391 50 154 8 184 12 240 35 55 23 68 24 100 15 28 -8 43 -8 59 0 22
12 61 7 61 -8 0 -4 -16 -16 -35 -27 -22 -12 -30 -21 -22 -26 8 -5 5 -14 -11
-30 -20 -22 -21 -26 -6 -46 18 -26 29 -27 68 -7 47 25 50 17 12 -25 -41 -45
-45 -76 -16 -113 18 -22 27 -57 16 -57 -2 0 -27 16 -56 35 -36 24 -63 35 -89
35 -27 0 -32 -3 -21 -10 8 -5 25 -10 38 -10 25 0 31 -30 8 -49 -11 -9 -22 -6
-51 14 -21 14 -49 25 -62 25 -22 0 -23 -1 -9 -16 15 -14 23 -54 11 -54 -3 0
-14 5 -25 12 -16 11 -23 8 -48 -15 -15 -15 -37 -27 -48 -27 -10 0 -53 20 -94
44 -66 39 -77 43 -95 32 -11 -7 -21 -26 -23 -42 -6 -62 -31 -110 -67 -127 -20
-9 -38 -25 -41 -34 -2 -10 -18 -45 -35 -77 -22 -44 -27 -61 -18 -67 9 -5 3
-15 -19 -34 -18 -15 -32 -36 -32 -49 0 -12 -13 -40 -30 -62 -32 -42 -39 -64
-15 -44 13 11 20 11 41 0 21 -12 29 -11 59 3 38 18 60 15 70 -11 5 -12 -13
-35 -64 -82 -41 -38 -71 -73 -71 -84 0 -11 -7 -28 -16 -38 -14 -15 -15 -20 -3
-34 12 -15 11 -19 -9 -32 -12 -8 -22 -23 -22 -33 0 -10 -9 -21 -20 -24 -16 -5
-20 -15 -20 -50 0 -93 -57 -169 -98 -132 -23 21 -45 21 -81 2 -31 -16 -46 -41
-30 -51 6 -3 -1 -16 -16 -29 -16 -16 -25 -35 -25 -55 0 -27 -3 -30 -31 -30
-22 0 -43 -12 -82 -49 -29 -26 -67 -56 -84 -65 -18 -9 -40 -30 -48 -46 -11
-21 -38 -41 -88 -66 -72 -37 -90 -51 -81 -66 10 -16 53 -8 65 13 9 18 17 20
54 14 36 -5 53 -1 95 20 37 19 60 24 81 20 24 -5 29 -3 29 12 0 11 -4 23 -10
29 -19 19 7 31 87 41 53 7 95 19 118 33 36 22 36 22 17 44 -36 40 -36 46 2 46
30 0 35 -3 38 -27 2 -20 13 -34 39 -48 20 -11 60 -35 90 -52 30 -18 60 -33 67
-33 7 0 53 20 102 45 49 25 100 45 112 45 19 0 15 -7 -31 -54 -56 -57 -59 -76
-12 -76 23 0 32 7 45 34 9 19 16 39 16 45 0 7 27 11 76 11 74 0 76 1 125 42
27 24 49 49 49 56 0 7 7 15 15 18 7 3 22 27 31 52 10 26 28 60 41 75 13 16 23
41 23 56 0 15 8 35 18 43 26 23 119 68 126 61 12 -12 6 -33 -13 -49 -18 -16
-18 -17 7 -39 25 -22 26 -23 9 -48 -9 -15 -17 -44 -17 -66 l0 -40 61 21 62 21
63 -23 c34 -12 90 -24 123 -27 35 -3 61 -11 61 -17 0 -6 -32 -21 -72 -34 -66
-21 -72 -21 -89 -6 -16 15 -23 15 -88 0 -38 -9 -86 -16 -105 -16 -30 0 -40 -6
-65 -41 -17 -22 -31 -45 -33 -51 -2 -6 -20 -3 -45 10 -40 21 -41 21 -58 2 -9
-10 -49 -30 -89 -44 -39 -13 -122 -43 -184 -65 -62 -23 -124 -41 -137 -41 -32
0 -55 10 -55 24 0 8 -20 11 -67 8 -58 -3 -71 -7 -89 -29 -19 -22 -23 -23 -31
-9 -7 13 -15 14 -47 5 -32 -9 -48 -7 -96 11 -36 13 -67 19 -80 15 -29 -9 -58
-75 -66 -151 -9 -75 -17 -91 -58 -108 -19 -8 -44 -24 -56 -36 -12 -12 -61 -40
-107 -62 -76 -36 -88 -39 -114 -28 -24 10 -33 10 -54 -4 -46 -30 -25 -49 64
-59 68 -8 95 -30 86 -72 -3 -16 -9 -52 -13 -80 -5 -27 -13 -60 -20 -72 -17
-30 -15 -35 8 -28 24 8 26 -2 3 -27 -22 -24 -16 -28 51 -32 42 -2 62 -8 81
-26 14 -13 25 -26 25 -30 0 -3 -25 -14 -55 -25 -51 -17 -57 -17 -72 -3 -14 15
-19 13 -60 -18 -24 -19 -54 -34 -66 -34 -70 0 -151 51 -184 113 l-15 31 -20
-27 c-26 -36 -97 -77 -133 -77 -16 0 -36 -7 -46 -16 -28 -25 -43 -7 -21 24 13
19 18 38 14 65 -5 43 -19 47 -51 13 -14 -15 -29 -22 -45 -19 -23 5 -96 -33
-111 -57 -4 -6 -30 -22 -58 -35 -29 -13 -44 -24 -34 -24 23 -1 22 -14 -3 -36
-23 -21 -26 -41 -8 -48 19 -7 -4 -41 -29 -45 -22 -3 -68 49 -55 63 4 4 -5 1
-21 -6 -30 -14 -32 -20 -16 -36 9 -9 8 -18 -5 -37 -9 -15 -20 -26 -25 -26 -6
0 -5 -16 1 -36 5 -20 7 -47 4 -59 -10 -38 13 -47 70 -28 44 14 50 19 46 38 -3
16 3 27 18 35 19 10 26 8 49 -13 14 -14 44 -28 66 -32 l40 -6 -30 17 c-40 22
-40 21 -25 39 17 21 53 19 75 -5 10 -11 30 -20 45 -20 15 0 33 -7 40 -15 16
-19 29 -19 52 2 16 14 22 14 43 3 21 -11 27 -11 42 2 23 19 188 62 203 53 6
-4 32 2 58 13 62 27 178 38 226 22 27 -8 40 -9 50 -1 16 13 27 4 19 -15 -3 -8
-14 -14 -25 -14 -16 0 -19 -5 -16 -25 5 -23 2 -25 -34 -25 -25 0 -52 -9 -78
-26 -22 -15 -46 -24 -54 -21 -9 4 -25 -6 -40 -24 -20 -23 -24 -35 -16 -49 8
-14 5 -19 -13 -24 -12 -3 -53 -28 -90 -55 -58 -43 -71 -48 -87 -38 -28 17
-154 -25 -177 -59 -10 -15 -22 -23 -31 -19 -9 3 -21 -3 -29 -15 -8 -12 -21
-19 -29 -16 -25 9 -64 -15 -64 -40 0 -24 -21 -45 -28 -26 -5 15 -32 3 -32 -14
0 -8 10 -14 25 -14 14 0 25 -5 25 -10 0 -6 27 4 59 22 55 31 82 34 66 8 -3 -6
-34 -24 -67 -41 -56 -28 -59 -31 -44 -48 21 -23 23 -69 2 -52 -11 9 -29 4 -84
-24 -39 -19 -82 -35 -96 -35 -27 0 -35 -14 -15 -26 6 -3 9 -17 6 -31 -3 -18
-1 -23 9 -19 8 3 26 1 40 -5 26 -9 27 -11 22 -79 -5 -65 -4 -69 13 -59 30 16
89 78 89 94 0 8 11 22 25 31 22 14 32 15 65 5 72 -21 93 -91 44 -142 l-27 -28
66 -32 c62 -31 68 -32 106 -19 23 7 41 20 44 31 4 14 14 19 39 19 23 0 51 11
84 35 27 19 64 38 81 41 26 5 33 11 33 30 0 13 5 24 10 24 6 0 10 -4 10 -9 0
-5 15 -15 34 -21 31 -10 37 -9 60 15 27 27 46 32 46 13 0 -7 10 -1 21 15 36
47 98 76 200 91 52 8 109 20 127 27 18 6 35 9 39 6 11 -11 -11 -30 -64 -53
-29 -13 -56 -31 -59 -39 -4 -9 -33 -19 -79 -26 -68 -12 -75 -15 -106 -55 -19
-23 -50 -50 -69 -60 l-35 -17 33 -9 c35 -9 38 -16 20 -41 -11 -14 -19 -15 -47
-7 -37 10 -51 6 -51 -15 0 -8 -13 -21 -30 -30 -28 -15 -30 -14 -30 4 0 19 -1
19 -37 0 -21 -10 -44 -19 -53 -19 -19 0 -60 -28 -60 -41 0 -5 14 -9 30 -9 36
0 36 -1 8 -49 -23 -40 -49 -55 -113 -65 -22 -4 -53 -9 -70 -13 l-29 -6 37 -14
c41 -17 43 -20 23 -67 -15 -37 -61 -61 -101 -54 -20 4 -25 1 -25 -14 0 -13 4
-17 12 -11 12 7 25 9 93 14 11 1 35 -5 52 -12 31 -13 34 -12 67 20 27 26 40
32 66 29 30 -3 33 0 34 24 2 31 26 60 53 64 10 1 61 7 113 13 52 6 97 16 98
21 2 6 12 10 23 10 14 0 19 7 19 25 0 30 25 34 33 4 5 -17 9 -19 26 -10 28 16
51 14 51 -5 0 -13 6 -11 33 7 17 13 47 35 65 51 18 15 42 28 52 28 17 0 20 7
20 50 0 60 18 67 43 15 22 -46 60 -65 85 -42 32 29 42 21 42 -38 0 -53 -1 -55
-42 -79 -24 -14 -81 -39 -127 -56 -157 -57 -350 -173 -399 -238 l-25 -33 54
21 c119 47 221 94 263 120 24 16 65 32 90 35 45 7 46 7 46 -19 0 -22 -4 -26
-29 -26 -36 0 -151 -93 -151 -122 0 -14 -24 -30 -92 -63 -110 -52 -184 -100
-169 -109 6 -4 11 -21 11 -38 l0 -31 25 23 c23 22 26 22 43 7 17 -16 20 -14
55 21 20 21 37 43 37 49 0 7 16 17 35 24 19 7 35 19 35 26 0 23 33 14 56 -14
21 -27 23 -27 41 -10 11 9 34 17 51 17 28 0 32 4 32 25 0 32 26 44 44 20 11
-15 17 -16 55 -4 51 15 66 37 45 67 -18 26 -8 29 18 5 14 -12 21 -14 30 -5 16
16 48 -4 48 -31 0 -12 -7 -32 -15 -43 -18 -27 -10 -35 22 -23 32 12 38 7 22
-20 -17 -26 -7 -36 20 -21 18 9 21 8 21 -9 0 -11 -9 -22 -20 -26 -21 -7 -26
-20 -12 -29 5 -3 32 6 61 20 46 21 51 26 41 39 -17 21 -4 32 20 17 14 -9 20
-9 23 1 3 9 8 9 18 1 8 -5 26 -15 40 -21 25 -11 29 -9 58 32 17 24 34 57 37
74 8 37 24 41 24 7 0 -32 20 -38 49 -15 23 19 23 20 5 34 -10 8 -22 15 -26 15
-5 0 -8 14 -8 30 l0 30 51 -35 c52 -36 69 -42 69 -26 0 9 31 17 101 27 31 5
39 2 60 -23 20 -24 28 -28 42 -19 13 8 20 8 26 -2 6 -10 19 2 45 45 33 52 36
63 31 103 l-7 45 35 -40 c32 -37 37 -39 57 -27 19 12 25 11 45 -8 13 -12 29
-19 35 -15 6 4 17 0 23 -8 7 -9 24 -19 40 -23 24 -5 27 -3 27 19 0 14 7 33 16
42 13 12 14 19 4 30 -10 12 -10 18 0 30 7 8 10 25 6 40 -5 21 -3 25 15 25 12
0 27 -8 34 -17 12 -16 18 -16 59 -5 70 18 84 16 106 -20 21 -34 28 -32 10 3
-9 15 -5 30 17 68 23 42 25 52 14 65 -15 18 -44 21 -71 6 -26 -14 -58 16 -66
60 l-6 35 29 -34 c26 -29 33 -33 62 -26 20 4 37 2 46 -5 11 -9 15 -9 15 -1 0
22 29 11 50 -19 12 -17 28 -30 36 -30 20 0 18 8 -13 48 l-26 35 29 -7 c16 -4
37 -7 47 -7 9 0 17 -8 18 -17 0 -11 3 -12 6 -4 2 6 11 12 20 12 8 0 26 9 40
20 14 11 35 20 47 20 35 0 77 51 83 101 3 24 14 60 24 80 l18 37 -25 6 c-19 5
-24 11 -19 26 5 17 2 20 -24 20 -33 0 -36 5 -23 42 5 13 6 34 2 48 -5 21 -11
24 -40 22 -48 -3 -58 6 -52 50 l4 37 33 -24 c34 -27 71 -33 78 -12 3 9 8 9 17
1 8 -8 9 -14 1 -18 -13 -9 -15 -92 -2 -100 5 -3 25 1 45 9 39 16 122 20 130 6
3 -5 -8 -14 -24 -21 -21 -9 -30 -19 -30 -35 0 -13 -7 -26 -16 -29 -13 -5 -14
-9 -4 -21 7 -8 10 -22 6 -30 -4 -12 0 -14 20 -9 14 4 43 1 65 -6 38 -13 41
-12 68 14 23 22 45 30 117 41 49 8 94 15 99 15 6 0 2 7 -7 14 -24 18 -22 50 5
80 18 20 40 28 111 40 49 9 91 17 93 20 3 2 -9 15 -27 27 l-31 23 53 47 53 46
-11 52 c-6 29 -7 54 -3 57 13 7 39 -38 39 -68 0 -31 25 -38 60 -16 16 10 25 9
49 -5 45 -27 61 -22 61 17 0 45 16 56 101 68 87 13 109 31 109 90 0 24 7 49
17 60 14 15 14 18 1 18 -21 0 -98 58 -98 74 0 7 19 26 41 41 l42 27 23 -28
c17 -22 23 -25 24 -12 0 19 46 58 68 58 9 0 46 16 84 35 37 20 80 36 95 36 16
1 99 2 186 2 l159 2 20 28 c11 15 28 27 39 27 12 0 16 5 13 15 -5 11 1 15 22
15 34 -1 75 -27 58 -38 -6 -4 -13 -20 -16 -35 -5 -23 -3 -27 11 -21 9 5 37 8
62 9 43 0 49 3 83 48 35 46 36 50 21 68 -14 15 -15 24 -6 50 16 47 14 68 -14
100 -13 16 -22 36 -19 44 5 11 -1 15 -21 15 -26 0 -27 1 -12 18 12 13 15 28
11 53 -5 27 -1 38 17 54 l22 20 -6 -23 c-4 -12 -10 -31 -13 -41 -4 -14 2 -24
20 -36 18 -12 26 -26 26 -46 0 -21 14 -43 51 -81 55 -58 87 -108 68 -108 -8 0
-9 -13 -5 -42 4 -23 8 -44 10 -46 7 -6 94 58 100 74 10 26 7 52 -6 57 -16 5
37 85 67 101 11 6 25 18 32 26 9 12 14 13 25 2 10 -10 10 -16 0 -30 -69 -96
-68 -104 9 -84 78 19 116 8 187 -54 l53 -47 72 22 c40 11 82 21 95 21 15 0 22
6 22 20 0 25 5 25 47 -1 l35 -22 30 32 c36 39 56 25 32 -22 -17 -32 -17 -34
11 -39 16 -2 21 4 25 39 4 23 18 59 33 79 28 40 23 66 -12 57 -12 -3 -28 8
-50 33 -17 21 -31 44 -31 50 0 6 -20 25 -45 43 -34 24 -46 40 -51 68 -6 30
-13 38 -45 51 -22 8 -39 18 -39 22 0 15 60 71 69 65 6 -3 8 -19 5 -34 -7 -33
10 -49 31 -31 15 12 75 10 108 -5 17 -7 18 -4 12 39 -11 68 10 113 132 283
147 207 143 195 110 296 -15 46 -27 96 -27 113 0 36 24 88 83 184 45 72 47 77
47 152 0 87 23 145 85 208 32 33 82 145 116 258 l13 44 -39 32 -38 32 11 103
c18 151 15 198 -14 266 -14 33 -28 69 -31 80 -2 11 -19 64 -36 119 l-31 99 21
39 c15 27 18 40 10 43 -86 30 -133 51 -148 66 -25 25 -35 69 -18 80 11 6 9 13
-9 32 -30 32 -29 51 4 43 20 -5 40 3 94 39 l69 46 -28 61 c-25 53 -34 64 -67
75 -22 8 -45 20 -53 28 -13 13 -10 17 23 30 23 10 50 14 66 10 22 -5 31 -2 39
14 19 36 13 41 -48 41 -33 0 -62 4 -65 9 -7 10 34 28 87 37 50 8 67 27 67 72
-1 53 -19 78 -79 115 -30 18 -61 46 -70 62 -9 17 -26 43 -37 57 -36 46 -58
142 -59 258 0 82 4 112 18 138 14 25 15 32 4 32 -21 0 -47 34 -47 62 0 14 6
44 14 66 13 37 13 42 -3 56 -10 9 -31 16 -47 16 -42 0 -104 40 -125 80 -21 38
-26 144 -9 155 6 3 10 18 10 32 0 15 10 33 25 45 30 24 24 38 -16 38 -34 0
-37 10 -10 34 14 13 24 14 45 6 15 -5 38 -10 50 -10 13 0 31 -9 40 -19 22 -24
137 -71 174 -71 15 0 44 12 65 26 l38 25 -23 29 c-13 16 -29 29 -36 29 -7 1
-66 53 -131 116 l-118 115 -17 -25 c-18 -27 -45 -32 -64 -13 -9 9 -12 5 -12
-18 0 -65 -93 -106 -146 -65 l-26 21 -30 -25 c-24 -20 -40 -25 -87 -25 -45 0
-62 -4 -76 -20 -27 -30 -50 -24 -90 22 -26 31 -34 49 -30 63 4 11 9 43 11 70
3 28 14 71 26 96 27 61 16 96 -38 126 -48 28 -51 28 -59 3 -10 -31 -43 -24
-100 19 -44 33 -57 51 -80 108 -16 42 -39 78 -58 95 l-32 26 18 31 c16 28 16
33 2 68 -9 21 -27 49 -39 63 -13 14 -33 43 -44 65 -22 45 -50 73 -102 104 -55
33 -73 28 -120 -36 -57 -78 -109 -132 -143 -149 -15 -8 -25 -20 -21 -25 3 -6
-3 -24 -14 -39 l-21 -28 35 -37 c43 -46 71 -98 55 -103 -14 -5 -14 -29 0 -34
9 -3 9 -9 0 -25 -14 -27 -47 -38 -66 -23 -22 18 -72 -6 -91 -43 -9 -16 -16
-51 -16 -76 1 -61 -33 -122 -73 -135 -17 -5 -41 -14 -54 -20 -20 -9 -26 -8
-39 12 -8 12 -22 22 -32 22 -9 0 -32 5 -49 11 -25 9 -31 16 -28 30 9 35 -29
21 -57 -21 -26 -40 -49 -50 -62 -29 -4 7 -21 9 -44 5 -24 -4 -43 -1 -56 9 -10
8 -29 15 -41 15 -24 0 -63 43 -63 70 0 22 -17 36 -53 45 -17 5 -29 16 -33 30
-5 20 -16 25 -76 35 -62 11 -74 10 -102 -5 -64 -35 -102 17 -113 155 l-6 79
-51 15 c-60 18 -87 43 -116 109 -16 37 -26 47 -45 47 -16 0 -42 21 -88 73 -90
101 -139 168 -133 182 2 7 -8 18 -22 25 -31 14 -30 15 69 44 84 24 120 53 156
126 38 75 62 91 101 68 36 -21 131 -38 156 -28 26 10 59 46 79 85 16 32 50 60
112 93 61 32 66 37 59 55 -5 15 -8 15 -31 -3 -33 -26 -38 -26 -95 11 -37 24
-52 29 -61 20 -19 -19 -46 -12 -61 18 -9 16 -24 31 -35 34 -26 6 -48 44 -54
93 -4 39 -3 42 22 48 15 3 38 22 55 45 16 22 36 43 44 46 8 3 38 -10 66 -30
28 -19 57 -35 63 -35 7 0 34 13 60 29 27 16 72 39 102 51 46 18 61 19 109 10
30 -5 57 -8 59 -6 2 2 -1 15 -7 30 -23 62 -14 85 64 166 85 87 95 115 77 210
-15 75 -8 100 34 128 34 22 35 23 35 93 0 78 14 115 63 167 24 25 39 32 68 32
21 0 41 5 44 10 5 8 11 7 21 -1 11 -9 14 -7 14 9 0 12 9 26 20 32 12 6 41 44
67 83 25 40 57 85 72 101 30 33 198 146 216 146 7 0 23 8 36 18 13 10 43 26
67 37 49 21 73 49 65 74 -10 27 -35 41 -76 41 -24 0 -51 8 -70 22 -18 13 -38
22 -45 20 -7 -2 -40 11 -73 29 -60 32 -110 84 -123 127 -9 29 -148 100 -220
112 -28 5 -61 12 -73 16 -13 3 -23 4 -23 1z"/>
<path d="M2324 7296 c-43 -20 -52 -29 -58 -57 -4 -20 -2 -35 4 -37 5 -2 10
-12 10 -22 0 -10 7 -20 15 -24 23 -9 18 -25 -20 -59 -29 -25 -35 -38 -35 -70
0 -39 0 -39 31 -33 17 3 36 6 41 6 5 0 8 12 6 28 -2 22 1 27 17 25 40 -5 48 5
27 32 l-20 26 24 26 c23 25 25 25 38 8 13 -18 14 -18 25 1 11 19 11 19 26 0 9
-12 15 -15 15 -7 0 8 8 11 20 8 14 -4 23 3 35 26 21 43 19 53 -15 67 -16 7
-51 28 -77 46 -27 19 -50 34 -53 33 -3 0 -28 -11 -56 -23z"/>
<path d="M2214 6913 c-9 -20 -18 -51 -21 -69 -5 -29 -2 -34 27 -49 55 -28 80
-2 39 41 -24 25 -19 60 6 50 17 -6 19 3 5 38 -14 37 -38 32 -56 -11z"/>
<path d="M2251 6569 c-21 -28 -27 -31 -65 -26 -22 3 -48 8 -57 11 -22 10 -85
-70 -69 -88 12 -15 80 -11 114 6 14 8 21 6 28 -6 8 -15 12 -15 35 4 19 15 30
17 44 10 26 -15 50 -52 40 -64 -12 -15 -23 -81 -15 -89 4 -4 12 1 19 10 17 23
43 10 60 -29 7 -18 25 -44 40 -58 22 -21 28 -22 36 -10 5 8 7 27 5 42 -3 14 1
39 8 55 8 15 16 43 20 62 5 27 3 32 -9 27 -8 -3 -22 -9 -30 -12 -12 -5 -15 4
-15 48 0 48 3 55 25 64 l24 9 -27 33 -27 32 -43 -21 -43 -22 -23 22 c-31 29
-48 26 -75 -10z"/>
<path d="M2368 6044 c-27 -13 -48 -29 -48 -34 0 -17 111 -12 131 6 18 16 17
17 -5 35 -29 23 -21 23 -78 -7z"/>
<path d="M2130 5310 c0 -5 5 -10 10 -10 6 0 10 5 10 10 0 6 -4 10 -10 10 -5 0
-10 -4 -10 -10z"/>
<path d="M2862 4627 c-26 -15 -30 -22 -21 -33 6 -8 8 -21 5 -30 -10 -25 12
-44 50 -44 l34 0 0 55 c0 68 -18 82 -68 52z"/>
<path d="M3760 4320 c-9 -6 -10 -10 -3 -10 6 0 15 5 18 10 8 12 4 12 -15 0z"/>
<path d="M2691 4303 c-19 -4 -8 -11 52 -38 42 -18 101 -46 131 -64 69 -39 77
-39 41 -1 -23 24 -26 32 -16 44 19 22 -59 44 -100 29 -27 -11 -31 -9 -41 13
-11 24 -19 26 -67 17z"/>
<path d="M3006 4155 c-21 -32 -20 -45 2 -45 23 0 52 30 52 53 0 26 -35 20 -54
-8z"/>
<path d="M3100 4075 c0 -8 6 -15 14 -15 7 0 19 7 26 15 11 13 8 15 -14 15 -16
0 -26 -5 -26 -15z"/>
<path d="M1773 1149 c-24 -17 -43 -38 -43 -49 0 -16 8 -15 83 17 45 19 89 41
97 49 12 12 7 14 -40 14 -45 -1 -63 -7 -97 -31z"/>
</g>
</svg>
