<?xml version="1.0" standalone="no"?>
<!DOCTYPE svg PUBLIC "-//W3C//DTD SVG 20010904//EN"
 "http://www.w3.org/TR/2001/REC-SVG-20010904/DTD/svg10.dtd">
<svg version="1.0" xmlns="http://www.w3.org/2000/svg"
 width="1024.000000pt" height="1024.000000pt" viewBox="0 0 1024.000000 1024.000000"
 preserveAspectRatio="xMidYMid meet">
<metadata>
Created by potrace 1.10, written by Peter Selinger 2001-2011
</metadata>
<g transform="translate(0.000000,1024.000000) scale(0.100000,-0.100000)"
fill="#000000" stroke="none">
<path d="M868 9775 c-96 -30 -152 -53 -186 -78 -34 -24 -57 -34 -71 -30 -30 8
-123 -78 -136 -125 -10 -36 -12 -37 -80 -49 -39 -6 -116 -28 -173 -47 -84 -29
-114 -45 -163 -87 l-59 -51 0 -78 0 -78 57 -34 58 -34 35 -100 34 -101 -26
-31 c-23 -28 -25 -35 -17 -79 13 -68 14 -70 58 -93 48 -24 67 -25 138 -4 36
10 67 13 91 9 21 -5 79 -7 131 -6 l94 3 184 188 c168 173 187 189 212 184 34
-7 104 26 216 103 89 61 107 79 171 173 37 54 44 73 44 112 0 44 -1 47 -32 54
-18 3 -59 27 -90 51 -56 44 -57 46 -60 100 l-3 55 -50 20 c-27 11 -93 37 -145
57 l-95 38 -137 -42z"/>
<path d="M1595 8685 l-49 -35 -33 32 -33 32 -54 -53 c-30 -29 -58 -67 -63 -85
-5 -17 -14 -30 -19 -30 -5 1 -47 5 -94 8 l-85 7 -18 -44 c-15 -36 -26 -48 -66
-67 -45 -21 -49 -26 -53 -63 -4 -37 -1 -41 29 -53 25 -11 34 -22 39 -49 8 -44
14 -47 52 -34 29 10 35 7 90 -39 47 -38 72 -51 120 -62 59 -12 65 -12 119 13
81 35 117 44 202 51 47 4 95 16 132 32 54 25 57 28 66 74 7 36 6 54 -4 75 -8
15 -12 38 -8 54 5 26 3 29 -26 35 -17 3 -51 6 -75 6 l-43 0 -16 55 c-14 49
-14 58 -1 84 14 26 14 30 -7 48 -51 45 -50 44 -102 8z"/>
<path d="M9234 8439 c-16 -10 -45 -19 -65 -19 -30 0 -47 -10 -104 -62 l-67
-62 4 -80 c3 -66 8 -88 29 -121 23 -36 25 -43 13 -70 -8 -16 -13 -50 -12 -74
2 -38 -2 -47 -30 -71 -18 -14 -32 -30 -32 -33 0 -4 24 -7 53 -8 28 0 74 -6
102 -12 44 -11 51 -16 63 -49 14 -36 13 -38 -17 -76 l-31 -40 47 -43 47 -43 3
-80 c3 -45 6 -86 8 -93 3 -8 27 -4 82 13 42 14 79 27 81 29 2 2 -6 25 -16 52
-11 26 -23 62 -26 80 -4 27 -2 32 17 35 17 2 23 11 25 35 2 20 13 40 28 52 13
10 24 26 24 35 0 8 -18 60 -40 115 -21 55 -46 128 -54 163 l-15 63 26 21 26
20 -26 90 c-22 77 -25 96 -16 129 11 38 10 40 -27 73 -60 51 -67 53 -100 31z"/>
<path d="M2152 8189 c-21 -48 -21 -52 -4 -73 9 -13 43 -34 76 -47 41 -16 64
-32 75 -52 35 -62 29 -60 140 -52 98 7 102 8 116 36 8 15 15 30 15 33 0 11
-69 26 -121 26 -51 0 -58 3 -64 23 -4 12 -20 36 -35 52 -16 17 -30 39 -32 49
-2 14 -20 24 -68 38 -36 10 -68 18 -71 18 -4 0 -16 -23 -27 -51z"/>
<path d="M3821 7759 c-19 -16 -37 -19 -82 -18 -56 2 -60 0 -103 -39 -25 -23
-54 -42 -65 -42 -32 0 -46 -68 -29 -138 l13 -54 109 -68 108 -68 59 -109 c40
-75 60 -124 65 -161 6 -48 10 -55 40 -70 31 -14 35 -14 53 2 16 15 18 23 9 53
-8 30 -6 38 10 57 11 11 46 72 77 134 l56 112 38 0 c26 0 49 9 77 30 36 27 45
29 124 30 l85 0 115 -66 c138 -79 172 -86 365 -78 175 8 197 22 160 94 -12 24
-22 30 -48 30 -26 0 -43 11 -86 54 -38 39 -70 60 -112 75 -54 20 -65 21 -170
10 -107 -10 -113 -10 -140 10 -74 55 -101 67 -181 85 l-87 18 -34 -21 c-29
-18 -40 -19 -62 -11 -23 9 -32 7 -50 -10 -12 -11 -26 -20 -31 -20 -15 0 -71
61 -107 116 -29 45 -36 49 -75 52 -26 2 -45 9 -49 18 -7 19 -23 17 -52 -7z"/>
<path d="M2550 7691 c0 -46 1 -49 31 -55 60 -12 62 -8 22 49 -21 30 -41 55
-45 55 -5 0 -8 -22 -8 -49z"/>
<path d="M2885 7540 c-15 -16 -17 -26 -9 -48 14 -41 47 -40 73 1 11 19 21 37
21 40 0 4 -55 27 -65 27 -1 0 -10 -9 -20 -20z"/>
<path d="M9720 5991 l-22 -48 -76 -11 c-140 -22 -173 -18 -261 33 -43 25 -83
45 -88 45 -6 0 -15 -18 -21 -39 -7 -32 -6 -42 6 -55 14 -13 13 -17 -1 -40 -22
-33 -22 -40 9 -113 23 -54 26 -70 20 -126 l-7 -65 -67 -45 c-49 -33 -76 -59
-101 -100 l-33 -56 21 -98 c12 -53 23 -98 24 -99 29 -24 118 -67 172 -83 53
-15 80 -30 105 -57 l35 -36 110 6 c87 5 120 3 154 -9 24 -8 45 -14 46 -13 2 2
16 28 33 58 30 52 38 59 174 134 232 129 248 140 248 178 0 18 9 41 21 54 21
22 21 23 5 145 l-16 123 -59 61 c-47 48 -60 68 -64 100 -3 22 -10 52 -16 68
-10 24 -15 27 -61 27 -41 0 -70 10 -159 54 l-108 55 -23 -48z"/>
<path d="M6068 2493 c-40 -41 -47 -54 -49 -93 -4 -63 28 -153 67 -191 30 -29
31 -33 22 -67 -6 -20 -21 -50 -34 -67 -17 -22 -24 -45 -24 -76 -1 -24 -9 -59
-19 -77 -14 -28 -16 -42 -8 -87 14 -76 -3 -190 -36 -241 -14 -22 -28 -62 -31
-91 l-7 -53 43 -21 c33 -16 48 -31 64 -68 20 -44 23 -47 55 -44 30 3 38 -2 71
-45 l37 -49 -31 -31 -31 -30 73 -85 73 -84 156 -65 c138 -58 172 -68 299 -88
138 -22 294 -24 343 -5 12 4 19 24 24 63 5 46 14 66 46 104 34 41 38 50 29 73
-15 39 -14 41 38 60 26 10 50 21 55 24 8 8 -11 80 -45 174 -19 53 -23 57 -52
57 -28 0 -37 9 -87 83 -42 61 -58 95 -63 132 -11 79 -14 83 -67 100 -38 13
-56 26 -80 61 -29 43 -32 44 -82 44 l-53 0 -83 146 -83 145 -38 -2 c-32 -3
-50 5 -108 44 -38 27 -86 70 -106 97 l-38 50 11 62 11 61 -45 48 c-25 27 -47
50 -50 51 -2 2 -15 -12 -29 -30 l-24 -33 -32 45 c-17 25 -32 46 -33 46 -2 0
-24 -21 -49 -47z"/>
<path d="M8206 2468 c-22 -34 -46 -85 -54 -115 -14 -49 -18 -54 -53 -63 -34
-9 -37 -13 -41 -51 -2 -28 0 -43 9 -45 7 -2 20 -6 28 -9 11 -3 15 -19 15 -54
0 -40 -4 -53 -24 -68 -30 -23 -57 -160 -49 -246 5 -56 7 -59 47 -79 22 -11 57
-35 76 -53 33 -31 41 -34 120 -40 l85 -6 121 107 120 106 -14 122 c-7 66 -24
153 -36 192 -21 64 -22 73 -9 99 14 27 13 32 -18 91 -19 35 -39 64 -45 64 -6
0 -28 -7 -47 -15 -20 -8 -40 -15 -45 -15 -4 0 -20 25 -35 55 -15 30 -30 55
-35 55 -4 0 -15 -12 -24 -27 l-16 -27 -13 42 c-7 23 -15 42 -18 41 -3 0 -24
-28 -45 -61z"/>
<path d="M3684 1386 c-33 -12 -74 -31 -90 -43 -16 -11 -64 -33 -108 -48 -71
-26 -83 -34 -127 -89 -59 -74 -104 -184 -132 -324 l-21 -103 102 -102 c98 -98
107 -104 221 -154 86 -39 131 -53 163 -53 63 0 176 54 261 123 37 31 76 59 87
62 19 6 20 15 20 143 0 170 -13 279 -47 385 -23 75 -31 87 -86 137 -54 50
-127 88 -167 89 -8 0 -42 -10 -76 -23z"/>
<path d="M2485 800 c-20 -13 -47 -20 -82 -20 -55 0 -54 1 -68 -67 -4 -22 -13
-33 -28 -35 -18 -3 -24 -14 -36 -76 -7 -40 -11 -75 -8 -79 4 -3 24 -1 47 5
l40 10 38 -54 c20 -30 41 -54 46 -54 4 0 21 11 37 24 17 14 49 28 75 32 l47 7
-7 75 c-3 41 -6 108 -6 148 0 71 -1 74 -30 89 -35 18 -29 19 -65 -5z"/>
</g>
</svg>
