<?xml version="1.0" standalone="no"?>
<!DOCTYPE svg PUBLIC "-//W3C//DTD SVG 20010904//EN"
 "http://www.w3.org/TR/2001/REC-SVG-20010904/DTD/svg10.dtd">
<svg version="1.0" xmlns="http://www.w3.org/2000/svg"
 width="1024.000000pt" height="1024.000000pt" viewBox="0 0 1024.000000 1024.000000"
 preserveAspectRatio="xMidYMid meet">
<metadata>
Created by potrace 1.10, written by Peter Selinger 2001-2011
</metadata>
<g transform="translate(0.000000,1024.000000) scale(0.100000,-0.100000)"
fill="#000000" stroke="none">
<path d="M4705 10211 c-27 -16 -61 -41 -74 -55 -24 -26 -24 -26 -5 -41 31 -24
59 -15 59 20 0 38 20 36 79 -6 30 -23 48 -29 68 -25 15 3 30 0 34 -6 5 -7 37
-9 100 -5 83 5 95 3 116 -15 18 -16 32 -19 67 -14 47 6 83 -9 149 -66 58 -50
113 -80 135 -74 12 3 25 -1 32 -11 11 -14 14 -14 39 2 l27 18 -27 28 c-15 15
-41 31 -58 35 -17 4 -56 31 -91 64 -104 98 -180 140 -254 140 -21 0 -41 4 -46
9 -8 7 -233 32 -285 31 -8 0 -37 -13 -65 -29z"/>
<path d="M4566 10089 c-39 -31 -33 -64 10 -53 15 4 20 14 21 40 1 19 0 34 -2
34 -1 0 -14 -9 -29 -21z"/>
<path d="M4435 9920 c-3 -6 6 -15 20 -20 48 -18 70 -9 43 18 -15 15 -54 16
-63 2z"/>
<path d="M5745 9862 c-12 -12 -3 -40 19 -61 18 -17 25 -19 29 -9 4 9 6 8 6 -4
1 -25 21 -32 35 -13 12 16 16 16 68 0 55 -18 121 -14 102 5 -13 13 -252 89
-259 82z"/>
<path d="M6200 9701 c-17 -34 -12 -61 11 -61 31 0 109 -41 121 -64 6 -10 8
-40 5 -65 -6 -53 6 -81 34 -81 43 0 54 127 16 195 -44 78 -160 126 -187 76z"/>
<path d="M6451 9281 c-37 -10 -38 -31 -2 -31 29 0 31 -2 25 -27 -4 -16 -14
-34 -23 -41 -14 -12 -14 -13 2 -8 10 3 27 6 38 6 11 0 19 7 19 18 0 27 -20 92
-28 91 -4 -1 -18 -4 -31 -8z"/>
<path d="M6472 9131 c-11 -6 -10 -11 3 -25 9 -9 24 -16 33 -17 11 0 12 -2 5
-6 -20 -8 -15 -23 7 -23 26 0 34 19 21 53 -11 28 -42 36 -69 18z"/>
<path d="M6540 8900 c0 -5 14 -10 30 -10 17 0 30 5 30 10 0 6 -13 10 -30 10
-16 0 -30 -4 -30 -10z"/>
<path d="M6579 8801 l-24 -19 28 -11 c35 -14 47 -7 47 25 0 29 -19 31 -51 5z"/>
<path d="M6580 8730 c-9 -16 -8 -21 4 -26 26 -10 51 0 51 21 0 28 -40 32 -55
5z"/>
<path d="M6606 8579 c-31 -25 -30 -41 5 -49 28 -7 48 13 49 48 0 28 -19 28
-54 1z"/>
<path d="M6638 8443 c-27 -7 -22 -23 7 -23 16 0 25 6 25 15 0 15 -2 16 -32 8z"/>
<path d="M6640 8375 l-35 -13 28 -7 c35 -9 34 -30 -4 -66 l-31 -29 42 0 c36 0
41 -2 30 -15 -15 -18 -5 -35 21 -35 18 0 19 5 14 68 -8 84 -13 112 -23 111 -4
0 -23 -6 -42 -14z"/>
<path d="M6645 8169 c-4 -5 0 -18 9 -28 12 -13 13 -20 4 -29 -9 -9 -8 -12 4
-12 8 0 21 -7 28 -15 10 -12 8 -16 -11 -24 -24 -8 -24 -8 11 -30 19 -11 39
-21 44 -21 10 0 3 55 -15 123 -11 42 -15 47 -40 47 -15 0 -31 -5 -34 -11z"/>
<path d="M6685 7991 c-8 -14 72 -271 92 -292 8 -9 29 -48 47 -87 26 -53 40
-71 60 -76 14 -3 26 -11 26 -17 0 -6 24 -39 54 -73 30 -34 58 -74 61 -89 4
-16 25 -42 45 -59 21 -16 44 -43 50 -59 7 -16 18 -29 24 -29 18 0 109 -100
131 -144 11 -21 29 -42 41 -46 12 -5 31 -21 43 -37 24 -32 24 -32 74 -74 28
-23 37 -38 35 -58 -3 -35 9 -53 30 -47 11 4 26 -7 42 -30 14 -19 37 -41 53
-50 15 -8 27 -19 27 -24 0 -5 34 -48 74 -95 41 -47 83 -99 93 -115 9 -17 20
-30 24 -30 18 0 130 -87 227 -175 87 -80 112 -108 122 -141 8 -27 22 -47 41
-58 29 -17 29 -17 29 6 0 13 3 32 6 44 4 14 -5 33 -30 62 -19 24 -37 50 -40
60 -3 10 -20 26 -37 36 -61 36 -303 267 -330 314 -14 26 -60 83 -102 127 -42
44 -86 96 -99 116 -13 20 -37 46 -55 58 -39 25 -423 446 -503 551 -31 41 -65
82 -75 90 -9 7 -30 41 -47 74 -17 34 -41 75 -53 91 -13 17 -26 41 -30 55 -4
14 -18 51 -31 82 -13 32 -24 68 -24 81 0 13 -6 30 -12 39 -16 20 -74 33 -83
19z"/>
<path d="M5625 7239 c-7 -32 -52 -81 -126 -138 -47 -35 -63 -37 -202 -15 -37
6 -37 6 -27 -21 15 -41 12 -61 -15 -94 -14 -16 -33 -50 -41 -74 -18 -53 -82
-107 -129 -107 -50 0 -62 -17 -68 -93 -4 -57 -11 -77 -42 -124 -20 -30 -45
-58 -56 -60 -10 -3 -19 -11 -19 -18 0 -7 -10 -20 -22 -28 -18 -13 -20 -18 -10
-25 23 -16 -13 -86 -54 -105 -43 -21 -133 -22 -179 -3 -31 13 -35 19 -35 51 0
25 -5 37 -17 41 -10 3 -44 17 -75 32 -56 25 -58 27 -58 64 0 28 -5 40 -17 45
-10 3 -38 14 -62 26 -36 16 -45 18 -52 6 -5 -8 -6 -23 -3 -34 15 -49 15 -97 0
-129 -9 -19 -16 -40 -16 -47 0 -7 -8 -21 -17 -31 -13 -15 -15 -23 -6 -36 21
-34 24 -77 8 -115 -12 -28 -13 -42 -5 -57 9 -16 7 -27 -11 -51 -43 -61 -129
-75 -237 -38 -56 19 -62 23 -55 43 19 57 -6 113 -67 144 -24 12 -57 22 -73 22
-20 0 -39 10 -58 31 -16 18 -32 29 -35 26 -13 -13 20 -95 52 -127 18 -20 37
-50 40 -69 5 -23 17 -39 40 -53 38 -22 42 -31 59 -124 14 -80 36 -121 67 -126
14 -2 25 -18 38 -58 28 -88 32 -112 19 -120 -9 -6 -7 -14 5 -31 20 -29 21
-107 2 -153 -19 -45 -84 -116 -106 -116 -10 0 -39 -9 -65 -20 -46 -20 -121
-26 -140 -12 -6 4 -18 19 -28 34 -10 16 -33 32 -57 39 -22 7 -47 23 -55 36
-19 28 -31 29 -38 4 -5 -22 -83 -51 -136 -51 -20 0 -64 10 -98 22 -48 17 -75
35 -124 84 l-61 62 -2 65 c-1 61 -3 66 -26 72 -28 7 -39 21 -40 50 -1 11 -7
34 -14 50 l-14 30 -11 -27 c-6 -16 -16 -28 -22 -28 -6 0 -9 -7 -5 -15 3 -9 0
-15 -9 -15 -18 0 -19 -12 -2 -29 10 -10 6 -17 -18 -37 -16 -13 -40 -24 -53
-24 -31 0 -82 27 -82 45 0 22 -28 44 -49 38 -10 -3 -22 0 -25 6 -13 21 -41 10
-57 -22 -8 -17 -25 -36 -37 -42 -19 -8 -21 -15 -16 -45 7 -37 29 -73 62 -103
18 -16 19 -23 9 -44 -10 -22 -8 -28 8 -42 11 -9 25 -29 30 -46 9 -24 16 -30
40 -30 17 0 35 -3 42 -8 6 -4 17 -5 25 -2 7 3 20 -8 30 -25 15 -25 23 -30 57
-30 28 0 44 -6 54 -20 7 -10 35 -28 61 -40 45 -19 156 -118 156 -139 0 -5 7
-14 15 -21 8 -7 15 -22 15 -33 0 -32 32 -137 41 -137 5 0 29 -16 55 -35 25
-19 54 -35 64 -35 10 0 32 -11 48 -25 17 -14 34 -25 40 -25 6 0 39 -13 74 -30
34 -16 71 -30 82 -30 10 0 35 -10 55 -22 28 -18 47 -22 91 -19 30 1 60 7 67
13 6 5 28 6 47 2 23 -4 42 -2 50 5 10 8 59 11 153 10 212 -3 220 -3 233 21 6
11 19 20 29 20 10 0 24 6 30 14 6 8 24 16 39 19 105 20 163 78 166 168 1 46
-1 51 -44 89 -28 24 -55 39 -72 40 -17 0 -29 7 -33 19 -3 10 -14 26 -25 36
-11 10 -20 29 -20 43 0 13 -10 32 -22 42 -13 10 -34 49 -47 88 -21 60 -23 75
-13 97 11 24 10 27 -8 32 -24 7 -24 5 0 53 11 22 20 54 20 72 0 20 9 41 25 58
14 15 35 46 48 71 17 34 27 43 44 42 15 -2 31 9 49 33 15 19 41 42 58 51 17 9
34 21 38 27 4 6 35 46 69 88 61 76 109 108 143 95 18 -7 31 3 50 40 9 18 29
41 44 50 15 10 31 24 35 31 5 7 23 26 40 40 17 15 54 48 82 73 27 26 65 50 82
54 24 5 51 28 102 85 38 43 70 82 72 87 2 6 16 16 30 24 15 8 50 27 79 42 37
21 56 25 63 18 6 -6 30 -11 54 -11 35 0 56 -9 115 -50 64 -43 75 -47 87 -35
13 13 12 18 -7 38 -26 27 -29 77 -8 152 17 63 67 164 95 189 12 11 21 25 21
33 0 16 -2 16 -33 2 -19 -9 -31 -7 -55 5 -17 9 -44 16 -60 16 -39 0 -58 17
-82 73 -21 50 -26 96 -12 113 10 12 3 174 -8 174 -5 0 -11 -14 -15 -31z"/>
<path d="M8274 6036 c-27 -23 -27 -24 -12 -48 15 -23 24 -26 105 -30 78 -4 93
-8 133 -35 57 -39 100 -79 100 -93 0 -5 6 -10 14 -10 8 0 23 -11 33 -25 20
-27 302 -192 343 -201 14 -3 45 -10 68 -16 36 -9 46 -8 53 3 15 24 10 37 -18
42 -74 14 -123 31 -178 61 -126 69 -160 91 -175 110 -8 12 -25 30 -39 41 -13
11 -47 41 -75 66 -93 83 -235 159 -298 159 -15 0 -39 -11 -54 -24z"/>
<path d="M9183 5603 c-20 -3 -37 -12 -44 -24 -6 -12 -9 -22 -7 -23 2 -1 19
-10 38 -19 32 -15 35 -15 38 0 3 12 12 14 45 9 49 -8 61 -17 77 -56 7 -17 18
-30 25 -30 7 0 18 -7 25 -15 29 -35 53 31 31 88 -7 19 -27 30 -90 50 -44 15
-86 26 -93 25 -7 0 -28 -3 -45 -5z"/>
<path d="M7237 5313 c-3 -4 -8 -30 -12 -58 -9 -60 -45 -135 -74 -152 -11 -7
-29 -30 -40 -50 -10 -21 -36 -48 -58 -61 -173 -104 -169 -103 -261 -109 -48
-3 -100 -12 -117 -21 -49 -24 -175 -105 -175 -112 0 -11 -114 -97 -153 -116
-37 -18 -50 -44 -22 -44 9 0 28 -8 42 -17 20 -13 57 -20 137 -24 61 -4 135
-13 164 -20 67 -17 79 -10 115 64 18 36 46 71 79 99 29 24 86 75 127 114 51
47 97 81 138 99 60 27 65 27 139 16 41 -6 84 -16 94 -21 10 -6 21 -10 24 -10
2 0 3 34 1 76 -2 62 -9 87 -37 141 -18 36 -42 72 -53 79 -14 10 -21 30 -25 71
-4 51 -20 77 -33 56z"/>
<path d="M1904 4874 c3 -9 6 -29 6 -45 0 -18 5 -29 13 -29 8 0 19 -11 25 -25
7 -14 19 -28 27 -31 9 -4 15 -19 15 -39 0 -26 -10 -44 -47 -82 -27 -26 -52
-57 -58 -67 -11 -21 -23 -28 -76 -45 -67 -21 -84 -15 -124 39 -20 28 -41 50
-45 50 -5 0 -18 10 -29 21 -15 16 -27 20 -45 15 -34 -8 -38 -44 -10 -100 8
-16 14 -35 14 -42 0 -23 -37 -25 -74 -4 -40 24 -76 19 -76 -10 0 -24 44 -58
86 -66 42 -8 84 -46 84 -76 -1 -33 -25 -96 -46 -120 -10 -11 -39 -33 -64 -50
l-45 -30 -78 11 c-94 13 -117 24 -117 56 0 21 -5 25 -29 25 -16 0 -34 7 -41
15 -18 22 -39 18 -50 -10 -5 -13 -27 -36 -50 -51 -32 -21 -38 -30 -29 -40 6
-8 16 -14 21 -14 6 0 22 -13 38 -30 20 -21 26 -36 22 -55 -5 -27 -46 -55 -80
-55 -52 0 -161 -77 -145 -103 3 -4 -1 -14 -7 -22 -9 -11 -9 -23 0 -49 15 -48
5 -73 -36 -91 -35 -15 -44 -41 -22 -63 17 -17 38 -15 38 4 0 11 6 15 20 11 10
-3 27 1 37 8 10 8 27 12 38 9 13 -3 28 3 39 15 11 12 29 21 41 21 13 0 30 11
38 24 18 27 66 43 77 25 9 -14 70 -8 136 14 29 10 71 -7 79 -32 8 -27 25 -27
32 -1 3 11 12 20 19 20 8 0 14 10 14 25 0 29 0 29 35 13 20 -9 31 -8 50 2 23
12 80 11 189 -6 27 -5 41 -2 47 7 12 20 71 12 124 -17 71 -37 90 -33 120 25
26 52 57 81 87 81 9 0 20 9 23 21 4 11 18 25 31 31 27 13 32 33 9 42 -8 3 -15
13 -15 22 0 9 -13 31 -28 49 -28 31 -29 34 -26 142 1 63 7 121 14 134 21 41
63 79 86 79 12 0 27 6 33 14 14 16 4 46 -14 46 -22 0 -45 29 -45 56 0 13 11
42 25 63 13 22 27 51 31 65 3 14 12 30 20 37 22 18 17 37 -15 54 -17 8 -36 23
-43 33 -15 19 -118 92 -132 92 -5 0 -14 -6 -20 -14 -6 -8 -21 -17 -32 -20 -16
-5 -23 -2 -27 14 -4 15 -13 20 -37 20 -25 0 -31 -3 -26 -16z"/>
<path d="M8841 4224 c-10 -22 -8 -31 8 -57 13 -21 18 -42 14 -62 -4 -24 -3
-28 7 -18 12 11 14 31 10 97 -2 17 4 34 14 41 19 14 11 25 -19 25 -14 0 -26
-10 -34 -26z"/>
<path d="M1835 3662 c-3 -3 -5 -12 -5 -20 0 -24 -40 -72 -60 -72 -10 0 -27
-13 -36 -29 -10 -16 -27 -34 -38 -39 -19 -8 -20 -16 -17 -90 3 -80 2 -82 -23
-92 -36 -13 -43 -37 -18 -61 25 -23 41 -24 69 -4 21 15 24 13 57 -22 21 -23
36 -48 36 -64 0 -14 6 -34 14 -45 15 -19 15 -19 30 1 10 13 13 31 10 52 -5 28
-3 32 26 38 27 6 31 11 27 31 -2 14 0 27 5 30 5 3 20 24 35 47 24 38 25 45 17
116 -4 42 -8 90 -9 106 -2 47 -25 115 -38 116 -7 0 -26 2 -44 3 -18 2 -35 1
-38 -2z"/>
<path d="M8796 3541 c-3 -4 -8 -33 -12 -64 -6 -48 -3 -60 16 -89 13 -18 24
-34 24 -34 1 -1 11 -5 24 -8 21 -7 22 -5 22 52 0 92 -48 185 -74 143z"/>
<path d="M6213 3103 c-20 -13 -23 -24 -23 -80 0 -60 1 -64 22 -61 16 2 26 16
39 53 33 95 19 128 -38 88z"/>
<path d="M6284 2832 c-15 -48 -24 -60 -51 -65 -41 -8 -67 -91 -58 -182 9 -77
37 -110 111 -129 41 -10 53 -19 76 -57 64 -104 74 -169 37 -245 -16 -34 -32
-49 -75 -70 -30 -14 -54 -30 -54 -35 0 -5 22 -9 49 -9 41 0 51 4 56 20 3 11
17 23 31 26 13 3 24 12 24 20 0 18 40 44 70 44 42 0 98 20 104 37 4 9 -1 24
-9 33 -14 16 -15 22 -1 53 8 20 26 46 40 58 17 15 26 33 26 53 0 17 17 64 37
104 33 63 41 72 65 72 32 0 38 22 13 46 -38 39 4 115 86 157 30 15 66 27 81
27 33 0 58 9 58 21 0 5 -6 9 -13 9 -8 0 -27 6 -43 14 -36 18 -78 10 -214 -39
-79 -28 -106 -28 -142 3 -46 40 -59 43 -186 47 -99 3 -114 1 -118 -13z"/>
<path d="M6038 2009 c-23 -13 -23 -29 0 -29 10 0 27 -7 38 -15 10 -8 25 -15
32 -15 15 0 82 51 82 63 0 11 -132 8 -152 -4z"/>
<path d="M8655 1650 c-38 -21 -80 -39 -93 -40 -12 0 -38 -15 -57 -34 -18 -19
-52 -44 -74 -57 -33 -18 -38 -25 -30 -40 9 -17 13 -16 58 16 27 19 55 35 63
35 8 0 23 9 33 20 10 11 27 20 37 20 42 0 148 76 148 107 0 19 -8 17 -85 -27z"/>
<path d="M4090 1522 c0 -16 25 -32 50 -32 24 0 24 1 -8 20 -36 22 -42 24 -42
12z"/>
<path d="M4184 1326 c4 -21 2 -37 -4 -41 -6 -4 -10 -15 -8 -24 2 -10 -3 -25
-11 -34 -12 -15 -9 -17 32 -17 37 0 53 -6 80 -30 19 -16 39 -30 44 -30 15 0
90 -83 98 -109 11 -37 46 -91 55 -86 5 3 -3 33 -17 67 -16 40 -23 72 -19 90 5
26 4 28 -30 28 -50 0 -88 25 -112 76 -12 24 -37 61 -57 82 -19 22 -35 45 -35
51 0 6 -5 11 -11 11 -7 0 -9 -12 -5 -34z"/>
<path d="M5267 712 c-9 -10 -17 -23 -17 -29 0 -6 -6 -16 -14 -22 -18 -15 -25
-55 -14 -75 16 -29 48 -19 64 20 9 21 22 43 30 51 19 19 18 26 -9 51 -23 22
-24 22 -40 4z"/>
<path d="M4800 323 c-83 -44 -86 -44 -133 -33 -56 14 -65 10 -49 -25 8 -17 20
-25 36 -25 37 0 69 -50 56 -85 -5 -14 -10 -50 -10 -79 0 -45 3 -54 23 -65 18
-10 28 -9 52 3 17 9 35 16 40 16 6 0 21 12 34 25 12 14 27 22 32 19 6 -3 17 0
25 7 21 18 17 240 -6 267 -14 18 -18 17 -100 -25z"/>
</g>
</svg>
