<?xml version="1.0" standalone="no"?>
<!DOCTYPE svg PUBLIC "-//W3C//DTD SVG 20010904//EN"
 "http://www.w3.org/TR/2001/REC-SVG-20010904/DTD/svg10.dtd">
<svg version="1.0" xmlns="http://www.w3.org/2000/svg"
 width="1024.000000pt" height="1024.000000pt" viewBox="0 0 1024.000000 1024.000000"
 preserveAspectRatio="xMidYMid meet">
<metadata>
Created by potrace 1.10, written by Peter Selinger 2001-2011
</metadata>
<g transform="translate(0.000000,1024.000000) scale(0.100000,-0.100000)"
fill="#000000" stroke="none">
<path d="M5405 10233 c-11 -3 -38 -26 -61 -51 l-40 -46 -48 16 c-40 13 -48 14
-53 2 -6 -17 -84 -19 -100 -3 -18 18 -30 3 -36 -42 -7 -50 -45 -94 -105 -120
-47 -20 -59 -38 -44 -66 7 -13 6 -24 -4 -38 -8 -10 -14 -30 -14 -44 0 -21 -13
-34 -72 -71 -87 -55 -108 -64 -108 -46 0 21 -27 38 -49 31 -12 -3 -35 -20 -51
-37 -23 -23 -34 -28 -43 -19 -18 18 -37 13 -74 -19 -19 -17 -68 -47 -109 -66
-41 -20 -74 -40 -74 -45 0 -4 -18 -14 -39 -20 -39 -12 -39 -12 -19 -28 30 -25
30 -142 -1 -175 -17 -18 -21 -35 -21 -90 0 -67 -1 -68 -24 -64 -22 4 -24 2
-20 -26 5 -27 -2 -38 -50 -87 -48 -50 -57 -55 -68 -42 -7 9 -15 39 -18 67 -5
47 -7 51 -32 54 -28 3 -28 3 -28 -57 0 -33 4 -62 9 -65 4 -3 9 -31 9 -63 1
-32 6 -74 12 -93 25 -85 -7 -211 -60 -240 -11 -6 -20 -19 -20 -29 0 -9 -11
-28 -25 -41 -26 -25 -22 -51 11 -64 15 -6 15 -4 3 10 -11 14 -10 16 11 12 37
-5 36 -32 -2 -56 -34 -22 -58 -15 -58 14 0 25 -19 15 -26 -13 -4 -16 -13 -37
-20 -48 -9 -12 -14 -48 -14 -95 0 -68 3 -79 24 -99 19 -18 31 -22 52 -17 17 5
35 1 50 -9 20 -13 24 -24 24 -63 0 -26 7 -56 15 -66 14 -18 13 -22 -12 -48
-21 -22 -27 -37 -25 -61 3 -27 -4 -40 -36 -72 -33 -31 -95 -64 -124 -65 -4 0
4 24 17 53 14 28 25 60 25 70 0 22 -61 126 -74 127 -5 0 -18 7 -28 17 -27 24
-62 4 -92 -55 -15 -30 -39 -57 -59 -70 -31 -17 -36 -27 -45 -81 -11 -60 -11
-61 24 -113 18 -29 34 -58 34 -65 0 -25 -24 -63 -40 -63 -18 0 -48 -37 -74
-92 -16 -33 -16 -46 -6 -132 7 -52 10 -103 6 -112 -3 -9 3 -44 14 -78 10 -33
24 -80 30 -103 6 -23 21 -50 33 -60 13 -10 26 -26 30 -35 4 -11 17 -18 31 -18
15 0 32 -10 44 -27 l20 -28 38 18 c26 13 40 15 47 8 6 -6 17 -11 25 -11 12 0
12 3 2 15 -9 11 -9 15 -1 15 6 0 14 -7 17 -15 11 -27 69 -19 93 13 l21 27 -12
-35 c-6 -19 -15 -41 -21 -48 -5 -6 -7 -25 -4 -40 8 -37 -24 -89 -59 -98 -22
-6 -32 -1 -59 28 -17 20 -42 39 -53 42 -12 4 -22 15 -23 24 0 15 -2 15 -12 -2
-7 -10 -23 -32 -36 -48 -16 -20 -21 -35 -17 -53 7 -26 -6 -58 -31 -83 -8 -9
-11 -26 -7 -50 4 -28 -2 -53 -25 -105 -17 -38 -31 -76 -31 -84 0 -8 14 -20 30
-26 27 -10 44 -47 21 -47 -4 0 -21 -10 -36 -22 -26 -20 -27 -22 -9 -35 23 -17
34 -17 34 2 0 24 27 6 41 -26 11 -29 10 -32 -31 -74 -41 -42 -42 -44 -35 -94
8 -57 2 -63 -27 -25 -34 43 -77 25 -104 -44 -1 -1 -8 0 -16 3 -12 5 -15 23
-14 83 1 65 4 77 19 80 9 2 17 12 17 23 0 23 17 25 40 4 15 -13 19 -13 29 -2
8 11 8 21 -4 43 -17 34 -19 54 -5 54 19 0 10 17 -15 28 -14 7 -27 12 -28 12
-2 0 -1 -15 0 -32 2 -18 -1 -40 -7 -48 -9 -13 -15 -9 -40 20 -58 67 -65 87
-62 188 2 80 0 93 -16 99 -46 17 -45 86 2 148 19 24 37 59 41 77 4 18 11 38
15 43 10 12 9 125 0 125 -3 0 -11 -5 -17 -11 -7 -7 -17 0 -32 26 -18 31 -26
36 -45 31 -36 -9 -54 2 -66 40 -16 48 -36 38 -32 -15 2 -23 -2 -49 -9 -57 -15
-19 2 -39 70 -79 55 -33 69 -60 25 -49 -21 5 -25 4 -20 -7 4 -8 -2 -3 -13 10
-12 13 -21 29 -21 36 0 12 -50 28 -59 19 -2 -2 19 -26 48 -54 28 -27 51 -52
51 -56 0 -7 -98 81 -116 105 -9 11 -17 12 -47 2 -21 -7 -37 -16 -37 -19 0 -4
-4 -13 -9 -21 -7 -11 -13 -12 -23 -4 -22 19 -66 3 -88 -32 -26 -42 -25 -57 3
-83 27 -26 42 -27 78 -8 15 7 38 11 53 9 20 -4 28 -14 36 -47 6 -22 13 -48 16
-56 3 -8 7 -52 9 -96 4 -78 3 -83 -23 -110 -15 -16 -34 -51 -43 -78 -16 -47
-16 -49 2 -53 11 -3 26 -18 35 -34 8 -16 19 -29 26 -29 7 0 9 -14 5 -39 -4
-30 0 -44 19 -67 27 -34 29 -44 9 -44 -8 0 -19 -9 -25 -19 -9 -17 -4 -25 30
-52 49 -39 53 -72 13 -92 -49 -25 -103 13 -103 72 -1 57 -17 114 -38 131 -12
9 -25 38 -32 72 -22 111 -99 154 -169 95 -18 -15 -38 -27 -44 -27 -12 -1 -73
-77 -84 -107 -5 -12 -2 -15 10 -10 13 5 21 -3 33 -31 19 -46 12 -106 -22 -181
-14 -30 -27 -82 -30 -115 -3 -34 -10 -83 -16 -109 -9 -44 -8 -50 12 -72 20
-21 21 -27 10 -59 -9 -29 -8 -39 4 -58 11 -17 17 -62 21 -157 3 -73 10 -142
16 -152 5 -11 13 -80 16 -153 5 -111 3 -140 -10 -168 -10 -21 -19 -78 -23
-150 -6 -95 -4 -124 9 -156 11 -28 14 -49 8 -69 -15 -51 4 -271 28 -331 21
-51 21 -60 11 -200 -6 -81 -13 -163 -16 -182 -5 -34 -3 -37 51 -74 68 -47 88
-74 131 -179 30 -71 34 -92 34 -167 -1 -60 -5 -91 -16 -105 -26 -34 -54 -144
-54 -212 0 -71 12 -93 96 -183 28 -30 48 -64 60 -103 16 -51 26 -65 81 -109
55 -45 63 -56 63 -86 0 -19 9 -45 20 -59 11 -14 20 -36 20 -48 0 -12 9 -47 19
-78 19 -55 19 -56 0 -73 -12 -11 -17 -24 -13 -37 11 -34 8 -111 -6 -152 -19
-57 -14 -91 25 -163 19 -34 35 -69 35 -76 0 -7 -9 -42 -20 -76 -11 -34 -20
-79 -20 -99 0 -21 -6 -44 -12 -52 -23 -28 -112 -77 -170 -93 -31 -9 -59 -20
-62 -25 -3 -4 43 -86 101 -182 63 -102 194 -348 317 -594 l211 -420 175 -127
175 -128 295 -96 294 -96 536 102 c294 55 543 104 554 107 14 4 17 11 12 34
-3 16 1 40 9 56 11 21 15 64 15 165 0 75 4 139 9 142 5 3 12 21 15 41 4 19 16
41 28 49 19 13 20 19 10 41 -14 29 -32 33 -32 6 0 -10 -6 -24 -14 -30 -10 -9
-19 -4 -40 23 -15 20 -38 37 -56 41 -23 5 -30 12 -30 30 0 12 8 26 17 29 15 6
15 8 3 16 -11 7 -20 4 -32 -10 -21 -25 -30 -25 -46 0 -9 16 -19 19 -40 14 -15
-4 -29 -11 -32 -15 -8 -11 -127 -4 -142 8 -7 6 -30 14 -50 18 -35 7 -37 9 -31
36 4 24 2 29 -13 29 -17 1 -17 2 4 19 12 11 22 27 22 38 1 17 42 73 55 73 3 0
1 -9 -5 -19 -5 -11 -10 -29 -10 -41 0 -20 1 -20 30 -5 16 8 33 22 38 31 7 13
19 16 57 12 38 -5 51 -2 66 13 10 10 30 19 44 19 19 0 26 -7 32 -30 8 -29 9
-29 29 -15 18 12 21 22 17 60 -6 45 2 55 26 33 10 -11 11 -6 6 24 -5 24 -3 38
3 38 21 0 23 -43 6 -106 -13 -49 -14 -69 -6 -87 l11 -22 0 23 c1 27 18 62 30
62 5 0 11 -13 14 -29 6 -30 36 -49 47 -31 9 15 44 8 64 -13 23 -22 30 -22 23
2 -6 25 13 33 38 15 28 -21 35 -17 35 19 1 22 8 37 25 50 l24 17 -5 -67 c-3
-38 -10 -90 -16 -116 -7 -33 -7 -52 0 -59 14 -14 19 -2 40 83 10 40 24 75 31
77 20 7 5 -103 -21 -153 -11 -22 -25 -50 -32 -62 -7 -15 -20 -23 -38 -23 -52
0 -59 -8 -52 -59 3 -25 14 -54 23 -65 12 -13 15 -33 13 -71 -2 -29 1 -56 6
-59 6 -3 30 10 54 30 23 20 67 50 95 66 29 17 55 34 58 39 3 5 10 46 15 91 8
81 22 146 43 199 10 23 18 27 69 33 68 7 111 27 134 61 9 14 22 25 30 25 27 0
63 66 85 155 12 50 30 108 40 131 11 22 19 48 19 58 0 22 17 54 101 194 69
115 86 168 76 234 -3 24 4 47 24 84 22 38 29 64 29 102 0 43 8 67 45 135 25
46 45 95 45 108 0 28 84 123 118 133 11 4 27 24 35 44 8 21 45 69 81 108 44
48 78 98 106 155 22 46 49 92 60 101 17 13 70 115 70 133 0 3 -11 5 -25 5 -23
0 -25 4 -25 43 0 51 30 87 73 87 35 0 77 20 77 37 0 8 17 37 39 66 25 34 42
70 48 104 10 52 10 52 -27 87 -37 35 -59 93 -44 117 3 6 -2 28 -11 50 -16 35
-17 47 -6 107 7 37 17 74 22 82 8 11 9 9 5 -12 -3 -14 -9 -33 -12 -42 -4 -11
-1 -16 10 -16 9 0 19 6 22 13 3 8 1 91 -4 187 -7 131 -6 181 4 208 10 32 10
39 -7 61 -10 13 -26 46 -34 73 -14 47 -13 51 10 101 l25 52 -4 -50 c-4 -44 -2
-47 10 -31 10 14 12 40 8 100 -8 116 -10 122 -61 177 -43 46 -47 56 -55 116
-6 53 -5 70 7 83 8 9 15 31 15 48 0 17 5 34 10 37 6 3 10 22 10 41 l0 34 -25
-16 c-20 -13 -28 -14 -40 -4 -8 7 -15 19 -15 26 0 8 -10 14 -24 14 -16 0 -35
13 -56 40 -36 45 -66 52 -95 20 -22 -24 -60 -26 -69 -4 -10 26 -7 34 14 34 11
0 20 7 20 15 0 8 -4 15 -10 15 -19 0 -80 -35 -80 -47 0 -19 -72 -4 -92 19 -21
23 -24 98 -6 116 7 7 19 12 28 12 24 0 60 37 60 61 0 18 -5 21 -32 17 -18 -3
-41 -8 -50 -13 -22 -9 -40 31 -27 57 5 9 9 63 10 120 0 63 4 95 9 83 6 -17 9
-14 15 18 4 23 3 42 -3 50 -8 9 -7 29 2 69 12 50 11 59 -7 93 -15 29 -18 49
-13 84 12 92 11 111 -11 153 -12 24 -32 62 -43 85 -21 44 -57 78 -93 89 -30 9
-38 24 -31 59 5 26 -1 37 -35 72 -47 48 -51 71 -25 167 19 70 34 93 34 52 0
-15 4 -25 10 -21 6 3 10 26 10 50 0 28 10 62 30 100 l30 57 -30 35 c-28 32
-30 37 -24 91 5 45 13 64 37 90 17 17 40 32 51 32 39 0 51 15 37 46 -11 26
-10 30 22 62 39 39 67 36 41 -4 -9 -13 -15 -27 -12 -29 11 -12 56 -7 90 9 53
25 74 67 81 162 6 80 6 81 -19 93 -32 14 -59 1 -68 -34 -4 -14 -11 -25 -16
-25 -11 0 -11 -1 -14 65 -3 58 1 75 19 75 7 0 15 7 19 15 9 25 -4 45 -30 45
-19 0 -24 -5 -24 -25 0 -18 -4 -23 -15 -19 -9 4 -15 11 -14 18 3 27 -3 34 -41
39 -72 9 -101 57 -35 57 19 0 58 9 87 20 29 12 82 23 117 25 58 5 63 3 45 -9
-18 -14 -18 -15 -1 -21 37 -15 44 -68 10 -71 -7 -1 -22 -2 -33 -2 -11 -1 -20
-9 -20 -18 0 -12 10 -15 52 -13 33 2 53 -1 56 -9 2 -7 18 -12 37 -12 28 0 33
4 39 31 3 17 6 47 6 66 0 21 6 36 15 39 8 4 15 16 15 28 0 11 7 30 15 40 8 11
15 30 15 42 0 30 -35 107 -59 128 -18 17 -20 16 -34 -5 -18 -25 -13 -74 11
-101 13 -15 12 -19 -3 -35 -17 -17 -19 -16 -34 7 -34 53 -87 103 -132 126 -26
13 -50 32 -54 43 -3 11 -19 24 -35 30 -33 11 -35 14 -19 42 8 16 13 18 25 9 7
-7 21 -10 29 -6 20 7 62 -29 69 -60 5 -17 13 -24 30 -24 28 0 36 16 36 78 0
33 6 52 22 69 27 28 17 42 -10 15 -11 -11 -31 -26 -44 -33 -23 -12 -23 -11 -5
8 10 11 17 24 16 29 -5 27 4 34 41 34 56 0 96 22 103 58 3 16 14 32 23 36 13
5 15 2 10 -16 -3 -13 -6 -48 -6 -79 0 -46 -5 -61 -25 -83 -22 -24 -32 -46 -21
-46 2 0 20 7 40 15 l37 16 -6 77 c-4 54 -2 91 8 123 17 54 11 71 -40 126 -30
32 -42 56 -51 100 -16 81 -16 113 3 113 9 0 20 11 26 24 10 21 6 35 -20 93
-31 66 -32 70 -26 168 l6 100 -47 39 c-47 40 -154 86 -199 86 -14 0 -39 14
-57 31 l-33 30 32 -15 c81 -40 48 5 -45 61 -41 24 -49 25 -140 20 -60 -3 -119
-13 -155 -26 -82 -29 -132 -15 -271 74 -62 39 -68 57 -70 200 -1 44 -5 85 -9
92 -4 7 -29 24 -55 39 -49 27 -92 80 -92 111 0 9 -17 37 -38 62 -49 59 -54 73
-42 124 5 23 11 81 13 128 l5 87 -52 38 c-28 21 -67 55 -87 76 -20 21 -44 38
-54 38 -10 0 -32 10 -49 23 -17 13 -69 36 -116 51 -47 16 -105 40 -130 55 -25
14 -57 33 -72 40 -16 8 -28 18 -28 23 0 8 -22 9 -55 1z"/>
</g>
</svg>
