<?xml version="1.0" standalone="no"?>
<!DOCTYPE svg PUBLIC "-//W3C//DTD SVG 20010904//EN"
 "http://www.w3.org/TR/2001/REC-SVG-20010904/DTD/svg10.dtd">
<svg version="1.0" xmlns="http://www.w3.org/2000/svg"
 width="1024.000000pt" height="1024.000000pt" viewBox="0 0 1024.000000 1024.000000"
 preserveAspectRatio="xMidYMid meet">
<metadata>
Created by potrace 1.10, written by Peter Selinger 2001-2011
</metadata>
<g transform="translate(0.000000,1024.000000) scale(0.100000,-0.100000)"
fill="#000000" stroke="none">
<path d="M8521 10225 c-18 -8 -43 -15 -55 -15 -30 0 -74 -48 -82 -90 -4 -19
-16 -46 -26 -60 -19 -27 -33 -35 -153 -91 -38 -18 -72 -36 -75 -40 -13 -18
-99 -42 -147 -40 -35 1 -69 -5 -99 -19 -37 -16 -68 -20 -145 -20 -94 0 -100
-1 -110 -23 -14 -31 -86 -67 -134 -67 -22 0 -67 -11 -100 -25 -33 -13 -76 -25
-95 -25 -19 0 -51 -4 -70 -10 -26 -7 -50 -6 -93 5 -32 8 -75 15 -95 15 -23 0
-44 8 -59 21 -19 19 -25 20 -38 9 -9 -7 -28 -14 -43 -16 -63 -6 -144 -24 -170
-38 -15 -8 -42 -22 -59 -31 -18 -8 -33 -19 -33 -23 0 -15 -129 -43 -225 -47
-55 -3 -119 -8 -143 -11 -38 -5 -49 -2 -87 25 -51 37 -84 39 -174 11 -81 -26
-208 -86 -218 -104 -4 -8 -24 -21 -43 -30 -60 -29 -97 -51 -131 -81 -54 -45
-187 -103 -274 -120 -107 -20 -112 -20 -129 14 -20 38 -61 51 -143 44 -68 -5
-99 2 -211 48 -31 13 -37 12 -92 -19 -32 -17 -67 -32 -78 -32 -10 0 -29 -12
-43 -26 -46 -49 -86 -67 -137 -61 -45 5 -48 3 -102 -46 -53 -49 -138 -97 -171
-97 -9 0 -23 -10 -31 -22 -14 -21 -21 -22 -109 -20 -62 2 -108 -2 -134 -11
-31 -11 -56 -12 -110 -5 -38 5 -89 12 -113 14 -34 4 -55 16 -98 55 -30 27 -59
49 -65 49 -6 0 -32 17 -58 38 -25 21 -63 48 -83 61 -56 33 -219 218 -263 295
-21 37 -44 70 -51 73 -7 2 -20 28 -30 56 -21 65 -40 97 -60 97 -8 0 -30 16
-50 35 -19 19 -40 35 -47 35 -7 -1 -102 -134 -212 -296 -110 -162 -210 -308
-222 -324 -30 -37 -29 -54 6 -98 17 -21 41 -74 56 -124 26 -88 44 -112 136
-183 16 -13 34 -45 47 -85 l22 -65 65 -19 64 -18 16 -77 c9 -42 19 -84 22 -94
2 -9 22 -26 43 -37 30 -15 42 -29 51 -58 14 -49 67 -92 128 -105 41 -9 59 -24
176 -143 l130 -133 415 -140 c228 -77 739 -246 1136 -375 l721 -236 358 0 358
0 -69 -73 c-290 -304 -1032 -1068 -1553 -1599 l-626 -638 -80 5 c-160 10 -655
26 -663 21 -4 -2 -94 -27 -201 -55 -151 -40 -219 -63 -314 -110 -163 -78 -197
-105 -220 -169 -10 -30 -41 -79 -73 -117 -52 -61 -58 -65 -98 -65 -24 0 -73
-11 -109 -25 -56 -21 -93 -26 -241 -33 l-175 -9 -39 -34 c-22 -19 -48 -49 -57
-67 -9 -18 -23 -36 -31 -39 -8 -3 -24 -23 -35 -45 -11 -22 -44 -72 -73 -112
-29 -39 -112 -154 -185 -256 -103 -145 -161 -214 -266 -320 l-135 -135 -2
-1376 -2 -1376 210 -282 c115 -155 214 -296 220 -313 l10 -32 57 87 c32 48 60
95 64 104 3 10 21 35 39 55 19 21 36 49 40 63 3 14 12 25 20 25 15 0 34 34 65
114 11 31 24 56 29 56 11 0 70 87 70 103 0 7 14 17 30 22 20 7 54 40 103 101
121 152 244 289 413 458 88 88 183 188 210 220 27 33 63 74 79 91 17 18 65 70
107 117 42 46 116 118 165 159 48 41 106 92 128 114 49 49 130 115 142 115 5
0 16 8 25 18 10 9 38 35 63 57 25 22 72 65 103 95 162 158 589 454 766 532 39
17 168 90 286 163 118 73 240 146 270 163 51 29 280 249 280 269 0 5 12 16 28
25 15 9 54 43 87 75 33 32 80 76 105 98 25 23 61 59 80 80 19 22 49 52 67 66
18 15 40 41 51 58 26 42 268 302 355 380 39 35 90 89 114 119 38 49 97 115
294 327 31 33 73 92 94 130 21 39 46 79 56 91 10 11 43 66 74 123 30 56 93
153 140 214 47 62 118 156 160 210 154 202 396 646 381 701 -6 22 55 215 80
253 8 12 14 33 14 47 0 14 21 52 48 88 26 35 76 110 111 168 35 58 79 121 97
140 33 35 136 231 149 283 4 16 18 35 30 43 19 13 23 26 27 94 4 74 7 82 43
126 22 26 59 59 83 73 82 48 113 81 119 131 3 25 12 49 19 53 8 4 21 22 30 40
9 18 35 54 56 82 33 41 39 56 35 81 -4 25 0 37 18 54 19 18 25 37 31 91 l6 68
60 47 c70 55 118 117 118 152 0 29 34 87 55 96 8 3 15 10 15 16 0 6 19 37 41
70 l42 58 -20 25 c-19 25 -19 27 -2 129 10 57 30 137 45 178 23 64 25 81 16
114 -7 26 -7 48 0 68 6 16 8 49 4 74 -5 42 -4 45 32 69 51 33 205 67 224 49 7
-7 31 -16 53 -19 38 -6 42 -5 53 20 14 31 2 55 -27 55 -9 0 -38 8 -64 17 -41
15 -49 15 -57 3 -5 -9 -5 -19 1 -26 13 -16 -11 -24 -74 -24 l-52 0 33 22 c27
16 32 26 28 44 -5 18 -1 23 16 26 20 3 23 8 20 38 -2 19 -8 39 -13 45 -5 5 -9
60 -9 122 0 97 3 120 24 168 27 59 22 75 -23 90 -12 3 -23 21 -28 43 -8 30 -5
47 13 88 12 28 20 63 17 76 -6 33 18 80 63 120 29 27 35 38 31 63 -3 16 2 43
10 58 16 32 11 59 -10 52 -7 -3 -30 1 -50 10 -20 8 -50 15 -66 15 -16 0 -33 4
-36 10 -3 5 -38 19 -78 30 -40 11 -80 25 -89 30 -23 13 -36 12 -77 -5z"/>
</g>
</svg>
