<?xml version="1.0" standalone="no"?>
<!DOCTYPE svg PUBLIC "-//W3C//DTD SVG 20010904//EN"
 "http://www.w3.org/TR/2001/REC-SVG-20010904/DTD/svg10.dtd">
<svg version="1.0" xmlns="http://www.w3.org/2000/svg"
 width="1024.000000pt" height="1024.000000pt" viewBox="0 0 1024.000000 1024.000000"
 preserveAspectRatio="xMidYMid meet">
<metadata>
Created by potrace 1.10, written by Peter Selinger 2001-2011
</metadata>
<g transform="translate(0.000000,1024.000000) scale(0.100000,-0.100000)"
fill="#000000" stroke="none">
<path d="M2405 10203 c39 -94 92 -157 148 -176 9 -4 17 -11 17 -16 0 -6 -92
-867 -205 -1913 -112 -1047 -230 -2157 -260 -2468 -30 -311 -78 -792 -105
-1070 -27 -278 -59 -615 -71 -748 l-22 -244 63 -1616 c35 -890 64 -1618 65
-1620 1 -1 16 5 32 15 30 17 33 16 151 -20 66 -21 135 -40 154 -43 43 -7 69
-41 44 -59 -9 -7 -16 -17 -16 -24 0 -19 30 -12 65 15 19 14 38 23 43 20 21
-13 42 66 42 162 1 128 28 286 59 335 16 26 25 59 29 102 4 61 6 64 25 53 16
-8 23 -7 34 8 16 22 17 46 2 61 -8 8 -7 17 1 33 8 15 10 42 6 76 -7 57 7 77
45 67 25 -7 24 -27 -2 -63 -28 -38 -20 -56 30 -65 39 -6 41 -9 41 -41 0 -27 5
-37 25 -46 33 -15 52 -59 60 -141 4 -37 11 -70 16 -73 16 -10 9 -53 -18 -109
-27 -54 -27 -55 -10 -102 9 -27 19 -65 23 -85 5 -30 15 -43 52 -68 25 -16 49
-30 53 -30 4 0 9 12 11 27 4 34 34 43 43 13 4 -14 1 -28 -9 -39 -34 -37 -11
-74 102 -160 23 -18 42 -37 42 -42 0 -21 -50 -58 -91 -69 -55 -14 -101 -31
-96 -37 8 -7 321 38 401 57 73 18 172 58 164 66 -2 1 -23 -1 -46 -7 -34 -7
-47 -6 -68 7 -15 11 -21 21 -16 26 6 6 6 21 -1 38 -13 35 -10 40 26 33 22 -4
27 -11 27 -35 0 -27 3 -30 23 -24 12 3 29 6 38 6 9 0 42 19 74 43 45 33 65 57
92 111 26 51 42 71 64 79 38 15 37 37 -5 65 -30 21 -35 30 -41 82 -6 54 -4 65
40 165 50 116 51 131 13 193 -13 22 -39 41 -74 57 -96 42 -142 81 -175 146
-16 34 -57 90 -90 125 -70 75 -71 85 -29 204 17 48 30 106 30 133 l0 47 2350
0 c1293 0 2350 1 2350 3 0 9 -82 212 -101 249 -11 24 -34 57 -49 73 -26 28
-28 38 -33 139 -5 80 -3 116 7 135 7 14 19 80 25 146 12 123 25 190 57 308 17
64 18 68 0 97 -15 26 -16 36 -6 65 11 34 9 40 -49 144 -49 89 -61 118 -61 154
0 27 -12 76 -31 123 -22 56 -29 86 -25 110 3 19 9 50 12 70 4 19 24 68 46 107
85 153 113 276 89 400 -9 51 -8 63 8 95 22 43 53 73 99 96 19 10 32 24 32 35
0 12 9 21 24 25 30 7 116 90 116 111 0 28 -45 62 -102 79 -41 12 -58 22 -67
42 -11 25 -9 32 20 71 29 41 30 47 18 70 -10 19 -11 28 -1 41 24 34 24 43 -7
77 -24 27 -31 45 -31 76 0 58 -22 102 -90 180 -33 39 -63 82 -66 97 -4 15 -11
32 -16 39 -5 7 -7 26 -3 42 5 22 1 38 -13 58 -11 16 -21 51 -24 79 -3 30 -14
64 -26 81 -20 28 -20 31 -4 46 15 16 13 19 -22 52 -35 32 -37 37 -31 74 5 33
3 41 -13 50 -23 12 -51 106 -51 171 0 25 -23 178 -50 340 -28 162 -69 405 -91
540 -22 135 -83 499 -135 810 -52 311 -176 1060 -276 1665 -100 605 -183 1101
-184 1103 -3 3 -4197 51 -4503 52 l-172 0 15 -37z"/>
</g>
</svg>
