<?xml version="1.0" standalone="no"?>
<!DOCTYPE svg PUBLIC "-//W3C//DTD SVG 20010904//EN"
 "http://www.w3.org/TR/2001/REC-SVG-20010904/DTD/svg10.dtd">
<svg version="1.0" xmlns="http://www.w3.org/2000/svg"
 width="1024.000000pt" height="1024.000000pt" viewBox="0 0 1024.000000 1024.000000"
 preserveAspectRatio="xMidYMid meet">
<metadata>
Created by potrace 1.10, written by Peter Selinger 2001-2011
</metadata>
<g transform="translate(0.000000,1024.000000) scale(0.100000,-0.100000)"
fill="#000000" stroke="none">
<path d="M2660 9406 c-36 -7 -91 -26 -123 -42 -53 -26 -62 -36 -103 -109 -39
-69 -54 -86 -100 -114 -58 -35 -68 -50 -79 -125 -5 -30 -14 -50 -26 -56 -26
-15 -72 -12 -96 5 -19 13 -26 13 -67 -2 l-46 -17 0 -63 0 -63 -35 0 -35 0 0
55 c0 30 -3 55 -7 55 -5 0 -32 -10 -61 -22 -52 -23 -53 -24 -50 -63 3 -39 2
-40 -62 -76 l-65 -37 -19 37 c-10 20 -20 38 -22 40 -3 3 -105 -28 -113 -35 -2
-2 -7 -40 -12 -85 -4 -44 -10 -83 -12 -86 -3 -2 -58 -14 -122 -26 l-117 -22
-59 -67 -58 -68 5 -113 6 -112 -50 -72 c-28 -40 -53 -86 -57 -102 -4 -17 -9
-31 -12 -31 -3 0 -29 14 -56 31 l-51 31 -120 -35 -120 -35 -31 24 c-22 17 -51
26 -94 30 l-63 7 7 -69 c6 -62 4 -72 -17 -103 l-24 -34 45 -134 c44 -127 45
-135 28 -148 -12 -9 -20 -32 -24 -69 -6 -56 -6 -56 -61 -87 l-54 -32 8 -51 c5
-28 7 -93 6 -143 -3 -91 -3 -93 29 -132 18 -23 44 -43 60 -46 16 -4 31 -10 33
-14 2 -3 -4 -36 -14 -71 -15 -56 -16 -69 -4 -91 7 -15 18 -46 23 -70 10 -43 9
-45 -29 -84 l-40 -40 -48 -304 c-47 -292 -50 -305 -76 -326 -21 -17 -34 -46
-62 -146 -68 -244 -93 -358 -134 -619 l-42 -265 -42 -35 c-22 -19 -54 -46 -69
-60 l-29 -26 36 -159 c20 -88 63 -317 96 -510 39 -226 69 -374 86 -417 19 -49
25 -82 23 -130 -2 -66 13 -111 54 -155 29 -32 48 -29 151 21 l91 45 120 2
c140 2 182 -8 253 -61 l50 -38 53 32 c43 26 55 38 57 62 10 100 54 182 115
217 41 22 185 24 227 2 31 -16 93 -116 106 -170 9 -39 40 -72 74 -80 23 -5 32
-16 46 -55 11 -32 26 -52 42 -60 14 -6 25 -9 26 -8 1 2 94 253 205 558 112
305 209 558 215 562 36 24 57 7 157 -126 34 -45 75 -89 93 -98 61 -32 138 -50
189 -44 26 4 63 4 81 0 32 -5 35 -10 52 -70 18 -63 24 -69 167 -209 l147 -145
60 0 c51 0 77 8 190 59 117 54 136 59 178 55 40 -5 59 0 132 34 67 31 98 53
148 105 38 40 62 74 63 89 0 12 5 38 12 57 10 29 20 36 72 52 73 24 100 25
147 10 39 -13 80 -68 94 -127 4 -16 18 -42 31 -57 26 -32 30 -79 8 -97 -10 -8
-15 -30 -15 -61 0 -39 4 -49 20 -54 28 -9 37 -1 44 39 8 39 56 76 99 76 33 0
41 14 38 63 -2 35 0 38 21 35 17 -2 24 -11 26 -30 4 -34 21 -39 122 -41 98 -2
114 9 76 53 -14 17 -26 35 -26 38 0 32 26 86 52 107 38 32 74 29 120 -10 16
-14 39 -25 51 -25 12 0 36 -9 54 -19 17 -11 50 -25 72 -31 27 -7 49 -22 67
-45 19 -25 34 -35 54 -35 15 0 33 -7 41 -16 23 -28 103 -62 132 -57 15 3 27 9
27 14 0 4 20 22 45 39 38 26 45 36 45 64 0 39 31 76 65 76 13 0 30 3 39 6 11
4 29 -22 72 -108 31 -62 57 -114 58 -115 1 -2 16 3 33 9 29 11 61 0 473 -167
l442 -179 347 -423 c343 -419 347 -423 408 -450 60 -26 63 -29 117 -123 78
-135 192 -244 406 -388 l165 -111 240 -264 c185 -203 253 -271 297 -297 41
-24 86 -67 157 -150 94 -108 105 -118 171 -145 61 -26 90 -48 206 -158 l134
-129 48 40 48 41 84 -46 c46 -25 124 -78 174 -118 l89 -72 81 35 c45 19 87 39
93 44 23 18 26 74 7 107 l-18 30 55 58 c30 32 63 72 74 89 15 26 26 33 61 37
23 2 53 13 67 23 13 11 71 39 128 63 57 25 106 45 107 47 2 1 -6 16 -18 32
-16 21 -26 59 -37 146 -14 103 -19 119 -37 126 -12 4 -43 26 -69 48 -45 36
-51 39 -78 28 -17 -6 -25 -12 -19 -14 5 -2 10 -16 10 -31 0 -15 5 -32 12 -39
15 -15 -16 -41 -48 -42 -12 0 -27 -7 -34 -15 -20 -24 -54 -18 -85 15 -16 17
-35 30 -42 30 -7 0 -13 4 -13 10 0 17 -41 33 -53 21 -15 -15 -39 -14 -61 2
-13 10 -23 44 -36 127 -24 145 -30 156 -89 165 -62 9 -75 18 -110 69 -17 24
-53 60 -81 80 -33 23 -50 43 -50 57 0 13 -8 23 -21 26 -16 4 -19 11 -15 29 11
42 -29 30 -55 -16 -17 -29 -27 -39 -39 -34 -8 4 -45 9 -83 12 -88 6 -106 27
-112 138 -3 61 -9 82 -28 108 -14 17 -30 56 -37 87 -10 44 -19 59 -45 76 -28
19 -33 28 -38 79 -4 37 -13 65 -26 78 -11 12 -43 47 -73 79 -62 69 -94 88
-125 76 -34 -13 -28 -26 16 -33 60 -9 92 -48 50 -59 -21 -6 -20 -8 15 -48 20
-24 36 -47 36 -52 0 -16 -74 55 -91 87 -26 48 -56 70 -93 69 -30 -1 -37 5 -80
72 -55 86 -161 191 -202 200 -71 16 -149 53 -194 93 -39 34 -61 45 -105 52
-84 14 -79 9 -189 171 -25 37 -76 93 -113 124 -46 39 -77 75 -97 114 -24 47
-199 263 -330 406 -20 22 -51 65 -68 95 -19 30 -53 68 -78 86 -25 18 -66 51
-91 73 -32 28 -55 41 -76 41 -16 0 -38 7 -49 15 -11 9 -42 14 -77 15 -51 0
-59 3 -69 25 -21 47 -82 60 -274 59 l-171 -2 -17 32 c-13 24 -16 51 -14 106
l3 73 -43 34 c-47 36 -91 43 -112 18 -7 -8 -16 -15 -21 -15 -14 0 -21 40 -10
54 23 27 2 46 -50 46 -47 0 -50 2 -56 30 -7 38 -32 39 -57 1 -11 -15 -28 -34
-39 -40 -16 -11 -23 -9 -43 10 -13 12 -24 31 -24 41 0 21 -1 21 -34 7 -16 -7
-26 -21 -28 -38 -4 -33 -30 -38 -43 -9 -14 31 -28 29 -38 -7 -5 -16 -13 -37
-17 -45 -11 -23 -60 -43 -103 -42 -53 2 -171 61 -175 87 -10 66 -34 105 -82
131 -49 27 -70 56 -70 99 0 14 -8 29 -20 35 -11 6 -20 16 -20 22 0 7 -10 22
-22 35 -17 18 -19 26 -10 35 17 17 15 45 -3 56 -14 7 -12 13 10 46 62 92 6
171 -198 279 -56 30 -66 33 -98 23 -20 -6 -51 -28 -69 -49 -30 -35 -34 -46
-38 -116 -2 -42 1 -103 8 -135 10 -47 15 -56 28 -51 44 18 46 14 61 -105 14
-110 11 -169 -8 -199 -8 -12 -16 -12 -53 3 -23 9 -56 27 -72 40 -27 22 -29 31
-37 123 -7 81 -15 113 -43 174 -19 41 -43 86 -54 99 -10 14 -29 59 -42 101
-27 93 -81 163 -139 180 -33 10 -47 8 -95 -10 l-56 -21 -15 30 c-9 17 -15 56
-15 92 0 35 -6 92 -14 128 -8 36 -17 90 -21 120 -10 75 -27 104 -77 132 -36
20 -44 31 -63 88 -13 36 -39 101 -60 145 -20 44 -65 161 -100 260 -63 177 -97
328 -169 740 -30 169 -100 394 -188 601 -91 212 -120 293 -138 389 -8 42 -21
69 -41 90 -19 20 -32 48 -39 83 -5 30 -32 92 -61 145 -29 51 -71 127 -94 170
-23 43 -65 104 -93 136 -28 32 -70 91 -94 132 -46 77 -206 290 -217 288 -3 -1
-35 -7 -71 -13z"/>
<path d="M4991 6690 c-9 -28 -8 -36 5 -51 17 -19 13 -22 -51 -31 -28 -4 -32
-49 -6 -72 16 -15 22 -15 41 -4 19 12 24 10 43 -14 21 -26 40 -33 81 -30 15 2
17 7 11 30 -3 15 -13 30 -20 35 -29 16 -46 40 -37 49 12 12 76 5 119 -13 29
-12 35 -11 50 3 25 26 1 48 -52 48 -35 0 -44 4 -48 21 -5 18 -10 20 -51 14
-26 -4 -46 -3 -46 2 0 5 -6 17 -13 28 -13 17 -15 16 -26 -15z"/>
<path d="M4097 6673 c-4 -3 -7 -21 -7 -40 0 -29 3 -33 25 -33 35 0 40 -19 21
-82 -8 -29 -13 -54 -11 -56 2 -3 16 3 30 12 31 21 34 79 6 134 -21 42 -54 75
-64 65z"/>
<path d="M4933 6323 c-24 -2 -43 -8 -43 -13 0 -13 46 -24 60 -15 13 8 70 -42
70 -62 0 -7 -11 -13 -25 -13 -22 0 -25 -4 -25 -34 0 -25 5 -36 18 -39 14 -3
13 -6 -8 -15 -22 -9 -29 -6 -55 21 l-30 31 -6 -54 c-3 -30 -4 -58 -2 -62 6
-12 39 -10 68 4 25 11 30 8 87 -49 47 -47 59 -65 54 -81 -9 -27 -53 -38 -76
-17 -9 8 -24 13 -32 10 -10 -4 -18 6 -28 34 -7 23 -24 48 -37 56 -41 27 -60
-6 -23 -40 11 -10 20 -28 20 -40 0 -13 7 -25 15 -29 8 -3 15 -13 15 -23 0 -35
17 -47 59 -45 23 2 50 -4 64 -13 19 -12 30 -13 58 -4 19 7 38 16 44 20 17 16
41 9 70 -21 16 -16 33 -30 38 -30 5 0 6 14 2 30 l-7 30 64 0 c46 0 71 -5 93
-20 39 -26 72 -26 80 0 7 21 35 26 63 11 10 -5 29 -7 44 -4 23 4 26 8 18 23
-6 10 -10 34 -10 54 0 46 -18 56 -44 24 -22 -27 -66 -54 -66 -41 0 4 12 17 27
29 l27 21 -28 18 c-23 16 -29 16 -37 4 -7 -11 -9 -9 -9 7 0 34 -32 53 -98 60
-59 7 -62 6 -73 -19 -17 -38 2 -61 37 -45 18 9 28 8 36 0 9 -9 7 -12 -8 -12
-10 0 -24 -10 -29 -22 -11 -26 -53 -34 -106 -21 -32 9 -34 13 -54 94 -25 97
-36 122 -68 144 -17 12 -22 25 -22 58 0 41 -1 42 -47 58 -26 8 -56 23 -66 32
-10 9 -20 16 -23 15 -2 -1 -23 -3 -46 -5z"/>
<path d="M6226 5821 c-19 -19 -24 -31 -16 -36 6 -4 12 -5 14 -4 43 65 44 84 2
40z"/>
<path d="M5411 5291 c-17 -11 -2 -41 20 -41 12 0 19 7 19 19 0 21 -21 33 -39
22z"/>
<path d="M5433 5198 c-42 -20 -24 -108 22 -108 22 0 24 4 22 41 -1 29 4 45 16
54 33 24 -16 34 -60 13z"/>
<path d="M5520 4971 c0 -11 -4 -23 -10 -26 -15 -9 -12 -61 5 -75 20 -17 45 -9
69 23 20 27 20 28 2 62 -22 40 -66 50 -66 16z"/>
</g>
</svg>
