<?xml version="1.0" standalone="no"?>
<!DOCTYPE svg PUBLIC "-//W3C//DTD SVG 20010904//EN"
 "http://www.w3.org/TR/2001/REC-SVG-20010904/DTD/svg10.dtd">
<svg version="1.0" xmlns="http://www.w3.org/2000/svg"
 width="1024.000000pt" height="1024.000000pt" viewBox="0 0 1024.000000 1024.000000"
 preserveAspectRatio="xMidYMid meet">
<metadata>
Created by potrace 1.10, written by Peter Selinger 2001-2011
</metadata>
<g transform="translate(0.000000,1024.000000) scale(0.100000,-0.100000)"
fill="#000000" stroke="none">
<path d="M4920 10182 l-275 -57 -177 -215 -176 -215 -400 -275 -400 -274 -162
-436 -162 -435 -142 -245 c-79 -135 -239 -411 -356 -613 -195 -338 -218 -373
-274 -422 -34 -29 -140 -120 -236 -202 -168 -143 -178 -153 -244 -258 -50 -81
-98 -140 -178 -221 l-109 -111 -71 -189 c-132 -353 -131 -351 -202 -909 l-64
-500 9 -525 c8 -431 13 -536 26 -589 l17 -63 50 6 c45 6 56 12 96 56 42 47 48
50 91 50 38 0 56 8 114 48 64 44 70 51 91 112 12 36 23 62 23 59 1 -3 12 -88
25 -190 14 -101 32 -203 40 -227 20 -55 115 -165 181 -208 28 -19 79 -60 114
-92 l64 -59 -12 -124 c-10 -95 -24 -163 -61 -286 l-49 -163 56 -136 56 -136
211 -195 212 -195 219 -343 220 -343 950 -436 950 -436 1351 -95 c743 -52
1358 -95 1366 -95 27 0 30 72 33 640 l2 545 55 225 c44 180 57 248 61 340 5
98 14 140 57 287 27 94 59 229 70 300 10 70 50 264 86 431 l68 304 43 35 c39
32 45 34 71 24 17 -7 36 -27 46 -48 16 -34 18 -35 64 -30 26 2 65 12 87 20 40
16 159 22 203 11 18 -5 22 -13 22 -43 0 -56 42 -137 75 -145 15 -4 29 -5 31
-3 2 2 42 449 88 993 l83 989 -145 370 -145 370 20 370 20 370 109 388 108
389 -32 419 -32 420 40 80 c29 56 37 81 28 84 -7 2 -107 29 -223 59 -199 53
-210 55 -234 39 -14 -9 -26 -12 -28 -7 -18 50 -135 290 -143 292 -5 2 -143
-44 -305 -103 -203 -74 -299 -104 -308 -98 -6 6 -560 441 -1230 967 -670 526
-1225 956 -1235 955 -9 -1 -141 -26 -292 -57z"/>
</g>
</svg>
