<?xml version="1.0" standalone="no"?>
<!DOCTYPE svg PUBLIC "-//W3C//DTD SVG 20010904//EN"
 "http://www.w3.org/TR/2001/REC-SVG-20010904/DTD/svg10.dtd">
<svg version="1.0" xmlns="http://www.w3.org/2000/svg"
 width="1024.000000pt" height="1024.000000pt" viewBox="0 0 1024.000000 1024.000000"
 preserveAspectRatio="xMidYMid meet">
<metadata>
Created by potrace 1.10, written by Peter Selinger 2001-2011
</metadata>
<g transform="translate(0.000000,1024.000000) scale(0.100000,-0.100000)"
fill="#000000" stroke="none">
<path d="M5725 10225 c-16 -7 -64 -18 -106 -24 -136 -21 -174 -33 -177 -59 -3
-18 -6 -21 -17 -12 -17 14 -35 5 -35 -17 0 -12 -7 -14 -30 -9 -24 4 -30 2 -30
-12 0 -14 -2 -15 -9 -3 -8 12 -11 9 -17 -13 -5 -19 -10 -24 -17 -17 -16 16
-30 13 -23 -4 3 -8 0 -27 -6 -41 -17 -36 -62 -30 -66 9 -3 21 -8 27 -29 27
-16 0 -27 -7 -30 -20 -3 -11 -14 -20 -24 -20 -23 0 -23 -4 -2 -37 l17 -26 -30
15 c-37 18 -100 17 -96 -1 2 -10 -5 -12 -23 -8 -18 3 -35 -2 -52 -17 l-24 -21
23 -35 24 -35 128 -5 129 -5 30 -37 c36 -44 31 -61 -6 -24 -28 28 -29 28 -132
30 -38 1 -78 5 -87 10 -34 16 -29 -21 11 -85 22 -35 43 -76 46 -91 6 -24 4
-28 -13 -28 -15 0 -27 16 -48 66 -32 76 -53 94 -111 94 l-42 0 18 -62 c10 -35
37 -92 60 -127 36 -57 41 -71 41 -124 0 -59 0 -60 -20 -42 -11 10 -20 25 -20
34 0 9 -31 52 -68 97 -37 44 -78 103 -91 132 -23 50 -54 72 -99 72 -16 0 -16
5 4 -287 5 -69 3 -97 -6 -108 -12 -14 -15 -14 -31 1 -11 10 -24 35 -30 57 -10
37 -75 137 -98 152 -6 3 -19 -12 -31 -35 -11 -22 -31 -47 -45 -56 -19 -12 -25
-25 -25 -53 -1 -31 -2 -33 -12 -17 -14 24 4 86 32 111 12 11 20 31 20 50 0 18
7 46 15 61 18 35 19 74 3 109 -11 24 -16 26 -47 20 -20 -3 -91 -10 -158 -14
-68 -4 -127 -11 -133 -17 -7 -7 -2 -18 15 -34 19 -18 25 -33 24 -64 0 -23 -4
-49 -8 -59 -6 -17 -8 -17 -20 -3 -8 9 -10 26 -7 43 5 22 0 36 -22 62 -24 29
-32 33 -59 27 -44 -10 -62 -35 -73 -100 -5 -31 -16 -66 -24 -78 -9 -12 -16
-35 -16 -50 0 -21 -7 -31 -26 -38 -22 -9 -31 -6 -62 20 -20 16 -44 30 -52 30
-9 0 -47 -22 -86 -48 -38 -27 -100 -61 -138 -76 -38 -15 -83 -38 -100 -51 -17
-13 -42 -25 -56 -27 -22 -3 -26 -10 -34 -55 -7 -43 -6 -57 8 -78 9 -14 23 -25
30 -25 8 0 16 -9 19 -21 4 -15 12 -19 34 -17 24 3 28 0 28 -24 1 -14 6 -32 13
-40 10 -12 3 -19 -39 -37 -46 -21 -49 -24 -35 -40 9 -10 16 -22 16 -27 0 -13
-93 -92 -141 -122 -47 -28 -53 -28 -145 9 -70 28 -81 30 -117 19 -22 -6 -50
-23 -62 -36 -20 -22 -27 -24 -46 -14 -34 19 -109 7 -130 -21 l-17 -23 -19 31
c-37 65 -118 57 -193 -19 l-33 -32 7 -109 c8 -129 21 -157 72 -157 43 0 44
-17 2 -35 l-33 -13 30 -12 c66 -26 71 -31 28 -25 -24 3 -43 2 -43 -3 0 -14 23
-32 42 -32 10 0 25 -11 34 -25 20 -30 74 -56 124 -59 24 -1 52 -15 88 -44 l53
-41 -28 -7 c-15 -4 -35 -15 -44 -26 -15 -19 -16 -19 -69 16 -52 35 -127 55
-150 41 -8 -5 -3 -17 16 -36 15 -16 24 -29 20 -29 -19 0 -55 27 -101 76 l-50
52 -54 -8 c-84 -14 -101 -30 -101 -95 l0 -54 40 -11 c28 -7 38 -15 34 -25 -4
-8 5 -34 19 -58 20 -34 37 -48 72 -61 25 -10 45 -22 45 -26 0 -16 -19 -21 -38
-11 -27 14 -140 2 -147 -17 -3 -8 2 -51 12 -96 17 -80 18 -82 86 -147 l69 -66
-7 44 c-7 51 13 93 45 93 17 0 20 -7 20 -42 1 -34 3 -39 11 -25 5 9 22 17 36
17 20 0 24 -4 18 -17 -11 -28 -18 -93 -11 -93 4 0 16 5 27 10 17 10 19 7 19
-19 0 -16 5 -33 10 -36 6 -3 10 -2 10 3 0 6 12 13 26 16 14 4 37 19 51 34 l26
27 -7 -47 c-4 -27 -3 -48 1 -48 18 0 42 26 45 49 2 18 12 27 33 33 39 10 55 4
55 -23 0 -12 8 -23 18 -26 9 -2 26 -21 37 -41 16 -30 28 -39 65 -48 38 -9 45
-15 51 -41 7 -36 40 -91 69 -118 12 -11 20 -31 20 -52 0 -22 12 -52 35 -86 44
-64 49 -136 13 -161 -19 -14 -20 -18 -8 -43 7 -15 14 -42 15 -59 2 -18 21 -54
44 -85 47 -62 52 -96 20 -141 -19 -26 -21 -38 -15 -103 7 -72 6 -75 -19 -91
l-26 -17 21 -22 c26 -27 26 -62 0 -70 -39 -12 -42 -39 -10 -81 35 -47 36 -51
10 -59 -18 -6 -19 -12 -14 -61 6 -50 5 -55 -20 -75 -15 -12 -26 -30 -26 -45 0
-23 3 -24 35 -18 40 7 46 -6 13 -29 -19 -13 -21 -18 -12 -34 8 -13 9 -25 2
-36 -8 -15 -12 -16 -38 -2 -34 17 -35 16 -46 -78 -6 -51 -4 -61 15 -81 l22
-23 -25 -49 c-13 -27 -27 -59 -31 -71 -6 -20 -3 -23 25 -23 17 0 41 5 53 11
15 7 12 2 -8 -15 -74 -62 -76 -64 -64 -85 17 -26 6 -46 -38 -74 -38 -24 -39
-26 -38 -83 0 -70 8 -86 39 -78 17 4 30 -1 44 -16 13 -14 37 -24 66 -27 52 -6
79 9 74 42 -5 41 62 96 115 94 12 0 16 -3 10 -6 -7 -2 -13 -13 -13 -22 0 -10
-11 -23 -25 -29 -26 -12 -34 -37 -12 -45 6 -2 25 0 40 6 20 7 41 6 69 -2 47
-14 46 -35 -3 -39 -34 -4 -59 -17 -59 -33 0 -4 30 -10 68 -12 l67 -3 -72 -2
c-44 -1 -74 2 -79 9 -11 19 -24 -12 -24 -58 0 -37 3 -43 21 -43 12 0 30 11 41
25 11 14 27 25 35 25 13 0 12 -5 -6 -24 -46 -49 5 -57 62 -10 31 26 57 22 57
-8 0 -10 -4 -17 -9 -13 -5 3 -26 -4 -46 -16 l-37 -22 37 -13 c37 -12 75 -40
75 -55 0 -4 -14 -3 -31 3 -47 16 -44 4 11 -45 32 -29 50 -53 50 -68 0 -23 0
-22 -29 5 -16 16 -34 25 -40 22 -19 -12 -13 -71 9 -91 21 -19 26 -51 11 -74
-16 -26 -62 5 -153 103 -80 86 -91 94 -147 110 -33 9 -63 21 -66 26 -11 18
-81 11 -99 -9 -16 -17 -15 -23 18 -95 35 -75 36 -77 99 -105 71 -32 89 -52
112 -122 12 -36 24 -51 50 -63 18 -9 37 -16 42 -16 5 0 23 -13 41 -30 18 -16
39 -30 45 -30 6 0 -3 -10 -21 -22 -30 -22 -32 -26 -30 -77 3 -53 4 -55 37 -63
31 -9 32 -10 17 -27 -9 -10 -16 -23 -16 -29 0 -6 -6 -15 -13 -19 -33 -20 -57
-67 -57 -109 0 -25 -5 -53 -12 -63 -9 -15 -7 -29 10 -72 20 -47 21 -54 7 -69
-12 -13 -28 -16 -73 -13 -86 6 -102 11 -102 32 0 29 -32 79 -53 85 -11 2 -29
1 -40 -4 -12 -5 -17 -9 -10 -9 6 -1 19 -8 28 -17 20 -20 5 -34 -37 -34 -15 0
-30 -4 -33 -10 -3 -5 -18 -7 -33 -4 -15 2 -33 0 -41 -5 -12 -7 -9 -14 12 -33
21 -18 25 -29 20 -51 -5 -24 -9 -28 -29 -23 -20 5 -24 2 -24 -14 0 -17 -4 -20
-21 -15 -21 7 -22 5 -17 -33 6 -44 -12 -74 -52 -87 -13 -4 -20 -15 -20 -31 0
-13 -4 -32 -9 -42 -5 -9 -21 -55 -36 -102 -15 -47 -36 -92 -46 -100 -19 -15
-19 -16 0 -53 11 -21 32 -47 48 -59 15 -12 30 -23 32 -25 3 -2 -5 -13 -17 -26
-30 -32 -27 -40 8 -22 39 20 50 19 50 -5 0 -18 -3 -19 -20 -10 -41 22 -93 -36
-134 -150 -24 -66 -26 -84 -21 -147 5 -45 12 -74 20 -77 14 -5 14 -73 0 -95
-7 -13 8 -36 43 -64 12 -10 22 -27 22 -37 0 -10 5 -22 10 -25 6 -3 10 -15 10
-26 0 -13 7 -19 21 -19 20 0 20 -1 6 -23 -26 -40 -25 -60 3 -67 28 -7 40 -47
18 -61 -7 -5 -12 -21 -10 -39 3 -22 -2 -36 -15 -45 -15 -11 -16 -18 -7 -44 10
-24 9 -33 -2 -41 -21 -18 -45 -114 -38 -151 4 -19 18 -46 32 -61 22 -24 39
-50 58 -87 4 -7 0 -36 -9 -65 -16 -54 -13 -114 8 -131 6 -5 15 -32 19 -60 15
-107 18 -116 42 -127 15 -7 24 -20 24 -33 0 -12 9 -30 20 -40 14 -13 17 -22
10 -30 -8 -9 -5 -24 7 -50 18 -37 18 -38 -4 -52 l-22 -15 25 -40 c14 -22 35
-61 46 -87 10 -25 29 -56 40 -68 17 -18 20 -30 15 -68 -6 -38 -2 -55 19 -95
16 -31 23 -57 19 -70 -4 -14 3 -34 24 -66 17 -25 31 -58 31 -74 0 -24 8 -35
40 -55 40 -25 57 -58 47 -95 -4 -16 0 -20 19 -20 29 0 53 -37 29 -46 -19 -8
-19 -33 1 -62 17 -25 51 -29 79 -8 14 10 25 11 38 4 10 -5 41 -11 69 -13 38
-3 58 -10 78 -30 17 -16 44 -29 69 -32 35 -5 42 -10 51 -39 9 -28 18 -34 48
-40 112 -19 172 -53 122 -69 -11 -3 -20 -9 -20 -13 1 -15 26 -39 48 -46 18 -6
22 -15 22 -47 0 -34 5 -42 39 -64 21 -14 54 -27 74 -29 43 -4 65 -19 69 -49 4
-30 59 -35 96 -10 15 10 42 20 61 23 46 7 73 45 86 128 10 54 9 71 -2 87 -21
31 -16 40 24 42 43 2 55 17 49 61 -3 19 1 50 9 70 14 40 26 106 29 162 1 26 6
36 21 40 14 4 22 18 26 44 3 20 16 49 28 64 12 15 34 54 49 87 l28 59 -17 76
c-23 93 -23 104 -4 96 12 -4 15 5 15 49 0 44 -4 57 -22 69 -20 14 -20 16 -4
16 30 0 74 32 93 67 18 34 32 43 34 21 0 -7 7 1 14 18 8 17 21 36 29 43 9 8
16 18 16 23 0 6 11 23 25 40 14 16 25 36 25 43 0 7 16 32 36 56 64 77 70 98
70 252 l-1 138 36 9 c53 14 59 53 19 124 -17 29 -30 64 -30 77 0 40 -16 56
-40 41 -11 -6 -26 -12 -34 -12 -13 0 -13 4 -1 34 8 19 12 42 9 50 -8 20 11 20
66 1 46 -16 44 -17 110 33 70 54 78 90 25 124 -38 25 -48 54 -15 43 10 -3 32
1 49 9 29 15 30 15 55 -14 28 -34 46 -22 22 15 -9 13 -13 31 -9 40 5 14 9 12
28 -11 26 -33 62 -35 120 -8 38 19 40 21 39 66 0 26 3 45 7 42 15 -9 39 55 39
104 0 26 5 53 12 60 14 14 3 28 -26 34 -27 4 -20 24 7 21 12 -2 48 -6 79 -9
l58 -7 -34 -37 c-45 -50 -54 -68 -67 -132 -5 -29 -15 -65 -21 -81 -9 -22 -7
-31 6 -45 14 -16 25 -17 81 -11 36 5 70 11 76 14 5 4 8 23 7 42 -2 22 2 38 10
40 7 3 12 -4 12 -17 0 -15 5 -20 18 -18 13 2 18 17 23 66 6 63 19 96 19 51 1
-13 9 -40 20 -59 17 -32 19 -33 26 -15 4 11 16 26 26 33 10 7 18 24 18 38 0
16 11 35 31 51 22 19 30 33 26 50 -2 12 -3 23 -2 23 1 0 18 -7 37 -15 34 -14
36 -13 69 18 72 70 159 218 159 272 0 35 20 72 47 90 12 9 23 24 23 35 0 10 5
22 10 25 6 3 10 42 10 86 0 76 2 82 30 111 17 16 30 33 30 38 0 21 49 60 75
60 l28 0 -5 63 c-8 95 -27 147 -53 147 -25 0 -45 20 -69 67 -15 30 -15 32 0
26 9 -3 20 0 24 7 5 8 12 1 21 -24 8 -23 18 -35 26 -32 7 3 13 -1 13 -10 0
-24 92 -108 134 -123 33 -11 41 -11 50 0 7 8 25 13 45 11 49 -5 60 11 33 48
l-23 30 24 0 c14 0 31 -9 39 -21 l13 -21 38 22 c42 25 47 37 15 42 -31 4 -34
26 -3 34 20 5 33 1 54 -20 33 -31 41 -33 41 -6 0 12 7 20 16 20 11 0 14 5 10
16 -5 13 1 15 29 13 23 -3 41 3 57 17 13 12 38 29 56 40 17 10 32 24 32 32 0
10 5 10 21 1 17 -9 23 -7 36 10 8 12 18 21 23 21 14 0 60 46 60 59 0 7 4 10 8
7 5 -3 28 13 52 34 25 22 49 40 56 40 13 0 48 37 49 53 2 28 26 67 41 67 11 0
15 6 11 20 -4 15 0 20 13 20 16 0 30 18 30 41 0 5 -13 9 -30 9 -45 0 -36 18
15 32 37 10 45 16 45 35 0 13 4 23 10 23 18 0 55 44 52 62 -2 12 6 21 21 27
34 13 42 29 25 49 -8 9 -19 24 -23 32 -6 12 -5 13 6 3 16 -16 75 -17 84 -3 4
6 0 22 -9 35 -13 19 -13 24 -1 28 8 4 11 14 8 26 -4 14 1 23 13 28 11 4 25 15
32 25 7 10 19 18 26 18 10 0 36 52 36 73 0 3 -26 -6 -57 -21 -51 -24 -70 -27
-153 -26 -52 0 -126 8 -165 17 -68 15 -70 15 -87 -5 l-18 -20 0 21 c0 12 -4
21 -10 21 -5 0 -10 -4 -10 -10 0 -5 -23 -27 -50 -47 -37 -27 -59 -37 -80 -35
-15 2 -42 -4 -59 -12 -24 -13 -31 -24 -37 -61 -5 -40 -24 -74 -24 -46 0 18
-36 12 -64 -10 -18 -14 -30 -18 -39 -11 -7 5 -20 11 -30 13 -16 4 -16 6 -2 27
12 16 26 22 54 22 41 0 58 10 89 56 12 18 39 39 60 47 49 20 72 45 51 58 -21
13 -29 12 -136 -26 -54 -19 -102 -36 -107 -38 -5 -1 -14 7 -20 18 -10 18 -15
19 -43 10 -17 -6 -41 -19 -52 -29 -18 -17 -21 -17 -21 -3 0 20 14 33 60 55 22
11 34 24 34 35 -1 9 4 17 11 17 7 0 16 19 20 46 6 39 3 50 -15 70 l-23 23 27
7 c14 3 26 11 26 16 0 6 11 3 24 -5 20 -14 26 -14 42 -2 11 8 35 15 55 15 27
0 43 8 69 35 44 46 51 37 11 -14 -21 -26 -46 -45 -71 -52 -30 -9 -42 -20 -55
-50 -10 -21 -29 -48 -42 -61 -14 -13 -32 -36 -40 -52 -12 -24 -13 -30 -1 -37
21 -14 29 -11 112 31 54 28 91 40 120 40 37 0 47 6 90 49 l49 49 -23 46 c-17
36 -27 46 -47 46 -40 0 -25 32 22 45 33 10 36 12 17 17 -16 5 -22 14 -22 35
l0 28 -26 -30 -25 -30 16 32 c20 43 19 66 -6 89 -22 20 -50 21 -171 9 -51 -6
-68 -4 -68 5 0 9 -14 11 -50 8 -55 -6 -68 6 -19 17 21 5 29 11 25 22 -3 8 -6
16 -6 19 0 2 -15 10 -34 18 -19 8 -37 23 -41 35 -5 18 -12 20 -50 15 l-43 -6
0 36 c0 20 5 36 12 36 27 0 105 -35 113 -51 4 -9 34 -40 65 -69 l58 -52 76 10
c84 11 90 10 152 -32 42 -28 43 -29 64 -10 16 15 22 16 26 6 2 -8 27 -43 54
-78 27 -36 54 -80 60 -97 23 -66 50 -95 116 -121 57 -22 67 -23 100 -12 40 14
41 18 28 96 l-8 45 26 -34 c14 -19 26 -40 26 -46 0 -7 9 -20 20 -30 18 -17 21
-16 56 5 l36 23 -5 61 c-3 33 -10 62 -16 64 -16 5 -41 56 -41 82 0 11 -7 23
-15 26 -13 6 -25 38 -55 152 -12 48 -18 51 -47 20 -25 -27 -29 -44 -18 -81 13
-48 -3 -41 -30 13 l-26 52 25 37 c14 20 26 42 26 49 0 19 -18 14 -30 -8 -15
-28 -30 -25 -30 8 l0 27 -33 -39 c-42 -50 -56 -34 -22 26 14 23 25 55 25 70 0
28 -5 31 -70 43 -63 12 -100 26 -100 40 0 7 -15 16 -32 20 -18 3 -54 13 -79
22 -45 16 -48 15 -83 -6 -33 -21 -37 -21 -52 -7 -14 15 -14 16 1 16 8 0 27 7
40 16 55 36 15 121 -61 131 -37 5 -44 2 -77 -32 -21 -21 -37 -43 -38 -49 0 -6
-5 2 -9 17 -8 25 -4 33 27 60 20 18 43 36 52 41 9 5 25 17 36 26 23 20 73 31
81 19 3 -5 14 -5 24 1 10 5 38 10 61 10 36 0 40 -2 29 -15 -7 -9 -29 -15 -51
-15 -42 0 -47 -6 -24 -36 8 -10 15 -33 15 -51 0 -40 43 -69 126 -84 33 -6 76
-22 97 -35 25 -17 49 -24 70 -22 28 3 32 7 32 33 0 28 -3 30 -52 39 -81 14
-68 46 19 46 41 0 41 0 22 21 -10 11 -50 35 -89 54 -38 18 -79 40 -90 48 -19
16 -19 16 11 17 19 0 38 -8 49 -20 15 -16 26 -19 54 -14 20 4 38 8 40 10 2 2
-6 18 -17 37 -14 24 -17 39 -10 51 7 13 3 18 -19 27 -40 16 -142 -3 -218 -40
-34 -17 -69 -31 -76 -31 -25 1 31 36 86 55 34 11 55 25 58 36 5 17 -2 19 -76
20 l-82 2 58 7 c71 9 77 14 40 33 -61 31 -128 29 -217 -8 -18 -8 -18 -7 -2 17
9 14 26 28 38 31 17 5 19 9 9 21 -10 12 -8 15 7 20 17 6 19 13 14 51 -3 29 0
50 8 60 17 21 30 3 30 -41 0 -37 16 -52 97 -93 46 -23 76 -31 115 -31 50 0 55
2 78 37 14 20 27 45 30 57 4 15 21 24 70 36 74 17 83 32 52 84 -11 18 -23 47
-27 64 -5 27 -11 31 -48 35 -23 2 -63 13 -89 23 -44 17 -48 17 -66 1 -22 -20
-53 -23 -48 -4 3 6 7 24 10 40 5 23 11 27 41 27 18 0 44 -4 57 -9 19 -7 31 -1
73 35 34 30 44 44 32 44 -10 0 -29 12 -42 26 -18 20 -31 25 -48 20 -13 -3 -27
-3 -30 1 -12 11 27 32 61 33 25 0 32 -4 32 -20 0 -17 7 -20 44 -20 36 0 48 5
65 26 22 27 29 94 11 94 -5 0 -10 5 -10 10 0 6 7 10 15 10 20 0 19 29 0 37 -9
3 -24 -2 -34 -11 -16 -15 -19 -15 -31 -1 -18 22 -29 19 -36 -10 -5 -21 -11
-24 -43 -23 -20 1 -48 -2 -62 -6 -24 -7 -26 -6 -22 18 4 17 12 26 24 26 62 0
96 60 44 80 -14 5 -25 14 -25 20 0 17 -101 12 -122 -7 -22 -20 -24 -6 -2 25 8
12 24 22 35 22 27 0 24 12 -11 35 -42 28 -45 44 -10 52 17 3 33 10 36 14 10
17 29 8 46 -22 13 -22 24 -30 40 -27 37 5 36 64 -2 139 -17 34 -29 68 -26 75
3 9 -1 14 -12 14 -25 0 -95 98 -88 124 4 16 -4 29 -32 51 -20 17 -42 29 -47
27 -6 -1 -16 18 -23 42 -13 51 -44 85 -85 93 -39 8 -42 23 -16 74 33 65 41 69
147 62 l92 -6 0 30 c0 47 -31 125 -59 150 -34 29 -81 31 -81 3 0 -26 -8 -25
-75 4 -48 22 -55 28 -55 53 l0 28 20 -25 c16 -21 20 -22 20 -7 0 10 -5 28 -11
39 -11 20 -9 21 25 15 19 -3 38 -1 42 4 11 19 -7 60 -31 71 -14 6 -25 16 -25
22 -1 20 -77 47 -122 44 l-43 -3 -3 -82 c-2 -65 -6 -83 -17 -83 -12 0 -15 16
-16 68 -2 104 1 115 34 150 l31 32 -28 0 c-15 0 -35 -4 -45 -10 -17 -9 -19 -2
-24 88 -4 53 -9 108 -12 122 -3 14 -1 32 4 40 8 12 15 12 44 2 70 -25 109 23
72 88 -8 14 -14 39 -15 57 0 17 -3 39 -6 47 -6 15 -8 15 -20 -1 -12 -16 -13
-14 -14 19 0 31 -7 42 -38 68 -36 28 -39 35 -40 85 -1 53 -1 54 36 72 37 18
37 19 46 96 10 95 3 107 -45 72 -19 -13 -44 -29 -55 -34 -42 -19 -64 -60 -64
-117 0 -30 -4 -54 -9 -54 -12 0 -23 91 -19 159 l3 55 45 1 c55 1 147 46 160
78 9 23 24 76 24 91 1 5 -19 15 -43 22 -37 11 -49 11 -72 -2 -15 -7 -31 -18
-34 -24 -3 -5 -21 -10 -38 -9 -27 0 -29 2 -12 9 12 4 33 26 48 49 24 36 32 41
66 41 37 0 71 23 71 48 0 6 8 13 18 16 9 3 23 15 29 25 11 17 8 24 -17 51 -25
27 -28 35 -18 53 6 12 19 28 29 37 10 8 30 55 45 105 l25 90 -26 22 c-14 13
-38 25 -53 28 -15 3 -46 10 -70 15 -80 19 -107 8 -142 -58 -10 -21 -14 -22
-28 -9 -37 31 -48 33 -29 4 21 -32 21 -37 2 -37 -11 0 -14 -12 -12 -52 2 -58
7 -53 -69 -57 -13 -1 -26 -13 -36 -33 l-15 -33 -17 57 c-14 50 -36 78 -60 78
-3 0 -5 -39 -4 -87 1 -91 -28 -234 -58 -280 -8 -12 -14 -46 -14 -76 0 -37 -5
-59 -16 -68 -13 -11 -14 -9 -9 17 4 16 8 35 11 42 2 7 0 22 -5 35 -5 14 -5 30
1 40 16 30 40 220 34 272 -7 54 -53 202 -65 210 -4 2 -30 -4 -57 -14 -53 -21
-53 -21 -43 -116 4 -39 1 -42 -66 -105 -61 -57 -70 -62 -73 -44 -2 12 11 42
27 67 24 34 31 56 31 91 l0 46 -87 -6 c-76 -5 -98 -11 -155 -43 -98 -52 -178
-113 -184 -138 -8 -30 -44 -31 -44 -2 0 37 39 87 111 145 87 69 140 94 205 94
76 0 139 23 188 68 24 22 58 43 75 47 29 6 32 10 30 38 -2 22 6 45 24 72 15
22 27 43 27 46 0 9 -107 89 -119 89 -5 0 -11 -4 -13 -9 -4 -13 -90 10 -104 28
-9 11 -16 6 -38 -30 l-28 -44 7 47 c5 41 -7 90 -31 117 -1 2 -17 -13 -34 -33
l-32 -36 -87 0 c-98 0 -157 -21 -180 -62 -12 -24 -42 -38 -116 -53 l-30 -7 23
24 c12 14 22 30 22 36 0 9 4 9 19 0 16 -10 25 -6 58 20 50 39 83 52 133 52 31
0 50 9 92 43 63 52 76 91 33 107 -14 5 -68 10 -119 10 -71 0 -97 4 -106 15
-15 18 -16 18 -55 0z"/>
<path d="M4506 9698 c-22 -30 -20 -51 5 -74 12 -10 27 -31 35 -46 8 -16 19
-28 24 -28 14 0 12 47 -2 73 -6 12 -14 37 -17 56 -7 42 -24 49 -45 19z"/>
<path d="M3127 4757 l-38 -9 7 -47 c4 -26 17 -59 31 -75 30 -36 24 -42 -17
-21 -17 9 -38 14 -45 11 -19 -7 -23 -47 -7 -79 13 -27 12 -28 -7 -17 -18 9
-21 8 -21 -12 0 -33 24 -63 60 -78 17 -7 38 -27 47 -44 15 -29 15 -30 -1 -17
-13 11 -20 11 -29 2 -20 -20 16 -64 65 -79 69 -21 203 5 254 50 51 45 46 113
-12 148 -37 24 -74 77 -74 108 0 25 -56 92 -76 92 -7 0 -18 8 -23 19 -6 10
-25 27 -43 38 -27 15 -40 17 -71 10z"/>
</g>
</svg>
