<?xml version="1.0" standalone="no"?>
<!DOCTYPE svg PUBLIC "-//W3C//DTD SVG 20010904//EN"
 "http://www.w3.org/TR/2001/REC-SVG-20010904/DTD/svg10.dtd">
<svg version="1.0" xmlns="http://www.w3.org/2000/svg"
 width="1024.000000pt" height="1024.000000pt" viewBox="0 0 1024.000000 1024.000000"
 preserveAspectRatio="xMidYMid meet">
<metadata>
Created by potrace 1.10, written by Peter Selinger 2001-2011
</metadata>
<g transform="translate(0.000000,1024.000000) scale(0.100000,-0.100000)"
fill="#000000" stroke="none">
<path d="M3040 7987 c-41 -13 -106 -42 -145 -65 -82 -50 -72 -47 -244 -62
l-134 -11 -56 -48 c-31 -27 -85 -63 -121 -81 -36 -18 -91 -51 -123 -74 l-58
-41 4 -60 c4 -58 3 -61 -32 -95 -28 -27 -39 -48 -48 -93 -15 -74 -69 -148
-140 -194 -60 -38 -83 -79 -83 -149 l0 -44 -70 -35 c-39 -20 -91 -51 -116 -70
-29 -22 -57 -35 -75 -35 -35 0 -125 -35 -154 -60 -11 -10 -33 -22 -50 -27 -16
-5 -34 -18 -40 -29 -9 -17 -18 -18 -71 -13 -33 3 -66 9 -73 13 -31 20 -152 25
-222 11 -50 -11 -82 -12 -111 -6 -53 12 -78 2 -110 -46 -22 -33 -34 -41 -74
-49 -46 -9 -49 -11 -56 -49 -10 -45 -17 -52 -145 -137 -62 -41 -93 -69 -98
-85 -10 -43 -48 -71 -113 -83 -40 -8 -68 -20 -83 -36 -12 -13 -32 -24 -43 -24
-40 0 -49 -14 -29 -47 16 -29 16 -34 1 -85 -13 -40 -15 -74 -11 -140 5 -78 4
-89 -17 -120 -12 -18 -34 -43 -49 -56 l-26 -23 48 -43 c43 -39 47 -46 47 -89
0 -40 -8 -58 -54 -125 -30 -44 -57 -94 -61 -112 -6 -29 -2 -37 35 -75 l43 -44
48 25 c63 32 149 32 149 0 0 -6 12 -44 27 -83 l28 -73 53 0 c33 0 67 7 91 19
36 19 38 23 50 92 10 61 18 80 52 120 39 47 42 48 66 35 15 -7 38 -31 52 -52
24 -34 34 -41 86 -51 33 -7 128 -16 210 -19 91 -3 168 -12 195 -21 108 -36
218 -63 257 -63 37 0 46 -5 81 -46 29 -35 47 -69 66 -134 l26 -87 227 -136
228 -136 155 -3 155 -4 103 -69 c91 -61 107 -76 138 -130 35 -65 43 -117 21
-146 -7 -9 -47 -32 -90 -52 l-77 -36 0 -68 c1 -69 15 -123 43 -167 16 -24 17
-24 69 -10 51 13 54 13 102 -14 41 -24 52 -36 68 -80 l19 -52 -54 -61 c-50
-56 -55 -67 -61 -121 -4 -33 -6 -61 -4 -63 2 -2 83 -33 180 -69 142 -53 189
-66 234 -66 40 0 67 -6 90 -21 l34 -21 41 32 c25 21 53 58 75 101 19 38 37 69
40 69 3 0 32 -6 63 -14 31 -8 68 -17 82 -20 22 -5 29 -15 44 -72 17 -62 17
-68 1 -100 -22 -47 -20 -60 17 -127 30 -55 37 -61 107 -92 73 -33 81 -34 280
-45 202 -12 207 -12 341 -57 74 -24 140 -48 145 -51 5 -4 24 -38 41 -77 l32
-70 122 -75 122 -75 -7 -92 c-6 -92 -6 -94 29 -162 19 -38 43 -72 53 -75 11
-4 27 -25 37 -47 17 -36 72 -79 102 -79 5 0 17 38 27 85 l19 85 64 20 c36 11
66 20 67 20 1 0 27 -18 57 -40 l54 -41 145 7 c175 7 252 27 368 95 l83 48 107
-14 c91 -12 109 -17 122 -36 8 -13 51 -70 95 -128 85 -112 88 -114 192 -125
l58 -6 58 52 58 53 -26 75 c-26 76 -26 100 -2 100 7 0 52 -16 100 -35 60 -24
103 -35 139 -35 29 0 95 -11 147 -25 l94 -24 42 47 c41 46 46 48 156 74 63 15
151 29 197 32 82 5 83 6 150 60 61 50 69 54 87 41 17 -11 26 -10 68 14 38 21
47 30 42 46 -3 11 -8 38 -11 60 -5 36 -2 44 36 82 22 23 65 56 96 73 30 18 59
42 63 54 4 11 18 71 30 131 l23 110 75 55 c41 30 77 58 79 62 3 5 -6 23 -20
41 -43 56 -44 102 -3 183 22 44 51 82 79 105 l44 37 175 7 c137 6 183 11 218
26 24 10 49 19 55 19 29 -1 262 -93 327 -130 l74 -42 75 20 c75 20 75 20 120
1 40 -18 51 -19 111 -8 l65 12 99 -62 c76 -49 109 -64 149 -68 28 -3 65 -14
82 -24 26 -16 52 -19 141 -19 61 0 131 3 156 6 45 6 48 9 72 61 24 54 99 292
93 298 -2 1 -36 30 -75 64 l-73 62 0 101 0 101 -51 52 c-38 39 -64 56 -95 64
-24 6 -44 15 -44 19 0 4 -30 30 -66 57 -84 63 -204 191 -204 217 0 10 -22 43
-49 71 -57 62 -131 185 -131 220 0 24 -3 25 -88 30 -150 10 -198 22 -227 54
-27 30 -27 28 -9 157 l6 43 -88 58 c-49 32 -111 67 -137 78 -43 18 -55 19
-110 9 -34 -6 -73 -20 -87 -30 -14 -10 -62 -24 -112 -32 l-86 -13 -91 58 c-50
31 -149 81 -219 111 -102 43 -135 62 -167 97 -22 23 -55 49 -73 56 -32 13 -34
13 -66 -18 -35 -34 -47 -37 -94 -20 -41 14 -51 51 -61 213 -13 195 -17 201
-343 524 -148 147 -286 277 -306 289 -20 13 -59 30 -87 38 -38 11 -56 23 -75
52 -14 20 -31 42 -37 49 -19 18 -245 90 -343 109 -64 12 -105 28 -165 62 -64
37 -91 47 -135 49 -93 4 -272 30 -335 49 -33 9 -98 35 -145 56 -47 22 -91 39
-97 39 -6 0 -33 10 -60 21 -64 29 -155 48 -225 49 -73 0 -88 7 -88 38 0 37
-55 118 -91 132 -16 7 -35 20 -42 29 -20 28 -130 91 -159 91 -18 0 -46 17 -85
51 -60 53 -132 91 -196 103 -20 4 -42 15 -49 24 -39 52 -215 152 -269 152 -27
0 -64 41 -92 104 -29 63 -51 86 -82 86 -23 0 -50 12 -95 42 -17 12 -52 19
-105 21 -57 3 -99 12 -144 31 -66 27 -115 33 -126 16 -3 -5 -38 -19 -77 -31
l-71 -21 -27 20 c-23 17 -37 19 -91 15 -35 -4 -94 -19 -131 -34 l-68 -28 -42
55 c-42 53 -44 54 -93 53 -27 0 -84 -10 -125 -22z"/>
</g>
</svg>
