<?xml version="1.0" standalone="no"?>
<!DOCTYPE svg PUBLIC "-//W3C//DTD SVG 20010904//EN"
 "http://www.w3.org/TR/2001/REC-SVG-20010904/DTD/svg10.dtd">
<svg version="1.0" xmlns="http://www.w3.org/2000/svg"
 width="1024.000000pt" height="1024.000000pt" viewBox="0 0 1024.000000 1024.000000"
 preserveAspectRatio="xMidYMid meet">
<metadata>
Created by potrace 1.10, written by Peter Selinger 2001-2011
</metadata>
<g transform="translate(0.000000,1024.000000) scale(0.100000,-0.100000)"
fill="#000000" stroke="none">
<path d="M5330 9450 c-37 -32 -53 -39 -87 -40 -47 0 -46 1 -61 -89 -8 -48 -4
-45 -94 -65 -21 -5 -31 -18 -50 -66 -17 -45 -32 -67 -60 -85 -31 -21 -38 -33
-48 -81 -7 -31 -10 -94 -8 -140 l3 -84 -84 0 c-59 0 -105 6 -152 22 l-67 21
-31 -22 -32 -23 -54 36 c-70 46 -138 49 -224 11 -54 -25 -57 -28 -85 -99 l-30
-73 -55 -18 c-31 -10 -86 -20 -123 -23 -64 -4 -69 -6 -88 -39 -15 -25 -20 -52
-20 -101 l0 -67 -45 -28 c-25 -16 -45 -33 -45 -38 0 -6 9 -28 21 -50 l20 -41
-45 -48 c-27 -29 -46 -59 -46 -72 0 -13 -14 -43 -30 -68 -16 -25 -30 -50 -30
-56 0 -5 16 -25 35 -44 l35 -34 70 12 c48 8 84 9 117 2 27 -5 61 -11 77 -12
23 -2 32 -10 41 -39 12 -34 12 -36 -24 -66 -20 -17 -60 -45 -87 -62 -46 -28
-52 -36 -64 -85 -7 -30 -16 -60 -20 -66 -5 -8 -34 -3 -106 19 -135 42 -170 41
-216 -6 -32 -33 -39 -50 -55 -125 l-17 -87 -101 -40 c-55 -22 -120 -45 -145
-51 -25 -7 -84 -32 -132 -57 l-88 -45 0 -77 c0 -73 -2 -79 -30 -106 -17 -16
-36 -50 -44 -78 -14 -46 -13 -60 6 -162 l21 -113 -32 -53 c-18 -30 -45 -66
-58 -81 -22 -23 -25 -33 -19 -67 l6 -40 -75 -57 c-61 -46 -74 -60 -70 -78 3
-11 9 -41 13 -66 7 -43 9 -45 44 -48 27 -2 48 4 75 22 l37 26 43 -68 c24 -37
45 -76 49 -87 3 -12 -2 -54 -10 -95 -9 -41 -16 -78 -16 -82 0 -4 -15 -10 -34
-13 -43 -9 -221 26 -220 43 1 7 2 27 3 46 1 27 6 36 27 43 l26 9 -36 43 c-20
24 -45 54 -55 68 l-19 24 -67 -37 c-65 -36 -67 -36 -122 -25 -31 6 -60 11 -64
11 -4 0 -10 -19 -14 -42 -10 -64 -67 -144 -119 -170 l-44 -21 -30 25 c-16 14
-50 31 -75 38 -44 12 -49 11 -99 -18 l-53 -29 0 -69 c1 -38 4 -92 9 -119 l8
-51 -40 -28 -41 -28 -56 30 -56 31 -67 -32 c-37 -17 -106 -62 -154 -99 -74
-58 -92 -68 -126 -68 l-41 0 -6 48 c-3 26 -7 54 -8 62 -1 8 -21 28 -45 44
l-42 30 -44 -43 -43 -42 -86 18 c-77 15 -91 16 -134 3 -76 -23 -249 -14 -331
16 l-65 25 6 -118 c4 -65 14 -147 22 -183 8 -36 22 -139 30 -228 14 -149 21
-182 76 -365 34 -111 78 -238 99 -282 20 -44 44 -119 54 -166 l18 -85 -24 -49
-25 -49 23 -55 c34 -85 36 -107 25 -373 l-9 -248 -36 -48 c-31 -43 -45 -53
-118 -80 -57 -22 -109 -33 -169 -38 l-85 -6 -94 -77 c-87 -70 -105 -92 -217
-256 -67 -99 -129 -190 -138 -202 -15 -20 -14 -24 15 -71 25 -41 36 -50 68
-56 20 -3 75 -28 122 -54 70 -39 91 -57 119 -100 18 -28 41 -52 50 -52 9 0 33
-17 53 -37 31 -32 39 -50 48 -106 12 -67 12 -69 -19 -126 -18 -34 -31 -74 -31
-94 0 -20 -5 -58 -12 -86 -10 -44 -9 -56 5 -87 l17 -35 -53 -24 -54 -23 -13
-84 c-8 -45 -14 -105 -14 -133 0 -59 19 -214 28 -222 3 -4 24 -1 47 6 39 12
41 14 35 44 -3 18 -8 51 -12 73 l-6 42 51 11 c108 23 233 3 246 -40 6 -18 59
-39 98 -39 10 0 45 18 77 40 33 22 99 62 147 88 86 46 88 49 106 100 9 30 22
86 28 126 l11 72 76 29 c94 36 220 47 370 33 152 -14 343 10 412 53 33 20 68
32 105 36 50 5 64 2 133 -30 l77 -37 188 -6 c137 -5 197 -4 225 5 34 11 45 10
121 -19 78 -28 90 -30 170 -24 l86 6 58 -51 58 -51 120 0 119 0 22 -45 22 -45
108 0 108 0 152 -61 c124 -49 159 -59 188 -54 19 3 76 8 125 11 79 4 93 2 113
-15 23 -20 23 -21 7 -79 -21 -85 -20 -89 23 -96 98 -17 91 -10 85 -77 l-6 -59
62 0 c47 0 73 6 104 24 56 31 102 39 117 21 7 -8 25 -15 40 -15 122 0 156 -27
126 -100 -9 -22 -16 -56 -16 -74 0 -32 3 -34 47 -45 42 -11 48 -10 66 8 19 18
19 25 9 89 -10 60 -9 76 6 121 l17 52 60 -42 c33 -23 72 -56 87 -73 l26 -31
87 43 c62 30 91 51 103 73 28 50 35 56 75 62 36 6 37 5 37 -27 0 -23 9 -41 34
-65 21 -20 38 -50 45 -77 6 -24 14 -44 17 -44 14 0 81 40 98 59 19 21 58 26
102 13 29 -10 150 -154 164 -197 11 -35 47 -61 108 -79 21 -7 22 -5 22 45 0
28 10 79 22 111 19 53 26 62 69 84 30 15 65 24 93 24 43 0 47 2 65 39 30 59
74 91 124 91 64 0 87 -9 87 -34 0 -11 12 -52 26 -91 14 -38 32 -99 39 -135 7
-36 26 -94 41 -128 l27 -64 46 6 c68 9 152 52 176 89 13 20 30 33 47 35 18 2
29 11 36 31 8 22 19 29 56 38 44 10 50 9 76 -14 16 -13 32 -32 35 -42 3 -11
27 -24 64 -36 59 -18 59 -18 93 5 18 13 51 43 73 68 l41 45 94 4 c52 3 110 1
129 -4 30 -8 37 -16 51 -58 14 -45 21 -53 67 -75 52 -25 52 -25 51 -70 -1 -25
4 -64 10 -87 11 -36 18 -43 57 -56 24 -9 64 -29 89 -46 55 -38 74 -39 87 -3 6
15 25 43 43 62 50 52 54 94 16 182 -20 48 -30 90 -30 122 0 65 -18 112 -47
125 -20 9 -23 17 -23 71 0 50 7 74 36 133 20 39 45 84 55 99 11 14 19 34 19
43 0 26 76 212 101 246 11 16 34 36 50 44 20 11 29 23 29 40 0 18 7 26 24 31
13 3 41 23 62 45 21 21 45 39 54 39 17 0 50 30 50 44 0 5 -11 17 -25 28 -20
15 -25 28 -25 61 0 68 3 70 132 66 111 -4 115 -5 155 -37 57 -45 73 -43 73 11
0 42 2 45 40 62 35 16 58 17 193 12 131 -6 162 -4 225 12 41 11 75 21 76 23 0
2 9 13 19 24 18 21 17 23 -30 90 -30 43 -49 82 -53 108 -5 36 -9 41 -47 53
-26 9 -51 27 -65 45 -20 29 -21 35 -10 88 9 40 9 66 2 85 -5 14 -10 44 -10 66
0 22 -9 57 -20 79 -22 43 -17 73 20 110 28 28 26 33 -20 64 -22 14 -40 34 -40
44 0 9 -14 46 -30 80 l-30 64 25 30 c23 27 25 38 25 118 0 105 -4 112 -118
188 -61 41 -84 64 -133 138 -50 76 -59 96 -59 134 0 52 3 58 49 90 33 23 33
24 28 79 -5 50 -3 61 23 102 l29 47 60 -13 c54 -11 63 -11 91 6 35 22 91 24
173 8 52 -11 57 -14 57 -38 0 -53 10 -66 63 -85 34 -12 88 -20 155 -23 94 -4
111 -2 180 23 119 42 140 53 161 90 15 25 31 36 63 45 63 16 95 62 104 150 l7
69 36 5 c20 3 59 17 87 32 38 19 60 24 83 20 l31 -6 0 73 c0 41 -5 97 -12 124
-10 45 -15 52 -52 68 -23 10 -57 36 -76 57 -20 21 -72 56 -119 80 -80 40 -85
44 -97 85 l-12 43 38 27 c21 15 46 32 56 38 18 10 17 14 -16 52 -31 36 -39 41
-69 37 -28 -3 -42 3 -80 34 -47 40 -138 89 -202 110 -32 10 -43 8 -107 -19
-58 -25 -85 -30 -147 -30 -73 0 -165 16 -165 28 0 4 23 72 51 151 l52 144 -57
114 -57 113 -53 0 c-48 0 -58 4 -115 50 -35 28 -82 60 -105 71 -22 12 -78 42
-123 67 -80 45 -81 47 -88 92 -8 55 -64 332 -67 335 -2 1 -33 10 -69 20 -52
13 -69 23 -78 42 -18 40 -13 66 24 104 34 34 73 133 57 143 -4 2 -51 14 -104
26 -98 22 -98 22 -108 59 -5 20 -10 41 -10 48 0 6 -45 45 -100 85 -98 72 -100
74 -100 114 0 30 6 46 25 64 22 20 25 32 25 90 0 62 2 67 30 83 26 16 28 21
20 43 -17 44 -14 47 46 40 l57 -6 -7 37 c-4 21 -9 63 -12 93 -3 30 -10 81 -16
112 -10 53 -15 61 -62 97 -38 28 -55 49 -64 78 -7 22 -21 48 -32 58 -16 14
-20 31 -20 80 l0 62 50 23 c28 13 50 30 50 38 0 8 -7 38 -16 68 -11 39 -12 58
-5 73 6 11 11 70 11 132 l0 112 -90 -6 -90 -6 -19 37 c-16 30 -30 41 -80 60
l-62 24 6 56 6 57 -60 34 c-55 31 -61 38 -61 67 l0 31 -70 7 c-61 6 -76 12
-120 47 -27 21 -54 39 -60 39 -6 0 -28 -11 -50 -25 -48 -30 -48 -30 -104 -4
-44 22 -44 22 -130 4 -86 -18 -86 -18 -142 -82 -49 -55 -60 -63 -91 -63 -33 0
-45 -9 -123 -92 l-86 -91 -59 67 c-74 83 -89 127 -74 211 6 33 20 80 31 104
l19 44 -23 24 c-12 13 -61 50 -108 82 -94 65 -148 81 -268 81 l-64 0 -89 -71
-89 -71 -49 36 c-44 33 -49 40 -54 87 -7 57 -52 119 -98 137 -31 12 -197 -18
-241 -43 -36 -21 -54 -19 -104 10 -36 21 -50 40 -85 110 -23 47 -45 85 -48 85
-3 0 -26 -18 -51 -40z"/>
</g>
</svg>
