<?xml version="1.0" standalone="no"?>
<!DOCTYPE svg PUBLIC "-//W3C//DTD SVG 20010904//EN"
 "http://www.w3.org/TR/2001/REC-SVG-20010904/DTD/svg10.dtd">
<svg version="1.0" xmlns="http://www.w3.org/2000/svg"
 width="1024.000000pt" height="1024.000000pt" viewBox="0 0 1024.000000 1024.000000"
 preserveAspectRatio="xMidYMid meet">
<metadata>
Created by potrace 1.10, written by Peter Selinger 2001-2011
</metadata>
<g transform="translate(0.000000,1024.000000) scale(0.100000,-0.100000)"
fill="#000000" stroke="none">
<path d="M0 5120 l0 -2640 703 4 c386 3 2681 9 5100 14 2419 6 4400 12 4402
14 1 1 6 833 9 1847 4 1142 11 1851 16 1862 19 34 12 41 -29 34 -36 -6 -39 -5
-49 24 -6 17 -13 31 -16 31 -3 0 -21 -9 -40 -21 -43 -25 -64 -19 -93 26 -15
22 -35 37 -55 43 -30 7 -33 12 -36 50 -3 34 -9 44 -36 62 -36 22 -68 78 -68
117 -1 13 9 34 21 47 30 32 26 39 -19 32 -38 -6 -41 -4 -64 32 -13 22 -47 55
-74 75 -28 20 -53 46 -57 59 -4 13 -25 44 -47 71 -31 37 -39 54 -36 79 3 29 7
33 41 39 48 8 49 10 36 47 -16 48 21 107 84 131 23 9 27 16 27 50 0 54 20 69
66 48 19 -10 43 -17 54 -17 28 0 35 41 15 80 -9 18 -14 42 -11 55 7 27 -13 52
-49 61 -28 7 -37 26 -29 61 4 16 2 28 -7 34 -20 12 -89 11 -89 -1 0 -24 -50
-60 -82 -60 -39 0 -98 33 -98 55 0 13 -8 15 -44 10 -48 -8 -61 6 -50 50 5 18
0 24 -25 33 -17 6 -53 31 -79 56 l-49 46 -4622 0 -4621 0 0 -2640z"/>
</g>
</svg>
