<?xml version="1.0" standalone="no"?>
<!DOCTYPE svg PUBLIC "-//W3C//DTD SVG 20010904//EN"
 "http://www.w3.org/TR/2001/REC-SVG-20010904/DTD/svg10.dtd">
<svg version="1.0" xmlns="http://www.w3.org/2000/svg"
 width="1024.000000pt" height="1024.000000pt" viewBox="0 0 1024.000000 1024.000000"
 preserveAspectRatio="xMidYMid meet">
<metadata>
Created by potrace 1.10, written by Peter Selinger 2001-2011
</metadata>
<g transform="translate(0.000000,1024.000000) scale(0.100000,-0.100000)"
fill="#000000" stroke="none">
<path d="M6220 10230 c0 -6 -11 -22 -25 -35 -18 -19 -35 -25 -68 -25 l-45 0
29 -74 29 -74 -30 -71 c-16 -39 -41 -87 -56 -106 -15 -20 -25 -37 -23 -38 2
-2 19 -12 37 -23 l32 -20 -31 -42 c-17 -23 -33 -42 -35 -42 -2 0 -49 22 -103
49 l-98 50 -124 2 c-75 1 -135 -2 -151 -9 -26 -11 -28 -16 -28 -64 0 -29 7
-81 15 -116 l15 -63 -40 -79 -40 -79 -84 40 -85 41 -28 -20 c-15 -11 -49 -42
-75 -69 -46 -47 -59 -80 -114 -273 -2 -9 -19 -23 -37 -33 -26 -14 -37 -30 -50
-69 l-16 -51 30 -44 c30 -43 30 -44 23 -139 l-7 -95 -57 -52 c-46 -42 -64 -67
-86 -122 -17 -43 -53 -101 -92 -150 l-63 -80 5 -63 c7 -85 -3 -103 -77 -135
-51 -22 -77 -27 -143 -27 l-81 0 8 -42 c32 -169 32 -174 0 -332 -17 -82 -31
-174 -31 -204 0 -38 -6 -62 -20 -82 -11 -16 -23 -43 -27 -61 -3 -18 -64 -120
-135 -226 -70 -106 -128 -195 -128 -196 0 -2 29 -25 65 -52 71 -54 68 -46 79
-201 7 -87 -17 -155 -64 -179 -29 -15 -33 -14 -129 35 -106 53 -129 56 -193
23 -52 -26 -133 -107 -179 -178 -26 -40 -63 -91 -84 -114 -39 -43 -39 -45 -20
-122 4 -18 -6 -41 -44 -92 l-49 -68 30 -92 31 -92 -31 -51 c-29 -47 -31 -54
-23 -104 8 -48 6 -60 -17 -108 l-27 -53 28 -107 27 -107 -25 -200 c-13 -110
-25 -216 -25 -236 0 -47 47 -114 87 -122 23 -5 37 -21 75 -90 l47 -84 -14 -58
c-7 -32 -20 -62 -29 -67 -9 -5 -25 -26 -36 -47 -19 -37 -20 -38 -86 -44 -40
-3 -72 -11 -81 -20 -14 -14 -13 -18 6 -43 11 -14 21 -38 21 -51 0 -36 49 -225
65 -249 21 -33 8 -112 -27 -157 -28 -36 -30 -43 -24 -97 l7 -59 -83 -80 c-80
-78 -84 -81 -121 -75 -57 9 -77 -13 -64 -71 13 -56 -5 -105 -38 -105 -28 0
-55 -39 -55 -77 0 -15 7 -53 15 -83 18 -67 21 -139 8 -165 -6 -11 -13 -36 -17
-55 -3 -19 -15 -53 -25 -75 -11 -22 -24 -52 -30 -67 -6 -17 -19 -29 -31 -30
-55 -4 -55 -4 -52 28 5 46 -35 144 -58 144 -32 0 -71 -42 -70 -75 1 -16 3
-103 6 -193 2 -90 8 -172 14 -182 15 -28 12 -40 -10 -40 -33 0 -24 -34 13 -51
20 -9 33 -22 35 -36 2 -13 7 -23 12 -23 14 0 50 -42 50 -58 0 -10 -7 -12 -24
-8 -18 4 -29 1 -40 -15 -13 -19 -13 -23 5 -43 18 -18 48 -27 102 -27 9 0 17
-4 17 -10 0 -5 -10 -9 -23 -9 -12 0 -39 -11 -60 -25 -36 -25 -37 -26 -21 -50
17 -27 29 -31 39 -15 3 6 19 17 35 25 l29 15 -6 -38 c-3 -20 -14 -47 -25 -58
-17 -19 -18 -25 -7 -43 8 -11 20 -22 29 -24 10 -2 6 -8 -13 -17 -38 -18 -31
-44 13 -50 23 -3 31 -8 23 -13 -18 -11 -16 -32 3 -51 8 -9 12 -21 9 -27 -22
-34 -13 -189 10 -189 7 0 23 21 35 48 25 52 37 44 21 -13 -7 -26 -7 -42 1 -55
9 -14 9 -22 -2 -35 -11 -13 -11 -18 -1 -25 9 -5 10 -9 2 -14 -8 -5 -5 -16 9
-34 13 -16 19 -34 16 -48 -4 -15 3 -32 21 -53 15 -17 27 -43 28 -58 0 -22 7
-31 32 -42 39 -17 71 -76 75 -138 2 -24 8 -43 14 -43 7 0 14 -10 17 -21 5 -17
12 -21 37 -17 26 4 31 1 37 -20 9 -35 -19 -116 -41 -120 -10 -2 -22 2 -26 8
-6 10 -15 10 -39 -1 -36 -16 -39 -29 -11 -54 11 -10 20 -24 20 -32 0 -7 7 -16
15 -19 8 -4 15 -17 15 -30 0 -35 -39 -32 -75 6 -30 32 -65 40 -65 15 0 -21 30
-96 52 -127 10 -15 27 -53 38 -84 18 -57 18 -57 -2 -74 -26 -21 -19 -34 33
-60 34 -18 39 -24 37 -52 -3 -26 2 -35 25 -46 49 -24 25 -75 -41 -88 -37 -8
-42 -32 -12 -59 27 -25 25 -49 -5 -63 -29 -13 -33 -32 -7 -32 9 0 29 -6 43
-14 14 -7 43 -16 65 -20 21 -4 54 -16 73 -27 l34 -20 45 32 c34 25 57 33 91
34 25 1 56 5 69 9 16 5 35 0 67 -18 53 -32 105 -35 105 -7 0 10 7 21 15 24 8
4 24 25 35 48 22 43 21 54 -11 109 -23 39 -27 59 -18 103 9 51 42 103 71 113
9 3 25 18 35 35 20 34 32 36 64 10 34 -26 74 -12 65 24 -20 81 -21 75 15 77
19 0 41 0 49 -1 55 -7 91 -7 96 0 9 15 44 10 44 -5 0 -24 19 -29 45 -12 13 9
31 13 40 10 8 -4 21 -2 28 3 30 21 117 -8 117 -39 0 -23 25 -23 49 1 26 26 67
107 86 171 9 30 25 75 35 100 10 25 21 58 25 73 3 16 15 31 28 36 29 11 42 54
58 186 7 63 17 103 25 108 19 11 18 72 -1 91 -17 17 -20 42 -5 51 6 3 10 17
10 31 0 13 5 24 10 24 6 0 10 6 10 14 0 8 8 21 19 28 10 7 24 31 30 53 7 22
17 54 23 70 17 51 15 60 -9 58 -33 -4 -30 35 4 63 l27 21 -37 50 c-48 66 -48
77 2 69 35 -5 39 -4 45 18 3 14 1 37 -6 51 -9 21 -9 28 1 35 8 5 12 18 9 33
-3 17 0 28 10 32 8 3 12 11 9 19 -3 7 0 19 6 25 8 8 5 19 -11 40 -15 21 -18
31 -9 34 8 3 4 12 -11 30 -16 17 -20 26 -11 29 21 7 2 37 -34 52 -19 8 -38 19
-41 25 -9 15 -4 14 45 -5 35 -14 46 -15 80 -4 30 10 39 18 39 35 0 17 -7 24
-29 28 -23 5 -28 10 -24 26 4 16 -2 22 -28 30 -33 10 -32 10 11 6 95 -10 116
-2 104 39 -5 16 -2 18 20 12 19 -5 29 -1 38 14 9 13 24 20 45 20 26 0 34 5 39
25 3 14 12 25 20 25 8 0 14 10 14 26 0 14 4 23 10 19 6 -3 10 1 10 9 0 9 6 15
13 14 7 -2 11 7 10 25 -2 29 6 34 24 16 7 -7 13 3 18 37 4 27 13 56 19 66 11
16 12 11 8 -31 -3 -40 1 -60 24 -108 l28 -58 6 32 c12 55 58 122 99 143 21 10
41 26 44 35 4 8 18 20 32 27 33 15 41 44 19 69 -19 21 -13 24 16 9 16 -8 26
-4 54 24 32 33 34 37 23 66 -13 36 -35 45 -102 45 -51 0 -75 17 -33 24 13 1
39 21 59 42 20 22 45 39 57 39 13 0 22 6 22 15 0 9 8 19 18 22 23 9 33 25 26
46 -5 15 -2 16 22 7 34 -13 42 -6 19 20 -20 22 -10 30 35 27 22 -2 25 2 26 33
1 19 4 43 8 52 9 19 -25 58 -49 58 -8 0 -15 8 -15 18 0 20 -20 77 -38 108 -10
19 -18 21 -57 17 -43 -5 -45 -5 -45 20 0 15 8 34 19 44 27 26 37 63 17 63 -9
0 -18 11 -22 25 -3 13 -12 29 -20 36 -8 6 -14 24 -14 39 0 34 -25 59 -42 42
-9 -9 -8 -21 5 -47 9 -20 17 -40 17 -45 0 -18 -40 -10 -57 10 -10 11 -21 20
-26 20 -12 0 -46 42 -47 58 0 6 -7 12 -15 12 -11 0 -15 11 -15 40 0 37 -2 40
-28 40 -15 0 -44 -11 -65 -25 -20 -14 -42 -23 -47 -20 -6 3 -10 24 -10 46 l0
39 -55 0 c-48 0 -55 2 -55 20 0 12 -7 20 -17 20 -15 0 -14 2 3 14 22 17 27 66
6 66 -8 0 -13 9 -11 23 1 12 -3 35 -9 50 -15 36 -15 37 5 59 15 17 15 18 0 18
-19 0 -18 -2 -23 65 -2 34 1 54 12 66 10 11 13 26 8 43 -4 16 -2 26 5 26 16 0
13 30 -4 36 -21 8 -27 38 -14 68 9 19 9 32 1 49 -22 45 -24 68 -7 93 10 16 14
35 11 50 -7 28 -4 28 40 12 22 -8 37 -22 43 -40 17 -49 31 -37 46 39 6 29 5
31 -23 29 -28 -2 -29 0 -22 26 7 22 5 28 -9 33 -15 4 -17 14 -14 48 2 23 9 54
15 69 5 15 8 31 5 35 -3 5 5 31 18 58 15 31 22 58 18 73 -5 22 -4 23 15 11 17
-11 24 -11 34 -1 9 9 3 15 -26 27 -20 9 -40 23 -43 33 -4 9 -13 22 -20 27 -11
8 -12 17 -3 40 6 16 9 38 6 50 -3 11 -1 27 4 34 7 12 11 12 24 2 9 -8 16 -19
16 -27 0 -16 36 -37 50 -29 5 3 7 12 3 20 -9 24 5 49 20 36 15 -12 37 3 37 25
0 6 9 14 20 17 26 7 38 37 18 48 -20 11 -20 67 0 101 18 31 32 36 32 13 0 -21
8 -19 35 13 13 15 22 34 19 44 -6 21 14 34 22 14 7 -19 24 -20 47 -3 15 11 15
15 3 39 -13 25 -13 27 7 30 12 2 22 10 22 18 0 11 -12 15 -40 16 -58 2 -60 3
-49 14 6 6 28 11 49 12 46 2 76 27 68 58 -4 17 5 32 42 68 l48 46 19 -24 c18
-22 19 -22 38 -5 11 10 22 27 26 39 3 11 14 30 24 41 10 11 20 33 22 49 2 24
9 31 37 38 34 9 35 14 16 61 -4 9 -3 17 3 17 11 0 62 -64 62 -78 0 -6 9 -8 20
-5 14 4 20 14 20 35 0 37 35 83 63 83 18 0 21 5 19 29 -3 25 -1 28 18 23 28
-7 50 1 50 20 0 8 5 24 11 35 11 20 12 20 27 -13 l15 -34 9 38 c6 20 16 37 24
37 8 0 14 6 14 14 0 8 10 16 21 18 16 2 25 15 35 46 7 24 19 51 27 60 16 18
57 126 57 151 0 8 29 42 64 75 35 34 75 84 90 113 28 56 36 97 14 75 -16 -16
-28 -15 -28 3 0 8 -5 15 -10 15 -6 0 -8 10 -4 24 4 18 1 27 -14 35 -11 6 -22
8 -24 5 -3 -2 -12 6 -21 20 -15 22 -15 25 0 30 14 6 14 8 -1 24 -9 10 -16 23
-16 28 0 5 -9 17 -20 27 -24 20 -25 31 -5 51 8 8 15 22 15 31 0 11 5 15 15 12
11 -5 13 0 8 23 -5 26 -3 30 16 30 12 0 20 4 17 9 -8 12 32 61 50 61 11 0 13
6 8 23 -4 12 -7 30 -6 40 0 10 -10 41 -24 70 -13 29 -24 61 -24 73 0 23 32 58
43 47 4 -3 7 -2 7 4 0 7 15 9 39 6 62 -8 106 41 61 69 -29 19 -24 28 14 28 19
0 38 5 41 10 3 6 21 10 39 10 l33 0 -11 35 c-7 22 -14 31 -20 25 -6 -6 -14
-10 -18 -10 -12 0 -10 48 2 55 6 3 10 1 10 -5 0 -6 4 -9 8 -6 5 3 9 25 9 50 1
56 9 71 29 55 8 -6 14 -17 14 -25 0 -15 35 -28 51 -18 7 4 9 24 6 50 -2 24 -2
46 1 49 9 9 42 -27 42 -46 0 -10 5 -21 10 -24 6 -3 10 -17 10 -29 0 -27 29
-59 31 -35 1 8 1 17 0 22 0 4 6 7 14 7 9 0 15 -9 15 -22 0 -23 0 -23 20 2 11
14 20 40 20 58 0 29 3 33 20 28 11 -3 29 -9 40 -12 28 -8 157 15 193 33 21 11
27 19 21 31 -4 9 -14 37 -23 62 -9 25 -22 55 -29 67 -7 12 -12 31 -12 43 0 13
-12 26 -35 37 -40 19 -68 69 -82 148 -8 45 -6 56 20 110 27 55 29 65 24 137
-4 48 -3 78 3 78 15 0 11 31 -8 66 -9 17 -28 51 -41 75 -13 24 -26 46 -30 49
-16 13 -51 91 -51 114 0 19 7 29 26 37 26 9 26 12 20 66 -8 69 -15 79 -67 87
-39 6 -40 7 -34 39 3 17 11 42 18 55 9 18 8 30 -4 55 -38 78 -39 110 -2 179
12 24 12 31 -1 55 -8 15 -26 38 -40 50 -14 13 -26 32 -26 43 0 20 -9 24 -41
21 -12 -1 -19 9 -24 36 -10 55 -32 92 -63 106 -15 6 -29 14 -32 18 -12 15 -91
49 -115 49 -14 0 -25 5 -25 10 0 6 -11 10 -25 10 -38 0 -83 26 -99 59 -9 16
-26 31 -40 35 -14 3 -27 15 -31 25 -3 11 -21 29 -40 40 -19 11 -35 27 -35 36
0 8 -17 25 -38 39 -20 13 -43 31 -51 40 -8 9 -28 16 -48 16 -30 0 -34 3 -28
18 16 39 17 53 1 77 -9 13 -16 33 -16 43 0 18 -18 42 -32 42 -4 0 -8 -5 -8
-10z"/>
<path d="M5977 1910 c-21 -24 -34 -30 -65 -30 -31 0 -41 -4 -45 -20 -3 -11
-10 -20 -16 -20 -6 0 -11 9 -11 20 0 26 -34 27 -52 1 -7 -10 -28 -26 -46 -35
-24 -12 -40 -33 -62 -82 -19 -42 -45 -80 -72 -104 -43 -38 -43 -38 -29 -71 22
-54 26 -130 7 -141 -20 -11 -21 -34 -2 -45 12 -7 23 -44 30 -103 1 -14 10 -26
19 -28 18 -4 24 -22 6 -22 -5 0 -16 -15 -24 -34 -8 -19 -19 -38 -25 -41 -19
-12 1 -25 39 -25 44 0 61 25 54 77 -4 22 1 37 14 50 11 11 18 24 16 29 -5 15
72 74 96 74 30 0 37 21 11 40 -21 15 -21 18 -5 33 9 9 36 29 61 43 24 14 44
30 44 35 0 5 -13 15 -28 23 -42 22 -57 43 -43 60 7 8 11 29 10 48 -5 65 0 88
19 88 21 0 42 18 42 37 0 8 16 27 35 44 19 17 35 37 35 45 0 8 11 24 24 35 25
21 25 49 1 49 -7 0 -25 -13 -38 -30z"/>
<path d="M5112 1438 c-11 -24 -30 -79 -42 -123 -22 -82 -81 -201 -110 -222
-15 -11 -23 -27 -84 -167 -27 -62 -35 -143 -15 -163 7 -7 10 -38 7 -82 -4 -69
-3 -70 17 -57 29 19 54 75 55 122 0 38 14 86 54 189 8 22 15 49 16 61 0 12 10
36 23 55 28 42 44 83 50 131 3 21 19 66 36 102 17 35 31 75 31 89 0 13 9 36
20 49 19 24 19 26 1 42 -27 24 -36 20 -59 -26z"/>
</g>
</svg>
