<?xml version="1.0" standalone="no"?>
<!DOCTYPE svg PUBLIC "-//W3C//DTD SVG 20010904//EN"
 "http://www.w3.org/TR/2001/REC-SVG-20010904/DTD/svg10.dtd">
<svg version="1.0" xmlns="http://www.w3.org/2000/svg"
 width="1024.000000pt" height="1024.000000pt" viewBox="0 0 1024.000000 1024.000000"
 preserveAspectRatio="xMidYMid meet">
<metadata>
Created by potrace 1.10, written by Peter Selinger 2001-2011
</metadata>
<g transform="translate(0.000000,1024.000000) scale(0.100000,-0.100000)"
fill="#000000" stroke="none">
<path d="M6838 10222 c-48 -31 -188 -189 -188 -211 0 -12 -14 -50 -31 -84 -61
-121 -129 -216 -261 -369 l-47 -54 -16 -170 c-9 -93 -18 -176 -20 -185 -3 -8
4 -42 16 -75 13 -36 24 -99 29 -161 4 -56 12 -109 19 -117 9 -11 7 -27 -10
-73 -12 -32 -24 -72 -26 -89 -3 -21 -23 -49 -59 -85 l-54 -53 0 -93 c0 -59 -4
-93 -11 -93 -6 0 -33 -10 -60 -22 -41 -17 -62 -36 -110 -99 -48 -63 -59 -85
-59 -116 0 -26 -10 -50 -30 -77 -16 -22 -33 -55 -36 -75 -9 -48 -44 -100 -71
-107 -12 -3 -33 -19 -47 -35 -14 -16 -31 -29 -36 -29 -6 0 -10 -17 -10 -37 0
-21 -7 -47 -15 -57 -8 -11 -15 -36 -15 -55 0 -25 -8 -44 -28 -66 -16 -16 -34
-49 -41 -73 -8 -28 -32 -65 -66 -102 -75 -81 -80 -93 -67 -154 6 -28 13 -101
15 -163 4 -108 6 -114 36 -152 l31 -39 -71 -130 c-70 -127 -72 -130 -148 -179
-69 -46 -83 -52 -149 -57 l-72 -6 -44 46 c-42 43 -47 46 -83 40 -21 -3 -76
-10 -123 -15 -47 -5 -96 -14 -111 -19 -49 -19 -114 -147 -97 -192 5 -14 8 -37
5 -52 -4 -30 7 -38 53 -38 45 0 78 -37 81 -90 3 -40 -3 -55 -50 -127 -49 -76
-59 -86 -146 -137 -115 -69 -202 -93 -261 -72 -35 12 -39 16 -36 43 2 18 -3
35 -13 43 -13 11 -19 10 -36 -6 -11 -10 -27 -33 -34 -51 -11 -25 -21 -33 -50
-39 -22 -4 -47 -2 -63 6 -62 28 -305 50 -342 30 -17 -9 -26 -7 -51 14 -33 28
-62 35 -53 13 5 -15 -35 -37 -66 -37 -11 0 -35 -11 -55 -25 -92 -62 -204 -83
-323 -60 -33 6 -44 13 -48 31 -7 27 -14 29 -36 11 -10 -7 -18 -33 -20 -69 -3
-42 -12 -66 -32 -92 -25 -33 -31 -36 -78 -36 -42 0 -66 -9 -151 -55 -130 -71
-163 -73 -204 -12 -35 52 -65 58 -116 23 -20 -14 -72 -42 -114 -61 -70 -33
-84 -36 -133 -30 -30 4 -89 18 -130 32 -54 17 -85 23 -110 18 -19 -4 -166 -10
-327 -14 -330 -7 -291 3 -413 -102 -30 -25 -75 -56 -100 -67 -65 -30 -112 -73
-100 -92 8 -12 15 -9 42 22 18 20 50 42 72 50 22 7 56 32 80 59 75 83 107 98
228 105 88 6 111 4 131 -9 16 -10 28 -12 38 -6 8 5 31 7 52 3 25 -4 37 -2 37
6 0 8 14 10 48 6 137 -17 162 -18 162 -7 0 21 20 11 35 -19 15 -30 15 -31 -15
-57 -21 -17 -28 -29 -21 -36 7 -7 26 1 60 22 41 26 54 30 70 22 11 -6 77 -11
151 -11 128 0 131 0 140 24 13 36 60 64 136 82 64 14 69 14 81 -2 22 -30 15
-43 -38 -70 -44 -22 -50 -29 -46 -49 9 -48 -12 -53 -220 -57 -105 -2 -194 -6
-197 -9 -3 -3 -7 -27 -8 -54 -3 -40 0 -50 14 -53 15 -3 18 4 18 32 0 43 9 44
65 11 41 -23 43 -23 73 -7 16 9 42 26 57 36 15 11 50 21 80 24 53 4 53 4 64
-30 6 -19 9 -42 5 -52 -3 -9 1 -27 10 -41 20 -30 21 -101 2 -135 -7 -14 -26
-47 -41 -75 -14 -27 -31 -54 -35 -59 -13 -13 -38 11 -55 51 -8 18 -21 33 -29
33 -8 0 -22 10 -30 22 -13 19 -19 20 -41 10 -14 -7 -38 -12 -54 -12 -25 0 -27
-3 -23 -30 4 -29 3 -30 -32 -30 l-37 0 3 -77 c2 -62 6 -78 18 -77 8 0 42 4 75
7 57 6 61 5 81 -21 15 -19 24 -49 29 -99 6 -63 5 -72 -11 -75 -11 -2 -33 -41
-64 -113 l-47 -110 23 -8 c32 -11 41 -39 11 -36 -12 1 -41 -4 -65 -11 -23 -7
-44 -11 -46 -9 -11 14 -116 209 -116 216 0 6 9 18 20 28 11 10 20 21 20 25 0
4 -23 21 -51 39 l-51 31 34 41 c66 82 66 79 19 79 -38 0 -61 20 -23 20 9 0 30
12 46 26 24 21 27 30 22 57 -11 55 -31 72 -81 71 -25 0 -45 3 -45 8 0 21 -37
4 -59 -27 -20 -30 -22 -39 -12 -66 24 -69 5 -80 -35 -19 -23 35 -25 43 -15 71
6 18 11 35 11 39 0 8 -80 3 -159 -11 -35 -6 -58 -5 -66 1 -8 7 -17 4 -30 -10
-15 -16 -27 -18 -84 -14 -108 9 -188 34 -258 81 -78 54 -160 74 -199 48 -17
-11 -35 -14 -55 -10 -28 6 -29 5 -20 -18 5 -13 14 -43 20 -65 6 -22 32 -66 56
-96 36 -43 53 -57 83 -62 20 -4 53 -15 73 -25 20 -10 59 -27 87 -37 28 -11 72
-38 99 -60 53 -45 46 -27 97 -259 9 -42 20 -59 55 -89 40 -35 45 -37 74 -26
27 10 34 9 51 -7 10 -11 19 -32 20 -48 l1 -28 80 3 81 4 49 -39 c73 -58 107
-113 113 -179 4 -43 10 -59 30 -74 22 -18 24 -25 19 -70 -3 -28 -17 -76 -31
-108 -13 -31 -27 -74 -31 -95 -4 -27 -23 -56 -65 -102 -32 -36 -79 -101 -104
-145 -45 -78 -46 -81 -46 -168 0 -68 -5 -100 -20 -133 -11 -24 -20 -58 -20
-76 0 -23 -6 -33 -21 -38 -14 -5 -18 -12 -13 -23 4 -10 9 -33 12 -53 3 -30 -1
-40 -19 -52 -26 -18 -69 -101 -69 -133 0 -11 -9 -29 -19 -38 -12 -11 -21 -38
-26 -72 -4 -38 -12 -57 -25 -64 -11 -6 -25 -28 -31 -50 -12 -39 -62 -94 -118
-131 l-24 -15 30 -22 c39 -27 111 -55 146 -55 20 0 29 -6 33 -23 4 -13 11 -24
18 -24 30 0 81 -59 96 -111 11 -39 21 -55 35 -58 45 -8 61 -52 26 -70 -24 -14
-32 -76 -14 -119 17 -41 68 -88 111 -102 24 -9 32 -18 32 -35 0 -24 -17 -35
-54 -35 -14 0 -27 -9 -34 -24 -9 -21 -6 -36 21 -96 29 -63 36 -71 70 -81 20
-5 37 -12 37 -15 0 -3 -9 -19 -21 -35 l-20 -29 20 -26 c12 -15 21 -37 21 -49
0 -19 5 -22 44 -21 52 1 60 -5 52 -38 -4 -16 -18 -29 -39 -37 -39 -14 -77 -64
-77 -101 0 -29 37 -125 58 -150 11 -13 20 -15 39 -7 33 12 35 12 25 -9 -5 -9
-12 -41 -16 -71 -6 -48 -5 -56 17 -80 35 -37 40 -85 15 -147 l-21 -51 43 -58
c23 -31 63 -71 88 -88 25 -18 65 -49 89 -69 24 -21 51 -38 59 -38 10 0 14 -13
14 -50 0 -45 4 -55 38 -92 34 -36 45 -42 93 -46 35 -3 67 1 90 11 45 19 61 10
83 -46 15 -39 21 -45 54 -51 20 -3 54 -6 75 -6 44 0 115 -38 151 -80 23 -28
28 -29 145 -36 118 -7 123 -6 137 15 12 17 25 21 68 21 47 0 58 4 90 35 46 43
98 49 117 12 24 -47 51 -67 90 -67 57 0 69 8 69 45 0 29 5 35 40 49 22 9 49
16 58 16 27 0 57 37 87 110 15 35 35 70 45 77 10 7 18 24 18 38 0 14 9 37 22
50 24 26 60 39 60 22 0 -6 11 0 25 13 14 13 25 34 25 48 0 22 -3 24 -36 17
-27 -5 -41 -2 -55 11 -10 9 -19 20 -19 24 0 4 28 13 63 20 42 9 75 23 103 46
25 20 59 36 83 40 22 4 45 12 50 18 12 15 3 56 -13 56 -6 1 -24 17 -39 38
l-28 37 22 18 c23 18 23 18 66 -27 23 -25 51 -46 62 -46 11 0 50 23 86 52 65
52 79 80 53 106 -17 17 -3 26 20 13 12 -6 27 -11 35 -11 20 0 47 81 47 139 0
43 5 51 76 130 42 46 85 104 95 129 29 66 49 169 49 242 0 36 -1 104 -1 153 0
59 5 102 16 132 12 30 15 56 10 82 -4 21 -8 72 -9 113 -1 57 -6 83 -23 110
-12 19 -25 57 -28 83 -7 44 -10 48 -30 43 -15 -4 -25 -1 -29 9 -4 11 -20 15
-55 15 -45 0 -49 2 -54 26 -5 29 -19 28 126 8 39 -6 48 -3 80 26 39 34 46 50
22 50 -8 0 -15 7 -15 15 0 8 5 15 10 15 7 0 6 8 -2 22 -9 16 -14 95 -16 263
-4 216 -6 243 -23 267 -26 35 -24 76 5 119 18 26 25 53 29 105 2 38 17 112 32
164 15 52 32 113 38 135 10 32 17 41 39 43 32 4 47 32 17 32 -32 0 -56 17 -63
46 -10 40 -36 74 -57 74 -22 0 -25 22 -6 39 8 6 33 18 57 26 38 13 66 34 157
114 19 17 23 30 22 76 -1 45 3 62 25 93 14 21 26 50 26 64 0 21 10 32 55 57
34 19 55 38 55 49 0 40 -13 62 -44 72 -34 11 -86 82 -86 119 0 18 4 21 20 16
13 -4 20 -2 20 7 0 16 44 60 77 77 12 6 41 11 65 11 26 0 57 8 77 21 28 17 44
20 85 15 177 -20 174 -20 216 8 22 14 40 33 40 41 0 51 107 201 203 287 42 37
43 37 132 38 50 0 95 4 102 8 6 4 15 20 18 35 4 15 17 33 29 40 33 18 136 134
136 153 0 9 14 30 31 47 16 18 59 62 95 100 52 53 72 67 95 67 19 0 29 5 29
15 0 22 54 45 107 45 l49 0 81 93 c44 50 99 103 122 117 30 19 41 32 41 50 0
25 44 70 111 113 36 24 125 136 146 185 16 37 28 47 98 82 59 31 101 44 160
52 107 14 155 34 155 65 0 17 17 35 65 70 67 48 76 65 50 99 -9 12 -14 42 -15
80 0 55 2 62 30 82 17 13 44 22 65 22 31 0 35 3 35 25 0 15 6 25 14 25 8 0 45
25 83 55 52 42 76 55 102 55 21 0 44 9 64 26 27 23 38 26 87 22 51 -5 58 -3
95 28 45 37 100 59 165 69 77 11 107 38 155 139 111 236 115 247 115 302 0 45
6 64 40 119 22 36 40 70 40 75 0 6 18 30 40 54 27 30 43 57 47 83 3 21 12 42
20 46 18 11 16 45 -7 137 -20 77 -20 78 -1 151 30 116 46 146 83 159 54 18
111 79 161 171 41 76 48 96 57 183 12 101 19 120 76 191 33 42 64 119 64 159
0 16 -13 32 -42 51 l-42 28 -135 -6 c-76 -4 -198 -1 -277 5 -121 10 -147 9
-185 -4 -42 -14 -54 -14 -140 2 -151 29 -307 77 -378 116 -36 20 -68 38 -70
40 -2 2 -16 55 -31 119 -28 120 -29 121 -116 215 -23 25 -60 74 -82 110 -23
36 -71 92 -107 124 -39 34 -76 78 -91 107 -14 28 -52 87 -85 131 -33 45 -66
95 -73 113 -15 35 -92 89 -142 100 -18 3 -40 15 -50 27 -61 67 -241 148 -329
148 -22 0 -52 -8 -67 -18z"/>
</g>
</svg>
