<?xml version="1.0" standalone="no"?>
<!DOCTYPE svg PUBLIC "-//W3C//DTD SVG 20010904//EN"
 "http://www.w3.org/TR/2001/REC-SVG-20010904/DTD/svg10.dtd">
<svg version="1.0" xmlns="http://www.w3.org/2000/svg"
 width="1024.000000pt" height="1024.000000pt" viewBox="0 0 1024.000000 1024.000000"
 preserveAspectRatio="xMidYMid meet">
<metadata>
Created by potrace 1.10, written by Peter Selinger 2001-2011
</metadata>
<g transform="translate(0.000000,1024.000000) scale(0.100000,-0.100000)"
fill="#000000" stroke="none">
<path d="M3205 10094 l-291 -145 44 -287 c33 -220 45 -330 50 -472 l7 -185
114 -167 c109 -162 113 -169 102 -199 -6 -18 -11 -51 -11 -75 0 -41 3 -45 39
-64 24 -12 69 -55 112 -107 40 -49 78 -95 86 -104 11 -13 3 -34 -53 -142 -65
-126 -65 -127 -99 -319 -41 -230 -51 -337 -110 -1138 -43 -588 -46 -615 -68
-639 -12 -14 -151 -158 -309 -321 -309 -319 -444 -479 -588 -696 -50 -76 -105
-153 -121 -169 -25 -27 -29 -39 -29 -87 0 -55 -1 -56 -42 -81 -38 -22 -41 -28
-42 -68 -1 -39 -4 -44 -31 -52 -84 -26 -78 -16 -73 -130 4 -61 19 -160 39
-247 32 -144 33 -145 125 -298 51 -84 95 -160 98 -170 3 -9 26 -30 51 -46 44
-27 49 -28 126 -22 71 7 82 5 109 -14 35 -25 55 -86 46 -142 -6 -36 -4 -39 45
-78 28 -22 57 -40 64 -40 7 0 19 -7 26 -17 8 -9 29 -22 47 -30 23 -10 32 -20
32 -37 0 -13 7 -43 16 -67 11 -32 14 -62 9 -112 -8 -84 -3 -101 40 -126 33
-19 34 -21 28 -70 -5 -44 -3 -54 21 -81 29 -35 34 -75 10 -101 -14 -15 -12
-21 15 -65 l31 -48 -20 -21 c-11 -12 -20 -35 -20 -52 0 -16 -9 -56 -21 -89
-18 -52 -20 -73 -15 -179 5 -104 10 -127 36 -183 17 -35 30 -77 30 -92 0 -19
6 -31 18 -34 23 -8 52 -57 52 -90 0 -17 11 -34 36 -52 19 -15 46 -48 59 -73
17 -33 39 -56 79 -81 31 -19 56 -38 56 -41 0 -4 -33 -16 -72 -27 -70 -18 -75
-19 -108 -2 -47 23 -113 32 -145 20 -18 -7 -39 -7 -62 -1 -28 8 -46 5 -98 -14
-59 -23 -67 -23 -103 -11 -60 22 -235 47 -273 40 -39 -8 -61 -31 -90 -95 -15
-35 -30 -51 -59 -64 -32 -15 -60 -48 -60 -73 0 -4 18 -18 40 -32 24 -14 57
-50 80 -85 21 -33 59 -77 84 -97 24 -21 49 -52 56 -70 8 -25 46 -59 154 -142
79 -60 160 -116 180 -124 26 -10 36 -20 36 -37 0 -25 29 -55 53 -55 9 0 17 -3
17 -8 0 -4 20 -30 45 -59 33 -38 57 -82 91 -170 26 -65 55 -135 65 -155 11
-22 19 -58 19 -87 0 -47 3 -52 37 -76 21 -14 46 -25 55 -25 22 0 22 6 -2 -58
-11 -29 -20 -63 -20 -77 0 -23 3 -25 50 -25 38 0 55 -5 71 -21 19 -19 29 -21
76 -16 35 4 69 15 94 31 21 14 50 26 64 26 33 0 94 26 121 51 12 11 34 23 50
28 22 5 30 14 32 35 2 15 11 30 20 33 9 4 30 17 45 30 38 31 44 29 52 -14 4
-21 11 -44 17 -50 6 -7 8 -19 5 -27 -4 -10 15 -30 58 -60 54 -37 66 -42 76
-30 6 8 17 14 23 14 7 0 29 9 51 20 21 11 54 23 72 26 20 4 58 29 98 64 61 54
72 59 138 71 46 8 84 21 106 37 31 23 38 24 117 18 72 -5 90 -3 122 13 30 16
70 20 217 26 99 4 185 12 192 17 7 5 19 32 28 58 14 43 24 53 70 80 55 31 136
123 183 207 13 23 32 45 43 48 26 9 24 20 -9 42 -39 25 -115 110 -108 121 3 5
23 21 45 36 35 25 53 29 163 37 312 23 431 41 493 76 23 14 49 17 117 14 80
-2 92 0 138 25 28 15 56 39 63 53 9 20 22 27 52 31 32 4 41 10 43 27 3 18 10
23 32 23 20 0 35 9 52 30 13 17 44 55 70 85 31 35 52 71 59 100 8 32 16 45 29
45 10 0 31 20 49 48 33 51 92 92 135 92 20 0 30 9 47 43 38 76 65 103 114 117
58 16 65 32 65 150 0 126 15 149 91 150 15 0 33 7 40 16 7 9 23 20 36 25 13 5
23 17 23 27 0 28 21 42 62 42 29 0 61 13 122 50 93 56 119 60 275 39 45 -6 85
-9 87 -6 9 8 54 189 54 215 0 18 -22 74 -35 90 -1 1 -21 -4 -43 -12 -42 -15
-42 -15 -42 9 0 19 -10 28 -42 43 -24 11 -59 37 -80 58 l-36 39 8 85 c5 47 16
108 24 135 9 28 16 51 16 52 0 1 -19 3 -42 5 l-41 3 -28 125 c-15 69 -28 149
-28 178 l-1 53 -62 28 -63 28 -40 -20 c-35 -18 -137 -50 -140 -44 -1 1 -14 18
-28 38 -34 45 -35 89 -4 182 17 55 28 74 52 88 143 83 154 91 166 141 9 41 9
52 -5 73 -9 13 -16 38 -16 54 0 20 -8 35 -22 46 -16 10 -28 36 -39 80 l-15 64
60 60 c34 32 96 80 139 106 66 40 97 68 97 88 0 3 -23 11 -50 18 -40 10 -49
16 -44 28 14 33 -3 121 -27 139 -15 10 -16 17 -7 42 9 27 19 33 99 57 72 22
88 30 83 42 -33 78 -34 85 -3 103 20 12 29 26 29 44 0 34 47 94 87 111 21 8
33 20 33 33 0 10 4 22 10 25 5 3 16 29 25 58 l16 52 -36 33 c-52 48 -48 76 19
134 l54 48 89 -6 c78 -6 94 -4 129 14 51 26 166 37 254 24 36 -5 67 -8 69 -6
2 2 -16 544 -39 1206 -29 852 -45 1206 -53 1214 -12 12 -4720 2429 -4747 2438
-8 2 -146 -61 -305 -140z"/>
</g>
</svg>
