<?xml version="1.0" standalone="no"?>
<!DOCTYPE svg PUBLIC "-//W3C//DTD SVG 20010904//EN"
 "http://www.w3.org/TR/2001/REC-SVG-20010904/DTD/svg10.dtd">
<svg version="1.0" xmlns="http://www.w3.org/2000/svg"
 width="1024.000000pt" height="1024.000000pt" viewBox="0 0 1024.000000 1024.000000"
 preserveAspectRatio="xMidYMid meet">
<metadata>
Created by potrace 1.10, written by Peter Selinger 2001-2011
</metadata>
<g transform="translate(0.000000,1024.000000) scale(0.100000,-0.100000)"
fill="#000000" stroke="none">
<path d="M2211 10226 c-10 -12 -8 -17 8 -25 11 -6 27 -11 36 -11 19 0 65 29
65 41 0 15 -96 10 -109 -5z"/>
<path d="M2347 10223 c-26 -25 22 -73 73 -73 24 0 25 11 5 50 -12 23 -23 30
-44 30 -15 0 -31 -3 -34 -7z"/>
<path d="M2250 10125 c-10 -11 -10 -19 -2 -27 15 -15 44 -2 40 19 -4 23 -22
27 -38 8z"/>
<path d="M2432 10076 c1 -26 -6 -40 -26 -58 -19 -16 -25 -29 -21 -40 15 -37
105 13 105 57 0 23 -35 75 -50 75 -5 0 -9 -15 -8 -34z"/>
<path d="M2240 10061 c0 -15 29 -33 45 -27 28 10 17 36 -15 36 -16 0 -30 -4
-30 -9z"/>
<path d="M2273 9993 c-10 -25 23 -48 54 -37 41 14 38 30 -7 42 -34 8 -42 8
-47 -5z"/>
<path d="M4723 7923 c-21 -4 -52 -58 -40 -70 4 -3 26 -9 49 -14 39 -7 45 -6
65 16 l22 25 -23 25 c-23 25 -30 26 -73 18z"/>
<path d="M4517 7822 c-21 -23 -21 -36 -3 -51 11 -9 19 -5 40 20 14 17 24 35
20 40 -9 15 -40 10 -57 -9z"/>
<path d="M4795 7800 c-3 -5 1 -10 9 -10 9 0 16 5 16 10 0 6 -4 10 -9 10 -6 0
-13 -4 -16 -10z"/>
<path d="M4808 7744 c-4 -3 5 -38 18 -77 13 -39 24 -81 24 -94 0 -25 10 -29
28 -11 19 19 14 62 -13 116 -14 28 -25 55 -25 61 0 12 -22 15 -32 5z"/>
<path d="M4520 7720 c0 -12 -10 -34 -22 -50 -21 -29 -21 -30 -3 -50 18 -20 20
-20 32 -4 15 21 18 124 3 124 -5 0 -10 -9 -10 -20z"/>
<path d="M4577 7553 c-14 -13 -6 -33 12 -33 25 0 38 20 20 31 -17 11 -24 11
-32 2z"/>
<path d="M4760 7530 c0 -5 9 -10 21 -10 11 0 17 5 14 10 -3 6 -13 10 -21 10
-8 0 -14 -4 -14 -10z"/>
<path d="M4705 7520 c3 -5 13 -10 21 -10 8 0 14 5 14 10 0 6 -9 10 -21 10 -11
0 -17 -4 -14 -10z"/>
<path d="M4658 7503 c6 -2 18 -2 25 0 6 3 1 5 -13 5 -14 0 -19 -2 -12 -5z"/>
<path d="M7278 6996 c-27 -20 -21 -33 19 -43 29 -7 43 -18 63 -53 31 -53 54
-58 58 -15 3 33 -23 64 -88 103 -29 17 -38 18 -52 8z"/>
<path d="M7340 6778 c1 -18 7 -44 15 -58 8 -14 14 -46 15 -72 0 -41 3 -48 20
-48 17 0 20 7 20 51 0 28 -6 65 -14 82 -8 18 -16 41 -18 52 -2 11 -11 21 -21
23 -13 3 -17 -3 -17 -30z"/>
<path d="M7211 6777 c-8 -11 -6 -18 8 -31 16 -15 19 -15 31 -1 10 12 10 18 0
30 -15 19 -24 19 -39 2z"/>
<path d="M7290 6665 c7 -8 16 -12 21 -9 13 8 1 24 -18 24 -13 0 -13 -3 -3 -15z"/>
<path d="M7330 6620 c0 -5 5 -10 10 -10 6 0 10 5 10 10 0 6 -4 10 -10 10 -5 0
-10 -4 -10 -10z"/>
<path d="M7913 100 c-51 -21 -8 -100 53 -100 33 0 74 35 74 62 0 40 -70 61
-127 38z"/>
</g>
</svg>
