<?xml version="1.0" standalone="no"?>
<!DOCTYPE svg PUBLIC "-//W3C//DTD SVG 20010904//EN"
 "http://www.w3.org/TR/2001/REC-SVG-20010904/DTD/svg10.dtd">
<svg version="1.0" xmlns="http://www.w3.org/2000/svg"
 width="1024.000000pt" height="1024.000000pt" viewBox="0 0 1024.000000 1024.000000"
 preserveAspectRatio="xMidYMid meet">
<metadata>
Created by potrace 1.10, written by Peter Selinger 2001-2011
</metadata>
<g transform="translate(0.000000,1024.000000) scale(0.100000,-0.100000)"
fill="#000000" stroke="none">
<path d="M6252 7645 c-19 -8 -83 -60 -143 -115 -117 -107 -147 -121 -184 -80
-10 11 -22 20 -26 20 -13 0 -42 -62 -43 -90 -1 -25 -3 -25 -82 -25 -73 0 -84
-3 -117 -28 -43 -33 -46 -55 -13 -94 14 -17 25 -46 28 -75 l6 -48 -36 0 c-27
0 -49 11 -93 45 -61 48 -83 50 -93 9 -8 -31 -68 -58 -148 -67 -82 -10 -88 -14
-88 -57 0 -30 -6 -44 -30 -63 -19 -17 -30 -35 -30 -52 0 -22 -23 -61 -92 -160
-5 -6 -23 8 -46 35 l-39 44 -72 -14 c-61 -13 -75 -20 -89 -43 -14 -22 -14 -31
-4 -47 18 -30 15 -49 -13 -62 -14 -6 -25 -19 -25 -29 0 -12 -10 -21 -27 -25
-37 -9 -53 -22 -53 -44 0 -11 -10 -20 -26 -24 -16 -4 -24 -13 -23 -24 5 -31
-11 -60 -48 -88 -29 -22 -46 -27 -79 -25 -67 4 -78 -21 -77 -175 1 -68 -3
-126 -8 -130 -5 -3 -16 -19 -25 -36 -14 -27 -14 -31 2 -49 9 -10 22 -19 29
-19 6 0 24 -13 38 -28 25 -26 27 -34 21 -72 -9 -53 -66 -123 -98 -118 -16 2
-22 13 -29 53 -4 27 -13 55 -19 62 -5 7 -40 26 -77 43 -36 17 -79 47 -96 65
l-30 35 -32 -31 c-18 -16 -33 -36 -33 -43 0 -8 -17 -21 -37 -30 -88 -39 -160
-79 -185 -104 -30 -28 -38 -72 -13 -72 16 0 19 -28 9 -67 -7 -27 -64 -40 -94
-21 -16 10 -24 10 -40 0 -11 -6 -34 -12 -52 -12 -17 0 -40 -8 -50 -17 -17 -15
-20 -15 -46 10 -16 15 -40 27 -54 27 -20 0 -28 -8 -41 -40 -8 -22 -24 -43 -34
-46 -36 -11 -45 -20 -58 -57 -16 -46 -18 -49 -36 -42 -24 9 -43 48 -49 100
l-5 50 -54 19 c-51 19 -56 19 -83 3 -38 -22 -76 -13 -89 21 -8 20 -6 29 12 48
17 18 19 26 10 43 -9 16 -21 21 -56 21 -39 0 -46 -4 -66 -36 -22 -35 -23 -36
-70 -31 -37 5 -62 0 -111 -19 -35 -14 -68 -32 -74 -40 -6 -8 -17 -14 -23 -14
-6 0 -29 -9 -51 -20 -50 -26 -58 -25 -72 5 -13 30 -32 32 -50 6 -8 -10 -25
-21 -38 -23 -18 -2 -31 -15 -46 -48 -16 -32 -30 -46 -50 -52 -16 -4 -31 -4
-35 0 -3 4 -12 50 -19 102 -10 74 -18 101 -36 123 -13 16 -24 33 -24 38 0 25
-37 2 -101 -61 -39 -38 -77 -70 -84 -70 -15 0 -41 23 -47 41 -3 8 -15 9 -37 4
-30 -6 -31 -8 -17 -24 14 -15 12 -19 -19 -44 -33 -26 -37 -27 -77 -16 -24 7
-50 20 -58 29 -9 9 -27 20 -42 23 -16 4 -28 16 -32 32 -10 40 -37 30 -91 -35
-53 -63 -80 -77 -105 -57 -9 8 -27 11 -45 7 -48 -10 -155 -63 -155 -78 0 -21
-44 -36 -69 -23 -30 17 -28 -9 4 -47 14 -17 25 -35 25 -41 0 -14 -34 -31 -64
-31 -17 0 -34 -12 -53 -35 -20 -25 -36 -35 -55 -35 -36 0 -60 -36 -52 -76 4
-22 1 -34 -11 -44 -15 -13 -23 -8 -76 48 -33 34 -66 62 -74 62 -9 0 -27 -20
-42 -44 -19 -31 -35 -46 -55 -50 -20 -4 -33 -15 -43 -38 -22 -54 -92 -125
-157 -160 -33 -17 -76 -49 -96 -70 -20 -21 -42 -38 -49 -38 -18 0 -29 -31 -37
-105 -4 -38 -14 -67 -26 -80 -12 -13 -20 -35 -20 -56 0 -32 -4 -37 -45 -57
-25 -12 -57 -22 -71 -22 -13 0 -47 -12 -75 -26 -35 -17 -64 -24 -90 -23 -30 3
-45 -2 -66 -23 -16 -14 -39 -31 -53 -38 l-25 -13 35 -13 c52 -19 70 -17 70 6
0 28 32 26 78 -5 20 -14 51 -25 68 -25 20 0 39 -9 55 -26 24 -26 25 -26 131
-19 l107 7 41 -33 c40 -32 40 -33 40 -99 0 -37 3 -69 6 -73 3 -3 35 5 70 19
36 13 74 24 86 24 12 0 46 -19 76 -41 48 -37 58 -41 93 -35 31 5 48 1 79 -16
l39 -23 47 45 c25 25 61 68 80 96 20 31 53 64 85 85 l52 33 36 -21 c34 -20 36
-24 43 -86 9 -90 14 -103 53 -127 29 -18 44 -20 87 -15 65 8 102 -5 126 -44
l18 -30 40 26 c21 14 44 32 51 41 8 10 21 12 39 8 20 -5 25 -11 21 -28 -3 -11
1 -35 10 -53 15 -31 17 -32 50 -23 41 11 118 7 117 -7 -1 -5 -4 -24 -7 -42
l-6 -32 71 2 c49 1 72 -2 75 -10 3 -8 -3 -13 -14 -13 -42 -1 -44 -15 -7 -58
36 -42 36 -42 16 -60 -21 -17 -42 -96 -42 -155 0 -18 8 -63 17 -101 15 -58 23
-73 50 -90 32 -21 33 -23 33 -94 0 -48 -6 -86 -16 -108 -16 -34 -16 -36 7 -60
36 -38 147 -110 208 -134 30 -11 71 -34 92 -51 28 -22 47 -29 82 -29 26 0 49
-6 56 -14 6 -8 31 -19 54 -24 31 -8 47 -20 61 -43 l19 -32 21 26 c12 14 43 42
71 61 47 34 55 36 125 36 57 0 83 -5 107 -20 29 -17 31 -22 26 -57 -6 -43 -25
-68 -65 -89 -35 -18 -36 -47 -4 -88 14 -19 26 -52 30 -86 12 -93 12 -93 51
-67 27 17 35 29 35 53 0 25 6 34 28 43 15 7 45 29 68 49 35 31 44 49 60 110
18 70 18 75 1 103 -24 42 -22 54 13 79 25 18 30 28 30 61 0 37 12 51 25 29 3
-5 30 -10 59 -10 57 0 80 -16 104 -72 6 -16 16 -28 21 -28 4 0 11 -13 14 -29
7 -34 81 -84 139 -94 52 -8 79 17 127 116 47 99 75 131 144 163 47 21 56 30
68 66 7 23 36 73 64 110 27 37 68 97 90 133 l40 65 56 0 c49 0 57 3 69 24 7
13 37 42 66 63 29 21 54 42 54 46 0 5 -9 21 -19 36 -19 26 -19 30 -4 84 9 31
22 57 29 57 7 0 26 11 42 25 17 14 42 25 57 25 18 0 43 14 71 40 28 25 53 40
70 40 29 0 72 30 88 62 13 26 93 55 108 40 8 -8 20 -7 40 4 24 13 27 18 17 30
-6 8 -10 16 -8 18 2 2 58 36 124 76 139 84 150 93 139 112 -5 7 -7 22 -5 32 1
10 -3 29 -9 41 l-12 23 -34 -20 c-28 -16 -58 -21 -157 -25 -191 -8 -240 14
-258 115 -9 49 -15 61 -41 76 -62 37 -99 77 -92 100 4 11 7 22 8 23 1 1 24 -4
51 -12 27 -9 57 -13 67 -9 16 5 15 7 -6 27 -16 14 -27 38 -31 67 l-7 45 49
-52 c53 -57 60 -60 87 -40 17 13 17 15 2 45 -26 51 -22 62 27 62 57 0 111 30
115 63 l3 26 37 -24 c20 -13 50 -27 65 -31 15 -3 34 -18 41 -33 20 -37 23 -96
7 -115 -8 -9 -19 -44 -25 -78 l-11 -61 -48 -16 -49 -17 19 -23 c17 -21 25 -23
66 -17 43 7 47 10 57 45 5 20 21 48 35 61 14 13 25 32 25 42 0 11 20 67 46
126 37 87 53 114 90 145 24 21 44 44 44 50 0 7 12 38 27 69 23 47 32 57 54 57
30 1 118 45 137 69 6 9 12 31 12 49 0 26 6 36 30 48 16 8 46 15 68 15 40 0 62
14 62 39 0 27 43 69 76 74 26 5 36 1 60 -24 l28 -29 29 27 c16 16 47 49 69 75
l40 48 -24 30 c-12 17 -34 44 -46 60 -13 17 -33 30 -44 30 -17 0 -43 10 -136
56 -7 4 37 66 55 79 10 7 41 16 68 21 78 11 166 95 150 143 -8 24 -92 71 -139
77 -55 8 -86 53 -93 135 -5 55 -4 59 27 88 l33 30 -34 5 c-116 18 -160 15
-226 -15 l-66 -29 -48 45 c-39 37 -55 45 -86 45 -21 0 -67 13 -102 29 -36 16
-70 27 -77 24 -8 -3 -27 9 -44 25 l-29 30 24 6 c14 4 32 20 40 36 9 17 20 28
24 25 5 -3 44 -10 87 -16 53 -7 86 -17 100 -30 18 -17 27 -18 74 -9 29 5 81
10 115 10 56 0 63 2 73 24 13 28 66 71 102 81 14 4 39 15 56 25 28 16 39 17
95 6 35 -7 92 -27 126 -44 49 -25 85 -35 162 -43 79 -9 111 -18 151 -41 50
-28 52 -31 47 -66 -3 -20 -13 -58 -22 -84 -16 -45 -16 -48 2 -75 17 -24 19
-45 18 -143 -1 -98 3 -124 23 -180 l24 -65 -21 -14 c-13 -8 -21 -24 -21 -41 0
-22 6 -30 30 -39 26 -9 37 -6 80 21 l49 30 60 -20 c66 -22 99 -19 175 20 31
16 43 18 66 8 22 -9 39 -7 91 10 35 12 71 28 79 35 18 16 123 35 193 35 41 0
52 5 77 33 29 31 30 34 24 102 -7 79 6 102 48 92 79 -20 120 -31 176 -49 l64
-21 47 47 c39 38 52 61 72 123 19 61 28 77 49 84 56 19 73 35 84 73 9 33 18
41 56 56 25 10 80 21 122 25 74 6 77 8 83 35 7 33 48 61 112 77 47 12 49 10
76 -43 l16 -32 46 16 c45 14 47 14 68 -6 21 -22 21 -22 2 -37 -23 -17 -23 -17
59 -60 33 -16 45 -32 68 -85 l28 -65 -72 -66 -71 -66 29 -27 c16 -14 40 -36
54 -48 13 -13 42 -35 64 -50 l41 -28 30 28 c42 39 81 62 105 62 25 0 80 27 80
39 0 5 19 11 43 14 106 13 137 27 162 73 15 28 24 34 52 34 51 0 76 17 69 46
-8 31 9 64 33 64 10 0 26 9 37 21 16 17 26 20 62 15 24 -3 56 -12 70 -21 15
-8 45 -19 66 -24 46 -12 71 2 149 82 l49 50 89 -6 c82 -5 93 -4 132 19 23 13
57 24 75 24 32 0 32 0 32 49 0 32 5 51 14 54 12 5 18 30 33 157 3 31 16 58 39
87 27 33 34 50 34 86 0 41 -4 48 -46 83 l-45 39 0 71 c0 39 5 83 12 97 9 21 9
34 -5 67 -20 51 -20 50 4 50 11 0 28 12 37 28 10 15 27 34 38 44 26 21 21 24
-43 30 -49 5 -54 3 -72 -22 -12 -17 -33 -30 -55 -34 -21 -4 -35 -13 -35 -21 0
-9 -10 -15 -25 -15 -13 0 -35 -5 -48 -11 -43 -19 -227 26 -227 56 0 11 -11 15
-39 15 -34 0 -40 -3 -46 -27 -3 -15 -24 -43 -47 -62 -22 -18 -51 -51 -64 -72
-13 -22 -29 -39 -35 -39 -6 0 -23 13 -37 30 l-26 29 -43 -80 c-36 -69 -43 -90
-43 -138 0 -45 4 -62 20 -76 29 -26 26 -76 -6 -114 -23 -28 -32 -31 -80 -31
-30 0 -68 7 -84 15 -25 13 -30 22 -30 53 0 53 -10 82 -28 82 -8 0 -47 9 -86
21 -48 14 -78 29 -93 47 -20 26 -22 26 -40 9 -27 -23 -56 -21 -90 6 -15 13
-40 27 -55 31 -15 3 -33 16 -39 28 l-11 21 -14 -24 c-7 -13 -14 -55 -14 -94
-1 -98 -11 -110 -55 -61 -22 25 -35 50 -35 67 0 20 -6 30 -22 35 -13 4 -28 14
-34 22 -8 12 -15 12 -32 3 -16 -9 -33 -9 -62 -1 -51 14 -66 42 -52 93 6 21 8
37 6 37 -15 0 -64 -33 -93 -63 -26 -28 -44 -37 -83 -42 -41 -6 -60 -16 -103
-55 -44 -40 -63 -50 -125 -64 -80 -18 -105 -19 -174 -10 -42 6 -47 9 -56 43
-5 20 -10 52 -10 72 0 41 13 49 82 49 34 0 39 4 56 43 23 50 16 68 -39 100
-47 27 -69 18 -69 -28 0 -19 -5 -35 -11 -35 -21 0 -78 41 -84 60 -3 10 -22 33
-42 50 l-35 31 -19 -31 c-14 -23 -24 -30 -38 -25 -12 3 -21 0 -24 -9 -8 -22
-56 -4 -92 34 -16 17 -32 30 -37 30 -4 0 -8 -35 -8 -78 0 -75 -1 -79 -30 -100
-34 -26 -39 -26 -64 -7 -19 15 -19 15 3 39 l22 23 -36 32 c-23 20 -46 31 -65
31 -27 0 -30 -3 -30 -30 0 -17 8 -54 18 -83 22 -66 18 -90 -19 -122 -37 -31
-75 -33 -82 -5 -4 15 -14 20 -36 20 -29 0 -31 -2 -31 -35 0 -76 -40 -112 -92
-84 -20 11 -20 16 -14 127 4 63 11 123 17 133 5 10 9 32 9 49 0 42 -26 50 -53
17 -29 -33 -58 -47 -101 -47 -33 0 -36 -2 -36 -30 0 -25 -4 -30 -24 -30 -14 0
-28 4 -31 10 -9 15 -35 171 -35 213 0 40 -13 48 -29 18 -15 -27 -98 -66 -114
-53 -6 5 -29 15 -50 20 -35 10 -37 9 -43 -13 -3 -14 -26 -37 -55 -55 -27 -18
-58 -47 -70 -66 -18 -29 -26 -34 -48 -30 -14 3 -45 8 -68 11 l-43 7 0 52 c0
49 4 56 66 136 70 88 83 121 84 208 0 59 -8 63 -68 37z"/>
</g>
</svg>
