<?xml version="1.0" standalone="no"?>
<!DOCTYPE svg PUBLIC "-//W3C//DTD SVG 20010904//EN"
 "http://www.w3.org/TR/2001/REC-SVG-20010904/DTD/svg10.dtd">
<svg version="1.0" xmlns="http://www.w3.org/2000/svg"
 width="1024.000000pt" height="1024.000000pt" viewBox="0 0 1024.000000 1024.000000"
 preserveAspectRatio="xMidYMid meet">
<metadata>
Created by potrace 1.10, written by Peter Selinger 2001-2011
</metadata>
<g transform="translate(0.000000,1024.000000) scale(0.100000,-0.100000)"
fill="#000000" stroke="none">
<path d="M5895 9305 c-5 -2 -29 -9 -53 -15 -38 -10 -48 -19 -87 -78 -27 -42
-59 -76 -84 -92 -51 -31 -95 -91 -87 -118 11 -35 -15 -44 -81 -29 -32 8 -73
22 -90 31 -52 26 -90 21 -108 -14 l-16 -31 -24 30 c-33 38 -32 84 0 127 25 33
30 58 19 88 -13 34 -119 15 -212 -38 -31 -18 -83 -38 -115 -45 -46 -10 -57
-16 -53 -29 18 -60 17 -72 -3 -101 -12 -16 -21 -32 -21 -36 0 -3 18 -27 39
-53 37 -45 71 -121 71 -161 0 -10 -11 -24 -25 -31 -31 -17 -158 2 -195 29 -14
10 -44 28 -67 40 -41 20 -44 20 -109 5 -88 -20 -143 -58 -144 -99 0 -16 -13
-52 -28 -79 -22 -40 -52 -68 -160 -147 -72 -53 -151 -114 -175 -135 -33 -31
-61 -44 -127 -63 -80 -22 -89 -28 -155 -92 -70 -69 -71 -69 -126 -69 -43 0
-60 -5 -74 -20 -23 -26 -29 -25 -70 6 -32 24 -38 25 -90 17 -53 -10 -57 -9
-96 20 l-40 30 3 73 3 74 -75 24 c-41 13 -91 26 -111 29 -19 3 -64 23 -98 46
-37 24 -85 45 -119 52 -31 6 -72 22 -90 34 l-34 23 -96 -46 c-53 -25 -101 -50
-105 -56 -4 -6 -5 -36 -2 -66 3 -30 2 -60 -3 -66 -14 -21 -109 -25 -199 -8
-82 15 -90 19 -123 57 -51 58 -59 77 -60 129 0 26 -7 63 -16 82 -15 31 -15 41
-3 93 15 63 14 173 -2 173 -5 0 -44 -20 -87 -45 -52 -30 -109 -52 -177 -69
-55 -14 -128 -36 -162 -50 -35 -13 -111 -32 -170 -41 -60 -9 -117 -20 -128
-25 -12 -4 -108 -72 -215 -151 -142 -105 -302 -208 -590 -380 -217 -130 -452
-267 -522 -303 l-128 -67 0 -56 c0 -31 12 -121 27 -199 l27 -143 43 -7 c41 -6
45 -10 88 -80 25 -41 45 -78 45 -82 0 -4 -23 -30 -51 -57 l-51 -50 5 -126 c5
-110 3 -131 -14 -169 l-20 -43 30 -31 c17 -18 35 -52 42 -79 6 -26 15 -49 19
-52 4 -3 40 7 80 22 l73 27 33 -38 c18 -20 44 -65 59 -100 21 -49 33 -65 57
-74 28 -10 30 -13 23 -51 l-7 -40 41 -7 c40 -6 41 -8 41 -45 0 -37 1 -38 52
-53 29 -8 75 -20 102 -27 32 -8 69 -29 108 -61 33 -28 61 -48 62 -46 24 29 76
144 81 179 l7 45 100 17 c56 10 128 31 164 47 45 20 74 28 94 23 22 -4 45 4
96 32 l68 38 31 -36 c18 -20 58 -90 90 -155 l59 -119 55 -14 c71 -18 73 -27
65 -241 -7 -167 -7 -168 18 -205 39 -60 58 -129 58 -213 l0 -76 114 -107 114
-107 52 0 c61 0 127 31 217 101 77 60 100 63 109 13 4 -20 2 -56 -3 -80 -6
-24 -8 -46 -5 -49 3 -3 47 -5 98 -5 114 0 215 -32 285 -91 40 -33 48 -46 58
-95 15 -79 14 -208 -4 -274 -25 -92 -20 -146 16 -191 17 -22 37 -59 44 -82 7
-23 19 -43 28 -45 25 -5 86 57 118 120 l29 58 134 0 133 0 46 -36 47 -37 104
5 c74 4 116 12 151 27 27 12 68 21 95 21 42 0 49 -3 59 -27 7 -16 34 -43 62
-62 70 -48 116 -105 136 -169 14 -44 25 -59 56 -79 65 -41 67 -40 67 10 0 25
4 48 8 51 4 3 26 1 48 -4 27 -6 50 -22 76 -52 21 -24 37 -45 37 -48 0 -3 -42
-37 -93 -77 l-93 -72 -6 -100 c-5 -94 -8 -106 -46 -177 -23 -42 -40 -78 -39
-79 50 -34 82 -45 126 -45 l51 0 12 -58 c8 -40 22 -67 45 -92 22 -23 35 -49
40 -77 l6 -42 -58 -3 c-58 -3 -58 -3 -67 -39 -7 -30 -16 -39 -63 -62 -52 -26
-54 -28 -54 -67 0 -30 7 -48 32 -76 26 -29 29 -38 17 -45 -43 -26 -42 -25 -24
-57 16 -27 23 -30 87 -34 59 -5 74 -10 99 -34 29 -28 30 -28 87 -16 100 21
182 16 224 -13 69 -47 166 -76 270 -82 l97 -6 63 40 c89 57 133 78 213 104 39
12 93 37 122 55 28 18 68 36 87 40 31 5 37 11 46 45 5 21 15 57 20 79 6 22 19
55 30 73 16 28 17 40 8 95 -12 78 -1 98 82 150 50 32 60 44 76 88 15 46 23 54
70 77 42 21 58 36 77 72 l23 46 44 -35 c41 -32 51 -36 108 -36 l64 0 -35 -62
-34 -63 18 -45 c10 -25 18 -48 18 -52 1 -4 -19 -13 -44 -19 l-45 -11 0 -62 c0
-37 -8 -82 -20 -114 -14 -37 -20 -76 -20 -134 l0 -81 -46 -53 c-39 -46 -45
-59 -42 -91 3 -37 4 -38 70 -58 97 -29 127 -66 128 -156 0 -109 -7 -128 -56
-152 -57 -27 -56 -47 2 -106 41 -41 47 -52 51 -101 5 -47 2 -58 -16 -74 -13
-12 -21 -31 -21 -51 l0 -33 88 -6 c71 -6 99 -3 154 13 l66 19 52 -35 c28 -19
76 -43 105 -53 30 -10 73 -30 97 -43 24 -14 59 -28 79 -31 33 -6 39 -12 62
-64 14 -31 30 -69 36 -84 9 -23 17 -28 43 -28 31 0 35 -4 53 -52 l21 -53 73
-14 c69 -13 77 -13 135 8 33 12 64 21 68 21 10 0 118 -135 118 -147 0 -5 -11
-20 -25 -33 -26 -24 -27 -38 -9 -101 7 -26 80 -29 131 -7 l42 18 58 -37 c32
-21 77 -47 101 -57 40 -18 42 -21 42 -61 0 -59 29 -186 48 -207 11 -13 13 -30
9 -62 -6 -39 -4 -47 15 -61 38 -26 98 -18 191 25 47 22 92 40 100 40 8 0 27
-20 41 -45 20 -33 33 -45 51 -45 21 0 25 7 40 71 13 58 35 120 50 137 7 8 134
-59 154 -82 20 -21 33 -26 72 -26 l48 0 11 43 c6 23 13 48 15 55 3 7 21 12 44
12 36 0 41 -3 53 -35 12 -34 15 -36 52 -33 32 2 45 11 77 49 37 43 40 50 54
163 18 136 55 229 93 234 19 3 13 11 -43 59 -70 60 -67 50 -43 146 18 73 -11
116 -78 117 -17 0 -24 11 -38 63 -10 37 -29 74 -46 92 -16 17 -36 55 -45 90
-10 33 -19 63 -22 67 -2 4 -26 -3 -53 -17 -27 -14 -52 -25 -55 -25 -9 0 -5
161 5 235 8 56 15 74 35 88 14 10 25 22 25 26 0 5 -24 24 -54 44 l-53 35 7 44
c11 64 64 173 102 207 18 17 56 40 84 51 37 15 57 31 70 55 18 33 18 35 -5 84
-30 62 -23 89 29 121 l40 25 0 70 c0 61 4 76 26 106 14 19 36 56 49 82 16 35
48 69 111 123 115 98 120 104 128 163 6 42 12 54 45 80 60 48 92 41 110 -24
19 -66 34 -80 78 -69 33 8 38 14 48 54 9 38 15 45 37 48 26 3 27 1 39 -71 9
-52 20 -84 38 -106 l26 -32 34 57 33 56 -21 39 -22 38 28 7 c49 10 52 12 78
53 32 52 32 61 -5 96 -21 20 -30 38 -30 59 0 27 7 34 53 59 40 21 56 36 69 67
l16 39 68 3 68 3 32 115 31 115 59 -1 c33 -1 86 -5 119 -9 59 -7 60 -7 83 24
22 30 23 35 11 87 -12 54 -14 56 -80 94 l-67 40 5 42 c4 24 28 94 55 156 27
61 47 116 44 120 -2 4 -27 18 -55 31 -49 24 -49 24 -68 100 l-19 76 -64 12
c-96 18 -138 16 -177 -8 l-35 -22 -60 60 -60 60 15 51 c8 28 12 54 9 57 -3 3
-18 5 -34 5 -18 0 -28 5 -28 15 0 35 29 68 106 119 63 42 92 69 119 112 20 31
35 58 33 59 -5 5 -120 33 -166 40 -36 6 -47 4 -66 -14 l-23 -22 -7 70 c-6 64
-12 79 -74 178 -64 103 -70 109 -132 140 -56 28 -72 32 -116 27 l-51 -6 -22
51 c-15 35 -28 52 -44 55 -133 29 -233 45 -251 40 -16 -4 -25 2 -39 26 l-18
31 -39 -31 -38 -30 -58 20 c-57 20 -59 20 -77 2 -18 -19 -20 -19 -70 9 l-52
28 -45 -43 c-33 -33 -57 -47 -93 -54 -46 -9 -48 -9 -62 18 -13 25 -13 34 1 74
l16 46 -33 53 c-19 28 -57 74 -86 101 -52 47 -53 49 -53 105 0 32 7 78 16 103
15 45 16 46 69 53 59 7 59 7 69 85 l7 45 39 -3 39 -4 7 51 c6 45 11 54 43 73
20 12 37 22 39 23 2 2 -5 21 -14 45 -16 40 -19 41 -50 36 -27 -6 -34 -3 -39
15 -4 12 -3 24 3 28 104 65 110 73 122 138 10 60 9 65 -14 100 l-26 37 24 30
c13 17 38 38 57 47 32 16 34 20 39 80 l5 64 43 9 c48 10 52 23 17 56 -32 30
-34 91 -5 135 11 17 20 44 20 61 l0 32 -70 7 -71 7 -34 54 c-40 63 -49 65
-150 33 -82 -25 -107 -20 -160 30 -25 25 -54 41 -77 45 -54 10 -148 55 -148
72 0 35 -73 234 -97 267 -40 51 -84 57 -154 21 -97 -49 -156 -64 -249 -64
l-88 0 -36 -40 -36 -40 -55 25 c-52 23 -58 23 -96 10 -36 -13 -77 -12 -101 2
-4 2 6 40 22 84 l29 79 -27 14 c-15 7 -73 17 -130 21 -121 8 -132 17 -132 103
0 53 -1 55 -65 121 -63 65 -65 69 -65 119 0 33 10 75 26 115 l26 63 -23 49
c-19 39 -40 60 -101 102 l-77 54 -14 -28 c-8 -15 -18 -51 -21 -79 -9 -60 -40
-103 -145 -196 -73 -65 -74 -65 -112 -55 -28 7 -45 19 -60 43 -11 19 -22 34
-23 34 -1 0 -47 -15 -102 -34 -98 -33 -101 -33 -133 -16 -32 16 -60 51 -61 76
0 5 13 20 30 32 l30 22 40 -25 c22 -14 44 -25 48 -25 9 0 22 117 22 197 0 62
-24 100 -69 108 -20 3 -43 8 -51 10 -8 2 -19 2 -25 0z"/>
</g>
</svg>
