<?xml version="1.0" standalone="no"?>
<!DOCTYPE svg PUBLIC "-//W3C//DTD SVG 20010904//EN"
 "http://www.w3.org/TR/2001/REC-SVG-20010904/DTD/svg10.dtd">
<svg version="1.0" xmlns="http://www.w3.org/2000/svg"
 width="1024.000000pt" height="1024.000000pt" viewBox="0 0 1024.000000 1024.000000"
 preserveAspectRatio="xMidYMid meet">
<metadata>
Created by potrace 1.10, written by Peter Selinger 2001-2011
</metadata>
<g transform="translate(0.000000,1024.000000) scale(0.100000,-0.100000)"
fill="#000000" stroke="none">
<path d="M1955 10228 c-22 -68 -37 -158 -31 -202 5 -43 2 -54 -16 -73 -20 -21
-21 -27 -10 -67 14 -53 -1 -112 -35 -139 -20 -16 -23 -27 -23 -95 0 -75 2 -80
51 -162 28 -47 59 -94 70 -105 10 -12 28 -47 39 -79 11 -32 41 -90 68 -130 55
-80 114 -222 130 -311 6 -33 16 -112 22 -175 9 -96 9 -128 -4 -195 -20 -103
-20 -139 1 -161 17 -17 16 -17 -16 -11 l-34 7 7 -87 c5 -62 14 -103 32 -143
29 -60 41 -158 30 -233 -7 -49 -18 -56 -68 -49 -23 4 -30 12 -40 46 -22 79
-43 89 -229 110 l-46 5 4 -77 c2 -42 8 -96 13 -119 6 -23 10 -61 10 -85 0 -52
18 -80 72 -114 30 -19 48 -24 72 -20 28 5 37 16 74 91 40 81 44 85 74 85 18 0
57 -14 86 -30 l52 -30 0 -153 c0 -167 -8 -209 -61 -307 -22 -42 -29 -65 -23
-82 11 -35 37 -67 55 -68 11 0 18 -13 23 -41 15 -93 52 -135 85 -95 18 21 52
8 110 -43 l55 -48 -23 -61 -23 -60 23 -31 c22 -30 26 -31 93 -31 l70 0 -20
-21 c-18 -18 -24 -19 -41 -8 -32 20 -49 5 -67 -60 -15 -52 -15 -64 -3 -93 8
-18 24 -42 36 -52 21 -19 21 -19 21 7 0 31 2 32 40 12 33 -17 50 -43 50 -77
l0 -22 -16 22 c-10 15 -25 22 -48 22 -44 0 -60 -21 -53 -67 8 -45 34 -73 77
-82 l32 -6 -30 -38 c-18 -22 -33 -56 -37 -80 -13 -89 -16 -97 -40 -103 -23 -6
-23 -8 -23 -139 1 -121 -1 -135 -21 -164 -12 -17 -27 -31 -32 -31 -5 0 -9 -26
-9 -59 0 -52 2 -59 23 -65 12 -3 25 -6 29 -6 3 0 12 24 19 53 13 57 38 86 52
61 11 -19 36 -18 59 3 13 12 21 14 29 6 8 -8 -1 -17 -32 -34 -24 -12 -47 -27
-51 -33 -11 -16 -10 -60 2 -92 8 -21 14 -24 22 -16 28 28 117 -5 191 -71 41
-38 45 -57 25 -135 -16 -67 -35 -92 -68 -92 -23 0 -30 -5 -35 -30 -11 -50 5
-130 36 -181 33 -52 36 -54 103 -64 38 -6 47 -12 52 -31 4 -14 4 -33 1 -43 -3
-13 7 -30 32 -54 40 -38 140 -107 156 -107 5 0 18 -20 28 -45 14 -32 25 -45
39 -45 23 0 121 -90 154 -142 13 -20 40 -78 60 -129 21 -50 61 -127 91 -170
29 -44 53 -90 53 -104 0 -19 7 -26 28 -31 56 -14 117 -71 173 -160 11 -18 29
-36 40 -39 29 -10 49 -64 49 -133 0 -89 9 -118 49 -165 20 -23 42 -59 48 -80
10 -34 9 -40 -10 -61 -29 -31 -93 -42 -107 -18 -24 43 -24 43 -73 26 l-47 -16
25 -30 c30 -36 31 -44 5 -83 -28 -42 -28 -125 0 -150 11 -10 33 -38 48 -62 29
-46 88 -83 134 -83 14 0 46 -9 71 -20 37 -17 47 -26 52 -53 16 -82 33 -103
144 -174 80 -52 131 -77 208 -101 56 -18 105 -37 109 -43 10 -17 93 -49 126
-49 20 0 40 -10 60 -30 27 -27 30 -36 24 -70 -5 -34 -3 -41 16 -51 40 -20 88
-72 88 -95 0 -12 9 -43 20 -68 l19 -46 66 0 c64 0 67 -1 105 -40 32 -33 46
-40 77 -40 35 -1 41 -5 82 -65 74 -111 182 -210 220 -203 10 2 26 -4 35 -11
19 -16 111 -51 133 -51 7 0 34 -14 60 -30 26 -17 53 -30 60 -30 7 0 36 -14 64
-31 48 -30 54 -31 124 -26 65 6 74 4 91 -14 10 -12 31 -27 46 -35 19 -10 30
-27 38 -57 16 -66 40 -105 111 -183 37 -41 88 -100 114 -132 l48 -59 81 -6
c107 -8 147 -21 196 -62 22 -18 49 -37 60 -40 11 -4 20 -15 20 -25 0 -25 87
-94 137 -111 21 -6 55 -27 76 -45 20 -19 45 -34 56 -34 10 0 29 -8 42 -19 13
-10 67 -37 120 -60 60 -26 108 -55 130 -77 39 -41 94 -67 121 -58 12 4 26 -4
45 -26 14 -17 50 -42 80 -55 44 -20 57 -32 73 -67 11 -24 20 -52 20 -63 0 -11
15 -32 33 -46 47 -38 92 -153 82 -214 -5 -39 -3 -49 21 -80 15 -20 40 -45 56
-56 27 -20 30 -20 48 -4 14 13 35 16 94 14 l75 -2 39 59 c21 32 63 98 94 145
l57 87 83 -5 c73 -5 91 -2 144 20 l62 25 45 -52 44 -51 134 3 c151 3 182 -6
187 -51 2 -20 10 -29 30 -33 15 -4 40 -18 55 -31 22 -18 40 -23 84 -23 50 0
59 3 87 32 17 18 37 45 43 61 9 19 20 27 38 27 16 0 25 6 25 15 0 9 7 18 15
21 23 9 18 72 -11 145 -14 35 -33 111 -44 169 -17 99 -66 245 -124 370 -14 30
-26 63 -26 72 0 11 -14 24 -34 32 -45 19 -56 42 -56 114 0 70 -33 153 -142
352 -46 86 -84 142 -109 164 -44 37 -47 51 -19 81 20 22 20 22 1 47 -13 16
-21 44 -23 79 -2 45 -6 55 -23 57 -24 4 -93 89 -128 158 -14 28 -32 56 -41 63
-20 17 -30 69 -17 85 7 9 5 26 -9 62 -37 98 -55 119 -153 173 -50 28 -109 56
-131 62 -51 14 -186 117 -227 173 -17 25 -49 59 -70 76 -22 17 -39 39 -39 48
0 9 -14 46 -31 82 l-31 65 12 125 c14 141 8 432 -13 625 l-13 120 32 122 c18
67 37 129 42 139 15 28 -18 83 -75 125 -34 26 -64 62 -104 130 -73 124 -93
182 -75 218 8 14 32 82 54 151 49 153 82 215 122 229 l30 10 -19 43 c-10 24
-30 68 -43 98 l-25 55 27 82 c15 45 34 93 43 107 10 14 17 45 17 71 0 42 2 45
23 40 37 -10 57 16 82 104 l25 85 -25 54 c-14 30 -25 68 -25 84 0 16 -7 43
-16 60 -19 36 -12 85 16 121 28 35 26 93 -5 152 -24 44 -26 57 -24 154 2 59 0
111 -3 117 -4 5 -11 45 -17 88 -10 73 -18 90 -85 200 -41 67 -126 225 -189
351 -63 127 -142 281 -176 344 -33 62 -68 137 -77 165 -26 78 -66 129 -167
210 -51 40 -105 88 -122 105 -16 18 -82 59 -145 92 -98 51 -138 80 -265 192
-84 75 -175 166 -210 210 -36 47 -78 88 -105 104 -25 14 -77 55 -116 89 -64
57 -74 71 -97 136 -14 40 -31 100 -37 133 -16 85 -31 121 -89 205 -67 97 -146
146 -249 156 -66 6 -186 38 -209 56 -6 5 -15 23 -18 39 -4 16 -10 29 -15 29
-13 0 -90 -84 -90 -98 0 -7 7 -42 16 -77 l16 -64 -49 -60 c-26 -33 -70 -76
-96 -97 -26 -20 -47 -41 -47 -47 0 -6 -27 -45 -60 -88 -68 -87 -74 -118 -35
-159 l24 -26 -19 -32 c-12 -19 -28 -32 -40 -32 -33 0 -167 -136 -175 -176 -9
-50 -34 -43 -75 21 -29 46 -40 55 -64 55 -16 0 -44 -9 -63 -21 l-33 -21 2 29
c1 19 -10 47 -34 83 -20 30 -44 74 -53 98 -11 28 -23 42 -35 42 -12 0 -23 12
-30 33 -6 17 -26 49 -44 70 -32 36 -35 37 -48 19 -7 -10 -47 -41 -88 -67 -70
-45 -79 -48 -157 -53 l-83 -5 -25 -43 c-26 -44 -74 -70 -140 -76 -21 -2 -37
-14 -59 -45 -28 -40 -29 -44 -17 -84 16 -54 2 -89 -48 -117 -21 -12 -63 -42
-93 -67 -65 -53 -98 -59 -98 -17 0 41 -52 143 -91 177 -19 17 -53 38 -75 48
-56 25 -73 57 -50 92 11 17 15 36 11 54 -3 16 -1 48 5 73 10 37 17 47 44 56
18 7 44 12 58 12 16 0 29 8 36 23 7 12 21 34 32 48 21 25 21 26 4 87 l-17 62
26 53 c15 29 27 58 27 64 0 18 -34 33 -73 33 -48 0 -66 23 -45 58 9 15 26 32
39 39 32 17 50 55 43 93 -10 48 -35 59 -119 53 -66 -5 -75 -4 -111 21 l-39 27
-33 -36 c-29 -32 -37 -35 -65 -29 -18 3 -38 11 -45 17 -9 7 -21 6 -39 -2 -35
-16 -45 -3 -32 43 14 49 6 77 -33 121 -29 34 -30 39 -25 95 8 75 -4 110 -37
110 -30 0 -46 25 -46 74 0 49 -18 47 -92 -9 -66 -50 -96 -55 -138 -25 -51 37
-120 60 -176 60 -52 0 -55 1 -60 29 -7 32 -25 41 -91 41 -54 0 -88 14 -133 53
-20 18 -51 40 -69 50 -25 13 -31 21 -25 35 21 47 15 97 -19 157 -36 63 -55 75
-92 55 -19 -10 -32 -9 -71 4 -57 19 -54 19 -59 4z"/>
<path d="M1247 9805 c-8 -7 -18 -30 -21 -50 -7 -34 -8 -35 -54 -35 -26 0 -72
6 -102 14 -30 7 -74 16 -97 19 l-43 5 0 -49 c0 -47 2 -49 40 -69 21 -11 48
-20 60 -20 15 0 20 -7 22 -27 1 -16 3 -53 5 -83 3 -65 8 -145 11 -180 l3 -25
19 24 c13 15 20 38 20 66 0 38 4 45 40 69 22 14 47 37 56 51 21 32 51 32 85
-1 25 -24 31 -26 88 -19 34 4 61 9 61 11 0 3 -9 22 -20 44 -22 44 -25 87 -9
124 6 13 9 36 5 50 -5 21 -13 25 -49 28 -39 3 -42 5 -45 36 -3 28 -7 32 -32
32 -16 0 -35 -7 -43 -15z"/>
<path d="M1238 9448 c-38 -22 -58 -69 -58 -137 0 -26 4 -31 25 -31 20 0 30 11
55 60 27 54 41 130 23 130 -5 0 -25 -10 -45 -22z"/>
</g>
</svg>
