<?xml version="1.0" standalone="no"?>
<!DOCTYPE svg PUBLIC "-//W3C//DTD SVG 20010904//EN"
 "http://www.w3.org/TR/2001/REC-SVG-20010904/DTD/svg10.dtd">
<svg version="1.0" xmlns="http://www.w3.org/2000/svg"
 width="1024.000000pt" height="1024.000000pt" viewBox="0 0 1024.000000 1024.000000"
 preserveAspectRatio="xMidYMid meet">
<metadata>
Created by potrace 1.10, written by Peter Selinger 2001-2011
</metadata>
<g transform="translate(0.000000,1024.000000) scale(0.100000,-0.100000)"
fill="#000000" stroke="none">
<path d="M5906 8345 c6 -35 6 -35 -24 -29 -22 5 -39 0 -60 -15 -17 -11 -40
-21 -51 -21 -26 0 -121 -86 -121 -109 0 -9 -20 -39 -43 -66 -39 -44 -45 -57
-50 -112 -6 -58 -5 -63 20 -82 14 -12 41 -21 59 -21 27 0 34 -4 34 -19 0 -21
26 -36 35 -21 3 5 28 12 55 16 40 5 50 10 50 25 0 12 7 19 19 19 10 0 24 7 31
15 8 10 31 15 70 15 64 0 90 -18 90 -63 0 -30 -15 -44 -24 -21 -3 8 -11 12
-17 9 -7 -5 -8 -25 -4 -57 9 -66 -7 -107 -41 -100 -20 4 -24 10 -24 38 0 24
-5 36 -17 40 -10 3 -35 13 -56 22 -38 15 -38 15 -65 -14 -15 -16 -46 -38 -69
-48 -49 -22 -58 -52 -19 -62 47 -11 37 -30 -28 -53 -56 -20 -65 -20 -95 -8
-25 11 -41 12 -60 4 -66 -24 -205 38 -213 95 -2 18 -12 24 -43 30 -69 12 -99
20 -120 34 -32 23 -53 16 -80 -26 -18 -29 -35 -42 -64 -50 -21 -5 -44 -17 -51
-25 -7 -8 -27 -17 -45 -21 -28 -5 -35 -12 -41 -38 -9 -45 -11 -46 -47 -31 -29
12 -34 12 -53 -6 -13 -13 -34 -19 -60 -18 -144 2 -162 1 -187 -16 -17 -10 -36
-15 -51 -11 -19 5 -24 14 -28 51 -8 69 -17 75 -119 75 l-89 0 -27 -54 -26 -53
-61 -6 c-34 -3 -83 -14 -109 -26 -27 -12 -68 -21 -92 -21 -37 0 -47 5 -65 30
-26 37 -21 70 12 85 15 7 22 17 20 30 -3 23 -3 30 0 64 5 39 -14 34 -75 -20
l-58 -52 -64 7 c-64 6 -64 6 -80 -24 -9 -17 -38 -55 -65 -86 -55 -60 -60 -77
-29 -110 24 -25 18 -42 -28 -86 l-28 -27 -49 31 -49 32 -18 -23 c-25 -31 -24
-41 5 -41 13 0 29 -6 35 -13 9 -11 -1 -26 -47 -68 -70 -67 -109 -85 -152 -70
-38 13 -198 -4 -220 -24 -13 -12 -19 -11 -40 5 -14 11 -41 20 -61 20 -57 0
-73 19 -65 71 20 119 22 109 -13 109 -18 0 -45 10 -61 21 -30 23 -45 22 -128
-2 -35 -11 -50 -11 -90 1 -26 7 -73 16 -104 18 -73 5 -80 -8 -50 -92 12 -33
21 -60 19 -61 -1 0 -27 -13 -57 -28 -30 -15 -61 -27 -68 -27 -7 0 -12 -13 -12
-30 0 -19 -7 -33 -20 -40 -11 -6 -37 -36 -59 -68 -21 -32 -46 -64 -55 -71 -9
-7 -16 -26 -16 -42 l0 -29 39 20 c34 17 47 18 94 10 45 -9 64 -7 116 9 79 24
121 15 151 -33 27 -45 15 -78 -39 -105 -21 -11 -50 -34 -63 -51 -18 -23 -36
-32 -77 -40 -30 -6 -56 -12 -58 -14 -3 -2 3 -18 11 -35 34 -65 24 -90 -71
-185 -179 -176 -177 -173 -153 -186 20 -11 18 -14 -41 -60 -35 -27 -84 -56
-109 -66 -59 -22 -78 -40 -86 -80 -5 -26 -11 -33 -32 -36 -19 -2 -33 -15 -49
-43 -12 -21 -31 -43 -42 -47 -24 -9 -28 -40 -6 -58 22 -18 9 -30 -34 -30 -38
0 -39 -1 -70 -70 -30 -69 -32 -70 -69 -70 -21 0 -42 -4 -47 -9 -18 -17 -169
-73 -201 -75 -24 -1 -43 -14 -87 -62 -72 -78 -79 -105 -38 -161 26 -36 31 -52
31 -101 0 -48 -4 -63 -28 -92 -40 -49 -49 -127 -21 -175 l21 -35 -26 -45 c-25
-42 -29 -45 -70 -45 -41 0 -44 -2 -70 -51 -16 -28 -35 -53 -45 -56 -45 -15
-191 -111 -208 -138 -11 -16 -88 -88 -170 -160 -83 -71 -159 -145 -169 -164
l-19 -34 34 -27 c22 -19 36 -42 42 -70 9 -40 8 -44 -28 -84 -21 -22 -57 -71
-81 -108 -42 -64 -43 -68 -32 -108 7 -26 8 -46 2 -53 -5 -7 -12 -24 -15 -38
-8 -31 24 -65 91 -98 36 -18 49 -33 72 -83 l29 -61 -45 -58 c-24 -31 -44 -65
-44 -74 0 -9 -6 -26 -12 -38 -7 -12 -13 -51 -13 -86 l0 -64 -50 -14 c-27 -8
-60 -24 -71 -34 -15 -14 -29 -18 -46 -14 -37 10 -119 -38 -142 -82 -18 -35
-18 -37 0 -50 10 -7 24 -13 31 -13 18 0 17 -9 -12 -74 -14 -31 -25 -59 -25
-61 0 -3 24 -5 54 -5 30 0 66 -4 80 -10 22 -8 28 -5 46 20 18 25 24 28 46 20
92 -35 232 17 302 111 37 51 51 60 123 89 85 35 99 50 99 109 0 38 -19 54 -44
36 -24 -18 -66 0 -66 29 -1 33 -36 103 -59 116 -12 6 -21 20 -21 32 0 40 76
142 142 190 35 25 74 58 87 72 14 14 34 26 45 26 34 0 168 41 220 67 28 14 73
43 101 64 l52 39 199 0 c215 0 191 4 447 -71 l67 -20 0 -72 c0 -95 -25 -137
-83 -137 -42 0 -46 -27 -8 -57 17 -13 31 -32 31 -42 0 -15 25 -39 133 -132 18
-15 -5 -102 -37 -138 -44 -50 -56 -82 -56 -155 0 -57 -3 -65 -33 -94 -27 -26
-33 -39 -29 -62 6 -42 55 -70 120 -70 29 0 70 -7 92 -16 l40 -16 0 -61 c0 -48
-4 -65 -21 -83 -26 -28 -19 -71 14 -84 18 -7 27 -3 52 24 l30 33 36 -36 c19
-20 48 -57 62 -83 15 -25 38 -55 51 -65 48 -38 64 -92 41 -145 -6 -14 1 -20
39 -30 49 -13 51 -16 37 -64 -8 -29 -5 -37 40 -90 27 -33 49 -67 49 -76 0 -9
11 -27 24 -40 13 -13 26 -32 28 -43 6 -35 43 -30 73 10 31 40 57 40 88 -1 26
-33 77 -34 77 -1 0 34 40 67 79 67 35 0 84 41 96 81 5 16 12 19 28 15 12 -4
45 -11 72 -15 28 -5 67 -17 87 -26 34 -17 36 -17 57 4 11 11 32 21 45 21 17 0
34 12 51 34 16 22 37 36 53 38 21 2 28 9 30 31 2 18 9 27 21 27 10 0 24 7 31
15 7 8 25 15 39 15 36 0 60 19 69 55 11 40 39 44 67 9 19 -23 31 -28 66 -29
24 0 61 4 81 8 33 7 40 5 72 -28 19 -19 44 -35 56 -35 17 0 20 -6 20 -40 0
-34 4 -41 25 -46 17 -4 33 1 51 15 38 30 63 26 105 -15 30 -29 40 -34 55 -25
11 5 45 13 76 16 63 7 59 2 74 110 5 37 15 57 36 77 27 25 37 28 126 30 l97 3
32 55 c17 30 41 71 53 90 19 30 21 39 11 66 -14 38 0 87 37 127 20 21 35 27
66 27 55 0 88 19 99 55 5 17 23 39 40 50 23 14 33 29 35 50 1 17 7 49 14 73 9
36 8 45 -6 61 -9 10 -23 40 -31 67 -9 33 -28 63 -55 89 -66 63 -66 66 -18 135
40 56 45 60 73 55 95 -20 102 -19 144 16 29 25 42 44 46 71 5 30 12 39 38 48
38 13 167 133 167 155 0 8 -11 25 -25 37 -49 42 -36 58 94 123 94 46 130 59
167 59 46 1 49 -1 71 -39 39 -70 30 -270 -18 -398 l-29 -78 25 -67 c44 -118
52 -128 130 -163 l71 -32 88 -154 c84 -148 88 -153 120 -153 19 0 46 -10 67
-26 19 -14 51 -34 71 -45 l38 -19 47 24 48 24 35 -29 c39 -33 56 -36 87 -14
20 14 24 12 71 -41 52 -60 59 -97 21 -107 -15 -4 -18 -11 -14 -34 5 -24 0 -32
-35 -57 -36 -24 -60 -59 -60 -85 0 -4 17 -13 39 -19 24 -8 56 -31 85 -62 28
-30 59 -53 77 -57 26 -5 29 -9 29 -46 0 -33 7 -48 35 -77 28 -29 36 -47 47
-107 11 -70 11 -73 -10 -96 -21 -22 -29 -57 -16 -70 3 -3 23 1 44 8 36 13 39
12 60 -10 17 -19 27 -22 45 -15 18 7 24 4 34 -16 6 -14 19 -24 31 -24 42 0 59
19 81 93 12 39 32 83 45 97 13 14 26 40 30 56 5 28 1 35 -38 67 -24 19 -54 38
-68 42 -20 5 -29 19 -47 74 -28 84 -28 93 -2 117 19 17 20 26 14 91 -6 64 -4
77 15 107 12 21 34 39 54 46 66 22 88 69 70 157 -6 30 -3 33 51 64 31 17 62
42 67 55 6 13 19 26 29 29 10 3 21 15 24 26 4 11 15 19 29 19 19 0 28 11 45
49 11 27 21 54 21 60 0 6 11 18 24 27 14 8 28 29 31 45 5 20 13 29 26 29 15 0
19 7 19 35 0 23 20 75 56 147 53 106 55 114 49 167 -3 31 -8 92 -11 136 -5 76
-7 82 -43 120 -55 58 -57 69 -11 90 40 18 50 40 50 111 0 19 8 42 18 52 46 46
172 54 172 11 0 -18 16 -54 37 -86 5 -6 21 -15 36 -18 25 -7 29 -4 47 39 21
45 52 76 78 76 12 0 13 -13 8 -67 -19 -201 -19 -198 3 -241 12 -23 21 -57 21
-76 0 -36 17 -60 48 -70 9 -3 30 -31 46 -61 39 -76 109 -143 155 -150 20 -3
55 -15 78 -25 41 -19 43 -19 99 0 31 11 71 20 88 20 39 0 66 39 66 97 0 21 4
43 8 49 13 20 46 21 78 2 31 -18 33 -18 76 1 25 10 54 31 65 45 15 19 30 26
56 26 19 0 54 7 78 15 24 9 53 14 64 11 11 -3 31 1 44 8 22 12 27 10 71 -35
l48 -49 7 -92 7 -93 65 -43 66 -44 -5 -63 c-6 -63 -5 -64 23 -76 25 -10 32 -9
49 6 17 15 27 16 68 8 53 -10 92 -2 92 20 0 8 11 31 25 52 23 33 24 39 12 54
-8 9 -40 60 -71 113 l-58 96 16 59 c8 32 18 68 22 79 3 12 21 30 40 40 28 15
34 24 34 51 0 22 -6 36 -20 43 -12 6 -20 21 -20 35 0 29 -6 30 -75 12 -27 -7
-60 -11 -73 -9 -30 5 -65 73 -57 111 3 15 1 39 -4 54 -8 19 -6 38 4 68 8 23
15 63 15 89 0 37 5 51 25 70 14 14 25 35 25 50 0 15 11 36 25 50 14 13 28 38
31 57 6 30 10 33 40 33 19 0 57 11 84 25 27 14 64 25 81 25 19 0 46 10 65 25
40 30 44 23 44 -76 l0 -70 43 -18 c32 -14 51 -31 71 -66 21 -34 32 -45 44 -40
10 3 65 8 123 10 82 3 110 1 125 -10 24 -18 68 -19 82 -2 5 6 15 32 22 57 6
25 19 56 27 69 10 16 14 39 11 73 -5 42 -11 53 -48 85 -38 33 -47 36 -94 34
l-51 -2 -14 53 c-25 94 -21 125 25 163 31 27 37 36 27 46 -7 7 -13 25 -13 40
0 24 10 36 78 85 2 1 -6 20 -17 43 -28 54 -26 72 9 106 22 21 30 38 30 62 0
19 9 51 20 73 13 26 20 59 20 99 0 38 7 77 20 107 13 29 20 64 18 87 -3 42 -3
42 -110 92 -26 12 -38 25 -38 39 -1 21 -62 96 -80 96 -5 0 -30 -10 -54 -22
-33 -16 -49 -31 -60 -57 -8 -20 -26 -47 -40 -60 -19 -18 -26 -35 -26 -61 0
-29 -5 -39 -25 -50 -22 -12 -30 -11 -63 4 l-37 18 -27 -33 c-24 -29 -28 -42
-28 -96 l0 -63 -33 0 c-20 0 -51 -13 -82 -34 -37 -24 -67 -35 -110 -40 -58 -7
-61 -6 -89 23 -17 17 -40 31 -51 31 -16 0 -33 16 -59 55 -27 41 -42 55 -60 55
-14 0 -38 11 -54 25 -23 20 -41 25 -81 25 -44 0 -61 6 -110 39 -57 39 -58 41
-65 95 -4 40 -2 66 10 95 14 37 14 42 0 63 -9 12 -16 35 -16 50 0 33 0 33 -49
9 l-38 -20 -63 39 c-44 27 -80 41 -119 46 -30 4 -90 20 -133 35 -86 32 -172
37 -260 16 -39 -9 -50 -8 -72 6 -32 21 -56 21 -101 0 -33 -16 -36 -16 -52 0
-16 16 -14 20 40 75 71 71 73 98 22 209 -24 53 -35 90 -35 123 0 60 38 171 88
257 23 38 48 89 58 113 10 24 32 57 50 72 18 16 38 46 45 66 6 20 23 58 37 85
25 46 26 47 74 47 42 0 48 3 48 20 0 12 -7 31 -14 43 -8 12 -18 52 -22 88 -6
57 -4 67 11 73 17 6 17 7 0 26 -10 11 -25 20 -33 20 -7 0 -27 9 -43 21 -16 11
-33 18 -38 15 -19 -12 -107 113 -131 187 -16 49 -23 56 -123 127 -59 41 -131
94 -160 117 -30 24 -99 63 -156 87 -56 25 -113 54 -128 65 -38 31 -98 44 -163
36 -52 -6 -62 -4 -112 24 -38 22 -68 31 -99 31 -24 0 -78 9 -119 21 -67 19
-82 20 -140 9 -36 -7 -94 -28 -130 -46 -46 -24 -77 -34 -110 -34 -42 0 -50 4
-77 38 -16 20 -35 47 -41 59 -11 19 -9 22 10 25 41 6 28 25 -39 58 -37 19 -76
40 -85 48 -16 13 -22 12 -58 -13 -22 -15 -40 -29 -40 -30 0 -1 18 -14 40 -29
43 -28 49 -46 24 -67 -12 -10 -20 -10 -35 -1 -10 7 -27 12 -37 12 -24 0 -49
27 -58 65 -4 17 -13 39 -20 50 -21 29 -17 62 6 68 11 3 20 12 20 20 0 19 -34
31 -77 28 -27 -2 -32 1 -38 29 -15 69 -99 125 -94 63 3 -47 0 -63 -15 -63 -8
0 -19 19 -26 49 -10 44 -15 49 -49 60 -21 6 -50 11 -65 11 -25 0 -27 -2 -20
-35z"/>
</g>
</svg>
