<?xml version="1.0" standalone="no"?>
<!DOCTYPE svg PUBLIC "-//W3C//DTD SVG 20010904//EN"
 "http://www.w3.org/TR/2001/REC-SVG-20010904/DTD/svg10.dtd">
<svg version="1.0" xmlns="http://www.w3.org/2000/svg"
 width="1024.000000pt" height="1024.000000pt" viewBox="0 0 1024.000000 1024.000000"
 preserveAspectRatio="xMidYMid meet">
<metadata>
Created by potrace 1.10, written by Peter Selinger 2001-2011
</metadata>
<g transform="translate(0.000000,1024.000000) scale(0.100000,-0.100000)"
fill="#000000" stroke="none">
<path d="M1197 9827 c-28 -17 -35 -18 -57 -6 -22 13 -33 13 -81 -1 -31 -8 -63
-21 -72 -28 -10 -9 -27 -11 -46 -7 -21 4 -40 1 -60 -11 -24 -14 -35 -15 -53
-7 -29 13 -95 30 -175 45 -50 10 -67 9 -86 -1 l-25 -13 70 -67 c39 -36 77 -67
84 -69 18 -4 18 -12 -1 -39 -14 -20 -13 -25 10 -59 14 -21 23 -45 20 -53 -4
-9 -11 -41 -17 -71 -6 -30 -25 -75 -41 -99 -30 -44 -57 -125 -57 -172 0 -20
-17 -43 -65 -88 -69 -64 -85 -104 -45 -114 30 -8 35 -53 17 -142 -11 -58 -14
-108 -10 -180 5 -91 3 -108 -21 -177 -14 -42 -26 -87 -26 -101 0 -46 -32 -181
-49 -205 -9 -12 -33 -32 -54 -43 -36 -19 -40 -19 -56 -5 -26 24 -78 20 -115
-9 -22 -16 -46 -25 -71 -25 -30 0 -45 -7 -76 -39 -48 -48 -54 -91 -13 -91 16
0 34 10 46 25 28 36 51 32 71 -12 34 -75 36 -76 120 -62 68 11 76 11 100 -7
20 -14 26 -28 27 -56 0 -20 5 -40 12 -44 22 -14 113 -3 168 21 30 13 66 27 80
30 22 6 21 4 -7 -15 -22 -15 -33 -30 -33 -46 0 -33 15 -30 66 11 23 19 52 35
63 35 13 0 26 10 33 25 11 24 53 45 91 45 15 0 18 -5 13 -25 -7 -28 -4 -29 41
-16 57 16 61 4 78 -266 18 -268 20 -255 -46 -348 -35 -48 -72 -140 -89 -215
-10 -46 -18 -60 -46 -78 -43 -28 -45 -61 -6 -83 21 -12 32 -30 42 -64 12 -44
11 -57 -13 -159 -15 -61 -27 -123 -27 -137 0 -15 -12 -36 -29 -53 l-30 -29 21
-17 c22 -17 22 -17 -18 -30 -54 -18 -84 -39 -84 -59 0 -27 11 -32 36 -16 21
14 24 13 34 -6 8 -14 17 -18 28 -14 9 4 22 9 29 12 7 3 13 -20 18 -73 6 -63
11 -77 26 -81 28 -8 24 -40 -14 -124 -19 -41 -40 -92 -47 -114 -15 -50 -34
-65 -80 -65 -39 0 -114 -44 -107 -63 2 -7 22 -25 44 -42 22 -16 54 -51 71 -77
26 -39 29 -47 15 -52 -14 -6 -14 -8 0 -24 8 -9 19 -35 23 -57 4 -22 28 -76 55
-120 43 -72 49 -88 55 -159 4 -44 15 -98 25 -120 10 -23 19 -63 19 -89 0 -43
-6 -58 -50 -120 -34 -47 -50 -81 -50 -101 0 -61 -20 -101 -83 -168 -44 -48
-70 -68 -87 -68 -22 0 -28 -9 -52 -75 -23 -65 -25 -80 -15 -117 11 -46 41 -98
90 -162 21 -26 33 -56 39 -94 5 -31 22 -79 38 -107 18 -31 34 -80 41 -123 10
-59 15 -72 30 -72 35 0 19 -24 -67 -106 -75 -70 -85 -84 -82 -110 3 -28 5 -29
68 -34 56 -4 66 -8 79 -31 16 -29 8 -79 -12 -79 -8 0 -37 -7 -65 -15 -47 -14
-52 -18 -52 -45 0 -25 4 -30 24 -30 14 0 37 -5 51 -10 18 -7 33 -7 47 1 27 14
35 4 15 -19 -21 -23 -21 -41 -2 -69 14 -20 14 -26 -4 -61 l-20 -39 24 -39 c14
-22 25 -55 25 -76 0 -43 15 -48 64 -23 15 8 30 15 32 15 2 0 4 -22 4 -48 0
-27 5 -74 11 -105 l12 -57 41 6 c22 4 45 10 50 15 10 9 29 -34 46 -101 5 -19
20 -62 33 -96 l24 -60 -24 -67 c-19 -51 -37 -77 -79 -117 -55 -52 -65 -78 -39
-100 26 -22 17 -36 -62 -91 -43 -29 -100 -73 -126 -98 -40 -38 -47 -49 -42
-70 5 -21 0 -32 -36 -62 l-43 -36 37 -12 c40 -14 42 -17 27 -55 -5 -14 -7 -33
-4 -41 7 -17 40 -20 49 -5 3 6 16 10 28 10 13 0 33 7 45 16 21 15 24 14 51
-15 37 -40 67 -41 76 -2 7 33 26 41 97 41 76 0 147 19 159 42 10 19 18 20 105
15 80 -5 102 -10 161 -40 111 -57 211 -87 289 -87 28 0 77 -5 108 -12 l58 -11
34 -71 c19 -39 42 -80 52 -92 25 -31 130 -70 151 -57 9 6 50 16 90 23 72 12
74 12 98 -13 20 -19 23 -29 15 -43 -14 -26 5 -74 29 -74 33 0 94 -37 107 -64
9 -20 8 -33 -4 -63 -15 -34 -15 -38 3 -49 38 -26 63 -59 63 -83 0 -13 9 -38
20 -56 18 -28 19 -45 15 -136 -5 -129 5 -165 56 -201 21 -15 39 -34 39 -42 0
-20 -27 -39 -46 -32 -20 8 -43 -10 -55 -43 -8 -19 -3 -34 23 -77 26 -44 36
-53 53 -48 11 4 22 11 23 15 9 23 22 -7 22 -52 0 -51 23 -89 55 -89 8 0 15 -9
15 -21 0 -41 18 -59 53 -52 17 3 36 12 40 20 4 7 17 13 27 13 24 0 28 41 5 60
-17 14 -20 62 -4 91 8 16 17 19 38 14 22 -5 36 2 74 36 51 44 77 46 77 5 0
-23 16 -36 46 -36 8 0 14 10 14 21 0 20 4 21 53 15 28 -3 75 -6 104 -8 51 -2
53 -1 87 43 49 65 75 79 146 79 76 0 105 13 90 40 -9 16 -6 22 17 34 l28 14
-47 23 c-27 13 -49 31 -52 43 -8 28 -7 122 1 170 6 37 7 38 42 32 20 -3 41
-13 48 -23 40 -59 33 -57 98 -34 33 12 75 21 95 21 19 0 71 9 115 20 66 17 84
26 107 55 16 18 37 37 48 40 17 6 20 15 20 76 0 80 5 83 87 50 72 -28 95 -29
129 -2 l29 23 5 -49 c3 -26 9 -54 13 -61 13 -19 27 -4 27 28 0 16 4 32 10 35
6 3 10 -1 10 -9 0 -21 12 -20 43 4 34 27 62 27 47 1 -14 -28 -15 -28 38 -53
42 -20 64 -23 210 -25 108 -1 169 -6 178 -14 19 -16 18 -46 -3 -57 -26 -15 -8
-39 34 -45 21 -3 103 -11 183 -18 80 -7 156 -18 170 -25 14 -7 55 -18 90 -24
83 -15 210 -75 279 -131 29 -24 62 -50 71 -57 21 -16 70 -6 70 14 0 18 38 37
58 29 9 -3 51 -26 93 -52 69 -41 78 -51 98 -98 21 -51 22 -55 6 -79 -15 -23
-24 -26 -75 -26 -57 0 -60 -1 -94 -44 -43 -52 -45 -64 -8 -71 15 -3 47 -11 72
-18 25 -6 86 -13 137 -14 60 -1 102 -7 122 -17 16 -9 35 -16 41 -16 18 0 140
126 140 144 0 9 12 18 28 22 15 4 37 15 49 26 11 11 39 22 62 25 37 5 41 9 41
33 0 32 25 97 47 122 12 14 14 25 6 56 -10 38 0 82 19 82 4 0 8 19 8 42 0 31
10 59 41 111 22 37 49 71 58 75 28 11 91 70 91 85 0 11 17 13 79 9 l78 -4 80
56 81 56 101 0 c123 0 216 -23 349 -86 83 -39 100 -44 165 -44 55 0 79 5 102
20 17 11 42 20 56 20 15 0 32 7 39 15 18 21 40 19 68 -7 l24 -23 23 29 c27 34
72 44 244 53 113 5 174 -10 186 -48 7 -22 23 -25 31 -5 3 8 13 12 25 9 27 -7
26 33 -2 47 -19 11 -19 13 -5 29 9 10 16 25 16 34 0 22 37 46 82 53 20 4 47
17 59 30 12 13 31 24 41 24 24 0 78 -76 78 -112 0 -31 3 -33 31 -17 16 8 109
139 109 153 0 2 -16 13 -35 25 -39 23 -44 40 -17 64 12 11 22 13 32 7 24 -15
30 -12 30 15 0 17 9 29 31 40 35 18 36 48 2 53 -33 5 -50 32 -62 96 -12 63
-26 80 -79 95 -19 6 -56 30 -82 55 -27 25 -56 46 -65 46 -23 0 -124 98 -146
142 -14 28 -26 38 -43 38 -13 0 -34 9 -47 19 -22 17 -24 26 -23 98 2 108 24
180 79 263 87 131 182 180 351 180 119 0 186 -18 292 -77 l64 -35 124 7 c86 5
128 4 137 -4 10 -8 20 -4 42 19 16 17 35 30 43 30 42 0 98 29 151 77 33 29 68
53 78 53 11 0 34 16 53 35 19 20 44 35 56 35 32 0 38 16 13 38 -24 23 -70 35
-83 21 -6 -5 -13 -9 -18 -9 -11 0 -30 78 -23 99 8 25 72 35 102 16 29 -19 33
-19 33 3 0 10 11 25 25 32 22 12 24 18 19 49 -8 48 -30 64 -77 58 -29 -4 -39
-1 -47 13 -17 33 -12 95 10 115 21 19 26 64 11 94 -15 27 2 46 26 30 11 -7 27
-10 36 -6 14 5 14 12 -1 68 -15 62 -15 63 11 113 23 46 53 203 41 215 -2 2
-17 4 -34 4 -34 0 -41 22 -10 30 28 7 26 45 -2 49 -21 3 -23 9 -26 74 -2 59 0
73 17 88 15 14 24 15 40 7 11 -6 22 -11 25 -11 12 0 5 28 -9 40 -24 20 -18 49
12 61 43 16 63 39 63 71 0 24 -6 32 -30 41 -21 8 -30 18 -30 34 0 13 -8 24
-20 28 -16 5 -20 15 -20 48 0 23 -7 54 -14 69 -8 15 -11 30 -7 33 5 2 11 16
13 29 4 20 -1 27 -23 36 -33 14 -42 37 -34 84 5 26 3 36 -10 43 -18 10 -17 44
1 146 5 32 4 37 -13 37 -11 0 -27 8 -36 18 -15 16 -16 33 -8 137 l9 119 50 46
c27 25 79 63 116 85 l68 40 -4 83 c-2 70 -6 86 -23 98 -18 14 -20 13 -23 -5
-3 -19 -10 -21 -78 -21 -57 0 -76 4 -80 15 -4 8 -12 15 -20 15 -17 0 -18 16
-3 59 6 17 8 43 5 57 -6 24 -10 25 -64 22 l-57 -3 -3 -42 c-3 -43 -12 -50 -46
-37 -10 4 -16 18 -16 35 0 18 -7 32 -20 39 -16 9 -18 14 -8 29 16 27 3 55 -20
42 -10 -5 -57 -19 -105 -31 -79 -20 -88 -20 -116 -6 -17 9 -42 36 -57 61 -19
34 -32 45 -50 45 -13 0 -64 20 -112 43 -48 24 -122 56 -164 72 -76 27 -127 68
-178 141 -22 31 -93 64 -137 64 -28 0 -42 6 -51 20 -9 15 -17 18 -30 12 -27
-15 -151 -13 -188 3 -29 12 -39 12 -69 -1 -57 -23 -116 -18 -198 20 -40 18
-96 36 -123 40 -27 4 -57 15 -68 24 -11 10 -37 17 -65 18 -51 2 -76 6 -171 34
-149 43 -256 53 -295 27 -32 -21 -98 -37 -183 -44 -65 -5 -101 -1 -203 22 -68
15 -140 36 -161 46 -54 27 -126 93 -180 164 l-47 63 -89 21 c-49 12 -98 21
-108 21 -11 0 -29 6 -40 13 -12 6 -41 23 -65 36 -73 40 -129 92 -156 145 -34
67 -94 155 -127 185 -14 14 -31 43 -37 65 -7 26 -24 52 -48 73 -21 17 -52 60
-71 95 -18 35 -46 81 -62 103 -19 27 -31 59 -35 93 -5 47 -3 55 16 68 13 10
21 26 21 45 0 24 -4 29 -25 29 -29 0 -25 18 12 63 13 16 23 34 23 40 0 19 -59
48 -84 41 -17 -4 -43 7 -94 40 -39 25 -72 52 -75 58 -2 7 2 26 10 41 8 15 11
37 8 47 -5 17 -15 19 -90 17 -116 -3 -126 10 -59 71 37 35 49 53 46 70 -5 30
-26 28 -100 -10 l-63 -33 3 -62 3 -61 -35 -5 c-46 -6 -67 5 -46 22 21 17 20
60 0 68 -9 3 -29 -1 -44 -11 -40 -23 -51 -21 -93 22 l-38 39 41 28 c44 31 45
32 26 58 -12 16 -18 16 -61 5 -44 -12 -49 -11 -59 7 -6 10 -21 28 -32 39 -18
16 -19 22 -9 31 11 8 11 19 -3 62 -14 44 -23 55 -56 70 -29 13 -44 29 -64 70
-27 55 -42 67 -42 33 0 -11 -2 -20 -5 -20 -18 0 -58 38 -70 66 -16 38 -40 45
-50 14 -8 -25 -74 -60 -112 -60 -15 0 -39 9 -53 20 -14 11 -31 20 -37 20 -9 0
-11 10 -6 30 5 25 2 30 -14 30 -11 0 -37 -12 -58 -26 -37 -25 -38 -25 -59 -5
-26 24 -71 37 -81 21 -4 -7 -19 0 -41 20 -41 35 -45 36 -69 10 -18 -20 -18
-19 -61 20 -45 41 -62 46 -126 31 -36 -8 -38 -7 -73 37 -38 49 -162 138 -206
147 -35 8 -124 110 -169 194 -42 79 -77 96 -136 68 -44 -21 -44 -21 -44 3 0
25 -29 38 -41 19 -9 -13 -6 -58 7 -104 4 -15 -3 -25 -25 -38 -39 -23 -228 -24
-291 -2 -32 11 -87 15 -217 15 -157 0 -178 2 -215 21 -44 22 -77 55 -78 77 0
18 -34 15 -61 -6 -29 -23 -83 -42 -118 -42 -14 0 -46 -8 -71 -16 -65 -24 -223
-24 -275 0 -22 10 -76 20 -120 23 l-80 6 -36 46 c-19 25 -55 59 -79 76 -41 29
-46 30 -164 30 -115 1 -124 2 -181 31 l-60 31 -3 58 c-2 34 5 95 17 147 29
122 28 124 -24 156 -30 18 -44 34 -45 48 0 12 -12 37 -27 56 -16 20 -41 60
-58 91 -34 65 -65 76 -118 44z"/>
</g>
</svg>
