<?xml version="1.0" standalone="no"?>
<!DOCTYPE svg PUBLIC "-//W3C//DTD SVG 20010904//EN"
 "http://www.w3.org/TR/2001/REC-SVG-20010904/DTD/svg10.dtd">
<svg version="1.0" xmlns="http://www.w3.org/2000/svg"
 width="1024.000000pt" height="1024.000000pt" viewBox="0 0 1024.000000 1024.000000"
 preserveAspectRatio="xMidYMid meet">
<metadata>
Created by potrace 1.10, written by Peter Selinger 2001-2011
</metadata>
<g transform="translate(0.000000,1024.000000) scale(0.100000,-0.100000)"
fill="#000000" stroke="none">
<path d="M4500 10227 c-74 -4 -960 -10 -1967 -13 -1008 -2 -1833 -6 -1833 -8
0 -2 29 -183 65 -403 36 -219 133 -810 215 -1314 210 -1283 509 -3076 521
-3121 5 -21 13 -38 17 -38 5 0 18 -9 29 -20 19 -17 20 -23 10 -50 -9 -25 -9
-33 2 -39 15 -9 39 -102 48 -186 3 -27 12 -58 20 -67 8 -9 17 -35 20 -57 4
-31 20 -58 64 -110 63 -76 89 -119 89 -151 0 -11 9 -39 21 -62 18 -35 20 -53
15 -132 -2 -50 -8 -108 -12 -129 -8 -47 11 -70 104 -129 34 -22 62 -45 62 -51
0 -5 -11 -30 -26 -54 -20 -36 -33 -45 -70 -55 -26 -7 -46 -19 -50 -30 -3 -10
-22 -30 -42 -45 -88 -64 -92 -71 -91 -142 0 -36 4 -87 8 -113 6 -36 3 -58 -11
-95 -116 -295 -148 -389 -148 -435 0 -88 64 -311 111 -388 36 -59 69 -170 69
-231 0 -26 -14 -115 -30 -196 -16 -81 -30 -159 -30 -174 0 -15 -12 -71 -26
-125 -22 -87 -25 -111 -19 -194 7 -93 8 -98 74 -220 102 -191 115 -222 107
-268 -4 -31 -1 -45 14 -65 11 -14 20 -39 20 -57 0 -19 16 -59 41 -101 40 -66
42 -76 49 -172 4 -64 13 -114 23 -133 27 -52 71 -82 129 -88 141 -15 652 -55
1038 -81 465 -30 566 -36 1440 -85 1416 -79 2351 -137 2384 -146 17 -6 18 -13
12 -71 -6 -62 -6 -65 24 -94 29 -30 30 -32 30 -133 0 -99 1 -103 28 -129 27
-26 32 -27 140 -27 l112 0 0 46 c0 25 13 98 29 162 47 192 47 192 1 323 -40
111 -41 116 -34 201 5 73 10 90 30 109 16 15 24 34 24 56 0 37 8 40 51 17 17
-8 32 -14 33 -12 1 2 10 22 21 46 25 59 40 69 65 47 19 -17 21 -17 41 1 20 18
21 18 35 -1 8 -10 14 -22 14 -27 0 -16 60 -38 104 -38 33 0 52 -6 74 -25 17
-14 38 -25 48 -25 9 0 26 -7 36 -16 10 -10 41 -19 70 -22 29 -3 56 -10 61 -16
5 -8 10 -7 16 3 7 11 13 8 32 -13 12 -14 31 -26 40 -26 10 0 21 -5 24 -10 5
-8 11 -8 19 -1 9 7 23 7 45 -2 30 -11 34 -10 56 15 14 16 30 25 38 22 10 -3
16 5 21 27 11 57 6 81 -24 116 -16 18 -30 43 -30 55 0 19 -4 20 -50 16 -54 -5
-70 4 -70 39 0 18 6 23 25 23 13 0 40 14 59 31 l35 30 14 -23 c8 -13 19 -32
25 -43 9 -16 12 -5 13 58 2 42 3 87 3 99 1 30 -46 48 -75 29 -12 -7 -24 -10
-27 -6 -11 11 -1 90 16 123 14 28 22 32 55 32 34 0 38 3 35 23 -2 17 -8 21
-30 19 -22 -3 -26 0 -21 17 4 16 -1 20 -24 23 -25 3 -29 8 -37 51 -7 34 -6 63
2 94 12 42 11 46 -12 64 -13 10 -27 31 -31 46 -3 16 -15 37 -26 49 -18 19 -18
24 -5 55 21 50 27 53 52 22 21 -27 23 -27 41 -10 27 24 33 22 33 -12 0 -25 6
-31 35 -41 29 -9 35 -17 35 -39 0 -15 -5 -32 -11 -38 -8 -8 -5 -14 11 -23 20
-11 21 -12 4 -24 -23 -18 -11 -48 18 -44 18 2 24 14 35 73 14 68 67 195 81
195 4 0 22 -19 40 -42 26 -33 32 -49 27 -68 -4 -14 -9 -49 -12 -77 -4 -48 -3
-53 15 -53 12 0 34 17 51 37 30 36 41 60 22 48 -19 -11 -20 13 -5 71 24 95 52
144 80 144 27 0 28 -1 14 -52 -19 -68 25 -109 48 -45 25 69 16 92 -53 142 -53
38 -55 42 -55 98 0 57 -10 79 -56 119 -43 38 -43 62 1 124 39 54 43 80 20 124
-17 32 -22 35 -45 20 -10 -6 -20 -4 -32 7 -25 22 -23 30 12 38 16 4 39 20 50
36 20 28 22 28 46 13 24 -16 24 -16 39 20 8 19 15 51 15 71 l0 35 37 -15 c20
-8 38 -14 40 -11 2 2 6 19 10 39 5 34 5 35 -36 42 -31 5 -48 3 -66 -9 -38 -25
-52 -20 -57 20 -4 35 11 64 33 64 5 0 -1 18 -12 40 -14 26 -18 47 -13 62 l7
22 17 -22 c25 -30 37 -28 60 11 41 66 21 115 -55 133 -58 13 -64 35 -23 81
l20 21 54 -25 c30 -14 61 -23 68 -20 14 6 26 -31 26 -79 0 -17 7 -25 25 -30
34 -8 49 6 91 87 20 38 40 69 44 69 4 0 19 -12 34 -26 24 -25 26 -33 26 -110
0 -49 4 -86 11 -90 14 -8 93 67 130 125 34 53 36 61 9 54 -14 -4 -29 4 -49 26
-18 20 -39 31 -56 31 -41 0 -81 26 -99 64 -31 66 -9 81 24 16 21 -41 40 -48
85 -31 18 7 18 9 -10 24 -40 20 -72 56 -80 89 -10 40 8 35 47 -12 l32 -41 14
28 c14 26 15 26 22 7 12 -30 30 -42 103 -64 36 -11 69 -25 73 -31 4 -7 26 8
55 37 l48 48 -38 17 c-22 9 -51 34 -65 55 -25 37 -35 70 -18 62 4 -2 23 -12
44 -22 36 -19 36 -19 64 3 l29 22 9 -20 c10 -24 18 -25 49 -10 34 17 107 99
107 120 0 23 -18 35 -33 20 -23 -23 -55 -8 -147 69 -52 44 -106 83 -119 86
-13 4 -38 0 -57 -10 -45 -21 -70 -20 -109 4 -53 33 -82 80 -103 169 -16 66
-17 90 -9 118 8 25 8 40 -1 53 -9 15 -6 26 18 62 16 23 30 51 30 60 0 29 -32
86 -52 91 -37 10 -105 198 -87 244 5 13 9 31 9 40 0 9 -41 58 -92 109 -71 73
-99 95 -127 100 -52 10 -81 26 -139 81 -53 50 -64 80 -37 103 21 17 19 33 -12
89 -25 45 -27 52 -15 83 16 46 15 64 -4 94 -13 19 -16 39 -11 89 l6 65 -29 0
c-28 0 -30 3 -30 35 0 24 -6 37 -21 45 -16 9 -19 17 -14 41 5 24 0 38 -29 78
-39 52 -45 81 -21 101 31 26 18 64 -42 122 -76 71 -176 138 -207 138 -46 0
-139 42 -183 82 -47 44 -63 84 -63 163 -1 48 -2 49 -17 28 -23 -34 -47 -28
-93 24 -35 40 -41 53 -37 80 4 21 1 36 -9 44 -8 6 -14 22 -14 35 0 14 -8 25
-20 29 -33 11 -124 84 -133 107 -6 17 -3 26 15 39 21 17 22 18 5 37 -21 23
-22 55 -1 72 45 39 39 72 -20 102 -52 25 -96 67 -96 89 0 16 -69 111 -100 137
-8 7 -34 24 -58 39 -37 22 -46 24 -66 13 -29 -15 -50 -5 -112 52 -31 29 -44
50 -49 79 -4 22 -17 52 -30 67 -12 15 -30 53 -39 86 -12 40 -30 72 -60 105
-23 25 -53 61 -65 79 -12 17 -74 66 -136 107 -63 41 -147 104 -188 139 -40 35
-89 71 -109 79 -39 16 -88 90 -111 169 -19 62 -142 245 -177 263 -38 20 -45
35 -69 141 -24 107 -39 147 -80 198 -17 21 -31 48 -31 60 0 22 -17 52 -62 108
-15 19 -36 67 -48 113 -38 143 -67 168 -170 147 -31 -7 -69 -12 -85 -12 -40 0
-115 51 -170 116 -26 30 -73 75 -106 100 -48 37 -59 50 -59 75 0 29 0 29 -59
29 -61 0 -84 11 -96 49 -3 10 -18 21 -34 24 -18 4 -36 18 -50 40 -14 23 -33
37 -61 46 -65 19 -77 75 -30 139 12 16 24 49 28 73 8 53 51 109 82 109 15 0
20 5 18 19 -2 10 13 36 35 60 20 22 37 46 37 51 0 6 12 10 26 10 17 0 35 11
52 32 45 53 74 78 98 84 18 5 27 19 39 59 8 29 15 56 15 59 0 9 -654 4 -810
-7z"/>
<path d="M8712 2644 c-12 -25 -18 -43 -12 -39 11 7 42 76 37 81 -2 2 -13 -17
-25 -42z"/>
</g>
</svg>
