<?xml version="1.0" standalone="no"?>
<!DOCTYPE svg PUBLIC "-//W3C//DTD SVG 20010904//EN"
 "http://www.w3.org/TR/2001/REC-SVG-20010904/DTD/svg10.dtd">
<svg version="1.0" xmlns="http://www.w3.org/2000/svg"
 width="1024.000000pt" height="1024.000000pt" viewBox="0 0 1024.000000 1024.000000"
 preserveAspectRatio="xMidYMid meet">
<metadata>
Created by potrace 1.10, written by Peter Selinger 2001-2011
</metadata>
<g transform="translate(0.000000,1024.000000) scale(0.100000,-0.100000)"
fill="#000000" stroke="none">
<path d="M4212 10215 c-11 -14 -23 -43 -27 -65 -6 -38 -8 -40 -76 -61 -47 -15
-73 -19 -81 -12 -7 6 -34 13 -59 16 -40 5 -56 1 -122 -32 -50 -24 -90 -52
-113 -79 -23 -27 -44 -42 -59 -42 -13 0 -31 -11 -42 -25 -18 -25 -19 -26 -56
-10 l-37 15 0 89 0 89 -34 21 c-27 17 -50 21 -118 21 -74 0 -87 -3 -104 -21
-39 -43 -102 -80 -128 -73 -13 3 -27 1 -30 -5 -4 -6 -23 -11 -43 -11 l-36 0 6
-42 c4 -31 0 -53 -17 -87 -29 -57 -46 -134 -46 -207 0 -46 -6 -63 -31 -101
-41 -58 -48 -112 -21 -150 25 -35 37 -105 23 -131 -6 -11 -34 -35 -63 -54 -53
-33 -54 -33 -163 -31 -158 3 -196 -8 -274 -79 -36 -32 -72 -75 -81 -96 -12
-27 -34 -48 -77 -74 l-60 -38 -7 -177 c-15 -421 -16 -433 -40 -433 -12 0 -33
-8 -46 -17 -56 -38 -174 -150 -203 -193 -155 -229 -365 -440 -437 -440 -37 0
-90 -28 -163 -89 -70 -57 -217 -157 -298 -203 -30 -16 -50 -41 -79 -93 -21
-38 -57 -88 -79 -110 -31 -29 -41 -47 -41 -70 0 -31 -2 -33 -93 -64 -127 -44
-200 -88 -207 -127 -4 -16 -28 -57 -54 -91 -47 -60 -47 -61 -41 -120 7 -56 6
-59 -18 -70 -39 -18 -61 -57 -54 -97 4 -27 0 -40 -24 -69 -16 -20 -38 -38 -48
-42 -26 -8 -55 -77 -47 -111 9 -33 -5 -43 -59 -45 -22 0 -48 -4 -58 -8 -18 -6
-18 -8 -2 -21 9 -7 38 -45 65 -84 36 -52 65 -81 105 -105 87 -53 111 -118 84
-226 -10 -38 -8 -48 10 -82 18 -31 34 -43 89 -65 37 -15 92 -34 123 -42 31 -9
100 -39 153 -66 53 -28 196 -91 318 -140 121 -50 242 -102 267 -117 25 -15 66
-37 91 -49 25 -12 102 -69 171 -127 121 -102 127 -109 164 -189 30 -63 39 -96
39 -138 l1 -55 -32 1 c-18 1 -33 -2 -33 -6 0 -5 23 -29 51 -54 38 -34 59 -46
83 -46 18 0 55 -15 88 -34 72 -44 257 -112 328 -121 93 -12 310 -84 366 -122
36 -24 60 -34 80 -31 l29 3 -38 37 c-21 21 -56 43 -77 49 -22 7 -47 20 -56 31
-16 17 -16 18 7 18 14 0 29 -4 35 -9 16 -16 123 -71 138 -71 8 0 18 -10 22
-22 4 -13 23 -37 43 -55 l36 -32 -32 -1 c-40 0 -41 -11 -5 -45 35 -33 96 -60
169 -75 55 -11 63 -17 173 -125 75 -74 131 -121 160 -133 25 -11 64 -36 88
-55 24 -20 65 -44 92 -54 l48 -17 11 -75 12 -75 71 -65 c39 -36 86 -77 104
-91 18 -14 63 -50 101 -81 37 -31 88 -67 113 -80 31 -17 53 -39 70 -70 40 -73
136 -171 255 -260 61 -45 135 -105 165 -134 30 -28 88 -73 128 -100 47 -31 72
-54 72 -67 0 -36 28 -88 48 -88 33 0 112 -40 154 -78 22 -20 53 -62 68 -93 42
-82 139 -190 228 -253 42 -30 86 -63 96 -75 11 -12 60 -44 108 -72 75 -43 87
-53 73 -63 -10 -7 -13 -18 -10 -28 10 -24 94 -78 122 -78 15 0 50 -25 99 -70
42 -39 102 -84 133 -100 32 -16 73 -41 91 -57 111 -93 185 -133 325 -178 77
-24 151 -46 165 -49 40 -8 200 -113 255 -167 43 -42 59 -50 109 -60 109 -20
298 -99 362 -152 16 -13 52 -31 79 -41 69 -25 146 -70 175 -102 73 -78 221
-163 315 -180 82 -14 138 -45 210 -112 46 -44 84 -72 111 -80 25 -7 103 -12
198 -12 l157 0 132 -56 c73 -31 174 -72 225 -90 52 -19 125 -48 164 -64 39
-17 84 -30 102 -30 47 0 58 -13 64 -69 l5 -51 36 0 c30 0 42 -6 59 -30 17 -23
31 -30 56 -30 18 0 61 -11 95 -25 49 -20 72 -24 110 -19 38 5 56 2 90 -15 57
-29 123 -36 209 -21 88 15 93 30 26 87 -45 38 -46 39 -37 78 15 68 9 233 -12
327 -19 84 -19 89 -2 118 22 36 22 67 5 285 -13 163 -15 172 -46 221 -31 50
-32 55 -32 163 0 101 2 111 18 111 11 0 27 9 37 20 10 11 29 20 42 20 20 0 23
5 23 41 0 26 -8 53 -25 77 -23 34 -25 45 -25 152 0 63 4 120 8 126 14 22 74
45 109 42 39 -3 59 16 92 89 19 41 19 42 -3 129 -21 84 -21 91 -7 151 15 58
18 63 44 63 15 0 39 7 53 16 13 9 26 15 27 13 2 -2 8 -15 14 -29 l11 -25 15
35 c8 19 29 45 45 57 l29 22 -14 83 c-8 45 -16 85 -19 87 -2 2 -13 -8 -25 -23
l-21 -26 -32 42 c-43 56 -55 135 -23 140 18 3 23 14 33 83 6 45 19 104 28 133
14 40 15 59 8 81 -12 33 -7 41 20 41 25 0 22 18 -10 66 -15 22 -36 67 -46 100
-11 32 -32 94 -47 137 -22 60 -26 83 -19 103 6 14 10 77 10 139 0 126 -4 135
-69 135 -27 0 -31 -5 -46 -50 -20 -59 -29 -57 -65 20 -13 27 -26 50 -29 50 -3
0 -26 -13 -51 -30 l-44 -29 -34 64 c-27 51 -41 66 -67 75 -49 16 -139 67 -160
90 -29 32 -53 26 -61 -15 -4 -22 -12 -35 -22 -35 -19 0 -169 99 -196 129 -20
22 -22 48 -11 122 6 38 3 54 -20 100 -15 30 -33 57 -39 61 -6 4 -35 8 -63 8
-63 0 -63 -1 -33 141 32 150 31 152 -45 194 -40 23 -72 49 -86 72 -27 44 -92
73 -164 73 -34 0 -57 5 -65 15 -20 24 -76 29 -146 11 -52 -13 -69 -14 -80 -5
-12 10 -21 6 -47 -19 -18 -17 -48 -34 -67 -39 -44 -12 -137 7 -176 34 -16 12
-65 31 -109 43 -52 14 -90 32 -110 50 -50 46 -186 81 -239 61 -21 -9 -32 -8
-42 0 -12 10 -12 13 1 23 14 10 13 18 -4 71 l-20 60 26 27 c22 23 24 30 13 43
-7 8 -22 15 -34 15 -12 0 -35 14 -51 30 -16 17 -39 30 -51 30 -18 0 -24 -9
-34 -50 -9 -39 -16 -50 -29 -46 -9 3 -27 8 -41 11 -14 4 -37 24 -53 46 -40 59
-80 79 -154 79 -56 0 -63 2 -63 20 0 13 7 20 20 20 23 0 70 65 70 97 0 17 6
23 21 23 37 0 59 19 59 50 0 34 -1 34 35 20 25 -9 28 -7 43 29 13 31 25 42 54
51 25 7 38 17 38 28 1 17 34 45 97 82 21 12 33 29 38 52 5 22 25 49 61 81 38
34 54 56 54 74 0 16 7 27 20 30 19 5 40 55 40 97 0 11 8 43 17 73 16 52 16 53
-5 76 -26 28 -28 59 -6 92 13 19 15 38 10 79 -7 50 -5 55 14 61 32 10 80 83
80 120 0 17 -11 65 -25 105 -28 84 -33 174 -10 204 20 26 20 102 0 109 -8 4
-45 29 -84 58 l-69 52 -7 61 c-10 102 -15 115 -43 128 -22 11 -29 24 -39 68
-6 30 -12 81 -12 112 -1 31 -6 69 -12 85 -6 15 -15 70 -20 122 -7 84 -12 100
-49 163 -41 68 -44 70 -133 112 -51 24 -109 59 -130 77 -36 32 -38 39 -49 122
l-11 87 -93 0 c-107 0 -156 -15 -221 -67 -36 -29 -43 -41 -57 -102 -22 -98
-21 -197 3 -243 l20 -36 -60 -71 c-33 -39 -64 -71 -70 -71 -17 0 -54 -51 -59
-83 -4 -27 -10 -32 -35 -35 -26 -2 -37 -14 -75 -79 -25 -42 -47 -80 -48 -84
-2 -5 11 -27 29 -50 l32 -41 -21 -44 c-16 -31 -29 -45 -49 -50 -16 -3 -45 -10
-66 -15 -40 -10 -57 -6 -57 15 0 7 -11 23 -24 35 -23 22 -25 22 -50 6 -14 -10
-26 -21 -26 -26 0 -4 -14 -24 -31 -43 -24 -28 -40 -36 -77 -41 -79 -10 -89
-14 -132 -50 -34 -28 -50 -35 -86 -35 -24 0 -44 2 -44 5 0 4 7 19 15 35 15 28
14 29 -30 57 -32 20 -45 35 -45 51 0 19 -5 22 -37 22 -69 0 -119 47 -144 134
-6 20 -5 42 3 63 22 59 -16 74 -147 59 l-60 -7 -20 43 -20 43 -72 3 c-66 3
-73 1 -84 -20 -26 -50 -79 -53 -106 -7 l-18 31 -60 -67 -60 -66 1 70 c1 80 25
128 87 175 31 24 67 103 67 146 0 8 11 25 24 39 15 16 34 60 48 110 24 82 24
84 6 119 -10 20 -18 45 -18 55 0 22 25 113 47 174 18 49 11 106 -15 125 -9 7
-30 31 -47 53 -16 22 -41 50 -56 62 -22 18 -28 36 -37 105 -17 120 -15 196 7
244 31 68 35 118 14 154 -15 26 -23 31 -47 27 -24 -3 -26 -2 -13 8 14 10 14
15 -8 51 -20 33 -24 52 -25 121 0 91 9 81 -93 99 -25 4 -44 16 -57 34 l-20 29
22 46 c18 38 20 50 11 74 -8 24 -8 32 5 45 14 14 15 20 2 49 -21 49 -18 102 8
130 12 13 22 28 22 34 0 18 -34 40 -73 47 -26 5 -53 22 -85 53 l-47 45 -46
-16 c-26 -9 -56 -16 -68 -16 -12 0 -35 -7 -51 -15 -37 -19 -37 -14 1 55 38 70
34 118 -15 155 -32 24 -80 32 -102 17 -6 -4 -20 -34 -30 -66 l-20 -59 -32 74
c-26 60 -32 83 -27 114 6 34 2 47 -25 88 -18 26 -36 47 -40 47 -5 0 -18 -11
-28 -25z"/>
</g>
</svg>
