<?xml version="1.0" standalone="no"?>
<!DOCTYPE svg PUBLIC "-//W3C//DTD SVG 20010904//EN"
 "http://www.w3.org/TR/2001/REC-SVG-20010904/DTD/svg10.dtd">
<svg version="1.0" xmlns="http://www.w3.org/2000/svg"
 width="1024.000000pt" height="1024.000000pt" viewBox="0 0 1024.000000 1024.000000"
 preserveAspectRatio="xMidYMid meet">
<metadata>
Created by potrace 1.10, written by Peter Selinger 2001-2011
</metadata>
<g transform="translate(0.000000,1024.000000) scale(0.100000,-0.100000)"
fill="#000000" stroke="none">
<path d="M8975 8784 c-27 -7 -64 -13 -82 -13 -22 -1 -38 -10 -55 -30 -13 -16
-42 -38 -64 -49 -55 -28 -144 -127 -188 -210 -38 -72 -87 -112 -206 -166 -32
-15 -78 -48 -110 -81 -33 -34 -83 -71 -125 -92 -38 -20 -99 -63 -135 -95 -36
-33 -92 -74 -125 -90 -42 -21 -83 -55 -136 -112 -70 -74 -85 -85 -175 -124
l-99 -43 -50 -76 c-27 -43 -73 -106 -102 -141 -34 -41 -63 -92 -83 -143 -45
-118 -46 -131 -16 -185 14 -25 26 -48 26 -49 0 -1 -17 -5 -39 -9 -33 -5 -46
-15 -87 -70 -104 -138 -134 -185 -134 -208 0 -17 -20 -40 -73 -85 -106 -89
-187 -133 -292 -159 -49 -12 -121 -35 -160 -51 -78 -33 -82 -40 -84 -141 -1
-43 -9 -67 -41 -120 -21 -37 -53 -100 -70 -141 -17 -41 -48 -98 -71 -127 -30
-39 -41 -64 -46 -102 l-6 -51 39 -9 c22 -6 53 -13 71 -17 l32 -6 -75 -105
c-75 -103 -76 -105 -81 -179 l-6 -75 42 15 c23 8 55 24 71 35 15 11 66 38 113
59 l85 39 49 84 c51 86 89 210 112 366 9 55 16 71 61 122 28 33 59 61 68 64 9
2 94 12 187 21 l170 17 55 59 55 59 140 6 140 6 72 -32 73 -33 19 -66 c47
-159 47 -153 8 -218 l-36 -58 81 -3 c73 -3 110 4 194 35 18 7 44 -84 44 -153
l0 -62 -95 -32 c-93 -31 -95 -32 -162 -110 -58 -66 -80 -84 -146 -115 -43 -21
-113 -45 -155 -54 l-77 -16 -35 -67 -35 -67 18 -65 c9 -35 17 -67 17 -69 0 -3
-27 -14 -60 -26 -50 -16 -70 -18 -115 -11 -74 12 -105 30 -167 100 l-54 61
-114 0 c-92 0 -126 -4 -177 -23 l-64 -22 -92 18 c-51 11 -122 32 -159 48 -51
21 -83 28 -132 28 -70 0 -78 -6 -47 -34 18 -16 18 -19 3 -68 -14 -41 -32 -65
-101 -129 -46 -44 -107 -90 -135 -103 -28 -13 -81 -38 -119 -54 -38 -18 -90
-52 -120 -81 -84 -80 -296 -171 -396 -171 -42 0 -56 -5 -84 -30 -29 -25 -43
-30 -86 -30 -39 0 -60 -6 -84 -24 -39 -28 -139 -46 -264 -46 -48 0 -137 -9
-197 -20 -60 -11 -130 -20 -155 -20 -25 0 -84 -14 -131 -30 -104 -37 -192 -39
-360 -10 -63 11 -141 20 -174 20 -51 0 -66 5 -126 42 -38 23 -76 55 -85 70
-15 26 -21 28 -81 28 -48 0 -76 -6 -107 -22 -23 -12 -82 -29 -132 -38 l-90
-15 3 -32 c3 -28 0 -32 -25 -35 -27 -3 -28 -4 -31 -74 -2 -60 0 -73 17 -88 17
-15 25 -17 52 -7 45 16 46 15 59 -25 10 -31 9 -45 -6 -90 -18 -54 -18 -54 3
-76 l21 -21 46 29 c29 18 55 46 71 76 26 47 27 48 78 49 108 3 152 -3 202 -29
50 -25 50 -25 23 -34 -19 -7 -45 -4 -93 11 l-66 21 -57 -22 -57 -21 40 -18
c22 -10 45 -18 51 -18 7 -1 17 -21 23 -45 6 -24 22 -57 35 -73 l25 -29 -29
-18 c-50 -29 -55 -139 -9 -209 24 -36 25 -37 91 -37 l66 0 53 61 52 60 56 -54
c81 -78 105 -91 143 -78 45 16 46 15 50 -26 4 -52 33 -59 208 -47 138 10 140
10 173 42 33 32 33 32 137 32 90 0 108 3 144 24 23 13 64 26 91 30 28 4 62 9
78 12 26 5 27 4 27 -39 l0 -45 -43 -6 c-30 -5 -61 -21 -110 -60 -37 -30 -90
-68 -117 -86 -46 -30 -50 -35 -50 -72 0 -31 -6 -45 -32 -69 -28 -25 -41 -29
-87 -29 -30 0 -85 -10 -123 -22 l-68 -22 -17 23 c-25 36 -112 71 -162 64 l-41
-6 0 -51 c1 -28 7 -62 15 -76 8 -14 14 -28 15 -31 0 -4 -23 -15 -52 -25 -31
-12 -74 -39 -106 -69 -30 -27 -73 -57 -96 -66 -33 -13 -42 -23 -47 -49 -9 -40
-12 -43 -79 -71 -30 -12 -71 -37 -90 -54 -19 -18 -80 -52 -135 -75 -55 -23
-116 -52 -135 -65 -19 -13 -69 -33 -110 -45 -101 -30 -266 -121 -308 -171
l-34 -39 -95 0 c-83 0 -103 -4 -169 -31 -42 -17 -96 -37 -122 -43 -55 -14 -59
-24 -61 -159 l-1 -87 41 -37 41 -37 -54 -27 c-29 -15 -71 -46 -93 -68 -38 -39
-41 -41 -102 -41 -35 0 -63 -3 -63 -8 0 -4 4 -23 10 -42 9 -32 8 -37 -31 -76
-38 -39 -45 -42 -112 -48 -40 -4 -121 -18 -181 -32 -128 -28 -246 -31 -321 -8
-47 15 -57 15 -118 1 l-67 -15 -18 41 -19 42 31 9 c17 5 32 10 33 11 2 1 -4
25 -12 53 -14 44 -20 52 -52 63 -36 12 -37 11 -73 -31 l-36 -42 -32 16 c-18 9
-39 27 -47 40 -9 13 -27 27 -41 30 -28 8 -29 11 -8 84 12 41 15 74 10 126 -4
39 -11 118 -15 176 -5 58 -14 120 -21 138 -7 18 -11 35 -8 37 2 2 66 -1 143
-6 108 -8 159 -17 225 -39 137 -46 154 -46 242 -6 41 19 97 38 122 41 l46 7
-6 52 c-9 80 -3 76 -111 76 -54 0 -130 6 -168 13 -69 13 -72 13 -104 -9 -25
-17 -54 -24 -115 -29 -80 -6 -83 -5 -193 39 -92 38 -124 46 -175 46 -39 0 -82
8 -113 20 -27 11 -75 27 -105 35 -43 12 -70 29 -125 80 l-70 64 42 1 c28 0 69
14 125 41 46 23 94 47 108 53 21 10 25 20 28 62 l3 50 -60 28 c-56 27 -59 30
-46 50 31 48 86 212 92 271 l6 63 89 23 90 23 24 48 c13 26 24 60 24 75 0 15
4 33 8 38 9 13 114 38 164 39 53 1 62 15 43 63 -14 35 -21 41 -65 52 -45 12
-50 16 -56 49 -5 23 -1 50 8 77 15 40 15 43 -15 114 -43 102 -51 106 -162 76
-50 -14 -91 -25 -92 -25 -2 0 -3 19 -3 43 0 32 -8 53 -31 85 l-30 42 35 17
c31 14 36 22 36 50 0 33 -1 33 -46 33 -28 0 -59 -8 -78 -19 -17 -10 -49 -24
-71 -31 -22 -7 -44 -16 -48 -20 -4 -3 1 -28 13 -54 11 -26 20 -54 20 -62 0 -8
-19 -35 -42 -60 l-42 -45 -85 4 c-47 2 -117 9 -154 16 -53 10 -79 10 -118 1
-49 -12 -50 -13 -44 -44 4 -17 26 -51 50 -76 65 -69 75 -89 75 -146 0 -48 3
-54 43 -91 23 -21 53 -46 67 -56 24 -16 25 -23 28 -132 3 -91 1 -123 -13 -160
l-18 -46 31 -32 c29 -30 32 -39 32 -97 0 -57 -4 -70 -39 -124 -31 -48 -40 -73
-43 -119 -5 -58 -5 -59 29 -75 43 -20 42 -30 -4 -37 -21 -4 -51 -9 -67 -12
-27 -5 -28 -4 -24 26 4 25 -2 37 -28 62 -28 27 -35 29 -54 19 -29 -16 -41 -3
-47 53 -5 41 -3 47 26 68 30 22 43 59 20 59 -6 0 -40 -8 -76 -17 -58 -16 -68
-23 -100 -66 l-35 -48 21 -57 c11 -31 25 -79 31 -106 6 -27 28 -78 50 -115 21
-36 45 -88 53 -116 8 -27 28 -78 45 -113 24 -51 31 -80 37 -166 5 -84 11 -108
26 -122 10 -9 25 -42 34 -73 29 -105 78 -226 114 -283 28 -44 94 -107 276
-263 294 -252 299 -255 552 -300 l183 -32 117 64 117 64 65 -30 c56 -25 87
-31 201 -41 74 -6 160 -17 190 -24 71 -17 167 -7 186 19 8 10 14 30 15 44 0
21 5 15 24 -27 24 -52 25 -53 62 -50 32 3 41 9 60 44 33 60 93 87 236 109
l117 18 28 44 c27 42 28 43 84 43 55 0 57 1 100 49 24 27 71 65 104 85 36 21
70 49 81 69 16 26 56 52 194 126 147 79 331 202 434 291 11 9 67 34 125 55 58
21 130 51 160 66 30 14 89 37 130 49 96 28 220 91 290 146 30 23 89 58 132 77
42 19 81 44 87 55 20 37 115 139 167 181 42 33 67 67 130 179 43 75 94 154
113 176 43 45 167 141 234 180 40 24 48 34 53 67 4 23 12 39 20 39 8 0 23 19
35 42 27 55 56 78 98 78 36 0 72 32 149 133 26 34 43 47 62 47 14 0 45 14 70
31 25 16 75 46 112 64 60 31 68 39 78 75 10 36 15 41 55 51 24 6 51 19 60 29
16 18 16 21 -3 48 -12 16 -28 35 -37 42 -23 19 -19 26 25 44 51 20 61 20 53 0
-6 -15 40 -63 61 -64 4 0 26 14 47 31 34 26 39 36 39 71 0 35 6 45 62 98 49
47 72 61 110 70 30 6 70 26 101 50 35 26 72 43 107 51 62 13 152 57 190 91 14
13 38 41 54 63 66 91 106 123 159 130 93 13 141 37 215 106 61 57 73 73 82
115 21 98 29 112 91 157 33 25 78 50 102 57 35 10 46 19 62 53 24 51 92 98
185 129 36 11 85 38 110 58 51 42 219 145 328 202 l74 38 44 -26 c25 -15 49
-22 56 -18 37 22 108 88 114 107 4 12 26 40 49 63 32 33 59 47 121 67 44 14
97 29 118 33 29 5 51 20 85 56 43 46 50 49 106 55 55 5 145 44 145 61 0 4 -18
17 -41 30 -38 22 -44 23 -128 13 -130 -16 -172 -32 -239 -90 -51 -44 -63 -50
-89 -45 -18 3 -33 1 -37 -5 -4 -6 -37 -11 -76 -11 -66 0 -70 -1 -103 -36 l-34
-36 -55 12 -54 12 -15 56 c-12 49 -19 59 -60 84 -39 24 -51 27 -74 18 -14 -5
-51 -10 -82 -10 -53 0 -57 2 -116 56 -33 31 -84 72 -112 91 l-53 34 -62 -25
c-35 -14 -64 -26 -65 -26 -1 0 -10 25 -21 55 -13 41 -24 57 -41 61 -14 4 -26
19 -34 42 -11 32 -10 37 10 53 24 20 26 36 9 91 -8 28 -25 50 -55 72 -35 25
-42 37 -43 64 0 18 -15 66 -34 107 -31 67 -37 74 -73 84 -21 6 -54 11 -74 11
-37 0 -64 21 -88 68 -15 29 -2 56 55 107 36 33 45 47 47 80 l2 39 -67 11 -66
10 14 28 c17 32 11 31 61 13 l40 -14 45 46 c24 26 61 68 81 93 25 32 46 48 69
53 18 3 48 21 68 40 30 28 47 35 114 46 65 10 102 24 210 81 72 37 161 77 197
88 48 15 69 27 77 45 16 36 52 39 117 11 65 -29 66 -28 101 48 l17 38 -34 35
-34 36 40 34 c22 18 52 38 66 44 14 6 32 23 41 38 13 22 35 33 105 55 66 21
95 36 115 60 15 17 49 39 75 49 60 22 63 22 63 -1 0 -14 9 -21 31 -26 26 -6
36 -2 65 26 19 19 34 43 34 56 0 33 45 31 118 -6 31 -15 75 -31 97 -35 24 -5
53 -20 73 -39 l32 -31 88 18 c48 10 88 19 90 21 2 1 -5 21 -14 44 -10 26 -38
60 -75 92 -41 36 -59 58 -59 75 0 18 -15 35 -58 67 -193 142 -229 175 -238
218 -8 37 -14 44 -49 59 -34 14 -47 14 -90 4z"/>
<path d="M9523 8174 c-9 -14 -19 -50 -21 -80 -6 -67 9 -87 75 -103 25 -7 72
-25 104 -42 56 -28 61 -29 88 -14 22 11 31 24 36 56 6 36 4 44 -21 71 -35 37
-104 68 -151 68 -32 0 -35 2 -29 24 5 20 1 26 -26 35 -39 14 -35 15 -55 -15z"/>
<path d="M9120 8095 c0 -2 5 -15 11 -29 16 -34 46 -45 92 -33 49 13 48 41 -3
45 -19 2 -39 8 -44 13 -10 9 -56 13 -56 4z"/>
<path d="M9210 7972 c0 -4 5 -13 12 -20 7 -7 19 -36 28 -65 23 -77 58 -92 232
-101 73 -3 163 -9 199 -12 l66 -6 13 32 c11 28 11 34 -6 56 -30 40 -115 67
-224 72 -83 3 -99 7 -128 29 -31 23 -35 24 -51 9 -22 -20 -40 -20 -65 -1 -21
16 -76 21 -76 7z"/>
<path d="M9900 7893 c-39 -7 -70 -42 -70 -78 0 -21 -9 -40 -25 -55 -14 -13
-25 -34 -25 -48 0 -23 2 -24 60 -20 57 3 60 2 60 -20 0 -40 -79 -51 -186 -26
-17 4 -27 -4 -48 -41 -21 -35 -32 -45 -44 -40 -10 4 -41 11 -71 15 -64 11 -69
15 -42 30 16 8 21 20 21 49 0 50 -27 73 -115 96 -74 19 -97 21 -186 10 -51 -7
-58 -5 -63 13 -13 39 -124 44 -178 7 -35 -24 -39 -24 -75 -11 -21 8 -63 17
-94 19 -31 3 -71 14 -90 26 -24 15 -51 21 -89 21 -77 0 -86 -8 -60 -53 l21
-36 -68 -35 -69 -34 -32 24 c-30 24 -34 25 -106 15 -41 -6 -119 -28 -173 -49
-54 -22 -134 -51 -178 -66 -71 -23 -83 -30 -100 -63 -12 -22 -45 -53 -86 -80
-56 -37 -68 -51 -74 -79 -3 -19 -3 -39 1 -45 4 -6 9 -45 13 -87 l6 -75 65 -22
c36 -12 86 -25 112 -29 l46 -7 60 78 c96 126 118 142 277 195 77 26 167 50
200 54 l61 6 28 -43 c28 -41 28 -44 24 -158 -3 -82 -9 -125 -21 -147 -14 -27
-15 -51 -10 -149 6 -111 8 -120 35 -150 21 -25 39 -34 76 -39 26 -4 55 -9 64
-12 24 -7 48 44 48 105 0 28 5 73 11 100 7 36 7 76 0 138 -8 63 -8 105 0 151
11 60 14 65 47 79 32 13 43 13 146 -12 90 -22 124 -36 178 -71 36 -25 96 -53
132 -64 67 -19 74 -23 162 -98 70 -58 139 -171 153 -247 8 -45 18 -65 39 -82
36 -30 48 -29 68 6 10 17 21 28 25 26 3 -3 9 -27 13 -55 l7 -51 41 36 42 35
30 -49 31 -49 32 16 c31 15 32 18 26 56 -4 28 -23 63 -60 110 -29 38 -53 77
-53 86 0 9 6 38 14 64 l14 47 -68 37 c-69 37 -69 37 -75 88 -6 40 -2 61 15
102 l22 52 79 0 c76 0 78 -1 96 -30 14 -25 24 -30 55 -30 86 0 136 91 145 262
l6 96 33 18 c19 10 34 21 34 25 0 23 -34 81 -56 96 -32 21 -54 69 -55 120 0
37 -1 37 -15 17 l-15 -22 -60 19 c-59 19 -88 21 -139 12z"/>
<path d="M2073 5468 c-59 -9 -63 -12 -71 -41 -7 -26 -21 -39 -73 -67 -63 -35
-64 -36 -66 -80 -2 -25 -5 -64 -9 -87 l-5 -43 -47 0 -47 -1 -106 -142 c-58
-78 -127 -181 -153 -229 l-47 -86 33 -20 c68 -41 109 -53 144 -42 18 6 40 22
48 36 14 20 24 24 66 24 l50 0 0 63 c0 34 5 89 10 122 9 58 12 62 106 154 52
52 105 113 116 135 11 23 38 65 61 95 31 42 43 70 53 125 16 81 17 96 7 95 -5
-1 -36 -6 -70 -11z"/>
<path d="M1279 4578 c-121 -155 -134 -179 -131 -237 4 -51 4 -51 38 -51 29 0
38 6 55 35 19 31 26 35 62 35 64 0 90 18 109 75 17 50 22 149 9 195 -5 20 -14
26 -42 28 -33 3 -38 -1 -100 -80z"/>
<path d="M2963 3600 c-18 -4 -39 -12 -45 -18 -18 -14 -121 -32 -188 -32 -49 0
-60 -4 -84 -29 l-27 -29 34 -21 c19 -11 50 -21 69 -21 18 0 56 -6 83 -13 40
-10 57 -10 85 0 19 6 44 12 55 13 11 1 38 23 61 49 34 40 40 54 36 80 -5 34
-15 36 -79 21z"/>
<path d="M2352 3586 l-23 -12 24 -22 c18 -17 28 -42 37 -97 l13 -74 33 14 c19
8 54 28 79 45 36 25 45 37 45 60 0 44 -40 67 -160 93 -14 3 -35 0 -48 -7z"/>
<path d="M3200 3519 l0 -51 -52 7 c-64 9 -58 9 -85 0 -19 -6 -23 -15 -23 -51
0 -40 2 -44 24 -44 20 0 25 -6 30 -43 6 -37 12 -46 40 -60 33 -15 34 -15 62
14 l28 29 26 -25 c17 -16 38 -25 58 -25 27 0 32 4 41 38 6 20 11 42 11 48 0
13 -58 68 -89 84 l-25 13 23 18 c41 34 5 99 -54 99 -11 0 -15 -13 -15 -51z"/>
<path d="M2603 3443 c-30 -15 -33 -21 -33 -60 0 -56 14 -83 44 -83 28 0 56 38
56 75 0 22 -25 87 -33 84 -1 0 -17 -8 -34 -16z"/>
<path d="M3538 3409 c-12 -19 -16 -20 -36 -8 -19 12 -26 11 -57 -5 -20 -11
-34 -23 -33 -27 8 -22 124 -142 144 -150 37 -13 108 24 122 65 22 59 16 72
-47 110 -69 42 -74 43 -93 15z"/>
<path d="M2723 3355 c-44 -39 -46 -44 -33 -60 26 -32 75 -46 136 -39 l55 7 -6
51 c-4 28 -10 54 -14 58 -3 4 -25 11 -48 16 -40 9 -43 8 -90 -33z"/>
<path d="M2166 2905 c-37 -56 -1 -141 56 -133 19 2 25 12 32 51 11 57 3 76
-41 94 -29 11 -32 10 -47 -12z"/>
</g>
</svg>
