<?xml version="1.0" standalone="no"?>
<!DOCTYPE svg PUBLIC "-//W3C//DTD SVG 20010904//EN"
 "http://www.w3.org/TR/2001/REC-SVG-20010904/DTD/svg10.dtd">
<svg version="1.0" xmlns="http://www.w3.org/2000/svg"
 width="1024.000000pt" height="1024.000000pt" viewBox="0 0 1024.000000 1024.000000"
 preserveAspectRatio="xMidYMid meet">
<metadata>
Created by potrace 1.10, written by Peter Selinger 2001-2011
</metadata>
<g transform="translate(0.000000,1024.000000) scale(0.100000,-0.100000)"
fill="#000000" stroke="none">
<path d="M2510 10231 c-19 -4 -49 -17 -67 -27 -25 -16 -42 -19 -75 -14 -49 7
-139 -9 -184 -33 -18 -9 -67 -22 -110 -29 l-79 -14 -13 -39 c-7 -22 -11 -54
-7 -72 5 -26 13 -34 43 -44 62 -20 120 -73 175 -158 38 -60 58 -81 73 -81 15
0 24 8 28 26 5 17 19 30 42 40 34 14 37 14 91 -17 37 -21 60 -42 67 -61 7 -20
17 -28 34 -28 37 0 90 -29 121 -66 25 -31 36 -36 130 -53 62 -11 126 -30 164
-49 45 -23 64 -28 69 -19 5 7 8 50 6 97 -1 61 3 94 14 115 15 28 15 33 -2 65
-11 19 -29 78 -41 130 -24 107 -45 137 -136 195 -28 19 -57 44 -63 55 -6 12
-44 37 -83 56 -73 35 -118 41 -197 25z"/>
<path d="M5569 9184 c-13 -14 -41 -35 -61 -45 -33 -17 -38 -24 -38 -54 0 -30
-6 -38 -39 -57 -36 -20 -81 -87 -81 -119 0 -6 29 5 64 25 55 31 74 36 128 36
34 0 90 5 124 10 55 9 68 7 149 -20 78 -27 96 -37 159 -97 68 -65 71 -70 79
-128 4 -32 10 -61 12 -64 3 -2 23 8 45 23 37 24 40 30 40 72 0 36 -11 66 -46
132 -77 143 -159 214 -300 257 -56 17 -90 22 -125 18 -41 -5 -49 -3 -61 16
-16 27 -19 26 -49 -5z"/>
<path d="M6187 7698 c-46 -20 -48 -23 -43 -51 3 -16 6 -37 6 -46 0 -10 27 -50
61 -89 55 -66 62 -79 78 -153 16 -76 20 -83 52 -100 18 -11 52 -23 74 -29 34
-8 44 -18 68 -59 15 -27 40 -60 56 -74 28 -23 29 -27 24 -85 -4 -46 -2 -65 11
-83 13 -19 16 -50 16 -154 0 -122 2 -133 24 -166 22 -32 31 -37 78 -42 51 -5
54 -4 93 34 35 33 47 39 85 39 25 0 78 9 119 20 62 16 82 17 122 8 44 -10 49
-14 64 -57 19 -49 89 -129 143 -163 26 -16 42 -19 75 -14 93 15 117 26 134 61
l16 34 -50 68 c-27 37 -67 96 -88 131 -32 52 -42 62 -66 62 -24 0 -33 9 -61
60 -28 51 -37 60 -61 60 -17 0 -66 24 -125 63 -53 34 -137 82 -186 107 -79 39
-106 61 -215 171 -70 69 -170 159 -224 199 -84 63 -101 71 -120 63 -16 -7 -31
-6 -54 5 -39 19 -54 73 -27 103 15 17 15 22 1 56 -8 20 -18 38 -23 39 -5 1
-31 -7 -57 -18z"/>
<path d="M7550 6234 c-18 -45 -13 -54 28 -54 20 1 48 7 62 15 34 19 40 18 40
-4 0 -11 -9 -23 -21 -26 -17 -6 -20 -12 -15 -37 3 -17 6 -37 6 -45 0 -10 6
-12 20 -8 16 5 20 2 20 -19 0 -21 5 -26 23 -26 31 0 47 36 47 105 0 51 -2 55
-44 89 -38 32 -50 36 -100 36 -51 0 -57 -2 -66 -26z"/>
<path d="M7742 6019 c-29 -9 -31 -12 -21 -31 10 -18 17 -20 57 -14 55 7 57 9
42 35 -12 23 -27 24 -78 10z"/>
<path d="M7790 5915 c0 -20 -5 -25 -25 -25 -21 0 -25 -5 -25 -30 0 -28 2 -30
38 -30 30 0 45 7 70 33 18 18 32 43 32 55 0 19 -5 22 -45 22 -41 0 -45 -2 -45
-25z"/>
<path d="M7837 5721 c-19 -17 -46 -31 -59 -31 -14 0 -33 -9 -43 -20 -18 -20
-17 -20 14 -20 31 0 32 -2 26 -29 -6 -30 -6 -30 27 -20 18 5 50 9 70 9 30 0
42 6 64 35 l26 35 -19 32 c-26 45 -61 48 -106 9z"/>
<path d="M7980 5556 c-5 -15 -21 -31 -35 -38 -14 -6 -25 -14 -25 -18 0 -3 19
-16 43 -28 23 -12 58 -31 77 -42 19 -11 47 -20 62 -20 23 0 28 -5 28 -23 0
-13 12 -34 26 -48 14 -13 33 -40 41 -61 9 -23 23 -38 39 -42 33 -9 30 -19 -13
-55 -27 -23 -48 -31 -75 -31 -32 0 -38 -3 -38 -20 0 -30 49 -73 75 -66 11 3
26 6 34 6 9 0 11 8 7 25 -5 21 -3 25 17 25 13 0 34 -11 46 -24 13 -13 34 -27
47 -30 30 -8 32 -38 4 -73 -26 -33 -25 -45 4 -72 21 -20 31 -22 63 -16 20 4
50 16 65 27 25 17 28 26 28 71 0 48 -3 54 -35 75 -27 17 -35 29 -35 52 0 20
-7 33 -21 41 -12 6 -63 49 -115 96 -79 71 -94 89 -94 115 0 23 -15 46 -61 96
-60 66 -82 83 -126 96 -19 6 -25 2 -33 -18z"/>
<path d="M1210 5544 c0 -3 14 -23 30 -44 44 -56 42 -100 -7 -132 -33 -22 -42
-36 -65 -109 -15 -46 -41 -115 -57 -154 -28 -65 -32 -71 -68 -79 -21 -4 -55
-15 -75 -24 l-38 -15 0 -83 c0 -66 5 -92 25 -136 15 -31 25 -71 25 -98 0 -27
10 -67 25 -98 14 -30 25 -68 25 -85 0 -39 66 -285 127 -472 39 -120 47 -161
58 -286 10 -111 22 -174 49 -261 l34 -116 -19 -173 c-24 -210 -26 -218 -79
-309 -31 -53 -54 -79 -86 -99 -24 -14 -46 -35 -48 -46 -2 -11 -10 -63 -18
-115 l-15 -95 33 -110 c19 -60 47 -146 65 -190 19 -51 34 -109 38 -160 13
-134 21 -144 205 -241 183 -97 302 -181 436 -307 82 -77 103 -104 150 -192 47
-88 77 -126 210 -269 136 -147 160 -178 197 -255 36 -76 59 -106 162 -213 102
-106 123 -134 141 -184 15 -42 34 -71 67 -100 50 -47 55 -49 274 -134 180 -70
233 -76 332 -38 50 20 65 32 103 85 58 82 144 127 260 138 45 4 106 18 142 32
53 21 73 25 119 19 52 -6 62 -4 122 28 36 19 95 42 130 51 35 9 87 25 116 36
l52 19 32 88 c35 98 39 162 16 238 -8 27 -15 71 -15 98 0 49 -26 107 -60 133
-53 42 -320 165 -320 147 0 -2 7 -21 15 -42 13 -31 25 -42 68 -61 l52 -22 -25
-19 -25 -20 37 0 c44 0 59 -17 23 -26 -40 -10 -29 -20 32 -30 43 -7 59 -14 61
-27 3 -12 -3 -17 -22 -17 -21 0 -26 -5 -26 -25 0 -30 -1 -30 -50 -5 -22 11
-42 20 -45 20 -3 0 2 -17 11 -38 9 -20 18 -42 21 -49 3 -7 -19 1 -49 17 -29
16 -56 30 -61 30 -4 0 2 -18 13 -40 25 -48 25 -50 2 -50 -34 0 -51 32 -54 100
l-3 65 -47 3 c-45 3 -62 -8 -38 -23 6 -3 10 -17 10 -31 0 -17 -5 -24 -20 -24
-30 0 -47 -43 -33 -81 11 -27 10 -29 -15 -29 -15 0 -38 -12 -54 -27 -25 -23
-28 -34 -28 -87 0 -83 -8 -104 -41 -122 -16 -8 -29 -21 -29 -29 0 -9 -10 -15
-24 -15 -17 0 -26 7 -30 25 -6 23 -11 25 -61 25 l-55 0 0 -53 c0 -62 -23 -92
-80 -103 -19 -4 -53 -21 -75 -37 -22 -17 -42 -32 -44 -34 -2 -2 1 -15 8 -30
15 -33 12 -35 -90 -58 -73 -17 -81 -17 -116 -2 -21 9 -48 19 -60 22 -13 3 -41
32 -63 63 -53 73 -92 86 -130 42 -24 -28 -26 -28 -57 -15 -22 9 -34 23 -39 42
-3 15 -12 50 -19 76 -12 43 -11 49 2 54 11 4 26 -6 46 -30 34 -43 47 -47 47
-13 0 22 -66 116 -142 204 -21 24 -28 43 -28 73 0 35 -7 49 -46 93 -30 33 -74
106 -123 203 -61 123 -81 154 -102 162 -24 8 -33 27 -85 183 -69 208 -94 252
-180 313 -61 44 -64 48 -64 87 0 35 -10 54 -74 137 -60 79 -76 107 -86 154 -6
32 -24 86 -40 120 -15 34 -31 71 -35 82 -6 15 -10 7 -16 -33 -8 -63 -22 -82
-59 -82 -21 0 -33 8 -48 33 -10 17 -33 40 -51 50 l-31 18 -16 -36 c-8 -20 -19
-58 -24 -85 -13 -67 -41 -120 -86 -159 -30 -27 -43 -32 -67 -27 -16 3 -36 6
-43 6 -8 0 -22 16 -31 35 -17 37 -54 52 -94 40 -22 -7 -22 -7 -16 109 4 68 2
138 -4 169 -10 49 -8 59 29 165 22 62 51 127 64 145 22 29 26 45 31 160 6 106
10 133 27 157 15 21 19 42 18 81 -2 55 7 80 67 189 19 35 25 60 25 115 0 39 7
115 15 170 11 84 17 102 36 115 13 8 41 30 62 48 22 18 41 31 43 30 2 -2 -8
-48 -22 -102 -14 -54 -23 -100 -21 -103 12 -11 77 61 83 93 4 25 11 34 26 34
10 0 32 7 48 15 27 14 30 14 30 0 0 -9 -7 -30 -16 -47 -13 -25 -14 -38 -5 -74
6 -23 11 -61 11 -83 0 -44 2 -46 30 -31 14 7 28 6 53 -6 33 -16 34 -18 26 -53
-15 -65 -12 -81 17 -81 22 0 25 -3 20 -22 -3 -13 -16 -72 -28 -131 l-23 -108
-52 7 -53 6 -16 -38 c-27 -64 -44 -136 -44 -190 0 -48 2 -52 30 -64 24 -10 38
-9 76 4 26 9 60 16 76 16 25 0 28 -4 28 -31 0 -17 -5 -39 -11 -51 -16 -29 -6
-32 47 -14 54 18 59 16 72 -34 l9 -35 25 50 c30 60 49 178 41 257 -3 35 1 92
12 152 l17 95 -33 58 c-18 32 -51 86 -73 120 -23 35 -56 86 -74 114 -18 28
-48 90 -67 138 -18 48 -59 148 -90 220 -31 73 -70 178 -86 233 -16 55 -47 135
-69 178 -42 83 -100 292 -100 358 0 21 -7 47 -15 58 -10 13 -14 45 -15 101 0
79 -1 83 -24 89 -20 5 -24 13 -30 65 -4 36 -24 97 -52 161 -54 122 -95 290
-87 358 9 81 -47 140 -135 140 -18 0 -32 -3 -32 -6z"/>
<path d="M8252 4874 c-14 -9 -36 -14 -53 -12 -32 5 -35 -3 -20 -62 5 -19 12
-47 15 -61 8 -39 61 -46 96 -13 21 19 40 24 118 30 l92 7 0 -36 c0 -20 -8 -52
-17 -72 -16 -33 -16 -38 -1 -63 9 -14 30 -31 47 -37 17 -5 38 -18 47 -27 16
-15 13 -18 -32 -40 -44 -22 -54 -23 -96 -14 -54 13 -125 66 -134 101 -8 32
-54 36 -54 5 0 -16 -7 -20 -32 -20 l-32 0 37 -38 c20 -21 37 -48 37 -60 0 -20
5 -22 63 -23 34 0 96 -6 137 -13 72 -13 76 -13 130 11 73 33 97 64 111 151
l12 71 -68 90 c-75 102 -67 98 -199 81 -68 -8 -70 -8 -120 26 -59 40 -55 39
-84 18z"/>
<path d="M8173 4260 c27 -17 56 -29 65 -26 11 4 27 -6 45 -29 l28 -35 -31 0
c-27 0 -31 -3 -28 -22 3 -20 10 -24 58 -28 32 -3 70 -14 91 -28 47 -28 107
-29 143 -1 33 26 36 87 6 130 -18 25 -27 28 -73 28 -29 0 -86 7 -127 16 -41
10 -109 19 -150 22 l-75 4 48 -31z"/>
<path d="M8222 4053 c-6 -20 -9 -39 -7 -42 3 -2 29 -6 58 -9 41 -3 63 1 95 17
23 12 42 23 42 25 0 3 -15 14 -34 25 -23 15 -50 21 -88 21 -54 0 -55 0 -66
-37z"/>
<path d="M8500 4002 c0 -29 1 -30 38 -22 20 5 46 10 57 13 17 3 16 6 -10 16
-16 7 -42 15 -57 18 -26 5 -28 3 -28 -25z"/>
<path d="M8360 3857 c-19 -7 -43 -18 -53 -23 -17 -10 -17 -11 1 -27 17 -15 26
-16 71 -6 29 6 72 8 96 5 61 -10 95 1 95 29 0 13 -7 26 -16 29 -28 11 -158 6
-194 -7z"/>
<path d="M8511 3742 c-24 -9 -62 -34 -85 -54 -38 -34 -40 -38 -24 -54 13 -14
22 -15 47 -6 31 11 31 11 31 -25 0 -29 7 -42 33 -64 l32 -28 -33 -1 c-26 0
-35 -5 -39 -21 -5 -18 -11 -19 -44 -14 -35 6 -39 5 -39 -14 0 -12 -7 -24 -16
-28 -26 -10 33 -62 80 -70 24 -4 49 -16 63 -31 23 -25 24 -25 59 -9 19 9 47
17 61 17 l26 0 -20 -22 c-20 -22 -43 -61 -43 -72 0 -3 23 -6 50 -6 28 0 50 -5
50 -10 0 -16 -29 -70 -38 -70 -4 0 -13 -4 -20 -9 -11 -7 -10 -16 6 -47 11 -22
30 -72 43 -112 18 -55 33 -82 60 -106 28 -26 37 -43 42 -80 6 -42 -3 -60 -18
-36 -10 17 -35 11 -35 -8 0 -29 111 -132 142 -132 27 0 35 -14 52 -92 5 -20
13 -28 29 -28 25 -1 77 -68 77 -99 0 -12 9 -21 25 -25 18 -5 25 -13 25 -30 0
-14 12 -39 27 -56 26 -31 26 -33 16 -113 -9 -72 -8 -86 7 -112 27 -47 14 -113
-26 -137 -29 -17 -34 -17 -67 -3 -20 8 -39 15 -41 15 -3 0 -6 -22 -8 -50 l-3
-50 -44 29 c-52 35 -66 34 -183 -11 -68 -26 -78 -33 -78 -54 0 -21 4 -24 39
-24 32 0 44 -6 69 -34 27 -31 50 -101 38 -114 -3 -3 -17 0 -31 6 -29 13 -131
16 -139 4 -2 -4 8 -38 24 -75 l28 -66 -30 -63 c-16 -35 -40 -74 -52 -88 -33
-35 -50 -109 -31 -131 20 -21 19 -28 -6 -48 -18 -14 -20 -23 -14 -63 5 -34 13
-48 30 -56 13 -6 25 -23 28 -39 13 -64 -128 -209 -259 -267 -45 -20 -65 -36
-76 -59 l-15 -31 -28 43 c-23 35 -33 42 -53 38 -14 -3 -41 5 -66 19 -43 24
-43 24 -61 4 -12 -13 -31 -20 -54 -20 -20 0 -52 -5 -71 -10 -34 -10 -37 -9
-72 31 -32 34 -51 45 -115 64 l-78 22 -22 54 c-12 30 -24 59 -26 64 -2 6 -15
0 -29 -12 -13 -13 -37 -23 -52 -23 -45 0 -106 -22 -117 -41 -5 -10 -23 -20
-40 -24 -23 -5 -29 -11 -24 -23 4 -10 19 -65 35 -123 28 -106 28 -107 9 -135
-14 -21 -19 -47 -19 -94 -1 -108 -30 -210 -60 -210 -9 0 -25 -9 -35 -20 -10
-11 -24 -20 -30 -20 -14 0 -139 88 -172 121 -31 30 -63 120 -63 174 0 54 -9
57 -34 11 -14 -26 -29 -37 -61 -46 -49 -14 -107 -69 -148 -142 -15 -26 -27
-49 -27 -52 0 -3 18 -17 40 -31 32 -20 40 -31 40 -56 0 -29 -2 -30 -37 -27
-37 3 -38 4 -65 83 -20 59 -28 100 -28 155 0 41 -3 85 -6 98 -7 23 -7 23 -40
-9 -25 -24 -34 -42 -34 -66 l0 -34 -30 16 c-31 16 -37 29 -20 40 6 3 10 17 10
31 0 24 -4 27 -68 49 -10 4 -8 12 8 36 28 38 22 92 -13 126 -31 31 -47 23 -91
-42 -25 -38 -41 -53 -51 -49 -18 7 -19 16 -4 31 9 9 4 18 -17 36 -33 28 -45
24 -64 -24 -11 -26 -17 -29 -39 -24 -40 10 -71 44 -71 78 0 17 -7 38 -16 48
-15 17 -15 20 4 43 27 35 44 157 26 187 -2 4 -22 2 -44 -3 -37 -10 -41 -14
-57 -65 -14 -43 -15 -60 -6 -84 9 -24 9 -39 -3 -71 -9 -25 -14 -80 -14 -145
l0 -105 36 -44 c27 -32 44 -44 63 -44 17 0 38 -11 57 -31 36 -38 76 -56 185
-80 104 -22 201 -67 231 -104 12 -16 25 -51 29 -79 4 -28 12 -70 18 -93 l11
-41 68 -12 c66 -11 71 -10 224 34 85 26 209 57 275 70 104 22 145 37 314 116
106 50 213 102 238 115 24 14 54 25 66 25 21 0 251 92 440 177 46 21 105 58
140 88 33 28 92 76 130 106 39 30 96 82 128 115 50 54 62 74 96 170 89 249
149 383 232 516 45 73 116 200 156 281 l73 148 6 127 c10 184 2 226 -51 300
-25 34 -49 80 -54 102 -5 22 -37 91 -71 152 -34 62 -75 146 -92 188 -16 41
-41 95 -55 120 -72 126 -163 322 -163 350 0 17 -6 43 -14 58 -7 15 -17 45 -20
66 -4 22 -19 54 -32 72 -14 18 -40 68 -59 112 -59 139 -61 142 -103 141 -20 0
-57 -8 -81 -17z"/>
<path d="M3184 1027 c-104 -56 -107 -58 -64 -53 25 3 90 10 145 17 55 6 122
20 148 29 47 18 48 18 104 -4 55 -23 55 -23 33 -39 -41 -29 4 -33 82 -8 51 17
87 22 136 19 63 -3 67 -2 70 20 3 20 -1 22 -36 22 -21 0 -63 8 -93 18 -36 11
-69 16 -99 12 -29 -4 -56 -1 -74 8 -18 9 -69 15 -136 16 l-106 2 -110 -59z"/>
<path d="M5550 860 c0 -35 4 -42 27 -51 15 -5 43 -9 62 -7 35 3 36 4 39 48 l3
45 -25 -24 c-20 -19 -26 -21 -26 -9 0 14 -46 38 -71 38 -5 0 -9 -18 -9 -40z"/>
<path d="M4574 759 l-28 -29 49 -50 c57 -58 88 -63 93 -16 3 19 -2 32 -13 38
-9 5 -29 27 -44 48 l-28 39 -29 -30z"/>
<path d="M5592 612 c-19 -15 -23 -26 -20 -63 3 -42 4 -44 38 -47 54 -4 63 7
45 51 -8 20 -15 46 -15 57 0 25 -17 25 -48 2z"/>
</g>
</svg>
