<?xml version="1.0" standalone="no"?>
<!DOCTYPE svg PUBLIC "-//W3C//DTD SVG 20010904//EN"
 "http://www.w3.org/TR/2001/REC-SVG-20010904/DTD/svg10.dtd">
<svg version="1.0" xmlns="http://www.w3.org/2000/svg"
 width="1024.000000pt" height="1024.000000pt" viewBox="0 0 1024.000000 1024.000000"
 preserveAspectRatio="xMidYMid meet">
<metadata>
Created by potrace 1.10, written by Peter Selinger 2001-2011
</metadata>
<g transform="translate(0.000000,1024.000000) scale(0.100000,-0.100000)"
fill="#000000" stroke="none">
<path d="M8890 8433 c-30 -8 -66 -23 -80 -32 -14 -10 -52 -24 -84 -31 -58 -14
-61 -13 -107 13 -46 26 -48 26 -91 10 -23 -9 -63 -35 -88 -58 -47 -44 -102
-71 -119 -60 -6 3 -32 -3 -57 -14 -26 -12 -55 -21 -65 -21 -26 0 -34 -36 -14
-67 12 -18 15 -35 10 -62 -4 -20 -9 -97 -11 -171 l-3 -135 79 -80 80 -80 6
-77 c7 -75 -6 -138 -27 -138 -23 0 -101 66 -121 103 -19 34 -34 46 -84 67 -33
14 -79 43 -102 66 -46 45 -88 61 -212 79 -100 14 -151 -2 -232 -72 l-61 -52
-116 5 c-94 5 -121 10 -144 26 -38 26 -70 17 -97 -27 -30 -49 -90 -78 -141
-70 -46 8 -101 -8 -146 -43 -27 -20 -33 -31 -33 -63 0 -21 -6 -59 -12 -84 -11
-41 -19 -50 -68 -79 -30 -19 -73 -36 -95 -39 -22 -3 -48 -8 -57 -12 -21 -9
-58 47 -58 88 0 29 -28 47 -74 47 -13 0 -30 8 -39 18 -15 17 -35 18 -219 17
-191 -2 -206 -3 -246 -25 -42 -22 -47 -22 -130 -11 -53 8 -98 20 -114 32 -24
16 -45 19 -164 19 -119 0 -141 -3 -169 -20 -28 -17 -34 -18 -51 -5 -32 24 -94
18 -141 -13 -45 -30 -98 -96 -108 -134 -4 -13 -15 -34 -26 -47 -16 -19 -22
-21 -34 -11 -8 7 -15 22 -15 34 0 11 -8 33 -18 48 -16 25 -20 26 -38 14 -10
-7 -36 -19 -57 -25 -21 -7 -45 -23 -53 -36 -15 -23 -17 -23 -56 -9 -34 12 -43
12 -68 -1 -30 -15 -90 -96 -128 -170 -22 -45 -53 -201 -49 -254 1 -25 -4 -38
-23 -52 -29 -22 -117 -39 -146 -28 -10 4 -46 8 -80 8 -70 1 -77 -4 -114 -86
-23 -49 -51 -73 -85 -73 -9 0 -15 -10 -15 -23 0 -34 -30 -57 -76 -57 -21 -1
-50 -7 -64 -15 -14 -8 -38 -14 -54 -15 -38 0 -93 -43 -101 -78 -3 -16 -1 -40
4 -54 10 -26 3 -70 -20 -129 -19 -49 -89 -37 -89 14 0 9 -14 49 -32 87 -38 86
-73 113 -104 79 -33 -36 -49 -40 -100 -22 -87 29 -119 57 -119 103 0 22 -4 25
-35 23 -74 -3 -207 -24 -243 -38 -53 -21 -84 -19 -136 12 l-45 26 -88 -18
c-74 -15 -93 -16 -116 -5 -17 7 -66 12 -128 11 l-101 -1 -34 56 c-69 114 -73
118 -124 136 -28 10 -76 25 -108 33 -56 15 -59 15 -108 -9 -61 -29 -85 -24
-149 31 -65 56 -153 93 -260 110 -94 14 -97 14 -208 -13 l-113 -27 -58 32
c-50 26 -69 31 -130 31 -67 0 -71 -1 -71 -22 -1 -13 -7 -34 -15 -48 -8 -14
-14 -52 -15 -85 0 -42 -8 -76 -25 -113 -14 -30 -25 -62 -25 -72 0 -31 -47 -38
-122 -19 -29 8 -69 9 -122 3 l-78 -9 -26 -45 c-14 -25 -28 -58 -31 -75 -6 -25
-19 -35 -86 -68 -44 -21 -96 -54 -115 -72 -41 -40 -96 -65 -142 -65 -73 0 -78
-5 -78 -81 0 -50 -4 -72 -16 -81 -33 -27 -51 -45 -65 -64 -8 -11 -34 -31 -59
-45 -52 -28 -59 -47 -31 -86 11 -15 27 -57 37 -93 9 -36 24 -73 32 -82 14 -16
14 -42 0 -133 -2 -16 3 -21 33 -23 31 -3 42 3 71 32 27 28 37 32 52 24 10 -5
34 -8 54 -5 31 3 41 0 62 -25 23 -27 27 -28 56 -17 27 11 36 10 67 -10 44 -27
77 -67 77 -92 0 -20 23 -22 200 -24 57 -1 105 -18 114 -41 8 -21 -39 -150 -67
-183 -14 -17 -28 -39 -31 -48 -3 -10 -29 -31 -57 -47 -29 -16 -83 -57 -121
-92 -50 -46 -77 -64 -97 -64 -21 0 -34 -9 -52 -37 -20 -31 -31 -39 -64 -43
-39 -5 -40 -6 -43 -46 -2 -27 2 -45 13 -54 30 -25 19 -75 -30 -130 -25 -28
-45 -56 -45 -63 0 -20 40 -69 103 -127 l58 -53 45 21 c24 12 49 22 55 22 6 0
22 9 36 20 21 17 41 20 113 20 l87 0 7 -37 c3 -21 6 -71 6 -111 0 -70 -1 -74
-36 -110 -20 -20 -42 -49 -49 -63 -8 -14 -31 -43 -53 -65 -28 -28 -42 -52 -47
-79 -4 -22 -13 -54 -21 -72 -19 -42 -18 -72 6 -108 12 -19 20 -47 20 -75 0
-61 37 -115 88 -129 20 -6 65 -11 100 -11 l63 0 83 -78 c114 -108 144 -129
198 -141 26 -6 58 -16 71 -22 39 -18 137 -159 192 -279 l50 -109 78 -50 c95
-62 100 -83 35 -146 -24 -23 -52 -57 -63 -76 -25 -42 -125 -98 -175 -99 -46 0
-114 22 -173 55 -45 26 -54 27 -120 21 -67 -6 -94 -14 -72 -22 6 -2 25 -14 44
-27 19 -12 43 -27 54 -34 28 -16 37 -34 31 -60 -5 -18 0 -25 20 -33 33 -12 33
-36 0 -44 -17 -5 -32 -2 -43 9 -22 19 -30 19 -52 -1 -13 -12 -22 -13 -38 -5
-11 6 -28 11 -39 11 -33 0 -125 -33 -144 -52 -18 -18 -46 -17 -115 3 -27 9
-34 7 -58 -17 -22 -22 -32 -25 -61 -20 -31 6 -34 5 -34 -17 0 -29 29 -57 58
-57 27 0 27 -6 2 -55 -23 -45 -26 -84 -7 -107 38 -47 202 -133 272 -142 41 -5
60 -1 103 19 30 14 59 25 65 25 6 0 25 13 42 30 l30 29 59 -21 c57 -21 60 -21
106 -5 73 26 80 24 80 -26 0 -60 24 -81 80 -72 34 6 44 4 55 -12 10 -13 18
-15 28 -8 8 6 25 18 39 27 17 13 51 19 124 23 128 6 159 16 211 66 l42 42 -19
27 c-13 18 -16 31 -9 41 5 7 9 30 9 49 0 32 5 38 50 63 l51 29 44 -36 c24 -20
53 -49 64 -65 19 -26 28 -29 98 -35 110 -9 111 -9 155 13 l41 20 49 -55 c33
-36 58 -54 73 -54 22 0 95 36 95 47 0 3 -10 13 -21 22 -47 37 11 121 83 121
27 0 27 0 30 -82 3 -74 5 -83 23 -86 14 -1 27 9 43 33 24 38 43 42 118 25 94
-22 143 -16 234 27 47 23 105 46 130 53 58 15 63 21 102 91 23 41 39 59 52 59
11 0 35 10 53 23 l33 22 0 126 c0 111 2 128 19 143 11 10 28 16 38 14 10 -1
32 3 49 10 28 12 34 22 47 75 9 34 19 85 23 112 8 61 21 80 41 64 10 -9 20 -9
39 0 14 6 29 11 34 11 6 0 10 -44 10 -103 l0 -103 46 -45 c25 -24 56 -61 70
-82 31 -47 99 -97 134 -97 16 0 38 -12 58 -33 l32 -33 -15 -45 c-9 -24 -19
-74 -22 -111 l-6 -68 27 0 c16 0 39 9 53 20 25 20 25 20 54 -1 16 -11 36 -34
44 -50 12 -22 23 -29 44 -29 16 0 31 -6 34 -14 3 -8 27 -20 53 -28 43 -12 50
-18 78 -73 17 -33 36 -71 41 -85 14 -36 58 -37 174 -5 135 38 145 49 151 173
l5 97 30 -2 c19 -2 39 -13 55 -32 49 -59 112 -101 152 -101 20 0 49 -5 65 -11
15 -6 50 -13 77 -15 81 -6 116 -22 132 -60 20 -48 70 -101 107 -113 21 -7 47
-30 70 -61 44 -59 97 -81 151 -62 18 7 49 12 69 12 34 0 41 5 83 64 59 82 98
98 178 73 29 -9 71 -17 94 -17 37 0 48 6 104 61 35 33 73 70 86 82 12 11 22
28 22 37 0 18 -42 53 -77 64 -11 4 -39 20 -62 36 -54 40 -121 169 -128 249 -2
31 -13 74 -23 96 -34 74 -35 89 -1 102 19 7 36 25 48 49 18 38 19 38 71 35 50
-2 52 -1 52 23 0 17 4 24 14 20 18 -7 56 42 56 73 0 28 -40 101 -70 128 -14
12 -28 16 -50 12 -40 -9 -40 14 0 55 20 20 28 34 21 42 -5 6 -15 37 -22 69 -7
32 -18 65 -25 75 -18 25 -57 0 -86 -57 -22 -43 -23 -50 -11 -106 20 -95 4
-108 -59 -50 -21 19 -42 52 -49 75 -11 34 -16 40 -41 40 -27 0 -28 2 -28 44 0
51 8 60 44 46 23 -8 29 -4 68 39 24 27 58 56 76 65 27 14 32 22 32 54 1 56 32
85 119 111 50 15 81 31 94 48 19 24 23 24 125 21 l105 -3 -2 63 c-2 52 1 66
16 78 29 22 60 17 83 -14 17 -22 27 -27 50 -24 32 5 66 37 72 67 3 18 10 20
61 17 57 -4 57 -4 72 31 8 19 20 37 27 40 7 2 53 -23 101 -55 l88 -59 20 25
c13 17 30 26 48 26 16 0 42 5 59 11 26 9 33 20 50 72 12 39 16 68 10 79 -18
36 -9 94 18 119 14 13 35 42 46 63 21 42 21 38 1 252 -3 41 -1 69 8 85 7 13
16 42 20 64 3 22 17 68 29 101 l23 62 -22 27 c-34 44 -92 83 -136 90 -28 5
-51 19 -76 46 -21 22 -50 42 -68 45 -19 4 -33 14 -37 28 -4 11 -17 33 -29 48
-33 39 -41 137 -16 208 11 30 24 56 30 58 6 2 32 35 57 73 41 60 46 73 36 93
-17 39 1 46 118 46 80 0 111 4 128 16 28 19 49 6 54 -34 3 -24 8 -27 43 -29
34 -2 44 2 65 29 23 30 38 105 42 214 0 18 24 31 142 79 120 49 153 59 226 64
66 5 95 12 130 32 25 14 60 29 79 33 21 4 58 26 90 55 31 26 67 52 81 56 38
12 87 53 99 84 9 19 9 40 2 72 -6 24 -11 47 -11 51 0 3 24 8 53 11 84 7 127
23 166 61 20 20 43 36 50 36 7 0 32 -20 56 -45 46 -47 54 -49 200 -46 17 0 48
1 70 1 30 1 44 -4 54 -20 10 -15 24 -20 60 -20 68 0 74 7 69 81 -3 54 -10 73
-44 124 -36 53 -40 65 -36 106 3 33 -2 58 -17 87 -15 29 -21 60 -21 106 0 58
3 67 28 90 15 13 47 43 72 65 29 27 53 41 71 41 37 0 59 9 59 25 0 19 27 26
57 14 16 -6 42 -8 59 -4 21 4 35 1 44 -10 7 -8 20 -15 30 -15 9 0 25 -9 35
-20 23 -25 83 -46 97 -32 20 20 144 -75 180 -139 22 -40 36 -47 55 -28 7 7 25
3 61 -15 51 -26 99 -32 137 -17 11 5 33 4 49 -2 21 -7 36 -6 62 6 60 29 35 50
-54 46 -40 -2 -61 4 -108 31 -114 64 -134 79 -134 103 0 23 -14 117 -26 174
-8 40 -43 73 -86 82 -27 6 -34 13 -43 44 -16 57 -89 144 -145 172 -27 14 -51
33 -54 42 -3 10 -26 30 -51 45 -55 34 -62 48 -43 96 13 33 18 37 46 35 28 -3
32 0 37 30 4 17 5 55 3 82 l-3 50 -40 3 c-22 1 -57 7 -78 14 -33 10 -38 15
-35 37 3 36 -9 51 -42 51 -26 0 -31 5 -47 57 -11 35 -30 69 -51 89 -33 32 -33
33 -18 63 19 35 12 59 -20 72 -18 6 -24 16 -24 37 0 23 7 32 43 49 36 18 45
28 58 69 13 44 13 54 -1 102 -11 39 -21 54 -37 58 -13 4 -23 12 -23 20 0 7
-12 16 -27 20 -16 3 -40 20 -54 37 -21 24 -38 32 -80 38 -75 11 -115 9 -179
-8z"/>
</g>
</svg>
