<?xml version="1.0" standalone="no"?>
<!DOCTYPE svg PUBLIC "-//W3C//DTD SVG 20010904//EN"
 "http://www.w3.org/TR/2001/REC-SVG-20010904/DTD/svg10.dtd">
<svg version="1.0" xmlns="http://www.w3.org/2000/svg"
 width="1024.000000pt" height="1024.000000pt" viewBox="0 0 1024.000000 1024.000000"
 preserveAspectRatio="xMidYMid meet">
<metadata>
Created by potrace 1.10, written by Peter Selinger 2001-2011
</metadata>
<g transform="translate(0.000000,1024.000000) scale(0.100000,-0.100000)"
fill="#000000" stroke="none">
<path d="M6555 10226 c-11 -8 -36 -16 -56 -16 -19 0 -58 -7 -86 -15 -40 -12
-54 -22 -69 -50 -18 -34 -21 -35 -76 -35 -40 0 -58 -4 -58 -12 0 -7 -16 -24
-35 -37 -19 -13 -35 -30 -35 -38 0 -36 -63 -200 -87 -225 -17 -17 -23 -32 -19
-46 5 -14 -5 -30 -39 -60 -54 -50 -73 -86 -82 -149 -9 -73 -46 -137 -99 -173
l-45 -32 6 -111 6 -112 -39 -27 c-35 -24 -41 -26 -58 -13 -28 21 -61 19 -67
-5 -3 -11 -16 -24 -30 -29 -14 -5 -28 -15 -32 -21 -4 -6 -16 -8 -27 -5 -10 4
-30 4 -43 1 -30 -8 -51 -65 -36 -94 8 -16 5 -30 -14 -66 -33 -62 -33 -86 0
-86 35 0 31 -21 -10 -49 -20 -13 -43 -37 -52 -53 -11 -17 -26 -28 -40 -28 -27
0 -39 -33 -25 -70 13 -37 4 -60 -23 -60 -20 0 -25 -6 -30 -45 -5 -30 -2 -59 9
-91 21 -62 20 -118 -1 -152 -10 -14 -19 -44 -21 -67 -1 -22 -5 -78 -8 -124
l-6 -84 24 6 c28 7 51 -24 62 -86 5 -24 17 -44 36 -58 l29 -22 -20 -49 c-24
-62 -24 -68 5 -68 34 0 56 -10 56 -25 0 -8 14 -15 33 -17 28 -3 32 -7 35 -35
4 -41 34 -63 76 -56 53 8 68 -13 70 -96 2 -56 -1 -74 -13 -81 -14 -9 -14 -11
-1 -20 14 -10 31 -9 145 6 39 5 52 2 95 -26 56 -36 57 -43 18 -133 l-21 -47
23 -25 23 -25 32 20 c42 26 105 26 152 0 21 -11 53 -23 71 -26 23 -5 40 -17
55 -40 12 -19 30 -34 39 -34 9 0 31 -8 50 -17 18 -10 34 -19 36 -20 2 -1 -4
-13 -14 -28 -16 -24 -16 -27 -1 -43 15 -15 18 -14 41 7 27 25 76 30 152 16 32
-6 49 -3 70 10 29 17 94 116 94 141 0 8 6 14 13 14 6 0 28 27 49 59 28 47 42
60 65 63 22 2 33 13 51 48 13 25 29 52 37 60 34 40 40 68 45 211 5 139 6 148
32 185 15 22 32 62 37 88 5 27 23 68 40 93 17 24 31 51 31 61 0 9 9 32 20 50
11 18 20 45 20 60 0 15 13 70 29 123 22 78 37 108 74 154 26 31 52 73 58 94
10 34 8 43 -20 99 -34 67 -38 101 -17 135 27 43 39 584 14 646 -6 14 -13 80
-16 146 -5 115 -6 121 -33 148 -18 17 -29 39 -29 55 0 15 -11 44 -25 64 -14
20 -25 43 -25 51 0 8 -11 34 -24 58 -19 33 -22 47 -15 62 6 10 9 20 7 21 -2 1
-15 10 -30 19 -33 20 -37 47 -8 47 16 0 20 7 20 33 0 47 -28 70 -72 62 -26 -5
-38 -2 -52 14 -18 20 -18 21 8 32 32 15 29 28 -12 52 -31 18 -32 18 -64 -7
-36 -26 -56 -23 -88 16 -16 19 -80 36 -170 44 -41 4 -60 2 -75 -10z"/>
<path d="M6149 5940 c-9 -5 -20 -21 -23 -36 -4 -14 -18 -44 -32 -66 -22 -34
-29 -39 -50 -34 -17 5 -35 0 -56 -16 -18 -13 -55 -36 -84 -53 -95 -55 -143
-90 -155 -112 -9 -17 -21 -23 -49 -23 -33 0 -38 -4 -57 -44 l-22 -44 23 -21
c17 -16 35 -21 74 -21 51 0 52 -1 52 -29 0 -40 -91 -141 -127 -141 -13 0 -34
-5 -46 -12 -13 -7 -77 -13 -162 -15 -121 -3 -144 -6 -167 -23 -15 -11 -34 -20
-43 -20 -15 0 -75 -27 -75 -34 0 -2 78 -3 174 -3 170 0 176 -1 221 -27 69 -38
165 -33 165 10 0 18 40 34 86 34 27 0 34 -4 34 -20 0 -11 4 -20 9 -20 12 0 51
49 51 64 0 7 25 36 55 66 35 34 55 63 55 77 0 13 6 23 14 23 27 0 40 28 29 64
-7 22 -7 39 0 51 12 22 -6 35 -49 35 -28 0 -31 3 -27 24 3 16 14 27 32 31 14
3 35 15 46 25 55 52 67 60 86 60 50 0 71 31 47 70 -10 15 -9 26 5 55 20 41 22
106 5 123 -14 14 -18 14 -39 2z"/>
<path d="M5667 5024 c-15 -8 -27 -23 -27 -32 0 -10 -5 -23 -12 -30 -16 -16 13
-26 57 -18 49 10 64 40 33 71 -22 21 -25 22 -51 9z"/>
<path d="M5568 4838 c-27 -28 -48 -55 -48 -59 0 -5 -13 -9 -28 -9 -31 0 -92
-54 -92 -82 0 -23 34 -31 75 -18 25 8 39 8 55 0 12 -6 34 -8 50 -5 26 6 30 12
36 53 4 26 15 64 26 84 21 43 16 88 -11 87 -9 0 -37 -23 -63 -51z"/>
<path d="M7080 4865 c0 -14 -3 -25 -7 -25 -5 0 -14 -4 -21 -9 -11 -6 -10 -15
4 -44 14 -28 20 -34 31 -26 7 6 20 9 28 5 10 -3 18 1 22 12 3 9 14 26 25 38
19 21 18 21 -7 38 -14 9 -36 21 -50 26 -22 9 -25 7 -25 -15z"/>
<path d="M6886 4768 c-9 -12 -16 -39 -16 -60 0 -32 4 -39 26 -44 22 -6 25 -11
21 -33 -13 -63 -13 -66 8 -64 27 2 95 20 102 26 7 8 -17 49 -44 74 -18 17 -22
29 -17 49 5 21 1 31 -22 50 -36 29 -39 29 -58 2z"/>
<path d="M6546 3963 c-48 -34 -72 -38 -117 -19 -13 5 -20 -3 -33 -33 -9 -23
-21 -41 -27 -41 -7 0 -9 -9 -4 -27 12 -45 6 -83 -22 -130 -23 -40 -25 -49 -15
-77 7 -18 12 -40 12 -49 0 -9 14 -24 30 -32 17 -9 39 -30 50 -47 l19 -31 7 29
c4 16 13 37 21 46 8 9 17 36 20 60 3 24 19 84 35 135 29 88 31 92 62 95 23 2
32 8 34 26 2 12 -2 22 -9 22 -9 0 -9 3 1 15 12 15 5 96 -8 94 -4 0 -29 -16
-56 -36z"/>
<path d="M6275 3280 c-24 -26 -13 -47 28 -52 25 -3 37 1 50 18 15 20 14 22
-19 37 -42 21 -37 21 -59 -3z"/>
<path d="M6106 2848 c8 -29 10 -31 23 -23 20 12 13 45 -10 45 -16 0 -19 -4
-13 -22z"/>
<path d="M4560 1930 c-6 -11 -14 -43 -17 -69 -5 -47 -4 -50 26 -65 30 -16 33
-23 46 -101 4 -22 9 -52 12 -67 15 -81 -28 -133 -99 -122 -30 5 -36 3 -41 -15
-8 -32 -63 -28 -113 8 -22 16 -53 31 -69 33 -25 2 -31 -1 -33 -19 -3 -19 1
-23 23 -23 28 0 85 -26 98 -44 4 -6 12 -28 18 -50 l10 -39 38 37 c41 40 88 48
112 20 7 -9 22 -20 34 -24 17 -6 23 0 44 49 31 76 43 127 42 182 -1 41 1 47
21 52 13 3 51 15 86 28 68 24 72 32 48 90 -9 22 -12 52 -9 85 5 46 3 53 -16
64 -18 9 -26 7 -52 -14 -29 -25 -93 -36 -101 -18 -3 8 -74 42 -88 42 -5 0 -14
-9 -20 -20z"/>
<path d="M3820 793 c0 -25 -1 -25 -18 -10 -21 19 -32 13 -32 -15 0 -10 -12
-36 -26 -58 -22 -33 -24 -42 -14 -55 10 -12 10 -21 1 -41 -16 -35 -5 -64 23
-64 28 0 39 13 55 61 10 32 19 39 71 58 35 13 60 28 60 36 0 8 -18 26 -40 40
-23 15 -40 33 -40 44 0 10 -9 21 -20 24 -16 4 -20 0 -20 -20z"/>
<path d="M3163 359 c-5 -16 -12 -20 -32 -16 -30 6 -91 -17 -91 -33 0 -7 14
-25 30 -40 17 -15 30 -37 30 -49 0 -29 -54 -74 -103 -86 -41 -11 -42 -12 -45
-57 -3 -52 -11 -48 103 -62 22 -3 50 -8 62 -12 18 -5 25 -1 33 20 7 19 17 26
38 26 20 0 32 8 45 30 22 36 28 37 63 5 29 -27 40 -30 49 -15 3 5 27 10 53 10
56 0 67 6 81 44 7 16 23 32 41 39 23 9 30 18 30 38 0 23 -6 29 -32 35 -18 4
-45 6 -60 5 -20 -2 -28 2 -28 13 0 18 -25 22 -35 6 -3 -5 -27 -10 -53 -10 -62
1 -102 34 -109 90 -5 36 -8 40 -35 40 -22 0 -31 -6 -35 -21z"/>
</g>
</svg>
