<?xml version="1.0" standalone="no"?>
<!DOCTYPE svg PUBLIC "-//W3C//DTD SVG 20010904//EN"
 "http://www.w3.org/TR/2001/REC-SVG-20010904/DTD/svg10.dtd">
<svg version="1.0" xmlns="http://www.w3.org/2000/svg"
 width="1024.000000pt" height="1024.000000pt" viewBox="0 0 1024.000000 1024.000000"
 preserveAspectRatio="xMidYMid meet">
<metadata>
Created by potrace 1.10, written by Peter Selinger 2001-2011
</metadata>
<g transform="translate(0.000000,1024.000000) scale(0.100000,-0.100000)"
fill="#000000" stroke="none">
<path d="M7006 8739 c-368 -147 -670 -270 -671 -271 -2 -2 6 -50 16 -108 11
-57 16 -107 11 -111 -4 -3 -101 -36 -216 -73 l-208 -67 -22 20 c-20 19 -35 20
-261 22 l-240 1 -242 -108 c-226 -101 -243 -111 -243 -135 0 -14 -6 -32 -12
-41 -12 -15 -425 -155 -432 -147 -2 2 -18 48 -35 101 -31 94 -33 97 -59 92
-15 -2 -170 -22 -345 -43 -175 -22 -320 -41 -322 -43 -2 -1 -42 -126 -89 -277
-70 -227 -83 -276 -71 -285 7 -6 45 -35 84 -65 68 -53 70 -55 53 -76 -9 -11
-190 -202 -402 -424 l-385 -403 -52 58 -53 57 -145 -68 c-117 -55 -145 -72
-146 -89 0 -12 -8 -94 -17 -184 -10 -90 -15 -165 -12 -167 3 -1 31 -8 63 -15
34 -8 57 -18 57 -26 0 -19 -290 -998 -298 -1006 -4 -3 -54 4 -112 17 -103 24
-105 24 -120 5 -129 -163 -148 -182 -281 -277 l-135 -97 -66 -119 -66 -120 62
-50 c33 -27 67 -56 75 -62 11 -11 -47 -79 -334 -392 -191 -208 -362 -393 -380
-412 l-33 -33 -88 66 c-48 37 -91 65 -95 64 -36 -14 -736 -445 -731 -450 10
-10 665 -318 676 -318 5 0 41 29 81 65 l72 64 464 -384 c255 -212 468 -391
473 -399 7 -10 0 -28 -22 -62 -26 -41 -29 -51 -18 -64 7 -8 45 -54 85 -102 43
-53 79 -88 90 -88 16 0 512 90 577 105 19 4 23 17 35 97 l14 93 35 -1 c19 -1
376 -28 792 -60 l757 -59 3 -109 3 -109 430 -144 430 -143 375 -24 c206 -13
378 -22 382 -20 3 2 9 38 13 79 5 49 12 75 20 75 6 0 311 -59 676 -130 365
-72 667 -130 671 -130 4 0 30 39 58 86 l52 85 735 -7 734 -7 -5 34 c-14 81
-57 402 -65 484 -7 71 -18 112 -51 190 l-42 100 -5 180 c-5 177 7 378 24 409
7 13 31 -18 108 -136 153 -236 228 -297 489 -399 85 -33 117 -40 201 -45 55
-3 143 -1 196 4 88 10 106 16 215 70 151 76 209 124 294 242 148 208 164 266
166 625 0 143 4 314 8 380 10 164 -12 344 -54 453 -46 119 -135 260 -205 324
-33 30 -103 81 -155 113 -52 32 -96 59 -98 60 -2 2 -16 652 -32 1445 -16 793
-30 1443 -32 1444 -2 2 -372 100 -823 220 -451 119 -820 218 -821 219 -2 1
-73 265 -159 587 -182 681 -165 620 -173 619 -4 0 -308 -122 -676 -270z"/>
</g>
</svg>
