<?xml version="1.0" standalone="no"?>
<!DOCTYPE svg PUBLIC "-//W3C//DTD SVG 20010904//EN"
 "http://www.w3.org/TR/2001/REC-SVG-20010904/DTD/svg10.dtd">
<svg version="1.0" xmlns="http://www.w3.org/2000/svg"
 width="1024.000000pt" height="1024.000000pt" viewBox="0 0 1024.000000 1024.000000"
 preserveAspectRatio="xMidYMid meet">
<metadata>
Created by potrace 1.10, written by Peter Selinger 2001-2011
</metadata>
<g transform="translate(0.000000,1024.000000) scale(0.100000,-0.100000)"
fill="#000000" stroke="none">
<path d="M7115 8141 l-1700 -637 -83 -124 c-46 -69 -431 -637 -855 -1264 -654
-965 -772 -1134 -775 -1110 -2 16 -25 209 -50 429 l-48 400 -978 377 -978 377
-150 -30 c-114 -23 -165 -39 -211 -64 l-59 -33 -52 17 c-45 16 -57 16 -101 5
-27 -7 -53 -10 -56 -6 -3 4 -27 35 -53 70 -43 57 -50 62 -85 62 -21 0 -57 7
-80 15 l-41 14 -130 -100 c-72 -56 -130 -104 -130 -109 0 -4 7 -24 15 -44 15
-36 15 -40 -21 -134 -20 -53 -36 -108 -36 -122 1 -14 4 -62 7 -107 7 -80 7
-82 41 -102 l35 -21 -3 -87 -3 -88 -32 -5 c-27 -4 -46 -25 -130 -135 l-98
-130 -75 -26 c-55 -19 -76 -31 -78 -45 -2 -11 9 -62 24 -114 19 -65 29 -130
33 -205 3 -62 12 -120 19 -133 9 -16 11 -40 7 -77 -7 -49 -10 -54 -37 -60 -28
-7 -29 -9 -23 -46 6 -35 5 -39 -19 -45 -32 -8 -33 -20 -1 -66 20 -30 25 -49
25 -102 0 -55 3 -66 20 -71 13 -4 21 -19 26 -43 3 -20 12 -62 20 -93 8 -31 14
-60 14 -64 0 -14 -44 8 -66 34 l-23 26 -1 -48 c0 -36 -7 -57 -31 -89 l-30 -43
33 -12 c18 -6 54 -12 80 -12 75 -1 93 -15 128 -96 18 -40 45 -86 61 -101 16
-15 29 -38 29 -51 0 -20 -4 -22 -30 -16 -20 3 -30 1 -30 -6 0 -24 28 -77 54
-100 14 -13 40 -61 57 -105 17 -45 43 -94 59 -111 15 -16 37 -58 48 -92 l21
-63 -30 0 c-34 0 -34 -1 -13 -66 10 -32 29 -61 56 -85 l41 -37 1 -121 c2 -142
2 -142 119 -240 72 -61 77 -67 77 -104 0 -28 9 -55 30 -87 49 -77 62 -123 45
-169 -7 -22 -21 -98 -30 -170 -16 -123 -16 -133 0 -183 27 -81 43 -109 96
-163 43 -44 52 -62 77 -145 25 -86 31 -97 61 -112 33 -17 34 -18 35 -89 l1
-73 35 -8 c30 -6 43 -2 87 28 29 18 57 34 62 34 6 0 37 -16 70 -35 45 -26 71
-35 106 -35 29 0 64 -9 95 -25 64 -32 153 -34 210 -5 49 25 50 25 50 -5 0 -30
9 -31 60 -5 22 11 50 20 63 20 13 0 36 13 52 30 18 19 39 30 56 30 21 0 42 16
94 75 66 74 68 75 116 75 27 0 49 -3 49 -7 0 -5 9 -19 19 -32 l18 -24 31 22
31 22 21 -42 c24 -47 21 -47 132 4 76 35 76 35 94 16 13 -14 28 -19 53 -17
l36 3 7 109 6 109 53 53 c47 48 58 54 108 60 94 11 134 42 191 148 65 120 115
168 204 195 37 12 95 21 129 21 55 0 65 3 113 41 l54 41 64 -12 c62 -11 65
-11 103 14 34 23 44 25 67 16 39 -15 158 -12 197 4 28 11 58 12 162 5 121 -9
129 -9 156 11 16 11 38 20 49 20 20 0 136 49 347 147 72 33 153 67 180 75 48
13 53 18 125 124 101 148 147 203 179 211 14 3 59 38 99 77 l74 71 102 3 c103
4 103 4 138 -27 49 -42 91 -42 136 2 31 30 38 32 112 34 49 1 88 7 102 17 13
8 57 17 98 21 62 6 80 12 103 34 35 32 112 137 157 213 19 32 42 60 51 63 12
4 18 23 23 71 5 54 13 74 39 106 30 38 34 39 74 33 39 -6 43 -4 57 23 28 54
137 130 230 162 48 16 106 44 132 64 32 24 81 47 148 68 83 25 106 37 129 64
33 38 80 46 121 19 21 -14 24 -13 46 10 16 17 34 25 57 25 27 0 37 6 51 30 13
23 27 32 56 37 21 3 46 15 55 26 49 63 67 74 136 87 39 7 91 24 117 39 40 22
51 24 67 14 17 -11 23 -8 45 17 19 23 33 30 60 30 27 0 40 6 52 24 12 20 27
26 72 31 81 9 92 14 102 40 12 33 92 59 134 44 28 -10 38 -7 101 26 39 21 79
46 90 55 33 28 237 118 283 125 37 6 44 11 49 36 8 39 124 111 174 107 29 -3
34 0 37 20 4 27 59 56 129 67 33 5 49 15 77 49 24 30 53 51 91 66 l55 22 0 73
c0 59 -3 75 -20 90 -15 14 -19 26 -14 49 4 25 0 36 -19 54 -17 16 -23 30 -19
48 3 15 -2 32 -14 45 -17 19 -17 21 4 72 15 35 22 73 22 115 0 58 4 69 55 154
30 50 55 94 55 99 0 14 128 88 226 129 179 76 415 193 411 204 -3 6 -315 560
-694 1231 -520 920 -694 1220 -709 1222 -10 1 -784 -285 -1719 -636z"/>
<path d="M53 4388 c-60 -62 -70 -133 -26 -174 l28 -26 22 29 c26 32 33 118 11
126 -10 4 -10 7 0 18 13 14 17 59 4 59 -4 0 -22 -15 -39 -32z"/>
<path d="M280 2905 c0 -24 6 -37 20 -45 12 -6 20 -21 20 -35 0 -20 5 -25 25
-25 24 0 25 2 25 64 0 63 0 64 -31 70 -54 11 -59 8 -59 -29z"/>
<path d="M333 2623 c-13 -3 -26 -16 -32 -35 -16 -44 -14 -48 18 -48 22 0 37
11 65 45 l37 45 -33 -1 c-18 -1 -43 -4 -55 -6z"/>
</g>
</svg>
