<?xml version="1.0" standalone="no"?>
<!DOCTYPE svg PUBLIC "-//W3C//DTD SVG 20010904//EN"
 "http://www.w3.org/TR/2001/REC-SVG-20010904/DTD/svg10.dtd">
<svg version="1.0" xmlns="http://www.w3.org/2000/svg"
 width="1024.000000pt" height="1024.000000pt" viewBox="0 0 1024.000000 1024.000000"
 preserveAspectRatio="xMidYMid meet">
<metadata>
Created by potrace 1.10, written by Peter Selinger 2001-2011
</metadata>
<g transform="translate(0.000000,1024.000000) scale(0.100000,-0.100000)"
fill="#000000" stroke="none">
<path d="M3290 9631 c-30 -10 -73 -27 -96 -39 -22 -11 -90 -28 -152 -38 l-113
-17 -125 -113 c-92 -83 -153 -129 -227 -171 -64 -35 -128 -81 -172 -123 -38
-37 -97 -83 -130 -103 -77 -46 -104 -75 -150 -165 -21 -40 -47 -78 -58 -84
-11 -6 -72 -29 -136 -51 l-116 -40 -192 -5 c-192 -4 -193 -4 -265 24 -40 15
-82 34 -93 41 -11 7 -34 13 -52 13 -26 0 -39 -9 -70 -45 -22 -26 -41 -61 -45
-83 -3 -20 -9 -54 -13 -74 -10 -48 6 -50 46 -7 l29 31 0 -43 c0 -49 -31 -109
-55 -109 -9 0 -15 9 -15 25 0 14 -7 28 -15 31 -29 12 -42 -14 -48 -94 -2 -43
-13 -104 -23 -135 l-18 -57 27 -52 c36 -74 79 -299 71 -375 -6 -61 -52 -214
-90 -298 -36 -82 -93 -137 -212 -204 -59 -33 -142 -76 -184 -95 -75 -35 -78
-36 -169 -29 l-92 6 -26 -31 c-14 -17 -46 -42 -71 -55 -34 -18 -51 -36 -72
-75 -15 -31 -55 -79 -94 -116 -65 -60 -68 -65 -68 -107 1 -45 22 -111 42 -131
7 -7 12 -22 12 -35 0 -13 11 -41 25 -63 22 -35 24 -43 13 -63 -7 -12 -16 -56
-19 -97 -4 -41 -11 -107 -14 -146 -5 -43 -3 -98 4 -139 11 -63 17 -73 64 -119
29 -29 70 -82 91 -119 22 -37 42 -67 46 -67 3 0 46 -36 95 -80 57 -51 104 -84
127 -90 68 -19 118 -75 131 -147 6 -31 49 -90 213 -294 l61 -76 6 -108 c5 -88
10 -112 26 -129 10 -11 21 -32 23 -45 2 -16 24 -41 58 -69 30 -24 74 -61 97
-83 24 -21 47 -39 52 -39 20 0 20 -33 0 -71 -17 -34 -20 -59 -20 -157 0 -64 4
-133 9 -152 5 -19 5 -46 1 -60 -4 -14 -7 -45 -8 -69 -1 -25 -10 -78 -22 -118
-12 -44 -19 -94 -17 -126 3 -46 6 -52 26 -55 28 -4 42 -37 42 -96 0 -33 7 -52
30 -81 19 -24 42 -79 65 -154 39 -126 58 -152 128 -173 26 -8 39 -19 43 -35 5
-17 13 -23 35 -23 43 0 96 -25 109 -52 19 -35 62 -78 79 -78 43 -1 66 -28 76
-87 9 -50 14 -58 35 -61 13 -2 48 -24 76 -49 48 -40 56 -53 83 -136 24 -72 30
-103 26 -142 -6 -55 11 -86 53 -99 11 -4 31 -23 42 -42 21 -33 54 -46 62 -23
3 9 13 9 38 1 19 -6 94 -20 166 -31 185 -28 362 -73 478 -120 55 -23 101 -41
103 -41 1 0 3 6 3 13 0 14 -44 58 -74 74 -10 6 -24 26 -31 46 -12 34 -11 36 6
27 10 -6 27 -23 38 -39 11 -15 35 -34 52 -41 27 -11 35 -11 60 4 34 20 35 17
12 -42 l-17 -45 40 -36 c22 -20 62 -52 89 -71 81 -58 148 -145 174 -227 22
-67 26 -74 80 -109 31 -20 77 -55 104 -77 41 -34 61 -42 155 -62 244 -53 294
-68 303 -93 8 -20 12 -22 23 -12 18 14 36 -12 61 -87 14 -46 20 -53 43 -53 14
0 33 -6 41 -14 19 -16 230 -76 270 -76 28 0 71 -42 101 -100 7 -14 19 -33 28
-43 14 -15 17 -16 32 -2 11 10 46 18 96 21 77 6 82 5 174 -36 63 -28 108 -42
134 -41 33 1 48 -6 88 -40 55 -46 172 -93 260 -104 40 -5 69 -16 99 -38 23
-17 68 -43 101 -59 32 -15 78 -41 102 -57 l43 -30 33 23 34 23 40 -23 c30 -16
66 -24 136 -28 100 -7 154 0 234 30 l48 19 17 -25 c28 -43 64 -71 131 -101 36
-17 110 -57 166 -89 120 -72 137 -73 303 -30 62 17 138 30 167 30 76 0 154
-19 161 -38 11 -31 36 -52 62 -52 30 0 133 29 206 57 28 11 105 30 172 42
l122 23 63 63 63 63 225 -10 225 -10 148 46 c93 29 214 58 324 76 96 17 179
30 185 30 5 0 21 12 35 26 25 25 28 26 72 14 25 -7 60 -12 76 -12 41 1 377
108 447 143 78 40 170 127 199 190 35 75 58 119 107 198 l43 69 -27 54 c-24
48 -27 64 -28 173 -1 95 -7 136 -26 199 -22 74 -23 82 -10 150 23 121 24 195
2 251 -17 44 -19 77 -20 285 0 164 4 258 14 310 8 41 14 96 14 121 0 26 9 66
20 90 11 24 20 53 20 65 0 11 9 29 19 38 16 15 18 22 9 48 -7 18 -8 62 -4 111
7 84 23 122 70 166 14 13 28 37 32 54 10 46 49 100 98 135 50 36 56 56 56 197
0 50 3 99 6 110 4 12 37 35 85 59 l79 40 0 54 c0 30 -8 74 -19 100 -14 35 -21
82 -25 182 l-5 135 -76 72 c-53 51 -75 79 -75 97 0 49 -69 88 -212 120 -15 4
-33 16 -39 29 -29 52 -109 131 -171 168 -59 35 -74 39 -134 39 -66 0 -67 0
-103 42 -19 22 -45 62 -57 89 -57 122 -170 260 -245 299 -26 14 -47 38 -73 83
-19 36 -46 74 -58 85 -114 101 -206 191 -223 217 -11 17 -29 46 -40 64 -11 17
-39 58 -62 89 -24 31 -43 66 -43 77 0 10 -12 29 -27 41 -28 22 -28 23 -25 127
l3 105 -61 42 c-63 43 -70 54 -110 167 -25 71 -28 74 -94 99 -69 25 -121 78
-129 130 -4 22 -17 56 -30 75 -13 19 -26 49 -30 66 -3 17 -18 48 -32 68 -28
43 -29 53 -13 141 9 52 8 100 -8 271 -16 184 -21 211 -42 242 -13 19 -40 76
-59 126 -19 49 -62 149 -97 220 -56 115 -72 138 -133 196 -38 36 -90 75 -115
87 -38 17 -49 29 -63 66 -19 51 -47 79 -165 170 -106 82 -265 165 -350 183
-35 7 -85 26 -110 40 -41 25 -56 27 -170 31 l-125 3 -94 47 c-52 25 -108 58
-125 72 -43 37 -84 57 -199 96 -80 27 -103 31 -125 23 -38 -15 -93 -4 -165 33
-41 21 -74 31 -98 29 -20 -1 -58 3 -84 9 -42 9 -53 8 -89 -10 -23 -11 -87 -30
-144 -41 l-103 -21 -70 31 c-38 17 -83 31 -99 31 -17 0 -62 18 -103 41 -40 23
-89 44 -109 46 -21 3 -47 16 -59 29 -13 14 -34 24 -49 24 -15 0 -40 5 -57 10
-16 6 -151 12 -314 13 -319 3 -346 8 -428 76 -24 20 -62 51 -85 69 l-41 33
-226 -7 c-160 -5 -232 -3 -247 5 -39 21 -133 22 -192 2z"/>
</g>
</svg>
