<?xml version="1.0" standalone="no"?>
<!DOCTYPE svg PUBLIC "-//W3C//DTD SVG 20010904//EN"
 "http://www.w3.org/TR/2001/REC-SVG-20010904/DTD/svg10.dtd">
<svg version="1.0" xmlns="http://www.w3.org/2000/svg"
 width="1024.000000pt" height="1024.000000pt" viewBox="0 0 1024.000000 1024.000000"
 preserveAspectRatio="xMidYMid meet">
<metadata>
Created by potrace 1.10, written by Peter Selinger 2001-2011
</metadata>
<g transform="translate(0.000000,1024.000000) scale(0.100000,-0.100000)"
fill="#000000" stroke="none">
<path d="M6270 10222 c0 -13 -19 -33 -54 -57 -52 -36 -55 -37 -77 -21 -13 9
-38 16 -56 16 -26 0 -36 -6 -48 -30 -12 -23 -13 -35 -5 -50 9 -17 5 -22 -28
-39 -21 -11 -44 -27 -51 -35 -9 -11 -30 -16 -66 -16 -57 0 -68 -8 -108 -81
l-18 -32 -34 33 c-19 19 -35 40 -35 47 0 25 -41 33 -165 33 -102 0 -127 -3
-131 -15 -9 -22 -34 -18 -62 7 -25 25 -132 41 -242 39 -501 -12 -509 -12 -542
6 -24 12 -65 18 -154 21 -117 4 -122 3 -129 -17 l-6 -21 -972 3 c-917 2 -972
1 -975 -15 -2 -10 7 -32 19 -49 21 -30 21 -32 5 -65 -9 -19 -27 -40 -41 -46
-14 -6 -28 -22 -30 -35 -3 -13 -7 -35 -11 -50 -3 -16 -23 -64 -46 -107 -36
-70 -39 -81 -25 -91 14 -10 14 -16 -6 -60 l-23 -48 38 -108 c44 -129 49 -139
95 -190 33 -36 38 -38 76 -32 36 5 40 4 34 -11 -4 -10 -7 -22 -7 -27 0 -6 -13
-14 -28 -20 -29 -10 -62 -62 -62 -99 0 -21 92 -100 116 -100 21 0 -18 -72 -51
-94 -21 -14 -23 -20 -15 -36 15 -28 23 -131 12 -160 -7 -19 -3 -40 19 -94 27
-64 28 -73 19 -132 -10 -59 -9 -68 15 -114 14 -27 25 -54 25 -59 0 -6 -20 -40
-44 -76 l-44 -66 20 -47 c11 -26 29 -58 38 -72 17 -23 17 -25 -6 -62 -30 -47
-24 -81 20 -110 17 -11 48 -42 69 -69 30 -39 38 -57 38 -91 0 -24 1 -66 2 -95
2 -47 -2 -56 -32 -87 -32 -33 -33 -36 -21 -66 7 -18 24 -36 37 -41 34 -13 28
-40 -17 -84 -22 -21 -47 -58 -56 -82 -9 -24 -22 -43 -29 -43 -6 0 -16 -24 -22
-52 -6 -29 -13 -60 -17 -68 -13 -30 17 -50 104 -69 84 -18 85 -18 83 -47 -4
-44 25 -124 45 -124 13 0 17 -10 19 -47 1 -27 3 -66 4 -88 1 -22 -1 -49 -5
-61 -6 -15 -2 -23 16 -31 22 -10 27 -33 97 -461 40 -248 71 -457 68 -465 -6
-16 -99 -39 -140 -35 -21 2 -32 -3 -44 -24 -16 -25 -16 -29 -1 -45 15 -17 54
-122 47 -127 -2 -1 -40 -12 -84 -25 -72 -20 -86 -28 -140 -82 -36 -35 -69 -59
-82 -59 -19 0 -22 -7 -28 -65 -6 -52 -12 -69 -31 -84 -16 -12 -24 -29 -24 -49
0 -16 -7 -35 -15 -42 -8 -7 -15 -19 -15 -27 0 -7 -7 -16 -16 -20 -9 -3 -42
-62 -75 -131 -55 -116 -59 -130 -59 -196 0 -48 -14 -134 -44 -266 l-44 -194
23 -30 23 -30 -59 -85 c-49 -71 -59 -91 -59 -127 l0 -42 -49 -7 c-28 -4 -54
-12 -59 -18 -6 -7 -51 -88 -102 -182 -108 -200 -122 -248 -97 -328 25 -79 23
-107 -7 -107 -48 0 -76 -61 -41 -90 11 -9 15 -33 15 -86 0 -47 11 -118 31
-201 17 -70 34 -164 38 -208 6 -74 8 -80 31 -85 21 -5 32 -24 71 -123 33 -84
48 -139 53 -191 5 -57 18 -98 55 -183 l49 -111 -9 -103 c-14 -181 -17 -169 42
-169 l51 0 -4 -42 c-3 -24 0 -58 4 -76 9 -33 11 -34 46 -27 20 4 49 13 65 21
26 14 34 13 95 -7 103 -34 96 -26 103 -125 4 -58 15 -115 33 -163 15 -42 26
-96 26 -124 0 -46 -2 -49 -23 -44 -12 2 -30 8 -39 12 -16 6 -18 1 -18 -36 0
-26 -7 -50 -17 -61 -15 -17 -15 -20 5 -41 14 -15 22 -36 22 -58 0 -19 12 -59
26 -89 34 -74 28 -95 -32 -104 -25 -3 -77 -3 -114 0 -45 5 -69 3 -74 -5 -12
-19 -122 -13 -167 9 -31 16 -55 20 -107 18 -64 -3 -67 -4 -70 -29 -3 -25 0
-27 160 -72 128 -37 196 -50 318 -62 139 -15 173 -22 337 -76 100 -32 215 -64
255 -70 151 -24 281 -80 331 -144 15 -19 41 -42 57 -50 16 -9 32 -26 36 -39 4
-18 17 -27 50 -36 32 -9 49 -21 60 -41 18 -35 48 -38 104 -9 22 11 53 20 70
20 25 0 41 11 81 54 32 36 66 60 101 75 29 12 70 30 90 41 20 11 45 20 56 20
24 0 52 31 52 58 0 30 50 61 117 74 32 6 63 12 69 13 6 2 14 22 18 44 6 37 9
41 35 41 16 0 44 6 62 14 19 8 67 19 108 25 41 7 86 20 101 31 16 11 44 20 65
20 20 0 67 9 103 19 37 11 106 26 155 35 89 17 197 62 259 109 19 15 51 34 72
42 35 15 39 15 51 -1 11 -16 21 -17 108 -6 53 7 120 12 151 12 59 0 68 5 172
101 75 70 194 122 327 144 44 7 102 54 111 90 4 15 35 46 81 80 58 43 83 55
111 55 20 0 82 15 139 34 56 19 142 47 191 62 49 14 106 37 127 51 20 13 51
26 68 30 19 3 47 25 77 58 31 36 59 56 84 63 21 6 50 19 65 29 15 11 88 43
160 71 l133 53 87 -12 c86 -11 438 -17 447 -8 3 2 0 22 -6 44 -15 56 -22 169
-10 161 5 -3 12 -25 15 -48 2 -24 19 -73 37 -110 l32 -68 88 0 c52 0 105 6
130 15 23 8 68 15 99 15 46 0 64 5 92 26 19 14 40 29 47 33 7 4 28 65 46 137
19 71 38 139 43 151 9 26 99 97 187 150 92 55 89 50 65 93 -19 33 -28 39 -68
45 -108 15 -111 16 -131 54 -10 20 -35 51 -54 70 -22 20 -40 51 -49 80 l-13
46 -79 3 -79 3 -51 48 c-27 26 -62 55 -77 65 -32 21 -129 137 -152 184 -17 33
-17 34 8 67 39 50 35 65 -17 65 -36 0 -49 6 -75 33 -29 30 -32 38 -33 102 -2
108 -6 118 -67 134 -47 13 -52 17 -52 42 0 20 -10 36 -35 56 -40 32 -42 44
-15 97 22 45 14 71 -26 86 -20 8 -25 16 -22 37 2 23 10 29 47 40 24 7 53 20
63 30 31 28 50 83 43 123 -18 104 -18 131 4 154 14 15 24 41 27 77 3 30 15 67
26 83 19 26 19 33 8 106 l-12 79 -71 -2 -70 -2 -36 60 c-27 47 -36 73 -39 122
-7 100 3 130 47 153 44 22 51 35 51 91 0 36 26 79 48 79 4 0 8 19 8 43 0 23 1
56 2 72 0 17 1 44 1 60 -1 17 2 51 6 77 5 30 3 65 -5 95 -18 66 -29 141 -39
253 -8 85 -7 98 10 121 16 24 17 28 4 39 -8 7 -15 20 -15 30 0 25 73 79 139
101 72 24 81 49 45 113 -13 22 -24 49 -24 58 0 10 -16 33 -35 52 -26 26 -35
44 -35 68 0 57 -32 95 -95 113 -41 12 -59 23 -67 41 -6 13 -20 24 -30 24 -10
0 -26 9 -35 20 -10 11 -25 20 -35 20 -10 0 -30 19 -45 43 -31 49 -123 246
-123 265 0 17 45 15 60 -3 19 -23 30 -18 30 16 0 31 1 32 40 26 37 -5 40 -3
40 19 0 14 9 42 20 64 11 22 20 49 20 61 0 12 -22 57 -50 101 -27 43 -51 91
-52 106 -1 15 8 46 21 70 18 35 20 49 12 77 -8 28 -6 37 11 52 40 36 58 86 47
131 -8 37 -6 46 21 89 27 43 30 54 30 134 l0 87 -31 11 c-23 8 -29 15 -25 29
5 15 -3 21 -47 35 -52 17 -151 22 -193 11 -11 -3 -25 -17 -30 -32 -8 -21 -23
-31 -68 -45 -70 -23 -106 -17 -106 17 0 14 -3 31 -6 40 -5 13 1 16 33 16 29 0
46 7 63 25 l23 25 -44 0 c-42 0 -47 3 -62 36 -10 19 -15 40 -11 45 3 5 38 10
77 10 40 0 84 0 99 0 33 0 52 21 43 50 -6 19 -12 20 -53 14 -55 -8 -51 -8 -79
-6 -14 1 -23 7 -23 18 0 9 -8 25 -17 35 -15 17 -15 20 -1 35 13 13 22 14 49 4
17 -6 45 -11 60 -11 27 0 29 2 29 43 0 24 -7 52 -15 63 -22 29 -19 100 6 134
19 25 21 37 15 95 -6 61 -5 69 19 96 31 37 31 46 3 76 -30 32 -16 76 25 81 26
3 28 6 22 35 -4 18 -20 46 -36 62 -18 20 -27 37 -23 50 2 11 11 67 19 125 9
58 18 120 22 139 l6 34 -39 -6 c-38 -5 -40 -4 -73 45 -26 40 -32 58 -28 84 5
27 1 35 -20 49 -23 15 -27 15 -41 2 -13 -14 -19 -14 -43 -2 -23 13 -29 13 -39
0 -10 -13 -19 -2 -50 62 -21 43 -41 86 -44 95 -3 12 -20 20 -48 24 -34 5 -53
17 -90 55 -52 53 -77 69 -108 69 -12 0 -39 12 -60 27 -30 22 -40 38 -49 76
-16 72 -15 77 41 168 50 82 54 94 74 233 5 38 14 56 37 75 29 24 29 27 24 94
-5 75 -6 77 -75 103 -40 16 -45 16 -81 0 -37 -17 -40 -17 -78 3 -22 11 -43 29
-45 39 -4 15 -18 20 -74 26 -38 4 -86 9 -106 13 -33 5 -38 3 -38 -15z"/>
</g>
</svg>
