<?xml version="1.0" standalone="no"?>
<!DOCTYPE svg PUBLIC "-//W3C//DTD SVG 20010904//EN"
 "http://www.w3.org/TR/2001/REC-SVG-20010904/DTD/svg10.dtd">
<svg version="1.0" xmlns="http://www.w3.org/2000/svg"
 width="1024.000000pt" height="1024.000000pt" viewBox="0 0 1024.000000 1024.000000"
 preserveAspectRatio="xMidYMid meet">
<metadata>
Created by potrace 1.10, written by Peter Selinger 2001-2011
</metadata>
<g transform="translate(0.000000,1024.000000) scale(0.100000,-0.100000)"
fill="#000000" stroke="none">
<path d="M7705 9692 c-484 -302 -1195 -746 -1580 -989 -385 -242 -871 -545
-1080 -673 -209 -128 -416 -262 -459 -297 -89 -71 -94 -72 -227 -47 -45 8 -91
13 -102 10 -13 -3 -31 4 -49 20 -27 22 -38 24 -136 24 -120 1 -233 19 -259 42
-27 23 -61 31 -134 30 -55 -1 -68 2 -75 17 -18 37 -171 169 -269 233 -55 35
-106 77 -114 91 -13 24 -18 26 -55 20 -23 -3 -42 -7 -44 -8 -1 -1 -19 3 -40
10 -21 8 -58 11 -88 8 l-51 -5 -7 43 c-7 45 -47 122 -69 136 -8 4 -18 35 -23
68 l-9 60 -45 13 c-79 23 -94 32 -82 44 18 18 14 38 -6 38 -17 0 -67 40 -73
59 -5 14 -158 42 -210 39 -40 -2 -58 10 -59 40 0 8 -16 12 -48 12 -39 0 -53
-5 -73 -26 -13 -14 -48 -37 -77 -50 -30 -13 -67 -35 -84 -49 -34 -29 -59 -31
-117 -10 l-41 14 15 -29 c23 -44 19 -65 -20 -107 -44 -47 -51 -68 -32 -96 7
-12 17 -46 20 -75 6 -48 4 -54 -17 -63 -16 -8 -22 -17 -19 -33 3 -16 -2 -25
-18 -32 l-22 -10 32 -37 c32 -35 32 -36 15 -62 -15 -23 -16 -32 -6 -58 10 -27
9 -34 -8 -52 -12 -13 -20 -35 -20 -57 0 -20 -4 -48 -9 -62 -7 -15 -6 -37 0
-58 5 -18 14 -117 19 -219 10 -176 9 -188 -10 -230 -11 -26 -20 -66 -20 -97 0
-38 -8 -69 -30 -112 -34 -68 -40 -142 -14 -171 14 -16 14 -20 -1 -50 -16 -30
-16 -34 -1 -61 13 -21 16 -40 10 -76 -3 -26 -11 -53 -17 -60 -13 -17 8 -119
29 -143 11 -12 14 -25 9 -36 -12 -28 -13 -102 -2 -160 8 -43 14 -52 36 -57 14
-3 35 -13 46 -21 20 -16 20 -18 -26 -241 -49 -243 -50 -284 -13 -396 12 -36
13 -56 5 -85 -28 -108 -41 -185 -41 -248 0 -43 -6 -80 -15 -95 -8 -14 -19 -37
-26 -52 -9 -24 -15 -27 -37 -21 -15 3 -31 11 -35 17 -8 11 -2 70 9 100 3 9 1
16 -5 16 -14 0 -53 -43 -83 -90 -12 -19 -30 -45 -41 -58 l-21 -22 -21 20 -21
20 -24 -49 -23 -49 48 -84 c26 -46 61 -97 78 -115 l30 -32 -17 -102 c-14 -87
-21 -107 -50 -143 -58 -71 -66 -100 -48 -185 l16 -73 -45 -42 c-25 -22 -59
-53 -76 -67 -27 -22 -32 -34 -38 -93 -4 -37 -5 -82 -2 -101 5 -28 2 -35 -13
-40 -30 -9 -80 -79 -80 -111 -1 -56 -28 -150 -59 -204 -17 -30 -31 -63 -31
-73 0 -9 -21 -48 -46 -86 -41 -63 -49 -83 -74 -206 -32 -154 -56 -232 -78
-257 -17 -20 -13 -35 46 -152 l34 -69 -36 -31 c-34 -30 -36 -35 -47 -126 -15
-116 -16 -100 16 -248 14 -67 23 -128 18 -135 -4 -6 -36 -52 -72 -102 -56 -77
-70 -106 -98 -200 -32 -104 -33 -115 -27 -215 l6 -105 -37 -65 c-33 -58 -36
-71 -31 -113 4 -35 0 -63 -14 -100 -16 -41 -20 -77 -20 -173 l0 -121 -50 -54
c-64 -69 -79 -127 -48 -177 24 -39 20 -93 -12 -186 -12 -36 -17 -68 -13 -92 5
-28 2 -40 -11 -50 -15 -10 -17 -21 -11 -63 l7 -50 51 -10 c368 -72 2226 -401
2266 -401 5 0 211 169 458 375 l448 374 260 458 260 458 783 161 c430 88 783
162 785 165 2 2 80 183 173 402 l169 399 347 206 c191 114 347 209 348 212 0
3 -466 556 -1036 1230 -875 1034 -1033 1226 -1017 1232 10 4 250 73 533 154
283 80 832 237 1220 349 388 112 1083 310 1545 440 462 130 845 240 851 243 7
4 139 126 295 272 155 146 298 279 317 295 l35 31 -43 139 c-24 77 -46 143
-49 147 -3 4 -105 -20 -226 -52 -121 -33 -223 -60 -227 -60 -4 0 -10 20 -13
44 -4 25 -29 119 -55 211 -39 135 -45 167 -34 172 8 3 54 18 102 32 73 23 86
31 84 46 -20 106 -603 2075 -621 2097 -4 4 -402 -239 -886 -540z"/>
</g>
</svg>
