<?xml version="1.0" standalone="no"?>
<!DOCTYPE svg PUBLIC "-//W3C//DTD SVG 20010904//EN"
 "http://www.w3.org/TR/2001/REC-SVG-20010904/DTD/svg10.dtd">
<svg version="1.0" xmlns="http://www.w3.org/2000/svg"
 width="1024.000000pt" height="1024.000000pt" viewBox="0 0 1024.000000 1024.000000"
 preserveAspectRatio="xMidYMid meet">
<metadata>
Created by potrace 1.10, written by Peter Selinger 2001-2011
</metadata>
<g transform="translate(0.000000,1024.000000) scale(0.100000,-0.100000)"
fill="#000000" stroke="none">
<path d="M5793 10173 c-22 -38 -44 -79 -48 -93 -14 -48 -76 -149 -95 -155 -12
-4 -22 -23 -30 -55 -11 -47 -13 -49 -38 -39 -48 18 -162 39 -216 39 -50 0 -52
-1 -64 -33 -24 -67 -9 -91 37 -58 35 25 59 26 109 5 71 -29 122 -95 122 -156
1 -61 25 -133 46 -136 10 -1 35 -7 54 -12 19 -5 47 -12 63 -15 30 -6 38 -39
11 -49 -15 -6 -15 -8 0 -31 19 -28 21 -45 5 -45 -6 0 -32 -18 -58 -40 -26 -22
-52 -40 -58 -40 -16 0 -29 43 -15 48 6 2 26 13 44 25 47 32 50 75 8 111 -58
49 -85 34 -100 -56 -14 -80 -29 -93 -113 -100 -70 -6 -103 -28 -125 -83 -20
-52 -19 -51 -39 -33 -14 11 -40 15 -108 14 -88 -1 -90 -1 -99 -28 -8 -21 -6
-32 7 -46 21 -24 22 -81 1 -110 -15 -22 -15 -25 6 -47 17 -18 21 -33 19 -76
-2 -37 3 -65 16 -89 14 -26 20 -71 27 -180 10 -169 7 -201 -26 -261 -19 -33
-40 -52 -81 -74 -49 -27 -57 -35 -67 -73 -9 -38 -17 -46 -62 -69 -28 -14 -78
-50 -110 -78 -54 -49 -64 -54 -122 -60 -79 -8 -104 -1 -104 30 0 49 -45 66
-119 45 -25 -7 -39 -6 -49 2 -11 10 -17 8 -28 -7 -25 -34 5 -99 57 -126 21
-10 40 -28 44 -39 8 -25 51 -27 76 -4 23 21 41 9 39 -24 -4 -57 0 -73 23 -81
17 -7 30 -3 55 16 40 30 55 21 50 -28 -2 -28 -8 -35 -28 -37 -14 -2 -30 -9
-35 -16 -8 -11 -20 -10 -60 2 -28 8 -67 14 -88 14 -36 0 -40 3 -57 44 -17 39
-23 44 -55 46 -19 1 -42 2 -51 2 -10 1 -21 -12 -28 -30 -6 -17 -32 -50 -58
-73 -40 -37 -50 -41 -63 -31 -12 10 -21 10 -41 1 -22 -10 -25 -17 -23 -49 2
-24 -6 -55 -21 -86 l-23 -49 23 -44 c31 -58 35 -153 9 -198 -15 -26 -17 -38
-9 -59 5 -14 14 -26 19 -26 4 0 11 -14 15 -32 5 -24 9 -29 18 -20 28 28 77 2
78 -42 0 -11 -12 -33 -27 -48 -41 -43 -91 -39 -197 16 -145 74 -156 70 -156
-59 0 -70 -2 -79 -25 -97 -21 -16 -25 -28 -25 -74 0 -35 -7 -69 -20 -94 -27
-53 -25 -81 8 -112 20 -19 41 -27 80 -30 29 -3 58 -10 64 -16 16 -16 -68 -36
-112 -27 -90 18 -92 17 -119 -63 l-24 -73 -74 -41 c-60 -35 -75 -48 -84 -77
-37 -116 -94 -250 -115 -272 -21 -22 -24 -32 -18 -63 7 -43 -15 -76 -51 -76
-26 0 -51 -25 -66 -68 l-11 -32 -88 0 -89 0 -20 -55 c-26 -69 -26 -72 -1 -85
29 -16 25 -56 -10 -100 -21 -27 -30 -49 -30 -76 0 -26 -11 -55 -30 -86 -25
-40 -37 -50 -73 -59 -58 -14 -109 -77 -105 -129 3 -29 8 -36 36 -44 42 -12 42
-38 -1 -70 -44 -34 -80 -104 -102 -196 -9 -41 -28 -92 -42 -113 -13 -21 -37
-71 -52 -112 -17 -42 -48 -98 -76 -131 l-46 -58 4 -260 4 -261 53 -27 c29 -16
64 -28 79 -28 28 0 53 -22 105 -94 28 -37 30 -38 70 -31 61 11 105 10 118 -3
6 -6 14 -34 18 -63 5 -39 3 -55 -10 -72 -23 -30 -39 -78 -55 -169 -11 -62 -25
-95 -70 -170 -51 -84 -56 -97 -50 -133 11 -71 25 -90 71 -93 26 -2 49 -11 59
-22 16 -17 16 -25 5 -67 -21 -78 -48 -112 -199 -253 -207 -195 -207 -196 -47
-335 128 -110 126 -107 126 -260 0 -72 0 -72 43 -111 28 -27 63 -46 105 -58
50 -16 62 -23 62 -40 0 -13 36 -57 94 -115 76 -76 97 -103 107 -140 9 -32 38
-77 96 -148 l83 -102 58 -3 57 -3 27 -51 c21 -39 37 -55 70 -69 24 -10 64 -38
89 -62 32 -31 57 -45 85 -50 21 -3 54 -17 72 -30 30 -23 38 -24 108 -18 72 7
76 6 103 -19 32 -31 87 -43 129 -28 19 6 88 7 198 2 184 -9 194 -13 194 -73 0
-20 13 -44 40 -74 31 -36 40 -54 40 -83 0 -26 7 -43 26 -61 14 -13 35 -41 45
-61 17 -33 24 -38 54 -38 19 0 35 -5 35 -11 0 -8 19 -9 63 -5 74 8 96 -4 152
-77 l36 -47 132 0 c80 0 155 -6 192 -15 33 -8 84 -14 113 -15 39 0 52 -4 52
-15 0 -28 22 -63 47 -74 14 -7 45 -28 70 -48 48 -39 46 -33 22 -125 -7 -29
-27 -51 -84 -99 -91 -75 -98 -101 -34 -120 31 -10 45 -10 59 -1 11 6 36 14 57
18 34 5 42 2 72 -30 38 -40 47 -42 70 -22 9 7 43 18 75 24 71 14 84 24 92 68
8 42 -11 73 -68 114 -27 20 -51 50 -70 88 -32 65 -34 84 -13 102 9 7 32 44 51
81 24 46 42 69 54 69 10 0 28 9 41 19 23 18 24 26 24 133 0 143 16 179 124
270 11 9 31 55 46 105 35 117 38 123 95 157 71 43 72 56 4 56 -49 0 -55 2 -64
26 -16 40 -12 54 18 71 16 9 36 29 44 44 11 18 26 29 45 31 22 2 29 9 31 31 3
26 6 28 35 22 37 -8 67 -32 67 -52 0 -12 11 -13 53 -8 64 8 97 -13 115 -74 7
-22 16 -43 21 -45 5 -3 24 24 42 61 39 76 63 97 83 71 18 -25 60 -32 75 -14
10 12 9 32 -8 106 -12 50 -19 95 -16 100 3 6 24 10 45 10 36 0 41 3 59 41 l20
41 -24 36 c-20 29 -22 39 -12 49 9 10 21 10 47 2 50 -15 95 3 85 34 -18 57
-17 75 4 86 30 16 26 41 -8 54 -36 13 -41 35 -41 163 0 92 1 95 26 104 16 6
32 27 46 57 18 41 21 68 22 224 1 176 1 177 26 197 16 13 48 23 85 27 33 3 76
10 95 14 l35 8 -40 18 c-29 13 -54 16 -95 12 -53 -6 -56 -5 -72 24 -11 19 -28
32 -48 35 -36 8 -39 29 -5 38 40 10 33 44 -10 52 -37 7 -45 23 -20 44 12 10
29 8 87 -10 107 -32 168 -17 168 41 0 24 -9 33 -59 61 -62 34 -79 59 -55 79
13 11 49 9 99 -6 17 -5 20 -1 20 31 0 34 3 38 33 46 39 10 40 26 7 62 -30 33
-30 30 -4 73 20 32 21 39 9 93 -10 48 -10 66 0 90 7 17 10 44 6 63 -5 29 -3
35 19 45 34 16 32 32 -5 32 -25 0 -30 4 -30 25 0 19 -8 28 -34 39 -18 8 -36
18 -40 24 -6 10 84 22 170 22 70 0 84 7 84 41 0 18 7 32 20 39 42 22 12 78
-38 71 -15 -1 -46 -21 -71 -43 -36 -31 -50 -38 -71 -33 -33 9 -34 10 -20 35 9
17 8 25 -4 39 -20 22 -20 45 -1 61 8 7 15 21 15 31 0 25 38 49 77 49 41 0 49
14 17 29 -39 17 -84 13 -142 -14 -76 -35 -163 -35 -215 0 -37 26 -51 65 -22
65 8 0 22 12 32 28 10 15 28 35 40 45 29 24 29 31 -2 45 -25 11 -25 13 -10 42
8 16 24 34 34 40 29 15 77 12 92 -6 14 -17 51 -37 87 -48 26 -9 31 14 7 34
-24 20 -17 38 19 50 45 14 53 37 24 67 -19 20 -20 25 -8 33 8 5 25 7 37 4 33
-9 43 40 14 67 -25 24 -26 28 -5 57 10 14 25 22 45 22 27 0 30 2 22 23 -7 20
-8 50 -3 113 3 34 -11 46 -55 46 -38 0 -75 26 -75 52 0 10 -9 14 -27 13 -23
-2 -28 3 -36 36 -6 26 -17 41 -33 47 -18 7 -24 17 -24 39 0 49 18 74 81 110
53 31 59 38 59 66 0 30 -5 35 -70 66 l-69 34 -1 76 c0 131 43 209 117 209 40
0 73 11 73 23 0 5 16 29 35 52 22 28 37 58 41 86 4 24 14 52 22 62 13 15 13
25 3 71 -10 47 -10 59 3 85 9 16 24 32 35 36 18 5 19 14 15 103 -7 129 -9 139
-38 146 -35 9 -45 46 -17 64 24 17 27 35 7 51 -8 7 -16 33 -19 59 -2 26 -8 56
-12 68 -5 18 -2 22 23 27 27 6 31 11 37 58 4 29 16 66 26 83 10 17 19 41 19
53 0 12 5 25 10 28 15 9 12 45 -5 51 -8 4 -15 19 -15 35 0 22 -10 35 -46 60
l-47 32 24 18 c13 10 27 19 32 19 4 0 7 10 7 23 0 12 9 42 21 66 21 47 19 71
-5 71 -8 0 -29 14 -46 32 -22 22 -45 34 -74 37 l-41 6 -10 67 c-5 37 -16 73
-22 80 -7 6 -13 19 -13 27 0 9 -14 45 -30 79 -17 35 -30 71 -30 80 0 10 -7 26
-15 36 -23 30 -18 62 13 85 54 41 55 42 48 89 -3 25 -13 53 -21 62 -8 9 -15
25 -15 36 0 29 -19 44 -55 44 -18 0 -39 8 -48 18 -14 15 -14 23 -4 54 7 21 20
45 29 55 20 23 32 117 19 142 -8 14 -27 21 -73 26 -104 12 -139 51 -73 82 36
17 47 46 20 57 -8 3 -15 14 -15 25 0 10 -13 31 -30 44 -16 14 -30 29 -30 32 0
4 43 5 94 3 112 -4 106 -12 106 135 l0 98 35 14 c36 16 55 41 48 63 -9 26 -93
102 -128 116 -27 12 -35 21 -35 41 0 29 -21 75 -57 121 -17 23 -35 33 -65 38
-30 5 -55 19 -89 51 -56 52 -102 60 -135 24 -12 -13 -27 -19 -42 -16 -18 3
-36 -8 -78 -47 -32 -31 -54 -61 -54 -73 0 -32 -29 -37 -42 -8 -10 22 -7 34 20
86 36 70 38 83 17 132 -24 57 -20 81 16 94 41 16 36 45 -9 54 -44 9 -47 14
-28 41 9 12 16 31 16 41 0 15 -5 18 -22 13 -13 -3 -32 -6 -44 -6 -12 0 -25
-10 -32 -25 -30 -66 -132 7 -132 94 0 28 -5 44 -15 47 -8 4 -15 16 -15 29 0
35 -26 49 -95 51 -34 1 -67 4 -74 8 -6 4 -11 23 -11 43 0 34 1 35 31 29 20 -4
43 1 67 13 37 19 38 19 61 0 24 -19 24 -19 60 7 20 15 42 34 49 42 20 25 14
66 -13 92 -31 29 -33 81 -5 128 20 32 20 32 0 32 -12 0 -25 10 -32 25 -13 28
-12 28 -55 16 -30 -9 -33 -8 -43 24 -9 29 -17 34 -52 40 -39 7 -44 5 -68 -25
-31 -38 -60 -36 -60 4 0 14 -4 36 -10 50 -9 25 -13 26 -87 26 -43 -1 -103 -7
-134 -14 -53 -13 -56 -12 -83 10 -43 38 -59 31 -103 -43z"/>
</g>
</svg>
