<?xml version="1.0" standalone="no"?>
<!DOCTYPE svg PUBLIC "-//W3C//DTD SVG 20010904//EN"
 "http://www.w3.org/TR/2001/REC-SVG-20010904/DTD/svg10.dtd">
<svg version="1.0" xmlns="http://www.w3.org/2000/svg"
 width="1024.000000pt" height="1024.000000pt" viewBox="0 0 1024.000000 1024.000000"
 preserveAspectRatio="xMidYMid meet">
<metadata>
Created by potrace 1.10, written by Peter Selinger 2001-2011
</metadata>
<g transform="translate(0.000000,1024.000000) scale(0.100000,-0.100000)"
fill="#000000" stroke="none">
<path d="M8006 8304 c-9 -8 -16 -20 -16 -25 0 -6 -19 -7 -47 -4 -64 9 -93 -4
-107 -46 -9 -29 -16 -35 -45 -37 -18 -2 -38 1 -44 7 -15 15 -48 13 -71 -4 -11
-8 -30 -15 -42 -15 -13 0 -32 -14 -48 -35 -30 -39 -51 -45 -59 -16 -11 43 -77
60 -168 45 -31 -5 -39 -2 -61 24 -20 24 -34 30 -80 34 -42 3 -64 11 -88 31
-36 31 -49 32 -105 11 -22 -9 -56 -15 -76 -14 -21 0 -41 -6 -49 -15 -7 -8 -20
-15 -29 -15 -23 0 -86 -23 -104 -39 -11 -9 -21 -9 -34 -2 -12 6 -25 6 -34 0
-7 -5 -25 -9 -38 -9 -22 0 -23 -2 -17 -45 5 -31 3 -50 -6 -60 -43 -48 -62 -75
-74 -106 -3 -9 -16 -21 -29 -27 -17 -8 -21 -16 -18 -36 3 -14 0 -33 -7 -40 -6
-8 -11 -23 -10 -33 3 -29 1 -41 -12 -55 -20 -21 -38 -56 -38 -73 0 -8 -8 -19
-18 -24 -10 -5 -33 -32 -52 -60 -19 -28 -40 -51 -47 -51 -7 0 -27 7 -46 16
-33 16 -33 16 -70 -21 -32 -32 -40 -35 -73 -29 -41 8 -57 -6 -47 -43 3 -13 1
-23 -5 -23 -12 0 -86 -71 -87 -83 0 -16 -31 -26 -61 -21 -18 3 -35 1 -38 -5
-4 -6 -22 -18 -41 -27 -19 -9 -35 -20 -35 -25 0 -15 -39 -49 -55 -49 -10 0
-15 8 -14 23 4 42 -1 54 -26 65 -32 15 -65 15 -65 2 0 -6 -6 -10 -12 -8 -7 1
-24 -4 -36 -11 -31 -17 -39 -7 -25 29 11 28 9 32 -25 60 -41 34 -60 37 -76 14
-11 -14 -15 -14 -49 2 -22 10 -40 27 -43 40 -10 39 -97 43 -109 5 -6 -19 -55
-51 -79 -51 -9 0 -16 -8 -16 -19 0 -11 -9 -22 -20 -26 -15 -5 -19 -15 -19 -43
2 -62 -12 -127 -32 -153 -18 -22 -20 -23 -30 -6 -13 23 -34 22 -59 -3 -17 -17
-33 -20 -107 -20 -98 0 -153 -22 -153 -60 0 -19 -2 -20 -27 -7 -45 23 -161 39
-230 31 -44 -4 -68 -3 -78 6 -10 9 -15 9 -15 1 0 -6 -6 -11 -14 -11 -7 0 -20
-7 -27 -16 -9 -11 -23 -14 -46 -11 -18 3 -35 2 -38 -3 -3 -5 -25 -9 -48 -8
-54 3 -107 -18 -107 -43 0 -10 -4 -21 -10 -24 -5 -3 -10 -21 -10 -40 0 -31 -3
-34 -39 -40 -41 -7 -59 -29 -41 -50 14 -17 15 -61 1 -111 -15 -57 -2 -92 42
-118 32 -18 77 -72 77 -93 0 -3 -21 -3 -47 0 -57 6 -103 -13 -127 -54 -9 -16
-24 -29 -33 -29 -9 0 -26 -8 -37 -19 -35 -31 -82 -42 -136 -30 -37 8 -59 7
-96 -4 -46 -13 -51 -13 -76 6 -26 19 -29 19 -46 4 -10 -9 -42 -21 -70 -27 -29
-5 -60 -14 -70 -18 -29 -16 -103 -23 -117 -12 -6 5 -41 12 -76 15 -35 2 -98
11 -139 19 -93 19 -135 20 -160 4 -15 -10 -27 -10 -51 -1 -24 9 -37 9 -53 1
-33 -18 -229 -19 -295 -2 -86 22 -90 24 -96 45 -4 10 -21 27 -38 36 -34 17
-77 58 -77 74 0 10 -11 12 -53 9 -24 -1 -30 5 -50 49 -18 43 -28 53 -58 61
-48 13 -85 44 -93 76 -9 36 -37 72 -114 147 -59 57 -66 61 -103 58 -45 -3 -79
19 -79 51 0 11 -7 18 -20 18 -33 0 -128 -43 -167 -77 -33 -27 -36 -34 -27 -50
8 -13 9 -25 2 -36 -5 -10 -6 -26 -3 -37 8 -24 -33 -120 -51 -120 -21 0 -94
-24 -94 -31 0 -3 11 -16 25 -29 14 -13 25 -30 25 -38 0 -9 8 -24 17 -34 15
-17 15 -20 1 -34 -13 -13 -13 -23 1 -93 9 -43 22 -86 30 -95 12 -14 9 -16 -30
-16 -25 0 -77 -9 -117 -20 -39 -11 -92 -20 -116 -20 -44 0 -44 0 -51 40 -7 39
-7 39 -31 24 -16 -11 -24 -26 -24 -45 l0 -29 -68 0 -68 0 -20 62 c-19 60 -20
62 -73 79 -29 10 -60 24 -67 30 -18 15 -124 5 -135 -13 -5 -7 -9 -24 -9 -37 0
-24 -25 -50 -48 -51 -7 0 -28 -11 -46 -25 -18 -14 -36 -22 -39 -18 -9 9 -47
-32 -47 -50 0 -8 19 -20 43 -27 23 -8 47 -18 54 -23 7 -5 16 -6 21 -3 6 3 36
-12 68 -34 52 -35 60 -38 74 -25 9 8 28 15 42 15 20 0 28 -7 38 -32 6 -18 15
-40 20 -49 4 -8 4 -23 -2 -32 -11 -20 -3 -37 17 -37 12 0 25 -24 31 -59 3 -17
-25 -47 -54 -56 -19 -6 -22 -11 -16 -40 7 -38 -18 -95 -42 -95 -8 0 -17 -7
-20 -15 -4 -8 -13 -15 -21 -15 -7 0 -25 -12 -38 -26 -17 -18 -30 -24 -45 -19
-11 4 -34 0 -52 -9 -30 -15 -32 -15 -51 4 -10 12 -26 20 -35 18 -14 -3 -16
-14 -14 -54 2 -36 -1 -54 -12 -64 -22 -18 -20 -31 9 -55 32 -25 46 -95 29
-145 -6 -19 -16 -35 -20 -35 -20 -1 -32 -17 -38 -55 -4 -27 -11 -40 -22 -40
-27 0 -14 -54 14 -58 29 -4 48 -48 31 -69 -20 -24 3 -38 42 -24 43 15 46 14
52 -11 5 -16 -4 -30 -33 -57 -21 -20 -42 -48 -45 -62 -6 -24 -3 -28 29 -39 47
-15 46 -37 -1 -46 -45 -8 -73 -21 -73 -34 0 -6 9 -10 20 -10 11 0 20 -6 20
-14 0 -8 9 -18 20 -21 23 -7 25 -18 7 -33 -8 -7 -18 -7 -27 -2 -8 6 -30 7 -47
4 -23 -4 -33 -2 -33 6 0 9 -10 10 -34 6 -21 -4 -37 -2 -41 4 -4 6 -14 8 -24 4
-23 -10 -81 -11 -81 -2 0 4 -4 8 -10 8 -5 0 -10 -6 -10 -14 0 -7 -7 -19 -15
-26 -8 -7 -15 -19 -15 -27 0 -27 -58 -75 -87 -71 -23 3 -28 -2 -40 -39 -8 -24
-19 -43 -25 -43 -6 0 -28 -18 -49 -39 -32 -34 -36 -41 -23 -52 12 -10 34 -10
108 0 109 15 140 10 183 -29 30 -27 32 -33 26 -75 -4 -35 -10 -45 -24 -45 -20
0 -27 -34 -10 -44 4 -3 6 -17 3 -31 -2 -15 2 -33 11 -43 9 -9 20 -30 26 -46 7
-18 16 -26 26 -23 9 4 15 -2 17 -20 2 -21 11 -29 36 -35 43 -12 43 -55 0 -71
-32 -12 -19 -44 42 -103 33 -33 65 -72 71 -87 7 -16 22 -33 35 -37 19 -8 23
-19 29 -75 7 -63 10 -68 39 -81 17 -8 38 -18 46 -23 8 -5 22 -12 30 -16 77
-32 105 -60 156 -162 3 -7 15 -13 25 -13 10 0 19 -6 19 -13 0 -17 55 -40 78
-33 11 4 24 0 32 -9 7 -8 20 -15 29 -15 38 0 65 -47 72 -126 5 -51 13 -82 26
-96 21 -24 100 -78 114 -78 5 0 9 -9 9 -20 0 -13 7 -20 18 -20 10 0 33 -11 52
-25 19 -14 38 -25 42 -25 5 0 32 -16 61 -35 28 -19 57 -35 64 -35 24 0 74 -64
68 -87 -8 -32 4 -53 31 -53 24 0 29 -11 26 -52 -1 -10 4 -15 11 -12 8 3 19 -6
25 -21 7 -14 19 -28 27 -31 8 -4 15 -17 15 -30 0 -14 7 -27 15 -31 13 -5 13
-8 -5 -20 -17 -12 -19 -18 -9 -29 6 -8 20 -14 30 -14 11 0 19 -7 19 -17 1 -30
37 -65 60 -58 22 7 28 -13 9 -32 -7 -7 -9 -19 -5 -28 4 -12 13 -15 35 -10 20
4 30 2 34 -8 3 -8 21 -14 41 -15 30 -1 36 2 36 18 0 21 33 29 44 11 5 -8 27
-13 129 -26 20 -3 53 -15 72 -27 32 -22 75 -89 75 -119 0 -29 39 -79 62 -79
51 0 99 -13 108 -30 9 -16 44 -29 97 -33 14 -1 24 -11 28 -25 3 -12 10 -22 15
-22 6 0 10 -6 10 -14 0 -26 23 -30 40 -8 14 17 31 21 106 25 81 4 92 2 115
-18 15 -12 48 -25 75 -29 40 -5 51 -3 69 14 24 22 65 26 83 8 9 -9 15 -9 24 0
20 20 44 14 88 -23 23 -19 45 -35 48 -35 4 0 35 -2 70 -4 46 -3 62 -1 62 9 0
19 28 26 50 12 11 -6 20 -19 20 -28 0 -19 20 -29 56 -29 19 0 26 6 31 30 4 21
11 30 25 30 13 0 24 11 31 29 9 25 13 27 29 18 14 -9 22 -9 36 0 9 7 32 19 50
27 17 8 32 19 32 23 0 4 13 22 28 38 15 17 34 45 41 63 9 20 20 32 33 32 11 0
16 4 12 11 -3 6 2 28 12 50 21 43 52 51 88 24 11 -8 28 -15 38 -15 10 0 18 -4
18 -10 0 -11 53 -40 74 -40 9 0 16 12 18 33 3 28 6 32 35 33 18 0 46 12 68 28
29 23 43 27 68 21 18 -3 54 -9 81 -12 l49 -5 -6 30 c-9 44 31 76 84 67 l37 -6
-9 46 c-8 41 -6 50 18 86 21 32 32 39 52 37 22 -3 27 -10 34 -49 8 -45 10 -47
48 -53 22 -4 48 -2 57 3 10 5 45 6 80 2 55 -6 62 -5 56 8 -3 9 -8 21 -10 26
-2 6 23 27 56 49 48 31 63 36 75 26 8 -7 24 -9 37 -5 28 9 108 84 108 102 0 7
18 22 40 33 45 23 59 45 41 63 -16 16 -14 37 4 37 8 0 30 17 50 37 27 28 38
34 47 25 18 -18 69 -15 90 5 11 10 32 16 49 15 31 -3 95 -38 118 -66 7 -9 21
-16 31 -16 10 0 23 -7 30 -15 17 -21 47 -19 80 5 15 11 36 21 46 23 27 4 78
33 93 51 14 16 67 21 107 10 12 -3 27 -20 35 -37 17 -38 57 -50 65 -20 3 11
14 25 25 31 17 11 24 9 50 -13 32 -27 59 -31 89 -15 25 13 50 3 50 -21 0 -11
7 -19 18 -19 9 0 30 -7 46 -15 32 -17 34 -16 50 17 6 13 26 28 43 33 17 6 40
18 51 28 17 15 21 16 31 3 7 -8 18 -13 26 -10 7 3 29 -2 50 -10 21 -9 50 -16
64 -16 33 0 71 37 71 68 0 19 6 22 38 22 30 0 45 -7 72 -35 19 -19 38 -35 43
-35 4 0 22 -13 40 -30 l31 -29 12 29 c11 26 16 28 46 24 30 -5 35 -2 57 37 13
24 24 56 23 71 -1 24 3 28 25 28 25 0 25 2 19 46 -6 49 14 107 37 102 7 -1 21
3 32 9 29 16 105 27 105 15 0 -5 17 -17 37 -25 34 -13 39 -13 50 2 11 14 14
14 28 -6 17 -24 67 -31 95 -13 10 6 21 4 35 -9 31 -28 63 -33 75 -10 6 10 17
19 25 19 9 0 16 16 21 45 3 25 11 46 18 47 6 0 29 2 51 2 39 1 40 2 37 34 -2
21 4 41 17 58 14 18 18 34 14 58 -3 20 1 45 11 64 15 30 20 32 69 32 l52 0 25
51 c22 47 22 52 7 61 -9 5 -17 17 -17 28 0 12 -8 20 -22 22 -21 3 -23 8 -21
64 1 49 7 71 31 109 25 40 28 52 19 67 -10 15 -8 26 8 55 22 40 65 59 96 43
26 -15 59 -12 59 4 0 8 15 26 33 40 l32 26 -22 15 c-25 17 -31 51 -10 53 6 1
30 3 51 4 32 2 43 9 57 33 25 43 23 70 -6 89 -27 18 -34 60 -11 69 15 6 32 77
28 113 -2 16 10 27 52 47 34 17 57 35 62 49 4 13 11 26 17 30 7 4 4 16 -7 33
-20 31 -14 75 10 75 8 0 31 16 51 36 32 33 37 43 40 95 2 50 0 60 -17 69 -28
15 -25 33 10 58 18 14 31 35 36 57 7 41 40 71 95 85 34 9 39 15 44 48 10 61
24 86 60 115 26 21 35 36 35 57 0 17 -5 30 -11 30 -18 0 -2 60 27 102 21 30
24 41 15 52 -10 11 -6 25 16 68 16 29 36 72 45 94 14 35 22 43 53 48 19 4 39
4 44 1 29 -17 75 111 51 140 -7 8 -9 15 -5 15 3 0 -3 15 -14 34 -16 26 -20 44
-16 82 6 61 22 78 78 83 4 1 5 12 1 26 -5 20 -2 25 18 30 12 4 35 24 50 46 22
30 34 39 58 39 33 0 45 16 55 75 4 22 13 49 20 61 8 12 15 36 17 55 2 26 8 34
28 39 21 5 25 12 28 47 2 28 7 40 15 37 7 -2 30 11 51 31 31 28 42 33 57 24
10 -5 34 -9 51 -8 18 0 42 -2 53 -6 21 -6 23 -2 25 53 3 64 11 81 40 87 25 5
40 0 82 -30 51 -37 53 -37 120 -31 73 7 138 32 138 53 0 7 4 13 9 13 5 0 12
18 16 40 7 39 12 44 48 40 24 -2 57 28 57 52 0 10 -4 18 -8 18 -5 0 -9 14 -9
30 0 24 5 30 22 30 12 0 30 9 40 20 10 11 28 20 40 20 16 0 28 14 50 60 31 65
27 82 -22 101 -27 10 -43 41 -25 47 48 16 55 81 17 142 -14 22 -29 40 -34 40
-4 0 -12 14 -17 32 -8 25 -17 34 -41 39 -18 3 -36 2 -43 -5 -6 -6 -26 -9 -46
-7 -25 2 -44 -4 -69 -23 -31 -24 -37 -25 -85 -16 -67 13 -70 15 -70 56 0 36
-13 68 -37 92 -7 7 -13 26 -13 41 0 21 -8 32 -39 50 -26 14 -44 33 -52 55
l-12 34 -74 -2 c-49 -2 -77 -7 -83 -15 -4 -8 -13 -12 -20 -9 -14 4 -70 103
-70 122 0 8 -7 19 -14 26 -8 6 -16 30 -18 53 -3 40 -5 42 -45 51 -33 8 -45 16
-54 38 -9 22 -9 32 0 41 19 19 13 47 -10 47 -11 0 -29 4 -39 10 -22 12 -110
-23 -110 -44 0 -28 -39 -48 -100 -51 -35 -2 -60 1 -60 7 0 17 -136 -15 -161
-38 -8 -8 -18 -12 -21 -9 -3 3 -21 -1 -40 -9 -19 -8 -44 -13 -56 -10 -17 5
-21 1 -24 -23 -3 -25 -6 -28 -38 -26 -80 5 -141 26 -155 52 -7 14 -25 37 -39
50 -14 14 -26 34 -26 46 0 11 -15 43 -32 71 -18 27 -40 72 -49 99 l-15 50 -48
-3 c-52 -3 -86 16 -86 49 0 28 -11 49 -26 49 -7 0 -29 14 -47 30 -40 35 -41
35 -61 14z"/>
</g>
</svg>
