<?xml version="1.0" standalone="no"?>
<!DOCTYPE svg PUBLIC "-//W3C//DTD SVG 20010904//EN"
 "http://www.w3.org/TR/2001/REC-SVG-20010904/DTD/svg10.dtd">
<svg version="1.0" xmlns="http://www.w3.org/2000/svg"
 width="1024.000000pt" height="1024.000000pt" viewBox="0 0 1024.000000 1024.000000"
 preserveAspectRatio="xMidYMid meet">
<metadata>
Created by potrace 1.10, written by Peter Selinger 2001-2011
</metadata>
<g transform="translate(0.000000,1024.000000) scale(0.100000,-0.100000)"
fill="#000000" stroke="none">
<path d="M890 7274 c-19 -8 -55 -19 -80 -25 -25 -5 -74 -28 -110 -49 -36 -22
-93 -48 -127 -58 -33 -11 -74 -28 -90 -39 -15 -11 -43 -24 -62 -28 -19 -4 -57
-25 -84 -46 -27 -22 -61 -42 -75 -45 -100 -24 -140 -70 -207 -237 -66 -164
-70 -202 -22 -234 71 -49 99 -54 236 -47 115 6 136 5 202 -15 41 -12 93 -36
116 -52 23 -16 61 -36 83 -44 69 -24 171 -110 244 -205 42 -54 91 -179 129
-332 8 -32 28 -79 45 -106 41 -68 57 -209 42 -387 -5 -70 -12 -130 -14 -133
-15 -26 -49 -241 -56 -357 -5 -77 -15 -166 -22 -199 -15 -64 -5 -208 15 -215
16 -6 51 -46 64 -73 6 -12 16 -63 22 -111 7 -49 14 -102 18 -118 4 -22 2 -29
-10 -29 -9 0 -21 -9 -27 -19 -13 -25 -13 -61 0 -61 23 0 7 -21 -46 -62 -63
-49 -140 -164 -200 -296 l-37 -83 13 -67 c7 -37 19 -81 26 -98 9 -22 12 -58 8
-115 l-6 -84 36 -37 c26 -28 43 -38 66 -38 18 0 43 -9 57 -20 14 -11 38 -20
53 -20 15 0 36 -10 50 -25 31 -33 71 -32 123 3 63 43 203 117 282 150 39 15
102 49 142 75 44 28 105 56 160 73 48 14 136 51 195 82 l107 55 120 1 c140 1
147 -3 158 -79 5 -39 39 -113 69 -154 2 -2 26 6 53 18 69 29 140 28 187 -4 43
-29 78 -31 151 -8 42 13 60 15 86 6 17 -6 102 -11 187 -12 145 -1 161 -3 244
-31 80 -27 95 -36 166 -104 43 -40 87 -77 98 -80 14 -5 35 2 61 19 32 19 54
25 100 25 55 0 60 -2 85 -35 15 -20 55 -50 89 -68 56 -29 70 -32 142 -31 44 1
112 9 151 17 56 13 79 14 107 5 30 -9 40 -9 54 4 12 11 50 18 117 23 87 7 112
13 200 52 55 25 118 59 141 76 22 16 150 141 285 277 226 228 251 250 325 287
44 22 102 48 128 58 26 10 53 26 60 35 7 9 41 38 76 63 56 42 69 47 115 47 28
0 61 6 72 14 11 8 88 37 172 65 l153 51 136 0 c133 0 137 -1 172 -27 48 -37
115 -44 211 -23 41 9 94 27 117 38 23 12 50 22 61 22 10 0 42 16 72 35 30 19
62 35 70 35 9 0 25 6 36 14 11 8 49 26 84 42 59 24 80 27 215 32 83 2 155 8
161 13 6 5 40 6 75 3 61 -7 68 -10 158 -83 210 -171 224 -177 293 -141 32 17
46 19 67 11 14 -5 69 -11 122 -13 85 -3 102 -7 138 -31 39 -26 45 -27 99 -18
135 23 261 33 322 26 36 -4 127 -6 203 -5 133 1 143 3 255 41 64 22 171 66
237 98 66 33 137 64 157 71 27 8 52 30 94 83 32 40 95 110 140 157 70 73 82
91 88 130 4 24 19 65 35 90 55 90 106 270 117 410 8 101 -12 415 -31 475 -16
53 -100 174 -130 185 -12 4 -35 25 -51 46 -16 20 -55 63 -86 94 -69 69 -67 69
-308 60 -129 -6 -204 -4 -285 7 -60 8 -180 19 -265 24 -85 5 -186 12 -223 15
-53 5 -73 2 -93 -11 -64 -41 -100 -46 -350 -46 -178 1 -252 -3 -280 -13 -22
-7 -68 -16 -103 -20 -36 -4 -93 -20 -129 -37 -169 -76 -414 -121 -672 -123
-194 -1 -274 16 -603 126 l-178 59 -147 -7 c-98 -4 -154 -11 -169 -20 -12 -8
-55 -25 -95 -38 -40 -14 -106 -36 -146 -50 -85 -29 -131 -25 -274 23 -83 28
-282 131 -344 178 -17 12 -38 23 -46 23 -21 0 -199 141 -330 262 -62 57 -160
141 -218 187 -58 46 -110 90 -115 96 -13 16 -145 -190 -145 -226 0 -30 15 -55
24 -41 3 6 14 8 25 5 15 -4 19 3 24 46 3 27 14 65 24 83 l18 33 3 -62 c2 -47
-3 -75 -19 -113 -12 -27 -26 -50 -31 -50 -5 0 -27 9 -50 21 -59 30 -71 9 -14
-25 30 -17 46 -34 46 -46 0 -11 -4 -20 -10 -20 -5 0 -18 -19 -28 -42 -31 -70
-39 -73 -183 -72 -103 1 -126 -1 -122 -12 5 -15 92 -44 130 -44 13 0 23 -3 23
-7 0 -5 4 -14 9 -22 8 -12 15 -9 41 12 38 32 66 35 73 7 9 -33 25 -23 38 23 6
23 15 49 19 57 5 8 24 46 41 83 23 47 37 66 46 62 8 -3 19 -5 24 -5 5 0 18
-20 29 -45 21 -50 41 -57 58 -21 6 14 22 26 40 29 26 5 36 0 76 -40 51 -50 56
-73 25 -104 -23 -23 -43 -21 -47 7 -6 42 -114 86 -128 51 -2 -7 2 -30 11 -50
9 -23 15 -68 15 -123 l0 -87 -42 -47 c-63 -70 -100 -124 -89 -128 6 -2 35 2
65 8 53 11 77 28 89 63 9 26 26 21 32 -10 20 -91 41 -138 63 -141 19 -3 22 1
22 31 0 21 7 41 20 52 11 10 20 28 20 40 0 24 25 41 35 25 4 -6 19 -10 34 -10
16 0 37 -10 51 -25 l23 -25 -26 -47 c-14 -27 -33 -47 -41 -47 -22 2 -31 -62
-12 -90 20 -31 25 -218 7 -240 -20 -24 -6 -66 23 -66 25 0 40 -29 29 -56 -12
-33 -69 -4 -89 46 -9 22 -18 40 -21 40 -23 0 -61 -34 -66 -59 -9 -45 -74 -105
-142 -132 -47 -19 -81 -24 -155 -25 -52 -1 -103 -2 -112 -3 -10 -1 -35 -17
-57 -36 -44 -40 -50 -41 -93 -19 -22 11 -33 13 -41 5 -6 -6 -39 -11 -73 -11
-58 0 -64 2 -83 29 -12 16 -21 33 -21 39 0 18 -26 31 -83 40 -61 10 -70 6 -80
-36 -4 -15 1 -25 14 -32 18 -10 28 -60 11 -60 -4 0 -16 -45 -26 -100 -13 -75
-24 -108 -43 -130 -20 -24 -23 -36 -18 -61 8 -35 -4 -49 -42 -49 -19 0 -23 -6
-23 -30 0 -60 52 -124 78 -98 7 7 12 18 12 26 0 7 10 36 21 63 20 47 23 49 60
49 26 0 46 -7 59 -20 25 -25 25 -32 0 -48 -14 -9 -20 -23 -20 -50 0 -29 -9
-50 -36 -84 -39 -51 -61 -60 -116 -52 -31 5 -42 1 -76 -25 -21 -18 -56 -36
-77 -42 -36 -10 -39 -9 -79 29 -51 51 -83 48 -120 -8 -29 -44 -203 -171 -275
-201 -29 -12 -54 -32 -65 -50 -20 -34 -52 -38 -87 -11 -37 28 -90 47 -134 48
-22 0 -91 1 -153 2 l-113 2 -20 35 c-12 19 -27 35 -35 35 -7 0 -28 -27 -46
-59 -27 -48 -40 -62 -70 -72 l-38 -12 0 -94 c0 -55 -4 -93 -10 -93 -6 0 -10
37 -10 90 0 103 -7 109 -73 65 l-37 -26 0 28 c0 52 -41 126 -98 173 -29 25
-81 71 -116 103 -34 31 -72 57 -83 57 -68 0 -114 48 -74 77 16 10 20 21 15 36
-13 40 -98 169 -125 188 -33 23 -59 25 -59 3 0 -10 6 -14 14 -11 8 3 18 -5 25
-19 17 -39 13 -50 -9 -26 -12 12 -31 22 -44 22 -13 0 -31 9 -41 20 -10 11 -28
21 -39 21 -19 1 -19 2 -2 6 10 3 29 -1 42 -8 13 -7 26 -10 29 -7 8 8 -35 58
-51 58 -26 0 -16 48 12 63 47 25 65 133 29 177 -7 8 -15 23 -18 33 -8 21 -36
22 -51 1 -8 -11 -20 -13 -39 -9 -25 7 -27 11 -27 54 0 41 5 51 39 85 39 38 40
40 25 68 -19 36 -15 63 10 63 14 0 23 13 33 47 19 67 33 69 26 3 -5 -48 -4
-55 10 -49 9 3 21 22 28 42 6 19 20 50 31 68 12 21 15 35 9 39 -7 4 -5 15 5
30 26 40 12 55 -51 55 -32 0 -55 4 -55 11 0 6 8 8 19 4 13 -4 24 1 34 15 12
18 16 19 27 5 7 -8 20 -15 30 -15 14 0 18 11 22 63 3 35 0 69 -6 79 -8 13 -7
21 2 30 17 17 15 63 -4 79 -35 29 -204 299 -223 357 -15 46 -91 177 -128 221
-1 3 -13 -5 -26 -16 -32 -29 -61 -43 -94 -43 -15 -1 -50 -7 -78 -14 -41 -11
-50 -17 -48 -35 2 -15 -4 -22 -23 -27 -34 -9 -40 0 -20 31 21 32 48 43 131 51
64 7 67 8 96 50 34 50 36 70 9 99 -32 34 -154 246 -167 290 -12 41 -8 105 9
138 7 14 4 17 -22 17 -16 0 -30 5 -30 11 0 6 7 9 15 5 21 -7 45 3 45 20 0 8
-17 17 -42 21 l-43 8 40 5 c27 3 41 10 43 23 3 14 -4 17 -32 17 -20 0 -36 4
-36 9 0 5 20 6 45 3 45 -5 55 3 33 27 -8 7 3 5 24 -5 48 -22 57 -44 19 -44
-23 0 -30 -5 -34 -26 -5 -26 -4 -26 37 -21 156 22 164 21 315 -23 79 -22 155
-40 170 -38 40 5 39 42 -6 115 -64 104 -92 127 -234 199 -73 36 -165 88 -206
116 -40 27 -97 56 -126 64 -71 19 -251 18 -297 -2z m298 -294 c13 -16 20 -30
18 -30 -21 0 -106 23 -106 29 0 14 24 31 45 31 12 0 31 -13 43 -30z"/>
<path d="M4066 5275 c-13 -14 -27 -25 -32 -25 -4 0 -18 -10 -31 -22 -23 -22
-24 -22 -57 -4 -25 13 -44 16 -80 11 -25 -4 -49 -11 -52 -17 -3 -5 6 -24 20
-43 l27 -35 -21 -39 c-31 -62 -28 -66 40 -66 33 1 60 -3 60 -7 0 -17 56 -7 83
15 23 18 29 32 34 82 4 39 16 78 35 111 25 44 26 52 13 58 -10 3 -25 -4 -39
-19z"/>
</g>
</svg>
