<?xml version="1.0" standalone="no"?>
<!DOCTYPE svg PUBLIC "-//W3C//DTD SVG 20010904//EN"
 "http://www.w3.org/TR/2001/REC-SVG-20010904/DTD/svg10.dtd">
<svg version="1.0" xmlns="http://www.w3.org/2000/svg"
 width="1024.000000pt" height="1024.000000pt" viewBox="0 0 1024.000000 1024.000000"
 preserveAspectRatio="xMidYMid meet">
<metadata>
Created by potrace 1.10, written by Peter Selinger 2001-2011
</metadata>
<g transform="translate(0.000000,1024.000000) scale(0.100000,-0.100000)"
fill="#000000" stroke="none">
<path d="M944 7999 c-19 -22 -21 -52 -8 -79 11 -23 8 -29 -26 -67 -28 -32 -40
-39 -49 -30 -8 8 -14 8 -25 -3 -30 -33 -49 -151 -26 -165 5 -3 7 -12 4 -19 -3
-8 2 -29 12 -48 10 -18 21 -53 25 -78 6 -37 4 -49 -13 -67 -16 -17 -19 -31
-15 -65 9 -80 27 -113 76 -139 l46 -24 -2 -52 c-1 -31 -12 -72 -26 -100 -20
-40 -22 -55 -14 -88 23 -106 22 -117 -27 -203 -25 -45 -46 -85 -46 -91 0 -5
-6 -11 -14 -14 -8 -3 -16 -30 -20 -70 -9 -89 -39 -170 -81 -219 -38 -45 -42
-63 -20 -92 17 -23 20 -72 5 -81 -5 -3 -10 -13 -10 -22 0 -28 -57 -138 -79
-151 -15 -8 -21 -22 -21 -46 0 -19 -4 -37 -9 -41 -5 -3 -21 -27 -36 -53 -25
-44 -26 -53 -20 -124 6 -69 5 -80 -14 -104 -24 -31 -27 -66 -6 -84 17 -14 12
-46 -21 -144 -28 -80 -67 -136 -95 -136 -11 0 -23 -10 -28 -22 -18 -45 -68
-98 -144 -152 -125 -90 -153 -133 -100 -156 51 -21 73 -34 79 -50 4 -8 10 -85
13 -171 5 -135 9 -160 25 -178 16 -18 17 -25 8 -47 -7 -13 -12 -48 -12 -77 1
-48 2 -50 15 -33 8 11 17 36 21 55 3 20 9 48 14 63 7 21 4 30 -16 49 -31 29
-30 44 6 98 33 49 37 66 16 78 -20 12 -46 68 -46 100 0 16 -8 45 -19 65 -19
38 -18 88 2 88 6 0 18 6 26 14 9 7 29 16 45 20 l29 7 -7 -54 c-9 -80 1 -117
30 -117 21 0 24 -5 24 -36 0 -31 3 -35 20 -29 11 3 20 2 20 -3 0 -12 -27 -80
-41 -106 -50 -87 -89 -235 -55 -207 8 6 16 24 19 39 6 33 28 90 61 162 l26 55
-7 -55 c-3 -30 -9 -62 -13 -70 -4 -8 -4 -26 -1 -39 6 -21 8 -20 29 21 15 32
22 63 22 106 0 44 4 61 15 66 13 5 15 -2 9 -43 l-6 -49 43 9 c53 12 79 34 79
66 0 22 3 24 30 18 27 -6 30 -4 30 20 0 20 4 26 18 23 24 -5 26 -40 6 -103
-19 -61 -14 -117 12 -146 23 -26 14 -138 -17 -201 -14 -29 -19 -53 -15 -64 6
-15 17 0 49 66 38 79 42 92 45 184 3 81 7 99 21 103 13 3 15 14 12 50 -2 35 0
44 10 41 8 -3 15 -13 17 -24 2 -10 11 -39 21 -64 11 -25 27 -66 36 -92 l16
-46 34 21 c30 19 34 27 35 64 0 23 5 54 12 68 14 32 4 43 -20 22 -27 -25 -32
-21 -32 23 0 45 1 46 35 24 27 -17 45 -12 45 14 0 9 4 23 9 31 7 11 15 10 41
-9 23 -16 35 -19 43 -11 12 12 -14 47 -44 56 -11 4 -19 11 -19 17 0 6 -13 25
-29 43 -42 48 -51 122 -21 170 15 25 21 47 18 76 -2 32 1 44 16 53 14 9 20 8
24 -3 3 -8 16 -25 28 -38 18 -18 24 -35 24 -66 0 -24 -5 -48 -11 -54 -11 -11
11 -94 31 -118 5 -6 12 -31 15 -55 4 -25 10 -56 15 -70 14 -41 20 -120 10
-120 -5 0 -14 18 -20 41 -10 35 -14 40 -34 35 -13 -3 -32 1 -44 10 -48 33 -58
-17 -12 -61 34 -33 48 -71 60 -165 5 -36 14 -84 21 -107 25 -82 -39 -266 -192
-555 -23 -45 -26 -55 -18 -83 5 -16 7 -70 6 -120 -2 -84 -4 -90 -24 -93 -13
-2 -26 -15 -34 -34 l-13 -31 -9 27 c-10 30 -43 33 -41 3 0 -9 1 -49 2 -88 l2
-71 25 16 c24 16 25 15 25 -2 0 -10 -11 -29 -25 -42 -14 -13 -25 -32 -25 -42
0 -29 -67 -127 -93 -137 -13 -5 -32 -22 -42 -38 -23 -36 -66 -83 -77 -83 -14
0 -9 57 7 70 8 7 15 21 15 31 0 10 9 24 20 31 27 17 27 58 0 58 -10 0 -24 -8
-30 -17 -8 -13 -13 -14 -16 -6 -8 19 -84 5 -111 -19 -24 -22 -49 -75 -40 -85
4 -3 15 0 24 7 10 7 -4 -8 -30 -33 -40 -40 -77 -60 -77 -42 0 12 24 55 32 55
4 0 16 15 25 34 10 18 29 53 42 77 17 30 19 40 7 30 -21 -18 -20 -12 8 54 14
30 22 55 17 55 -26 0 -81 -86 -81 -128 0 -28 -23 -69 -75 -140 -46 -61 -61
-67 -89 -37 -13 14 -28 25 -35 25 -13 0 -14 12 -2 63 12 53 -2 46 -38 -17
l-31 -55 -57 -3 -58 -3 0 -35 0 -35 70 -8 c80 -9 107 -26 87 -57 -14 -22 -11
-26 65 -90 36 -31 43 -43 48 -86 7 -49 6 -52 -26 -77 l-34 -27 26 0 c14 0 34
9 43 19 10 10 33 22 51 25 59 11 104 41 188 122 19 18 48 34 70 38 20 4 45 15
55 25 9 10 34 21 55 25 21 4 47 16 58 27 10 10 28 19 39 19 12 0 32 7 45 16
13 8 41 15 62 14 62 -3 69 -1 107 29 26 20 52 31 93 36 32 4 73 13 91 21 18 7
57 16 85 20 29 4 57 10 62 14 6 4 44 12 85 19 41 7 89 17 105 23 24 8 42 6 90
-12 33 -12 74 -25 92 -27 44 -7 99 27 106 66 3 16 9 40 13 55 5 22 3 25 -10
20 -10 -4 -26 1 -39 13 -12 11 -30 23 -39 26 -10 4 -18 16 -18 27 0 11 -6 20
-14 20 -8 0 -29 13 -47 30 -18 16 -48 37 -66 45 -18 9 -33 20 -33 25 0 6 -6
10 -14 10 -7 0 -16 9 -19 19 -3 12 -15 21 -33 23 -23 2 -30 9 -32 30 -3 21
-10 29 -30 33 -15 3 -50 17 -77 30 -70 35 -165 35 -210 1 -27 -21 -116 -46
-162 -46 -22 0 -15 35 12 60 28 27 31 44 11 90 -16 39 -4 106 24 130 10 8 23
26 30 39 12 23 11 23 -14 17 -25 -6 -26 -5 -26 39 0 47 25 85 55 85 8 0 15 9
15 20 0 25 8 25 39 1 20 -15 22 -21 12 -39 -6 -11 -11 -41 -11 -66 0 -39 3
-46 19 -46 30 0 51 -11 51 -26 0 -8 4 -14 10 -14 16 0 44 -63 41 -92 -2 -18 4
-30 18 -38 17 -9 21 -8 21 5 0 8 4 15 8 15 5 0 15 18 22 39 14 43 16 38 -82
156 -31 36 -36 66 -13 85 8 7 15 18 15 25 0 15 -43 35 -76 35 -17 0 -28 7 -31
20 -3 13 -14 20 -29 20 -28 0 -29 5 -8 56 20 47 29 54 76 54 32 0 39 -4 44
-25 10 -39 31 -51 54 -30 21 19 26 50 10 60 -16 10 -12 40 10 68 27 34 27 51
-1 37 -31 -17 -38 -2 -9 20 21 16 23 22 14 38 -8 12 -9 33 -3 63 4 24 8 47 9
52 0 4 9 7 21 7 14 0 25 -11 35 -36 15 -36 15 -37 -12 -65 -30 -31 -25 -51 6
-31 26 16 30 15 30 -8 0 -11 9 -25 19 -32 18 -11 18 -13 3 -25 -15 -11 -15
-14 -2 -23 34 -22 41 2 26 88 -7 38 -6 42 13 42 11 0 23 -4 26 -10 9 -15 41
-12 55 5 17 21 30 19 30 -5 0 -27 29 -38 45 -17 13 18 35 21 71 11 16 -4 20
-11 16 -27 -5 -20 -4 -21 12 -7 16 13 21 11 45 -18 14 -18 34 -32 44 -32 13 0
17 -8 17 -32 0 -56 13 -65 50 -35 41 35 65 34 87 -3 9 -16 23 -30 30 -30 7 0
23 -11 35 -25 17 -20 31 -25 69 -25 39 0 47 -3 43 -15 -4 -8 -16 -15 -29 -15
-46 0 -85 -13 -85 -28 0 -11 9 -14 45 -10 38 5 45 3 51 -14 5 -18 12 -19 77
-13 132 12 258 6 373 -19 95 -20 113 -21 129 -10 19 14 100 19 129 8 9 -3 16
-17 16 -31 0 -13 11 -39 25 -57 28 -37 32 -86 15 -177 l-10 -54 37 -32 c31
-26 47 -32 84 -33 29 0 51 -6 59 -15 7 -8 22 -15 34 -15 13 0 28 -12 38 -30
10 -17 25 -30 36 -30 22 0 147 -88 166 -116 20 -29 26 -67 18 -99 l-8 -29 -41
54 c-109 146 -206 207 -124 78 16 -25 34 -49 40 -52 6 -4 11 -16 11 -26 0 -11
9 -24 20 -30 11 -6 20 -20 20 -31 0 -12 8 -23 20 -26 11 -3 20 -14 20 -24 0
-10 6 -22 14 -26 7 -4 37 -37 67 -72 45 -54 51 -66 41 -82 -7 -10 -12 -30 -12
-43 0 -19 -8 -27 -35 -36 -24 -8 -35 -18 -35 -31 0 -10 7 -19 15 -19 22 0 18
-20 -10 -46 -16 -14 -25 -34 -25 -52 0 -16 -9 -41 -20 -55 -14 -18 -20 -40
-20 -78 0 -33 -6 -59 -15 -69 -19 -21 -23 -110 -8 -167 10 -40 9 -43 -8 -43
-11 0 -23 8 -26 18 -12 32 -53 62 -86 62 -39 0 -107 62 -107 98 0 26 -20 36
-67 36 -18 0 -33 5 -33 11 0 7 -11 17 -25 23 -14 6 -25 19 -25 28 0 20 -84
104 -104 104 -9 0 -16 5 -16 10 0 16 -81 100 -91 94 -5 -2 -6 -19 -2 -36 5
-28 4 -29 -14 -20 -29 16 -109 94 -116 114 -3 10 -19 20 -34 24 -15 4 -37 15
-48 24 -11 10 -33 25 -50 33 -16 8 -46 31 -64 51 -19 20 -40 36 -46 36 -6 0
-19 13 -28 30 -10 17 -23 30 -29 30 -5 0 -30 18 -55 40 -25 22 -51 40 -58 40
-7 0 -19 18 -28 40 -11 29 -21 40 -36 40 -11 0 -25 8 -30 18 -6 11 -32 43 -60
72 -47 51 -51 54 -94 51 l-44 -2 -12 45 c-6 25 -17 46 -24 46 -28 0 -97 96
-97 134 0 8 11 27 24 43 25 31 24 53 -3 53 -22 0 -51 31 -51 53 0 9 -4 19 -10
22 -5 3 -17 23 -27 43 -16 32 -18 34 -21 15 -5 -32 -48 -63 -80 -57 -36 6 -78
-32 -84 -76 -4 -26 3 -45 34 -91 21 -32 38 -65 38 -73 0 -8 6 -19 13 -23 8 -4
27 -32 42 -61 36 -67 139 -147 173 -135 7 3 29 -5 50 -17 20 -13 53 -23 73
-23 30 0 41 -7 75 -48 24 -30 47 -48 61 -49 12 0 24 -8 27 -18 3 -9 31 -37 61
-61 30 -24 55 -50 55 -57 0 -8 7 -14 15 -14 7 0 18 -6 22 -13 4 -8 15 -16 24
-19 9 -4 22 -28 29 -55 16 -60 26 -73 56 -73 13 0 29 -9 36 -20 7 -11 23 -20
35 -20 14 0 23 -6 23 -15 0 -8 5 -15 10 -15 6 0 10 -7 10 -15 0 -8 9 -15 20
-15 14 0 20 -7 20 -21 0 -12 8 -23 20 -26 25 -7 26 -33 2 -33 -22 0 -48 19
-54 40 -3 10 -16 14 -45 12 -29 -3 -42 1 -46 12 -3 8 -22 22 -40 30 -19 8 -43
28 -53 45 -10 18 -29 34 -41 37 -13 4 -23 12 -23 20 0 17 -79 54 -114 54 -33
0 -34 -24 -2 -45 13 -9 26 -25 29 -35 3 -12 14 -20 26 -20 11 0 26 -9 33 -20
7 -11 18 -20 25 -20 7 0 13 -11 13 -24 0 -19 6 -25 27 -28 20 -2 29 -11 38
-38 9 -25 20 -37 41 -43 16 -5 43 -13 59 -19 17 -6 89 -14 162 -17 121 -6 134
-8 157 -30 28 -27 35 -61 11 -61 -8 0 -19 -8 -24 -19 -18 -32 29 -45 179 -51
108 -4 134 -8 132 -19 -7 -31 10 -71 29 -71 16 0 18 -5 13 -25 -5 -20 -1 -26
19 -34 25 -10 47 -54 47 -96 0 -16 -8 -25 -25 -29 -30 -8 -33 -26 -6 -33 11
-3 21 -13 24 -24 7 -25 28 -24 86 5 48 25 71 22 71 -10 0 -27 51 -21 122 14
63 31 85 37 159 40 55 2 95 0 109 -8 30 -16 92 15 80 39 -50 102 -51 130 -5
175 19 20 35 41 35 48 0 7 9 38 21 68 30 80 38 107 55 189 21 98 44 153 60
140 10 -8 8 -18 -6 -42 -21 -36 -36 -165 -22 -186 18 -26 35 -1 28 41 -5 28
-1 52 13 84 22 49 30 53 49 24 7 -11 19 -20 27 -20 9 0 15 -9 15 -25 0 -24 34
-53 43 -38 3 5 2 41 0 81 -6 72 -6 72 -35 72 -23 0 -28 4 -24 18 3 9 8 31 12
47 30 124 183 339 289 406 136 86 158 92 153 41 -2 -21 1 -27 17 -27 15 0 21
8 23 33 3 31 5 32 45 32 23 -1 53 -7 67 -15 32 -18 80 -19 80 -2 0 8 -10 19
-22 25 l-23 11 22 0 c12 1 33 -3 47 -9 14 -5 26 -6 26 -2 0 4 -15 12 -32 17
-39 12 -37 26 6 40 43 14 39 28 -14 44 -112 34 -120 46 -17 27 54 -10 67 -10
67 0 0 7 -4 16 -10 19 -5 3 -10 19 -10 36 0 24 -4 29 -24 29 -13 0 -65 22
-117 48 -71 36 -95 53 -97 70 -4 30 35 44 110 40 48 -2 60 1 78 20 20 22 53
28 84 16 26 -10 19 -27 -29 -74 -25 -24 -45 -48 -45 -52 0 -4 15 -8 34 -8 27
0 39 -7 56 -30 23 -33 40 -39 40 -15 0 8 6 33 12 55 12 39 30 51 43 30 3 -6
14 -10 25 -10 11 0 20 -10 25 -27 3 -15 15 -39 25 -53 17 -24 17 -28 4 -42
-12 -12 -13 -22 -3 -59 11 -44 19 -193 11 -216 -2 -7 -15 -13 -28 -13 -27 0
-32 26 -11 61 10 17 10 23 0 26 -7 3 -13 17 -13 33 0 41 -10 60 -31 60 -12 0
-19 7 -19 19 0 10 -7 25 -16 32 -9 7 -20 24 -25 36 -7 20 -12 22 -29 13 -18
-10 -20 -17 -14 -56 4 -30 2 -49 -6 -60 -10 -11 -10 -18 -2 -26 8 -8 8 -17 1
-30 -16 -30 -3 -48 34 -48 40 0 71 -28 61 -55 -9 -21 11 -35 52 -35 34 0 100
-59 76 -67 -10 -4 -10 -10 3 -29 10 -15 17 -56 20 -111 8 -132 15 -176 35
-198 9 -11 20 -28 23 -37 10 -28 81 -24 108 5 11 12 25 27 30 32 55 52 109
112 109 122 0 6 33 27 73 47 62 31 86 36 170 42 79 6 97 10 92 21 -3 8 -5 17
-5 19 0 2 -9 4 -20 4 -25 0 -140 57 -140 69 0 5 -18 32 -40 60 -41 51 -49 75
-30 86 17 11 -9 35 -37 35 -13 0 -56 -16 -94 -36 -38 -20 -72 -34 -75 -31 -9
9 39 68 69 83 15 8 27 22 27 30 0 12 5 14 18 9 33 -14 122 -17 151 -6 15 7 33
23 39 37 9 18 19 24 44 24 39 0 51 -7 67 -37 8 -16 9 -29 1 -42 -5 -11 -10
-32 -10 -48 0 -68 -24 -93 -99 -103 l-43 -5 41 -47 c34 -38 53 -50 110 -67 38
-12 75 -21 83 -21 7 0 22 -7 33 -15 19 -15 19 -16 -3 -37 -20 -20 -25 -21 -44
-9 -21 13 -25 11 -61 -30 l-38 -43 43 -23 c68 -35 90 -31 131 26 20 27 53 62
74 77 21 16 44 37 51 46 7 10 19 18 27 18 7 0 32 15 54 34 23 19 58 40 79 47
20 6 49 20 63 30 43 30 109 48 205 55 73 5 96 4 122 -10 17 -9 47 -16 66 -16
55 0 86 -18 86 -52 0 -42 41 -59 73 -31 30 27 58 33 198 39 l119 5 0 -29 c0
-17 6 -32 14 -35 8 -3 16 -18 18 -34 2 -22 9 -29 31 -31 15 -2 27 1 27 5 0 5
6 18 14 28 13 19 14 19 37 -3 13 -12 33 -28 43 -35 27 -20 15 -84 -20 -97 -13
-5 -24 -14 -24 -19 0 -13 94 -41 138 -41 22 0 40 -7 51 -21 l17 -22 27 27 c22
22 31 25 59 18 18 -4 58 -7 88 -7 54 0 54 0 65 37 15 54 41 75 110 91 85 19
82 41 -6 45 -59 3 -75 -1 -141 -32 -59 -29 -81 -34 -111 -29 -33 5 -41 12 -62
52 -26 52 -56 71 -113 71 -23 0 -51 9 -74 25 -20 14 -41 25 -46 25 -6 0 -13
16 -16 35 -7 37 -15 41 -45 25 -14 -7 -23 -4 -36 10 -14 16 -26 19 -50 14 -42
-7 -57 22 -26 48 23 18 26 39 11 69 -9 15 -22 19 -70 19 -32 0 -62 5 -65 10
-8 13 -42 13 -50 0 -4 -6 -1 -17 5 -25 6 -8 9 -18 7 -23 -3 -4 -2 -14 3 -22
12 -20 -89 -54 -123 -41 -14 6 -30 5 -41 -1 -11 -6 -21 -6 -31 2 -10 8 -22 7
-50 -4 -34 -14 -39 -14 -74 4 -33 17 -37 22 -33 49 3 20 0 31 -8 31 -7 0 -27
7 -46 16 -40 19 -90 13 -127 -16 -28 -22 -117 -29 -117 -9 0 18 -65 4 -101
-21 -16 -12 -48 -24 -70 -27 -23 -4 -49 -15 -62 -29 -12 -13 -27 -24 -33 -24
-28 0 -64 -42 -64 -74 0 -40 -25 -76 -52 -76 -12 0 -36 11 -54 25 -18 14 -36
25 -41 25 -4 0 -14 4 -22 9 -11 7 -6 18 28 50 40 38 46 41 101 41 34 0 62 5
66 12 7 10 -14 32 -40 41 -25 9 7 20 54 18 47 -1 50 0 50 24 0 21 5 25 29 25
17 0 33 5 36 10 4 6 21 8 41 4 32 -6 34 -4 34 20 0 26 13 35 25 15 15 -23 130
19 140 51 4 11 10 20 15 20 15 0 55 43 68 73 12 28 13 29 72 22 91 -11 131 0
159 40 15 22 37 39 60 46 29 9 40 19 54 53 9 22 17 49 17 59 0 10 7 20 15 23
8 4 15 12 15 20 0 9 12 14 36 14 19 0 43 4 53 9 21 12 90 14 144 5 25 -4 48
-1 64 7 24 13 91 15 269 8 44 -2 56 2 90 29 22 17 55 35 74 38 19 4 65 27 103
51 43 27 79 43 99 43 18 0 45 11 63 25 33 24 107 55 136 55 8 0 30 16 49 35
19 19 43 35 55 35 28 0 45 19 45 50 0 22 6 28 40 36 l39 11 -19 -27 c-10 -14
-22 -39 -26 -56 -3 -16 -17 -40 -29 -54 -17 -18 -24 -41 -28 -80 -5 -65 -97
-288 -140 -339 -15 -18 -27 -43 -27 -55 0 -28 -18 -46 -45 -46 -32 0 -60 -67
-50 -117 4 -21 9 -50 12 -66 3 -15 -2 -42 -11 -61 -9 -19 -16 -39 -16 -44 0
-6 20 -37 45 -70 29 -38 43 -66 39 -76 -10 -25 -30 -19 -44 14 -10 25 -18 30
-46 30 -28 0 -34 -4 -34 -20 0 -28 -25 -35 -55 -16 -32 21 -35 21 -35 -11 0
-50 22 -78 60 -79 19 0 50 -7 67 -15 29 -12 36 -11 63 5 l31 17 10 -30 c14
-39 42 -41 127 -6 34 14 73 25 87 25 39 0 65 18 65 44 0 15 99 174 248 398
136 205 258 400 271 433 13 33 61 130 106 215 101 190 117 226 166 364 39 111
68 154 121 182 32 17 71 5 88 -26 17 -31 62 -26 106 12 21 18 66 76 100 128
70 107 127 167 164 172 17 2 35 18 55 50 36 56 74 65 93 23 12 -25 32 -34 32
-14 0 6 10 19 21 28 15 12 23 32 26 68 5 44 11 57 49 94 58 57 58 73 -1 64
-42 -6 -49 -4 -82 25 -29 26 -41 31 -67 26 -33 -7 -64 -31 -53 -42 4 -4 18 -2
32 4 21 10 28 9 43 -6 10 -9 29 -25 42 -34 21 -15 23 -19 10 -28 -8 -6 -26 -8
-40 -5 -14 3 -58 12 -99 19 -40 8 -80 21 -88 29 -13 13 -12 14 13 9 l27 -5
-22 31 c-12 17 -30 33 -39 36 -10 4 -26 23 -35 44 -9 20 -34 49 -55 63 -37 27
-38 27 -61 8 -13 -10 -30 -19 -39 -19 -22 0 -102 40 -102 51 0 5 -9 9 -19 9
-10 0 -21 6 -24 14 -3 8 -18 20 -34 28 -20 9 -30 23 -33 45 -3 18 -16 40 -32
52 -14 12 -29 35 -33 52 -4 16 -17 40 -28 53 -12 12 -30 32 -40 45 l-17 22
-53 -40 c-36 -27 -51 -44 -49 -57 6 -34 21 -40 52 -22 16 9 32 13 34 9 3 -4
-11 -13 -30 -20 -18 -7 -34 -17 -34 -22 0 -22 21 -49 33 -42 8 5 8 2 -1 -9
-10 -12 -10 -21 -1 -42 15 -33 20 -33 59 4 18 17 35 28 37 26 3 -3 -11 -19
-31 -36 -20 -18 -36 -40 -36 -50 0 -53 -23 -17 -60 96 -41 122 -42 127 -35
215 6 78 9 89 26 89 24 0 26 -47 4 -76 -14 -18 -21 -64 -9 -64 3 0 26 14 51
31 35 24 44 36 40 53 -3 11 -9 60 -12 108 -10 116 -17 119 -127 44 -34 -23
-70 -59 -89 -88 -17 -27 -53 -68 -80 -91 -34 -30 -50 -52 -52 -72 -5 -41 -33
-92 -78 -144 -22 -24 -39 -49 -39 -56 0 -7 -29 -47 -64 -89 -64 -77 -64 -78
-71 -154 -9 -116 -13 -125 -61 -182 -24 -28 -44 -56 -44 -61 0 -5 -16 -27 -35
-48 -28 -31 -37 -51 -42 -92 -6 -49 -12 -58 -72 -119 -115 -114 -121 -117
-246 -129 -61 -6 -146 -15 -190 -21 -44 -6 -110 -14 -147 -18 -47 -6 -74 -14
-90 -29 -13 -12 -44 -27 -70 -33 -29 -8 -65 -27 -90 -49 -24 -21 -72 -57 -108
-81 -36 -24 -96 -70 -135 -101 -73 -59 -164 -115 -300 -184 -44 -22 -96 -57
-116 -78 -21 -20 -45 -37 -54 -37 -10 0 -33 -10 -52 -21 -32 -20 -43 -21 -145
-15 -94 6 -125 13 -197 42 -47 19 -108 48 -136 63 -166 97 -254 139 -298 146
l-47 6 -83 -76 -82 -76 -70 6 c-38 4 -85 13 -104 21 -18 8 -46 14 -61 14 -15
0 -33 7 -40 15 -7 8 -26 15 -42 15 -16 0 -46 9 -66 19 -21 11 -56 23 -77 27
-22 3 -56 15 -75 24 -19 10 -73 32 -120 50 -47 18 -102 45 -122 61 -20 16 -43
29 -51 29 -16 0 -27 -42 -27 -106 0 -36 -3 -42 -16 -37 -13 5 -15 15 -9 49 7
48 10 46 -110 59 -74 9 -113 28 -121 60 -8 32 -192 188 -260 219 -17 8 -50 40
-74 71 -24 31 -58 69 -76 83 -17 15 -39 41 -48 59 -9 18 -43 50 -75 72 -32 22
-68 55 -79 73 -50 78 -73 108 -82 108 -6 0 -10 5 -10 10 0 6 -25 35 -55 65
-30 29 -64 73 -74 98 -11 25 -28 48 -38 51 -10 4 -33 38 -51 77 -19 38 -42 74
-53 80 -10 5 -19 14 -19 19 0 5 -18 38 -40 72 -22 35 -40 69 -40 76 0 7 -16
29 -35 49 -19 19 -39 50 -45 69 -7 19 -15 34 -19 34 -12 0 -91 82 -91 95 0 7
-23 45 -52 86 -29 41 -68 102 -88 136 -41 70 -73 99 -148 137 -31 16 -61 40
-70 57 -9 16 -21 29 -25 29 -13 0 -116 114 -136 149 -29 53 -124 161 -142 161
-10 0 -24 9 -32 20 -7 10 -38 34 -68 52 -30 18 -68 43 -84 54 -51 36 -133 74
-161 74 -14 0 -52 16 -83 35 -32 19 -76 37 -98 41 -25 4 -50 16 -62 30 -12 13
-25 24 -31 24 -5 0 -18 17 -29 38 -11 21 -27 45 -37 53 -22 18 -64 107 -64
137 0 56 -30 127 -65 152 -19 14 -45 44 -57 68 -24 45 -152 152 -182 152 -8 0
-21 9 -28 20 -7 11 -18 20 -24 20 -7 0 -19 11 -27 23 -9 14 -41 34 -74 46 -77
29 -91 41 -95 81 -2 27 -5 31 -14 19z m7836 -2159 c0 -5 -3 -10 -7 -10 -5 0
-19 -3 -33 -6 -24 -5 -24 -5 -6 10 22 18 46 21 46 6z"/>
<path d="M10069 7505 c-105 -38 -234 -122 -328 -214 -25 -24 -68 -55 -96 -68
-131 -63 -285 -165 -285 -189 0 -7 13 -22 28 -33 24 -17 27 -25 24 -55 -4 -33
-2 -36 21 -36 13 0 30 6 36 14 10 11 8 16 -8 21 -25 8 -28 33 -5 42 9 3 26 -5
43 -21 15 -14 31 -26 35 -26 4 0 22 -10 39 -23 41 -29 91 -47 117 -40 15 4 20
14 20 37 0 28 5 34 36 45 19 7 40 23 45 35 20 42 60 55 269 86 76 11 108 29
133 75 22 42 47 164 47 237 l0 77 -37 26 c-41 28 -79 31 -134 10z"/>
<path d="M9070 6831 c-8 -4 -24 -13 -35 -18 -12 -6 -49 -14 -83 -18 -58 -7
-63 -9 -76 -40 -11 -27 -21 -33 -55 -39 -22 -3 -41 -11 -41 -16 0 -6 -13 -10
-29 -10 -26 0 -33 -7 -61 -63 -49 -100 -41 -184 20 -205 27 -10 63 -1 75 18 4
6 16 8 27 4 25 -8 38 10 38 54 0 28 5 34 40 48 30 12 40 22 40 39 0 12 9 30
19 39 24 22 34 56 16 56 -8 0 -18 -7 -23 -16 -13 -24 -32 -8 -32 26 0 26 4 29
46 38 40 9 49 7 65 -9 24 -24 44 -24 69 1 11 11 20 27 20 35 0 20 37 19 48 -1
5 -9 31 -20 60 -26 44 -8 64 -5 132 17 45 14 89 25 98 25 9 0 23 4 31 9 11 7
7 12 -15 23 -24 12 -33 13 -54 2 -14 -8 -34 -14 -45 -14 -11 0 -31 -7 -45 -15
-30 -17 -123 -20 -152 -4 -14 8 -18 17 -14 34 5 19 1 23 -25 29 -37 7 -40 7
-59 -3z"/>
<path d="M9683 6643 c-15 -6 -17 -43 -3 -43 12 0 24 25 18 38 -1 5 -9 7 -15 5z"/>
<path d="M9616 6544 c-4 -9 -4 -19 -1 -23 8 -7 38 12 43 27 6 19 -35 14 -42
-4z"/>
<path d="M9525 6500 c-11 -5 -54 -9 -95 -9 -110 -2 -116 -4 -127 -62 -11 -54
-14 -49 74 -117 24 -19 44 -28 48 -22 4 6 24 19 46 30 21 11 39 27 39 36 0 9
20 38 44 66 60 69 45 110 -29 78z"/>
<path d="M9043 6328 c-10 -13 -41 -67 -67 -120 -43 -86 -48 -102 -42 -140 8
-53 62 -119 171 -208 41 -33 76 -69 80 -79 5 -17 9 -16 41 13 56 49 67 78 60
158 -8 79 4 128 45 173 27 31 43 96 30 128 -6 16 -10 14 -30 -14 -13 -17 -27
-43 -31 -58 l-8 -26 -1 26 c-1 14 5 34 13 44 11 15 11 24 1 48 -10 24 -26 35
-76 53 -85 31 -159 32 -186 2z"/>
<path d="M237 4363 c-12 -12 -7 -34 13 -60 12 -16 20 -41 20 -65 0 -43 26 -98
47 -98 17 0 16 15 -1 43 -8 12 -17 44 -21 70 -4 28 -15 57 -26 68 -12 12 -18
27 -15 35 6 14 -5 19 -17 7z"/>
<path d="M1626 4319 c-13 -66 -7 -99 23 -129 16 -16 38 -47 50 -70 19 -36 19
-43 7 -63 -14 -20 -12 -26 21 -69 25 -35 42 -48 59 -48 22 0 23 3 14 20 -6 11
-17 20 -25 20 -14 0 -21 22 -15 45 2 6 5 28 7 51 3 33 -1 45 -22 64 -16 15
-25 34 -25 53 0 24 -3 27 -14 18 -17 -14 -32 3 -28 31 2 10 -2 27 -8 38 -9 16
-8 25 0 35 15 18 5 35 -19 35 -13 0 -21 -10 -25 -31z"/>
<path d="M357 4163 c-9 -21 -22 -49 -30 -63 -8 -14 -22 -56 -31 -94 -17 -76
-8 -117 27 -124 15 -3 17 5 17 61 0 45 8 88 28 143 26 74 31 114 13 114 -4 0
-15 -17 -24 -37z"/>
<path d="M1411 4171 c-11 -7 -10 -11 7 -20 11 -6 28 -11 38 -11 16 0 16 1 -1
20 -20 22 -24 23 -44 11z"/>
<path d="M667 4162 c-15 -3 -17 -12 -15 -45 4 -54 21 -51 30 4 9 48 9 47 -15
41z"/>
<path d="M1396 4111 c-7 -11 22 -23 35 -15 5 3 7 10 4 15 -8 12 -32 12 -39 0z"/>
<path d="M1403 4063 c-7 -17 28 -53 52 -53 8 0 11 -8 8 -20 -3 -13 1 -22 11
-26 12 -5 14 -10 6 -19 -12 -14 15 -25 63 -25 26 0 38 22 18 35 -5 3 -12 19
-16 35 -4 17 -13 30 -20 30 -8 0 -15 10 -17 23 -2 18 -9 22 -35 20 -18 -2 -35
2 -38 7 -9 15 -25 12 -32 -7z"/>
<path d="M1673 3954 c-3 -9 0 -19 7 -24 9 -5 9 -13 2 -26 -11 -20 5 -54 25
-54 28 0 30 95 4 110 -26 13 -31 13 -38 -6z"/>
<path d="M527 3883 c-13 -12 -7 -54 9 -60 8 -3 23 1 32 10 14 15 14 18 -3 37
-19 21 -28 24 -38 13z"/>
<path d="M1910 3812 c0 -11 7 -25 15 -32 8 -7 15 -19 15 -26 0 -8 9 -23 21
-35 23 -23 69 -106 69 -125 0 -15 38 -44 57 -44 20 0 16 10 -34 94 -89 146
-102 165 -124 177 -16 8 -19 6 -19 -9z"/>
<path d="M326 3745 c-16 -30 -32 -55 -36 -55 -14 0 -80 -108 -80 -132 0 -20 5
-25 22 -24 18 1 24 9 30 43 6 40 60 133 76 133 4 0 14 13 24 29 13 23 14 33 5
45 -10 14 -16 8 -41 -39z"/>
<path d="M654 3732 c-6 -4 -13 -15 -17 -24 -3 -10 -13 -18 -21 -18 -21 0 -56
-53 -56 -84 0 -15 -7 -38 -16 -51 -22 -34 -54 -168 -43 -179 5 -6 15 4 24 25
22 46 35 68 68 110 15 20 27 41 27 46 0 6 10 18 23 26 18 13 19 16 5 16 -22 1
-23 24 -3 41 8 7 15 27 15 44 0 18 5 37 12 44 13 13 0 16 -18 4z"/>
<path d="M6583 3714 c-3 -8 -1 -20 6 -27 22 -22 12 -37 -25 -37 -45 0 -104
-27 -104 -48 0 -8 7 -23 16 -33 15 -17 15 -21 -5 -52 l-21 -34 42 -6 c34 -5
47 -2 64 14 12 12 34 19 57 19 36 0 77 27 77 51 0 6 -10 42 -22 79 -16 50 -29
72 -46 79 -30 14 -32 14 -39 -5z"/>
<path d="M2353 3655 c-4 -11 3 -25 19 -38 14 -12 31 -37 38 -54 8 -21 19 -33
31 -33 33 0 30 19 -12 72 -49 63 -67 75 -76 53z"/>
<path d="M275 3559 c-8 -23 7 -45 24 -35 6 4 11 18 11 32 0 30 -26 32 -35 3z"/>
<path d="M2760 3557 c0 -22 60 -137 72 -137 15 0 1 46 -29 97 -27 47 -43 62
-43 40z"/>
<path d="M2100 3506 c0 -19 51 -31 61 -15 12 19 1 29 -32 29 -18 0 -29 -5 -29
-14z"/>
<path d="M7375 3500 c-4 -6 -3 -19 0 -31 5 -16 14 -19 38 -17 20 2 32 9 32 17
0 18 -61 45 -70 31z"/>
<path d="M221 3460 c-15 -44 -14 -90 2 -90 17 0 39 37 26 45 -5 4 -7 15 -4 26
4 10 2 26 -3 35 -8 14 -11 11 -21 -16z"/>
<path d="M1690 3390 c0 -17 90 -100 108 -100 26 0 72 -75 72 -116 0 -19 5 -34
10 -34 6 0 10 -6 10 -13 0 -8 17 -27 38 -44 l37 -30 -1 102 c0 113 -13 144
-69 165 -16 6 -48 20 -70 30 -116 52 -135 58 -135 40z"/>
<path d="M1996 3220 c9 -68 9 -69 46 -61 27 6 33 12 33 31 0 19 -6 26 -25 28
-14 2 -33 13 -43 25 -17 22 -17 21 -11 -23z"/>
<path d="M2784 3095 c3 -9 6 -21 6 -26 0 -5 16 -25 36 -45 34 -32 67 -51 123
-69 21 -6 21 -5 9 15 -7 12 -28 28 -46 35 -29 13 -32 17 -22 35 10 18 8 20
-19 20 -23 0 -30 5 -33 23 -2 16 -11 23 -32 25 -23 3 -28 0 -22 -13z"/>
</g>
</svg>
