<?xml version="1.0" standalone="no"?>
<!DOCTYPE svg PUBLIC "-//W3C//DTD SVG 20010904//EN"
 "http://www.w3.org/TR/2001/REC-SVG-20010904/DTD/svg10.dtd">
<svg version="1.0" xmlns="http://www.w3.org/2000/svg"
 width="1024.000000pt" height="1024.000000pt" viewBox="0 0 1024.000000 1024.000000"
 preserveAspectRatio="xMidYMid meet">
<metadata>
Created by potrace 1.10, written by Peter Selinger 2001-2011
</metadata>
<g transform="translate(0.000000,1024.000000) scale(0.100000,-0.100000)"
fill="#000000" stroke="none">
<path d="M3893 10182 c-52 -39 -98 -85 -138 -138 -56 -75 -60 -83 -70 -159
-10 -77 -11 -80 -38 -83 -33 -4 -53 -39 -92 -165 -26 -84 -31 -91 -82 -130
-30 -22 -72 -67 -94 -98 -22 -32 -59 -72 -84 -89 -55 -38 -75 -81 -75 -166 0
-58 -2 -64 -30 -84 -20 -15 -49 -59 -85 -130 -40 -80 -75 -132 -134 -199 -44
-49 -82 -100 -86 -112 -8 -23 -6 -24 230 -241 l40 -36 -28 -56 c-23 -49 -27
-69 -27 -146 0 -49 4 -99 9 -112 5 -13 4 -48 -2 -85 -9 -56 -12 -62 -36 -65
-22 -3 -26 -9 -29 -38 -2 -19 1 -53 6 -75 7 -34 5 -44 -15 -72 l-24 -31 43
-30 44 -30 -6 -61 c-6 -67 -4 -68 49 -50 24 8 55 9 116 1 75 -10 97 -18 223
-87 78 -41 150 -75 162 -75 21 0 22 -3 15 -57 -4 -36 -16 -73 -32 -97 -25 -38
-25 -41 -13 -111 12 -70 12 -72 -14 -109 -21 -31 -26 -51 -26 -98 0 -50 6 -70
36 -125 l37 -65 -23 -49 c-22 -46 -27 -50 -103 -79 l-80 -31 -89 30 c-48 16
-88 26 -88 22 0 -18 34 -107 43 -113 6 -3 29 -9 52 -12 38 -6 42 -10 58 -54
22 -61 22 -61 -15 -158 -29 -79 -34 -85 -85 -116 -50 -30 -53 -34 -53 -73 0
-35 -6 -47 -40 -80 l-40 -39 0 -97 c0 -75 5 -108 20 -143 l19 -46 59 0 c55 0
60 -2 99 -42 34 -35 44 -55 54 -104 l12 -61 -58 -114 c-34 -66 -61 -133 -65
-158 -5 -42 -8 -45 -47 -59 -24 -7 -43 -17 -43 -20 0 -4 13 -22 28 -40 l27
-33 -11 -142 c-7 -78 -17 -158 -23 -177 -15 -48 -14 -58 8 -65 10 -3 29 -25
42 -49 23 -44 23 -44 6 -118 -10 -40 -17 -77 -17 -82 0 -5 24 17 54 48 30 31
59 56 64 56 8 0 42 -143 42 -177 0 -13 -198 -118 -207 -109 -3 2 0 21 7 40 11
34 10 39 -20 76 l-32 40 -25 -20 c-14 -11 -35 -20 -47 -21 -11 0 -29 -4 -39
-8 -17 -6 -17 -8 3 -34 31 -40 58 -135 61 -222 l3 -75 -46 -32 c-55 -38 -54
-38 -64 -207 l-6 -125 -79 -93 c-44 -51 -79 -96 -79 -99 0 -9 47 -93 133 -238
75 -126 78 -127 92 -43 l6 38 32 -19 c18 -11 54 -32 80 -47 l48 -27 -3 -87
c-3 -83 -4 -86 -28 -89 -18 -2 -43 12 -87 48 -34 27 -64 50 -67 50 -10 0 153
-206 198 -250 l46 -44 0 -150 0 -149 -36 -43 c-30 -38 -41 -44 -74 -44 -39 0
-50 11 -50 50 0 33 -70 154 -118 203 -26 27 -66 62 -90 79 l-42 29 -41 -32
c-40 -31 -40 -32 -22 -53 11 -11 35 -39 54 -61 48 -56 123 -197 147 -278 23
-76 76 -148 222 -301 82 -85 91 -91 245 -168 88 -44 201 -104 250 -134 50 -29
128 -69 175 -89 82 -34 86 -37 113 -89 27 -51 33 -56 90 -76 34 -11 84 -33
110 -49 45 -26 55 -40 128 -177 44 -82 84 -166 90 -187 9 -35 7 -41 -21 -80
l-31 -42 32 -13 c17 -7 64 -35 105 -63 48 -32 83 -49 104 -49 68 0 77 -127 14
-185 l-33 -30 20 -32 c22 -35 14 -74 -19 -92 -11 -6 -25 -25 -31 -42 -11 -31
-10 -31 19 -27 l29 4 -6 -45 c-3 -25 -12 -68 -19 -96 -7 -27 -11 -52 -9 -54 2
-2 30 1 61 7 78 13 142 -3 242 -62 115 -67 231 -98 300 -79 20 5 23 11 18 33
-3 20 1 33 15 46 20 18 22 18 92 -11 14 -6 17 -1 17 31 0 34 8 46 71 110 l71
72 -25 43 c-20 35 -26 61 -29 132 l-4 87 35 0 c23 0 63 -14 108 -37 l72 -38
35 34 c34 33 36 39 36 97 0 57 -4 69 -67 179 -36 64 -77 124 -90 132 -21 14
-23 22 -18 52 4 22 -2 70 -14 121 -11 47 -18 86 -16 88 2 2 25 -1 52 -6 46
-10 49 -9 90 24 33 27 45 46 58 92 9 31 18 64 21 72 2 9 26 37 52 63 l48 47
34 -24 35 -24 47 24 47 24 57 -34 c53 -33 59 -34 88 -22 17 8 78 35 137 60
l105 47 30 92 c29 90 29 93 15 159 l-14 67 50 58 50 58 6 105 c7 130 19 169
63 198 26 17 34 29 34 53 0 20 11 44 33 69 30 36 33 47 47 167 l15 128 43 23
c30 17 52 40 73 78 17 30 35 54 40 54 5 0 43 -9 84 -21 41 -11 94 -19 116 -17
l42 3 22 80 c31 118 92 201 171 233 31 13 31 13 48 150 15 118 16 150 5 222
l-12 85 -92 90 c-82 79 -94 95 -98 131 -3 24 1 50 9 65 10 18 13 73 13 214 l0
190 -39 44 -40 44 -74 -7 c-67 -6 -78 -4 -140 24 -37 16 -70 30 -72 30 -2 0
-21 -27 -43 -59 l-40 -59 -99 25 -98 25 -89 289 -89 289 -76 0 -75 0 -28 47
c-28 45 -28 48 -14 84 l15 38 -81 123 -81 123 -48 225 c-26 124 -47 228 -48
233 0 4 15 7 34 7 33 0 33 1 79 111 l45 110 -73 54 c-75 56 -85 73 -85 157 0
21 -9 34 -41 54 -27 17 -47 40 -60 70 l-20 44 28 51 c26 47 36 55 136 105 59
30 107 60 107 68 0 8 -23 65 -51 127 l-50 114 14 58 c14 55 14 63 -5 118 l-20
59 22 67 c15 47 35 81 61 108 l39 41 0 119 c0 115 2 122 30 170 22 37 30 63
30 98 0 43 5 55 43 100 27 33 42 59 40 72 -32 174 -70 305 -106 368 -39 67
-40 71 -34 139 6 70 6 71 -48 179 -38 74 -55 121 -55 146 0 32 -12 53 -80 138
-75 94 -84 102 -157 135 -126 57 -181 92 -194 123 -7 15 -17 26 -24 23 -6 -2
-36 -7 -66 -11 -43 -5 -69 -1 -124 18 l-70 24 -3 69 c-2 63 -5 71 -32 95 -28
24 -29 27 -19 63 9 34 7 47 -17 105 -15 36 -52 109 -81 162 -53 95 -53 96
-110 115 -36 12 -80 38 -117 69 -111 95 -100 89 -151 68 -37 -15 -50 -28 -75
-75 l-31 -58 -79 0 c-79 0 -79 0 -127 -42 -35 -31 -73 -51 -135 -73 l-87 -29
-57 45 c-51 39 -62 54 -90 124 -18 44 -35 100 -39 124 -6 41 -4 46 23 67 l29
23 -13 73 c-17 99 -26 120 -67 151 -20 15 -38 27 -40 27 -3 0 -41 -26 -84 -58z"/>
</g>
</svg>
