<?xml version="1.0" standalone="no"?>
<!DOCTYPE svg PUBLIC "-//W3C//DTD SVG 20010904//EN"
 "http://www.w3.org/TR/2001/REC-SVG-20010904/DTD/svg10.dtd">
<svg version="1.0" xmlns="http://www.w3.org/2000/svg"
 width="1024.000000pt" height="1024.000000pt" viewBox="0 0 1024.000000 1024.000000"
 preserveAspectRatio="xMidYMid meet">
<metadata>
Created by potrace 1.10, written by Peter Selinger 2001-2011
</metadata>
<g transform="translate(0.000000,1024.000000) scale(0.100000,-0.100000)"
fill="#000000" stroke="none">
<path d="M0 8801 c0 -1222 0 -1230 20 -1236 43 -14 83 -62 130 -154 49 -99 97
-157 137 -167 18 -5 26 -20 39 -66 15 -50 27 -70 76 -117 65 -64 70 -75 98
-239 17 -96 18 -123 8 -180 -15 -89 -6 -131 43 -189 47 -56 70 -97 94 -173 27
-84 53 -131 100 -180 47 -49 59 -82 70 -195 5 -50 19 -99 51 -172 24 -56 49
-125 56 -153 11 -48 13 -50 45 -50 43 0 90 -24 98 -50 4 -13 -4 -39 -24 -74
-37 -64 -38 -69 -7 -85 30 -17 71 -101 62 -129 -8 -25 -65 -62 -95 -62 -34 0
-25 -35 18 -70 60 -46 60 -59 2 -135 -28 -37 -51 -69 -51 -73 0 -4 7 -18 16
-31 23 -32 13 -145 -16 -181 -31 -38 -86 -158 -100 -220 -9 -39 -22 -62 -43
-80 -83 -70 -99 -90 -92 -113 15 -48 17 -78 5 -92 -9 -11 -16 -12 -25 -5 -14
12 -24 3 -49 -47 -22 -44 -20 -62 10 -94 26 -27 26 -30 14 -74 -12 -43 -11
-47 14 -85 30 -46 28 -56 -20 -76 -39 -16 -73 -71 -100 -157 -18 -58 -18 -59
3 -75 11 -10 28 -30 36 -47 8 -16 26 -40 40 -52 14 -12 44 -59 67 -106 l42
-84 -37 -56 c-35 -53 -36 -57 -24 -91 12 -33 11 -41 -14 -91 -15 -31 -27 -61
-27 -68 0 -39 -26 -91 -72 -144 -32 -37 -60 -82 -71 -115 -40 -114 -88 -199
-157 -275 -81 -88 -92 -120 -65 -191 21 -54 61 -116 98 -151 l26 -23 38 30
c85 69 194 94 578 132 192 20 231 21 307 11 74 -11 102 -10 195 4 134 21 183
17 349 -34 71 -21 172 -51 224 -65 61 -17 172 -64 310 -131 133 -64 269 -122
354 -150 76 -25 148 -52 160 -60 25 -18 50 -19 75 -3 15 9 24 8 45 -5 14 -10
63 -24 109 -32 45 -8 127 -28 182 -45 90 -28 110 -31 205 -28 101 3 107 5 165
40 95 59 137 71 251 72 88 1 99 3 82 15 -19 13 -18 14 16 39 20 14 35 26 34
28 -2 1 -26 -3 -55 -9 -66 -14 -95 -1 -123 52 -27 54 -25 69 13 109 l32 34
-32 -7 c-74 -15 -178 46 -171 102 3 29 11 31 56 17 18 -5 22 -2 22 14 0 15 5
19 20 15 11 -3 27 0 35 7 12 10 18 10 30 0 21 -17 19 -40 -7 -67 -34 -36 -14
-27 44 20 88 71 118 89 182 111 48 17 61 26 59 41 -4 50 36 69 87 40 36 -20
64 -18 86 6 17 19 26 21 83 15 82 -7 101 -23 101 -88 0 -50 -11 -59 -49 -39
-13 7 -22 2 -40 -24 l-23 -34 28 -26 29 -25 -28 -25 c-41 -37 -13 -31 89 18
120 59 135 62 184 37 37 -19 42 -19 76 -5 20 8 65 15 100 15 l64 0 0 -43 c0
-24 -12 -83 -26 -131 -14 -49 -23 -91 -20 -94 3 -2 31 0 62 7 62 12 92 2 113
-38 14 -26 53 -161 55 -188 1 -24 24 -31 43 -12 7 7 20 -12 43 -65 19 -42 40
-76 47 -76 7 0 45 16 83 35 83 42 104 43 153 10 44 -31 48 -61 12 -95 -14 -13
-25 -34 -25 -47 0 -20 4 -23 21 -18 21 7 22 5 16 -34 -6 -46 5 -46 29 2 15 28
18 29 29 14 7 -9 23 -17 37 -17 18 0 26 7 33 32 14 45 46 49 85 9 19 -19 30
-40 30 -58 0 -39 22 -68 78 -99 60 -35 109 -80 116 -109 3 -13 0 -38 -8 -56
-11 -27 -12 -39 -1 -69 7 -21 10 -42 6 -48 -3 -6 -28 -12 -55 -14 -47 -3 -50
-2 -58 27 -8 29 -4 106 8 143 4 9 -5 4 -19 -13 l-25 -30 -36 35 c-20 18 -44
56 -55 84 l-18 50 -53 -72 c-57 -79 -80 -96 -113 -86 -44 13 86 -106 151 -138
51 -25 79 -32 155 -37 92 -6 143 -25 177 -66 15 -19 54 -19 69 -2 8 11 5 16
-14 25 -39 18 -33 57 16 104 l41 40 34 -33 c35 -34 42 -57 23 -76 -7 -7 -5
-12 10 -16 17 -4 19 -1 14 29 -3 18 -3 41 1 50 5 14 9 13 27 -10 25 -32 34
-33 55 -1 16 24 15 26 -9 45 -14 11 -29 29 -32 40 -4 11 -15 20 -26 20 -11 0
-29 5 -40 10 -18 10 -18 13 -4 33 8 12 15 36 15 53 0 29 7 37 58 69 76 48 96
44 100 -17 2 -34 7 -48 18 -48 23 0 28 -28 10 -55 -16 -25 -16 -25 13 -25 38
0 32 -24 -11 -46 -16 -9 -28 -18 -25 -20 3 -3 31 -12 63 -21 32 -8 88 -28 124
-45 l65 -30 -45 -39 c-60 -53 -80 -57 -134 -25 -30 17 -59 26 -88 26 l-44 0 4
-39 c3 -33 13 -47 75 -102 39 -35 72 -59 74 -54 2 6 13 28 26 50 18 32 28 40
54 41 35 2 100 49 109 79 4 11 13 28 21 37 15 16 16 16 32 -1 22 -26 82 -45
92 -30 4 6 12 71 19 143 7 72 17 149 22 171 11 44 11 51 2 113 -6 39 17 132
32 132 14 0 85 -53 107 -80 42 -49 37 -89 -20 -169 -48 -66 -48 -66 -48 -147
l0 -82 23 42 c57 99 63 115 51 137 -15 30 -7 51 61 164 33 55 60 112 60 126 0
47 30 72 83 71 59 -2 101 -23 116 -61 7 -16 40 -51 73 -77 32 -27 73 -66 89
-88 28 -39 39 -96 19 -96 -6 0 -33 21 -60 46 -27 25 -56 44 -66 42 -12 -2 -3
-18 41 -67 32 -36 63 -78 70 -94 12 -30 12 -30 35 46 13 42 27 74 32 71 5 -3
25 -38 44 -77 20 -40 47 -87 61 -105 23 -31 26 -32 38 -15 13 17 16 17 42 3
23 -13 29 -25 39 -80 6 -36 21 -111 33 -167 11 -55 21 -115 21 -133 l0 -32 58
32 c31 18 84 52 117 75 67 48 164 134 125 112 -37 -22 -205 -87 -224 -87 -14
0 -16 14 -16 94 0 112 11 149 59 199 34 35 36 42 36 101 0 78 -26 117 -115
171 -33 20 -60 39 -60 43 0 4 11 20 24 36 21 28 25 29 53 17 60 -25 173 -174
173 -228 0 -24 14 -31 25 -13 10 16 41 11 60 -10 18 -20 18 -20 36 20 10 22
25 43 34 46 12 5 7 14 -25 41 -54 47 -66 70 -47 91 16 18 13 67 -5 78 -5 3
-39 10 -75 14 -50 6 -72 15 -92 34 -15 14 -34 26 -42 26 -17 0 -88 46 -106 68
-17 21 -16 67 2 129 14 46 19 51 49 57 52 10 61 27 48 87 -16 70 -15 130 4
157 18 27 32 27 61 3 48 -40 73 -91 73 -149 0 -53 -2 -58 -45 -99 -52 -50 -58
-73 -17 -73 30 0 118 -47 143 -76 9 -11 22 -36 29 -57 l12 -39 23 22 22 21 13
-31 c9 -23 16 -28 25 -20 22 18 24 49 4 74 -24 31 -24 32 5 51 43 29 65 1 81
-102 5 -31 12 -42 28 -47 33 -9 37 -8 37 12 0 26 29 62 50 62 26 0 50 -27 50
-56 l0 -25 37 26 c43 29 75 32 94 9 11 -14 10 -22 -10 -56 -12 -22 -21 -41
-19 -42 53 -39 96 -47 118 -21 19 23 30 19 100 -30 35 -25 69 -45 76 -45 7 0
26 11 42 25 17 14 34 25 39 25 5 0 25 -16 44 -36 43 -44 124 -94 220 -135 70
-30 75 -31 125 -19 48 12 55 11 92 -10 31 -18 46 -36 66 -80 30 -66 32 -89 11
-116 -15 -19 -16 -19 -31 3 -14 20 -25 23 -83 22 -53 0 -61 -2 -42 -10 14 -5
31 -7 39 -4 8 3 30 0 49 -6 53 -17 42 -48 -27 -76 -47 -19 -51 -22 -26 -23 16
0 53 14 83 30 29 17 58 30 65 30 16 0 48 -55 48 -83 1 -19 3 -17 14 8 7 17 23
38 34 49 29 25 41 14 81 -73 l31 -68 -30 -58 c-16 -31 -30 -66 -30 -76 0 -33
-39 -99 -65 -111 -16 -7 -43 -44 -74 -102 -27 -50 -61 -113 -76 -141 l-28 -50
47 45 c58 55 131 147 161 204 14 26 34 47 58 59 22 10 37 24 37 35 0 9 5 24
10 32 8 12 15 9 46 -20 20 -19 65 -72 101 -118 61 -77 89 -101 64 -54 -29 54
-3 141 48 162 24 10 30 19 33 48 3 34 6 37 36 40 21 2 41 -3 52 -13 17 -15 19
-15 25 6 7 21 -7 38 -30 39 -6 0 -26 13 -45 30 -31 27 -33 31 -18 40 28 17 41
49 28 65 -6 8 -18 11 -25 8 -10 -3 -22 11 -37 41 -19 40 -20 48 -8 71 13 24
12 31 -10 71 -14 24 -28 44 -32 44 -4 0 -22 25 -39 55 -17 30 -36 55 -43 55
-7 0 -29 -15 -49 -32 -31 -28 -42 -51 -70 -138 -18 -58 -36 -105 -39 -105 -3
0 -35 38 -71 85 l-65 84 29 34 c28 32 39 84 20 96 -5 3 -25 -19 -45 -50 l-37
-55 -93 97 -92 98 -36 -27 c-44 -34 -50 -34 -90 1 -18 15 -52 36 -75 46 -23
10 -49 26 -58 36 -17 19 -10 50 11 50 19 0 17 17 -6 68 -20 44 -48 62 -98 62
-61 0 -237 239 -218 296 8 26 67 64 98 64 21 0 25 4 21 20 -4 15 0 20 13 20
16 0 15 2 -4 23 -24 26 -29 57 -9 57 6 0 37 -9 67 -19 30 -10 71 -21 90 -25
l35 -7 -35 21 c-19 12 -46 33 -60 46 -14 13 -40 37 -57 53 -36 33 -42 64 -17
99 19 28 34 28 69 0 25 -19 28 -20 37 -5 12 23 25 21 60 -8 28 -23 32 -24 53
-11 20 13 26 12 71 -13 27 -14 72 -42 99 -61 l50 -34 -38 45 c-56 66 -63 84
-48 124 9 25 9 40 2 54 -6 11 -11 33 -11 50 0 45 25 40 90 -20 50 -46 56 -49
68 -32 11 15 9 20 -9 34 -35 26 -22 60 34 87 42 20 47 26 47 57 0 41 -10 49
-44 33 -24 -10 -30 -8 -56 17 -16 15 -36 43 -45 62 -17 34 -16 36 9 62 34 36
33 41 -9 41 -22 0 -43 8 -55 20 -27 27 -26 50 4 50 19 0 22 4 19 23 -7 37 28
72 69 69 25 -2 40 4 54 19 l19 22 -38 -7 c-43 -8 -97 13 -126 50 -24 31 -27
30 -35 -6 -6 -35 -85 -116 -141 -146 -32 -17 -35 -22 -35 -64 0 -43 -27 -149
-56 -218 -24 -57 -106 -69 -190 -27 -53 27 -144 100 -144 117 0 5 14 23 31 40
21 21 25 29 12 25 -153 -43 -139 -41 -175 -20 -104 60 -103 190 1 260 45 30
78 29 132 -5 24 -15 50 -31 56 -36 10 -5 11 -1 3 19 -22 59 0 95 59 95 12 0
24 14 35 45 10 24 31 56 47 69 21 18 32 39 37 68 8 44 21 56 85 78 l28 10 -26
42 c-15 24 -43 76 -62 116 -35 72 -36 74 -23 126 l12 53 -37 59 c-58 90 -75
133 -75 195 0 53 -2 58 -35 83 -19 14 -49 51 -66 81 -23 38 -44 59 -71 71 -51
23 -64 39 -48 59 10 12 9 16 -4 21 -8 3 -27 30 -42 60 -24 49 -25 57 -13 86
10 25 10 33 1 36 -22 7 -42 60 -42 110 0 39 5 53 25 72 27 26 31 50 13 79 -10
16 -5 30 30 87 30 51 41 80 41 109 0 22 16 87 35 144 20 58 36 112 36 121 0 9
11 27 25 40 17 16 25 33 23 50 l-3 25 -1949 3 c-1770 2 -1948 3 -1942 18 3 9
6 17 6 20 0 2 19 13 43 25 96 48 100 75 22 154 -30 31 -58 68 -61 82 -4 16 3
48 20 89 14 36 26 72 26 82 0 10 -25 40 -55 66 -47 40 -55 52 -55 81 0 56 27
67 156 63 107 -3 108 -3 122 23 21 35 9 77 -23 85 -33 8 -48 38 -41 79 6 31 5
34 -21 37 -26 3 -28 7 -31 49 -3 41 1 50 24 68 15 11 31 21 35 21 5 0 20 -22
34 -49 13 -27 37 -59 52 -71 26 -20 28 -20 40 -4 22 30 15 72 -27 150 -62 117
-53 203 23 219 64 14 157 80 157 112 0 16 -11 16 -79 3 -41 -8 -58 -7 -81 5
-58 30 -89 102 -58 133 18 18 41 15 104 -13 65 -29 96 -31 114 -10 7 9 17 59
21 113 15 165 32 182 179 182 81 0 90 2 90 18 0 29 -8 31 -63 16 -77 -20 -114
-18 -128 7 -25 47 14 166 67 208 42 33 69 27 101 -21 51 -75 90 -81 53 -8
l-22 43 72 72 c68 69 73 77 84 136 13 74 35 94 141 129 35 12 68 27 74 34 17
21 -22 61 -73 76 -24 6 -59 21 -76 32 -31 18 -32 20 -15 39 24 26 56 24 115
-6 27 -14 52 -25 55 -25 3 0 -2 16 -10 36 -8 20 -15 38 -15 40 0 2 38 28 84
59 88 57 102 75 86 104 -12 24 -58 53 -70 46 -6 -3 -10 -26 -10 -50 0 -24 -5
-47 -10 -50 -21 -13 -182 -34 -211 -28 -37 7 -59 37 -59 81 0 68 59 135 129
147 22 4 45 13 52 21 14 17 41 18 57 2 14 -14 28 -3 34 27 2 15 12 21 40 23
41 3 51 -7 62 -70 10 -53 23 -55 37 -6 13 49 15 117 4 165 -9 42 13 53 61 29
19 -9 36 -16 38 -16 6 0 96 155 96 164 0 4 -12 -6 -26 -23 -23 -28 -30 -30
-67 -25 -107 15 -157 43 -157 87 0 12 18 45 40 72 39 49 51 85 28 85 -6 0 -37
-5 -67 -11 -51 -11 -60 -10 -105 11 -60 29 -116 83 -116 113 0 37 30 170 42
184 6 7 31 22 57 34 80 35 140 106 126 150 -6 19 -45 27 -45 9 0 -18 -63 -81
-101 -101 -46 -23 -61 -24 -104 -3 -85 40 -62 122 60 217 42 33 80 67 85 77
11 21 2 24 -109 36 -49 5 -70 12 -89 31 -22 22 -23 29 -17 86 9 88 32 163 56
186 11 10 38 21 59 25 36 6 40 10 50 46 12 44 6 117 -16 198 -15 54 -27 62
-65 42 -16 -9 -19 -22 -19 -84 0 -59 -4 -78 -21 -100 -36 -45 -117 -27 -150
35 -10 20 12 69 80 182 l23 37 -154 0 c-84 0 -1244 7 -2578 15 -1334 8 -2595
15 -2802 15 l-378 0 0 -1229z"/>
</g>
</svg>
