<?xml version="1.0" standalone="no"?>
<!DOCTYPE svg PUBLIC "-//W3C//DTD SVG 20010904//EN"
 "http://www.w3.org/TR/2001/REC-SVG-20010904/DTD/svg10.dtd">
<svg version="1.0" xmlns="http://www.w3.org/2000/svg"
 width="1024.000000pt" height="1024.000000pt" viewBox="0 0 1024.000000 1024.000000"
 preserveAspectRatio="xMidYMid meet">
<metadata>
Created by potrace 1.10, written by Peter Selinger 2001-2011
</metadata>
<g transform="translate(0.000000,1024.000000) scale(0.100000,-0.100000)"
fill="#000000" stroke="none">
<path d="M2057 9263 c3 -36 22 -96 49 -158 l43 -99 -23 -21 c-19 -17 -24 -36
-30 -103 -7 -80 -8 -82 -48 -117 -28 -24 -52 -35 -73 -35 -17 0 -36 -5 -43
-12 -9 -9 -12 -6 -12 15 0 26 -2 27 -50 27 -47 0 -50 -2 -50 -25 0 -23 -4 -25
-45 -25 -25 0 -45 -3 -45 -7 0 -5 -11 -21 -25 -37 -14 -16 -25 -37 -25 -47 0
-9 -3 -24 -6 -33 -5 -12 5 -17 47 -22 45 -6 53 -11 63 -35 9 -25 16 -29 48
-29 36 0 38 -2 38 -32 0 -29 8 -38 70 -81 l70 -48 0 -128 c0 -70 3 -161 6
-202 l7 -75 -59 -18 c-33 -10 -64 -21 -71 -23 -6 -2 -14 5 -18 16 -4 14 -15
21 -30 21 -15 0 -26 7 -30 20 -12 39 -29 22 -58 -62 -6 -16 -9 -16 -41 -3 -29
12 -36 12 -45 1 -17 -20 -92 -26 -112 -9 -14 12 -23 11 -63 -9 l-47 -23 -19
25 c-14 19 -29 25 -62 27 -24 1 -70 5 -103 8 l-60 7 -40 -57 c-39 -56 -44 -60
-183 -122 l-143 -65 -85 12 c-84 12 -85 12 -122 -14 -78 -54 -98 -83 -206
-296 -60 -118 -121 -229 -135 -246 -14 -17 -50 -65 -78 -107 -38 -55 -65 -83
-95 -98 -90 -46 -118 -70 -118 -101 0 -38 14 -64 58 -110 29 -31 43 -38 74
-38 27 0 40 5 48 20 10 18 8 20 -20 20 -23 0 -30 4 -30 19 0 11 5 23 10 26 6
3 10 15 10 26 0 12 5 19 13 16 6 -2 27 9 45 26 35 34 45 20 15 -23 -37 -52
-12 -111 30 -72 30 29 29 108 -3 152 -14 20 -19 37 -14 48 4 9 15 40 25 67
l17 50 1 -51 c1 -47 3 -52 26 -56 33 -7 89 22 93 47 7 47 14 50 29 13 20 -51
46 -50 95 4 37 41 48 68 28 68 -5 0 -10 13 -10 28 l0 29 45 -43 c29 -28 43
-49 39 -59 -3 -8 -10 -15 -14 -15 -5 0 -32 -20 -61 -45 -29 -24 -68 -50 -88
-56 -20 -6 -52 -22 -72 -36 -31 -20 -37 -31 -42 -71 -8 -74 27 -97 69 -44 l23
27 -11 -45 c-6 -25 -25 -62 -41 -82 -25 -31 -28 -42 -23 -72 5 -27 12 -36 26
-36 11 0 20 6 20 13 0 20 50 63 93 81 20 8 37 12 37 9 0 -3 -18 -22 -40 -42
-39 -35 -40 -38 -29 -69 9 -27 8 -36 -5 -51 -20 -22 -21 -50 0 -58 25 -9 79
52 151 170 42 68 72 107 83 107 9 0 25 9 35 20 10 11 31 20 48 20 l30 0 -38
-30 c-21 -16 -46 -30 -56 -30 -21 0 -34 -23 -84 -143 -19 -44 -47 -93 -61
-108 -26 -27 -26 -29 -10 -54 20 -31 15 -42 -27 -53 -32 -8 -32 -8 -35 -80
l-3 -72 47 0 c33 0 54 6 68 19 12 11 34 23 49 26 l28 7 -20 -38 c-10 -22 -22
-56 -25 -76 -6 -33 -4 -39 29 -64 54 -41 65 -69 62 -162 -1 -44 1 -83 5 -87 4
-4 19 0 33 9 40 26 96 12 165 -44 42 -33 66 -46 80 -43 23 6 25 0 10 -28 -16
-29 4 -59 40 -59 16 0 32 5 35 10 3 6 16 10 27 10 20 0 20 -1 4 -18 -15 -18
-15 -21 7 -53 17 -25 31 -35 56 -37 46 -5 71 20 71 72 0 39 2 42 47 64 l48 23
-26 -28 c-22 -23 -28 -41 -32 -96 -2 -38 -2 -77 0 -88 4 -12 32 -34 72 -54 90
-46 160 -117 196 -196 35 -80 33 -78 53 -51 10 13 39 27 70 36 40 10 61 23 83
49 25 31 70 56 69 39 -1 -4 -13 -25 -28 -46 -18 -27 -49 -51 -97 -75 -38 -20
-62 -37 -54 -39 9 -2 24 -21 32 -44 16 -40 17 -41 58 -34 22 4 55 14 71 22 37
19 52 14 71 -26 15 -30 15 -31 -9 -40 -21 -8 -24 -16 -24 -62 0 -65 -15 -90
-108 -187 -40 -41 -70 -76 -68 -78 7 -7 61 21 87 45 18 16 46 26 85 32 33 4
62 6 65 4 3 -2 4 -17 1 -34 -6 -41 20 -80 49 -73 19 5 20 3 11 -12 -7 -13 -6
-30 4 -58 20 -55 31 -67 68 -67 35 0 57 14 74 45 10 18 11 17 12 -11 0 -19 -8
-38 -20 -49 -16 -14 -20 -31 -20 -76 0 -52 3 -60 28 -77 25 -18 30 -19 55 -6
20 11 27 22 27 44 0 26 7 33 53 55 l52 26 -38 -33 -38 -34 3 -124 c3 -109 5
-125 20 -128 12 -2 21 6 28 23 18 48 93 125 120 124 24 0 24 0 3 -9 -27 -11
-51 -46 -59 -88 -6 -30 -5 -32 22 -32 26 0 24 -3 -25 -30 -30 -16 -73 -49 -96
-72 -41 -41 -42 -44 -29 -70 8 -16 16 -28 19 -28 2 0 40 13 84 30 l80 29 21
-29 c18 -26 28 -30 66 -30 31 0 56 8 83 25 50 33 133 152 125 180 -3 14 6 35
28 63 l33 43 75 3 75 3 43 49 c24 27 50 64 57 82 9 21 21 32 34 32 37 0 131
130 131 181 0 18 18 46 55 88 30 34 55 71 55 81 0 11 16 37 35 59 19 21 54 79
76 127 23 49 42 90 44 92 4 5 349 102 362 102 6 0 14 -9 18 -19 4 -13 31 -28
79 -46 l73 -27 139 38 c76 21 144 41 150 46 7 5 15 24 18 43 4 19 10 36 14 38
4 2 207 -2 452 -9 245 -7 469 -13 498 -13 52 -1 53 -1 71 -44 10 -24 22 -61
25 -83 6 -36 12 -43 59 -66 47 -23 59 -37 115 -125 34 -55 69 -120 78 -145 11
-34 23 -49 45 -58 32 -14 49 -37 49 -69 0 -11 9 -25 20 -31 15 -8 20 -21 20
-55 0 -42 2 -45 32 -53 30 -8 32 -11 30 -48 -3 -47 47 -165 75 -175 10 -4 29
-8 43 -9 16 0 46 -20 81 -53 l55 -52 -4 -72 -4 -72 -44 -17 c-25 -9 -47 -21
-50 -25 -3 -5 -11 -43 -18 -85 -15 -84 -18 -79 59 -89 28 -4 71 -19 97 -33
l48 -27 0 -172 0 -171 26 -9 c22 -7 32 -24 60 -102 19 -51 31 -98 26 -105 -45
-73 -81 -106 -149 -136 -71 -32 -72 -32 -82 -81 -6 -28 -11 -57 -11 -66 0 -9
-17 -43 -39 -77 -79 -125 -92 -163 -40 -119 15 12 25 12 77 -1 115 -30 121
-28 237 81 129 121 171 140 252 112 51 -17 55 -17 123 2 69 19 180 26 180 12
1 -5 14 -23 30 -42 l29 -34 65 18 c39 11 83 16 110 13 43 -5 46 -4 102 53 l57
57 33 -15 c29 -14 34 -24 50 -87 9 -39 21 -79 26 -88 12 -24 45 -23 60 2 7 11
21 20 30 20 16 0 16 -4 4 -45 l-14 -44 33 13 c32 14 33 13 49 -20 11 -23 22
-34 34 -32 15 3 17 -9 20 -109 l3 -113 40 -32 c40 -32 41 -34 34 -82 -3 -27
-9 -61 -12 -77 -4 -23 0 -30 28 -44 19 -10 35 -18 37 -20 1 -1 -5 -24 -13 -51
-11 -36 -13 -75 -8 -151 5 -90 9 -105 29 -124 22 -20 24 -31 24 -108 0 -48 9
-126 20 -175 l20 -89 -62 -118 c-51 -94 -69 -121 -95 -133 -36 -17 -39 -24
-20 -49 11 -15 19 -14 101 6 l88 22 22 -28 c15 -19 31 -27 54 -27 17 0 47 -8
66 -17 30 -14 36 -23 42 -58 5 -36 18 -55 93 -129 l88 -87 86 36 c83 34 91 35
167 29 l80 -7 0 67 c0 83 20 117 118 201 l71 60 0 87 c1 63 7 101 22 142 l22
56 88 0 c49 0 89 -4 89 -9 0 -5 15 -27 33 -49 17 -21 41 -51 52 -65 11 -15 32
-29 47 -33 24 -5 29 -1 53 45 l25 51 58 0 c115 0 127 -6 183 -81 28 -38 54
-69 58 -69 3 0 55 95 115 212 l109 211 -12 59 -12 60 68 126 c65 121 70 127
113 143 50 19 50 19 17 104 l-23 60 -113 26 c-62 15 -117 33 -122 40 -10 16
-16 76 -24 225 l-6 111 36 31 c21 19 47 32 63 32 15 1 38 7 52 15 15 9 54 14
97 15 l72 0 41 -49 c22 -27 59 -63 80 -80 l40 -32 27 46 c16 25 30 45 33 45 3
0 21 -27 41 -59 l37 -59 72 -12 c39 -7 73 -10 75 -8 2 2 7 54 11 115 6 102 5
118 -16 172 l-22 61 22 37 22 37 -36 29 c-19 15 -56 58 -82 95 -57 80 -55 78
-110 86 -60 8 -107 33 -100 52 3 9 6 39 6 69 0 43 3 54 19 58 15 4 21 17 26
59 l7 55 56 26 c32 15 74 42 96 61 l39 33 -116 89 -115 89 20 35 c92 155 128
257 97 276 -7 4 -65 10 -129 14 -152 8 -194 26 -233 105 -25 51 -27 65 -27
179 0 141 15 268 40 341 17 49 17 52 -1 86 -24 44 -23 62 1 84 19 17 19 18 1
54 -10 20 -21 50 -24 66 -5 29 -2 33 81 86 l87 55 31 90 c18 49 43 119 57 155
l25 66 -79 47 c-69 41 -80 52 -91 87 -6 23 -17 43 -22 45 -6 2 -42 -5 -79 -15
l-68 -20 -10 27 c-91 235 -97 259 -110 453 l-12 185 43 74 43 74 -18 53 c-10
30 -24 62 -31 71 -6 9 -54 28 -105 42 l-94 26 -105 -65 c-167 -103 -153 -96
-187 -82 -32 13 -53 47 -53 86 0 18 8 26 35 35 43 14 59 39 45 74 -9 25 -7 26
30 32 l40 7 0 48 0 49 60 0 c75 0 107 14 115 51 6 26 12 29 58 35 68 9 101 41
91 87 -11 54 -33 75 -105 103 l-69 27 -12 59 c-13 65 -1 57 -138 91 l-55 13
-40 112 -40 112 -60 0 c-53 0 -65 4 -98 31 -36 29 -36 31 -22 59 32 62 58 185
59 277 1 92 1 92 -34 129 -19 20 -49 42 -65 49 -27 12 -33 22 -47 82 -9 37
-14 80 -11 95 4 19 0 29 -14 37 -58 34 -58 30 -9 140 l45 102 -81 104 c-45 58
-84 105 -88 105 -4 0 -96 14 -205 30 -109 17 -199 29 -200 28 -6 -9 -35 -91
-33 -92 2 -2 32 -24 68 -51 36 -27 66 -49 68 -51 2 -1 -16 -33 -40 -72 -32
-52 -53 -75 -80 -88 -37 -17 -37 -17 -79 15 -36 26 -45 29 -58 18 -9 -7 -42
-34 -74 -61 -46 -38 -73 -52 -138 -69 l-80 -22 -46 -105 c-25 -58 -47 -106
-48 -108 -2 -2 -40 23 -86 56 -119 83 -200 112 -315 112 -78 0 -93 3 -109 20
-10 11 -63 37 -119 58 -86 33 -137 50 -268 88 -13 4 -16 1 -12 -9 3 -10 -11
-24 -43 -43 -26 -15 -66 -40 -87 -56 -53 -38 -145 -150 -160 -196 -10 -28 -29
-48 -83 -85 l-70 -48 -35 16 c-28 14 -43 33 -76 101 -36 73 -42 93 -42 149 l0
64 -142 102 -141 101 -31 -17 c-73 -42 -91 -62 -105 -114 -11 -45 -20 -57 -66
-91 -38 -28 -54 -47 -59 -71 -21 -105 -22 -106 -78 -111 l-52 -5 -45 51 c-122
138 -196 207 -234 218 -43 13 -62 44 -54 88 3 14 1 32 -4 42 -11 20 6 66 34
89 10 8 18 26 17 40 -5 83 -3 123 6 126 6 2 20 10 30 18 18 13 18 14 1 32 -15
16 -33 18 -133 16 -93 -2 -136 -8 -224 -32 -101 -29 -111 -30 -148 -17 -30 11
-51 12 -83 5 -39 -9 -46 -7 -101 26 l-58 36 -112 -22 c-96 -19 -117 -26 -138
-50 -21 -24 -49 -34 -177 -67 l-152 -38 -7 42 -6 43 -72 24 c-63 21 -80 23
-132 15 l-59 -9 -35 39 c-34 39 -37 40 -120 46 -52 4 -89 12 -95 20 -6 7 -20
16 -33 20 -13 4 -55 37 -94 72 -100 90 -128 85 -128 -23 0 -69 -9 -77 -56 -47
-16 11 -37 15 -63 11 -32 -4 -43 -1 -60 17 -27 28 -26 35 4 92 43 81 28 154
-29 140 -13 -3 -37 -1 -53 4 -20 7 -38 7 -55 1 -19 -7 -31 -6 -45 4 -37 26
-85 33 -125 18 -35 -14 -39 -14 -70 9 -30 21 -47 24 -188 30 -85 3 -187 7
-227 7 l-72 1 6 -57z"/>
</g>
</svg>
