<?xml version="1.0" standalone="no"?>
<!DOCTYPE svg PUBLIC "-//W3C//DTD SVG 20010904//EN"
 "http://www.w3.org/TR/2001/REC-SVG-20010904/DTD/svg10.dtd">
<svg version="1.0" xmlns="http://www.w3.org/2000/svg"
 width="1024.000000pt" height="1024.000000pt" viewBox="0 0 1024.000000 1024.000000"
 preserveAspectRatio="xMidYMid meet">
<metadata>
Created by potrace 1.10, written by Peter Selinger 2001-2011
</metadata>
<g transform="translate(0.000000,1024.000000) scale(0.100000,-0.100000)"
fill="#000000" stroke="none">
<path d="M4200 10233 c-74 -8 -282 -54 -362 -79 -112 -35 -199 -81 -295 -153
-173 -130 -355 -363 -408 -520 -31 -94 -53 -121 -100 -121 l-35 0 0 -219 c0
-161 14 -426 55 -1016 30 -438 55 -856 55 -928 0 -109 436 -7126 443 -7133 1
-1 148 -9 327 -18 307 -15 1907 -36 2783 -36 290 0 337 2 337 15 0 13 58 51
65 43 1 -2 10 -18 19 -35 12 -24 23 -33 41 -33 22 0 25 4 25 35 0 27 -4 35
-19 35 -12 0 -23 14 -35 43 -9 24 -32 59 -51 77 l-35 34 21 23 22 22 31 -26
c29 -24 31 -25 35 -7 2 10 12 31 22 46 19 26 19 28 2 48 -10 11 -25 20 -33 20
-9 0 -24 6 -34 13 -16 12 -15 14 8 36 24 22 28 23 70 11 52 -14 51 -12 60
-201 4 -96 3 -111 -19 -157 l-24 -52 34 0 35 0 0 63 c0 69 -58 974 -66 1025
-5 30 -8 32 -45 32 l-39 0 20 -40 c11 -21 20 -45 20 -51 0 -7 10 -23 22 -36
l22 -23 -21 -28 c-29 -39 -53 -41 -53 -4 0 16 -3 31 -6 35 -6 6 -62 -34 -116
-82 l-28 -25 -6 32 c-4 21 -12 32 -24 32 -24 0 -31 10 -20 30 16 30 -10 50
-79 60 -66 9 -98 3 -120 -24 -7 -9 -24 -16 -37 -16 -14 0 -30 -10 -40 -26 -10
-14 -43 -38 -74 -54 -31 -16 -62 -35 -69 -44 -17 -20 -81 -22 -81 -2 0 8 14
24 30 36 33 24 40 60 14 81 -13 10 -20 10 -45 -5 -30 -18 -31 -17 -53 3 -12
12 -31 21 -42 21 -10 0 -25 4 -33 9 -11 7 -4 15 32 32 42 20 50 21 86 9 48
-16 77 -9 158 36 43 24 65 43 69 59 5 19 13 25 32 25 15 0 83 14 152 30 69 17
135 33 148 36 12 2 28 16 34 30 10 21 8 28 -9 45 -16 16 -39 22 -109 28 -49 4
-100 13 -114 21 -43 22 -80 63 -80 88 l0 23 57 -32 56 -32 -5 79 c-7 93 -36
177 -84 239 -19 25 -34 47 -34 50 0 13 35 2 89 -26 62 -33 81 -32 81 3 0 19 1
20 25 4 27 -18 55 -21 55 -6 0 15 32 12 54 -5 28 -21 36 -19 36 9 0 56 54 43
81 -20 29 -65 35 -159 15 -241 -14 -57 -16 -89 -9 -176 l9 -107 -43 0 c-31 0
-43 -4 -43 -15 0 -18 34 -27 85 -23 33 3 40 7 47 33 22 74 -3 352 -73 835 -38
261 -69 481 -69 490 0 8 -9 0 -21 -19 -96 -159 -316 -127 -529 76 -101 95
-254 272 -355 408 -37 50 -89 112 -117 139 -65 65 -196 246 -244 339 l-38 74
14 57 c25 107 -9 296 -80 437 -80 158 -170 256 -331 363 -85 56 -93 79 -95
271 -1 115 -6 175 -17 215 -9 30 -17 75 -17 99 0 24 -7 71 -16 104 -24 95 -13
172 42 280 41 80 44 93 44 163 0 67 -3 80 -26 107 -26 31 -27 43 -7 124 3 13
-3 29 -16 42 -24 24 -25 33 -10 76 20 55 4 97 -65 172 -74 80 -92 111 -101
178 -13 100 -15 105 -55 125 -21 11 -41 29 -45 39 -7 25 -61 68 -136 110 -65
36 -73 38 -59 12 15 -29 12 -71 -6 -78 -18 -7 -27 4 -51 66 -16 43 -16 45 5
82 28 49 28 54 -6 68 -46 19 -91 68 -98 109 -4 20 -22 64 -39 97 -18 33 -43
90 -55 128 -24 73 -82 159 -153 224 -24 22 -54 56 -67 74 -13 19 -46 55 -74
80 l-51 47 0 115 0 115 42 79 c23 44 49 105 57 134 13 42 45 264 46 313 0 5
-48 57 -107 116 -138 135 -167 185 -161 278 3 57 10 77 43 132 53 86 131 164
180 180 53 17 73 36 164 160 101 137 161 232 161 257 0 11 -9 28 -20 38 -29
26 -25 38 11 33 34 -5 40 1 70 90 11 31 42 90 69 132 27 41 58 99 68 127 52
137 117 205 245 253 48 18 87 36 87 40 0 14 -339 170 -421 194 -133 38 -324
54 -459 39z"/>
</g>
</svg>
