<?xml version="1.0" standalone="no"?>
<!DOCTYPE svg PUBLIC "-//W3C//DTD SVG 20010904//EN"
 "http://www.w3.org/TR/2001/REC-SVG-20010904/DTD/svg10.dtd">
<svg version="1.0" xmlns="http://www.w3.org/2000/svg"
 width="1024.000000pt" height="1024.000000pt" viewBox="0 0 1024.000000 1024.000000"
 preserveAspectRatio="xMidYMid meet">
<metadata>
Created by potrace 1.10, written by Peter Selinger 2001-2011
</metadata>
<g transform="translate(0.000000,1024.000000) scale(0.100000,-0.100000)"
fill="#000000" stroke="none">
<path d="M1270 8857 c-1 -6 -77 -1202 -169 -2657 l-169 -2645 22 -50 c23 -50
140 -243 270 -444 55 -85 65 -106 54 -116 -7 -7 -292 -183 -633 -390 -341
-208 -626 -383 -632 -389 -10 -9 29 -79 178 -319 182 -292 191 -309 180 -336
-7 -15 -11 -52 -9 -82 l3 -54 41 74 c33 59 43 70 48 54 4 -14 15 -19 41 -19
32 0 35 3 35 28 0 15 -4 28 -9 28 -6 0 -9 9 -8 20 2 24 20 26 37 5 16 -19 30
-19 30 0 0 8 5 15 11 15 7 0 9 -10 5 -26 -5 -19 -4 -24 6 -18 33 18 58 50 58
72 0 14 10 41 23 61 l22 36 3 -47 c2 -28 8 -48 15 -48 8 0 8 -3 -1 -12 -13
-13 -17 -48 -5 -48 4 0 26 18 49 41 l41 41 22 -31 c12 -17 26 -31 30 -31 5 0
21 19 36 42 16 24 30 37 32 31 9 -25 33 0 33 33 0 32 1 33 23 23 12 -7 29 -15
37 -19 8 -4 16 -23 18 -44 4 -50 36 -50 52 0 11 32 10 38 -10 59 l-22 23 25
17 c14 9 34 15 44 13 11 -1 31 5 46 15 l28 18 -21 26 c-11 14 -20 37 -20 50 0
21 3 23 23 18 56 -17 89 -64 55 -78 -10 -4 -10 -6 0 -6 6 -1 12 -8 12 -17 0
-14 3 -14 16 -3 13 10 17 10 25 -2 5 -8 9 -20 9 -26 0 -7 5 -13 10 -13 6 0 10
6 10 14 0 7 7 19 15 26 12 10 13 16 3 27 -9 11 -9 16 1 23 8 4 11 12 7 18 -10
17 5 44 22 37 8 -3 21 0 28 6 16 13 34 4 34 -17 0 -12 3 -12 24 1 18 12 30 13
50 5 37 -14 36 -14 36 18 0 33 15 59 24 43 12 -19 26 -12 26 14 0 15 10 31 26
42 25 16 27 16 40 -2 20 -28 28 -11 11 24 -10 20 -11 33 -5 39 10 10 6 27 -16
83 -5 12 0 16 23 16 26 0 32 -6 46 -43 26 -68 38 -71 59 -14 10 28 28 58 40
68 18 14 21 21 12 35 -9 14 -4 24 27 54 l37 38 0 -33 c0 -22 5 -32 15 -32 9 0
27 -8 42 -17 24 -16 26 -16 39 2 8 10 14 26 14 34 0 25 38 81 54 81 26 0 30
-23 7 -41 -47 -38 10 -54 67 -19 24 15 43 19 67 14 30 -5 35 -3 49 24 13 25
74 77 124 107 12 6 12 3 2 -16 -7 -13 -17 -27 -22 -30 -4 -3 14 -20 42 -38 48
-31 52 -32 75 -17 59 39 95 80 114 131 19 50 19 57 6 90 -14 31 -14 35 0 35
16 0 45 -49 45 -75 0 -28 19 -6 30 35 8 29 21 46 58 70 28 19 48 26 50 20 3
-7 -1 -17 -7 -23 -22 -22 -10 -25 26 -6 21 10 44 19 53 19 8 0 23 7 34 15 18
13 18 15 -3 41 -32 40 -25 73 8 42 11 -10 14 -10 18 0 8 22 24 12 21 -14 -2
-18 4 -31 20 -41 21 -14 22 -14 22 6 0 19 8 25 27 19 5 -2 6 -9 5 -17 -2 -8 2
-18 10 -22 10 -7 10 -9 1 -9 -23 0 -14 -30 13 -42 20 -10 30 -9 54 5 45 27 52
23 48 -33 -4 -58 -1 -59 92 -33 59 16 71 25 50 38 -6 4 -8 21 -4 41 6 34 -9
69 -27 59 -4 -3 -20 -3 -35 1 -25 6 -26 10 -21 51 5 49 54 154 74 161 7 2 16
-3 19 -12 10 -27 -4 -62 -31 -74 -15 -7 -25 -20 -25 -32 0 -24 13 -26 30 -5
17 21 54 19 75 -5 18 -20 18 -19 53 30 21 31 50 57 77 70 23 11 47 31 53 44 6
13 40 44 76 69 54 38 66 43 66 28 0 -10 -7 -24 -15 -31 -18 -15 -18 -20 -1
-43 14 -18 16 -18 40 -2 25 16 50 16 88 0 14 -5 23 4 44 49 17 36 37 62 59 75
21 12 37 32 45 55 10 31 14 34 30 26 33 -18 47 -11 59 30 18 59 75 114 142
135 30 10 64 24 74 31 18 13 18 14 -2 36 -44 49 -58 108 -25 108 10 0 23 -5
28 -10 7 -7 20 7 39 46 20 40 37 59 57 66 15 6 28 16 28 24 0 15 32 18 64 5
17 -6 15 -10 -14 -35 l-33 -27 6 -79 c4 -67 9 -85 31 -111 33 -39 33 -62 -1
-87 -24 -17 -26 -23 -16 -44 10 -22 17 -25 75 -25 86 -2 171 22 164 45 -4 12
5 24 29 41 41 28 65 22 66 -16 0 -25 3 -22 27 25 17 34 31 51 40 47 7 -3 26
-5 40 -5 43 0 56 -13 42 -39 -9 -18 -14 -20 -26 -10 -22 18 -42 -4 -24 -26 18
-21 33 -19 60 10 13 14 51 39 83 55 47 23 63 27 74 18 11 -8 25 -6 65 13 l51
24 24 -32 c21 -27 28 -30 43 -21 25 16 50 3 50 -27 l0 -26 45 31 c44 30 72 32
61 4 -4 -12 -2 -12 15 -3 48 25 69 -27 23 -57 -22 -15 -24 -19 -10 -32 12 -13
18 -13 30 -2 9 7 25 10 37 7 17 -5 24 2 40 38 13 28 24 42 33 39 8 -3 15 5 19
23 4 18 20 37 44 52 l37 24 14 -22 c18 -27 39 -26 135 4 75 24 81 25 136 10
44 -11 66 -12 95 -4 68 19 103 5 176 -73 51 -53 72 -69 89 -66 23 3 23 3 -8
42 l-31 38 61 29 c76 36 88 36 96 -1 4 -21 11 -30 24 -30 11 0 19 -5 19 -12 0
-7 17 4 38 24 55 54 124 73 171 48 14 -7 25 -2 51 25 39 40 66 44 146 18 50
-15 55 -15 72 0 12 11 36 17 68 17 28 0 56 6 63 12 22 23 53 -28 49 -80 -3
-39 -1 -43 17 -37 11 4 40 8 64 10 23 2 54 11 67 20 13 8 35 15 49 15 15 0 24
4 21 8 -6 10 -77 8 -118 -3 -26 -7 -28 -5 -28 24 0 36 26 51 87 51 36 0 36 0
18 20 -16 18 -20 19 -35 5 -31 -28 -50 -19 -50 23 0 20 5 44 10 52 9 13 12 13
24 -3 18 -24 20 -19 42 96 10 53 22 97 28 97 25 -1 32 -19 32 -82 -1 -56 3
-70 22 -91 15 -16 20 -27 13 -32 -18 -10 -13 -31 15 -64 58 -69 61 -9 4 75
-22 33 -40 63 -40 67 0 5 12 7 27 5 23 -2 31 -12 50 -62 27 -69 30 -73 45 -58
7 7 16 12 20 12 14 0 9 -27 -7 -40 -12 -10 -13 -16 -4 -26 16 -19 61 -17 148
6 41 11 91 20 111 20 50 0 80 24 80 63 0 42 14 66 24 41 5 -13 9 -15 18 -6 15
15 51 15 65 1 12 -12 43 24 43 52 0 9 7 22 15 29 12 10 15 7 20 -17 16 -75 41
-138 56 -141 13 -2 14 5 6 62 -9 60 -8 68 18 121 20 41 36 61 59 71 17 7 27
13 22 14 -6 0 -5 5 2 12 19 19 14 37 -8 31 -16 -4 -20 0 -20 21 0 16 6 26 14
26 13 0 12 9 -4 55 -23 67 -35 140 -25 155 13 21 26 -10 49 -114 7 -27 8 -27
25 -12 17 16 19 14 36 -30 16 -43 16 -49 2 -79 -11 -22 -12 -36 -5 -43 7 -7 7
-16 0 -28 -15 -27 23 -124 49 -124 5 0 9 8 9 17 0 15 73 93 87 93 2 0 1 -22
-3 -48 -5 -42 -3 -52 18 -76 20 -24 33 -28 83 -31 33 -2 68 -4 79 -5 34 -2
126 103 126 144 0 12 -11 38 -25 58 -29 43 -31 66 -8 83 17 12 17 14 -1 34
-15 17 -17 24 -8 33 7 7 12 22 12 33 0 20 45 74 53 64 2 -2 9 -38 16 -79 6
-41 18 -109 27 -151 15 -70 19 -78 49 -92 36 -17 35 -18 59 57 5 15 9 16 21 6
8 -7 12 -16 9 -21 -3 -5 1 -9 9 -9 23 0 69 81 64 113 -5 39 9 43 22 5 16 -46
14 -64 -13 -107 l-25 -39 25 -23 c13 -12 26 -21 28 -18 13 15 25 51 31 92 l7
47 29 -44 c22 -35 27 -53 22 -80 -4 -27 -1 -36 15 -45 18 -10 21 -6 32 36 10
44 10 48 -10 63 -20 15 -20 17 -5 30 15 12 19 12 31 -4 7 -10 15 -22 16 -26 2
-4 13 -10 25 -14 16 -5 25 -2 33 14 10 18 8 24 -9 37 -12 8 -21 25 -21 39 0
21 4 23 24 18 21 -5 30 2 62 45 22 30 41 46 45 40 5 -8 12 -8 26 0 25 13 33 6
33 -28 0 -21 7 -28 37 -38 32 -10 41 -9 56 5 16 15 21 13 61 -27 l43 -43 7 26
c4 15 1 36 -5 47 -9 18 -7 25 10 43 17 17 23 18 30 7 6 -9 11 -10 15 -2 4 6
11 11 17 11 12 0 12 -37 -1 -45 -11 -7 -14 -58 -4 -68 11 -11 77 46 106 92 15
25 28 38 28 30 0 -7 5 -30 10 -51 8 -29 14 -35 31 -31 27 7 63 -25 48 -44 -9
-10 -8 -13 5 -13 9 0 16 -7 16 -15 0 -11 8 -9 35 8 130 81 129 80 91 150 l-28
54 27 43 c23 37 26 47 15 63 -9 16 -9 21 0 27 17 11 5 55 -22 82 -38 38 -38
178 0 178 9 0 40 12 69 27 l53 26 35 -19 c22 -12 38 -15 44 -9 10 11 51 1377
51 1680 0 105 -9 496 -20 870 -10 374 -24 919 -31 1210 -6 292 -12 531 -13
532 -1 1 -339 7 -751 13 -413 6 -797 15 -855 20 -152 15 -2248 49 -2344 38
-45 -4 -105 -19 -140 -34 -88 -38 -131 -41 -168 -14 -23 17 -52 24 -131 31
-56 5 -160 17 -232 25 -181 21 -475 7 -402 -19 8 -3 0 -17 -23 -41 -26 -28
-31 -39 -22 -45 16 -10 6 -60 -14 -68 -8 -3 -14 -14 -14 -24 0 -11 -10 -24
-22 -29 -29 -12 -181 -40 -219 -40 l-29 0 0 135 c0 132 0 135 -22 139 -13 2
-350 9 -750 16 -420 6 -882 19 -1095 30 -348 18 -799 33 -1405 44 -209 5 -268
3 -268 -7z"/>
</g>
</svg>
