<?xml version="1.0" standalone="no"?>
<!DOCTYPE svg PUBLIC "-//W3C//DTD SVG 20010904//EN"
 "http://www.w3.org/TR/2001/REC-SVG-20010904/DTD/svg10.dtd">
<svg version="1.0" xmlns="http://www.w3.org/2000/svg"
 width="1024.000000pt" height="1024.000000pt" viewBox="0 0 1024.000000 1024.000000"
 preserveAspectRatio="xMidYMid meet">
<metadata>
Created by potrace 1.10, written by Peter Selinger 2001-2011
</metadata>
<g transform="translate(0.000000,1024.000000) scale(0.100000,-0.100000)"
fill="#000000" stroke="none">
<path d="M2748 10220 c-20 -11 -41 -28 -47 -37 -5 -10 -24 -22 -43 -28 -27
-10 -34 -17 -36 -45 -2 -22 -18 -50 -44 -79 -22 -25 -46 -58 -54 -73 -19 -37
-88 -72 -113 -59 -12 7 -34 6 -69 -3 -72 -19 -100 -43 -104 -88 l-3 -37 -43
19 c-40 18 -44 18 -86 3 l-44 -16 -39 30 c-45 36 -57 39 -100 29 -35 -8 -73
-58 -73 -95 0 -16 -6 -21 -27 -21 -18 0 -40 -13 -65 -37 -35 -34 -42 -37 -125
-44 -48 -4 -89 -8 -90 -8 -2 -1 -3 -8 -3 -16 0 -9 -10 -29 -22 -45 -17 -24
-19 -34 -11 -53 10 -21 8 -25 -17 -34 -32 -12 -47 -64 -30 -107 10 -28 29 -33
60 -14 25 16 60 -13 52 -44 -4 -17 -10 -19 -42 -14 -39 6 -50 -3 -50 -40 0
-22 59 -54 89 -48 15 3 41 -3 61 -13 29 -15 35 -24 37 -51 1 -32 0 -33 -29
-27 -55 13 -66 -44 -18 -90 35 -34 38 -50 10 -67 -11 -7 -20 -20 -20 -29 0
-10 -12 -20 -27 -24 -16 -4 -22 -10 -15 -12 18 -7 15 -22 -13 -59 -33 -43 -32
-51 10 -68 19 -8 35 -22 35 -30 0 -23 13 -26 52 -14 28 8 46 7 84 -6 26 -9 57
-16 69 -16 12 0 34 -13 49 -29 23 -24 26 -32 17 -50 -10 -17 -23 -21 -84 -23
l-72 -3 -9 -43 c-7 -33 -5 -56 8 -98 l17 -54 -32 -28 c-36 -32 -36 -57 3 -105
18 -22 34 -29 77 -34 47 -5 56 -10 82 -46 16 -22 29 -46 29 -53 0 -6 34 -26
76 -44 61 -25 85 -31 118 -26 91 14 89 14 99 -25 10 -41 27 -48 121 -50 28 0
71 -4 95 -7 44 -7 45 -8 64 -66 22 -67 17 -76 -46 -76 -28 0 -50 9 -84 35 -54
41 -111 49 -120 15 -6 -24 -15 -24 -79 -5 -27 8 -62 15 -78 15 -26 0 -28 -3
-23 -27 4 -19 -2 -42 -19 -70 l-25 -43 -68 0 c-61 0 -69 -2 -78 -22 -9 -20 -5
-29 24 -61 18 -21 31 -43 27 -49 -4 -6 -8 -62 -8 -125 l-1 -113 35 0 c28 0 39
-7 57 -32 l22 -32 -42 -24 c-23 -14 -52 -34 -65 -46 -17 -15 -43 -22 -99 -27
-81 -8 -84 -10 -103 -69 -21 -64 -12 -72 72 -64 70 6 77 10 170 75 53 38 101
69 106 69 5 0 21 -9 35 -20 20 -16 31 -18 49 -11 44 17 139 -2 190 -37 59 -40
66 -62 37 -109 -17 -26 -22 -49 -20 -83 2 -36 -2 -50 -18 -64 -15 -13 -21 -31
-21 -60 0 -59 -28 -125 -55 -132 -18 -4 -32 -27 -60 -94 -20 -49 -43 -91 -51
-94 -8 -3 -14 -17 -14 -30 0 -20 -7 -27 -32 -34 -32 -8 -33 -10 -31 -58 5 -87
0 -94 -61 -94 l-53 0 -6 -35 c-4 -25 0 -45 13 -68 10 -18 21 -61 25 -97 l7
-65 -36 -17 c-40 -19 -56 -59 -37 -89 6 -10 11 -30 11 -43 0 -14 6 -29 13 -33
8 -4 17 -26 20 -48 8 -48 37 -75 81 -75 23 0 41 -9 61 -30 31 -32 56 -37 94
-16 22 12 93 8 108 -8 3 -3 16 -47 27 -98 l22 -93 47 -23 c25 -12 57 -36 69
-52 20 -28 26 -30 64 -24 41 6 41 5 37 -21 -4 -17 1 -33 14 -48 10 -12 24 -34
31 -49 6 -16 18 -28 26 -28 8 0 33 -16 56 -35 41 -34 70 -45 70 -25 0 6 7 10
15 10 8 0 15 -4 15 -10 0 -5 7 -10 16 -10 12 0 14 -7 9 -32 -11 -49 -21 -64
-52 -77 -16 -6 -41 -32 -57 -57 l-29 -46 -126 7 c-113 7 -132 10 -200 42 -90
41 -156 63 -193 63 -16 0 -28 -1 -28 -3 0 -2 11 -35 24 -74 19 -56 48 -103
132 -215 59 -79 138 -178 176 -221 37 -43 77 -95 88 -117 11 -21 27 -43 36
-48 9 -5 27 -34 38 -63 18 -44 20 -62 13 -96 -5 -27 -14 -43 -23 -43 -11 0
-14 -14 -14 -60 0 -68 -12 -80 -79 -80 -23 0 -41 -4 -41 -8 0 -5 -6 -17 -14
-27 -13 -18 -16 -14 -50 53 -32 64 -39 72 -65 72 -15 0 -39 -9 -53 -19 -13
-11 -42 -22 -64 -26 -67 -11 -71 -14 -84 -58 -7 -23 -18 -51 -26 -62 -17 -23
-17 -55 -1 -112 11 -39 23 -51 152 -143 116 -83 145 -100 176 -100 37 0 37 0
64 -75 27 -73 28 -74 81 -96 57 -24 59 -27 79 -129 10 -46 22 -60 54 -60 20 0
47 -21 111 -87 69 -72 89 -99 106 -148 23 -67 29 -69 111 -44 40 12 45 11 104
-20 47 -24 64 -29 70 -20 6 10 18 6 49 -15 l42 -28 28 27 27 26 61 -94 c54
-81 69 -96 117 -120 37 -18 53 -31 49 -41 -3 -8 12 -28 40 -51 41 -34 48 -36
90 -30 42 7 53 3 170 -59 69 -36 136 -66 150 -66 46 0 54 -8 46 -47 -6 -26 -4
-46 11 -80 10 -25 19 -46 19 -48 0 -8 -67 -33 -101 -38 -76 -11 -106 -32 -139
-96 -30 -60 -31 -61 -71 -61 -23 0 -73 11 -112 25 l-72 26 -89 -31 c-50 -16
-102 -30 -118 -30 -33 0 -47 -23 -41 -68 4 -24 20 -45 59 -79 30 -26 54 -51
54 -56 0 -17 52 -76 84 -95 27 -16 34 -29 45 -76 7 -31 10 -74 6 -95 -5 -32
-3 -39 17 -48 45 -20 147 -117 153 -145 4 -14 24 -47 46 -71 32 -37 38 -50 33
-74 -4 -19 3 -48 20 -87 15 -33 26 -77 26 -101 0 -53 21 -76 48 -51 23 20 38
20 46 0 5 -14 9 -13 32 5 l25 20 107 -69 c128 -83 166 -119 230 -227 55 -91
74 -153 71 -227 -3 -69 9 -114 32 -126 34 -19 70 -106 76 -184 l5 -71 -41 -38
c-51 -47 -53 -77 -10 -135 17 -23 34 -42 37 -42 4 0 29 7 56 15 28 8 64 13 80
10 28 -5 36 0 89 64 34 42 57 79 57 93 -1 13 -9 57 -19 98 -15 68 -16 82 -3
150 16 89 32 110 82 110 29 0 41 6 54 25 13 20 25 25 56 25 33 0 44 6 70 38
26 33 43 42 113 62 71 20 91 32 149 82 l66 59 59 -26 c32 -14 79 -47 106 -73
42 -41 47 -51 47 -89 0 -39 2 -43 26 -43 14 0 35 -5 46 -11 15 -8 31 -7 64 6
48 18 54 34 33 93 -10 28 -6 37 57 131 l66 100 52 3 c50 3 51 4 54 36 2 18 10
36 17 39 20 7 103 -26 118 -47 11 -16 17 -16 93 7 l81 24 36 -36 c20 -20 45
-35 59 -35 27 0 103 33 112 49 4 6 23 11 41 11 29 0 39 6 57 35 13 19 30 35
38 35 9 0 24 16 34 35 32 59 42 62 79 27 20 -19 43 -32 59 -32 21 0 29 8 44
46 l19 46 58 -47 c53 -43 64 -48 119 -51 41 -3 67 1 80 10 16 11 26 12 45 3
21 -9 27 -8 40 8 9 13 23 19 38 17 16 -2 28 4 37 17 9 16 23 21 52 21 31 0 47
7 72 31 30 29 35 31 62 20 16 -7 53 -37 83 -67 29 -29 58 -54 64 -54 6 0 21
14 33 30 20 27 28 30 76 30 l53 0 18 66 c16 61 21 68 64 95 46 28 47 30 75
128 l27 99 -19 39 c-13 24 -52 63 -101 102 -45 35 -81 64 -81 65 0 23 34 165
44 185 10 18 13 42 9 64 -4 27 0 43 16 65 46 65 45 73 -15 156 -29 42 -54 83
-54 92 0 8 15 23 33 32 17 9 50 35 71 57 33 33 45 39 75 36 28 -2 42 4 60 22
l23 25 63 -29 64 -29 43 20 c24 11 57 20 74 20 46 0 83 53 100 143 8 39 19 74
26 79 174 103 172 102 207 168 19 35 47 75 63 88 44 37 55 68 63 173 l7 97
-38 12 c-83 27 -135 85 -220 245 -60 111 -110 158 -201 185 -60 18 -78 29
-103 60 -23 29 -40 40 -71 45 -30 5 -45 15 -62 40 -17 26 -31 35 -64 40 -31 4
-43 11 -43 23 0 9 -18 66 -40 126 -34 94 -40 121 -40 191 l0 80 -80 80 c-75
74 -80 82 -80 122 0 23 -14 75 -31 119 l-31 77 21 54 c15 38 21 78 21 131 0
55 6 90 20 121 12 25 20 65 20 96 l0 52 91 19 c87 17 93 20 116 56 19 28 40
43 84 60 l59 23 0 87 c0 103 7 126 60 186 46 51 69 118 61 170 -6 35 -9 37
-116 83 -61 26 -120 58 -133 70 -29 30 -56 105 -71 193 -7 38 -21 86 -31 106
l-19 38 50 4 c60 6 99 37 99 80 0 31 16 68 34 80 23 16 79 7 136 -22 85 -43
140 -39 161 12 40 96 -46 198 -180 211 -63 7 -64 7 -160 96 -90 83 -101 90
-159 101 l-62 13 -38 -35 c-26 -24 -57 -40 -93 -48 -72 -17 -70 -15 -128 -90
-34 -45 -68 -108 -108 -204 -53 -126 -61 -140 -91 -153 -55 -23 -112 5 -181
89 -46 56 -58 80 -72 139 -9 39 -23 77 -31 85 -8 8 -78 32 -156 54 -122 34
-161 41 -275 46 -207 8 -249 26 -262 106 -12 85 -16 93 -48 115 -39 27 -156
51 -218 45 -61 -5 -80 6 -134 80 -43 59 -44 62 -29 89 15 29 40 35 134 32 58
-2 156 20 178 40 23 21 30 78 13 106 -5 7 -53 32 -108 55 -82 34 -107 50 -147
94 -45 48 -48 55 -38 77 8 17 20 25 36 25 44 0 53 10 86 94 30 78 35 85 85
115 52 31 53 33 44 64 -5 18 -9 33 -9 34 0 14 -68 73 -90 78 -16 3 -47 24 -69
46 -38 38 -42 40 -98 38 -95 -3 -174 11 -235 43 -71 38 -91 60 -113 126 -9 28
-19 52 -22 52 -4 0 -26 -12 -51 -26 l-44 -26 -27 26 c-15 14 -35 26 -44 26 -9
0 -25 8 -35 18 -10 10 -33 24 -52 32 -19 7 -75 53 -125 101 -49 48 -99 89
-110 91 -13 2 -26 21 -40 58 -20 53 -22 54 -83 74 -73 23 -77 37 -27 86 53 51
47 87 -27 167 l-38 43 16 37 c33 78 35 89 29 144 -5 39 -2 73 9 109 33 111 10
151 -50 86 -34 -37 -61 -44 -107 -27 -26 10 -99 131 -113 186 -9 36 -79 153
-107 178 -13 12 -36 17 -74 17 -59 0 -88 21 -113 80 -9 22 -22 32 -51 40 -22
5 -57 15 -78 20 -44 12 -105 77 -95 103 9 24 -51 130 -99 174 -25 23 -47 52
-49 64 -2 16 -14 25 -47 35 -24 7 -54 22 -66 34 -20 19 -31 21 -72 15 -43 -6
-51 -4 -72 19 -32 34 -56 33 -98 -5 l-36 -31 -36 35 c-60 57 -137 67 -193 23
-46 -35 -158 -86 -188 -86 -24 0 -62 23 -160 98 -42 31 -46 32 -139 32 -75 -1
-104 -5 -133 -20z"/>
</g>
</svg>
