<?xml version="1.0" standalone="no"?>
<!DOCTYPE svg PUBLIC "-//W3C//DTD SVG 20010904//EN"
 "http://www.w3.org/TR/2001/REC-SVG-20010904/DTD/svg10.dtd">
<svg version="1.0" xmlns="http://www.w3.org/2000/svg"
 width="1024.000000pt" height="1024.000000pt" viewBox="0 0 1024.000000 1024.000000"
 preserveAspectRatio="xMidYMid meet">
<metadata>
Created by potrace 1.10, written by Peter Selinger 2001-2011
</metadata>
<g transform="translate(0.000000,1024.000000) scale(0.100000,-0.100000)"
fill="#000000" stroke="none">
<path d="M1297 10226 c-30 -8 -63 -28 -86 -50 -31 -31 -48 -39 -97 -46 -102
-14 -116 -20 -110 -44 3 -11 10 -51 17 -87 l12 -67 103 -92 c96 -87 105 -98
148 -190 46 -97 46 -98 46 -205 0 -98 2 -111 24 -139 53 -70 57 -88 41 -161
-10 -40 -13 -84 -10 -109 6 -40 5 -44 -28 -69 -20 -15 -48 -27 -64 -27 -15 0
-47 -13 -71 -29 -24 -17 -63 -32 -91 -36 -56 -8 -58 -10 -130 -124 -58 -91
-58 -96 12 -107 55 -10 52 -45 -9 -98 -36 -33 -47 -49 -51 -81 -5 -38 -3 -41
32 -58 30 -14 43 -15 74 -6 34 10 43 8 100 -21 55 -27 67 -30 93 -21 17 6 35
11 39 11 19 0 38 -74 41 -164 3 -96 3 -96 -28 -127 -19 -19 -58 -40 -95 -53
-61 -20 -64 -23 -67 -56 -4 -40 -34 -76 -134 -157 l-68 -54 0 -64 0 -64 -41
-23 c-32 -18 -54 -45 -104 -128 -47 -78 -79 -118 -124 -155 -52 -43 -62 -58
-77 -109 -17 -58 -18 -59 -83 -88 -52 -23 -71 -28 -91 -20 -22 8 -31 3 -77
-41 l-52 -50 -39 15 -40 15 -6 -45 c-3 -24 -6 -84 -6 -131 -1 -47 -7 -115 -15
-151 -8 -36 -14 -92 -15 -125 0 -55 4 -66 37 -113 23 -31 52 -57 73 -66 26
-10 43 -28 65 -69 29 -55 29 -56 17 -126 -28 -162 -15 -252 46 -321 28 -32 65
-96 98 -166 l53 -115 -23 -34 c-13 -18 -29 -47 -36 -64 -10 -25 -18 -31 -42
-31 -16 0 -48 -5 -72 -11 -39 -10 -43 -14 -55 -57 -8 -26 -16 -82 -20 -125
l-6 -78 30 -7 c24 -7 38 -23 70 -80 22 -39 62 -94 89 -121 l49 -50 50 25 c78
40 109 30 194 -64 38 -42 107 -133 152 -202 46 -69 101 -144 123 -166 39 -41
40 -42 24 -72 -9 -17 -16 -38 -16 -47 0 -8 -11 -21 -25 -27 -14 -6 -25 -14
-25 -18 0 -10 44 -118 78 -190 17 -36 36 -99 42 -140 10 -60 20 -86 52 -130
88 -123 108 -159 108 -195 0 -31 3 -35 25 -35 19 0 30 -10 49 -47 13 -27 33
-56 44 -67 18 -15 20 -26 15 -67 -3 -29 -1 -54 5 -62 6 -7 10 -22 10 -32 -3
-38 33 -125 51 -125 30 0 61 -30 61 -59 0 -16 10 -37 25 -51 14 -13 25 -35 25
-49 0 -14 3 -37 7 -49 5 -21 10 -23 37 -17 88 18 94 17 158 -14 35 -16 76 -41
91 -55 25 -23 26 -30 22 -83 l-5 -58 73 -56 73 -56 27 19 c22 16 33 18 59 10
18 -6 50 -13 70 -17 35 -5 37 -8 32 -34 -4 -21 1 -40 21 -70 30 -45 33 -46 84
-31 56 16 110 2 157 -42 42 -38 43 -39 106 -33 34 3 85 2 113 -2 48 -8 49 -9
60 -52 10 -42 11 -43 82 -66 40 -12 96 -26 125 -29 45 -6 58 -12 81 -41 22
-28 35 -35 63 -35 26 0 45 -9 78 -40 27 -25 53 -40 69 -40 14 0 30 -6 34 -14
21 -37 104 -86 179 -106 43 -11 85 -20 94 -20 9 0 32 -16 51 -36 55 -58 75
-64 201 -64 112 0 114 0 173 -36 33 -20 70 -45 83 -57 20 -19 24 -19 38 -5 9
9 18 41 21 77 5 53 10 65 33 81 45 32 62 26 100 -36 18 -31 46 -66 62 -77 15
-11 31 -30 34 -41 4 -11 31 -46 60 -76 29 -31 61 -74 70 -96 9 -21 41 -71 70
-110 l55 -71 5 -164 c3 -90 5 -175 6 -189 0 -14 -2 -46 -7 -71 -6 -41 -3 -54
34 -129 42 -87 49 -125 30 -179 -9 -26 -8 -36 6 -57 16 -26 16 -27 -14 -58
-27 -28 -31 -39 -31 -88 0 -53 3 -59 44 -101 24 -25 58 -76 77 -113 30 -60 40
-72 81 -92 51 -24 64 -48 56 -102 -4 -27 -1 -31 31 -39 20 -5 162 -11 316 -13
331 -4 357 1 381 62 9 22 23 40 31 40 7 0 26 12 41 27 23 23 34 26 76 24 55
-3 100 -27 92 -47 -4 -8 -9 -20 -12 -28 -4 -11 6 -18 38 -26 128 -33 162 -58
172 -124 6 -38 11 -45 44 -58 31 -12 43 -12 72 -2 19 7 48 13 63 13 16 1 37 6
48 11 16 9 25 5 53 -25 29 -30 39 -35 80 -35 36 0 57 7 84 27 63 46 112 96
112 115 0 23 9 23 40 1 20 -15 56 -19 195 -24 147 -5 176 -9 212 -28 35 -17
60 -21 141 -21 109 0 91 -7 269 100 51 30 53 33 79 114 l25 83 152 6 c202 9
253 -4 297 -73 l30 -47 53 9 c30 6 62 19 77 33 28 26 106 45 183 45 49 0 56 4
113 53 l62 54 161 6 161 5 49 35 c27 20 72 43 101 51 28 8 77 31 109 51 32 19
65 35 73 35 70 0 328 111 447 193 42 29 98 73 124 100 44 44 52 47 98 47 53 0
72 13 103 70 20 37 27 110 14 151 -9 33 -8 38 16 62 34 34 33 44 -6 61 -27 11
-35 11 -44 0 -7 -8 -24 -11 -52 -7 l-41 6 -3 61 -3 61 -37 3 c-26 2 -38 -1
-38 -10 0 -7 -4 -19 -9 -27 -8 -12 -20 -7 -66 25 -31 21 -72 56 -91 76 l-34
38 0 -30 c0 -23 -4 -30 -20 -30 -16 0 -20 7 -20 31 0 18 -5 49 -12 71 -24 81
-124 95 -194 27 l-34 -33 0 30 c0 21 11 40 38 67 21 20 43 37 50 37 7 0 12 7
12 15 0 8 8 22 19 31 18 16 18 19 -16 113 -19 53 -42 124 -51 159 -13 48 -25
69 -50 89 -19 14 -38 36 -43 49 -5 14 -20 29 -35 34 -22 9 -24 13 -14 25 7 8
21 15 31 15 10 0 25 12 33 28 12 23 12 31 0 52 -7 14 -14 39 -14 55 0 38 -8
48 -47 69 l-33 17 0 -31 c0 -27 -3 -31 -22 -28 -19 2 -24 10 -26 41 -3 34 -1
37 23 37 30 0 45 30 45 90 0 47 -27 70 -83 70 -35 0 -38 2 -31 23 10 32 8 32
80 18 56 -12 68 -11 75 0 18 29 9 57 -26 79 -20 12 -42 34 -49 49 -8 15 -26
33 -40 41 -28 15 -33 41 -16 86 8 20 7 31 -4 43 -32 36 -64 121 -74 191 -9 68
-8 78 9 102 13 19 19 44 19 83 l0 55 41 -6 41 -7 -3 44 c-3 39 -1 44 21 49 19
4 26 13 28 38 4 41 -10 41 -90 1 l-61 -31 6 36 c5 30 3 36 -12 36 -13 0 -21
10 -25 31 -9 47 3 77 40 100 l34 21 -7 163 -6 164 25 6 c21 5 29 19 48 82 13
41 33 81 43 88 16 11 17 17 7 35 -15 28 -9 34 23 19 35 -16 76 -4 87 27 17 43
11 151 -11 219 -20 63 -22 66 -63 76 -33 8 -47 18 -58 42 -14 28 -44 66 -134
168 -25 28 -101 92 -159 134 -22 16 -59 46 -81 68 -31 29 -47 37 -62 33 -19
-7 -20 -5 -11 26 5 18 9 63 9 101 0 63 -3 71 -39 120 -54 72 -58 100 -27 187
14 39 26 82 26 94 0 13 14 50 30 82 17 33 33 83 37 114 4 36 16 69 33 95 38
56 60 111 60 152 0 22 14 57 40 100 43 72 48 88 25 79 -22 -8 -19 21 10 98 14
38 25 88 25 116 0 49 16 100 31 100 5 0 13 -10 20 -21 11 -21 11 -21 29 6 17
26 17 28 -2 61 -16 27 -19 44 -14 77 6 39 4 45 -26 74 -18 17 -45 34 -59 38
-14 3 -282 215 -595 470 -521 425 -571 469 -596 517 -16 32 -52 77 -92 113
l-65 60 40 65 40 65 -3 118 c-3 86 -8 121 -19 131 -7 7 -261 156 -564 331
-302 175 -676 392 -829 484 -154 91 -633 371 -1065 622 l-786 456 -26 -18
c-14 -10 -51 -43 -82 -73 -31 -31 -67 -58 -80 -61 -15 -4 -31 -21 -41 -43 -17
-34 -17 -37 0 -49 10 -7 30 -13 46 -13 20 0 31 -8 43 -30 9 -16 14 -30 13 -30
-2 0 -41 7 -88 15 -47 8 -86 15 -87 15 -1 0 2 -12 7 -26 16 -41 12 -48 -17
-29 -25 17 -26 17 -19 -1 4 -11 10 -31 13 -47 4 -19 13 -29 32 -33 14 -3 34
-10 44 -15 13 -7 23 -7 33 2 11 9 14 8 14 -4 0 -49 -35 -60 -92 -31 -17 9 -44
14 -60 12 -16 -3 -33 1 -39 9 -13 15 -45 17 -54 3 -3 -5 -1 -19 5 -30 10 -18
8 -20 -18 -20 -47 0 -46 -13 4 -56 66 -57 58 -74 -37 -74 -79 0 -88 -12 -29
-42 18 -9 38 -22 43 -27 19 -19 0 -23 -32 -7 -40 21 -41 21 -41 -18 0 -26 -5
-35 -22 -40 -45 -12 -75 -6 -98 19 -23 25 -24 25 -44 6 -12 -10 -31 -24 -43
-30 -13 -6 -23 -18 -23 -25 0 -7 -9 -25 -20 -38 l-19 -25 23 -11 c18 -8 27 -7
38 4 21 21 106 45 114 33 3 -6 9 -22 13 -37 6 -22 16 -28 57 -37 27 -5 49 -15
49 -20 0 -19 -44 -16 -91 4 -54 25 -99 19 -91 -10 4 -16 -1 -19 -39 -19 -26 0
-44 -5 -44 -11 0 -11 -18 -9 -65 6 -19 6 -20 2 -17 -55 3 -53 6 -60 20 -54 40
16 63 16 83 -2 17 -15 38 -19 98 -20 42 0 100 -7 130 -15 43 -11 55 -11 59 -1
6 19 107 82 131 82 31 0 71 -43 71 -77 -1 -44 -29 -69 -113 -99 -46 -16 -85
-36 -96 -50 -11 -13 -26 -24 -34 -24 -19 0 -57 -47 -57 -70 0 -12 -8 -17 -27
-17 -16 0 -47 -8 -70 -17 -24 -9 -74 -19 -112 -22 -76 -7 -76 -8 -131 72 -21
31 -37 43 -64 48 -51 10 -96 -1 -134 -32 -32 -26 -33 -31 -39 -118 -5 -73 -3
-96 11 -123 20 -38 16 -46 -18 -37 -18 4 -27 15 -31 34 -3 15 -13 50 -21 78
-13 41 -14 56 -4 73 16 30 9 34 -52 35 l-53 1 -27 55 c-25 50 -27 52 -28 25 0
-40 -37 -81 -77 -89 -28 -5 -33 -3 -33 14 0 15 -7 20 -28 20 -16 0 -37 9 -46
19 -17 19 -17 20 16 34 35 15 78 64 78 89 0 7 -7 22 -15 32 -15 19 -15 19 -38
-2 -28 -26 -37 -28 -37 -6 0 10 -7 14 -17 12 -10 -2 -17 -8 -17 -14 1 -5 4
-28 8 -51 l6 -43 -50 0 c-38 0 -52 4 -60 19 -15 29 -13 31 28 32 33 0 35 2 18
12 -10 7 -30 24 -43 39 -14 15 -31 24 -39 21 -8 -3 -21 0 -29 7 -19 15 -18 16
-34 -37 -13 -47 -48 -73 -99 -73 -16 0 -35 -6 -41 -14 -17 -20 19 -75 58 -92
17 -7 31 -20 31 -30 0 -12 -5 -14 -17 -8 -10 4 -30 8 -46 9 -15 1 -38 12 -50
24 l-24 21 -11 -25 c-7 -15 -9 -43 -6 -66 5 -32 4 -39 -10 -39 -22 0 -20 -14
8 -58 14 -20 28 -50 32 -66 l7 -29 -32 24 c-22 16 -31 31 -31 51 0 42 -28 48
-56 12 -13 -16 -31 -29 -39 -29 -19 0 -35 -23 -35 -51 0 -12 -7 -27 -15 -34
-13 -11 -15 -4 -15 49 0 69 12 101 38 102 9 0 -6 11 -34 23 -29 13 -61 38 -74
56 -23 32 -23 33 -5 46 10 8 26 14 35 14 9 0 25 7 36 15 19 15 19 15 -4 35
-15 12 -22 26 -18 37 7 23 -13 49 -45 62 -21 7 -28 5 -37 -10 -13 -21 -62 -26
-62 -6 0 6 12 44 26 82 37 99 41 125 19 125 -17 0 -17 1 -2 18 18 20 24 92 8
92 -5 0 -21 -4 -35 -10 -22 -8 -26 -7 -26 8 0 21 35 90 61 118 14 15 21 42 25
100 3 43 15 102 26 131 14 37 18 63 13 91 -5 29 -2 42 9 52 13 10 16 10 16 -1
1 -33 30 28 30 63 0 20 10 56 22 80 18 35 22 59 23 145 0 57 4 103 8 103 4 0
3 9 -3 20 -11 21 -45 26 -70 10 -11 -7 -16 -4 -20 13 -5 20 -15 23 -95 31 -50
5 -133 8 -185 6 -140 -5 -215 -4 -415 3 -139 6 -191 4 -228 -7z"/>
<path d="M3360 9421 c0 -30 6 -44 23 -56 21 -15 23 -14 44 10 33 38 12 85 -38
85 -27 0 -29 -3 -29 -39z"/>
<path d="M3254 9331 c-45 -28 -51 -41 -24 -61 l23 -17 -23 -16 c-18 -12 -20
-19 -11 -35 12 -23 25 -28 98 -37 31 -4 58 -14 69 -26 9 -10 28 -19 42 -19 14
0 41 -5 59 -12 42 -15 50 -6 45 56 -3 38 -8 47 -26 52 -12 3 -27 18 -33 35
-11 28 -13 29 -76 29 -70 0 -97 14 -97 51 0 24 -7 24 -46 0z"/>
<path d="M2240 9050 c0 -34 4 -60 10 -60 20 0 50 -64 45 -92 -8 -34 3 -40 49
-26 31 10 36 15 30 32 -3 12 -7 35 -8 51 -1 23 -8 34 -31 45 -22 11 -31 23
-33 45 -3 27 -34 64 -54 65 -5 0 -8 -27 -8 -60z"/>
<path d="M2423 9044 c-36 -28 -42 -44 -17 -44 11 0 15 -6 11 -20 -4 -15 2 -24
22 -34 41 -22 61 -5 61 52 0 75 -24 89 -77 46z"/>
<path d="M9502 6423 c0 -49 7 -84 25 -127 23 -56 24 -61 8 -72 -16 -12 -16
-14 0 -42 17 -28 17 -29 -19 -76 -41 -55 -42 -58 -19 -97 15 -26 22 -29 48
-23 34 7 45 19 45 51 0 12 16 48 35 80 38 63 44 106 24 174 -10 31 -9 47 5 88
9 27 16 62 16 77 0 27 0 27 -20 9 -20 -18 -23 -18 -73 -1 -28 10 -57 20 -64
22 -8 4 -11 -15 -11 -63z"/>
<path d="M9147 5664 c-2 -5 -8 -25 -12 -44 -4 -19 -17 -46 -30 -60 -12 -14
-26 -36 -30 -49 l-8 -25 -17 22 c-10 11 -20 18 -24 15 -3 -4 -6 -46 -6 -94 0
-119 27 -207 72 -232 21 -12 34 -15 36 -8 2 6 21 -2 42 -19 28 -22 45 -29 62
-25 20 5 25 -1 45 -52 19 -47 29 -61 54 -70 35 -13 74 -1 66 20 -2 7 -15 52
-27 100 l-23 88 -44 12 c-41 11 -43 13 -43 48 0 39 -21 98 -50 139 -22 32 -30
98 -19 152 9 37 8 44 -14 66 -14 13 -27 20 -30 16z"/>
</g>
</svg>
