<?xml version="1.0" standalone="no"?>
<!DOCTYPE svg PUBLIC "-//W3C//DTD SVG 20010904//EN"
 "http://www.w3.org/TR/2001/REC-SVG-20010904/DTD/svg10.dtd">
<svg version="1.0" xmlns="http://www.w3.org/2000/svg"
 width="1024.000000pt" height="1024.000000pt" viewBox="0 0 1024.000000 1024.000000"
 preserveAspectRatio="xMidYMid meet">
<metadata>
Created by potrace 1.10, written by Peter Selinger 2001-2011
</metadata>
<g transform="translate(0.000000,1024.000000) scale(0.100000,-0.100000)"
fill="#000000" stroke="none">
<path d="M6415 7408 c-41 -23 -175 -122 -175 -129 0 -5 18 -37 40 -71 22 -35
40 -68 40 -74 0 -6 -14 -28 -30 -50 -44 -55 -38 -76 29 -89 73 -14 84 -33 44
-79 -29 -32 -31 -37 -20 -71 9 -30 8 -38 -5 -52 -14 -13 -24 -14 -56 -6 -30 8
-48 7 -72 -3 -18 -8 -52 -14 -76 -14 -50 0 -126 -34 -189 -85 -109 -89 -142
-94 -187 -30 -38 53 -60 61 -125 46 -27 -6 -73 -10 -103 -9 l-55 3 1 -106 c1
-87 5 -114 22 -151 12 -24 22 -48 22 -53 0 -4 -21 -31 -47 -59 -27 -29 -57
-64 -68 -79 -15 -21 -35 -31 -77 -41 -85 -20 -108 -45 -129 -148 -16 -77 -33
-103 -93 -148 -56 -43 -86 -49 -106 -25 -22 27 -52 14 -66 -29 -8 -21 -32 -58
-54 -82 -22 -24 -41 -49 -41 -56 -1 -7 -3 -49 -4 -93 -3 -103 -18 -165 -44
-187 -12 -9 -46 -24 -75 -32 -45 -13 -56 -21 -64 -46 -6 -16 -13 -30 -16 -30
-2 0 -16 20 -30 44 -30 52 -44 58 -106 50 -50 -7 -95 11 -155 59 -26 22 -30
32 -35 100 -5 61 -12 84 -35 117 -28 41 -68 61 -86 43 -15 -15 17 -43 47 -43
28 0 42 -24 25 -44 -6 -8 -32 -19 -57 -25 -25 -6 -47 -18 -50 -26 -8 -21 -28
-19 -49 5 -23 25 -35 25 -35 0 0 -10 9 -24 20 -30 23 -12 27 -52 6 -69 -8 -6
-33 -17 -57 -24 -58 -17 -67 -42 -49 -137 16 -84 12 -90 -62 -90 l-46 0 -7
-49 c-8 -56 -32 -84 -67 -79 -21 3 -23 7 -20 61 2 50 0 57 -17 57 -10 0 -30
-9 -44 -20 -48 -38 -75 -19 -108 77 -11 34 -28 68 -38 77 -26 24 -64 7 -96
-43 -25 -37 -65 -61 -104 -61 -9 0 -33 -5 -53 -11 -42 -11 -61 -38 -72 -103
-10 -54 -51 -133 -77 -146 -25 -14 -52 6 -80 63 -14 27 -26 37 -43 37 -14 0
-64 29 -117 69 -98 71 -167 111 -194 111 -8 0 -47 -16 -85 -35 -81 -41 -89
-42 -123 -15 -19 15 -27 32 -29 63 l-3 42 -23 -36 c-12 -20 -22 -39 -22 -41 0
-3 14 -22 30 -43 39 -49 38 -66 -5 -104 -85 -74 -142 -33 -100 72 6 15 0 17
-51 17 -33 0 -72 -7 -88 -15 -46 -24 -73 -18 -120 25 -24 22 -48 40 -55 40 -6
0 -19 -15 -28 -34 -16 -34 -15 -35 10 -66 36 -43 34 -72 -9 -120 -37 -41 -61
-49 -81 -29 -16 16 -50 -7 -140 -94 -47 -46 -76 -82 -82 -104 -13 -47 7 -111
57 -176 51 -69 64 -94 58 -115 -13 -39 -102 -68 -241 -79 -89 -6 -90 -7 -137
-51 l-48 -45 -24 22 c-48 45 -94 10 -121 -92 -8 -32 -24 -75 -34 -96 l-20 -38
51 -69 c28 -38 59 -87 70 -110 l20 -40 -22 -52 c-27 -63 -79 -112 -120 -112
-17 0 -46 14 -73 34 -58 44 -86 58 -172 86 -38 12 -105 43 -148 68 -103 59
-183 92 -227 92 -76 0 -146 -53 -192 -144 -11 -22 -35 -59 -53 -81 -65 -82
-69 -122 -14 -150 46 -24 69 -52 69 -84 0 -51 -40 -160 -71 -196 -42 -48 -37
-79 14 -83 37 -3 38 -4 35 -40 -3 -35 -5 -37 -38 -37 -66 -1 -75 -24 -38 -100
l22 -45 -27 -28 c-14 -15 -33 -47 -42 -72 -17 -47 -41 -80 -59 -80 -6 0 -39
25 -74 56 -37 33 -68 54 -77 51 -13 -5 -43 -89 -59 -162 l-6 -30 924 0 c840 0
927 1 941 16 16 15 15 25 -5 125 -12 60 -24 119 -27 132 -5 21 -2 22 54 22 33
0 102 -3 153 -7 91 -6 93 -7 104 -36 l11 -29 270 7 c450 12 1817 21 1865 13
25 -4 459 -19 965 -33 532 -15 975 -31 1050 -39 85 -10 382 -19 853 -26 l724
-12 30 36 c16 20 43 43 60 52 61 32 180 64 236 64 47 1 64 6 95 29 37 28 93
48 257 93 l85 23 35 73 c20 41 44 80 55 88 10 8 40 14 66 14 65 0 175 35 194
63 9 13 15 44 15 80 0 51 4 62 28 87 16 16 49 34 73 40 65 17 89 44 89 99 0
67 18 94 70 110 25 7 77 36 115 64 141 102 151 107 278 142 46 13 79 34 165
105 85 69 328 285 401 355 11 11 8 15 -24 24 -26 7 -42 7 -54 -1 -26 -16 -121
36 -121 66 -1 12 -19 41 -41 66 -33 35 -42 41 -50 30 -8 -12 -15 -8 -40 23
-17 20 -38 37 -46 37 -28 0 -70 55 -87 114 -22 75 -38 98 -82 122 -26 14 -37
29 -45 59 -26 97 -39 122 -74 141 -43 23 -49 38 -30 74 23 44 19 57 -24 82
-24 14 -43 34 -50 55 -7 18 -37 63 -68 100 -82 100 -83 105 -39 153 41 46 42
47 20 79 -15 21 -15 24 10 50 32 33 34 74 6 163 -16 51 -17 70 -9 102 18 66 4
109 -50 154 -27 23 -54 55 -61 71 -8 21 -22 33 -39 37 -173 35 -196 52 -206
157 -4 39 -7 100 -6 135 1 59 -1 62 -23 62 -12 0 -44 -11 -71 -25 -35 -19 -55
-24 -80 -19 -29 5 -36 2 -57 -26 -12 -18 -39 -40 -59 -51 -25 -12 -41 -30 -52
-57 -15 -37 -32 -49 -93 -67 -13 -3 -31 3 -48 16 l-28 22 -44 -44 c-24 -23
-46 -40 -49 -37 -3 3 -11 24 -18 48 -16 55 -47 78 -127 91 -36 6 -86 22 -111
36 -41 22 -51 23 -85 14 -60 -17 -84 -34 -108 -77 -28 -50 -49 -53 -125 -15
-47 24 -65 40 -81 71 -16 30 -29 42 -51 47 -24 5 -35 15 -49 48 -14 34 -26 44
-61 58 -73 27 -92 29 -138 12 -24 -8 -56 -15 -70 -15 -31 0 -227 64 -247 81
-9 8 -14 33 -14 74 0 58 -3 68 -45 128 -24 36 -49 85 -54 109 -11 49 -28 63
-110 94 -37 14 -57 28 -59 40 -17 95 -39 116 -77 74 -11 -13 -31 -20 -52 -20
-19 0 -51 -10 -72 -22 -39 -22 -39 -22 -81 -3 -24 11 -62 39 -86 62 -46 47
-49 48 -79 31z"/>
</g>
</svg>
