<?xml version="1.0" standalone="no"?>
<!DOCTYPE svg PUBLIC "-//W3C//DTD SVG 20010904//EN"
 "http://www.w3.org/TR/2001/REC-SVG-20010904/DTD/svg10.dtd">
<svg version="1.0" xmlns="http://www.w3.org/2000/svg"
 width="1024.000000pt" height="1024.000000pt" viewBox="0 0 1024.000000 1024.000000"
 preserveAspectRatio="xMidYMid meet">
<metadata>
Created by potrace 1.10, written by Peter Selinger 2001-2011
</metadata>
<g transform="translate(0.000000,1024.000000) scale(0.100000,-0.100000)"
fill="#000000" stroke="none">
<path d="M2356 7195 c-37 -8 -79 -21 -92 -30 -13 -8 -33 -15 -45 -15 -12 0
-45 -11 -73 -24 -68 -32 -116 -99 -116 -161 0 -24 -4 -47 -10 -50 -6 -3 -7
-31 -3 -67 l6 -61 -52 6 c-29 4 -60 12 -69 19 -8 7 -44 15 -80 18 -51 4 -67 9
-76 25 -6 11 -12 22 -14 24 -3 5 -144 -27 -197 -45 -22 -7 -50 -11 -62 -8 -12
3 -61 1 -109 -6 -78 -10 -88 -9 -106 7 -16 15 -21 15 -28 3 -6 -8 -10 -18 -10
-22 0 -5 -4 -8 -10 -8 -5 0 -10 11 -10 25 0 17 -5 25 -18 25 -9 0 -23 9 -30
20 -19 31 -101 28 -141 -6 -28 -23 -31 -30 -25 -62 6 -31 5 -34 -10 -29 -10 4
-24 7 -32 7 -8 0 -14 8 -14 18 0 37 -35 55 -116 60 -83 5 -121 -7 -126 -41 -2
-14 -16 -25 -44 -34 -32 -11 -45 -22 -55 -46 -7 -18 -19 -36 -26 -40 -7 -4
-13 -17 -13 -27 0 -14 -7 -20 -24 -20 -33 0 -78 -38 -71 -60 12 -37 -2 -45
-66 -42 -66 4 -79 -3 -79 -45 0 -13 -9 -32 -20 -43 -11 -11 -22 -31 -26 -45
-9 -36 -22 -40 -48 -16 -32 31 -60 26 -91 -14 -25 -33 -28 -65 -7 -65 5 0 9
-21 10 -47 0 -27 4 -90 7 -141 l7 -94 -36 -34 c-20 -19 -43 -34 -51 -34 -19 0
-55 -57 -55 -86 0 -23 66 -129 98 -158 12 -10 56 -33 99 -50 72 -29 83 -31
148 -24 105 12 124 6 163 -51 23 -34 46 -54 74 -66 39 -15 41 -15 107 15 76
35 193 70 234 70 16 0 43 -11 62 -25 31 -24 37 -25 93 -16 33 5 74 17 91 25
41 22 80 20 107 -5 18 -17 26 -19 43 -10 49 27 186 -28 197 -79 3 -14 14 -45
25 -70 21 -48 41 -158 41 -225 0 -44 14 -59 70 -75 21 -6 42 -19 47 -29 6 -10
25 -24 43 -31 53 -21 108 -79 120 -128 6 -25 22 -52 38 -66 15 -12 31 -38 35
-57 4 -19 15 -43 25 -54 10 -11 21 -30 25 -43 9 -30 33 -41 105 -49 50 -5 64
-3 80 12 18 16 25 17 54 7 18 -7 42 -12 54 -12 13 0 40 -11 62 -25 23 -14 54
-28 70 -32 17 -3 30 -11 30 -18 0 -7 16 -25 36 -40 32 -24 36 -32 31 -61 -3
-18 -15 -45 -26 -61 -19 -26 -20 -34 -11 -118 6 -49 15 -91 20 -93 5 -2 28
-16 52 -32 24 -17 48 -30 54 -30 20 0 64 -52 64 -76 0 -52 29 -100 75 -122 25
-12 45 -26 45 -32 0 -5 9 -10 19 -10 11 0 28 -15 40 -35 11 -19 36 -43 56 -52
20 -9 35 -24 35 -34 0 -27 25 -30 84 -9 47 16 88 18 312 20 143 0 303 3 358 6
l98 5 82 -52 c109 -70 143 -73 254 -24 104 45 193 65 300 65 l84 0 80 -55 c45
-31 91 -55 105 -55 34 0 192 -97 203 -124 17 -46 132 -161 189 -188 31 -16 62
-28 68 -28 7 0 29 -35 48 -78 36 -78 37 -79 90 -96 38 -12 61 -26 81 -53 19
-25 53 -48 118 -78 87 -41 95 -43 161 -38 62 5 76 10 123 45 51 38 52 40 52
88 0 28 -4 50 -9 50 -19 0 -71 52 -71 71 0 10 5 19 10 19 13 0 13 27 -1 35 -5
4 -25 0 -44 -9 -18 -9 -54 -19 -80 -22 -38 -6 -50 -3 -68 14 -13 12 -44 23
-74 27 -50 6 -53 9 -53 35 0 20 9 35 28 49 43 30 50 29 69 -8 10 -19 28 -38
41 -42 20 -8 22 -5 24 26 1 19 2 43 2 52 1 10 -9 19 -22 23 -29 6 -30 24 -2
28 15 3 20 11 20 32 0 40 32 61 73 49 71 -20 103 -4 45 22 -48 21 -55 63 -23
127 14 29 25 67 25 90 0 36 6 47 51 92 70 70 92 83 128 75 23 -5 35 -1 50 14
22 22 41 27 41 11 0 -20 40 -9 56 15 19 29 34 24 34 -11 0 -29 11 -31 35 -4
16 18 19 18 49 4 40 -21 94 -71 112 -106 18 -34 19 -89 2 -87 -33 4 -38 -2
-38 -51 0 -52 15 -65 40 -35 19 22 92 19 123 -5 26 -21 77 -27 77 -10 0 5 7 7
15 4 8 -4 17 1 21 10 9 24 55 21 61 -4 3 -11 12 -20 19 -20 8 0 14 -6 14 -14
0 -16 25 -11 120 22 47 17 58 25 75 61 11 24 26 41 36 41 11 0 22 13 28 33 13
38 69 132 99 165 l21 22 -22 0 c-34 0 -50 15 -42 39 5 17 14 21 46 21 38 0 39
1 39 33 0 23 8 41 25 57 14 13 25 34 25 46 0 13 9 28 19 34 11 5 30 24 42 42
l23 31 -32 -6 c-31 -6 -32 -5 -26 21 4 15 18 48 33 74 21 39 31 48 53 48 38 0
58 -10 58 -29 0 -23 77 -95 120 -112 37 -14 132 -17 215 -5 46 7 54 5 100 -26
27 -18 51 -41 53 -51 3 -15 -8 -17 -122 -17 l-126 0 -26 -29 c-22 -25 -30 -28
-51 -20 -14 5 -46 14 -72 19 -25 6 -56 15 -67 21 -18 9 -28 7 -54 -12 l-32
-24 64 -6 c34 -3 99 -16 142 -27 107 -30 120 -29 152 13 l26 35 85 0 c46 0 92
4 102 10 12 6 37 6 72 -1 30 -6 82 -14 117 -18 50 -7 70 -15 95 -39 18 -16 42
-33 53 -36 12 -4 27 -20 34 -36 12 -30 16 -32 55 -34 15 -1 22 -11 27 -41 4
-22 16 -68 28 -101 20 -55 26 -63 58 -72 21 -6 70 -14 110 -17 40 -3 89 -12
109 -20 41 -17 73 -19 73 -5 0 5 -14 16 -32 23 -18 7 -28 16 -22 20 6 3 34 -5
63 -19 34 -15 71 -24 104 -24 48 -1 50 -2 33 -15 -13 -10 -43 -15 -83 -15 -49
0 -63 -3 -63 -15 0 -12 15 -15 79 -15 76 0 80 1 104 30 14 16 27 34 29 40 5
15 171 45 330 60 l127 12 80 -31 c44 -17 94 -31 111 -31 20 0 30 -5 30 -15 0
-24 51 -19 57 5 3 11 9 20 14 20 5 0 9 20 9 45 0 39 3 45 25 51 34 8 58 -12
50 -44 -3 -13 -1 -29 4 -36 13 -16 81 -8 88 10 3 8 14 14 24 14 11 0 22 6 25
14 9 24 59 37 81 21 16 -12 22 -10 50 11 23 17 44 24 78 24 39 0 47 4 57 26 7
14 24 32 39 40 32 16 95 19 104 4 10 -17 52 -11 59 8 3 9 11 25 18 35 10 13
10 21 1 35 -7 9 -19 32 -27 50 -12 26 -21 32 -45 32 -17 0 -31 5 -31 11 0 7
-17 10 -45 7 -25 -2 -45 0 -45 4 0 4 -13 22 -30 41 -16 19 -26 38 -21 43 4 5
13 28 20 52 11 40 11 44 -11 63 -13 11 -35 24 -49 30 -32 12 -49 47 -49 100 0
34 -5 43 -30 57 -22 12 -30 25 -30 44 0 15 -6 31 -14 35 -8 4 -16 30 -19 58
-10 108 -76 239 -148 296 -34 27 -39 36 -39 73 0 38 -3 44 -35 59 -32 15 -35
20 -35 60 0 55 -23 91 -50 77 -23 -12 -30 -13 -30 -1 0 19 -57 69 -87 75 -17
4 -34 14 -37 22 -7 17 -36 19 -36 2 0 -9 -3 -9 -12 0 -7 7 -28 12 -48 12 -20
0 -41 5 -46 10 -7 7 -19 8 -37 1 -21 -8 -27 -7 -27 3 0 7 -18 21 -39 31 -36
16 -41 16 -62 1 -50 -35 -113 -10 -147 57 -12 25 -28 49 -35 54 -14 12 -97 5
-97 -8 0 -5 -13 -9 -29 -9 -17 0 -33 -4 -36 -10 -9 -15 -41 -12 -55 5 -15 18
-49 19 -82 4 -44 -19 -114 17 -177 91 -30 36 -61 67 -68 68 -8 2 -32 -3 -54
-12 -70 -28 -121 -21 -188 24 -32 22 -79 64 -104 94 l-46 53 -114 15 c-84 11
-123 21 -145 37 -31 22 -77 28 -87 11 -3 -5 -24 -14 -45 -20 -56 -15 -95 7
-124 70 -13 27 -40 70 -61 95 -28 35 -35 49 -26 58 15 15 14 60 -1 75 -7 7
-19 12 -29 12 -31 0 -113 52 -176 110 -58 54 -107 80 -154 80 -22 0 -49 32
-49 59 0 13 8 45 17 72 25 69 15 76 -117 84 l-105 7 -40 -35 c-38 -33 -40 -34
-74 -20 -19 8 -47 12 -63 9 -20 -4 -43 1 -71 16 -35 18 -48 19 -80 11 -35 -10
-39 -9 -49 12 -8 17 -27 28 -73 40 -58 16 -65 16 -86 1 -13 -9 -35 -16 -49
-16 -14 0 -40 -9 -59 -21 -27 -16 -43 -19 -86 -14 -34 5 -55 3 -59 -4 -12 -19
-49 -12 -75 13 -15 14 -54 31 -91 40 -52 13 -71 24 -95 53 -25 28 -45 40 -100
55 -39 10 -83 21 -100 24 -64 11 -75 15 -75 28 0 16 -42 36 -77 36 -14 0 -42
4 -62 9 -39 10 -228 48 -274 54 -19 3 -31 -1 -37 -13 -13 -24 -208 -37 -248
-16 -32 16 -148 21 -157 6 -8 -13 -32 -13 -48 0 -86 70 -105 75 -148 34 l-26
-25 -30 29 c-28 28 -32 29 -100 25 -55 -4 -76 -2 -94 11 -14 10 -43 16 -74 16
-31 0 -64 8 -88 20 -35 19 -49 20 -169 14 -106 -6 -133 -10 -147 -25 -16 -17
-18 -17 -63 11 -52 32 -98 48 -98 32 0 -5 7 -15 15 -22 46 -38 -33 -42 -82 -4
-27 21 -50 28 -101 31 -62 5 -66 4 -47 -11 19 -15 19 -15 -13 -16 -39 0 -59 9
-128 62 -47 35 -58 39 -148 48 -53 5 -110 17 -125 25 -81 42 -337 64 -455 40z"/>
</g>
</svg>
