<?xml version="1.0" standalone="no"?>
<!DOCTYPE svg PUBLIC "-//W3C//DTD SVG 20010904//EN"
 "http://www.w3.org/TR/2001/REC-SVG-20010904/DTD/svg10.dtd">
<svg version="1.0" xmlns="http://www.w3.org/2000/svg"
 width="1024.000000pt" height="1024.000000pt" viewBox="0 0 1024.000000 1024.000000"
 preserveAspectRatio="xMidYMid meet">
<metadata>
Created by potrace 1.10, written by Peter Selinger 2001-2011
</metadata>
<g transform="translate(0.000000,1024.000000) scale(0.100000,-0.100000)"
fill="#000000" stroke="none">
<path d="M8733 10222 c-12 -9 -28 -41 -37 -70 l-15 -54 47 -46 c26 -26 60 -66
76 -90 l29 -42 -28 -65 c-25 -61 -41 -77 -204 -226 l-176 -161 -136 6 -137 6
-68 -68 c-131 -128 -111 -120 -337 -128 l-197 -7 -101 -62 c-55 -35 -134 -75
-176 -90 -71 -26 -82 -28 -192 -22 -65 3 -124 7 -131 9 -9 2 -25 -39 -53 -137
-22 -77 -42 -142 -43 -143 -1 -2 -32 -11 -69 -21 l-66 -16 -88 -216 c-74 -182
-100 -233 -166 -330 l-77 -114 -6 -210 -5 -210 -47 -95 c-26 -52 -57 -126 -70
-165 -12 -38 -40 -117 -62 -175 -34 -89 -49 -114 -97 -163 -31 -32 -95 -88
-143 -123 l-87 -65 -66 -129 c-63 -125 -69 -132 -236 -309 -157 -166 -174
-181 -213 -186 -39 -6 -44 -12 -100 -96 -32 -49 -63 -89 -67 -89 -5 0 -94 57
-199 126 l-189 127 -98 -60 c-54 -33 -112 -68 -130 -77 -18 -9 -68 -51 -112
-95 -88 -86 -94 -102 -64 -166 l17 -36 -90 -90 c-123 -124 -215 -187 -287
-195 l-54 -6 -571 -502 c-313 -275 -782 -681 -1041 -901 l-471 -400 0 -45 c0
-25 13 -85 29 -135 l29 -90 -49 -45 c-49 -44 -49 -46 -49 -104 0 -51 7 -70 54
-160 l54 -101 -19 -50 c-15 -38 -23 -94 -31 -235 -9 -147 -15 -187 -27 -197
-9 -6 -56 -14 -106 -18 -67 -6 -98 -13 -119 -28 -20 -14 -66 -27 -137 -38
l-108 -17 -93 -73 c-89 -69 -102 -85 -283 -338 -105 -145 -190 -270 -190 -277
0 -7 189 -140 420 -296 416 -279 428 -289 1248 -940 l829 -659 36 33 c21 17
180 167 356 332 l318 301 417 257 c229 142 417 263 418 270 2 7 -1 19 -6 26
-6 10 -55 -11 -209 -92 -110 -58 -204 -106 -209 -105 -8 0 -36 37 -165 212
-66 90 -67 94 -68 153 0 52 3 64 22 76 15 10 19 20 15 32 -7 16 -26 17 -305
10 l-297 -7 -19 71 c-20 80 -23 82 -123 82 l-63 0 0 170 0 169 40 11 c22 5 58
15 80 20 40 11 55 23 46 38 -3 5 -78 0 -168 -9 -233 -25 -224 -26 -247 19
l-20 38 140 120 c77 65 144 120 147 121 4 2 37 -19 73 -46 51 -38 68 -56 73
-82 l7 -34 27 32 26 32 47 -26 c45 -26 48 -31 95 -147 39 -95 56 -125 85 -148
l35 -28 69 44 c83 55 154 80 200 72 35 -7 39 -13 51 -81 7 -39 66 -126 115
-171 13 -12 42 -25 64 -28 53 -9 133 -35 140 -46 3 -4 -6 -63 -20 -130 -14
-68 -25 -125 -25 -127 0 -2 12 3 28 11 24 12 30 27 57 137 l31 124 114 1 115
0 90 47 c50 26 128 79 175 118 47 38 113 84 148 101 35 17 70 43 78 57 9 15
41 44 71 65 l56 39 67 -9 c56 -8 78 -6 140 12 63 17 79 27 111 64 39 45 59
102 59 166 0 47 52 134 139 234 37 41 84 99 105 128 l39 54 -19 74 c-18 73
-18 74 4 141 32 102 31 128 -11 200 -29 48 -44 63 -67 68 -17 4 -30 8 -30 10
0 1 -23 114 -50 249 -28 135 -50 248 -50 251 0 3 -11 5 -24 5 l-23 0 43 -217
c24 -119 44 -224 44 -233 0 -12 -39 -23 -192 -53 -106 -21 -198 -38 -204 -37
-6 0 -15 15 -20 33 -15 50 -38 41 -42 -15 -3 -40 -6 -48 -23 -48 -16 0 -19 7
-19 40 0 38 -1 40 -31 40 l-32 0 6 -50 6 -50 -34 0 -35 0 0 55 c0 30 -2 55 -5
55 -2 0 -16 -5 -31 -12 -25 -12 -26 -14 -20 -70 7 -54 6 -58 -16 -63 -74 -17
-121 -25 -123 -23 -2 2 -12 36 -24 77 -20 74 -20 74 -1 102 11 15 20 29 20 32
0 4 -103 -3 -108 -9 -2 -1 3 -15 12 -31 9 -15 24 -65 35 -111 l19 -82 -22 -5
c-34 -8 -188 -35 -195 -35 -4 0 -16 54 -26 120 -17 114 -20 120 -42 120 -28 0
-28 1 2 -135 13 -60 21 -113 17 -117 -14 -13 -164 -40 -171 -31 -52 79 -71
115 -81 152 -7 25 -38 98 -71 162 l-58 118 45 17 c56 21 67 44 65 142 -1 42 2
72 8 72 13 0 18 -21 26 -108 7 -72 7 -72 37 -72 23 0 28 4 24 18 -15 47 -35
165 -30 173 3 5 32 9 64 9 l58 0 12 -72 c14 -94 21 -110 39 -99 12 8 10 40
-18 218 -41 263 -38 250 -67 256 -29 5 -30 -9 -10 -120 l13 -71 -51 -10 c-28
-6 -54 -8 -57 -6 -3 2 -14 42 -24 89 -10 47 -22 88 -27 91 -23 15 -25 -17 -7
-105 10 -52 18 -96 16 -97 -2 -2 -18 -7 -35 -10 l-32 -6 0 43 c0 24 -3 54 -6
65 -6 24 -57 49 -116 59 -33 5 -38 10 -45 43 -4 20 -7 111 -7 202 -1 181 7
220 52 263 27 25 39 27 681 102 359 42 655 74 657 72 2 -2 22 -102 44 -222 22
-120 41 -220 44 -222 2 -2 14 1 28 7 l24 11 -37 232 c-50 307 -51 287 11 287
44 0 72 11 208 81 86 45 174 92 194 106 33 22 45 25 87 19 46 -6 49 -5 74 27
20 27 39 37 94 52 88 23 143 71 143 125 0 24 7 43 20 55 12 10 25 47 36 94 9
42 22 98 30 125 8 27 14 68 14 90 0 23 9 65 20 94 11 29 20 69 20 90 0 20 11
82 24 137 14 55 40 181 60 280 37 193 55 244 122 345 24 36 60 106 80 155 41
99 115 201 219 300 57 54 66 69 95 150 28 78 32 102 31 182 -2 89 -1 93 31
136 23 32 50 53 90 71 34 16 69 42 87 65 17 21 31 41 31 44 0 2 -12 7 -27 10
-20 4 -38 -4 -76 -34 -61 -49 -77 -50 -77 -5 0 69 21 144 65 232 55 109 101
157 178 184 72 25 109 25 132 0 16 -18 45 -28 45 -15 0 3 -9 22 -20 42 -11 21
-20 43 -20 50 0 7 48 50 106 95 58 46 115 91 127 101 22 17 201 67 243 67 12
0 26 -5 29 -11 13 -20 -24 -94 -55 -112 -16 -10 -35 -27 -40 -38 -9 -16 -7
-19 11 -19 12 0 39 5 60 12 35 10 41 17 61 70 17 49 28 63 58 78 21 11 40 26
43 34 7 18 -22 31 -37 16 -23 -23 -53 -10 -76 34 l-23 43 22 36 c12 20 50 61
83 92 56 50 65 55 108 55 l47 0 99 -177 99 -178 83 -57 c68 -46 96 -58 149
-68 l66 -11 128 47 127 48 5 40 c3 32 -103 724 -128 832 -3 12 -30 39 -61 60
l-57 39 8 115 c9 143 9 162 0 332 -8 134 -7 139 18 195 41 94 41 111 4 168
-46 72 -120 137 -207 180 -41 21 -103 57 -138 81 -35 24 -66 44 -70 44 -4 0
-17 -8 -29 -18z"/>
</g>
</svg>
