<?xml version="1.0" standalone="no"?>
<!DOCTYPE svg PUBLIC "-//W3C//DTD SVG 20010904//EN"
 "http://www.w3.org/TR/2001/REC-SVG-20010904/DTD/svg10.dtd">
<svg version="1.0" xmlns="http://www.w3.org/2000/svg"
 width="1024.000000pt" height="1024.000000pt" viewBox="0 0 1024.000000 1024.000000"
 preserveAspectRatio="xMidYMid meet">
<metadata>
Created by potrace 1.10, written by Peter Selinger 2001-2011
</metadata>
<g transform="translate(0.000000,1024.000000) scale(0.100000,-0.100000)"
fill="#000000" stroke="none">
<path d="M7702 8538 c-14 -14 -16 -78 -3 -78 15 0 34 57 24 74 -7 13 -12 13
-21 4z"/>
<path d="M7815 8426 c-22 -27 -48 -47 -66 -51 -16 -4 -31 -11 -34 -16 -9 -13
4 -11 63 11 36 14 65 19 87 14 37 -7 112 -66 192 -151 42 -44 55 -53 66 -44 9
7 12 22 8 44 -5 27 -27 53 -112 129 -65 59 -117 98 -136 102 -28 6 -34 3 -68
-38z"/>
<path d="M8472 7886 l-23 -12 36 -28 c20 -16 61 -34 92 -41 l55 -13 -53 54
c-56 57 -69 62 -107 40z"/>
<path d="M8800 7407 c0 -7 7 -22 15 -33 8 -10 15 -27 15 -36 0 -24 32 -23 54
1 16 17 15 20 -13 50 -29 31 -71 42 -71 18z"/>
<path d="M7739 7352 c-42 -15 -108 -46 -147 -69 -47 -29 -82 -43 -105 -43 -51
0 -67 -9 -67 -37 0 -52 -95 -193 -130 -193 -9 0 -38 -30 -64 -68 -45 -66 -46
-70 -40 -123 4 -41 1 -66 -14 -104 -10 -27 -23 -72 -26 -100 -4 -27 -16 -65
-26 -82 -15 -26 -17 -42 -11 -75 10 -59 -12 -121 -60 -168 -37 -35 -39 -41
-39 -96 0 -33 4 -74 9 -91 8 -26 6 -37 -10 -57 -29 -36 -23 -62 25 -124 40
-51 45 -63 47 -112 1 -38 -5 -70 -20 -101 -18 -40 -20 -54 -11 -99 11 -60 13
-123 4 -168 -4 -21 -14 -32 -30 -36 -16 -4 -24 -14 -24 -27 0 -37 -19 -57
-104 -108 -74 -45 -93 -51 -171 -61 -85 -11 -103 -18 -208 -80 -24 -14 -43
-19 -55 -14 -21 9 -11 12 -112 -30 -46 -20 -93 -36 -103 -36 -31 0 -19 -90 32
-247 27 -81 28 -92 17 -135 -6 -24 -21 -56 -33 -72 -38 -48 -39 -87 -4 -159
17 -35 31 -70 31 -78 0 -8 13 -36 28 -64 34 -62 68 -76 163 -68 59 5 69 3 85
-15 l17 -21 65 24 c36 13 69 22 74 19 4 -3 8 -23 8 -45 0 -83 41 -129 116
-129 13 0 29 -8 36 -18 18 -26 60 -34 84 -18 24 16 62 26 77 20 9 -3 10 -35 6
-111 l-6 -106 31 -28 c17 -16 39 -29 48 -29 9 0 20 -5 23 -10 3 -5 17 -10 30
-10 26 0 38 -25 60 -128 8 -35 28 -87 45 -116 35 -61 39 -96 11 -103 -27 -7
-41 -67 -41 -182 0 -83 3 -101 15 -101 9 0 15 9 15 24 0 38 14 39 40 3 13 -18
29 -36 37 -40 7 -4 13 -17 13 -27 0 -24 1 -24 44 -6 30 12 38 12 75 -5 23 -10
56 -30 75 -44 18 -14 40 -25 50 -25 9 0 19 -7 22 -15 16 -41 91 17 100 77 5
28 18 51 45 78 21 20 41 48 44 61 7 27 70 79 95 79 10 0 34 -13 55 -30 35 -27
41 -29 97 -23 l59 6 67 -66 c74 -72 124 -94 187 -83 31 6 40 14 54 46 13 32
26 43 65 60 27 11 56 20 66 20 25 0 47 30 54 76 5 36 3 43 -27 71 -17 16 -53
45 -79 63 -47 33 -49 33 -95 21 -104 -28 -120 -26 -158 12 -29 29 -35 42 -35
79 0 36 7 52 40 92 59 71 50 87 -25 41 -44 -27 -75 -31 -93 -13 -10 10 -6 18
20 40 33 26 33 27 16 56 -23 39 -14 66 43 134 52 60 59 78 32 78 -12 0 -25 16
-37 45 -23 56 -15 120 19 171 13 19 29 50 35 69 6 18 22 41 36 50 l26 17 -41
35 c-39 32 -41 38 -41 88 0 51 2 56 37 80 l37 25 37 -36 37 -36 39 21 40 20 5
73 c7 85 -6 121 -58 158 -33 23 -35 28 -31 70 9 92 36 157 97 231 33 38 72 93
87 120 29 50 40 56 72 39 22 -11 32 -2 96 91 138 199 198 296 249 401 l57 117
-27 43 c-15 24 -42 61 -61 84 -27 34 -33 50 -33 90 -1 72 -24 158 -54 197 -31
40 -102 64 -160 53 -31 -6 -37 -2 -76 41 -24 27 -52 68 -63 93 -11 25 -31 60
-45 77 -23 31 -46 124 -67 273 -5 35 -13 50 -40 71 -18 14 -50 45 -69 68 -35
41 -36 46 -36 122 0 76 -1 79 -28 93 -15 8 -37 31 -47 50 -21 38 -33 42 -97
27 -35 -8 -38 -7 -95 51 -68 70 -152 122 -208 130 -29 5 -61 -1 -116 -20z"/>
<path d="M9490 5659 c-25 -10 -53 -21 -62 -25 -18 -6 -31 -31 -23 -43 8 -14
114 -20 146 -9 16 5 34 19 41 31 9 18 7 24 -16 44 -31 27 -28 27 -86 2z"/>
<path d="M111 5648 c-5 -13 -19 -48 -31 -78 -17 -44 -20 -65 -15 -113 6 -51 4
-62 -18 -95 -14 -20 -30 -54 -37 -75 -11 -34 -10 -40 14 -68 25 -30 80 -187
110 -316 10 -45 30 -85 71 -145 62 -89 105 -190 105 -245 0 -22 14 -58 39
-101 22 -38 51 -110 67 -166 23 -83 26 -103 16 -129 -6 -17 -11 -31 -9 -32 1
-1 39 -27 85 -59 74 -49 89 -56 133 -56 40 0 55 -5 75 -25 l25 -25 -21 -30
-22 -30 24 -20 c12 -11 26 -19 30 -20 4 0 4 -15 2 -32 -8 -47 14 -89 71 -141
39 -35 63 -47 108 -57 44 -9 57 -16 57 -29 0 -26 17 -36 84 -50 35 -8 66 -21
75 -33 14 -17 20 -18 46 -8 44 17 71 5 97 -42 23 -42 24 -43 98 -54 41 -7 110
-13 152 -13 77 -1 77 -1 104 35 l27 35 81 -6 c137 -10 256 -25 374 -47 89 -16
139 -19 235 -15 134 5 204 24 287 77 70 45 125 42 193 -9 140 -104 191 -114
583 -109 326 5 379 12 451 60 27 18 55 28 80 28 48 1 145 42 154 66 16 40 10
53 -26 60 -26 5 -41 2 -54 -10 -15 -14 -26 -15 -60 -7 -22 5 -79 6 -125 4
l-84 -6 -89 75 c-104 88 -200 142 -268 152 -27 5 -58 14 -69 22 -18 12 -23 11
-41 -5 -20 -19 -21 -19 -78 15 -53 31 -65 34 -138 34 -80 0 -81 0 -112 36 -39
44 -100 88 -192 139 -38 21 -103 64 -143 94 -61 45 -79 66 -107 120 -24 49
-45 75 -81 101 -27 19 -76 57 -109 85 -33 27 -101 77 -151 109 -50 33 -100 74
-111 90 -11 17 -68 84 -127 148 -101 111 -118 139 -96 153 22 14 6 22 -69 39
-68 14 -80 20 -85 41 -3 13 -14 26 -24 29 -10 3 -35 24 -55 45 -21 22 -56 46
-82 54 -40 14 -51 14 -93 2 -41 -13 -48 -13 -58 0 -24 33 -88 75 -137 91 -29
9 -65 27 -81 40 l-30 22 -39 -19 c-33 -17 -46 -19 -86 -10 -94 20 -96 22 -125
114 -14 47 -26 96 -26 110 0 31 -16 43 -35 27 -10 -8 -34 -11 -65 -8 -33 3
-56 1 -68 -8 -31 -24 -70 -15 -156 36 -47 27 -97 55 -112 60 -15 6 -44 24 -65
40 -92 73 -230 105 -248 58z"/>
<path d="M9533 5413 c-18 -2 -33 -10 -33 -16 0 -7 -3 -28 -6 -47 -6 -35 -5
-36 45 -59 57 -27 81 -19 81 27 0 45 -22 102 -39 100 -9 0 -31 -3 -48 -5z"/>
<path d="M10171 5103 l-65 -4 30 -19 c16 -11 46 -20 67 -20 33 0 37 3 37 25 0
14 -1 24 -2 23 -2 -1 -32 -3 -67 -5z"/>
<path d="M4390 2970 c-19 -10 -53 -19 -75 -20 -22 0 -74 -13 -115 -29 -41 -15
-100 -31 -130 -35 -48 -6 -66 -15 -135 -69 -44 -35 -115 -82 -157 -105 -63
-35 -86 -55 -128 -112 -53 -72 -70 -112 -70 -169 0 -22 -11 -49 -35 -82 -20
-26 -43 -68 -51 -93 -15 -42 -14 -47 3 -70 10 -14 39 -37 65 -51 26 -14 60
-42 76 -61 l29 -35 65 15 c35 8 87 24 115 35 l51 20 84 -23 c187 -52 298 -138
298 -231 0 -95 3 -100 99 -134 47 -17 93 -31 100 -31 8 0 33 17 55 38 23 22
49 43 57 48 8 5 25 25 37 45 15 25 37 43 65 54 23 9 76 47 117 84 219 195 405
309 723 442 103 44 212 95 242 115 47 32 52 38 42 55 -10 16 -14 16 -27 4 -25
-22 -64 -7 -116 46 l-48 49 -103 0 c-71 0 -115 -5 -143 -16 -34 -14 -45 -14
-71 -4 -21 9 -57 11 -116 7 -84 -6 -86 -6 -162 33 -65 33 -80 45 -103 87 -14
27 -32 71 -39 98 -6 28 -16 55 -21 62 -14 18 -90 26 -133 14 -31 -8 -43 -7
-69 7 -17 9 -49 17 -71 17 -22 1 -69 4 -105 8 -55 6 -71 4 -100 -13z"/>
<path d="M7191 2488 c5 -29 5 -67 0 -84 -8 -30 -7 -33 28 -46 32 -13 40 -22
50 -61 8 -26 10 -62 6 -85 -5 -31 -13 -42 -40 -55 -29 -14 -54 -51 -43 -63 3
-2 27 3 54 11 71 22 106 19 181 -15 36 -16 67 -30 68 -30 1 0 5 17 8 38 3 20
9 47 12 58 5 17 1 23 -19 28 -14 3 -42 23 -61 44 -28 30 -35 45 -35 79 0 40
-2 43 -37 52 -21 6 -43 11 -49 11 -6 0 -23 33 -38 74 -20 54 -34 76 -52 85
-39 17 -42 14 -33 -41z"/>
<path d="M8709 2458 l-37 -10 39 -83 c43 -91 50 -149 24 -199 -8 -15 -15 -41
-15 -57 0 -25 4 -29 28 -29 61 0 72 -9 72 -55 0 -53 -52 -175 -75 -175 -8 0
-15 -3 -15 -6 0 -12 41 -74 48 -73 35 3 102 167 102 248 0 17 -16 95 -36 173
-28 113 -34 152 -28 194 6 51 5 53 -24 68 -34 18 -33 18 -83 4z"/>
</g>
</svg>
