<?xml version="1.0" standalone="no"?>
<!DOCTYPE svg PUBLIC "-//W3C//DTD SVG 20010904//EN"
 "http://www.w3.org/TR/2001/REC-SVG-20010904/DTD/svg10.dtd">
<svg version="1.0" xmlns="http://www.w3.org/2000/svg"
 width="1024.000000pt" height="1024.000000pt" viewBox="0 0 1024.000000 1024.000000"
 preserveAspectRatio="xMidYMid meet">
<metadata>
Created by potrace 1.10, written by Peter Selinger 2001-2011
</metadata>
<g transform="translate(0.000000,1024.000000) scale(0.100000,-0.100000)"
fill="#000000" stroke="none">
<path d="M7645 10053 l-450 -185 -65 -63 c-55 -53 -72 -63 -113 -69 -41 -6
-51 -13 -74 -47 -32 -49 -62 -52 -83 -6 -13 28 -20 32 -60 35 l-45 3 -20 -57
c-19 -55 -22 -58 -67 -71 -45 -13 -47 -15 -53 -57 -4 -24 -5 -52 -3 -62 3 -11
-2 -32 -11 -49 -8 -16 -14 -43 -12 -58 2 -26 1 -28 -18 -18 -27 15 -29 15 -46
-19 -11 -21 -23 -30 -41 -30 -42 0 -103 -37 -111 -67 -3 -15 -29 -52 -57 -81
-49 -52 -51 -56 -54 -120 -4 -76 19 -128 60 -134 19 -2 27 -17 49 -88 43 -142
43 -139 14 -152 -16 -7 -28 -23 -32 -39 -5 -25 -11 -28 -67 -38 -35 -6 -97
-11 -139 -11 l-77 0 0 -33 c0 -27 -5 -35 -29 -44 -17 -6 -39 -27 -52 -52 l-24
-41 -67 0 c-61 0 -69 -3 -107 -34 -23 -19 -50 -38 -61 -41 -15 -5 -18 -12 -13
-40 3 -19 2 -35 -2 -35 -4 0 -41 23 -82 52 -61 42 -121 104 -304 313 l-228
260 -325 158 c-288 140 -327 157 -344 145 -10 -7 -92 -78 -181 -158 l-162
-144 -179 -252 -179 -251 -56 -214 c-32 -118 -60 -219 -64 -225 -3 -6 -123
-122 -266 -257 l-259 -246 -109 -178 c-253 -414 -242 -393 -272 -512 -25 -96
-31 -111 -49 -111 -16 0 -48 -42 -138 -182 -66 -102 -156 -228 -205 -284 -66
-75 -163 -218 -383 -561 l-295 -461 -167 -63 -166 -63 -7 -81 c-11 -141 2
-126 -153 -181 -131 -47 -181 -76 -202 -114 -5 -10 -35 -97 -65 -193 -43 -137
-55 -189 -55 -240 0 -56 -3 -67 -22 -79 -23 -15 -23 -15 -14 -186 l9 -170 -52
-84 c-43 -70 -54 -99 -69 -179 -10 -51 -30 -116 -44 -144 l-25 -50 83 -360 83
-360 1 -292 0 -291 26 -19 26 -19 -43 -38 -42 -39 24 -18 c13 -10 36 -19 51
-19 22 0 32 -8 48 -40 18 -36 24 -40 58 -40 32 0 41 -5 57 -32 10 -18 42 -58
72 -90 29 -32 53 -66 53 -75 0 -10 3 -28 6 -39 5 -18 0 -22 -30 -28 -20 -4
-36 -10 -37 -14 0 -4 -2 -40 -4 -80 -4 -72 -4 -74 -56 -130 -29 -31 -73 -70
-98 -87 -25 -16 -62 -54 -83 -84 l-38 -54 0 -227 c0 -285 -3 -308 -47 -359
-31 -37 -34 -45 -31 -97 l3 -56 65 -20 c35 -11 70 -28 77 -38 10 -14 32 -18
127 -22 109 -4 118 -6 167 -37 42 -26 80 -38 183 -57 72 -14 148 -30 169 -35
39 -10 40 -13 20 -64 -6 -17 83 -55 127 -55 35 0 40 3 51 35 15 39 20 41 53
20 19 -13 57 -14 262 -7 l239 7 3 35 c6 83 11 96 51 118 22 13 56 22 79 22 38
0 41 2 54 43 13 41 14 42 59 45 31 2 53 10 64 23 10 10 31 19 46 19 22 0 30
-6 35 -26 6 -25 8 -25 58 -18 56 9 70 9 163 6 60 -2 62 -3 68 -32 4 -17 13
-30 21 -30 8 0 106 16 217 36 178 32 204 40 222 61 17 21 35 26 122 38 82 10
114 20 173 51 l73 38 23 -29 c20 -26 25 -27 56 -19 27 8 58 4 163 -23 72 -18
138 -33 148 -33 9 0 104 65 211 145 231 174 290 202 569 276 274 72 257 65
257 103 0 30 5 35 60 61 51 24 65 27 97 19 31 -7 41 -17 57 -51 19 -42 21 -43
67 -43 69 0 136 -34 150 -77 6 -18 12 -33 14 -33 2 0 48 16 102 36 74 27 109
34 141 31 l42 -5 0 34 c0 32 2 34 36 34 53 0 74 -15 74 -54 0 -22 8 -40 26
-57 14 -13 41 -55 60 -92 30 -59 35 -77 33 -135 -1 -59 3 -74 33 -127 l33 -59
113 -23 c104 -21 119 -21 177 -9 35 7 67 11 70 8 3 -3 5 -16 5 -28 0 -14 10
-30 25 -40 21 -14 30 -14 55 -4 25 10 33 9 59 -9 37 -27 42 -26 71 4 18 19 34
25 67 25 35 0 50 6 82 36 35 31 47 36 110 41 l70 6 35 52 c19 29 88 140 154
247 66 107 189 305 273 439 84 134 215 348 292 474 77 127 198 322 270 435 72
113 242 388 379 613 l247 407 -39 57 c-27 38 -40 67 -40 89 0 50 -9 63 -59 89
-26 13 -63 41 -83 63 -35 39 -37 40 -76 29 -36 -9 -43 -8 -70 14 -24 20 -29
30 -25 55 6 39 -25 102 -66 132 -24 18 -31 30 -31 57 0 26 -13 52 -50 103 -43
60 -49 73 -44 101 4 18 15 38 25 44 17 10 17 12 -2 35 -10 14 -19 35 -19 48 0
29 -16 32 -25 4 -4 -11 -20 -27 -36 -36 -26 -13 -29 -19 -24 -48 6 -28 3 -36
-20 -55 -15 -11 -35 -21 -44 -21 -9 0 -39 -13 -68 -29 -28 -16 -63 -31 -77
-35 -23 -6 -26 -3 -26 18 0 15 -14 37 -39 59 -35 32 -44 35 -78 30 -21 -3 -48
-15 -60 -25 -19 -18 -25 -19 -59 -8 -21 7 -77 16 -126 19 -80 6 -87 5 -92 -13
-4 -16 -11 -18 -48 -12 -24 4 -106 14 -183 22 -77 8 -147 17 -156 19 -19 6
-153 -19 -237 -44 -55 -17 -68 -18 -118 -6 -38 9 -66 23 -90 46 l-34 33 0 -35
0 -35 -57 -2 c-124 -2 -208 -11 -231 -23 -13 -8 -33 -31 -43 -52 -28 -54 -71
-72 -143 -60 -41 7 -61 7 -73 -2 -10 -7 -63 -27 -118 -45 -55 -18 -122 -44
-148 -57 -45 -22 -50 -23 -66 -9 -26 23 -35 20 -53 -17 -12 -24 -26 -36 -54
-45 -68 -21 -69 -23 -39 -81 22 -44 29 -51 46 -46 16 5 30 -2 55 -26 28 -27
34 -40 34 -74 0 -23 5 -46 12 -53 9 -9 8 -12 -5 -12 -10 0 -17 -8 -17 -20 0
-26 -16 -26 -146 5 -58 14 -110 25 -115 25 -5 0 -14 -20 -20 -45 -10 -38 -16
-46 -44 -54 -19 -5 -54 -5 -89 1 -49 9 -59 14 -67 37 -11 32 -89 81 -128 81
-32 0 -66 32 -76 71 -5 20 -18 31 -50 43 -92 36 -177 145 -138 177 9 8 12 21
8 36 -5 21 -3 23 18 18 15 -4 28 -1 36 8 9 12 7 19 -14 35 -19 15 -26 29 -24
49 5 62 3 65 -32 47 -35 -18 -49 -9 -49 34 0 15 6 22 20 22 15 0 22 8 26 29 9
43 47 48 126 19 46 -16 77 -37 115 -75 66 -66 90 -72 154 -43 48 23 49 23 89
5 24 -11 48 -31 56 -47 14 -26 19 -28 76 -28 l62 0 -39 41 -40 41 40 -7 c22
-3 49 -15 61 -26 15 -14 29 -18 51 -13 21 4 39 1 54 -10 34 -24 40 -20 33 22
-5 35 -3 42 28 68 43 37 62 83 54 132 -3 21 0 72 7 113 22 126 100 225 230
290 72 37 77 41 77 72 0 80 12 135 31 140 10 3 21 18 25 33 4 16 34 66 67 112
l61 82 69 0 c59 0 78 5 123 31 29 16 62 43 73 58 15 21 32 30 65 34 57 8 114
36 122 59 7 22 17 22 91 3 31 -8 97 -15 145 -15 l88 0 0 -30 c0 -23 5 -30 19
-30 11 0 26 -3 35 -6 12 -5 16 0 16 21 0 27 1 28 19 11 19 -17 21 -17 65 20
30 25 46 46 46 61 0 12 13 37 28 54 27 30 34 32 118 39 49 4 99 3 112 -1 36
-14 126 -11 148 5 13 10 34 13 65 9 41 -5 48 -3 54 16 4 13 15 21 29 21 19 0
26 8 36 45 9 33 21 50 46 64 20 12 43 39 56 65 17 35 28 46 52 50 22 4 36 15
44 34 24 52 45 87 59 95 7 4 13 14 13 22 0 8 9 33 21 55 18 34 29 42 66 52 39
9 44 14 39 33 -7 26 40 94 65 95 18 0 119 115 119 134 0 21 46 39 80 32 22 -4
44 1 71 14 33 17 46 19 77 10 49 -13 62 -13 62 4 0 21 126 35 186 19 43 -11
50 -11 62 4 9 13 15 14 24 5 7 -7 31 -12 55 -12 49 0 66 19 78 84 l6 38 47 -6
c26 -4 67 -11 92 -17 37 -8 63 -6 134 10 48 10 89 21 91 23 1 1 43 84 93 183
137 275 189 469 171 631 -13 116 -18 134 -39 134 -14 0 -17 5 -13 23 3 12 12
30 20 39 13 15 11 24 -15 80 -22 45 -27 65 -19 70 8 4 13 43 15 103 4 90 2 97
-22 130 -16 21 -26 46 -26 67 0 37 -66 141 -113 178 -24 19 -26 27 -30 128 -5
110 -19 211 -56 389 -12 55 -21 111 -21 124 0 12 -17 43 -39 69 -88 105 -134
237 -130 377 l3 93 -38 27 -39 26 9 -29 c11 -39 10 -102 -1 -113 -6 -5 -21
-12 -35 -16 -21 -5 -28 0 -45 32 -11 20 -46 69 -77 108 -31 40 -107 150 -169
246 -178 278 -236 359 -325 449 -120 122 -272 383 -289 495 -11 72 -28 145
-34 145 -3 -1 -208 -84 -456 -187z"/>
</g>
</svg>
