<?xml version="1.0" standalone="no"?>
<!DOCTYPE svg PUBLIC "-//W3C//DTD SVG 20010904//EN"
 "http://www.w3.org/TR/2001/REC-SVG-20010904/DTD/svg10.dtd">
<svg version="1.0" xmlns="http://www.w3.org/2000/svg"
 width="1024.000000pt" height="1024.000000pt" viewBox="0 0 1024.000000 1024.000000"
 preserveAspectRatio="xMidYMid meet">
<metadata>
Created by potrace 1.10, written by Peter Selinger 2001-2011
</metadata>
<g transform="translate(0.000000,1024.000000) scale(0.100000,-0.100000)"
fill="#000000" stroke="none">
<path d="M3321 7286 c-14 -17 14 -107 48 -155 29 -40 27 -48 -14 -65 -19 -8
-35 -19 -35 -23 0 -5 14 -24 31 -42 29 -32 33 -33 85 -28 35 4 67 1 87 -7 79
-33 77 -33 77 28 0 30 5 66 12 80 9 21 8 33 -7 67 -20 43 -39 56 -123 84 -34
11 -60 27 -74 46 -24 32 -67 39 -87 15z"/>
<path d="M3520 6880 c-19 -11 -52 -24 -73 -30 -33 -10 -38 -15 -33 -33 3 -12
6 -34 6 -48 0 -20 8 -30 30 -39 17 -7 37 -27 46 -45 27 -58 78 -84 175 -92
102 -7 115 -13 123 -57 8 -43 27 -58 86 -72 52 -12 75 -8 62 9 -5 7 -15 38
-22 70 -12 54 -12 60 9 105 21 45 22 51 8 84 -9 20 -25 42 -38 48 -26 15 -117
18 -176 7 -35 -6 -43 -4 -43 8 0 25 -80 105 -104 105 -11 -1 -37 -10 -56 -20z"/>
<path d="M4920 6817 c0 -16 10 -29 33 -40 63 -34 95 -63 128 -115 19 -30 48
-70 65 -90 17 -21 34 -45 37 -55 4 -9 20 -20 36 -23 17 -4 56 -31 88 -60 67
-63 96 -84 117 -84 14 0 57 -27 141 -90 22 -16 56 -40 75 -54 19 -13 49 -38
65 -56 17 -18 40 -36 53 -41 12 -5 27 -20 32 -34 5 -14 14 -25 20 -25 17 0 11
-90 -9 -129 -10 -20 -31 -61 -45 -91 -42 -86 -133 -170 -185 -170 -10 0 -30
14 -44 30 -15 17 -37 31 -50 32 -12 1 -40 2 -62 4 -63 3 -94 14 -124 44 -19
20 -42 30 -80 35 -40 5 -59 14 -79 36 -14 16 -35 29 -48 29 -12 0 -35 11 -51
24 -15 13 -43 31 -61 40 -19 10 -39 31 -47 49 -7 18 -23 40 -35 50 -17 15 -21
25 -16 49 8 40 -11 107 -32 115 -9 4 -22 13 -28 21 -8 11 -15 12 -32 3 -25
-13 -46 -6 -78 25 -12 13 -27 24 -33 24 -5 0 -11 10 -13 23 -3 19 -9 22 -48
22 -63 1 -57 -5 -111 108 -12 25 -76 67 -102 67 -5 0 -18 11 -29 25 -24 31
-48 32 -48 4 0 -36 42 -109 62 -109 22 0 23 -13 2 -31 -17 -14 -13 -63 10
-109 31 -60 28 -74 -17 -97 -44 -22 -118 -22 -144 -1 -9 7 -24 5 -48 -6 -34
-16 -36 -16 -80 9 -25 14 -62 41 -81 61 -41 40 -60 39 -75 -5 -18 -51 -52 -51
-81 -1 -26 46 -64 41 -122 -16 -36 -36 -56 -48 -84 -50 -40 -3 -120 21 -138
43 -6 7 -22 13 -36 13 -14 0 -37 9 -51 20 -14 11 -33 20 -43 20 -9 0 -32 17
-50 38 l-34 37 -25 -28 c-22 -25 -33 -29 -84 -30 -37 -1 -65 3 -75 12 -18 15
-92 32 -141 33 -16 0 -33 6 -37 12 -12 18 -62 -18 -66 -48 -5 -42 -99 -60
-156 -31 -15 8 -34 15 -41 15 -7 0 -15 7 -19 15 -8 21 -26 19 -51 -5 l-22 -20
-46 25 c-38 20 -47 22 -47 9 0 -8 -14 -27 -31 -41 -26 -22 -30 -31 -25 -58 5
-22 2 -36 -9 -45 -18 -15 -19 -33 -3 -76 10 -27 8 -35 -11 -63 -17 -24 -30
-31 -55 -31 -34 0 -66 -23 -47 -34 13 -9 33 -109 25 -129 -14 -38 -184 -12
-184 28 0 7 -16 19 -35 26 -30 11 -35 18 -41 56 -3 24 -15 54 -26 68 -17 22
-27 25 -83 25 -66 0 -136 27 -163 63 -18 24 -69 49 -77 37 -3 -5 -12 -7 -20
-3 -23 8 -19 -31 5 -52 24 -22 50 -71 50 -96 0 -10 -13 -27 -30 -39 -19 -14
-30 -30 -30 -46 0 -31 -18 -38 -66 -25 -26 7 -42 7 -50 0 -7 -6 -27 -7 -46 -4
-27 5 -41 1 -76 -25 -36 -26 -49 -30 -75 -24 -40 9 -119 9 -179 0 -34 -5 -49
-12 -53 -27 -10 -31 -40 -42 -73 -25 -16 8 -34 22 -41 30 -10 12 -31 16 -77
16 -44 0 -67 5 -78 16 -15 14 -17 14 -32 0 -20 -20 -48 -20 -64 -1 -7 9 -29
15 -55 15 -35 0 -44 -4 -53 -25 -7 -14 -12 -40 -12 -56 l0 -30 -48 7 c-26 4
-52 14 -58 22 -7 10 -16 12 -25 6 -8 -5 -37 -9 -66 -9 -69 0 -83 -15 -58 -58
10 -17 27 -38 37 -45 25 -18 23 -26 -19 -88 -24 -34 -45 -54 -58 -54 -35 -1
-49 -15 -35 -37 10 -16 9 -25 -4 -51 -16 -32 -48 -43 -61 -21 -5 7 -12 6 -23
-4 -11 -10 -24 -12 -37 -7 -11 5 -51 9 -88 9 -73 1 -92 15 -69 52 16 25 15 29
-7 29 -11 0 -23 5 -27 12 -10 16 -34 -20 -34 -53 0 -17 12 -40 32 -61 18 -19
43 -46 55 -59 35 -38 62 -59 76 -59 7 0 20 -16 27 -35 10 -24 22 -37 39 -41
15 -3 33 -8 41 -10 9 -2 40 -27 69 -54 42 -39 60 -50 87 -50 18 0 36 -5 39
-11 4 -6 19 -7 35 -4 21 5 33 1 49 -17 12 -12 19 -29 16 -36 -3 -8 7 -28 21
-45 14 -17 30 -41 35 -54 5 -13 15 -23 22 -23 8 0 32 -12 53 -26 27 -18 52
-27 79 -26 86 1 174 7 179 13 3 3 9 28 12 55 10 71 16 75 98 71 40 -2 78 -7
85 -11 23 -14 79 4 100 32 41 54 39 53 74 35 37 -19 49 -33 78 -90 29 -60 66
-60 134 2 27 25 59 45 71 45 12 0 32 8 45 19 27 20 106 34 115 20 8 -14 34
-11 34 4 0 19 44 37 92 37 35 0 47 6 86 45 25 26 54 45 66 45 25 0 107 63 178
136 45 46 49 48 70 35 13 -8 46 -15 75 -16 28 0 55 -4 59 -8 4 -4 20 -7 36 -7
16 0 45 -7 65 -15 19 -8 43 -15 53 -15 10 0 20 -7 24 -15 3 -8 10 -15 16 -15
13 0 69 -39 88 -60 7 -9 11 -29 8 -50 -3 -19 -7 -44 -8 -55 -3 -18 3 -20 57
-22 158 -5 202 -10 247 -30 58 -26 130 -75 163 -111 25 -27 34 -62 14 -62 -5
0 -15 -14 -21 -30 -5 -17 -19 -35 -29 -41 -10 -5 -19 -19 -19 -29 0 -21 15
-27 25 -10 8 13 68 7 73 -8 2 -8 -9 -12 -38 -12 -32 0 -43 -4 -47 -19 -5 -18
-50 -25 -298 -44 -30 -2 -30 -3 -27 -52 6 -85 15 -88 173 -75 74 6 169 14 211
17 l77 6 12 -29 c6 -16 27 -60 45 -99 18 -38 36 -82 39 -97 4 -14 16 -35 27
-45 19 -17 20 -17 39 6 10 13 19 36 19 52 0 23 7 32 28 41 52 23 61 39 55 107
l-6 61 37 15 c44 19 153 31 190 21 28 -7 66 -58 66 -88 0 -10 -9 -26 -20 -36
-17 -16 -20 -28 -16 -76 3 -52 0 -66 -35 -132 -22 -41 -39 -80 -39 -87 0 -30
46 -117 62 -117 9 0 19 -4 22 -9 9 -14 89 0 104 18 8 11 11 37 7 81 -6 91 -6
91 1 133 3 20 10 40 15 43 5 3 9 25 9 50 0 39 3 44 22 44 12 0 31 8 42 18 13
10 10 5 -6 -16 -36 -43 -43 -87 -23 -134 8 -21 20 -38 25 -38 6 0 15 -11 20
-25 7 -18 17 -25 35 -25 14 0 30 -9 37 -20 16 -25 28 -25 76 0 63 33 75 52 70
110 -4 42 -2 50 14 55 10 4 25 0 34 -9 20 -20 30 -20 38 0 11 28 7 34 -23 34
-17 0 -32 4 -35 9 -9 14 53 61 80 61 27 0 32 17 8 34 -14 11 -13 16 8 49 25
39 42 46 52 22 3 -8 12 -15 19 -15 8 0 17 -14 21 -32 l7 -33 52 59 c49 55 55
58 87 53 87 -15 105 -21 126 -47 31 -37 174 -69 174 -39 0 6 9 9 20 6 40 -10
66 73 39 124 -9 17 -7 21 8 25 10 3 23 15 28 27 7 15 26 25 65 34 30 7 102 24
160 38 138 35 210 42 210 22 0 -27 40 -31 71 -8 17 13 43 21 68 21 37 0 42 -3
68 -50 l28 -50 88 0 c76 0 93 -3 127 -25 42 -27 54 -43 64 -90 6 -29 1 -34
-110 -119 -129 -99 -130 -100 -78 -179 22 -34 24 -43 14 -66 -18 -46 1 -78 55
-92 33 -8 45 -16 45 -30 0 -10 -4 -20 -10 -24 -6 -4 -6 -15 0 -31 17 -43 12
-86 -14 -113 -26 -29 -59 -108 -51 -121 3 -5 19 -1 37 7 21 11 61 17 117 17
l86 1 3 -27 c2 -18 9 -28 20 -28 9 0 37 -11 61 -25 31 -18 58 -25 96 -25 48 0
54 -2 57 -22 2 -15 13 -25 36 -32 20 -5 39 -20 47 -36 8 -16 32 -34 59 -45 25
-11 46 -23 46 -27 0 -13 44 -8 64 7 25 19 46 19 46 0 0 -8 6 -15 14 -15 8 0
16 -16 20 -42 4 -24 11 -58 17 -76 10 -32 13 -33 57 -30 38 2 49 8 57 26 12
27 49 39 70 22 8 -7 15 -26 15 -42 0 -31 24 -48 43 -29 19 19 47 12 88 -20 27
-21 45 -29 57 -23 9 4 25 6 35 5 19 -3 24 38 7 55 -12 12 10 62 39 88 28 26
65 17 69 -16 5 -46 25 -53 71 -22 22 14 52 26 66 27 14 0 25 5 25 12 0 7 15
15 33 18 25 4 37 0 53 -18 12 -12 31 -26 43 -30 17 -5 21 -12 17 -29 -6 -24
10 -37 62 -51 13 -4 30 -22 40 -43 11 -24 25 -38 39 -40 12 -2 25 -12 28 -22
5 -16 10 -17 31 -8 21 10 27 8 45 -10 18 -21 22 -21 42 -7 31 22 88 20 94 -4
3 -10 19 -23 36 -28 26 -7 31 -13 29 -34 -2 -18 6 -31 28 -47 29 -22 31 -27
28 -80 -3 -53 -1 -57 20 -60 13 -2 24 3 28 12 3 8 21 20 40 26 19 6 34 16 34
21 0 5 16 9 36 9 19 0 44 5 55 10 27 15 24 49 -6 60 -14 5 -30 21 -35 34 -5
14 -19 30 -30 36 -28 15 -24 64 6 68 12 2 28 17 37 38 21 44 22 41 -10 47 -18
3 -41 -2 -66 -16 -29 -16 -40 -18 -49 -9 -9 9 -5 19 16 41 29 31 30 57 0 81
-11 10 -12 16 -3 27 17 20 -3 38 -27 25 -22 -11 -91 -4 -100 9 -3 5 -22 9 -42
9 -33 0 -39 5 -54 39 -23 49 -23 94 0 114 22 20 52 21 112 4 52 -15 186 -14
245 1 26 7 52 24 73 49 32 37 35 38 102 39 65 0 69 2 103 37 19 20 39 37 44
37 5 0 14 12 19 28 l10 27 37 -38 c33 -35 52 -77 27 -62 -20 12 -50 -6 -50
-30 0 -13 5 -27 10 -30 6 -3 10 -21 10 -39 0 -23 9 -41 29 -60 33 -32 51 -28
51 11 0 37 27 52 92 53 50 0 60 3 74 25 20 30 84 37 84 9 0 -12 6 -15 23 -10
12 3 28 6 34 6 7 0 19 15 27 34 18 44 30 50 61 30 20 -13 28 -14 40 -4 11 9
19 9 28 2 12 -10 17 -12 38 -12 8 0 9 -4 0 -13 -16 -20 -6 -25 49 -19 41 4 51
1 57 -13 4 -13 -3 -26 -26 -47 -30 -27 -31 -30 -17 -56 8 -15 17 -36 21 -47 6
-19 7 -19 19 -2 7 9 20 17 29 17 9 0 22 10 28 22 11 21 12 21 25 3 8 -10 14
-27 14 -37 0 -23 29 -36 40 -18 7 11 12 11 23 1 9 -6 26 -9 40 -6 33 9 57 -17
57 -61 0 -22 6 -37 15 -40 8 -4 15 -12 15 -19 0 -21 17 -27 50 -20 20 4 30 13
30 25 0 11 11 22 30 29 17 5 30 15 30 21 0 19 -32 60 -46 60 -23 0 -40 48 -26
71 7 10 12 25 12 33 0 16 37 46 57 46 7 0 13 -9 13 -20 0 -27 34 -26 84 1 35
18 40 19 48 5 5 -8 16 -23 26 -32 9 -10 17 -25 17 -33 0 -10 11 -17 30 -19 17
-1 39 -7 50 -12 27 -13 109 11 113 34 3 12 -4 16 -26 16 -16 0 -35 7 -42 15
-7 8 -19 15 -26 15 -19 0 -18 20 2 48 15 22 15 24 -5 29 -11 3 -23 14 -26 24
-4 10 -12 20 -18 21 -51 6 -77 8 -110 8 -37 -1 -38 0 -35 31 3 27 -1 32 -19
34 -28 2 -29 3 -36 42 -5 27 -2 36 24 57 17 14 38 26 48 26 9 0 48 15 86 33
63 30 75 32 120 25 28 -4 62 -15 77 -23 37 -21 161 -20 179 1 12 14 10 19 -15
39 -15 12 -33 33 -40 46 -10 21 -20 25 -86 30 -193 14 -264 -5 -362 -102 -41
-40 -84 -55 -122 -41 -18 7 -44 12 -58 12 -15 0 -35 12 -51 30 -32 35 -47 37
-72 10 -19 -21 -106 -50 -152 -50 -15 0 -45 -9 -66 -20 -44 -24 -47 -24 -47
-5 0 8 12 22 28 32 15 9 47 33 72 53 69 55 97 70 130 70 33 0 42 13 44 62 1
27 3 29 31 23 42 -10 69 -8 73 5 2 6 15 15 28 20 18 7 24 17 24 41 0 76 -57
139 -125 139 -18 0 -38 7 -46 16 -11 14 -9 15 21 12 45 -4 50 18 8 35 l-33 13
23 19 c12 11 22 25 22 32 0 16 -36 17 -46 2 -10 -16 -69 -4 -104 21 -26 19
-30 28 -30 69 0 56 12 71 57 71 18 0 33 4 33 9 0 18 -58 51 -88 51 -38 0 -101
-26 -121 -51 -9 -11 -33 -22 -53 -26 -41 -6 -98 12 -98 31 0 16 -59 86 -72 86
-17 0 -98 70 -109 94 -5 11 -13 29 -19 39 -5 9 -13 24 -18 33 -12 26 -169 85
-244 91 -41 3 -69 11 -72 19 -6 16 31 64 50 64 8 0 34 10 56 21 31 16 59 21
105 20 68 -1 76 7 45 45 -30 38 -114 36 -190 -4 l-33 -17 -35 43 c-32 37 -40
42 -78 42 -29 0 -48 6 -60 19 -35 39 -191 61 -233 33 -13 -8 -23 -20 -23 -28
0 -21 -38 -38 -56 -23 -17 14 -18 33 -2 59 22 34 -7 41 -114 26 -55 -8 -58 -7
-58 13 0 14 6 21 18 21 10 0 29 11 41 24 l23 24 -44 7 c-24 4 -47 10 -53 14
-5 4 -31 7 -57 7 -37 -1 -48 3 -52 17 -3 13 -15 17 -54 17 -28 0 -54 5 -58 11
-4 7 -18 0 -38 -19 -17 -16 -53 -35 -79 -42 -45 -12 -49 -12 -72 10 -29 27
-32 52 -9 71 21 18 14 137 -9 150 -9 5 -15 24 -15 49 -1 44 -16 65 -75 98 -42
24 -73 29 -61 10 5 -7 2 -9 -9 -5 -9 3 -27 -3 -40 -14 -14 -10 -37 -19 -53
-19 -26 0 -26 -1 14 -30 23 -16 44 -30 48 -30 8 0 67 -60 63 -64 -37 -32 -83
-32 -117 -1 -21 19 -24 27 -14 37 7 7 12 19 12 29 0 13 -8 15 -49 11 -56 -5
-88 9 -93 40 -2 15 -13 25 -35 32 -18 5 -33 15 -33 21 0 14 -22 25 -50 25 -10
0 -20 9 -23 20 -4 15 -14 20 -36 20 -19 0 -34 6 -38 15 -9 24 -72 47 -138 50
-33 2 -96 8 -140 13 -140 18 -228 22 -242 11 -22 -19 -57 -2 -77 38 -10 21
-22 45 -26 53 -10 22 -81 60 -112 60 -15 0 -30 5 -33 10 -10 17 -84 61 -98 59
-59 -10 -143 45 -149 99 -2 16 -12 31 -27 39 -13 6 -28 19 -33 27 -5 9 -15 16
-22 16 -7 0 -23 11 -36 25 -17 18 -34 25 -62 25 -21 0 -38 4 -38 10 0 20 -52
60 -78 60 -16 0 -32 8 -40 20 -7 11 -20 20 -30 20 -26 0 -140 39 -199 68 -38
19 -61 39 -84 75 -33 51 -72 81 -126 96 -18 5 -40 16 -49 25 -23 23 -44 20
-44 -7z"/>
<path d="M5094 4569 c-4 -7 -20 -9 -39 -6 -47 8 -65 -15 -65 -85 0 -53 2 -57
29 -66 16 -6 32 -8 34 -5 3 2 15 -1 27 -7 20 -11 22 -18 17 -66 -3 -30 -1 -56
4 -59 5 -4 9 -16 9 -28 0 -12 7 -31 15 -41 8 -11 15 -37 15 -58 0 -21 4 -38 9
-38 19 0 41 -32 41 -58 0 -19 11 -35 35 -55 19 -15 38 -42 43 -59 12 -46 27
-45 57 6 15 25 33 46 41 46 8 0 14 4 14 9 0 5 16 19 35 32 36 25 43 47 26 92
-5 13 -18 27 -29 29 -13 4 -25 24 -37 63 -10 31 -25 60 -34 63 -9 3 -20 11
-24 19 -14 23 -54 16 -61 -12 -4 -16 -13 -25 -26 -25 -25 0 -35 17 -22 43 5
12 14 55 19 95 9 73 9 74 -18 93 -16 11 -31 28 -34 39 -4 11 -15 20 -25 20
-10 0 -20 7 -24 15 -6 18 -22 20 -32 4z"/>
<path d="M4696 4253 c-4 -5 -24 -8 -44 -8 -29 0 -37 -4 -40 -20 -6 -25 -47
-68 -92 -92 -27 -15 -36 -28 -41 -54 -7 -47 -14 -56 -50 -64 -17 -4 -33 -14
-37 -23 -3 -10 -19 -34 -36 -54 -21 -28 -37 -38 -57 -38 -15 0 -31 -4 -34 -10
-3 -5 -14 -10 -25 -10 -10 0 -34 -16 -54 -36 -35 -35 -37 -36 -51 -18 -8 11
-14 14 -15 7 0 -7 -9 -13 -19 -13 -19 0 -31 -18 -31 -50 0 -9 -7 -23 -15 -30
-22 -18 -9 -29 29 -23 40 6 86 -20 86 -49 0 -30 -19 -59 -38 -57 -30 3 -37 0
-72 -33 -29 -26 -36 -28 -38 -15 -2 9 -9 17 -15 17 -19 -1 -47 -26 -47 -42 0
-9 -7 -21 -15 -28 -38 -32 0 -62 73 -60 76 3 82 1 82 -19 0 -21 35 -51 58 -51
12 0 12 3 1 16 -12 14 -9 20 16 40 17 13 34 24 38 24 15 0 20 -32 8 -54 -19
-35 -72 -49 -152 -41 -59 6 -69 5 -69 -9 0 -9 8 -16 17 -16 22 0 5 -17 -21
-22 -16 -2 -20 -13 -22 -60 l-3 -58 32 0 c22 0 43 -9 64 -29 26 -24 40 -28 80
-27 31 1 54 7 65 19 10 9 26 17 36 17 34 0 82 73 82 125 0 13 6 30 13 37 6 7
13 24 14 38 6 83 22 182 30 192 6 7 15 28 21 46 10 28 8 40 -8 74 -16 34 -17
42 -5 54 7 8 27 14 43 14 21 0 35 8 46 25 9 14 23 25 30 25 7 0 19 7 26 16 8
8 25 14 39 12 23 -3 26 -8 29 -44 3 -40 5 -42 38 -46 19 -2 34 1 35 7 0 5 0
34 -1 63 -1 48 0 52 22 52 15 0 27 -8 33 -22 6 -13 24 -29 40 -37 39 -18 45
-28 45 -74 0 -22 5 -39 13 -41 6 -2 28 -9 47 -15 68 -25 67 -25 72 9 3 17 1
33 -4 36 -5 3 -6 13 -4 22 4 11 -4 24 -24 37 -28 19 -30 23 -24 65 6 44 5 46
-30 64 -38 20 -46 45 -20 67 12 10 14 23 9 54 -4 30 -2 45 9 54 30 25 -15 90
-64 91 -20 0 -29 9 -42 40 -16 38 -42 52 -62 33z"/>
</g>
</svg>
