<?xml version="1.0" standalone="no"?>
<!DOCTYPE svg PUBLIC "-//W3C//DTD SVG 20010904//EN"
 "http://www.w3.org/TR/2001/REC-SVG-20010904/DTD/svg10.dtd">
<svg version="1.0" xmlns="http://www.w3.org/2000/svg"
 width="1024.000000pt" height="1024.000000pt" viewBox="0 0 1024.000000 1024.000000"
 preserveAspectRatio="xMidYMid meet">
<metadata>
Created by potrace 1.10, written by Peter Selinger 2001-2011
</metadata>
<g transform="translate(0.000000,1024.000000) scale(0.100000,-0.100000)"
fill="#000000" stroke="none">
<path d="M684 9863 c-32 -6 -138 -105 -206 -190 -137 -174 -268 -323 -365
-418 -97 -95 -102 -103 -108 -151 -7 -49 -5 -54 47 -135 32 -49 69 -127 91
-188 35 -97 38 -115 47 -275 14 -240 19 -283 46 -347 12 -30 34 -96 48 -146
14 -49 42 -136 62 -192 l37 -103 116 -102 c112 -98 121 -103 260 -161 l144
-60 81 -88 c102 -111 305 -272 506 -400 121 -77 177 -120 255 -198 l100 -99
197 0 c343 0 510 -37 993 -217 205 -77 240 -93 318 -150 49 -35 131 -85 183
-111 74 -36 96 -52 106 -77 7 -16 12 -32 12 -35 -1 -3 -4 -17 -8 -31 -4 -20 5
-41 41 -95 27 -40 50 -88 55 -114 7 -37 18 -53 63 -93 30 -26 52 -53 50 -60
-2 -7 -6 -33 -9 -59 l-6 -48 55 -40 54 -40 -15 -36 -16 -37 63 -63 c57 -57 72
-66 153 -94 67 -22 147 -64 306 -160 297 -179 434 -226 719 -247 l88 -6 99 77
c162 124 325 334 407 525 l50 116 -6 130 c-3 71 -15 174 -26 227 -19 89 -25
104 -72 164 l-52 65 7 76 c4 56 13 88 33 122 53 91 208 318 324 473 66 87 119
167 119 176 0 24 52 131 94 194 31 45 45 56 103 80 38 15 78 28 91 28 18 0 27
9 39 39 18 45 24 49 101 57 32 3 89 16 127 29 39 12 102 28 142 35 55 9 83 20
115 44 24 18 68 40 98 49 56 17 106 49 198 125 l52 44 0 75 c0 91 -12 114 -85
166 -46 32 -57 46 -76 98 -21 56 -28 64 -95 109 -59 41 -79 61 -111 117 -36
63 -41 68 -83 76 -25 5 -110 23 -190 42 -80 19 -180 39 -223 45 -57 9 -119 29
-230 77 l-152 66 -133 -1 -133 0 -70 -43 c-63 -38 -85 -45 -226 -70 -86 -16
-193 -33 -237 -39 -71 -9 -88 -16 -151 -57 -40 -27 -98 -77 -129 -113 -60 -67
-82 -78 -163 -79 -27 -1 -33 3 -33 20 0 15 -5 19 -15 15 -9 -3 -108 -35 -221
-71 l-204 -65 -171 0 -170 0 -177 64 c-250 91 -240 86 -271 141 -26 48 -27 49
-171 106 -125 50 -154 58 -213 59 -85 0 -142 27 -230 109 -82 78 -263 176
-359 196 -38 8 -100 15 -137 15 l-67 0 -28 -57 -28 -58 -14 28 c-17 31 -26 33
-44 12 -25 -30 -135 -73 -205 -80 -66 -7 -73 -10 -120 -55 -43 -42 -58 -49
-105 -55 -30 -4 -71 -18 -92 -31 -29 -19 -51 -24 -100 -24 -56 0 -68 4 -109
34 -32 24 -48 44 -52 65 l-6 31 -83 0 c-46 1 -155 7 -243 14 -152 13 -164 16
-241 52 -66 32 -92 52 -140 106 -33 37 -91 92 -129 121 -84 66 -140 156 -149
240 -3 28 -10 97 -16 152 -11 98 -10 102 18 185 l28 85 97 75 c71 55 111 95
148 148 l51 74 -30 36 c-29 36 -47 44 -88 35z"/>
<path d="M9843 4583 c-39 -11 -73 -34 -140 -92 -142 -124 -163 -157 -226 -361
-31 -96 -58 -206 -62 -245 -7 -66 -11 -75 -70 -155 -85 -116 -92 -128 -99
-180 -7 -41 -13 -50 -83 -105 -41 -33 -134 -122 -206 -198 l-131 -138 -47
-132 c-26 -73 -72 -203 -103 -290 -38 -107 -56 -174 -56 -206 0 -27 -12 -81
-30 -128 -29 -80 -29 -84 -20 -185 9 -105 31 -204 94 -433 52 -190 60 -202
176 -263 53 -29 103 -60 112 -69 42 -51 137 -214 150 -258 l14 -50 57 3 57 4
72 -64 c40 -35 96 -82 123 -105 28 -22 113 -116 190 -208 139 -165 141 -167
230 -212 56 -28 110 -64 143 -96 l52 -51 32 39 c18 22 54 63 80 91 47 50 48
52 54 130 3 43 12 109 20 146 19 93 18 174 -6 242 -45 132 -50 197 -40 479 6
144 12 274 15 289 2 15 -20 126 -51 247 l-55 220 25 83 c16 53 29 134 37 223
l13 140 -32 88 c-26 73 -32 103 -32 172 0 75 -3 90 -29 133 l-28 48 30 75 29
74 -16 105 c-9 58 -16 127 -16 153 0 33 -9 65 -29 105 -68 134 -111 253 -111
306 0 42 -5 58 -28 86 -26 30 -28 38 -20 72 4 22 23 64 41 96 30 54 32 62 31
152 -1 75 -7 109 -26 163 -14 37 -27 69 -29 71 -2 2 -27 -3 -56 -11z"/>
</g>
</svg>
