<?xml version="1.0" standalone="no"?>
<!DOCTYPE svg PUBLIC "-//W3C//DTD SVG 20010904//EN"
 "http://www.w3.org/TR/2001/REC-SVG-20010904/DTD/svg10.dtd">
<svg version="1.0" xmlns="http://www.w3.org/2000/svg"
 width="1024.000000pt" height="1024.000000pt" viewBox="0 0 1024.000000 1024.000000"
 preserveAspectRatio="xMidYMid meet">
<metadata>
Created by potrace 1.10, written by Peter Selinger 2001-2011
</metadata>
<g transform="translate(0.000000,1024.000000) scale(0.100000,-0.100000)"
fill="#000000" stroke="none">
<path d="M8766 10215 c-4 -14 -18 -32 -31 -41 -24 -16 -27 -15 -45 1 -26 23
-51 13 -80 -35 -23 -38 -27 -40 -75 -40 -27 0 -55 -4 -61 -8 -21 -15 -44 -57
-44 -82 0 -21 -7 -28 -42 -40 -26 -9 -48 -25 -57 -42 -14 -24 -14 -28 2 -46
23 -26 22 -32 -19 -101 l-36 -61 -62 0 c-46 0 -81 -9 -144 -34 -46 -19 -111
-37 -146 -41 -79 -9 -108 -35 -161 -146 -34 -72 -39 -78 -83 -94 -26 -10 -56
-29 -68 -43 -22 -27 -20 -27 -149 -3 -49 9 -77 -3 -160 -69 -33 -26 -96 -72
-140 -101 l-80 -54 -180 0 c-178 0 -180 0 -227 -27 -26 -16 -53 -28 -60 -28
-7 0 -30 -9 -50 -20 -21 -11 -72 -23 -120 -29 -116 -12 -201 -49 -258 -112
-39 -44 -54 -52 -115 -68 -77 -20 -149 -59 -240 -131 -33 -26 -89 -66 -125
-90 -36 -24 -297 -207 -581 -406 l-516 -363 -128 -139 -127 -139 -105 -34
-106 -34 -50 -75 c-27 -41 -151 -211 -276 -376 -186 -248 -233 -305 -267 -322
-29 -15 -53 -40 -89 -95 l-49 -75 -71 -6 c-41 -4 -125 -1 -205 8 -253 29 -465
46 -566 46 -90 0 -108 3 -185 34 -46 18 -107 36 -136 40 l-52 7 -91 -133 c-50
-73 -122 -176 -160 -228 l-69 -95 -58 -7 c-119 -15 -123 -16 -123 -47 0 -43
-56 -81 -75 -51 -8 13 -62 13 -70 0 -10 -16 -68 1 -107 32 -23 18 -75 40 -135
57 -54 16 -134 43 -177 60 l-79 32 -37 -36 c-47 -46 -78 -143 -96 -300 l-12
-110 35 -142 36 -143 -20 -188 c-32 -290 -17 -353 115 -497 41 -44 69 -65 109
-80 33 -12 100 -57 173 -114 126 -99 162 -143 193 -236 12 -35 27 -56 50 -71
30 -20 35 -30 49 -100 9 -44 28 -105 42 -137 21 -47 31 -59 55 -63 27 -6 29
-9 34 -72 3 -37 9 -75 12 -84 6 -14 2 -18 -16 -18 -47 0 -50 -10 -29 -90 19
-74 19 -77 1 -148 -17 -63 -27 -81 -83 -144 -34 -39 -92 -95 -127 -124 -65
-54 -94 -96 -213 -309 -54 -97 -56 -103 -62 -196 -7 -94 -6 -101 84 -508 78
-351 103 -447 166 -631 l74 -216 -16 -47 c-14 -41 -21 -48 -54 -58 -35 -11
-43 -20 -94 -119 -48 -92 -56 -115 -56 -162 0 -50 -5 -61 -65 -148 l-66 -95
88 -29 c70 -23 102 -40 160 -87 39 -33 79 -59 88 -59 10 0 42 -14 73 -32 87
-50 190 -66 337 -53 160 14 333 60 347 91 6 13 23 26 39 29 33 8 41 17 84 96
l33 62 97 39 c89 36 98 37 110 22 9 -13 21 -15 57 -10 l45 7 44 -73 44 -73 70
-6 c61 -5 78 -3 130 20 33 14 84 41 114 60 31 19 73 36 96 38 37 5 42 3 53
-23 l13 -27 26 26 c26 25 27 26 55 9 27 -16 29 -15 50 5 19 20 20 26 10 61 -7
22 -12 44 -12 49 0 6 29 36 65 68 63 55 71 59 181 86 63 16 119 27 123 24 5
-2 12 -16 15 -30 4 -14 16 -50 26 -79 20 -52 23 -55 174 -151 122 -78 158
-106 178 -140 l25 -42 -24 -59 c-19 -47 -22 -63 -13 -77 9 -15 8 -23 -4 -36
-34 -38 -5 -101 67 -146 l45 -29 -14 -39 c-8 -22 -14 -50 -14 -63 0 -43 109
-143 173 -159 15 -4 36 -22 48 -41 12 -19 32 -37 47 -41 15 -3 47 -20 72 -37
27 -19 86 -43 147 -60 l102 -28 52 32 c65 40 92 51 148 60 39 6 55 2 128 -31
46 -22 85 -39 87 -39 1 0 14 31 27 69 22 67 25 71 69 87 60 22 102 48 173 108
l60 49 24 -27 24 -28 38 25 c44 29 76 32 241 22 84 -5 120 -3 180 12 72 18 95
18 548 4 259 -8 474 -12 476 -10 8 7 107 393 120 464 11 61 22 83 83 170 38
55 82 132 97 170 15 39 44 97 64 129 30 50 35 67 33 110 l-3 49 91 89 91 88 0
59 c0 57 -1 59 -34 75 -19 9 -41 16 -50 16 -11 0 -16 9 -16 32 0 19 -9 41 -21
55 -20 21 -21 26 -10 80 12 56 10 350 -2 383 -7 18 -16 91 -23 185 -7 77 -12
65 86 192 25 32 53 64 62 71 9 6 20 27 24 45 8 37 77 137 126 183 45 43 122
67 186 58 45 -6 57 -3 118 30 126 66 157 95 202 188 40 80 42 88 42 177 0 85
2 97 25 127 16 21 25 46 25 69 0 69 29 158 65 195 54 57 132 207 140 270 8 62
32 94 121 160 55 41 90 93 120 179 28 79 92 130 193 151 l76 16 53 140 54 139
0 170 0 170 -50 190 c-28 105 -65 250 -82 323 l-32 134 -167 291 c-92 161
-204 349 -249 419 l-82 127 90 227 89 228 -48 85 c-45 80 -49 92 -55 176 -4
50 -18 151 -31 225 -13 74 -34 191 -45 260 -12 69 -23 134 -26 146 -5 20 0 21
92 27 89 6 100 9 128 35 17 16 51 37 76 46 149 57 161 87 100 251 -32 86 -40
121 -40 174 0 88 -27 304 -45 361 -7 25 -19 71 -25 102 -10 50 -9 61 8 95 11
21 30 47 42 58 36 33 80 102 80 127 0 38 92 103 184 130 61 18 75 25 70 38 -4
8 -8 85 -10 172 -1 93 -9 188 -18 235 -9 43 -22 130 -29 193 l-12 114 -32 10
c-44 12 -61 -4 -65 -62 -2 -37 -8 -49 -27 -58 -19 -10 -29 -9 -56 8 -19 10
-39 26 -45 34 -17 19 -48 18 -91 -5 l-37 -20 -19 22 c-11 12 -25 41 -32 65
-10 34 -16 42 -35 42 -17 0 -26 -7 -30 -25z"/>
</g>
</svg>
