<?xml version="1.0" standalone="no"?>
<!DOCTYPE svg PUBLIC "-//W3C//DTD SVG 20010904//EN"
 "http://www.w3.org/TR/2001/REC-SVG-20010904/DTD/svg10.dtd">
<svg version="1.0" xmlns="http://www.w3.org/2000/svg"
 width="1024.000000pt" height="1024.000000pt" viewBox="0 0 1024.000000 1024.000000"
 preserveAspectRatio="xMidYMid meet">
<metadata>
Created by potrace 1.10, written by Peter Selinger 2001-2011
</metadata>
<g transform="translate(0.000000,1024.000000) scale(0.100000,-0.100000)"
fill="#000000" stroke="none">
<path d="M5030 8481 c-39 -12 -95 -43 -237 -128 -72 -43 -167 -98 -211 -121
-83 -46 -217 -147 -287 -218 -22 -22 -58 -54 -80 -71 -47 -35 -193 -109 -285
-143 -36 -13 -83 -36 -105 -51 -93 -62 -335 -191 -406 -216 l-76 -27 -169 18
c-93 10 -205 24 -249 32 -172 30 -237 35 -365 23 l-125 -11 -170 52 c-93 29
-176 56 -184 60 -8 4 -55 -3 -105 -17 -170 -45 -233 -52 -368 -38 l-66 7 -115
-61 c-64 -34 -142 -81 -174 -104 -32 -24 -75 -53 -97 -65 -21 -13 -71 -47
-110 -76 l-71 -53 -207 -18 c-114 -10 -235 -15 -268 -12 -41 3 -82 -1 -132
-14 -87 -22 -151 -24 -206 -5 -62 22 -142 24 -154 3 -6 -12 -5 -23 4 -35 29
-41 64 -78 90 -95 16 -9 28 -23 28 -31 0 -13 26 -40 106 -110 31 -27 51 -36
77 -36 64 0 94 -22 163 -116 36 -49 68 -93 70 -99 2 -5 13 -35 24 -66 19 -54
23 -57 65 -68 48 -12 149 -14 207 -5 l38 7 0 53 0 53 -41 3 c-50 4 -71 27 -51
58 6 11 12 36 12 55 0 38 13 46 29 17 6 -11 5 -30 -5 -57 -16 -49 -7 -57 58
-49 26 4 54 4 63 0 15 -5 14 -9 -4 -32 -43 -55 -23 -74 80 -74 50 0 57 3 78
31 21 28 22 36 12 69 -22 73 -15 100 36 152 l47 48 -17 34 c-15 33 -15 36 3
58 23 29 35 19 19 -16 -9 -20 -9 -32 -1 -51 19 -42 14 -57 -29 -95 -45 -39
-52 -66 -28 -116 10 -20 23 -30 42 -32 24 -3 44 13 140 108 62 61 126 119 144
129 17 11 38 30 47 42 14 21 14 24 -1 41 -9 10 -24 18 -33 18 -10 0 -23 13
-30 30 -12 28 -10 33 26 74 22 24 47 45 56 45 9 1 21 8 26 17 7 12 11 13 16 5
11 -17 -13 -41 -40 -41 -17 0 -31 -12 -49 -40 -31 -49 -31 -60 -1 -60 17 0 31
-11 46 -35 19 -31 26 -35 65 -35 24 0 47 5 50 10 3 6 37 10 76 10 77 0 83 8
54 64 -18 35 -18 37 -1 30 8 -3 17 -16 20 -30 10 -40 33 -27 68 38 44 83 80
103 196 111 64 4 94 1 114 -9 15 -8 39 -14 54 -14 15 0 51 -14 80 -31 32 -18
61 -28 72 -25 11 4 29 -2 45 -14 14 -11 36 -20 49 -20 16 0 34 -16 63 -56 44
-62 111 -124 133 -124 34 0 83 -35 107 -76 14 -24 47 -64 73 -89 34 -33 42
-45 29 -45 -28 0 -109 73 -136 122 -18 34 -35 49 -82 71 -34 16 -64 38 -72 53
-7 13 -41 49 -75 79 -55 47 -68 54 -119 60 -32 4 -67 13 -78 20 -11 6 -57 28
-102 48 -90 40 -93 40 -227 3 -73 -19 -88 -33 -116 -101 -28 -68 -89 -115
-150 -115 -34 0 -52 -8 -98 -44 -32 -24 -92 -65 -134 -90 -67 -41 -81 -54
-112 -110 -32 -59 -34 -69 -29 -121 4 -39 12 -60 25 -69 17 -12 17 -14 3 -20
-31 -12 -55 12 -55 53 0 24 -5 41 -14 44 -16 7 -111 -48 -189 -110 -49 -38
-54 -46 -64 -101 -9 -45 -23 -75 -62 -129 -28 -38 -51 -76 -51 -84 0 -20 20
-39 42 -39 28 0 48 -42 55 -116 6 -73 22 -114 56 -152 19 -20 27 -22 73 -16
41 5 59 2 93 -16 49 -24 96 -92 106 -151 13 -74 130 -145 260 -156 70 -7 128
-33 163 -74 50 -60 84 -60 103 -1 14 45 33 67 82 99 41 26 53 26 246 -1 42 -6
84 16 149 78 69 67 81 90 59 114 -8 9 -21 34 -28 55 -10 28 -23 42 -54 57 -23
11 -46 20 -52 20 -6 0 -13 39 -17 92 -4 58 -12 99 -22 109 -25 28 -16 44 11
19 31 -29 49 -22 80 31 15 26 26 33 43 31 29 -4 26 -32 -6 -48 -42 -21 -59
-44 -71 -99 -17 -76 -8 -114 30 -122 20 -4 36 -18 53 -47 13 -22 38 -51 54
-63 28 -20 31 -21 44 -6 11 13 11 17 0 21 -24 8 -67 50 -59 58 4 4 17 -2 30
-14 12 -11 34 -24 49 -27 24 -6 30 -3 45 24 13 22 30 35 58 42 22 6 46 13 54
15 9 3 11 12 7 29 -4 14 -1 45 5 71 14 52 2 77 -26 54 -11 -9 -19 -10 -27 -2
-8 8 -1 12 25 17 53 10 60 1 53 -65 l-7 -57 53 -6 c35 -4 70 -1 102 8 60 18
90 19 116 3 25 -16 35 -5 20 22 -20 38 -5 45 18 8 17 -28 22 -51 22 -107 0
-79 4 -82 55 -51 26 16 38 18 60 10 36 -14 35 -15 35 29 0 33 7 45 48 83 72
68 84 72 135 50 50 -22 62 -36 74 -82 9 -34 11 -35 57 -34 28 0 45 -4 43 -10
-6 -17 -98 -14 -108 4 -4 8 -16 33 -26 54 -30 62 -40 64 -127 22 l-78 -38 3
-41 c4 -43 -26 -137 -42 -137 -5 0 -9 10 -9 23 0 38 -17 47 -61 31 -30 -10
-45 -11 -64 -2 -22 10 -25 18 -25 64 0 81 -38 86 -168 20 -80 -40 -162 -109
-162 -135 0 -4 -11 -19 -24 -33 -14 -13 -32 -46 -41 -74 -24 -70 -62 -121
-112 -151 -24 -14 -43 -26 -43 -28 0 -1 -13 -46 -30 -99 -16 -53 -31 -114 -34
-135 -3 -24 -18 -57 -40 -85 -46 -61 -53 -100 -31 -181 10 -36 22 -68 26 -70
4 -3 21 11 37 31 35 42 115 70 157 54 20 -7 27 -6 34 9 6 10 8 21 5 24 -4 3
-8 39 -9 79 -3 75 10 108 42 108 7 0 13 9 13 20 0 11 -4 20 -8 20 -15 0 -32
49 -32 91 0 50 16 43 25 -11 4 -22 9 -40 13 -40 3 0 16 10 29 22 29 27 41 17
19 -16 -9 -14 -16 -36 -16 -50 0 -16 -12 -34 -36 -53 l-36 -29 12 -57 c13 -66
42 -94 85 -83 27 7 28 8 44 72 6 23 22 56 36 75 95 131 98 137 92 184 -4 41
-1 49 27 80 l32 34 62 -23 c35 -12 69 -32 78 -45 14 -19 24 -22 59 -19 32 2
41 0 34 -8 -21 -25 -60 -22 -93 7 -55 48 -120 63 -149 35 -8 -8 -17 -46 -21
-85 -5 -50 -14 -80 -32 -107 -14 -20 -32 -64 -41 -98 -8 -33 -22 -73 -29 -88
-23 -44 -18 -81 12 -95 33 -15 49 -9 106 44 26 23 52 43 59 43 6 0 39 17 73
37 82 51 156 73 244 73 79 0 82 2 140 79 14 19 33 31 46 31 13 0 44 9 68 20
35 15 49 29 63 61 24 53 147 179 175 179 36 0 70 31 100 89 32 65 54 76 164
87 62 6 74 11 111 45 23 21 54 43 69 49 60 22 225 2 284 -36 12 -8 39 -39 59
-69 l36 -55 55 0 c43 0 64 -6 92 -25 49 -34 170 -74 195 -65 11 4 46 33 78 65
40 41 57 65 57 84 0 56 104 131 183 131 26 0 49 6 56 14 21 25 105 30 156 10
37 -13 51 -15 71 -5 41 18 62 13 124 -31 l60 -42 30 29 c40 39 51 24 11 -16
-21 -21 -37 -29 -49 -24 -9 3 -38 9 -64 12 -40 5 -48 3 -60 -16 -9 -14 -23
-21 -44 -21 -35 0 -44 -13 -44 -65 0 -71 -21 -135 -63 -187 -54 -69 -62 -114
-35 -198 11 -36 25 -71 31 -78 6 -8 32 -12 71 -11 81 2 145 -29 176 -82 12
-22 32 -52 46 -69 29 -34 86 -49 109 -30 12 10 15 10 15 -3 0 -16 -67 -37
-119 -37 -24 0 -34 8 -58 45 -50 82 -55 86 -123 100 -36 8 -84 14 -107 15 -69
0 -90 32 -84 127 1 17 -5 46 -15 65 -11 20 -18 57 -18 93 -1 55 3 64 37 109
21 27 47 66 57 86 18 35 18 39 2 53 -9 8 -37 21 -62 27 -45 12 -45 12 -70 -21
-42 -56 -121 -129 -146 -134 -13 -3 -35 -7 -48 -10 -13 -3 -47 -26 -75 -51
l-52 -46 -97 -2 c-78 -2 -105 2 -136 17 -31 15 -44 17 -58 8 -10 -6 -50 -11
-90 -11 -63 -1 -81 4 -133 31 -61 32 -61 32 -120 18 -56 -13 -62 -18 -133
-101 -66 -80 -77 -88 -108 -88 -19 0 -48 -7 -63 -15 -43 -22 -206 -207 -230
-259 -11 -26 -35 -66 -54 -89 -44 -55 -51 -83 -25 -101 18 -13 20 -21 14 -65
-6 -42 -4 -51 9 -51 8 0 15 -9 15 -19 0 -19 18 -31 47 -31 24 0 42 31 43 72 0
26 6 41 22 52 22 16 64 12 83 -7 7 -6 1 -7 -17 -3 -21 5 -28 2 -33 -15 -4 -12
-1 -27 8 -37 19 -23 27 -72 16 -95 -6 -10 -7 -27 -4 -37 5 -16 15 -20 54 -20
57 0 69 9 110 82 21 38 41 60 56 64 37 9 54 -2 23 -14 -15 -6 -32 -21 -39 -33
-10 -19 -8 -25 12 -40 l24 -19 -37 0 c-43 0 -47 -10 -17 -52 25 -35 15 -53
-11 -21 -26 33 -47 28 -60 -13 -10 -29 -10 -38 1 -45 7 -4 11 -10 9 -11 -3 -2
-17 -12 -32 -21 -21 -13 -28 -25 -28 -49 0 -37 27 -115 48 -140 8 -10 12 -24
9 -33 -4 -9 3 -21 21 -32 15 -10 30 -21 33 -26 4 -5 10 -4 14 3 4 6 -5 29 -20
51 -21 33 -25 49 -23 92 4 54 8 51 30 -23 9 -30 19 -46 32 -48 15 -3 17 0 10
14 -4 11 -8 37 -9 59 0 22 -4 45 -8 51 -8 14 1 24 21 24 8 0 21 8 29 17 13 16
14 13 10 -30 -7 -79 25 -123 79 -108 39 10 44 45 10 76 -14 13 -26 29 -26 35
0 20 47 10 70 -15 13 -14 29 -25 37 -25 18 0 17 25 -2 40 -19 16 -45 68 -45
92 0 10 -3 18 -7 18 -5 0 -17 7 -27 15 -16 12 -17 17 -6 30 9 11 9 19 2 28 -7
7 -7 18 -2 27 14 23 40 -7 40 -46 0 -18 5 -36 10 -39 6 -4 22 -24 35 -45 25
-39 66 -62 73 -41 2 6 11 11 19 11 10 0 13 6 9 16 -3 9 -6 20 -6 25 0 5 -8 9
-18 9 -14 0 -19 8 -20 30 -1 26 2 30 19 25 16 -5 19 -1 19 25 0 23 -5 33 -20
37 -24 6 -27 23 -4 23 14 0 16 7 11 40 -6 47 3 57 27 31 12 -14 19 -45 23
-110 4 -68 9 -91 20 -91 20 0 31 38 22 84 -4 23 -5 43 -3 45 2 3 17 -10 32
-28 18 -22 34 -32 47 -30 31 6 31 51 0 88 -15 17 -22 31 -15 31 21 0 6 45 -15
46 -45 2 -55 4 -55 14 0 6 8 10 18 10 30 0 33 11 12 40 -21 29 -26 50 -12 50
12 0 27 -14 46 -44 22 -34 30 -25 40 43 9 56 24 87 38 73 7 -7 7 -21 0 -44
-22 -73 -20 -156 3 -118 3 5 14 10 23 10 13 0 11 -6 -11 -25 -33 -31 -35 -68
-5 -90 21 -14 23 -14 30 2 3 10 7 30 7 46 1 15 5 27 10 27 5 0 13 9 16 20 3
11 13 20 21 20 8 0 14 8 14 17 0 9 7 25 17 35 15 17 15 19 0 36 -24 26 -21 50
6 54 18 2 23 11 27 48 l6 45 14 -27 c9 -20 21 -28 39 -28 37 0 47 -10 49 -48
l2 -33 -29 22 c-16 12 -35 19 -42 17 -6 -2 -18 -26 -25 -54 -12 -45 -12 -50 7
-63 28 -20 24 -41 -8 -41 -24 0 -32 -9 -56 -55 -22 -45 -25 -55 -11 -55 9 0
14 -7 12 -17 -2 -12 -20 -22 -52 -30 -50 -12 -72 -31 -57 -46 10 -10 79 1 87
14 3 5 15 9 28 9 26 0 56 28 56 53 0 9 5 19 10 22 6 3 10 15 10 26 0 10 5 19
11 19 7 0 8 -11 4 -29 -5 -22 -1 -35 14 -50 38 -38 61 -23 61 39 0 24 5 29 28
32 25 3 27 6 28 52 1 60 18 70 34 22 6 -20 15 -36 20 -36 5 0 20 15 34 33 14
17 26 26 26 20 0 -7 7 -13 15 -13 9 0 12 -6 9 -15 -4 -8 -11 -15 -18 -15 -6 0
-21 -11 -34 -25 -13 -13 -41 -32 -62 -41 -24 -11 -43 -28 -50 -45 -17 -41 -5
-52 46 -44 36 5 44 3 44 -9 0 -11 9 -16 28 -16 33 0 52 16 52 43 0 11 13 34
29 52 24 28 30 31 35 17 3 -9 8 -22 11 -28 3 -6 -3 -14 -15 -17 -12 -3 -20
-13 -20 -26 0 -11 -9 -26 -20 -33 -11 -7 -20 -16 -20 -20 0 -12 68 -10 75 2
13 21 24 9 19 -20 -8 -37 1 -61 19 -54 8 3 29 25 46 50 32 44 60 61 45 27 -4
-10 -7 -28 -7 -40 1 -15 -7 -23 -24 -28 -16 -4 -23 -11 -19 -20 3 -8 1 -15 -4
-15 -17 0 -11 -56 8 -73 26 -24 110 -23 128 1 11 14 16 15 33 5 28 -17 27 -18
44 25 19 46 43 70 58 55 7 -7 7 -17 -2 -30 -17 -28 -5 -51 32 -67 19 -8 27
-16 20 -20 -6 -4 -11 -16 -11 -27 0 -10 -4 -19 -10 -19 -5 0 -10 9 -10 20 0
17 -7 20 -40 20 -27 0 -42 -5 -49 -17 -9 -17 -11 -17 -23 0 -9 12 -23 18 -38
15 -19 -2 -27 -12 -36 -43 l-11 -40 -7 44 c-6 42 -7 43 -25 27 -16 -15 -19
-15 -24 -1 -4 8 -16 15 -27 15 -15 0 -20 -7 -21 -27 -2 -24 -2 -25 -6 -5 -6
29 -31 28 -45 -3 -12 -27 -24 -32 -31 -12 -8 25 -34 -13 -40 -59 -5 -45 -20
-74 -33 -61 -4 3 -1 26 6 51 13 49 8 66 -20 66 -11 0 -24 9 -31 21 -10 20 -9
21 28 14 44 -7 93 8 93 28 0 10 8 13 25 9 41 -7 31 27 -23 86 -66 71 -111 70
-83 -3 6 -15 3 -22 -13 -31 -29 -15 -37 -8 -26 22 8 21 6 32 -12 57 -28 40
-36 46 -58 40 -10 -3 -37 8 -60 23 -39 26 -43 27 -55 11 -7 -9 -21 -17 -32
-17 -56 0 -45 -55 18 -97 l43 -28 -27 -9 c-31 -11 -36 -36 -7 -36 11 0 20 -7
20 -15 0 -8 -9 -15 -20 -15 -15 0 -20 -7 -20 -27 -1 -28 -1 -28 -13 -5 -10 17
-15 20 -25 10 -9 -9 -12 -6 -12 16 0 20 -6 29 -21 33 -20 6 -20 6 -1 27 35 38
35 46 6 77 -30 31 -47 38 -38 15 3 -8 1 -23 -4 -32 -9 -15 -11 -14 -27 10
l-17 26 -27 -26 c-22 -22 -27 -24 -29 -10 -5 21 -51 41 -65 27 -6 -6 -5 -15 4
-25 8 -8 20 -22 27 -31 7 -8 22 -15 32 -15 21 0 28 -34 10 -45 -13 -8 -4 -43
16 -66 18 -20 6 -33 -14 -16 -12 9 -16 9 -19 0 -7 -21 -23 -15 -23 10 -1 26
-22 57 -39 57 -7 0 -9 5 -5 11 9 16 -17 59 -36 59 -9 0 -23 -15 -31 -32 -8
-18 -23 -35 -34 -37 -41 -7 -76 -61 -40 -61 9 0 29 7 44 14 38 20 74 10 67
-18 -4 -15 1 -26 15 -35 l21 -13 -21 -14 c-24 -17 -27 -43 -8 -63 10 -11 8
-13 -10 -9 -16 4 -23 0 -27 -15 -4 -16 -8 -19 -17 -10 -8 8 -7 23 6 57 17 44
15 76 -4 76 -5 0 -11 -9 -14 -20 -3 -13 -10 -18 -21 -14 -12 4 -16 0 -16 -15
0 -12 -4 -21 -10 -21 -5 0 -10 8 -10 19 0 24 -25 45 -46 37 -12 -5 -14 -12 -9
-29 8 -21 8 -127 1 -135 -11 -10 -66 31 -66 48 0 25 -37 27 -55 4 -10 -14 -15
-14 -34 -4 -19 10 -26 9 -38 -3 -13 -13 -12 -23 10 -86 14 -39 21 -73 16 -76
-8 -6 -68 53 -69 68 0 4 -7 7 -15 7 -11 0 -15 -11 -15 -40 0 -43 -19 -61 -43
-41 -10 8 -20 4 -41 -18 -36 -37 -63 -45 -71 -20 -8 26 -21 24 -41 -6 -23 -35
-12 -115 17 -115 26 0 26 -46 0 -55 -28 -9 -91 -140 -91 -189 0 -24 -11 -59
-31 -95 -25 -46 -29 -60 -21 -82 9 -22 19 -27 63 -33 61 -8 79 5 79 57 0 26 2
28 28 23 22 -5 36 2 75 35 26 22 47 49 47 58 0 28 33 51 72 51 27 0 49 10 86
40 63 49 82 76 82 116 0 37 27 74 74 103 39 25 86 91 86 123 1 27 55 96 66 85
5 -4 3 -16 -3 -25 -7 -9 -31 -50 -53 -90 -24 -42 -51 -78 -65 -84 -53 -24 -94
-115 -94 -208 -1 -29 6 -41 39 -67 21 -18 45 -33 53 -33 16 0 39 25 54 60 6
14 51 69 101 122 50 54 93 106 97 117 8 27 35 36 35 11 0 -10 -5 -22 -10 -25
-15 -9 -115 -136 -130 -165 -28 -53 -102 -129 -137 -141 -31 -10 -40 -9 -74
10 l-38 22 -58 -30 c-66 -34 -88 -62 -140 -182 -43 -101 -48 -150 -16 -164 12
-5 29 -28 38 -51 26 -69 55 -67 97 7 12 21 28 40 37 42 39 8 136 -46 126 -70
-2 -8 3 -16 13 -20 9 -3 41 -16 70 -29 46 -20 52 -26 52 -52 0 -35 13 -47 58
-57 29 -6 37 -3 65 28 42 45 104 60 207 51 56 -4 79 -3 85 6 4 6 2 38 -5 70
-8 40 -10 81 -4 127 l8 68 7 -90 c3 -49 9 -122 13 -161 l8 -71 -47 -6 c-25 -4
-67 -2 -93 4 -68 15 -89 6 -102 -40 -15 -56 -4 -115 38 -203 l36 -78 -24 -32
c-13 -18 -27 -53 -31 -78 -4 -25 -12 -67 -18 -94 -6 -27 -10 -50 -9 -52 2 -1
55 4 118 12 108 13 119 17 178 57 l64 42 -6 47 c-5 49 2 59 24 33 21 -25 30
-17 30 25 0 45 9 50 28 19 9 -14 17 -18 24 -11 5 5 27 8 48 5 45 -6 62 12 31
34 -46 31 -91 96 -77 110 3 4 23 -10 44 -30 55 -54 64 -50 60 29 -3 62 -1 67
21 75 20 8 22 7 16 -8 -4 -10 -10 -44 -13 -76 -3 -44 -1 -57 9 -57 20 1 79 74
122 152 33 59 36 70 25 93 -18 39 3 54 38 26 33 -26 54 -27 54 -1 0 13 5 18
15 14 9 -4 15 0 15 10 0 9 -4 16 -10 16 -5 0 -7 6 -4 14 4 9 -16 29 -55 55
-66 45 -76 56 -65 72 4 7 45 -27 104 -86 82 -82 98 -94 109 -81 10 12 8 23
-10 58 -21 41 -21 47 -9 121 13 78 4 150 -23 185 -13 16 -4 24 17 16 9 -3 19
-17 22 -29 4 -15 11 -22 20 -18 8 3 14 0 14 -6 0 -7 -7 -14 -15 -17 -8 -4 -15
-17 -15 -31 0 -19 4 -24 16 -19 13 5 15 2 9 -11 -28 -67 -29 -197 -1 -174 7 6
21 29 31 51 25 56 29 44 5 -18 -11 -29 -20 -60 -20 -69 0 -25 34 10 76 79 40
66 51 75 29 23 -8 -19 -22 -51 -31 -71 -8 -20 -13 -38 -11 -41 3 -2 19 3 36
12 28 14 46 5 20 -10 -6 -4 -8 -13 -5 -21 4 -10 -4 -14 -30 -14 -30 0 -35 -3
-29 -17 5 -15 4 -16 -6 -6 -7 7 -21 13 -30 13 -28 0 -113 -41 -131 -64 -21
-25 -23 -74 -4 -99 12 -16 18 -17 38 -6 25 15 158 21 158 8 0 -4 -7 -14 -15
-23 -8 -8 -15 -22 -15 -30 0 -22 -17 -20 -30 4 -9 17 -21 20 -78 20 -56 0 -74
4 -105 26 -21 14 -40 24 -41 22 -2 -1 -16 -23 -31 -47 -22 -36 -25 -48 -16
-67 6 -13 15 -24 21 -24 6 0 22 -12 36 -27 l24 -26 28 26 c16 15 31 27 35 27
13 0 -14 -44 -39 -65 l-24 -21 25 -36 c13 -19 36 -38 50 -42 24 -6 36 -26 15
-26 -16 0 -90 49 -90 60 0 5 -18 21 -40 35 -23 14 -45 36 -50 49 -13 36 -31
43 -48 18 -8 -12 -21 -22 -28 -22 -21 0 -41 -47 -26 -62 17 -17 15 -28 -6 -28
-10 0 -29 -11 -42 -25 -13 -14 -35 -25 -50 -25 -35 0 -50 -17 -50 -58 0 -40
15 -72 35 -72 8 0 15 -4 15 -10 0 -5 -24 -10 -54 -10 -83 0 -83 0 -77 -219 1
-34 -6 -69 -19 -99 -22 -50 -19 -77 13 -103 15 -12 28 -14 47 -9 14 5 36 11
50 14 44 11 73 43 74 84 1 34 4 37 31 40 24 2 27 0 14 -8 -9 -5 -20 -24 -23
-42 -9 -43 -41 -81 -93 -107 -50 -25 -57 -34 -49 -67 9 -35 74 -34 112 1 15
14 34 25 43 25 9 0 25 14 36 30 11 17 28 33 37 36 10 3 40 20 67 39 27 19 61
37 75 41 15 3 40 23 57 43 65 79 436 851 614 1281 95 227 103 242 229 429 91
134 148 208 187 242 l55 48 100 1 c59 1 125 -4 164 -13 36 -9 101 -18 145 -22
77 -6 82 -5 128 24 26 17 52 31 57 31 5 0 19 10 32 23 13 12 138 89 278 171
l255 148 90 135 c50 75 93 140 96 146 4 6 18 2 36 -11 27 -19 31 -19 85 -6 55
14 59 14 107 -10 42 -22 61 -25 126 -23 l77 2 46 -52 c33 -36 59 -55 87 -63
38 -11 44 -9 120 34 44 26 87 49 97 52 9 3 39 -7 67 -21 28 -14 59 -25 70 -25
11 0 54 16 96 35 64 29 78 40 91 70 20 48 34 51 87 21 57 -34 137 -37 137 -6
0 10 8 24 18 29 22 12 62 110 62 152 0 16 -9 38 -20 49 -17 17 -18 21 -5 26
31 12 44 -3 38 -44 -5 -34 -1 -46 23 -76 29 -36 57 -46 70 -25 4 7 12 -2 21
-22 17 -42 50 -68 85 -69 26 0 48 11 149 78 28 18 56 31 62 29 7 -2 20 0 30 5
21 11 22 68 3 173 -11 62 -10 77 6 130 17 55 18 75 8 245 -10 161 -9 191 4
229 9 24 16 76 16 117 0 41 5 104 12 141 6 38 8 89 4 114 l-7 45 -93 42 c-52
23 -98 42 -102 42 -4 0 -20 12 -35 26 -15 14 -49 40 -75 57 -30 20 -50 41 -52
54 -2 17 -18 27 -68 45 -69 25 -68 24 -100 151 -4 17 -23 39 -48 56 -35 24
-51 29 -116 30 -41 1 -78 5 -82 9 -3 4 -15 30 -26 57 -23 58 -19 105 8 105 29
0 68 38 86 85 l17 45 76 0 c46 0 94 7 124 17 46 17 47 18 47 61 0 24 -4 52
-10 62 -7 14 -5 19 10 23 16 4 20 0 20 -21 1 -17 10 -34 27 -46 26 -19 27 -19
39 0 7 10 20 28 29 39 14 19 15 19 5 -8 -5 -16 -10 -32 -10 -37 0 -13 106 -42
129 -35 10 3 29 26 42 51 l24 45 51 -57 c49 -56 51 -57 78 -43 23 11 35 31 61
104 40 113 53 135 87 142 53 11 67 67 71 288 2 88 6 106 30 152 15 29 32 55
37 58 6 3 10 34 10 67 0 49 -8 78 -41 153 -22 51 -51 103 -65 116 -13 12 -24
30 -24 39 0 9 -7 43 -16 75 -34 127 -45 195 -52 322 -4 72 -11 135 -15 140
-15 15 -4951 29 -4997 14z m70 -4940 c-1 -34 -22 -61 -49 -61 -27 0 -27 -17
-1 -38 43 -35 34 -131 -10 -119 -12 3 -24 -8 -39 -41 -28 -56 -40 -48 -17 12
13 35 23 46 46 51 43 9 44 39 4 75 -43 37 -44 62 -1 81 27 12 32 20 35 52 3
32 6 36 18 26 8 -6 14 -23 14 -38z"/>
<path d="M1196 5758 c-3 -13 -10 -71 -16 -130 -13 -129 -53 -239 -102 -279
-29 -24 -30 -27 -12 -32 58 -16 95 -17 115 -3 24 16 70 7 101 -20 13 -12 37
-18 81 -18 78 -2 124 18 142 61 9 21 26 37 49 47 20 8 36 19 36 25 0 5 -23 15
-51 22 -38 10 -58 22 -77 47 -24 31 -27 32 -71 26 -45 -7 -46 -6 -28 13 26 30
21 51 -26 102 -23 27 -55 73 -70 104 -30 62 -62 77 -71 35z"/>
<path d="M2140 5456 c0 -3 4 -16 10 -30 14 -37 -3 -40 -24 -5 -17 28 -22 30
-55 24 -20 -3 -53 -17 -73 -31 -21 -13 -46 -24 -56 -24 -10 0 -39 -7 -65 -16
-40 -14 -48 -14 -69 0 -13 8 -44 17 -69 21 -44 7 -47 5 -69 -25 -21 -29 -22
-40 -17 -115 3 -46 13 -100 22 -121 13 -32 17 -35 28 -21 11 14 21 9 92 -42
76 -55 80 -60 78 -94 -2 -35 -2 -35 30 -26 17 5 52 9 77 9 43 0 47 3 77 48 46
69 63 107 63 142 0 17 12 54 27 83 24 47 85 209 80 213 -6 4 -87 14 -87 10z"/>
<path d="M4283 3050 c-24 -10 -43 -23 -43 -29 0 -14 -29 -41 -46 -41 -8 0 -24
11 -36 25 -12 14 -26 25 -31 25 -11 0 -46 -42 -47 -56 0 -16 97 -174 129 -209
15 -16 42 -60 61 -97 28 -59 37 -68 66 -74 18 -3 37 -3 43 0 6 4 20 2 30 -4
18 -9 23 -5 41 30 19 37 19 42 5 57 -10 9 -14 25 -11 42 3 14 8 54 11 89 5 40
11 62 20 62 7 0 18 6 24 14 17 21 -13 86 -40 86 -12 0 -36 7 -55 16 -32 15
-33 17 -18 39 16 25 17 24 -46 40 -8 3 -34 -4 -57 -15z"/>
<path d="M4516 2927 c5 -30 2 -43 -13 -60 -17 -19 -20 -37 -21 -117 0 -76 -4
-105 -22 -143 -24 -54 -21 -77 10 -77 12 0 35 -7 52 -16 21 -11 33 -13 37 -5
5 7 18 8 42 1 48 -14 89 3 89 38 0 14 7 33 15 42 9 10 20 31 24 48 7 25 5 37
-15 66 -16 24 -24 49 -24 79 0 53 -15 69 -73 76 -32 5 -46 13 -62 37 -47 74
-45 72 -39 31z"/>
<path d="M4849 2331 c-26 -4 -62 -14 -80 -23 -19 -9 -59 -28 -90 -41 -48 -21
-59 -31 -69 -61 -9 -29 -9 -40 1 -52 10 -13 14 -13 29 1 16 14 18 14 23 0 4
-9 1 -15 -7 -15 -21 0 -29 -43 -10 -55 9 -5 33 -25 52 -44 l35 -34 18 24 c10
13 35 52 55 87 20 34 55 79 77 99 34 30 41 42 41 77 1 45 -3 47 -75 37z"/>
</g>
</svg>
