<?xml version="1.0" standalone="no"?>
<!DOCTYPE svg PUBLIC "-//W3C//DTD SVG 20010904//EN"
 "http://www.w3.org/TR/2001/REC-SVG-20010904/DTD/svg10.dtd">
<svg version="1.0" xmlns="http://www.w3.org/2000/svg"
 width="1024.000000pt" height="1024.000000pt" viewBox="0 0 1024.000000 1024.000000"
 preserveAspectRatio="xMidYMid meet">
<metadata>
Created by potrace 1.10, written by Peter Selinger 2001-2011
</metadata>
<g transform="translate(0.000000,1024.000000) scale(0.100000,-0.100000)"
fill="#000000" stroke="none">
<path d="M3193 10195 c-40 -25 -119 -63 -175 -86 -59 -24 -114 -53 -129 -69
l-26 -27 -17 28 c-15 26 -23 29 -68 29 -94 0 -116 -13 -200 -120 l-77 -97 -82
-6 -83 -7 -137 72 c-83 43 -143 69 -153 65 -12 -5 -16 -21 -16 -72 l0 -65 -44
0 c-27 0 -52 -7 -68 -19 -24 -19 -24 -19 -96 15 -44 20 -99 57 -140 94 -68 61
-82 69 -82 48 0 -7 -5 -30 -11 -50 -10 -37 -11 -38 -59 -38 -56 0 -64 -15 -34
-59 12 -17 13 -26 5 -34 -6 -6 -11 -46 -11 -93 l0 -83 -57 -7 c-32 -4 -58 -3
-60 2 -2 5 -22 43 -46 84 -38 67 -46 75 -75 78 l-32 3 0 -49 c0 -56 -20 -82
-63 -82 -27 0 -27 -1 -27 -70 0 -64 2 -70 20 -70 12 0 25 -10 32 -25 13 -29
25 -31 50 -9 16 16 19 15 37 -7 l18 -23 18 34 17 34 20 -27 c18 -25 25 -27 88
-27 87 0 97 -4 121 -51 11 -22 26 -39 34 -39 20 0 105 -83 105 -102 0 -48 25
-61 55 -28 10 11 26 20 37 20 14 0 18 -8 18 -34 0 -31 5 -37 55 -66 31 -18 54
-37 52 -44 -2 -6 -23 -12 -46 -14 -42 -3 -42 -4 -26 -22 12 -13 38 -22 77 -26
56 -6 61 -9 74 -40 8 -18 14 -51 14 -72 0 -72 12 -100 71 -167 60 -67 67 -83
48 -102 -14 -14 35 -53 67 -53 21 0 24 -5 24 -35 0 -24 6 -37 20 -45 13 -7 20
-21 20 -39 0 -16 7 -48 15 -71 8 -23 15 -60 15 -81 0 -40 30 -73 77 -85 22 -6
23 -10 23 -95 l0 -90 34 -20 c35 -20 40 -51 10 -63 -19 -7 -18 -61 3 -94 10
-15 43 -56 75 -92 48 -54 58 -71 58 -101 0 -31 -4 -38 -30 -49 -17 -7 -33 -16
-35 -21 -3 -4 12 -37 33 -72 22 -35 43 -74 47 -86 4 -13 22 -40 39 -60 40 -44
121 -160 129 -184 4 -10 29 -32 57 -49 46 -28 52 -37 70 -96 13 -40 29 -71 45
-84 22 -17 25 -27 25 -84 0 -73 3 -76 105 -95 41 -7 57 -17 87 -51 33 -38 37
-49 38 -96 0 -29 5 -62 11 -73 5 -11 11 -48 12 -83 2 -52 7 -68 30 -95 15 -18
27 -37 27 -42 0 -5 17 -32 37 -60 48 -63 163 -144 220 -154 23 -3 46 -12 51
-18 19 -24 28 -73 21 -111 -6 -37 -3 -43 39 -88 34 -37 49 -63 63 -115 11 -37
19 -81 19 -96 0 -21 12 -41 40 -69 28 -28 40 -49 40 -69 0 -23 7 -32 38 -48
58 -30 180 -143 181 -168 1 -17 16 -27 87 -52 47 -17 93 -31 103 -31 42 0 200
-292 224 -415 9 -42 12 -90 8 -120 -10 -76 35 -225 83 -274 34 -35 36 -41 36
-101 -1 -60 4 -74 61 -185 49 -96 63 -133 68 -185 4 -36 15 -80 25 -99 17 -32
17 -35 -3 -91 -12 -32 -21 -81 -21 -112 0 -32 -10 -85 -25 -128 l-25 -74 34
-35 c56 -60 74 -151 36 -186 -14 -13 -20 -31 -20 -63 0 -35 -7 -54 -34 -91
-66 -91 -80 -140 -54 -195 9 -20 7 -39 -7 -91 -18 -69 -15 -67 -105 -78 -9 -1
-19 -24 -28 -62 -7 -33 -19 -63 -27 -68 -11 -6 -9 -20 11 -79 26 -77 32 -193
14 -258 -5 -19 -34 -78 -63 -130 -49 -86 -53 -98 -46 -135 5 -22 8 -65 9 -94
0 -31 12 -93 27 -140 26 -81 27 -96 26 -261 -1 -96 -3 -206 -5 -245 -2 -67 0
-75 51 -180 l53 -110 -6 -185 c-4 -102 -12 -197 -18 -212 -9 -25 -16 -28 -57
-28 -35 0 -54 -7 -79 -28 -33 -27 -33 -28 -22 -75 13 -51 74 -117 108 -117 36
0 60 -42 82 -140 32 -150 42 -173 83 -210 33 -29 40 -31 53 -19 8 8 23 45 34
83 25 90 60 147 104 170 36 19 39 19 139 2 62 -11 124 -29 158 -46 55 -28 56
-28 126 -15 123 23 150 35 164 67 9 23 9 36 -5 73 -10 25 -22 47 -27 50 -17
11 -9 35 11 35 11 0 34 13 52 29 31 28 32 30 15 48 -13 16 -17 38 -17 106 0
54 -4 87 -10 87 -21 0 -60 53 -60 80 0 33 45 117 70 130 10 6 31 10 47 10 43
0 50 10 58 80 10 91 21 100 115 100 73 0 77 1 108 33 28 28 32 40 32 85 0 48
2 52 24 52 25 0 143 81 152 104 4 10 -25 226 -42 307 -4 22 1 28 43 47 37 17
449 162 459 162 2 0 10 7 18 16 22 22 20 78 -8 170 -37 125 -40 151 -18 158
55 18 172 202 172 271 0 38 -6 47 -100 140 l-100 100 0 52 c0 29 5 63 11 76 8
18 7 45 -5 109 -17 90 -46 299 -46 330 0 10 35 55 77 101 80 86 160 139 230
152 21 3 87 33 146 66 59 32 120 59 135 59 15 0 40 -10 55 -23 l28 -22 1 -180
c1 -172 0 -182 -22 -219 -30 -49 -43 -123 -23 -131 36 -13 61 -3 108 45 37 37
60 52 87 57 l38 6 0 78 c0 99 20 154 61 168 27 9 29 8 35 -17 3 -15 20 -57 37
-94 27 -61 33 -68 58 -68 27 0 29 3 29 40 0 37 7 46 86 125 48 47 91 85 96 85
6 0 22 -7 37 -16 25 -15 27 -20 21 -61 -10 -63 3 -123 31 -144 14 -11 46 -19
77 -21 l53 -3 18 -51 c27 -82 44 -100 102 -114 l51 -13 35 35 c29 29 34 42 36
84 1 27 -2 56 -6 64 -6 12 6 19 53 33 66 19 65 18 75 91 l7 49 119 -119 119
-119 -20 -64 c-11 -36 -18 -65 -17 -66 1 0 19 -8 40 -18 68 -31 95 -24 155 39
l53 57 210 5 210 5 35 51 c19 28 34 57 34 64 0 16 -31 28 -98 37 -36 5 -57 13
-65 26 -7 11 -23 19 -38 19 -15 0 -42 7 -62 15 -43 18 -54 51 -26 81 24 26 19
42 -26 73 l-36 24 -24 -23 -25 -24 -28 27 c-15 15 -41 31 -58 37 -21 8 -37 24
-52 56 -12 24 -22 51 -22 59 0 26 72 75 122 81 58 8 59 13 24 158 -24 99 -24
99 -5 143 15 36 19 69 19 167 0 109 -4 137 -35 251 -20 71 -40 134 -46 142
-16 18 -46 16 -53 -4 -5 -13 -13 -5 -30 33 -13 27 -40 61 -59 76 -33 25 -44
28 -119 28 -46 0 -105 6 -133 13 -49 12 -51 14 -85 85 -33 68 -36 72 -69 72
-53 0 -112 20 -164 57 -29 21 -65 36 -94 40 l-46 6 6 73 c7 77 38 173 68 213
15 19 19 41 19 108 l0 84 -35 15 c-58 24 -91 19 -122 -21 -15 -19 -32 -35 -38
-34 -11 0 -95 114 -95 128 0 11 85 47 133 56 70 13 86 94 42 203 -24 60 -33
144 -17 169 4 6 20 15 35 18 35 9 47 32 47 87 -1 40 -23 165 -31 172 -61 51
-95 66 -149 66 l-58 0 -17 -72 c-22 -93 -38 -108 -119 -108 l-61 0 -37 58
c-36 55 -38 63 -38 140 0 80 0 82 -30 97 -16 8 -44 15 -63 15 -33 0 -35 3 -46
44 -6 25 -11 54 -11 64 0 14 -13 25 -40 36 -22 9 -45 16 -52 16 -16 0 -37 32
-38 58 0 28 -37 30 -71 4 -13 -11 -35 -22 -49 -25 -21 -5 -28 -1 -43 24 -9 17
-17 50 -17 73 0 38 -7 50 -54 103 -50 54 -55 65 -61 119 l-6 59 80 86 c43 47
87 103 96 125 27 61 38 207 20 251 -8 20 -15 54 -15 77 0 34 6 48 31 72 32 30
69 93 69 117 0 22 -30 43 -87 62 -51 16 -53 18 -53 52 0 29 13 52 70 124 93
118 92 132 -7 164 -63 20 -82 46 -93 125 -10 68 -28 107 -77 161 -34 37 -38
39 -97 39 -33 0 -71 -3 -84 -6 -22 -6 -23 -10 -17 -68 5 -56 4 -62 -18 -78
-14 -10 -54 -19 -103 -23 l-79 -6 -134 161 c-131 157 -133 161 -140 220 -5 39
-15 68 -28 82 -11 13 -23 41 -27 63 -16 97 -14 93 -63 101 -25 4 -64 17 -87
30 -32 18 -56 24 -108 24 -57 0 -71 4 -97 26 -43 36 -131 57 -201 49 -45 -5
-72 -18 -154 -72 l-99 -65 6 -78 c8 -96 -4 -105 -59 -49 l-39 40 3 125 3 124
-27 0 c-44 0 -91 -36 -106 -81 -10 -30 -22 -45 -45 -54 -31 -13 -33 -12 -58
21 -25 33 -25 34 -9 66 9 18 41 60 71 93 57 63 60 78 33 149 -13 35 -77 50
-130 31 -23 -8 -50 -15 -60 -15 -10 0 -42 -16 -71 -35 -42 -29 -58 -35 -83
-29 -55 11 -66 22 -66 62 0 48 -8 57 -49 66 -30 5 -38 2 -62 -24 -23 -24 -36
-30 -70 -30 l-41 0 6 38 c33 213 18 234 -175 248 l-104 7 -62 56 c-35 31 -67
69 -73 84 -14 41 -55 86 -107 119 -25 16 -79 63 -120 105 l-75 75 -51 -6 c-29
-4 -81 -16 -115 -27 l-64 -21 -75 38 -75 39 6 53 c3 28 3 52 -1 51 -5 0 -40
-20 -80 -44z"/>
</g>
</svg>
