<?xml version="1.0" standalone="no"?>
<!DOCTYPE svg PUBLIC "-//W3C//DTD SVG 20010904//EN"
 "http://www.w3.org/TR/2001/REC-SVG-20010904/DTD/svg10.dtd">
<svg version="1.0" xmlns="http://www.w3.org/2000/svg"
 width="1024.000000pt" height="1024.000000pt" viewBox="0 0 1024.000000 1024.000000"
 preserveAspectRatio="xMidYMid meet">
<metadata>
Created by potrace 1.10, written by Peter Selinger 2001-2011
</metadata>
<g transform="translate(0.000000,1024.000000) scale(0.100000,-0.100000)"
fill="#000000" stroke="none">
<path d="M2442 9265 c-51 -10 -71 -20 -103 -51 l-40 -39 -148 -3 c-124 -3
-149 -1 -160 12 -18 22 -25 21 -212 -20 l-164 -36 -90 -89 c-79 -78 -95 -89
-125 -89 -61 0 -63 -5 -55 -127 7 -100 5 -119 -20 -218 -37 -147 -107 -254
-215 -328 -25 -17 -75 -57 -112 -90 l-68 -59 0 -100 c0 -59 -7 -125 -16 -161
-17 -65 -13 -124 11 -167 12 -22 11 -27 -7 -47 -29 -31 -33 -88 -10 -154 l19
-55 -66 -67 c-46 -46 -72 -82 -84 -114 -32 -91 -31 -95 81 -244 84 -111 102
-142 102 -171 0 -19 7 -58 16 -88 8 -29 13 -62 10 -74 -3 -12 -3 -38 1 -59 4
-28 13 -42 34 -53 28 -14 29 -16 29 -96 0 -102 -24 -188 -54 -188 -10 0 -28 8
-38 17 -36 32 -73 4 -124 -95 -11 -21 14 -90 35 -97 48 -15 50 -52 6 -99 -20
-22 -25 -38 -25 -80 0 -46 -4 -56 -32 -83 -24 -23 -46 -33 -83 -38 -28 -4 -67
-19 -89 -33 -37 -25 -38 -28 -34 -74 5 -52 -1 -62 -45 -73 -20 -5 -26 -12 -22
-23 3 -9 -13 -34 -44 -67 -58 -61 -70 -94 -47 -127 29 -42 15 -109 -33 -152
-14 -13 -21 -31 -21 -57 0 -60 -19 -72 -109 -65 -42 4 -96 3 -121 -1 l-45 -8
-12 -80 c-15 -98 -36 -408 -38 -570 -1 -75 -11 -167 -25 -246 l-23 -126 21
-45 c18 -36 22 -62 22 -139 0 -93 1 -96 30 -124 39 -37 41 -80 4 -89 l-25 -7
4 -152 c2 -84 7 -162 12 -174 5 -18 4 -23 -8 -23 -28 0 -41 -38 -28 -82 7 -22
9 -52 6 -68 -4 -18 0 -40 10 -60 13 -25 15 -46 9 -98 -3 -37 -11 -73 -18 -81
-10 -13 -67 -173 -63 -178 2 -1 97 2 212 8 116 5 266 6 335 3 95 -5 144 -3
205 10 142 28 393 22 535 -14 19 -5 70 -12 112 -15 43 -4 89 -10 102 -13 62
-17 433 -347 468 -416 11 -22 38 -62 59 -87 24 -28 39 -57 39 -73 0 -16 17
-47 45 -82 25 -31 53 -73 61 -93 20 -51 92 -86 176 -86 51 0 62 3 77 24 l18
24 6 -24 c5 -17 -1 -31 -19 -50 -25 -26 -26 -27 -77 -13 -29 8 -54 14 -57 14
-3 0 -2 -42 3 -93 7 -77 18 -117 68 -247 69 -176 142 -323 179 -356 30 -28
227 -186 243 -196 7 -3 38 -18 70 -33 51 -23 66 -26 130 -21 39 3 144 10 232
15 218 12 357 30 376 47 9 8 37 14 70 14 50 0 57 3 77 30 19 26 29 30 67 30
43 0 45 -1 39 -25 -5 -20 -2 -25 19 -30 15 -4 37 0 56 9 24 13 31 23 31 46 0
36 4 36 55 5 22 -14 52 -25 66 -25 41 0 122 30 144 54 18 19 32 21 168 24 127
3 156 6 212 28 l66 24 39 -20 c52 -26 80 -25 121 5 19 13 44 30 57 36 12 7 22
19 22 28 0 18 -61 122 -96 164 -13 16 -24 35 -24 43 0 23 74 -19 88 -50 6 -14
16 -26 22 -26 6 0 22 -12 35 -26 22 -23 27 -25 42 -13 15 13 16 11 9 -14 -6
-27 6 -57 24 -57 15 0 70 64 70 81 0 31 12 49 31 49 10 0 19 6 20 13 0 6 2 24
3 38 1 15 14 43 30 63 15 20 40 65 56 99 15 34 37 70 48 81 25 22 43 100 35
149 -4 27 0 42 16 63 11 15 21 41 21 59 0 18 9 54 21 79 22 51 21 55 -30 104
l-23 23 22 24 c18 19 22 32 17 59 -8 49 13 74 66 78 39 3 44 7 67 49 44 81
109 156 165 190 29 18 70 54 90 81 30 38 43 48 63 46 21 -3 26 3 36 37 10 34
18 42 54 55 30 12 47 26 60 50 14 29 25 36 65 45 50 10 76 37 77 79 0 11 10
51 22 88 l22 69 39 -7 c39 -6 41 -5 126 78 133 129 140 135 152 118 5 -8 13
-31 19 -50 15 -56 49 -70 172 -70 l104 0 22 53 c12 29 22 61 22 71 0 34 23 96
35 96 7 0 15 -13 18 -30 7 -34 85 -89 125 -90 13 0 37 -9 53 -21 24 -17 29
-28 29 -62 1 -30 8 -50 25 -69 21 -24 32 -28 79 -28 53 0 55 -1 66 -35 7 -21
9 -56 5 -87 -5 -41 -2 -63 13 -98 33 -76 48 -84 145 -77 120 8 132 15 154 83
9 31 24 58 33 61 57 18 70 27 84 64 19 47 20 98 4 133 -15 34 -1 49 114 128
47 32 92 66 98 74 7 8 23 14 36 14 16 0 24 6 24 17 0 24 -80 143 -96 143 -17
0 -19 20 -1 20 6 0 23 18 35 39 13 20 62 77 109 125 l84 88 -12 48 c-16 61 -8
80 83 220 63 95 68 108 63 142 -5 28 0 49 18 89 20 41 23 57 16 77 -5 14 -7
45 -3 69 4 26 2 48 -5 57 -8 10 -6 17 8 30 15 13 24 15 46 6 15 -6 29 -9 29
-8 1 2 17 22 35 46 28 37 32 47 26 81 -6 34 -4 39 17 45 13 3 46 6 73 6 69 1
144 42 168 93 12 23 28 39 44 43 38 10 56 63 63 194 6 86 13 127 29 163 12 26
25 69 28 96 5 46 4 49 -18 53 l-24 3 25 20 c14 11 44 40 67 63 35 37 53 46
109 59 42 10 77 25 95 42 26 23 31 36 40 115 5 49 12 93 15 97 3 5 -4 21 -15
35 -23 29 -27 64 -11 94 6 12 7 28 1 43 -8 20 -5 29 12 45 31 27 62 42 90 42
27 0 67 38 67 64 0 10 6 48 14 85 8 36 24 116 36 176 12 61 30 124 40 140 11
17 37 60 59 96 22 37 59 89 81 117 33 43 40 59 40 96 0 40 3 45 29 54 23 8 30
18 36 49 11 68 119 163 159 141 50 -28 72 -27 142 9 38 19 89 54 114 77 25 24
57 46 71 49 14 4 50 18 81 31 49 22 58 30 73 69 9 25 18 59 18 77 2 27 -3 35
-30 49 -42 21 -48 39 -23 66 27 29 41 106 45 253 3 117 2 123 -19 133 -11 6
-34 24 -51 39 -16 15 -61 44 -99 64 -64 35 -74 37 -125 31 -49 -5 -59 -4 -80
16 -20 19 -22 28 -17 68 l6 46 -37 12 c-32 10 -43 9 -73 -7 -36 -18 -38 -18
-67 0 -17 10 -34 28 -38 39 -3 11 -24 34 -46 51 l-39 32 0 78 c0 63 -3 81 -17
88 -14 9 -14 11 5 21 27 14 32 81 6 81 -8 0 -12 5 -9 10 4 6 1 18 -6 26 -9 11
-9 18 -1 26 14 14 16 58 4 58 -5 0 -17 -9 -27 -20 -25 -28 -51 -25 -72 8 -30
48 -65 81 -99 92 -25 8 -41 25 -65 66 -21 37 -43 61 -69 74 -46 23 -51 31 -61
85 -4 22 -13 61 -20 87 -9 36 -10 57 -2 83 10 31 9 35 -7 35 -11 0 -36 -27
-67 -72 -53 -79 -83 -96 -141 -77 -27 9 -45 6 -110 -15 -71 -25 -81 -32 -137
-96 -33 -39 -65 -70 -72 -70 -7 0 -17 -9 -24 -21 -7 -15 -14 -18 -21 -11 -14
14 -37 5 -71 -27 -21 -20 -26 -31 -22 -52 4 -19 1 -28 -10 -33 -9 -3 -23 -22
-31 -42 l-15 -37 -67 7 c-37 4 -85 12 -107 17 -22 6 -64 8 -93 5 -53 -6 -56
-5 -170 62 -131 77 -159 89 -323 132 -112 29 -124 30 -345 31 -126 1 -242 4
-259 8 -35 8 -140 -9 -240 -39 -38 -11 -128 -27 -199 -35 -71 -9 -134 -18
-140 -21 -76 -41 -216 -142 -216 -156 0 -12 -8 -18 -23 -18 -18 0 -47 -29
-123 -125 l-98 -124 -46 5 c-25 3 -72 10 -105 15 -40 7 -69 7 -86 0 -18 -6
-72 -5 -170 4 -115 10 -170 21 -274 53 -112 35 -133 45 -155 73 -65 84 -85 99
-138 99 -43 0 -56 5 -94 37 -58 49 -227 158 -258 166 -14 4 -69 12 -122 17
l-98 9 -174 -104 c-185 -112 -210 -120 -285 -94 -30 11 -34 9 -86 -40 l-54
-51 -85 0 -84 0 -40 45 c-39 45 -57 77 -111 197 -16 36 -38 71 -48 76 -10 6
-54 51 -98 101 -83 95 -130 133 -196 156 -35 13 -44 12 -73 -2 -33 -15 -34
-15 -293 86 -143 55 -268 100 -279 100 -10 -1 -47 -7 -82 -14z"/>
</g>
</svg>
