<?xml version="1.0" standalone="no"?>
<!DOCTYPE svg PUBLIC "-//W3C//DTD SVG 20010904//EN"
 "http://www.w3.org/TR/2001/REC-SVG-20010904/DTD/svg10.dtd">
<svg version="1.0" xmlns="http://www.w3.org/2000/svg"
 width="1024.000000pt" height="1024.000000pt" viewBox="0 0 1024.000000 1024.000000"
 preserveAspectRatio="xMidYMid meet">
<metadata>
Created by potrace 1.10, written by Peter Selinger 2001-2011
</metadata>
<g transform="translate(0.000000,1024.000000) scale(0.100000,-0.100000)"
fill="#000000" stroke="none">
<path d="M1278 8822 c-16 -9 -28 -24 -28 -34 0 -21 -111 -58 -175 -58 -43 0
-75 22 -75 52 0 13 -7 12 -43 -6 -40 -19 -42 -22 -25 -34 25 -18 23 -35 -3
-27 -13 4 -25 2 -29 -5 -9 -15 -31 -4 -89 45 -47 38 -86 47 -77 18 3 -10 21
-72 42 -138 20 -67 37 -144 37 -174 1 -56 3 -54 -65 -102 l-22 -16 23 -101
c24 -104 24 -133 1 -213 -13 -45 -13 -48 13 -78 36 -43 40 -80 23 -195 l-15
-100 38 -35 c49 -45 73 -114 49 -138 -14 -14 -19 -13 -54 11 -28 19 -40 22
-46 13 -14 -22 -8 -49 23 -103 34 -59 33 -65 -22 -135 -27 -35 -28 -38 -14
-65 11 -21 15 -62 15 -149 0 -127 -15 -220 -48 -296 -14 -33 -17 -50 -10 -63
13 -23 -14 -206 -49 -331 -21 -77 -24 -103 -19 -175 4 -47 3 -98 -2 -115 -5
-18 -4 -41 2 -57 11 -29 -13 -328 -41 -518 -9 -58 -19 -177 -23 -265 -4 -88
-12 -203 -19 -255 -6 -52 -15 -153 -20 -225 -5 -71 -25 -213 -44 -315 -19
-102 -43 -228 -52 -280 -14 -77 -70 -265 -110 -365 -4 -11 5 -2 20 20 29 44
81 85 108 85 16 0 16 -2 2 -23 -13 -21 -13 -26 10 -59 27 -40 32 -72 13 -84
-16 -10 -48 33 -48 65 0 20 -2 23 -10 11 -6 -10 -10 -11 -10 -2 0 28 -23 8
-61 -53 -35 -55 -45 -64 -63 -59 -14 3 -31 -2 -46 -14 -23 -19 -25 -26 -26
-133 -1 -84 -7 -135 -24 -194 -12 -44 -26 -109 -31 -145 -4 -36 -14 -83 -22
-105 -21 -57 -117 -268 -129 -282 -7 -8 -3 -19 11 -34 11 -12 25 -43 32 -70 8
-30 22 -55 35 -64 12 -8 30 -37 39 -65 9 -27 25 -55 36 -60 30 -16 50 -66 56
-139 5 -57 1 -83 -25 -167 -28 -90 -31 -109 -26 -189 3 -50 12 -108 20 -129 8
-21 12 -51 9 -65 -3 -17 3 -43 19 -74 14 -27 28 -69 31 -95 18 -131 37 -162
137 -228 l72 -47 635 8 c350 5 2394 7 4544 6 l3907 -3 0 1591 c0 1364 2 1592
14 1597 22 9 66 81 66 109 0 15 -5 35 -11 47 -9 17 -6 25 15 47 32 33 34 80 6
106 -29 27 -28 97 2 110 12 6 36 32 52 58 35 58 30 75 -30 95 -35 11 -41 18
-52 57 -10 39 -16 45 -38 45 -15 0 -33 -8 -40 -17 -12 -17 -16 -14 -52 26
l-38 45 -22 -22 c-29 -29 -36 -28 -84 16 l-41 38 24 41 23 41 -37 41 c-20 23
-37 46 -37 52 0 6 10 24 21 41 19 27 21 35 12 75 -11 45 -10 45 38 103 27 33
49 68 49 79 0 11 4 22 9 25 4 3 21 40 36 83 16 43 34 87 42 98 7 11 13 27 13
37 0 10 7 35 16 57 12 32 26 44 67 64 63 30 89 57 117 120 12 27 39 73 61 104
40 58 48 90 27 111 -8 8 -8 15 3 28 12 16 12 17 -5 11 -16 -7 -18 -4 -12 24 3
17 6 40 6 51 0 10 16 35 35 55 19 20 39 52 45 71 5 19 23 53 40 74 24 29 35
58 47 121 8 45 24 99 34 119 10 21 19 57 19 80 0 44 7 59 99 215 24 39 45 90
48 113 3 22 23 69 45 103 79 127 77 114 24 200 -34 54 -48 89 -53 126 -7 62
-31 85 -97 95 -35 6 -50 14 -71 42 -25 33 -29 35 -70 28 -38 -5 -45 -3 -58 17
-9 13 -19 36 -22 51 -4 15 -21 41 -38 58 -18 17 -52 70 -77 118 l-45 87 -1294
3 -1293 2 -34 -29 c-18 -16 -64 -44 -101 -63 -65 -31 -74 -33 -183 -34 -89 0
-141 -6 -231 -27 l-116 -28 -47 21 c-26 11 -55 20 -63 20 -9 0 -46 -24 -82
-54 -36 -29 -75 -58 -86 -64 -33 -17 -143 -43 -219 -51 -98 -11 -312 -101
-375 -157 -50 -45 -106 -63 -261 -85 -103 -15 -121 -11 -184 41 -35 29 -57 40
-81 40 -39 0 -320 -136 -349 -169 -23 -25 -43 -27 -67 -5 -15 13 -24 14 -50 5
-18 -6 -54 -8 -85 -5 -53 7 -53 6 -99 -40 -54 -53 -86 -59 -103 -21 -7 14 -12
36 -12 49 0 31 -12 40 -105 80 -76 33 -79 34 -122 19 -44 -15 -46 -15 -115 17
l-70 33 -132 -28 c-115 -24 -139 -26 -184 -16 -72 15 -120 -1 -147 -52 -11
-20 -29 -40 -40 -43 -11 -4 -31 -15 -45 -25 -36 -26 -299 -128 -364 -141 -52
-11 -58 -10 -98 12 -32 18 -59 24 -108 25 -59 1 -102 11 -309 73 -30 9 -75 30
-100 47 l-46 30 3 92 c2 68 -2 102 -14 130 -9 21 -20 74 -25 118 -20 184 -26
208 -68 281 -22 39 -41 80 -41 91 0 31 -30 62 -117 125 -113 81 -193 128 -221
128 -13 0 -65 -22 -116 -50 -51 -27 -103 -50 -115 -50 -27 0 -91 32 -112 56
-9 11 -20 30 -24 44 -11 38 -55 80 -84 80 -14 0 -38 -8 -53 -18z"/>
</g>
</svg>
