<?xml version="1.0" standalone="no"?>
<!DOCTYPE svg PUBLIC "-//W3C//DTD SVG 20010904//EN"
 "http://www.w3.org/TR/2001/REC-SVG-20010904/DTD/svg10.dtd">
<svg version="1.0" xmlns="http://www.w3.org/2000/svg"
 width="1024.000000pt" height="1024.000000pt" viewBox="0 0 1024.000000 1024.000000"
 preserveAspectRatio="xMidYMid meet">
<metadata>
Created by potrace 1.10, written by Peter Selinger 2001-2011
</metadata>
<g transform="translate(0.000000,1024.000000) scale(0.100000,-0.100000)"
fill="#000000" stroke="none">
<path d="M6936 8481 c-4 -6 -16 -11 -26 -11 -11 0 -34 -9 -52 -20 -20 -12 -51
-20 -78 -20 -28 0 -56 -8 -75 -20 -16 -11 -46 -20 -65 -20 -54 0 -80 -23 -80
-71 0 -42 -24 -85 -98 -176 -30 -38 -39 -43 -76 -43 -22 0 -81 -7 -130 -16
-49 -8 -95 -13 -104 -9 -8 3 -25 -1 -38 -10 -13 -8 -29 -12 -37 -9 -8 3 -41
-8 -74 -24 l-58 -30 -80 16 c-73 14 -92 14 -231 -1 -208 -22 -222 -29 -299
-160 l-60 -100 -69 -24 c-47 -15 -93 -23 -140 -23 l-71 0 -17 58 c-15 52 -22
60 -55 75 -21 8 -51 18 -68 22 -40 9 -75 43 -75 72 0 24 -35 60 -91 95 -16 10
-53 18 -91 19 -56 3 -68 0 -97 -23 -29 -22 -39 -24 -66 -17 -26 7 -43 4 -87
-15 -43 -19 -58 -22 -74 -13 -10 6 -31 10 -46 8 -15 -1 -42 8 -65 23 -51 34
-105 41 -182 22 -67 -16 -93 -11 -105 19 -3 8 -18 20 -33 26 -34 14 -297 21
-338 10 -40 -10 -165 44 -165 71 0 13 -8 18 -28 18 -21 0 -30 7 -38 29 -9 23
-23 32 -72 49 -77 26 -93 16 -117 -70 -16 -59 -20 -64 -64 -85 l-46 -22 -37
24 c-21 14 -40 25 -42 25 -3 0 -8 -16 -12 -35 -3 -19 -10 -35 -15 -35 -5 0
-33 -22 -63 -49 -30 -27 -64 -55 -75 -61 -15 -8 -21 -21 -21 -45 0 -31 -3 -35
-35 -41 -24 -4 -39 -14 -47 -32 -11 -22 -24 -28 -78 -38 -59 -10 -69 -10 -106
9 -54 26 -90 18 -99 -22 -6 -27 -10 -30 -63 -34 -86 -7 -126 -20 -131 -42 -2
-11 -15 -34 -29 -53 -16 -21 -27 -50 -30 -82 l-5 -50 -43 0 c-36 0 -47 -5 -65
-29 -12 -17 -35 -35 -50 -42 -44 -18 -55 -72 -30 -143 l19 -55 -33 -26 c-19
-14 -44 -25 -57 -25 -13 0 -28 -4 -34 -8 -20 -14 -77 -144 -82 -189 -3 -28
-13 -53 -27 -67 -12 -12 -28 -45 -35 -73 -11 -41 -19 -53 -37 -58 -13 -3 -43
-26 -66 -50 -33 -34 -41 -49 -35 -64 4 -11 4 -35 1 -54 -4 -27 -13 -38 -39
-50 -32 -16 -33 -18 -28 -60 6 -43 5 -45 -43 -85 -33 -28 -54 -56 -66 -89 -18
-48 -18 -48 4 -66 l22 -18 -20 -27 c-12 -16 -36 -30 -63 -37 -38 -9 -41 -12
-26 -24 15 -13 14 -17 -15 -47 -30 -31 -34 -32 -50 -18 -13 12 -22 13 -37 5
-21 -11 -38 -63 -27 -80 3 -6 -8 -37 -24 -70 l-31 -60 26 -20 c22 -17 25 -24
17 -48 -7 -19 -18 -29 -40 -34 -17 -3 -44 -16 -61 -27 -27 -20 -29 -24 -22
-64 10 -55 -11 -87 -57 -88 -26 0 -33 -4 -33 -20 0 -29 -45 -56 -73 -42 -25
12 -87 23 -132 23 -16 0 -38 5 -50 13 -11 7 -31 16 -45 19 -35 8 -80 -32 -80
-71 0 -32 -31 -71 -96 -123 l-35 -28 -52 33 c-78 49 -92 50 -116 10 -23 -39
-30 -40 -92 -19 -39 13 -50 14 -84 2 -49 -17 -54 -38 -20 -92 13 -22 34 -60
45 -85 12 -25 24 -51 29 -59 4 -8 29 -22 56 -31 35 -12 54 -25 65 -46 14 -24
25 -30 65 -35 40 -4 54 -12 90 -50 34 -36 43 -54 49 -96 9 -67 39 -107 75 -98
14 3 34 15 43 26 15 18 19 19 24 6 12 -31 -3 -163 -21 -195 l-19 -32 32 -33
c38 -39 42 -77 11 -106 -28 -26 -19 -47 25 -55 31 -6 36 -11 36 -36 0 -19 6
-31 19 -35 10 -3 44 -33 76 -66 35 -37 69 -62 86 -66 16 -3 29 -11 29 -17 0
-6 18 -17 40 -24 34 -10 44 -10 64 3 22 15 24 14 34 -12 6 -15 13 -37 17 -49
9 -35 105 -66 198 -64 25 0 39 -5 43 -15 4 -9 28 -27 53 -40 62 -31 76 -48 61
-74 -6 -12 -17 -21 -24 -21 -12 0 -43 -52 -59 -101 -3 -10 -22 -22 -41 -29
-43 -14 -45 -26 -8 -72 28 -38 84 -70 140 -82 38 -9 43 -35 11 -67 -18 -18
-31 -20 -101 -18 -102 4 -114 -7 -80 -76 26 -53 49 -65 130 -65 31 0 67 -3 79
-6 32 -9 63 -64 63 -113 l0 -41 103 2 c127 2 317 -34 317 -61 0 -9 7 -29 16
-46 9 -16 22 -48 29 -70 7 -24 26 -51 48 -68 58 -48 75 -37 147 98 71 134 103
175 134 175 12 0 31 7 42 15 41 31 84 19 157 -44 52 -45 78 -60 110 -65 29 -4
56 -19 85 -44 42 -36 43 -38 26 -60 -9 -13 -27 -28 -41 -33 -20 -7 -30 -5 -55
16 -33 28 -37 29 -72 15 -20 -7 -26 -17 -26 -39 0 -36 -23 -51 -75 -51 -32 0
-36 -3 -30 -17 11 -27 23 -63 35 -111 11 -41 62 -112 82 -112 5 0 32 -10 59
-22 l51 -21 -4 -50 -3 -50 47 -16 c26 -9 57 -26 70 -37 54 -51 175 -119 228
-129 51 -11 55 -14 58 -41 3 -26 -2 -32 -50 -56 -29 -15 -61 -29 -70 -32 -9
-3 -29 -23 -43 -45 -22 -32 -27 -53 -28 -107 -2 -76 -10 -68 109 -118 52 -22
71 -25 125 -20 35 3 97 17 137 31 65 23 84 25 190 21 99 -4 126 -8 179 -31 49
-21 78 -27 135 -27 63 0 84 -5 147 -35 59 -29 84 -35 136 -35 67 0 113 -15
160 -52 26 -20 42 -23 138 -27 135 -4 219 11 274 50 36 25 50 29 112 29 58 0
82 -5 124 -27 71 -36 129 -44 197 -27 82 21 143 18 199 -11 44 -22 57 -24 134
-18 l85 6 69 -50 c37 -27 73 -52 80 -56 14 -9 219 43 286 72 27 12 58 21 69
21 25 0 80 42 188 145 47 44 111 100 142 123 31 23 70 61 86 84 25 37 39 46
92 61 34 10 98 35 143 57 63 31 94 40 133 40 28 0 77 9 109 20 32 11 79 20
103 20 81 0 165 21 252 62 78 38 94 41 186 46 74 3 118 0 167 -12 36 -9 77
-14 90 -11 22 6 25 3 31 -29 6 -29 13 -37 43 -47 19 -6 53 -27 74 -46 33 -30
44 -35 73 -30 19 3 59 -1 88 -9 48 -13 56 -12 85 3 41 22 83 6 83 -30 0 -41
29 -57 101 -57 60 0 68 3 94 30 49 51 63 40 112 -86 l44 -111 67 -31 c37 -17
125 -49 196 -72 110 -35 145 -42 247 -47 l119 -6 0 63 c0 64 12 112 62 237 31
80 34 109 15 156 -8 18 -17 60 -21 94 -6 55 -4 65 14 83 25 25 25 37 0 75 -14
21 -20 47 -20 88 0 61 -3 56 74 125 31 29 175 225 199 272 13 25 38 65 56 90
18 25 41 61 52 81 29 58 117 138 188 170 50 24 85 32 170 39 58 6 124 14 146
20 22 5 56 10 75 10 48 0 100 33 100 64 0 13 6 29 14 35 9 7 17 40 21 79 14
160 28 249 42 271 13 20 13 25 2 32 -8 5 -19 9 -25 9 -7 0 -14 8 -17 18 -2 9
-8 26 -13 36 -6 16 -4 18 14 14 19 -5 22 -2 22 27 0 125 -46 202 -137 230 -32
10 -71 24 -87 32 -45 23 -137 33 -161 17 -11 -7 -40 -18 -65 -24 -25 -7 -56
-20 -70 -30 -33 -24 -86 -45 -133 -54 -23 -4 -59 -25 -96 -56 l-58 -49 -34 29
c-40 34 -89 40 -89 11 0 -10 -10 -25 -22 -33 -17 -11 -22 -23 -20 -50 2 -29
-2 -37 -23 -46 -22 -10 -51 -3 -222 58 -108 38 -206 79 -219 90 -12 12 -30 47
-39 78 -29 92 -42 112 -74 112 -43 0 -81 35 -81 75 0 33 -21 65 -43 65 -7 1
-22 16 -34 35 l-22 35 22 12 c12 6 34 11 50 10 24 -2 27 1 27 26 0 16 5 43 11
60 9 27 8 35 -9 57 -36 46 -56 128 -48 204 5 54 2 82 -14 130 -11 34 -22 84
-26 111 -6 43 -3 54 18 82 18 24 26 50 31 96 3 34 1 62 -4 62 -5 0 -9 22 -9
49 0 46 3 52 43 88 37 32 46 48 56 95 7 31 19 62 27 68 20 17 19 123 -1 140
-13 10 -14 26 -9 74 4 34 11 66 16 73 5 6 6 39 2 74 -5 47 -13 69 -35 94 -22
24 -29 43 -29 73 0 35 -3 41 -30 50 -18 7 -31 19 -34 34 -20 96 -26 130 -31
178 -4 30 -13 65 -21 77 -8 12 -14 29 -14 37 0 15 -55 36 -92 36 -11 0 -18 8
-18 20 0 16 -7 20 -34 20 -30 0 -35 4 -41 29 -4 17 -14 31 -27 34 -11 3 -17
10 -14 15 3 5 -12 17 -34 27 -38 17 -40 20 -40 65 0 37 -5 51 -25 70 -14 13
-25 29 -25 36 0 31 -22 62 -41 57 -10 -3 -19 0 -19 6 0 6 -11 11 -25 11 -16 0
-25 6 -25 15 0 8 -5 15 -10 15 -6 0 -22 11 -36 25 -13 13 -34 30 -45 36 l-21
11 23 24 c18 20 21 27 10 33 -10 7 -10 13 -2 29 15 28 14 42 -3 42 -8 0 -17 7
-20 16 -5 12 -14 14 -45 9 -33 -5 -40 -4 -45 13 -4 10 -4 26 -1 34 3 8 -1 21
-10 28 -8 7 -15 18 -15 24 0 15 -53 64 -105 97 -37 23 -46 36 -60 85 -11 38
-13 60 -6 62 13 4 -3 49 -28 77 -9 11 -23 42 -30 70 -7 27 -18 53 -26 58 -7 4
-16 21 -20 37 -4 17 -13 30 -21 30 -9 0 -12 5 -8 12 4 7 9 34 10 60 1 36 -2
48 -12 48 -8 0 -14 6 -14 13 0 6 -14 19 -31 27 -37 18 -52 44 -74 123 -13 49
-19 57 -40 57 -25 0 -75 45 -75 68 0 8 -9 12 -22 10 -16 -2 -26 4 -32 18 -6
12 -29 31 -52 42 -49 24 -198 41 -208 23z"/>
</g>
</svg>
