<?xml version="1.0" standalone="no"?>
<!DOCTYPE svg PUBLIC "-//W3C//DTD SVG 20010904//EN"
 "http://www.w3.org/TR/2001/REC-SVG-20010904/DTD/svg10.dtd">
<svg version="1.0" xmlns="http://www.w3.org/2000/svg"
 width="1024.000000pt" height="1024.000000pt" viewBox="0 0 1024.000000 1024.000000"
 preserveAspectRatio="xMidYMid meet">
<metadata>
Created by potrace 1.10, written by Peter Selinger 2001-2011
</metadata>
<g transform="translate(0.000000,1024.000000) scale(0.100000,-0.100000)"
fill="#000000" stroke="none">
<path d="M6591 7376 c-7 -8 -9 -29 -5 -54 4 -26 2 -42 -6 -47 -8 -5 -5 -11 9
-22 21 -14 20 -15 -24 -80 -25 -36 -45 -75 -45 -87 0 -12 -7 -32 -16 -44 -14
-21 -14 -25 0 -47 29 -44 31 -40 -135 -196 -27 -25 -39 -45 -39 -64 0 -15 -10
-45 -22 -67 -18 -31 -27 -38 -44 -34 -25 7 -38 -4 -89 -67 -36 -45 -39 -47
-47 -27 -6 18 -11 19 -29 10 -29 -16 -78 -89 -111 -167 -16 -38 -33 -72 -38
-77 -5 -5 -41 19 -85 55 l-77 63 -33 -39 c-48 -56 -68 -101 -74 -170 -5 -53
-9 -62 -40 -82 -25 -17 -42 -43 -68 -105 -19 -46 -38 -100 -42 -120 -8 -38
-45 -90 -103 -146 l-35 -33 -99 36 c-54 20 -103 39 -109 43 -5 4 -20 28 -32
53 -40 86 -111 149 -166 149 -27 0 -37 -16 -37 -61 0 -16 -9 -47 -20 -68 -16
-32 -17 -44 -8 -68 10 -26 8 -36 -12 -69 -13 -22 -49 -65 -79 -97 -50 -53 -53
-59 -43 -83 17 -35 4 -55 -72 -109 -54 -38 -66 -52 -80 -95 -9 -27 -14 -61
-10 -74 15 -61 -85 -211 -193 -291 -97 -71 -121 -102 -173 -223 -24 -54 -57
-113 -76 -132 l-34 -36 55 -42 c30 -24 55 -47 55 -51 0 -12 -53 -58 -87 -75
-25 -12 -33 -23 -33 -43 0 -21 3 -24 12 -15 17 17 28 15 28 -7 0 -12 -19 -31
-52 -52 -29 -19 -83 -55 -121 -81 -37 -27 -69 -48 -72 -48 -3 0 -12 18 -21 39
-8 22 -22 42 -29 45 -8 3 -51 -18 -97 -46 -46 -28 -109 -67 -141 -86 l-58 -35
-45 33 -46 33 -20 -20 c-16 -16 -18 -25 -9 -40 8 -17 5 -24 -17 -45 -60 -55
-84 -65 -195 -77 -124 -14 -146 -20 -197 -61 -21 -17 -42 -30 -46 -30 -5 0
-42 30 -83 65 -41 36 -79 65 -84 65 -5 0 -28 -20 -51 -44 -24 -24 -57 -47 -74
-50 -16 -4 -38 -16 -48 -28 -36 -39 -89 -58 -165 -58 -82 0 -114 17 -154 80
-20 32 -31 39 -69 44 -39 6 -54 16 -99 63 -46 49 -53 61 -58 110 -5 43 -13 61
-38 87 -17 17 -31 36 -31 41 0 5 12 19 28 31 21 18 24 25 15 35 -9 9 -24 1
-70 -38 -450 -387 -438 -378 -528 -398 -54 -12 -92 -31 -166 -79 -53 -35 -114
-73 -137 -85 -40 -21 -42 -23 -42 -69 0 -63 -19 -87 -91 -113 -33 -12 -62 -26
-65 -30 -3 -5 -9 -34 -14 -65 -5 -31 -17 -68 -26 -81 -21 -33 -85 -60 -164
-69 -73 -8 -78 -12 -120 -98 l-29 -59 -128 -37 c-128 -36 -166 -52 -235 -98
-31 -20 -44 -23 -85 -18 -43 6 -57 2 -128 -33 l-80 -40 1072 0 c705 -1 1074 2
1078 9 4 6 74 10 176 10 166 0 170 -1 164 -20 -6 -18 -2 -20 43 -20 28 0 101
-7 164 -15 71 -9 366 -22 788 -35 639 -19 815 -19 3313 -13 l2639 6 -7 34 c-7
41 0 41 43 1 l34 -33 -7 51 c-5 37 -2 62 10 90 9 21 18 54 19 72 2 18 11 38
20 45 17 12 16 16 -2 72 -11 33 -23 85 -27 115 -11 94 -16 110 -41 126 -22 15
-26 14 -57 -5 -47 -29 -79 -26 -171 14 -60 26 -83 32 -97 24 -13 -6 -26 -6
-39 1 -18 10 -20 8 -20 -25 0 -26 4 -35 17 -35 14 0 14 -2 -3 -21 -14 -16 -16
-24 -7 -39 10 -15 8 -19 -10 -24 -36 -9 -37 -8 -37 49 0 41 -4 55 -14 55 -8 0
-18 -9 -21 -21 -6 -18 -12 -20 -40 -15 -31 6 -39 1 -98 -54 -57 -53 -87 -72
-87 -54 0 3 23 31 50 63 49 57 61 81 39 81 -7 0 -9 10 -7 24 4 19 -4 34 -33
62 -35 34 -41 36 -64 26 -27 -13 -58 -6 -52 12 2 6 14 10 26 9 38 -5 23 24
-16 32 -75 13 -97 43 -72 98 12 27 0 138 -16 144 -5 1 -18 -11 -27 -27 -9 -17
-24 -30 -33 -30 -8 0 -34 18 -57 41 -42 40 -43 41 -98 35 -51 -6 -59 -4 -111
29 -45 28 -58 42 -68 75 -13 45 -20 48 -46 20 -24 -27 -40 -25 -62 5 -18 25
-20 25 -72 13 -51 -11 -54 -11 -72 10 -10 13 -20 18 -24 12 -10 -16 -51 -12
-74 8 -18 15 -19 19 -6 36 10 14 18 16 27 9 17 -14 108 -25 180 -24 55 2 56 1
63 -29 l7 -30 30 25 c16 14 33 25 38 25 4 0 22 -24 39 -54 36 -65 60 -75 100
-47 35 25 41 26 41 6 0 -11 7 -14 25 -9 22 5 33 -1 71 -42 41 -45 45 -47 50
-27 8 31 89 49 122 27 35 -23 57 -81 42 -112 -10 -23 -7 -29 28 -65 39 -39 40
-39 34 -12 -7 37 12 25 37 -23 11 -20 33 -47 50 -60 17 -12 40 -41 51 -63 27
-52 47 -59 74 -27 27 33 62 51 85 43 15 -5 22 3 35 41 30 88 19 103 -41 57
l-37 -28 7 24 c3 13 2 32 -3 41 -8 14 -5 16 15 12 14 -2 32 1 40 8 14 12 12
17 -16 46 -30 31 -34 32 -50 18 -15 -14 -21 -14 -44 -2 -23 13 -25 16 -11 27
36 30 7 77 -41 68 -33 -6 -55 4 -106 49 -20 19 -43 34 -51 34 -19 0 -90 79
-114 127 -11 21 -40 61 -65 89 -24 27 -54 68 -65 90 -12 23 -28 44 -35 47 -21
8 -28 67 -9 67 19 0 82 -74 103 -120 9 -21 30 -47 47 -59 17 -12 34 -32 37
-44 4 -12 47 -61 96 -110 49 -48 89 -94 89 -102 0 -19 -1 -19 68 1 68 19 73
23 66 50 -4 16 -11 20 -30 16 -24 -4 -54 12 -54 29 0 5 11 9 25 9 14 0 25 4
25 9 0 12 -26 38 -51 51 -11 6 -19 21 -19 36 l0 26 34 -21 c18 -12 36 -21 40
-21 14 0 4 26 -21 52 l-27 28 25 0 c29 0 49 -14 72 -52 20 -32 34 -36 39 -10
2 11 15 -5 38 -47 l34 -63 18 53 c26 79 24 130 -7 157 -25 22 -34 62 -14 62 5
0 7 5 3 12 -5 8 -11 6 -20 -7 -13 -17 -17 -16 -75 22 -68 46 -71 41 34 59 20
3 37 10 37 14 0 4 -28 13 -61 19 -40 8 -70 21 -86 37 -18 18 -35 24 -69 24
-80 0 -134 44 -134 108 0 53 -24 88 -75 107 -24 10 -47 25 -50 34 -2 9 -15 21
-27 26 -13 6 -39 40 -61 82 -28 53 -59 92 -122 151 -74 69 -85 83 -85 113 0
66 15 64 58 -9 23 -38 69 -96 102 -128 34 -32 70 -73 82 -92 11 -18 34 -40 51
-49 18 -8 35 -22 40 -29 4 -7 14 -11 21 -8 26 10 146 -162 146 -209 0 -22 20
-32 31 -16 5 8 9 31 9 52 0 25 5 37 14 37 22 0 37 -26 34 -56 -3 -24 4 -33 46
-62 32 -21 59 -32 75 -30 27 3 28 5 18 49 -5 17 -1 32 11 45 16 17 18 36 17
137 l-2 118 22 -21 c43 -40 65 -22 65 52 0 55 -41 93 -151 138 -46 19 -101 50
-121 68 -31 28 -42 33 -68 27 -26 -6 -30 -4 -30 14 0 12 6 30 12 41 11 18 7
25 -40 66 -36 31 -52 53 -52 70 0 33 -18 31 -22 -3 l-3 -26 -31 26 c-31 26
-54 34 -54 20 0 -5 -4 -14 -9 -22 -8 -12 -16 -9 -46 17 -27 24 -45 32 -75 32
-26 0 -68 14 -124 42 -82 40 -84 42 -79 72 4 28 -1 36 -56 81 l-60 50 24 13
c20 10 25 20 25 53 0 45 -20 61 -48 36 -9 -8 -30 -19 -47 -23 -16 -4 -43 -16
-58 -27 -16 -11 -49 -26 -75 -33 -40 -13 -52 -12 -94 2 -52 17 -71 34 -39 34
28 0 27 6 -12 54 -51 63 -54 70 -25 63 23 -6 24 -5 24 41 -1 35 5 55 23 79 17
23 22 39 17 57 -5 20 -3 24 8 20 23 -9 49 50 41 95 -5 28 -2 41 9 51 9 7 16
19 16 26 0 17 5 17 31 3 14 -7 18 -16 14 -30 -8 -23 17 -25 53 -6 l23 13 -21
19 c-26 24 -25 35 4 35 15 0 26 7 29 20 3 13 14 20 29 20 13 0 34 7 46 16 19
13 23 24 21 67 -1 29 2 79 6 113 9 73 -8 109 -57 119 -23 6 -34 16 -46 46 -15
39 -48 59 -99 59 -17 0 -29 10 -41 32 -9 17 -31 47 -48 67 -30 33 -35 35 -115
40 -101 7 -141 30 -171 98 -25 56 -18 84 27 119 48 37 45 58 -15 95 -27 17
-59 44 -70 59 -13 18 -26 27 -36 23 -8 -3 -35 2 -59 11 -24 10 -58 16 -76 14
-30 -3 -33 -8 -83 -133 -29 -71 -58 -140 -64 -153 -13 -22 -17 -19 -180 113
-398 323 -450 365 -454 365 -3 0 -11 -6 -17 -14z"/>
<path d="M10075 5098 c-60 -6 -116 -11 -122 -14 -7 -2 -13 -17 -13 -33 0 -36
-31 -61 -76 -61 -44 0 -54 -28 -11 -32 20 -2 31 -8 29 -16 -1 -8 3 -29 9 -47
10 -27 10 -37 -1 -49 -10 -12 -16 -14 -26 -5 -12 9 -14 4 -14 -29 0 -54 -23
-68 -62 -39 -21 16 -31 18 -40 9 -9 -9 -7 -17 8 -33 18 -20 18 -21 -1 -35 -10
-8 -23 -14 -28 -14 -5 0 -7 -6 -4 -14 3 -8 -5 -24 -19 -37 -24 -23 -32 -49
-14 -49 6 0 10 -4 10 -10 0 -5 -9 -10 -19 -10 -31 0 -53 -28 -40 -51 13 -26
-6 -55 -26 -39 -9 8 -14 6 -18 -4 -4 -9 -2 -18 4 -22 6 -4 4 -13 -7 -25 -16
-18 -16 -19 7 -20 23 0 23 0 3 -9 -32 -12 -54 -50 -54 -88 0 -30 2 -33 15 -22
29 24 16 -11 -15 -40 -28 -26 -41 -70 -21 -70 16 0 9 -44 -10 -65 -28 -32 -52
-104 -29 -90 14 9 13 4 -11 -49 -22 -50 -20 -76 6 -76 18 0 18 -5 5 -29 -7
-13 -3 -30 15 -64 14 -25 25 -53 25 -62 0 -9 6 -15 13 -13 8 3 14 41 18 119 3
63 14 141 23 174 23 77 72 170 101 189 12 8 25 27 28 43 7 34 64 116 76 108 5
-3 43 49 85 114 42 66 83 122 91 125 9 3 15 18 15 35 0 28 22 61 40 61 5 0 26
26 46 58 20 31 55 77 78 102 22 24 32 37 20 27 -28 -23 -54 -22 -54 3 0 30 37
98 60 110 15 8 19 17 14 35 -5 20 0 28 28 45 l33 20 -30 -2 c-16 -1 -79 -5
-140 -10z"/>
</g>
</svg>
