<?xml version="1.0" standalone="no"?>
<!DOCTYPE svg PUBLIC "-//W3C//DTD SVG 20010904//EN"
 "http://www.w3.org/TR/2001/REC-SVG-20010904/DTD/svg10.dtd">
<svg version="1.0" xmlns="http://www.w3.org/2000/svg"
 width="1024.000000pt" height="1024.000000pt" viewBox="0 0 1024.000000 1024.000000"
 preserveAspectRatio="xMidYMid meet">
<metadata>
Created by potrace 1.10, written by Peter Selinger 2001-2011
</metadata>
<g transform="translate(0.000000,1024.000000) scale(0.100000,-0.100000)"
fill="#000000" stroke="none">
<path d="M7330 8286 c-36 -19 -91 -39 -123 -46 -116 -24 -161 -57 -172 -129
-8 -50 -32 -101 -48 -101 -7 0 -52 11 -100 25 l-88 26 -42 -19 c-23 -11 -55
-33 -71 -50 l-29 -31 6 -119 6 -119 -66 20 c-99 30 -123 21 -201 -78 -35 -44
-69 -83 -76 -86 -6 -4 -1275 36 -2820 88 -1545 51 -2810 92 -2812 91 -1 -2
-158 -579 -349 -1283 l-347 -1280 10 -64 c6 -35 15 -68 21 -74 7 -7 1421 -49
1928 -57 21 0 22 -5 25 -73 l3 -73 63 14 c59 13 63 16 58 36 -4 16 1 29 14 41
11 10 20 26 20 37 0 17 10 18 128 18 150 0 290 -16 313 -36 21 -19 35 -18 96
8 l52 21 1008 -22 c554 -12 1043 -21 1086 -21 l77 0 0 -31 0 -30 138 6 c125 5
1004 35 1045 35 16 0 17 -18 17 -240 l0 -240 28 0 c15 0 33 5 39 11 6 6 21 9
34 7 18 -2 23 -8 20 -23 -2 -11 -3 -33 -2 -50 7 -170 6 -197 -8 -205 -18 -10
-9 -88 17 -139 17 -36 142 -134 142 -112 0 6 5 11 10 11 6 0 10 -5 10 -10 0
-6 15 -24 34 -41 19 -16 49 -52 67 -80 30 -47 33 -49 41 -30 9 27 34 27 48 0
8 -15 8 -24 0 -34 -7 -8 -7 -15 -1 -19 5 -3 19 10 31 29 27 44 33 44 28 0 -4
-33 -2 -36 21 -33 32 4 131 138 131 178 0 15 10 36 25 50 30 28 31 34 5 70
-17 24 -18 29 -5 34 8 3 15 14 15 25 0 21 35 69 44 60 3 -3 1 -21 -5 -39 -9
-25 -9 -41 0 -67 16 -43 7 -94 -19 -118 -11 -10 -20 -23 -20 -30 0 -6 -20 -38
-45 -70 -25 -32 -48 -70 -52 -84 -3 -14 -28 -50 -55 -79 -26 -30 -46 -57 -43
-62 3 -5 20 -12 38 -16 58 -12 137 -52 137 -69 0 -9 -5 -47 -11 -85 -10 -58
-9 -79 5 -128 9 -32 19 -86 22 -120 6 -50 11 -65 28 -74 25 -12 76 -65 76 -78
0 -12 41 -40 57 -40 18 0 17 82 -2 127 -19 45 -19 43 8 43 30 0 47 -35 54
-110 4 -40 12 -62 31 -82 28 -30 48 -37 38 -13 -6 16 29 45 53 45 8 0 26 -10
39 -22 l25 -23 -5 52 c-7 71 2 79 44 40 l35 -32 16 27 c9 16 23 28 32 28 14 0
16 7 10 43 -10 59 -34 102 -48 88 -18 -18 -29 -13 -22 9 4 12 2 27 -4 34 -11
13 -5 46 8 46 4 0 20 -13 36 -30 15 -16 32 -27 37 -24 4 3 8 32 8 65 0 47 3
59 16 59 8 0 22 -16 30 -35 8 -19 19 -35 25 -35 7 0 8 7 4 18 -44 107 -56 160
-49 220 3 34 10 62 14 62 13 0 18 -22 13 -56 -3 -19 4 -51 17 -83 21 -47 24
-50 40 -36 23 21 46 19 65 -7 15 -23 15 -22 9 10 -8 40 3 41 56 6 36 -24 79
-27 65 -5 -10 18 16 23 34 7 23 -21 31 -20 31 2 0 9 -14 29 -32 43 -63 52 -5
78 95 42 59 -21 71 -10 50 48 -14 43 -11 59 13 59 18 0 18 5 -6 67 -22 58 -10
83 21 45 9 -12 22 -22 28 -22 5 0 23 -21 38 -47 25 -42 28 -45 31 -25 2 13 -4
32 -12 41 -24 26 -20 44 7 36 17 -6 11 5 -25 42 -38 39 -48 56 -48 83 0 35 15
32 22 -4 4 -24 28 -34 28 -12 0 10 9 16 25 16 19 0 26 7 31 28 3 15 6 30 7 34
1 4 9 3 17 -2 12 -8 13 -14 1 -46 -12 -34 -12 -39 5 -51 11 -8 31 -12 46 -9
22 4 31 0 44 -19 18 -27 44 -34 44 -11 0 8 3 21 6 30 5 12 -2 18 -25 22 -42 9
-41 34 2 34 18 0 38 -5 44 -11 15 -15 26 5 33 56 5 37 8 40 43 46 31 5 37 3
37 -12 0 -10 -9 -20 -19 -24 -20 -6 -44 -58 -33 -70 4 -4 8 -16 9 -28 2 -12 5
-38 9 -58 4 -26 0 -44 -15 -70 -25 -40 -26 -50 -6 -43 23 9 31 -43 10 -66 -16
-18 -17 -20 -2 -20 29 0 19 -19 -25 -47 -55 -35 -55 -35 -40 -40 16 -6 16 -85
0 -101 -10 -10 -10 -15 2 -22 13 -8 13 -13 2 -30 -10 -16 -10 -29 -1 -61 11
-35 10 -44 -10 -79 -12 -21 -22 -55 -23 -75 -1 -28 -6 -37 -24 -41 -40 -10
-42 -44 -4 -64 17 -9 22 -5 39 27 27 53 65 71 183 87 57 8 110 17 119 21 9 3
24 26 34 51 9 24 21 46 25 49 5 3 17 -20 26 -50 12 -42 20 -55 31 -51 8 3 23
6 33 6 21 0 75 43 90 71 8 14 6 23 -11 40 l-21 21 23 49 c12 27 26 49 31 49
11 0 10 -7 -4 -30 -9 -15 -10 -25 -2 -37 18 -30 31 -25 39 14 10 54 29 86 70
118 l37 28 21 -21 c20 -21 20 -21 1 -27 -44 -14 -69 -32 -72 -53 -2 -12 1 -22
6 -22 24 0 42 14 42 31 0 12 7 19 20 19 23 0 26 -10 8 -28 -9 -9 -7 -12 8 -12
23 0 69 44 60 58 -3 5 16 19 41 32 37 18 50 21 65 11 10 -6 27 -17 38 -23 17
-11 27 -9 65 11 25 13 48 21 52 18 3 -4 11 3 18 16 15 29 53 25 83 -9 l23 -27
51 24 c27 13 58 35 69 50 19 26 20 27 50 12 17 -9 42 -13 57 -10 238 50 417
87 423 87 4 0 22 -12 39 -27 27 -22 35 -25 51 -15 10 7 26 12 34 12 12 0 14
-4 5 -19 -6 -13 -7 -22 0 -26 17 -10 47 68 52 133 4 61 3 63 -21 68 -46 10
-51 13 -45 29 4 10 0 15 -14 15 -12 0 -24 -4 -27 -10 -10 -17 -35 -11 -35 9 0
10 5 32 11 50 9 27 16 31 45 31 32 0 34 2 24 21 -9 15 -8 24 2 36 10 13 10 17
1 20 -15 5 -16 22 -3 43 7 12 12 12 29 -4 21 -19 21 -19 21 2 0 16 6 22 21 22
14 0 19 -5 16 -15 -4 -8 -2 -17 3 -20 12 -8 12 92 0 120 -5 11 -9 16 -10 10
-1 -12 -70 95 -70 109 0 5 12 23 27 38 l27 28 -23 98 c-38 157 -97 329 -157
450 -114 234 -281 355 -510 369 -90 6 -91 6 -125 -25 l-34 -31 36 -38 c20 -21
46 -57 58 -79 21 -43 37 -54 74 -53 l22 0 -22 9 c-71 29 -8 140 79 140 67 0
157 -61 194 -133 23 -42 56 -206 49 -238 -4 -16 -3 -53 0 -83 6 -45 11 -55 30
-60 13 -3 40 1 60 10 33 14 40 14 52 1 12 -12 13 -19 3 -37 -17 -33 -6 -51 32
-48 29 3 32 0 39 -31 5 -22 2 -48 -9 -77 -14 -37 -14 -55 -4 -131 18 -132 -1
-187 -85 -242 -55 -37 -244 -101 -296 -101 -22 0 -62 -6 -90 -14 -29 -8 -65
-17 -81 -21 -16 -3 -62 -38 -105 -79 -87 -83 -121 -96 -257 -96 l-75 0 -15 35
c-23 57 -22 57 70 50 46 -4 94 -4 106 0 47 15 -12 29 -145 36 -115 5 -142 10
-234 42 -58 20 -119 37 -137 37 -18 0 -39 3 -48 6 -19 7 -22 34 -4 34 7 0 -20
33 -59 73 -40 39 -79 89 -88 109 -14 35 -14 41 10 104 22 58 24 73 16 130 -5
35 -20 81 -32 103 -18 33 -20 45 -11 65 10 22 6 28 -50 72 -58 45 -62 47 -92
35 -56 -23 -73 -23 -117 -1 -70 36 -95 57 -113 95 -10 20 -28 41 -42 47 -15 7
-24 20 -24 35 0 16 -6 23 -20 23 -34 0 -24 37 17 65 l38 25 8 -25 c5 -14 13
-25 17 -25 16 0 22 21 10 35 -9 11 -9 27 0 69 9 44 14 54 28 50 13 -4 13 -2
-3 11 -17 14 -18 17 -5 25 8 5 23 10 33 10 13 0 17 5 13 18 -3 10 2 34 12 54
l19 36 -49 64 c-27 34 -61 82 -76 105 -23 36 -32 43 -59 43 -34 0 -58 18 -68
50 -5 15 -15 20 -44 20 -20 0 -42 -5 -49 -12 -6 -6 -14 -9 -17 -6 -4 3 8 16
25 28 17 12 36 34 41 47 7 18 14 23 27 18 9 -4 23 -9 31 -13 11 -4 13 1 6 29
-4 19 -9 48 -10 66 -2 25 -14 43 -54 79 -28 25 -54 57 -57 71 -6 22 -8 23 -16
9 -15 -27 -46 -19 -53 14 -7 34 -8 34 -35 18 -24 -15 -35 -6 -21 20 9 18 5 21
-47 36 -68 19 -98 20 -108 5 -3 -6 -15 -9 -25 -6 -15 4 -19 0 -19 -23 0 -16
-5 -32 -11 -35 -12 -8 -49 23 -49 42 0 18 -7 17 -47 -8 -34 -21 -34 -22 -28
-73 6 -47 6 -50 -9 -36 -9 9 -17 35 -19 58 -1 23 -4 42 -6 42 -2 0 -19 -10
-39 -22 -32 -20 -33 -22 -16 -35 14 -10 15 -16 6 -25 -21 -21 -67 11 -67 47 0
21 -6 31 -18 33 -14 3 -16 7 -6 18 6 8 7 14 2 14 -21 0 -106 86 -124 124 l-19
41 5 -35 c3 -25 -1 -42 -15 -60 l-20 -25 2 35 c1 19 -6 49 -15 66 -15 29 -15
32 5 52 18 17 19 24 9 36 -17 20 -7 46 16 46 10 0 29 7 42 16 l23 16 -54 32
c-54 33 -88 84 -60 93 6 3 12 13 12 24 0 13 -7 19 -23 19 -30 0 -62 24 -53 38
5 8 22 4 57 -13 40 -21 49 -30 49 -51 0 -18 13 -38 43 -65 46 -42 57 -46 57
-25 0 8 4 16 9 18 5 2 7 16 4 31 -4 21 -10 26 -24 22 -27 -9 -38 24 -14 41 27
20 34 18 52 -14 12 -21 24 -29 43 -28 26 1 26 2 17 41 -5 22 -19 50 -30 62
-19 21 -19 34 -2 90 7 20 3 22 -41 25 -43 3 -49 6 -52 27 -3 20 -1 23 15 16
49 -21 62 -18 84 19 18 31 24 34 41 25 20 -11 37 -2 119 62 25 20 28 20 57 5
l30 -15 49 52 c64 68 107 133 99 152 -10 28 -43 16 -70 -25 -14 -22 -33 -40
-41 -40 -26 0 -17 54 15 95 36 46 38 52 6 32 -23 -16 -26 -15 -70 19 -60 45
-64 73 -6 44 47 -24 68 -25 90 -5 10 9 41 18 71 21 32 4 68 16 89 30 28 19
110 54 126 54 2 0 4 -7 4 -15 0 -19 2 -19 47 7 26 16 55 23 97 24 65 1 79 12
102 78 7 19 25 39 50 53 51 29 55 29 48 -7 -4 -16 -4 -37 0 -46 10 -26 33 1
41 47 5 29 14 43 31 51 13 6 24 17 24 23 0 19 38 48 55 41 13 -5 14 -2 5 15
-6 11 -8 28 -5 39 5 16 0 19 -32 22 -37 3 -38 4 -41 48 -1 25 -5 56 -8 70 -5
23 -7 24 -19 7 -7 -9 -19 -15 -27 -12 -10 4 -31 -13 -59 -47 -45 -53 -53 -88
-21 -88 13 0 12 -4 -6 -20 -27 -26 -37 -62 -23 -88 6 -12 11 -27 11 -36 0 -13
-3 -13 -27 0 -16 7 -34 14 -40 14 -20 0 -15 59 8 97 24 39 23 43 -17 46 -23 2
-30 -3 -32 -19 -3 -24 -49 -39 -69 -23 -7 7 -19 2 -37 -16 -14 -14 -29 -25
-34 -25 -5 0 -15 20 -22 45 -7 25 -24 54 -37 65 l-25 19 28 36 c24 32 29 34
48 22 11 -7 34 -19 51 -26 29 -13 30 -13 11 8 -10 11 -41 28 -68 37 -48 16
-50 16 -69 -5 -35 -37 -81 -25 -72 20 4 24 2 29 -13 29 -36 0 -49 16 -36 44
10 22 8 29 -15 57 -21 24 -24 35 -16 48 6 9 20 16 32 15 29 -1 28 42 -1 74
l-23 25 38 -6 c29 -4 37 -2 37 9 0 26 18 6 25 -28 8 -33 55 -129 55 -110 0 6
-13 66 -30 134 -16 67 -30 130 -30 139 0 9 -6 19 -13 22 -9 3 -13 -3 -13 -17
1 -17 -4 -20 -24 -17 -29 4 -78 27 -102 49 -17 14 -15 17 24 51 22 19 46 36
52 37 6 1 19 5 29 9 13 5 17 2 17 -14 0 -12 5 -21 11 -21 6 0 8 11 5 28 -3 15
-8 44 -12 65 -4 22 -12 37 -20 37 -8 0 -14 7 -14 17 0 15 -1 15 -18 0 -26 -24
-32 -22 -92 29 -89 76 -129 81 -230 30z"/>
<path d="M7284 5895 c-18 -14 -18 -14 9 -15 17 0 27 5 27 15 0 19 -11 19 -36
0z"/>
<path d="M7574 3341 c2 -24 9 -48 15 -54 17 -17 13 44 -5 73 -15 24 -15 24
-10 -19z"/>
<path d="M10046 3151 c-9 -16 -16 -40 -16 -52 0 -34 28 -5 36 37 9 46 -1 53
-20 15z"/>
<path d="M6840 3000 c0 -71 2 -81 16 -76 9 3 26 9 39 12 21 5 22 7 8 46 -8 23
-25 54 -39 70 l-24 30 0 -82z"/>
<path d="M7980 2945 c-6 -8 -20 -17 -31 -20 -11 -4 -38 -24 -62 -45 -23 -21
-62 -53 -87 -72 -48 -36 -65 -80 -36 -91 24 -9 101 54 101 83 0 27 74 79 112
80 24 0 59 52 48 70 -9 15 -31 12 -45 -5z"/>
<path d="M7050 2925 c7 -8 17 -15 22 -15 6 0 5 7 -2 15 -7 8 -17 15 -22 15 -6
0 -5 -7 2 -15z"/>
<path d="M8286 2824 c-10 -9 -16 -33 -16 -62 l-1 -47 -22 28 c-27 32 -45 34
-81 6 -18 -14 -26 -30 -26 -50 0 -26 -3 -28 -18 -20 -31 17 -65 -9 -97 -75
-16 -33 -46 -76 -65 -96 -52 -51 -100 -153 -100 -210 0 -26 -3 -49 -7 -51 -5
-2 -21 4 -37 13 l-28 18 21 21 c23 23 23 24 -44 41 -51 12 -105 3 -105 -19 0
-6 21 -34 46 -63 26 -29 49 -55 51 -58 2 -2 1 2 -2 11 -3 9 5 21 25 32 16 10
30 14 30 8 0 -6 9 -15 21 -22 18 -9 25 -7 48 14 32 31 190 107 197 95 6 -9 84
-12 84 -3 0 3 -5 14 -12 25 -7 10 -10 22 -6 25 8 9 78 -22 78 -34 0 -7 37 -11
101 -11 86 0 100 2 95 15 -3 10 1 15 13 15 14 0 17 6 13 28 l-5 27 26 -24 c15
-13 29 -32 33 -43 4 -14 16 -18 60 -18 53 0 63 6 45 26 -13 14 -21 120 -9 132
16 16 -42 55 -74 48 -21 -4 -32 1 -50 23 -13 15 -29 26 -36 23 -18 -6 -15 48
4 69 13 14 15 29 9 68 -4 28 -11 53 -16 56 -14 9 -49 -18 -39 -30 13 -16 -47
-112 -61 -98 -7 7 -7 17 2 31 10 16 10 23 0 35 -9 12 -10 25 -1 56 6 23 8 46
5 51 -9 15 -32 12 -49 -6z"/>
<path d="M7650 2719 c0 -17 4 -20 23 -15 12 3 28 6 36 6 11 0 11 3 1 15 -20
24 -60 19 -60 -6z"/>
<path d="M7556 2678 c-15 -12 -41 -21 -57 -20 -22 0 -29 -4 -29 -19 0 -16 7
-19 43 -19 35 0 61 10 96 36 1 2 -3 12 -11 22 -13 20 -14 20 -42 0z"/>
<path d="M7364 2609 c-22 -24 -24 -29 -8 -21 24 13 49 40 42 47 -2 3 -18 -9
-34 -26z"/>
<path d="M10022 2223 c-30 -17 -41 -30 -37 -40 8 -24 -12 -41 -69 -57 -28 -9
-63 -27 -76 -41 -31 -33 -60 -33 -60 0 0 34 -28 43 -99 33 -31 -4 -90 -6 -131
-3 -66 5 -72 4 -52 -8 l23 -13 -26 -24 c-14 -13 -25 -27 -25 -31 0 -4 55 -31
123 -59 l122 -52 175 -4 c104 -2 188 1 207 7 77 25 84 100 21 231 -23 49 -44
88 -47 87 -3 -1 -25 -12 -49 -26z"/>
<path d="M7702 1986 c-26 -14 -19 -26 15 -26 13 0 23 6 23 14 0 22 -13 26 -38
12z"/>
</g>
</svg>
