<?xml version="1.0" standalone="no"?>
<!DOCTYPE svg PUBLIC "-//W3C//DTD SVG 20010904//EN"
 "http://www.w3.org/TR/2001/REC-SVG-20010904/DTD/svg10.dtd">
<svg version="1.0" xmlns="http://www.w3.org/2000/svg"
 width="1024.000000pt" height="1024.000000pt" viewBox="0 0 1024.000000 1024.000000"
 preserveAspectRatio="xMidYMid meet">
<metadata>
Created by potrace 1.10, written by Peter Selinger 2001-2011
</metadata>
<g transform="translate(0.000000,1024.000000) scale(0.100000,-0.100000)"
fill="#000000" stroke="none">
<path d="M4502 9823 c-159 -230 -394 -573 -522 -763 -128 -190 -268 -395 -311
-456 -92 -130 -135 -216 -144 -287 -4 -29 -18 -119 -32 -202 -13 -82 -31 -190
-38 -238 l-14 -88 -88 -85 c-50 -50 -101 -90 -119 -95 -31 -9 -54 -43 -54 -80
0 -11 -22 -62 -50 -113 -27 -51 -50 -104 -50 -117 0 -13 -9 -35 -20 -49 -11
-14 -20 -29 -20 -33 0 -5 21 -33 46 -63 l47 -54 -18 -46 c-9 -24 -27 -51 -39
-60 -26 -16 -53 -67 -38 -72 5 -1 17 -8 27 -16 16 -11 15 -15 -14 -43 -37 -37
-39 -58 -9 -90 20 -21 20 -24 5 -41 -24 -26 -21 -35 7 -28 20 5 31 -2 62 -39
l37 -46 -21 -15 c-16 -11 -22 -26 -22 -52 0 -48 -28 -81 -110 -130 -44 -26
-76 -54 -98 -88 -30 -44 -33 -54 -28 -99 3 -27 9 -62 12 -76 8 -34 -35 -85
-79 -94 -17 -4 -48 -17 -67 -30 -20 -12 -59 -35 -88 -49 -35 -18 -64 -43 -87
-75 -19 -27 -52 -60 -74 -74 -31 -21 -49 -47 -90 -131 l-52 -105 20 -39 c11
-21 37 -54 58 -72 54 -47 73 -79 73 -126 0 -30 -6 -46 -23 -62 l-23 -22 -24
25 c-17 18 -34 25 -62 25 -32 0 -41 5 -60 35 -29 44 -53 52 -80 29 -34 -32
-39 -49 -23 -88 14 -33 14 -39 -1 -61 -13 -20 -14 -29 -3 -59 11 -32 10 -36
-14 -66 -15 -17 -27 -40 -27 -50 0 -9 -7 -23 -15 -30 -11 -9 -13 -16 -5 -24
18 -18 11 -42 -16 -55 -21 -9 -31 -9 -49 3 -30 19 -75 111 -75 151 0 36 -16
53 -77 84 l-43 21 0 -24 c0 -32 -20 -46 -77 -54 l-48 -7 3 -90 c2 -50 41 -948
87 -1997 61 -1376 87 -1912 96 -1926 11 -17 10 -27 -5 -59 -15 -35 -16 -42 -1
-82 19 -54 19 -84 0 -120 -26 -52 -33 -106 -21 -173 9 -53 14 -63 33 -66 30
-4 81 -56 89 -90 4 -15 25 -45 46 -67 22 -22 54 -54 71 -72 l31 -32 -13 -58
c-25 -105 -22 -115 55 -197 70 -75 104 -93 104 -56 0 11 3 20 6 20 10 0 43
-44 44 -58 1 -34 29 3 77 98 29 57 58 107 64 111 6 4 9 11 5 17 -3 6 5 31 18
56 21 40 23 50 14 87 -13 47 6 123 48 195 27 48 40 55 114 63 54 6 55 7 80 55
14 27 36 54 48 59 12 6 31 25 43 43 18 30 19 38 8 91 -15 70 -6 124 25 160 22
25 22 28 7 54 -20 35 -13 42 30 28 19 -6 40 -13 47 -15 10 -3 10 -8 1 -26 -11
-21 -10 -21 24 5 31 23 39 26 56 15 16 -9 23 -9 37 2 9 8 27 13 40 12 l23 -3
-15 46 c-13 35 -13 49 -4 60 14 17 6 46 -19 69 -17 16 -20 15 -48 -1 -29 -16
-32 -16 -57 0 -14 10 -26 22 -26 27 0 15 16 12 30 -5 18 -21 36 -19 54 7 22
32 20 39 -10 32 -17 -4 -29 -2 -34 7 -11 17 -3 29 20 29 14 0 20 9 22 37 3 39
24 56 30 26 3 -11 19 14 46 70 38 81 55 102 64 76 2 -5 34 24 71 66 37 42 67
71 67 66 0 -6 10 -11 23 -11 16 0 33 14 55 45 26 37 37 45 63 45 25 0 30 -3
25 -16 -5 -12 -2 -15 11 -9 43 18 53 17 53 -1 0 -14 12 -6 48 29 54 53 67 58
58 22 -4 -14 -2 -25 3 -25 5 0 13 -15 17 -32 3 -18 14 -38 23 -45 15 -11 15
-14 -2 -42 -21 -36 -14 -141 10 -141 11 0 13 -10 7 -45 -3 -25 -2 -45 2 -45
15 1 100 79 86 80 -8 0 -10 8 -6 25 3 14 -2 54 -11 90 -14 52 -16 71 -7 91 20
41 15 74 -9 74 -17 0 -20 4 -15 23 19 70 19 98 -3 127 -11 16 -21 39 -21 51 0
19 -6 16 -51 -26 -28 -26 -52 -45 -54 -43 -2 2 5 34 17 71 16 54 27 72 57 94
20 14 53 52 73 85 21 32 42 58 48 58 21 0 22 -31 2 -53 -57 -62 -76 -132 -50
-180 10 -20 18 -73 34 -254 5 -47 10 -60 20 -56 11 4 13 -8 8 -69 -6 -72 -6
-75 16 -81 19 -5 25 2 47 49 14 31 27 74 30 97 4 39 3 41 -11 23 -8 -10 -17
-24 -19 -30 -2 -6 -7 -8 -11 -4 -4 3 -3 32 3 64 8 39 8 60 1 62 -5 2 -19 11
-30 20 -18 15 -19 21 -8 55 9 29 15 36 30 31 10 -3 18 -1 18 4 0 15 78 74 84
64 2 -4 -14 -36 -36 -70 -40 -62 -41 -63 -28 -105 l13 -42 8 30 c5 17 11 47
14 67 3 20 15 47 26 60 l20 23 -6 -52 c-4 -36 -1 -64 11 -93 16 -39 16 -43 -2
-81 -17 -39 -17 -42 2 -77 l19 -36 6 55 c9 80 39 126 55 84 5 -12 10 -10 24 8
25 30 36 14 23 -34 -8 -30 -8 -38 1 -29 7 7 11 63 11 163 l0 152 39 82 c21 45
43 80 47 77 18 -11 8 -57 -20 -97 -36 -54 -50 -122 -25 -131 12 -5 15 -14 10
-37 -5 -27 -4 -29 10 -15 25 26 31 19 36 -41 3 -32 11 -71 17 -88 l12 -30 35
75 c20 41 47 116 61 167 19 68 30 94 45 98 10 4 26 18 35 31 14 22 14 26 0 42
-13 15 -13 23 -1 63 19 63 35 75 68 53 30 -19 43 -58 27 -78 -6 -7 -14 -41
-17 -75 -6 -54 -5 -61 10 -61 10 0 30 9 44 21 l27 21 5 -39 5 -38 28 48 c16
27 43 57 60 67 19 11 44 42 63 77 20 39 37 59 52 61 19 3 17 -4 -24 -80 -25
-45 -58 -96 -74 -113 -35 -36 -53 -81 -45 -112 7 -28 20 -29 62 -3 27 16 33
26 33 56 0 51 12 68 75 103 31 17 61 42 67 56 6 13 20 26 32 29 12 3 33 27 50
57 25 45 26 51 10 44 -10 -4 -31 -10 -46 -13 -25 -4 -28 -2 -28 26 0 39 9 62
24 62 8 0 16 27 22 72 6 49 13 72 22 70 8 -1 12 11 12 34 0 22 14 63 34 103
19 36 39 78 45 94 6 15 22 32 36 37 25 10 45 44 59 102 5 22 0 35 -29 67 -19
21 -35 48 -35 59 0 11 -5 33 -10 48 -13 34 -8 39 30 25 30 -10 34 -8 86 41 42
40 57 49 64 39 6 -11 13 -8 33 12 33 36 39 34 31 -10 -7 -36 -6 -37 12 -23 10
8 20 15 22 16 2 1 -2 11 -9 23 -12 17 -10 23 9 43 15 16 25 45 31 92 12 82 -1
116 -49 136 -26 11 -30 17 -30 51 0 29 5 41 21 50 20 10 21 9 17 -9 -4 -13 2
-28 17 -42 13 -12 25 -34 28 -49 3 -16 16 -32 31 -39 13 -6 36 -31 50 -55 l26
-44 -24 -55 c-13 -30 -29 -73 -35 -95 -6 -21 -22 -50 -36 -63 -19 -18 -25 -33
-25 -67 0 -24 4 -43 9 -43 5 0 40 36 77 80 l69 81 3 -42 c2 -24 1 -53 -3 -67
-6 -24 -6 -24 -26 -6 -20 18 -21 18 -36 -1 -10 -14 -12 -33 -8 -62 7 -51 0
-69 -21 -52 -36 30 -96 -68 -64 -106 20 -25 37 -17 71 30 18 25 34 45 35 45 2
0 22 -20 45 -44 27 -30 75 -62 141 -96 55 -29 118 -68 139 -87 44 -40 49 -36
18 14 -25 40 -18 54 13 27 20 -18 21 -18 15 -1 -4 10 -7 26 -7 35 0 10 -10 22
-22 27 -39 18 -43 38 -24 102 16 54 17 63 3 89 -8 16 -18 40 -22 53 -7 22 -6
23 33 16 35 -6 42 -3 65 24 14 17 28 44 32 61 4 18 13 30 22 30 13 0 15 -13
11 -82 -3 -46 -1 -74 3 -63 4 11 8 52 8 91 1 60 -3 77 -24 108 -24 35 -24 36
-4 36 11 0 29 -5 40 -11 16 -8 23 -7 33 7 8 10 18 14 25 9 9 -5 11 -30 6 -94
-4 -47 -9 -94 -11 -103 -9 -30 15 -20 38 17 13 19 30 34 38 32 8 -1 22 13 31
30 9 18 19 30 23 26 3 -3 17 0 31 7 20 10 28 11 37 2 7 -7 21 -12 31 -12 16 0
17 2 7 15 -10 13 -10 19 4 33 15 17 14 21 -16 61 l-31 42 32 -3 c29 -3 35 -9
54 -57 27 -67 42 -74 51 -24 12 75 10 81 -49 114 -30 17 -55 34 -55 37 1 4 14
22 30 41 32 38 55 35 39 -6 -14 -36 -5 -55 38 -78 31 -17 40 -29 54 -75 l16
-54 17 32 17 33 51 -43 c40 -33 48 -44 34 -46 -16 -4 -18 -11 -12 -60 4 -32
11 -74 17 -95 9 -35 11 -37 27 -20 16 16 17 14 23 -33 10 -84 32 -111 44 -54
4 16 11 32 16 35 5 4 9 19 9 34 0 16 10 40 21 55 l21 27 20 -32 c30 -49 44
-24 24 45 -12 41 -21 56 -34 56 -24 0 -42 19 -42 46 0 28 16 40 24 18 11 -28
41 -11 46 25 9 62 27 46 39 -34 6 -42 17 -88 25 -102 12 -25 13 -23 18 39 3
35 11 75 18 89 13 23 13 23 21 4 4 -11 8 -55 8 -97 1 -43 5 -78 10 -78 5 0 12
41 16 91 6 77 9 88 21 78 11 -9 18 -9 26 -1 9 9 6 25 -10 65 -27 64 -29 85 -7
67 25 -21 44 -5 39 32 -3 24 1 40 17 58 19 23 22 23 34 7 16 -22 21 -22 28 3
8 33 27 23 27 -14 0 -57 16 -49 34 15 10 38 21 59 29 56 16 -5 12 -100 -5
-123 -9 -12 15 -65 44 -95 14 -15 17 -15 22 -2 3 8 6 21 6 29 0 16 69 80 82
76 4 -1 8 5 8 14 0 14 3 14 15 4 10 -8 15 -25 13 -44 -3 -30 -3 -30 42 -27 55
3 64 10 51 44 -8 19 -6 38 4 68 14 37 14 45 0 65 -20 30 -19 32 8 36 14 2 23
11 25 26 3 16 8 22 19 18 8 -3 17 -6 19 -6 2 0 4 -10 4 -22 0 -20 1 -20 18 -5
17 16 20 15 49 -18 17 -19 41 -35 52 -35 24 0 25 3 9 46 -9 25 -8 39 2 63 13
32 28 40 34 19 2 -7 10 -41 16 -75 14 -67 24 -79 34 -37 5 18 11 24 23 20 12
-5 14 -1 10 15 -3 12 -2 30 4 40 7 14 3 26 -19 51 -27 30 -28 36 -17 67 11 34
11 34 26 13 l16 -22 39 21 c21 11 48 18 59 17 17 -3 20 -11 21 -64 0 -74 19
-124 46 -124 15 0 17 3 8 19 -5 11 -10 31 -10 45 0 22 5 26 28 26 26 0 28 -3
24 -30 -4 -27 -2 -30 22 -30 19 0 29 7 36 25 6 17 20 27 40 32 45 8 139 135
119 159 -7 8 -1 13 21 17 18 4 37 18 47 35 11 16 25 26 35 24 17 -3 82 48 98
78 12 22 -5 79 -30 100 -10 8 -21 29 -24 45 -9 36 -33 75 -46 75 -6 0 -1 -19
11 -41 17 -35 19 -46 9 -67 l-11 -26 -22 38 c-12 22 -32 46 -44 54 -22 14 -23
13 -23 -16 0 -64 -20 -79 -44 -34 -15 27 -15 26 -16 -29 0 -36 -5 -61 -14 -68
-18 -15 -26 5 -26 66 0 36 -8 59 -40 109 -48 75 -35 84 40 29 26 -19 50 -32
54 -28 14 14 4 39 -31 75 -39 40 -39 66 0 31 35 -31 46 -35 40 -15 -2 10 3 24
12 32 14 11 17 9 28 -19 13 -37 20 -38 48 -10 13 13 18 27 14 40 -4 11 -2 19
6 19 7 0 8 4 2 13 -5 6 -15 32 -22 57 -7 25 -28 71 -47 103 -21 37 -34 72 -34
94 0 23 -13 57 -37 97 -52 87 -59 94 -119 106 -36 8 -63 20 -79 38 l-24 26
-19 -45 c-11 -25 -37 -60 -58 -78 l-38 -34 -49 54 c-27 30 -59 72 -71 94 -13
22 -46 81 -74 131 -29 50 -52 97 -52 105 0 7 9 23 21 35 25 26 69 143 69 182
0 16 -19 57 -45 96 -38 58 -45 77 -45 117 0 44 3 50 30 64 19 10 32 27 39 52
6 20 23 49 38 65 l28 29 -24 45 c-29 54 -62 66 -95 35 -27 -26 -40 -26 -80 -2
-17 10 -51 21 -75 25 -24 4 -55 13 -71 21 -19 10 -30 11 -38 3 -17 -17 -60 16
-84 67 -20 40 -24 43 -50 38 -21 -4 -38 0 -59 16 -16 12 -43 24 -60 28 -17 3
-33 12 -36 19 -2 7 3 40 13 74 14 50 15 68 5 99 -21 70 -15 97 28 132 l40 31
-40 50 c-49 62 -50 92 -6 118 58 34 60 38 37 76 l-22 34 -4 1322 c-3 728 -7
1333 -9 1344 -3 13 -18 27 -37 35 -49 20 -124 95 -175 174 -25 38 -64 90 -87
115 -24 25 -60 66 -81 93 -21 26 -68 70 -105 97 -38 27 -83 68 -102 91 -23 29
-57 53 -112 80 -71 35 -88 39 -155 39 -42 0 -83 -5 -91 -10 -10 -6 -17 -33
-20 -87 l-5 -78 -38 -9 c-30 -8 -47 -5 -90 12 -66 28 -83 27 -132 -3 -22 -14
-50 -25 -62 -25 -16 0 -23 -6 -23 -19 0 -10 -9 -29 -19 -42 -17 -21 -30 -25
-108 -29 -78 -5 -100 -11 -174 -46 -46 -23 -108 -58 -138 -78 l-53 -36 -39 35
c-22 19 -47 35 -57 35 -10 0 -31 13 -47 30 -16 16 -51 43 -79 60 l-51 31 -3
154 c-2 126 0 160 13 185 27 52 17 74 -35 81 -25 3 -75 18 -113 33 -37 14 -85
26 -106 26 l-39 0 -290 -417z"/>
<path d="M7260 6014 c0 -6 7 -19 16 -30 14 -18 14 -18 3 6 -14 31 -19 36 -19
24z"/>
<path d="M6274 3105 c-3 -8 -15 -17 -26 -21 -16 -5 -19 -12 -14 -38 5 -28 3
-34 -18 -44 -23 -10 -73 -96 -68 -119 1 -6 -7 -27 -18 -45 -20 -34 -20 -35 -1
-52 11 -10 17 -25 14 -36 -7 -27 65 -104 83 -89 11 9 15 7 20 -5 10 -25 53
-20 66 9 9 20 7 29 -8 52 -13 19 -19 49 -20 98 -1 39 -4 81 -6 95 -2 19 1 25
17 25 17 0 20 -8 23 -50 1 -27 4 -64 7 -81 l5 -31 68 13 c54 10 72 19 95 45
25 27 28 37 23 71 -9 57 -30 91 -76 128 -28 22 -40 39 -40 57 0 24 -2 25 -39
19 -23 -3 -42 -2 -46 4 -9 15 -35 12 -41 -5z"/>
<path d="M5337 2983 c-4 -3 -7 -21 -7 -39 0 -18 -4 -35 -9 -38 -10 -6 -3 -46
8 -46 11 1 41 76 41 103 0 25 -18 36 -33 20z"/>
<path d="M5961 2939 c-6 -18 -11 -39 -11 -48 1 -20 70 -55 70 -35 0 7 -4 15
-9 18 -5 3 -12 26 -15 51 -8 53 -20 57 -35 14z"/>
<path d="M5295 2797 c-10 -14 -11 -25 -5 -31 6 -6 10 -26 11 -45 0 -33 2 -31
19 24 11 33 20 61 20 61 0 1 -7 4 -15 8 -8 3 -21 -4 -30 -17z"/>
<path d="M5686 2709 c-11 -18 -16 -40 -12 -54 5 -19 2 -24 -16 -27 -19 -3 -22
-9 -22 -54 0 -44 5 -57 32 -89 l33 -37 44 41 c25 23 39 41 31 41 -18 0 -46 33
-46 54 0 14 5 16 18 10 19 -8 49 -10 71 -3 8 2 20 -7 28 -21 12 -24 13 -24 13
-3 0 29 -30 44 -72 36 l-33 -6 29 24 c25 22 27 28 17 47 -9 18 -80 72 -94 72
-1 0 -11 -14 -21 -31z"/>
<path d="M5422 2519 c-35 -13 -110 -69 -117 -87 -5 -13 -3 -13 13 1 21 19 57
24 46 6 -15 -24 20 -27 38 -3 21 26 47 31 67 12 12 -11 13 -9 6 7 -4 11 -10
30 -12 43 -7 29 -13 32 -41 21z"/>
<path d="M6112 2508 c-23 -23 -23 -23 -38 -3 -14 19 -15 18 -47 -13 l-32 -33
29 11 c25 9 31 7 52 -15 28 -30 47 -32 74 -5 24 24 25 32 3 59 l-18 22 -23
-23z"/>
<path d="M5411 2373 l-13 -28 -11 23 c-13 29 -45 29 -53 -2 -4 -16 4 -39 25
-73 17 -28 31 -63 32 -79 0 -16 3 -23 6 -16 3 8 16 11 37 6 28 -5 37 -1 64 31
39 44 42 82 7 95 -15 6 -25 17 -25 29 0 14 -5 19 -15 14 -9 -3 -21 2 -28 12
-12 15 -14 14 -26 -12z"/>
<path d="M5769 2303 c-19 -5 -29 -44 -29 -108 0 -40 1 -42 30 -41 27 1 30 5
40 49 5 26 10 61 10 77 0 30 -9 34 -51 23z"/>
<path d="M4242 1835 c0 -22 3 -49 8 -60 7 -16 9 -13 8 15 0 19 -4 46 -8 60 -7
21 -8 19 -8 -15z"/>
</g>
</svg>
