<?xml version="1.0" standalone="no"?>
<!DOCTYPE svg PUBLIC "-//W3C//DTD SVG 20010904//EN"
 "http://www.w3.org/TR/2001/REC-SVG-20010904/DTD/svg10.dtd">
<svg version="1.0" xmlns="http://www.w3.org/2000/svg"
 width="1024.000000pt" height="1024.000000pt" viewBox="0 0 1024.000000 1024.000000"
 preserveAspectRatio="xMidYMid meet">
<metadata>
Created by potrace 1.10, written by Peter Selinger 2001-2011
</metadata>
<g transform="translate(0.000000,1024.000000) scale(0.100000,-0.100000)"
fill="#000000" stroke="none">
<path d="M7620 7807 c0 -8 27 -46 60 -85 33 -40 57 -72 53 -73 -5 0 2 -4 14
-9 14 -6 26 -24 34 -52 9 -30 35 -67 88 -124 43 -45 80 -95 86 -114 16 -53 38
-60 75 -22 24 26 32 29 36 17 4 -9 4 -19 0 -22 -4 -4 4 -12 16 -19 20 -11 24
-9 40 18 10 16 31 37 47 46 16 9 37 29 46 44 17 30 55 38 55 12 0 -8 -12 -35
-26 -60 -20 -34 -25 -52 -20 -78 5 -28 3 -36 -11 -40 -13 -4 -24 -28 -37 -78
-10 -40 -26 -92 -36 -115 -17 -40 -15 -38 65 43 45 46 85 90 88 98 3 8 22 16
43 18 34 3 41 10 98 93 34 50 66 92 70 95 5 3 14 -3 20 -13 9 -14 7 -21 -6
-31 -10 -7 -18 -18 -18 -23 0 -6 -11 -27 -25 -47 -14 -21 -21 -35 -16 -32 5 4
12 2 16 -4 3 -5 1 -10 -5 -10 -6 0 -15 -11 -20 -24 -6 -17 -24 -29 -59 -41
-59 -19 -89 -55 -47 -55 15 0 44 -17 71 -40 25 -22 50 -40 56 -40 5 0 9 -7 9
-15 0 -21 -7 -19 -63 17 -39 25 -53 29 -66 21 -10 -6 -29 -9 -44 -6 -37 7 -64
-4 -49 -19 7 -7 12 -19 12 -27 0 -12 -3 -11 -18 2 -20 19 -42 22 -42 8 0 -5
-16 -30 -35 -56 -24 -31 -34 -53 -30 -66 5 -13 2 -17 -7 -14 -18 7 -82 -36
-86 -56 -2 -13 5 -15 45 -12 39 4 51 1 66 -15 19 -21 38 -19 136 13 22 7 23 5
17 -19 -4 -18 -2 -26 6 -26 27 0 88 -21 88 -30 0 -6 -15 -10 -34 -10 -19 0
-38 -4 -41 -10 -10 -16 -23 -12 -30 9 -4 12 -12 17 -24 14 -11 -3 -27 -1 -37
5 -27 13 -44 4 -44 -24 0 -17 -4 -22 -15 -18 -8 4 -15 14 -15 24 0 27 -13 31
-49 17 -20 -7 -31 -18 -31 -31 0 -19 0 -19 -22 1 -38 34 -64 43 -125 43 -57 0
-59 -1 -87 -42 l-29 -41 27 -24 c15 -12 35 -23 44 -23 16 -1 16 -1 0 -10 -11
-7 -26 -6 -44 1 -20 7 -30 7 -32 0 -6 -19 -32 -12 -32 9 0 27 -19 25 -53 -6
l-29 -24 21 -36 c30 -51 27 -100 -4 -57 -11 14 -15 11 -38 -27 -20 -34 -23
-48 -16 -63 15 -26 3 -34 -21 -12 -19 17 -20 17 -29 -6 -5 -13 -34 -79 -65
-147 -54 -119 -66 -162 -47 -162 5 0 11 7 15 15 3 8 10 15 16 15 16 0 24 -31
10 -40 -9 -6 -8 -14 8 -36 12 -18 27 -68 38 -128 17 -99 17 -99 35 -77 24 30
24 62 -1 111 -24 48 -14 52 24 10 30 -34 46 -32 46 6 0 13 3 24 8 24 13 0 11
55 -5 97 -13 35 -13 46 -3 58 20 24 26 18 29 -27 2 -49 16 -78 36 -78 11 0 15
13 15 55 l0 55 35 0 c41 0 45 -7 10 -20 -24 -9 -36 -40 -15 -40 20 0 9 -37
-20 -65 -16 -16 -30 -37 -30 -46 0 -16 4 -15 42 6 31 18 44 21 50 12 12 -20
89 62 86 92 -3 22 3 28 40 39 49 16 54 35 12 57 -48 25 -39 51 43 127 50 48
80 68 98 68 14 0 29 3 33 7 4 4 56 8 117 8 90 0 106 -2 92 -12 -9 -7 -26 -13
-37 -13 -11 0 -27 -7 -36 -15 -16 -14 -21 -14 -53 1 -44 21 -100 12 -134 -22
-13 -13 -30 -24 -37 -24 -22 0 -63 -38 -74 -69 -9 -27 -8 -30 11 -33 14 -2 24
-14 31 -35 6 -24 15 -33 31 -33 11 0 30 -6 40 -14 18 -13 17 -14 -12 -20 -17
-4 -42 -4 -56 -1 -33 9 -71 -11 -63 -32 9 -23 -127 -158 -150 -149 -14 5 -15
4 -4 -9 7 -8 27 -15 46 -15 26 0 39 -7 58 -33 39 -51 34 -79 -5 -31 -17 22
-32 41 -35 43 -2 2 -11 -2 -19 -9 -12 -10 -21 -10 -40 -2 -43 20 -58 6 -53
-50 3 -26 3 -48 1 -48 -16 0 -43 24 -43 37 0 14 -3 14 -12 5 -10 -10 -8 -27
11 -80 13 -37 29 -70 35 -74 14 -10 -5 -43 -25 -43 -8 0 -38 -16 -68 -35 -30
-19 -59 -34 -64 -32 -16 5 2 -47 24 -69 29 -29 39 -62 29 -103 -6 -29 -5 -36
7 -36 9 0 13 -6 9 -15 -3 -8 -1 -15 4 -15 14 0 40 55 40 83 0 37 20 85 37 91
16 7 16 -3 -3 -88 -7 -28 -7 -28 34 -21 33 5 42 3 51 -12 10 -17 10 -16 11 4
0 39 19 35 30 -7 6 -22 15 -40 20 -40 18 0 10 -29 -10 -35 -11 -3 -27 -13 -35
-22 -14 -14 -18 -14 -34 1 -20 18 -41 21 -41 5 0 -5 -5 -7 -11 -4 -7 5 -8 -5
-4 -29 7 -35 -1 -46 -21 -26 -7 7 -19 6 -37 -2 -27 -13 -45 -38 -27 -38 13 0
13 -42 0 -76 -9 -24 -9 -26 5 -14 14 12 15 9 9 -28 -6 -37 -4 -41 24 -56 29
-15 30 -15 72 24 28 26 41 46 40 62 -1 13 -2 28 -1 33 2 14 30 -37 31 -55 0
-15 -146 -168 -153 -159 -1 2 -23 28 -47 58 -30 37 -45 64 -47 89 -3 43 -7 47
-46 47 -24 0 -32 5 -35 20 -4 22 -30 55 -44 55 -4 0 -8 -8 -8 -18 0 -23 -19
-42 -42 -42 -10 0 -18 -7 -18 -17 0 -10 -13 -45 -28 -78 -16 -33 -27 -66 -24
-73 2 -7 -3 -19 -11 -25 -19 -15 -36 -214 -18 -203 6 4 11 2 11 -5 0 -7 2 -10
5 -8 2 3 -1 19 -7 36 -10 26 -8 35 11 67 13 20 20 44 17 52 -3 9 -3 21 1 27 5
7 8 27 8 45 0 29 6 37 38 55 32 19 39 20 47 7 7 -11 10 -7 10 18 0 30 2 32 27
29 24 -3 29 -10 36 -46 7 -36 11 -41 28 -36 15 5 22 0 30 -23 6 -17 28 -42 50
-56 49 -33 53 -58 7 -49 -18 3 -40 10 -50 14 -13 7 -15 5 -11 -11 3 -11 0 -20
-6 -20 -6 0 -11 -8 -11 -19 0 -14 6 -17 24 -14 27 5 44 -13 28 -29 -8 -8 -6
-20 5 -42 l16 -31 19 45 c29 70 34 75 64 73 25 -2 31 3 46 37 9 22 23 40 31
40 9 0 17 14 21 35 6 29 11 35 33 35 25 0 25 -1 10 -18 -25 -27 -22 -62 5 -62
29 0 14 -13 -30 -25 -39 -11 -59 -46 -25 -43 10 0 27 0 38 -1 20 -2 20 -2 1
-16 -11 -8 -28 -15 -38 -15 -11 0 -18 -7 -18 -20 0 -21 -33 -29 -45 -10 -10
16 -45 -8 -45 -31 0 -53 35 -73 77 -44 35 25 36 -1 1 -29 -32 -25 -32 -25 -13
-46 14 -16 28 -21 52 -18 30 4 33 1 33 -22 0 -24 3 -26 29 -22 29 4 41 -3 101
-61 17 -16 31 -23 35 -17 3 5 15 10 26 10 19 0 19 -1 5 -16 -15 -15 -21 -34
-11 -34 2 0 15 10 28 23 14 12 35 29 47 38 20 13 21 18 10 38 -11 21 -8 27 24
60 19 20 41 51 47 70 11 31 10 35 -19 62 -17 16 -36 29 -42 29 -6 0 -16 12
-22 28 -7 15 -18 35 -26 44 -8 9 -12 22 -11 27 6 18 119 -77 119 -99 0 -12 7
-20 18 -20 36 0 45 -15 30 -46 -8 -16 -13 -36 -11 -45 2 -8 -7 -31 -20 -50
-13 -19 -27 -57 -30 -84 -8 -57 -13 -64 -81 -109 -83 -55 -94 -55 -155 0 l-53
48 -20 -24 -19 -23 -31 37 c-25 31 -35 36 -55 31 -31 -7 -53 10 -53 40 0 55
-10 59 -50 20 -37 -36 -39 -37 -73 -24 -20 7 -38 21 -41 33 -5 18 -7 18 -33
-10 -16 -16 -25 -33 -21 -39 15 -17 8 -42 -17 -69 -22 -24 -28 -26 -42 -14
-15 12 -15 11 -5 -9 18 -32 33 -38 39 -14 8 31 33 26 33 -6 l0 -28 19 25 19
25 7 -28 c10 -37 35 -35 35 3 0 21 4 28 14 24 8 -3 17 -1 21 5 11 19 28 12 22
-9 -7 -27 29 -28 38 -1 6 19 33 36 43 26 3 -2 0 -10 -6 -18 -6 -7 -9 -22 -6
-33 4 -17 -1 -22 -33 -30 -28 -7 -38 -14 -38 -29 0 -13 8 -21 23 -23 12 -2 22
-7 22 -12 0 -16 -34 -29 -51 -19 -14 7 -16 5 -12 -10 7 -29 -18 -37 -38 -13
l-17 21 -7 -22 c-6 -19 -8 -19 -12 -4 -8 29 -20 19 -32 -28 -7 -27 -17 -45
-25 -45 -8 0 -24 -12 -36 -27 l-21 -28 4 36 5 36 -44 -1 c-67 -2 -67 -23 -1
-148 31 -57 61 -124 67 -149 8 -30 28 -65 58 -99 35 -40 48 -65 54 -99 4 -28
5 -14 1 34 -10 150 -10 150 12 150 15 0 21 -8 23 -32 2 -20 8 -30 15 -27 7 2
26 -14 42 -37 17 -22 40 -50 53 -62 12 -11 22 -31 22 -44 0 -16 8 -27 26 -33
23 -9 26 -15 21 -45 -4 -26 -2 -35 9 -35 8 0 14 6 14 14 0 19 27 46 46 46 11
0 13 -6 9 -19 -4 -15 4 -29 32 -55 l38 -36 -25 -20 c-16 -13 -20 -20 -10 -20
8 0 33 -20 56 -45 49 -54 75 -61 45 -11 -26 42 -26 46 0 46 18 0 20 4 16 28
-3 16 0 33 10 44 13 15 11 20 -22 56 l-36 40 42 34 c50 41 69 75 69 128 0 22
5 40 10 40 29 0 80 -32 94 -59 36 -68 8 -121 -70 -136 -33 -6 -35 -8 -21 -23
8 -9 26 -38 39 -64 26 -50 86 -123 94 -115 3 2 0 16 -7 30 -9 20 -8 30 5 48
10 15 16 44 16 76 0 44 4 57 24 74 14 12 30 34 36 49 10 25 46 50 93 64 12 4
17 16 17 39 0 18 7 42 15 53 8 10 15 32 15 47 0 34 16 67 33 67 7 0 18 4 26 9
11 7 9 14 -9 39 -19 26 -21 34 -10 47 7 8 19 15 27 15 11 0 13 7 9 25 -8 31
18 59 91 99 43 24 52 34 55 60 2 23 8 32 26 34 29 4 29 -15 -1 -59 -22 -33
-51 -56 -116 -91 -28 -15 -30 -20 -19 -37 11 -18 9 -24 -15 -48 -25 -27 -26
-29 -8 -40 27 -17 15 -53 -21 -67 -36 -13 -46 -48 -24 -81 23 -35 20 -45 -14
-45 -29 0 -40 -13 -20 -25 22 -14 7 -55 -45 -125 -31 -42 -57 -88 -61 -109 -4
-20 -13 -44 -21 -53 -18 -20 -11 -62 16 -97 18 -23 19 -24 29 -5 26 45 28 47
49 33 17 -10 25 -8 51 11 23 17 38 21 63 16 18 -3 38 -1 45 5 11 9 14 7 14 -8
0 -17 -11 -22 -58 -32 -56 -11 -82 -25 -82 -44 0 -4 20 -5 45 -1 32 4 45 3 45
-6 0 -21 -20 -50 -35 -50 -8 0 -35 -16 -61 -35 -48 -37 -70 -43 -77 -22 -5 17
-116 -21 -131 -46 -9 -14 -6 -22 19 -42 l30 -25 -32 6 c-30 6 -32 4 -39 -30
-8 -43 -2 -51 35 -51 26 0 27 1 15 21 -8 11 -11 24 -7 27 11 11 61 8 65 -4 3
-9 9 -9 25 0 22 11 53 6 53 -10 0 -5 9 -9 20 -9 16 0 20 7 20 30 0 29 13 40
25 20 3 -5 21 -10 40 -10 19 0 40 -6 47 -14 11 -11 18 -10 42 11 30 25 66 28
74 5 2 -7 -2 -10 -12 -6 -16 6 -46 -11 -46 -27 0 -4 9 -11 21 -14 33 -11 8
-27 -46 -30 -25 -2 -49 -6 -52 -9 -3 -3 -12 -1 -18 4 -15 13 -28 -40 -19 -76
5 -19 2 -24 -14 -24 -14 0 -22 8 -24 23 -3 22 -3 22 -21 -5 -16 -22 -16 -30
-5 -48 10 -18 10 -24 1 -27 -7 -3 -13 -11 -13 -19 0 -13 3 -13 22 0 26 19 61
20 91 5 18 -10 24 -8 47 17 14 16 33 40 43 54 16 23 17 23 37 5 28 -25 25 -37
-7 -29 -26 7 -27 6 -13 -11 13 -16 11 -21 -35 -61 -27 -24 -58 -47 -67 -50
-10 -3 -18 -11 -18 -18 0 -7 -16 -20 -35 -29 -34 -16 -35 -16 -35 3 0 11 -7
20 -15 20 -10 0 -15 -10 -15 -27 0 -16 -11 -48 -25 -72 -27 -46 -31 -66 -15
-76 5 -3 16 10 24 30 23 55 40 45 31 -20 -6 -47 -4 -54 9 -49 9 3 16 2 16 -4
0 -16 -28 -34 -61 -41 -43 -9 -56 -44 -28 -72 29 -29 63 -21 69 16 3 18 11 30
20 30 9 0 14 -7 12 -19 -3 -18 -1 -17 21 4 19 19 24 31 20 52 -4 20 -1 29 12
34 10 4 21 1 26 -7 7 -11 12 -10 24 9 13 18 26 22 66 22 46 0 49 2 49 25 0 33
16 32 33 -1 l14 -27 7 27 c7 30 31 35 38 8 3 -11 27 -26 61 -39 55 -20 57 -20
73 -2 9 11 23 19 31 19 7 0 13 11 13 25 0 13 8 28 18 33 15 8 227 32 422 48
148 11 150 12 150 46 0 27 3 30 24 26 22 -4 25 -1 31 34 5 30 3 44 -10 58 -16
18 -15 21 31 70 44 47 52 51 86 48 l38 -4 0 41 c0 26 13 67 36 115 19 41 40
97 45 124 13 72 42 111 102 140 l52 24 3 -43 3 -44 33 20 c26 15 42 38 67 96
18 42 53 102 76 134 52 69 59 119 18 137 -35 16 -35 16 -35 -15 l0 -27 -22 21
c-21 22 -21 23 -3 43 12 14 14 20 5 20 -9 0 -8 6 4 19 17 19 17 21 -7 45 -14
13 -42 28 -63 31 -64 11 -68 13 -54 30 16 20 35 19 98 -5 52 -20 92 -26 92
-13 0 3 -7 14 -16 24 -9 10 -22 35 -29 56 l-13 38 -144 2 c-78 1 -376 10 -660
19 l-517 18 -5 50 c-17 149 -226 3511 -226 3619 l0 127 -500 0 c-412 0 -500
-2 -500 -13z"/>
<path d="M16 7483 c-14 -723 -19 -1201 -12 -1212 12 -18 107 43 142 91 17 24
55 62 85 86 30 24 76 61 103 82 31 26 58 40 77 40 24 0 33 8 54 48 48 89 83
130 123 142 20 7 51 26 68 42 18 17 34 25 38 20 4 -7 15 -6 30 1 19 9 23 17
19 37 -3 18 2 31 16 44 20 18 20 18 27 -9 8 -33 23 -21 33 27 5 24 13 34 29
36 14 2 22 10 22 23 0 10 5 19 11 19 8 0 8 4 0 14 -8 9 -8 22 -2 38 7 19 19
27 52 32 25 4 46 3 52 -3 7 -7 17 -5 29 6 17 16 19 15 33 -4 8 -11 26 -24 40
-27 14 -4 48 -20 75 -37 49 -30 77 -31 66 -2 -4 9 6 30 24 49 16 19 30 39 30
44 0 6 8 10 19 10 22 0 36 15 46 50 14 48 34 71 54 61 15 -8 21 -3 38 32 28
59 71 107 94 107 20 0 26 15 9 25 -18 11 -10 44 19 77 15 18 31 50 35 70 8 43
29 68 58 68 17 0 19 -4 14 -27 -15 -63 -16 -62 50 -48 27 6 33 4 39 -15 8 -26
-28 -70 -57 -70 -22 0 -23 -13 -4 -29 11 -9 20 -9 35 -2 27 15 31 14 31 -10 0
-23 54 -79 76 -79 8 0 14 -5 14 -11 0 -21 75 -43 153 -44 70 -1 80 -4 107 -30
29 -28 32 -28 80 -19 37 8 57 7 81 -3 17 -7 46 -13 63 -13 27 0 35 6 49 36 13
27 15 39 6 50 -20 25 1 37 26 14 l22 -21 6 21 c4 16 -4 30 -30 54 -25 22 -34
38 -30 49 8 22 58 22 98 1 40 -20 52 -8 17 17 -25 18 -58 70 -58 91 0 16 72 8
101 -13 28 -20 40 -14 17 9 -18 18 10 45 39 37 17 -4 23 -1 23 10 0 28 26 27
106 -4 44 -17 86 -31 94 -31 9 0 24 16 35 36 11 20 30 43 43 52 18 12 22 21
17 43 -6 24 -3 28 27 34 18 4 47 20 64 37 l31 29 73 -17 c40 -9 85 -21 99 -28
45 -20 121 -68 121 -76 0 -5 27 -45 61 -89 65 -87 85 -96 139 -66 30 16 50 4
50 -31 0 -12 5 -26 10 -29 16 -10 23 22 12 55 -14 38 2 49 31 22 17 -15 76
-42 93 -42 1 0 0 9 -3 20 -8 29 19 34 79 14 62 -20 68 -26 68 -80 0 -55 -31
-84 -88 -84 l-41 0 24 -36 c14 -20 25 -45 25 -55 0 -30 19 -32 43 -3 16 18 30
25 40 21 26 -10 20 -49 -10 -74 -24 -19 -26 -24 -13 -33 8 -6 35 -8 60 -6 25
3 58 6 74 8 40 4 44 -18 7 -39 -33 -19 -41 -47 -16 -57 22 -8 18 -26 -5 -26
-23 0 -24 -4 -9 -31 8 -17 7 -23 -8 -35 -16 -12 -13 -13 29 -14 52 0 77 -22
98 -86 10 -30 9 -38 -6 -55 -16 -17 -16 -24 -5 -54 11 -31 10 -38 -8 -64 l-20
-28 25 -12 c14 -6 57 -14 97 -17 48 -4 90 -14 126 -32 41 -19 73 -27 124 -29
l70 -2 19 -43 c28 -63 53 -84 129 -113 67 -26 119 -70 119 -100 0 -8 -8 -20
-18 -27 -10 -7 -22 -25 -25 -40 -9 -35 -33 -58 -61 -58 -13 0 -31 -9 -41 -20
-25 -28 -14 -128 16 -150 27 -19 78 -70 104 -104 28 -38 89 -55 213 -62 103
-5 192 -26 192 -45 0 -5 25 -25 55 -45 58 -39 62 -48 43 -101 -11 -29 -10 -35
11 -57 26 -28 89 -46 159 -46 60 0 95 -24 112 -76 l12 -36 91 97 90 97 154
-154 c84 -84 153 -157 153 -161 0 -5 -58 -70 -129 -144 -110 -114 -128 -138
-119 -153 9 -13 6 -23 -12 -47 -18 -25 -20 -35 -11 -51 6 -11 20 -24 31 -27
26 -8 25 -22 -2 -31 -31 -9 -38 -22 -38 -69 0 -36 3 -42 33 -54 l32 -13 -33
-11 c-22 -7 -40 -7 -55 0 -33 15 -110 -10 -141 -48 -30 -36 -30 -35 -12 -86 9
-25 11 -45 5 -55 -12 -22 -104 -78 -141 -85 -20 -4 -40 -20 -59 -46 -41 -57
-36 -63 17 -22 44 33 70 45 62 28 -38 -81 -51 -90 -143 -111 -23 -5 -30 -12
-30 -32 0 -16 -8 -29 -24 -37 -14 -6 -33 -27 -42 -45 -21 -41 -35 -108 -22
-108 5 0 9 -17 9 -37 0 -21 7 -53 14 -71 12 -27 12 -36 2 -53 -26 -42 9 -120
72 -158 48 -30 66 -27 135 24 61 45 83 79 97 149 6 32 4 35 -23 38 -36 4 -42
37 -12 64 22 19 22 19 17 -3 -7 -26 12 -30 57 -13 37 14 49 3 31 -26 -20 -29
-22 -114 -3 -114 7 0 36 24 65 53 38 38 49 56 41 64 -8 8 -8 13 0 17 6 4 11
19 11 33 0 32 37 93 56 93 17 0 17 -13 0 -60 -12 -33 -10 -40 40 -143 30 -60
56 -125 59 -145 16 -104 41 -141 86 -129 13 3 19 0 19 -10 0 -8 19 -33 43 -55
32 -30 37 -38 20 -33 -19 5 -23 2 -23 -14 0 -13 10 -23 34 -31 19 -6 59 -28
89 -50 44 -30 57 -35 61 -23 10 25 7 46 -10 64 -9 10 -20 37 -25 61 -6 23 -17
51 -26 60 -15 16 -15 21 2 58 23 51 14 62 -71 90 -35 12 -64 25 -64 30 0 14
69 21 109 10 26 -7 52 -24 73 -49 27 -32 38 -38 59 -34 42 8 42 -12 1 -43 -20
-15 -39 -29 -41 -30 -2 -2 6 -15 18 -30 11 -15 21 -35 21 -46 0 -10 9 -36 20
-58 11 -22 20 -54 20 -72 0 -26 6 -37 30 -50 18 -10 30 -25 30 -37 0 -21 27
-41 54 -41 9 0 22 20 33 50 12 34 23 50 35 50 14 0 16 6 11 33 -3 17 -10 40
-14 49 -12 23 -11 78 1 78 5 0 19 -13 31 -30 30 -40 34 -123 8 -167 -15 -27
-16 -33 -4 -33 8 0 19 17 25 39 9 36 13 39 55 46 33 4 54 16 79 41 28 28 35
32 40 18 3 -8 3 -21 -1 -28 -22 -37 -66 -78 -93 -87 -16 -6 -30 -15 -30 -19 0
-5 35 -16 78 -26 93 -20 161 -53 195 -94 14 -16 32 -30 39 -30 30 -1 41 -16
28 -40 -9 -17 -10 -32 -1 -60 9 -32 15 -37 40 -36 l29 1 -19 27 c-42 58 -14
65 31 8 34 -42 70 -54 70 -21 0 10 6 24 14 30 8 7 12 21 8 33 -3 14 1 26 13
35 18 12 17 15 -18 47 -33 30 -49 66 -29 66 4 0 31 -14 60 -30 45 -26 52 -34
47 -55 -3 -14 -7 -37 -10 -51 -5 -22 -3 -25 15 -19 27 9 25 -9 -4 -32 l-24
-18 21 -55 c16 -42 22 -50 25 -32 2 12 6 22 9 22 14 0 41 -33 37 -44 -3 -7 14
-32 36 -56 22 -24 43 -55 46 -67 4 -14 22 -32 45 -43 47 -24 52 -25 41 -2 -5
9 -13 44 -16 77 -10 86 -14 97 -36 90 -26 -8 -30 5 -13 45 l14 35 13 -24 13
-24 18 27 c22 33 18 43 -57 147 -69 96 -96 154 -104 221 -6 49 -4 57 22 87 27
32 27 34 9 47 -26 20 -40 18 -85 -12 -50 -33 -78 -27 -116 23 -15 21 -34 42
-41 46 -7 4 -13 14 -13 21 0 8 -7 16 -15 20 -13 5 -13 9 -3 26 11 17 7 25 -37
70 -35 36 -63 54 -99 65 -37 10 -72 33 -126 80 -41 37 -78 74 -81 83 -4 9 -16
26 -28 36 -16 14 -18 22 -10 32 15 18 3 34 -27 34 -26 0 -31 9 -12 28 9 9 7
12 -10 12 -27 0 -28 10 -2 43 27 33 25 49 -7 88 l-27 32 27 -5 c25 -5 26 -3
19 21 -12 42 -8 133 7 168 21 52 34 29 26 -49 -7 -65 -6 -70 14 -75 24 -6 25
-12 9 -47 -9 -21 -8 -29 5 -44 21 -23 22 -46 2 -62 -10 -8 -13 -21 -9 -34 10
-32 63 -106 76 -106 7 0 22 -9 34 -21 l22 -21 7 21 c3 12 11 21 16 21 12 0 12
-27 -1 -35 -6 -3 -10 -17 -10 -31 0 -20 9 -29 44 -44 24 -10 50 -27 57 -37 17
-22 40 -28 49 -13 8 12 27 -3 54 -42 17 -25 46 -18 46 11 0 11 4 23 10 26 16
10 12 -38 -5 -62 -10 -14 -12 -24 -5 -28 21 -13 52 -88 48 -117 -6 -35 19 -52
60 -44 15 3 33 2 41 -3 11 -7 22 3 47 42 36 60 51 135 28 144 -8 3 -33 33 -56
66 -23 33 -71 96 -107 140 -126 151 -121 137 -121 315 0 128 -4 167 -21 226
-17 56 -20 89 -17 162 l4 92 -33 17 c-21 12 -33 26 -33 39 0 12 -3 38 -6 59
-6 33 -4 37 14 37 30 0 108 92 127 151 10 28 15 52 13 55 -3 2 -19 7 -36 10
-29 6 -32 4 -32 -20 0 -14 -3 -26 -7 -26 -21 1 -30 19 -29 60 1 35 5 46 19 48
28 6 13 27 -17 24 -30 -3 -32 0 -10 33 21 32 30 31 61 -6 26 -30 26 -30 45
-11 26 25 16 76 -13 67 -15 -5 -19 -1 -19 17 0 38 -23 62 -53 56 -29 -6 -34 1
-16 19 8 8 4 16 -15 28 -25 16 -28 16 -45 1 -23 -21 -31 -20 -31 5 0 11 -13
32 -30 46 -16 13 -30 34 -30 46 0 19 2 19 30 -8 27 -25 30 -27 30 -9 1 16 3
14 15 -8 17 -31 44 -42 84 -33 26 6 29 4 24 -15 -4 -14 -1 -19 8 -15 8 3 21
-8 32 -26 14 -25 22 -30 42 -27 18 4 26 0 30 -13 8 -24 27 -15 50 23 18 30 17
31 -1 44 -37 26 -44 35 -44 61 0 19 -17 44 -62 89 -35 34 -71 71 -80 83 -11
13 -29 21 -48 21 -22 0 -30 5 -30 18 0 10 5 23 12 30 20 20 -6 58 -49 72 -40
13 -60 26 -52 35 6 5 147 -51 166 -67 7 -6 13 -21 13 -34 0 -13 4 -24 9 -24 5
0 12 -14 16 -30 4 -20 20 -39 44 -56 21 -13 47 -38 60 -54 25 -35 69 -44 51
-11 -15 28 -13 32 14 25 16 -4 25 -1 29 11 6 14 9 14 33 -1 25 -17 27 -17 45
7 10 13 19 29 19 35 1 34 -198 157 -254 157 -27 0 -46 21 -46 52 0 16 2 16 25
1 33 -22 73 -20 113 4 18 11 44 20 58 20 22 0 25 3 20 23 -3 12 -6 32 -6 44 0
17 -4 21 -16 16 -14 -5 -16 -1 -12 20 4 20 -3 34 -33 63 l-39 38 -30 -22 c-39
-29 -52 -29 -40 3 12 32 -2 40 -26 14 -10 -12 -27 -25 -37 -31 -17 -8 -18 -7
-12 14 4 12 16 30 26 38 18 14 18 17 5 35 -9 11 -16 32 -16 46 0 32 -15 45
-57 51 -30 4 -31 3 -26 -27 4 -28 -27 -115 -41 -115 -5 0 3 145 10 178 4 18 9
22 24 17 24 -7 26 11 6 38 -11 14 -22 16 -53 11 -33 -5 -44 -2 -68 18 -22 19
-26 28 -18 42 9 16 10 15 27 -3 16 -18 19 -18 49 -2 l32 16 -27 3 c-14 2 -29
10 -32 18 -4 11 4 14 35 14 36 0 41 -3 50 -30 6 -16 17 -30 24 -30 7 0 25 -12
40 -27 15 -16 37 -29 48 -29 12 -1 23 -7 25 -14 3 -7 17 1 38 21 l34 33 -9
-29 c-5 -17 -12 -49 -15 -71 l-6 -42 35 0 c30 0 35 3 35 24 0 20 5 24 31 24
32 0 32 -3 11 -59 -7 -18 20 -2 68 39 28 25 31 30 14 30 -27 0 -94 57 -94 81
0 34 -28 76 -75 114 -57 48 -48 63 16 28 64 -34 99 -70 99 -99 0 -16 10 -28
30 -39 37 -19 40 -19 40 6 0 23 18 60 34 71 7 5 5 8 -6 8 -16 0 -98 85 -98
101 0 13 24 11 38 -3 9 -9 15 -8 26 7 13 18 14 18 20 -3 5 -15 15 -22 32 -22
14 0 22 -4 19 -10 -3 -5 -1 -10 4 -10 19 0 12 29 -9 40 -29 15 -25 28 7 22 26
-5 26 -5 10 19 -21 29 -21 39 -2 39 8 0 15 7 15 15 0 19 9 19 34 0 30 -22 36
-18 21 13 -9 16 -11 28 -5 30 16 6 12 29 -6 36 -8 3 -32 3 -52 0 -25 -4 -43 0
-57 10 -19 15 -19 15 8 16 15 0 41 10 57 21 31 24 59 22 124 -5 39 -16 46 -38
21 -73 -14 -19 -13 -22 16 -33 27 -12 29 -15 15 -28 -13 -14 -13 -18 0 -45 9
-16 14 -40 11 -53 -2 -13 -1 -24 2 -24 7 1 62 111 61 125 0 5 -14 23 -31 41
l-30 31 22 38 c19 31 20 41 10 57 -7 11 -11 21 -9 21 35 17 43 28 46 61 3 34
2 36 -27 36 -16 0 -32 4 -36 9 -8 13 16 26 42 22 17 -2 26 5 33 23 8 22 56 53
66 43 2 -1 -4 -24 -14 -49 -15 -44 -15 -48 1 -66 18 -19 17 -22 -18 -92 -27
-54 -33 -75 -24 -80 6 -5 9 -15 6 -23 -6 -17 22 -47 44 -47 21 0 83 66 75 79
-9 14 -63 14 -72 0 -4 -8 -9 -7 -15 2 -25 40 9 57 66 33 l39 -16 25 30 c15 17
52 47 83 66 77 48 100 95 82 164 -5 16 -12 21 -25 17 -13 -4 -22 2 -33 24 -23
44 -21 65 4 51 17 -9 21 -7 26 7 19 55 44 103 53 103 24 0 8 32 -65 131 -42
57 -84 123 -94 145 -10 24 -58 81 -110 134 -67 67 -90 98 -87 111 5 19 -83 19
-3767 19 l-3773 0 -7 -327z"/>
<path d="M7282 6408 c-23 -14 -30 -24 -23 -31 15 -15 61 11 61 35 0 22 2 22
-38 -4z"/>
<path d="M7105 5900 c-7 -11 12 -50 24 -50 15 0 22 32 10 46 -13 16 -25 18
-34 4z"/>
<path d="M7603 5782 c-43 -7 -25 -82 19 -82 14 0 18 8 18 39 0 44 -4 49 -37
43z"/>
<path d="M7407 5740 c-3 -8 -8 -34 -10 -58 -3 -26 -21 -68 -47 -110 -45 -71
-63 -148 -58 -247 1 -27 -1 -66 -6 -85 -7 -29 -6 -33 5 -22 7 6 23 12 36 12
27 0 30 28 12 94 -9 34 -8 42 9 65 11 14 25 25 31 24 20 -5 12 40 -11 65 l-23
25 23 -6 c18 -4 22 -1 22 19 0 13 4 24 9 24 18 0 33 -31 29 -63 l-4 -33 40 19
c36 17 41 18 51 3 7 -9 15 -13 18 -9 12 11 8 41 -5 46 -16 5 19 47 39 47 8 0
11 5 8 10 -4 6 -12 9 -19 8 -7 -2 -29 6 -50 17 -41 21 -75 75 -86 135 -4 21
-9 29 -13 20z"/>
<path d="M7785 5341 c-17 -3 -31 -14 -33 -24 -3 -13 4 -17 30 -19 46 -2 79 0
86 7 7 6 -34 46 -45 44 -4 -1 -21 -4 -38 -8z"/>
<path d="M7685 3508 c12 -38 22 -41 27 -9 4 25 1 31 -14 31 -15 0 -18 -5 -13
-22z"/>
<path d="M8008 3247 c11 -13 10 -17 -8 -27 -12 -6 -27 -9 -34 -7 -14 6 -38
-61 -24 -69 5 -3 17 1 27 10 24 22 27 21 40 -14 7 -20 17 -30 31 -30 17 0 19
3 10 19 -7 15 -6 23 5 35 19 18 19 33 1 43 -8 4 -15 17 -18 28 -2 11 -12 21
-23 24 -16 3 -17 1 -7 -12z"/>
<path d="M8055 3006 c-18 -13 -19 -15 -3 -33 9 -10 18 -29 20 -43 4 -30 38
-41 38 -12 0 11 -9 31 -20 45 -11 14 -17 32 -14 41 8 20 3 20 -21 2z"/>
<path d="M8051 2746 c-10 -11 -8 -16 8 -21 31 -10 71 -63 71 -96 0 -16 4 -29
8 -29 13 0 32 48 32 80 0 23 -5 31 -24 36 -14 3 -32 14 -42 25 -20 23 -37 24
-53 5z"/>
<path d="M8030 2624 c0 -39 18 -68 35 -54 19 16 77 -14 69 -35 -4 -8 -1 -15 5
-15 6 0 11 6 11 14 0 25 -35 76 -52 76 -9 0 -20 9 -23 20 -10 30 -45 26 -45
-6z"/>
<path d="M8068 2492 c-6 -41 -4 -47 11 -37 13 8 15 62 2 69 -5 3 -11 -11 -13
-32z"/>
</g>
</svg>
