<?xml version="1.0" standalone="no"?>
<!DOCTYPE svg PUBLIC "-//W3C//DTD SVG 20010904//EN"
 "http://www.w3.org/TR/2001/REC-SVG-20010904/DTD/svg10.dtd">
<svg version="1.0" xmlns="http://www.w3.org/2000/svg"
 width="1024.000000pt" height="1024.000000pt" viewBox="0 0 1024.000000 1024.000000"
 preserveAspectRatio="xMidYMid meet">
<metadata>
Created by potrace 1.10, written by Peter Selinger 2001-2011
</metadata>
<g transform="translate(0.000000,1024.000000) scale(0.100000,-0.100000)"
fill="#000000" stroke="none">
<path d="M7281 10158 c-17 -46 -35 -91 -39 -100 -4 -9 -39 -46 -79 -82 -84
-75 -103 -80 -294 -74 -109 3 -117 5 -190 42 l-76 38 -46 -20 c-40 -18 -50
-28 -72 -77 -21 -48 -31 -59 -65 -72 -39 -15 -40 -18 -40 -62 0 -82 -5 -89
-80 -111 -38 -11 -93 -25 -122 -31 -51 -10 -58 -9 -109 16 -30 15 -76 49 -104
74 -27 26 -78 67 -113 91 -48 34 -75 63 -112 122 -55 86 -71 97 -266 178 -54
22 -102 44 -106 48 -4 4 -30 5 -57 4 l-51 -4 0 -61 c0 -52 -4 -65 -26 -88
l-27 -28 41 -83 c55 -111 87 -269 78 -383 -5 -77 -7 -81 -42 -110 -21 -16 -53
-34 -72 -40 -30 -9 -37 -18 -59 -75 -13 -36 -30 -95 -37 -131 -7 -37 -20 -77
-29 -89 -15 -21 -14 -26 4 -61 17 -35 19 -60 19 -301 l0 -263 -31 -77 c-29
-72 -35 -79 -87 -110 -53 -32 -57 -37 -75 -98 -11 -36 -23 -68 -28 -71 -5 -3
-38 -11 -73 -18 -38 -8 -72 -21 -82 -32 -10 -11 -30 -19 -51 -19 -26 0 -33 -4
-33 -20 0 -17 -7 -20 -39 -20 -34 0 -40 4 -51 30 -7 17 -22 35 -32 41 -32 17
-117 1 -146 -28 -13 -13 -41 -31 -63 -40 -36 -14 -39 -18 -39 -52 0 -51 -15
-67 -80 -85 -79 -22 -110 -22 -155 1 -22 11 -73 30 -113 42 l-72 22 -81 -26
c-59 -18 -102 -25 -163 -25 -128 0 -195 -16 -236 -55 -74 -70 -134 -81 -203
-38 -23 14 -75 41 -115 60 -90 41 -142 42 -281 9 -55 -13 -124 -27 -155 -31
l-55 -7 -11 -49 c-10 -42 -16 -49 -36 -49 -36 0 -64 63 -64 144 0 48 -7 81
-25 122 -29 65 -32 134 -10 187 21 52 19 60 -21 82 l-36 19 33 26 32 27 -42
17 c-57 22 -83 79 -80 174 l3 67 -37 3 c-33 3 -41 10 -71 56 -18 29 -52 67
-75 85 l-42 34 -82 -22 c-106 -28 -148 -27 -195 3 -36 24 -187 76 -219 76 -8
0 -31 14 -50 30 -42 37 -105 42 -125 10 -20 -32 -79 -27 -106 9 -13 18 -33 30
-54 34 -32 5 -54 -6 -244 -119 -12 -7 -26 -31 -32 -54 -11 -45 -17 -38 65 -70
l26 -11 -39 -26 c-21 -14 -43 -29 -47 -33 -4 -4 -1 -49 8 -101 8 -52 15 -108
15 -126 0 -34 -64 -151 -88 -160 -10 -4 -12 -17 -7 -54 6 -42 4 -50 -12 -56
-10 -3 -42 -25 -70 -47 l-53 -41 0 -58 c0 -101 64 -156 182 -157 55 0 58 -1
63 -27 3 -16 12 -39 20 -53 8 -14 24 -44 35 -66 20 -42 36 -54 69 -54 30 0 51
-74 41 -140 -5 -30 -9 -71 -9 -91 l-1 -36 87 -20 c83 -18 87 -21 95 -51 8 -30
12 -32 51 -32 25 0 58 -9 82 -23 36 -21 40 -27 40 -62 0 -22 -4 -64 -7 -94
l-7 -54 42 6 c42 6 42 5 86 -53 63 -83 91 -102 140 -94 39 6 40 6 56 -34 11
-26 28 -46 50 -58 29 -16 35 -25 40 -64 4 -25 13 -61 21 -81 10 -24 13 -48 9
-73 -6 -28 -3 -41 9 -55 16 -18 14 -24 -28 -105 -25 -48 -61 -107 -81 -133
-27 -36 -35 -55 -35 -88 0 -23 -7 -63 -17 -90 l-16 -49 34 -28 34 -29 -27 -49
-27 -48 25 -93 24 -92 -20 -22 c-11 -11 -25 -35 -31 -53 -10 -29 -15 -32 -50
-32 -45 0 -43 12 -28 -149 15 -166 14 -161 53 -161 18 0 80 -12 137 -26 l103
-26 38 41 39 41 92 0 93 0 42 -57 c44 -60 48 -73 32 -103 -7 -12 -6 -36 1 -72
17 -86 12 -236 -10 -272 -16 -27 -18 -52 -16 -206 2 -163 4 -180 30 -250 l28
-75 -27 -80 c-18 -57 -26 -103 -26 -152 0 -55 -7 -89 -30 -149 -16 -42 -36
-84 -45 -94 -8 -9 -27 -50 -41 -91 -22 -65 -24 -84 -18 -156 6 -75 10 -87 44
-133 21 -28 41 -67 45 -87 3 -20 31 -85 61 -145 43 -86 54 -117 54 -155 -1
-46 2 -50 55 -98 54 -48 56 -53 66 -120 10 -62 16 -74 48 -105 44 -41 51 -68
60 -220 l6 -105 63 -15 c35 -8 63 -19 63 -25 0 -5 -5 -29 -11 -51 -11 -38 -9
-47 23 -115 18 -41 52 -96 74 -122 32 -39 43 -62 53 -118 13 -66 16 -72 59
-104 25 -18 65 -53 89 -78 58 -59 76 -132 68 -269 l-6 -96 73 -39 72 -40 1
-49 c1 -85 14 -141 59 -248 28 -68 48 -134 56 -188 7 -45 26 -125 43 -178 l31
-95 152 -75 151 -75 21 -76 c12 -44 21 -106 21 -147 0 -84 -2 -83 129 -82 74
1 110 -3 155 -19 66 -23 148 -28 163 -8 6 6 13 30 17 52 11 65 16 75 37 75 10
0 47 11 82 25 l64 26 37 92 c20 51 49 107 64 125 l28 33 27 -25 c15 -14 27
-34 27 -44 0 -28 17 -38 82 -49 56 -10 58 -9 88 22 20 21 30 41 30 62 0 45 47
79 125 88 64 8 138 40 169 74 10 11 33 25 51 31 18 6 45 29 65 55 31 42 36 44
89 47 l55 3 11 45 c10 41 14 45 44 48 33 3 117 48 158 85 14 12 33 55 49 106
67 220 220 435 343 481 49 18 61 28 95 81 30 47 50 66 83 80 30 13 43 24 43
38 0 11 16 33 35 48 29 23 35 34 35 67 0 26 11 56 35 96 28 46 42 59 74 68 28
9 41 19 45 37 4 14 22 35 41 48 31 19 35 27 35 65 0 23 -4 42 -8 42 -14 0 -52
40 -52 56 0 8 11 19 25 24 21 8 24 14 19 39 -5 25 2 43 39 98 26 38 67 117 93
178 26 62 56 116 68 124 11 8 60 53 109 100 87 84 87 85 87 135 0 40 7 61 30
96 16 25 35 71 41 102 l11 57 77 26 c44 14 99 25 130 25 47 0 60 -5 97 -35 43
-35 44 -36 70 -18 l27 17 -7 104 c-6 106 -12 127 -52 175 -33 40 -33 100 0
115 18 8 25 21 30 57 4 25 18 69 32 98 13 29 24 62 24 75 0 16 13 30 44 49 43
26 56 46 56 88 0 12 18 39 41 60 l41 40 -4 86 -3 87 55 58 c31 33 63 69 71 81
14 21 17 21 74 7 82 -19 81 -19 95 30 8 29 27 58 58 89 42 40 57 47 139 67 92
22 92 22 124 71 l31 49 58 0 57 0 72 81 c108 122 146 178 170 248 11 36 21 70
21 77 0 11 -106 64 -128 64 -15 0 -32 33 -32 62 0 16 11 29 38 45 34 19 40 28
51 80 7 32 22 72 32 89 18 29 24 32 110 44 82 11 95 16 129 47 33 29 40 42 46
89 5 47 11 57 35 69 15 8 32 15 36 15 5 0 21 -25 36 -55 26 -54 28 -55 69 -55
34 0 51 7 87 38 38 31 59 40 121 50 43 7 82 20 92 30 16 16 16 21 1 79 -21 87
-13 128 31 143 40 13 46 33 46 156 0 77 -3 88 -32 136 -29 47 -33 62 -34 128
-1 130 -2 131 -42 169 -53 50 -102 125 -102 154 0 18 20 45 65 90 36 36 65 72
65 81 0 9 17 35 38 59 51 55 103 143 80 134 -9 -3 -56 -9 -105 -13 -62 -4
-101 -13 -133 -30 -95 -48 -333 -30 -418 33 -27 21 -39 23 -78 17 -39 -6 -48
-11 -62 -41 -14 -30 -19 -33 -47 -27 -27 5 -84 57 -85 77 0 5 -17 47 -37 94
-34 80 -39 87 -83 107 -88 41 -148 86 -181 137 -30 48 -33 49 -68 43 -20 -4
-50 -20 -68 -37 -27 -25 -33 -39 -33 -72 l0 -41 -57 -18 c-39 -12 -74 -33
-105 -62 -65 -60 -93 -60 -133 3 -56 89 -124 163 -149 163 -18 0 -27 8 -35 32
-7 18 -30 52 -53 75 -33 33 -50 43 -75 43 -18 0 -33 1 -33 3 0 2 -11 30 -24
64 l-23 60 43 34 c36 28 43 40 44 69 0 29 9 45 49 84 68 67 77 101 53 201
l-19 80 35 43 c19 24 44 48 54 53 15 8 17 17 13 43 l-7 33 67 6 c74 5 110 25
135 73 21 40 28 44 82 44 45 0 48 2 56 33 7 24 4 44 -10 82 -11 28 -21 51 -22
52 -1 2 -29 -2 -62 -7 -37 -6 -63 -16 -69 -26 -19 -33 -45 -54 -65 -54 -11 0
-39 -12 -61 -27 -37 -25 -42 -25 -50 -10 -7 12 -23 17 -58 17 l-48 0 -22 56
c-29 77 -27 97 17 157 22 29 49 81 61 117 12 36 42 92 66 124 50 66 50 65 31
153 l-13 63 44 27 c64 41 154 199 165 292 7 58 12 69 42 96 56 48 76 91 76
160 0 68 -11 85 -77 132 -23 17 -82 68 -131 114 -88 83 -89 85 -97 143 -9 78
-19 103 -45 111 -15 5 -29 0 -44 -14 -38 -36 -87 -28 -181 29 -46 28 -85 50
-87 50 -3 0 -19 -37 -37 -82z"/>
</g>
</svg>
