<?xml version="1.0" standalone="no"?>
<!DOCTYPE svg PUBLIC "-//W3C//DTD SVG 20010904//EN"
 "http://www.w3.org/TR/2001/REC-SVG-20010904/DTD/svg10.dtd">
<svg version="1.0" xmlns="http://www.w3.org/2000/svg"
 width="1024.000000pt" height="1024.000000pt" viewBox="0 0 1024.000000 1024.000000"
 preserveAspectRatio="xMidYMid meet">
<metadata>
Created by potrace 1.10, written by Peter Selinger 2001-2011
</metadata>
<g transform="translate(0.000000,1024.000000) scale(0.100000,-0.100000)"
fill="#000000" stroke="none">
<path d="M3690 9732 c0 -5 -19 -39 -42 -78 -127 -212 -236 -296 -419 -325
l-70 -11 -53 37 c-52 35 -55 36 -82 22 -37 -19 -62 -47 -158 -174 -160 -211
-273 -277 -390 -228 -33 14 -39 14 -66 0 -36 -18 -103 -102 -157 -194 -21 -36
-48 -77 -61 -92 -41 -49 -55 -99 -62 -225 -7 -116 -9 -125 -49 -201 -66 -127
-124 -192 -211 -236 -100 -50 -186 -67 -351 -67 l-136 0 -5 -83 c-6 -95 -32
-164 -80 -214 l-31 -32 47 -22 c26 -12 62 -40 79 -61 18 -22 82 -73 143 -113
68 -45 130 -95 160 -129 27 -31 79 -79 116 -107 61 -46 108 -109 108 -147 0
-6 9 -16 20 -22 14 -8 20 -21 20 -48 0 -20 3 -60 6 -89 l7 -51 71 -30 c100
-41 116 -44 180 -27 56 15 58 14 75 -6 16 -20 18 -20 55 -5 52 22 87 20 126
-6 41 -28 47 -44 21 -51 -29 -7 -66 -87 -57 -123 7 -28 57 -83 111 -121 26
-19 28 -23 15 -38 -8 -10 -28 -24 -45 -31 -27 -12 -28 -13 -7 -14 77 -1 164
-111 119 -149 -11 -8 -19 -5 -37 14 -42 45 -70 34 -124 -45 -27 -38 -51 -70
-54 -70 -3 0 -14 7 -24 16 -16 15 -25 15 -76 4 -48 -10 -64 -10 -83 0 -36 20
-178 31 -215 18 -28 -10 -35 -8 -68 17 -56 42 -59 55 -36 125 11 34 23 81 27
105 5 42 4 45 -21 55 -46 17 -111 11 -188 -16 -98 -36 -279 -127 -320 -162
-18 -16 -64 -49 -103 -74 -38 -26 -119 -85 -180 -132 -60 -48 -129 -96 -153
-107 -92 -45 -94 -71 -9 -126 85 -56 90 -58 197 -82 52 -12 111 -29 131 -37
l37 -16 -20 -47 c-11 -25 -32 -58 -48 -73 l-29 -26 45 -57 c43 -56 55 -85 34
-85 -15 0 -12 -37 5 -69 17 -34 55 -51 223 -97 l124 -34 89 35 c67 26 108 35
162 37 67 3 77 1 117 -27 72 -49 77 -50 37 -8 l-38 40 27 22 c50 39 73 24 127
-83 l24 -48 24 39 c64 104 172 183 249 183 33 0 44 6 71 40 18 22 36 40 40 40
3 0 30 -22 58 -48 44 -41 51 -53 51 -85 0 -31 -8 -45 -46 -83 -42 -43 -49 -46
-85 -41 -21 3 -41 1 -44 -3 -3 -5 19 -33 49 -62 49 -48 57 -62 85 -153 46
-145 49 -175 20 -222 -68 -110 -139 -153 -261 -156 -58 -2 -63 0 -66 21 -2 12
-7 22 -12 22 -4 0 -41 -43 -81 -96 -79 -105 -126 -143 -187 -151 -36 -5 -42
-2 -88 44 -35 35 -61 52 -88 57 -47 9 -100 -8 -119 -38 -15 -22 -14 -24 19
-39 60 -29 40 -60 -34 -50 l-40 5 -10 -48 c-10 -45 -9 -50 11 -66 19 -15 19
-18 5 -18 -21 0 -24 -31 -6 -60 11 -18 9 -23 -16 -45 -16 -14 -40 -25 -52 -25
-43 0 -174 -193 -174 -254 0 -15 7 -42 14 -61 17 -40 10 -48 -58 -61 l-40 -7
33 -29 c18 -16 31 -31 29 -32 -13 -12 -50 -26 -67 -26 -12 0 -21 -6 -21 -14 0
-11 9 -13 33 -9 29 4 37 1 56 -23 l22 -28 -28 -23 -28 -23 42 -36 c35 -29 43
-42 43 -70 0 -40 22 -46 49 -12 l18 21 43 -43 c41 -41 42 -50 6 -63 -4 -1 1
-18 13 -37 35 -58 28 -94 -26 -145 -51 -47 -50 -50 10 -36 31 7 37 6 37 -7 0
-8 -7 -24 -16 -34 -22 -23 -6 -44 47 -59 29 -9 46 -24 74 -66 20 -30 52 -63
71 -75 29 -17 34 -25 34 -59 0 -37 2 -39 43 -50 117 -31 353 72 331 145 -4 12
-13 29 -21 38 -13 15 -10 25 26 95 50 96 92 149 127 157 14 4 28 5 30 3 2 -2
-17 -35 -42 -73 -26 -38 -53 -84 -61 -103 -14 -32 -13 -36 3 -48 10 -7 24 -13
32 -13 12 0 13 -10 9 -44 -6 -40 0 -59 59 -187 l65 -142 -24 -26 c-29 -31 -57
-83 -57 -106 0 -9 12 -37 26 -62 25 -42 26 -50 20 -129 -5 -69 -3 -86 8 -90 9
-3 48 19 93 53 97 74 239 173 247 173 3 0 14 -17 25 -38 11 -20 38 -52 60 -69
l39 -33 9 38 c8 32 13 37 41 40 30 3 32 1 32 -26 0 -17 6 -32 15 -36 25 -9 74
-95 81 -142 7 -51 24 -69 58 -60 34 8 36 33 9 88 -24 50 -29 78 -14 78 6 0 22
24 36 53 42 83 83 119 110 97 12 -10 11 -18 -9 -48 -39 -64 -39 -70 1 -118 21
-24 46 -44 56 -44 26 0 214 107 258 147 34 31 59 42 59 26 0 -3 -12 -30 -27
-60 -22 -46 -24 -56 -12 -64 11 -6 0 -23 -49 -72 -73 -74 -89 -119 -53 -151
l21 -19 -24 -26 c-17 -19 -28 -50 -40 -116 -21 -116 -20 -131 4 -163 25 -31
13 -50 -20 -32 -20 11 -30 4 -117 -82 -52 -51 -101 -105 -109 -120 -8 -15 -14
-50 -14 -78 0 -60 -17 -73 -62 -47 -28 16 -31 16 -61 -7 -18 -13 -70 -46 -117
-74 -94 -55 -171 -130 -200 -194 l-19 -43 30 -52 c40 -70 23 -96 -37 -57 -13
9 -26 15 -27 13 -2 -2 -9 -17 -16 -34 l-13 -30 -34 40 c-20 23 -33 47 -30 57
5 21 -23 23 -104 8 -41 -8 -70 -24 -135 -75 -93 -72 -125 -108 -125 -138 0
-11 -7 -28 -16 -38 -14 -16 -12 -19 20 -44 20 -15 36 -36 36 -46 0 -30 15 -23
73 37 34 35 59 71 67 97 6 22 18 51 26 63 18 26 58 36 81 19 15 -11 15 -15 -5
-47 -30 -48 -28 -58 10 -58 22 0 42 9 65 32 27 26 35 29 48 18 13 -11 20 -9
44 14 26 25 30 26 34 9 4 -14 7 -12 18 14 9 22 21 33 43 37 17 4 50 25 73 48
l42 41 35 -21 36 -21 0 24 c0 22 2 24 19 13 17 -10 31 -7 89 23 53 27 74 34
87 26 16 -8 17 -6 11 16 -7 29 9 46 27 28 6 -6 15 -11 19 -11 7 0 58 92 58
105 0 12 -48 4 -60 -10 -14 -17 -40 -20 -40 -5 0 16 61 80 91 96 15 7 40 14
55 14 22 0 24 2 14 15 -15 18 -7 31 30 50 21 11 36 12 55 5 34 -13 34 -13 28
9 -4 17 21 81 33 81 2 0 16 -8 31 -17 25 -17 26 -16 42 5 45 64 50 68 61 52 9
-13 12 -12 26 5 8 11 23 19 33 17 13 -2 24 10 40 47 25 59 26 70 6 77 -8 4
-15 12 -15 19 0 19 75 83 118 101 24 9 53 34 76 64 41 54 47 57 66 35 18 -22
27 -19 34 13 11 50 75 105 155 131 40 14 84 33 97 43 29 23 41 58 23 69 -11 6
-10 11 2 26 9 10 29 42 44 71 23 43 33 52 55 52 31 0 75 42 91 88 14 41 2 57
-66 88 -56 27 -85 30 -104 11 -10 -10 -16 -7 -31 13 -32 41 -25 63 47 140 41
44 63 75 55 78 -18 6 -15 20 8 27 14 5 20 15 20 37 0 27 2 30 25 24 23 -6 25
-4 25 25 0 31 0 32 20 14 11 -10 20 -24 20 -32 0 -20 38 -16 50 6 13 26 13 31
-4 31 -8 0 -22 8 -32 17 -16 17 -14 18 46 30 101 21 143 77 100 135 -12 16
-20 31 -18 32 1 1 19 12 39 24 19 12 44 31 54 42 16 18 17 24 6 42 -11 18 -8
27 25 75 21 30 52 66 70 79 17 14 34 37 37 53 8 41 57 88 105 101 23 6 42 14
42 18 0 7 93 86 158 135 10 8 15 4 19 -11 5 -20 12 -22 67 -22 l62 0 39 55
c36 50 44 55 78 55 20 0 37 -3 37 -7 -1 -5 -34 -44 -75 -88 -41 -44 -75 -85
-75 -91 0 -19 25 -34 105 -64 82 -31 125 -55 125 -70 0 -17 -47 -11 -116 15
-80 30 -96 31 -119 5 -25 -28 -42 -25 -76 11 l-29 31 -99 -64 c-55 -34 -107
-68 -116 -73 -16 -10 -16 -14 1 -68 24 -76 11 -123 -62 -236 -65 -101 -83
-155 -62 -191 20 -37 51 -36 117 5 35 22 68 35 82 33 20 -3 13 -13 -62 -90
-62 -65 -93 -90 -117 -94 -45 -9 -63 -45 -37 -74 22 -24 52 -26 77 -3 16 14
21 15 44 2 24 -12 28 -12 45 10 15 19 22 21 33 12 12 -10 17 -8 26 8 12 23 40
29 40 9 0 -7 13 9 29 34 34 54 49 65 57 44 10 -27 23 -18 46 29 12 25 26 45
32 45 17 0 76 51 76 66 0 7 6 14 14 14 7 0 19 14 26 30 7 17 16 30 21 30 5 0
9 20 9 45 0 55 16 58 37 8 l15 -37 20 27 c23 32 48 35 48 7 0 -37 91 -67 104
-34 4 9 13 14 21 10 11 -4 15 2 15 23 0 34 22 55 49 48 27 -7 34 27 10 49 -17
16 -17 17 16 49 37 34 43 60 22 89 -12 16 -14 16 -26 2 -17 -20 -41 -21 -41
-1 0 9 7 27 16 40 9 14 13 32 9 42 -6 17 -7 17 -16 0 -6 -9 -19 -17 -30 -17
-16 0 -18 3 -9 19 8 16 6 21 -10 26 -26 8 -25 21 1 35 11 7 28 29 38 50 22 49
129 166 142 153 5 -5 -5 -29 -26 -60 -36 -54 -44 -90 -23 -111 17 -17 26 -15
33 9 5 15 10 17 20 9 9 -8 15 -3 25 20 15 36 30 39 30 5 0 -21 5 -25 28 -25
16 0 37 9 47 20 10 11 23 20 29 19 24 -3 36 3 76 36 31 26 51 35 79 35 21 0
41 -3 44 -7 11 -11 -14 -33 -38 -33 -18 0 -22 -4 -18 -20 3 -12 0 -20 -7 -20
-7 0 -10 -6 -7 -14 3 -8 1 -17 -6 -19 -9 -3 -7 -10 4 -22 15 -16 19 -14 55 29
28 33 41 43 50 35 10 -8 10 -20 -2 -57 -7 -26 -14 -48 -14 -49 0 -2 12 -3 26
-3 20 0 24 -4 19 -19 -5 -16 1 -20 32 -26 63 -10 69 -18 46 -58 l-21 -35 26
-5 c15 -3 43 -17 64 -30 l36 -25 50 61 c63 77 112 125 112 108 0 -7 -8 -25
-19 -39 -27 -40 -30 -55 -13 -74 14 -16 14 -18 0 -18 -20 0 -32 -45 -18 -70
16 -29 69 -53 118 -53 42 0 44 -2 68 -49 17 -34 30 -48 45 -48 11 0 75 14 142
31 136 34 142 34 293 -13 115 -35 158 -33 149 5 -3 12 0 30 8 41 13 17 15 16
35 -18 27 -46 28 -71 2 -89 -19 -13 -15 -16 59 -51 78 -37 164 -55 198 -42 15
6 15 8 3 17 -13 8 -12 12 4 24 23 17 52 20 61 5 13 -22 31 -5 112 109 2 3 10
-5 19 -18 9 -12 45 -35 80 -52 35 -17 64 -35 64 -41 0 -5 -18 -8 -42 -6 l-43
3 -5 -60 -5 -60 -21 28 c-12 15 -24 27 -26 27 -3 0 -19 -18 -37 -40 l-32 -40
75 -22 c60 -17 73 -25 64 -35 -8 -9 -7 -17 3 -30 20 -23 109 -63 143 -63 20 0
27 -4 23 -14 -4 -9 10 -25 35 -42 22 -15 67 -63 100 -106 33 -43 67 -78 74
-78 8 0 20 -15 27 -33 11 -24 30 -41 78 -66 35 -19 78 -44 96 -57 l32 -24 3
23 c2 17 11 23 36 25 19 2 47 -1 63 -7 19 -6 29 -6 29 0 0 25 -30 77 -54 92
-23 15 -26 24 -26 69 0 40 3 49 12 40 22 -22 48 -14 48 13 0 14 -4 25 -10 25
-13 0 -13 22 1 57 l10 28 24 -40 c22 -36 28 -39 60 -37 19 2 35 -1 35 -6 0
-11 -30 -37 -53 -45 -16 -6 -15 -11 8 -73 14 -36 25 -77 25 -90 0 -21 5 -24
37 -24 29 0 44 -8 77 -42 l41 -43 3 62 c2 35 -2 71 -7 82 -6 10 -21 70 -35
133 -13 64 -34 135 -47 159 -29 55 -26 77 13 111 35 30 48 24 48 -24 0 -21 4
-25 19 -21 25 7 38 -17 18 -32 -21 -15 -21 -25 -1 -115 l17 -73 16 27 c8 14
19 26 23 26 4 0 7 -37 6 -83 -1 -70 2 -89 21 -123 13 -23 36 -49 53 -58 28
-17 29 -19 12 -38 -16 -16 -16 -21 -4 -28 35 -22 100 -8 100 22 0 24 23 70 44
87 14 12 16 9 16 -27 0 -22 -7 -56 -15 -75 -10 -26 -12 -43 -6 -61 11 -27 31
-44 31 -26 0 8 9 10 25 6 16 -4 34 0 50 10 23 15 25 15 31 -1 8 -20 -54 -88
-73 -81 -16 6 -17 -10 -2 -19 5 -4 18 0 28 9 22 20 50 20 101 0 53 -21 41 -37
-22 -29 -48 7 -50 6 -46 -15 2 -18 14 -26 50 -37 40 -11 45 -16 40 -35 -4 -16
3 -28 24 -45 48 -38 0 -29 -68 13 -32 19 -62 32 -68 29 -16 -10 -12 -19 13
-30 14 -6 23 -21 25 -38 2 -16 10 -31 18 -34 11 -4 12 -9 3 -19 -9 -11 -4 -12
25 -7 21 3 36 1 36 -4 0 -16 -33 -41 -62 -48 -31 -8 -36 -26 -14 -44 11 -9 19
-9 35 1 17 10 23 9 44 -10 13 -12 33 -22 45 -22 26 0 56 -50 34 -58 -18 -6
-15 -37 6 -55 21 -19 48 -22 57 -7 10 16 35 11 35 -7 0 -9 -7 -25 -17 -35 -14
-15 -14 -18 -1 -18 8 0 23 9 33 20 22 24 38 25 56 4 11 -13 10 -17 -5 -26 -10
-6 -27 -19 -37 -29 -24 -24 -13 -51 33 -79 17 -10 37 -33 44 -49 11 -26 19
-31 47 -31 37 0 63 -21 54 -44 -5 -12 -11 -13 -37 -3 -41 16 -65 0 -66 -44 -1
-19 -16 -64 -33 -101 -27 -56 -30 -70 -21 -88 10 -19 14 -20 33 -7 30 19 42
63 27 92 -7 13 -9 28 -6 33 8 14 114 62 135 62 44 0 128 -107 104 -131 -7 -7
-18 1 -33 25 -25 41 -47 56 -83 56 -21 0 -26 -7 -36 -44 -6 -25 -11 -58 -11
-74 0 -16 -9 -41 -21 -56 -20 -25 -20 -28 -5 -51 19 -29 36 -32 36 -7 0 9 13
37 29 61 27 41 30 42 40 23 14 -26 14 -85 1 -98 -20 -20 0 -44 36 -44 28 0 34
-4 34 -21 0 -22 9 -23 77 -3 35 10 17 -34 -24 -58 -27 -16 -31 -23 -22 -34 7
-9 9 -28 4 -51 l-7 -38 24 23 c26 24 54 29 60 11 5 -14 128 167 128 188 0 8
-10 46 -21 85 -20 66 -21 72 -5 127 26 92 18 131 -26 131 -9 0 -30 16 -45 35
-15 20 -71 62 -123 94 -137 85 -174 102 -207 95 -27 -5 -29 -3 -40 45 -6 27
-21 59 -33 71 -17 17 -21 29 -16 51 5 27 3 29 -24 29 -38 0 -43 11 -25 53 14
34 13 38 -17 94 -17 32 -84 146 -149 254 -77 129 -116 203 -113 215 6 23 -108
179 -161 221 -20 15 -56 57 -80 93 -52 78 -73 99 -111 109 -24 6 -30 14 -36
48 -21 124 -57 183 -112 183 -17 0 -64 -16 -104 -35 -69 -33 -72 -36 -72 -70
0 -31 -3 -35 -26 -35 -26 0 -26 -2 -21 -44 8 -54 -16 -91 -66 -101 -48 -11
-87 -33 -141 -81 -26 -24 -54 -44 -61 -44 -8 0 -14 22 -18 60 -4 33 -14 75
-23 93 -9 17 -72 88 -140 157 -69 71 -126 138 -129 153 -4 14 -32 47 -62 73
-55 47 -55 47 -48 92 4 24 9 51 12 58 4 11 -10 14 -66 14 l-71 0 -26 -40 c-15
-22 -31 -40 -36 -40 -5 0 -31 11 -58 25 -43 22 -51 23 -64 10 -20 -20 -37 -19
-91 7 l-45 22 -2 2740 -3 2741 -22 3 c-13 2 -23 -1 -23 -7 0 -26 -40 -7 -71
33 -26 34 -54 55 -119 86 -63 31 -101 58 -150 109 -81 82 -117 95 -232 85 -62
-5 -82 -11 -91 -25 -9 -15 -24 -19 -62 -19 -36 0 -62 -7 -90 -25 -71 -44 -131
-31 -242 51 -40 30 -80 53 -90 51 -10 -1 -46 4 -81 12 -50 11 -79 12 -142 3
-66 -10 -87 -9 -132 4 -73 22 -109 42 -135 74 -12 15 -36 33 -53 40 -26 11
-33 10 -48 -4 -17 -15 -21 -13 -58 25 -34 35 -43 39 -70 34 -27 -5 -35 -1 -58
30 -27 35 -60 46 -69 23 -3 -10 -9 -8 -24 5 -12 11 -36 17 -65 17 -36 0 -55
-8 -101 -40 -30 -22 -62 -40 -70 -40 -21 0 -38 25 -31 44 5 13 -1 16 -29 16
-33 0 -74 -24 -107 -63 -14 -17 -17 -17 -55 3 -21 11 -58 20 -81 20 -26 0 -51
7 -65 19 l-24 19 24 26 c14 14 22 29 18 32 -9 9 -53 8 -99 -1 -20 -4 -48 -5
-62 -1 -31 8 -35 36 -7 43 16 4 18 8 9 23 -14 22 -5 57 27 104 14 20 25 38 25
40 0 2 -23 13 -51 25 -47 21 -52 21 -74 7 -23 -15 -27 -14 -62 10 -28 19 -46
24 -67 20 -17 -4 -54 -9 -83 -12 -44 -6 -56 -11 -74 -39 -38 -54 -52 -59 -107
-31 -26 13 -58 33 -72 44 -22 18 -23 23 -12 41 15 25 16 75 1 102 -5 11 -22
25 -37 30 -21 8 -29 7 -39 -7 -7 -10 -13 -28 -13 -41 0 -27 -28 -43 -40 -23
-4 7 -15 10 -24 7 -25 -10 -21 -84 6 -106 31 -25 18 -56 -20 -46 -15 4 -46 9
-69 12 -39 5 -44 3 -53 -22 -5 -14 -14 -24 -19 -21 -11 7 -35 151 -27 164 3 5
21 13 40 16 41 8 86 56 86 92 0 14 -10 30 -26 41 -25 16 -28 16 -56 0 -43 -25
-58 -22 -58 11 0 24 -9 33 -65 65 -68 39 -75 42 -75 29z"/>
<path d="M2440 6417 c0 -40 6 -44 34 -24 16 12 15 14 -8 36 l-26 24 0 -36z"/>
<path d="M241 4766 c-71 -50 -87 -50 -173 3 l-47 29 -10 -30 c-16 -45 -13 -79
9 -115 25 -41 60 -43 130 -8 27 14 58 25 68 25 22 0 122 -49 122 -59 0 -4 40
-49 89 -99 l90 -91 6 29 c12 56 97 102 158 87 25 -7 41 1 49 24 13 34 -8 44
-101 47 -73 3 -93 8 -107 23 -9 10 -23 19 -31 19 -31 0 -93 41 -93 61 0 32
-26 74 -55 87 -36 17 -34 17 -104 -32z"/>
<path d="M1275 3046 c-16 -7 -40 -25 -52 -40 -18 -21 -32 -26 -67 -26 -27 0
-48 -6 -57 -16 -11 -13 -8 -19 17 -39 47 -39 140 -85 170 -85 16 0 39 -11 55
-26 l27 -25 25 24 c13 14 42 31 64 37 l39 12 -20 87 c-18 81 -21 87 -41 83
-12 -2 -36 3 -53 12 -37 19 -67 20 -107 2z"/>
<path d="M7901 2836 c-9 -11 -7 -21 9 -48 l20 -33 0 48 c0 48 -9 58 -29 33z"/>
<path d="M4674 2084 c-14 -33 -17 -35 -47 -28 l-32 6 19 -21 19 -21 -37 0 -37
0 30 -32 c27 -29 32 -31 53 -20 13 7 32 27 42 45 15 25 20 28 23 15 3 -11 14
-18 27 -18 17 0 22 6 22 23 -1 16 4 21 17 19 12 -2 17 4 17 19 0 19 -4 21 -36
15 -31 -6 -36 -4 -41 13 -8 31 -22 25 -39 -15z"/>
<path d="M9056 2004 c13 -53 28 -130 34 -170 5 -41 21 -97 35 -124 27 -53 30
-64 16 -56 -8 5 -21 -70 -21 -121 0 -48 49 -13 92 66 12 22 24 31 43 31 18 0
25 5 25 20 0 11 -7 20 -15 20 -18 0 -20 21 -4 37 9 9 6 23 -10 55 -11 25 -21
53 -21 63 0 17 3 16 26 -6 l25 -24 -11 30 c-6 17 -25 60 -41 96 l-31 67 -58 6
c-56 7 -58 8 -64 40 -4 18 -15 41 -25 50 -17 16 -17 10 5 -80z"/>
<path d="M8787 2025 c-23 -16 -37 -34 -37 -46 0 -18 -4 -20 -25 -15 -28 7 -30
1 -10 -34 18 -32 18 -41 0 -34 -30 12 -15 -34 35 -102 28 -38 56 -84 62 -102
8 -21 17 -31 26 -27 7 3 18 5 23 5 5 0 9 17 9 37 0 29 -6 42 -27 59 -27 22
-27 24 -11 40 17 17 19 17 50 -6 54 -40 132 -90 140 -90 5 0 8 20 8 45 l0 45
-65 0 c-51 0 -65 3 -65 15 0 8 -16 32 -35 54 -44 48 -47 92 -10 117 l26 17
-22 23 c-28 29 -26 30 -72 -1z"/>
<path d="M8895 1940 c-16 -16 -27 -32 -24 -34 11 -10 110 -56 120 -56 7 0 3
10 -9 23 -29 31 -28 37 8 37 27 0 29 2 21 19 -9 16 -58 41 -81 41 -3 0 -19
-13 -35 -30z"/>
<path d="M4597 1869 c-17 -13 -34 -18 -47 -14 -11 4 -20 2 -20 -4 0 -6 -11
-18 -25 -27 -25 -16 -27 -16 -55 11 -29 28 -43 27 -60 -5 -8 -16 -5 -22 20
-36 28 -17 28 -19 13 -36 -10 -11 -16 -33 -15 -58 1 -21 -3 -42 -8 -45 -13 -8
-50 54 -50 83 0 19 -5 22 -38 22 -31 0 -45 -7 -74 -37 -55 -59 -76 -113 -43
-113 18 0 35 -39 35 -82 0 -19 10 -42 29 -63 l28 -32 47 48 c26 27 52 49 57
49 14 0 11 -26 -6 -40 -16 -13 -20 -31 -7 -29 32 5 33 -4 1 -37 l-34 -36 30
15 c48 24 69 54 67 93 -2 32 0 35 18 29 11 -4 20 -2 20 4 0 17 38 13 48 -5 9
-15 12 -15 31 -2 l22 15 -28 19 -28 18 40 12 c36 10 38 12 18 18 -31 10 -30
36 1 36 14 0 28 -4 31 -10 8 -13 52 -13 60 0 3 5 -12 21 -34 36 -23 14 -38 30
-35 35 8 14 82 10 114 -6 26 -14 29 -13 44 10 21 31 21 31 -14 45 -35 15 -47
44 -29 76 10 20 10 27 0 37 -10 10 -21 3 -52 -32 l-39 -43 -10 27 c-7 18 -7
33 1 47 15 28 6 31 -24 7z"/>
<path d="M8900 1674 c-17 -43 -12 -61 21 -74 28 -12 30 -16 24 -51 -5 -31 -3
-39 14 -49 24 -13 28 -30 6 -30 -11 0 -15 -11 -15 -36 0 -30 3 -34 19 -29 23
7 38 -12 22 -28 -16 -16 -13 -47 5 -54 8 -3 20 -1 27 6 27 27 39 -9 13 -38
-13 -14 -11 -23 18 -69 l33 -54 6 85 c5 69 1 105 -18 192 -14 59 -33 122 -43
139 -10 17 -22 44 -25 59 -9 34 -40 52 -67 37 -18 -10 -24 -7 -21 13 3 17 -10
5 -19 -19z"/>
<path d="M9290 1489 c0 -6 13 -29 30 -52 22 -32 32 -61 41 -120 6 -44 15 -74
19 -67 4 7 24 10 46 8 31 -2 39 1 42 15 2 9 -4 20 -12 23 -9 3 -16 14 -16 23
0 9 -7 26 -14 37 -15 21 -11 64 5 64 4 0 16 -11 26 -25 10 -14 26 -36 36 -48
18 -22 18 -21 13 37 -6 71 -18 87 -45 62 -19 -17 -20 -17 -30 3 -7 12 -32 27
-63 36 -61 18 -78 19 -78 4z"/>
<path d="M9196 1387 c-16 -11 -15 -15 12 -40 18 -17 28 -36 25 -46 -2 -9 5
-25 16 -35 12 -11 21 -14 21 -8 0 6 11 24 25 40 14 17 21 33 16 36 -5 4 -12 2
-16 -4 -12 -20 -23 -9 -29 30 -5 33 -10 40 -29 40 -13 0 -31 -6 -41 -13z"/>
<path d="M9526 1204 c-8 -21 1 -34 24 -34 19 0 34 25 24 41 -9 15 -41 10 -48
-7z"/>
<path d="M9380 1146 c0 -9 12 -16 32 -18 28 -3 33 -9 54 -63 31 -81 30 -105
-6 -140 -38 -37 -38 -45 3 -45 54 0 91 -45 62 -74 -13 -12 -11 -16 11 -30 13
-9 22 -21 19 -26 -3 -5 0 -20 7 -35 12 -26 12 -26 23 -4 11 20 13 19 38 -24
15 -25 27 -51 27 -58 0 -18 54 -128 63 -128 4 -1 13 10 19 24 10 23 8 28 -23
55 l-34 30 33 28 33 28 -38 18 c-36 17 -37 19 -15 27 12 5 22 16 22 25 0 11
-5 14 -17 9 -40 -17 -63 -17 -69 -1 -3 9 -1 22 5 29 8 11 5 13 -19 9 l-29 -4
20 38 c27 54 24 90 -13 151 -34 56 -42 62 -52 38 -11 -29 -23 -14 -50 64 -21
60 -33 80 -49 85 -37 10 -57 7 -57 -8z"/>
<path d="M9618 1133 c-21 -23 -24 -47 -5 -40 15 5 47 -10 47 -23 0 -5 5 -21
11 -37 10 -26 12 -27 19 -8 5 11 9 32 9 48 1 23 -3 27 -28 27 -25 0 -30 5 -33
26 -3 26 -3 26 -20 7z"/>
</g>
</svg>
