<?xml version="1.0" standalone="no"?>
<!DOCTYPE svg PUBLIC "-//W3C//DTD SVG 20010904//EN"
 "http://www.w3.org/TR/2001/REC-SVG-20010904/DTD/svg10.dtd">
<svg version="1.0" xmlns="http://www.w3.org/2000/svg"
 width="1024.000000pt" height="1024.000000pt" viewBox="0 0 1024.000000 1024.000000"
 preserveAspectRatio="xMidYMid meet">
<metadata>
Created by potrace 1.10, written by Peter Selinger 2001-2011
</metadata>
<g transform="translate(0.000000,1024.000000) scale(0.100000,-0.100000)"
fill="#000000" stroke="none">
<path d="M285 7743 c-11 -2 -43 -13 -71 -24 -57 -22 -79 -53 -115 -156 -10
-31 -26 -68 -35 -81 -17 -27 -66 -163 -60 -169 2 -2 28 -6 57 -10 42 -5 62
-13 91 -39 45 -40 82 -60 131 -69 29 -6 41 -16 61 -49 29 -50 55 -145 49 -179
-4 -18 2 -30 21 -45 15 -11 36 -41 47 -67 l21 -47 22 21 c31 29 61 26 106 -9
21 -16 61 -36 90 -43 37 -10 69 -28 107 -62 50 -44 57 -47 91 -40 55 11 151 6
206 -11 27 -8 63 -14 78 -14 45 0 93 -43 108 -96 7 -25 21 -51 32 -57 10 -7
18 -16 18 -21 0 -6 12 -22 26 -38 l27 -27 25 19 c33 26 74 25 99 -2 38 -41 93
-176 93 -227 0 -42 5 -53 51 -104 45 -50 53 -56 71 -46 36 20 106 5 142 -30
25 -24 41 -31 71 -31 66 -1 128 -20 159 -48 16 -15 46 -64 66 -109 45 -97 80
-287 80 -437 0 -104 21 -176 71 -251 14 -22 30 -60 34 -85 4 -25 14 -53 23
-63 10 -12 15 -32 13 -57 -1 -24 4 -49 15 -64 13 -21 16 -47 15 -129 l-2 -102
51 -80 c102 -159 111 -189 126 -437 7 -106 6 -106 -24 -160 -17 -30 -34 -73
-38 -97 -9 -55 -109 -192 -154 -211 -19 -8 -41 -31 -59 -64 -17 -28 -50 -80
-75 -115 -26 -36 -46 -68 -46 -72 0 -4 25 -10 56 -14 41 -5 64 -14 90 -37 31
-27 42 -31 88 -29 41 1 56 -2 70 -18 10 -11 35 -22 55 -26 27 -4 42 -14 54
-34 23 -39 65 -47 77 -15 5 13 21 26 35 30 15 4 36 22 49 43 13 20 42 50 66
66 l42 29 32 -18 c17 -10 49 -28 70 -39 l39 -21 38 22 c32 19 42 20 63 10 22
-9 29 -8 45 6 19 17 22 17 74 -13 40 -23 67 -31 103 -31 32 0 54 -6 68 -19 25
-22 79 -41 117 -41 19 0 43 -13 69 -37 l41 -36 35 16 c19 10 43 31 52 49 9 17
36 53 60 80 23 27 42 59 42 72 0 62 11 83 56 104 58 29 218 32 228 6 5 -13 15
-15 50 -10 l45 7 -6 -58 c-4 -39 -12 -62 -25 -73 -18 -14 -17 -17 26 -52 l45
-38 32 33 33 32 15 -38 c13 -31 20 -37 39 -32 17 4 24 0 31 -17 5 -13 21 -34
35 -47 14 -14 26 -32 26 -40 1 -26 97 -121 123 -121 29 0 59 -28 77 -69 9 -22
19 -31 36 -31 12 0 26 -5 30 -11 3 -6 16 -8 29 -5 16 4 25 1 29 -10 10 -27 7
-44 -9 -44 -28 0 -72 -29 -78 -50 -5 -18 0 -20 36 -20 23 0 48 -4 55 -8 6 -5
23 -39 35 -78 28 -80 37 -85 107 -55 49 21 112 26 181 15 31 -5 39 -13 62 -60
15 -30 27 -66 27 -79 0 -31 0 -31 86 -1 54 19 73 22 89 13 18 -10 82 -19 235
-33 l55 -5 67 60 66 61 106 0 c82 0 117 5 161 21 40 15 68 19 93 15 108 -19
108 -19 125 7 9 14 19 37 23 52 4 15 17 30 32 36 21 8 30 5 56 -19 61 -58 96
-64 171 -31 l48 21 48 -22 c55 -26 129 -24 173 6 25 16 27 15 56 -15 25 -27
32 -30 49 -21 12 6 28 24 36 40 13 26 21 30 56 30 22 0 53 -7 69 -15 24 -13
53 -14 155 -9 145 8 148 11 89 93 l-35 50 25 16 c23 15 27 15 85 -14 33 -17
71 -31 83 -31 15 0 81 51 198 156 333 297 353 308 444 238 l46 -35 83 6 82 6
27 -41 c24 -34 33 -40 64 -40 60 0 117 -21 156 -58 36 -34 38 -35 97 -28 34 4
61 4 61 0 0 -4 -16 -24 -35 -45 -19 -22 -35 -43 -35 -48 0 -13 114 -111 185
-158 33 -22 98 -52 144 -68 105 -35 187 -31 286 14 47 21 74 28 98 24 18 -3
51 0 72 6 l39 11 101 -99 c103 -101 134 -124 157 -117 59 19 66 17 78 -18 15
-46 43 -68 87 -70 36 -1 37 1 58 54 19 51 24 55 55 58 65 5 80 12 93 45 8 17
26 38 40 46 22 12 27 22 27 50 0 20 6 45 13 56 14 20 15 127 2 211 -6 37 -11
42 -56 62 -38 16 -53 28 -64 56 -15 34 -18 36 -64 36 -31 0 -53 5 -61 15 -7 8
-20 15 -29 15 -10 0 -40 20 -67 45 -27 25 -57 45 -67 45 -9 0 -22 11 -27 24
-5 14 -20 26 -37 31 -15 3 -35 12 -43 19 -8 8 -28 16 -43 20 -22 5 -27 11 -22
25 4 13 -3 28 -20 45 -14 14 -25 37 -25 51 0 21 5 25 29 25 37 0 45 22 20 54
-17 22 -24 24 -41 15 -21 -12 -38 1 -38 29 0 16 -5 15 -41 -4 -16 -8 -38 -12
-48 -9 -31 9 -61 95 -61 170 0 77 18 127 55 151 22 14 32 15 64 5 70 -20 63
-25 177 104 42 49 57 75 72 131 l19 69 -27 34 c-27 31 -34 34 -112 42 -78 7
-85 10 -108 40 -66 86 -53 81 -166 68 -55 -7 -109 -9 -118 -6 -9 4 -23 22 -31
41 -16 39 -38 51 -55 31 -11 -13 -15 -13 -33 0 -28 19 -57 19 -85 -1 -21 -14
-22 -14 -22 5 0 11 -9 25 -20 31 -12 6 -20 21 -20 36 0 46 -34 81 -87 89 -87
12 -120 27 -182 80 -44 39 -71 55 -103 60 -31 6 -52 17 -75 43 -29 31 -32 41
-27 72 4 19 19 58 35 86 44 78 85 183 103 264 9 40 24 89 32 108 14 35 14 36
-17 68 -44 46 -169 93 -300 114 -64 10 -71 8 -168 -25 -55 -19 -108 -35 -119
-35 -12 0 -23 13 -32 38 -16 46 -66 109 -92 118 -11 3 -28 25 -38 49 -11 25
-34 54 -57 71 -21 15 -54 45 -74 66 -42 43 -63 46 -119 18 -72 -37 -100 -29
-185 51 -84 81 -99 83 -174 34 -37 -25 -39 -29 -43 -86 -3 -46 -10 -65 -30
-87 -25 -25 -26 -29 -12 -55 13 -24 13 -28 -1 -33 -26 -10 -45 4 -45 33 0 30
-75 167 -106 195 -23 19 -153 48 -222 48 -54 0 -129 -23 -209 -64 -45 -22 -65
-26 -142 -26 l-90 0 -12 -42 c-16 -61 -60 -136 -84 -143 -11 -3 -68 -10 -128
-15 -119 -10 -155 -25 -201 -85 -35 -46 -62 -45 -122 5 -47 39 -49 39 -138 42
l-91 3 -19 38 -18 38 43 62 c24 34 51 68 61 75 10 7 25 26 33 41 l14 28 -62
38 c-40 24 -83 40 -122 46 -50 8 -64 15 -85 42 -64 83 -155 142 -250 162 -19
4 -42 13 -50 20 -17 14 -106 35 -150 35 -16 0 -50 11 -76 25 -30 16 -63 25
-91 25 -60 0 -107 27 -200 111 -43 40 -99 92 -125 116 l-48 44 15 41 c18 53
10 64 -63 78 -67 14 -94 29 -144 83 -33 35 -41 39 -60 30 -17 -7 -33 -5 -65 9
-33 14 -47 16 -63 8 -14 -8 -26 -8 -40 0 -30 16 -54 4 -71 -33 -22 -50 -63
-49 -152 5 -40 23 -90 59 -112 79 -54 49 -91 59 -210 59 -71 0 -107 4 -120 14
-14 10 -26 11 -44 4 -14 -5 -34 -8 -45 -7 -62 4 -85 -3 -148 -51 l-66 -50
-119 31 c-169 45 -175 45 -219 15 -50 -34 -87 -33 -143 4 -39 24 -58 30 -121
32 -41 2 -91 -1 -110 -5 -34 -7 -36 -6 -88 62 -46 60 -61 72 -113 91 -46 18
-59 27 -59 43 0 12 -12 34 -27 49 -25 26 -33 28 -102 28 -68 0 -84 4 -146 37
-66 34 -77 36 -190 42 l-121 6 -54 40 c-30 21 -79 61 -109 88 -57 51 -133 93
-216 121 -38 12 -59 27 -85 61 l-35 46 -61 -4 c-47 -2 -72 -9 -104 -31 -39
-26 -49 -28 -109 -24 -72 5 -109 21 -187 78 -33 25 -70 42 -108 50 -33 7 -73
21 -90 31 -29 18 -75 22 -121 12z"/>
</g>
</svg>
