<?xml version="1.0" standalone="no"?>
<!DOCTYPE svg PUBLIC "-//W3C//DTD SVG 20010904//EN"
 "http://www.w3.org/TR/2001/REC-SVG-20010904/DTD/svg10.dtd">
<svg version="1.0" xmlns="http://www.w3.org/2000/svg"
 width="1024.000000pt" height="1024.000000pt" viewBox="0 0 1024.000000 1024.000000"
 preserveAspectRatio="xMidYMid meet">
<metadata>
Created by potrace 1.10, written by Peter Selinger 2001-2011
</metadata>
<g transform="translate(0.000000,1024.000000) scale(0.100000,-0.100000)"
fill="#000000" stroke="none">
<path d="M2830 10192 c-177 -131 -259 -286 -260 -492 -1 -119 -19 -164 -98
-240 -31 -30 -89 -98 -128 -150 -60 -80 -74 -106 -89 -167 -15 -63 -20 -73
-39 -73 -55 0 -270 -190 -333 -294 -20 -34 -72 -99 -115 -145 -66 -69 -88
-102 -134 -198 -30 -63 -81 -154 -113 -201 -80 -121 -80 -119 -96 -239 -8 -60
-22 -128 -31 -153 -19 -51 -32 -365 -20 -464 7 -55 9 -58 51 -78 39 -19 45
-27 54 -68 10 -46 9 -58 -10 -135 -9 -35 -7 -48 15 -95 49 -105 43 -164 -23
-247 -46 -60 -47 -101 -6 -222 19 -58 35 -121 35 -141 0 -48 17 -95 52 -147
l28 -42 0 -188 0 -188 30 -52 c25 -44 37 -54 82 -71 46 -17 54 -24 59 -53 6
-27 -1 -49 -41 -129 -46 -92 -48 -98 -38 -143 9 -42 15 -51 68 -84 54 -35 59
-41 79 -106 30 -97 84 -202 136 -268 36 -46 56 -61 104 -79 63 -23 71 -36 71
-115 0 -32 1 -33 53 -39 131 -16 124 -13 161 -75 51 -83 76 -147 76 -192 0
-44 23 -97 50 -116 10 -7 23 -26 30 -42 7 -18 24 -34 43 -40 26 -10 34 -8 55
11 l24 23 23 -29 c35 -44 40 -91 16 -145 -14 -32 -28 -108 -45 -248 l-24 -203
-49 -56 -48 -57 -3 -91 c-4 -106 -20 -132 -85 -143 -24 -4 -55 -20 -81 -42
-23 -20 -54 -45 -70 -56 -19 -14 -31 -35 -37 -65 -11 -49 -44 -94 -78 -105
-18 -5 -21 -14 -21 -57 0 -39 -6 -57 -25 -80 -17 -20 -25 -42 -25 -67 0 -36 3
-39 45 -55 55 -21 64 -46 41 -113 -22 -63 -20 -149 5 -245 l20 -81 -25 -106
c-22 -97 -39 -205 -50 -335 -4 -46 -8 -53 -110 -155 -103 -103 -106 -108 -106
-150 0 -39 -11 -62 -84 -175 -46 -72 -107 -174 -136 -226 -62 -113 -121 -198
-190 -273 l-50 -55 0 -113 c0 -100 -2 -116 -22 -145 -13 -18 -41 -41 -63 -51
-22 -10 -54 -31 -72 -47 -29 -24 -33 -34 -33 -76 0 -46 2 -49 77 -120 l76 -73
124 6 123 7 24 -48 c37 -73 82 -98 188 -106 73 -5 103 -2 190 19 57 14 109 25
115 25 7 0 15 -12 19 -27 15 -73 49 -93 156 -93 l56 0 11 44 c6 25 11 61 11
80 0 31 4 36 36 46 19 7 51 9 70 5 29 -5 42 -1 76 24 23 17 46 31 51 31 5 0
35 12 67 26 60 27 61 29 103 135 14 35 17 37 108 58 198 46 194 44 219 106
l22 55 45 0 c50 0 56 -5 123 -106 32 -48 50 -65 83 -78 77 -29 212 -15 366 38
41 14 88 26 105 26 17 0 61 11 97 23 58 20 70 21 98 10 21 -9 37 -26 47 -48 7
-18 29 -45 47 -59 42 -32 86 -33 247 -6 114 20 121 20 152 4 18 -10 60 -23 93
-29 l60 -10 29 -63 c29 -61 30 -62 70 -62 23 0 63 -7 90 -15 28 -9 89 -15 140
-15 l91 0 62 -69 c54 -59 69 -71 114 -81 50 -12 52 -12 142 30 51 23 99 45
107 49 8 4 41 59 72 123 53 108 61 118 110 148 29 18 74 50 99 71 33 27 65 43
115 55 70 17 244 109 244 129 0 5 24 60 54 120 45 93 62 117 111 159 68 59
109 119 125 187 7 29 20 54 31 60 17 9 19 22 19 127 l0 117 79 132 c59 99 81
148 90 194 7 34 23 78 35 98 12 20 46 79 74 132 47 87 57 99 94 113 l41 17 -7
71 c-8 93 18 175 89 278 61 88 66 108 74 299 l6 144 43 15 c26 8 42 20 42 30
0 8 14 45 31 81 29 63 33 67 93 94 l62 28 136 222 c75 122 173 287 218 367 46
80 110 186 144 235 51 76 70 118 122 270 l61 180 70 23 69 22 12 59 c12 56 16
62 80 114 82 68 152 141 219 228 45 58 52 75 62 137 6 39 11 88 11 109 0 36 6
43 73 100 47 39 96 70 133 84 85 31 120 60 128 106 4 21 22 83 41 138 52 155
52 156 8 185 -56 38 -63 48 -63 93 0 61 -39 134 -109 202 -70 68 -72 78 -45
211 l16 78 -53 47 c-52 45 -53 48 -40 73 13 23 12 29 -13 66 -27 41 -56 134
-56 180 0 51 -40 164 -80 224 -39 60 -135 148 -197 179 -38 20 -90 22 -144 5
l-39 -11 6 -209 c4 -114 4 -208 0 -208 -4 0 -20 7 -36 15 -26 13 -30 21 -30
58 -1 68 -24 153 -82 300 -51 130 -59 143 -138 232 -67 76 -108 111 -209 179
-169 113 -311 232 -345 289 -14 26 -55 76 -89 112 -74 77 -94 81 -149 28 l-38
-37 -14 35 c-37 87 -77 126 -236 225 -163 101 -240 162 -354 282 -63 66 -266
226 -376 297 -82 52 -212 193 -254 275 -22 41 -56 98 -76 125 -20 28 -45 66
-55 85 -38 75 -86 122 -160 155 -79 36 -150 48 -310 49 -105 1 -93 -2 -328 84
-61 22 -76 23 -128 15 -58 -9 -60 -9 -116 29 -75 50 -99 55 -278 63 -146 7
-151 8 -205 40 -31 19 -77 36 -105 40 -37 5 -59 16 -85 40 -19 18 -60 45 -90
60 -30 15 -91 60 -136 100 l-82 73 -87 13 c-83 12 -93 16 -164 69 -42 31 -113
88 -158 126 -74 63 -90 72 -155 87 -40 10 -100 17 -133 17 -56 0 -65 -4 -125
-48z"/>
</g>
</svg>
