<?xml version="1.0" standalone="no"?>
<!DOCTYPE svg PUBLIC "-//W3C//DTD SVG 20010904//EN"
 "http://www.w3.org/TR/2001/REC-SVG-20010904/DTD/svg10.dtd">
<svg version="1.0" xmlns="http://www.w3.org/2000/svg"
 width="1024.000000pt" height="1024.000000pt" viewBox="0 0 1024.000000 1024.000000"
 preserveAspectRatio="xMidYMid meet">
<metadata>
Created by potrace 1.10, written by Peter Selinger 2001-2011
</metadata>
<g transform="translate(0.000000,1024.000000) scale(0.100000,-0.100000)"
fill="#000000" stroke="none">
<path d="M2132 10220 c-18 -11 -42 -20 -53 -20 -11 0 -39 -10 -62 -22 -32 -17
-56 -21 -101 -19 -63 3 -87 -9 -244 -116 -35 -24 -73 -43 -84 -43 -11 0 -43
-16 -70 -35 -38 -28 -65 -38 -124 -47 -72 -11 -77 -14 -106 -54 -16 -23 -38
-44 -48 -47 -12 -3 -23 -21 -30 -48 -7 -24 -23 -64 -35 -90 -24 -46 -85 -109
-108 -109 -7 0 -20 -26 -30 -57 -10 -31 -31 -73 -47 -94 -22 -27 -30 -48 -30
-76 0 -32 -5 -42 -24 -51 -13 -6 -26 -21 -29 -34 -16 -62 -67 -191 -82 -208
-15 -17 -16 -24 -7 -46 16 -33 15 -73 -3 -104 -20 -35 -18 -58 5 -87 11 -14
20 -34 20 -45 0 -11 15 -27 35 -39 l35 -21 -21 -26 c-27 -35 -19 -63 40 -129
34 -38 51 -67 59 -104 18 -74 51 -146 72 -152 9 -2 30 -28 46 -57 29 -52 30
-54 108 -77 44 -12 87 -23 96 -23 11 0 40 -43 85 -127 37 -71 75 -138 83 -150
8 -13 65 -56 128 -98 98 -64 120 -84 154 -136 22 -34 40 -67 40 -73 0 -5 19
-29 42 -53 39 -39 42 -47 54 -131 l14 -90 -59 -123 c-68 -143 -121 -322 -121
-406 0 -32 7 -80 15 -107 8 -27 15 -62 15 -77 0 -50 70 -210 133 -303 33 -50
92 -147 130 -216 78 -141 205 -336 236 -362 12 -10 21 -28 21 -39 0 -28 63
-106 106 -131 26 -15 35 -30 49 -82 17 -61 19 -64 59 -75 22 -7 69 -24 104
-39 55 -23 66 -33 82 -68 10 -23 21 -61 25 -85 4 -24 15 -53 24 -64 10 -11 28
-37 41 -58 15 -25 27 -36 37 -33 8 4 25 9 37 12 26 6 208 -56 281 -97 28 -15
68 -32 90 -38 33 -9 61 -34 157 -140 77 -85 132 -155 158 -204 29 -53 50 -79
75 -93 19 -10 40 -31 46 -47 7 -16 24 -43 37 -59 l24 -29 34 26 35 27 31 -20
31 -20 54 35 c46 31 63 37 128 41 73 4 74 4 115 -31 23 -19 50 -37 61 -40 17
-5 19 0 19 46 l0 50 26 -23 25 -24 25 32 c14 18 34 32 45 32 18 0 19 -8 19
-105 l0 -105 63 7 c34 3 64 7 66 9 2 2 -10 14 -25 28 -24 21 -27 27 -14 35 8
6 35 8 60 5 37 -5 52 -13 86 -50 39 -43 42 -44 101 -44 36 0 63 5 65 11 2 6
-5 54 -15 106 -15 79 -16 100 -6 125 10 24 16 28 37 23 13 -3 58 0 99 7 72 12
78 15 133 69 l58 57 36 -12 c50 -17 60 -29 47 -53 -7 -14 -7 -23 1 -31 9 -9 6
-18 -10 -35 -12 -13 -22 -27 -22 -31 0 -4 27 -33 60 -64 62 -60 67 -73 54
-141 -5 -26 -11 -31 -34 -31 -15 0 -35 -9 -45 -20 -11 -12 -31 -20 -51 -20
l-32 0 -8 -67 c-6 -61 -5 -68 15 -84 23 -19 59 -15 68 7 10 26 32 14 53 -26
11 -22 32 -47 46 -56 36 -24 62 -82 53 -119 -17 -75 -10 -128 26 -184 l35 -55
-25 -26 c-14 -14 -25 -31 -25 -38 0 -15 42 -16 57 -1 7 7 40 9 94 5 123 -8
132 -8 154 -5 16 4 21 -5 30 -64 13 -76 14 -78 58 -93 20 -7 33 -18 35 -32 2
-11 10 -26 18 -32 16 -14 19 -46 4 -55 -5 -3 -17 6 -26 20 -13 20 -24 25 -60
25 -50 0 -53 -8 -22 -50 27 -37 14 -55 -43 -65 -43 -7 -71 -27 -163 -114 l-58
-56 6 52 c8 61 -3 72 -43 44 -22 -16 -30 -31 -35 -71 -4 -32 -13 -53 -22 -57
-23 -9 -64 14 -64 35 0 11 -9 31 -21 46 -16 20 -29 26 -59 26 -52 0 -87 -17
-94 -46 -6 -23 -36 -35 -36 -14 0 6 -16 10 -35 10 -31 0 -35 3 -35 25 0 23 -3
25 -50 25 -36 0 -59 7 -86 25 -20 14 -47 25 -60 25 -47 0 -78 101 -35 115 11
3 31 15 45 26 21 16 26 29 26 62 0 23 -3 52 -6 64 -8 28 -30 25 -130 -22 -39
-18 -77 -29 -83 -25 -7 4 -15 33 -18 65 -5 44 -10 59 -24 62 -10 3 -19 16 -21
32 -3 24 -5 21 -26 -23 -12 -27 -22 -63 -23 -80 -1 -39 -10 -65 -30 -94 -15
-21 -18 -21 -56 -8 -37 13 -42 12 -71 -6 -25 -15 -32 -29 -38 -66 -5 -32 -20
-64 -47 -99 -22 -29 -42 -53 -46 -53 -3 0 -38 7 -76 15 -111 23 -111 23 -224
-67 -99 -81 -102 -84 -96 -116 3 -18 9 -40 12 -49 5 -12 -2 -14 -43 -12 l-49
4 3 -47 c3 -45 2 -48 -31 -62 -26 -10 -36 -22 -40 -46 -4 -17 -16 -44 -27 -60
-12 -17 -20 -44 -20 -67 0 -30 -10 -55 -42 -102 -24 -37 -38 -65 -32 -71 21
-20 110 -47 134 -40 14 4 60 10 103 14 l77 7 2 -28 c3 -51 -3 -96 -18 -124
-11 -22 -23 -29 -60 -35 -37 -5 -44 -9 -38 -23 4 -9 9 -32 12 -53 4 -33 10
-39 65 -69 40 -21 62 -28 65 -21 2 7 12 12 21 12 37 0 48 -31 60 -163 6 -70
11 -132 11 -137 0 -5 -18 -14 -40 -20 -37 -10 -40 -14 -40 -45 0 -49 6 -60 65
-105 50 -39 56 -41 134 -44 45 -2 88 -9 96 -16 8 -7 15 -28 15 -47 0 -53 23
-94 82 -148 37 -34 72 -56 110 -68 72 -22 83 -22 102 8 9 14 25 25 36 25 30 0
87 56 114 113 13 29 30 90 37 135 l13 84 97 48 c53 27 152 65 220 85 104 31
136 36 197 33 61 -3 76 -7 85 -23 27 -50 93 -106 129 -112 34 -5 39 -3 48 21
5 15 10 39 10 54 1 33 21 62 44 62 10 0 16 -8 16 -23 0 -13 13 -36 29 -51 17
-17 31 -42 35 -65 5 -31 16 -46 59 -78 28 -22 67 -42 85 -45 29 -4 35 -1 44
21 6 17 6 44 -1 81 -6 30 -12 71 -14 90 -4 34 -4 34 12 11 70 -100 113 -118
119 -51 2 19 9 42 17 50 7 8 16 34 20 58 12 76 66 71 105 -10 22 -46 24 -60
17 -105 -7 -46 -6 -57 13 -84 18 -25 27 -29 49 -24 59 13 80 27 86 56 6 28 8
29 68 29 96 0 107 -6 107 -51 0 -33 5 -41 30 -54 16 -8 42 -15 58 -15 16 0 44
-5 61 -11 24 -9 35 -9 44 0 26 26 198 5 291 -36 32 -14 84 -27 115 -30 56 -5
56 -5 112 44 50 44 63 51 115 56 48 5 62 11 78 32 l19 26 27 -26 c23 -22 31
-25 48 -16 28 15 29 15 40 -17 7 -21 6 -35 -4 -53 -7 -13 -13 -36 -14 -50 0
-38 69 -127 149 -193 39 -32 79 -70 90 -84 l19 -26 41 27 c22 15 49 27 58 27
29 0 40 13 52 58 12 43 49 93 111 147 67 59 162 160 171 183 11 28 43 29 86 2
31 -18 37 -19 97 -6 l64 13 26 -90 25 -90 -29 -34 c-34 -38 -36 -46 -15 -63
31 -25 14 -31 -74 -24 l-89 7 -12 -44 c-8 -30 -9 -53 -2 -76 l10 -33 -61 0
c-39 1 -69 6 -81 15 -26 20 -46 19 -75 -4 l-24 -19 45 -64 c60 -85 65 -115 32
-180 -14 -29 -32 -69 -40 -91 -8 -22 -37 -80 -65 -128 -50 -88 -51 -89 -90
-89 -38 0 -39 -1 -39 -35 0 -30 5 -36 43 -54 23 -11 63 -40 90 -65 44 -41 46
-46 36 -70 -10 -21 -9 -32 6 -59 10 -20 16 -45 13 -60 -4 -20 -1 -27 10 -27 8
0 29 -9 46 -19 17 -10 45 -22 63 -26 36 -7 51 -43 31 -74 -7 -11 -10 -22 -8
-24 21 -18 136 -87 146 -87 6 0 28 13 49 30 41 33 85 39 105 15 18 -22 33 -19
65 15 16 16 37 30 46 30 41 0 49 10 43 54 -7 48 -3 59 62 157 24 37 44 72 44
77 0 22 55 62 83 62 16 0 48 -14 73 -32 l44 -32 30 29 c34 33 38 45 13 45 -10
0 -35 5 -56 11 -32 9 -42 18 -58 54 -11 24 -33 55 -51 70 -27 23 -32 35 -36
82 l-5 56 29 -6 c61 -12 122 -46 128 -72 4 -17 17 -28 45 -36 49 -15 66 -9 86
32 15 28 22 106 13 136 -5 18 61 92 100 112 38 20 36 16 97 185 10 26 31 64
49 83 l31 36 -23 15 c-37 24 -27 54 37 115 49 47 66 57 95 57 68 0 58 46 -13
56 l-47 6 -19 79 -18 79 -63 0 c-78 0 -91 20 -48 75 28 37 51 44 73 23 11 -10
14 -10 18 0 3 6 18 12 35 12 31 0 38 6 116 99 l29 35 -43 63 c-24 35 -46 76
-49 91 -19 92 -39 142 -57 142 -10 0 -18 -4 -18 -10 0 -22 -21 -8 -47 31 -22
34 -26 51 -25 104 0 35 5 72 10 81 6 11 6 29 1 48 -5 17 -9 47 -9 68 0 107
-94 144 -176 68 -27 -25 -53 -40 -69 -40 -22 0 -25 4 -25 34 0 22 9 45 24 63
14 18 25 46 29 77 8 74 63 106 113 67 15 -12 30 -21 35 -21 4 0 10 35 12 78 2
42 8 88 11 102 5 16 2 32 -7 44 -14 19 -15 19 -62 -8 -54 -30 -70 -28 -103 15
-19 24 -21 29 -7 29 20 0 88 34 109 55 9 9 16 33 16 54 0 43 -29 76 -97 110
-58 29 -113 79 -113 103 0 11 11 33 25 50 14 16 25 36 25 43 0 8 9 19 20 25
29 15 86 109 94 155 5 27 21 54 48 81 l40 41 -44 7 c-64 10 -101 -10 -198
-108 -46 -47 -88 -86 -93 -86 -4 0 -19 7 -32 16 l-25 16 45 50 c25 28 45 54
45 59 0 13 -32 11 -80 -6 -94 -33 -119 -9 -45 43 49 34 62 68 23 59 -13 -3
-51 -9 -85 -13 l-62 -6 -16 57 c-9 31 -15 59 -12 61 3 3 50 10 106 16 96 11
101 12 101 35 0 28 -32 43 -89 43 -77 0 -77 52 0 65 34 6 66 25 41 25 -22 0
-62 50 -62 78 0 16 -9 41 -20 55 -11 14 -23 39 -26 56 -4 17 -9 31 -12 31 -2
0 -22 -15 -43 -34 -40 -37 -92 -53 -137 -41 -15 4 -53 10 -85 13 -62 7 -63 8
-106 102 -7 14 -18 36 -26 50 -14 24 -13 25 15 34 23 7 30 15 30 33 0 37 -14
56 -86 114 -74 61 -109 115 -91 140 7 9 30 25 52 37 22 11 56 34 75 51 35 30
35 30 10 31 -14 0 -44 9 -65 20 -37 19 -42 19 -78 5 -24 -10 -52 -13 -77 -9
l-40 7 0 -42 c0 -40 -1 -41 -34 -41 -33 0 -35 2 -46 50 -7 28 -16 50 -20 50
-5 0 -25 -9 -44 -21 -28 -16 -45 -19 -76 -14 -58 10 -85 35 -86 82 0 21 -3 45
-7 53 -6 12 4 22 35 39 67 37 88 60 88 97 0 22 -6 37 -19 43 -10 6 -21 23 -24
38 -5 26 -55 118 -91 169 -10 15 -31 23 -65 28 -34 4 -54 13 -60 25 -13 23 -5
31 31 31 30 0 37 17 16 39 -11 11 -10 12 2 6 8 -5 27 -18 42 -28 23 -17 38
-19 102 -14 41 3 80 8 86 12 5 3 10 29 10 56 0 28 5 59 10 69 12 23 37 17 45
-11 8 -25 51 -25 65 0 5 11 10 38 10 60 0 23 9 63 19 91 l19 50 -31 0 c-76 0
-147 -35 -147 -72 0 -25 -42 -24 -65 2 -12 14 -31 20 -59 20 -33 0 -47 7 -77
36 -53 52 -93 54 -215 14 -105 -35 -142 -63 -164 -125 -7 -21 -27 -41 -64 -63
-91 -54 -100 -53 -183 25 -62 59 -72 74 -78 113 -9 57 -31 80 -112 120 -55 28
-64 35 -59 54 3 11 6 35 6 51 0 26 6 32 43 48 37 15 44 23 56 63 12 40 19 48
59 65 53 23 69 20 78 -16 6 -24 10 -25 75 -25 86 0 89 13 19 65 -35 26 -50 44
-50 60 0 29 47 69 69 59 9 -3 37 -9 64 -11 43 -5 47 -4 47 15 0 17 10 24 43
32 23 6 61 17 85 25 41 14 42 13 42 -10 0 -60 58 -30 97 50 25 50 30 55 60 55
28 0 35 5 50 38 12 24 17 54 15 85 -3 47 -4 49 -29 42 -14 -3 -40 -22 -58 -41
l-33 -35 -33 20 c-19 11 -51 41 -73 66 l-38 46 7 110 7 109 -45 0 c-43 0 -45
-1 -61 -44 -16 -42 -25 -49 -114 -97 l-97 -51 -37 42 c-55 62 -52 88 18 134
44 29 54 41 49 56 -5 15 0 23 19 32 32 14 33 23 1 44 -38 25 -70 11 -118 -51
-23 -30 -47 -55 -54 -55 -6 0 -27 22 -47 49 -34 45 -63 71 -110 96 -22 11 -54
94 -55 143 -1 17 1 32 3 32 2 0 26 4 55 10 36 7 58 6 76 -2 31 -14 35 -10 42
41 5 33 3 41 -10 41 -9 0 -39 5 -67 11 l-50 11 0 56 c0 53 2 58 29 74 17 9 41
38 55 66 24 47 29 51 76 61 28 6 81 11 118 11 56 0 79 -6 139 -34 40 -19 105
-57 146 -85 74 -49 74 -50 86 -109 15 -75 29 -89 64 -62 17 13 40 20 71 20 41
0 46 -3 52 -26 6 -24 10 -26 46 -20 22 4 53 13 69 21 15 8 50 15 76 15 26 0
43 4 36 8 -6 4 -14 24 -18 46 -6 31 -14 41 -41 52 -18 8 -51 14 -72 14 -48 0
-77 19 -68 46 5 18 75 54 104 54 7 0 25 12 39 26 15 15 40 32 57 39 50 21 93
74 100 124 l7 44 -52 -7 c-29 -4 -64 -10 -79 -13 -41 -8 -94 42 -85 80 6 23
12 27 41 27 31 0 34 3 34 30 0 24 7 33 40 50 58 29 75 25 136 -31 43 -42 54
-58 54 -84 0 -37 29 -56 72 -48 14 3 36 0 48 -7 31 -16 62 12 58 54 -3 26 -8
31 -45 41 -55 13 -65 25 -73 85 -5 42 -4 50 10 50 22 0 74 49 88 82 14 33 10
36 -93 83 -66 30 -83 35 -103 26 -31 -14 -32 -14 -32 8 0 29 -26 46 -53 34
-12 -6 -67 -53 -122 -105 -89 -84 -108 -97 -175 -120 -41 -15 -96 -28 -121
-31 -68 -6 -134 -43 -216 -120 l-72 -68 -37 40 c-35 40 -38 41 -101 41 -47 0
-71 -5 -91 -19 -15 -11 -58 -27 -97 -36 -119 -29 -175 -67 -254 -174 l-51 -68
0 -112 0 -111 -62 0 c-126 0 -148 16 -148 108 0 25 -10 62 -25 92 -14 27 -25
65 -25 85 0 45 -35 114 -99 197 -27 35 -63 90 -81 121 -27 49 -36 57 -61 57
-18 0 -29 5 -29 13 0 8 -13 33 -30 55 -36 49 -36 52 -10 52 27 0 27 39 -1 73
-19 25 -24 26 -80 20 -52 -5 -59 -4 -59 12 0 9 -13 29 -30 45 -27 25 -28 31
-20 61 19 64 15 72 -30 64 -51 -9 -62 0 -106 86 -31 63 -48 81 -144 158 -21
17 -23 22 -12 38 6 10 15 25 18 33 3 8 11 29 19 45 34 75 23 102 -38 92 -18
-3 -43 1 -57 8 -23 12 -28 11 -51 -11 l-27 -25 -58 32 c-74 42 -88 60 -95 132
-5 51 -11 63 -48 101 -40 41 -47 44 -113 50 -66 7 -69 8 -54 25 18 20 21 57 6
66 -6 4 -8 15 -5 25 4 14 -4 25 -32 44 -31 21 -49 26 -101 26 l-63 0 -27 45
c-15 24 -36 48 -47 51 -31 11 -82 6 -114 -11 -19 -10 -57 -15 -107 -15 l-77 0
-83 63 c-67 50 -84 68 -89 96 l-6 33 -53 -6 c-49 -7 -55 -5 -101 30 -39 30
-56 37 -87 35 -47 -2 -88 23 -88 55 0 13 -13 37 -30 54 -16 17 -30 35 -30 40
0 6 -14 10 -30 10 -44 0 -112 38 -210 117 -47 37 -117 90 -155 117 -39 27 -85
63 -103 80 -31 29 -39 31 -120 34 -83 4 -92 6 -205 63 -117 58 -118 58 -167
47 -49 -11 -51 -11 -92 23 l-43 34 -265 3 c-252 2 -267 2 -298 -18z"/>
<path d="M7632 6388 c2 -16 18 -30 55 -48 29 -14 53 -30 53 -37 0 -7 12 -24
28 -38 l27 -26 17 21 c11 14 38 25 77 32 54 10 63 10 81 -7 19 -17 22 -17 37
-3 24 24 10 66 -25 74 -15 3 -46 15 -70 26 -30 14 -53 18 -75 14 -88 -17 -124
-18 -161 -2 -49 20 -48 20 -44 -6z"/>
<path d="M7836 5069 c-19 -27 -20 -43 -6 -69 10 -19 11 -19 44 1 45 26 53 47
21 55 -14 3 -29 13 -34 21 -7 13 -11 12 -25 -8z"/>
<path d="M8506 4629 c-27 -22 -61 -48 -75 -58 l-26 -19 38 -7 c30 -6 42 -3 58
11 16 15 33 18 71 16 l49 -4 -26 51 c-14 28 -29 51 -33 51 -4 -1 -29 -19 -56
-41z"/>
<path d="M9103 843 c-24 -14 -43 -32 -43 -40 0 -26 19 -50 51 -63 28 -12 33
-12 46 6 15 19 11 100 -5 115 -4 4 -26 -4 -49 -18z"/>
</g>
</svg>
