<?xml version="1.0" standalone="no"?>
<!DOCTYPE svg PUBLIC "-//W3C//DTD SVG 20010904//EN"
 "http://www.w3.org/TR/2001/REC-SVG-20010904/DTD/svg10.dtd">
<svg version="1.0" xmlns="http://www.w3.org/2000/svg"
 width="1024.000000pt" height="1024.000000pt" viewBox="0 0 1024.000000 1024.000000"
 preserveAspectRatio="xMidYMid meet">
<metadata>
Created by potrace 1.10, written by Peter Selinger 2001-2011
</metadata>
<g transform="translate(0.000000,1024.000000) scale(0.100000,-0.100000)"
fill="#000000" stroke="none">
<path d="M450 9371 c-41 -22 -99 -62 -128 -88 l-54 -48 -10 -95 -10 -95 -68
-70 c-45 -46 -81 -95 -106 -145 -36 -72 -38 -82 -55 -265 -19 -202 -23 -470
-10 -647 l8 -106 102 -141 c173 -242 256 -337 332 -379 51 -28 89 -62 164
-147 54 -60 150 -165 213 -232 l116 -123 110 0 111 -1 149 58 148 58 41 60
c22 33 65 88 95 123 39 45 60 80 73 123 25 81 25 88 -16 169 -28 56 -43 74
-75 90 -28 14 -40 27 -41 43 0 12 -4 49 -9 82 -6 48 -4 74 12 130 30 105 92
221 127 240 16 8 59 37 94 64 l65 50 20 -49 20 -48 86 -7 85 -7 44 -47 c23
-25 55 -62 70 -82 14 -19 38 -42 52 -49 19 -10 30 -31 46 -84 16 -56 30 -81
67 -118 l46 -48 89 0 c68 0 97 -4 127 -20 35 -18 40 -25 40 -55 l0 -35 53 0
c62 0 97 -21 184 -111 39 -41 60 -75 87 -143 l36 -90 0 -282 0 -281 48 -18
c26 -10 73 -31 105 -47 l58 -29 33 28 c23 21 54 33 116 47 90 19 130 44 130
80 0 21 105 117 135 124 33 8 53 -17 60 -73 6 -48 11 -57 40 -75 27 -17 50
-20 147 -20 l114 0 74 -55 74 -55 97 0 98 0 36 -117 c20 -65 37 -122 39 -127
1 -5 35 -21 76 -37 92 -34 196 -38 312 -10 l77 18 193 -38 192 -39 130 -99
c113 -85 144 -103 226 -131 84 -29 103 -40 160 -95 41 -39 85 -70 120 -85 127
-52 336 -166 424 -231 86 -63 98 -69 143 -69 l49 0 37 -87 c34 -79 45 -94 107
-146 l68 -57 80 35 c44 19 83 35 86 35 4 0 16 -21 27 -46 10 -26 53 -84 94
-129 73 -80 75 -84 75 -134 l0 -53 34 21 c21 13 50 21 78 21 41 0 52 -6 139
-80 52 -44 126 -109 164 -144 39 -35 97 -77 130 -94 66 -34 105 -82 145 -184
20 -49 28 -58 54 -64 64 -13 150 -72 209 -143 32 -39 66 -72 75 -75 13 -5 94
-120 141 -203 4 -7 34 -18 67 -24 32 -6 88 -27 123 -46 l63 -36 -6 -58 -7 -58
48 -3 c47 -3 48 -4 80 -63 22 -42 57 -82 120 -138 48 -43 91 -84 94 -90 4 -7
10 -35 14 -63 l6 -51 68 -17 68 -18 41 -71 c59 -103 135 -185 319 -347 l162
-143 40 -119 c43 -128 45 -131 202 -308 36 -41 100 -126 142 -189 l75 -114
-37 -104 c-34 -95 -42 -108 -85 -142 -26 -21 -78 -73 -115 -116 -38 -43 -103
-108 -146 -145 l-77 -67 -75 29 c-88 33 -186 111 -273 214 -58 69 -288 273
-343 303 -18 10 -76 42 -130 72 -94 50 -100 56 -128 111 -20 39 -39 63 -62 74
-99 50 -208 128 -245 177 -23 28 -74 84 -114 123 -69 68 -77 73 -148 89 -81
20 -154 66 -240 154 -25 25 -81 75 -125 111 l-79 64 -181 38 c-99 20 -181 38
-182 38 -1 0 -33 44 -70 98 -56 81 -72 112 -86 174 l-18 76 -69 47 c-60 41
-77 48 -142 56 -40 4 -118 9 -173 9 l-100 1 -164 127 -164 127 -35 84 c-36 83
-37 84 -122 141 -64 43 -122 70 -229 109 l-143 51 -131 1 c-213 1 -291 11
-408 53 -102 36 -105 39 -161 105 -54 64 -58 73 -58 119 0 46 -3 53 -43 89
-24 22 -61 46 -83 53 -21 7 -54 23 -72 35 -29 20 -38 21 -82 12 -47 -9 -53
-14 -117 -97 -62 -80 -75 -91 -143 -124 l-75 -35 -255 -6 c-140 -4 -277 -7
-305 -7 -27 -1 -102 2 -165 7 l-115 8 -61 -31 c-51 -26 -80 -32 -180 -42
l-119 -11 -47 -46 c-42 -42 -47 -51 -53 -107 -10 -96 -10 -96 -52 -84 -20 5
-73 35 -119 65 -83 55 -84 57 -84 97 0 32 8 51 35 85 19 24 35 46 35 48 0 2
-13 30 -30 63 -34 66 -50 74 -150 68 l-54 -3 -9 -42 c-4 -24 -15 -44 -25 -48
-9 -4 -100 -10 -203 -13 l-185 -5 -19 29 c-10 16 -62 74 -115 129 -53 55 -113
128 -133 163 -34 58 -37 70 -37 140 0 75 -2 80 -46 151 -25 41 -74 111 -108
157 -34 45 -73 110 -87 144 -20 53 -36 73 -104 134 -137 121 -148 139 -194
324 -34 132 -41 178 -41 256 l0 96 107 214 107 214 58 28 58 28 0 59 c0 53
-19 107 -55 155 -1 1 -28 7 -59 13 l-58 10 -91 -59 c-130 -85 -174 -97 -317
-85 l-115 10 -70 -32 c-84 -39 -186 -137 -243 -234 -37 -63 -37 -64 -131 -101
l-94 -37 -38 -74 -38 -74 0 -170 -1 -170 68 -86 c44 -57 105 -118 177 -176 61
-50 182 -167 270 -261 l160 -171 133 -258 134 -258 221 -163 c215 -158 224
-166 269 -240 l48 -77 512 -147 513 -147 265 -35 c254 -35 278 -36 560 -36
351 0 657 14 833 39 l128 17 117 -85 c64 -46 150 -111 191 -143 41 -32 84 -61
95 -63 12 -3 82 -16 156 -30 103 -19 244 -61 590 -176 l455 -151 440 -215
c242 -118 630 -313 862 -434 l422 -221 283 -251 c156 -139 420 -364 587 -501
259 -211 333 -266 504 -372 110 -68 214 -126 231 -128 17 -3 127 -12 245 -21
l214 -17 123 48 124 47 0 82 c0 56 6 100 21 143 l21 63 -20 57 c-17 46 -22 91
-26 233 l-5 176 -91 233 c-75 192 -134 317 -325 689 -392 763 -308 637 -690
1042 -284 302 -388 404 -752 735 -249 226 -590 523 -830 722 l-408 338 -425
264 -425 264 -950 489 c-740 381 -1039 541 -1350 722 -220 127 -479 276 -575
331 -146 82 -234 143 -525 363 -192 146 -420 326 -505 400 -393 345 -479 408
-800 593 -126 73 -447 299 -464 327 -3 4 -77 38 -165 76 -142 62 -161 72 -166
96 -8 35 -22 40 -130 45 -89 4 -91 4 -165 -35z"/>
</g>
</svg>
