<?xml version="1.0" standalone="no"?>
<!DOCTYPE svg PUBLIC "-//W3C//DTD SVG 20010904//EN"
 "http://www.w3.org/TR/2001/REC-SVG-20010904/DTD/svg10.dtd">
<svg version="1.0" xmlns="http://www.w3.org/2000/svg"
 width="1024.000000pt" height="1024.000000pt" viewBox="0 0 1024.000000 1024.000000"
 preserveAspectRatio="xMidYMid meet">
<metadata>
Created by potrace 1.10, written by Peter Selinger 2001-2011
</metadata>
<g transform="translate(0.000000,1024.000000) scale(0.100000,-0.100000)"
fill="#000000" stroke="none">
<path d="M6473 10233 c-7 -2 -13 -12 -13 -22 0 -9 -7 -26 -15 -37 -17 -25 -36
-133 -28 -162 3 -11 -2 -52 -11 -91 -9 -38 -16 -83 -16 -99 0 -18 -10 -38 -29
-56 -16 -16 -32 -38 -35 -51 -5 -20 -12 -22 -65 -21 -57 1 -61 -1 -93 -37 -32
-37 -35 -38 -108 -40 -70 -2 -75 -1 -78 20 -2 12 -12 25 -23 28 -10 4 -25 18
-32 32 -14 25 -15 25 -127 24 -62 -1 -121 -6 -131 -12 -10 -5 -65 -10 -123
-12 -58 -1 -107 -5 -110 -7 -2 -3 -18 -82 -35 -175 -24 -129 -31 -199 -31
-292 0 -97 -4 -130 -19 -165 -38 -87 -96 -117 -150 -77 -23 17 -37 20 -64 15
-51 -10 -60 -38 -52 -166 7 -100 6 -109 -18 -156 -25 -49 -38 -134 -57 -354
-5 -52 -17 -124 -28 -160 -40 -130 -62 -221 -62 -259 0 -21 -9 -64 -20 -97
-12 -32 -52 -183 -90 -335 -72 -286 -139 -513 -164 -552 -8 -12 -28 -73 -45
-135 -19 -69 -54 -158 -90 -230 -32 -64 -61 -130 -65 -145 -3 -15 -33 -88 -66
-163 -33 -74 -60 -141 -60 -148 0 -7 -27 -51 -61 -97 -34 -46 -65 -95 -71
-109 -5 -14 -39 -69 -75 -123 -35 -54 -62 -104 -59 -112 2 -7 30 -32 60 -54
31 -23 63 -55 72 -73 l16 -31 -67 -61 c-80 -71 -151 -141 -182 -176 -12 -14
-51 -53 -87 -88 -92 -90 -110 -132 -103 -237 l6 -84 -70 -63 c-38 -35 -92 -83
-120 -108 l-50 -45 56 -165 c30 -91 92 -286 136 -435 73 -241 94 -297 200
-528 102 -225 123 -278 154 -404 25 -102 35 -167 35 -221 0 -75 1 -79 45 -143
l45 -66 -20 -59 c-16 -44 -19 -71 -14 -107 6 -47 8 -50 82 -97 l76 -48 159
-454 c117 -333 161 -472 166 -523 12 -103 165 -596 207 -665 29 -48 34 -64 34
-120 0 -47 6 -74 20 -98 28 -45 28 -139 0 -174 -19 -25 -19 -25 8 -129 28
-108 73 -199 97 -199 7 0 31 26 52 57 21 31 53 64 73 75 32 16 34 21 31 61 -2
43 21 118 45 148 30 34 64 168 64 247 0 43 4 82 9 88 12 11 45 101 82 223 25
82 29 109 29 217 0 105 3 128 20 157 12 19 24 69 31 118 10 79 14 89 75 180
92 138 97 171 53 324 -30 105 -32 118 -20 148 8 18 16 55 18 82 3 28 12 57 20
67 8 9 20 36 27 60 11 37 10 55 -6 128 -33 152 -35 164 -23 190 25 52 93 297
99 354 5 46 23 91 81 205 89 176 103 209 121 284 17 69 37 113 72 149 21 23
24 33 19 70 -4 26 1 69 10 108 14 57 24 72 74 121 l57 56 4 79 c3 66 9 91 40
154 39 80 68 148 68 160 0 4 -11 5 -25 2 -61 -11 -90 17 -110 109 -4 19 -20
61 -36 95 -50 106 -35 169 41 176 25 2 34 7 31 18 -2 8 -6 43 -9 78 -4 56 -2
66 19 88 22 24 23 25 6 54 -14 23 -15 34 -7 50 11 21 5 63 -15 95 -23 38 -25
156 -4 236 10 41 19 75 19 77 0 1 -11 2 -24 2 -16 0 -46 -19 -83 -54 -32 -29
-74 -61 -93 -71 -19 -10 -47 -32 -63 -50 -39 -47 -151 -125 -220 -153 -53 -21
-76 -24 -259 -27 -148 -2 -218 -8 -267 -20 -65 -17 -68 -17 -112 2 -38 17 -47
27 -53 53 -12 63 -6 92 40 178 51 96 84 222 84 326 0 53 3 62 35 97 19 21 37
51 41 66 3 16 7 33 9 38 1 6 53 36 114 68 84 44 111 63 111 78 0 12 13 27 29
37 17 9 34 26 40 38 6 14 19 22 36 22 14 0 37 10 50 22 20 19 36 23 114 25 50
1 94 5 98 9 4 3 -6 19 -20 34 -15 16 -27 40 -27 53 0 38 -27 56 -110 73 -41 9
-95 28 -120 44 -25 15 -67 34 -94 42 -52 14 -51 15 -82 -36 -8 -14 -27 -19
-84 -22 -83 -5 -100 6 -100 63 0 41 16 58 73 79 l47 18 0 49 c0 46 -2 51 -36
71 l-37 21 7 61 c4 34 11 86 17 116 5 30 12 82 15 115 5 55 4 64 -19 90 -19
24 -23 35 -16 53 6 15 5 31 -2 43 -6 12 -8 37 -4 58 5 29 3 40 -9 44 -19 8
-46 70 -46 108 0 21 10 36 36 56 73 56 95 79 103 110 8 26 5 37 -16 66 -25 35
-25 37 -12 104 10 52 20 75 43 96 24 23 30 38 34 85 2 31 8 62 13 68 5 6 11
37 15 69 9 72 52 125 119 148 26 9 58 31 76 52 31 35 149 125 164 125 4 0 32
-23 63 -51 53 -49 56 -50 96 -42 46 9 183 9 220 -1 37 -9 66 -82 66 -166 l0
-68 132 -42 c91 -29 137 -39 147 -33 8 5 23 41 33 79 15 57 18 90 12 192 l-6
124 33 34 34 35 -19 32 c-17 29 -27 62 -43 140 -5 26 -3 28 20 22 32 -9 72 17
85 54 7 21 22 33 55 46 34 13 45 22 45 38 0 12 5 44 12 70 9 37 9 71 0 150 -7
56 -14 131 -17 166 -3 45 -12 75 -29 101 -20 31 -23 42 -15 64 6 14 18 98 27
186 16 155 16 161 -4 225 -15 50 -17 65 -6 65 8 0 15 18 19 48 3 26 10 70 15
97 12 61 25 204 22 225 -7 33 -5 76 2 92 11 25 -24 28 -57 5 -28 -19 -28 -19
-51 2 -12 11 -29 21 -38 21 -21 0 -34 18 -45 59 -9 35 -18 43 -40 34z"/>
</g>
</svg>
