<?xml version="1.0" standalone="no"?>
<!DOCTYPE svg PUBLIC "-//W3C//DTD SVG 20010904//EN"
 "http://www.w3.org/TR/2001/REC-SVG-20010904/DTD/svg10.dtd">
<svg version="1.0" xmlns="http://www.w3.org/2000/svg"
 width="1024.000000pt" height="1024.000000pt" viewBox="0 0 1024.000000 1024.000000"
 preserveAspectRatio="xMidYMid meet">
<metadata>
Created by potrace 1.10, written by Peter Selinger 2001-2011
</metadata>
<g transform="translate(0.000000,1024.000000) scale(0.100000,-0.100000)"
fill="#000000" stroke="none">
<path d="M0 7216 l0 -376 1800 0 1800 0 0 -1409 0 -1408 48 4 c67 6 96 -16
199 -154 89 -119 93 -121 174 -137 34 -6 38 -5 47 24 6 17 18 33 27 36 8 4 51
-8 94 -26 98 -41 114 -37 109 28 -3 42 -1 47 19 50 12 2 39 -8 60 -22 21 -14
43 -26 49 -26 15 0 78 -70 98 -109 9 -16 16 -52 16 -78 0 -87 32 -118 130
-130 37 -4 61 -1 90 12 l40 18 43 -40 c42 -39 98 -63 215 -93 37 -9 51 -8 98
9 91 35 124 27 185 -43 30 -34 81 -66 107 -66 5 0 17 20 26 43 9 24 28 55 41
67 28 26 40 25 186 -15 l67 -19 32 27 c35 30 46 28 61 -11 7 -18 6 -35 -2 -55
-11 -26 -10 -31 5 -42 12 -9 15 -20 11 -37 -5 -21 -1 -27 24 -37 17 -7 43 -10
60 -6 19 4 40 1 60 -10 31 -16 37 -26 24 -39 -5 -4 -8 -27 -9 -49 0 -23 -4
-49 -8 -58 -6 -14 4 -21 55 -38 75 -25 70 -28 199 94 49 47 95 85 102 85 26 0
88 -53 88 -76 0 -54 23 -66 89 -43 24 9 39 9 57 0 23 -10 25 -16 22 -63 -3
-48 -1 -53 23 -62 40 -14 75 -1 89 34 7 18 18 29 25 26 7 -2 15 5 18 16 6 20
6 20 33 -1 l28 -22 18 35 c10 19 22 38 28 41 18 11 50 -6 65 -35 20 -39 19
-56 -7 -90 -19 -26 -20 -33 -9 -69 14 -48 55 -83 90 -79 25 3 26 5 23 66 -3
61 -3 62 22 62 31 0 34 16 6 25 -11 3 -20 13 -20 21 0 22 29 28 49 10 16 -15
19 -14 41 9 22 24 25 38 18 105 -3 22 2 25 44 33 27 5 55 7 63 4 8 -4 22 -32
31 -64 22 -77 31 -88 55 -67 18 16 21 15 57 -10 58 -40 112 -34 112 13 0 15 7
36 15 48 15 21 17 21 60 6 51 -17 62 -28 45 -48 -27 -32 25 -84 70 -70 13 4
22 -3 31 -25 13 -29 25 -35 59 -32 39 4 61 -11 96 -68 20 -33 42 -60 48 -60 6
0 22 24 36 53 26 54 27 55 95 42 39 -7 55 5 64 46 10 50 62 82 123 76 35 -3
48 0 53 11 4 11 8 12 19 3 11 -10 16 -6 23 16 l10 28 12 -23 c15 -28 31 -29
31 -2 0 32 27 35 63 8 60 -46 76 -52 98 -33 10 10 27 15 39 12 17 -4 20 0 20
25 0 30 1 30 41 24 35 -6 50 -2 106 30 35 19 70 33 78 30 8 -3 22 -20 31 -38
22 -43 21 -43 39 -28 12 10 18 10 30 0 8 -6 19 -9 25 -5 6 4 20 -1 30 -10 15
-14 30 -16 66 -11 26 3 53 11 61 18 10 8 17 8 25 0 19 -19 26 -15 47 26 10 20
31 48 45 61 l26 24 65 -18 c53 -14 65 -21 65 -37 0 -17 3 -18 14 -9 19 16 52
0 61 -29 8 -27 58 -61 85 -58 16 2 27 -6 39 -29 13 -23 21 -29 29 -21 8 8 13
3 17 -18 11 -50 14 -54 35 -54 13 0 20 -7 20 -20 0 -13 7 -20 20 -20 11 0 20
7 20 15 0 8 7 15 15 15 8 0 15 -9 15 -20 0 -19 17 -25 61 -21 10 1 21 -10 28
-30 10 -30 12 -31 56 -25 37 6 45 4 45 -8 0 -10 9 -16 23 -16 13 0 28 -5 34
-11 8 -8 13 -8 17 0 9 14 26 14 26 1 0 -5 9 -19 20 -30 11 -11 20 -17 20 -13
0 4 6 -1 13 -12 11 -14 16 -15 22 -5 4 7 21 533 37 1169 16 636 31 1199 33
1251 3 79 -15 239 -106 933 l-109 839 0 365 0 366 -4842 -2 c-2664 -2 -4918 0
-5010 4 l-168 6 0 -375z"/>
</g>
</svg>
