<?xml version="1.0" standalone="no"?>
<!DOCTYPE svg PUBLIC "-//W3C//DTD SVG 20010904//EN"
 "http://www.w3.org/TR/2001/REC-SVG-20010904/DTD/svg10.dtd">
<svg version="1.0" xmlns="http://www.w3.org/2000/svg"
 width="1024.000000pt" height="1024.000000pt" viewBox="0 0 1024.000000 1024.000000"
 preserveAspectRatio="xMidYMid meet">
<metadata>
Created by potrace 1.10, written by Peter Selinger 2001-2011
</metadata>
<g transform="translate(0.000000,1024.000000) scale(0.100000,-0.100000)"
fill="#000000" stroke="none">
<path d="M4423 10186 c48 -45 57 -58 57 -88 0 -26 -8 -42 -32 -65 -18 -17 -40
-33 -48 -35 -8 -3 -22 -24 -30 -49 -17 -49 -41 -60 -70 -34 -12 11 -20 13 -25
5 -3 -6 -29 -22 -57 -36 -82 -41 -108 -24 -108 74 0 35 -3 42 -20 42 -36 0
-43 -34 -19 -91 21 -48 21 -52 6 -79 -16 -27 -16 -31 4 -84 24 -62 21 -81 -16
-98 -23 -10 -33 -8 -80 17 -45 25 -55 27 -69 16 -37 -31 -6 -54 102 -75 82
-17 82 -38 -1 -121 -36 -36 -70 -65 -75 -65 -24 0 -44 33 -38 64 3 17 8 49 11
71 6 37 5 39 -9 21 -9 -11 -25 -44 -36 -73 l-20 -54 24 -47 c14 -26 36 -62 50
-81 14 -19 26 -39 26 -43 0 -5 -21 -28 -47 -52 -52 -48 -53 -54 -38 -183 7
-69 7 -73 -17 -94 -13 -12 -44 -29 -69 -38 l-44 -17 0 -61 c0 -74 -12 -92 -51
-74 -25 11 -26 15 -20 56 l6 45 -65 0 c-57 0 -65 -2 -65 -19 0 -10 6 -24 14
-30 23 -19 25 -47 6 -88 -32 -67 -34 -68 -68 -43 -25 18 -33 20 -51 10 -28
-14 -40 -46 -34 -87 14 -93 -34 -111 -114 -41 l-48 41 -3 -34 c-5 -52 23 -69
117 -69 115 0 153 -37 94 -92 -57 -53 -65 -53 -153 -6 -74 40 -80 42 -96 26
-21 -21 -21 -74 2 -99 9 -10 39 -26 68 -35 67 -22 77 -31 70 -63 -16 -66 -73
-111 -141 -111 -24 0 -43 -2 -43 -5 0 -4 7 -20 16 -36 19 -37 15 -78 -8 -93
-14 -9 -25 -3 -62 33 l-44 43 -51 -27 c-28 -16 -51 -32 -51 -36 0 -4 23 -12
52 -19 50 -10 88 -33 88 -52 0 -5 -25 -41 -55 -80 -30 -38 -55 -76 -55 -84 0
-8 36 -37 80 -65 44 -28 80 -58 80 -65 0 -29 -31 -74 -55 -80 -16 -4 -34 1
-52 14 -21 15 -48 21 -106 24 l-77 3 0 -43 c0 -49 23 -102 45 -102 8 0 30 7
48 16 31 15 36 15 66 0 17 -10 37 -29 44 -43 10 -22 8 -28 -12 -44 -29 -24
-97 -42 -128 -34 -13 3 -40 21 -61 39 -48 44 -73 50 -116 32 -53 -22 -49 -50
9 -65 47 -12 135 -85 135 -112 0 -8 -13 -30 -29 -49 -26 -32 -35 -35 -92 -40
-59 -5 -64 -7 -67 -30 -2 -19 9 -38 42 -72 25 -25 48 -43 50 -40 12 12 56 -11
79 -42 56 -73 44 -105 -52 -139 -36 -12 -66 -27 -68 -34 -6 -16 55 -46 90 -45
39 1 55 17 68 66 27 99 46 119 89 96 33 -18 24 -53 -34 -126 -66 -85 -95 -141
-103 -199 -5 -39 -2 -51 23 -86 28 -40 28 -41 37 -18 20 55 34 74 54 77 31 5
62 -15 69 -44 5 -20 -3 -34 -43 -77 l-50 -52 10 -61 c9 -54 8 -65 -9 -94 -31
-53 -47 -58 -97 -32 -52 27 -84 28 -92 2 -10 -32 13 -59 70 -84 29 -13 59 -34
66 -47 11 -21 8 -26 -35 -63 -25 -23 -46 -47 -46 -55 0 -8 -18 -45 -40 -82
-54 -91 -53 -125 6 -143 39 -12 63 21 72 97 13 108 34 113 105 21 67 -88 64
-112 -31 -217 -70 -77 -92 -122 -92 -190 0 -62 4 -65 75 -59 79 6 115 -12 115
-57 0 -35 -13 -47 -104 -91 -84 -42 -100 -68 -73 -125 14 -29 22 -35 48 -35
48 0 100 29 115 65 20 49 39 61 68 41 32 -21 40 -49 26 -92 -12 -35 -35 -50
-112 -77 -28 -10 -12 -32 64 -87 75 -54 83 -77 36 -94 -36 -13 -68 10 -115 80
l-37 55 -18 -48 c-25 -68 -23 -81 22 -124 53 -51 109 -68 145 -45 14 10 38 16
53 14 41 -5 40 -40 -3 -103 -52 -76 -47 -87 49 -104 l80 -14 22 29 c13 15 26
25 30 21 11 -11 -36 -113 -73 -157 -35 -41 -42 -43 -86 -25 -16 7 -17 3 -11
-33 3 -23 3 -66 -1 -97 -6 -53 -8 -55 -36 -55 -25 0 -29 4 -29 29 0 16 -7 37
-16 46 -16 15 -19 14 -48 -14 -34 -33 -52 -39 -58 -19 -3 9 -22 5 -63 -13 -50
-22 -63 -33 -82 -70 -35 -69 -32 -82 29 -97 48 -11 53 -10 75 10 20 18 26 20
48 10 39 -18 40 -16 37 38 -3 41 -1 50 13 50 26 0 73 -28 86 -51 10 -20 4 -28
-61 -89 -64 -59 -72 -71 -66 -94 5 -22 2 -27 -21 -32 -18 -5 -37 -1 -56 9 -38
22 -69 22 -65 1 2 -10 24 -24 57 -35 59 -19 71 -31 71 -70 0 -36 -18 -48 -86
-59 -68 -11 -101 -38 -110 -89 -12 -72 -25 -98 -69 -134 -49 -41 -53 -55 -29
-92 38 -59 -31 -63 -78 -5 -38 48 -70 50 -102 7 -16 -22 -21 -43 -21 -90 0
-61 0 -62 29 -65 18 -2 40 4 57 17 16 12 42 21 59 21 27 0 30 -3 30 -29 0 -55
-36 -72 -112 -51 -45 13 -100 -6 -118 -40 -7 -13 -15 -67 -19 -122 -5 -82 -10
-102 -26 -114 -34 -25 -88 -10 -129 35 -26 28 -46 27 -46 -4 0 -38 21 -75 47
-81 14 -4 43 1 65 9 48 19 78 9 78 -28 0 -27 -37 -59 -110 -95 -79 -39 -90
-55 -90 -127 0 -71 7 -88 58 -151 31 -38 34 -46 24 -67 -8 -16 -20 -25 -35
-25 -28 0 -47 19 -75 76 -29 57 -48 71 -61 45 -6 -11 -11 -31 -11 -45 0 -22 4
-26 30 -26 29 0 30 -1 30 -48 0 -41 4 -53 30 -75 17 -15 30 -34 30 -43 0 -24
-28 -72 -49 -84 -24 -12 -106 -13 -129 -1 -10 5 -33 6 -52 2 -53 -10 -46 -38
17 -76 75 -43 82 -67 44 -144 -17 -33 -31 -68 -31 -77 0 -9 22 -37 50 -62 40
-36 50 -52 50 -77 0 -31 -22 -59 -65 -83 -15 -8 426 -11 1656 -12 1520 0 1678
-1 1690 -16 11 -13 5 -41 -41 -177 -29 -89 -53 -174 -52 -189 2 -19 -9 -40
-33 -67 -36 -39 -45 -77 -23 -99 9 -9 6 -18 -15 -40 -32 -33 -32 -39 -7 -120
11 -35 20 -81 20 -103 0 -28 8 -47 29 -72 21 -23 27 -37 20 -48 -16 -25 -10
-39 17 -39 35 0 68 -37 132 -150 34 -60 59 -119 69 -163 9 -39 26 -80 39 -97
27 -31 29 -48 13 -84 -16 -35 8 -99 67 -175 45 -58 51 -62 79 -56 16 4 36 6
43 5 36 -4 69 -3 83 4 10 4 22 1 31 -7 12 -13 18 -5 48 60 30 68 40 80 109
132 91 68 102 98 34 93 -34 -3 -43 0 -43 12 0 20 30 50 70 71 39 20 77 8 115
-37 26 -30 25 -48 -1 -48 -8 0 -14 -10 -14 -25 0 -14 4 -25 8 -25 4 0 52 20
107 44 207 91 422 146 568 146 57 0 68 2 58 13 -8 8 -45 12 -111 12 -63 0
-103 4 -111 12 -16 16 7 20 147 28 l110 6 60 -46 c32 -25 62 -54 66 -64 3 -10
31 -30 61 -46 l55 -29 50 26 c33 17 59 24 77 20 21 -4 32 1 45 18 13 18 23 21
44 16 20 -5 27 -14 32 -44 6 -37 7 -37 45 -34 31 3 49 -2 79 -23 47 -33 76
-27 96 20 10 24 22 35 44 40 58 13 59 -52 -10 1625 -44 1090 -61 1573 -56
1665 21 411 123 1490 291 3080 118 1113 316 2915 354 3210 8 60 7 71 -7 80
-48 30 -103 93 -128 145 l-29 60 -1880 0 -1880 0 58 -54z"/>
</g>
</svg>
