<?xml version="1.0" standalone="no"?>
<!DOCTYPE svg PUBLIC "-//W3C//DTD SVG 20010904//EN"
 "http://www.w3.org/TR/2001/REC-SVG-20010904/DTD/svg10.dtd">
<svg version="1.0" xmlns="http://www.w3.org/2000/svg"
 width="1024.000000pt" height="1024.000000pt" viewBox="0 0 1024.000000 1024.000000"
 preserveAspectRatio="xMidYMid meet">
<metadata>
Created by potrace 1.10, written by Peter Selinger 2001-2011
</metadata>
<g transform="translate(0.000000,1024.000000) scale(0.100000,-0.100000)"
fill="#000000" stroke="none">
<path d="M0 9493 c-1 -48 354 -2870 364 -2903 11 -36 12 -58 4 -105 -9 -50 -8
-68 7 -111 18 -52 18 -53 -5 -91 l-22 -38 -46 -1973 c-31 -1352 -42 -1976 -35
-1983 7 -7 17 -7 32 2 16 11 23 11 33 1 9 -9 9 -12 0 -12 -17 0 -15 -20 5 -42
13 -15 15 -23 6 -36 -8 -14 -5 -24 18 -51 28 -34 29 -34 69 -21 50 16 71 3 40
-25 -11 -10 -20 -29 -20 -42 0 -32 35 -30 64 4 23 26 25 27 64 14 32 -11 45
-11 56 -2 7 6 18 10 24 9 6 -2 21 13 34 32 13 19 30 35 38 35 7 0 18 -16 25
-35 17 -51 55 -54 83 -5 30 50 46 53 94 15 l40 -33 56 17 55 18 41 -29 41 -29
3 -651 2 -651 503 -6 c276 -3 1615 -11 2974 -17 2712 -13 2500 -17 2533 46 15
28 15 28 -74 109 -76 70 -88 85 -81 105 13 41 47 47 125 20 81 -27 97 -23 119
35 12 31 12 48 2 99 -14 73 -11 87 30 111 54 32 65 116 14 116 -30 0 -55 -34
-55 -77 0 -41 -17 -43 -53 -5 -36 38 -67 109 -67 158 0 56 21 102 76 170 73
89 94 124 94 156 0 46 -23 29 -43 -33 -22 -64 -45 -92 -104 -120 l-43 -21 -48
24 c-33 16 -48 30 -50 46 -5 35 14 50 78 63 70 13 100 38 100 80 0 56 -87 117
-104 73 -3 -9 -6 -30 -6 -48 0 -87 -49 -135 -99 -98 -42 31 -38 51 18 103 28
26 51 56 51 66 0 10 -22 44 -50 75 -77 87 -67 118 42 118 106 0 137 23 124 94
-8 43 -36 67 -118 104 -52 24 -69 36 -74 57 -8 33 16 61 67 76 36 11 38 10
115 -49 91 -70 119 -80 163 -58 38 20 49 57 27 91 -19 28 -43 31 -100 11 -49
-17 -73 -11 -91 25 -20 39 -20 158 0 165 8 3 71 -4 139 -17 103 -18 128 -20
141 -9 24 20 18 35 -25 65 -57 40 -130 121 -130 145 0 34 25 72 85 128 31 28
54 56 51 61 -3 5 -27 14 -52 20 -67 17 -104 38 -104 61 0 24 64 77 103 86 26
5 34 1 66 -37 26 -29 42 -41 54 -36 14 5 15 11 5 39 -6 18 -16 39 -21 46 -16
21 15 35 106 48 72 11 107 25 107 45 0 4 -35 54 -77 109 l-77 102 19 33 c9 19
27 43 40 55 l22 20 59 -30 c78 -40 116 -47 137 -25 18 18 22 52 8 73 -10 16
-34 17 -109 7 -47 -7 -55 -5 -78 16 -33 31 -64 91 -64 124 0 22 4 25 34 25 28
0 40 -7 66 -40 51 -64 101 -49 115 35 4 22 11 52 17 68 l11 27 76 -6 c65 -6
80 -4 94 10 23 24 22 37 -13 106 -45 90 -45 90 59 90 l88 0 -8 -47 c-6 -31 -5
-50 2 -59 21 -25 30 -3 27 68 -2 63 0 72 21 89 13 10 42 24 64 30 69 20 83 39
78 112 -10 165 -11 160 42 215 26 28 47 60 47 70 0 10 -19 48 -41 83 -55 85
-60 102 -51 184 6 62 10 71 37 90 30 19 30 21 15 47 -18 33 -6 61 29 66 18 3
22 8 17 25 -16 57 -18 98 -6 112 19 23 58 18 86 -10 l26 -26 -26 -44 c-35 -59
-34 -81 4 -89 37 -7 77 10 86 37 4 11 -5 48 -21 88 -26 65 -27 70 -12 87 22
25 22 32 -10 97 -30 61 -26 87 17 93 58 9 80 -14 98 -103 7 -36 11 -40 36 -38
15 1 52 18 84 37 52 32 58 33 74 19 24 -21 44 -11 51 26 5 22 18 38 49 57 54
33 68 51 68 85 0 43 -9 56 -62 96 -28 20 -57 51 -64 69 -20 48 -18 107 4 127
24 22 99 22 152 1 22 -9 47 -13 55 -10 25 9 45 71 45 139 0 109 53 144 154
102 39 -17 68 -9 80 21 14 37 5 53 -44 80 -64 35 -72 59 -33 93 16 14 38 31
49 38 18 11 18 12 -8 38 -20 21 -39 29 -77 33 -59 5 -81 27 -81 79 0 38 33 65
80 67 26 1 30 7 55 76 41 115 41 122 5 164 -18 20 -37 36 -44 36 -7 0 -18 -27
-24 -60 -7 -33 -16 -60 -21 -60 -14 0 -73 44 -85 63 -16 25 10 67 57 92 29 16
38 27 42 55 10 63 27 85 67 88 49 4 67 -24 79 -119 5 -40 11 -74 13 -76 2 -3
25 7 50 22 60 35 61 64 6 134 -22 28 -43 64 -46 79 -9 44 13 108 47 136 50 42
75 35 144 -39 34 -36 67 -65 73 -65 14 0 32 40 32 70 0 13 -14 27 -39 40 -47
23 -81 64 -81 96 0 34 42 61 118 74 37 6 77 18 90 26 27 18 29 55 3 78 -18 16
-22 16 -50 2 -45 -24 -69 -20 -106 17 -48 48 -55 105 -21 158 35 52 63 63 117
44 86 -31 114 -15 193 110 l31 50 78 0 c58 0 80 4 87 15 19 29 13 35 -70 65
-37 14 -59 29 -70 48 -14 25 -13 30 5 64 11 20 32 45 47 56 l28 21 60 -47 c81
-64 121 -62 120 6 -1 29 -14 45 -82 96 -59 44 -82 85 -72 127 l6 24 -675 0
-675 0 47 87 c36 69 67 108 144 185 66 65 97 104 97 119 0 49 79 128 167 165
25 11 173 183 173 202 0 7 -7 27 -16 44 -15 28 -14 33 5 78 12 27 21 57 21 68
0 25 -33 54 -100 87 -30 15 -58 33 -62 39 -4 6 -7 32 -6 58 2 34 -3 52 -17 68
-16 18 -17 26 -8 50 l11 30 -42 -30 c-46 -34 -66 -32 -91 6 l-15 24 -4525 0
c-2489 0 -4525 -3 -4525 -7z"/>
</g>
</svg>
