<?xml version="1.0" standalone="no"?>
<!DOCTYPE svg PUBLIC "-//W3C//DTD SVG 20010904//EN"
 "http://www.w3.org/TR/2001/REC-SVG-20010904/DTD/svg10.dtd">
<svg version="1.0" xmlns="http://www.w3.org/2000/svg"
 width="1024.000000pt" height="1024.000000pt" viewBox="0 0 1024.000000 1024.000000"
 preserveAspectRatio="xMidYMid meet">
<metadata>
Created by potrace 1.10, written by Peter Selinger 2001-2011
</metadata>
<g transform="translate(0.000000,1024.000000) scale(0.100000,-0.100000)"
fill="#000000" stroke="none">
<path d="M2766 8443 c-163 -3 -168 -4 -152 -22 9 -10 14 -25 10 -35 -8 -20
-47 -21 -64 -1 -16 19 -25 13 -39 -26 l-11 -31 48 4 c42 3 47 1 50 -18 2 -14
-8 -31 -29 -48 l-32 -27 45 -47 c50 -51 68 -81 68 -109 0 -12 12 -23 34 -31
42 -16 50 -35 30 -73 -8 -17 -14 -40 -12 -51 4 -29 28 -36 28 -9 0 30 74 101
105 101 15 0 41 -14 62 -34 l37 -34 -19 -42 c-18 -41 -18 -43 -1 -56 15 -10
17 -21 12 -49 -7 -34 -4 -39 38 -76 57 -50 62 -68 36 -118 -23 -46 -50 -53
-83 -23 -19 17 -20 17 -3 -15 9 -18 19 -54 23 -80 3 -27 10 -56 14 -65 12 -23
-15 -48 -50 -48 -33 0 -51 16 -51 48 0 30 -22 24 -30 -9 l-6 -24 -16 25 c-9
14 -19 35 -23 48 -4 13 -12 21 -18 18 -7 -2 -28 -10 -48 -16 l-36 -12 21 -38
c18 -34 19 -41 6 -65 -14 -25 -13 -28 9 -46 30 -24 57 -17 92 22 31 36 49 37
49 4 0 -49 32 -145 49 -145 31 0 117 -48 144 -79 29 -35 35 -82 15 -126 -14
-30 -22 -31 -56 -4 l-26 20 -17 -22 c-14 -19 -20 -21 -32 -10 -13 10 -19 9
-38 -10 -18 -18 -21 -29 -16 -73 8 -81 39 -162 59 -158 28 5 54 -15 108 -79
58 -69 68 -64 13 8 -128 168 -128 166 -94 197 11 10 21 32 23 50 3 30 4 31 48
28 50 -4 81 -25 63 -43 -6 -6 -9 -29 -6 -52 13 -126 12 -123 84 -212 67 -81
73 -85 106 -83 43 4 54 -14 19 -30 -21 -9 -25 -19 -28 -64 -3 -52 -3 -53 -47
-68 l-44 -15 -24 -90 c-17 -61 -35 -103 -56 -130 -34 -43 -36 -58 -22 -183 7
-58 6 -65 -17 -90 -51 -57 -52 -59 -28 -92 12 -16 27 -30 34 -30 22 0 66 -40
66 -60 0 -27 -28 -46 -49 -33 -25 16 -56 -9 -43 -34 5 -10 12 -37 15 -60 3
-23 15 -56 28 -74 19 -27 21 -36 12 -60 -8 -20 -8 -29 1 -32 12 -5 56 -132 56
-164 0 -25 -25 -48 -75 -69 -22 -9 -48 -23 -57 -31 -16 -15 -16 -16 3 -32 18
-15 18 -18 4 -38 -23 -33 -47 -28 -102 21 l-49 45 4 -30 c2 -16 -2 -39 -10
-52 -9 -12 -28 -53 -45 -92 -35 -84 -116 -210 -149 -231 -12 -9 -33 -14 -45
-12 -20 3 -83 70 -116 124 -9 16 -12 12 -18 -34 -6 -43 -10 -50 -21 -41 -8 6
-14 27 -14 45 0 40 -5 41 -44 9 -27 -21 -29 -26 -18 -49 8 -18 8 -34 1 -55 -7
-21 -7 -36 1 -50 12 -23 6 -41 -14 -41 -17 0 -36 43 -36 81 l0 31 -49 -36
c-27 -20 -51 -36 -55 -36 -14 0 -4 21 24 53 17 19 30 39 30 44 0 5 13 30 30
56 34 54 31 58 -15 18 -18 -16 -37 -30 -42 -32 -6 -2 -16 -17 -24 -34 -15 -32
-35 -41 -59 -25 -13 8 -11 13 13 32 15 13 31 36 35 52 5 16 15 32 23 36 79 37
74 29 77 115 1 44 8 91 15 104 7 15 37 36 73 52 l60 28 -4 61 c-3 37 0 66 6
72 14 14 25 -14 44 -102 12 -61 12 -64 -15 -111 -30 -55 -34 -90 -12 -109 8
-7 15 -19 15 -28 0 -8 10 -30 21 -49 25 -39 39 -31 39 25 0 22 5 32 15 32 28
0 28 30 -1 71 -25 37 -27 43 -15 72 7 18 17 46 22 64 12 38 101 113 135 113
31 0 30 -10 -5 -44 -16 -16 -27 -34 -25 -40 3 -7 -4 -21 -16 -31 -23 -21 -28
-78 -6 -69 7 3 30 -2 50 -10 20 -8 43 -13 51 -10 11 4 15 -1 15 -16 0 -22 1
-23 20 -5 24 22 25 36 4 77 -15 28 -14 33 5 79 16 35 20 59 15 87 -4 25 -2 42
5 46 6 4 11 28 11 54 0 32 8 61 25 91 27 46 23 60 -17 61 -13 0 -16 9 -15 45
3 67 -14 76 -62 32 -45 -40 -91 -67 -117 -67 -16 0 -15 2 2 21 10 11 31 28 46
37 16 9 28 19 28 22 0 10 -71 41 -80 35 -12 -7 -30 28 -30 58 0 14 8 35 18 47
l18 23 23 -62 c20 -55 42 -81 70 -81 17 0 25 71 11 104 -6 17 -16 53 -22 81
-5 27 -21 62 -34 78 -48 57 -19 65 38 10 21 -20 39 -35 41 -32 1 2 13 26 25
53 l23 49 45 -7 c55 -7 66 9 34 52 -19 25 -20 32 -9 49 10 18 9 25 -9 48 -12
15 -22 42 -22 59 0 62 -19 105 -48 112 -15 4 -38 13 -52 22 l-25 15 19 -29
c40 -61 44 -70 50 -122 5 -35 3 -59 -5 -68 -16 -20 -29 -8 -29 27 0 16 -4 29
-8 29 -15 0 -148 -144 -166 -179 -10 -18 -23 -63 -30 -100 -11 -60 -16 -69
-55 -98 -31 -24 -49 -31 -66 -27 -17 4 -37 -3 -70 -27 -25 -18 -45 -36 -45
-40 0 -4 -14 -20 -31 -36 -55 -51 -219 -342 -219 -388 0 -21 5 -25 28 -25 15
0 36 -7 47 -15 17 -14 22 -12 55 19 36 35 210 129 220 120 3 -3 -3 -11 -13
-18 -9 -7 -17 -18 -17 -24 0 -19 -41 -51 -87 -66 -25 -9 -68 -29 -95 -47 -47
-28 -54 -30 -92 -20 -33 8 -44 7 -58 -6 -10 -8 -25 -13 -34 -9 -33 12 -10 84
92 291 87 176 106 207 156 256 32 30 58 60 58 66 0 5 9 18 20 28 16 14 19 26
14 52 -5 27 -1 42 21 72 22 33 25 43 15 61 -14 26 -9 92 8 98 8 2 12 -8 12
-32 0 -37 13 -48 24 -20 3 9 6 33 6 54 0 41 16 62 31 39 24 -39 22 -104 -4
-179 -31 -87 -33 -108 -12 -116 21 -8 44 13 38 34 -2 10 5 42 16 70 12 29 21
66 21 82 0 28 20 54 76 94 15 12 16 18 7 39 -15 32 -7 39 33 31 26 -5 34 -2
43 15 9 17 8 22 -8 31 -11 5 -22 19 -26 29 -4 13 -12 17 -25 14 -22 -6 -26 8
-9 39 14 27 5 57 -31 103 -32 40 -40 85 -15 85 11 0 12 5 5 26 -6 14 -10 40
-10 57 -1 27 -2 29 -11 14 -8 -13 -7 -27 2 -48 9 -22 9 -33 1 -41 -16 -16 -33
1 -66 63 l-28 51 30 28 c21 19 29 34 25 48 -4 17 -11 19 -46 15 -45 -6 -91
-26 -102 -44 -4 -5 -9 -23 -11 -39 -4 -24 2 -34 36 -61 24 -19 40 -41 40 -53
0 -34 -37 -86 -61 -86 -21 0 -21 1 -5 19 27 30 16 62 -32 94 -36 24 -43 34
-39 54 4 23 3 24 -52 21 -62 -3 -58 4 -46 -88 l6 -45 -25 27 c-15 17 -27 46
-32 75 -6 38 -17 57 -57 100 -64 68 -93 70 -164 15 l-48 -39 -115 5 c-69 3
-126 10 -142 18 -15 8 -40 14 -56 14 -15 0 -37 7 -48 15 -25 19 -49 19 -79 -1
-23 -15 -27 -14 -78 15 -61 35 -80 37 -153 17 -42 -11 -68 -11 -150 0 -190 24
-238 40 -297 95 -73 69 -159 113 -204 106 -27 -5 -42 -1 -61 13 -13 11 -33 20
-42 20 -28 0 -121 52 -221 124 -79 56 -98 66 -134 66 -29 0 -45 5 -49 15 -4
11 -21 15 -62 15 l-56 0 20 -32 c11 -18 34 -39 51 -47 36 -17 38 -34 12 -77
-21 -35 -33 -90 -32 -153 0 -30 -7 -54 -24 -79 -30 -45 -31 -55 -4 -99 15 -24
24 -62 30 -120 18 -171 84 -383 120 -383 11 0 29 -12 42 -27 12 -16 43 -48 70
-73 33 -32 47 -53 47 -72 0 -16 11 -38 28 -55 47 -47 131 -382 152 -609 5 -62
15 -126 20 -141 20 -53 64 -128 91 -154 31 -29 39 -53 79 -249 25 -120 30
-170 30 -285 0 -154 5 -174 39 -155 15 8 19 15 13 23 -16 21 -25 146 -12 162
21 25 101 19 140 -10 43 -32 51 -45 39 -67 -9 -16 -5 -18 31 -18 23 0 55 -8
73 -17 18 -9 56 -17 89 -17 34 -1 57 -5 55 -11 -5 -15 -127 -73 -171 -81 -46
-8 -136 -69 -136 -93 0 -9 9 -22 20 -29 11 -7 20 -20 20 -29 0 -15 -2 -15 -17
-1 -10 9 -35 23 -56 32 -36 15 -38 17 -32 50 7 36 -8 57 -27 38 -8 -8 -7 -25
1 -57 7 -26 18 -94 26 -152 15 -116 17 -120 100 -152 l50 -19 3 29 c4 33 3 33
37 17 23 -10 29 -9 52 17 25 26 27 27 40 9 7 -10 13 -20 13 -23 0 -3 13 -15
29 -26 31 -20 32 -35 3 -35 -44 -1 -102 -85 -102 -147 0 -14 -4 -21 -10 -18
-16 10 -12 -1 25 -76 l36 -70 -32 -56 -32 -56 26 -19 c33 -24 34 -37 5 -73
-20 -26 -22 -27 -35 -9 -7 10 -13 29 -13 44 0 14 -8 36 -17 50 l-17 24 -12
-29 c-11 -26 -9 -33 12 -58 13 -16 22 -32 19 -37 -3 -4 2 -10 10 -14 10 -3 15
-19 15 -46 0 -44 -3 -46 -39 -26 -14 8 -30 12 -37 9 -18 -7 -24 31 -30 217 -6
149 -9 180 -26 208 -15 25 -17 36 -9 46 12 14 0 31 -13 19 -3 -4 -4 -133 0
-287 3 -165 2 -305 -4 -339 -9 -55 1 -89 15 -50 11 33 36 53 64 53 22 0 35
-11 66 -57 54 -81 77 -86 148 -32 51 38 59 41 78 30 17 -11 22 -11 31 0 14 18
62 49 76 49 6 0 19 -14 30 -32 29 -48 83 -61 177 -43 92 18 109 11 154 -61 46
-74 169 -164 223 -164 8 0 36 18 61 40 25 22 56 40 68 40 30 0 127 -59 252
-152 102 -77 104 -79 131 -150 15 -40 40 -91 55 -112 22 -30 29 -51 29 -86 0
-26 7 -67 16 -93 13 -37 13 -53 4 -81 -10 -31 -8 -43 19 -108 30 -72 30 -74
16 -128 -13 -50 -13 -57 3 -85 26 -43 120 -88 253 -120 63 -14 124 -33 136
-41 15 -9 36 -12 65 -8 31 4 58 0 96 -15 29 -12 63 -21 77 -21 76 0 410 151
495 224 64 55 83 61 158 51 76 -10 75 -10 213 21 l120 26 66 -28 c63 -26 68
-27 126 -15 l59 12 87 -41 c47 -23 89 -47 93 -53 4 -7 8 -26 8 -43 0 -32 15
-54 37 -54 8 0 41 19 74 42 52 37 68 43 132 49 64 6 74 5 94 -13 l22 -21 73
47 c40 26 120 71 179 101 136 69 162 71 247 14 77 -52 109 -59 200 -43 134 23
213 52 258 95 28 28 59 45 102 59 34 10 81 29 105 43 56 33 128 53 267 72 63
10 124 22 135 28 11 5 54 37 95 69 81 62 99 67 165 44 36 -13 52 -12 140 4 55
10 123 25 152 33 46 14 58 14 105 1 110 -30 159 -15 265 80 l51 46 1352 0
c1284 0 1352 1 1345 18 -4 9 -12 36 -18 59 -7 28 -18 45 -33 52 -28 12 -30 24
-10 41 8 6 20 28 27 48 6 20 18 46 25 56 11 17 9 24 -17 60 -23 33 -28 48 -23
73 5 25 1 39 -20 66 -28 37 -32 53 -14 59 11 4 -3 23 -71 94 l-34 36 22 61 21
62 0 2513 0 2512 -3577 -2 c-1968 -1 -3654 -4 -3747 -5z"/>
<path d="M2384 7978 c-4 -5 0 -14 7 -19 20 -13 29 -11 29 5 0 18 -27 29 -36
14z"/>
<path d="M2213 7873 l-23 -15 23 -18 c27 -23 37 -17 37 21 0 33 -5 35 -37 12z"/>
<path d="M2322 7833 c-77 -83 -107 -148 -61 -136 11 3 18 11 15 19 -3 7 1 17
8 23 15 13 40 -18 52 -63 6 -24 11 -26 55 -26 61 0 63 13 14 109 -29 59 -32
71 -20 81 21 17 32 6 38 -39 3 -26 18 -56 42 -86 41 -49 55 -56 55 -25 0 10
16 32 35 47 19 15 35 31 35 35 0 11 -112 84 -149 96 -56 19 -72 14 -119 -35z"/>
<path d="M2690 7866 c0 -15 29 -62 49 -80 24 -22 37 -16 23 11 -12 22 -72 80
-72 69z"/>
<path d="M2092 7693 c-12 -2 -27 -14 -33 -25 -9 -17 -9 -20 4 -15 26 10 28 -5
5 -30 -21 -22 -21 -26 -9 -76 15 -59 39 -90 84 -108 18 -7 48 -23 67 -36 52
-35 63 -30 39 17 -26 50 -22 73 16 80 28 6 29 7 8 14 -13 4 -23 14 -23 22 0 8
-27 40 -61 71 -41 39 -59 63 -56 75 5 18 1 19 -41 11z"/>
<path d="M2628 7635 c-9 -19 -9 -28 0 -37 7 -7 12 -20 12 -30 0 -11 7 -18 19
-18 26 0 33 45 12 81 -20 35 -28 36 -43 4z"/>
<path d="M2270 7621 c0 -5 7 -12 16 -15 9 -4 14 -13 10 -21 -4 -11 2 -15 23
-15 35 0 46 22 22 44 -19 17 -71 22 -71 7z"/>
<path d="M2500 7600 c0 -10 5 -30 11 -44 10 -21 15 -23 30 -15 24 12 24 41 1
62 -25 23 -42 21 -42 -3z"/>
<path d="M2740 7565 c0 -44 0 -44 27 -34 14 5 34 7 42 4 9 -3 -2 12 -24 34
-21 23 -40 41 -42 41 -2 0 -3 -20 -3 -45z"/>
<path d="M2388 7543 c-21 -25 -38 -79 -38 -124 0 -37 2 -39 50 -56 50 -18 59
-26 40 -38 -20 -12 -10 -26 11 -14 12 6 31 9 43 7 17 -4 21 1 22 24 1 29 -14
36 -34 16 -9 -9 -16 0 -32 36 -24 56 -25 81 -6 118 12 23 12 27 -3 32 -9 3
-21 8 -27 11 -6 3 -17 -2 -26 -12z"/>
<path d="M2740 7261 c-17 -5 -26 -16 -31 -38 -3 -17 -18 -53 -33 -79 -38 -67
-98 -214 -94 -230 2 -7 26 -27 53 -46 32 -21 51 -41 53 -56 3 -20 8 -22 32
-17 23 5 35 1 56 -20 25 -25 26 -29 19 -96 -5 -50 -4 -74 5 -85 10 -11 10 -21
2 -38 -13 -29 -4 -42 39 -64 27 -14 33 -22 31 -44 -2 -22 1 -25 18 -21 11 3
23 9 26 14 9 15 40 10 68 -12 21 -16 26 -29 26 -64 0 -48 1 -50 46 -59 30 -7
32 -5 39 26 16 73 2 198 -22 198 -8 0 -45 29 -82 65 -37 36 -73 65 -79 65 -9
0 -10 -16 -6 -54 8 -70 0 -106 -26 -106 -16 0 -18 5 -14 33 3 19 -3 56 -15 91
-12 33 -21 75 -21 95 0 70 -43 172 -78 186 -7 3 -34 0 -58 -6 -38 -10 -48 -9
-61 4 -21 21 -10 34 38 42 44 8 59 27 40 57 -6 10 -9 23 -6 28 9 14 45 12 46
-2 0 -7 5 -3 11 10 13 26 37 28 78 7 33 -17 57 -11 66 17 7 22 -30 67 -78 95
-22 14 -25 21 -21 50 9 52 -12 69 -67 54z"/>
</g>
</svg>
