<?xml version="1.0" standalone="no"?>
<!DOCTYPE svg PUBLIC "-//W3C//DTD SVG 20010904//EN"
 "http://www.w3.org/TR/2001/REC-SVG-20010904/DTD/svg10.dtd">
<svg version="1.0" xmlns="http://www.w3.org/2000/svg"
 width="1024.000000pt" height="1024.000000pt" viewBox="0 0 1024.000000 1024.000000"
 preserveAspectRatio="xMidYMid meet">
<metadata>
Created by potrace 1.10, written by Peter Selinger 2001-2011
</metadata>
<g transform="translate(0.000000,1024.000000) scale(0.100000,-0.100000)"
fill="#000000" stroke="none">
<path d="M0 5890 l0 -1570 1170 0 1170 0 2 -767 3 -768 3944 -3 c3506 -2 3942
0 3931 13 -7 8 -27 15 -44 15 -56 0 -71 38 -40 102 l15 33 -56 59 c-39 41 -54
64 -50 77 3 11 8 28 11 39 4 17 1 20 -26 20 -44 0 -70 17 -70 45 0 30 -41 59
-74 53 -41 -8 -52 6 -28 37 l21 27 -24 48 c-13 26 -22 56 -18 68 3 12 -5 35
-21 58 -32 48 -32 58 -1 78 14 9 25 26 25 37 0 26 -22 20 -35 -9 -11 -25 -51
-30 -77 -9 -25 18 -33 80 -14 96 33 27 5 91 -52 120 -36 19 -92 87 -92 113 0
6 16 26 34 43 l35 32 -15 58 -16 59 26 19 c31 23 32 30 5 68 -17 24 -19 35
-11 58 9 25 7 32 -14 52 -19 18 -23 29 -18 52 4 21 1 32 -11 41 -16 12 -16 15
-1 43 14 28 14 35 0 77 -17 50 -9 76 24 76 33 0 -4 19 -43 22 -33 2 -41 7 -43
26 -2 13 2 29 8 37 6 7 8 24 5 38 -5 20 -2 28 17 38 23 12 38 28 38 41 0 4
-22 19 -49 33 -60 30 -68 41 -40 55 16 9 19 18 15 36 -4 14 -4 30 0 36 4 5 8
28 9 49 3 39 3 39 -34 39 -32 0 -45 8 -99 63 -59 60 -74 88 -52 102 6 4 -2 21
-20 41 -30 35 -31 43 -2 77 14 16 13 20 -9 43 l-24 25 24 18 c20 16 22 23 16
59 -6 35 -4 43 14 54 30 19 26 50 -9 70 -18 10 -30 25 -30 37 0 11 -11 37 -25
57 -26 39 -33 74 -14 74 7 0 9 9 6 22 -3 12 -2 29 4 39 11 21 -11 39 -71 58
-28 9 -41 22 -63 64 -24 47 -27 59 -19 95 l10 41 -52 33 c-47 30 -51 37 -54
75 -2 27 3 51 12 65 22 31 20 43 -9 72 -14 14 -25 33 -25 42 0 9 -13 31 -29
50 -25 28 -29 38 -24 76 3 24 17 60 31 81 37 55 24 72 -56 72 -53 0 -64 4 -91
29 -28 27 -32 28 -60 16 -16 -6 -34 -10 -39 -9 -19 7 -132 151 -132 167 0 10
4 32 9 50 l10 32 -45 0 c-47 0 -66 13 -95 67 -19 36 -59 47 -114 32 -41 -12
-52 -6 -57 31 -3 23 -8 26 -76 32 -116 12 -192 54 -238 133 -8 15 -24 19 -80
20 -38 1 -81 5 -97 9 -17 5 -32 4 -42 -4 -10 -8 -80 -11 -255 -9 l-241 3 -68
-68 c-55 -55 -75 -68 -108 -73 -47 -6 -82 10 -135 61 -25 24 -88 60 -185 104
-199 91 -233 111 -261 152 -13 19 -31 38 -40 42 -9 4 -1472 7 -3249 7 l-3233
1 0 -1570z"/>
</g>
</svg>
