<?xml version="1.0" standalone="no"?>
<!DOCTYPE svg PUBLIC "-//W3C//DTD SVG 20010904//EN"
 "http://www.w3.org/TR/2001/REC-SVG-20010904/DTD/svg10.dtd">
<svg version="1.0" xmlns="http://www.w3.org/2000/svg"
 width="1024.000000pt" height="1024.000000pt" viewBox="0 0 1024.000000 1024.000000"
 preserveAspectRatio="xMidYMid meet">
<metadata>
Created by potrace 1.10, written by Peter Selinger 2001-2011
</metadata>
<g transform="translate(0.000000,1024.000000) scale(0.100000,-0.100000)"
fill="#000000" stroke="none">
<path d="M5231 9442 c-10 -18 -20 -22 -63 -22 -41 0 -57 -5 -77 -25 -23 -21
-31 -23 -63 -16 -54 12 -75 -14 -41 -51 16 -18 16 -19 -22 -17 -47 3 -89 -16
-81 -37 3 -8 9 -21 12 -29 4 -11 0 -15 -15 -15 -18 0 -21 -6 -21 -40 0 -22 -2
-40 -5 -40 -3 0 -24 9 -46 20 -37 19 -40 20 -45 3 -3 -10 -9 -26 -14 -35 -7
-13 -3 -22 18 -38 l27 -21 -42 4 c-36 4 -44 2 -58 -19 -11 -18 -22 -23 -38
-19 -16 4 -29 -1 -46 -19 -28 -30 -22 -56 13 -56 19 0 24 -4 19 -16 -4 -10 1
-22 11 -30 15 -10 15 -15 4 -33 -17 -28 1 -48 30 -32 11 6 31 11 44 11 13 0
34 7 47 16 22 16 23 16 12 -5 -7 -11 -27 -28 -46 -36 -40 -16 -43 -25 -14 -51
17 -15 23 -16 40 -6 16 11 19 9 19 -8 0 -22 15 -25 69 -14 21 5 31 12 31 25 0
11 7 19 15 19 8 0 15 -4 15 -10 0 -19 25 -9 63 25 20 20 37 40 37 45 0 9 40
30 56 30 11 0 1 -32 -26 -83 -24 -43 -38 -58 -65 -67 -19 -6 -37 -15 -40 -19
-2 -4 16 -32 40 -60 25 -29 45 -57 45 -62 0 -20 -26 -6 -76 41 -48 45 -57 50
-100 50 l-46 0 6 -31 c3 -17 6 -42 6 -54 0 -16 8 -26 28 -33 33 -11 82 -87 82
-126 0 -23 4 -26 33 -26 18 0 38 5 45 12 19 19 26 1 12 -34 -8 -18 -15 -34
-16 -36 -1 -2 -16 4 -34 13 -27 14 -38 15 -81 4 -40 -11 -49 -17 -49 -35 0
-13 -4 -26 -10 -29 -12 -8 -13 -95 -1 -95 5 0 14 7 22 16 12 14 14 14 25 -1 9
-12 19 -15 35 -10 18 6 21 4 16 -9 -8 -21 13 -76 37 -95 14 -12 19 -10 37 13
27 35 34 27 18 -18 -12 -33 -16 -36 -54 -36 -36 0 -42 4 -60 38 -17 32 -26 37
-59 40 -36 3 -38 2 -32 -20 3 -13 6 -33 6 -45 0 -16 6 -23 20 -23 23 0 23 0
11 -33 -6 -14 -18 -28 -28 -31 -26 -8 -65 -91 -57 -121 8 -34 62 -43 112 -21
35 16 39 16 77 -4 51 -26 69 -27 55 -1 -15 28 -14 29 26 37 28 5 38 3 49 -12
13 -18 15 -17 25 14 11 29 16 32 51 32 38 0 39 -1 39 -37 l0 -37 35 34 c19 19
37 42 41 52 3 10 11 18 19 18 7 0 18 13 23 29 9 25 7 32 -10 48 -15 13 -22 15
-25 6 -7 -20 -43 4 -43 28 0 16 -4 19 -17 14 -10 -4 -39 -11 -65 -15 l-48 -6
0 34 c0 33 1 34 18 19 31 -28 69 -21 114 22 l41 38 -22 37 -23 36 25 0 c28 0
77 35 77 55 0 8 -7 18 -16 23 -14 8 -14 11 7 26 l24 17 -22 18 c-19 16 -20 21
-9 30 19 16 8 51 -20 62 -13 4 -24 13 -24 19 0 6 -11 8 -26 4 -19 -5 -25 -4
-20 5 4 6 24 11 45 11 45 0 51 4 44 32 -5 16 -11 19 -34 14 -98 -20 -92 -20
-80 3 7 11 21 21 33 21 12 0 37 14 54 31 27 26 31 35 23 55 -8 22 -6 24 15 18
19 -4 27 1 45 29 27 44 27 67 0 67 -16 0 -19 3 -12 13 6 6 13 23 16 37 23 105
57 230 67 253 11 22 11 32 0 52 -17 31 -24 26 -60 -46 -17 -33 -37 -59 -45
-59 -13 0 -12 7 5 40 l21 40 -21 8 c-19 7 -19 8 7 24 16 9 42 40 59 70 27 46
30 60 27 109 l-5 56 -56 27 c-62 31 -57 33 -104 -35 l-17 -24 -1 30 c-1 17 -5
39 -9 50 -8 19 -8 19 -20 -3z"/>
<path d="M4510 8900 c0 -10 8 -24 18 -29 15 -9 15 -12 2 -21 -8 -6 -25 -8 -37
-5 -19 5 -23 1 -23 -20 0 -14 7 -28 15 -31 20 -8 19 -43 0 -51 -9 -3 -23 -19
-31 -35 -15 -29 -15 -31 13 -60 l28 -31 -27 7 c-26 6 -28 4 -28 -23 0 -16 7
-34 15 -41 8 -7 15 -24 15 -39 1 -14 6 -36 13 -49 l13 -22 39 20 c50 26 51 26
64 -10 9 -28 9 -30 -16 -30 -15 0 -37 -10 -49 -21 l-23 -22 22 -39 c15 -26 31
-41 50 -45 22 -4 25 -8 16 -19 -17 -21 13 -60 52 -68 45 -9 49 -8 49 12 0 9 9
23 20 30 17 10 20 10 20 -4 0 -8 5 -12 10 -9 6 3 10 17 10 30 0 18 4 22 20 18
16 -4 20 0 20 22 0 55 22 103 61 135 39 31 39 31 24 60 -14 28 -28 34 -65 32
-20 -1 -30 17 -30 54 0 17 -7 37 -14 44 -8 6 -16 30 -18 53 l-3 42 -16 -34
-15 -35 -13 32 c-11 26 -19 32 -42 32 -26 0 -29 4 -29 30 0 51 -46 129 -85
146 -44 18 -45 18 -45 -6z"/>
<path d="M4303 8653 c-21 -8 -15 -48 11 -72 l23 -22 7 23 c10 39 7 66 -10 72
-9 3 -16 6 -17 5 -1 0 -8 -3 -14 -6z"/>
<path d="M4084 8480 c-29 -11 -21 -60 16 -95 35 -34 30 -65 -11 -65 -27 0 -27
-1 -18 -29 9 -27 13 -29 35 -21 41 16 92 -12 112 -59 15 -36 45 -61 73 -61 6
0 9 33 6 89 -4 69 -9 96 -25 118 -31 44 -69 76 -81 68 -7 -3 -11 2 -11 14 0
22 -35 51 -60 50 -8 0 -24 -4 -36 -9z"/>
<path d="M3800 8405 c-25 -13 -55 -24 -67 -25 -36 0 -29 -30 7 -30 17 0 30 -5
30 -10 0 -6 6 -10 13 -8 6 1 25 -6 40 -16 28 -19 29 -19 49 1 20 21 20 22 3
67 -10 25 -20 46 -24 46 -3 -1 -26 -12 -51 -25z"/>
<path d="M4350 8322 c0 -36 5 -54 20 -67 23 -21 26 -41 8 -48 -10 -3 -10 -11
2 -34 l15 -30 52 23 51 23 -11 43 c-6 24 -20 55 -31 71 -20 27 -78 67 -97 67
-5 0 -9 -22 -9 -48z"/>
<path d="M3698 8278 c-19 -6 -28 -17 -28 -32 0 -12 -6 -28 -12 -35 -11 -10
-10 -14 5 -22 9 -6 17 -19 17 -30 0 -18 6 -20 47 -17 45 3 47 4 60 45 9 25 22
45 34 48 12 4 19 15 19 31 0 23 -3 24 -57 23 -32 0 -70 -5 -85 -11z"/>
<path d="M3339 8214 c-31 -25 -65 -44 -83 -46 -23 -2 -32 -9 -34 -24 -3 -18
-12 -23 -53 -28 -46 -6 -49 -8 -49 -36 0 -40 2 -45 21 -42 9 2 19 -4 23 -13 4
-12 10 -14 25 -5 17 9 20 6 23 -18 4 -34 38 -37 53 -4 6 13 18 22 33 22 15 0
29 10 40 31 25 46 49 75 57 67 4 -3 0 -17 -9 -30 -17 -26 -11 -68 9 -68 7 0
29 7 49 15 27 12 36 21 36 39 0 13 7 27 16 30 11 4 14 14 9 35 -5 24 -2 29 16
34 15 4 20 11 15 22 -3 9 -6 26 -6 37 0 17 -5 19 -32 14 -18 -3 -49 -2 -70 3
-33 8 -40 5 -89 -35z"/>
<path d="M4140 8172 c0 -16 41 -52 60 -52 24 0 26 23 4 44 -16 17 -64 22 -64
8z"/>
<path d="M3984 8108 c8 -62 20 -78 53 -78 27 0 27 6 -5 87 -12 29 -23 43 -36
43 -17 0 -18 -5 -12 -52z"/>
<path d="M4481 8140 c-38 -6 -74 -46 -50 -54 78 -26 120 -34 124 -23 3 7 9 24
14 38 9 24 7 27 -22 35 -18 5 -47 7 -66 4z"/>
<path d="M4670 8084 c0 -25 7 -41 23 -55 32 -27 37 -24 37 20 0 30 -6 44 -22
55 -33 23 -38 20 -38 -20z"/>
<path d="M3460 7991 c0 -11 -6 -21 -13 -21 -8 0 -22 -9 -32 -20 -15 -16 -15
-22 -5 -35 11 -13 9 -15 -13 -15 -33 0 -54 -25 -37 -45 11 -13 8 -15 -18 -15
-47 0 -57 -22 -23 -48 16 -12 34 -37 41 -57 11 -33 14 -35 56 -35 37 0 44 3
44 20 0 25 16 26 22 2 4 -14 17 -18 68 -19 70 -2 74 -4 66 -30 -5 -17 -14 -18
-71 -15 -35 2 -75 2 -89 -2 -22 -5 -23 -8 -14 -39 7 -22 22 -40 42 -51 31 -16
34 -16 85 3 28 12 61 21 72 21 11 0 37 9 58 20 31 15 40 17 44 6 3 -8 29 -15
63 -19 48 -5 62 -3 86 14 15 11 31 31 34 44 3 13 12 29 20 36 19 16 8 89 -18
111 -15 13 -25 15 -44 8 -33 -13 -34 -13 -34 5 0 7 -8 18 -17 24 -16 9 -16 11
-1 28 14 15 15 22 3 42 -9 18 -10 31 -2 48 7 16 7 27 -3 38 -12 14 -18 11 -57
-27 -23 -23 -43 -47 -43 -53 0 -5 9 -21 20 -35 17 -23 17 -26 3 -42 -12 -14
-13 -23 -4 -49 6 -18 10 -33 9 -34 -2 -1 -28 3 -58 9 -47 10 -55 14 -58 36 -2
14 -8 30 -13 36 -5 6 -4 15 2 21 15 15 -3 46 -46 79 -19 14 -35 35 -35 45 0
11 -6 19 -14 19 -7 0 -28 3 -45 6 -27 6 -31 4 -31 -15z"/>
<path d="M4416 7961 c-16 -18 -16 -22 20 -92 20 -41 38 -76 40 -78 1 -2 24 4
50 13 26 9 48 15 49 13 0 -1 18 -37 38 -79 37 -75 38 -78 22 -108 -15 -29 -15
-32 5 -59 11 -16 20 -42 20 -58 0 -22 7 -33 25 -41 31 -14 114 -5 138 16 15
14 17 13 17 -1 0 -9 5 -19 10 -22 6 -4 68 1 138 10 110 15 129 21 145 41 l18
24 40 -23 c38 -21 41 -21 53 -4 7 9 20 17 29 17 8 0 20 14 26 32 6 17 21 38
32 46 l22 15 -26 14 c-23 12 -25 17 -17 39 16 42 12 53 -25 60 -19 3 -35 10
-35 15 0 5 -11 14 -25 19 -14 5 -28 16 -31 24 -8 22 -228 -85 -232 -113 -4
-25 -15 -27 -33 -5 -9 11 -22 14 -45 9 -25 -4 -35 -1 -42 11 -9 15 -11 15 -23
-7 l-13 -24 -6 30 c-5 27 -10 31 -59 40 -48 9 -52 12 -38 24 10 7 17 20 17 27
0 8 9 14 21 14 18 0 15 6 -21 48 -56 63 -77 74 -111 57 -24 -13 -27 -12 -43
16 -10 18 -26 29 -39 29 -12 1 -33 7 -47 15 -33 19 -44 18 -64 -4z"/>
<path d="M3292 7948 c-45 -18 -52 -24 -46 -42 11 -38 19 -36 69 14 54 55 53
57 -23 28z"/>
<path d="M4020 7904 c-18 -20 5 -44 41 -44 32 0 35 7 16 31 -18 23 -44 30 -57
13z"/>
<path d="M4297 7883 c-13 -13 -19 -14 -31 -4 -9 8 -26 11 -40 7 l-25 -6 20
-57 c10 -31 19 -58 19 -61 0 -3 -16 16 -35 42 -45 58 -65 60 -65 7 0 -22 5
-43 10 -46 15 -9 12 -25 -4 -25 -20 0 -66 -39 -66 -56 0 -12 11 -14 63 -8 34
3 66 10 72 15 30 29 34 -11 4 -52 -16 -23 -19 -38 -14 -69 l7 -39 46 6 c69 9
92 28 92 72 0 21 6 46 14 56 10 14 11 25 4 39 -6 10 -7 40 -4 65 5 39 2 52
-22 88 -26 39 -29 41 -45 26z"/>
<path d="M4025 7808 c4 -18 9 -34 10 -36 3 -3 64 25 74 34 12 11 -26 34 -56
34 -34 0 -34 -1 -28 -32z"/>
<path d="M2877 7783 c-4 -3 -7 -14 -7 -23 0 -10 -7 -24 -16 -31 -12 -9 -15
-24 -11 -51 4 -33 2 -39 -30 -60 -19 -13 -40 -38 -48 -55 -8 -18 -21 -33 -30
-33 -20 0 -145 -118 -145 -137 0 -7 18 -46 40 -85 41 -71 41 -71 25 -110 -8
-21 -15 -45 -15 -53 0 -21 63 -20 95 1 15 10 25 12 25 5 0 -7 20 -11 50 -11
50 0 50 0 75 50 14 28 34 53 43 56 37 12 61 27 64 41 4 17 194 103 229 103 28
0 59 27 59 51 0 8 -7 42 -16 74 -17 66 -51 104 -95 105 -35 0 -85 55 -93 103
-7 37 -7 37 -54 36 -26 -1 -64 6 -84 15 -41 18 -51 19 -61 9z"/>
<path d="M4079 7759 c-20 -20 -20 -23 -5 -31 21 -12 46 6 46 33 0 25 -15 24
-41 -2z"/>
<path d="M3980 7665 c0 -8 -5 -24 -12 -34 -14 -23 4 -51 33 -51 16 0 19 8 19
44 0 31 -5 46 -16 50 -22 9 -24 8 -24 -9z"/>
<path d="M4468 7658 c-23 -19 -54 -70 -62 -100 -5 -23 0 -31 45 -63 46 -33 55
-36 88 -28 l36 9 3 63 c3 60 1 66 -29 97 -35 36 -56 42 -81 22z"/>
<path d="M802 6848 c-548 -619 -639 -726 -630 -742 5 -10 18 -20 27 -23 13 -3
16 -12 13 -34 -4 -28 -3 -29 22 -19 21 8 33 6 51 -6 30 -20 30 -22 6 -48 -18
-20 -19 -29 -10 -138 9 -102 8 -121 -5 -140 -22 -32 -20 -38 13 -38 16 0 42
-5 56 -10 21 -8 34 -6 58 7 18 10 36 24 42 31 8 10 18 9 52 -4 48 -19 58 -39
43 -78 -15 -40 -12 -117 6 -199 13 -54 14 -79 6 -102 -6 -16 -13 -83 -17 -148
-5 -90 -11 -120 -22 -124 -8 -3 -12 -12 -9 -20 4 -8 3 -20 -1 -26 -13 -22 -11
-86 3 -98 8 -6 14 -17 14 -23 0 -6 14 -31 30 -56 16 -25 30 -52 30 -61 0 -9 7
-22 15 -29 21 -17 19 -25 -14 -62 -15 -18 -33 -49 -40 -69 -6 -20 -23 -42 -37
-49 -17 -9 -24 -20 -21 -32 4 -13 -1 -18 -14 -18 -10 0 -19 -7 -19 -15 0 -9
-9 -15 -23 -15 -39 0 -58 -31 -62 -100 -4 -56 8 -157 20 -168 3 -3 13 2 23 11
22 20 82 23 82 5 -1 -21 -37 -58 -55 -58 -15 0 -16 -6 -10 -42 4 -24 7 -49 6
-55 -1 -7 -2 -28 -2 -45 -1 -18 -10 -42 -20 -54 -16 -17 -17 -24 -7 -52 12
-30 15 -32 61 -32 41 0 48 -3 43 -16 -3 -9 -6 -19 -6 -23 0 -5 -29 -16 -65
-26 -70 -19 -94 -47 -60 -71 15 -12 15 -13 -4 -23 -37 -20 -44 -47 -26 -102
11 -33 22 -49 34 -49 9 0 32 -15 50 -33 30 -31 31 -36 19 -62 -11 -25 -10 -29
20 -56 18 -16 41 -29 52 -29 12 0 23 -8 27 -17 3 -10 13 -26 21 -36 13 -14 13
-21 3 -41 -10 -18 -10 -31 0 -64 11 -37 16 -42 41 -42 31 0 36 -15 13 -40 -14
-15 -13 -20 5 -43 13 -16 27 -24 36 -20 12 4 14 -2 12 -30 -1 -19 4 -42 11
-51 12 -14 10 -16 -15 -16 -17 0 -24 -4 -18 -9 16 -15 248 -114 559 -238 654
-262 1210 -413 1945 -528 220 -35 528 -62 840 -74 140 -6 301 -13 356 -16
l101 -6 7 41 c9 55 37 52 48 -5 16 -81 27 -95 69 -95 21 0 41 -5 44 -11 14
-22 54 -28 95 -14 37 13 43 13 78 -7 20 -12 43 -28 50 -37 10 -13 16 -13 33
-3 17 11 23 9 45 -18 30 -35 75 -40 114 -13 31 22 146 19 171 -3 31 -28 79 6
79 56 0 20 28 34 51 25 22 -8 37 7 41 39 4 39 28 47 28 9 l0 -28 19 28 c10 16
16 38 13 52 -5 30 -9 29 68 9 46 -11 69 -13 91 -5 42 14 101 -7 110 -41 4 -14
22 -47 40 -72 l34 -47 55 4 c30 2 63 8 73 12 14 6 17 2 17 -21 0 -18 11 -40
31 -60 30 -31 30 -33 15 -62 -15 -30 -15 -30 14 -40 23 -8 29 -17 32 -44 3
-30 7 -33 38 -36 19 -2 47 -13 63 -24 28 -20 33 -20 169 -9 100 9 144 9 151 2
18 -18 92 -13 118 8 l24 19 60 -57 c33 -32 65 -60 70 -62 6 -2 25 -23 44 -47
32 -41 32 -44 16 -62 -14 -15 -15 -22 -5 -41 11 -19 10 -24 -5 -35 -15 -11
-22 -10 -46 7 -19 14 -36 18 -54 13 -21 -5 -27 -2 -32 15 -7 27 -89 83 -117
79 -19 -3 -17 -7 22 -49 46 -51 52 -80 26 -131 -14 -27 -15 -41 -5 -99 18
-111 16 -127 -29 -180 -43 -52 -62 -106 -40 -119 23 -14 -3 -63 -43 -83 -26
-12 -37 -24 -37 -40 0 -25 34 -52 53 -40 6 4 24 6 39 5 21 -2 28 2 28 16 0 19
59 82 77 82 6 0 23 20 37 44 31 53 49 60 142 57 57 -2 73 1 77 13 4 10 -2 20
-14 27 -18 9 -11 15 61 50 45 21 92 39 106 39 29 0 29 0 3 45 -21 35 -22 35
-46 19 -17 -11 -36 -14 -59 -9 -19 3 -34 7 -34 9 0 26 32 72 75 109 58 51 196
120 220 110 30 -11 83 6 89 29 3 12 0 26 -7 30 -6 4 -9 9 -7 11 3 2 40 30 82
61 54 40 89 76 119 122 23 36 49 69 58 73 9 5 120 46 246 91 127 46 236 88
243 93 6 5 12 22 12 38 0 19 5 29 15 29 9 0 18 7 21 15 4 10 13 13 25 10 26
-9 46 34 30 64 -9 17 -9 26 4 43 18 27 19 61 3 91 -28 52 -13 337 18 337 7 0
18 -9 24 -20 14 -27 25 -25 80 10 45 29 49 29 86 17 38 -13 41 -18 94 -145
l55 -132 33 6 c22 4 32 2 32 -6 0 -7 11 -28 26 -47 20 -27 32 -33 61 -33 45 0
109 41 117 76 4 14 14 24 24 24 12 0 27 17 43 51 13 28 34 58 46 66 13 9 28
33 33 54 15 55 43 54 34 -1 -4 -22 -4 -40 0 -40 4 0 42 18 86 40 87 44 90 45
90 30 0 -5 -14 -17 -30 -25 -17 -9 -40 -30 -50 -48 -18 -29 -20 -30 -20 -9 0
44 -34 6 -108 -123 -59 -101 -71 -129 -62 -141 7 -7 9 -21 6 -30 -3 -9 7 -34
25 -60 25 -37 34 -43 54 -38 14 3 33 -1 49 -12 26 -16 27 -16 41 2 8 10 15 25
15 33 0 8 6 19 14 25 7 6 25 46 39 89 21 63 24 83 15 102 -14 31 5 58 34 49
24 -7 48 12 48 41 0 15 15 32 48 54 39 27 207 227 221 263 2 6 -9 7 -28 3 -23
-5 -31 -3 -31 8 0 22 -47 39 -69 25 -15 -9 -23 -9 -34 0 -11 10 -20 4 -46 -28
-27 -34 -37 -40 -71 -40 -22 0 -42 -6 -47 -14 -9 -14 -113 -32 -113 -18 0 4 5
13 12 20 16 16 -78 17 -118 2 -23 -9 -31 -7 -54 15 -15 14 -38 25 -53 25 -23
0 -27 4 -27 30 0 30 -1 31 -36 24 -34 -6 -36 -6 -25 14 6 11 11 35 11 52 0 34
-25 90 -40 90 -5 0 -25 -16 -45 -37 -34 -35 -36 -35 -54 -19 -15 14 -29 16
-68 11 l-48 -6 35 30 c22 20 46 31 66 31 17 0 38 8 46 18 28 32 68 134 68 173
0 35 -3 40 -37 54 -28 12 -54 14 -99 10 l-60 -7 -135 -122 c-191 -174 -227
-235 -300 -500 -25 -92 -39 -122 -85 -187 -30 -44 -61 -79 -69 -79 -7 0 -52
-53 -99 -117 -81 -111 -86 -120 -86 -168 0 -45 -3 -53 -36 -78 -46 -37 -57
-26 -16 16 27 28 32 40 32 83 0 60 21 95 173 282 85 104 107 137 107 161 0 18
6 42 14 54 8 12 26 81 41 152 15 72 45 177 67 234 39 99 42 104 83 122 l43 19
7 97 7 98 42 41 c44 44 294 184 327 184 11 0 58 22 105 50 46 27 93 49 105 47
12 -1 58 27 119 73 l98 75 21 80 c14 53 19 94 15 122 -9 58 0 85 34 105 18 11
32 29 35 47 5 21 18 37 46 53 32 19 46 36 71 92 34 78 40 150 14 160 -11 4
-15 14 -12 31 5 23 3 24 -31 19 -34 -5 -38 -3 -61 35 -62 102 -200 139 -200
54 0 -14 -6 -23 -15 -23 -8 0 -15 9 -15 20 0 13 -13 26 -38 39 -37 19 -38 19
-77 -1 -51 -26 -50 -25 -35 -43 11 -13 9 -20 -12 -43 -14 -15 -28 -41 -31 -59
-4 -18 -23 -58 -44 -89 l-38 -58 -3 52 c-3 47 1 57 37 106 24 32 38 61 35 70
-4 10 13 37 45 74 39 45 49 63 44 81 -4 17 -11 21 -26 17 -11 -3 -32 1 -47 9
-26 14 -28 13 -46 -21 -18 -33 -21 -35 -54 -28 -19 4 -46 7 -60 6 -91 -6 -112
-10 -128 -25 -26 -24 -29 -22 -36 21 -10 60 -13 62 -86 47 -47 -10 -68 -11
-78 -2 -7 6 -38 9 -68 8 -30 -1 -54 0 -54 4 0 3 7 17 16 30 14 22 14 31 2 87
-13 61 -15 63 -43 62 -17 -1 -45 2 -63 8 -26 8 -31 14 -27 28 8 25 -23 73 -42
66 -8 -3 -30 10 -51 30 -36 35 -50 38 -94 19 -15 -6 -18 -2 -18 27 0 29 -7 39
-49 71 -33 26 -58 37 -82 37 -28 0 -45 12 -112 78 l-78 77 5 -100 c5 -98 9
-140 22 -238 5 -43 4 -49 -15 -54 -16 -4 -19 -11 -15 -28 4 -16 -5 -40 -30
-79 -20 -31 -38 -56 -40 -56 -3 0 -38 15 -80 34 l-74 34 -35 -23 c-19 -13 -37
-31 -40 -40 -9 -21 -30 -19 -45 5 -11 17 -10 20 7 20 14 0 21 10 25 36 8 40
-8 68 -35 61 -12 -3 -20 5 -28 33 -6 20 -22 49 -36 64 -20 21 -23 31 -15 41 8
10 6 24 -10 54 -11 23 -23 61 -27 86 -4 35 -10 45 -25 45 -15 0 -17 -5 -12
-25 7 -30 -10 -34 -38 -8 -17 15 -19 15 -36 0 -13 -12 -37 -17 -75 -17 l-56 0
-8 41 c-7 36 -13 42 -48 55 -22 7 -49 14 -60 14 -12 0 -26 5 -33 12 -6 6 -35
22 -64 34 l-53 22 -43 -35 c-55 -45 -86 -53 -202 -53 -106 0 -131 -10 -148
-59 -9 -25 -5 -37 29 -94 35 -58 40 -74 42 -136 2 -58 5 -71 19 -71 17 0 38
-47 38 -85 0 -11 11 -37 25 -56 19 -25 24 -40 19 -59 -4 -14 -8 -53 -9 -88 -1
-48 -6 -68 -22 -83 -19 -20 -19 -20 1 -63 17 -38 25 -45 57 -49 23 -3 63 -23
101 -51 52 -36 75 -62 118 -132 l53 -87 -5 -132 -5 -133 -79 -115 c-68 -100
-86 -119 -126 -138 -27 -12 -48 -25 -48 -29 0 -13 77 -80 92 -80 12 0 19 -16
27 -61 8 -46 21 -75 51 -115 22 -29 44 -71 49 -94 5 -23 16 -49 25 -59 11 -12
16 -37 16 -83 0 -46 4 -69 15 -78 17 -14 20 -70 4 -70 -6 0 -13 9 -16 20 -3
11 -13 20 -22 20 -9 0 -22 5 -28 11 -8 8 -13 -1 -18 -37 -9 -69 -10 -71 -41
-78 -24 -6 -35 0 -93 58 -36 36 -79 68 -94 72 -16 3 -33 17 -39 29 -6 13 -41
49 -79 80 -60 50 -69 62 -69 91 0 19 -13 75 -29 126 -36 116 -44 170 -30 201
8 19 8 31 -3 52 -15 27 -16 27 -129 30 -75 1 -122 -2 -139 -10 -14 -7 -39 -10
-56 -8 -18 3 -35 0 -38 -6 -5 -7 -27 4 -61 30 -41 30 -61 40 -78 35 -14 -3
-41 4 -72 19 -26 14 -64 25 -82 25 -23 0 -36 6 -40 18 -20 55 -146 142 -206
142 -21 0 -51 11 -78 30 -24 16 -63 32 -87 36 -36 5 -49 2 -82 -20 -27 -17
-53 -26 -81 -26 -40 0 -41 1 -36 29 4 19 -8 78 -33 168 -22 76 -40 140 -40
142 0 2 -9 1 -19 -2 -11 -3 -29 1 -40 9 -14 11 -26 12 -46 4 -40 -15 -55 -12
-55 12 0 12 -6 29 -14 37 -11 13 -12 37 -4 131 5 63 10 131 11 150 1 19 14 53
28 75 43 66 59 102 59 133 0 17 10 37 25 52 17 16 22 27 15 35 -7 8 6 29 40
67 28 31 50 61 50 67 0 6 6 11 13 11 7 0 18 5 25 12 9 9 5 15 -18 24 -46 20
-36 34 23 34 56 0 79 15 106 67 10 19 6 26 -33 57 -34 29 -52 36 -85 36 -28 0
-54 8 -79 25 -20 14 -49 25 -65 25 -30 0 -33 16 -6 33 11 7 28 2 60 -19 24
-15 64 -31 89 -35 25 -4 59 -12 76 -20 28 -11 35 -10 61 9 18 13 33 34 36 52
6 28 9 30 52 30 38 0 51 6 85 36 22 20 40 45 40 56 0 10 9 31 20 46 11 16 20
47 22 77 l3 50 -74 8 c-62 7 -81 14 -119 43 -33 25 -55 34 -83 34 -32 0 -39 3
-39 20 0 17 7 20 45 20 54 0 115 -28 139 -64 14 -22 24 -26 67 -26 46 0 55 4
85 37 28 30 74 140 62 147 -2 1 -20 9 -40 19 -55 24 -47 37 22 37 53 0 60 -2
60 -20 0 -30 66 -29 75 1 6 19 8 19 24 5 17 -15 41 -22 41 -11 0 3 -8 17 -17
31 -14 22 -14 27 -2 34 8 6 19 4 29 -5 13 -11 20 -9 46 13 19 16 37 45 45 70
7 23 18 47 26 53 8 7 13 32 13 65 0 52 -2 55 -40 80 -27 18 -40 34 -40 49 0
13 -13 34 -30 48 -37 31 -38 47 -5 47 21 0 29 9 46 47 16 37 17 48 7 55 -7 4
-16 8 -19 8 -3 0 -4 14 -1 30 4 29 3 31 -21 25 -17 -5 -37 -1 -56 11 -25 15
-29 23 -24 43 6 23 4 24 -27 18 -18 -4 -50 -2 -71 3 -28 8 -51 8 -80 0 -39
-11 -41 -13 -35 -42 3 -17 6 -39 6 -50 0 -10 13 -31 30 -46 21 -19 27 -31 20
-42 -5 -8 -5 -21 1 -32 8 -15 6 -18 -11 -18 -18 0 -20 -6 -20 -73 0 -49 -5
-80 -15 -93 -8 -10 -17 -41 -21 -67 -4 -28 -13 -51 -21 -54 -8 -3 -19 -16 -24
-29 -12 -32 -27 -30 -35 4 -4 15 -22 47 -40 72 -39 54 -48 87 -35 120 7 18 10
20 10 8 1 -21 17 -24 24 -5 11 29 -18 90 -60 124 -24 20 -43 44 -43 54 0 25
-8 24 -30 -3 -13 -16 -21 -48 -25 -105 -5 -60 -11 -83 -21 -83 -8 0 -16 18
-20 49 -4 28 -18 67 -35 92 -26 39 -27 44 -13 70 19 37 18 39 -9 39 -13 0 -28
5 -35 12 -8 8 -15 8 -27 -2 -13 -11 -20 -9 -41 11 l-25 23 23 18 c18 13 21 19
11 29 -20 20 -15 36 8 35 28 -1 36 20 11 28 -26 9 -82 120 -82 164 0 45 -64
154 -86 145 -8 -3 -21 2 -28 12 -13 19 -36 13 -36 -8 0 -7 -9 -18 -21 -25 -16
-11 -18 -16 -9 -27 17 -20 6 -43 -22 -47 -20 -3 -24 -11 -29 -56 -4 -29 -10
-56 -13 -59 -3 -4 3 -13 15 -21 l20 -14 -22 -24 c-34 -36 -21 -88 35 -141 25
-24 53 -43 64 -43 10 0 24 -11 29 -23 9 -19 17 -23 42 -19 19 2 31 0 31 -7 0
-6 -12 -11 -28 -11 -23 0 -29 -6 -40 -40 -14 -45 -7 -90 13 -90 8 0 15 12 17
28 5 41 23 28 26 -19 2 -30 -2 -47 -16 -63 -10 -11 -25 -36 -32 -53 -11 -28
-17 -33 -46 -33 l-34 0 0 -86 0 -86 -32 19 c-30 17 -33 24 -35 71 -1 28 2 54
7 57 6 4 10 21 10 39 0 30 -3 34 -35 39 -19 3 -50 18 -70 33 -34 26 -35 26
-35 5 0 -16 -6 -21 -25 -21 -14 0 -25 -5 -25 -10 0 -12 49 -60 61 -60 4 0 18
-14 30 -31 18 -25 19 -33 8 -40 -9 -5 -21 -2 -34 10 -11 9 -33 23 -49 30 -25
10 -31 10 -38 -3 -12 -21 -34 -20 -73 4 -26 16 -38 18 -60 10 -14 -5 -52 -10
-84 -10 -53 0 -59 2 -96 41 -27 27 -46 38 -59 35 -25 -6 -66 10 -66 27 0 8 -9
22 -20 32 -10 9 -22 37 -26 61 -9 60 -37 96 -67 85 -12 -5 -53 -14 -92 -20
-44 -8 -78 -20 -92 -33 -20 -19 -21 -22 -6 -44 17 -26 60 -33 69 -11 2 7 16
14 30 15 14 1 41 9 60 18 37 18 64 13 64 -11 0 -15 -88 -65 -116 -65 -31 0
-95 -43 -89 -60 11 -26 25 -111 25 -147 0 -31 -2 -33 -21 -22 -19 10 -20 8
-14 -10 5 -15 2 -21 -10 -21 -21 0 -29 24 -18 57 13 40 0 105 -26 121 -11 8
-21 23 -21 33 0 11 -6 19 -14 19 -8 0 -18 9 -21 20 -7 22 -41 45 -49 32 -3 -5
-44 -6 -92 -4 -72 4 -101 11 -161 38 -41 19 -85 34 -99 34 -28 0 -32 24 -9 56
10 15 22 20 39 17 59 -12 83 38 52 110 -18 44 -44 64 -93 72 -52 8 -147 73
-151 102 -2 13 -24 35 -53 55 -38 25 -58 48 -84 99 -39 76 -51 88 -99 96 -27
4 -36 2 -36 -8 0 -8 -11 -21 -23 -30 -20 -15 -27 -15 -55 -3 -37 15 -41 29
-12 44 13 7 20 21 20 40 0 19 7 34 20 42 21 13 27 43 11 52 -5 4 -21 -7 -34
-24 -14 -16 -32 -30 -41 -30 -8 0 -23 -11 -34 -25 -11 -14 -27 -25 -36 -25
-14 0 -16 18 -16 135 0 128 -1 135 -20 135 -16 0 -20 -7 -20 -36 0 -21 -4 -33
-10 -29 -18 11 -50 -6 -50 -26 0 -12 -7 -19 -20 -19 -11 0 -20 6 -20 14 0 21
-93 32 -131 16 -23 -10 -33 -10 -42 -1 -6 6 -27 11 -46 11 -39 0 -121 -28
-121 -41 0 -16 -38 -9 -44 8 -11 27 14 42 97 60 63 13 81 14 100 4 35 -19 161
-2 165 22 3 13 -3 17 -27 17 -19 0 -31 5 -31 13 0 16 -196 13 -216 -3 -8 -8
-19 -8 -31 -2 -13 7 -36 4 -78 -9 -77 -24 -145 -18 -145 14 0 12 -19 40 -41
63 -40 41 -58 85 -62 154 -2 22 -36 89 -72 143 -11 16 -85 -64 -653 -705z"/>
<path d="M5430 7379 c-14 -6 -42 -8 -62 -5 -29 5 -38 3 -38 -8 0 -25 20 -68
44 -97 14 -16 27 -42 31 -59 4 -16 13 -30 20 -30 27 0 45 12 45 30 0 28 19 35
85 32 49 -3 64 0 78 16 17 18 15 21 -47 76 -68 59 -98 68 -156 45z"/>
<path d="M3282 7352 c-42 -21 -55 -24 -61 -13 -6 10 -27 3 -90 -28 -69 -35
-81 -45 -81 -66 0 -14 -4 -25 -9 -25 -4 0 -29 -16 -55 -35 -48 -37 -60 -65
-27 -65 26 0 44 -23 30 -37 -23 -23 3 -33 87 -33 77 0 84 -2 84 -20 0 -19 -7
-20 -91 -20 -74 0 -113 -7 -136 -24 -1 -1 4 -22 11 -46 13 -43 16 -46 77 -69
35 -13 89 -26 120 -28 48 -4 58 -8 72 -33 9 -15 29 -31 44 -35 35 -8 73 -43
73 -67 0 -36 -77 -21 -127 24 -28 26 -121 48 -204 48 l-67 0 -6 -34 c-5 -25 0
-51 17 -93 22 -55 26 -60 95 -96 56 -29 72 -43 72 -60 0 -22 25 -126 32 -133
2 -2 59 -12 125 -22 l122 -19 46 29 c42 26 49 28 88 17 42 -11 42 -11 78 30
37 42 69 53 69 26 0 -23 51 -64 79 -65 23 0 23 -1 8 -18 -25 -27 -21 -32 23
-32 23 0 52 -7 65 -16 23 -15 31 -15 77 -2 49 13 53 17 62 53 7 32 6 40 -10
52 -23 17 -34 17 -34 -1 0 -8 -7 -16 -15 -20 -11 -4 -15 1 -15 18 0 14 -3 31
-6 39 -4 11 0 14 13 11 11 -3 26 3 37 15 19 21 46 28 46 14 0 -5 5 -15 10 -23
8 -13 11 -12 25 5 12 14 18 16 21 8 12 -27 24 -11 24 30 0 39 -3 44 -33 55
-22 8 -40 26 -57 57 -18 33 -29 43 -42 39 -13 -4 -24 9 -49 57 -31 62 -31 65
-36 243 l-4 181 -36 62 c-33 56 -39 61 -75 65 -45 4 -44 6 -53 -114 -4 -49
-11 -90 -15 -93 -5 -3 -3 -23 5 -45 13 -37 13 -40 -6 -51 -12 -6 -23 -8 -27
-5 -3 4 -9 46 -12 94 -11 138 -60 235 -96 187 -13 -18 -13 -21 2 -32 9 -7 21
-14 27 -16 21 -7 -5 -27 -34 -27 -17 0 -32 -6 -35 -15 -4 -8 -18 -15 -32 -15
-25 0 -25 0 -7 20 18 20 18 22 -5 69 -12 27 -33 54 -46 60 -22 9 -26 7 -47
-24 -16 -26 -29 -35 -49 -35 -38 0 -35 14 8 41 35 21 36 23 29 68 -4 25 -10
49 -13 52 -4 4 -31 -5 -60 -19z"/>
<path d="M4544 7356 c-44 -16 -66 -37 -61 -58 4 -13 0 -18 -14 -18 -18 0 -19
-8 -19 -112 1 -79 5 -121 15 -138 8 -14 14 -42 15 -63 0 -31 4 -39 27 -48 20
-7 30 -6 40 4 19 19 35 92 27 124 -7 27 -2 28 61 8 16 -5 27 3 53 39 18 24 32
54 32 65 0 12 11 44 25 71 14 27 25 58 25 70 0 18 -6 20 -52 20 -38 0 -65 7
-97 25 -23 14 -44 24 -45 24 0 -1 -15 -6 -32 -13z"/>
<path d="M5177 7353 c-2 -4 -7 -19 -10 -33 -4 -16 -19 -32 -40 -42 -31 -15
-35 -21 -40 -70 -4 -29 -7 -76 -7 -104 0 -44 3 -52 24 -62 l24 -11 -20 -40
c-13 -26 -18 -50 -14 -66 5 -21 12 -25 45 -25 l39 0 4 -55 c3 -52 2 -55 -21
-55 -20 0 -22 4 -17 24 5 20 -3 33 -46 74 -51 48 -52 52 -61 123 -17 142 -17
217 -1 223 14 5 22 22 38 74 7 21 5 22 -61 22 l-68 -1 -45 -60 c-25 -34 -51
-68 -57 -78 -9 -12 -10 -26 -3 -51 8 -28 6 -43 -14 -86 -15 -33 -21 -56 -15
-65 5 -8 9 -57 9 -110 0 -110 -2 -108 97 -104 45 2 54 -1 67 -21 15 -21 14
-23 -5 -29 -11 -4 -30 0 -43 9 -19 12 -27 13 -41 3 -15 -12 -15 -16 1 -57 10
-25 24 -49 33 -54 8 -5 25 -20 37 -33 30 -32 86 -29 94 5 5 22 6 22 45 -18 44
-45 50 -47 85 -21 22 18 25 18 36 3 11 -15 18 -15 59 -4 38 10 54 10 82 0 31
-11 36 -11 48 5 12 17 15 17 44 3 l31 -16 -6 29 c-6 27 -4 29 32 33 22 3 44 1
51 -4 7 -6 21 -3 38 8 27 18 27 18 -20 73 l-20 24 25 -6 c14 -4 40 -7 58 -7
28 0 35 -5 54 -45 14 -29 29 -45 40 -45 10 0 18 -4 18 -10 0 -5 12 -10 26 -10
15 0 44 -10 65 -22 31 -17 39 -28 39 -50 0 -21 -6 -29 -26 -34 -20 -5 -24 -12
-22 -33 2 -18 10 -27 25 -29 18 -3 26 5 38 36 14 34 19 38 43 34 15 -2 38 -15
52 -28 17 -16 30 -20 40 -14 10 6 17 2 25 -13 5 -12 31 -33 57 -47 29 -15 68
-52 102 -94 51 -63 55 -71 41 -86 -9 -10 -15 -36 -15 -63 0 -38 -7 -57 -35
-96 -46 -64 -45 -83 8 -119 23 -16 51 -39 61 -51 16 -18 17 -21 3 -21 -9 0
-28 -11 -43 -25 -15 -14 -33 -25 -39 -25 -7 0 -15 -6 -18 -14 -7 -19 -69 -36
-129 -36 -68 0 -79 -6 -67 -37 10 -26 7 -29 -45 -65 -6 -4 -4 -18 4 -38 39
-93 107 -121 185 -75 49 28 49 28 35 55 -13 25 13 33 60 20 19 -6 36 -10 37
-10 2 0 3 9 3 19 0 10 9 29 19 42 l19 24 13 -28 c13 -29 17 -31 38 -18 10 7
34 -4 80 -35 55 -37 74 -44 113 -44 l48 0 0 -45 c0 -58 19 -68 135 -70 63 -1
99 -6 122 -18 36 -19 87 -21 181 -7 47 6 75 5 110 -5 41 -13 48 -12 64 2 16
15 16 17 -3 54 -13 26 -26 39 -40 39 -11 0 -35 11 -52 24 -33 25 -124 56 -163
56 -14 0 -37 17 -63 49 l-41 49 50 -13 c28 -7 74 -23 103 -35 46 -19 59 -20
107 -12 48 9 59 8 88 -10 l32 -20 0 51 c0 39 -4 51 -18 55 -10 4 -29 20 -41
37 l-23 31 23 -7 c13 -4 30 -10 36 -12 10 -4 10 2 2 24 -6 19 -23 36 -44 46
-19 9 -35 23 -35 31 0 9 -17 20 -40 27 -37 11 -39 14 -25 29 13 14 13 19 2 28
-7 6 -22 9 -34 6 -15 -4 -26 3 -43 26 -21 30 -26 32 -66 26 -42 -5 -45 -4 -70
33 -29 45 -59 57 -91 36 -29 -19 -33 -19 -33 4 0 12 -11 23 -30 30 -20 7 -30
17 -30 31 0 19 2 20 28 7 28 -14 62 -12 62 3 0 12 -41 50 -54 50 -6 0 -5 4 3
9 12 8 13 15 4 34 -7 14 -9 28 -6 31 12 12 40 6 57 -13 9 -10 37 -24 60 -31
37 -10 47 -10 69 4 l24 17 -1 -38 c-1 -34 3 -40 57 -77 41 -29 60 -37 68 -29
6 6 28 9 50 6 43 -6 49 3 24 40 -8 12 -21 41 -29 65 -14 39 -14 42 3 42 19 0
51 57 51 90 0 15 -7 20 -25 20 -21 0 -25 5 -25 29 0 21 6 32 20 36 22 7 26 20
9 31 -6 3 -9 19 -6 34 6 25 3 28 -31 33 -28 5 -46 1 -78 -18 -24 -14 -45 -25
-48 -25 -3 0 -6 19 -6 42 l0 43 -26 -37 -27 -37 -26 18 c-14 11 -37 31 -50 45
-18 19 -30 24 -48 20 -20 -6 -23 -3 -23 25 0 42 -14 39 -46 -9 -22 -34 -32
-40 -60 -40 -28 0 -38 6 -54 32 -19 32 -21 32 -101 34 -90 2 -118 15 -70 32
35 12 38 24 17 65 -14 26 -14 27 7 27 13 0 33 7 45 16 19 13 21 19 11 31 -10
11 -26 13 -76 7 l-64 -6 13 28 c6 16 18 37 26 46 12 14 11 18 -10 29 -13 7
-33 19 -46 27 -21 14 -22 13 -20 -9 3 -22 -1 -24 -41 -27 l-44 -3 32 39 c17
22 31 42 31 45 0 3 -23 10 -51 17 -45 11 -51 11 -64 -6 -13 -16 -16 -17 -24
-4 -8 12 -13 12 -30 -4 -21 -19 -21 -19 -21 17 0 30 -4 37 -20 37 -15 0 -20
-7 -20 -26 0 -39 -17 -63 -40 -57 -24 6 -25 27 -5 66 18 35 6 64 -30 73 -37 9
-53 -1 -57 -37 -4 -47 -24 -46 -48 0 -11 23 -23 41 -26 41 -3 0 -19 -11 -36
-25 -16 -14 -34 -25 -39 -25 -16 0 -9 33 12 56 17 18 19 26 9 44 -9 16 -17 20
-36 16 -16 -4 -24 -2 -24 7 0 21 -38 35 -110 41 -77 7 -114 -7 -118 -44 -1
-14 -5 -35 -7 -47 l-5 -23 -21 21 c-11 11 -30 19 -42 17 -18 -2 -24 -12 -31
-55 -6 -34 -14 -53 -22 -53 -17 0 -18 34 -3 62 9 17 8 24 -6 34 -12 9 -16 20
-11 39 8 30 -15 80 -45 96 -15 8 -19 17 -15 34 4 15 -1 31 -13 46 -16 20 -23
22 -47 13 -22 -8 -34 -7 -51 3 -11 8 -23 10 -26 6z"/>
<path d="M3796 7308 c-8 -12 -12 -26 -9 -32 4 -6 24 -37 46 -70 43 -64 40 -64
82 15 l23 45 -20 32 c-17 28 -25 32 -63 32 -34 0 -47 -5 -59 -22z"/>
<path d="M4176 7323 c-26 -4 -28 -7 -23 -39 5 -30 4 -34 -12 -29 -10 3 -23 -1
-30 -9 -15 -18 2 -66 24 -66 11 0 15 -12 15 -51 0 -46 -2 -50 -22 -47 -15 2
-26 14 -33 33 -17 51 -35 57 -60 18 -16 -24 -16 -28 -1 -54 9 -15 16 -41 16
-57 0 -26 5 -32 36 -42 43 -15 104 -102 104 -149 0 -23 7 -34 28 -45 36 -19
62 -5 62 34 0 23 3 27 20 23 12 -3 36 5 60 21 44 29 47 43 34 140 -6 41 -9 46
-27 40 -17 -6 -19 -3 -13 22 8 30 22 44 44 44 6 0 12 9 12 21 0 18 -4 20 -26
15 -93 -24 -98 -21 -59 30 14 18 25 40 25 48 0 9 7 16 15 16 19 0 19 19 0 44
-14 19 -25 19 -99 0 -21 -5 -28 -1 -37 20 -7 14 -15 25 -18 25 -3 -1 -19 -4
-35 -6z"/>
<path d="M1673 7264 c-18 -13 -20 -20 -12 -42 6 -15 15 -30 21 -33 6 -4 43 4
84 18 59 20 72 28 67 41 -11 30 -15 33 -28 22 -9 -7 -26 -8 -56 -1 -54 13 -49
13 -76 -5z"/>
<path d="M4257 6442 c-19 -20 -27 -39 -27 -64 0 -37 -12 -48 -52 -48 -26 0
-21 -43 5 -48 11 -2 27 -12 37 -22 10 -10 53 -35 96 -55 l78 -37 41 43 40 44
-27 3 c-23 3 -28 8 -28 31 0 18 -12 38 -35 61 -19 19 -35 39 -35 46 0 14 -48
74 -59 74 -4 0 -19 -13 -34 -28z"/>
<path d="M5908 6353 l-38 -15 0 -63 c0 -34 3 -77 6 -94 6 -29 9 -31 48 -30 73
2 90 11 105 57 12 38 11 45 -3 61 -9 10 -16 35 -16 59 0 41 -1 42 -32 41 -18
0 -50 -7 -70 -16z"/>
<path d="M6049 6354 c-6 -7 -8 -22 -4 -34 5 -15 15 -20 43 -20 51 0 67 12 53
38 -13 24 -76 35 -92 16z"/>
<path d="M5393 5732 c10 -10 17 -26 17 -34 0 -9 10 -18 23 -22 72 -19 77 13 7
49 -59 30 -69 31 -47 7z"/>
<path d="M5335 5690 c12 -42 19 -50 35 -40 13 8 10 14 -14 37 l-28 28 7 -25z"/>
<path d="M5269 5683 c-11 -12 -13 -48 -11 -148 1 -73 6 -145 11 -161 7 -25 2
-40 -32 -97 -22 -37 -38 -69 -36 -71 2 -2 33 2 69 10 35 7 66 11 68 9 2 -2 6
-22 9 -45 l6 -42 36 7 c44 8 51 12 51 30 0 31 34 84 57 90 22 5 24 9 18 44 -5
33 -3 40 18 54 23 15 25 15 30 -3 3 -13 14 -20 30 -20 19 0 26 -6 29 -22 2
-19 14 -25 66 -37 71 -16 81 -13 119 36 l24 31 -23 27 c-22 25 -26 26 -63 16
-58 -16 -74 -14 -68 7 7 29 -55 122 -82 122 -12 0 -41 14 -63 30 -24 17 -54
30 -71 30 -20 0 -30 6 -34 20 -6 24 -57 29 -57 5 0 -31 -21 -13 -47 40 -15 30
-30 55 -34 55 -4 0 -13 -7 -20 -17z"/>
<path d="M6107 5401 c-21 -8 -14 -17 32 -41 31 -16 48 6 24 32 -17 19 -27 21
-56 9z"/>
<path d="M6017 5338 c-17 -13 -17 -15 7 -37 27 -25 53 -25 70 1 19 32 -43 61
-77 36z"/>
<path d="M5670 5153 c-25 -8 -55 -11 -66 -8 -19 4 -23 -1 -29 -32 -4 -21 -13
-49 -20 -63 -11 -21 -11 -31 1 -59 13 -31 16 -33 32 -19 9 9 31 19 49 23 24 5
40 19 63 56 27 42 31 54 24 82 l-9 33 -45 -13z"/>
<path d="M5927 5072 c-38 -39 -36 -79 6 -120 26 -25 36 -29 45 -20 24 24 8
168 -18 168 -3 0 -18 -13 -33 -28z"/>
<path d="M58 4537 c-18 -15 -28 -32 -28 -49 0 -15 -5 -30 -10 -33 -6 -4 -10
-25 -10 -48 1 -23 -2 -60 -5 -82 -4 -22 -2 -82 3 -134 8 -73 14 -98 31 -114
16 -16 23 -19 33 -9 9 9 9 17 0 37 -7 14 -12 55 -12 91 0 58 2 66 21 71 17 5
20 11 15 38 -6 28 -2 37 29 64 20 17 40 31 45 31 13 0 50 37 50 50 0 6 -13 10
-30 10 -16 0 -30 -5 -30 -11 0 -5 -5 -7 -11 -3 -6 3 -9 17 -6 30 3 18 0 24
-14 24 -12 0 -19 9 -21 27 -4 35 -17 37 -50 10z"/>
<path d="M9311 4207 c-16 -8 -29 -30 -42 -72 -17 -54 -18 -73 -8 -184 5 -69
17 -156 25 -194 7 -37 14 -83 14 -101 0 -24 7 -38 23 -49 18 -12 20 -18 10
-28 -7 -7 -13 -33 -13 -58 0 -35 -6 -51 -26 -72 l-26 -27 22 -12 c17 -9 25 -9
38 3 36 30 41 29 35 -10 -3 -21 -13 -53 -21 -72 -15 -33 -15 -34 12 -57 15
-13 33 -24 39 -24 13 0 157 97 192 129 11 11 40 22 65 26 44 6 47 9 83 76 21
38 42 69 46 69 15 0 31 -25 31 -49 l0 -24 24 22 c14 13 23 28 20 35 -6 16 52
71 60 57 4 -6 1 -23 -7 -38 -8 -16 -21 -48 -29 -73 -8 -25 -19 -53 -23 -62 -5
-13 -1 -20 16 -27 20 -7 30 -4 56 21 27 26 32 39 37 97 9 93 9 122 1 159 -5
24 -4 32 6 32 35 -1 79 -62 79 -110 0 -29 6 -41 25 -54 13 -9 27 -16 30 -16 3
0 5 23 5 50 0 43 3 50 20 50 13 0 20 -7 20 -18 0 -18 46 -70 54 -61 2 2 11 19
20 37 16 32 16 38 0 107 -15 65 -22 78 -53 100 l-36 25 -6 -35 c-12 -73 -39
-56 -39 26 0 52 -2 59 -20 59 -18 0 -20 -7 -20 -70 0 -63 -2 -70 -20 -70 -15
0 -20 7 -20 25 0 14 -6 25 -12 25 -7 0 -19 4 -27 9 -11 7 -10 15 8 45 15 24
21 47 19 73 l-3 38 -29 -42 c-26 -39 -56 -57 -56 -34 0 5 -11 12 -25 15 -30 8
-43 47 -28 87 16 42 -16 44 -93 6 -49 -24 -64 -36 -64 -53 0 -11 -8 -28 -18
-37 -16 -15 -19 -15 -30 4 -12 19 -13 19 -37 -10 -23 -27 -28 -28 -60 -18 -39
12 -41 16 -20 56 12 24 12 31 2 40 -10 7 -22 4 -45 -12 -26 -18 -33 -31 -38
-70 -6 -44 -18 -66 -31 -54 -3 3 -10 49 -17 101 -9 65 -18 102 -31 116 -16 18
-16 20 -2 20 26 0 24 90 -1 97 -14 3 -17 12 -14 39 5 38 -6 43 -47 21z"/>
<path d="M6289 3926 c-19 -17 -59 -99 -59 -122 0 -1 12 -4 26 -7 20 -4 35 3
62 27 34 32 35 33 22 72 -17 53 -21 56 -51 30z"/>
<path d="M204 3618 c3 -13 6 -29 6 -36 0 -7 12 -24 26 -37 24 -23 25 -25 7
-25 -12 0 -25 -11 -32 -27 -11 -24 -9 -29 18 -54 17 -15 31 -36 31 -45 0 -10
14 -33 31 -50 l32 -33 -22 -27 c-21 -27 -21 -29 -5 -41 10 -7 23 -13 30 -13 8
0 15 -26 19 -70 6 -62 9 -70 25 -65 20 6 35 -10 36 -40 0 -21 133 -209 141
-201 7 7 43 149 43 170 0 11 -18 43 -40 72 -33 43 -40 61 -40 97 0 24 -5 70
-12 103 -10 51 -21 71 -87 150 -42 50 -83 105 -93 122 -18 34 -49 56 -92 66
-26 6 -28 5 -22 -16z"/>
<path d="M8571 3326 l-65 -33 56 -7 c31 -4 64 -14 74 -21 29 -22 113 -18 190
9 101 35 104 37 104 56 0 21 -59 30 -200 29 -88 0 -100 -3 -159 -33z"/>
<path d="M6155 3176 c-43 -12 -57 -39 -28 -51 27 -11 175 -36 181 -31 2 3 -13
25 -33 50 -40 49 -53 53 -120 32z"/>
<path d="M9062 3048 c-19 -55 3 -97 43 -82 12 5 13 9 4 20 -7 9 -9 29 -5 54 5
34 4 40 -12 40 -11 0 -22 -12 -30 -32z"/>
<path d="M9286 3001 c-3 -20 -8 -79 -11 -133 l-7 -96 38 -26 c58 -39 82 -34
132 24 24 27 50 66 58 86 13 32 13 38 0 59 -14 20 -19 22 -53 14 -21 -5 -48
-9 -61 -9 -22 0 -23 3 -17 43 6 42 6 42 -34 58 l-40 17 -5 -37z"/>
<path d="M9148 2819 c-16 -4 -45 -21 -65 -37 -21 -16 -54 -33 -73 -37 -19 -4
-47 -14 -62 -21 -33 -17 -57 -9 -69 22 -4 13 -15 24 -22 24 -19 0 -32 -91 -15
-101 18 -11 113 -24 173 -23 125 1 176 24 140 64 -14 15 -13 21 6 64 11 26 19
49 17 50 -1 2 -15 0 -30 -5z"/>
<path d="M6412 1658 c-7 -7 -39 -11 -76 -11 -60 0 -64 -1 -69 -23 -4 -22 -1
-24 39 -24 23 0 53 -4 66 -9 13 -4 44 -11 71 -15 l47 -7 0 39 c0 36 -3 41 -31
51 -38 13 -33 13 -47 -1z"/>
</g>
</svg>
