<?xml version="1.0" standalone="no"?>
<!DOCTYPE svg PUBLIC "-//W3C//DTD SVG 20010904//EN"
 "http://www.w3.org/TR/2001/REC-SVG-20010904/DTD/svg10.dtd">
<svg version="1.0" xmlns="http://www.w3.org/2000/svg"
 width="1024.000000pt" height="1024.000000pt" viewBox="0 0 1024.000000 1024.000000"
 preserveAspectRatio="xMidYMid meet">
<metadata>
Created by potrace 1.10, written by Peter Selinger 2001-2011
</metadata>
<g transform="translate(0.000000,1024.000000) scale(0.100000,-0.100000)"
fill="#000000" stroke="none">
<path d="M74 7309 c-17 -27 -24 -49 -20 -64 4 -15 1 -25 -9 -29 -10 -3 -15
-19 -15 -44 0 -22 -7 -55 -15 -74 -14 -34 -13 -36 13 -60 15 -14 45 -35 67
-46 22 -11 62 -46 88 -78 43 -51 48 -63 43 -91 -20 -109 -25 -93 58 -169 80
-72 92 -99 64 -144 -10 -16 -9 -25 5 -49 9 -16 17 -36 17 -44 0 -9 8 -18 18
-21 13 -5 17 -18 18 -63 1 -43 6 -60 20 -69 11 -7 24 -18 29 -25 6 -6 25 -26
43 -43 26 -26 32 -40 32 -74 0 -22 4 -43 9 -46 5 -3 11 -18 14 -33 12 -63 47
-139 75 -163 16 -14 38 -40 48 -57 12 -22 26 -33 41 -33 28 0 30 -16 3 -30
-11 -6 -20 -17 -20 -25 0 -8 -18 -33 -40 -55 -22 -22 -40 -48 -40 -56 0 -8 -7
-29 -16 -46 -19 -36 -13 -65 21 -102 14 -15 32 -41 41 -57 8 -17 22 -33 31
-36 8 -3 37 -28 63 -55 41 -42 52 -48 89 -48 59 0 108 -28 167 -97 46 -53 57
-60 111 -72 53 -11 64 -11 91 3 17 9 40 16 52 16 14 0 20 6 20 21 0 12 7 36
16 55 15 32 15 35 -6 64 -12 16 -29 30 -37 30 -14 0 -14 2 1 19 11 12 15 27
12 39 -4 12 0 24 9 32 14 12 15 10 10 -12 -8 -30 9 -68 29 -68 19 0 25 56 9
80 -9 13 -10 21 -2 26 12 7 29 -12 29 -33 0 -9 16 -13 44 -13 24 0 48 -6 55
-13 14 -17 4 -27 -25 -27 -13 0 -39 -11 -59 -24 -34 -24 -35 -25 -15 -36 22
-12 20 -17 -27 -65 -13 -12 -23 -31 -23 -42 0 -23 40 -63 63 -63 9 0 24 -11
33 -26 23 -34 63 -53 97 -47 20 4 42 -3 78 -26 28 -17 61 -31 74 -31 13 0 52
-13 87 -30 34 -16 73 -30 86 -30 15 0 22 -6 22 -20 0 -16 7 -20 30 -20 45 0
66 -28 74 -96 5 -44 13 -67 32 -87 29 -32 23 -31 64 -10 35 17 103 19 143 4
14 -5 27 -21 31 -35 5 -22 12 -26 40 -26 39 0 51 -12 61 -60 14 -74 9 -70 91
-66 l74 5 0 -66 c0 -56 3 -66 20 -70 16 -4 20 -14 20 -44 0 -21 5 -41 10 -44
6 -3 10 -14 10 -25 0 -21 64 -50 111 -50 31 0 65 -29 97 -82 14 -24 23 -28 62
-28 25 -1 65 -5 90 -11 25 -5 90 -14 145 -19 l100 -9 31 32 c22 22 39 58 58
118 32 107 32 117 2 129 -14 5 -32 20 -41 34 -30 46 -105 54 -105 11 0 -6 -18
-31 -41 -55 -29 -30 -37 -46 -30 -53 25 -25 11 -37 -39 -37 -51 0 -51 0 -70
46 -25 56 -25 54 3 54 44 1 122 27 125 42 2 9 -15 26 -42 42 -62 36 -68 50
-19 42 52 -9 69 8 48 48 -14 27 -14 27 13 24 18 -2 31 -12 41 -32 7 -16 26
-34 42 -40 16 -5 29 -14 29 -17 0 -4 16 -17 35 -29 24 -15 35 -29 35 -45 0
-22 1 -23 41 -11 23 7 49 23 59 36 16 22 28 24 149 32 106 6 136 5 154 -6 12
-7 46 -17 76 -20 30 -4 70 -15 90 -25 20 -10 51 -22 68 -26 47 -10 73 -48 73
-104 0 -55 22 -91 54 -91 14 0 30 -10 41 -26 17 -26 104 -114 113 -114 3 0 10
-7 16 -15 6 -8 49 -31 95 -50 95 -39 119 -58 167 -132 18 -29 46 -59 61 -67
41 -21 68 -55 82 -104 8 -30 27 -58 59 -88 56 -51 93 -60 218 -50 l84 7 33
-36 33 -36 115 -3 c88 -2 122 -7 140 -19 31 -22 39 -21 39 4 0 32 -19 59 -40
59 -15 0 -20 7 -20 29 0 17 -4 33 -10 36 -6 3 -10 16 -10 27 0 12 -12 36 -26
55 -57 74 10 133 71 62 18 -23 29 -29 37 -21 6 6 17 8 25 5 11 -5 11 -9 -5
-27 -23 -24 -40 -140 -22 -151 5 -3 10 -32 10 -64 0 -63 18 -91 58 -91 12 0
45 -9 73 -20 56 -21 78 -18 57 8 -11 14 -10 15 5 9 10 -4 41 -7 68 -7 37 0 49
-4 49 -15 0 -8 -5 -15 -11 -15 -6 0 -9 -5 -7 -12 3 -7 33 -12 81 -13 63 -2 79
1 93 16 18 21 49 25 59 9 10 -16 47 -12 60 7 12 16 18 16 59 5 63 -16 86 -15
102 5 13 17 15 16 35 -10 19 -24 23 -26 38 -14 9 7 35 19 59 26 87 25 406 -8
484 -50 21 -12 242 -59 318 -68 30 -4 72 -15 94 -24 21 -9 55 -17 76 -17 41 0
164 -36 195 -56 11 -8 45 -14 77 -14 51 0 59 3 77 29 12 16 21 35 21 41 0 7 5
30 12 51 10 37 14 39 50 39 49 0 90 -41 114 -112 9 -29 22 -48 31 -48 8 0 24
-12 36 -26 18 -23 24 -25 66 -19 67 10 72 18 54 95 -9 36 -16 79 -16 97 -1 40
-22 47 -83 26 -43 -15 -59 -42 -34 -58 18 -11 11 -35 -10 -35 -16 0 -20 7 -20
38 0 48 -23 83 -41 65 -19 -19 -43 -16 -64 7 -10 12 -31 20 -49 20 -28 1 -29
2 -13 14 9 7 17 25 17 40 0 36 17 66 36 66 19 0 53 -39 54 -62 0 -21 12 -29
29 -18 9 5 12 18 8 38 -9 45 3 46 31 4 37 -55 62 -68 62 -32 0 10 -14 35 -31
54 l-30 35 33 14 c42 17 66 5 74 -40 6 -34 18 -40 44 -23 11 7 12 13 5 23 -5
8 -18 26 -28 40 -10 14 -19 38 -20 53 -2 27 0 29 38 29 34 0 40 3 43 23 4 26
3 26 44 6 38 -18 108 -101 108 -126 0 -11 -8 -18 -20 -18 -26 0 -40 -48 -18
-64 9 -7 15 -25 14 -44 -1 -32 -9 -41 -21 -22 -3 5 -25 10 -48 10 -23 0 -51 7
-61 15 -23 17 -56 20 -56 5 0 -6 9 -18 19 -27 14 -12 17 -21 11 -33 -5 -9 -5
-22 0 -30 5 -8 7 -24 5 -35 -9 -35 20 -99 51 -114 16 -8 66 -17 111 -19 75 -4
86 -7 120 -37 21 -18 53 -40 72 -50 41 -21 158 -34 147 -17 -4 7 -18 12 -31
12 -23 0 -42 16 -32 27 3 2 32 -3 63 -12 70 -20 184 -13 184 11 0 25 17 15 23
-14 3 -16 16 -33 29 -40 18 -8 19 -11 5 -11 -10 -1 -29 6 -42 15 -20 13 -38
15 -92 9 -36 -4 -61 -10 -54 -14 7 -5 35 -6 63 -3 42 4 54 1 65 -14 17 -23 60
-23 188 0 78 14 95 14 125 2 19 -7 59 -19 87 -26 48 -11 55 -10 79 9 25 19 35
21 120 15 90 -7 94 -6 128 19 57 44 86 153 39 145 -12 -2 -19 4 -21 20 -4 26
14 29 45 7 19 -14 22 -13 37 10 9 14 23 25 30 25 8 0 21 11 30 25 27 41 75 65
130 65 27 0 75 9 105 19 31 10 98 22 149 25 51 3 103 11 115 18 12 7 45 11 74
9 44 -2 54 1 65 18 7 12 20 21 30 21 21 0 78 47 78 65 0 7 7 15 15 19 33 12
15 42 -40 69 -31 15 -61 27 -68 27 -8 0 -48 18 -90 39 -42 22 -93 43 -114 46
-21 3 -57 15 -81 26 -23 10 -56 19 -73 19 -17 0 -32 6 -35 15 -4 8 -16 15 -29
15 -12 0 -30 9 -39 19 -10 11 -43 32 -74 47 -31 15 -81 50 -113 78 -89 79
-197 147 -284 176 -33 11 -80 34 -104 50 -24 17 -57 30 -73 30 -19 0 -42 13
-72 40 -24 22 -48 40 -54 40 -5 0 -12 6 -15 14 -3 8 -27 29 -54 47 -26 18 -84
62 -128 97 -44 36 -93 71 -110 79 -16 8 -50 42 -75 75 -76 102 -104 130 -121
123 -8 -3 -29 -35 -47 -70 l-32 -65 25 -36 c14 -20 25 -41 25 -45 0 -5 9 -9
20 -9 11 0 29 -13 42 -30 12 -16 28 -30 35 -30 28 0 1 -19 -35 -26 -20 -4 -42
-11 -49 -16 -6 -5 -25 -5 -45 0 -26 6 -34 14 -36 35 -2 16 -9 27 -19 27 -11 0
-14 -6 -9 -25 7 -27 -11 -34 -32 -13 -9 9 -12 9 -12 -3 0 -8 -9 -20 -20 -27
-11 -6 -17 -18 -14 -26 3 -9 -3 -17 -15 -21 -27 -8 -45 3 -32 19 17 20 -33 40
-62 25 -12 -7 -25 -17 -29 -23 -5 -8 -10 -8 -18 0 -19 19 8 72 40 79 64 14 53
54 -20 72 -25 7 -36 16 -38 31 -2 14 2 22 11 22 10 0 13 8 9 25 -4 22 -1 25
28 25 22 0 33 -5 37 -18 3 -13 14 -18 39 -18 29 0 34 3 32 21 -4 27 37 33 64
8 15 -13 22 -15 25 -5 3 6 11 12 19 12 8 0 14 4 14 9 0 6 13 24 29 42 17 18
31 46 33 65 4 31 -2 40 -49 87 -30 28 -70 74 -91 100 -48 62 -196 157 -245
157 -10 0 -20 6 -23 14 -3 8 -19 14 -37 14 -48 1 -179 22 -191 31 -24 19 -177
62 -269 75 -53 8 -102 18 -107 21 -6 3 -31 10 -58 15 -26 4 -71 17 -101 29
-40 15 -58 18 -67 10 -16 -13 -77 -30 -119 -34 -16 -1 -38 -3 -47 -3 -10 -1
-18 -8 -18 -14 0 -12 -197 -68 -315 -90 -27 -5 -75 -14 -105 -19 -30 -6 -77
-15 -105 -19 -60 -10 -114 -28 -135 -45 -15 -13 -28 -16 -160 -35 -93 -14
-289 -1 -325 22 -6 3 -51 2 -100 -3 -78 -9 -100 -16 -167 -53 -160 -91 -172
-93 -538 -104 -283 -9 -330 -8 -365 5 -22 9 -47 23 -55 32 -49 54 -260 142
-395 166 -63 11 -107 24 -120 36 -11 10 -47 30 -80 44 -33 15 -70 31 -82 37
-11 6 -26 7 -32 3 -7 -3 -37 8 -69 26 -77 44 -206 90 -267 96 -57 6 -96 32
-185 125 -31 31 -76 66 -101 77 -25 11 -54 29 -64 41 -10 11 -23 20 -28 20
-10 0 -86 67 -177 154 -25 24 -64 55 -87 70 -23 14 -50 38 -59 53 -47 77 -95
151 -113 174 -10 14 -27 49 -37 78 -9 29 -28 66 -40 81 -13 15 -24 41 -24 57
0 16 -4 33 -8 38 -24 27 -66 166 -63 207 3 38 -36 63 -73 47 -14 -7 -26 -20
-26 -30 0 -25 -12 -30 -34 -14 -24 18 -14 45 17 45 29 0 77 35 77 56 0 8 -4
14 -8 14 -5 0 -9 14 -9 30 0 45 -29 78 -118 138 -102 67 -118 71 -147 38 -28
-32 -52 -22 -42 17 4 19 13 27 29 27 25 0 36 24 25 56 -6 16 -111 112 -222
202 -16 13 -61 40 -101 59 -61 30 -83 36 -142 36 -115 1 -256 -14 -328 -35
-65 -18 -71 -18 -118 -3 -28 10 -90 21 -137 26 -188 19 -207 22 -220 32 -7 5
-45 12 -84 15 -56 4 -88 13 -141 40 -37 19 -89 37 -115 40 -26 2 -55 12 -66
21 -13 12 -39 16 -100 16 -80 1 -89 4 -188 56 -9 5 -36 11 -60 14 -24 4 -53 8
-65 11 -18 3 -28 -5 -49 -37z"/>
</g>
</svg>
