<?xml version="1.0" standalone="no"?>
<!DOCTYPE svg PUBLIC "-//W3C//DTD SVG 20010904//EN"
 "http://www.w3.org/TR/2001/REC-SVG-20010904/DTD/svg10.dtd">
<svg version="1.0" xmlns="http://www.w3.org/2000/svg"
 width="1024.000000pt" height="1024.000000pt" viewBox="0 0 1024.000000 1024.000000"
 preserveAspectRatio="xMidYMid meet">
<metadata>
Created by potrace 1.10, written by Peter Selinger 2001-2011
</metadata>
<g transform="translate(0.000000,1024.000000) scale(0.100000,-0.100000)"
fill="#000000" stroke="none">
<path d="M1358 10233 l-477 -3 -6 -48 c-7 -56 -23 -149 -31 -179 -5 -17 1 -25
25 -37 16 -9 41 -35 55 -59 56 -96 94 -405 62 -505 -8 -26 -17 -63 -20 -83 -4
-21 -13 -42 -21 -49 -20 -17 -19 -35 6 -107 19 -58 20 -65 5 -120 -8 -32 -17
-65 -20 -73 -4 -10 2 -19 16 -25 13 -6 24 -17 26 -27 3 -18 -5 -27 -58 -61
-30 -19 -36 -31 -43 -74 -8 -50 -10 -52 -35 -47 -26 5 -29 1 -69 -88 -24 -51
-50 -117 -58 -146 -15 -50 -15 -54 5 -100 12 -26 23 -70 24 -98 3 -67 29 -101
127 -170 82 -58 119 -95 119 -123 1 -9 15 -25 33 -36 42 -26 166 -211 167
-247 0 -15 16 -75 37 -134 l36 -107 -27 -108 c-24 -97 -26 -115 -16 -168 16
-90 39 -159 76 -233 40 -79 41 -96 13 -132 -45 -57 -29 -87 130 -238 65 -61
124 -127 145 -162 47 -78 59 -90 142 -147 83 -56 109 -86 126 -143 6 -22 19
-48 28 -56 30 -28 193 -250 187 -256 -9 -9 -45 19 -72 55 l-23 32 -26 -78
c-32 -95 -33 -113 -8 -90 37 34 75 22 151 -48 40 -36 80 -65 92 -65 11 0 45
-20 76 -45 65 -53 90 -55 85 -8 -2 23 1 32 14 35 16 3 17 4 1 20 -21 21 -22
47 -2 75 14 20 14 22 -5 28 -23 7 -26 38 -10 95 8 29 18 38 56 54 l45 19 42
-32 c45 -34 106 -66 147 -76 22 -5 30 0 58 39 48 67 109 76 100 15 -4 -27 -1
-30 35 -41 29 -9 46 -9 69 0 30 11 70 3 83 -17 3 -6 19 -11 36 -11 24 0 29 -4
29 -25 0 -31 -3 -31 -150 -5 -110 20 -115 20 -181 3 -68 -17 -68 -17 -92 5
-13 12 -29 22 -36 22 -11 0 -86 -47 -135 -85 -22 -17 -15 -45 12 -45 19 0 62
-47 75 -82 3 -10 -2 -27 -14 -41 -22 -29 -24 -37 -6 -37 15 0 123 -120 136
-152 5 -12 12 -39 16 -59 6 -43 34 -71 95 -97 25 -11 52 -27 60 -37 13 -15 12
-19 -5 -31 -39 -28 -92 -18 -160 32 -35 26 -69 60 -76 76 -9 22 -23 31 -65 44
-60 17 -71 31 -81 100 -5 37 -3 48 10 55 14 8 12 14 -10 49 -20 30 -33 40 -54
40 -36 0 -40 -16 -27 -110 10 -71 9 -84 -7 -119 -22 -50 -14 -91 18 -91 20 0
25 -10 45 -94 12 -51 22 -124 22 -161 0 -73 -5 -64 100 -185 21 -25 55 -64 75
-87 48 -56 84 -67 155 -48 80 22 96 19 123 -17 42 -56 77 -136 77 -175 0 -75
-45 -198 -76 -210 -8 -3 -23 2 -34 12 -19 17 -20 16 -32 -10 -10 -23 -10 -29
3 -39 11 -8 17 -37 22 -106 11 -158 30 -194 149 -277 28 -19 67 -62 96 -105
28 -41 63 -83 79 -93 38 -25 51 -44 58 -86 4 -26 22 -51 61 -90 65 -64 84 -95
84 -143 0 -40 28 -66 70 -66 33 0 48 -12 98 -80 60 -83 101 -118 152 -129 72
-16 79 -36 58 -161 -11 -66 -11 -72 8 -91 12 -11 54 -29 95 -39 121 -31 138
-67 98 -205 l-22 -74 27 -31 c28 -34 32 -54 16 -95 -7 -17 -6 -39 2 -69 9 -34
8 -55 -4 -104 l-16 -61 47 -27 c58 -34 81 -54 91 -79 7 -19 13 -20 86 -14 148
14 305 10 351 -7 24 -9 43 -20 43 -25 0 -19 37 -28 67 -17 25 9 37 8 67 -6 32
-15 38 -15 65 -1 62 32 118 15 249 -73 94 -63 122 -93 122 -132 0 -50 120
-116 273 -151 31 -6 64 -20 73 -31 19 -21 45 -23 62 -6 7 7 50 11 113 11 l102
1 28 -34 c16 -18 45 -65 65 -103 34 -65 35 -71 25 -112 -6 -24 -11 -46 -11
-48 0 -2 20 -10 43 -17 39 -10 47 -10 78 9 65 40 120 23 216 -63 32 -29 76
-62 98 -74 96 -48 334 -264 403 -363 48 -71 98 -175 122 -259 13 -41 27 -79
31 -84 13 -15 10 -48 -6 -69 -11 -16 -11 -25 1 -59 8 -22 14 -58 14 -80 0 -34
2 -39 19 -33 15 5 25 -3 45 -37 13 -24 28 -56 32 -71 3 -16 12 -31 19 -33 6
-3 151 9 321 25 519 51 711 69 1179 111 487 43 684 70 700 96 6 9 22 32 38 51
36 47 36 97 1 151 -23 35 -32 40 -76 46 -34 5 -58 15 -75 32 -27 27 -28 48 -3
135 14 49 15 48 -35 115 -6 9 -3 19 10 34 16 18 17 23 5 46 -17 30 -4 57 29
62 12 2 39 28 66 66 41 58 45 68 45 124 0 41 5 63 15 72 19 16 19 31 -2 98
-16 51 -16 54 0 63 18 11 23 54 7 64 -16 10 -12 40 10 68 11 14 27 45 35 68
20 55 35 72 115 125 36 23 89 64 119 91 l54 49 -17 31 c-16 32 -62 68 -142
112 -47 26 -58 46 -103 187 -28 87 -41 112 -101 187 -75 95 -95 141 -86 192 6
33 3 37 -416 437 -637 609 -1131 1073 -2093 1968 -280 261 -674 628 -875 815
-201 187 -557 517 -793 734 l-427 394 0 1693 0 1694 -1327 -2 c-731 -2 -1543
-4 -1805 -5z"/>
<path d="M4590 1550 c0 -5 5 -12 11 -15 5 -4 9 -19 7 -33 -3 -23 2 -29 32 -38
29 -10 50 -7 139 17 106 29 132 41 112 54 -6 3 -27 -3 -47 -15 -41 -26 -72
-24 -183 14 -39 13 -71 20 -71 16z"/>
<path d="M4370 1504 c-14 -7 -33 -14 -43 -14 -15 0 -14 -6 13 -45 39 -57 47
-58 126 -24 l46 21 -31 28 c-17 16 -31 34 -31 39 0 15 -50 12 -80 -5z"/>
<path d="M5730 935 c0 -3 15 -11 34 -19 27 -11 37 -23 47 -55 15 -50 23 -57
77 -69 38 -9 42 -8 42 9 0 30 -57 86 -115 114 -50 23 -85 32 -85 20z"/>
<path d="M4880 740 c-22 -13 -1 -30 46 -36 l39 -6 -28 26 c-31 29 -35 30 -57
16z"/>
<path d="M5720 466 c0 -3 11 -29 24 -58 30 -68 97 -141 120 -132 9 4 16 12 14
19 -3 13 -158 181 -158 171z"/>
</g>
</svg>
