<?xml version="1.0" standalone="no"?>
<!DOCTYPE svg PUBLIC "-//W3C//DTD SVG 20010904//EN"
 "http://www.w3.org/TR/2001/REC-SVG-20010904/DTD/svg10.dtd">
<svg version="1.0" xmlns="http://www.w3.org/2000/svg"
 width="1024.000000pt" height="1024.000000pt" viewBox="0 0 1024.000000 1024.000000"
 preserveAspectRatio="xMidYMid meet">
<metadata>
Created by potrace 1.10, written by Peter Selinger 2001-2011
</metadata>
<g transform="translate(0.000000,1024.000000) scale(0.100000,-0.100000)"
fill="#000000" stroke="none">
<path d="M9691 10146 c-30 -31 -120 -78 -134 -69 -7 4 -30 22 -53 40 -23 18
-44 33 -48 33 -3 0 -6 -28 -6 -62 l0 -63 -66 -59 c-46 -41 -79 -62 -111 -70
-38 -10 -48 -17 -57 -42 l-11 -31 -50 17 c-48 16 -52 16 -108 -3 l-58 -19 6
-39 c5 -31 4 -39 -8 -39 -39 0 -214 -64 -232 -85 -11 -13 -44 -36 -72 -51
l-53 -29 -58 32 -59 32 -16 -52 c-27 -85 -36 -93 -90 -78 -24 7 -54 10 -66 6
-14 -4 -30 1 -47 14 -19 15 -41 21 -78 21 -48 0 -53 3 -75 37 l-24 37 -19 -24
c-19 -24 -20 -58 -4 -101 7 -16 -28 -37 -108 -65 l-38 -14 -72 65 -73 64 -21
-38 c-12 -21 -22 -53 -22 -70 0 -18 -10 -50 -22 -71 l-23 -40 -77 0 -78 0 0
44 c0 25 -5 48 -11 52 -6 3 -44 -26 -88 -68 -100 -98 -180 -160 -200 -154 -9
3 -33 8 -54 12 -29 5 -44 15 -60 40 -14 21 -33 36 -52 39 -16 4 -79 18 -139
32 -86 20 -114 23 -128 14 -10 -6 -30 -8 -46 -4 -29 7 -112 84 -112 104 0 7
-26 65 -57 130 l-58 118 -40 1 c-22 0 -86 -15 -142 -32 l-102 -33 -18 -50
c-16 -44 -22 -50 -59 -60 -47 -12 -132 -84 -158 -133 -9 -18 -28 -38 -42 -44
-19 -9 -24 -18 -22 -37 2 -21 10 -27 41 -32 49 -8 51 -12 33 -48 -9 -16 -16
-48 -16 -70 0 -36 -4 -44 -37 -65 -59 -39 -85 -41 -130 -13 -27 17 -48 23 -71
19 -17 -2 -32 -7 -32 -11 0 -3 7 -39 17 -79 l17 -74 -37 -31 c-43 -37 -120
-182 -111 -209 3 -10 23 -23 45 -29 33 -10 41 -18 51 -52 l12 -40 -57 -52
c-58 -53 -87 -65 -159 -65 -22 0 -71 -7 -109 -17 -60 -14 -72 -21 -93 -53 -15
-23 -36 -40 -57 -46 -25 -7 -36 -18 -42 -39 -5 -17 -32 -78 -59 -136 l-51
-106 -81 -41 c-44 -22 -89 -43 -98 -46 -15 -4 -38 -61 -38 -93 0 -6 -21 -15
-47 -19 -64 -9 -142 -49 -175 -89 -18 -22 -40 -35 -65 -40 -22 -4 -53 -20 -73
-39 -22 -22 -49 -36 -74 -39 -22 -4 -43 -12 -48 -19 -4 -7 -8 -41 -8 -75 0
-59 1 -62 35 -83 38 -23 37 -37 -5 -75 -21 -19 -22 -19 -39 4 -17 22 -19 23
-49 7 -41 -21 -41 -21 -106 22 -48 31 -59 44 -69 79 -10 37 -15 44 -45 49 -18
4 -51 4 -72 1 -36 -5 -41 -2 -58 27 -11 18 -60 61 -110 96 -52 37 -97 78 -107
97 -17 31 -17 33 4 59 11 15 21 37 21 49 0 22 -3 23 -62 18 -35 -3 -74 -14
-88 -23 -14 -10 -43 -27 -65 -38 -27 -13 -48 -35 -64 -65 -13 -25 -38 -53 -55
-62 -39 -22 -54 -40 -120 -140 -58 -88 -103 -137 -159 -175 -30 -20 -37 -31
-37 -58 0 -25 -12 -49 -45 -91 l-46 -58 -85 -6 c-79 -6 -90 -4 -136 19 -36 18
-54 22 -61 15 -18 -18 -35 -13 -89 24 -71 49 -89 52 -142 21 -40 -23 -58 -27
-163 -31 -187 -7 -212 -12 -255 -53 -26 -24 -38 -45 -38 -63 0 -15 -7 -43 -15
-62 -22 -54 -19 -78 20 -117 l35 -36 -14 -70 c-12 -65 -12 -74 5 -105 13 -24
18 -56 19 -108 0 -62 4 -82 27 -120 25 -43 26 -48 15 -100 -7 -31 -15 -66 -18
-78 -5 -18 -1 -25 18 -32 31 -12 39 -46 31 -127 -7 -77 -30 -104 -89 -104 -34
0 -51 7 -79 31 -31 28 -39 30 -77 24 -24 -4 -66 -16 -95 -27 -69 -25 -127
-100 -142 -183 -14 -77 -14 -85 4 -79 18 7 19 -3 4 -80 -8 -43 -7 -61 2 -72 9
-11 2 -22 -39 -59 -39 -35 -51 -53 -56 -85 -5 -34 -10 -40 -31 -40 -13 0 -53
-20 -89 -45 l-65 -46 -37 16 c-29 12 -79 15 -239 15 l-203 0 -113 -47 c-151
-62 -179 -79 -179 -109 0 -21 5 -24 38 -24 20 -1 48 -7 61 -14 l23 -13 -23 -6
c-64 -17 -136 -7 -213 29 -66 31 -76 40 -76 63 -1 28 -26 80 -75 154 -16 25
-35 53 -40 62 -7 12 -29 18 -78 22 -65 6 -67 7 -76 37 l-8 31 -12 -43 c-20
-70 -46 -103 -108 -136 -49 -26 -62 -40 -86 -88 -16 -31 -31 -76 -34 -100 -5
-42 -3 -46 33 -75 22 -17 86 -60 142 -97 57 -37 125 -86 150 -110 106 -97 144
-101 107 -12 -7 15 1 13 38 -13 52 -35 57 -46 27 -56 -11 -3 -20 -10 -20 -15
0 -11 193 -232 246 -281 22 -20 66 -55 99 -79 33 -24 119 -100 190 -170 72
-69 158 -146 193 -170 72 -50 75 -65 6 -26 -50 28 -58 28 -48 3 10 -28 365
-271 630 -433 l262 -159 71 -155 c39 -85 77 -172 84 -193 7 -20 34 -63 60 -95
97 -117 147 -193 147 -222 0 -22 15 -43 68 -93 43 -42 88 -101 126 -164 69
-114 119 -171 196 -222 138 -91 148 -101 170 -172 l20 -66 88 -32 c60 -22 117
-53 187 -102 55 -39 108 -76 117 -82 10 -7 18 -18 18 -25 0 -26 92 -121 134
-137 40 -16 60 -34 218 -189 67 -66 84 -77 122 -82 39 -6 48 -13 85 -62 22
-30 95 -113 161 -183 108 -114 120 -131 120 -164 0 -52 24 -101 57 -119 30
-15 180 -56 205 -56 26 0 110 121 133 191 21 67 43 102 77 120 20 11 66 -13
154 -82 69 -55 154 -90 299 -126 55 -14 328 -112 606 -219 278 -108 516 -198
528 -201 15 -4 41 10 96 51 79 60 392 256 408 256 5 0 22 -11 37 -23 34 -29
135 -52 190 -43 38 6 44 3 73 -28 25 -26 44 -36 80 -41 35 -6 68 -22 123 -61
41 -29 96 -60 123 -68 l49 -14 38 39 c45 46 54 48 54 14 0 -14 13 -52 30 -84
33 -66 54 -82 173 -131 58 -24 81 -39 92 -61 19 -36 19 -53 0 -69 -24 -20 -18
-35 23 -57 42 -24 261 -83 307 -83 51 0 103 19 110 40 5 16 10 18 33 9 32 -12
115 -91 143 -136 13 -21 34 -36 62 -46 37 -12 46 -12 90 5 26 10 52 16 56 14
4 -3 23 10 41 29 22 23 43 35 61 35 18 0 36 10 52 30 21 24 34 30 65 30 24 0
49 8 65 20 18 15 40 20 81 20 30 0 67 5 81 12 25 11 25 12 25 133 0 68 -3 137
-6 155 -7 34 -10 34 -97 17 -6 -1 -13 8 -15 20 -2 12 -19 33 -38 48 -65 50
-110 124 -172 285 -33 85 -77 209 -98 275 -35 112 -38 130 -42 266 l-4 146 36
71 c36 71 37 72 77 72 40 0 40 0 70 67 17 36 35 94 40 127 16 106 16 106 52
106 27 0 40 9 70 45 33 39 43 45 77 45 60 0 75 29 66 127 -6 59 -18 101 -52
179 -26 61 -44 117 -44 140 -1 100 -38 164 -96 164 -38 0 -48 -25 -38 -90 6
-39 6 -40 -24 -40 -41 0 -96 48 -128 111 -30 60 -30 77 -2 81 15 2 24 13 31
38 12 47 24 60 58 60 15 0 30 4 33 8 2 4 1 66 -2 136 l-7 129 -30 11 c-21 8
-30 16 -27 28 3 15 14 18 62 18 65 0 65 1 76 78 5 39 2 57 -16 91 -21 41 -22
42 -59 36 -36 -6 -39 -4 -45 21 -9 32 -8 33 35 35 42 3 99 -32 99 -61 0 -10
12 -28 26 -39 26 -20 26 -22 11 -53 -8 -18 -18 -54 -22 -80 -6 -42 -4 -50 23
-85 17 -21 36 -60 43 -86 6 -26 14 -45 18 -42 3 4 6 131 6 283 l0 277 29 75
c15 41 46 98 67 127 21 29 39 64 39 78 0 22 -4 25 -34 25 -35 0 -35 0 -58 -77
-17 -57 -29 -79 -42 -81 -15 -3 -17 0 -11 14 5 11 9 37 9 59 l1 40 -44 -3
c-29 -2 -50 3 -61 13 -24 22 -34 79 -19 107 14 26 14 54 -1 148 l-11 65 -40
-3 -39 -4 0 60 c0 86 22 112 98 112 51 0 64 5 125 46 37 25 67 53 67 60 0 8 8
17 18 21 65 24 91 73 67 130 -7 17 -19 66 -26 108 -11 72 -14 78 -46 93 -37
18 -40 27 -17 53 12 14 13 22 4 39 -6 12 -10 22 -8 23 2 1 17 15 34 30 30 27
33 28 80 16 63 -15 114 -53 114 -84 0 -13 -11 -36 -24 -52 -17 -20 -23 -37
-19 -55 3 -14 0 -97 -6 -185 -14 -188 -22 -203 -103 -203 l-48 0 0 -113 c0
-109 1 -115 30 -161 31 -48 33 -86 5 -86 -13 0 -25 -30 -25 -67 0 -29 36 -31
83 -6 22 12 65 19 134 23 56 3 105 9 109 13 4 4 8 43 8 87 0 68 -4 85 -22 108
-13 15 -40 62 -61 104 -36 72 -40 86 -46 193 -6 89 -4 135 9 203 9 48 20 141
25 207 5 73 16 138 27 167 16 40 17 53 6 100 -68 307 -115 568 -132 738 -19
184 -19 205 -5 338 25 243 33 282 70 342 32 54 33 58 38 195 3 109 10 161 31
238 17 66 26 122 26 175 0 55 8 106 29 180 17 57 33 124 37 150 9 65 27 97 98
173 85 91 192 235 235 316 20 37 60 105 89 151 29 45 62 107 73 136 11 30 36
76 56 102 l37 48 -3 121 c-2 112 -5 125 -36 195 -19 41 -37 100 -41 130 -4 32
-30 108 -61 180 -64 145 -113 327 -113 417 0 55 -2 63 -19 63 -12 0 -30 -18
-50 -50 -19 -30 -38 -50 -49 -50 -10 0 -35 17 -55 38 -33 34 -37 43 -37 90 0
49 -2 52 -25 52 -31 0 -31 2 5 75 16 33 30 65 30 70 0 11 138 86 158 85 7 0
12 -14 12 -37 0 -21 9 -51 19 -67 16 -23 17 -33 8 -47 -7 -11 -21 -19 -33 -19
-27 0 -37 -22 -20 -46 7 -9 11 -26 8 -36 -4 -17 0 -19 28 -16 36 3 36 3 122
188 35 75 74 142 115 192 l62 77 -122 -6 -123 -6 -12 27 c-11 24 -16 26 -76
26 -55 0 -67 3 -76 20 -16 29 -70 27 -99 -4z"/>
</g>
</svg>
