<?xml version="1.0" standalone="no"?>
<!DOCTYPE svg PUBLIC "-//W3C//DTD SVG 20010904//EN"
 "http://www.w3.org/TR/2001/REC-SVG-20010904/DTD/svg10.dtd">
<svg version="1.0" xmlns="http://www.w3.org/2000/svg"
 width="1024.000000pt" height="1024.000000pt" viewBox="0 0 1024.000000 1024.000000"
 preserveAspectRatio="xMidYMid meet">
<metadata>
Created by potrace 1.10, written by Peter Selinger 2001-2011
</metadata>
<g transform="translate(0.000000,1024.000000) scale(0.100000,-0.100000)"
fill="#000000" stroke="none">
<path d="M882 9214 c-24 -19 -49 -27 -94 -32 -52 -4 -66 -10 -86 -34 -15 -18
-33 -28 -50 -28 -15 0 -65 -14 -111 -32 -77 -31 -86 -37 -123 -92 -66 -96 -88
-162 -88 -264 0 -76 -3 -91 -20 -107 -24 -22 -25 -39 -4 -96 20 -56 64 -336
64 -410 0 -35 -9 -78 -24 -116 -13 -33 -29 -98 -36 -144 -11 -73 -10 -91 4
-138 23 -79 21 -152 -8 -209 -57 -115 -60 -135 -47 -374 6 -120 14 -246 18
-281 l5 -63 -60 -76 c-39 -49 -91 -135 -142 -239 -92 -183 -94 -197 -39 -291
20 -34 29 -62 29 -93 0 -88 70 -192 167 -250 27 -16 36 -32 58 -104 57 -189
74 -221 142 -272 34 -25 92 -62 130 -81 80 -42 148 -51 398 -52 l160 -1 52
-35 c34 -23 59 -50 73 -79 12 -24 52 -88 91 -141 l69 -98 65 -13 c62 -12 67
-15 95 -60 17 -25 74 -84 128 -129 l97 -82 61 4 c70 4 154 42 169 75 6 15 22
24 48 28 45 8 57 30 57 108 0 61 3 66 51 95 19 12 44 31 54 42 18 20 18 21 -3
43 -11 12 -23 38 -27 57 -5 28 -16 42 -50 63 -34 22 -44 35 -50 64 -10 54 -38
103 -84 148 -31 30 -41 47 -41 71 0 25 -8 39 -34 61 -37 30 -67 90 -122 243
-32 90 -34 102 -34 230 0 207 -39 321 -152 449 l-48 55 0 87 0 87 -35 21 c-26
15 -35 27 -35 46 0 29 -44 76 -100 105 -30 15 -39 28 -58 87 -12 38 -22 94
-22 124 0 36 -7 65 -19 86 -18 29 -19 45 -14 195 6 161 7 164 40 224 21 38 35
81 38 110 2 27 9 108 16 179 11 125 10 132 -11 185 -33 84 -39 245 -11 324 12
33 21 77 21 99 0 30 9 54 34 91 l34 51 -5 122 -6 121 -59 73 c-65 79 -78 104
-78 149 0 38 -27 55 -116 76 -38 8 -103 26 -145 40 -98 31 -135 31 -177 -2z"/>
<path d="M9589 3693 c-14 -2 -53 -28 -88 -58 -34 -30 -68 -55 -74 -55 -7 0
-29 -5 -50 -11 -68 -19 -84 -113 -22 -141 14 -6 25 -20 25 -30 0 -10 7 -35 15
-55 15 -37 15 -37 -19 -72 -36 -37 -58 -86 -70 -156 -4 -22 -14 -57 -23 -77
-15 -37 -18 -38 -66 -38 -48 0 -53 -3 -121 -67 -42 -40 -99 -82 -140 -103 -65
-33 -77 -35 -179 -38 -86 -3 -116 -8 -141 -23 -18 -11 -50 -19 -76 -19 -25 -1
-56 -7 -70 -15 -14 -8 -48 -14 -76 -15 -47 0 -55 3 -93 41 l-41 42 -73 -6
c-39 -3 -107 1 -150 7 -67 11 -83 17 -115 48 -20 19 -59 50 -86 68 -44 30 -53
32 -101 26 -29 -3 -60 -9 -69 -12 -27 -10 -18 -44 17 -62 17 -9 56 -41 85 -69
29 -29 58 -53 64 -53 7 0 32 -17 57 -38 89 -74 175 -125 379 -224 l207 -100
155 4 155 5 105 -59 c122 -69 193 -133 225 -203 27 -60 87 -118 137 -135 39
-12 106 -80 155 -156 31 -49 109 -91 222 -120 69 -18 77 -23 126 -79 58 -68
105 -172 105 -236 0 -56 22 -89 81 -121 69 -39 131 -38 186 2 35 26 42 37 52
87 14 74 4 390 -14 453 -7 25 -16 104 -19 177 -7 143 -3 156 50 169 28 7 29
10 10 55 -12 29 -27 106 -52 257 -3 18 -19 49 -37 69 -30 34 -32 43 -39 132
-9 133 -20 165 -65 188 -32 16 -41 28 -65 93 -20 56 -27 94 -27 149 -1 64 -5
79 -27 108 -14 19 -36 52 -49 74 l-23 41 21 64 21 65 -24 47 c-14 25 -49 77
-78 114 l-53 68 -57 -1 c-31 -1 -69 -4 -83 -6z"/>
<path d="M3280 2300 c-6 -12 -21 -20 -36 -20 -39 0 -99 -35 -113 -67 -7 -15
-15 -62 -18 -105 -6 -73 -4 -78 27 -130 22 -35 39 -80 49 -133 l16 -80 45 -6
c94 -14 149 -51 179 -122 l21 -48 -20 -39 c-11 -22 -20 -51 -20 -65 0 -25 0
-25 35 -11 33 14 36 14 66 -11 31 -26 33 -27 165 -24 114 2 134 0 134 -13 0
-41 65 -62 87 -27 13 21 38 19 116 -10 36 -13 40 -12 55 8 9 12 33 25 53 28
34 6 41 3 107 -54 39 -34 73 -61 76 -61 2 0 6 12 8 26 5 42 32 53 71 29 23
-14 57 -21 122 -25 84 -5 90 -7 93 -27 4 -24 16 -30 27 -13 10 17 32 11 63
-15 25 -21 40 -25 95 -25 63 0 105 -14 230 -78 4 -2 7 8 7 22 0 15 7 29 15 32
11 5 15 22 15 67 0 55 -4 66 -49 137 -28 42 -60 98 -72 123 -24 50 -62 76
-144 100 -28 8 -83 31 -123 51 -39 20 -86 36 -104 36 -42 1 -64 14 -117 72
-24 26 -67 59 -96 74 -36 17 -57 35 -65 55 -7 16 -20 29 -30 29 -10 0 -41 8
-69 17 -38 12 -56 24 -67 45 -8 15 -38 46 -68 68 -50 38 -57 40 -123 40 -65 0
-77 4 -164 50 -71 37 -105 50 -137 50 -28 0 -54 8 -73 21 -27 19 -32 20 -78 6
l-50 -14 -12 28 c-11 27 -15 29 -65 29 -43 0 -55 -4 -64 -20z"/>
<path d="M3750 1126 c0 -79 10 -118 29 -114 12 2 15 14 13 48 -5 83 -13 120
-28 120 -10 0 -14 -14 -14 -54z"/>
<path d="M3470 1120 c-12 -8 -11 -17 12 -62 l27 -53 0 63 c1 63 -6 73 -39 52z"/>
</g>
</svg>
