<?xml version="1.0" standalone="no"?>
<!DOCTYPE svg PUBLIC "-//W3C//DTD SVG 20010904//EN"
 "http://www.w3.org/TR/2001/REC-SVG-20010904/DTD/svg10.dtd">
<svg version="1.0" xmlns="http://www.w3.org/2000/svg"
 width="1024.000000pt" height="1024.000000pt" viewBox="0 0 1024.000000 1024.000000"
 preserveAspectRatio="xMidYMid meet">
<metadata>
Created by potrace 1.10, written by Peter Selinger 2001-2011
</metadata>
<g transform="translate(0.000000,1024.000000) scale(0.100000,-0.100000)"
fill="#000000" stroke="none">
<path d="M272 8367 c-16 -46 -18 -43 36 -63 28 -11 62 -35 84 -60 41 -46 77
-60 108 -44 19 10 19 13 5 40 -13 24 -22 30 -49 30 -24 0 -38 7 -49 23 -25 37
-97 107 -110 107 -7 0 -18 -15 -25 -33z"/>
<path d="M627 8319 c-4 -13 2 -32 15 -50 12 -16 20 -30 17 -32 -2 -2 -18 -13
-36 -26 -30 -20 -31 -24 -21 -49 18 -42 24 -45 59 -33 26 9 36 8 48 -3 18 -16
98 -42 106 -34 9 8 -36 100 -67 139 -17 22 -26 42 -22 52 4 11 -6 21 -35 36
-50 26 -57 26 -64 0z"/>
<path d="M1222 8053 c-21 -18 -20 -19 41 -85 55 -58 65 -65 85 -57 23 9 22 10
-38 84 -34 41 -63 75 -65 75 -1 0 -12 -8 -23 -17z"/>
<path d="M1683 7893 c-7 -2 -13 -16 -13 -30 0 -21 3 -23 23 -17 24 7 37 22 37
42 0 12 -24 15 -47 5z"/>
<path d="M2595 7771 l-40 -6 30 -12 c32 -12 108 -16 137 -7 10 3 18 12 18 20
0 15 -64 17 -145 5z"/>
<path d="M1380 7754 c0 -9 -16 -31 -36 -49 l-35 -33 47 -7 c44 -6 48 -5 85 31
36 35 38 39 22 56 -21 23 -83 25 -83 2z"/>
<path d="M3051 7754 c-35 -25 -26 -41 24 -41 51 0 59 16 21 40 -21 14 -26 14
-45 1z"/>
<path d="M1405 7560 c-3 -5 -15 -10 -26 -10 -11 0 -56 -12 -101 -27 -73 -25
-79 -29 -52 -34 67 -15 124 -9 175 17 49 25 50 26 33 45 -20 22 -21 22 -29 9z"/>
<path d="M4004 7476 c-21 -16 -20 -17 50 -35 l39 -10 -28 29 c-33 34 -35 35
-61 16z"/>
<path d="M6715 7342 c-6 -29 -3 -38 21 -63 26 -27 26 -30 11 -47 -23 -26 -21
-33 17 -62 44 -32 96 -115 136 -215 24 -58 43 -89 71 -113 35 -30 39 -38 39
-82 0 -72 -6 -74 -188 -71 -86 1 -167 5 -179 8 -28 6 -30 -14 -9 -75 l15 -41
-40 -23 c-21 -12 -39 -29 -39 -38 0 -9 -13 -26 -29 -38 l-30 -22 -30 26 c-17
14 -54 38 -83 54 -48 26 -53 27 -75 13 -16 -11 -23 -25 -23 -47 0 -26 -7 -36
-44 -59 -41 -26 -43 -29 -42 -73 1 -44 3 -46 56 -80 48 -30 56 -33 66 -19 13
18 44 19 79 3 30 -13 32 -24 6 -33 -22 -7 -46 -33 -38 -41 3 -3 27 4 53 15 53
24 49 25 129 -51 49 -46 54 -48 124 -56 53 -5 77 -12 85 -24 16 -26 3 -30 -40
-12 -25 11 -53 14 -80 10 -36 -5 -44 -2 -69 24 -39 40 -79 40 -121 -1 -28 -27
-31 -34 -24 -66 5 -19 19 -47 33 -62 28 -31 52 -86 42 -100 -3 -6 -14 -11 -23
-11 -11 0 -5 -11 22 -39 34 -34 36 -41 25 -59 -10 -17 -10 -23 0 -36 11 -13
11 -16 0 -16 -41 1 -59 13 -59 41 0 26 -3 29 -32 29 l-33 0 -2 78 c-2 64 -8
90 -37 152 -18 41 -39 87 -45 102 -11 30 -55 63 -71 53 -6 -4 2 -21 21 -45 44
-54 35 -80 -68 -206 l-85 -104 9 -52 c8 -49 10 -53 42 -59 18 -4 69 -31 112
-60 62 -42 84 -63 99 -96 11 -26 26 -43 35 -43 10 0 39 -12 65 -27 48 -27 48
-27 26 -44 l-21 -18 33 -11 c32 -12 40 -24 22 -35 -5 -3 -7 -18 -4 -33 3 -15
-4 -52 -15 -84 -10 -31 -17 -59 -14 -62 4 -3 21 -6 40 -6 36 0 36 2 37 -90 1
-41 12 -78 42 -146 l41 -91 -23 -44 c-20 -41 -26 -45 -75 -54 -48 -9 -54 -13
-57 -38 -3 -23 -8 -27 -34 -27 -29 0 -30 1 -16 23 42 64 42 64 30 105 -18 58
-15 67 23 81 32 11 35 16 35 51 0 31 -4 40 -21 45 -17 6 -20 12 -15 37 7 34
-19 98 -40 98 -24 0 -25 19 -4 59 l20 40 -54 41 -55 42 -46 -32 c-25 -17 -50
-28 -56 -25 -5 4 -21 0 -34 -9 -13 -9 -37 -16 -53 -16 -26 0 -30 -5 -46 -55
-16 -52 -36 -69 -51 -45 -10 16 -25 11 -25 -8 0 -10 -7 -27 -16 -38 -15 -19
-15 -19 -11 3 3 14 -3 29 -19 44 -21 20 -27 21 -48 9 -14 -7 -41 -30 -62 -51
l-37 -38 22 -18 c20 -17 21 -21 10 -46 l-13 -28 -10 32 c-6 17 -21 39 -33 47
-23 14 -23 14 -23 -26 0 -38 -1 -40 -40 -46 -40 -6 -40 -7 -40 -51 0 -36 5
-48 24 -60 21 -14 22 -19 12 -40 -7 -16 -14 -20 -22 -14 -7 6 -16 4 -24 -5
-35 -43 -94 -18 -84 34 5 24 2 29 -27 39 -17 6 -34 11 -37 11 -2 0 -2 -33 0
-72 4 -66 1 -78 -24 -121 -18 -32 -28 -62 -28 -89 l0 -42 -28 27 c-15 15 -33
27 -40 27 -15 0 -15 6 -1 70 6 28 9 54 6 56 -8 8 -67 -47 -98 -92 -16 -24 -36
-44 -44 -44 -20 0 -19 7 6 38 19 24 19 27 4 30 -9 2 -27 -6 -39 -17 -14 -13
-36 -21 -59 -21 -34 0 -39 -4 -62 -49 l-25 -50 31 -21 c21 -15 40 -21 64 -18
l33 4 -17 -26 c-10 -14 -21 -37 -25 -52 -5 -24 -3 -28 14 -28 11 0 20 -4 20
-10 0 -13 -43 -13 -74 1 -20 10 -24 17 -19 39 4 22 0 31 -17 40 -12 6 -23 10
-25 8 -30 -36 -35 -136 -7 -161 9 -8 39 -24 67 -34 31 -12 51 -25 53 -37 3
-16 0 -18 -23 -12 -22 6 -28 3 -32 -14 -7 -24 -6 -24 -73 -1 -30 11 -72 22
-93 26 -34 7 -37 9 -23 24 13 15 11 19 -26 40 l-41 23 -22 -23 c-16 -17 -27
-49 -38 -109 -14 -77 -14 -85 1 -96 21 -15 89 -16 120 -1 18 9 26 6 46 -12 14
-13 40 -26 58 -30 58 -12 40 -34 -42 -51 -41 -8 -86 -21 -99 -29 -23 -13 -27
-12 -47 12 -12 14 -28 35 -36 46 -7 10 -31 23 -53 27 l-39 7 64 -73 c36 -40
88 -85 117 -102 99 -56 93 -88 -8 -38 -60 31 -62 31 -100 16 -21 -9 -45 -13
-54 -10 -12 5 -15 -2 -15 -35 0 -23 1 -41 3 -41 1 0 27 -8 56 -19 44 -15 50
-20 33 -25 -18 -6 -20 -12 -15 -39 7 -41 20 -57 45 -57 11 0 35 -7 54 -16 31
-15 34 -20 34 -60 0 -37 -3 -44 -19 -44 -10 0 -33 -16 -51 -36 -35 -40 -45
-37 -57 19 -6 29 -22 34 -54 17 -18 -10 -18 -12 7 -62 14 -28 32 -68 39 -89
13 -35 12 -38 -9 -53 -22 -14 -25 -13 -47 10 l-23 24 -22 -21 c-33 -31 -54
-19 -54 31 0 22 -5 40 -11 40 -6 0 -22 9 -36 20 -14 11 -43 23 -65 26 -29 5
-37 10 -34 23 20 67 27 116 21 147 l-6 36 -25 -23 c-16 -15 -24 -33 -24 -57 0
-19 -7 -46 -17 -62 -15 -26 -15 -30 7 -65 13 -20 36 -42 52 -47 27 -9 28 -12
15 -32 -45 -69 -45 -62 -2 -106 22 -23 49 -40 61 -40 14 0 24 -8 27 -23 4 -12
24 -40 46 -61 39 -39 41 -39 49 -17 l8 22 18 -20 c13 -14 17 -29 13 -48 -4
-20 1 -35 16 -51 19 -20 20 -26 9 -55 -11 -29 -10 -33 10 -49 30 -23 105 -24
130 -1 13 11 23 13 37 7 18 -8 17 -13 -21 -79 -46 -81 -54 -113 -33 -139 13
-17 16 -18 38 -3 22 14 27 14 46 1 20 -14 23 -14 41 8 11 13 19 26 20 31 0 4
11 7 25 7 20 0 25 -5 25 -24 0 -13 7 -29 15 -36 9 -7 13 -21 10 -30 -4 -13 3
-21 27 -30 18 -8 34 -14 36 -16 2 -1 -6 -20 -17 -43 -12 -22 -21 -56 -21 -75
l0 -35 53 5 c28 3 61 7 71 9 10 2 41 -7 67 -21 l49 -24 -15 -37 c-8 -20 -14
-37 -13 -38 2 -1 31 -8 66 -15 34 -7 62 -15 62 -17 0 -2 -5 -13 -11 -24 -8
-16 -6 -23 13 -39 13 -11 31 -19 40 -20 24 0 116 37 150 61 30 21 34 35 18 59
-8 12 -12 11 -32 -6 -39 -36 -48 -37 -68 -11 -10 13 -44 39 -75 58 -45 27 -55
38 -51 54 3 11 6 30 6 43 0 18 5 22 33 22 28 0 37 6 55 39 15 27 21 48 16 65
l-6 25 -41 -16 c-23 -9 -58 -27 -79 -39 -30 -19 -38 -21 -48 -9 -9 10 -6 15
11 20 11 4 54 35 95 69 59 49 74 67 74 88 0 25 -4 28 -34 28 -19 0 -44 8 -57
19 -19 16 -21 21 -11 34 7 9 30 18 50 22 20 3 48 15 62 25 23 18 24 20 5 20
-11 0 -44 6 -73 14 l-52 13 -19 -31 c-11 -17 -40 -51 -65 -76 l-46 -44 0 33
c0 21 9 44 25 63 35 42 31 54 -11 29 -19 -12 -44 -21 -55 -21 -20 0 -20 0 0
29 23 31 28 86 10 97 -21 12 14 24 54 18 36 -6 37 -5 37 25 0 21 -5 31 -15 31
-9 0 -29 7 -45 15 -25 13 -30 22 -30 51 0 19 -9 53 -20 74 -11 22 -18 40 -15
40 20 0 75 -49 80 -72 9 -39 29 -51 70 -44 l35 7 -24 22 c-18 16 -25 36 -30
77 -5 50 -4 53 9 36 8 -11 15 -24 15 -28 0 -16 52 -29 67 -17 20 17 32 1 41
-52 8 -44 8 -44 47 -42 26 2 52 13 78 34 23 19 44 28 54 24 13 -4 4 -19 -46
-69 -54 -54 -61 -66 -56 -89 4 -15 11 -27 16 -27 5 0 27 18 49 40 30 30 46 39
70 37 19 -1 32 -9 36 -20 4 -14 9 -15 19 -7 15 13 25 -6 25 -49 0 -15 9 -55
21 -88 16 -49 26 -63 50 -73 26 -11 32 -10 44 6 8 11 15 29 15 42 0 27 6 27
48 2 18 -11 41 -20 51 -20 10 0 24 -7 31 -15 7 -8 38 -24 70 -36 32 -12 69
-32 81 -45 19 -20 24 -21 33 -9 9 13 16 13 43 3 17 -6 34 -20 36 -30 4 -12 15
-18 35 -18 18 0 44 -12 67 -30 35 -28 40 -29 54 -15 15 15 13 19 -23 49 -29
25 -37 38 -32 53 6 17 3 20 -19 15 -21 -3 -25 0 -25 18 0 12 12 37 27 56 22
30 24 37 12 45 -16 11 -125 7 -151 -5 -16 -7 -18 -3 -18 32 0 39 23 71 63 85
9 3 9 9 0 25 -14 23 -13 25 39 41 47 15 70 50 61 92 -6 30 -8 31 -42 25 -20
-3 -43 -6 -52 -6 -9 0 -36 -16 -60 -35 -48 -38 -59 -33 -59 23 l0 34 -55 -47
c-35 -30 -55 -42 -55 -32 0 8 -7 20 -15 27 -23 19 -18 27 19 40 26 8 38 20 50
50 14 34 18 38 38 31 37 -13 97 16 107 53 4 17 7 32 6 34 -1 1 -22 -2 -47 -6
-34 -7 -53 -5 -73 6 -19 9 -43 12 -71 8 -38 -5 -44 -3 -59 21 l-17 26 34 -7
c27 -5 45 0 81 20 26 14 49 30 52 35 3 5 -13 36 -36 70 -37 54 -40 64 -29 84
7 13 9 28 5 35 -4 7 -25 -8 -58 -44 -63 -66 -107 -80 -126 -40 -15 34 -14 42
9 71 16 20 17 28 7 45 -15 25 -110 73 -162 81 -36 6 -43 3 -77 -30 l-38 -37 0
34 c0 43 34 94 77 114 48 23 53 21 53 -24 l0 -40 63 0 c40 0 70 -6 85 -15 19
-14 24 -14 46 0 38 25 57 61 50 91 -5 20 -3 25 7 22 8 -3 22 2 32 10 16 14 17
14 16 -4 -6 -56 1 -61 52 -40 14 6 18 -3 24 -50 12 -95 16 -99 65 -58 17 15
33 24 35 22 3 -2 11 -22 18 -43 18 -53 58 -67 93 -34 l25 23 24 -31 c16 -20
37 -33 60 -37 l36 -7 -22 -30 -21 -30 28 -75 c16 -41 31 -74 34 -74 3 0 23 23
44 50 21 28 40 49 43 47 2 -3 15 -47 29 -98 34 -129 31 -124 49 -109 9 7 34
41 56 76 40 61 62 80 80 68 5 -3 9 -12 9 -20 0 -18 14 -18 30 1 9 10 9 23 2
47 -6 18 -13 50 -17 70 -3 21 -13 41 -21 46 -9 5 -14 18 -12 28 4 17 8 15 35
-13 28 -29 37 -33 85 -33 65 0 97 24 79 59 -15 27 -14 31 10 31 11 0 40 -16
63 -35 35 -28 50 -34 81 -32 34 2 39 -1 45 -23 4 -14 1 -37 -7 -53 -25 -49 7
-64 47 -22 33 35 47 31 53 -16 4 -30 16 -52 42 -79 l36 -37 -13 -47 c-12 -45
-12 -47 14 -69 14 -12 32 -33 39 -47 12 -25 12 -25 28 21 9 26 23 54 31 64 13
15 12 19 -5 32 -11 8 -18 20 -16 26 8 27 3 118 -9 165 -13 49 -12 52 13 91 15
22 27 44 27 49 0 5 -17 17 -37 27 l-38 18 35 8 c19 4 71 14 114 23 43 8 80 17
81 18 1 2 6 13 9 25 7 21 5 22 -24 17 -20 -4 -45 0 -70 11 -40 18 -48 29 -30
40 6 3 10 13 10 22 0 9 7 25 16 34 16 17 15 19 -7 28 -13 5 -33 18 -43 30 -12
13 -31 21 -50 21 -49 0 -97 17 -138 50 -36 29 -39 30 -66 16 -16 -8 -48 -31
-71 -50 -24 -20 -47 -36 -51 -36 -13 0 -23 20 -24 49 -1 19 -6 26 -19 25 -10
-1 -43 13 -74 32 -39 23 -69 34 -96 34 -34 0 -38 2 -27 15 16 20 16 19 -55 37
-43 10 -61 19 -63 32 -3 16 0 18 30 11 18 -4 55 -8 83 -8 46 -2 51 -5 78 -45
16 -23 42 -49 59 -58 29 -15 32 -15 55 8 l24 25 -88 55 c-48 31 -120 72 -160
92 -57 28 -81 48 -119 97 l-47 61 -44 -7 c-39 -6 -47 -4 -60 14 -8 12 -25 21
-37 21 -13 0 -30 7 -37 16 -12 14 -10 19 14 38 22 18 26 27 21 56 -5 29 2 50
34 112 l41 76 20 -86 c19 -81 23 -90 67 -129 31 -27 63 -46 95 -53 26 -6 113
-50 194 -97 l147 -85 23 22 24 22 29 -21 c18 -13 45 -21 69 -21 25 0 48 -8 68
-24 l30 -24 39 21 c29 16 40 19 43 10 6 -17 41 -16 92 2 36 12 45 12 76 0 44
-19 42 -20 60 15 11 22 23 30 42 30 23 0 25 -3 19 -31 -8 -41 27 -89 65 -89
35 0 43 22 22 64 -16 35 -11 85 7 56 7 -11 15 -12 50 -1 56 17 74 2 40 -34
-28 -30 -28 -30 108 -11 65 9 92 10 92 2 -1 -34 -50 -60 -99 -52 -20 3 -49 2
-66 -2 l-29 -8 31 -22 c33 -23 53 -26 126 -16 44 6 47 8 62 53 9 27 31 63 53
83 31 30 50 38 117 51 54 11 94 13 123 8 31 -6 42 -5 42 4 0 7 7 16 16 19 12
5 14 9 5 20 -9 11 -18 11 -56 -3 -32 -11 -47 -13 -55 -5 -8 8 9 19 62 38 40
15 88 36 107 47 24 14 37 17 44 10 8 -8 -1 -23 -28 -51 l-39 -40 31 0 c23 0
38 9 57 31 14 17 26 36 26 42 0 7 3 21 6 33 4 16 -3 24 -30 39 -21 11 -36 27
-36 37 0 16 10 18 73 18 65 0 76 3 97 25 l23 25 -64 0 c-39 0 -87 8 -124 21
-56 19 -62 20 -97 5 -30 -13 -38 -23 -44 -51 -5 -27 -11 -35 -27 -35 -12 0
-32 -11 -46 -24 l-26 -24 -58 33 c-64 36 -60 45 21 45 69 0 86 8 107 46 14 27
24 34 48 34 17 0 42 11 59 25 28 23 32 24 47 11 13 -11 20 -13 28 -5 6 6 21 8
34 4 21 -7 21 -9 6 -20 -16 -12 -16 -13 5 -19 13 -3 43 -6 67 -6 43 0 44 0 26
20 -10 11 -24 20 -32 20 -7 0 -13 5 -13 11 0 7 9 9 23 5 62 -18 144 -18 176
-2 18 10 31 19 29 21 -2 3 -49 11 -103 20 -139 22 -156 25 -150 35 7 11 -75
62 -154 96 -35 16 -59 30 -53 32 19 6 156 -39 193 -64 43 -29 65 -31 72 -4 8
29 56 26 126 -10 56 -28 64 -29 140 -23 45 3 81 9 81 12 0 13 -24 31 -42 31
-10 0 -18 5 -18 11 0 7 11 9 29 6 20 -4 33 -1 42 9 10 13 15 13 35 -1 14 -9
46 -15 84 -15 50 0 73 7 138 39 l77 39 95 -8 c99 -9 110 -7 110 15 0 9 -22 14
-77 17 -91 5 -161 31 -144 52 10 12 21 11 70 -2 53 -14 66 -14 157 2 129 23
160 37 178 80 16 39 57 56 137 56 38 0 50 5 78 33 l32 34 -77 6 c-42 4 -111 7
-153 7 l-76 -1 29 -23 c61 -50 -14 -79 -90 -34 -31 18 -34 23 -19 28 14 5 6
12 -33 28 -28 12 -58 22 -66 22 -9 0 -16 5 -16 11 0 8 14 9 43 5 56 -9 202 31
186 51 -6 7 -8 20 -5 30 6 14 12 10 37 -20 35 -42 40 -43 75 -20 16 10 21 19
14 23 -7 4 2 15 23 28 32 18 37 19 57 5 20 -14 23 -14 38 1 16 15 15 18 -13
41 -19 15 -38 22 -52 18 -16 -3 -31 5 -56 30 -22 22 -49 37 -74 41 -21 4 -74
19 -118 32 -122 39 -349 94 -383 94 -17 0 -54 -5 -82 -12 -68 -16 -149 9 -181
57 -15 22 -54 47 -133 86 -61 30 -112 59 -114 66 -6 22 58 46 109 40 61 -7 76
7 53 52 -20 40 -11 51 19 24 18 -18 154 -63 187 -63 17 0 11 20 -15 54 -14 18
-32 55 -39 81 l-15 48 33 -32 c34 -33 81 -42 104 -19 16 16 39 -5 47 -43 4
-16 26 -45 51 -68 39 -34 49 -38 82 -34 21 3 100 -4 175 -16 102 -16 159 -19
222 -15 89 7 96 13 79 58 -9 23 -147 96 -181 96 -17 0 -52 12 -78 27 -41 22
-45 28 -29 34 10 3 35 0 54 -8 71 -30 82 -33 118 -33 21 0 48 -9 62 -20 14
-11 30 -20 35 -20 21 0 85 21 85 29 0 4 -27 31 -61 59 -49 42 -68 52 -97 52
-41 0 -92 41 -92 74 0 11 -7 39 -16 63 -13 32 -23 43 -45 48 -35 8 -37 30 -9
78 24 41 19 83 -12 93 -10 3 -35 19 -54 36 -25 22 -34 38 -34 62 0 28 -6 35
-62 65 -73 40 -139 47 -177 19 -13 -10 -31 -18 -40 -18 -9 0 -29 -7 -44 -15
-42 -22 -78 -21 -117 3 l-36 21 -44 -29 c-42 -28 -50 -30 -110 -24 -58 5 -72
2 -128 -23 l-64 -29 -78 15 c-75 14 -80 14 -126 -7 -44 -18 -49 -24 -52 -55
-2 -20 -10 -41 -18 -47 -8 -7 -14 -28 -14 -47 0 -29 -10 -47 -61 -101 -45 -48
-60 -70 -57 -87 4 -19 -4 -26 -57 -49 -56 -24 -62 -30 -64 -59 -5 -67 7 -137
23 -138 6 0 32 -2 57 -4 l47 -2 53 75 54 75 8 -42 c8 -38 5 -48 -22 -89 l-31
-47 39 -3 c22 -2 45 -10 51 -18 17 -19 103 -19 120 1 11 14 70 22 70 10 0 -16
-47 -74 -57 -71 -6 3 -28 -10 -49 -28 l-39 -33 45 -23 c36 -19 41 -24 27 -32
-28 -15 -20 -24 39 -44 45 -15 60 -26 72 -51 11 -23 23 -33 39 -33 33 0 28
-26 -6 -33 -24 -5 -45 3 -105 40 l-76 46 -19 -24 c-27 -32 -26 -47 2 -51 17
-2 21 -9 19 -27 -3 -29 18 -55 59 -71 17 -8 26 -17 22 -24 -4 -6 -10 -29 -13
-51 l-6 -40 -27 53 c-28 53 -47 67 -47 34 0 -10 -7 -27 -15 -38 -13 -17 -14
-14 -12 41 3 79 -26 125 -79 125 -19 0 -34 4 -34 9 0 11 25 21 51 21 23 0 42
41 33 75 -3 12 -1 26 5 29 16 10 14 26 -3 26 -16 0 -29 41 -20 64 3 9 1 23 -6
31 -10 13 -17 10 -42 -18 l-30 -32 -34 39 -33 39 -10 -25 c-5 -14 -19 -28 -31
-31 -19 -5 -20 -8 -10 -27 14 -27 5 -38 -19 -23 -9 6 -31 8 -47 5 -26 -5 -28
-3 -16 11 12 14 11 20 -1 37 -8 12 -13 29 -10 39 3 12 -8 26 -37 45 -23 15
-44 26 -46 23 -2 -2 -9 -30 -15 -63 -18 -102 -16 -101 -55 -63 l-34 33 31 25
c26 22 29 30 21 50 -6 18 -2 45 14 99 l23 75 -21 30 c-12 17 -21 41 -20 54 2
29 -5 29 -51 -3 -44 -30 -63 -26 -81 16 l-12 30 -23 -40 c-12 -21 -36 -49 -52
-61 -23 -16 -29 -27 -25 -44 6 -25 -16 -51 -34 -40 -13 8 -13 72 0 80 5 3 15
15 21 26 9 18 8 19 -8 11 -14 -8 -25 -5 -47 13 l-28 22 31 11 c18 6 45 24 61
40 27 27 28 31 14 51 -8 11 -21 21 -28 21 -9 0 -12 9 -9 24 4 18 0 26 -17 31
-20 6 -21 11 -15 53 6 41 71 171 86 172 3 0 13 -6 23 -13 16 -11 14 -16 -20
-55 -34 -40 -35 -45 -24 -73 15 -34 23 -30 39 23 17 53 37 56 45 5 11 -69 45
-174 61 -187 12 -10 25 -10 62 0 27 6 71 16 98 20 28 5 60 11 72 15 19 6 23 2
36 -41 11 -39 18 -48 33 -46 25 5 30 10 49 55 15 37 15 39 -5 44 -35 9 -23 26
15 20 34 -6 35 -5 35 27 0 19 7 39 15 46 12 10 11 18 -10 61 -22 43 -29 49
-56 49 -33 0 -69 15 -69 30 0 5 15 4 35 -1 19 -6 40 -7 45 -4 15 9 11 77 -5
99 -9 12 -12 29 -8 44 5 22 3 24 -20 20 -35 -7 -94 51 -89 88 3 21 -1 24 -25
24 -19 0 -39 10 -58 30 -18 19 -35 28 -46 25 -25 -8 -108 35 -102 53 11 27
-20 31 -66 7 l-46 -23 -44 31 c-42 29 -46 30 -71 15 -17 -9 -34 -12 -47 -7
-36 13 -72 -3 -91 -41 -15 -32 -21 -35 -64 -38 -27 -2 -48 -6 -48 -10 1 -23
38 -126 47 -129 6 -2 24 8 41 22 35 29 47 31 56 9 9 -22 10 -21 -31 -34 -21
-7 -45 -19 -54 -27 -15 -13 -20 -10 -44 21 -15 20 -25 42 -22 50 10 26 -28 46
-106 56 -42 5 -95 19 -118 31 -26 13 -50 18 -66 14 -35 -8 -195 45 -201 67 -6
24 -144 98 -182 98 -43 0 -80 27 -181 134 l-86 91 -8 -33z m3115 -2017 c0 -2
-25 -12 -55 -21 -44 -12 -59 -13 -70 -4 -8 7 -12 16 -9 21 5 9 134 13 134 4z"/>
<path d="M4077 7325 c9 -19 23 -35 30 -35 8 0 26 -13 41 -29 26 -27 29 -28 60
-15 17 8 32 17 31 22 0 4 -23 26 -52 50 -40 33 -59 42 -89 42 l-38 0 17 -35z"/>
<path d="M2117 7275 c4 -53 13 -83 37 -123 30 -52 32 -53 67 -48 29 5 40 1 57
-17 11 -12 22 -33 24 -47 2 -17 10 -26 24 -28 31 -4 40 51 19 123 -15 52 -18
55 -48 55 -26 0 -45 14 -109 77 l-78 77 7 -69z"/>
<path d="M4418 7295 c-44 -12 -138 -63 -138 -75 0 -5 67 -42 212 -119 59 -31
68 -40 68 -63 0 -16 3 -28 6 -28 3 0 22 13 42 29 49 38 83 45 128 26 20 -8 61
-18 91 -22 48 -5 58 -10 74 -37 10 -17 19 -39 19 -49 0 -9 19 -38 41 -62 l42
-45 66 5 c36 4 95 11 130 16 52 8 67 7 87 -6 29 -19 30 -11 4 37 -15 29 -18
46 -12 75 l8 37 12 -30 c12 -29 83 -84 109 -84 20 0 15 48 -6 59 -20 11 -97
107 -144 179 -15 23 -34 42 -41 42 -8 0 -21 3 -29 6 -10 3 -18 -2 -22 -16 -5
-16 -12 -20 -26 -16 -10 3 -28 9 -38 12 -15 4 -23 -2 -36 -25 -14 -28 -14 -34
-1 -53 14 -19 13 -22 -9 -39 -29 -24 -37 -24 -84 1 l-39 19 14 73 c8 40 14 78
14 83 0 7 -48 6 -145 -4 -189 -18 -249 -8 -291 50 -32 42 -37 43 -106 24z"/>
<path d="M2981 7236 c-7 -8 -26 -18 -42 -21 -39 -9 -46 -30 -24 -71 21 -39
137 -114 177 -114 19 0 40 -17 87 -74 68 -83 159 -146 210 -146 21 0 35 -7 46
-24 15 -22 15 -27 0 -55 -19 -38 -93 -80 -106 -59 -5 7 -9 22 -9 34 0 23 -36
80 -90 141 -25 29 -46 42 -73 47 l-39 7 7 -30 c4 -17 4 -44 0 -61 -6 -27 -10
-30 -45 -30 -35 0 -39 -3 -54 -40 -10 -24 -14 -51 -10 -67 7 -25 6 -26 -35
-20 -22 3 -41 2 -41 -1 0 -4 17 -26 38 -49 34 -38 42 -43 98 -49 60 -6 61 -6
108 35 53 46 52 46 71 27 8 -8 45 -19 82 -26 63 -11 71 -10 116 11 44 21 47
25 42 51 -6 26 -5 28 28 28 35 0 47 12 47 48 0 24 54 131 86 170 l27 33 -39
-7 c-30 -4 -43 -2 -53 9 -10 13 -9 17 8 27 13 6 21 21 21 35 0 22 -4 25 -35
25 -31 0 -35 3 -35 25 0 24 -2 25 -42 19 -24 -4 -62 -17 -85 -30 -66 -38 -128
-33 -222 17 -109 58 -111 60 -118 117 -5 48 -8 52 -45 66 -47 19 -43 19 -57 2z"/>
<path d="M3817 7107 c-13 -19 -28 -25 -78 -31 -34 -3 -64 -8 -67 -11 -11 -10
25 -73 65 -115 24 -25 55 -57 69 -72 30 -32 120 -68 168 -68 31 0 34 3 39 37
5 29 2 42 -14 59 l-21 23 41 11 c23 6 45 18 48 26 3 9 -21 42 -63 88 -68 73
-70 74 -120 75 -44 1 -54 -3 -67 -22z"/>
<path d="M4430 6947 c0 -39 18 -77 36 -77 8 0 14 -6 11 -12 -2 -8 -16 -12 -35
-10 -18 2 -56 -2 -86 -9 -44 -9 -61 -9 -86 1 -17 7 -33 10 -36 7 -13 -13 18
-44 56 -56 28 -8 47 -22 60 -44 l20 -32 0 38 0 37 44 0 c39 0 48 -5 84 -44
l41 -44 11 34 c7 19 22 47 36 63 l23 28 -38 31 c-22 18 -44 47 -51 67 -9 28
-15 34 -25 25 -10 -9 -20 -7 -39 5 -26 17 -26 17 -26 -8z"/>
<path d="M1736 6944 c-13 -34 -5 -58 33 -90 35 -30 38 -37 31 -66 -9 -45 13
-93 38 -78 37 22 62 49 62 70 0 12 5 30 10 41 9 15 7 21 -5 25 -10 4 -13 13
-10 25 5 15 -7 25 -64 54 -80 40 -87 41 -95 19z"/>
<path d="M4607 6898 c-5 -16 3 -30 30 -56 30 -28 41 -33 67 -28 17 4 40 15 51
26 19 20 19 19 30 -8 l12 -27 12 38 c7 21 11 40 9 42 -2 2 -25 10 -52 17 -44
12 -49 11 -62 -6 -7 -10 -15 -24 -17 -30 -6 -17 -37 13 -37 35 0 27 -36 25
-43 -3z"/>
<path d="M5500 6900 c0 -5 -11 -10 -25 -10 -28 0 -29 -1 -14 -53 6 -22 8 -41
6 -44 -3 -2 -28 7 -56 21 -28 14 -52 26 -54 26 -2 0 2 -30 9 -67 19 -97 18
-105 -26 -138 -21 -16 -39 -33 -40 -37 0 -5 17 -8 39 -8 22 0 44 -6 51 -15 7
-8 35 -27 62 -42 59 -32 106 -103 58 -88 -14 4 -36 -3 -67 -24 -26 -17 -53
-31 -62 -31 -8 0 -27 -12 -42 -26 -26 -24 -28 -25 -56 -10 -17 8 -39 13 -50
10 -12 -3 -43 6 -71 20 -28 14 -54 26 -58 26 -4 0 -4 -29 -1 -65 l6 -65 -83
57 c-46 32 -81 61 -78 64 4 3 42 16 84 29 52 16 93 36 124 62 29 24 53 36 64
33 10 -3 25 4 39 19 l22 23 -23 6 c-18 5 -20 9 -10 19 17 17 15 26 -9 38 -30
16 -99 3 -99 -19 0 -27 -172 -149 -222 -157 -48 -8 -58 -17 -58 -56 0 -14 -3
-33 -6 -42 -10 -27 -24 -7 -24 35 l0 40 -62 -7 c-45 -5 -80 -17 -121 -40 -56
-33 -62 -34 -160 -33 -115 1 -152 8 -152 29 0 8 -13 20 -30 26 l-30 11 25 13
c14 7 48 14 77 16 30 1 76 13 112 30 l61 28 -22 23 c-17 18 -28 22 -57 17 -20
-3 -54 1 -76 9 -33 12 -46 12 -75 1 -40 -14 -99 -17 -118 -6 -8 6 8 15 48 27
44 13 60 23 60 36 0 17 -3 17 -47 3 -27 -8 -64 -19 -84 -24 -20 -6 -42 -17
-49 -25 -21 -25 -30 -17 -30 24 0 36 3 40 36 51 l36 12 -31 32 c-17 18 -31 40
-31 49 0 15 -5 14 -46 -6 -43 -20 -45 -24 -41 -54 4 -22 2 -31 -6 -28 -54 16
-75 13 -85 -11 -7 -13 -32 -34 -56 -46 -45 -21 -45 -21 -30 -50 8 -15 12 -28
10 -28 -12 0 -62 26 -68 35 -17 23 -8 66 19 89 l27 24 -59 12 c-33 6 -68 14
-78 17 -16 4 -17 -1 -11 -49 3 -29 13 -63 21 -76 14 -23 14 -23 -14 -9 -16 8
-50 18 -76 22 l-47 7 0 -47 c0 -38 -5 -51 -25 -67 -32 -25 -31 -30 6 -73 l31
-35 87 0 c81 0 89 -2 109 -25 12 -14 26 -25 31 -25 5 0 22 -5 36 -10 47 -18
14 -37 -78 -45 -49 -4 -89 -13 -98 -21 -15 -14 -19 -13 -32 7 l-16 21 -30 -21
c-16 -12 -39 -37 -51 -56 -25 -40 -31 -42 -67 -18 -19 13 -28 14 -31 5 -5 -15
-56 -16 -84 -1 -20 11 -20 11 3 35 21 23 22 25 6 41 -16 16 -19 15 -46 -17
l-29 -35 -88 0 -89 0 -166 102 c-132 82 -169 110 -185 139 -10 20 -35 44 -54
54 -19 10 -65 45 -102 78 -44 40 -78 62 -102 66 -26 5 -40 14 -46 31 -6 15
-39 40 -92 69 -68 37 -90 44 -118 40 -31 -5 -37 -2 -55 25 -22 33 -123 84
-190 96 -46 8 -43 3 32 -47 29 -19 50 -38 46 -41 -13 -14 -47 -7 -69 14 -21
20 -23 20 -54 4 l-32 -17 23 -25 c13 -14 39 -32 57 -39 30 -14 32 -17 32 -67
0 -44 -4 -58 -25 -77 -29 -28 -34 -63 -8 -59 28 5 59 -17 73 -51 8 -20 21 -32
39 -35 14 -3 69 -18 121 -34 128 -39 183 -46 200 -26 7 9 26 25 42 36 36 26
58 12 58 -37 0 -29 4 -34 23 -34 45 0 67 -12 67 -35 0 -16 7 -25 24 -29 32 -8
66 -68 66 -116 l0 -38 -42 5 c-24 3 -68 16 -98 30 -64 28 -119 25 -183 -10
-38 -22 -38 -22 -32 -71 8 -68 56 -127 95 -119 47 9 127 -36 222 -125 87 -81
88 -82 141 -82 31 0 61 6 75 16 21 15 22 14 28 -14 4 -22 23 -42 69 -76 57
-41 68 -46 118 -46 45 0 56 -3 60 -19 5 -21 -16 -31 -65 -31 -42 0 -34 -13 21
-35 40 -15 59 -32 98 -84 44 -58 60 -71 139 -110 49 -24 96 -50 105 -58 15
-12 17 -9 23 27 5 31 11 40 26 40 22 0 26 -13 34 -105 4 -54 9 -63 42 -92 20
-18 53 -35 73 -38 78 -13 81 -14 81 -40 0 -29 -8 -30 -70 -11 -64 19 -112 50
-148 95 -25 32 -44 43 -102 60 -67 21 -76 27 -162 117 -108 112 -121 115 -157
37 -15 -32 -32 -54 -45 -57 -39 -11 -111 -6 -205 14 -52 11 -104 17 -115 14
-12 -4 -76 -38 -143 -76 -67 -38 -145 -76 -174 -84 -47 -14 -58 -14 -117 1
-52 13 -79 28 -139 76 -65 53 -73 58 -68 36 14 -53 -7 -50 -60 9 l-53 59 -22
-46 -23 -46 27 -66 c14 -36 26 -72 26 -80 0 -7 9 -22 19 -31 11 -10 22 -29 26
-43 3 -14 33 -59 67 -100 56 -69 62 -74 90 -67 30 6 31 6 24 -29 -4 -19 -4
-53 0 -76 6 -38 10 -41 56 -57 44 -14 52 -15 65 -2 19 20 3 80 -31 122 l-24
29 34 24 35 23 39 -20 c59 -30 160 -17 229 31 35 23 49 39 46 50 -7 22 26 35
40 15 5 -8 15 -21 20 -30 6 -9 29 -18 52 -22 l42 -6 -36 67 c-19 36 -44 70
-54 73 -18 7 -17 9 8 39 23 26 37 32 82 36 41 3 59 10 73 27 21 26 20 26 37
-17 8 -19 25 -36 43 -44 30 -12 32 -11 86 45 l56 58 43 -21 c40 -19 46 -20 72
-6 39 20 41 12 41 -131 0 -103 -3 -120 -25 -162 -14 -26 -25 -55 -25 -65 0
-11 -6 -17 -12 -14 -9 2 -13 26 -13 69 0 37 -2 69 -5 72 -3 3 -16 3 -29 -1
-18 -5 -21 -10 -16 -31 4 -18 0 -31 -16 -48 -30 -32 -36 -30 -43 11 -4 20 -13
35 -21 35 -9 0 -15 13 -17 35 l-3 35 -72 -34 c-71 -34 -85 -48 -62 -62 6 -3 9
-19 5 -35 -5 -24 -2 -29 14 -29 19 0 18 -3 -7 -49 l-27 -48 37 -35 c20 -20 37
-40 37 -46 0 -6 3 -17 6 -26 10 -27 -30 -19 -72 15 l-39 31 -5 -106 c-3 -58
-8 -108 -11 -110 -3 -3 -27 17 -54 44 l-48 49 -39 -42 -38 -42 6 30 c11 54 14
60 59 95 25 19 45 43 45 53 0 9 5 26 12 37 10 15 9 23 -6 39 -23 26 -30 26
-64 1 -15 -10 -39 -22 -54 -26 -27 -6 -28 -4 -28 30 0 32 3 37 29 42 16 3 45
19 65 36 35 28 42 49 30 82 -8 20 -43 6 -100 -41 -34 -27 -48 -33 -56 -25 -9
9 -9 15 0 24 22 22 12 27 -25 11 -59 -24 -69 -38 -83 -119 -10 -59 -18 -79
-36 -90 -17 -12 -28 -13 -43 -5 -29 16 -29 15 -20 -35 13 -68 31 -124 40 -124
5 0 21 18 36 41 26 40 26 40 46 20 20 -19 20 -19 -2 -63 -25 -52 -26 -58 -7
-58 29 0 24 -18 -24 -94 -27 -42 -60 -100 -72 -129 -12 -29 -22 -53 -23 -55
-1 -1 -22 -6 -46 -11 -38 -7 -52 -3 -109 24 -36 18 -80 35 -99 39 -19 3 -42
13 -52 22 -16 14 -20 14 -49 -1 l-32 -17 23 -24 c19 -21 32 -24 86 -24 60 0
68 -3 111 -39 51 -42 104 -56 173 -45 34 6 41 11 46 37 l6 30 16 -22 16 -21
40 40 c35 36 44 40 87 40 26 0 48 5 48 10 0 6 7 10 15 10 37 0 7 -66 -62 -131
-77 -75 -136 -99 -238 -99 l-85 0 -24 -37 c-14 -22 -30 -67 -36 -106 -7 -37
-16 -69 -20 -72 -4 -3 -15 7 -25 21 l-17 26 -24 -23 -24 -22 0 27 c0 16 16 49
40 81 l40 54 -36 22 c-31 18 -40 20 -56 10 -17 -10 -26 -7 -65 25 l-45 37 -26
-20 c-20 -15 -27 -29 -27 -55 0 -19 -7 -43 -15 -53 -13 -15 -12 -19 9 -36 19
-16 21 -22 11 -34 -10 -12 -10 -21 -1 -42 12 -26 3 -42 -23 -43 -4 0 -5 -12
-2 -27 l6 -28 -25 28 c-31 35 -33 81 -4 166 l21 62 -23 25 -24 26 -6 -24 c-4
-13 -7 -44 -8 -69 -1 -38 -6 -49 -30 -67 l-30 -22 -6 21 c-4 13 -1 27 9 38 9
10 16 35 16 56 0 21 7 46 15 55 13 14 13 19 0 37 -13 18 -19 20 -67 11 -44 -8
-54 -7 -64 7 -10 14 -16 14 -34 5 -16 -9 -24 -9 -29 -1 -7 11 -35 15 -159 26
l-62 5 0 -43 c0 -38 6 -48 45 -87 36 -35 43 -48 38 -68 -6 -24 -5 -24 25 -8
45 23 102 21 109 -4 6 -22 18 -26 28 -10 8 13 45 13 45 1 0 -6 -5 -13 -10 -16
-7 -4 -7 -12 0 -25 13 -24 -11 -44 -46 -37 -20 3 -38 -6 -83 -43 -50 -42 -64
-48 -116 -52 -59 -6 -61 -5 -100 33 -30 29 -46 37 -63 33 -29 -8 -28 -15 7
-39 23 -15 31 -29 36 -65 4 -25 13 -56 22 -68 15 -24 28 -25 80 -5 22 8 -43
-49 -74 -66 -12 -6 -41 -11 -65 -10 -24 0 -36 3 -28 6 8 3 25 10 38 14 22 8
22 10 6 34 -10 16 -26 25 -42 25 l-26 0 28 29 c21 22 26 34 20 55 -10 41 -40
50 -107 33 -49 -13 -65 -13 -123 -1 -37 8 -70 16 -72 19 -2 2 5 16 16 32 29
41 14 75 -28 66 -23 -4 -36 -1 -54 16 -22 20 -24 21 -60 6 -25 -11 -49 -14
-69 -9 -28 6 -30 5 -19 -9 8 -9 30 -21 50 -28 52 -17 55 -19 39 -37 -23 -27
-30 -98 -12 -132 14 -27 14 -33 -1 -61 l-16 -32 34 7 c23 4 41 1 56 -10 22
-15 22 -15 22 26 0 26 -8 51 -21 69 -12 16 -18 34 -15 40 10 16 26 14 26 -3 0
-8 15 -26 33 -41 19 -17 34 -40 37 -59 4 -23 11 -32 28 -34 18 -3 23 -9 19
-22 -5 -19 25 -30 80 -30 23 0 23 -1 8 -31 -16 -30 -16 -31 20 -75 l37 -44 63
6 c57 6 64 5 74 -15 7 -11 21 -21 31 -21 19 0 21 -5 24 -64 1 -15 14 -22 54
-31 29 -7 55 -14 57 -17 2 -2 1 -27 -4 -56 -7 -48 -6 -53 19 -77 24 -23 32
-25 128 -25 64 0 115 -5 135 -14 22 -9 40 -10 57 -4 l25 9 -30 16 c-16 9 -35
24 -42 33 -7 9 -38 27 -71 38 -50 19 -64 30 -96 76 -27 39 -45 55 -67 60 -40
8 -118 62 -129 89 -6 17 -2 28 18 49 22 24 28 26 41 14 9 -7 61 -24 116 -36
55 -12 109 -24 121 -27 15 -3 23 2 32 22 13 29 10 30 95 -29 l59 -41 -74 -3
c-58 -2 -77 -7 -96 -24 l-22 -22 31 -32 c31 -32 33 -33 62 -17 28 14 30 14 22
-3 -27 -66 -12 -81 60 -60 25 8 45 12 45 9 0 -3 -13 -21 -30 -40 -16 -18 -30
-37 -30 -41 0 -4 12 -15 27 -25 50 -31 114 -95 103 -102 -6 -4 -19 0 -28 8
-32 28 -60 30 -99 6 l-37 -23 30 -13 c16 -6 35 -12 42 -13 18 0 15 -14 -8 -35
-20 -18 -20 -19 -1 -39 10 -12 28 -40 40 -63 20 -40 24 -43 63 -43 48 0 94 31
128 86 18 28 28 35 46 31 16 -3 24 0 24 9 0 8 15 22 34 31 19 10 60 42 91 72
42 40 53 56 43 62 -7 5 -16 9 -20 9 -15 0 -8 20 7 20 9 0 18 7 22 16 4 11 13
14 29 10 20 -5 24 -3 24 17 0 29 -58 87 -87 87 -13 0 -25 10 -32 28 -6 15 -20
38 -30 52 -16 20 -21 22 -35 11 -14 -11 -16 -11 -16 2 0 9 -12 23 -26 30 l-26
14 40 31 c40 32 52 32 52 2 0 -19 88 -120 131 -151 29 -21 31 -21 44 -3 13 17
14 14 15 -32 0 -45 3 -52 25 -62 36 -17 40 -15 54 14 13 30 13 30 -18 42 -22
8 -20 10 34 51 31 23 61 41 68 38 7 -2 12 -26 12 -62 l0 -58 44 -13 c38 -11
47 -11 67 3 22 14 23 17 10 46 -7 18 -23 48 -34 67 -24 38 -27 50 -13 50 6 0
26 -27 47 -60 20 -33 39 -60 41 -60 3 0 18 8 35 18 21 12 51 57 104 154 41 75
81 138 88 141 8 3 25 36 39 74 20 53 27 90 29 171 3 98 2 102 -18 102 -20 0
-22 -8 -33 -112 -16 -150 -20 -173 -34 -159 -7 7 -6 33 3 84 14 85 1 168 -30
190 -9 6 -20 21 -23 32 -5 17 9 27 104 73 105 51 199 76 199 55 0 -12 -69 -76
-99 -93 -13 -6 -21 -21 -21 -35 0 -14 1 -25 3 -25 2 0 35 11 73 23 76 26 284
46 284 27 0 -20 19 -9 46 25 l27 36 -21 22 c-19 21 -20 27 -11 102 11 86 17
99 45 93 19 -4 21 -15 9 -54 -5 -16 1 -24 29 -39 31 -17 40 -18 68 -7 17 6 32
11 33 9 1 -1 13 -29 28 -62 27 -60 27 -60 7 -77 -11 -9 -20 -18 -20 -21 0 -2
18 -10 39 -17 33 -11 46 -11 73 0 47 19 98 58 98 76 0 8 14 32 31 53 33 42 61
45 80 10 9 -18 12 -18 72 5 l62 23 16 124 c22 163 42 207 130 288 53 48 68 68
64 82 -4 13 8 37 38 76 59 77 66 100 33 109 -45 11 -31 31 31 44 26 6 36 5 40
-6 8 -22 16 -17 43 27 20 33 88 97 264 250 6 5 2 16 -8 28 -16 18 -16 20 18
40 44 28 96 117 89 154 -4 22 -1 28 21 37 14 5 26 15 26 21 0 6 14 24 31 40
27 25 30 34 27 75 l-3 47 -71 -70 -70 -70 6 44 c4 24 9 44 11 46 40 28 121 99
146 126 l32 36 1 -50 0 -49 51 49 c28 28 69 76 91 108 66 97 98 129 114 116
12 -10 12 -14 -4 -25 -28 -19 -89 -124 -97 -167 l-7 -37 55 0 c56 0 56 0 83
45 14 25 29 45 32 45 4 0 26 18 50 40 34 32 41 44 36 64 -4 17 11 61 55 154
34 72 61 135 61 141 0 19 -38 12 -45 -8 -5 -18 -41 -38 -50 -29 -3 2 7 26 20
53 37 71 34 81 -29 95 l-31 6 30 16 c20 10 37 13 52 7 15 -5 23 -4 27 7 3 8
19 14 35 14 27 0 30 -2 22 -22 -21 -58 -22 -78 -3 -78 22 0 74 54 135 142 35
50 63 76 109 104 35 20 71 44 81 53 20 17 45 57 30 48 -4 -2 -38 -23 -76 -46
-46 -28 -79 -41 -104 -41 -34 0 -35 1 -20 18 23 25 21 65 -3 87 -11 10 -20 21
-20 25 0 10 48 30 71 30 23 0 123 66 154 100 l20 23 -29 -5 c-22 -5 -77 18
-251 102 -218 106 -222 108 -238 149 -15 37 -37 56 -37 31z m-320 -1269 c-12
-23 -29 -35 -37 -27 -7 7 26 46 39 46 5 0 4 -9 -2 -19z"/>
<path d="M2650 6835 c0 -3 14 -26 30 -51 25 -35 37 -44 60 -44 17 0 30 3 30 8
0 15 -51 82 -63 82 -7 0 -22 3 -34 6 -13 4 -23 3 -23 -1z"/>
<path d="M4693 6763 c20 -16 36 -35 37 -44 0 -12 8 -14 30 -11 18 2 30 0 30
-7 0 -6 -13 -17 -30 -26 -24 -12 -30 -22 -30 -47 l0 -31 25 27 c13 14 30 26
38 26 8 0 22 8 31 19 9 10 35 21 57 24 50 7 52 8 43 41 -6 24 -10 26 -68 26
-33 0 -86 7 -116 15 -79 21 -88 19 -47 -12z"/>
<path d="M4193 6753 c-24 -5 -29 -19 -15 -40 6 -10 12 -10 28 1 10 8 28 13 39
10 13 -3 24 2 33 16 11 19 10 20 -25 19 -21 -1 -48 -4 -60 -6z"/>
<path d="M4589 6693 c-24 -4 -27 -9 -32 -69 -7 -70 4 -114 27 -114 8 0 21 -3
29 -6 23 -9 75 84 69 124 -3 23 1 39 13 52 18 20 17 20 -31 19 -27 -1 -61 -4
-75 -6z"/>
<path d="M4446 6655 c-19 -14 -18 -15 12 -15 24 0 30 4 26 15 -7 18 -14 18
-38 0z"/>
<path d="M4895 6600 c-3 -5 -25 -14 -48 -20 -66 -17 -87 -28 -81 -43 4 -10 18
-13 53 -9 32 3 58 -1 79 -12 29 -15 62 -13 62 4 0 4 -9 19 -20 33 -11 14 -20
32 -20 41 0 18 -15 22 -25 6z"/>
<path d="M3375 6550 c-17 -19 -20 -17 83 -57 10 -4 11 2 6 23 -9 36 -6 33 -42
43 -24 7 -34 5 -47 -9z"/>
<path d="M1750 6314 c0 -17 10 -30 33 -44 44 -28 64 -25 70 8 3 15 5 28 4 28
-1 1 -26 9 -54 17 l-53 16 0 -25z"/>
<path d="M2334 6245 c-4 -8 -17 -15 -31 -15 -19 0 -24 -4 -19 -16 3 -9 6 -22
6 -30 0 -9 11 -14 30 -14 17 0 30 5 30 10 0 6 15 20 34 31 22 13 33 26 29 35
-7 19 -72 19 -79 -1z"/>
<path d="M2394 5905 c-4 -22 -2 -41 6 -50 15 -18 30 -10 30 16 0 11 7 22 15
25 22 9 18 19 -10 32 -35 16 -33 17 -41 -23z"/>
<path d="M1300 5866 c8 -8 34 -19 58 -24 37 -9 42 -8 42 8 0 18 -35 30 -88 30
-23 0 -24 -2 -12 -14z"/>
<path d="M1430 5820 c0 -32 1 -33 17 -17 16 16 16 18 0 34 -16 16 -17 15 -17
-17z"/>
<path d="M1508 5843 c-41 -11 -15 -36 67 -65 87 -31 165 -43 165 -25 0 6 3 21
6 33 5 18 -2 22 -49 35 -33 10 -63 12 -76 7 -15 -5 -32 -3 -51 7 -30 15 -33
16 -62 8z"/>
<path d="M6012 5765 c-17 -36 -16 -37 24 -13 32 19 35 23 18 29 -29 11 -30 11
-42 -16z"/>
<path d="M1846 5654 c-5 -19 -1 -33 13 -48 19 -20 21 -35 21 -144 0 -67 4
-122 8 -122 5 0 23 18 42 41 l33 41 -27 86 c-14 48 -26 94 -26 103 0 18 -37
69 -50 69 -4 0 -11 -12 -14 -26z"/>
<path d="M2520 5662 c0 -23 75 -96 89 -88 8 5 8 13 1 26 -5 10 -10 33 -10 51
0 26 -2 29 -14 20 -11 -9 -20 -9 -35 -2 -27 15 -31 14 -31 -7z"/>
<path d="M2805 5550 c-20 -22 -20 -22 14 -40 32 -17 49 0 33 35 -14 30 -23 31
-47 5z"/>
<path d="M230 5320 c0 -34 -15 -44 -78 -55 -33 -5 -47 -3 -60 9 -12 10 -22 12
-32 6 -12 -8 -10 -18 13 -66 25 -50 28 -67 26 -134 -3 -69 0 -80 22 -108 28
-37 36 -38 68 -11 22 18 23 22 11 45 -8 13 -24 27 -37 30 -37 10 -27 80 13 90
l24 6 -22 30 c-21 30 -21 31 -3 44 27 20 32 18 74 -26 21 -22 45 -40 55 -40
15 0 15 3 2 35 -15 34 -14 35 10 41 14 4 38 4 54 0 29 -5 30 -5 30 35 l0 40
-43 -6 c-48 -7 -77 10 -77 46 0 14 -7 19 -25 19 -21 0 -25 -5 -25 -30z"/>
<path d="M5148 5060 c-20 -33 -35 -60 -33 -60 13 0 105 74 105 84 0 12 -20 36
-29 36 -4 0 -23 -27 -43 -60z"/>
<path d="M5015 4935 c-21 -31 -37 -45 -53 -45 -13 0 -43 -13 -67 -30 l-43 -30
14 -47 c8 -25 16 -49 19 -51 3 -3 15 4 28 16 18 17 36 22 80 22 l57 0 0 67 c0
55 4 72 25 99 21 27 22 33 9 38 -29 11 -39 6 -69 -39z"/>
<path d="M1298 4924 c4 -25 3 -26 -23 -22 -27 6 -27 5 -21 -36 4 -22 20 -65
36 -93 l30 -53 -21 -52 c-25 -65 -23 -62 -47 -47 -18 12 -23 10 -42 -14 -15
-18 -28 -26 -40 -22 -27 9 -45 -20 -32 -50 11 -25 11 -25 -33 -25 -35 0 -45
-4 -50 -20 -6 -19 -14 -23 -84 -34 -19 -4 -50 -18 -69 -33 l-35 -26 28 54 c16
30 31 61 35 69 4 8 22 19 40 25 21 6 42 24 58 48 16 24 41 45 64 54 36 14 38
17 23 33 -15 16 -14 18 5 23 12 3 24 -1 29 -11 8 -14 13 -10 26 22 16 38 16
39 -9 64 -21 22 -27 23 -41 12 -8 -7 -17 -11 -18 -9 -26 37 -37 63 -32 80 10
29 -21 36 -49 10 l-23 -21 -27 21 c-23 18 -31 20 -53 10 -20 -9 -28 -9 -34 0
-5 8 -22 10 -55 5 -26 -3 -49 -8 -52 -10 -5 -5 17 -76 24 -76 3 0 17 9 32 20
16 12 35 18 44 15 21 -8 31 -45 12 -45 -10 0 -12 -8 -7 -30 5 -27 3 -30 -20
-30 -41 0 -53 -24 -34 -66 23 -46 21 -52 -5 -26 -30 27 -76 44 -100 37 -17 -6
-18 -3 -12 36 7 39 6 42 -12 34 -10 -5 -36 -10 -56 -13 -34 -4 -38 -7 -38 -33
0 -34 -26 -51 -68 -43 -37 8 -48 -15 -26 -58 14 -28 19 -30 54 -24 23 4 40 2
42 -5 2 -7 12 -7 33 1 35 13 75 5 75 -15 0 -22 -20 -29 -38 -12 -13 14 -18 14
-44 1 -25 -13 -28 -20 -28 -64 0 -44 3 -50 20 -50 19 0 20 -2 5 -30 -8 -16
-15 -38 -15 -48 0 -24 35 -56 51 -46 9 5 11 -5 7 -40 -5 -39 -2 -49 15 -61 19
-13 22 -13 30 0 10 19 47 19 72 1 16 -11 17 -17 7 -29 -10 -12 -6 -20 23 -46
30 -26 34 -34 25 -50 -14 -27 -14 -27 30 -45 21 -8 60 -35 85 -59 42 -41 46
-43 61 -26 8 9 29 23 45 29 20 9 29 19 29 35 0 18 11 29 45 45 26 13 53 19 65
15 13 -4 31 1 51 16 l30 21 -28 18 c-15 9 -34 24 -41 32 -19 23 4 34 27 14 39
-36 70 -13 71 52 0 15 9 26 25 32 16 6 25 17 25 31 0 18 -4 21 -29 16 -39 -8
-71 2 -71 23 0 13 15 22 53 32 l52 15 -37 12 c-42 14 -49 30 -18 38 18 5 20
11 14 54 -4 31 -2 54 5 63 9 11 7 15 -11 19 -22 6 -22 7 10 40 27 28 31 38 26
65 -5 23 -1 38 15 58 11 15 21 38 21 53 0 14 4 32 9 40 5 8 5 27 0 44 -5 17
-5 37 1 46 5 10 5 23 0 31 -7 12 -13 12 -34 0 -20 -10 -31 -11 -51 -2 -34 16
-33 16 -27 -14z"/>
<path d="M4801 4901 c-36 -19 -49 -40 -50 -79 -1 -22 0 -22 28 -7 36 18 71 61
71 86 0 23 -6 23 -49 0z"/>
<path d="M530 4854 c-7 -19 -10 -37 -8 -38 1 -2 20 -6 41 -9 35 -6 37 -5 37
23 0 18 -8 34 -22 44 -31 22 -35 21 -48 -20z"/>
<path d="M680 4862 c0 -16 8 -37 19 -46 17 -15 19 -16 25 -1 5 15 -27 75 -40
75 -2 0 -4 -13 -4 -28z"/>
<path d="M642 4805 c-17 -37 -15 -55 8 -55 30 0 42 31 21 59 l-17 22 -12 -26z"/>
<path d="M307 4786 c-10 -8 -15 -20 -11 -29 5 -13 0 -14 -30 -7 -41 9 -41 9
-22 -53 20 -66 1 -62 -68 16 l-56 62 15 -44 c19 -54 19 -52 -7 -42 -26 9 -94
-15 -116 -42 -11 -13 -8 -19 20 -40 18 -14 43 -28 54 -31 12 -4 27 -19 33 -35
7 -15 27 -35 44 -43 30 -14 34 -14 57 4 14 10 41 29 60 41 39 25 50 55 26 69
-9 5 -16 18 -16 29 0 29 37 39 82 21 35 -14 40 -14 55 1 14 13 14 19 3 32 -7
9 -21 13 -31 10 -15 -5 -19 -1 -19 15 0 22 -35 80 -48 80 -4 0 -15 -7 -25 -14z"/>
<path d="M433 4569 c-17 -17 -24 -19 -41 -10 -31 17 -51 13 -75 -12 -12 -12
-35 -31 -51 -41 l-28 -18 31 -19 c18 -11 34 -26 37 -34 9 -23 17 -18 47 29
l28 45 36 -16 c32 -13 38 -13 47 -1 6 8 21 20 34 27 22 11 22 13 5 44 -9 18
-18 27 -21 19 -3 -9 -8 -10 -16 -3 -9 7 -18 4 -33 -10z"/>
<path d="M4881 4519 c-12 -21 -4 -46 23 -68 12 -10 20 -6 45 30 17 23 29 45
26 48 -3 2 -23 6 -44 7 -28 1 -41 -3 -50 -17z"/>
<path d="M444 4438 c-8 -15 -19 -28 -25 -28 -6 0 -8 -9 -4 -20 4 -14 -2 -30
-19 -51 -14 -17 -26 -34 -26 -39 0 -13 54 -19 63 -7 6 9 10 9 14 0 7 -20 52
-15 84 8 30 21 39 49 17 49 -21 0 -39 49 -27 71 13 26 5 36 -31 41 -26 4 -34
0 -46 -24z"/>
<path d="M4716 4391 c-21 -39 -9 -61 17 -33 13 14 15 25 9 43 -9 23 -9 23 -26
-10z"/>
<path d="M4766 4262 c-3 -5 10 -23 28 -41 29 -28 34 -30 40 -15 5 12 -2 25
-21 40 -31 26 -39 28 -47 16z"/>
<path d="M4621 4142 c-35 -55 -37 -65 -16 -82 14 -12 13 -15 -5 -32 -28 -26
-25 -35 15 -42 27 -5 38 -14 48 -38 l13 -31 31 29 c17 16 34 43 37 61 5 30 2
33 -40 53 l-45 22 23 25 c21 22 21 26 8 50 -23 40 -35 38 -69 -15z"/>
<path d="M8123 4113 c-13 -2 -23 -8 -23 -13 0 -12 38 -32 43 -23 10 20 16 43
9 42 -4 -1 -17 -4 -29 -6z"/>
<path d="M1330 4010 c-14 -19 -30 -30 -46 -30 -17 0 -24 -5 -24 -20 0 -15 -7
-20 -27 -21 -16 0 -46 -9 -68 -19 l-40 -19 37 0 c49 -1 68 -10 68 -30 0 -10
11 -24 25 -31 20 -11 27 -11 40 0 13 11 19 9 38 -9 31 -28 68 -27 97 4 l23 25
-22 0 c-18 0 -21 4 -16 20 10 30 -13 131 -32 146 -25 19 -29 18 -53 -16z"/>
<path d="M8061 4006 c-10 -12 -7 -18 18 -30 16 -9 44 -16 62 -16 39 0 107 -37
115 -63 7 -22 6 -22 -23 -31 -18 -6 -25 -2 -34 18 -6 13 -19 26 -28 29 -9 3
-33 12 -54 21 -40 18 -39 18 -51 -36 -5 -21 -15 -30 -47 -40 -26 -7 -45 -20
-52 -36 -6 -13 -23 -26 -39 -29 -39 -8 -35 -28 13 -58 35 -23 40 -30 38 -59
-4 -39 24 -86 49 -86 10 0 38 -20 62 -45 24 -25 48 -45 52 -45 4 0 14 12 22
28 l15 27 1 -46 c0 -25 -5 -50 -11 -56 -7 -7 -2 -17 20 -32 l31 -22 31 22 31
22 -27 22 c-28 21 -28 22 -17 84 11 58 10 66 -12 109 -13 26 -34 52 -47 57
-33 15 -36 35 -4 35 24 0 25 2 19 35 -7 42 0 43 57 14 39 -20 41 -20 55 -2 27
36 17 71 -37 128 -39 42 -64 58 -112 74 -72 25 -81 25 -96 7z"/>
<path d="M4740 3935 c0 -20 47 -42 61 -28 5 5 7 17 3 26 -8 22 -64 23 -64 2z"/>
<path d="M8383 3873 c10 -18 12 -34 7 -43 -11 -17 5 -30 37 -30 15 0 28 10 37
29 14 26 14 30 -3 45 -10 9 -35 20 -56 23 l-37 6 15 -30z"/>
<path d="M4680 3790 c0 -26 49 -48 62 -28 5 8 0 19 -13 31 -28 23 -49 22 -49
-3z"/>
<path d="M4197 3752 c-19 -21 -6 -42 25 -42 21 0 23 18 4 42 -12 17 -14 17
-29 0z"/>
<path d="M4757 3754 c-10 -11 -8 -44 2 -44 6 0 13 4 16 10 8 12 -9 43 -18 34z"/>
<path d="M6350 3542 c0 -5 9 -12 21 -15 13 -3 19 -1 16 6 -5 15 -37 22 -37 9z"/>
<path d="M7687 3341 c-8 -32 5 -73 24 -78 13 -4 19 -14 19 -34 0 -19 5 -29 15
-29 24 0 18 62 -11 114 -28 50 -39 56 -47 27z"/>
<path d="M4210 3295 c-10 -12 -10 -18 0 -30 26 -32 60 -10 38 25 -15 24 -22
25 -38 5z"/>
<path d="M7400 3292 c0 -12 30 -52 39 -52 7 0 31 43 31 55 0 3 -16 5 -35 5
-19 0 -35 -3 -35 -8z"/>
<path d="M1637 3254 c-13 -13 -7 -24 14 -24 11 0 19 5 17 12 -5 14 -22 21 -31
12z"/>
<path d="M6603 3253 c-7 -2 -13 -16 -13 -29 0 -35 47 -34 60 2 6 14 10 27 10
30 0 5 -42 4 -57 -3z"/>
<path d="M4380 3183 c-27 -60 -29 -69 -16 -79 9 -6 16 -21 16 -32 0 -24 24
-33 79 -29 33 2 36 -1 62 -52 l27 -53 -25 -48 c-24 -46 -24 -49 -9 -79 13 -24
14 -36 6 -51 -12 -23 -25 -26 -36 -8 -10 15 -22 -21 -23 -70 -1 -34 37 -119
63 -141 16 -13 14 -19 31 94 4 23 11 35 22 35 16 0 88 51 111 79 6 8 12 27 12
42 0 14 7 32 15 39 22 18 19 36 -12 64 -26 25 -27 26 -14 76 11 41 11 60 1 94
l-12 43 -105 0 c-121 0 -123 0 -123 86 0 49 -3 57 -19 57 -14 0 -28 -19 -51
-67z"/>
<path d="M7073 3166 c-37 -69 -40 -79 -39 -148 l1 -74 -40 -19 c-22 -10 -52
-18 -67 -16 -20 2 -34 -7 -59 -39 -30 -37 -37 -41 -69 -36 -19 3 -58 8 -87 11
l-52 7 -21 -42 c-12 -23 -20 -44 -18 -45 2 -2 21 0 43 5 22 5 64 10 93 10 29
0 65 6 80 14 15 7 42 16 61 20 54 10 189 94 207 128 14 27 14 33 -7 84 l-23
54 31 38 c27 34 31 45 26 80 -3 23 -9 42 -13 42 -4 0 -25 -33 -47 -74z"/>
<path d="M1220 3119 c-32 -20 -33 -22 -15 -35 38 -28 76 -13 68 29 -6 32 -8
33 -53 6z"/>
<path d="M1696 2987 c-7 -27 -6 -28 28 -19 l29 8 -26 16 c-24 16 -25 16 -31
-5z"/>
<path d="M2540 2914 l0 -34 45 22 c24 12 43 24 40 26 -2 3 -22 8 -45 12 l-40
7 0 -33z"/>
<path d="M2448 2852 c-37 -22 -45 -31 -37 -42 8 -11 12 -12 16 -2 2 6 20 12
38 12 25 0 34 5 39 23 12 46 8 47 -56 9z"/>
<path d="M4648 2485 c-11 -12 -111 -24 -126 -16 -25 14 -72 -24 -72 -58 0 -15
5 -32 12 -39 9 -9 8 -17 -2 -37 -11 -20 -21 -25 -54 -26 -33 0 -46 -6 -63 -29
-34 -42 -36 -54 -11 -69 16 -10 23 -10 26 -2 2 6 10 11 19 11 10 0 12 -6 8
-19 -5 -15 2 -22 38 -34 l43 -14 43 39 42 40 -19 22 c-18 19 -19 24 -8 51 8
17 24 38 38 47 14 9 31 30 38 47 10 25 18 31 41 31 26 0 29 4 29 30 0 27 -9
38 -22 25z"/>
<path d="M4731 2252 c-9 -17 -129 -62 -164 -62 -10 0 -19 -10 -22 -25 -3 -14
-7 -36 -10 -49 -4 -19 2 -26 35 -39 36 -14 44 -14 79 0 30 12 42 23 46 45 5
20 18 34 48 49 23 12 44 23 46 25 6 5 -32 74 -41 74 -4 0 -12 -8 -17 -18z"/>
<path d="M6305 1926 c-11 -8 -39 -19 -63 -26 -23 -7 -42 -16 -42 -20 0 -3 19
-15 43 -27 l42 -20 76 37 c41 21 93 42 115 46 32 6 35 8 19 15 -35 14 -169 10
-190 -5z"/>
<path d="M6892 1858 c-17 -17 -15 -28 6 -28 19 0 42 18 42 32 0 12 -35 9 -48
-4z"/>
</g>
</svg>
