<?xml version="1.0" standalone="no"?>
<!DOCTYPE svg PUBLIC "-//W3C//DTD SVG 20010904//EN"
 "http://www.w3.org/TR/2001/REC-SVG-20010904/DTD/svg10.dtd">
<svg version="1.0" xmlns="http://www.w3.org/2000/svg"
 width="1024.000000pt" height="1024.000000pt" viewBox="0 0 1024.000000 1024.000000"
 preserveAspectRatio="xMidYMid meet">
<metadata>
Created by potrace 1.10, written by Peter Selinger 2001-2011
</metadata>
<g transform="translate(0.000000,1024.000000) scale(0.100000,-0.100000)"
fill="#000000" stroke="none">
<path d="M4380 9705 c-14 -8 -67 -28 -117 -45 -51 -18 -103 -40 -115 -50 l-22
-18 32 -69 c18 -38 32 -74 32 -79 0 -32 26 -89 55 -124 39 -47 42 -67 18 -113
-9 -18 -15 -49 -15 -70 2 -28 -4 -44 -22 -62 l-24 -24 25 -23 c25 -23 27 -52
8 -100 -4 -10 1 -24 14 -37 27 -27 26 -38 -4 -83 -16 -23 -25 -51 -25 -74 0
-30 -8 -46 -45 -85 -25 -26 -45 -54 -45 -60 0 -7 -19 -53 -41 -102 -29 -63
-44 -110 -49 -159 -6 -48 -15 -80 -30 -101 -21 -27 -23 -44 -28 -194 l-5 -163
-25 0 c-24 0 -24 -1 -20 -70 l4 -71 -31 6 c-16 4 -38 9 -48 11 -27 8 -31 -22
-8 -52 32 -40 27 -68 -18 -104 -39 -30 -40 -32 -39 -92 1 -60 0 -62 -41 -95
-22 -19 -41 -40 -41 -46 0 -7 18 -39 40 -72 22 -33 40 -68 40 -77 0 -9 -15
-27 -32 -39 -18 -12 -35 -24 -37 -25 -1 -2 -5 -36 -7 -76 -4 -86 -14 -98 -101
-123 -67 -20 -118 -53 -192 -126 -67 -65 -196 -227 -234 -291 -19 -33 -36 -50
-55 -54 -56 -14 -84 -37 -129 -105 -33 -51 -48 -68 -56 -60 -19 19 -45 12
-145 -38 -138 -69 -168 -77 -192 -56 -11 10 -27 38 -36 64 -44 120 -80 115
-236 -31 l-67 -63 -10 -75 c-14 -107 -44 -126 -159 -100 -67 16 -85 6 -117
-61 -16 -33 -37 -67 -48 -77 -11 -9 -30 -39 -44 -67 -24 -47 -25 -52 -13 -116
14 -75 9 -119 -20 -167 -20 -32 -23 -33 -73 -31 -39 2 -53 0 -54 -11 -2 -8 22
-48 52 -89 30 -41 55 -79 55 -86 0 -6 -7 -33 -17 -60 -16 -49 -16 -49 12 -101
28 -52 28 -54 10 -74 -26 -29 -49 -25 -94 15 -21 19 -41 35 -45 35 -3 0 -21
-33 -40 -73 -38 -79 -57 -102 -96 -112 -35 -8 -80 27 -80 63 0 14 9 44 20 66
16 35 18 47 8 84 -14 55 -69 117 -98 109 -15 -4 -31 6 -62 39 -23 24 -49 44
-59 44 -10 0 -32 -20 -49 -45 -17 -25 -44 -52 -61 -60 -63 -33 -144 -203 -156
-325 -7 -79 -20 -106 -56 -120 -70 -25 -82 -35 -85 -69 -2 -23 5 -45 23 -73
44 -67 56 -114 49 -192 -4 -51 -1 -89 11 -135 19 -75 14 -104 -20 -127 -24
-16 -58 -16 -159 -2 -31 5 -63 -53 -75 -135 -6 -39 -16 -97 -22 -127 -7 -30
-14 -69 -16 -87 -8 -54 -33 -67 -142 -74 -85 -5 -111 -11 -229 -57 -139 -55
-147 -56 -193 -15 -15 12 -17 7 -28 -48 l-12 -61 36 -59 c35 -58 36 -59 29
-135 -6 -66 -11 -82 -37 -111 -26 -29 -29 -38 -19 -54 27 -42 7 -96 -49 -135
-22 -15 -39 -33 -39 -41 0 -19 38 -92 111 -215 99 -165 136 -215 184 -248 25
-17 45 -33 45 -34 0 -2 -11 -28 -24 -57 -23 -48 -24 -55 -10 -81 8 -16 23 -28
34 -28 11 0 37 -15 58 -34 33 -30 39 -43 50 -104 15 -90 28 -122 48 -122 26 0
115 -81 132 -120 8 -19 25 -72 37 -116 32 -115 50 -143 100 -151 41 -6 78 -36
122 -98 l22 -30 11 33 c16 42 27 41 41 -7 8 -28 24 -48 56 -71 46 -32 51 -49
28 -103 -6 -15 -1 -17 50 -17 49 0 60 -4 86 -29 25 -26 30 -27 38 -13 8 14 12
15 35 2 22 -11 35 -12 78 0 51 13 52 12 75 -14 46 -54 42 -96 -12 -126 -65
-36 -59 -70 19 -104 79 -35 85 -52 60 -184 -6 -32 -2 -38 55 -91 34 -32 76
-80 94 -107 31 -47 34 -49 92 -56 85 -11 113 -25 136 -70 24 -47 126 -125 176
-134 49 -9 136 1 215 26 54 16 74 29 99 59 23 30 48 45 104 66 68 24 78 32
134 101 34 41 68 74 77 74 9 0 74 -54 145 -120 71 -66 132 -120 136 -120 5 0
41 20 80 45 95 59 131 73 206 80 34 4 92 16 128 27 50 16 76 19 105 12 62 -13
85 -6 164 54 41 31 77 57 79 59 3 2 -3 19 -12 38 -9 20 -17 46 -17 58 0 24 66
97 87 97 7 0 39 -25 71 -55 35 -32 69 -55 82 -55 36 0 116 45 255 145 152 109
182 125 228 125 43 0 52 -11 69 -80 9 -33 20 -56 30 -58 8 -2 62 30 120 71 58
40 142 92 187 116 60 31 81 47 81 62 0 16 -6 19 -27 17 -25 -3 -28 1 -36 45
-11 57 -10 59 92 131 113 79 112 76 45 133 -32 26 -73 62 -92 78 l-34 30 67
48 67 48 -4 57 c-3 56 -3 57 34 77 29 15 36 24 32 41 -4 14 8 42 35 84 23 35
46 82 52 104 13 50 23 62 68 86 41 21 255 216 300 273 16 21 39 67 51 102 12
36 39 90 60 121 35 52 38 62 33 103 -4 36 -1 50 11 60 10 8 16 29 16 54 0 44
14 60 208 239 l73 68 -16 29 c-25 50 -18 67 55 145 39 40 70 80 70 88 0 8 18
40 40 71 39 55 40 57 40 144 0 89 0 89 35 123 34 33 35 36 35 110 0 81 16 120
50 120 10 0 44 -14 75 -30 31 -16 64 -30 74 -30 52 0 106 -66 131 -160 21 -81
45 -107 133 -150 104 -50 265 -103 293 -96 12 3 55 41 95 85 69 74 78 88 137
229 34 82 67 173 72 201 5 28 14 60 20 70 9 19 85 61 108 61 25 0 34 40 21 90
-11 45 -11 53 13 107 14 32 29 74 33 93 10 47 23 70 40 70 8 0 38 29 67 64 29
36 57 65 61 65 4 1 51 -34 105 -77 53 -43 111 -88 129 -100 l31 -22 80 162
c61 124 94 178 137 225 64 71 92 80 97 31 l3 -32 35 35 c19 19 57 60 83 92 48
57 49 58 91 52 42 -7 43 -6 74 41 34 51 39 73 20 92 -8 8 -5 21 16 53 36 54
152 169 170 169 19 0 125 118 132 147 4 14 -2 33 -15 52 -27 38 -26 47 5 89
25 31 26 37 14 71 -12 37 -11 38 59 145 39 59 71 115 71 123 0 8 -10 23 -22
33 -20 16 -21 21 -10 44 7 15 12 65 12 111 0 73 3 87 23 111 17 19 28 24 38
18 9 -5 244 -200 523 -434 280 -234 512 -426 516 -428 6 -2 85 187 207 495 2
6 -9 14 -26 18 -48 10 -58 31 -31 60 21 22 22 28 10 50 -11 21 -11 27 3 43 40
43 9 106 -58 120 -36 7 -40 11 -43 41 -2 18 2 39 9 47 9 11 9 17 -1 29 -10 13
-10 19 3 33 14 16 13 17 -28 17 -50 0 -75 18 -75 53 0 14 -3 22 -6 19 -10 -9
-84 93 -84 115 0 11 7 18 20 18 30 0 78 27 90 50 15 27 -1 54 -41 70 -28 12
-33 12 -45 -5 -7 -10 -15 -23 -17 -28 -2 -7 -22 0 -48 15 -44 26 -45 26 -45 6
1 -32 -29 -46 -53 -24 -18 17 -21 17 -43 2 -30 -21 -70 -20 -97 2 -12 9 -44
53 -70 97 -60 100 -108 136 -185 143 -46 4 -62 0 -106 -24 -29 -16 -67 -46
-84 -68 -65 -81 -72 -86 -124 -86 -38 0 -58 6 -89 29 l-41 30 -6 -31 c-12 -59
-40 -72 -96 -43 -37 19 -38 9 -5 -35 29 -40 29 -40 11 -65 -10 -15 -17 -17
-27 -8 -19 15 -79 27 -79 16 0 -5 11 -20 25 -33 54 -51 21 -127 -66 -151 -53
-14 -265 -5 -350 15 -66 15 -179 86 -234 148 l-38 42 31 25 30 26 -31 0 c-29
0 -33 3 -37 35 l-5 35 -29 -45 c-99 -154 -148 -224 -215 -303 -42 -49 -93
-111 -114 -138 -21 -27 -46 -49 -55 -49 -10 0 -44 22 -76 49 -51 43 -62 48
-83 40 -13 -5 -41 -9 -62 -9 -37 0 -38 -1 -55 -57 -26 -83 -42 -105 -74 -102
-22 2 -40 -10 -92 -63 -39 -39 -78 -68 -95 -72 -24 -6 -34 -17 -54 -62 -29
-68 -70 -104 -117 -104 -27 0 -41 -7 -60 -29 -13 -16 -44 -41 -68 -55 -28 -16
-60 -50 -91 -95 -47 -69 -89 -101 -134 -101 -25 0 -25 -80 -6 710 8 338 15
639 15 668 l0 52 -1090 0 -1090 0 -2 1244 -3 1244 -25 -13z"/>
</g>
</svg>
