<?xml version="1.0" standalone="no"?>
<!DOCTYPE svg PUBLIC "-//W3C//DTD SVG 20010904//EN"
 "http://www.w3.org/TR/2001/REC-SVG-20010904/DTD/svg10.dtd">
<svg version="1.0" xmlns="http://www.w3.org/2000/svg"
 width="1024.000000pt" height="1024.000000pt" viewBox="0 0 1024.000000 1024.000000"
 preserveAspectRatio="xMidYMid meet">
<metadata>
Created by potrace 1.10, written by Peter Selinger 2001-2011
</metadata>
<g transform="translate(0.000000,1024.000000) scale(0.100000,-0.100000)"
fill="#000000" stroke="none">
<path d="M255 7430 c-22 -10 -64 -19 -95 -19 -30 -1 -72 -4 -93 -7 -37 -7 -37
-7 -37 -53 0 -26 -7 -56 -15 -68 -21 -31 -10 -50 51 -85 50 -28 58 -37 110
-139 31 -59 65 -116 76 -125 15 -14 39 -18 113 -18 52 -1 95 -3 95 -5 0 -2
-20 -31 -44 -65 -24 -33 -59 -97 -78 -141 l-34 -80 25 -110 c14 -61 29 -115
33 -121 4 -6 46 -33 93 -60 77 -45 85 -52 85 -79 0 -48 69 -109 145 -129 70
-18 93 -40 69 -67 -14 -15 -14 -20 -1 -46 8 -15 18 -68 22 -116 l7 -88 103
-82 c88 -70 105 -88 115 -124 11 -39 26 -53 163 -155 l150 -112 -47 -41 c-37
-32 -46 -46 -46 -71 0 -29 -4 -33 -46 -43 -46 -12 -49 -11 -106 25 l-60 36
-36 -35 c-33 -31 -44 -35 -101 -39 -60 -4 -67 -7 -96 -41 -28 -32 -38 -37 -76
-37 -32 0 -47 5 -56 19 -22 35 -87 35 -203 1 -66 -20 -109 -39 -118 -51 -7
-10 -24 -19 -37 -19 -31 0 -35 -8 -55 -106 -17 -80 -17 -83 3 -114 l20 -32
-48 4 -48 3 -27 -80 c-25 -76 -26 -82 -13 -135 14 -52 19 -58 99 -119 l84 -64
48 25 c26 14 68 29 94 32 45 7 49 5 156 -66 99 -66 110 -76 120 -114 9 -33 19
-45 55 -64 l43 -23 40 26 39 27 145 -25 c113 -19 157 -23 200 -16 50 8 57 7
87 -16 33 -26 42 -26 116 -8 20 5 27 2 32 -14 5 -17 12 -19 53 -15 26 3 58 2
71 -3 16 -6 43 -5 80 4 56 13 57 12 208 -38 128 -42 159 -49 197 -44 41 6 48
4 98 -33 29 -21 87 -52 130 -67 60 -21 83 -35 108 -66 17 -21 35 -39 39 -39 5
0 14 13 21 30 7 16 15 30 17 30 3 0 18 -10 35 -21 27 -20 33 -20 69 -9 34 12
41 11 57 -3 18 -16 20 -16 37 3 10 12 24 19 29 16 6 -2 27 -11 47 -20 35 -15
36 -14 95 25 32 21 65 39 73 39 35 0 91 25 97 42 7 22 19 21 109 -13 49 -18
55 -24 55 -48 0 -27 3 -29 53 -35 95 -11 181 -6 247 14 36 11 70 20 77 20 6 0
29 -25 50 -55 24 -35 44 -54 53 -51 8 2 36 10 62 17 47 13 48 13 80 -18 41
-38 94 -50 120 -27 16 16 21 16 55 1 21 -9 56 -19 77 -22 22 -4 85 -33 141
-66 l101 -59 128 0 c96 0 134 -4 157 -16 24 -12 46 -14 94 -9 55 6 69 4 97
-13 l34 -21 96 24 c87 23 99 24 130 11 32 -14 36 -13 82 15 l48 30 75 -16 c66
-15 76 -15 97 -2 22 15 30 12 162 -68 110 -66 146 -93 171 -129 31 -44 35 -46
82 -46 45 0 52 3 79 38 l30 38 141 -16 140 -15 52 -50 c28 -27 66 -79 84 -115
28 -54 43 -71 94 -103 l60 -38 128 15 c177 22 303 20 465 -6 l138 -22 27 26
c26 24 41 27 183 41 85 9 155 15 155 14 1 -1 23 -28 49 -59 44 -53 52 -58 89
-58 34 0 48 -7 78 -36 l37 -36 65 42 c56 35 71 40 100 35 28 -6 39 -16 69 -68
20 -34 46 -96 58 -137 29 -98 40 -111 86 -97 28 8 36 18 46 49 6 22 24 50 39
63 27 22 27 23 9 40 -15 13 -17 22 -10 41 6 16 6 33 -2 49 -10 22 -7 34 23 90
l34 63 123 23 c120 22 125 24 163 63 21 23 42 55 45 74 6 33 21 41 41 21 7 -7
23 -9 38 -5 23 6 26 10 20 35 -4 19 2 47 20 86 24 54 27 57 54 52 27 -6 31 -3
41 28 10 31 14 33 43 29 19 -3 57 3 91 15 57 20 59 20 85 2 26 -18 27 -18 92
6 l66 24 18 127 c12 88 23 134 36 151 11 13 19 37 19 53 0 46 45 123 100 170
47 40 50 46 50 91 l0 47 55 0 c31 0 68 -6 83 -14 15 -7 37 -17 50 -20 20 -7
22 -4 22 37 l0 44 43 7 c28 5 49 16 63 33 l21 27 29 -23 c16 -12 41 -45 55
-73 l26 -51 47 86 c55 102 101 144 201 183 39 15 74 30 78 34 5 4 2 24 -7 44
-13 31 -20 36 -48 36 -18 1 -44 10 -57 21 l-25 20 33 135 c36 146 36 160 4
361 l-17 102 -102 41 c-106 43 -114 50 -114 109 0 13 14 49 31 79 24 42 29 62
25 87 -6 29 -2 36 38 68 l44 36 -14 63 c-7 35 -13 81 -14 103 0 22 -5 57 -11
78 -10 39 -4 49 53 88 5 3 12 38 15 76 l6 71 -80 90 c-69 79 -86 105 -128 206
-46 108 -52 117 -100 151 -46 31 -58 35 -116 35 l-64 0 -90 71 c-50 39 -114
84 -144 101 -57 33 -81 71 -81 128 0 29 -2 30 -42 30 -38 0 -46 -4 -65 -34
-20 -30 -29 -35 -78 -41 -31 -4 -79 -4 -107 -1 -43 6 -54 4 -73 -14 -12 -11
-41 -26 -66 -33 -42 -13 -44 -15 -42 -50 3 -42 2 -42 -78 -22 -56 15 -61 15
-99 -5 -41 -21 -41 -21 -68 -2 l-26 20 -42 -34 c-23 -19 -48 -32 -55 -30 -62
19 -66 18 -86 -29 l-18 -45 -62 0 c-60 0 -63 1 -69 28 -3 15 -7 33 -10 40 -6
19 -227 17 -244 -3 -19 -23 -36 -18 -50 14 -7 17 -22 32 -36 35 -19 5 -24 13
-24 37 0 31 0 31 -22 15 -13 -9 -42 -26 -65 -38 -35 -18 -43 -27 -43 -50 0
-28 -13 -37 -25 -18 -12 20 -25 9 -25 -20 0 -36 -30 -52 -82 -44 -25 5 -38 1
-52 -15 -10 -11 -40 -27 -67 -36 -40 -14 -50 -22 -59 -51 -6 -19 -15 -34 -20
-34 -5 0 -25 19 -44 42 -35 41 -36 43 -30 107 9 95 -1 112 -77 137 -56 18 -85
20 -231 18 l-166 -3 -39 29 -38 29 -33 -32 -33 -32 -30 35 c-28 34 -29 37 -23
111 l6 76 -30 19 c-19 10 -32 27 -34 42 -3 23 -8 20 -92 -47 -49 -39 -93 -71
-98 -71 -5 0 -20 7 -33 16 -19 12 -37 15 -70 10 -38 -6 -45 -11 -45 -30 0 -55
-12 -86 -34 -86 -13 0 -59 -38 -126 -105 l-106 -105 -84 -10 c-47 -5 -93 -10
-103 -10 -15 0 -17 -5 -12 -30 6 -27 1 -37 -34 -75 -28 -30 -41 -54 -41 -73 0
-26 -4 -29 -72 -46 -90 -23 -114 -44 -128 -110 l-10 -51 -41 3 c-25 3 -57 -3
-82 -14 -55 -23 -53 -22 -32 -38 18 -13 16 -14 -16 -21 -19 -4 -50 -23 -70
-42 -34 -32 -39 -34 -82 -28 -46 7 -47 7 -63 -29 -20 -42 -25 -43 -49 -16 -14
15 -26 19 -54 14 -33 -5 -44 1 -144 78 l-108 83 4 108 c3 96 2 109 -16 125
-11 9 -26 32 -34 50 -13 32 -16 33 -66 31 -43 -1 -66 5 -129 36 -73 37 -77 41
-102 97 l-25 59 29 47 29 47 -27 8 c-15 4 -65 5 -112 1 l-86 -6 -27 38 c-15
22 -42 49 -60 61 -32 22 -35 22 -116 9 -77 -12 -89 -11 -174 10 -51 12 -137
43 -192 68 l-100 45 -155 2 -154 1 -9 -27 c-5 -14 -12 -25 -15 -23 -93 46
-101 53 -116 93 -11 28 -31 52 -62 74 l-46 32 -46 -15 c-25 -9 -53 -16 -63
-16 -10 0 -30 -11 -46 -23 -15 -13 -44 -27 -64 -30 -30 -4 -41 -1 -58 17 -18
19 -28 22 -64 16 -23 -4 -58 -17 -79 -29 -32 -19 -37 -28 -43 -72 -8 -54 -9
-106 -3 -128 2 -10 -24 -23 -87 -42 -71 -23 -109 -29 -182 -29 -85 0 -93 -2
-110 -23 -15 -21 -22 -23 -57 -15 -36 8 -42 6 -70 -20 -45 -42 -88 -57 -127
-43 -57 20 -66 15 -80 -39 -7 -27 -16 -50 -19 -50 -4 0 -33 9 -65 20 -81 28
-143 66 -191 117 -45 48 -86 57 -104 23 -8 -16 -21 -20 -58 -20 -44 0 -50 3
-80 42 -20 26 -32 53 -32 72 0 30 -80 166 -98 166 -4 0 -47 5 -97 11 -49 6
-129 12 -176 13 -78 2 -91 5 -130 31 -63 43 -114 55 -163 38 -38 -13 -41 -12
-60 11 -19 22 -29 25 -113 28 -50 2 -95 6 -99 10 -4 4 3 31 14 59 21 49 21 52
5 80 -20 33 -24 34 -78 9z"/>
</g>
</svg>
