<?xml version="1.0" standalone="no"?>
<!DOCTYPE svg PUBLIC "-//W3C//DTD SVG 20010904//EN"
 "http://www.w3.org/TR/2001/REC-SVG-20010904/DTD/svg10.dtd">
<svg version="1.0" xmlns="http://www.w3.org/2000/svg"
 width="1024.000000pt" height="1024.000000pt" viewBox="0 0 1024.000000 1024.000000"
 preserveAspectRatio="xMidYMid meet">
<metadata>
Created by potrace 1.10, written by Peter Selinger 2001-2011
</metadata>
<g transform="translate(0.000000,1024.000000) scale(0.100000,-0.100000)"
fill="#000000" stroke="none">
<path d="M7138 9087 c-98 -45 -108 -52 -108 -77 0 -45 -37 -70 -105 -70 -59 0
-60 -1 -116 -56 -55 -55 -58 -56 -90 -45 -35 12 -54 4 -64 -30 -5 -16 -13 -18
-63 -13 -48 5 -69 1 -134 -24 -68 -26 -82 -29 -127 -20 -40 7 -57 6 -82 -8
l-32 -16 -66 65 c-55 54 -73 66 -108 70 -28 3 -62 20 -105 51 -55 39 -69 44
-94 37 -29 -7 -29 -9 -30 -81 l-1 -73 -44 -23 c-51 -27 -69 -29 -69 -10 0 15
-43 26 -106 26 -34 0 -44 4 -49 20 -8 26 -64 50 -87 38 -10 -5 -21 -21 -24
-36 -4 -15 -17 -46 -31 -69 -23 -42 -26 -43 -73 -43 -40 0 -50 -3 -50 -16 0
-9 -20 -34 -45 -56 -38 -33 -45 -46 -45 -76 0 -58 -11 -68 -58 -54 -65 20
-114 15 -145 -13 -15 -14 -27 -31 -27 -37 0 -7 -12 -24 -26 -39 l-26 -27 -46
29 c-31 19 -59 29 -86 29 -23 1 -52 7 -66 15 -14 8 -40 14 -58 15 -19 0 -35 6
-38 15 -4 9 -19 15 -38 15 -17 0 -40 7 -50 15 -27 21 -41 19 -84 -10 -31 -20
-43 -23 -68 -16 -21 6 -36 5 -49 -5 -10 -8 -36 -14 -57 -14 -33 0 -38 3 -38
23 0 37 -48 72 -136 101 -65 21 -86 25 -108 16 -15 -5 -38 -10 -52 -10 -20 0
-24 -5 -24 -33 0 -18 -7 -43 -16 -55 -15 -22 -14 -26 11 -63 14 -23 24 -43 21
-47 -6 -6 -40 4 -117 33 -30 12 -57 16 -80 11 -29 -5 -39 -15 -67 -66 -19 -33
-40 -60 -48 -60 -8 0 -24 -19 -35 -43 -19 -39 -24 -43 -52 -39 l-30 5 6 -49
c5 -44 2 -53 -33 -102 -30 -42 -37 -58 -31 -75 7 -18 -2 -38 -46 -100 l-54
-78 15 -47 c16 -44 15 -46 -6 -69 -12 -13 -27 -23 -33 -23 -7 0 -20 -10 -31
-21 -18 -20 -26 -21 -107 -15 -122 8 -123 9 -130 105 -6 80 -7 82 -97 229 -49
82 -90 158 -90 168 0 15 -20 26 -90 51 -87 31 -92 31 -128 17 -20 -9 -49 -27
-63 -40 -14 -13 -52 -34 -84 -47 -53 -21 -60 -26 -73 -65 -19 -57 -76 -95
-245 -162 -109 -43 -134 -49 -161 -42 -26 8 -38 5 -66 -14 -19 -13 -40 -24
-47 -24 -7 0 -13 -10 -13 -22 -1 -13 -20 -44 -43 -70 l-42 -47 -105 -16 c-92
-14 -109 -19 -136 -46 -25 -24 -48 -34 -115 -47 -72 -15 -84 -20 -87 -39 -2
-12 -24 -41 -50 -64 -39 -37 -45 -48 -43 -78 1 -27 -5 -41 -30 -67 l-32 -33 5
-117 c5 -113 7 -119 32 -139 15 -12 30 -35 35 -51 10 -37 -3 -95 -24 -106 -13
-8 -10 -16 21 -54 32 -38 35 -48 30 -79 -4 -20 -14 -39 -22 -42 -7 -3 -14 -15
-14 -27 0 -27 -8 -37 -46 -63 -20 -15 -39 -43 -55 -84 -25 -64 -28 -66 -115
-93 -27 -8 -57 -18 -66 -21 -12 -5 -19 3 -28 32 -7 21 -15 41 -19 45 -3 3 -30
2 -60 -4 -47 -10 -57 -16 -88 -60 -20 -27 -43 -48 -53 -48 -12 0 -30 20 -51
56 l-32 56 -51 -6 c-28 -3 -63 -6 -77 -6 -19 0 -34 -11 -56 -42 -29 -42 -30
-46 -28 -143 3 -84 8 -112 33 -175 l30 -75 -21 -22 c-11 -13 -35 -25 -52 -29
-18 -3 -47 -14 -64 -25 -28 -17 -31 -24 -31 -65 0 -37 -7 -56 -35 -95 -22 -29
-40 -69 -47 -103 -11 -52 -10 -56 15 -95 24 -37 27 -49 27 -132 0 -69 -4 -97
-15 -109 -14 -16 -14 -22 5 -69 11 -28 20 -62 20 -75 0 -12 11 -33 25 -46 25
-24 36 -53 55 -146 5 -27 12 -58 15 -69 5 -17 -9 -32 -75 -83 -54 -42 -90 -62
-108 -62 -16 0 -37 -7 -48 -15 -10 -8 -40 -15 -65 -15 -41 0 -48 -3 -53 -23
-3 -13 -1 -39 4 -58 15 -50 13 -55 -26 -78 -29 -17 -35 -26 -32 -48 2 -20 10
-29 28 -33 15 -3 30 -18 39 -37 10 -22 23 -34 43 -38 43 -10 98 -96 98 -155 0
-25 7 -54 15 -64 8 -11 15 -30 15 -43 0 -35 29 -73 55 -73 16 0 39 -19 73 -58
62 -72 72 -102 43 -138 -13 -16 -21 -41 -21 -64 0 -47 -26 -106 -63 -142 -15
-15 -27 -38 -27 -52 0 -15 -8 -30 -21 -37 -18 -9 -25 -7 -48 15 -34 32 -54 27
-68 -19 -10 -30 -8 -36 18 -61 26 -25 29 -34 29 -96 0 -40 7 -84 16 -106 13
-32 14 -45 3 -90 -12 -51 -12 -53 16 -82 28 -29 28 -29 15 -90 l-13 -61 32
-32 c27 -29 31 -40 31 -89 l0 -57 54 -24 c40 -19 55 -31 60 -52 4 -15 20 -44
36 -64 16 -20 33 -52 36 -71 4 -19 20 -61 35 -92 l29 -57 -20 -47 c-24 -54
-21 -65 24 -117 28 -34 43 -41 112 -58 43 -10 83 -18 87 -19 5 0 6 28 3 63 -5
53 -2 68 19 107 52 96 66 132 63 163 -3 27 2 34 37 55 36 21 49 23 136 19 68
-3 104 -9 125 -21 31 -19 139 -177 150 -220 6 -24 46 -46 83 -46 34 0 38 -19
20 -73 -24 -70 -24 -132 0 -166 17 -24 21 -52 27 -194 l7 -167 -31 -68 c-18
-37 -36 -90 -41 -118 -5 -27 -17 -66 -25 -86 -9 -21 -16 -51 -16 -68 0 -45
-27 -90 -61 -102 -16 -5 -29 -13 -29 -17 0 -4 36 -16 80 -28 l80 -21 44 39
c25 22 48 50 52 62 3 12 26 43 51 68 l45 47 104 -58 103 -58 26 20 c18 14 34
18 51 14 13 -4 33 -2 43 3 16 9 33 -5 116 -90 102 -105 129 -124 159 -107 16
9 15 12 -11 35 l-27 26 22 8 c12 5 22 12 22 17 0 16 -35 41 -75 54 -30 10 -41
20 -47 43 -10 39 -37 55 -110 65 -57 8 -97 35 -98 67 0 21 41 108 61 126 11
10 44 54 75 98 57 81 69 88 117 70 20 -8 29 -5 48 15 31 33 43 30 65 -18 22
-48 39 -58 47 -28 10 40 36 35 88 -16 36 -35 49 -56 49 -77 0 -37 24 -84 68
-129 29 -31 37 -48 44 -99 9 -70 33 -125 80 -187 27 -36 32 -51 30 -90 -1 -33
5 -59 21 -87 l23 -40 59 3 c55 4 64 7 105 48 35 34 53 44 79 44 18 0 40 4 50
9 26 14 152 -28 201 -68 l40 -32 39 20 c21 11 115 39 208 62 l168 42 117 93
116 93 92 -30 c85 -29 92 -30 109 -15 16 15 33 16 119 10 l100 -7 78 -105 78
-105 67 6 c64 5 72 9 173 81 75 53 116 76 136 76 37 0 54 29 46 80 -5 32 -1
44 28 82 19 25 49 51 66 58 28 12 37 11 78 -10 26 -12 72 -33 102 -45 53 -20
58 -21 124 -6 l69 14 33 73 c23 48 34 88 34 118 0 24 3 52 6 61 4 9 42 36 85
61 68 39 79 50 79 73 0 21 13 36 68 76 59 44 67 54 70 86 3 32 7 37 35 43 17
3 42 13 55 22 23 15 24 19 17 100 -7 82 -6 86 20 120 15 20 75 74 133 119 91
72 112 85 156 90 50 7 239 77 264 97 6 6 12 21 12 33 0 51 9 56 51 28 21 -14
41 -33 44 -42 3 -9 42 -37 86 -63 63 -38 90 -48 124 -48 43 0 46 2 115 85 39
47 72 85 73 85 1 0 34 9 72 20 39 11 107 24 152 30 l82 9 128 -58 128 -58 7
-43 c12 -69 41 -77 112 -31 35 22 63 30 122 35 l77 7 53 -52 52 -51 108 10
c60 6 159 21 219 35 61 14 138 28 171 31 l61 5 18 -44 c9 -25 19 -45 22 -45 3
0 35 17 72 37 64 34 71 43 134 144 37 59 67 118 67 132 0 21 8 28 44 40 l43
15 84 -105 84 -105 40 6 c50 8 105 64 105 108 0 15 0 31 1 36 1 9 -19 19 -51
26 -19 4 -30 17 -44 53 -10 26 -31 73 -46 103 -16 31 -31 72 -35 92 -7 35 -4
39 57 98 64 62 66 63 125 45 26 -8 27 -4 43 134 8 68 8 97 0 107 -14 16 6 119
27 140 8 7 30 16 49 20 29 5 38 13 51 45 21 53 54 61 93 24 29 -27 30 -28 49
-11 31 28 94 37 267 40 l162 2 52 45 53 46 -2 108 c-2 88 -7 119 -26 167 l-24
58 50 54 c56 62 61 88 25 144 -15 23 -29 67 -37 114 -13 76 -12 78 10 102 l23
25 -27 82 c-27 81 -27 83 -10 116 15 27 17 47 12 115 -6 78 -8 83 -42 110
l-35 29 0 134 c0 130 0 133 25 149 13 9 38 16 55 16 30 0 34 5 92 128 44 94
73 140 110 178 l49 51 -68 149 -69 149 -72 9 c-69 8 -72 10 -72 36 0 17 -23
60 -65 118 -50 70 -65 99 -65 125 0 20 -22 86 -48 149 -49 113 -49 113 -85
116 l-37 3 0 70 c0 65 -3 76 -42 142 l-43 72 -5 170 c-4 94 -11 184 -18 200
-6 17 -14 47 -17 68 l-6 37 -78 0 -79 0 -47 55 -47 55 -28 -24 -29 -23 -95 22
c-84 20 -103 28 -149 68 -46 40 -59 45 -117 51 -98 11 -129 24 -204 87 -54 46
-79 60 -115 65 -38 6 -63 22 -156 99 -60 50 -126 101 -146 113 -20 12 -56 43
-80 69 -39 43 -46 58 -63 136 l-19 89 -61 30 -61 30 -59 125 c-52 107 -64 126
-93 138 -26 11 -41 30 -74 97 -39 79 -46 87 -116 132 -56 37 -307 233 -366
286 -4 3 0 24 8 45 14 31 14 40 3 50 -10 10 -34 3 -120 -38z"/>
</g>
</svg>
