<?xml version="1.0" standalone="no"?>
<!DOCTYPE svg PUBLIC "-//W3C//DTD SVG 20010904//EN"
 "http://www.w3.org/TR/2001/REC-SVG-20010904/DTD/svg10.dtd">
<svg version="1.0" xmlns="http://www.w3.org/2000/svg"
 width="1024.000000pt" height="1024.000000pt" viewBox="0 0 1024.000000 1024.000000"
 preserveAspectRatio="xMidYMid meet">
<metadata>
Created by potrace 1.10, written by Peter Selinger 2001-2011
</metadata>
<g transform="translate(0.000000,1024.000000) scale(0.100000,-0.100000)"
fill="#000000" stroke="none">
<path d="M4742 10224 c-31 -21 -14 -50 38 -65 35 -11 42 -10 60 6 25 22 25 37
2 58 -23 21 -71 22 -100 1z"/>
<path d="M4606 10044 c-7 -28 9 -64 28 -64 16 0 26 32 19 59 -8 30 -40 33 -47
5z"/>
<path d="M5050 9923 c-24 -30 -23 -61 2 -77 21 -12 49 10 72 57 11 24 12 33 3
39 -24 15 -56 7 -77 -19z"/>
<path d="M4694 9899 c-16 -17 -16 -22 -4 -29 29 -18 57 -11 62 15 3 13 3 27 0
30 -12 11 -40 4 -58 -16z"/>
<path d="M4310 9676 c-31 -32 -52 -46 -71 -46 -33 0 -37 -10 -44 -113 -9 -115
-22 -168 -66 -262 -21 -45 -45 -107 -53 -137 -8 -31 -21 -70 -30 -86 -23 -44
-20 -87 9 -141 32 -60 45 -140 45 -274 l0 -109 -34 -39 -33 -39 4 -188 c5
-184 5 -188 33 -234 29 -47 26 -68 -10 -68 -9 0 -31 -13 -50 -30 -54 -45 -130
-37 -130 15 0 28 -24 53 -92 97 -38 24 -48 36 -48 57 0 15 -6 35 -13 44 -11
16 -14 16 -33 2 -19 -13 -22 -27 -27 -122 -3 -60 -8 -120 -12 -134 -6 -21 -1
-29 29 -50 41 -28 45 -47 50 -249 3 -137 5 -145 71 -230 37 -49 43 -63 49
-125 12 -128 18 -160 34 -177 19 -22 51 -23 81 -2 29 21 48 6 31 -26 -19 -35
-4 -78 30 -85 22 -5 37 -19 57 -57 35 -62 81 -94 108 -74 26 19 33 118 11 170
-16 38 -16 40 5 62 l22 23 41 -29 c23 -16 76 -39 119 -51 66 -19 80 -27 98
-56 18 -28 20 -39 10 -59 -11 -25 -54 -34 -66 -14 -13 21 -34 9 -41 -24 -4
-25 -26 -54 -81 -107 l-75 -73 15 -134 c9 -74 18 -136 21 -140 8 -8 56 39 56
55 0 22 46 15 78 -12 19 -16 34 -41 41 -71 9 -35 15 -44 24 -35 19 19 43 13
86 -23 46 -38 125 -62 174 -51 18 3 56 9 85 12 46 4 52 7 52 28 0 13 -10 32
-23 42 -36 29 -23 50 40 64 31 7 69 24 85 37 26 22 35 24 86 18 75 -9 173 -67
244 -145 46 -51 62 -61 125 -81 96 -30 124 -64 135 -164 8 -78 29 -105 80
-106 39 0 52 29 43 99 -8 68 -25 106 -71 160 -32 37 -35 45 -33 98 1 39 -5 75
-20 111 -11 29 -21 59 -21 67 0 32 42 12 113 -54 41 -38 84 -74 96 -81 12 -6
33 -36 46 -66 21 -48 27 -54 54 -54 17 0 43 -11 63 -27 60 -49 183 -167 204
-198 20 -27 21 -32 7 -58 -8 -16 -13 -42 -11 -59 3 -29 7 -33 54 -43 28 -6 66
-23 85 -37 19 -14 51 -28 72 -31 20 -3 49 -15 64 -26 l26 -21 51 43 c68 58 70
59 111 51 56 -10 42 -64 -16 -64 -50 0 -59 -9 -59 -59 0 -59 11 -75 52 -75 27
-1 34 -5 36 -25 4 -27 30 -71 42 -71 4 0 24 26 45 57 43 64 56 132 35 182 -9
24 -9 34 5 61 9 17 15 48 13 68 -2 30 -8 38 -25 40 -17 3 -23 -2 -23 -17 0
-11 -7 -27 -16 -35 -14 -15 -18 -14 -45 15 -26 28 -34 31 -81 29 -100 -4 -107
4 -67 81 11 23 19 42 17 43 -2 1 -15 10 -30 19 -19 12 -28 26 -28 43 0 37 -55
104 -86 104 -16 0 -28 9 -39 30 -35 68 -9 85 134 85 l105 0 18 31 19 32 -135
66 c-74 36 -140 66 -147 66 -7 0 -20 -7 -29 -15 -14 -12 -23 -13 -51 -3 -40
13 -49 24 -49 61 0 33 -16 35 -77 10 -44 -18 -58 -43 -24 -43 26 0 29 -14 22
-98 -9 -96 -32 -113 -99 -72 -31 19 -33 23 -27 63 11 70 -16 150 -68 205 -32
35 -46 59 -51 91 -5 36 -9 42 -24 35 -9 -5 -78 -8 -152 -9 l-135 0 -47 -34
c-39 -28 -48 -40 -48 -65 0 -36 -22 -73 -66 -110 -47 -39 -132 -37 -217 5 -74
37 -117 75 -117 103 0 12 -11 44 -23 71 -13 28 -27 66 -31 85 -3 19 -17 50
-31 70 -30 44 -24 80 16 104 34 20 35 26 9 49 -11 9 -20 26 -20 37 0 10 -13
34 -29 52 -15 18 -34 51 -41 73 -7 22 -18 47 -25 55 -7 8 -16 29 -19 46 -4 17
-21 44 -37 60 -50 47 -74 104 -44 104 8 0 26 17 39 38 13 20 32 45 42 54 69
61 73 67 79 112 6 36 4 51 -9 65 -23 26 -20 58 13 126 42 84 62 104 129 124
32 10 78 32 102 50 51 37 60 29 31 -28 -46 -90 -14 -95 62 -10 47 52 56 67 59
107 9 97 49 219 90 270 48 59 97 177 104 247 6 57 4 66 -20 101 -14 21 -26 47
-26 57 0 30 -50 87 -76 87 -40 0 -93 93 -105 185 -4 33 -11 73 -15 88 -3 16
-2 45 4 65 6 21 15 71 21 112 9 59 18 81 40 105 65 69 70 98 29 157 -10 15
-25 43 -33 62 -24 57 -65 45 -65 -18 0 -32 -70 -96 -116 -107 -65 -15 -102
-10 -162 20 -31 15 -88 39 -127 51 -38 13 -113 50 -165 83 l-95 59 -85 3 c-47
1 -101 5 -120 9 -32 7 -38 4 -80 -38z"/>
<path d="M5124 7205 c-12 -8 -24 -12 -26 -9 -3 2 -11 -2 -17 -10 -15 -18 5
-71 38 -100 14 -13 21 -31 21 -56 0 -34 12 -50 37 -50 3 0 3 24 0 53 -2 28 0
76 6 105 11 49 10 55 -8 68 -23 17 -26 17 -51 -1z"/>
<path d="M6688 6598 c-15 -11 -15 -24 -7 -104 l10 -92 -36 -71 c-19 -40 -33
-76 -30 -81 8 -13 51 -13 75 0 13 7 28 7 46 -1 16 -5 45 -7 66 -4 33 6 40 12
58 52 11 25 20 64 20 86 0 34 -7 48 -50 93 -27 29 -50 61 -50 72 0 24 -40 62
-66 62 -11 0 -27 -6 -36 -12z"/>
<path d="M5106 6194 c-3 -9 -6 -23 -6 -33 0 -9 -13 -30 -30 -46 -16 -16 -30
-32 -30 -37 0 -4 29 -27 64 -50 38 -26 67 -53 74 -70 6 -15 14 -28 19 -28 4 0
25 15 45 34 68 63 73 159 8 172 -23 5 -30 12 -30 30 0 26 -11 30 -41 14 -16
-9 -19 -7 -19 10 0 25 -45 28 -54 4z"/>
<path d="M4407 6140 c-31 -25 -97 -26 -217 -5 -134 24 -132 24 -150 -53 -9
-35 -4 -38 65 -44 24 -2 31 -8 33 -28 2 -19 26 -42 92 -90 48 -36 91 -74 94
-85 3 -11 11 -60 18 -109 l12 -89 58 -55 c48 -46 58 -61 58 -88 0 -44 77 -147
120 -163 17 -5 34 -21 39 -34 5 -13 23 -30 41 -37 28 -11 33 -11 53 8 12 11
38 24 57 29 29 8 37 16 47 49 6 21 12 53 12 71 1 20 12 45 30 65 15 18 34 43
40 56 15 29 5 81 -20 105 -27 26 -26 130 1 175 29 47 26 80 -7 93 -68 27 -91
43 -106 74 -21 44 -107 95 -160 95 -37 0 -96 24 -149 61 -32 23 -30 23 -61 -1z"/>
<path d="M5864 5895 c-8 -21 2 -32 34 -38 20 -4 41 -22 64 -54 41 -57 93 -89
131 -79 35 8 34 20 -5 48 -18 12 -58 48 -88 80 -48 51 -60 58 -93 58 -24 0
-40 -5 -43 -15z"/>
<path d="M6331 5624 l-35 -15 37 -37 c20 -20 45 -58 56 -84 17 -40 44 -68 65
-68 3 0 6 18 6 40 0 28 -5 42 -19 50 -11 5 -28 35 -38 67 -11 31 -23 58 -29
59 -5 2 -24 -4 -43 -12z"/>
<path d="M7203 5563 c-4 -10 -11 -21 -15 -24 -12 -8 -295 -3 -330 6 -14 4 -36
2 -48 -5 -22 -12 -22 -12 -2 -33 29 -32 49 -77 55 -126 8 -67 85 -134 183
-160 32 -9 44 -18 58 -48 31 -65 76 -113 135 -142 31 -15 63 -26 71 -24 13 3
15 -7 10 -61 -5 -57 -10 -70 -39 -100 l-33 -34 31 -16 c17 -9 35 -25 41 -36 6
-11 31 -44 56 -73 108 -127 120 -132 271 -124 l113 6 62 -39 c33 -22 70 -40
82 -40 16 0 5 14 -47 64 -37 35 -67 69 -67 74 0 6 -10 12 -22 14 -17 2 -22 9
-20 23 16 93 17 86 -27 124 l-42 36 -16 125 c-15 118 -18 162 -13 220 1 14 -2
53 -6 88 -6 57 -10 66 -47 97 -22 19 -44 35 -49 35 -4 0 -8 15 -8 34 0 25 -10
45 -37 75 -35 39 -44 43 -103 51 -36 4 -78 13 -93 19 -44 17 -97 14 -104 -6z"/>
<path d="M5253 5526 c-28 -18 -32 -27 -33 -64 0 -24 -8 -57 -17 -73 -15 -25
-16 -35 -5 -74 7 -25 12 -58 12 -73 0 -17 10 -38 24 -51 l24 -23 7 89 c4 48
14 122 23 163 27 130 22 145 -35 106z"/>
<path d="M6110 5530 c-21 -13 -16 -219 6 -236 8 -6 14 -15 14 -20 0 -8 -31
-58 -73 -117 -17 -24 -17 -28 -2 -56 8 -17 17 -31 20 -31 14 0 97 103 116 143
20 41 26 47 54 47 23 0 40 -10 66 -36 45 -48 165 -128 331 -222 l57 -33 -8 28
c-5 16 -18 47 -30 70 -11 23 -21 53 -21 66 0 13 -12 34 -26 48 -14 13 -33 41
-41 62 -12 30 -27 44 -73 67 -32 16 -69 43 -83 60 -15 17 -63 50 -108 74 l-82
44 -38 -24 c-38 -24 -38 -24 -49 -3 -6 11 -8 33 -5 50 7 30 0 35 -25 19z"/>
<path d="M5536 5451 c-19 -21 -19 -22 4 -46 13 -14 28 -25 34 -25 6 0 28 -11
48 -25 43 -29 63 -31 76 -9 12 22 4 56 -21 88 -31 38 -113 48 -141 17z"/>
<path d="M3732 5277 l-22 -23 25 -24 c14 -13 25 -33 25 -44 0 -12 17 -41 38
-65 38 -44 39 -44 62 -28 26 18 65 23 74 8 18 -29 136 -16 136 15 0 8 -18 33
-40 55 -33 34 -49 42 -87 47 -31 3 -67 18 -107 44 -32 21 -64 38 -71 38 -6 0
-21 -10 -33 -23z"/>
<path d="M3712 5073 c20 -45 70 -133 78 -138 5 -3 7 -25 3 -52 l-6 -46 32 19
c40 23 47 36 56 95 7 45 6 46 -22 52 -17 3 -49 22 -72 41 -38 32 -78 48 -69
29z"/>
<path d="M5182 5058 c-5 -7 -13 -34 -17 -59 -7 -46 -6 -47 45 -95 l52 -48 -7
-147 c-5 -103 -4 -173 6 -234 l13 -88 -32 -26 c-47 -39 -54 -69 -40 -167 9
-66 9 -97 0 -141 -6 -31 -10 -58 -8 -61 3 -2 18 -1 35 3 24 5 29 11 28 32 -2
21 10 36 56 74 64 52 125 77 267 108 124 28 185 66 201 124 15 60 95 138 175
172 43 18 64 33 64 44 0 69 24 240 37 259 8 13 12 26 8 30 -11 11 -99 -19
-145 -49 l-45 -30 -3 25 c-2 17 -17 35 -40 51 -43 30 -59 31 -85 8 -14 -13
-36 -18 -82 -18 -55 0 -68 4 -92 26 -32 30 -157 102 -253 146 -36 17 -74 40
-84 51 -22 25 -39 28 -54 10z"/>
<path d="M6915 4911 c-16 -52 41 -119 91 -107 22 6 25 11 22 44 -2 29 -10 41
-37 59 -41 28 -68 29 -76 4z"/>
<path d="M6843 4803 c3 -10 10 -40 17 -68 7 -27 21 -71 32 -97 15 -33 19 -56
14 -82 -7 -37 18 -151 36 -162 5 -3 22 -9 38 -14 29 -8 31 -7 56 41 l25 50 45
-33 c59 -42 58 -40 86 -139 l25 -86 -24 -27 c-27 -32 -28 -48 -8 -106 8 -23
15 -75 15 -114 0 -90 17 -120 64 -113 25 4 36 -1 57 -26 15 -18 30 -27 37 -23
19 11 14 78 -8 111 -25 38 -25 46 1 79 l21 27 25 -35 c28 -42 60 -47 110 -16
l33 20 -22 52 c-11 29 -29 81 -39 116 -13 47 -30 77 -68 119 -54 61 -56 67
-66 203 -8 116 -31 209 -60 245 -22 28 -24 29 -37 12 -8 -10 -45 -27 -83 -38
-111 -31 -155 -23 -155 26 0 31 -19 46 -43 34 -16 -9 -24 -5 -49 25 -20 24
-38 36 -55 36 -19 0 -24 -4 -20 -17z"/>
<path d="M3648 4712 c-51 -31 -32 -45 46 -36 50 6 56 9 56 30 0 21 -5 24 -37
24 -21 0 -50 -8 -65 -18z"/>
<path d="M3430 4645 c0 -18 -5 -25 -20 -25 -23 0 -38 -58 -22 -85 11 -20 -5
-75 -25 -88 -24 -15 -13 -56 33 -122 38 -54 45 -71 39 -93 l-7 -27 -21 26
c-12 14 -30 29 -39 32 -9 3 -22 24 -29 46 -11 37 -26 50 -41 36 -5 -6 20 -99
46 -170 l14 -40 -47 -50 c-25 -27 -56 -63 -69 -79 -18 -23 -25 -26 -36 -17
-25 21 -91 -32 -120 -95 -17 -38 -36 -61 -61 -75 -22 -14 -34 -27 -31 -35 3
-8 8 -20 11 -26 3 -7 1 -20 -5 -28 -7 -12 -12 -12 -22 -2 -22 22 -35 13 -77
-52 -25 -38 -97 -116 -177 -192 -89 -83 -143 -143 -159 -174 -13 -25 -31 -52
-39 -59 -9 -8 -16 -24 -16 -37 0 -23 -3 -24 -63 -24 -56 0 -67 -3 -88 -26 -13
-14 -34 -30 -46 -35 -12 -4 -31 -25 -41 -45 -12 -22 -31 -41 -49 -48 -30 -11
-249 -240 -296 -311 -17 -24 -27 -53 -27 -75 0 -19 -9 -50 -20 -68 -21 -33
-26 -62 -12 -62 4 0 28 20 52 45 40 40 49 45 90 45 55 0 91 31 113 95 13 37
23 45 136 107 148 81 175 103 223 182 48 78 60 86 126 86 52 0 55 2 112 58 32
32 69 66 82 74 14 9 41 47 61 85 21 41 47 75 64 85 28 16 29 19 25 80 -4 55
-3 61 10 50 14 -11 17 -5 23 43 6 54 8 56 67 97 38 25 86 47 127 57 l66 17 45
86 c66 127 86 144 171 150 75 6 94 17 124 71 17 33 17 33 -14 84 -21 34 -31
63 -31 89 0 25 -9 52 -25 76 -27 40 -31 75 -13 124 8 23 8 43 0 75 -9 35 -8
48 5 69 15 26 14 30 -12 74 -31 52 -65 64 -65 21z"/>
<path d="M6634 4653 c-4 -10 -17 -43 -31 -73 -15 -33 -27 -83 -30 -125 -4 -59
-13 -85 -55 -165 -28 -52 -73 -151 -102 -220 -28 -69 -87 -183 -130 -255 -100
-164 -121 -251 -100 -409 l7 -47 38 37 c31 30 39 45 39 74 0 26 11 53 40 93
27 39 51 94 76 174 47 150 96 219 181 254 38 15 64 34 83 60 l27 38 -14 88
c-12 76 -12 95 2 155 8 37 15 104 15 150 1 46 5 103 10 128 4 25 8 45 7 46 -1
1 -14 4 -30 8 -21 5 -29 2 -33 -11z"/>
<path d="M6075 4399 c-28 -10 -67 -18 -87 -19 -27 0 -44 -7 -63 -27 -24 -25
-26 -34 -21 -82 5 -52 4 -54 -40 -101 -24 -26 -44 -56 -44 -66 0 -11 9 -50 20
-88 10 -38 22 -95 26 -126 6 -51 3 -63 -15 -89 -14 -20 -31 -31 -46 -31 -16 0
-30 -10 -41 -29 -15 -26 -26 -30 -91 -40 -41 -6 -85 -11 -98 -11 -19 0 -26 -7
-34 -37 -6 -21 -11 -61 -11 -89 0 -50 2 -53 91 -155 65 -75 98 -105 117 -107
56 -7 106 -57 163 -161 24 -45 42 -67 56 -69 64 -9 173 56 173 104 0 13 9 38
20 56 37 60 20 110 -62 186 l-43 41 18 49 c10 31 17 79 17 128 0 86 10 114 74
218 27 45 36 71 36 103 0 45 18 90 43 112 9 6 33 58 55 114 76 194 67 222 -78
229 -65 3 -98 0 -135 -13z"/>
<path d="M5651 4178 c-60 -73 -68 -96 -49 -135 12 -24 19 -28 48 -25 36 2 70
32 70 60 0 9 10 36 21 60 17 34 20 51 13 71 -17 47 -46 38 -103 -31z"/>
<path d="M7782 4077 c-36 -17 -60 -74 -63 -153 -3 -55 0 -75 13 -87 8 -9 19
-38 23 -64 8 -58 29 -93 54 -93 26 0 31 19 31 114 0 70 -3 86 -20 101 -23 21
-26 62 -5 89 15 20 20 63 9 90 -7 18 -11 19 -42 3z"/>
<path d="M6795 3866 c-11 -7 -36 -18 -56 -25 -32 -10 -37 -17 -43 -50 -8 -54
-34 -81 -112 -121 -38 -19 -71 -36 -73 -37 -2 -2 4 -23 14 -48 18 -49 15 -59
-30 -97 l-20 -18 22 0 c12 0 34 5 50 11 15 6 99 11 185 12 l157 2 48 46 c33
33 60 49 86 53 35 7 38 10 31 29 -4 12 -9 50 -10 85 -2 78 -15 95 -64 87 -35
-6 -38 -4 -50 26 -21 49 -94 74 -135 45z"/>
<path d="M7470 3845 c0 -34 26 -72 62 -91 38 -20 44 -13 30 34 -13 42 -34 66
-69 76 -20 6 -23 4 -23 -19z"/>
<path d="M8083 3783 c-38 -36 -63 -71 -63 -90 0 -14 108 -83 133 -86 18 -2 23
4 25 31 2 24 -1 32 -12 32 -20 0 -20 4 -1 40 14 27 14 33 1 58 -28 54 -39 56
-83 15z"/>
<path d="M7642 3654 c-22 -15 -23 -21 -16 -82 4 -41 19 -93 41 -140 43 -94 73
-203 73 -263 0 -35 -5 -51 -23 -67 -43 -40 -134 -23 -170 31 -11 17 -28 26
-51 29 l-36 4 0 -42 c0 -72 -12 -134 -26 -134 -30 0 -63 24 -83 61 -19 34 -27
39 -58 39 -49 0 -113 -20 -113 -36 0 -7 5 -25 12 -39 9 -19 8 -34 -2 -66 -12
-35 -12 -50 1 -99 18 -69 9 -95 -33 -104 -64 -13 -104 -7 -128 19 -29 31 -70
32 -98 3 -11 -13 -35 -54 -52 -93 -30 -66 -31 -72 -16 -102 l15 -31 -87 -12
c-135 -18 -141 -19 -148 -43 -3 -15 -24 -30 -61 -46 -31 -14 -70 -40 -86 -58
-17 -18 -34 -33 -39 -33 -19 0 -5 30 28 60 32 28 39 42 58 128 l23 97 -21 62
c-21 67 -42 84 -101 82 -40 -1 -101 14 -155 39 -51 24 -60 21 -61 -16 0 -20
-12 -36 -49 -64 -44 -34 -56 -38 -107 -38 -65 0 -123 -27 -123 -57 -1 -10 -7
-36 -15 -57 -10 -29 -11 -45 -3 -60 17 -31 -26 -61 -109 -76 -37 -7 -130 -37
-205 -67 -75 -29 -150 -56 -167 -59 -21 -5 -42 -22 -70 -59 l-39 -52 20 -83
c23 -89 24 -84 -28 -115 -12 -8 -18 -28 -22 -70 -3 -33 -11 -69 -18 -80 -8
-11 -14 -27 -14 -36 0 -9 -14 -22 -31 -29 -41 -17 -53 -52 -39 -110 19 -75 44
-97 127 -110 40 -6 77 -9 82 -6 5 3 12 22 16 43 4 20 15 54 26 75 10 20 19 53
19 71 0 19 7 40 15 47 8 7 22 37 31 66 12 44 23 60 60 86 35 25 44 37 44 61 0
21 -6 30 -21 34 -20 6 -20 6 2 29 12 13 28 24 34 24 6 0 22 11 34 24 25 26 94
40 123 25 14 -8 18 -22 18 -68 0 -54 3 -62 30 -85 26 -22 34 -24 56 -14 18 9
27 9 36 0 8 -8 19 -5 40 13 16 14 34 25 39 25 5 0 9 13 9 28 0 27 34 72 45 60
3 -2 8 -18 11 -35 5 -26 2 -32 -16 -38 -20 -6 -20 -8 -5 -25 13 -15 27 -17 68
-13 l52 4 18 -40 c10 -22 32 -50 48 -62 29 -20 31 -20 50 -4 26 25 25 30 -21
82 l-40 46 35 38 c19 22 35 41 35 44 0 3 -7 22 -15 42 -27 64 -25 66 68 58 68
-6 88 -12 117 -35 41 -33 122 -71 204 -96 53 -16 63 -25 105 -81 37 -51 51
-62 75 -63 26 0 28 -2 21 -27 -3 -16 -38 -70 -77 -121 -38 -52 -76 -109 -84
-127 -7 -19 -18 -36 -24 -40 -6 -4 -17 -23 -26 -43 l-15 -37 38 -32 39 -32
-10 -75 -9 -75 41 -68 c22 -37 69 -95 104 -129 61 -59 70 -64 281 -147 260
-103 297 -109 353 -53 23 23 34 43 34 63 0 38 40 64 65 43 30 -25 36 -47 20
-77 -8 -15 -15 -32 -15 -36 0 -5 -10 -17 -22 -26 -27 -23 -20 -52 26 -113 20
-26 36 -59 38 -79 5 -55 32 -50 105 23 44 44 67 75 74 103 6 22 28 58 49 81
25 27 41 57 50 93 13 55 11 72 -22 223 l-21 98 -62 39 c-67 41 -108 89 -119
135 -12 50 80 205 122 206 28 0 62 48 62 87 0 34 7 46 55 93 l55 54 0 -41 c0
-36 5 -45 45 -77 25 -21 45 -45 45 -54 0 -9 9 -49 21 -88 17 -56 27 -74 50
-88 28 -17 29 -20 29 -95 0 -94 21 -163 66 -213 30 -34 33 -35 38 -15 3 12 6
79 6 148 0 99 -3 129 -15 139 -16 13 -31 77 -21 87 3 4 22 -12 42 -35 50 -59
71 -55 64 13 -1 11 -6 24 -11 29 -15 17 -10 26 15 26 36 0 71 34 91 87 10 26
35 74 57 105 47 70 51 121 13 166 -22 26 -25 39 -25 109 l0 80 -39 18 c-22 9
-54 32 -71 50 l-32 33 21 64 c12 35 25 91 28 126 l6 62 -37 0 c-45 0 -56 21
-32 60 20 36 20 55 -1 92 -24 40 -78 71 -133 78 -51 6 -68 33 -28 46 13 4 44
28 69 54 25 26 52 49 59 52 10 3 -4 35 -50 114 -54 92 -65 118 -68 167 -4 54
-6 57 -31 57 -14 1 -38 6 -53 13 -33 15 -78 79 -78 112 0 19 -13 31 -63 60
-35 19 -69 35 -75 35 -5 0 -55 34 -110 75 -55 41 -104 75 -109 75 -5 0 -19 -7
-31 -16z"/>
<path d="M7143 3248 c-6 -7 -14 -29 -18 -49 -6 -31 -3 -39 16 -53 48 -33 89
-12 89 46 0 13 -6 32 -12 41 -18 22 -62 31 -75 15z"/>
<path d="M6347 3205 c-27 -33 -28 -35 -11 -60 13 -19 25 -25 54 -25 21 0 47 8
59 18 l22 17 -42 43 c-23 23 -44 42 -48 41 -3 0 -19 -16 -34 -34z"/>
<path d="M1940 2469 c-9 -16 -9 -24 -1 -32 12 -12 31 6 31 30 0 22 -19 24 -30
2z"/>
<path d="M1724 2310 c-49 -19 -32 -101 23 -115 30 -7 26 -10 40 38 20 67 -7
100 -63 77z"/>
<path d="M5247 1440 c-26 -16 -60 -30 -76 -30 -15 0 -35 -8 -44 -18 -16 -17
-14 -20 29 -56 l45 -38 -47 -50 c-41 -44 -45 -52 -32 -65 14 -13 29 -8 136 44
83 40 125 66 136 85 12 19 31 31 62 39 63 16 56 35 -18 48 -50 9 -67 16 -86
41 -29 38 -46 38 -105 0z"/>
<path d="M4546 953 c-34 -25 -37 -31 -32 -62 6 -42 6 -41 57 -52 32 -8 53 -6
91 7 35 11 65 14 100 10 28 -4 64 -2 82 4 28 9 32 14 28 39 -4 32 -11 35 -105
47 -35 4 -61 12 -64 20 -3 10 -23 14 -62 14 -45 0 -64 -5 -95 -27z"/>
<path d="M3893 414 c-65 -32 -163 -117 -163 -142 0 -18 142 26 169 52 20 20
38 26 69 26 49 0 59 14 45 63 -12 43 -33 43 -120 1z"/>
<path d="M3493 83 c0 -38 5 -71 11 -75 23 -16 34 -6 40 38 4 34 2 53 -11 75
-28 48 -41 36 -40 -38z"/>
</g>
</svg>
