<?xml version="1.0" standalone="no"?>
<!DOCTYPE svg PUBLIC "-//W3C//DTD SVG 20010904//EN"
 "http://www.w3.org/TR/2001/REC-SVG-20010904/DTD/svg10.dtd">
<svg version="1.0" xmlns="http://www.w3.org/2000/svg"
 width="1024.000000pt" height="1024.000000pt" viewBox="0 0 1024.000000 1024.000000"
 preserveAspectRatio="xMidYMid meet">
<metadata>
Created by potrace 1.10, written by Peter Selinger 2001-2011
</metadata>
<g transform="translate(0.000000,1024.000000) scale(0.100000,-0.100000)"
fill="#000000" stroke="none">
<path d="M3560 10210 c-36 -32 -76 -38 -112 -19 -19 10 -29 2 -99 -72 -71 -76
-81 -83 -99 -72 -17 11 -21 10 -34 -15 -23 -45 -41 -56 -61 -36 -15 15 -18 15
-44 -10 l-29 -27 -22 36 c-24 38 -35 37 -69 -8 -7 -11 -42 -32 -76 -47 -35
-16 -86 -44 -115 -64 -29 -20 -61 -36 -72 -36 -10 0 -54 -18 -97 -40 -61 -33
-93 -43 -157 -49 -65 -7 -107 -21 -243 -80 -153 -66 -169 -71 -236 -71 -39 0
-94 -7 -121 -15 -98 -30 -117 -24 -203 60 -43 41 -83 75 -90 75 -6 0 -38 -21
-70 -47 -47 -39 -60 -57 -70 -94 -21 -78 -54 -98 -131 -78 -13 4 -15 -71 -18
-622 l-2 -627 -22 -6 c-18 -4 -20 -8 -10 -18 6 -6 12 -21 12 -33 0 -31 -71
-146 -104 -166 -25 -15 -32 -15 -60 -4 -18 8 -37 11 -43 7 -6 -4 -32 -35 -57
-69 -44 -60 -67 -75 -81 -53 -14 23 -56 10 -76 -24 -19 -33 -61 -56 -152 -86
-27 -8 -52 -30 -91 -78 -61 -77 -79 -108 -94 -173 -6 -25 -25 -75 -42 -112
-26 -54 -40 -72 -81 -98 -28 -18 -57 -42 -64 -53 -18 -27 -28 -174 -18 -256
l8 -65 78 3 c120 6 124 3 210 -162 41 -77 77 -155 81 -172 8 -36 -11 -91 -39
-114 -9 -8 -27 -37 -40 -66 -13 -28 -44 -77 -70 -109 -25 -32 -44 -62 -42 -69
32 -88 39 -120 28 -142 -16 -37 -14 -68 11 -118 30 -62 16 -109 -47 -161 -25
-20 -45 -43 -45 -51 0 -9 11 -30 25 -48 26 -34 49 -120 59 -223 6 -51 3 -69
-14 -102 l-20 -40 21 -20 22 -20 -41 -114 c-61 -165 -61 -173 -22 -194 148
-81 221 -147 258 -234 11 -25 37 -58 61 -77 23 -18 41 -42 41 -52 0 -23 -8
-21 152 -20 179 2 235 -29 277 -152 24 -72 85 -113 266 -179 99 -36 160 -65
209 -100 75 -53 136 -128 136 -168 0 -14 14 -48 30 -76 17 -29 30 -64 30 -85
0 -67 64 -134 210 -221 41 -24 101 -75 152 -128 93 -97 133 -122 220 -141 106
-21 234 -130 319 -270 19 -30 55 -86 82 -125 41 -60 47 -75 42 -103 -5 -27 -2
-36 16 -51 l23 -18 -19 -94 -18 -95 27 -119 c29 -134 31 -154 15 -189 -9 -20
-7 -36 16 -94 26 -66 26 -70 11 -100 -16 -31 -15 -34 15 -94 30 -59 31 -65 20
-112 -6 -27 -10 -50 -9 -51 2 -1 25 -10 52 -20 58 -21 141 -98 152 -139 11
-45 -11 -110 -80 -236 -91 -166 -89 -157 -65 -329 29 -207 44 -272 83 -354 28
-59 36 -89 41 -162 8 -118 17 -134 89 -163 32 -12 73 -34 91 -48 57 -43 146
-72 254 -83 110 -12 148 -26 194 -75 34 -36 90 -150 107 -218 l12 -46 196 -6
c109 -3 1144 -9 2301 -12 l2104 -6 -8 123 c-12 203 -12 209 18 274 17 36 31
86 34 125 4 42 12 70 22 78 14 11 14 13 -4 24 -34 20 -77 71 -96 113 -10 23
-23 91 -29 155 -12 119 -24 159 -61 212 -24 33 -24 31 14 119 16 35 15 38 -14
99 -28 60 -29 66 -18 111 11 42 10 57 -9 122 -27 92 -27 110 -2 233 29 143 46
190 101 276 54 85 68 132 69 228 0 58 6 78 72 219 60 131 72 167 79 230 7 72
6 78 -19 115 -26 38 -27 44 -27 175 l0 136 57 165 c31 91 58 185 61 209 6 52
30 78 132 148 75 52 115 106 115 158 0 17 -11 66 -25 110 -27 87 -31 148 -14
210 6 22 28 124 49 228 40 199 71 283 142 382 50 70 93 160 108 225 6 30 39
110 72 178 57 116 62 124 108 147 55 28 65 44 43 76 -16 21 -15 24 20 53 36
30 47 59 27 71 -5 3 -10 21 -10 39 0 32 13 56 74 131 18 22 30 51 33 79 5 44
5 44 37 35 41 -12 42 -12 22 10 -24 26 -11 45 25 37 27 -5 29 -3 29 24 0 19
-7 33 -20 40 -15 8 -20 21 -20 50 0 44 19 54 42 21 11 -16 13 -7 13 63 0 63 4
89 18 110 l19 28 29 -28 c16 -15 30 -24 30 -18 1 5 2 34 4 64 1 30 4 63 6 74
7 31 -26 44 -62 23 -23 -13 -35 -15 -44 -7 -16 13 -20 7 -29 -42 -6 -32 -11
-38 -31 -38 -19 0 -26 -7 -34 -37 -6 -21 -11 -55 -11 -75 0 -36 -2 -38 -31
-38 -27 0 -32 -5 -51 -50 -11 -27 -24 -50 -28 -50 -3 0 -17 11 -30 25 -31 33
-50 32 -50 -4 0 -16 -11 -53 -24 -82 -13 -30 -32 -80 -41 -111 -17 -52 -21
-57 -41 -52 -21 5 -28 -5 -82 -118 -87 -180 -89 -187 -69 -240 9 -24 17 -60
17 -79 0 -26 8 -43 30 -64 37 -36 38 -48 3 -34 -40 15 -69 45 -104 107 -29 52
-31 53 -52 38 -12 -9 -44 -28 -71 -42 -27 -14 -61 -40 -77 -57 -24 -26 -29
-28 -35 -14 -3 9 -3 24 0 33 11 30 -87 -51 -141 -116 -65 -79 -103 -152 -103
-200 0 -37 -39 -109 -77 -142 -11 -10 -46 -27 -78 -38 -76 -26 -110 -59 -147
-140 -33 -73 -49 -90 -91 -90 -37 0 -63 14 -109 58 -42 40 -44 48 -25 71 24
28 70 202 64 242 -4 32 2 50 39 111 23 40 57 100 74 133 16 33 57 94 90 135
57 71 73 111 50 125 -16 10 -11 58 9 91 25 41 77 60 209 78 57 8 106 17 109
19 3 3 11 47 19 98 10 67 19 98 35 115 l21 23 -43 11 c-46 13 -69 34 -155 143
-55 70 -65 100 -39 114 8 5 19 38 26 83 12 82 30 124 78 184 39 49 39 79 0
119 l-31 31 -50 -53 -50 -54 -82 6 c-44 3 -93 10 -109 16 l-27 11 31 61 c26
52 29 66 20 86 -19 41 -13 56 45 114 l56 56 -26 82 c-14 45 -26 87 -26 93 0 6
13 8 29 6 28 -4 30 -2 36 34 6 31 2 47 -22 86 -43 73 -44 74 -10 109 27 29 29
35 19 57 -6 14 -29 37 -52 52 -22 15 -40 32 -40 39 0 26 -40 47 -99 52 -55 5
-62 9 -91 44 -34 43 -54 47 -98 22 -28 -16 -32 -16 -72 2 -98 44 -112 77 -55
135 l35 36 -20 70 c-27 89 -70 131 -169 165 -59 19 -74 21 -89 11 -36 -26 -47
-25 -103 6 -63 35 -80 38 -109 20 -17 -11 -24 -8 -50 17 -20 19 -40 29 -54 27
-14 -2 -36 7 -54 22 -31 27 -57 33 -67 16 -10 -16 -47 -12 -68 8 -19 16 -20
16 -31 -2 -20 -34 -58 -76 -68 -76 -6 0 -24 15 -42 34 -25 27 -41 34 -80 39
-30 3 -52 11 -58 21 -11 19 -31 20 -57 4 -28 -17 -143 41 -334 169 l-157 106
-188 54 c-103 29 -362 101 -577 159 -214 57 -513 139 -662 181 l-273 77 0 29
c0 70 -121 310 -185 366 -36 32 -90 42 -97 19 -8 -22 -36 0 -43 34 -11 48 -13
50 -47 32 -39 -20 -73 -11 -95 26 -10 18 -26 30 -38 30 -11 0 -38 12 -60 27
-33 23 -51 28 -106 28 -77 0 -100 13 -224 124 -43 39 -83 71 -88 71 -5 0 -27
-16 -48 -35 -21 -19 -62 -46 -91 -61 -29 -15 -84 -46 -121 -70 -37 -24 -71
-44 -75 -44 -12 0 -62 54 -62 67 0 6 7 16 15 23 8 7 22 36 30 64 19 62 19 63
73 105 23 18 42 40 42 49 0 10 -11 35 -25 57 -27 45 -33 85 -11 85 8 0 17 12
20 28 4 16 21 37 42 51 41 28 55 53 79 135 10 33 28 69 40 80 l23 22 -38 40
c-21 23 -49 44 -62 47 -14 4 -30 18 -36 32 -15 32 -29 31 -72 -5z"/>
</g>
</svg>
