<?xml version="1.0" standalone="no"?>
<!DOCTYPE svg PUBLIC "-//W3C//DTD SVG 20010904//EN"
 "http://www.w3.org/TR/2001/REC-SVG-20010904/DTD/svg10.dtd">
<svg version="1.0" xmlns="http://www.w3.org/2000/svg"
 width="1024.000000pt" height="1024.000000pt" viewBox="0 0 1024.000000 1024.000000"
 preserveAspectRatio="xMidYMid meet">
<metadata>
Created by potrace 1.10, written by Peter Selinger 2001-2011
</metadata>
<g transform="translate(0.000000,1024.000000) scale(0.100000,-0.100000)"
fill="#000000" stroke="none">
<path d="M9120 9604 c-944 -38 -3554 -93 -3950 -84 -129 3 -236 5 -238 4 -2
-1 -18 -60 -35 -131 -31 -124 -35 -134 -113 -253 -45 -69 -99 -159 -119 -200
-33 -65 -38 -85 -40 -153 -1 -68 -6 -87 -42 -160 -31 -61 -43 -99 -48 -151 -5
-53 -14 -80 -40 -120 -43 -67 -177 -188 -290 -261 -49 -32 -120 -79 -158 -104
-141 -96 -156 -102 -225 -98 l-63 5 -31 -47 c-17 -25 -54 -70 -82 -98 -46 -48
-55 -53 -96 -54 -25 -1 -56 -4 -70 -8 -49 -13 -100 -144 -100 -255 0 -48 -8
-77 -45 -161 -28 -61 -64 -122 -90 -152 -49 -56 -79 -125 -125 -293 -18 -63
-45 -135 -61 -160 -16 -26 -47 -94 -69 -153 l-40 -107 -9 -273 c-9 -271 -9
-272 -41 -362 -18 -49 -38 -101 -45 -115 -16 -30 -59 -71 -100 -94 -18 -11
-38 -37 -52 -67 -20 -45 -28 -52 -94 -84 -86 -41 -113 -65 -144 -125 -41 -81
-113 -168 -178 -217 -137 -102 -254 -204 -288 -250 -29 -39 -56 -58 -140 -101
-133 -69 -244 -172 -284 -266 -14 -34 -34 -78 -45 -98 -11 -20 -20 -47 -20
-60 0 -19 6 -14 36 27 20 28 49 77 66 110 17 33 57 86 91 119 56 55 61 57 74
40 7 -10 13 -42 13 -72 0 -61 -25 -105 -115 -203 -92 -100 -165 -213 -177
-275 -9 -46 -22 -68 -65 -118 -29 -33 -56 -72 -60 -86 -3 -14 -19 -41 -34 -61
-21 -27 -29 -48 -29 -78 0 -36 -6 -47 -40 -80 -46 -43 -50 -58 -17 -63 16 -2
24 -13 31 -40 11 -46 2 -67 -64 -137 -37 -41 -53 -51 -78 -51 -31 0 -32 -2
-32 -41 0 -28 -8 -51 -26 -75 -23 -30 -28 -51 -41 -170 -12 -115 -18 -142 -40
-175 -14 -21 -31 -39 -39 -39 -22 0 -44 -30 -44 -61 0 -34 -58 -161 -89 -197
-28 -32 -114 -56 -174 -48 -50 7 -97 -10 -97 -35 0 -6 -17 -32 -38 -58 -57
-67 -119 -181 -143 -256 -11 -36 -40 -95 -66 -131 -44 -63 -46 -68 -53 -162
-5 -53 -13 -110 -19 -127 -5 -16 -15 -64 -22 -105 -6 -41 -22 -104 -35 -139
-14 -36 -31 -110 -39 -166 -8 -56 -25 -153 -39 -216 -14 -63 -34 -163 -46
-224 -12 -60 -30 -139 -41 -175 -23 -75 -14 -120 26 -120 24 0 35 35 55 177
15 111 56 272 84 333 13 30 30 76 37 103 l11 47 219 0 c120 0 674 -18 1231
-39 981 -38 1052 -40 2236 -46 937 -5 1222 -3 1222 6 0 6 -18 239 -39 518 -22
278 -45 630 -51 781 l-12 275 -45 143 -45 142 38 103 c24 67 58 131 96 187
l59 85 257 174 257 173 135 20 c146 21 160 27 340 132 88 51 115 61 165 66
l60 5 -3 195 c-18 1473 -34 3152 -30 3155 3 3 378 12 834 19 696 12 3071 83
3083 92 3 3 -81 1842 -96 2082 l-6 102 -96 -1 c-53 -1 -467 -17 -921 -35z"/>
</g>
</svg>
