<?xml version="1.0" standalone="no"?>
<!DOCTYPE svg PUBLIC "-//W3C//DTD SVG 20010904//EN"
 "http://www.w3.org/TR/2001/REC-SVG-20010904/DTD/svg10.dtd">
<svg version="1.0" xmlns="http://www.w3.org/2000/svg"
 width="1024.000000pt" height="1024.000000pt" viewBox="0 0 1024.000000 1024.000000"
 preserveAspectRatio="xMidYMid meet">
<metadata>
Created by potrace 1.10, written by Peter Selinger 2001-2011
</metadata>
<g transform="translate(0.000000,1024.000000) scale(0.100000,-0.100000)"
fill="#000000" stroke="none">
<path d="M864 10218 c-44 -17 -56 -28 -80 -71 -15 -29 -44 -72 -64 -97 -20
-25 -44 -65 -53 -90 l-17 -45 139 -140 139 -140 32 -140 c18 -77 41 -171 51
-210 10 -38 19 -89 19 -113 0 -28 9 -58 24 -85 25 -42 69 -194 80 -275 4 -24
31 -98 61 -163 51 -110 55 -126 55 -193 0 -66 2 -74 24 -86 36 -19 66 -148 66
-281 0 -93 -2 -105 -25 -135 -18 -23 -25 -45 -25 -76 0 -52 -38 -177 -82 -274
-23 -50 -44 -79 -68 -95 -80 -55 -162 -143 -196 -211 -28 -56 -39 -68 -58 -68
-23 0 -25 -4 -31 -75 -4 -41 -4 -117 -1 -168 l7 -92 -71 -150 c-62 -128 -81
-158 -134 -211 -33 -34 -76 -88 -95 -120 -19 -32 -40 -68 -47 -80 -7 -11 -34
-29 -61 -39 -26 -10 -51 -21 -56 -24 -10 -10 57 -162 79 -178 9 -7 40 -20 68
-29 27 -9 77 -30 111 -45 l60 -29 34 -100 c19 -55 39 -104 46 -110 6 -5 39
-20 73 -33 56 -21 68 -31 130 -110 40 -51 75 -107 83 -134 14 -45 16 -46 77
-63 68 -19 107 -48 126 -94 10 -26 17 -30 58 -31 60 -3 78 -14 48 -30 -23 -12
-22 -13 18 -20 42 -7 58 -25 23 -25 -11 0 -22 -3 -25 -8 -4 -7 166 -132 173
-126 2 1 -6 15 -18 30 -17 21 -19 29 -9 36 25 15 41 8 94 -42 29 -27 57 -50
63 -50 5 0 24 -20 41 -45 17 -25 38 -45 46 -45 9 0 47 -19 85 -42 l68 -43 55
-117 c48 -104 54 -121 45 -150 -17 -59 -11 -107 15 -131 15 -14 26 -37 28 -57
3 -35 4 -35 103 -67 173 -56 229 -82 250 -114 19 -27 23 -29 65 -23 39 5 53 1
105 -28 106 -60 112 -67 150 -148 l37 -78 78 -37 c50 -23 87 -48 102 -68 23
-31 24 -35 12 -102 -6 -38 -11 -70 -10 -71 35 -19 171 -123 182 -139 9 -13 28
-27 44 -30 16 -4 40 -15 53 -25 19 -15 30 -17 63 -10 21 5 53 10 71 10 l32 0
-5 -52 c-5 -51 -4 -55 35 -96 22 -23 45 -42 52 -42 7 0 9 -9 6 -22 -5 -20 3
-28 59 -60 37 -21 69 -36 74 -33 4 2 18 29 30 59 l22 55 51 -20 c38 -15 68
-20 110 -17 54 4 57 3 57 -19 0 -16 13 -31 43 -49 23 -15 62 -44 87 -64 31
-26 58 -39 87 -43 56 -7 90 -25 232 -127 114 -81 120 -87 120 -121 1 -25 9
-43 29 -62 15 -15 31 -27 34 -27 3 0 0 35 -7 78 -17 106 -3 175 41 203 26 16
36 36 67 131 26 80 33 116 26 129 -15 28 -11 39 15 39 19 0 26 -8 36 -45 12
-41 11 -46 -8 -62 -13 -11 -28 -49 -41 -101 -12 -51 -30 -95 -45 -113 -15 -17
-28 -49 -32 -77 -4 -26 -13 -64 -20 -85 -11 -30 -11 -48 -2 -88 10 -43 21 -58
82 -113 50 -43 90 -69 134 -85 59 -22 62 -25 62 -56 0 -22 10 -45 27 -65 22
-27 31 -31 58 -26 24 5 36 1 49 -13 10 -11 35 -22 56 -26 30 -5 54 -23 121
-91 54 -53 92 -84 106 -84 26 0 83 -67 107 -124 13 -30 20 -37 36 -33 13 3 25
-2 33 -14 8 -10 29 -24 48 -30 50 -17 58 -26 65 -79 3 -26 9 -51 13 -56 17
-25 86 -65 176 -103 90 -39 107 -50 170 -116 57 -60 83 -80 142 -104 44 -19
89 -31 116 -31 40 0 46 -3 55 -28 8 -24 20 -31 93 -52 46 -13 111 -36 144 -51
60 -28 162 -53 267 -65 42 -5 61 -3 78 9 20 14 27 11 108 -35 48 -27 91 -54
96 -59 14 -12 -11 -87 -33 -98 -14 -8 -22 -4 -39 18 -17 24 -30 29 -84 35 -35
3 -85 15 -113 25 -27 10 -86 33 -130 49 -44 17 -127 43 -185 57 -154 39 -191
53 -227 88 -22 21 -33 26 -33 16 0 -31 56 -68 148 -98 52 -17 104 -31 115 -31
12 0 56 -19 97 -41 61 -34 100 -46 210 -68 l135 -27 26 -48 c23 -42 35 -52 85
-72 39 -16 73 -39 100 -68 81 -88 177 -107 325 -66 100 27 294 29 364 3 46
-17 52 -23 68 -68 17 -49 20 -51 90 -77 55 -21 77 -35 90 -58 11 -17 26 -30
38 -30 11 0 67 -44 129 -100 l108 -100 98 0 c75 0 101 4 115 16 16 14 20 14
43 -1 21 -14 31 -15 57 -6 36 12 33 14 119 -52 144 -111 220 -206 220 -274 0
-14 -10 -38 -22 -51 l-23 -24 40 -35 c22 -19 52 -44 67 -54 l27 -20 6 38 c11
63 11 63 64 63 41 0 52 -4 62 -21 10 -19 7 -25 -17 -45 l-29 -23 153 -1 152 0
0 23 c0 48 181 104 292 91 l55 -6 7 68 c5 54 13 75 32 95 l24 25 -40 33 c-22
18 -67 71 -99 119 l-58 87 -28 177 c-26 164 -30 179 -57 205 l-28 27 25 26 25
27 -15 69 c-34 146 -33 144 -78 163 -23 10 -50 28 -60 39 -17 19 -18 26 -6 96
7 42 16 76 19 76 3 0 14 6 23 13 16 11 11 28 -63 210 -53 131 -92 247 -117
345 -32 131 -44 160 -106 272 -39 69 -85 146 -103 171 -33 45 -33 45 -22 110
11 62 9 70 -41 259 -71 265 -123 402 -197 524 l-62 101 -72 -3 c-85 -3 -173
18 -252 60 -49 26 -65 43 -122 129 -37 56 -81 109 -101 121 -25 17 -36 32 -40
61 -5 28 -18 47 -51 74 -37 32 -44 43 -44 74 0 30 -6 41 -34 63 -19 14 -37 34
-41 44 -3 11 -30 36 -59 56 -30 21 -78 63 -108 94 -29 31 -82 82 -117 113 -56
50 -68 56 -92 49 -23 -7 -32 -2 -70 37 -67 68 -128 103 -179 103 l-43 0 7 64
6 63 -55 37 c-30 20 -82 69 -115 110 -52 63 -66 74 -100 80 -39 6 -40 7 -40
46 l0 40 -59 16 c-58 16 -59 17 -51 46 11 36 -14 84 -48 93 -16 4 -31 22 -47
58 -20 46 -22 63 -18 144 5 75 3 97 -11 118 -9 14 -24 25 -32 25 -9 0 -50 18
-90 41 l-74 41 -18 -22 c-33 -41 -72 4 -59 69 5 26 2 30 -36 47 -23 11 -55 30
-71 44 -22 18 -38 23 -68 21 l-39 -3 6 44 c6 43 5 44 -70 126 -80 86 -151 137
-178 126 -12 -4 -19 5 -27 38 -7 23 -20 52 -30 63 -10 11 -28 40 -40 64 l-22
45 -29 -35 c-16 -19 -29 -37 -29 -41 0 -3 -18 -9 -40 -13 -31 -5 -40 -11 -40
-26 0 -15 -5 -18 -24 -13 -13 3 -58 0 -100 -6 -76 -11 -115 -6 -170 22 -12 6
-22 6 -29 -1 -18 -18 -27 -13 -27 13 0 14 -5 37 -10 52 -9 23 -7 31 14 53 l26
27 -26 37 c-14 21 -24 46 -22 56 5 30 -21 51 -64 51 -30 0 -50 8 -81 34 -23
19 -76 55 -118 80 -53 32 -80 55 -89 76 -11 26 -18 30 -49 30 -27 0 -56 12
-105 45 -68 45 -99 54 -111 35 -12 -20 -23 -9 -29 29 -8 54 -40 73 -100 62
-52 -9 -56 -7 -56 28 0 22 -17 37 -100 91 -55 36 -104 64 -108 63 -4 -1 -15
-5 -24 -8 -14 -6 -18 -2 -18 19 0 41 -50 62 -114 46 -71 -16 -119 -3 -199 56
-56 41 -69 56 -78 92 -8 30 -23 52 -50 74 -28 23 -45 49 -65 100 -21 55 -32
72 -59 86 -19 9 -50 38 -70 64 -20 27 -80 81 -134 122 -54 41 -126 99 -161
130 -47 40 -73 56 -99 58 -34 3 -35 4 -60 83 l-26 79 -202 191 c-111 104 -215
208 -231 230 -67 95 -190 311 -252 445 -37 80 -87 175 -111 212 -24 37 -61 93
-81 126 -36 59 -38 60 -106 76 -59 15 -76 25 -116 65 l-47 48 -55 -15 -54 -15
-37 44 c-21 24 -73 81 -116 126 -67 69 -86 83 -127 93 -54 13 -191 106 -331
227 -96 82 -154 165 -144 206 7 26 6 26 -118 78 -38 16 -104 53 -148 84 -43
30 -82 55 -86 54 -4 0 -31 -9 -59 -21z"/>
</g>
</svg>
