<?xml version="1.0" standalone="no"?>
<!DOCTYPE svg PUBLIC "-//W3C//DTD SVG 20010904//EN"
 "http://www.w3.org/TR/2001/REC-SVG-20010904/DTD/svg10.dtd">
<svg version="1.0" xmlns="http://www.w3.org/2000/svg"
 width="1024.000000pt" height="1024.000000pt" viewBox="0 0 1024.000000 1024.000000"
 preserveAspectRatio="xMidYMid meet">
<metadata>
Created by potrace 1.10, written by Peter Selinger 2001-2011
</metadata>
<g transform="translate(0.000000,1024.000000) scale(0.100000,-0.100000)"
fill="#000000" stroke="none">
<path d="M1175 8395 c-66 -36 -131 -67 -145 -70 -18 -4 -35 -24 -59 -68 -19
-34 -49 -75 -66 -92 -42 -39 -54 -107 -29 -160 18 -39 45 -57 114 -74 79 -21
99 -32 136 -81 43 -57 81 -81 93 -61 7 11 14 10 35 -4 20 -14 46 -18 102 -17
50 1 85 -3 104 -13 16 -8 38 -15 49 -15 22 0 161 119 175 150 5 11 14 20 21
20 9 0 11 21 7 75 -4 72 -3 79 37 164 22 49 41 95 41 101 0 6 -10 35 -22 63
-24 59 -64 107 -88 107 -9 0 -33 9 -54 20 -37 18 -41 18 -67 3 -23 -14 -34
-15 -67 -5 -57 17 -71 15 -82 -13 -11 -30 -14 -30 -48 -6 -63 43 -59 44 -187
-24z"/>
<path d="M268 7978 c-9 -7 -23 -30 -33 -50 -14 -30 -30 -43 -79 -67 -80 -37
-129 -96 -146 -173 -7 -31 -10 -67 -7 -80 7 -26 58 -60 64 -43 2 6 23 46 46
89 l42 80 65 20 65 21 6 55 c8 63 16 88 37 112 31 36 -20 67 -60 36z"/>
<path d="M4239 7375 c-79 -29 -97 -44 -145 -125 -61 -103 -76 -110 -226 -110
-141 0 -157 -8 -105 -50 34 -29 37 -36 37 -83 1 -57 5 -67 68 -148 23 -31 42
-62 42 -69 0 -7 16 -27 36 -44 26 -23 42 -50 59 -101 23 -67 25 -70 57 -73 18
-1 74 6 123 16 78 16 90 22 93 41 3 18 -4 25 -37 38 -38 15 -59 39 -46 52 4 3
25 -5 48 -18 l41 -24 -17 26 c-18 28 -22 57 -8 57 5 0 11 -7 15 -15 5 -13 9
-13 25 -3 17 10 23 9 40 -6 27 -25 26 -42 -1 -57 -13 -7 -26 -16 -29 -22 -11
-16 3 -48 27 -64 23 -15 27 -14 65 12 30 21 43 25 51 17 9 -9 8 -18 -1 -38
-15 -34 -3 -44 55 -44 32 0 46 -6 67 -30 29 -32 35 -32 116 10 50 25 59 25 86
0 12 -11 28 -18 36 -15 15 6 84 94 78 98 -2 2 -22 15 -45 29 -35 23 -74 77
-74 105 0 4 -14 16 -30 25 -32 18 -39 52 -19 90 13 25 11 27 -24 21 -21 -4
-26 -10 -22 -24 21 -64 -41 -81 -79 -21 -13 20 -35 47 -49 59 -37 31 -46 87
-19 116 18 19 19 26 9 47 -7 14 -26 32 -42 40 -43 20 -119 135 -111 166 4 14
2 24 -4 24 -5 0 -10 6 -10 13 0 14 -74 97 -86 96 -5 0 -25 -6 -45 -14z"/>
<path d="M5658 6369 c4 -26 -2 -37 -39 -73 -37 -35 -77 -111 -65 -123 1 -2 72
-4 157 -5 104 -2 170 2 204 11 49 13 51 12 166 -33 63 -25 148 -51 187 -57 40
-7 72 -16 72 -20 0 -15 53 -9 97 11 64 29 154 93 197 141 l39 42 -29 24 c-24
19 -41 23 -102 23 -43 0 -88 -6 -109 -15 -66 -28 -175 0 -225 58 -27 30 -29
31 -41 14 -34 -52 -20 -50 -197 -27 -91 13 -185 31 -209 41 -24 11 -58 19 -76
19 -30 0 -31 -2 -27 -31z"/>
<path d="M6772 5976 c-27 -29 -46 -63 -57 -100 -15 -49 -15 -60 -1 -106 28
-93 109 -180 196 -209 19 -6 48 -23 64 -36 l30 -24 29 25 c34 29 70 31 95 6
27 -27 70 -247 54 -273 -7 -10 -12 -25 -12 -32 0 -13 82 -87 97 -87 5 0 25 9
44 19 l37 20 21 -25 c23 -27 62 -32 81 -10 6 8 18 12 26 9 9 -3 50 11 92 30
71 33 81 35 123 26 41 -9 50 -7 103 21 32 16 72 30 88 30 23 0 44 14 89 58 56
53 60 61 66 113 3 34 1 64 -6 78 -13 24 -183 111 -218 111 -13 0 -29 10 -39
25 -9 14 -23 25 -30 25 -8 0 -52 35 -98 78 -65 62 -93 81 -129 90 -71 18 -89
15 -229 -38 -72 -27 -139 -50 -149 -50 -18 0 -81 83 -142 184 -31 53 -87 85
-148 86 -30 0 -43 -7 -77 -44z"/>
<path d="M6073 5809 c-36 -10 -57 -40 -49 -67 3 -9 26 -30 51 -46 57 -36 68
-55 76 -139 4 -45 13 -78 26 -95 19 -24 27 -27 80 -26 108 1 223 79 223 151 0
33 -131 183 -178 205 -45 20 -185 31 -229 17z"/>
<path d="M6835 5109 c-103 -58 -112 -66 -126 -90 -7 -15 -4 -22 16 -35 24 -15
27 -15 43 0 14 12 21 13 30 4 8 -8 21 -9 45 -1 22 7 40 7 51 1 19 -11 96 -1
96 12 0 5 -9 12 -20 15 -23 7 -25 32 -5 59 8 11 15 27 15 36 0 18 -30 50 -46
50 -6 0 -50 -23 -99 -51z"/>
<path d="M8240 4452 c-29 -30 -30 -32 -30 -132 0 -114 2 -120 87 -243 70 -103
72 -137 11 -196 -24 -22 -46 -41 -50 -41 -7 0 -19 -19 -79 -128 -21 -39 -33
-49 -72 -62 -37 -12 -61 -31 -116 -92 -38 -42 -74 -93 -81 -113 -11 -33 -9
-41 17 -92 15 -31 46 -77 69 -102 51 -57 60 -74 69 -131 4 -25 16 -60 27 -78
16 -25 17 -36 8 -47 -14 -17 -4 -39 39 -79 23 -22 31 -39 31 -65 1 -51 17
-117 44 -181 l24 -55 -33 -215 c-28 -187 -31 -220 -20 -256 24 -82 91 -145
170 -160 22 -4 56 -20 75 -35 19 -15 61 -40 93 -55 41 -19 67 -39 84 -66 14
-21 29 -38 34 -38 11 0 123 132 156 183 14 23 32 62 40 87 17 58 79 147 114
166 15 8 39 14 52 14 13 0 50 21 85 49 33 27 77 54 96 61 20 6 45 25 56 41 29
39 103 89 144 96 20 3 55 -2 84 -11 48 -16 51 -16 123 10 41 14 91 39 112 56
21 17 79 47 128 68 89 38 147 81 321 233 63 55 88 95 88 138 0 13 -24 31 -82
60 -95 48 -125 69 -150 107 -9 15 -30 34 -45 43 -26 15 -28 20 -33 101 -3 47
-11 92 -18 100 -22 27 -79 29 -118 6 -34 -20 -35 -20 -55 -2 -21 19 -21 33 -8
236 2 20 -15 45 -67 103 -97 108 -222 205 -327 254 -48 22 -122 61 -163 87
-101 63 -249 114 -331 114 -45 0 -72 6 -98 21 -28 17 -38 19 -49 9 -12 -9 -15
-5 -18 22 -3 31 -9 36 -84 72 -46 23 -85 49 -90 60 -11 25 -143 94 -196 102
-32 6 -41 2 -68 -24z"/>
</g>
</svg>
