<?xml version="1.0" standalone="no"?>
<!DOCTYPE svg PUBLIC "-//W3C//DTD SVG 20010904//EN"
 "http://www.w3.org/TR/2001/REC-SVG-20010904/DTD/svg10.dtd">
<svg version="1.0" xmlns="http://www.w3.org/2000/svg"
 width="1024.000000pt" height="1024.000000pt" viewBox="0 0 1024.000000 1024.000000"
 preserveAspectRatio="xMidYMid meet">
<metadata>
Created by potrace 1.10, written by Peter Selinger 2001-2011
</metadata>
<g transform="translate(0.000000,1024.000000) scale(0.100000,-0.100000)"
fill="#000000" stroke="none">
<path d="M3498 10217 c-4 -23 3 -31 58 -67 35 -23 67 -46 71 -53 5 -7 27 -24
50 -39 50 -33 110 -93 130 -132 10 -19 13 -42 9 -67 -8 -50 16 -111 58 -142
17 -14 78 -48 134 -76 69 -35 106 -59 114 -76 6 -14 23 -27 39 -30 32 -7 42
-26 33 -70 -3 -20 3 -59 17 -105 19 -63 20 -78 9 -104 -6 -17 -16 -69 -21
-116 -5 -47 -11 -112 -15 -145 -8 -71 -25 -94 -107 -137 -75 -41 -107 -78
-107 -128 0 -20 -7 -54 -15 -73 -8 -20 -15 -62 -15 -94 0 -69 -5 -78 -46 -87
-19 -4 -52 -29 -88 -66 -67 -69 -84 -77 -125 -56 -39 21 -64 11 -146 -58 -80
-68 -117 -79 -239 -70 -92 6 -94 6 -154 -26 -56 -30 -65 -32 -102 -22 -44 11
-103 0 -117 -21 -4 -7 -8 -25 -9 -42 -1 -40 -21 -118 -46 -180 -37 -90 -35
-103 22 -172 33 -41 58 -63 72 -63 24 0 36 -13 83 -96 31 -55 35 -69 35 -135
0 -41 -6 -105 -14 -142 -12 -57 -22 -77 -63 -124 -142 -164 -152 -185 -117
-238 15 -23 15 -28 -4 -73 -11 -26 -23 -61 -26 -78 -13 -62 -79 -105 -207
-138 -147 -37 -229 -86 -229 -136 0 -9 14 -35 31 -59 31 -42 32 -43 20 -98
-10 -42 -10 -61 -1 -83 18 -44 9 -62 -50 -95 -82 -46 -88 -59 -135 -322 -24
-135 -25 -145 -11 -214 9 -41 39 -121 71 -187 30 -63 55 -120 55 -126 0 -6 -9
-22 -20 -36 -35 -45 -26 -69 46 -137 65 -61 67 -63 60 -100 -17 -85 -9 -98
146 -237 62 -56 104 -102 115 -127 13 -30 23 -39 41 -39 53 0 81 -28 111 -110
23 -63 50 -92 136 -143 62 -37 231 -173 290 -234 48 -49 65 -91 76 -189 5 -47
18 -103 29 -124 18 -36 18 -40 3 -78 -15 -40 -15 -45 16 -154 48 -169 82 -218
149 -218 31 0 58 26 114 109 15 22 39 47 53 57 24 16 28 15 108 -20 45 -20
103 -40 129 -45 30 -5 69 -24 110 -53 35 -25 80 -53 101 -63 44 -21 63 -52 53
-89 -3 -14 -38 -59 -76 -100 -39 -42 -70 -78 -70 -81 0 -4 9 -27 21 -52 31
-68 24 -148 -19 -205 -48 -64 -81 -132 -92 -189 -6 -30 -26 -73 -51 -110 -22
-33 -52 -86 -66 -116 -23 -50 -25 -64 -19 -131 7 -92 29 -138 79 -172 21 -14
55 -53 76 -86 47 -75 77 -99 142 -114 42 -10 53 -18 67 -46 8 -19 25 -37 36
-40 11 -4 44 -29 73 -56 51 -49 54 -50 98 -44 37 6 46 4 52 -10 6 -16 -19 -46
-50 -57 -9 -3 -5 -18 13 -53 30 -59 53 -65 109 -30 22 14 46 26 53 26 25 0
118 -61 140 -91 13 -17 42 -42 66 -56 47 -28 66 -55 57 -82 -9 -29 31 -68 96
-93 72 -27 122 -68 113 -92 -4 -9 -1 -37 6 -62 10 -36 10 -52 0 -84 -18 -55
-6 -120 35 -177 87 -122 95 -137 95 -178 0 -52 -17 -76 -84 -114 -41 -23 -57
-38 -65 -64 -18 -53 -7 -67 51 -67 l50 0 -6 -54 c-8 -64 3 -91 72 -176 42 -52
44 -57 38 -102 l-7 -47 61 -40 c58 -39 89 -49 103 -35 11 11 -12 43 -43 59
-36 19 -40 55 -10 85 33 33 55 25 79 -25 12 -25 35 -64 51 -87 17 -23 30 -49
30 -60 0 -19 21 -23 55 -8 19 7 19 8 2 15 -10 4 -25 21 -33 36 -22 44 -9 90
45 153 25 30 60 78 76 108 80 142 277 153 435 24 31 -25 75 -46 142 -67 76
-24 110 -41 159 -80 68 -54 101 -61 141 -29 52 40 71 120 48 202 -6 20 -33 62
-60 91 -52 57 -58 77 -38 124 7 15 24 61 38 102 17 51 34 81 52 94 l27 20 45
-24 45 -23 38 40 c35 37 45 42 113 53 113 17 216 51 241 77 28 30 21 58 -29
115 -50 57 -68 93 -74 151 -7 58 4 75 82 128 46 31 61 48 73 82 8 24 18 51 22
61 6 15 4 17 -19 11 -31 -8 -66 18 -66 48 0 18 5 19 42 13 l42 -7 -46 52 c-70
80 -71 118 -2 85 22 -10 40 -13 50 -7 13 7 10 11 -15 22 -29 12 -42 30 -22 30
6 0 22 15 36 34 23 30 25 39 17 68 -5 18 -5 43 -1 56 7 18 5 22 -11 22 -40 0
-35 47 6 55 13 3 35 7 48 10 27 5 60 76 54 113 -1 11 5 28 14 39 17 19 16 21
-17 53 -33 32 -35 37 -35 102 0 60 3 69 23 79 12 6 31 20 43 31 18 16 23 17
33 4 7 -8 10 -21 6 -28 -3 -7 0 -5 7 6 33 48 45 59 57 51 7 -4 11 -18 8 -31
-2 -13 -1 -24 3 -24 10 0 20 38 20 78 0 34 33 75 70 87 20 6 66 72 75 107 4
16 1 29 -9 37 -27 23 -19 49 16 56 17 4 50 17 72 29 41 22 41 22 26 49 -14 25
-13 30 12 75 19 32 32 46 44 44 14 -3 15 -1 7 10 -11 13 -3 91 11 106 4 4 33
21 64 37 51 27 59 35 76 84 16 44 17 57 7 74 -10 16 -10 21 0 27 9 6 7 15 -10
35 -12 16 -21 42 -21 62 0 20 -6 36 -15 39 -19 8 -29 42 -17 57 18 22 44 117
37 136 -3 11 -21 29 -40 40 -39 23 -52 57 -36 101 12 37 6 57 -21 65 -10 4
-24 17 -30 30 -6 13 -21 26 -33 29 -16 4 -23 13 -22 28 0 13 -3 31 -7 41 -6
13 5 29 47 68 31 28 61 66 67 84 10 29 8 35 -19 64 -25 27 -29 37 -24 69 9 61
25 85 63 95 19 5 37 10 38 12 2 2 8 1003 13 2225 9 2411 12 2246 -45 2299 -35
32 -68 123 -71 193 -1 32 -7 63 -13 71 -6 7 -21 58 -33 112 -36 169 -55 220
-92 248 -39 29 -135 228 -164 338 -17 66 -17 67 11 185 18 79 26 139 24 179
l-3 60 -665 6 c-366 4 -1275 10 -2021 14 l-1356 7 -5 -25z"/>
</g>
</svg>
