<?xml version="1.0" standalone="no"?>
<!DOCTYPE svg PUBLIC "-//W3C//DTD SVG 20010904//EN"
 "http://www.w3.org/TR/2001/REC-SVG-20010904/DTD/svg10.dtd">
<svg version="1.0" xmlns="http://www.w3.org/2000/svg"
 width="1024.000000pt" height="1024.000000pt" viewBox="0 0 1024.000000 1024.000000"
 preserveAspectRatio="xMidYMid meet">
<metadata>
Created by potrace 1.10, written by Peter Selinger 2001-2011
</metadata>
<g transform="translate(0.000000,1024.000000) scale(0.100000,-0.100000)"
fill="#000000" stroke="none">
<path d="M1501 10227 c-14 -6 -28 -24 -32 -39 -13 -48 -70 -138 -87 -138 -9 0
-33 -4 -52 -10 l-35 -10 0 -65 0 -65 50 -1 c28 -1 55 0 60 2 6 2 26 3 47 3 43
0 143 -61 153 -95 11 -33 -23 -99 -51 -99 -29 0 -64 -48 -64 -89 0 -23 4 -31
18 -31 22 0 48 27 54 55 4 24 48 32 88 15 38 -16 65 0 80 47 28 87 75 134 150
148 39 7 71 30 88 62 15 27 7 33 -45 33 -57 0 -99 22 -108 57 -11 46 -33 73
-60 73 -18 0 -28 8 -36 28 -20 50 -24 54 -71 72 -25 9 -60 27 -76 39 -35 24
-39 25 -71 8z"/>
<path d="M3604 9793 c-23 -32 -49 -73 -58 -90 -12 -23 -24 -33 -41 -33 -13 0
-32 -11 -43 -25 -23 -29 -63 -32 -102 -10 -41 24 -60 19 -60 -15 0 -16 7 -33
15 -37 13 -8 13 -14 3 -43 -7 -19 -24 -51 -38 -71 -21 -32 -31 -38 -73 -43
-68 -8 -95 -27 -108 -81 -8 -31 -18 -46 -33 -51 -51 -15 -56 -29 -56 -155 0
-110 -2 -120 -24 -146 -23 -27 -28 -28 -135 -31 -98 -4 -114 -2 -133 14 -28
26 -99 25 -127 0 -12 -11 -21 -22 -21 -25 0 -12 67 -51 89 -51 40 0 78 -28 95
-70 22 -56 21 -60 -26 -134 -33 -53 -44 -63 -55 -54 -24 19 -37 -7 -34 -66 3
-70 -12 -100 -45 -92 -16 4 -42 -3 -76 -21 -46 -23 -63 -26 -127 -24 -65 3
-79 7 -111 32 -33 27 -39 28 -69 18 -29 -10 -32 -15 -29 -41 4 -24 -1 -32 -29
-49 -18 -11 -33 -22 -33 -23 0 -2 9 -29 20 -61 24 -69 25 -108 5 -125 -8 -7
-15 -28 -15 -46 0 -27 -5 -37 -25 -46 -20 -9 -25 -18 -25 -48 0 -29 -5 -39
-25 -48 -13 -6 -38 -30 -55 -53 -36 -50 -55 -64 -101 -77 -29 -8 -34 -13 -32
-37 1 -16 8 -32 15 -37 20 -12 71 -9 93 6 32 21 140 28 181 11 23 -9 51 -12
80 -8 38 5 48 2 69 -17 23 -21 25 -31 25 -102 0 -84 -8 -109 -63 -186 -36 -50
-119 -100 -182 -109 -41 -5 -45 -8 -45 -33 0 -21 -7 -30 -31 -40 -40 -17 -69
-75 -69 -138 0 -41 4 -52 32 -78 43 -40 100 -74 126 -74 12 0 28 -13 41 -35
11 -20 27 -38 36 -41 8 -4 15 -14 15 -23 1 -37 15 -41 53 -14 20 14 37 33 37
42 0 31 30 61 61 61 19 0 29 -5 29 -15 0 -8 4 -15 9 -15 5 0 14 7 21 15 30 36
80 5 136 -85 31 -51 41 -60 66 -60 37 0 94 -43 102 -76 4 -14 22 -39 41 -56
25 -21 35 -38 35 -59 0 -33 25 -48 96 -56 36 -5 49 0 89 27 l48 33 54 -17 c70
-22 182 -95 208 -135 11 -17 23 -31 27 -31 3 0 27 9 52 20 36 15 51 30 73 69
25 45 32 51 60 51 31 0 32 -2 26 -30 -4 -20 -1 -36 9 -48 9 -9 23 -32 32 -50
16 -32 16 -32 -9 -44 -23 -10 -25 -17 -27 -77 -1 -36 -2 -79 -3 -94 -1 -37
-111 -124 -167 -133 -50 -8 -49 -23 6 -87 33 -39 45 -64 50 -99 4 -26 13 -51
19 -55 7 -5 44 -8 82 -9 39 0 100 -4 138 -9 77 -9 86 -23 39 -68 -24 -23 -37
-27 -83 -27 -47 0 -59 -4 -80 -26 -22 -24 -24 -34 -27 -158 -3 -123 -2 -133
17 -150 12 -11 21 -31 21 -47 0 -23 7 -31 43 -47 51 -23 87 -74 87 -123 0 -42
-8 -55 -51 -82 -37 -24 -34 -9 -38 -206 0 -30 -10 -59 -31 -92 -21 -35 -30
-62 -30 -93 l0 -43 53 -11 c28 -6 70 -14 92 -18 22 -3 48 -13 57 -21 14 -12
30 -14 72 -9 49 5 58 3 105 -27 46 -29 50 -35 46 -62 -9 -53 -35 -68 -127 -76
-46 -4 -103 -12 -127 -18 -38 -10 -50 -9 -77 5 -37 20 -64 13 -64 -16 0 -11
-13 -47 -29 -78 -24 -47 -38 -62 -71 -77 -34 -15 -47 -17 -71 -8 -26 10 -31 8
-54 -19 -42 -49 -32 -76 45 -120 52 -31 69 -47 87 -85 29 -60 61 -93 89 -93
13 0 33 -13 48 -31 25 -29 30 -31 89 -28 35 2 71 -2 84 -9 12 -7 27 -12 33
-12 6 0 29 -14 51 -32 33 -27 39 -37 39 -70 0 -28 11 -58 39 -104 22 -36 47
-87 57 -114 11 -30 26 -52 40 -59 13 -5 30 -22 40 -36 9 -14 25 -25 35 -25 13
0 24 -13 34 -38 15 -36 16 -37 60 -34 42 4 48 1 90 -42 24 -25 49 -55 55 -66
15 -28 52 -50 107 -64 l47 -12 28 -90 c24 -74 28 -100 22 -152 -5 -57 -4 -64
18 -82 13 -11 33 -19 46 -20 19 0 22 -5 22 -44 0 -39 7 -53 65 -124 57 -72 65
-87 71 -137 5 -42 13 -60 30 -74 22 -17 24 -27 24 -95 0 -63 -4 -82 -22 -106
-20 -28 -21 -31 -5 -43 13 -9 19 -32 23 -82 6 -70 6 -70 -29 -103 -47 -45
-170 -82 -297 -89 -89 -5 -100 -3 -177 26 -88 34 -113 59 -113 111 0 26 -6 33
-35 46 -19 7 -52 14 -73 14 -23 0 -45 6 -52 15 -7 8 -27 15 -45 15 -18 0 -38
7 -46 16 -7 9 -22 14 -36 11 -14 -2 -23 1 -23 8 0 26 -35 45 -72 38 -58 -9
-89 5 -145 65 -60 64 -79 111 -89 224 -6 69 -4 80 16 113 19 31 22 46 17 92
-5 45 -13 64 -46 103 -28 33 -41 58 -43 85 -3 35 -7 40 -36 47 -18 5 -115 6
-215 3 -100 -3 -247 -7 -327 -8 -121 -2 -151 -5 -180 -21 -44 -24 -50 -32 -50
-78 0 -39 1 -40 69 -53 19 -4 51 -19 71 -34 34 -24 38 -33 53 -106 9 -44 24
-105 32 -135 8 -30 15 -67 15 -83 0 -39 17 -67 40 -67 16 0 20 -7 20 -34 0
-26 7 -41 31 -60 17 -14 37 -26 44 -26 8 0 28 -14 45 -30 17 -17 35 -30 40
-30 18 0 10 -49 -10 -63 -21 -14 -42 -61 -33 -71 23 -22 129 6 199 54 52 34
83 37 165 14 58 -16 58 -17 74 -69 23 -80 20 -135 -10 -175 -21 -29 -25 -45
-25 -106 0 -124 -14 -165 -68 -207 -36 -27 -52 -48 -66 -87 -20 -55 -71 -100
-114 -100 -13 0 -50 -13 -81 -29 -31 -16 -69 -32 -84 -35 -15 -4 -32 -17 -38
-30 -12 -26 -39 -41 -92 -51 -59 -11 -103 -95 -58 -110 12 -3 37 3 60 15 22
11 51 20 64 20 31 0 106 -49 163 -106 41 -40 50 -45 78 -40 17 4 51 20 75 36
35 24 55 30 97 30 59 0 71 10 93 81 8 24 23 42 44 54 32 17 34 17 73 -3 60
-31 68 -44 60 -103 -4 -30 -2 -65 4 -85 8 -23 8 -39 2 -47 -5 -7 -15 -28 -21
-48 -6 -20 -24 -53 -39 -74 -28 -36 -28 -38 -16 -97 7 -33 20 -78 29 -101 l16
-41 -34 -66 c-50 -96 -54 -120 -22 -150 14 -13 39 -45 56 -72 34 -53 65 -64
73 -25 3 12 7 47 9 77 3 40 13 70 37 110 19 30 39 58 46 62 6 4 15 20 18 34 7
25 10 26 52 21 25 -2 68 -16 95 -31 29 -15 67 -26 89 -26 l38 0 7 -64 c4 -37
3 -71 -3 -82 -8 -14 -4 -34 14 -78 13 -33 24 -70 24 -83 0 -26 27 -32 36 -8 4
8 17 15 30 15 36 0 94 31 94 51 0 10 12 27 27 38 53 42 148 0 159 -71 4 -22
17 -52 30 -68 13 -15 24 -35 24 -44 0 -10 7 -30 15 -46 18 -34 55 -42 55 -11
0 27 25 33 46 10 10 -11 30 -19 48 -19 67 1 101 16 154 71 43 45 52 60 52 90
0 21 7 42 16 50 8 7 24 30 35 50 10 21 28 41 40 44 15 5 18 11 13 23 -4 10
-10 65 -12 124 l-4 106 79 45 c43 25 90 55 105 66 l27 21 51 -20 c61 -24 94
-59 115 -122 9 -25 23 -52 31 -58 7 -7 14 -25 14 -40 0 -15 11 -70 24 -121 13
-52 27 -113 31 -136 7 -42 8 -43 43 -43 64 0 82 9 82 41 0 15 -5 31 -11 34
-24 16 -28 53 -8 91 10 21 19 46 19 55 0 10 11 31 25 47 35 42 89 48 134 14
22 -16 52 -27 85 -30 28 -3 56 -11 61 -19 6 -7 26 -16 45 -19 33 -5 36 -3 55
38 15 32 27 44 45 46 17 2 30 14 40 35 12 25 22 33 48 35 26 3 32 7 32 27 0
43 40 111 76 128 36 18 54 54 33 68 -24 15 -192 10 -213 -6 -28 -21 -82 -19
-105 4 -10 10 -26 39 -36 65 l-18 46 -51 0 c-70 0 -190 55 -217 99 -10 17 -34
39 -53 48 -45 21 -71 77 -63 135 10 70 -17 116 -102 172 -70 47 -71 48 -71 91
0 24 -5 47 -11 51 -12 7 -5 60 13 99 8 18 24 27 64 35 53 11 70 9 193 -26 20
-6 22 -5 14 12 -6 10 -13 42 -17 69 -10 78 -34 139 -66 170 -40 39 -40 86 0
145 85 127 74 118 137 125 83 9 86 11 79 43 -16 70 -18 104 -6 132 20 49 52
59 145 50 92 -10 96 -11 190 -55 72 -34 198 -65 266 -65 78 0 34 53 -61 74
-14 3 -46 31 -75 65 -33 40 -58 60 -73 60 -32 1 -37 25 -18 86 18 57 13 83
-24 135 -24 33 -28 148 -7 168 6 7 17 39 22 70 l10 57 52 3 c40 2 55 8 66 26
8 12 35 28 58 35 95 28 159 63 167 91 4 15 19 41 34 58 23 28 33 32 76 32 l50
0 11 46 c7 26 11 48 9 49 -2 1 -13 8 -25 14 -14 7 -23 21 -23 36 0 22 8 42 53
135 10 20 21 26 55 28 l42 3 0 47 c0 87 -4 92 -73 92 -34 0 -80 -7 -102 -15
-36 -14 -44 -14 -78 0 l-37 15 0 66 c0 51 5 72 20 91 45 58 15 90 -88 96 -69
5 -76 7 -114 43 -22 22 -52 66 -68 100 -15 34 -38 68 -50 77 -21 15 -25 15
-49 -4 l-26 -21 -7 47 c-4 26 -15 57 -26 69 -42 46 -45 63 -17 103 32 48 32
58 -6 73 -40 17 -56 43 -64 106 -8 61 6 96 59 142 19 16 41 43 49 59 9 15 25
36 38 47 27 22 12 36 -42 36 -41 0 -59 15 -59 47 0 65 99 164 189 189 76 22
84 30 77 76 -5 28 -1 46 14 70 11 18 20 42 20 54 0 11 19 50 42 87 31 49 49
67 67 69 20 2 29 13 45 53 16 42 30 58 86 97 l67 46 7 97 c8 120 23 152 74
161 40 7 112 48 112 64 0 25 66 69 114 75 31 5 57 15 70 30 12 12 31 27 42 33
19 10 25 7 48 -23 19 -25 35 -35 55 -35 42 0 59 20 67 75 6 48 4 52 -36 98
-23 26 -58 54 -76 62 -20 8 -39 26 -46 42 -6 15 -18 36 -26 45 -19 22 -7 38
28 38 34 0 50 23 50 69 0 17 11 47 25 67 14 20 25 47 25 60 0 43 21 74 51 74
24 0 28 5 34 39 5 32 1 48 -23 92 -17 30 -35 79 -42 109 -13 64 -32 90 -86
118 -21 11 -85 64 -141 116 l-101 96 -55 0 c-38 0 -59 5 -68 16 -7 9 -35 28
-62 44 -38 22 -57 27 -88 23 -30 -4 -39 -2 -39 9 0 9 -7 21 -15 28 -22 18 -18
39 10 66 28 25 33 66 13 109 -14 30 -29 32 -53 5 -14 -16 -31 -20 -76 -20 -34
0 -63 5 -69 13 -5 6 -19 24 -31 39 -11 15 -32 36 -47 47 -27 19 -28 19 -82 0
-36 -13 -57 -16 -64 -9 -6 6 -39 10 -74 10 -66 0 -90 8 -123 41 -15 15 -33 19
-88 19 -49 0 -72 4 -81 15 -18 21 -67 19 -106 -6 -19 -11 -58 -23 -87 -26 -54
-5 -54 -5 -126 53 -40 33 -81 75 -91 95 -28 53 -69 99 -90 99 -12 0 -21 10
-25 30 l-7 30 -28 -30 c-15 -16 -33 -30 -39 -30 -20 0 -11 -36 14 -60 22 -20
25 -32 24 -77 -2 -49 -4 -53 -26 -53 -40 0 -62 -18 -92 -78 -62 -121 -155
-173 -213 -118 -24 23 -40 61 -50 121 -2 14 -18 25 -50 36 -26 8 -56 23 -67
33 -19 17 -19 17 -14 -3 5 -20 2 -21 -95 -21 -56 0 -112 5 -126 11 -19 9 -29
9 -39 0 -11 -9 -17 -8 -27 4 -10 13 -10 19 5 35 16 18 15 20 -34 44 -65 33
-95 86 -92 164 l2 54 -81 82 -80 82 0 60 c0 50 4 64 23 82 24 23 61 29 72 12
3 -5 23 -10 44 -10 l37 0 -7 61 c-8 72 -20 89 -49 71 -30 -19 -48 -15 -111 24
-36 21 -69 34 -83 32 -14 -2 -34 6 -48 18 -13 12 -36 24 -53 27 -98 19 -155
78 -155 161 0 36 4 46 20 51 11 3 20 10 20 15 0 21 -48 62 -79 68 -25 6 -39
17 -52 42 -22 40 -48 52 -106 49 -24 -2 -47 1 -53 7 -14 14 4 68 34 105 39 46
35 62 -16 57 -36 -3 -46 0 -61 19 -14 17 -29 23 -57 23 -35 0 -40 3 -51 34
-11 30 -17 34 -58 39 -125 16 -136 19 -155 44 -29 40 -11 61 90 105 147 66
215 88 286 95 58 5 70 10 84 31 16 24 16 25 -7 19 -14 -4 -37 2 -61 16 l-39
21 7 56 c7 59 28 100 51 100 20 0 63 30 63 44 0 7 -15 30 -32 50 l-33 38 -41
-59z"/>
<path d="M8093 7118 c-6 -7 -13 -23 -16 -35 -5 -24 2 -27 41 -17 26 7 31 48 6
58 -21 8 -20 8 -31 -6z"/>
<path d="M7537 6874 c-12 -13 -8 -20 18 -32 40 -18 65 -15 65 8 0 14 -7 20
-24 20 -13 0 -31 2 -38 5 -8 3 -17 2 -21 -1z"/>
<path d="M8462 6820 c-18 -21 -41 -60 -52 -85 -11 -25 -27 -48 -35 -52 -9 -3
-23 -22 -31 -42 -10 -26 -29 -45 -67 -66 -44 -26 -52 -36 -55 -64 -3 -26 -21
-51 -90 -119 -85 -85 -88 -87 -127 -82 -30 4 -41 10 -43 25 -4 22 -20 45 -31
45 -11 0 -48 -72 -56 -108 -8 -40 -36 -49 -114 -35 -69 13 -100 -4 -101 -53 0
-26 5 -33 25 -38 14 -4 50 -16 80 -27 48 -18 54 -24 62 -57 8 -36 11 -37 58
-42 102 -11 264 -154 302 -268 9 -26 36 -69 60 -96 62 -70 74 -97 76 -180 2
-83 23 -126 61 -126 42 0 84 -32 93 -70 7 -27 18 -40 51 -58 37 -21 44 -22 62
-9 20 14 20 14 0 32 -25 23 -46 90 -60 196 -16 117 -4 164 48 187 21 9 51 27
69 40 20 14 46 22 75 22 39 1 46 5 74 43 17 23 37 59 44 81 11 34 10 43 -9 81
-11 23 -24 62 -27 87 -6 40 -3 51 28 95 34 49 35 50 61 37 14 -8 33 -11 42 -8
13 6 12 12 -10 49 -14 25 -25 59 -25 80 0 52 -24 91 -75 121 l-45 26 0 64 c0
81 -20 122 -107 224 -36 41 -70 89 -78 105 -14 35 -51 70 -81 79 -16 5 -28 -3
-52 -34z"/>
<path d="M7618 6553 c-18 -5 -42 -47 -53 -97 -5 -24 -3 -27 10 -22 9 3 25 6
35 6 11 0 22 12 29 31 13 36 15 90 4 88 -5 -1 -16 -3 -25 -6z"/>
<path d="M7096 5550 c-21 -16 -41 -31 -43 -34 -2 -2 1 -32 8 -66 12 -61 12
-61 -17 -91 l-29 -30 32 -27 c26 -22 30 -30 22 -44 -9 -16 3 -58 16 -58 3 0
37 16 77 35 40 19 85 36 100 40 16 3 35 19 47 39 22 35 29 96 11 96 -24 0
-100 83 -106 115 -5 26 -13 36 -36 44 -40 14 -37 15 -82 -19z"/>
<path d="M7620 4953 c0 -4 12 -19 26 -35 22 -22 30 -25 46 -17 19 10 19 11 -3
35 -20 22 -69 34 -69 17z"/>
<path d="M7100 4691 c-24 -19 -24 -19 -5 -41 24 -27 87 -60 114 -60 10 0 22 7
25 16 8 22 9 20 -22 33 -16 7 -36 25 -46 41 -20 35 -32 37 -66 11z"/>
<path d="M7360 4632 c0 -11 17 -25 48 -39 60 -27 144 -21 150 11 7 33 -25 46
-115 46 -72 0 -83 -2 -83 -18z"/>
<path d="M7025 3092 c-3 -3 -5 -25 -5 -49 0 -24 -5 -52 -12 -62 -10 -16 -6
-26 28 -65 28 -33 47 -45 66 -46 23 0 28 5 34 35 3 20 4 63 2 96 -3 47 -9 64
-24 73 -22 13 -82 25 -89 18z"/>
<path d="M4623 2463 c-7 -2 -13 -15 -13 -28 0 -16 -10 -30 -30 -41 -24 -15
-28 -23 -23 -43 3 -15 6 -27 7 -28 3 -5 120 38 133 49 27 22 -10 99 -46 97 -9
0 -22 -3 -28 -6z"/>
<path d="M6158 2052 c-16 -9 -28 -19 -28 -22 1 -9 105 -67 133 -74 26 -6 27
-5 27 34 0 36 -3 41 -40 60 -47 24 -57 24 -92 2z"/>
<path d="M4519 148 c-6 -13 -18 -27 -25 -31 -21 -12 -17 -81 5 -101 18 -17 21
-17 46 0 24 16 26 21 23 83 -2 52 -6 66 -20 69 -9 2 -22 -7 -29 -20z"/>
</g>
</svg>
