<?xml version="1.0" standalone="no"?>
<!DOCTYPE svg PUBLIC "-//W3C//DTD SVG 20010904//EN"
 "http://www.w3.org/TR/2001/REC-SVG-20010904/DTD/svg10.dtd">
<svg version="1.0" xmlns="http://www.w3.org/2000/svg"
 width="1024.000000pt" height="1024.000000pt" viewBox="0 0 1024.000000 1024.000000"
 preserveAspectRatio="xMidYMid meet">
<metadata>
Created by potrace 1.10, written by Peter Selinger 2001-2011
</metadata>
<g transform="translate(0.000000,1024.000000) scale(0.100000,-0.100000)"
fill="#000000" stroke="none">
<path d="M3140 7072 c-5 -20 -10 -61 -10 -90 0 -37 -8 -68 -26 -103 -20 -40
-23 -57 -17 -77 20 -59 -8 -78 -69 -46 -23 12 -36 13 -54 5 -34 -15 -124 -129
-179 -228 -64 -114 -83 -133 -135 -133 -33 0 -42 4 -51 23 -17 38 -129 60
-129 26 0 -5 -10 -9 -23 -9 -32 0 -126 -36 -149 -57 -11 -10 -31 -39 -44 -65
-24 -47 -75 -101 -117 -125 -12 -7 -39 -12 -60 -13 -47 0 -61 27 -42 81 26 74
-23 90 -108 36 -64 -41 -113 -96 -122 -136 -8 -35 -14 -37 -57 -15 -23 12 -36
13 -53 6 -21 -10 -22 -14 -12 -50 10 -38 9 -42 -35 -103 -64 -90 -79 -102
-112 -89 -41 15 -144 -15 -177 -51 -17 -19 -35 -29 -55 -29 -23 -1 -36 -11
-63 -45 -22 -30 -41 -45 -56 -45 -13 0 -42 -16 -65 -35 -23 -19 -48 -35 -55
-35 -7 0 -39 -20 -71 -45 -62 -49 -78 -53 -111 -30 -35 25 -191 4 -267 -35
-32 -16 -65 -30 -73 -30 -8 0 -50 -35 -94 -77 -66 -64 -79 -82 -79 -109 0 -17
-7 -38 -16 -45 -12 -10 -15 -25 -11 -55 6 -55 -5 -71 -67 -100 -58 -27 -127
-32 -146 -9 -17 20 -30 19 -62 -8 -24 -19 -29 -34 -42 -127 -8 -58 -18 -136
-21 -174 l-7 -69 194 6 c106 4 427 10 713 13 l520 7 199 58 c151 45 202 56
212 48 15 -12 47 4 86 43 11 11 49 28 84 38 36 9 73 25 82 34 13 11 21 13 29
5 8 -8 23 -4 53 11 33 17 45 19 56 9 11 -9 14 -8 14 4 0 9 12 25 26 36 25 20
26 20 57 1 27 -17 43 -19 112 -14 72 6 1348 -41 1420 -52 40 -6 73 -58 51 -83
-19 -23 -29 -58 -17 -66 6 -3 40 13 77 36 l67 43 24 -30 c69 -86 164 -238 157
-253 -11 -27 -17 -118 -7 -124 6 -4 1185 -19 1311 -17 20 0 99 -78 575 -570
237 -245 512 -527 610 -627 l180 -181 96 35 c118 43 237 57 365 42 78 -8 91
-8 99 6 6 12 17 14 41 9 30 -5 37 -2 59 28 21 27 28 54 40 145 8 61 18 117 23
124 13 22 23 -20 24 -106 l1 -80 25 73 c28 84 47 125 113 237 78 136 302 340
435 399 40 18 59 33 66 52 14 36 8 50 -27 57 -36 7 -72 61 -47 71 9 3 26 6 39
6 12 0 25 6 28 14 8 20 -15 60 -41 71 -26 12 -27 23 -6 53 15 22 74 32 74 12
0 -5 -4 -10 -10 -10 -18 0 -11 -21 23 -67 l32 -45 -22 -15 c-13 -9 -23 -22
-23 -29 0 -8 -4 -14 -8 -14 -5 0 7 -17 27 -38 l36 -38 92 85 c51 47 93 91 93
98 0 7 6 10 14 7 28 -11 36 29 15 75 -36 80 -16 95 34 25 18 -25 26 -49 24
-66 -2 -16 -1 -28 1 -28 3 0 48 14 101 32 86 29 108 32 211 32 108 0 129 4
130 29 0 5 -13 6 -30 2 -35 -8 -39 6 -10 35 24 24 57 26 88 4 24 -16 29 -53
10 -72 -9 -9 -7 -13 6 -18 23 -9 31 5 46 80 12 59 13 60 27 39 9 -13 22 -23
29 -23 17 0 18 -12 3 -27 -6 -6 -8 -21 -4 -33 5 -17 13 -21 38 -18 30 3 32 6
37 48 7 55 15 70 41 70 10 0 19 7 19 15 0 8 7 15 15 15 8 0 24 18 35 40 19 36
40 53 40 31 0 -5 16 -1 35 7 39 18 42 24 20 42 -8 7 -15 21 -15 33 0 17 5 19
36 14 49 -8 53 12 15 70 -31 47 -42 49 -16 3 8 -14 14 -33 15 -43 0 -14 -4
-16 -19 -7 -30 16 -55 12 -69 -11 -9 -14 -19 -18 -32 -14 -13 4 -22 1 -26 -9
-9 -23 -19 -20 -33 11 -11 25 -10 29 8 42 22 14 28 67 11 106 -8 19 -9 19 -9
-2 -1 -13 -5 -23 -11 -23 -5 0 -10 -13 -10 -28 0 -16 -7 -37 -15 -48 -14 -19
-15 -19 -21 4 -5 17 -14 22 -40 22 -41 0 -44 -17 -12 -60 14 -20 18 -34 12
-40 -7 -7 -25 5 -54 35 -48 49 -57 52 -85 31 -19 -14 -19 -15 -2 -34 15 -16
16 -24 7 -41 -13 -25 -30 -19 -30 10 0 33 -28 33 -66 -1 -33 -28 -38 -30 -53
-16 -10 9 -41 20 -71 26 -91 17 -190 86 -190 133 0 13 -13 41 -30 63 -16 21
-30 45 -30 52 0 8 -9 27 -21 43 -19 27 -19 29 -2 29 10 0 32 -21 52 -50 42
-62 67 -85 76 -71 10 18 25 12 25 -9 0 -11 5 -20 11 -20 5 0 7 -4 4 -10 -3 -5
26 -31 66 -57 l72 -48 61 34 c87 47 174 113 182 136 4 11 15 26 25 33 30 21
44 53 28 63 -8 5 -16 3 -21 -4 -5 -9 -18 -9 -53 1 -42 11 -48 10 -74 -9 -27
-20 -51 -19 -51 1 0 4 18 23 40 40 31 25 44 29 54 21 17 -14 46 -4 46 15 0 21
22 26 56 14 l29 -11 -23 23 c-29 32 -28 38 8 38 17 0 30 5 30 11 0 6 7 9 15 5
8 -3 19 2 24 11 9 17 -14 42 -51 56 -10 3 -18 13 -18 22 0 11 -10 15 -35 15
-33 0 -35 -2 -35 -35 0 -19 -4 -35 -10 -35 -13 0 -23 44 -15 69 5 16 1 22 -17
26 -38 9 -107 -1 -127 -19 -9 -9 -26 -16 -37 -16 -14 0 -8 9 25 38 l45 38 -46
13 c-25 7 -55 10 -67 6 -17 -5 -21 -2 -21 18 0 14 -6 29 -12 35 -14 10 -64 22
-117 26 -19 2 -38 10 -43 20 -5 9 -32 34 -60 56 -34 28 -44 40 -31 40 17 1 17
1 1 11 -10 5 -18 14 -18 19 0 19 23 9 67 -30 43 -38 111 -70 181 -85 29 -6 34
-4 39 14 6 25 23 18 23 -10 0 -22 35 -39 81 -39 17 0 39 -5 50 -11 15 -7 24
-7 34 1 11 9 16 7 24 -7 5 -11 26 -24 45 -30 l35 -11 -19 39 c-11 21 -20 52
-20 68 0 40 -25 64 -51 51 -15 -8 -19 -7 -19 4 0 9 9 20 21 26 16 9 18 14 8
26 -18 22 -3 28 23 10 15 -11 45 -16 95 -16 71 0 73 1 73 25 0 15 6 25 14 25
33 0 32 -45 -1 -87 -17 -20 -21 -21 -60 -10 -48 13 -59 7 -44 -21 8 -14 17
-19 33 -15 23 6 23 6 5 -15 -21 -23 -15 -42 14 -42 23 0 24 -8 5 -29 -13 -14
-11 -18 16 -34 24 -14 29 -14 25 -3 -8 20 15 37 44 34 18 -2 25 2 27 20 2 12
7 22 11 22 16 0 36 -33 36 -58 0 -32 24 -41 32 -13 3 12 8 21 12 21 17 0 49
-32 61 -60 15 -36 40 -40 40 -7 0 36 10 38 36 8 31 -37 92 -49 110 -22 8 10
27 21 44 24 24 5 30 12 30 32 0 35 17 65 34 59 17 -7 46 22 46 46 0 10 11 25
25 34 14 9 25 24 25 32 0 9 20 34 45 56 33 29 44 45 40 58 -3 10 -3 30 1 45 9
35 35 29 46 -12 7 -28 12 -31 46 -30 57 0 120 67 78 83 -17 6 -39 62 -30 75 8
13 52 11 58 -3 3 -7 3 3 0 22 -3 19 -9 73 -13 120 -9 99 -41 187 -82 226 -23
22 -32 25 -41 16 -10 -10 -7 -16 10 -28 12 -8 22 -19 22 -25 0 -14 -78 -11
-83 4 -2 6 -7 9 -11 6 -4 -4 5 -20 19 -37 44 -52 25 -59 -30 -10 l-36 31 -24
-24 c-21 -20 -25 -35 -26 -94 -2 -95 -26 -254 -40 -271 -15 -18 -33 -18 -49 1
-7 8 -25 15 -40 15 -32 0 -59 25 -43 41 8 8 13 7 17 0 4 -6 23 -11 43 -11 30
0 34 3 27 18 -4 9 -9 33 -11 53 -4 30 -10 37 -36 45 -22 6 -33 16 -35 32 -4
25 5 27 32 7 11 -8 24 -15 29 -15 16 0 1 89 -18 110 -18 19 -17 20 7 20 18 0
29 9 42 36 19 42 14 55 -12 31 -17 -16 -20 -15 -42 8 -19 20 -20 25 -7 25 9 0
21 9 27 20 9 17 14 18 31 9 30 -16 32 -6 5 20 -34 32 -121 39 -206 17 -72 -19
-117 -50 -87 -62 9 -3 17 -12 17 -20 0 -17 0 -17 -39 2 -21 11 -44 14 -67 10
-34 -7 -34 -6 -34 29 0 19 -3 35 -6 35 -4 0 -49 -13 -100 -30 -111 -35 -182
-45 -258 -36 l-56 7 15 28 c8 16 21 31 30 34 13 6 12 13 -6 59 -72 176 -76
300 -13 359 l24 22 -21 34 c-11 18 -17 33 -12 33 15 0 73 -40 73 -50 0 -6 -13
-36 -30 -67 -36 -66 -38 -112 -10 -183 11 -28 20 -62 20 -76 0 -36 43 -54 70
-29 19 17 20 17 29 -8 15 -40 45 -51 100 -37 41 10 101 52 101 70 0 4 -10 12
-22 17 -22 10 -22 10 7 12 17 0 59 4 94 7 l64 6 -39 17 c-41 19 -144 106 -144
122 0 20 38 7 76 -24 21 -19 53 -37 70 -40 17 -3 54 -20 82 -38 32 -20 58 -29
68 -25 16 6 15 8 -5 23 -30 20 -81 101 -81 127 0 16 16 5 69 -48 71 -70 101
-81 101 -35 0 11 3 19 7 17 5 -2 20 -10 36 -18 21 -10 30 -11 39 -2 17 17 -18
90 -46 94 -14 2 -21 11 -22 27 -1 24 -18 43 -79 88 l-30 22 36 1 c45 0 102
-39 185 -126 45 -48 67 -64 87 -64 31 0 33 5 12 27 -12 11 -13 19 -5 28 7 8 8
25 3 42 -4 15 -6 34 -5 40 4 20 -16 51 -38 58 -20 6 -28 35 -10 35 6 0 10 -5
10 -11 0 -6 8 -8 18 -5 14 5 22 -5 37 -45 11 -28 26 -55 33 -61 6 -6 12 -16
12 -22 0 -7 16 -34 35 -61 29 -41 34 -55 29 -85 -5 -33 -3 -37 35 -58 23 -13
41 -21 41 -18 0 9 -72 190 -80 201 -5 6 -15 38 -24 72 -17 70 -72 179 -79 160
-6 -14 -66 50 -67 71 0 7 -11 35 -25 62 -20 40 -30 50 -51 50 -34 0 -26 24 9
28 18 2 27 9 27 21 0 17 -115 18 -2582 13 -2231 -4 -2657 -2 -3123 12 -465 14
-814 32 -972 51 -42 4 -42 4 -53 -33z"/>
</g>
</svg>
