<?xml version="1.0" standalone="no"?>
<!DOCTYPE svg PUBLIC "-//W3C//DTD SVG 20010904//EN"
 "http://www.w3.org/TR/2001/REC-SVG-20010904/DTD/svg10.dtd">
<svg version="1.0" xmlns="http://www.w3.org/2000/svg"
 width="1024.000000pt" height="1024.000000pt" viewBox="0 0 1024.000000 1024.000000"
 preserveAspectRatio="xMidYMid meet">
<metadata>
Created by potrace 1.10, written by Peter Selinger 2001-2011
</metadata>
<g transform="translate(0.000000,1024.000000) scale(0.100000,-0.100000)"
fill="#000000" stroke="none">
<path d="M3945 9050 c-27 -5 -120 -25 -205 -46 -105 -25 -192 -39 -270 -44
-152 -10 -343 -71 -458 -146 -66 -45 -190 -101 -250 -115 -26 -6 -90 -14 -142
-18 -69 -5 -109 -14 -144 -30 -66 -32 -153 -116 -201 -194 -34 -55 -52 -72
-119 -113 -102 -63 -156 -82 -234 -83 -34 -1 -88 -10 -120 -20 -31 -10 -111
-29 -177 -41 -66 -11 -133 -26 -150 -31 -16 -6 -91 -21 -166 -34 -159 -27
-166 -28 -239 -59 -91 -38 -148 -57 -300 -97 -80 -21 -191 -56 -248 -78 -57
-23 -108 -41 -114 -41 -6 0 -32 -16 -59 -35 l-48 -34 -78 9 c-72 8 -80 7 -100
-12 -27 -25 -30 -60 -8 -78 9 -7 38 -24 66 -36 42 -20 51 -21 55 -9 4 9 19 15
38 15 17 0 42 9 56 20 33 26 146 29 136 4 -9 -23 11 -54 35 -54 29 0 22 -44
-7 -48 -12 -2 -30 -12 -39 -22 -15 -17 -16 -28 -9 -72 7 -43 13 -54 31 -56 28
-4 37 -30 18 -52 -8 -9 -15 -23 -15 -31 -1 -8 -8 0 -17 16 -31 59 -74 95 -114
95 -54 0 -85 14 -105 49 -25 43 -44 47 -70 14 -35 -43 -33 -107 5 -141 29 -24
30 -28 24 -86 -5 -54 -2 -66 19 -97 21 -32 54 -136 74 -239 4 -19 15 -46 25
-59 25 -32 25 -35 -18 -87 -37 -43 -37 -46 -34 -118 3 -83 -10 -114 -57 -135
-15 -7 -62 -35 -105 -63 l-78 -51 7 -43 c5 -34 2 -50 -15 -78 -12 -19 -18 -37
-14 -39 4 -3 31 -8 60 -12 44 -6 58 -13 88 -46 19 -21 39 -39 44 -39 5 0 41
-31 79 -68 49 -48 83 -72 113 -81 55 -17 120 -61 138 -95 13 -24 12 -28 -9
-51 -21 -23 -22 -26 -8 -38 36 -28 31 -53 -17 -92 -54 -45 -56 -64 -21 -174
26 -82 39 -96 97 -106 41 -7 44 -17 18 -65 -5 -9 -2 -22 8 -33 13 -13 14 -20
5 -29 -7 -7 -12 -27 -12 -45 0 -28 5 -36 35 -50 25 -12 34 -22 29 -32 -3 -9
-10 -41 -16 -71 -26 -149 -30 -160 -44 -160 -13 0 -104 -83 -104 -95 0 -2 13
-19 29 -37 16 -18 34 -51 40 -73 8 -29 24 -49 56 -72 37 -28 45 -39 51 -79 6
-42 4 -48 -26 -79 -18 -18 -30 -39 -28 -45 2 -7 60 -38 128 -69 107 -49 125
-60 128 -81 5 -49 35 -132 48 -137 8 -3 14 -15 14 -27 1 -11 7 -37 14 -57 12
-35 10 -44 -61 -224 -40 -103 -73 -193 -73 -200 0 -7 -18 -27 -39 -44 -34 -27
-38 -35 -32 -59 7 -25 12 -27 64 -30 71 -4 97 9 97 48 0 15 8 42 17 59 17 29
17 31 -2 45 -20 15 -20 15 3 38 12 12 22 17 22 10 0 -8 10 -9 30 -5 22 4 36 0
51 -13 17 -15 23 -16 41 -5 15 9 23 10 31 2 6 -6 22 -11 34 -11 13 0 37 -10
53 -22 28 -21 29 -22 14 -56 -13 -32 -12 -38 4 -66 11 -19 29 -33 45 -36 18
-3 35 -18 51 -45 20 -33 30 -40 58 -41 79 -4 208 -32 242 -54 30 -18 47 -22
92 -18 l54 5 31 -54 c33 -58 34 -58 67 -39 13 7 37 10 53 8 29 -4 32 -8 55
-71 3 -11 11 -8 32 11 15 14 39 33 54 43 25 15 29 15 50 1 32 -23 65 -20 83 8
15 23 18 23 64 11 56 -14 140 -72 141 -96 0 -9 -8 -27 -17 -40 -10 -13 -23
-33 -29 -44 -6 -12 -24 -21 -41 -23 -20 -2 -50 -21 -84 -52 l-54 -48 40 -41
c30 -32 46 -41 73 -41 28 0 35 -5 43 -30 8 -23 19 -31 46 -36 25 -5 40 -15 52
-37 9 -16 30 -43 48 -59 23 -22 35 -45 43 -82 9 -43 18 -58 52 -84 49 -38 113
-45 123 -14 3 11 15 24 28 29 12 6 41 26 64 45 24 20 68 43 102 54 34 10 61
22 61 26 0 5 9 4 19 -1 17 -10 19 -6 23 34 3 44 2 45 -30 51 -28 6 -34 12 -44
52 -6 24 -24 59 -39 77 -28 31 -28 33 -10 49 17 15 22 14 82 -13 45 -20 74
-27 97 -24 44 7 122 -23 122 -46 0 -22 100 -56 137 -46 24 6 25 4 19 -28 -4
-22 -2 -38 6 -44 7 -6 78 -11 162 -12 127 -2 151 1 167 15 11 9 19 23 19 31 0
17 15 17 45 -3 21 -13 22 -19 13 -40 -9 -19 -8 -28 5 -42 10 -10 17 -23 17
-28 -1 -16 -74 -56 -113 -62 -21 -2 -40 -9 -43 -14 -9 -13 45 -67 82 -82 19
-9 45 -36 70 -74 31 -50 49 -66 88 -83 l48 -21 45 24 c24 13 55 37 68 55 23
29 27 31 56 20 17 -7 38 -25 47 -42 23 -46 42 -56 69 -38 25 17 53 11 53 -11
0 -8 12 -19 28 -25 15 -6 42 -20 61 -32 21 -12 43 -18 56 -15 13 3 49 -3 80
-14 32 -11 72 -20 90 -20 27 0 33 -5 42 -34 6 -21 7 -38 2 -43 -6 -6 2 -40 18
-86 l27 -77 78 -30 c42 -16 86 -30 97 -30 16 0 21 -11 30 -63 6 -35 11 -75 11
-90 0 -14 5 -37 11 -50 10 -21 15 -23 65 -19 l54 4 0 -31 c0 -17 5 -51 12 -76
14 -50 36 -63 85 -50 16 4 46 9 68 10 56 2 114 57 122 114 5 39 7 40 52 46 85
11 91 14 91 40 0 28 26 45 69 45 25 0 37 -8 61 -42 16 -22 30 -47 30 -55 0 -8
10 -37 21 -64 19 -43 25 -49 50 -49 22 0 32 -6 39 -25 10 -26 15 -28 94 -29
57 -1 63 -11 65 -102 1 -27 7 -56 14 -63 8 -9 9 -15 1 -18 -6 -2 -25 -14 -42
-27 l-32 -23 25 -23 c20 -18 32 -22 64 -17 22 3 53 15 68 27 31 24 67 20 96
-11 11 -11 30 -24 44 -30 52 -20 58 -14 86 81 33 109 57 130 149 130 l57 0 7
35 c6 34 8 36 43 34 20 -2 49 5 66 13 28 15 32 15 87 -13 32 -16 62 -29 68
-29 6 0 13 13 16 29 6 28 9 29 53 28 25 -1 54 2 64 7 14 7 20 2 30 -23 6 -17
16 -31 22 -31 6 0 24 -13 39 -29 19 -20 34 -27 51 -23 17 3 25 0 25 -10 0 -8
11 -25 24 -37 37 -35 85 -23 120 30 15 22 38 45 51 51 19 9 25 19 25 44 0 27
5 35 25 40 19 5 30 0 48 -21 21 -25 25 -26 45 -14 12 8 22 21 22 30 0 33 63
38 150 13 66 -19 65 -19 160 -1 63 12 76 12 85 0 5 -7 33 -16 62 -19 48 -6 52
-9 69 -46 13 -29 20 -35 26 -25 4 8 21 20 37 27 28 11 34 10 80 -24 27 -20 55
-36 62 -36 21 0 79 -91 79 -123 0 -23 9 -31 73 -63 50 -26 83 -37 110 -35 27
1 37 -2 37 -13 0 -22 56 -48 97 -44 27 2 39 -3 53 -20 16 -19 31 -23 112 -28
54 -4 99 -12 108 -20 28 -24 92 -45 144 -48 42 -2 60 3 99 27 l47 29 -39 28
c-21 16 -42 33 -46 39 -3 6 -14 11 -24 11 -10 0 -28 11 -41 25 -18 20 -21 28
-12 37 7 7 12 24 12 38 0 15 9 35 20 45 21 19 40 73 40 113 0 15 -21 48 -56
85 -49 56 -55 66 -50 97 3 22 0 42 -9 54 -22 29 -18 72 7 96 12 11 25 20 29
20 4 0 21 24 37 53 17 28 108 136 204 240 95 103 196 217 225 254 76 97 163
183 298 292 66 54 126 106 134 115 8 10 32 26 52 37 30 15 40 27 45 53 8 46
57 66 158 66 83 0 177 15 186 30 3 6 19 64 35 130 l29 120 -22 45 c-12 25 -22
52 -22 60 0 8 -9 24 -20 35 -11 11 -20 31 -20 45 0 20 -5 25 -25 25 -27 0 -32
18 -15 51 9 15 22 19 69 19 49 0 61 4 81 26 16 16 21 28 14 32 -148 95 -172
115 -189 152 -10 22 -24 45 -32 51 -7 6 -13 22 -13 35 0 13 -12 35 -26 49 -15
15 -23 32 -20 40 3 8 8 21 11 28 3 7 -8 20 -25 30 -16 10 -30 27 -30 37 0 13
-13 23 -42 32 -32 10 -48 23 -60 48 -9 18 -31 46 -48 61 -35 32 -38 56 -11 90
29 38 36 97 14 121 -10 11 -18 27 -18 36 0 9 -19 29 -43 45 -37 25 -43 33 -37
54 4 16 -3 40 -20 72 -26 47 -26 49 -12 103 14 53 14 57 -6 76 -26 26 -14 44
51 72 44 20 45 21 37 58 -22 116 -10 188 35 212 18 10 19 13 6 38 -7 15 -17
46 -20 68 -7 38 -13 45 -71 79 -35 20 -71 48 -80 61 -9 14 -25 24 -39 24 -14
0 -57 13 -98 29 -40 16 -92 35 -116 42 -32 9 -41 16 -37 28 4 9 -3 22 -16 32
l-23 17 48 108 c43 96 56 116 115 172 113 107 179 139 391 192 l185 46 27 218
26 218 -30 50 c-27 43 -31 59 -29 112 1 47 -3 68 -19 91 -11 17 -20 37 -20 45
0 8 -22 29 -49 47 -37 24 -51 40 -56 65 -14 59 -46 149 -96 267 -46 106 -50
120 -44 171 5 46 1 70 -25 145 -17 50 -38 128 -46 174 -8 46 -21 93 -29 104
-8 12 -15 30 -15 41 0 11 -7 27 -16 37 -14 15 -14 20 -1 46 11 21 13 45 8 97
-6 57 -12 72 -31 85 -13 9 -44 37 -69 63 -35 35 -60 50 -102 62 -31 9 -59 22
-62 31 -4 8 -24 23 -47 35 -22 11 -40 24 -40 29 0 5 -26 8 -57 7 -53 -1 -58 1
-56 20 2 14 -6 25 -22 32 -14 7 -25 18 -25 27 0 8 -5 15 -11 15 -6 0 -41 15
-78 34 -75 38 -115 35 -109 -6 4 -31 -5 -32 -431 -68 -319 -28 -376 -30 -585
-24 -152 4 -260 3 -316 -5 -73 -9 -136 -7 -450 19 -201 16 -556 52 -790 80
-234 28 -451 53 -482 57 l-57 6 -14 -34 c-25 -59 -66 -88 -144 -103 -47 -9
-86 -24 -116 -45 -48 -33 -62 -37 -164 -45 -60 -5 -63 -5 -63 17 0 13 -5 28
-11 34 -16 16 33 39 107 53 122 21 147 28 156 44 12 21 61 46 92 46 14 0 31 9
41 23 26 37 -4 33 -103 -17 -101 -51 -214 -85 -317 -95 -84 -9 -396 -2 -410 9
-5 5 -36 11 -68 15 -39 5 -68 15 -87 31 -15 13 -39 24 -53 24 -43 0 -68 48
-71 133 -1 50 -7 82 -19 100 -9 14 -17 37 -17 50 0 18 -5 23 -22 23 -18 -1
-24 5 -26 29 -2 18 -18 43 -39 63 -20 21 -32 40 -29 49 3 8 6 21 6 29 0 11 9
10 48 -5 170 -67 252 -120 325 -210 22 -27 30 -31 42 -21 22 18 1 50 -80 118
-47 39 -85 62 -115 70 -25 6 -81 32 -125 57 -44 25 -89 45 -100 45 -11 0 -38
11 -60 25 -38 23 -48 24 -185 23 -80 0 -167 -4 -195 -8z"/>
</g>
</svg>
