<?xml version="1.0" standalone="no"?>
<!DOCTYPE svg PUBLIC "-//W3C//DTD SVG 20010904//EN"
 "http://www.w3.org/TR/2001/REC-SVG-20010904/DTD/svg10.dtd">
<svg version="1.0" xmlns="http://www.w3.org/2000/svg"
 width="1024.000000pt" height="1024.000000pt" viewBox="0 0 1024.000000 1024.000000"
 preserveAspectRatio="xMidYMid meet">
<metadata>
Created by potrace 1.10, written by Peter Selinger 2001-2011
</metadata>
<g transform="translate(0.000000,1024.000000) scale(0.100000,-0.100000)"
fill="#000000" stroke="none">
<path d="M930 6900 c-83 -13 -103 -20 -148 -53 -29 -22 -58 -46 -65 -56 -6 -9
-27 -23 -46 -31 -50 -20 -66 -65 -46 -132 8 -28 24 -66 34 -84 24 -40 40 -126
34 -176 -6 -42 -34 -68 -119 -111 -28 -14 -64 -40 -80 -57 -32 -35 -153 -95
-212 -106 -20 -4 -67 -20 -104 -36 -37 -15 -88 -31 -113 -35 -63 -8 -72 -22
-50 -79 9 -24 27 -57 40 -72 12 -15 49 -78 81 -141 66 -127 94 -151 180 -151
94 0 169 -63 189 -160 4 -19 22 -57 41 -85 22 -33 37 -71 44 -110 13 -75 26
-105 43 -105 18 0 49 -34 40 -44 -4 -3 3 -13 15 -22 15 -10 22 -26 22 -47 0
-25 -12 -43 -62 -92 -85 -82 -129 -140 -122 -159 3 -9 12 -16 20 -16 22 0 17
-70 -7 -109 -15 -25 -18 -40 -11 -55 5 -12 7 -51 4 -88 -5 -71 -15 -90 -76
-131 -20 -14 -25 -24 -20 -41 3 -13 1 -27 -5 -30 -23 -15 -9 -34 40 -54 57
-24 60 -41 9 -58 -45 -15 -63 -41 -56 -84 5 -29 1 -40 -26 -67 l-31 -32 29 -6
c16 -3 48 -15 72 -26 23 -10 51 -19 61 -19 23 0 71 -37 71 -55 0 -23 -60 -64
-118 -81 -73 -21 -115 -53 -129 -98 -16 -53 14 -142 67 -196 24 -25 30 -39 30
-74 0 -41 2 -45 40 -64 47 -23 52 -12 20 40 -28 46 -25 79 9 113 26 24 36 27
71 22 23 -3 58 -17 79 -31 22 -16 51 -26 72 -26 18 0 52 -6 74 -14 22 -8 85
-17 140 -21 93 -6 102 -5 128 15 15 12 27 28 27 35 0 8 13 15 33 17 24 2 33 8
35 24 5 38 34 54 98 54 220 0 283 -5 306 -26 39 -36 55 -36 62 -3 5 26 9 29
28 24 54 -15 68 -28 68 -60 0 -39 8 -46 102 -94 53 -27 73 -43 73 -57 0 -16 9
-20 55 -25 30 -4 68 -12 85 -18 33 -14 75 -7 75 12 0 19 -21 37 -42 37 -40 0
-16 29 36 44 74 22 77 38 16 99 -27 27 -50 54 -50 58 0 15 18 10 47 -15 16
-13 40 -26 53 -28 21 -2 25 -9 25 -35 0 -51 14 -58 94 -45 134 23 159 15 130
-39 -10 -19 -9 -19 10 -9 11 6 28 24 36 40 18 35 46 39 99 13 45 -21 90 -9
196 52 41 23 92 48 112 55 42 13 68 43 68 77 0 28 -4 28 -38 3 -38 -28 -92
-38 -92 -17 0 9 10 17 23 19 14 2 23 10 23 23 1 11 2 25 3 31 1 6 18 14 40 18
21 3 44 12 51 21 6 8 31 25 55 39 43 23 44 23 61 5 11 -13 24 -17 40 -13 31 8
31 -9 0 -26 -22 -11 -23 -15 -10 -27 18 -19 18 -42 -2 -64 -10 -11 -13 -23 -7
-33 10 -18 23 -10 43 27 23 46 62 60 147 55 60 -4 77 -9 89 -26 17 -24 131
-82 163 -82 12 0 38 -7 59 -16 50 -22 91 -18 122 11 49 47 184 71 226 41 13
-10 19 -27 19 -53 0 -33 3 -38 26 -41 14 -2 31 4 39 12 16 20 86 21 124 1 15
-8 38 -15 50 -15 25 0 145 37 160 49 6 5 34 12 61 16 28 4 97 24 155 45 145
54 197 64 224 47 13 -9 29 -11 41 -6 43 17 91 10 124 -18 55 -48 85 -79 119
-121 31 -39 37 -42 83 -42 27 0 49 -4 49 -10 0 -5 15 -17 33 -25 17 -9 55 -29
82 -45 28 -16 54 -30 58 -30 5 0 30 23 57 50 27 28 53 50 59 50 6 0 11 14 11
30 0 30 6 34 46 31 11 -1 37 12 58 29 34 26 47 30 102 30 57 0 65 -3 86 -29
13 -16 48 -48 78 -72 30 -23 62 -51 71 -62 13 -16 23 -18 53 -13 30 6 53 1
114 -24 101 -43 155 -38 215 20 23 22 46 40 52 40 6 0 22 11 35 25 13 14 27
25 32 25 5 0 38 -13 73 -30 35 -16 76 -30 90 -30 37 0 42 -25 9 -53 -24 -21
-33 -23 -63 -15 -20 5 -56 12 -80 15 -39 5 -44 4 -38 -11 4 -10 7 -35 7 -57 0
-21 4 -39 8 -39 5 0 29 13 53 30 51 34 102 38 189 15 79 -21 105 -19 142 14
45 39 92 61 159 77 35 8 87 32 131 61 66 43 78 47 126 45 33 -1 64 -9 80 -20
75 -52 113 -58 132 -21 6 10 16 16 24 13 7 -3 24 12 39 35 15 23 46 50 69 62
38 19 46 20 102 9 93 -18 96 -20 106 -46 12 -30 40 -31 66 -3 16 18 26 20 72
14 34 -4 94 0 160 10 150 23 144 21 196 60 38 30 54 36 86 34 37 -3 42 0 67
36 37 55 51 64 102 65 26 0 57 8 78 21 22 14 44 20 64 17 36 -6 54 19 45 63
-3 16 -1 29 6 31 8 3 7 11 -1 27 -17 32 -5 95 26 132 38 45 58 52 91 35 57
-30 88 1 99 99 7 59 18 85 38 85 10 0 13 8 9 28 -4 21 3 38 31 75 25 33 34 53
29 65 -17 39 4 86 81 183 41 51 62 68 95 78 33 10 45 20 58 49 49 108 121 146
194 103 17 -11 36 -18 40 -15 5 4 18 -2 28 -11 21 -19 35 -6 25 26 -10 30 27
65 91 85 30 9 59 23 65 30 16 20 53 17 91 -6 44 -27 49 -26 92 15 31 29 35 38
26 55 -6 11 -18 20 -26 20 -15 0 -14 10 7 66 11 30 54 36 84 12 14 -11 25 -26
25 -34 0 -8 7 -14 15 -14 9 0 15 -9 15 -24 0 -31 16 -42 36 -25 11 9 14 22 10
44 -8 42 0 47 42 29 28 -12 37 -12 44 -2 11 19 10 28 -4 28 -37 1 -106 110
-95 150 6 22 4 22 -42 17 -45 -5 -59 -1 -99 29 -2 1 2 13 9 25 7 13 13 38 15
57 2 29 -1 33 -27 39 -16 3 -29 7 -29 10 0 11 30 61 44 72 23 19 17 209 -7
223 -9 5 -17 20 -17 33 0 13 -6 25 -12 28 -8 3 3 21 30 49 23 24 42 48 42 53
0 4 7 16 16 26 9 10 19 32 24 51 4 18 11 40 14 49 5 12 -1 20 -23 29 -37 15
-61 1 -61 -35 0 -44 -63 -75 -73 -35 -8 29 -42 25 -69 -9 -42 -52 -131 -81
-144 -46 -4 10 -21 14 -62 13 -74 -2 -168 38 -178 76 -3 13 -12 27 -20 30 -8
3 -14 12 -14 21 0 21 -37 19 -49 -4 -6 -10 -23 -24 -39 -30 -37 -16 -69 -3
-119 46 -21 21 -52 43 -68 48 -26 9 -30 16 -33 54 -3 42 -4 43 -33 37 -17 -3
-43 -15 -59 -26 -31 -22 -60 -26 -60 -9 0 6 11 25 26 44 29 39 15 59 -19 27
-12 -11 -37 -27 -54 -36 -29 -15 -36 -15 -68 -2 -19 8 -35 22 -35 30 0 9 -6
16 -14 16 -7 0 -29 17 -48 38 -35 39 -51 44 -238 72 -36 5 -78 22 -122 49 -69
42 -108 52 -108 27 0 -34 -206 -22 -324 19 -94 32 -190 35 -206 5 -16 -30 -66
-51 -115 -49 -25 2 -48 0 -51 -4 -8 -8 -72 18 -95 39 -11 9 -42 16 -86 18 -53
2 -80 9 -115 30 -56 33 -168 61 -276 70 l-83 7 18 -25 c29 -39 53 -50 70 -33
8 8 25 12 37 10 18 -4 22 -10 19 -28 -4 -17 4 -29 30 -50 20 -14 44 -25 55
-23 22 4 52 -18 52 -38 0 -8 -8 -14 -19 -14 -10 0 -39 -11 -65 -25 -61 -33
-70 -32 -84 9 -12 32 -15 34 -55 33 -54 -2 -101 25 -92 53 3 11 1 28 -5 40
-13 25 -65 27 -91 4 -9 -8 -46 -20 -81 -26 -79 -14 -109 1 -127 63 -10 31 -15
38 -25 30 -9 -8 -59 -8 -167 -2 -164 10 -167 11 -246 48 -54 26 -101 25 -133
-2 -27 -23 -58 -26 -95 -10 -21 8 -58 15 -84 15 -25 0 -75 9 -111 21 -38 12
-77 18 -94 15 -16 -4 -34 -2 -40 3 -34 26 -271 44 -401 30 -158 -18 -152 -16
-186 -64 -17 -24 -43 -48 -58 -53 -30 -10 -132 0 -176 18 -16 7 -66 16 -110
21 -44 5 -98 19 -121 29 -22 11 -61 20 -87 20 -25 0 -71 9 -100 20 -49 18 -57
19 -82 6 -46 -24 -123 -31 -143 -13 -9 9 -55 25 -102 38 -100 26 -218 23 -251
-7 -16 -14 -32 -16 -99 -11 -79 5 -81 5 -110 -24 -27 -27 -32 -29 -84 -23 -52
6 -54 5 -58 -17 l-3 -24 -125 4 c-98 3 -130 7 -150 21 -14 9 -34 20 -45 23
-11 3 -49 17 -84 32 -62 26 -68 27 -205 21 -185 -9 -201 -9 -336 -5 -90 3
-125 0 -163 -14 -75 -27 -140 -22 -312 22 -16 4 -55 5 -85 2 -67 -7 -166 8
-200 31 -14 9 -43 20 -65 24 -22 4 -61 17 -87 30 -26 13 -60 24 -76 24 -16 0
-48 6 -73 14 -68 22 -398 26 -519 6z"/>
</g>
</svg>
