<?xml version="1.0" standalone="no"?>
<!DOCTYPE svg PUBLIC "-//W3C//DTD SVG 20010904//EN"
 "http://www.w3.org/TR/2001/REC-SVG-20010904/DTD/svg10.dtd">
<svg version="1.0" xmlns="http://www.w3.org/2000/svg"
 width="1024.000000pt" height="1024.000000pt" viewBox="0 0 1024.000000 1024.000000"
 preserveAspectRatio="xMidYMid meet">
<metadata>
Created by potrace 1.10, written by Peter Selinger 2001-2011
</metadata>
<g transform="translate(0.000000,1024.000000) scale(0.100000,-0.100000)"
fill="#000000" stroke="none">
<path d="M4014 10232 c-6 -4 -19 -22 -30 -40 -15 -27 -24 -32 -44 -29 -13 3
-36 -1 -51 -8 -21 -12 -32 -12 -65 0 -59 20 -114 29 -114 18 0 -6 9 -18 20
-28 10 -9 27 -37 36 -62 l17 -44 -34 -34 c-29 -29 -42 -34 -84 -36 -27 -1 -71
4 -96 11 -42 12 -50 12 -91 -9 l-46 -22 -6 -67 c-12 -116 -13 -120 -54 -132
-51 -14 -49 -14 -57 28 l-7 37 -26 -31 c-16 -19 -44 -36 -67 -43 -22 -6 -55
-20 -74 -32 -19 -11 -37 -16 -40 -11 -10 16 -150 13 -181 -3 -38 -19 -36 -20
-48 14 -7 19 -25 37 -51 50 -66 34 -81 26 -81 -44 0 -30 -5 -35 -60 -61 -57
-28 -60 -31 -60 -65 0 -27 -6 -41 -22 -52 -20 -12 -23 -22 -21 -68 1 -30 -2
-56 -9 -60 -7 -5 -6 -14 6 -30 23 -33 19 -59 -14 -99 -17 -19 -30 -40 -30 -47
0 -7 -9 -22 -21 -34 l-21 -21 26 -27 c20 -20 26 -37 26 -70 0 -23 7 -55 14
-70 21 -40 11 -68 -28 -76 -17 -4 -47 -16 -66 -27 -48 -28 -126 -20 -155 17
-12 14 -29 25 -39 25 -21 0 -20 -2 23 -62 30 -41 34 -54 35 -114 1 -60 4 -69
21 -72 12 -3 27 6 41 24 20 25 25 27 48 16 17 -8 26 -20 26 -35 0 -13 7 -32
15 -43 8 -10 15 -33 15 -50 0 -16 7 -39 15 -50 21 -27 18 -61 -5 -74 -11 -6
-20 -17 -20 -24 0 -28 126 -201 171 -236 48 -36 209 -222 234 -270 19 -38 91
-100 115 -100 11 0 23 -8 27 -17 3 -10 15 -28 26 -40 11 -13 17 -29 13 -38 -3
-9 -2 -25 4 -35 7 -13 6 -19 -5 -24 -15 -6 -19 -44 -9 -83 3 -12 19 -26 35
-32 22 -8 29 -16 29 -37 0 -15 6 -35 13 -43 15 -18 47 -114 47 -142 0 -26 5
-24 52 21 44 42 85 52 106 27 14 -17 -3 -88 -24 -100 -8 -4 -14 -22 -14 -40 0
-51 -11 -60 -56 -48 -55 15 -63 14 -76 -14 -9 -20 -14 -22 -25 -13 -11 9 -18
8 -30 -5 -14 -13 -14 -20 -3 -47 9 -22 10 -50 4 -103 -4 -39 -7 -132 -6 -205
1 -127 1 -132 -18 -122 -10 5 -27 10 -38 10 -23 0 -62 -40 -62 -64 0 -13 -5
-16 -17 -11 -44 19 -59 17 -71 -9 -6 -15 -20 -26 -31 -26 -33 0 -42 -86 -14
-141 9 -19 20 -56 24 -84 4 -27 16 -75 28 -105 17 -46 28 -59 66 -80 34 -19
45 -30 45 -48 0 -19 4 -23 19 -19 16 4 22 -3 32 -45 8 -34 18 -52 30 -55 10
-3 23 -20 29 -39 10 -28 26 -41 98 -81 114 -62 156 -101 172 -159 10 -34 20
-48 39 -55 31 -12 41 -26 41 -61 0 -17 8 -31 20 -38 17 -9 20 -21 20 -71 0
-35 7 -73 16 -91 11 -21 14 -43 9 -72 -3 -22 -8 -66 -11 -98 -4 -42 -10 -57
-23 -61 -28 -7 -35 -95 -10 -123 10 -11 19 -32 19 -47 0 -35 52 -133 85 -159
14 -10 25 -26 25 -33 0 -7 15 -25 33 -39 29 -23 32 -31 33 -78 0 -29 7 -78 16
-108 8 -30 16 -63 17 -72 0 -10 2 -31 3 -46 1 -25 4 -28 31 -24 30 5 31 2 10
-55 -3 -7 2 -16 11 -19 13 -5 16 -24 16 -109 0 -92 -2 -104 -21 -121 -12 -10
-33 -43 -46 -73 -13 -30 -33 -66 -44 -79 -10 -14 -19 -33 -19 -43 0 -12 -10
-21 -25 -25 -21 -5 -25 -12 -24 -38 4 -57 -149 -250 -190 -239 -23 6 -35 -12
-36 -52 0 -24 -4 -30 -21 -30 -13 0 -39 -21 -68 -54 -45 -53 -46 -57 -46 -122
0 -37 -7 -83 -15 -102 -8 -20 -15 -49 -15 -65 0 -19 -22 -60 -66 -123 -83
-118 -83 -117 -94 -99 -9 13 -11 13 -20 0 -5 -8 -10 -27 -10 -43 0 -29 -1 -32
-43 -113 -15 -29 -27 -57 -27 -63 0 -16 16 -14 34 5 31 31 46 -7 27 -70 -5
-17 -19 -67 -32 -111 -36 -133 -40 -144 -50 -151 -6 -3 -16 0 -24 6 -13 10
-18 6 -31 -26 -17 -40 -18 -84 -11 -736 l2 -227 29 -30 c38 -39 77 -41 103 -5
17 23 18 33 10 76 -7 35 -7 65 1 100 7 27 12 62 12 78 0 23 3 27 20 23 17 -5
20 -14 20 -59 0 -108 41 -142 50 -41 3 30 7 58 10 61 10 9 115 -51 118 -67 3
-13 14 -16 55 -14 50 2 51 2 58 -33 6 -27 4 -38 -8 -47 -15 -12 -15 -15 4 -35
24 -27 43 -87 43 -140 0 -28 8 -47 32 -73 l31 -36 14 31 c7 18 13 57 13 86 0
30 4 54 10 54 5 0 21 -18 35 -40 13 -21 34 -44 45 -50 12 -6 20 -21 20 -36 0
-14 9 -42 20 -62 10 -20 22 -49 25 -64 7 -38 45 -61 78 -49 26 10 29 7 51 -62
3 -11 16 -17 35 -17 46 0 56 -18 53 -91 -1 -35 -5 -79 -8 -97 -5 -26 -3 -31 8
-27 8 3 21 -1 28 -10 7 -8 18 -15 24 -15 17 0 56 -43 56 -62 0 -9 11 -19 25
-22 14 -4 25 -12 25 -19 0 -7 14 -32 31 -56 30 -40 34 -42 68 -36 98 16 91 11
91 71 l0 55 38 -7 c48 -9 52 -11 52 -34 0 -39 22 -70 56 -76 18 -3 38 -12 45
-20 6 -8 18 -14 27 -14 8 0 39 -8 68 -17 50 -15 55 -15 72 0 23 21 32 21 32 2
0 -8 9 -15 19 -15 24 0 33 -20 40 -90 6 -51 8 -55 34 -58 16 -2 35 2 43 9 11
9 18 8 34 -6 18 -16 21 -17 45 -1 25 16 25 16 25 -9 0 -15 -4 -35 -10 -45 -7
-13 -6 -21 5 -30 10 -8 15 -30 15 -62 0 -45 -3 -50 -35 -69 -19 -12 -35 -29
-35 -38 0 -9 -5 -22 -12 -29 -14 -14 30 -75 71 -97 16 -8 32 -22 35 -31 6 -15
11 -13 37 12 17 16 37 44 44 62 11 24 20 32 40 32 14 0 33 9 42 20 10 11 26
20 35 20 10 0 36 12 58 26 46 31 54 27 95 -42 14 -25 30 -42 35 -39 5 3 27 -3
49 -14 l39 -20 12 28 c7 17 25 34 43 42 18 7 33 14 35 15 2 1 -3 15 -11 31
-13 24 -13 33 -2 61 8 17 19 32 25 32 12 0 45 33 91 91 l29 37 -64 37 c-110
64 -183 139 -275 285 -46 72 -91 134 -100 137 -9 3 -50 18 -91 34 -41 16 -76
25 -78 20 -2 -6 -13 -22 -24 -36 -20 -26 -24 -27 -109 -23 -80 3 -90 6 -116
30 -16 15 -43 30 -60 34 -26 5 -42 22 -88 92 -32 47 -77 106 -101 132 -56 60
-96 171 -124 350 -46 286 -100 459 -152 486 -39 20 -45 17 -20 -9 12 -13 25
-38 28 -57 l7 -35 -28 25 c-15 14 -35 41 -46 61 -10 20 -30 45 -45 56 -25 18
-26 25 -39 182 -9 101 -20 174 -30 193 -8 17 -15 46 -15 64 0 67 -75 92 -174
58 -26 -9 -50 -13 -53 -10 -4 3 -16 -2 -27 -13 -24 -21 -80 -28 -141 -17 -30
6 -45 16 -58 37 -16 29 -16 30 14 57 30 26 30 28 15 57 -9 17 -16 46 -16 66 0
27 -8 43 -35 69 -35 34 -35 34 -35 124 1 57 6 100 14 115 9 16 12 44 9 80 -5
48 -2 59 16 75 28 25 27 36 -5 36 -20 0 -25 4 -20 16 3 9 6 20 6 25 0 6 8 8
19 4 44 -14 109 82 66 99 -32 12 -4 106 45 151 27 25 50 67 50 95 0 22 10 26
27 9 33 -33 55 126 23 168 -24 32 -15 73 16 73 20 0 24 5 24 33 0 47 28 127
55 157 12 14 28 41 34 61 6 20 25 49 42 65 43 41 52 60 61 129 13 110 18 122
59 149 41 28 74 89 63 115 -3 9 -8 57 -9 107 -2 51 -8 101 -14 112 -21 39 -13
145 14 204 14 29 28 69 31 88 4 19 12 43 19 53 11 15 7 28 -20 82 -17 35 -38
71 -44 79 -20 24 14 72 70 96 26 11 56 20 65 20 10 0 31 12 46 27 26 25 28 25
28 7 0 -32 8 -34 67 -13 31 10 72 19 92 19 20 0 42 4 50 9 9 6 25 2 45 -9 18
-10 62 -20 106 -23 54 -5 78 -11 87 -24 15 -20 18 -179 4 -215 -6 -16 -4 -34
4 -53 12 -28 10 -32 -23 -67 -32 -34 -34 -40 -24 -63 18 -38 15 -65 -6 -65
-23 0 -46 -58 -31 -77 6 -7 23 -13 36 -13 19 0 28 -8 40 -40 18 -45 33 -38 33
17 0 27 5 34 26 39 38 10 184 -2 216 -16 40 -19 205 3 231 31 40 43 94 15 161
-86 18 -27 26 -34 26 -21 0 14 5 17 23 12 12 -3 25 -6 30 -6 4 0 5 -11 1 -25
-5 -22 -3 -25 20 -25 40 0 69 -23 131 -106 31 -41 61 -74 68 -73 31 4 49 -4
98 -41 30 -22 59 -40 65 -40 7 0 11 15 10 38 -1 23 4 37 11 37 15 0 29 -24
117 -195 36 -69 76 -143 90 -165 l25 -40 -6 60 c-4 44 -12 67 -29 86 -13 14
-24 34 -24 45 0 12 -9 29 -20 39 -12 11 -20 31 -20 50 0 18 -10 45 -22 61 -19
24 -23 41 -23 100 0 61 3 76 23 97 l22 24 -24 11 c-13 6 -34 31 -46 57 -14 29
-37 55 -62 71 -47 30 -67 66 -49 88 8 9 10 24 5 38 -7 21 -13 75 -15 122 0 11
-18 42 -39 69 -22 27 -40 56 -40 64 0 7 -9 31 -19 52 -13 24 -16 42 -11 52 5
8 7 47 3 87 l-6 73 59 -6 c50 -6 66 -4 92 12 18 11 28 23 23 29 -16 17 -23 54
-10 54 6 0 30 9 53 21 35 17 46 31 73 89 23 51 40 75 65 90 28 16 37 30 47 72
18 70 28 88 50 88 9 0 36 16 58 35 34 29 53 36 114 45 41 6 85 16 99 22 14 6
31 11 37 9 7 -1 27 6 44 15 19 10 43 14 61 10 20 -4 30 -1 35 9 4 13 12 11 49
-10 33 -19 65 -27 136 -34 131 -12 208 -4 230 23 l17 21 38 -21 c47 -27 158
-30 185 -6 10 8 23 12 31 9 8 -3 20 -1 27 3 8 5 22 4 33 -1 14 -8 23 -6 37 6
16 14 21 14 61 0 24 -9 52 -19 62 -22 17 -5 24 -23 29 -77 2 -24 9 -31 36 -38
28 -8 36 -5 52 14 11 13 19 30 20 39 0 23 42 48 97 58 39 8 57 19 101 66 l55
56 -5 91 c-5 86 -4 93 18 115 20 19 22 28 13 50 -7 20 -6 30 7 44 10 11 12 19
6 19 -5 0 -27 22 -47 50 l-37 50 22 34 c14 23 30 36 48 38 19 2 27 9 27 23 0
16 -8 21 -35 23 -19 2 -41 9 -48 15 -11 8 -8 14 15 25 42 22 63 43 63 64 0 10
7 29 16 43 20 31 21 78 2 107 -9 14 -38 32 -69 42 -66 23 -122 86 -108 124 5
12 13 22 19 22 5 0 10 11 10 24 0 22 -5 25 -87 37 -107 15 -163 40 -163 72 0
32 -51 109 -84 127 -15 8 -36 31 -47 51 -11 23 -28 39 -44 43 -26 7 -27 8 -26
99 1 51 -3 134 -9 185 -10 89 -9 94 15 142 21 41 25 64 25 131 0 95 -16 127
-83 161 -102 51 -156 97 -186 157 -25 50 -35 59 -70 69 -34 11 -41 17 -47 47
-3 19 -29 65 -58 103 -28 39 -68 97 -88 131 -20 33 -41 61 -47 61 -5 0 -23
-12 -40 -26 -28 -23 -31 -24 -31 -7 0 16 -12 22 -61 31 -33 6 -81 21 -105 33
-25 12 -54 19 -66 16 -12 -3 -34 1 -50 9 -32 17 -91 12 -118 -9 -9 -7 -16 -27
-15 -47 0 -31 -3 -35 -37 -43 -33 -8 -38 -13 -38 -37 0 -15 -9 -39 -20 -53
-11 -14 -20 -35 -20 -46 0 -51 -49 -88 -78 -59 -9 9 -28 5 -79 -17 -83 -35
-93 -42 -110 -82 -8 -21 -18 -30 -27 -27 -22 8 -48 54 -42 71 10 25 -14 43
-58 43 -22 0 -61 9 -85 21 -25 11 -50 18 -57 15 -14 -6 -69 52 -79 83 -6 20
-15 24 -70 36 -27 5 -36 -1 -83 -49 l-53 -54 -44 14 c-44 13 -45 13 -59 -14
-7 -15 -17 -41 -20 -57 -5 -23 -19 -37 -57 -59 -37 -21 -50 -33 -46 -46 4 -14
-7 -21 -52 -36 -48 -15 -70 -32 -146 -110 l-90 -92 -45 24 c-25 13 -50 24 -57
24 -16 0 -18 73 -3 100 6 10 6 28 2 40 -10 28 25 105 55 121 14 7 23 22 23 35
0 13 9 28 20 34 22 12 24 36 14 163 -6 70 -9 77 -33 86 -51 19 -58 28 -38 48
40 42 67 77 67 84 0 5 7 9 15 9 8 0 25 21 38 46 20 41 20 47 6 57 -14 10 -14
17 -3 47 7 19 13 49 13 66 1 23 11 42 37 67 35 33 35 35 15 42 -29 9 -61 75
-61 128 0 23 -4 47 -9 53 -4 5 -13 24 -19 42 -11 31 -10 34 18 50 34 19 40 55
14 83 -14 16 -19 16 -57 3 -37 -13 -42 -13 -61 5 -20 19 -53 26 -108 23 -14
-1 -47 -18 -73 -38 -45 -34 -48 -35 -72 -19 -25 17 -77 13 -88 -6 -9 -14 -65
19 -65 39 0 9 -9 23 -20 30 -11 7 -20 21 -20 32 0 11 -5 29 -12 39 -18 29 4
70 41 77 30 6 40 28 56 129 4 22 9 53 12 69 5 27 4 28 -19 23 -27 -7 -62 23
-108 93 -46 69 -94 91 -106 46 -6 -24 -74 -76 -101 -76 -13 0 -15 8 -10 44 7
47 -11 76 -47 76 -9 0 -19 7 -22 15 -6 16 -51 20 -70 7z"/>
<path d="M5650 4495 c0 -2 11 -29 25 -60 21 -48 31 -59 70 -76 55 -25 67 -19
37 19 -12 15 -31 43 -41 63 -11 19 -31 40 -46 47 -27 12 -45 15 -45 7z"/>
<path d="M5842 4207 c-13 -16 -4 -88 12 -99 19 -13 23 -9 29 34 8 61 -15 97
-41 65z"/>
<path d="M2853 3050 c-13 -5 -23 -18 -23 -29 0 -11 -9 -25 -20 -31 -20 -11
-27 -51 -14 -83 9 -23 116 98 112 126 -3 25 -22 30 -55 17z"/>
<path d="M4083 2851 c-10 -38 -10 -39 23 -49 l34 -10 0 39 c0 28 -5 41 -19 49
-28 14 -27 14 -38 -29z"/>
<path d="M4068 2721 c-30 -5 -36 -9 -28 -21 5 -8 10 -36 10 -62 0 -27 4 -48
10 -48 18 0 78 60 90 91 11 26 11 32 -1 40 -15 9 -24 9 -81 0z"/>
<path d="M2612 2648 c-14 -14 -16 -44 -3 -53 13 -7 41 34 34 51 -6 17 -15 18
-31 2z"/>
<path d="M3830 752 c0 -10 -7 -27 -15 -40 -17 -24 -11 -44 23 -75 32 -29 48
-13 50 52 2 53 -1 59 -24 69 -33 15 -34 15 -34 -6z"/>
<path d="M3576 671 c-39 -10 -72 -23 -74 -29 -4 -13 41 -27 62 -19 7 3 23 -1
35 -9 20 -14 22 -13 31 11 6 15 15 35 20 46 12 22 16 22 -74 0z"/>
<path d="M3955 575 c-16 -7 -50 -18 -75 -22 l-45 -9 32 -20 c34 -20 43 -39 43
-91 0 -26 4 -33 20 -33 12 0 25 10 32 25 7 16 19 25 33 25 53 0 64 55 21 113
-22 31 -21 30 -61 12z"/>
</g>
</svg>
