<?xml version="1.0" standalone="no"?>
<!DOCTYPE svg PUBLIC "-//W3C//DTD SVG 20010904//EN"
 "http://www.w3.org/TR/2001/REC-SVG-20010904/DTD/svg10.dtd">
<svg version="1.0" xmlns="http://www.w3.org/2000/svg"
 width="1024.000000pt" height="1024.000000pt" viewBox="0 0 1024.000000 1024.000000"
 preserveAspectRatio="xMidYMid meet">
<metadata>
Created by potrace 1.10, written by Peter Selinger 2001-2011
</metadata>
<g transform="translate(0.000000,1024.000000) scale(0.100000,-0.100000)"
fill="#000000" stroke="none">
<path d="M27 8364 c-4 -4 -7 -412 -7 -906 0 -592 -3 -898 -10 -898 -7 0 -10
-630 -10 -1870 l0 -1870 3749 0 3749 0 12 -37 c17 -53 57 -92 107 -105 23 -5
79 -34 124 -64 67 -45 183 -94 220 -94 6 0 33 -24 62 -53 64 -65 135 -94 176
-72 35 18 95 82 115 122 17 34 47 48 101 45 17 -1 127 -4 245 -8 118 -3 223
-10 232 -15 12 -6 25 -2 46 16 30 25 52 31 66 18 4 -4 42 -8 85 -9 102 -2 118
-8 133 -50 9 -26 29 -46 82 -79 63 -41 93 -51 136 -47 8 1 34 -1 58 -4 36 -4
47 -11 64 -40 16 -28 23 -32 38 -24 26 14 56 12 69 -3 6 -8 29 -19 52 -26 29
-9 46 -22 61 -47 18 -31 24 -34 68 -34 31 0 54 -6 64 -16 20 -19 20 -27 1 -65
-20 -37 -11 -55 51 -105 27 -23 47 -48 51 -65 8 -43 26 -53 62 -35 16 9 32 16
35 16 3 0 21 -16 40 -35 41 -40 85 -52 49 -13 -16 18 -22 40 -25 103 -3 46
-12 93 -21 111 -9 17 -53 69 -97 114 l-81 83 7 46 c3 25 12 53 19 61 7 8 18
32 25 53 6 20 15 37 19 37 5 0 20 11 35 25 23 22 26 31 26 94 0 60 3 72 21 85
18 12 21 21 16 53 -5 29 -2 42 13 58 20 22 20 22 0 40 -30 27 -25 52 18 79 27
16 42 36 51 64 13 37 12 43 -8 70 -16 23 -21 45 -21 96 l0 65 -30 -5 c-16 -4
-44 -1 -61 6 -28 12 -30 16 -25 45 5 27 3 33 -14 38 -20 5 -26 30 -14 61 4 11
14 13 33 10 25 -5 29 -3 35 26 12 62 7 116 -14 143 -11 14 -20 35 -20 46 0 15
-6 21 -23 21 -34 0 -38 9 -21 43 12 23 14 35 5 54 -6 13 -11 26 -11 28 0 3 43
5 95 5 l95 0 0 1708 0 1707 -31 53 c-18 32 -40 57 -57 63 -15 6 -45 19 -67 30
-22 10 -47 19 -55 19 -73 0 -146 60 -181 148 -43 109 -69 153 -104 173 -42 25
-49 46 -35 98 14 54 49 93 141 157 101 71 143 119 191 220 32 65 42 100 46
153 l4 68 -1343 7 c-739 4 -2419 6 -3734 6 -1314 -1 -2469 -1 -2565 -1 -1860
9 -2407 10 -2413 5z"/>
</g>
</svg>
