<?xml version="1.0" standalone="no"?>
<!DOCTYPE svg PUBLIC "-//W3C//DTD SVG 20010904//EN"
 "http://www.w3.org/TR/2001/REC-SVG-20010904/DTD/svg10.dtd">
<svg version="1.0" xmlns="http://www.w3.org/2000/svg"
 width="1024.000000pt" height="1024.000000pt" viewBox="0 0 1024.000000 1024.000000"
 preserveAspectRatio="xMidYMid meet">
<metadata>
Created by potrace 1.10, written by Peter Selinger 2001-2011
</metadata>
<g transform="translate(0.000000,1024.000000) scale(0.100000,-0.100000)"
fill="#000000" stroke="none">
<path d="M3473 10224 c-22 -57 74 -122 182 -124 l60 -1 105 -121 c64 -74 162
-169 252 -246 82 -69 146 -127 145 -129 -10 -9 -123 48 -212 108 -71 47 -106
78 -122 105 -12 22 -43 59 -68 84 -25 25 -62 71 -82 104 -36 58 -36 58 -76 53
-29 -4 -53 1 -91 19 -28 13 -70 28 -93 34 -40 10 -42 12 -54 65 -14 62 -12 61
-105 41 -50 -11 -76 -10 -157 2 l-97 15 -53 -50 c-28 -27 -69 -61 -89 -77
l-37 -28 32 -56 c17 -31 34 -74 37 -96 l5 -40 65 -14 c54 -11 73 -21 110 -58
26 -25 71 -54 105 -68 33 -13 85 -38 115 -55 30 -17 63 -31 74 -31 15 0 13 6
-14 36 -17 20 -29 39 -26 41 3 3 29 -11 58 -31 29 -21 75 -53 102 -72 56 -39
72 -42 81 -13 5 16 -3 31 -34 63 -44 45 -53 76 -22 76 33 0 279 -139 410 -232
125 -88 135 -92 181 -79 17 6 31 3 43 -8 16 -14 20 -14 28 -1 23 39 28 43 50
37 22 -6 362 -216 384 -238 5 -5 -4 -9 -25 -9 -37 0 -103 27 -148 59 -15 10
-65 35 -112 56 -74 33 -94 37 -154 36 -40 -1 -82 -9 -100 -18 -118 -61 -315
-95 -330 -57 -11 28 -6 41 19 52 30 14 26 23 -27 84 -32 37 -35 38 -133 49
-94 10 -107 14 -211 70 -90 48 -120 59 -158 59 -43 0 -46 -2 -37 -19 11 -20
171 -123 252 -161 38 -19 50 -31 67 -72 l21 -50 -47 -19 c-41 -17 -50 -27 -70
-72 l-23 -53 -99 -33 -100 -32 0 -92 0 -92 73 -46 73 -46 12 -66 c11 -62 10
-75 -13 -169 -17 -69 -37 -120 -59 -153 -25 -37 -40 -81 -61 -170 -15 -66 -31
-127 -36 -136 -4 -9 -29 -22 -55 -29 -33 -10 -71 -35 -134 -89 -47 -42 -101
-83 -117 -93 l-31 -16 -1 -196 0 -195 36 -77 35 -77 -13 -136 c-11 -121 -15
-140 -39 -173 -17 -23 -30 -57 -34 -88 -7 -49 -8 -51 -66 -80 l-60 -30 0 -103
c0 -100 -1 -103 -31 -140 -29 -36 -31 -42 -27 -100 4 -53 1 -70 -22 -117 -21
-42 -29 -77 -35 -150 -7 -83 -11 -101 -38 -139 l-30 -45 21 -37 c14 -25 22
-55 22 -86 0 -26 5 -64 10 -83 10 -32 7 -43 -31 -122 l-43 -87 48 -62 c46 -59
47 -63 41 -109 -8 -60 -31 -74 -109 -68 -45 4 -63 11 -86 33 -41 40 -46 62
-21 96 26 35 26 41 2 63 -14 12 -20 37 -25 102 -5 73 -3 92 14 131 11 25 20
66 20 91 0 38 6 52 31 78 20 21 32 45 36 73 5 39 4 42 -26 52 -17 6 -31 17
-31 25 0 8 19 51 41 97 l41 82 -55 -60 c-38 -42 -60 -76 -72 -114 -9 -30 -35
-79 -57 -109 l-40 -54 9 -104 c5 -61 5 -108 0 -113 -17 -17 44 -320 124 -626
82 -316 119 -524 119 -676 0 -71 -2 -80 -15 -69 -9 8 -15 8 -15 2 0 -6 29
-203 65 -439 59 -384 65 -437 59 -520 -7 -91 -6 -93 19 -113 26 -20 47 -88 47
-150 0 -51 -15 -34 -51 57 -21 53 -41 89 -51 91 -12 2 -1 -45 53 -225 58 -191
69 -240 69 -300 0 -64 -4 -79 -31 -123 l-31 -50 28 -167 c24 -149 36 -191 101
-368 44 -117 88 -218 107 -245 24 -32 46 -89 80 -206 45 -155 46 -162 32 -201
-14 -39 -13 -42 9 -63 16 -15 27 -42 35 -87 14 -81 38 -147 80 -215 30 -49 32
-57 27 -119 -5 -62 -4 -69 19 -90 14 -13 33 -52 45 -93 12 -39 36 -91 54 -116
21 -28 36 -63 40 -92 6 -42 12 -50 51 -73 24 -14 44 -30 44 -35 0 -5 12 -16
28 -24 15 -8 53 -46 86 -85 47 -57 64 -71 87 -71 40 0 75 -16 124 -56 33 -27
58 -37 106 -45 35 -6 78 -19 96 -30 24 -15 41 -18 68 -13 32 6 40 3 71 -27 29
-28 40 -33 76 -30 22 1 50 7 60 12 23 12 48 -4 48 -31 0 -26 19 -30 154 -30
97 0 135 -4 184 -21 l61 -21 60 46 59 46 84 0 c77 0 87 2 108 25 13 14 29 25
36 25 7 0 22 13 33 29 11 15 33 31 49 34 15 3 53 26 84 52 54 44 58 46 105 39
46 -6 49 -5 58 21 9 24 29 34 175 87 146 53 182 62 315 79 83 10 155 19 162
19 6 0 20 13 29 29 14 23 30 33 73 43 48 12 58 18 73 48 32 66 58 80 58 30 0
-16 3 -30 7 -30 3 0 27 13 52 29 32 20 65 31 108 35 73 8 162 45 218 90 22 18
63 45 90 61 28 16 75 49 105 75 30 25 78 62 106 83 28 20 69 58 90 83 28 35
57 56 113 81 41 19 90 47 108 64 19 16 52 38 74 49 89 46 177 147 307 354 125
198 142 234 142 294 0 18 7 43 15 56 8 12 33 65 56 117 34 79 41 104 40 157
-2 54 2 68 28 105 21 31 31 59 36 106 3 36 17 85 30 111 13 25 28 81 34 124 6
42 18 90 27 107 13 26 14 44 4 127 -6 53 -18 122 -25 152 -11 44 -12 93 -5
246 5 105 12 197 15 206 19 49 -122 513 -155 513 -9 0 -22 -22 -34 -60 -11
-32 -21 -55 -22 -50 -2 6 -8 29 -14 52 -10 40 -12 42 -37 32 -32 -12 -38 -7
-22 18 9 16 7 27 -11 63 l-22 44 21 17 21 18 -21 15 c-20 14 -21 21 -15 78 8
79 -14 147 -62 189 -36 32 -62 38 -62 14 0 -8 -4 -15 -9 -15 -12 0 -21 25 -21
59 0 19 -15 42 -54 81 -32 31 -56 64 -58 79 -2 19 -11 27 -37 34 -22 5 -37 5
-44 -2 -14 -14 -28 -14 -63 -1 l-27 11 24 25 c22 24 29 26 82 20 71 -7 72 -8
98 -57 l20 -40 32 18 c23 14 33 27 35 49 3 27 -6 39 -68 94 -39 35 -84 82
-100 105 -21 31 -38 44 -63 49 -28 5 -37 15 -65 71 -37 75 -44 149 -16 170 15
10 11 16 -29 49 -25 20 -48 43 -50 50 -3 8 6 29 20 49 21 30 23 38 13 57 -10
18 -17 21 -45 16 -28 -6 -36 -3 -45 14 -6 12 -21 20 -36 20 -19 0 -26 6 -31
30 -3 18 -21 44 -44 64 -37 31 -39 36 -39 88 0 50 -3 56 -26 67 -24 11 -30 9
-54 -14 -38 -37 -56 -32 -85 24 -13 27 -34 52 -45 56 -16 5 -20 15 -19 43 3
95 12 92 59 -16 24 -56 46 -102 50 -102 3 0 11 5 17 11 14 14 6 184 -10 214
-6 11 -34 108 -62 215 l-51 195 -36 3 c-49 4 -71 37 -62 92 4 22 9 40 13 40 3
0 14 -20 24 -45 13 -31 25 -45 38 -45 10 0 19 5 19 11 0 5 -18 78 -40 162 -32
117 -46 157 -65 172 -13 11 -31 35 -39 53 -17 33 -30 40 -42 21 -3 -6 -20 -17
-38 -24 -27 -12 -30 -17 -27 -50 2 -29 -3 -43 -25 -66 -32 -34 -43 -35 -129
-13 -61 15 -65 18 -71 49 -5 28 -13 36 -54 53 l-48 20 -33 -24 c-28 -21 -35
-22 -47 -10 -12 12 -11 18 3 40 29 44 46 47 104 20 29 -13 63 -24 76 -24 30 0
39 33 14 56 -12 11 -19 31 -19 56 0 34 3 38 25 38 21 0 26 -6 31 -39 6 -37 8
-39 30 -29 36 17 32 62 -11 126 -20 28 -42 52 -50 52 -27 0 -16 17 15 23 26 6
30 11 30 39 0 26 -8 39 -35 61 -19 15 -49 55 -66 88 -24 48 -33 58 -43 50 -17
-14 -26 14 -26 80 0 46 -1 47 -74 102 -63 48 -81 68 -117 135 -35 65 -50 83
-87 103 -41 22 -47 30 -66 90 -18 57 -30 74 -82 123 -34 31 -64 56 -68 56 -3
0 -6 -10 -6 -23 0 -30 -36 -63 -77 -72 -59 -12 -100 40 -51 66 14 8 18 14 10
17 -6 2 -12 16 -12 31 0 22 -12 36 -65 74 -36 26 -65 51 -65 57 0 5 19 10 43
10 37 0 48 -6 82 -40 41 -42 71 -51 82 -24 4 10 -10 32 -40 62 -31 31 -58 74
-81 127 -34 77 -36 80 -66 77 -28 -3 -30 -1 -30 27 0 29 -2 31 -39 31 -44 0
-70 20 -48 38 10 8 26 7 62 -3 26 -8 50 -13 52 -11 2 1 -31 73 -73 160 -56
115 -81 156 -94 156 -10 0 -26 3 -35 7 -14 5 -16 2 -10 -17 7 -23 6 -23 -31 6
-22 17 -53 36 -71 43 -26 11 -53 50 -53 77 0 13 41 -1 74 -26 31 -23 42 -27
58 -19 17 9 1 29 -152 189 -139 145 -197 197 -303 274 -73 52 -250 186 -395
298 l-263 204 -134 172 c-91 118 -139 188 -150 222 l-17 50 -139 0 c-119 0
-141 -2 -146 -16z"/>
<path d="M2754 10059 c-15 -8 -23 -27 -32 -80 -17 -96 -16 -104 16 -141 16
-18 32 -44 35 -58 17 -63 54 -80 179 -80 l103 0 -70 51 c-39 28 -73 58 -76 67
-3 8 -25 20 -50 26 l-44 11 -3 64 c-2 35 2 77 8 94 5 17 7 34 3 38 -15 14 -48
17 -69 8z"/>
<path d="M2607 9632 c-7 -57 5 -70 68 -74 l55 -3 0 38 c0 36 -2 38 -28 36 -17
-2 -40 6 -59 19 l-31 22 -5 -38z"/>
<path d="M2200 9456 l0 -64 44 -26 c99 -58 161 -41 144 40 -9 43 -24 54 -74
54 -12 0 -38 14 -59 30 -21 17 -42 30 -46 30 -5 0 -9 -29 -9 -64z"/>
<path d="M2403 8333 c-81 -3 -93 -6 -93 -22 0 -21 53 -49 155 -81 95 -31 226
-111 271 -166 l37 -45 26 25 25 26 -39 40 -40 41 53 -7 c28 -3 52 -4 52 -1 0
2 -34 31 -77 62 -71 54 -239 138 -266 133 -7 -1 -54 -4 -104 -5z"/>
</g>
</svg>
