<?xml version="1.0" standalone="no"?>
<!DOCTYPE svg PUBLIC "-//W3C//DTD SVG 20010904//EN"
 "http://www.w3.org/TR/2001/REC-SVG-20010904/DTD/svg10.dtd">
<svg version="1.0" xmlns="http://www.w3.org/2000/svg"
 width="1024.000000pt" height="1024.000000pt" viewBox="0 0 1024.000000 1024.000000"
 preserveAspectRatio="xMidYMid meet">
<metadata>
Created by potrace 1.10, written by Peter Selinger 2001-2011
</metadata>
<g transform="translate(0.000000,1024.000000) scale(0.100000,-0.100000)"
fill="#000000" stroke="none">
<path d="M7568 10212 c-47 -27 -48 -27 -48 -79 0 -51 1 -53 39 -72 39 -21 51
-37 51 -73 0 -11 7 -35 16 -54 13 -28 14 -39 4 -63 -9 -24 -9 -34 4 -60 15
-28 15 -34 1 -61 -8 -16 -15 -36 -15 -44 0 -20 -79 -66 -114 -66 -15 0 -41 -7
-59 -17 -18 -9 -54 -22 -82 -29 -47 -13 -52 -12 -79 7 -27 20 -30 21 -63 5
-18 -9 -43 -16 -55 -16 -12 0 -30 -7 -39 -16 -15 -14 -23 -15 -47 -5 -21 9
-36 9 -57 1 -23 -9 -31 -7 -47 7 -19 17 -21 17 -43 -11 -22 -28 -25 -29 -47
-14 -22 15 -28 13 -112 -29 -80 -40 -93 -44 -136 -38 -36 5 -51 12 -61 31 -16
32 -116 114 -138 114 -9 0 -36 14 -61 30 -27 18 -58 30 -78 30 -18 0 -47 7
-63 16 -22 11 -43 13 -71 9 -32 -6 -42 -13 -50 -37 -9 -25 -14 -29 -37 -23
-14 4 -27 7 -27 8 -1 1 -11 22 -24 46 -20 40 -24 43 -52 37 -17 -3 -36 -2 -42
3 -6 5 -22 11 -36 13 -22 3 -29 15 -56 93 -30 90 -30 90 -66 93 -28 2 -40 -2
-51 -19 -13 -18 -22 -21 -59 -15 -27 4 -61 1 -90 -9 l-48 -14 0 30 c0 22 -6
32 -25 41 -22 10 -28 9 -41 -10 -8 -12 -21 -22 -28 -22 -8 0 -19 -6 -25 -14
-11 -13 -18 -12 -55 4 l-43 18 -27 -24 c-21 -20 -26 -34 -26 -69 0 -46 -7 -54
-27 -34 -9 9 -19 7 -39 -8 -27 -20 -28 -20 -60 -1 l-33 19 -16 -24 c-12 -18
-27 -26 -65 -30 -27 -3 -62 -15 -77 -26 -16 -10 -50 -22 -78 -26 -27 -4 -57
-13 -66 -21 -13 -12 -23 -11 -72 6 -82 29 -139 26 -203 -10 l-53 -30 -26 26
c-21 21 -32 25 -57 20 -17 -3 -37 -6 -44 -6 -8 0 -19 -20 -25 -46 l-12 -46
-141 6 c-223 10 -329 7 -347 -10 -11 -10 -18 -41 -23 -107 -7 -91 -21 -137
-42 -144 -6 -2 -25 8 -42 22 l-31 26 -16 -37 c-24 -58 -31 -61 -193 -57 -142
3 -146 3 -173 29 -23 22 -37 27 -82 26 -47 0 -58 -4 -85 -32 l-31 -31 -39 26
-40 26 -43 -29 c-24 -16 -63 -40 -86 -53 -29 -16 -43 -32 -47 -51 -3 -16 -12
-28 -21 -28 -8 0 -17 -10 -20 -23 -4 -13 -19 -31 -35 -40 -18 -11 -30 -28 -34
-51 -9 -49 -27 -60 -90 -53 -52 5 -55 4 -92 -35 -58 -59 -78 -64 -123 -29 -31
25 -44 29 -91 27 -43 -1 -63 -7 -90 -28 -20 -15 -54 -31 -77 -36 -36 -8 -46
-7 -75 13 l-32 22 -18 -23 c-11 -13 -34 -25 -58 -29 -23 -4 -46 -15 -54 -27
-13 -19 -13 -23 5 -37 10 -9 21 -29 24 -46 5 -24 0 -36 -25 -62 -42 -44 -64
-46 -38 -3 10 16 10 23 -4 36 -16 16 -16 19 2 44 19 27 19 27 -5 50 l-24 23
-35 -29 c-56 -47 -56 -74 -1 -156 l47 -70 -7 -77 c-6 -64 -12 -81 -35 -106
-15 -16 -42 -52 -60 -79 l-33 -49 -53 6 c-49 5 -54 4 -54 -14 0 -10 -4 -19 -9
-19 -19 0 -45 -56 -42 -93 2 -33 -5 -47 -44 -95 -46 -55 -47 -58 -40 -108 5
-42 2 -60 -15 -94 -12 -23 -19 -48 -16 -55 2 -7 0 -31 -6 -53 -10 -38 -12 -40
-68 -52 -31 -7 -66 -9 -78 -6 -11 4 -31 1 -45 -5 -19 -8 -34 -9 -57 -1 l-31
11 -31 -64 -32 -65 -44 0 c-38 0 -43 -2 -37 -17 5 -10 10 -34 13 -53 2 -20 21
-58 43 -87 39 -52 50 -98 29 -119 -6 -6 -33 -9 -60 -6 l-50 5 0 -32 c0 -18 5
-41 11 -52 8 -16 5 -26 -19 -54 -16 -18 -32 -39 -35 -47 -4 -11 -7 -11 -18 0
-11 10 -15 8 -24 -17 l-10 -29 -90 29 c-49 15 -97 28 -105 28 -19 1 110 -85
136 -91 15 -3 19 -11 18 -43 -1 -23 -8 -43 -18 -50 -9 -7 -16 -23 -16 -37 0
-27 42 -48 98 -48 22 0 32 -5 32 -15 0 -9 -9 -15 -22 -15 -21 0 -21 -1 5 -28
29 -30 27 -42 -8 -42 -20 0 -22 -4 -16 -29 3 -16 18 -39 33 -51 16 -12 28 -31
28 -42 0 -12 11 -41 25 -64 27 -45 26 -45 137 -59 47 -6 58 -17 58 -58 0 -24
176 -217 197 -217 7 0 26 -19 43 -42 24 -33 30 -51 30 -93 0 -36 6 -60 18 -75
21 -26 42 -20 42 11 0 19 1 19 31 4 17 -9 33 -14 36 -11 11 10 -7 37 -37 54
-36 20 -37 32 -7 68 23 27 24 27 43 7 10 -11 33 -23 49 -27 17 -4 37 -14 46
-22 14 -13 18 -13 29 1 16 19 37 19 47 0 5 -7 27 -17 50 -21 41 -6 43 -5 64
30 17 30 24 34 36 25 26 -22 37 -53 37 -111 1 -45 6 -61 24 -81 16 -17 21 -30
15 -40 -6 -12 -13 -9 -33 19 -32 43 -58 44 -66 4 -7 -32 -21 -39 -30 -15 -4 8
-12 15 -20 15 -10 0 -13 7 -8 26 6 24 4 25 -15 19 -15 -4 -26 -2 -34 8 -14 19
-75 26 -85 11 -4 -6 -14 -13 -24 -17 -12 -4 -18 2 -23 21 l-7 27 -23 -27 c-26
-30 -62 -37 -71 -13 -8 21 -21 19 -34 -5 -9 -17 -7 -28 9 -54 26 -41 26 -42 1
-49 -11 -3 -25 -19 -31 -36 -12 -35 -29 -32 -29 5 0 36 -18 30 -66 -22 -39
-41 -84 -132 -84 -168 0 -8 -6 -19 -14 -25 -11 -9 -14 -35 -14 -97 1 -83 8
-101 27 -66 27 46 28 46 60 11 28 -32 30 -32 31 -11 0 12 6 22 14 22 7 0 19 7
26 15 17 21 47 11 91 -32 33 -32 37 -33 42 -14 3 13 -4 27 -19 42 -28 26 -30
47 -9 75 8 10 15 22 15 26 0 12 -39 -4 -56 -23 -17 -18 -17 -18 -30 6 -11 21
-11 32 0 63 7 21 10 48 6 63 -6 19 -3 29 11 37 16 10 19 9 19 -6 0 -10 3 -21
6 -24 11 -12 69 12 91 37 12 14 24 25 26 25 11 0 37 -84 37 -118 1 -53 30 -86
70 -77 27 6 30 4 30 -17 1 -13 7 -34 15 -48 8 -14 15 -50 16 -80 0 -30 4 -66
8 -79 l7 -24 38 34 39 34 -7 -57 c-6 -46 -3 -69 14 -117 18 -48 20 -63 10 -81
-9 -17 -9 -32 0 -65 16 -57 42 -64 82 -24 16 16 36 29 43 29 23 0 75 34 81 53
3 10 15 17 30 17 21 0 24 5 24 36 0 28 3 35 18 32 10 -2 18 -14 20 -32 3 -21
11 -31 33 -39 23 -9 29 -17 29 -42 0 -47 48 -89 89 -80 17 4 45 18 62 32 33
28 76 33 171 19 56 -8 57 -8 64 18 7 29 62 62 77 47 14 -14 66 -2 100 22 23
15 33 17 55 9 15 -6 41 -13 57 -17 42 -9 129 -51 145 -70 18 -21 30 -19 62 12
27 26 29 26 56 11 23 -14 89 -24 130 -19 8 1 12 14 11 39 -2 20 4 48 12 62 8
14 15 26 15 28 1 2 20 -9 42 -25 49 -35 82 -84 82 -121 0 -33 27 -62 57 -62
17 0 22 9 28 48 7 50 17 67 47 83 16 9 21 4 38 -33 22 -50 53 -82 93 -97 30
-12 35 -32 11 -52 -14 -11 -13 -14 8 -25 13 -8 44 -13 69 -14 41 0 48 -3 53
-25 7 -28 46 -36 46 -10 0 12 13 15 55 15 52 0 55 -1 55 -25 0 -34 42 -44 82
-20 25 15 32 15 39 4 5 -8 9 -20 9 -27 0 -8 8 -10 25 -6 30 7 75 -24 53 -37
-9 -6 -9 -11 0 -22 9 -11 6 -19 -16 -39 -58 -54 -77 -61 -150 -53 -37 4 -78
13 -92 20 -20 10 -30 10 -46 2 -31 -19 -84 -60 -84 -67 0 -3 27 -21 59 -40 53
-30 58 -35 49 -54 -29 -66 -104 -58 -186 20 -89 86 -191 160 -272 200 -68 33
-79 35 -120 27 -39 -7 -49 -6 -75 14 -17 12 -58 26 -94 32 -39 6 -72 18 -86
31 -12 11 -27 20 -33 20 -6 0 -18 13 -26 29 -19 35 -52 57 -109 72 -40 10 -46
15 -51 44 -6 28 -12 34 -44 40 -20 4 -57 7 -82 8 -25 1 -51 6 -58 11 -9 5 -21
1 -36 -13 -12 -12 -29 -21 -37 -21 -18 0 -63 -63 -86 -121 -26 -65 -43 -83
-96 -103 -59 -22 -113 -15 -175 25 -42 27 -47 28 -69 14 -21 -14 -24 -14 -35
5 -22 34 -28 23 -28 -49 0 -39 -4 -73 -10 -76 -5 -3 -10 -14 -10 -23 0 -9 -7
-30 -16 -47 -9 -16 -20 -43 -23 -60 -4 -17 -17 -35 -31 -42 -14 -7 -32 -20
-40 -30 -26 -32 -84 -71 -110 -75 -21 -2 -27 -11 -37 -53 -18 -81 -19 -80 50
-99 34 -10 77 -30 96 -44 19 -15 39 -30 43 -33 20 -13 36 -108 27 -150 -13
-55 3 -75 30 -40 l18 24 44 -31 c24 -17 71 -47 105 -67 50 -31 66 -47 87 -91
15 -30 49 -90 76 -134 28 -44 58 -108 67 -141 17 -61 17 -62 -6 -105 -12 -24
-42 -59 -65 -78 -53 -44 -65 -85 -55 -195 4 -45 9 -84 11 -86 2 -3 19 -22 37
-42 118 -136 116 -133 99 -146 -20 -15 -24 -48 -14 -107 6 -36 15 -50 42 -69
34 -23 36 -23 75 -7 30 12 40 13 40 3 0 -7 9 -29 20 -50 11 -20 20 -44 20 -52
0 -23 13 -18 46 18 40 42 58 85 44 102 -7 8 -10 59 -8 134 l3 122 48 31 c54
34 130 48 166 29 24 -13 27 -49 11 -116 -8 -35 -7 -42 12 -58 11 -9 29 -15 38
-12 13 4 32 -14 74 -68 31 -40 56 -83 56 -95 0 -38 62 -152 83 -152 17 0 17
-2 3 -22 -19 -27 -21 -79 -4 -126 11 -28 10 -38 -5 -64 -22 -38 -22 -82 0 -99
9 -8 17 -12 17 -10 1 2 17 -6 37 -18 27 -16 39 -31 43 -55 6 -30 36 -72 36
-50 0 5 5 38 11 74 8 54 7 70 -6 100 -11 24 -15 56 -13 95 3 58 4 60 30 58
l27 -2 -15 41 -14 40 25 -6 c18 -5 25 -2 25 8 0 8 -5 18 -10 21 -18 11 -10 51
15 75 14 13 25 34 25 47 0 15 12 31 39 49 36 24 43 25 76 14 20 -7 49 -10 64
-7 24 5 31 1 49 -32 14 -24 22 -56 22 -84 0 -25 5 -58 11 -74 l11 -28 13 24
13 24 6 -21 c4 -12 14 -22 22 -22 9 0 14 -11 14 -34 0 -29 5 -36 30 -45 22 -7
30 -16 30 -34 0 -13 8 -32 19 -41 18 -16 18 -18 0 -54 -28 -54 -25 -69 11 -64
24 3 30 9 30 28 0 34 36 51 61 28 10 -9 19 -24 19 -32 0 -30 23 -79 43 -91 15
-10 30 -10 68 -1 56 14 61 29 24 66 -35 35 -44 55 -38 85 4 21 -1 31 -22 45
-106 75 -125 114 -84 180 l21 34 -26 0 c-20 0 -26 5 -26 21 0 29 29 50 52 38
13 -7 18 -6 18 4 0 8 6 20 14 26 15 13 17 6 -34 111 -9 19 -23 60 -30 90 -7
30 -19 69 -26 86 -8 18 -11 47 -7 67 4 27 0 43 -16 66 -12 17 -20 35 -16 41 3
5 -4 27 -15 50 -17 34 -25 40 -52 40 l-31 0 7 54 c4 41 3 57 -7 63 -8 4 -17
23 -20 41 -4 18 -18 48 -32 66 -14 18 -25 40 -25 48 0 9 -7 21 -15 28 -8 7
-15 25 -15 40 0 18 -8 33 -23 43 -21 13 -25 26 -30 94 -3 44 -12 100 -19 126
-13 51 -6 68 38 81 17 5 23 0 32 -32 13 -41 72 -108 72 -80 0 24 24 28 85 15
53 -11 55 -12 55 -43 0 -40 10 -47 44 -34 20 7 26 6 26 -4 0 -16 21 -26 55
-26 13 0 31 -10 39 -22 21 -30 20 -41 -4 -33 -16 5 -20 2 -20 -19 0 -19 -5
-26 -20 -26 -36 0 -23 -40 30 -91 28 -27 54 -49 59 -49 17 0 32 29 26 52 -9
37 30 52 67 26 19 -13 40 -18 65 -16 50 4 49 22 -2 26 -22 2 -48 10 -57 19
-16 14 -16 17 0 39 13 19 23 22 45 18 15 -3 33 -1 40 4 7 5 52 12 101 15 82 5
105 13 106 39 0 3 -13 19 -29 34 -31 29 -31 54 -1 54 30 0 32 16 8 61 -20 40
-22 41 -31 21 -6 -12 -18 -24 -28 -27 -11 -4 -19 -15 -19 -26 0 -14 -5 -19
-17 -17 -11 2 -17 11 -15 22 2 11 -2 22 -8 26 -8 5 -5 22 10 59 25 65 25 77 0
84 -18 5 -90 -9 -90 -17 0 -2 7 -20 15 -39 8 -20 15 -43 15 -52 0 -38 -75 -29
-90 10 -6 16 -17 25 -32 25 -55 1 -86 59 -88 160 0 24 -6 39 -20 48 -23 14
-27 42 -6 42 8 0 22 7 31 17 23 22 13 69 -23 106 -26 27 -30 28 -88 22 l-62
-6 -4 31 c-3 17 -1 33 4 36 4 3 8 17 8 31 0 28 -7 27 89 7 23 -5 36 0 67 28
73 65 99 74 199 72 78 -1 90 -3 89 -18 -2 -14 5 -16 42 -10 39 6 44 4 44 -14
0 -15 -10 -22 -44 -31 -52 -13 -61 -23 -44 -50 19 -30 45 -32 77 -5 16 13 36
24 45 24 9 0 16 5 16 12 0 6 7 19 16 29 14 16 14 18 -5 24 -12 3 -21 12 -21
19 0 7 -11 26 -25 42 -19 22 -27 26 -37 16 -18 -18 -52 -16 -44 4 3 9 6 18 6
20 0 2 12 4 28 4 15 0 47 9 71 20 60 27 71 26 71 -10 0 -20 -5 -30 -15 -30 -8
0 -15 -6 -15 -12 0 -7 -3 -23 -6 -35 -5 -19 -2 -23 18 -23 14 0 35 -11 48 -25
16 -17 27 -22 34 -15 5 5 17 10 25 10 18 0 69 -85 88 -146 17 -56 37 -72 61
-50 24 21 26 20 67 -7 30 -19 35 -28 35 -60 0 -27 7 -45 25 -63 14 -14 25 -35
25 -48 0 -30 15 -42 66 -50 36 -6 43 -4 57 18 10 14 17 44 17 66 0 23 7 54 15
71 14 26 14 33 1 62 -8 17 -17 49 -21 71 -4 26 -12 40 -26 43 -23 6 -25 21 -4
29 21 9 19 32 -5 39 -26 8 -29 75 -4 75 13 0 15 6 9 28 -3 15 -11 29 -16 30
-5 2 -9 19 -9 37 0 19 -5 45 -11 58 -15 33 3 65 47 83 31 13 34 18 34 58 0 34
-5 49 -23 63 -12 10 -36 36 -52 59 -30 42 -71 62 -168 83 -21 5 -48 18 -61 30
-16 15 -35 21 -72 21 -57 0 -62 3 -93 50 -13 19 -34 44 -46 55 -13 11 -26 30
-30 43 -11 39 29 27 60 -18 17 -24 36 -40 48 -40 11 0 44 -8 73 -17 42 -13 59
-14 79 -5 17 8 33 8 51 2 41 -16 115 -12 136 7 17 15 19 15 32 -2 7 -10 18
-15 24 -11 16 9 16 -66 1 -81 -8 -8 1 -13 31 -18 23 -4 43 -12 45 -18 2 -7 6
-24 9 -40 6 -24 9 -26 26 -17 25 13 27 -5 5 -34 -23 -30 -18 -46 13 -46 52 0
82 -55 51 -94 -20 -25 -20 -25 0 -65 19 -36 25 -40 63 -43 34 -2 45 -8 55 -28
11 -23 9 -26 -32 -53 -33 -22 -45 -36 -45 -54 0 -21 4 -24 33 -21 27 2 33 8
35 31 4 36 42 39 42 4 0 -16 9 -28 25 -35 43 -20 58 -16 51 13 -14 56 59 35
84 -24 9 -22 19 -31 35 -31 26 0 55 24 55 44 0 7 8 24 19 37 14 19 19 45 22
119 l4 95 -70 1 c-45 0 -84 7 -110 18 -31 14 -46 16 -67 8 -20 -7 -30 -7 -38
3 -8 9 -8 15 0 20 17 11 11 25 -11 25 -23 0 -60 18 -71 34 -4 6 -8 33 -8 59 0
34 -6 57 -20 74 -13 17 -20 41 -20 69 0 32 -4 44 -15 44 -8 0 -15 9 -15 20 0
11 5 20 12 20 9 0 9 3 0 12 -19 19 -14 99 8 135 l20 33 -38 24 c-67 42 -86 97
-49 144 12 15 13 14 -48 43 -53 25 -145 33 -145 13 0 -20 -49 -26 -73 -9 -12
8 -30 15 -41 15 -39 0 -136 44 -136 62 0 10 -13 32 -29 50 -27 30 -31 32 -54
19 -28 -15 -99 -9 -105 9 -5 13 -90 70 -106 70 -17 0 -52 39 -65 73 -6 16 -11
49 -11 75 0 39 -4 49 -22 57 -13 6 -30 26 -39 45 -10 19 -31 46 -49 58 -31 24
-33 24 -76 7 -24 -9 -46 -20 -49 -25 -3 -5 -28 -6 -55 -3 -34 4 -50 2 -50 -6
0 -6 -8 -11 -19 -11 -13 0 -22 -12 -31 -44 -10 -36 -15 -43 -32 -38 -14 3 -21
-1 -25 -16 -3 -13 -19 -26 -42 -33 -47 -15 -127 -56 -163 -82 -37 -28 -38 -52
0 -43 15 4 45 9 67 12 83 11 88 13 82 39 -4 22 -1 25 23 25 18 0 33 -8 44 -25
20 -30 56 -41 85 -26 31 17 91 -18 136 -79 21 -28 48 -53 62 -56 13 -4 45 -28
70 -55 25 -27 53 -49 62 -49 24 0 41 -20 41 -47 0 -13 7 -26 16 -30 9 -3 24
-25 35 -49 15 -37 23 -44 46 -44 50 0 71 -11 88 -46 36 -77 -3 -134 -55 -79
-28 30 -40 32 -40 5 0 -30 -18 -27 -127 23 -21 9 -38 8 -75 -8 -10 -4 -18 -3
-18 3 0 6 14 13 31 17 41 9 36 39 -9 43 -19 2 -32 9 -32 17 0 7 -7 15 -16 17
-14 3 -13 7 5 30 17 21 19 32 12 51 -10 26 -42 43 -73 38 -9 -1 -22 7 -28 18
-7 14 -21 21 -41 21 -26 0 -29 -3 -24 -20 5 -15 2 -20 -13 -20 -11 0 -25 -7
-32 -15 -7 -8 -16 -15 -19 -15 -12 0 -51 77 -51 100 0 12 -8 35 -17 51 -15 26
-23 29 -65 29 -27 0 -65 7 -85 15 -20 9 -44 13 -52 10 -8 -3 -25 5 -38 17 -17
16 -34 22 -57 20 -29 -3 -37 2 -64 39 -17 23 -33 47 -35 52 -2 7 -18 2 -39
-11 -36 -22 -65 -27 -106 -16 -19 6 -22 11 -17 31 5 21 3 24 -15 18 -37 -12
-20 12 28 38 38 21 51 23 67 14 11 -6 38 -14 60 -18 22 -4 57 -10 77 -14 54
-11 84 0 96 34 10 27 12 28 51 21 36 -6 45 -3 88 27 32 23 53 47 65 76 22 55
23 81 2 73 -9 -3 -27 -9 -42 -13 l-26 -6 23 31 c22 31 22 32 5 68 -11 23 -29
41 -46 48 -23 8 -28 16 -28 43 0 27 -5 34 -27 39 -19 5 -30 2 -39 -10 -11 -15
-14 -10 -29 40 -19 66 -13 119 15 134 10 5 36 10 58 10 47 0 55 6 41 32 -8 14
-7 28 1 48 12 29 12 29 45 13 19 -9 36 -26 39 -40 6 -20 12 -23 59 -23 61 -1
100 -27 111 -75 4 -16 18 -44 32 -62 34 -44 30 -93 -7 -93 -10 0 -28 -13 -41
-30 -12 -16 -28 -30 -36 -30 -12 0 -12 3 -2 16 11 13 9 19 -13 42 -34 33 -48
22 -55 -46 -4 -48 -4 -49 29 -61 29 -10 37 -9 61 9 15 11 41 20 57 20 21 0 32
6 36 20 3 11 12 20 18 20 6 0 35 12 64 28 52 27 53 28 53 73 0 38 -6 54 -35
90 -19 24 -35 55 -35 69 0 15 -16 40 -40 65 -22 22 -40 45 -40 51 0 7 -19 36
-43 66 -24 29 -58 74 -75 100 -22 33 -43 50 -69 59 -53 17 -110 55 -124 81 -6
13 -20 33 -31 44 -15 17 -21 46 -29 125 -5 57 -11 114 -14 125 -3 12 -38 53
-78 90 -67 63 -74 73 -80 117 -9 62 -8 61 -68 94 -55 30 -73 60 -84 140 -3 26
-13 67 -21 90 -14 39 -14 44 5 82 12 22 21 54 21 71 0 36 45 129 71 148 29 20
25 70 -6 84 -14 6 -28 23 -32 37 -3 14 -15 41 -26 60 l-21 34 42 -6 c35 -6 43
-4 52 12 7 13 7 22 0 26 -13 8 -13 65 -1 65 6 0 12 -4 15 -9 3 -5 22 -11 41
-13 32 -4 35 -2 35 23 0 28 15 39 53 39 12 0 41 9 64 19 35 16 42 25 45 53 3
29 7 33 35 36 27 3 33 -1 39 -22 3 -13 3 -34 -1 -45 -4 -14 1 -30 14 -47 19
-24 19 -29 6 -54 -16 -31 -71 -45 -131 -34 -30 5 -34 4 -34 -15 0 -11 4 -21 9
-21 17 0 54 -62 60 -99 5 -31 10 -36 36 -39 51 -5 84 -23 106 -59 27 -44 113
-107 164 -121 22 -6 73 -23 113 -38 l72 -27 0 -67 c0 -37 -7 -84 -15 -104 -15
-35 -15 -36 13 -50 36 -18 57 -43 70 -85 10 -29 9 -37 -9 -59 l-20 -26 23 -9
c13 -5 40 -6 61 -4 28 4 55 -2 102 -24 58 -26 75 -29 166 -29 76 0 100 3 97
13 -3 6 -20 14 -39 17 -26 4 -35 10 -37 27 -2 16 -17 27 -56 42 -102 38 -177
96 -218 168 -17 29 -45 65 -63 79 -51 39 -56 90 -15 154 l32 49 41 -16 c23 -9
58 -31 77 -49 34 -31 37 -32 106 -27 l71 5 23 -46 c12 -26 44 -69 71 -95 27
-27 49 -56 49 -66 0 -31 53 -115 85 -135 18 -11 40 -38 50 -60 12 -27 23 -39
33 -35 7 3 25 5 39 5 22 0 24 3 18 31 -5 23 -2 36 13 52 31 36 35 57 10 66
-13 5 -17 10 -10 15 7 4 7 14 -3 33 -9 18 -11 32 -4 44 14 28 11 36 -18 44
-16 3 -72 31 -126 62 -72 41 -105 66 -122 94 -14 20 -29 40 -34 43 -5 4 -15
22 -21 41 -10 31 -9 40 10 69 19 32 23 34 50 24 24 -8 36 -6 62 10 28 17 41
19 86 12 43 -7 64 -18 113 -61 55 -48 64 -52 123 -56 72 -6 94 -25 116 -99 8
-27 26 -49 56 -72 24 -18 47 -44 50 -58 4 -15 12 -23 19 -20 7 2 32 10 54 17
29 9 40 17 36 27 -3 7 -5 17 -5 21 0 5 -24 33 -53 64 -30 30 -67 81 -83 112
-22 42 -36 58 -56 62 -14 3 -28 13 -31 23 -2 10 -37 33 -79 53 -66 32 -77 41
-91 77 -11 29 -21 40 -36 40 -19 0 -21 -6 -21 -55 0 -52 -1 -55 -25 -55 -40 0
-94 32 -116 68 -11 19 -26 60 -33 92 l-14 58 49 6 c38 5 49 11 49 25 0 12 -13
22 -42 31 -60 17 -79 33 -114 93 -25 43 -36 53 -62 55 -40 4 -41 19 -2 86 28
50 32 52 105 74 l76 22 45 -30 c53 -37 144 -70 192 -70 28 0 45 9 82 44 26 25
80 61 119 80 l71 36 0 45 c0 38 4 47 28 62 15 9 36 24 47 33 18 15 138 60 161
60 5 0 18 -15 28 -32 42 -72 77 -108 105 -108 15 0 36 -7 47 -15 10 -8 32 -15
47 -15 16 0 37 -5 47 -10 16 -9 25 -4 52 26 93 104 93 104 142 104 32 0 46 4
46 14 0 7 9 25 20 39 11 14 20 32 20 41 0 13 11 16 55 16 50 0 57 -3 67 -25
22 -48 72 -69 162 -67 66 0 85 -3 101 -18 11 -11 60 -37 107 -59 76 -35 96
-40 155 -40 37 0 131 -3 208 -8 121 -8 147 -13 191 -35 51 -27 74 -58 74 -103
0 -30 2 -30 65 -6 36 14 51 25 53 40 2 14 19 29 46 43 39 19 43 24 42 57 -1
29 3 36 17 36 10 0 25 8 32 19 8 10 18 15 24 11 6 -3 11 0 11 9 0 8 15 24 33
35 32 19 33 23 32 75 -1 30 -8 68 -15 85 -10 26 -10 35 4 56 22 33 20 42 -10
49 -22 6 -24 9 -12 23 8 10 14 46 14 94 1 42 5 82 9 88 3 6 20 11 38 11 25 0
44 12 87 54 66 64 103 79 149 60 31 -13 32 -12 43 14 16 39 14 108 -6 172 -9
30 -18 92 -19 137 l-2 83 -31 0 c-23 0 -34 6 -42 24 -11 26 -110 104 -155 124
-15 7 -52 12 -82 12 -44 0 -57 4 -70 22 -10 15 -26 23 -48 23 -17 0 -41 4 -52
7 -13 4 -37 -3 -67 -20z"/>
<path d="M5893 8812 c-15 -16 -36 -31 -46 -35 -10 -4 -29 -32 -43 -62 -20 -43
-24 -64 -19 -94 6 -36 9 -39 46 -45 21 -3 39 -10 39 -14 0 -4 13 -23 29 -42
l29 -35 22 20 c12 11 43 27 68 36 l47 16 7 63 c5 42 3 68 -4 77 -8 10 -6 18 7
33 16 18 16 20 2 20 -9 0 -24 11 -33 25 -11 17 -26 25 -44 25 -15 0 -35 9 -45
20 -23 26 -28 25 -62 -8z"/>
<path d="M6785 7670 c-3 -5 -17 -10 -31 -10 -18 0 -24 -5 -24 -22 -1 -24 -31
-68 -48 -68 -5 0 -15 -7 -23 -16 -11 -14 -15 -13 -31 8 -9 13 -18 28 -18 34 0
7 -12 19 -26 29 -22 14 -30 15 -55 4 -25 -10 -32 -9 -42 4 -11 14 -17 14 -64
-1 l-53 -17 0 -47 c0 -34 4 -48 14 -48 10 0 12 -15 8 -70 -5 -74 0 -81 38 -60
11 6 30 8 43 5 19 -5 22 -11 19 -39 -4 -38 7 -46 55 -39 32 5 32 5 18 34 -8
15 -15 49 -15 74 0 38 4 47 23 54 30 12 37 6 37 -35 0 -21 -4 -33 -10 -29 -17
11 -11 -5 15 -39 14 -18 25 -37 25 -43 0 -10 43 -33 63 -33 7 0 18 9 25 21 11
18 11 24 -2 38 -8 9 -18 35 -22 57 -6 38 -4 43 25 63 17 12 31 29 31 37 0 26
30 74 46 74 12 0 15 6 10 23 -3 12 -6 32 -6 45 0 23 -14 30 -25 12z"/>
<path d="M498 7334 c-10 -11 -42 -18 -97 -21 -75 -5 -83 -8 -102 -34 -19 -26
-19 -30 -4 -59 8 -16 20 -30 25 -30 5 0 7 -6 4 -14 -8 -21 14 -56 35 -56 13 0
21 -10 25 -34 4 -22 14 -37 26 -41 11 -4 20 -12 20 -18 0 -7 16 -23 35 -36 29
-20 36 -32 46 -81 15 -75 42 -119 82 -133 18 -7 75 -33 127 -59 55 -28 98 -44
103 -39 5 5 -3 34 -20 70 -26 53 -32 60 -43 46 -16 -19 -60 -20 -60 -1 0 7
-20 21 -45 30 -50 20 -51 22 -61 129 -5 67 -4 77 10 77 28 0 17 17 -22 32 -30
12 -40 23 -51 55 -16 48 -12 57 39 83 54 28 80 110 34 110 -7 0 -19 9 -26 20
-15 24 -57 26 -80 4z"/>
<path d="M6302 6948 c-13 -13 -16 -75 -6 -103 6 -14 12 -11 40 16 38 36 43 65
17 85 -22 17 -36 17 -51 2z"/>
<path d="M7800 6710 c-8 -6 -31 -9 -50 -8 -19 1 -52 -4 -72 -11 -34 -11 -38
-16 -38 -46 0 -28 -5 -35 -32 -44 -18 -7 -59 -14 -90 -18 -37 -4 -63 -12 -74
-24 -20 -23 -42 -24 -69 -5 -18 12 -23 11 -48 -10 -16 -14 -27 -33 -27 -49 0
-14 -7 -39 -16 -56 -14 -28 -14 -32 6 -64 12 -19 29 -35 37 -35 9 0 37 -13 62
-29 57 -36 130 -44 160 -17 10 10 36 46 57 82 l37 64 49 0 c64 0 88 -13 88
-49 0 -25 -6 -31 -54 -50 -29 -12 -64 -30 -77 -39 -13 -9 -40 -22 -59 -27 -36
-11 -55 -45 -26 -45 9 0 28 -21 43 -47 l26 -48 61 -2 c45 -1 75 -8 116 -30 44
-23 68 -28 122 -28 60 0 71 3 94 27 l27 26 -35 49 c-50 68 -59 89 -52 117 5
22 9 23 29 14 19 -9 25 -21 31 -65 8 -65 27 -89 77 -97 34 -6 37 -5 37 17 0
13 -13 44 -30 70 -45 72 -71 127 -65 137 3 5 -5 12 -19 16 -17 4 -29 19 -41
49 -12 33 -27 50 -61 70 -48 28 -52 40 -29 86 15 29 15 30 -14 47 -23 13 -29
22 -25 39 4 15 0 25 -14 32 -25 13 -23 13 -42 1z"/>
<path d="M5110 6531 c0 -4 -16 -28 -35 -52 -19 -24 -35 -53 -35 -63 0 -11 -7
-27 -15 -36 -9 -10 -13 -24 -9 -33 5 -14 12 -12 50 15 24 17 44 39 44 47 0 9
11 34 25 56 32 53 32 75 0 75 -14 0 -25 -4 -25 -9z"/>
<path d="M820 6480 c0 -24 27 -63 54 -77 27 -14 31 -14 43 3 11 15 10 21 -5
37 -31 34 -92 59 -92 37z"/>
<path d="M4720 6438 c0 -7 16 -40 36 -72 20 -33 33 -67 31 -78 -4 -14 1 -18
19 -18 14 0 36 -7 49 -16 33 -21 50 -13 75 36 18 36 19 41 5 47 -9 3 -21 1
-28 -6 -16 -16 -22 -14 -35 14 -6 14 -17 25 -24 25 -6 0 -33 18 -59 40 -49 41
-69 49 -69 28z"/>
<path d="M4570 6415 c-5 -14 -16 -25 -24 -25 -14 0 -42 -38 -34 -45 2 -1 17
-6 35 -9 25 -6 32 -4 37 12 4 10 18 24 33 31 l26 12 -23 24 c-29 31 -38 31
-50 0z"/>
<path d="M5716 6068 c-3 -13 -8 -36 -11 -53 -17 -84 -17 -85 -3 -85 19 0 61
-57 48 -65 -6 -3 -10 -16 -10 -28 1 -20 4 -18 30 13 24 29 32 33 46 24 26 -16
28 -31 5 -39 -20 -6 -20 -8 -4 -38 15 -31 16 -31 24 -9 9 23 39 21 39 -3 0 -9
10 -9 44 2 39 13 44 18 37 36 -4 12 -33 41 -65 65 -50 39 -56 47 -56 80 0 29
-8 45 -42 79 -47 48 -75 55 -82 21z"/>
<path d="M6937 5531 c-17 -6 -17 -8 -3 -20 9 -7 16 -26 16 -41 0 -27 15 -40
45 -40 7 0 15 17 18 37 10 57 -24 85 -76 64z"/>
<path d="M7365 5513 c-68 -6 -119 -44 -110 -82 8 -33 49 -76 87 -92 41 -17
103 -144 94 -193 -8 -42 -27 -63 -64 -73 -31 -7 -71 -34 -72 -47 0 -16 108
-141 138 -159 l30 -17 7 32 c9 43 22 58 51 58 27 0 39 16 35 48 -1 14 9 36 28
58 34 38 51 86 33 92 -8 2 -12 32 -12 82 0 44 -5 91 -12 105 -10 23 -10 28 5
36 11 7 17 23 17 49 0 45 -11 56 -40 40 -18 -9 -23 -6 -40 23 -21 35 -55 49
-104 45 -11 -1 -43 -3 -71 -5z"/>
<path d="M6885 5450 c-7 -12 2 -30 16 -30 5 0 9 9 9 20 0 21 -15 27 -25 10z"/>
<path d="M7660 5431 c0 -24 20 -41 48 -41 13 0 32 -5 43 -10 14 -8 19 -7 19 3
0 21 -35 48 -74 57 -30 7 -36 5 -36 -9z"/>
<path d="M1423 5361 c3 -15 1 -21 -10 -21 -12 0 -14 -8 -8 -37 7 -40 29 -88
44 -97 5 -4 15 10 21 29 11 33 5 75 -19 124 -12 25 -35 27 -28 2z"/>
<path d="M1297 5304 c-2 -14 -2 -55 1 -90 4 -61 3 -67 -23 -94 -16 -17 -34
-30 -40 -30 -18 0 -43 31 -51 64 -6 24 -8 26 -16 12 -5 -9 -15 -16 -22 -16 -8
0 -16 -17 -20 -42 -4 -23 -13 -56 -20 -72 -7 -17 -19 -55 -26 -85 -12 -52 -12
-55 11 -72 30 -23 75 -25 83 -3 11 28 6 140 -6 152 -9 9 -8 12 8 12 18 0 29
-20 70 -135 7 -18 6 -19 -11 -5 -17 13 -18 13 -13 0 2 -8 11 -36 18 -61 10
-32 22 -50 43 -63 29 -16 31 -16 52 4 31 29 56 25 110 -16 37 -29 58 -37 96
-39 45 -2 49 -1 58 28 16 44 14 54 -19 90 -48 52 -100 125 -116 162 -13 31
-17 34 -34 25 -11 -6 -24 -8 -29 -5 -14 8 -24 67 -13 74 12 7 -17 152 -38 191
-24 46 -45 51 -53 14z"/>
<path d="M1480 5184 c-14 -10 -26 -18 -28 -19 -9 -6 31 -75 46 -79 37 -12 71
21 41 39 -5 4 -9 21 -7 38 4 38 -15 45 -52 21z"/>
<path d="M6030 4614 c-55 -36 -71 -54 -66 -72 28 -109 29 -110 50 -102 30 11
76 -24 76 -56 0 -17 17 -43 53 -78 29 -29 61 -72 71 -94 21 -46 35 -52 58 -24
38 45 49 132 13 102 -13 -10 -15 -9 -15 11 0 13 5 31 10 39 7 11 2 21 -18 37
-22 17 -25 24 -14 34 6 7 12 25 12 40 0 23 -5 28 -37 33 -93 16 -92 15 -103
57 -6 22 -18 43 -26 46 -7 3 -14 13 -14 23 0 28 -12 29 -50 4z"/>
<path d="M1429 4503 c-17 -4 -39 -75 -39 -127 0 -25 6 -35 25 -44 14 -6 32
-29 41 -49 35 -79 38 -84 67 -90 21 -4 34 -17 52 -53 21 -41 27 -47 49 -43 29
6 41 30 25 49 -13 16 1 46 32 68 25 17 62 5 94 -32 l20 -24 19 21 c18 20 18
21 -17 53 -19 18 -43 38 -53 44 -10 6 -23 26 -29 44 -10 30 -19 36 -84 58 -64
21 -76 30 -113 78 -38 51 -51 58 -89 47z"/>
<path d="M8240 4330 c0 -5 -7 -10 -16 -10 -9 0 -29 -11 -46 -25 -16 -14 -35
-25 -42 -25 -7 0 -22 -11 -35 -23 -19 -22 -20 -25 -6 -37 11 -9 14 -22 10 -41
-9 -39 8 -43 40 -9 36 38 86 48 120 26 14 -9 25 -23 25 -31 0 -21 71 -75 98
-75 15 0 39 15 63 40 22 22 47 40 58 40 10 0 24 7 31 15 7 8 24 14 39 13 29
-2 71 17 71 32 0 6 -7 10 -15 10 -20 0 -19 29 2 52 17 19 16 19 -9 13 -16 -4
-38 -1 -56 9 -47 24 -65 21 -58 -9 4 -14 4 -25 2 -25 -12 0 -106 54 -106 61 0
5 -38 9 -85 9 -50 0 -85 -4 -85 -10z"/>
<path d="M4568 4279 c-36 -14 -36 -43 -2 -66 l26 -17 -22 -18 -22 -18 25 0
c14 0 27 -5 29 -11 6 -18 58 12 58 34 0 11 9 34 20 53 12 18 17 35 11 38 -19
12 -97 15 -123 5z"/>
<path d="M4444 4176 c-3 -9 -3 -24 1 -33 6 -17 7 -17 21 2 8 10 13 24 11 29
-6 17 -27 18 -33 2z"/>
<path d="M7765 4150 c-11 -4 -33 -22 -49 -38 -27 -29 -32 -30 -108 -30 -82 0
-118 -15 -118 -50 0 -8 -18 -32 -41 -54 -27 -27 -39 -46 -37 -61 3 -20 8 -22
53 -19 35 2 65 12 100 34 29 17 69 33 95 36 54 6 66 15 142 115 l59 77 -38 -1
c-21 0 -47 -4 -58 -9z"/>
<path d="M5550 4135 c0 -8 -6 -15 -13 -15 -8 0 -19 -11 -25 -25 -13 -28 -17
-167 -5 -179 4 -3 35 24 69 60 72 78 85 116 52 151 -25 26 -78 32 -78 8z"/>
<path d="M6290 4131 c1 -23 19 -43 71 -79 26 -17 58 -45 72 -62 14 -16 30 -30
36 -30 5 0 19 -13 30 -29 18 -25 25 -28 53 -22 27 5 34 12 36 35 2 16 10 39
18 51 12 18 12 28 3 48 -10 21 -23 28 -68 37 -31 6 -66 15 -79 20 -13 6 -34 7
-47 4 -19 -5 -24 -1 -27 17 -3 19 -9 22 -50 24 -38 1 -48 -2 -48 -14z"/>
<path d="M6185 3854 c16 -39 11 -78 -13 -106 -8 -10 -10 -18 -4 -18 6 0 13
-13 17 -30 8 -37 14 -37 48 -2 22 22 27 38 27 76 0 58 -12 81 -50 101 -41 21
-42 20 -25 -21z"/>
<path d="M6679 3864 c-10 -12 -10 -20 -1 -35 7 -10 12 -35 12 -54 l0 -35 67
25 c36 14 72 30 80 36 19 17 16 39 -7 39 -10 0 -31 6 -46 12 -22 10 -28 10
-32 0 -6 -20 -32 -14 -32 8 0 24 -22 26 -41 4z"/>
<path d="M5654 3832 c-21 -13 -46 -73 -36 -85 6 -8 5 -40 -3 -89 -10 -62 -10
-78 0 -78 19 0 75 68 75 90 0 11 13 32 30 46 27 25 28 28 12 40 -9 7 -25 14
-34 14 -14 0 -18 8 -18 35 0 35 -6 41 -26 27z"/>
<path d="M8050 3619 c0 -52 4 -72 20 -90 l19 -24 1 24 c0 14 -5 40 -12 58 -10
29 -10 36 2 43 8 5 23 7 33 4 21 -7 22 5 2 34 -10 14 -25 21 -40 20 -24 -2
-25 -5 -25 -69z"/>
<path d="M4645 3674 c-38 -8 -133 -59 -145 -78 -20 -31 3 -43 45 -23 20 9 47
17 61 17 17 0 28 7 31 19 3 11 22 27 44 35 21 9 39 20 39 26 0 10 -36 12 -75
4z"/>
<path d="M4189 3509 c31 -33 63 -36 69 -6 4 19 -32 37 -73 37 l-24 0 28 -31z"/>
<path d="M5710 3427 c-28 -22 -50 -61 -50 -89 0 -31 11 -36 30 -13 18 22 35
18 48 -10 6 -14 15 -25 20 -25 10 0 32 68 32 100 0 40 -48 63 -80 37z"/>
<path d="M8354 3426 c-3 -9 -14 -16 -24 -16 -32 0 -32 -18 0 -36 16 -10 30
-23 30 -29 0 -19 49 -55 75 -55 30 0 32 14 5 37 -11 10 -23 31 -26 48 -3 16
-17 38 -30 48 -21 16 -25 16 -30 3z"/>
<path d="M6878 3405 c-20 -14 -39 -34 -43 -45 -3 -11 -14 -20 -24 -20 -10 0
-24 -6 -31 -14 -6 -8 -21 -16 -33 -18 -14 -2 -23 -11 -25 -25 -2 -13 -8 -23
-14 -23 -6 0 -4 -8 4 -17 9 -10 18 -38 21 -62 4 -30 15 -53 35 -75 17 -17 32
-44 34 -60 4 -41 22 -43 54 -7 15 17 37 31 50 31 19 0 26 12 53 93 17 50 31
105 31 121 0 35 -49 146 -64 146 -6 0 -28 -11 -48 -25z"/>
<path d="M6530 3333 c-56 -33 -64 -45 -44 -60 14 -10 13 -14 -10 -28 -22 -15
-26 -25 -26 -66 0 -46 2 -50 38 -68 l39 -20 52 53 c45 46 51 55 43 77 -7 17
-5 34 6 57 14 28 14 34 2 42 -8 5 -27 6 -43 3 -27 -6 -29 -5 -18 16 14 26 16
26 -39 -6z"/>
<path d="M8465 3228 c4 -13 8 -23 9 -23 55 -22 58 -24 39 -49 -14 -19 -21 -22
-32 -13 -12 10 -14 9 -8 -5 3 -9 9 -34 13 -55 10 -58 21 -73 54 -73 23 0 30 5
30 19 0 14 8 21 28 23 31 3 40 35 22 82 -8 23 -13 26 -25 16 -12 -10 -18 -6
-36 24 -12 21 -39 46 -61 57 l-40 20 7 -23z"/>
<path d="M5924 3169 c3 -13 11 -46 16 -72 5 -27 16 -61 22 -75 15 -29 38 -41
38 -19 0 9 11 24 25 35 14 11 25 23 25 26 0 16 -63 104 -78 109 -9 2 -26 8
-36 13 -17 6 -18 4 -12 -17z"/>
<path d="M6376 3169 c-31 -24 -33 -53 -7 -92 l18 -29 6 24 c10 42 19 118 14
118 -2 0 -16 -9 -31 -21z"/>
<path d="M6304 3089 c-9 -15 1 -21 26 -17 21 3 21 3 1 15 -14 9 -22 9 -27 2z"/>
<path d="M7440 3020 c0 -5 -8 -10 -17 -10 -10 -1 -30 -18 -45 -39 -16 -23 -41
-44 -62 -52 -22 -8 -37 -21 -41 -36 -4 -17 -12 -23 -32 -23 -15 0 -37 -10 -50
-22 -13 -12 -23 -16 -23 -10 0 7 -4 12 -10 12 -21 0 -9 -37 15 -48 35 -16 60
-15 75 3 7 8 20 15 30 15 10 0 43 29 75 65 65 74 98 95 151 95 l37 0 -44 30
c-47 32 -59 36 -59 20z"/>
<path d="M8801 2974 c-38 -8 -69 -20 -74 -30 -5 -9 -24 -22 -42 -30 -19 -8
-53 -38 -77 -67 -33 -41 -53 -57 -85 -65 -41 -11 -43 -13 -43 -51 0 -31 6 -44
26 -60 38 -30 44 -27 44 20 0 55 28 78 94 79 41 0 62 8 120 44 39 24 98 55
131 68 45 18 61 30 63 46 3 16 -2 22 -16 22 -10 0 -27 9 -37 20 -21 23 -19 23
-104 4z"/>
<path d="M5799 2880 c-14 -19 -26 -48 -27 -64 -3 -53 -48 -78 -78 -45 -19 22
-44 25 -44 7 0 -31 13 -54 32 -63 35 -16 34 -35 -1 -35 -21 0 -34 6 -38 17 -7
18 -53 62 -65 63 -9 0 -31 -137 -24 -149 4 -6 18 -6 39 0 17 5 60 9 94 9 34 0
73 4 87 10 23 9 26 15 26 62 0 65 8 98 24 98 7 0 18 17 26 38 8 20 16 40 18
45 2 4 -5 7 -16 7 -12 0 -22 8 -24 17 -3 14 -9 10 -29 -17z"/>
<path d="M5905 2812 c-34 -7 -40 -20 -20 -42 28 -31 55 -26 55 9 0 34 -6 39
-35 33z"/>
<path d="M6623 2798 c-25 -32 -25 -98 1 -98 6 0 27 -23 46 -50 28 -39 40 -49
60 -47 22 2 26 8 31 52 7 57 2 72 -32 89 -13 6 -30 24 -37 39 -14 29 -52 37
-69 15z"/>
<path d="M6485 2700 c-32 -13 -105 -85 -105 -103 0 -21 11 -21 58 -1 49 20 92
62 92 91 0 24 -11 27 -45 13z"/>
<path d="M6143 2622 c-16 -10 -5 -52 13 -52 7 0 21 -8 31 -19 10 -10 28 -22
41 -25 19 -6 22 -4 22 22 0 22 -9 34 -41 55 -44 29 -48 30 -66 19z"/>
<path d="M9504 2612 c-6 -4 -25 -28 -43 -55 -27 -39 -29 -48 -17 -53 9 -3 16
-12 16 -20 0 -8 9 -14 20 -14 14 0 20 -7 20 -24 0 -13 7 -29 15 -36 18 -15 21
-8 30 78 6 57 5 62 -14 62 -27 0 -38 20 -17 32 9 5 16 16 16 23 0 16 -9 19
-26 7z"/>
<path d="M7860 2581 c0 -5 7 -14 15 -21 18 -15 20 -39 3 -41 -7 -1 -44 -1 -82
1 -64 2 -68 1 -61 -16 4 -11 13 -33 19 -49 23 -63 42 -82 75 -77 32 4 39 20
20 39 -6 6 -9 23 -5 36 5 21 13 25 66 31 38 4 60 12 60 19 0 19 -73 87 -93 87
-9 0 -17 -4 -17 -9z"/>
<path d="M8725 2531 c-3 -10 -1 -31 5 -45 8 -22 15 -27 36 -24 36 4 48 26 35
61 -8 21 -17 27 -40 27 -20 0 -32 -6 -36 -19z"/>
<path d="M6747 2339 c-14 -8 -16 -14 -6 -25 6 -8 19 -14 29 -14 12 0 19 -11
24 -37 12 -76 10 -83 -29 -83 -46 0 -44 -13 6 -38 38 -19 42 -19 72 -4 18 10
33 18 35 19 2 0 0 23 -4 49 -5 38 -16 58 -52 96 -49 52 -49 52 -75 37z"/>
<path d="M8955 2338 c-4 -10 -15 -18 -25 -18 -21 0 -34 -38 -19 -56 7 -8 18
-10 32 -5 18 7 24 3 39 -31 17 -38 17 -38 50 -25 20 8 34 22 36 34 3 17 -1 19
-29 15 -29 -4 -30 -3 -20 16 16 30 14 40 -11 48 -13 4 -28 14 -35 23 -11 15
-12 14 -18 -1z"/>
<path d="M6692 2295 c1 -16 9 -30 16 -33 18 -6 15 33 -4 49 -14 11 -15 9 -12
-16z"/>
<path d="M9920 2290 c-14 -10 -41 -22 -60 -25 -19 -4 -71 -26 -115 -50 -44
-24 -91 -46 -105 -50 -36 -11 -79 -45 -101 -82 -12 -18 -27 -33 -34 -33 -22 0
-55 -50 -61 -92 -6 -37 -44 -78 -72 -78 -35 0 -3 -85 36 -95 18 -4 22 -12 22
-48 0 -24 -8 -81 -19 -128 -18 -84 -18 -86 1 -122 l19 -37 37 15 c43 18 94 71
128 135 32 61 51 83 103 115 33 20 46 24 51 15 5 -7 15 -10 23 -7 18 7 28 56
15 77 -8 12 -4 26 16 55 15 22 32 42 37 46 5 3 21 38 34 77 13 39 32 84 42 98
10 15 16 38 15 50 -2 12 4 36 12 53 17 31 22 116 8 125 -4 2 -19 -4 -32 -14z"/>
<path d="M7159 2199 c-19 -26 -20 -33 -8 -45 18 -18 99 -28 119 -15 12 8 12
13 -4 30 -10 11 -34 30 -52 40 l-33 20 -22 -30z"/>
<path d="M3978 2188 c-9 -7 -21 -31 -27 -52 -8 -32 -8 -43 4 -56 16 -18 20
-85 6 -94 -8 -5 10 -112 20 -120 2 -2 29 -13 61 -26 74 -30 88 -24 88 39 0 62
7 81 31 81 10 0 19 4 19 9 0 5 3 16 6 25 4 10 -3 19 -20 27 -14 7 -28 20 -31
31 -4 10 -14 18 -23 18 -30 1 -63 38 -69 77 -8 52 -32 66 -65 41z"/>
<path d="M9173 1978 c-32 -15 -29 -38 4 -38 37 0 94 22 90 35 -5 14 -67 16
-94 3z"/>
<path d="M8825 1482 c-19 -13 -47 -81 -41 -97 3 -10 -2 -27 -13 -41 -10 -13
-22 -49 -26 -80 -4 -32 -11 -64 -15 -73 -4 -9 -13 -35 -19 -58 -8 -29 -23 -51
-46 -69 -37 -28 -36 -42 5 -89 24 -27 34 -125 16 -151 -16 -22 -5 -54 19 -54
8 0 15 -7 15 -15 0 -18 5 -18 30 -5 12 7 16 17 13 31 -7 24 29 58 60 59 24 0
22 35 -4 53 -17 13 -19 18 -8 35 9 15 9 23 0 33 -6 8 -23 31 -37 53 -22 34
-24 42 -14 72 6 19 16 36 21 39 5 4 9 17 9 31 0 14 7 35 15 48 8 12 14 33 14
47 -1 13 4 56 11 94 11 60 14 134 7 142 -2 1 -7 -1 -12 -5z"/>
<path d="M4878 1137 c-12 -23 -15 -46 -11 -82 3 -27 6 -75 7 -105 l1 -55 -37
-3 c-63 -5 -74 7 -81 89 -9 105 -23 106 -36 2 -6 -48 -14 -101 -17 -118 -3
-16 -5 -43 -5 -60 0 -16 -7 -52 -16 -78 -8 -27 -13 -65 -11 -85 3 -26 0 -40
-11 -48 -14 -11 -14 -15 -1 -40 8 -15 22 -29 31 -31 9 -3 21 -15 27 -28 10
-22 14 -22 124 -19 63 1 126 8 142 14 15 5 33 7 39 3 25 -16 102 -30 137 -26
34 5 39 2 56 -25 l18 -31 84 5 c74 4 87 2 113 -17 27 -19 38 -20 97 -14 37 4
75 11 85 17 14 7 22 6 30 -5 23 -27 62 -47 93 -47 25 0 39 -8 61 -35 27 -32
35 -36 108 -45 44 -6 87 -12 96 -15 19 -6 41 -53 41 -87 -1 -51 -15 -128 -23
-128 -5 0 -9 -9 -9 -20 0 -26 24 -26 73 0 32 17 46 19 92 12 30 -5 59 -5 66
-1 7 4 20 2 30 -4 13 -8 24 -8 41 1 13 6 57 16 98 22 88 11 146 25 215 51 74
28 133 33 226 20 64 -10 91 -10 114 -1 17 7 80 12 150 11 106 0 128 3 183 25
77 31 134 35 160 11 10 -9 35 -17 55 -17 20 0 37 -4 37 -10 0 -15 36 -12 93 7
40 14 56 27 79 62 15 25 28 55 28 67 0 12 7 27 15 34 9 8 13 21 9 35 -4 17 0
26 15 35 25 13 19 27 -15 40 -34 13 -33 71 1 116 27 36 34 77 11 68 -7 -3 -18
-16 -24 -29 -6 -14 -23 -27 -37 -31 -14 -3 -25 -13 -25 -22 0 -22 -77 -92
-101 -92 -12 0 -23 8 -25 18 -7 23 -95 23 -122 -1 -10 -9 -23 -17 -29 -17 -6
0 -16 -7 -23 -15 -7 -8 -20 -15 -30 -15 -30 0 -106 -49 -119 -76 -10 -22 -16
-25 -41 -20 -17 3 -42 13 -56 22 -24 16 -25 21 -20 76 3 32 9 85 12 117 3 33
12 65 20 72 29 24 15 36 -52 42 -72 7 -137 -4 -200 -35 -23 -10 -55 -20 -72
-20 -36 -1 -82 26 -82 47 0 12 -20 15 -112 16 -62 1 -124 4 -138 8 -13 4 -46
2 -72 -3 -42 -9 -50 -8 -62 9 -9 12 -12 32 -9 52 5 28 3 33 -15 33 -11 0 -22
6 -24 12 -3 9 -12 8 -31 -5 -24 -15 -30 -16 -55 -3 -20 10 -42 12 -89 5 -39
-5 -72 -5 -88 1 -15 6 -50 10 -80 10 -41 0 -60 -5 -82 -23 -42 -35 -88 -48
-185 -52 -48 -2 -96 -8 -105 -13 -10 -5 -41 -7 -69 -4 l-52 4 -10 80 c-5 43
-12 82 -15 84 -3 3 -18 -1 -34 -9 -25 -13 -34 -13 -88 7 -39 14 -61 27 -63 39
-3 17 1 18 50 13 49 -6 54 -5 71 19 17 23 17 30 5 68 -10 31 -22 46 -47 59
-31 15 -36 15 -57 1 -16 -10 -24 -25 -24 -43 0 -16 -7 -30 -15 -34 -8 -3 -15
-12 -15 -20 0 -8 -8 -17 -18 -20 -34 -11 -104 -9 -111 3 -4 6 -15 9 -25 5 -9
-4 -44 -1 -77 6 -47 10 -60 17 -63 34 -20 106 -24 134 -23 155 1 14 -6 29 -18
37 -19 12 -22 11 -37 -19z"/>
<path d="M8523 770 c-61 -18 -113 -63 -113 -97 0 -13 5 -23 10 -23 31 0 170
94 170 115 0 22 -12 23 -67 5z"/>
</g>
</svg>
