<?xml version="1.0" standalone="no"?>
<!DOCTYPE svg PUBLIC "-//W3C//DTD SVG 20010904//EN"
 "http://www.w3.org/TR/2001/REC-SVG-20010904/DTD/svg10.dtd">
<svg version="1.0" xmlns="http://www.w3.org/2000/svg"
 width="1024.000000pt" height="1024.000000pt" viewBox="0 0 1024.000000 1024.000000"
 preserveAspectRatio="xMidYMid meet">
<metadata>
Created by potrace 1.10, written by Peter Selinger 2001-2011
</metadata>
<g transform="translate(0.000000,1024.000000) scale(0.100000,-0.100000)"
fill="#000000" stroke="none">
<path d="M9177 8126 c-10 -15 -29 -25 -54 -29 -53 -9 -80 -31 -87 -71 -4 -19
-13 -48 -21 -63 -8 -15 -15 -31 -15 -35 0 -5 25 -8 56 -8 33 0 53 -4 49 -10
-10 -15 -75 -23 -109 -13 -21 7 -38 6 -51 -1 -45 -24 -165 -104 -235 -157 -41
-31 -86 -62 -100 -69 -14 -7 -47 -37 -73 -66 -27 -30 -57 -54 -68 -54 -12 0
-19 -7 -19 -19 0 -32 -52 -134 -87 -171 -18 -19 -36 -43 -39 -53 -7 -22 22
-57 47 -57 10 0 39 -10 64 -22 35 -17 45 -27 45 -46 0 -15 -5 -22 -12 -19 -7
3 -32 -6 -54 -19 -35 -20 -44 -21 -59 -10 -13 9 -15 15 -7 20 19 11 14 43 -7
49 -25 6 -61 -19 -61 -41 0 -9 7 -26 15 -36 24 -32 18 -74 -13 -104 -16 -15
-37 -40 -48 -56 -10 -16 -27 -40 -37 -55 -12 -19 -16 -36 -11 -63 5 -35 4 -38
-23 -43 -15 -4 -38 -11 -51 -16 -34 -13 -40 -11 -44 13 -5 33 -62 49 -113 31
-83 -29 -110 -55 -145 -145 -18 -46 -42 -93 -53 -105 -21 -24 -47 -31 -47 -13
0 16 -58 12 -92 -6 -65 -33 -107 -37 -77 -7 15 15 3 33 -21 33 -10 0 -47 -19
-82 -43 -35 -24 -100 -60 -146 -82 -45 -21 -87 -44 -93 -52 -6 -7 -22 -13 -34
-13 -13 0 -26 -7 -29 -16 -9 -22 -8 -24 9 -24 21 0 19 -14 -9 -47 -18 -21 -21
-33 -15 -51 7 -19 12 -21 28 -12 25 13 31 13 31 -2 0 -7 11 -26 24 -42 l23
-30 -27 -15 c-101 -59 -137 -87 -152 -123 -14 -32 -21 -38 -47 -38 -16 0 -33
5 -36 10 -8 13 -45 13 -45 0 0 -5 6 -27 14 -47 8 -21 17 -50 20 -65 3 -14 9
-33 12 -42 5 -13 -1 -16 -35 -16 -34 0 -49 7 -85 40 -24 22 -51 40 -61 40 -17
0 -17 11 0 52 5 13 1 19 -18 23 -13 4 -39 26 -57 51 -46 60 -87 73 -142 44
-28 -15 -53 -20 -74 -17 -38 6 -50 0 -64 -37 -8 -23 -7 -32 5 -46 43 -48 -24
-100 -130 -100 -48 0 -54 2 -57 23 -2 13 -9 21 -18 18 -8 -1 -38 -6 -66 -10
-28 -4 -64 -17 -81 -29 -36 -26 -59 -28 -71 -7 -7 14 -11 13 -27 -5 -21 -24
-48 -26 -65 -5 -17 21 -23 19 -43 -14 -22 -38 -21 -44 3 -38 30 8 25 -17 -11
-47 -17 -14 -51 -38 -75 -52 -26 -15 -47 -36 -50 -49 -6 -24 -34 -43 -34 -23
0 18 52 128 61 128 18 0 47 44 59 88 7 26 23 58 35 72 43 47 80 132 79 180 0
37 -9 57 -45 108 -34 49 -48 62 -63 58 -11 -3 -24 1 -30 9 -16 22 -119 -18
-135 -51 -10 -23 -31 -31 -44 -18 -3 4 1 20 9 35 13 26 13 30 -1 35 -8 4 -37
3 -63 -1 l-47 -7 28 29 c15 16 27 32 27 36 0 10 -67 26 -88 21 -31 -9 -72 -86
-72 -136 0 -24 5 -49 12 -56 9 -9 1 -12 -36 -12 -46 0 -48 -1 -42 -25 5 -21 0
-29 -33 -51 -49 -32 -66 -29 -46 9 17 32 7 34 -44 8 -20 -11 -49 -22 -64 -26
-21 -4 -27 -10 -22 -23 4 -14 -6 -23 -48 -40 -29 -12 -56 -22 -60 -22 -4 0
-33 -20 -66 -45 -32 -25 -65 -45 -72 -45 -7 0 -20 -7 -30 -16 -14 -12 -16 -22
-9 -40 5 -13 7 -31 4 -39 -4 -9 2 -25 11 -35 10 -11 16 -21 14 -23 -2 -2 -26
-13 -54 -25 -55 -25 -85 -28 -161 -17 -49 7 -52 6 -60 -16 -4 -13 -8 -35 -9
-49 -1 -14 -6 -41 -10 -61 -6 -31 -3 -41 22 -70 15 -19 38 -48 49 -64 l21 -31
-34 4 c-27 3 -40 13 -58 42 -13 21 -38 48 -55 60 -29 21 -35 22 -73 9 -55 -17
-54 -15 -26 -38 l24 -20 -22 -1 c-13 0 -23 5 -23 11 0 6 -12 9 -27 7 -20 -2
-29 -9 -31 -25 -4 -26 25 -73 44 -73 16 0 54 -57 54 -80 0 -8 -12 2 -26 22
-18 25 -36 38 -59 42 -18 4 -38 13 -45 21 -14 16 -6 68 16 102 21 33 18 142
-4 171 -16 20 -20 21 -30 9 -10 -11 -9 -17 3 -27 17 -14 20 -66 6 -103 -6 -16
-21 -28 -39 -32 -16 -3 -40 -17 -52 -30 -22 -23 -23 -28 -12 -76 17 -73 15
-113 -7 -133 -10 -9 -26 -35 -37 -57 -14 -33 -16 -44 -6 -60 9 -15 10 -25 1
-40 -9 -17 -8 -25 4 -36 12 -13 21 -13 51 -3 31 10 39 9 63 -8 46 -33 60 -55
66 -104 5 -36 3 -47 -9 -52 -23 -9 -24 -8 -24 24 0 16 -8 45 -17 65 -15 32
-21 35 -58 35 -57 0 -78 -24 -83 -100 -4 -50 -7 -59 -26 -64 -16 -4 -27 -19
-37 -53 -12 -39 -22 -50 -59 -70 -25 -13 -47 -28 -48 -33 -5 -15 -39 -12 -72
5 -34 18 -39 35 -11 35 32 0 51 11 51 31 0 10 19 31 44 48 54 37 86 76 86 104
0 11 10 32 23 45 l22 24 -22 18 c-28 23 -29 54 -3 120 11 28 20 62 20 76 0 14
9 42 20 64 22 43 26 100 9 131 -9 17 -3 32 30 89 51 86 53 120 9 152 -18 13
-48 28 -66 35 l-34 11 -38 -61 c-59 -93 -76 -113 -127 -143 -27 -15 -51 -32
-55 -38 -13 -18 -9 -34 9 -38 15 -3 15 -4 0 -19 -9 -9 -19 -30 -23 -45 -4 -16
-18 -40 -32 -53 l-26 -23 35 -29 c27 -22 33 -33 31 -58 -2 -17 5 -44 15 -61
l18 -31 -33 -30 c-32 -29 -35 -29 -48 -12 -7 10 -14 31 -14 47 0 18 -10 41
-26 57 -28 30 -34 38 -77 118 -20 38 -38 57 -65 69 -51 23 -92 57 -92 75 0 9
-5 19 -11 23 -6 3 -9 14 -6 24 3 11 -6 29 -23 45 l-28 27 -21 -21 c-27 -27
-26 -47 5 -92 21 -31 25 -46 22 -95 l-3 -59 -37 -3 c-27 -2 -39 -9 -44 -24 -4
-14 -9 -17 -16 -10 -8 8 -6 19 6 36 25 39 21 56 -13 56 -16 0 -41 -4 -54 -9
-19 -7 -35 -4 -73 15 -36 18 -58 23 -81 19 -18 -3 -41 -1 -52 5 -18 9 -18 12
-5 39 8 16 24 32 37 35 54 15 -13 22 -166 19 -89 -2 -177 -4 -196 -3 -26 0
-43 -8 -67 -31 l-32 -31 -39 18 c-36 18 -38 21 -35 64 4 73 5 74 72 67 l60 -7
0 46 c0 54 -16 87 -64 133 l-36 35 0 -45 c0 -53 -18 -83 -68 -108 -35 -18 -37
-22 -37 -67 0 -44 -3 -50 -35 -71 -19 -12 -41 -27 -48 -33 -9 -8 -12 -4 -12
19 0 17 -10 45 -23 64 -21 32 -24 33 -52 21 -17 -7 -64 -13 -106 -14 l-76 0
-26 -53 c-15 -29 -27 -58 -27 -65 0 -19 -39 8 -46 33 -4 11 -12 27 -19 35 -7
8 -15 32 -18 53 -7 46 -22 67 -48 67 -27 0 -42 -37 -36 -90 6 -53 -2 -74 -29
-68 -57 11 -76 155 -29 224 13 20 27 43 30 52 3 9 20 26 38 37 33 21 47 59 29
77 -7 7 -5 22 4 44 8 18 14 46 14 61 0 15 4 33 8 40 4 6 7 -8 7 -30 1 -29 14
-69 43 -126 23 -46 42 -92 42 -102 0 -28 63 -85 116 -105 45 -17 50 -17 113
-1 73 20 81 27 81 77 0 20 7 45 15 57 14 20 14 28 -5 82 -11 33 -20 78 -20 99
0 22 -7 55 -14 74 -8 19 -12 45 -9 57 4 15 -1 28 -16 42 -11 11 -21 26 -21 35
0 8 -11 19 -24 25 -15 7 -26 23 -30 41 -9 48 -8 51 19 34 24 -16 25 -16 25 9
0 39 -17 64 -38 58 -10 -2 -24 3 -31 11 -8 9 -29 16 -51 16 -20 0 -51 5 -69
11 -42 15 -73 6 -110 -32 -22 -21 -31 -40 -31 -62 0 -18 -5 -49 -11 -69 -9
-36 -12 -38 -49 -38 -48 0 -105 -45 -115 -90 -7 -32 -41 -80 -56 -80 -17 0
-104 -42 -111 -54 -4 -6 -3 -15 2 -20 16 -16 11 -34 -11 -41 -16 -5 -19 -14
-17 -38 3 -31 2 -32 -42 -37 l-45 -5 -17 -69 c-9 -38 -23 -75 -31 -83 -17 -17
-158 -32 -301 -33 -98 0 -99 0 -81 -20 17 -19 17 -21 2 -38 -22 -24 -21 -34 4
-66 12 -15 18 -30 14 -34 -4 -4 -12 1 -19 11 -7 9 -16 17 -20 17 -3 0 -27 10
-51 21 -42 20 -47 20 -64 5 -9 -9 -28 -16 -40 -16 -23 0 -74 -34 -122 -82 -16
-16 -38 -28 -53 -28 -19 0 -29 -7 -37 -27 -27 -66 -35 -80 -70 -123 -30 -37
-35 -51 -31 -79 3 -21 11 -35 23 -38 17 -5 17 -8 5 -32 -14 -26 -13 -27 15
-40 25 -11 29 -18 29 -51 0 -30 -5 -40 -20 -45 -11 -3 -20 -15 -20 -25 0 -10
-10 -20 -23 -24 -23 -5 -47 -42 -47 -71 0 -8 -7 -35 -16 -61 -16 -46 -15 -48
6 -64 15 -12 19 -19 11 -24 -6 -4 -11 -16 -11 -28 0 -14 -5 -18 -16 -14 -9 3
-27 6 -40 6 -13 0 -24 6 -24 13 0 7 -6 22 -14 32 -12 16 -16 17 -30 6 -9 -7
-16 -20 -16 -28 0 -8 -13 -28 -30 -43 -21 -20 -30 -37 -30 -60 0 -30 2 -32 29
-27 24 5 35 0 65 -29 53 -52 57 -79 14 -119 -48 -43 -53 -65 -28 -108 l21 -36
-25 -44 c-26 -44 -26 -44 -6 -62 11 -10 20 -28 20 -40 0 -27 15 -41 53 -50 24
-6 27 -12 27 -50 0 -34 4 -44 20 -48 12 -3 20 -14 20 -25 0 -11 10 -33 23 -49
25 -30 52 -107 43 -122 -3 -5 -21 -12 -40 -15 -38 -7 -52 -20 -61 -57 -4 -15
-23 -37 -46 -52 l-39 -26 -22 30 c-24 32 -53 37 -107 18 -42 -15 -39 -39 9
-69 21 -13 38 -25 37 -26 -7 -7 -135 30 -149 43 -22 20 -53 9 -43 -15 4 -9 9
-33 12 -52 5 -33 5 -34 -12 -18 -16 15 -22 15 -59 2 -22 -8 -46 -22 -53 -31
-11 -14 -16 -12 -44 21 -18 20 -36 36 -39 36 -11 0 -30 -49 -30 -76 0 -21 53
-138 70 -154 11 -10 32 -116 31 -157 -1 -37 2 -44 28 -58 29 -15 59 -66 74
-127 4 -16 14 -28 23 -28 8 0 35 -20 60 -45 34 -35 44 -53 44 -78 0 -18 5 -38
10 -43 8 -8 6 -15 -5 -24 -24 -20 -18 -30 20 -30 27 0 46 -10 87 -47 62 -54
63 -56 43 -73 -22 -18 -19 -44 10 -78 19 -22 27 -46 31 -94 4 -34 14 -75 22
-90 15 -25 20 -27 57 -21 22 3 46 9 54 13 22 12 41 80 41 154 0 58 5 77 31
122 44 77 51 110 34 145 -8 15 -15 32 -15 36 0 5 30 17 66 27 36 11 79 30 95
43 26 23 28 23 38 5 7 -14 18 -17 45 -14 25 3 36 0 36 -8 0 -9 5 -8 18 3 11
10 26 14 41 10 23 -6 24 -4 18 36 -4 34 -2 41 9 37 21 -8 25 7 25 90 0 69 -3
80 -25 103 -23 24 -25 31 -16 60 6 22 6 40 0 52 -16 29 -12 39 23 54 45 20 70
45 86 83 11 27 19 33 37 29 16 -3 28 4 44 25 11 15 28 28 37 28 13 0 15 -9 9
-64 -5 -53 -4 -65 10 -70 27 -10 34 -7 55 29 16 26 28 35 48 35 15 0 31 4 37
10 5 5 41 14 79 21 116 18 118 18 136 -20 9 -19 19 -29 22 -23 12 18 49 0 69
-34 11 -18 27 -36 36 -39 27 -9 62 -96 55 -139 -6 -36 3 -46 24 -25 15 15 33
3 33 -21 0 -30 42 -53 74 -40 49 18 92 13 110 -15 17 -25 44 -32 62 -16 5 5
21 7 37 4 21 -4 25 -8 17 -18 -15 -18 -2 -64 21 -78 11 -7 19 -17 19 -24 0
-21 40 -26 55 -7 12 18 14 17 26 -8 24 -55 105 -50 131 7 15 35 15 36 -14 73
-60 74 -58 92 8 92 28 0 33 4 38 34 7 37 36 70 43 49 2 -7 21 -17 40 -24 32
-10 38 -9 50 6 11 16 9 21 -17 37 -33 19 -36 28 -18 46 9 9 8 12 -4 12 -22 0
-13 32 14 49 18 11 25 10 48 -7 42 -32 111 -41 416 -59 74 -4 104 -1 163 17
66 19 75 20 90 6 9 -8 33 -22 54 -31 45 -19 54 -48 36 -112 -11 -41 -11 -47 6
-59 12 -9 23 -10 36 -4 25 14 25 14 39 -20 10 -24 16 -28 26 -19 10 8 19 7 36
-5 12 -9 31 -16 42 -16 19 0 19 -1 -2 -16 -14 -10 -22 -24 -20 -37 3 -18 11
-21 60 -24 31 -2 60 1 63 7 3 5 16 10 29 10 12 0 26 3 29 6 5 6 103 42 115 44
1 0 -2 -9 -8 -19 -19 -36 -10 -60 37 -108 41 -42 54 -69 115 -228 38 -99 74
-184 79 -190 7 -7 17 -2 29 13 19 23 40 22 40 -2 0 -38 145 -88 164 -57 8 12
54 15 81 5 9 -4 27 -28 41 -55 13 -27 33 -55 44 -61 11 -7 20 -21 20 -30 0
-29 49 -53 106 -53 55 0 77 -12 100 -57 12 -23 21 -28 54 -28 32 0 39 4 42 22
2 19 13 24 66 34 61 10 82 24 82 52 0 11 134 82 157 82 5 0 18 9 27 19 10 10
33 22 52 26 20 3 42 9 50 12 8 3 14 -1 14 -11 0 -13 11 -16 56 -16 48 0 59 -4
76 -25 37 -47 66 -55 194 -51 102 3 122 7 141 24 26 24 31 73 8 92 -23 19 -29
75 -11 102 9 12 16 30 16 40 0 10 4 18 9 18 5 0 14 15 22 33 17 42 16 42 34
27 9 -7 37 -17 63 -22 26 -4 85 -18 132 -31 l85 -24 14 -42 c11 -36 21 -46 57
-62 59 -27 105 -27 141 -1 49 35 84 44 163 44 104 0 171 -11 195 -33 39 -35
73 -40 180 -26 86 12 104 17 127 40 15 15 36 27 47 27 11 0 29 13 40 29 12 16
32 32 46 35 16 4 25 13 25 26 0 11 11 26 23 35 13 8 29 26 35 40 6 13 23 31
37 41 23 15 27 15 50 0 29 -19 76 -21 93 -3 8 7 52 14 110 17 97 5 97 5 100
32 2 16 18 40 38 57 36 32 43 64 20 90 -11 13 -12 32 -4 96 18 162 20 193 8
215 -9 17 -17 20 -39 15 -38 -8 -46 15 -25 71 12 31 25 46 48 55 17 8 49 30
72 51 51 47 80 58 154 58 32 0 62 4 65 10 3 5 23 10 45 10 29 0 48 -8 80 -35
23 -19 46 -35 50 -35 4 0 37 -28 73 -62 35 -35 85 -81 111 -103 25 -22 46 -46
46 -52 0 -7 17 -21 39 -32 36 -19 39 -19 62 -3 13 9 45 24 70 32 42 14 51 14
88 1 33 -12 48 -13 71 -4 17 6 30 8 30 5 0 -4 17 -26 39 -50 33 -36 44 -42 79
-42 31 0 45 5 56 22 9 12 30 27 48 33 26 8 32 15 30 34 -1 13 9 36 24 54 15
18 33 46 40 64 16 36 54 64 54 39 0 -8 12 -24 26 -35 22 -17 25 -26 20 -52 -4
-23 3 -55 28 -118 31 -80 52 -169 47 -198 -1 -7 3 -22 9 -33 9 -16 6 -22 -15
-36 -14 -9 -40 -20 -58 -23 -24 -5 -35 -14 -42 -36 -5 -17 -18 -41 -28 -55
-17 -24 -17 -25 0 -35 43 -24 153 -157 153 -184 0 -12 -10 -40 -22 -61 -18
-31 -20 -42 -11 -51 10 -10 19 -7 43 16 26 25 30 36 32 94 2 54 6 66 21 69 10
2 24 -4 31 -14 11 -15 18 -15 64 -5 61 15 94 57 111 141 7 30 19 66 28 79 12
18 14 36 8 75 -3 28 -6 56 -5 61 1 6 4 95 7 198 4 171 2 194 -17 251 -11 34
-20 78 -20 97 0 89 -13 215 -25 229 -7 8 -16 26 -20 40 -17 53 -77 147 -122
191 -49 46 -87 123 -100 201 l-5 36 67 -26 c48 -19 71 -34 81 -54 8 -16 43
-57 79 -92 35 -35 80 -91 100 -124 22 -37 49 -69 73 -83 20 -13 41 -30 46 -38
5 -9 29 -37 53 -62 24 -25 43 -55 43 -66 0 -22 59 -73 84 -73 20 0 21 30 1 56
-20 27 -18 51 5 57 45 12 3 64 -72 89 -36 12 -98 65 -98 83 0 6 -13 29 -30 51
-58 77 -32 134 65 134 l50 1 -45 18 c-87 35 -198 98 -246 139 -27 23 -56 42
-65 42 -28 0 -92 56 -103 90 -8 24 -25 42 -61 63 -27 16 -71 47 -96 68 -45 37
-68 47 -82 33 -4 -4 14 -26 38 -49 46 -43 56 -65 30 -65 -32 0 -28 -31 8 -68
30 -32 67 -90 67 -107 0 -12 -38 -4 -44 10 -3 8 -17 20 -31 25 -18 7 -25 17
-25 35 0 24 -2 25 -64 25 -36 0 -68 5 -71 10 -11 18 -78 11 -112 -12 -36 -25
-41 -39 -17 -58 35 -30 35 -46 -1 -84 -18 -20 -36 -36 -39 -36 -3 0 -6 13 -6
29 0 27 -33 61 -60 61 -16 0 -11 -38 7 -48 10 -6 14 -16 10 -26 -11 -28 -33
-17 -56 29 -12 25 -25 45 -29 45 -4 0 -20 -14 -35 -30 -44 -47 -97 -52 -97
-11 0 10 10 56 21 102 17 66 22 122 24 261 2 97 8 185 13 194 7 12 5 31 -6 61
-13 34 -14 51 -6 82 6 22 7 46 3 53 -14 22 -10 70 10 113 23 51 126 145 158
145 28 0 42 28 22 42 -8 5 -10 11 -4 14 38 16 77 48 85 69 5 14 16 25 23 25 9
0 14 11 13 30 -1 16 -4 30 -8 30 -5 0 -8 6 -8 13 0 20 110 107 135 107 12 0
28 7 35 15 7 8 17 12 22 9 5 -3 0 -17 -13 -30 -26 -28 -19 -57 13 -52 15 2 24
13 30 36 5 18 15 35 23 39 10 3 15 20 15 48 0 38 3 44 23 47 12 2 21 8 21 13
-1 6 5 19 12 30 8 11 14 25 14 32 0 20 -47 15 -63 -7 -13 -19 -15 -19 -29 -3
-20 24 -48 117 -48 162 0 20 -7 45 -15 55 -8 11 -15 30 -15 42 0 12 -7 27 -15
34 -21 17 -18 70 5 100 11 14 20 37 20 53 0 20 5 27 20 27 16 0 20 7 20 30 0
17 3 30 8 30 4 0 28 -24 54 -52 42 -47 47 -50 48 -29 0 23 1 24 20 6 11 -10
23 -15 26 -12 4 3 -1 50 -10 103 -11 66 -13 101 -6 108 14 14 12 46 -2 41 -7
-2 -32 13 -56 35 -34 30 -42 44 -37 60 9 28 75 97 75 78 0 -9 -7 -21 -15 -28
-26 -21 -18 -54 15 -67 16 -6 38 -25 47 -42 10 -17 26 -31 36 -31 9 0 17 -7
17 -16 0 -9 8 -18 18 -21 17 -4 18 -13 14 -79 -4 -62 -2 -77 12 -87 11 -8 20
-35 25 -70 4 -32 13 -63 19 -69 7 -7 12 -25 12 -42 0 -16 9 -39 19 -50 11 -12
28 -54 39 -93 16 -61 17 -75 6 -84 -8 -7 -11 -21 -8 -35 4 -14 1 -31 -7 -40
-10 -13 -10 -17 2 -25 8 -5 19 -9 26 -9 11 0 36 -58 47 -112 15 -69 171 -195
326 -263 36 -16 80 -41 97 -57 22 -18 50 -30 83 -34 35 -5 64 -17 95 -41 47
-36 102 -60 112 -49 3 3 1 31 -6 61 -7 30 -9 59 -6 65 8 13 -35 87 -69 119
-23 21 -26 33 -26 88 0 43 4 63 13 63 6 1 3 6 -8 13 -82 48 -115 92 -115 151
0 26 6 38 21 46 16 9 19 17 14 38 -10 39 -24 52 -56 52 -16 0 -48 14 -74 32
-53 38 -60 72 -20 106 30 26 25 44 -18 64 -24 11 -36 12 -49 5 -23 -15 -85 15
-98 47 -5 13 -14 27 -20 31 -15 9 -40 -13 -40 -36 0 -22 -28 -25 -53 -6 -26
19 -87 110 -87 129 0 10 -11 24 -23 33 -48 31 -54 90 -13 124 15 12 15 16 2
30 -8 9 -18 36 -22 60 -7 43 -7 44 19 38 14 -4 32 -10 41 -13 21 -8 22 39 1
56 -18 15 -19 32 -4 101 14 65 37 89 87 89 51 0 56 7 27 44 -13 17 -27 45 -31
61 -4 17 -20 55 -35 86 -28 57 -42 127 -59 309 -4 47 -11 96 -14 110 -6 20 -1
32 24 55 35 34 38 55 9 81 -21 19 -62 23 -169 15 -25 -2 -55 0 -67 4 -20 6
-23 4 -23 -20 0 -23 -3 -26 -22 -21 -13 3 -29 6 -35 6 -18 0 -16 25 2 40 8 7
15 19 15 26 0 8 -7 14 -15 14 -11 0 -15 12 -15 46 0 39 -5 51 -32 76 -29 27
-36 29 -80 23 l-48 -7 0 31 c0 29 1 30 29 20 18 -6 42 -7 62 -1 31 8 34 12 34
48 1 60 22 84 71 84 42 0 72 20 59 40 -9 14 32 47 68 55 33 8 49 42 41 85 -7
32 -14 36 -30 20 -7 -7 -22 -2 -48 15 -20 14 -50 25 -66 25 -30 0 -40 13 -20
25 17 10 12 48 -5 41 -11 -4 -15 2 -15 23 0 24 -25 61 -42 61 -3 0 -13 -11
-21 -24z"/>
<path d="M8324 7888 c-24 -11 -44 -48 -44 -81 0 -31 47 -97 69 -97 16 0 20 11
26 80 5 58 4 85 -5 95 -14 17 -17 17 -46 3z"/>
<path d="M5123 6895 c-20 -21 -30 -40 -27 -50 4 -8 -1 -26 -10 -40 -16 -24
-15 -26 4 -48 l21 -22 -25 -3 c-20 -3 -26 -9 -26 -27 0 -36 38 -44 63 -14 l19
24 -7 -42 c-4 -27 -3 -43 3 -43 6 0 12 -10 14 -22 2 -13 16 -28 33 -37 17 -8
37 -18 45 -23 34 -19 42 -20 70 -8 28 12 44 50 20 50 -5 0 -7 20 -3 48 4 37 1
56 -13 76 l-18 28 -18 -24 -18 -23 0 27 c0 15 -7 31 -16 36 -14 8 -15 17 -8
48 4 22 8 42 8 46 1 9 -63 78 -72 78 -4 0 -22 -16 -39 -35z"/>
<path d="M7157 6917 c-3 -8 -26 -24 -50 -35 -25 -12 -50 -29 -55 -38 -5 -9
-12 -15 -15 -15 -16 2 -17 0 -6 -20 8 -16 17 -20 37 -16 106 21 132 38 132 87
0 39 -32 66 -43 37z"/>
<path d="M6905 6789 c-22 -10 -52 -19 -67 -19 -35 0 -37 -24 -5 -50 30 -25 20
-30 -36 -18 -53 11 -77 1 -77 -34 0 -28 47 -116 69 -128 32 -17 91 -13 98 8
17 47 59 101 83 104 17 2 26 10 28 25 3 18 0 21 -13 17 -27 -11 -95 16 -95 38
0 24 16 23 23 -2 6 -23 53 -37 76 -23 18 11 28 63 13 63 -5 0 -12 9 -15 20 -6
25 -29 24 -82 -1z"/>
<path d="M5381 6636 c-7 -8 -19 -50 -27 -93 -8 -43 -17 -93 -20 -110 -6 -29
-4 -33 14 -33 12 0 29 11 38 25 9 14 25 25 36 25 31 0 87 39 94 65 11 45 -65
117 -88 84 -6 -10 -8 -5 -6 16 3 33 -21 46 -41 21z"/>
<path d="M7045 6510 c-3 -10 -3 -35 0 -53 l7 -35 37 15 c21 8 51 26 67 39 28
23 28 24 10 39 -11 9 -40 15 -67 15 -39 0 -49 -4 -54 -20z"/>
<path d="M4165 6330 c-16 -11 -40 -20 -52 -20 -12 0 -25 -5 -28 -10 -10 -16
-68 -8 -92 13 -21 19 -24 19 -57 3 -19 -9 -51 -16 -73 -16 -22 0 -48 -8 -63
-20 -14 -11 -39 -20 -57 -20 -22 0 -37 -8 -50 -25 -30 -41 -134 -115 -160
-115 -21 0 -24 -4 -20 -22 7 -25 -16 -47 -50 -48 -14 0 -23 -6 -23 -15 0 -9
-9 -15 -25 -15 -20 0 -27 -6 -31 -29 -8 -37 -62 -80 -75 -60 -7 11 -15 8 -34
-14 -30 -34 -32 -53 -5 -67 11 -6 20 -15 20 -20 0 -6 -9 -10 -20 -10 -15 0
-20 -7 -20 -24 0 -32 19 -44 35 -23 19 26 24 20 13 -16 -8 -28 -6 -38 13 -69
13 -21 31 -37 40 -38 9 0 28 -9 42 -20 14 -11 29 -20 34 -20 6 0 8 44 5 105
-5 103 -4 106 24 146 16 23 44 52 64 64 19 12 41 30 49 39 7 9 17 16 22 16 13
0 132 89 142 105 9 17 64 45 87 45 9 0 24 8 34 19 21 23 112 46 236 61 86 10
98 14 127 42 42 41 51 68 27 85 -25 18 -44 16 -79 -7z"/>
<path d="M4140 5771 c-14 -26 -13 -38 4 -44 30 -12 56 4 56 34 0 24 -4 29 -25
29 -14 0 -29 -8 -35 -19z"/>
</g>
</svg>
