<?xml version="1.0" standalone="no"?>
<!DOCTYPE svg PUBLIC "-//W3C//DTD SVG 20010904//EN"
 "http://www.w3.org/TR/2001/REC-SVG-20010904/DTD/svg10.dtd">
<svg version="1.0" xmlns="http://www.w3.org/2000/svg"
 width="1024.000000pt" height="1024.000000pt" viewBox="0 0 1024.000000 1024.000000"
 preserveAspectRatio="xMidYMid meet">
<metadata>
Created by potrace 1.10, written by Peter Selinger 2001-2011
</metadata>
<g transform="translate(0.000000,1024.000000) scale(0.100000,-0.100000)"
fill="#000000" stroke="none">
<path d="M5850 10230 c-25 -4 -114 -16 -198 -25 -113 -13 -169 -24 -215 -43
-58 -24 -75 -26 -267 -30 l-205 -4 -189 -122 -188 -121 -41 -100 c-22 -55 -44
-105 -49 -112 -5 -6 -41 -30 -81 -53 -40 -24 -100 -69 -133 -102 -56 -55 -64
-59 -93 -53 -53 12 -61 27 -61 124 l0 88 -80 144 c-44 79 -80 155 -80 169 0
57 -13 100 -29 100 -9 0 -475 -95 -1036 -211 l-1020 -210 -268 11 c-148 6
-271 9 -274 7 -2 -3 -46 -931 -96 -2063 l-92 -2057 -521 7 -522 8 -6 -64 c-3
-34 -26 -742 -52 -1571 l-46 -1508 21 -51 c11 -28 21 -71 21 -95 l0 -44 65
-29 c36 -16 102 -59 147 -96 l83 -66 41 -117 c22 -64 57 -151 76 -195 33 -72
40 -81 88 -107 30 -16 55 -31 57 -33 3 -2 -1 -22 -7 -44 -10 -39 -8 -44 30
-104 36 -56 40 -70 40 -126 l0 -63 60 -57 c33 -32 60 -63 60 -69 0 -6 9 -33
21 -60 23 -51 23 -34 -7 -290 -5 -43 -87 -167 -192 -291 l-45 -54 13 -116 c7
-65 22 -160 34 -212 19 -86 24 -96 51 -109 28 -14 30 -13 61 22 30 36 33 37
100 37 57 -1 79 -6 124 -30 63 -34 97 -37 184 -14 50 14 83 15 186 8 165 -12
284 -10 347 5 48 12 53 16 71 59 11 26 23 57 26 69 4 12 15 24 24 27 9 3 60
17 112 31 52 14 102 28 111 31 8 2 42 40 74 83 53 73 69 87 179 155 67 41 147
86 178 100 30 14 78 39 106 56 90 55 225 264 238 368 4 29 23 76 50 123 35 61
46 92 55 156 11 78 13 81 56 114 32 25 56 57 88 120 41 82 46 87 82 92 21 4
54 7 73 7 20 0 96 20 170 45 75 25 164 48 201 51 l66 7 14 -89 14 -88 127 -36
c162 -46 211 -76 258 -157 19 -34 38 -64 40 -67 3 -2 34 2 70 9 36 8 96 14
135 15 l70 0 71 -71 c69 -68 73 -71 135 -79 35 -5 109 -22 165 -39 139 -42
249 -52 334 -28 60 17 81 17 270 7 l205 -12 146 52 147 51 87 203 c47 112 131
285 186 386 l99 184 0 78 0 78 61 0 c34 0 129 11 213 25 l151 26 73 72 c41 40
111 124 156 187 105 148 194 220 300 246 39 9 76 22 82 28 6 6 18 40 27 76 9
36 52 171 94 300 l78 235 100 101 c95 96 102 101 152 108 49 6 53 9 89 65 l38
58 80 7 c45 4 98 11 119 16 20 6 54 15 76 20 l39 10 4 61 c4 53 9 64 40 96
l35 35 45 -20 45 -19 84 62 c67 49 91 74 119 124 28 50 61 83 171 175 75 63
169 152 210 198 40 45 80 84 88 86 9 1 63 -4 120 -11 l105 -14 240 123 241
123 52 88 52 88 77 30 c43 17 98 47 123 67 45 37 46 38 112 32 41 -4 80 -2
103 6 l36 12 -27 33 c-23 28 -40 36 -104 51 l-76 17 -38 76 c-21 42 -48 116
-61 165 -23 90 -32 103 -99 151 -36 25 -342 95 -419 95 -39 0 -105 9 -146 20
-62 17 -272 50 -316 50 -7 0 -28 21 -47 48 -28 38 -36 60 -42 114 l-7 68 -127
146 c-170 197 -157 175 -143 243 7 31 12 86 12 122 0 35 9 93 20 129 23 74 28
270 9 344 l-11 43 -131 11 c-73 7 -169 12 -213 12 l-82 0 -7 157 -8 157 -54
106 c-29 58 -59 113 -66 122 -10 12 -65 25 -208 49 -249 41 -283 57 -316 145
l-24 61 -70 24 c-61 20 -76 30 -101 67 -20 29 -36 42 -52 42 -13 0 -38 3 -55
6 -29 6 -31 9 -31 50 0 43 -1 44 -32 44 -25 0 -45 11 -84 48 l-52 47 -40 172
c-39 165 -42 174 -90 237 l-50 66 12 48 c11 41 10 56 -7 112 -17 58 -28 73
-92 135 -87 84 -99 118 -64 186 25 51 32 43 -108 122 l-92 52 -61 167 c-33 91
-65 191 -71 222 -11 53 -15 58 -74 98 -36 25 -78 65 -99 95 -36 51 -36 52 -36
158 l0 107 -46 59 c-34 42 -57 62 -83 69 -53 16 -120 20 -171 10z"/>
</g>
</svg>
