<?xml version="1.0" standalone="no"?>
<!DOCTYPE svg PUBLIC "-//W3C//DTD SVG 20010904//EN"
 "http://www.w3.org/TR/2001/REC-SVG-20010904/DTD/svg10.dtd">
<svg version="1.0" xmlns="http://www.w3.org/2000/svg"
 width="1024.000000pt" height="1024.000000pt" viewBox="0 0 1024.000000 1024.000000"
 preserveAspectRatio="xMidYMid meet">
<metadata>
Created by potrace 1.10, written by Peter Selinger 2001-2011
</metadata>
<g transform="translate(0.000000,1024.000000) scale(0.100000,-0.100000)"
fill="#000000" stroke="none">
<path d="M5911 10229 c-25 -5 -56 -20 -72 -35 -23 -22 -31 -25 -43 -15 -12 10
-21 4 -53 -39 -31 -41 -42 -50 -60 -45 -13 3 -31 0 -41 -6 -15 -9 -27 -9 -52
0 -30 10 -36 9 -56 -10 -21 -19 -28 -21 -65 -11 -35 9 -48 8 -73 -5 -17 -9
-62 -24 -101 -33 -82 -20 -79 2 -30 -209 32 -139 42 -161 76 -161 10 0 20 -15
27 -39 16 -53 16 -57 -15 -97 -23 -28 -35 -34 -66 -34 l-38 0 6 -54 c6 -48 5
-55 -13 -65 -13 -7 -21 -25 -26 -57 -5 -39 -13 -53 -54 -90 -47 -41 -49 -46
-55 -109 -4 -36 -9 -70 -12 -76 -4 -5 -30 -21 -58 -35 -63 -33 -147 -100 -302
-243 -119 -110 -120 -111 -170 -111 -27 0 -67 5 -87 10 -27 8 -64 7 -139 -5
-56 -8 -131 -15 -166 -15 -48 0 -76 -6 -113 -25 -27 -14 -66 -25 -87 -25 -34
0 -41 5 -67 46 -35 56 -55 64 -159 64 -72 0 -87 -3 -120 -25 -30 -21 -37 -32
-37 -58 0 -25 -7 -36 -29 -49 -45 -25 -66 -63 -52 -94 17 -38 14 -45 -15 -34
-15 6 -42 7 -61 4 -34 -6 -35 -8 -30 -45 4 -33 2 -38 -18 -43 -13 -3 -42 1
-65 9 -45 16 -140 21 -140 7 0 -4 4 -12 9 -17 5 -6 12 -41 16 -80 l8 -70 -21
19 c-21 18 -22 18 -57 -13 -20 -17 -39 -31 -43 -31 -4 0 -13 -4 -20 -9 -11 -6
-6 -23 22 -79 20 -39 36 -73 36 -75 0 -13 -107 16 -159 42 l-61 31 -10 -25
c-13 -34 -13 -71 1 -97 15 -28 8 -31 -34 -13 l-36 15 -20 -56 c-12 -30 -21
-71 -21 -92 0 -20 -6 -77 -14 -125 l-13 -89 -77 -77 -77 -78 7 -136 c6 -121 5
-139 -10 -156 -14 -15 -17 -42 -19 -139 l-2 -120 485 -319 485 -318 7 -320 8
-320 -26 -49 -25 -50 22 -53 c15 -36 26 -52 37 -51 13 2 20 -20 38 -120 13
-68 29 -131 36 -140 132 -160 166 -196 202 -214 23 -11 58 -36 79 -56 33 -32
37 -41 37 -87 0 -27 7 -104 15 -170 10 -81 15 -224 15 -439 l0 -319 31 -53 30
-54 -25 -33 c-17 -22 -26 -47 -26 -69 0 -20 -7 -41 -15 -48 -20 -16 -19 -26 4
-58 17 -25 19 -70 32 -587 8 -308 14 -684 14 -835 1 -151 5 -407 9 -567 l9
-293 -83 7 c-70 5 -82 4 -78 -8 3 -8 14 -40 24 -72 12 -38 29 -68 49 -86 30
-26 31 -28 29 -116 -3 -91 -18 -151 -53 -209 -17 -27 -18 -33 -5 -50 8 -11 14
-32 14 -46 0 -31 37 -69 96 -98 60 -30 76 -60 68 -127 l-7 -55 43 0 c38 0 48
-5 81 -41 40 -43 44 -59 55 -185 l6 -81 -29 -11 c-17 -5 -76 -18 -132 -28 -93
-16 -101 -19 -101 -40 0 -33 15 -37 68 -20 60 20 255 46 347 46 44 0 180 21
365 56 242 46 318 57 420 60 69 1 154 7 190 13 36 6 88 11 116 11 28 0 106 11
174 25 68 14 124 25 125 25 1 0 5 35 8 78 3 42 17 119 32 171 27 89 27 95 12
121 -25 41 -12 85 35 123 36 29 39 34 36 77 -3 39 -6 45 -26 48 -17 3 -29 16
-43 46 -17 39 -17 46 -4 91 8 26 15 69 15 94 0 37 -6 51 -31 77 l-30 31 17 41
c12 33 28 48 70 73 30 17 54 32 54 34 0 3 -13 11 -28 19 -17 9 -35 30 -44 53
-14 37 -14 41 7 71 l22 32 -19 103 c-22 120 -23 129 -20 269 l2 107 34 -6 34
-5 7 62 c7 57 5 63 -15 77 -107 75 -120 112 -120 339 l0 170 -36 35 c-20 18
-44 46 -55 60 l-19 27 35 45 c19 25 35 56 35 69 -1 71 34 288 52 325 24 50 19
93 -17 163 -13 25 -30 70 -38 101 -13 51 -13 59 4 90 10 19 18 46 19 60 0 14
8 33 18 43 29 25 45 87 38 137 -4 24 -10 118 -14 209 -5 96 -13 178 -20 195
-12 28 -11 31 12 50 17 14 26 31 26 49 0 15 7 53 16 84 16 55 16 56 -4 70 -17
11 -19 18 -12 32 13 24 40 153 40 190 0 16 3 31 8 33 4 3 35 0 70 -6 58 -9 64
-8 85 12 34 31 129 30 151 -1 l15 -21 89 38 89 38 38 116 c20 64 48 137 61
162 l23 47 -21 124 c-24 141 -19 177 33 203 34 18 115 146 124 197 9 50 36 74
65 58 20 -11 27 -7 69 34 l46 47 -33 60 -33 60 15 47 16 48 115 38 115 37 35
-21 c41 -25 51 -21 86 39 12 20 37 50 55 66 31 28 34 37 44 122 13 119 22 140
58 148 25 5 31 12 36 43 13 83 8 103 -36 147 -24 23 -58 71 -77 106 l-34 65
37 78 c20 43 36 94 36 113 0 31 4 36 46 53 25 11 52 20 61 20 8 0 45 -18 83
-40 38 -22 71 -40 73 -40 9 0 30 64 38 115 4 28 14 74 23 102 8 29 18 107 22
173 l7 120 -42 0 -41 0 -41 88 c-39 84 -40 88 -25 115 32 57 12 223 -31 269
-26 27 -26 28 -13 100 7 40 13 77 14 82 1 5 -18 15 -41 23 -37 13 -59 37 -204
225 -89 115 -173 230 -187 255 l-24 44 22 84 c12 46 19 88 16 94 -4 6 10 15
32 22 36 10 40 15 51 62 6 28 23 77 38 109 l26 59 -26 27 c-15 16 -27 41 -29
62 -2 28 -8 36 -26 38 -18 3 -23 9 -20 27 2 17 -10 33 -54 69 -31 25 -66 46
-77 46 -12 0 -39 16 -61 36 -38 34 -44 36 -91 32 -29 -3 -66 -1 -85 5 -29 9
-36 19 -73 108 -22 54 -43 109 -47 124 -9 37 -108 115 -145 115 -24 0 -32 6
-40 29 -7 19 -27 37 -60 55 -43 24 -54 37 -89 106 -39 78 -40 79 -86 86 -38 5
-50 13 -73 45 -41 55 -136 139 -157 138 -11 -1 -39 -5 -63 -10z"/>
</g>
</svg>
