<?xml version="1.0" standalone="no"?>
<!DOCTYPE svg PUBLIC "-//W3C//DTD SVG 20010904//EN"
 "http://www.w3.org/TR/2001/REC-SVG-20010904/DTD/svg10.dtd">
<svg version="1.0" xmlns="http://www.w3.org/2000/svg"
 width="1024.000000pt" height="1024.000000pt" viewBox="0 0 1024.000000 1024.000000"
 preserveAspectRatio="xMidYMid meet">
<metadata>
Created by potrace 1.10, written by Peter Selinger 2001-2011
</metadata>
<g transform="translate(0.000000,1024.000000) scale(0.100000,-0.100000)"
fill="#000000" stroke="none">
<path d="M4976 9515 c-17 -38 -39 -64 -84 -98 -54 -42 -62 -53 -77 -105 -9
-31 -18 -63 -20 -69 -3 -9 -28 -13 -78 -13 -68 0 -75 2 -101 29 l-28 29 -44
-23 c-24 -13 -62 -26 -84 -30 -32 -5 -44 -13 -53 -33 -6 -15 -31 -49 -55 -77
l-44 -50 -171 -45 -171 -46 -11 -49 c-11 -55 -33 -69 -65 -40 -16 14 -31 16
-87 11 -37 -4 -83 -7 -101 -6 -29 0 -35 -5 -51 -41 -15 -33 -17 -48 -9 -71 7
-20 7 -32 -1 -42 -8 -10 -9 -16 -1 -21 5 -3 10 -21 10 -38 0 -48 19 -68 109
-111 44 -22 83 -48 86 -57 3 -10 -3 -35 -14 -56 -16 -33 -19 -52 -14 -122 l6
-82 -33 -34 c-33 -34 -40 -60 -27 -107 6 -22 2 -30 -24 -49 l-32 -22 -63 33
c-55 30 -64 32 -80 20 -9 -8 -25 -14 -36 -12 -10 2 -18 -3 -18 -10 0 -7 -9
-19 -19 -25 -15 -9 -23 -9 -37 2 -26 19 -54 -7 -54 -51 l0 -32 -72 -12 c-51
-9 -105 -29 -180 -66 -58 -29 -109 -58 -113 -64 -8 -13 21 -60 37 -60 6 0 20
-7 30 -16 17 -16 20 -15 59 10 46 31 69 23 69 -21 0 -21 3 -23 14 -14 18 15
50 -31 40 -61 -5 -17 -12 -20 -45 -15 -21 3 -39 1 -39 -4 0 -5 -15 -9 -34 -9
-29 0 -34 -4 -39 -29 -4 -18 -14 -30 -28 -34 l-21 -6 20 -25 c11 -14 28 -58
37 -96 17 -71 17 -71 72 -99 l56 -28 -47 -38 -47 -38 -51 16 -50 16 -48 -45
c-31 -29 -53 -42 -64 -38 -8 3 -29 1 -45 -4 -26 -9 -32 -7 -62 24 -18 18 -48
39 -66 45 -18 6 -33 17 -33 25 0 18 -52 44 -77 38 -11 -3 -25 1 -32 10 -8 9
-27 16 -44 16 -17 0 -45 11 -63 25 -53 41 -77 30 -92 -40 -7 -35 -12 -41 -47
-51 -99 -28 -93 -29 -116 19 -17 35 -35 52 -85 81 -35 20 -77 36 -94 36 -31 0
-37 13 -21 39 13 20 -16 61 -54 76 -26 11 -33 23 -49 80 -15 52 -24 69 -43 76
-47 18 -60 11 -82 -41 -17 -39 -33 -57 -69 -80 -45 -27 -48 -32 -44 -64 2 -19
-1 -50 -8 -70 -15 -45 -42 -54 -324 -106 -239 -43 -285 -44 -389 -9 -32 12
-65 18 -73 15 -8 -3 -22 -21 -31 -41 -16 -33 -20 -35 -63 -35 -32 0 -56 -7
-82 -25 -20 -14 -42 -25 -47 -25 -6 0 -30 13 -53 29 -36 25 -58 31 -131 39
-84 8 -91 7 -149 -19 l-62 -27 -55 24 c-31 14 -93 45 -138 70 -46 24 -84 44
-86 44 -2 0 -13 -13 -25 -30 -22 -29 -22 -30 -3 -49 11 -11 24 -45 31 -78 6
-32 15 -67 19 -78 25 -62 33 -99 22 -103 -19 -6 -12 -48 13 -71 17 -16 32 -22
48 -18 38 10 53 -7 21 -22 l-28 -13 22 -15 22 -14 -21 -21 c-18 -18 -18 -21
-4 -37 18 -20 21 -57 6 -66 -12 -7 -14 -68 -3 -79 5 -4 13 -31 18 -59 l10 -52
80 1 c75 1 76 1 20 -5 -33 -3 -69 -12 -80 -19 -20 -12 -19 -13 6 -35 22 -18
26 -28 22 -54 -4 -26 -2 -33 12 -33 27 0 71 -36 85 -70 7 -16 18 -30 25 -30 7
0 24 -18 39 -40 15 -23 34 -40 45 -40 17 0 40 -28 81 -99 8 -14 14 -44 14 -66
0 -42 19 -67 44 -57 10 3 13 0 10 -9 -3 -8 -16 -13 -32 -12 -31 2 -34 -12 -7
-27 11 -5 23 -20 26 -31 5 -15 10 -18 15 -9 5 8 9 7 14 -5 3 -9 4 -20 1 -25
-7 -11 14 -25 56 -39 32 -10 37 -17 43 -51 9 -55 31 -52 34 5 1 36 -3 47 -20
60 -19 13 -20 15 -5 15 10 0 30 -9 45 -19 35 -25 99 -36 118 -20 12 10 12 14
-6 26 -11 8 -20 20 -19 26 1 7 -1 20 -6 30 -5 12 -2 22 9 30 8 7 17 21 19 32
4 29 47 115 57 115 5 0 23 29 40 65 22 46 35 63 45 58 21 -7 19 -20 -3 -26
-21 -5 -37 -47 -19 -47 7 1 25 11 41 24 26 21 31 22 55 10 39 -21 51 -17 66
19 10 25 11 44 3 82 -16 81 -11 121 17 149 14 14 28 39 31 55 4 18 11 28 19
25 19 -8 52 69 69 159 28 143 56 234 82 258 13 12 24 28 24 34 0 6 10 21 22
32 l23 20 120 -39 c79 -26 127 -47 141 -63 19 -20 93 -65 109 -65 10 0 5 36
-7 48 -16 16 2 15 23 -1 9 -7 18 -28 21 -47 3 -19 7 -42 9 -50 2 -10 -3 -15
-16 -16 -45 -2 -46 -3 -35 -23 15 -30 12 -36 -10 -16 -19 17 -19 16 -15 -19 3
-20 7 -51 9 -70 3 -22 -2 -43 -15 -62 -10 -16 -19 -39 -19 -51 0 -19 -3 -20
-29 -10 -38 14 -65 3 -58 -24 4 -16 -1 -23 -23 -30 -53 -19 -47 -53 22 -119
62 -59 151 -85 193 -57 17 12 25 12 53 0 33 -14 42 -39 20 -61 -8 -8 -5 -16
13 -31 13 -11 31 -20 39 -21 8 0 38 -12 65 -27 28 -15 68 -29 90 -32 35 -5 40
-10 43 -34 2 -16 11 -31 20 -34 9 -4 28 -15 41 -25 35 -27 59 -24 53 7 -4 25
-49 65 -71 65 -6 0 -11 4 -11 9 0 5 -9 11 -20 14 -14 3 -20 14 -20 31 0 27 5
29 52 26 33 -2 41 11 32 54 -4 24 -13 37 -28 42 -31 9 -76 55 -76 77 0 36 -19
58 -45 51 -35 -9 -63 4 -80 36 -19 37 -19 74 0 90 17 14 3 50 -19 50 -8 0 -19
7 -27 16 -9 11 -22 14 -41 10 -15 -3 -28 -1 -28 4 0 6 7 10 15 10 21 0 19 10
-15 63 -32 52 -43 110 -15 87 8 -7 15 -18 15 -25 0 -10 70 -72 150 -131 16
-12 42 -32 57 -45 16 -13 64 -35 107 -49 45 -14 80 -31 83 -40 3 -8 16 -37 28
-65 43 -91 65 -146 65 -162 0 -9 8 -22 17 -29 25 -17 24 -140 0 -174 -9 -14
-17 -36 -17 -50 0 -14 -5 -31 -11 -37 -20 -20 -23 -142 -5 -211 8 -34 13 -74
10 -89 -7 -34 4 -59 56 -138 21 -33 52 -85 69 -116 16 -31 46 -69 65 -85 105
-85 170 -145 191 -175 26 -39 111 -113 148 -130 14 -6 49 -40 79 -76 56 -68
158 -134 228 -148 20 -4 54 -24 80 -49 56 -52 82 -66 119 -66 36 0 56 -24 53
-61 -3 -25 3 -33 45 -58 82 -51 96 -62 85 -73 -6 -6 -20 -4 -40 6 -39 20 -68
20 -75 2 -5 -13 -12 -13 -47 1 -23 9 -45 24 -50 34 -8 14 -2 19 36 28 35 9 44
15 40 27 -3 9 -6 24 -6 35 0 13 -7 19 -21 19 -11 0 -43 10 -70 21 -38 17 -53
19 -62 10 -19 -19 -46 -13 -101 24 -29 19 -59 35 -66 35 -7 0 -11 3 -7 6 8 9
-48 54 -67 54 -9 0 -16 5 -16 10 0 6 -6 10 -14 10 -30 0 -27 -22 8 -55 38 -36
46 -55 21 -55 -19 0 -19 -4 0 -40 27 -52 -22 -31 -107 47 -26 24 -52 43 -58
43 -11 0 -4 -41 11 -72 17 -32 11 -41 -22 -34 -33 6 -97 56 -92 72 1 5 -9 18
-24 28 -30 22 -153 67 -165 60 -13 -8 -9 -38 8 -63 15 -21 21 -23 79 -16 61 6
63 6 69 -19 3 -13 4 -30 1 -38 -5 -13 23 -47 59 -72 17 -12 18 -14 2 -45 l-17
-32 61 -59 c34 -32 57 -59 51 -61 -16 -6 44 -75 77 -91 15 -7 33 -28 41 -45 8
-18 23 -36 34 -39 15 -5 17 -8 6 -15 -10 -6 -4 -12 23 -24 21 -8 42 -15 47
-15 6 0 35 -30 64 -67 80 -100 180 -192 216 -199 18 -4 38 -18 49 -35 23 -37
115 -105 161 -120 20 -6 43 -17 51 -24 8 -7 24 -15 35 -18 11 -2 3 -4 -18 -4
-52 0 -54 -7 -10 -34 21 -13 49 -35 63 -50 20 -20 42 -29 98 -39 52 -9 81 -20
109 -42 30 -23 44 -28 68 -24 19 4 25 3 16 -3 -19 -12 -5 -30 36 -47 18 -8 37
-22 40 -32 3 -9 20 -30 37 -47 l31 -30 -31 -3 c-31 -3 -31 -4 -23 -40 5 -20 9
-57 9 -80 0 -35 4 -45 20 -49 25 -7 27 -33 3 -33 -13 -1 -3 -14 30 -45 30 -28
43 -45 33 -45 -22 0 -20 -19 2 -26 9 -3 25 -10 35 -15 10 -5 22 -7 28 -3 6 3
21 -4 33 -15 27 -26 156 -42 156 -20 0 8 13 10 45 6 38 -6 46 -4 55 14 10 17
6 22 -34 40 -26 11 -46 21 -46 23 0 2 18 -1 41 -7 29 -7 55 -7 90 1 38 9 54 9
69 -1 31 -19 24 -26 -27 -29 l-48 -3 28 -19 c24 -16 35 -18 66 -10 20 6 47 7
61 3 40 -11 170 -10 170 1 0 6 -6 10 -12 10 -7 0 -35 11 -63 25 -27 13 -63 25
-80 25 -31 0 -75 20 -46 20 8 0 43 12 78 26 62 24 67 25 161 14 102 -12 147
-30 75 -30 -24 0 -46 -6 -53 -15 -7 -8 -20 -15 -29 -15 -13 -1 -13 -2 3 -12
10 -6 59 -11 107 -12 83 -2 91 -4 136 -36 134 -95 143 -100 195 -100 41 0 54
-4 68 -23 24 -30 109 -55 229 -66 l94 -9 104 -108 c57 -60 108 -117 114 -127
6 -10 24 -23 39 -29 16 -5 32 -18 35 -29 8 -24 121 -139 138 -139 7 0 21 -14
30 -30 12 -20 26 -30 42 -30 41 0 127 -38 178 -77 27 -21 87 -73 134 -116 57
-53 90 -76 101 -73 12 4 21 -2 27 -17 6 -12 19 -24 30 -26 25 -4 35 -19 35
-52 0 -36 68 -119 97 -119 12 0 27 -9 33 -20 6 -11 20 -24 31 -31 18 -9 19 -9
10 9 -10 19 -3 22 119 52 86 21 130 37 130 46 0 48 -27 119 -69 183 l-49 73
-168 92 -169 91 -21 60 -21 59 -69 23 -69 23 -53 134 -53 134 21 82 c12 45 20
83 18 85 -2 1 -29 17 -60 34 -42 24 -67 31 -100 30 -49 -2 -67 7 -190 101 -60
46 -113 100 -184 188 -118 146 -257 262 -362 302 l-66 25 -29 70 c-24 60 -36
75 -78 103 -29 19 -62 53 -80 82 -17 27 -49 63 -72 80 -23 16 -58 56 -78 87
-33 54 -41 60 -105 83 -64 24 -70 28 -83 67 -14 39 -18 42 -62 48 -39 5 -54
15 -96 58 -28 29 -56 69 -63 90 -7 22 -42 72 -81 115 -47 53 -69 85 -69 103 0
14 -11 59 -25 100 -24 69 -25 78 -13 138 l12 64 -29 23 c-16 13 -42 26 -57 30
-33 7 -34 9 -9 40 19 24 18 24 -33 158 l-52 135 -89 68 c-80 61 -96 79 -158
180 l-70 112 -77 -6 -78 -6 -55 44 c-46 36 -59 54 -76 103 l-20 58 46 42 47
43 -39 68 c-62 111 -70 198 -18 211 22 6 24 10 18 48 -4 22 -18 65 -31 95
l-24 54 24 26 c38 40 43 65 30 147 l-11 75 29 24 c16 14 35 25 42 25 7 0 21 8
30 19 15 16 22 17 58 8 34 -8 42 -8 50 6 15 27 53 21 64 -10 l9 -26 33 28 c32
27 35 27 60 13 15 -8 39 -18 55 -22 29 -7 33 -17 17 -47 -8 -15 -7 -19 4 -19
9 0 30 -13 47 -28 26 -23 33 -39 40 -86 10 -73 37 -106 88 -106 32 0 44 -8
101 -70 62 -68 68 -71 128 -81 34 -6 82 -8 107 -5 43 7 44 8 51 52 4 26 21 67
39 94 22 33 29 52 24 63 -7 12 5 23 53 49 60 33 62 36 85 103 29 87 57 118 98
112 16 -3 47 0 68 6 34 9 46 7 117 -23 62 -25 89 -31 118 -27 24 4 64 -2 117
-17 94 -28 112 -23 117 32 3 32 7 37 30 40 18 2 28 11 32 28 4 13 14 24 23 24
9 0 27 10 40 21 18 18 25 20 37 10 11 -9 13 -19 5 -37 -16 -43 -11 -54 21 -54
24 0 30 4 30 23 0 21 1 21 18 -5 17 -26 19 -27 36 -10 17 16 18 16 12 -5 -6
-19 -3 -22 21 -20 22 2 29 -3 31 -19 2 -16 30 -33 115 -73 102 -47 118 -51
184 -51 l73 0 18 36 c12 23 22 33 26 25 4 -6 16 -11 27 -11 10 0 19 -7 19 -15
0 -8 7 -15 15 -15 8 0 15 -4 15 -10 0 -33 159 -56 189 -27 10 10 16 8 31 -10
10 -13 25 -23 34 -23 9 0 16 -8 16 -19 0 -25 77 -35 90 -12 7 14 11 14 27 -2
13 -11 22 -14 30 -6 7 7 18 6 35 -1 21 -10 33 -8 76 14 28 14 55 26 60 26 5 0
73 -40 151 -90 78 -49 146 -90 152 -90 5 0 43 19 84 42 66 37 75 45 75 70 0
23 4 28 24 28 17 0 27 9 36 31 18 43 49 53 79 25 17 -15 25 -17 28 -8 6 17 48
15 63 -3 7 -8 10 -22 6 -30 -4 -10 7 -27 30 -47 33 -29 40 -31 107 -29 80 2
102 17 92 61 -5 24 -1 27 45 44 28 10 52 17 54 15 2 -2 8 -13 13 -23 14 -26
90 -45 179 -46 l72 0 36 -44 c30 -37 44 -46 81 -52 25 -3 48 -10 51 -15 10
-16 24 -10 36 16 8 19 8 28 -2 40 -16 19 0 20 26 0 24 -18 34 -19 34 -2 0 8
14 12 40 12 42 0 47 -4 28 -23 -9 -9 -3 -15 25 -27 47 -20 47 -20 47 14 0 41
24 58 38 27 6 -13 8 -33 6 -43 -4 -14 7 -30 41 -58 39 -32 46 -42 40 -63 -6
-24 -6 -24 50 -17 l55 6 0 -46 c0 -25 4 -54 9 -64 8 -14 5 -16 -23 -13 -32 4
-32 4 -28 -38 4 -37 8 -43 52 -65 26 -13 54 -35 64 -49 16 -26 19 -26 136 -26
l119 0 7 51 c8 63 32 76 109 61 48 -10 51 -9 86 23 20 18 51 36 69 40 30 7 32
9 25 43 -10 51 -10 52 -66 52 -55 0 -53 -8 -27 93 5 21 6 47 3 57 -3 11 -1 28
5 40 9 16 6 27 -15 57 -43 65 -34 87 29 68 l43 -13 41 52 c38 49 40 54 24 69
-12 13 -13 20 -5 28 9 9 32 7 93 -9 80 -20 80 -20 91 0 9 17 17 19 47 13 21
-4 48 -17 62 -31 14 -13 40 -27 58 -30 41 -8 102 3 108 21 3 7 -4 35 -16 62
l-21 50 -127 19 -127 20 -6 29 c-3 20 -10 29 -20 26 -66 -16 -127 -10 -188 17
-58 25 -66 33 -78 69 -13 39 -16 41 -76 53 -84 17 -137 51 -137 89 0 25 5 30
50 42 l50 14 -30 47 c-20 32 -30 61 -30 87 0 37 2 39 38 45 20 3 54 6 74 6 27
0 41 6 53 22 14 21 14 24 -7 40 -13 10 -40 23 -60 28 -20 6 -40 15 -44 21 -6
11 -106 5 -140 -8 -9 -3 -14 2 -14 15 0 36 -11 52 -36 52 -32 0 -31 25 1 46
23 15 24 17 7 41 -16 26 -16 26 11 21 23 -4 27 -2 27 17 0 12 9 30 20 40 30
27 24 50 -20 87 l-41 32 38 23 c65 39 83 78 33 71 -17 -3 -33 -1 -36 4 -3 4
-21 8 -41 8 -39 0 -107 36 -97 52 4 6 24 7 48 4 42 -7 43 -6 53 29 9 29 8 39
-6 56 -16 20 -17 20 -54 3 -49 -24 -62 -11 -48 43 9 33 16 42 41 47 33 6 37
21 15 50 -20 26 -19 33 5 41 22 7 28 45 8 45 -7 -1 -24 -7 -38 -15 -14 -8 -38
-14 -55 -15 -20 0 -36 -9 -51 -27 l-22 -27 -103 32 c-87 28 -105 31 -114 19
-105 -143 -175 -222 -216 -243 -28 -14 -55 -21 -68 -17 -18 4 -33 -5 -71 -42
-52 -51 -73 -55 -147 -24 -28 11 -34 11 -50 -3 -23 -21 -92 -11 -183 26 -77
32 -211 43 -231 20 -19 -23 -85 -17 -129 11 -35 22 -51 25 -134 25 -79 0 -101
-4 -131 -21 -20 -12 -37 -20 -39 -18 -1 2 -13 19 -26 37 -20 30 -27 33 -53 28
-23 -5 -61 6 -149 40 l-117 45 -18 56 c-26 83 -74 114 -217 143 -61 12 -121
24 -133 27 -18 4 -25 -1 -33 -22 -11 -28 -16 -28 -89 3 l-36 15 35 12 c33 11
34 12 12 19 -16 6 -21 13 -17 26 8 26 -53 40 -70 16 -17 -22 -20 -21 -44 19
-14 24 -28 35 -43 35 -22 0 -22 1 7 24 l30 24 -37 7 c-31 6 -38 11 -38 31 0
18 -5 24 -22 24 -21 0 -21 0 -2 21 18 21 18 21 -9 41 -15 11 -27 26 -27 33 0
7 -16 19 -35 25 -32 10 -35 15 -35 48 l0 37 -186 80 c-184 79 -186 81 -245
147 -47 53 -59 73 -59 100 0 45 -50 120 -98 148 -32 19 -43 21 -80 12 -35 -8
-45 -7 -49 4 -3 8 -19 14 -38 14 -30 0 -35 5 -54 50 -15 34 -29 52 -45 56 -17
4 -22 11 -19 28 4 19 -3 26 -45 44 -60 26 -65 26 -100 8 -24 -13 -33 -12 -84
9 -31 13 -69 37 -85 54 -23 26 -41 34 -100 45 l-73 14 -24 -53z"/>
<path d="M1399 6608 c-12 -24 -28 -47 -35 -53 -16 -12 -7 -64 12 -72 8 -3 14
-13 14 -23 0 -20 22 -41 68 -64 31 -16 33 -20 31 -66 -2 -44 1 -53 36 -92 21
-24 47 -46 57 -50 10 -4 18 -12 18 -18 0 -6 -7 -6 -20 2 -15 10 -22 10 -32 0
-10 -10 -9 -19 5 -44 16 -28 16 -33 3 -46 -22 -22 -71 1 -106 50 -30 42 -35
40 -56 -18 -9 -26 -8 -33 6 -42 10 -6 20 -23 23 -39 15 -76 19 -91 29 -126 7
-23 16 -36 24 -33 20 8 31 -14 37 -74 4 -31 13 -60 22 -66 10 -8 15 -28 15
-63 0 -50 -1 -52 -22 -46 -13 4 -27 11 -32 16 -22 20 -36 8 -36 -30 0 -61 11
-99 35 -123 37 -38 47 -64 30 -78 -22 -18 -19 -67 4 -80 29 -15 51 -12 51 8 1
23 50 -36 50 -60 0 -9 12 -26 28 -37 32 -25 40 -32 71 -65 27 -30 81 -37 81
-10 0 17 -75 94 -91 94 -19 0 -92 84 -113 129 -12 25 -26 53 -31 61 -5 8 -10
44 -11 79 l-2 64 37 -39 c21 -21 41 -48 45 -60 6 -19 77 -74 97 -74 5 0 9 7 9
15 0 8 16 21 35 29 51 22 43 44 -12 37 -8 -1 -13 11 -13 32 0 21 -6 37 -14 40
-8 3 -26 26 -41 51 -24 40 -26 50 -16 78 15 44 14 50 -15 93 -17 26 -20 36
-10 32 18 -7 20 -1 16 63 -1 25 -9 56 -17 69 -10 16 -13 35 -9 60 4 20 9 52
12 71 10 67 14 80 29 80 16 0 20 36 7 58 -5 7 -23 11 -42 10 -36 -3 -33 -8
-125 180 -33 67 -35 76 -29 136 6 59 5 64 -17 80 -41 28 -66 21 -90 -26z"/>
<path d="M2164 6023 c-3 -13 -11 -23 -16 -23 -6 0 -5 -7 2 -15 7 -8 26 -15 42
-15 31 0 30 9 -6 55 -16 20 -16 20 -22 -2z"/>
<path d="M2121 5942 c-7 -14 -18 -18 -43 -14 l-33 4 38 -37 c40 -40 45 -47 22
-39 -10 4 -15 0 -15 -10 0 -12 -6 -15 -25 -10 -14 3 -32 3 -42 0 -14 -6 -11
-12 18 -42 30 -31 39 -35 79 -33 55 3 76 -8 137 -69 54 -54 108 -80 117 -57 9
25 -62 120 -134 179 -72 59 -81 74 -55 96 14 12 14 15 -1 31 -22 24 -50 24
-63 1z"/>
<path d="M2281 5949 l-25 -10 23 -15 c17 -12 25 -13 36 -4 8 6 11 18 8 26 -6
16 -9 16 -42 3z"/>
<path d="M1412 5818 c-14 -14 -16 -48 -3 -48 9 0 25 49 18 56 -2 2 -9 -2 -15
-8z"/>
<path d="M2140 5617 c0 -7 16 -32 35 -54 19 -23 35 -46 35 -52 0 -15 119 -145
136 -149 8 -2 14 -10 14 -18 0 -19 26 -61 64 -102 25 -27 28 -36 19 -51 -9
-15 -6 -22 22 -44 19 -15 41 -27 50 -27 42 0 135 -96 135 -140 0 -21 59 -37
71 -18 5 8 14 7 33 -6 31 -20 31 -21 5 -47 -17 -17 -18 -23 -7 -36 7 -9 13
-21 13 -28 0 -20 101 -105 124 -105 29 0 17 25 -28 55 -42 29 -39 30 19 10 49
-17 79 -19 100 -5 13 9 11 13 -10 29 -14 11 -21 23 -17 27 4 4 15 0 25 -9 24
-22 52 -22 52 -1 0 22 -65 82 -95 90 -14 3 -27 15 -30 25 -4 11 -21 26 -38 35
-18 9 -46 31 -64 48 -87 85 -141 118 -128 76 3 -11 3 -20 -2 -20 -13 1 -67 52
-97 93 -16 20 -33 37 -40 37 -15 1 -84 60 -69 60 6 0 15 -6 22 -13 6 -8 35
-26 66 -41 30 -16 55 -32 55 -36 0 -5 27 -17 61 -29 l61 -20 -17 27 c-31 49
-56 70 -89 76 -33 6 -58 33 -89 93 -21 40 -67 73 -113 80 -36 6 -37 5 -32 -21
l5 -27 -24 23 c-86 80 -113 109 -113 118 0 14 -94 110 -108 110 -7 0 -12 -6
-12 -13z"/>
<path d="M1317 5572 c-14 -16 -27 -44 -30 -68 -4 -37 -2 -42 27 -62 18 -12 35
-22 39 -22 14 0 6 28 -13 45 -25 22 -26 63 -2 72 32 12 43 47 18 56 -7 3 -25
-7 -39 -21z"/>
<path d="M1360 5232 c0 -17 29 -34 47 -28 9 4 13 10 7 15 -15 14 -54 23 -54
13z"/>
<path d="M2195 4980 c5 -28 3 -46 -6 -57 -12 -13 -9 -19 16 -39 39 -31 85 -32
85 -3 0 11 -7 27 -15 35 -9 10 -12 25 -8 44 7 38 -11 60 -49 60 -29 0 -30 -1
-23 -40z"/>
<path d="M2017 4986 c-3 -8 4 -26 16 -40 12 -13 30 -36 40 -50 10 -14 24 -26
32 -26 20 0 19 29 0 36 -8 4 -15 18 -15 34 0 16 -3 35 -6 44 -8 20 -60 21 -67
2z"/>
<path d="M1880 4876 c0 -16 46 -54 97 -80 49 -24 58 -19 25 14 -17 17 -34 30
-38 30 -4 0 -22 11 -40 25 -38 29 -44 30 -44 11z"/>
<path d="M2060 4742 c0 -14 23 -32 42 -32 24 0 23 17 -1 30 -23 12 -41 13 -41
2z"/>
<path d="M2163 4735 c-18 -19 -16 -29 7 -50 11 -10 20 -13 20 -7 0 7 14 12 30
12 21 0 30 -5 30 -17 0 -28 52 -123 67 -123 13 0 13 4 -2 26 -18 29 -15 43 5
19 7 -8 18 -15 25 -15 7 0 18 -7 26 -16 13 -16 54 -12 74 7 12 13 -23 42 -42
35 -21 -8 -93 36 -126 78 -17 21 -45 45 -64 52 -39 17 -35 17 -50 -1z"/>
<path d="M2500 4534 c0 -29 123 -144 155 -144 3 0 5 6 5 13 0 15 -95 117 -109
117 -5 0 -14 7 -21 15 -16 19 -30 19 -30 -1z"/>
<path d="M2350 4489 c0 -7 9 -23 21 -35 l20 -21 -28 -1 c-15 0 -38 6 -50 14
-13 8 -23 11 -23 6 0 -15 82 -63 97 -57 25 9 198 -160 265 -260 67 -98 182
-223 253 -274 42 -30 45 -31 45 -12 0 14 -6 21 -18 21 -10 0 -29 11 -42 25
l-23 25 22 0 c12 0 37 -11 55 -25 18 -14 35 -25 38 -25 3 0 5 13 6 30 0 20 -5
31 -17 35 -10 3 -44 28 -75 55 -32 28 -61 50 -66 50 -4 0 -17 15 -28 34 -13
22 -33 38 -56 46 -37 12 -86 77 -100 133 -3 15 -11 27 -16 27 -6 0 -10 7 -10
15 0 9 -6 15 -12 13 -21 -4 -91 34 -95 53 -3 10 -18 23 -34 29 -16 7 -29 18
-29 25 0 6 -17 25 -37 41 -53 42 -63 47 -63 33z m510 -539 c9 -16 8 -18 -5
-14 -8 4 -15 12 -15 20 0 20 7 17 20 -6z"/>
<path d="M2420 4479 c0 -5 7 -9 15 -9 7 0 18 -6 22 -14 9 -15 53 -32 53 -19 0
18 -17 31 -52 41 -23 6 -38 7 -38 1z"/>
<path d="M2630 4476 c0 -20 45 -50 64 -43 9 4 19 -5 27 -24 6 -17 23 -38 37
-47 13 -9 57 -49 97 -90 59 -61 78 -74 96 -69 23 6 38 -6 110 -94 66 -80 169
-179 187 -179 9 0 28 -9 42 -20 14 -11 40 -20 58 -20 46 0 39 25 -18 65 -25
17 -51 45 -59 63 -8 17 -24 35 -35 38 -12 3 -37 18 -56 33 -19 15 -55 40 -79
55 -57 36 -157 134 -169 166 -7 17 -23 29 -50 37 -23 7 -53 24 -69 39 -76 70
-112 92 -123 75 -5 -9 -10 -10 -14 -2 -4 6 -16 16 -27 21 -15 8 -19 7 -19 -4z"/>
<path d="M2725 4273 c11 -47 145 -165 145 -128 0 24 -12 45 -25 45 -7 0 -34
25 -60 55 -52 61 -71 70 -60 28z"/>
<path d="M3040 3881 c0 -5 10 -13 23 -16 12 -4 40 -24 62 -45 79 -74 125 -93
77 -32 -16 20 -32 49 -35 63 -6 22 -11 25 -37 21 -18 -3 -30 0 -30 7 0 6 -13
11 -30 11 -16 0 -30 -4 -30 -9z"/>
<path d="M3005 3816 c21 -38 23 -46 9 -46 -8 0 -14 -6 -12 -12 3 -8 23 -13 47
-14 36 -1 48 -7 76 -37 19 -21 39 -37 45 -37 5 0 50 -22 98 -50 48 -27 93 -50
100 -50 29 0 7 18 -58 50 -49 24 -77 45 -94 71 -17 24 -49 50 -96 76 -61 32
-71 41 -67 60 3 16 -1 23 -12 23 -9 0 -26 3 -39 6 l-23 7 26 -47z"/>
<path d="M3570 3775 c0 -16 52 -84 69 -90 10 -3 24 -19 31 -35 10 -24 19 -30
41 -30 16 0 29 3 29 6 0 18 -43 72 -60 77 -11 3 -25 19 -31 36 -9 24 -16 30
-29 26 -10 -3 -21 -1 -25 5 -6 10 -25 14 -25 5z"/>
<path d="M3950 3553 c0 -12 7 -23 15 -26 23 -9 26 9 5 28 -19 17 -20 17 -20
-2z"/>
<path d="M3904 3534 c3 -9 6 -20 6 -25 0 -5 7 -9 15 -9 18 0 18 5 5 31 -13 23
-35 26 -26 3z"/>
<path d="M3784 3486 c14 -19 26 -42 26 -50 0 -9 9 -16 20 -16 31 0 25 36 -12
70 -46 41 -67 39 -34 -4z"/>
<path d="M3867 3486 c-3 -8 8 -19 29 -29 46 -23 44 7 -3 31 -16 9 -22 9 -26
-2z"/>
<path d="M4027 3486 c-17 -13 -15 -16 20 -45 29 -24 39 -28 41 -17 2 9 -2 21
-8 28 -6 7 -16 21 -23 30 -10 15 -15 15 -30 4z"/>
<path d="M3740 3455 c24 -25 50 -33 50 -15 0 9 -51 40 -66 40 -4 0 3 -11 16
-25z"/>
<path d="M3636 3415 c4 -8 14 -15 23 -15 10 0 30 -13 46 -30 27 -28 94 -49
125 -38 16 5 -89 75 -122 82 -16 3 -39 8 -53 11 -19 4 -23 2 -19 -10z"/>
<path d="M4448 2952 c-16 -2 -28 -7 -28 -12 0 -9 59 -19 65 -10 8 13 -11 25
-37 22z"/>
<path d="M4536 2934 c-32 -33 -33 -44 -2 -44 21 0 85 18 95 26 9 8 -33 44 -49
44 -10 0 -29 -12 -44 -26z"/>
<path d="M4693 2863 c-27 -5 -26 -5 -12 -35 10 -24 91 -61 136 -63 11 0 35
-15 51 -33 19 -20 40 -32 56 -32 15 0 35 -6 46 -12 33 -21 46 4 18 35 -92 103
-90 101 -106 81 -14 -18 -14 -18 -9 4 4 17 1 22 -16 22 -11 0 -28 7 -37 15
-18 16 -90 26 -127 18z"/>
<path d="M5070 2807 c0 -8 7 -27 15 -43 13 -25 13 -30 0 -44 -8 -9 -12 -19 -9
-23 3 -3 3 -11 -1 -17 -5 -8 -11 -8 -21 1 -8 6 -18 9 -21 5 -15 -14 15 -41 61
-56 26 -9 62 -30 80 -47 28 -28 45 -34 133 -49 86 -14 122 -15 259 -6 193 14
234 20 241 38 3 8 10 14 15 14 16 0 37 32 38 56 0 16 -12 28 -42 44 -24 13
-52 24 -63 25 -11 1 -23 3 -27 4 -5 0 -8 7 -8 15 0 20 -95 33 -115 16 -8 -7
-15 -8 -15 -3 0 21 -209 58 -380 68 -36 1 -82 6 -102 10 -30 6 -38 4 -38 -8z"/>
<path d="M5252 2467 c-27 -14 -23 -32 7 -31 11 0 21 -3 21 -8 0 -5 12 -20 26
-33 l27 -25 -26 0 c-14 0 -27 4 -29 8 -1 4 -17 18 -34 29 -28 20 -37 21 -85
12 -30 -5 -87 -12 -127 -16 -70 -5 -72 -6 -56 -24 9 -11 23 -19 31 -19 8 0 31
-9 53 -20 22 -11 50 -20 64 -20 13 0 46 -11 73 -24 74 -36 251 -67 348 -60 50
4 125 0 200 -10 141 -19 483 -22 568 -5 87 18 58 35 -72 43 -60 4 -126 12
-147 18 -54 14 -189 26 -384 34 l-165 6 -33 36 c-18 21 -37 48 -43 61 -8 21
-14 23 -49 17 -27 -4 -40 -2 -40 5 0 6 -6 9 -12 6 -7 -3 -21 -8 -30 -12 -12
-5 -17 0 -20 17 -3 26 -30 32 -66 15z"/>
<path d="M4917 2346 c-3 -8 8 -20 29 -30 43 -20 74 -21 74 -1 0 8 -9 15 -20
15 -12 0 -34 7 -50 15 -23 12 -29 12 -33 1z"/>
<path d="M4475 2140 c-64 -29 -88 -83 -31 -73 20 4 26 1 26 -13 0 -9 -7 -25
-16 -35 -28 -31 -8 -42 67 -35 37 3 80 11 94 16 14 6 38 10 53 11 19 0 36 12
60 41 53 67 41 91 -36 68 -27 -7 -33 -6 -29 4 4 9 -5 16 -25 20 -44 9 -140 6
-163 -4z"/>
<path d="M6064 2045 c12 -29 13 -35 2 -35 -12 0 -31 -29 -24 -35 2 -1 39 -14
83 -29 67 -22 98 -26 190 -26 110 0 110 0 159 -35 27 -19 65 -40 85 -46 20 -7
50 -23 67 -36 24 -18 44 -23 87 -23 48 0 58 -3 76 -27 12 -15 19 -34 16 -44
-5 -15 23 -27 202 -85 114 -38 220 -76 235 -86 14 -10 37 -18 50 -18 17 0 29
-8 36 -25 13 -29 32 -33 32 -7 0 10 -16 33 -35 52 -19 18 -33 35 -31 38 6 6
49 -18 69 -39 23 -25 44 -24 52 1 4 11 11 17 17 14 6 -4 24 -7 39 -6 18 0 29
-4 29 -13 0 -22 41 -46 57 -33 10 8 13 3 13 -23 0 -32 6 -38 98 -95 131 -83
159 -97 165 -81 2 7 8 3 16 -11 9 -16 21 -22 49 -23 22 -1 29 -3 17 -6 -55
-14 -66 -22 -56 -41 7 -14 26 -21 67 -25 37 -4 69 -15 94 -32 31 -21 42 -24
58 -16 15 8 24 6 41 -13 23 -25 28 -52 9 -59 -30 -10 87 -106 217 -178 44 -24
96 -58 116 -76 20 -18 46 -33 57 -33 12 0 41 -23 70 -55 28 -30 53 -55 56 -55
3 0 6 10 6 23 0 13 5 28 11 34 8 8 -15 30 -80 79 -57 44 -88 75 -86 84 2 8 7
35 10 60 6 43 4 48 -45 105 -28 33 -61 63 -73 67 -43 12 -88 8 -128 -12 -40
-21 -59 -20 -59 4 0 8 -33 40 -72 72 -40 32 -125 101 -188 154 -144 121 -242
186 -302 201 -40 10 -48 15 -48 35 0 16 -9 28 -29 38 -23 12 -29 24 -35 63
-11 81 -83 133 -117 83 -13 -19 -16 -19 -69 -5 -73 20 -92 19 -135 -7 l-37
-21 -55 27 c-73 36 -79 26 -9 -15 31 -18 58 -39 60 -46 9 -21 -15 -15 -34 10
-10 12 -47 33 -83 46 -36 12 -68 29 -71 37 -3 8 -15 14 -26 14 -18 0 -19 -3
-9 -21 10 -20 9 -21 -12 -14 -13 4 -41 9 -61 12 -32 4 -38 9 -38 29 0 27 -32
64 -55 64 -8 0 -67 25 -131 55 -64 30 -128 55 -141 55 -13 0 -37 7 -54 15 -24
13 -51 14 -149 9 l-120 -7 -46 37 c-26 20 -56 36 -66 36 -17 0 -17 -2 -4 -35z"/>
<path d="M5417 1953 c-26 -7 -15 -28 15 -29 13 0 31 -6 40 -14 13 -13 11 -18
-19 -48 -19 -18 -33 -38 -30 -45 2 -7 25 -12 58 -13 30 -1 68 -7 84 -13 17 -7
69 -17 118 -22 48 -5 95 -14 105 -20 21 -13 100 8 161 42 37 22 38 21 217 -13
101 -20 115 -21 164 -7 62 16 74 34 30 44 -19 4 -36 17 -45 35 -15 30 -59 50
-109 50 -17 0 -43 6 -58 14 -33 17 -176 12 -265 -11 -82 -21 -235 -6 -296 29
-12 7 -33 14 -47 15 -14 2 -43 5 -65 7 -22 3 -48 2 -58 -1z m110 -69 c-3 -3
-12 -4 -19 -1 -8 3 -5 6 6 6 11 1 17 -2 13 -5z"/>
<path d="M6654 1545 c-10 -8 -27 -15 -36 -15 -21 0 -23 -10 -5 -32 12 -17 95
-44 104 -34 3 3 18 -1 34 -9 15 -8 42 -15 59 -15 17 0 43 -9 58 -19 18 -13 70
-27 154 -40 83 -13 143 -28 176 -45 42 -21 55 -24 85 -15 51 14 53 25 10 39
-21 7 -52 20 -70 31 -18 10 -59 21 -93 25 -34 4 -60 11 -60 18 0 6 -21 17 -47
23 -27 7 -91 24 -142 38 -52 14 -113 25 -134 25 -32 0 -37 2 -28 14 9 11 8 15
-5 20 -24 9 -38 7 -60 -9z"/>
<path d="M5699 1484 c-10 -13 13 -38 24 -27 4 3 7 -1 7 -9 0 -9 -5 -18 -12
-20 -7 -3 -3 -13 11 -27 16 -16 29 -21 44 -16 45 14 77 17 77 7 0 -21 40 1 60
33 37 60 33 63 -91 67 -73 2 -114 -1 -120 -8z"/>
</g>
</svg>
