<?xml version="1.0" standalone="no"?>
<!DOCTYPE svg PUBLIC "-//W3C//DTD SVG 20010904//EN"
 "http://www.w3.org/TR/2001/REC-SVG-20010904/DTD/svg10.dtd">
<svg version="1.0" xmlns="http://www.w3.org/2000/svg"
 width="1024.000000pt" height="1024.000000pt" viewBox="0 0 1024.000000 1024.000000"
 preserveAspectRatio="xMidYMid meet">
<metadata>
Created by potrace 1.10, written by Peter Selinger 2001-2011
</metadata>
<g transform="translate(0.000000,1024.000000) scale(0.100000,-0.100000)"
fill="#000000" stroke="none">
<path d="M7485 10198 c4 -24 14 -51 23 -61 14 -16 13 -19 -8 -42 -13 -14 -33
-25 -44 -25 -13 0 -28 -12 -38 -30 -14 -25 -23 -30 -56 -30 -23 0 -45 -6 -52
-15 -16 -19 -40 -19 -68 1 -13 9 -34 14 -48 11 -19 -3 -29 3 -45 24 -22 31
-44 37 -52 15 -3 -8 -16 -16 -29 -18 -16 -2 -24 -12 -29 -36 -4 -18 -3 -35 2
-38 18 -11 8 -59 -17 -85 l-26 -28 31 -46 31 -46 -16 -57 c-9 -31 -23 -64 -30
-73 -17 -20 -18 -29 -1 -29 32 0 67 -25 65 -47 -2 -12 8 -33 20 -46 30 -32 25
-59 -13 -73 -70 -24 -91 -44 -101 -99 -5 -29 -6 -59 -2 -66 4 -8 10 -27 13
-43 3 -16 14 -30 25 -33 16 -4 20 -14 20 -52 1 -25 7 -57 15 -71 31 -53 14
-130 -33 -149 -24 -10 -31 -22 -42 -65 -10 -41 -10 -58 -1 -75 16 -29 2 -47
-46 -56 -42 -8 -73 -25 -73 -42 0 -19 -24 -22 -43 -4 -18 15 -20 14 -38 -8
-19 -24 -20 -24 -53 -6 -31 17 -36 17 -80 2 -57 -20 -76 -14 -76 23 0 21 -10
37 -40 60 -37 29 -44 31 -88 25 -40 -6 -51 -12 -74 -46 -31 -44 -38 -99 -13
-99 31 0 75 -30 75 -51 0 -19 4 -20 40 -14 42 7 52 -3 25 -25 -8 -7 -15 -21
-15 -32 0 -10 -7 -32 -14 -47 -13 -24 -13 -35 0 -87 9 -32 24 -64 35 -72 12
-8 19 -25 19 -47 0 -24 5 -35 19 -40 17 -5 18 -10 9 -36 -8 -24 -7 -38 8 -70
19 -44 20 -38 -27 -131 -5 -11 1 -37 18 -78 26 -60 27 -61 62 -58 32 3 37 7
45 41 6 25 14 36 23 33 7 -3 25 6 40 20 14 13 33 22 42 20 9 -2 33 -7 54 -11
21 -3 37 -12 37 -19 0 -8 9 -16 20 -19 11 -3 24 -17 30 -31 5 -14 14 -26 20
-26 5 0 10 -6 10 -14 0 -28 45 -66 100 -86 65 -24 94 -26 87 -6 -3 8 5 19 20
27 21 11 27 11 31 1 2 -7 26 -33 52 -58 43 -41 48 -50 43 -76 -4 -22 -2 -33
10 -40 9 -4 14 -15 11 -22 -4 -9 6 -15 28 -19 28 -5 38 -1 64 27 31 32 32 33
95 25 35 -4 67 -6 70 -3 10 6 21 -37 19 -78 -1 -23 3 -38 10 -38 7 0 11 -13 9
-32 -1 -18 1 -44 5 -56 l8 -24 28 27 c15 15 36 47 45 72 16 42 16 47 2 57 -8
7 -20 30 -26 53 -6 22 -18 46 -26 53 -8 7 -15 18 -15 25 0 8 -4 15 -10 17 -21
7 3 47 36 58 29 10 32 14 24 31 -9 16 -7 19 9 19 11 0 26 7 33 15 51 61 78 85
96 85 12 0 26 9 32 20 13 24 56 26 85 4 14 -10 19 -24 16 -49 -3 -44 18 -55
55 -26 15 12 33 21 40 21 44 0 35 103 -11 114 -32 8 -43 45 -19 63 10 7 23 13
30 13 7 0 9 10 6 26 -3 20 0 26 17 31 15 4 20 12 19 32 -4 56 2 80 21 86 17 5
20 17 23 83 2 42 0 79 -4 82 -3 3 -10 18 -13 33 -4 16 -14 31 -21 34 -8 3 -14
13 -14 22 0 9 -9 22 -20 29 -21 13 -29 75 -11 86 5 4 5 18 -2 35 -14 37 -4 59
30 67 49 12 189 137 195 174 2 17 12 27 33 33 17 5 42 15 56 22 17 8 32 9 43
3 9 -5 21 -6 27 -2 6 3 21 -6 34 -22 l23 -28 40 34 c22 19 45 45 51 58 6 13
25 28 41 34 31 10 67 68 55 87 -3 6 -1 20 5 31 9 17 7 22 -13 31 -13 6 -28 24
-34 40 -13 33 -43 40 -43 9 0 -16 -7 -20 -34 -20 -19 0 -37 4 -40 9 -3 5 8 26
24 46 39 49 40 85 3 85 -14 0 -34 7 -44 16 -15 14 -19 13 -39 -16 l-22 -30
-41 22 c-23 13 -46 29 -50 36 -4 6 -14 12 -21 12 -14 0 -39 40 -35 56 4 13
-11 54 -19 54 -4 0 -15 -9 -25 -20 -11 -13 -29 -20 -52 -20 -57 0 -110 -33
-129 -80 -18 -45 -22 -47 -54 -24 -23 16 -29 48 -12 59 6 3 10 15 10 26 0 12
10 23 25 29 15 6 25 17 25 29 0 24 23 43 43 35 19 -7 37 24 37 65 0 20 7 34
20 41 12 6 25 22 30 35 7 18 19 25 54 30 25 4 52 5 60 2 9 -4 37 1 63 9 26 9
54 18 62 20 10 3 6 13 -17 37 -18 18 -32 36 -32 41 0 13 59 82 90 104 27 20
31 21 64 7 19 -8 37 -24 41 -35 3 -11 14 -20 24 -20 10 0 26 -9 36 -20 20 -22
33 -24 54 -11 17 11 7 45 -22 73 -13 12 -17 22 -11 25 6 2 19 9 28 16 24 17
11 65 -19 77 -13 5 -26 14 -30 19 -4 8 -12 8 -25 1 -27 -15 -51 -12 -72 7 -10
9 -28 21 -41 27 -12 6 -24 23 -25 36 -5 30 -20 50 -38 50 -8 0 -37 16 -64 35
-27 19 -52 35 -55 35 -3 0 -5 -13 -5 -30 0 -47 -18 -74 -73 -107 l-51 -31 -13
25 c-7 14 -13 32 -13 39 0 16 -16 19 -25 4 -3 -5 -13 -10 -21 -10 -9 0 -22 -7
-30 -15 -23 -22 -41 -18 -61 13 -22 34 -33 42 -59 42 -11 0 -30 11 -42 25 -24
28 -42 31 -60 13 -10 -10 -19 -8 -43 6 -16 10 -37 15 -45 12 -19 -7 -64 10
-91 36 -26 24 -25 24 -39 -17 -12 -38 -40 -44 -55 -12 -10 23 -46 47 -70 47
-7 0 -8 -15 -4 -42z"/>
<path d="M5045 7320 c-20 -23 -61 -26 -100 -8 -19 9 -31 9 -44 1 -10 -6 -29
-9 -44 -6 -19 4 -32 -2 -50 -21 -20 -22 -33 -26 -76 -26 -37 0 -53 -4 -57 -15
-8 -21 -57 -19 -102 4 -77 38 -141 32 -186 -18 -17 -19 -18 -19 -63 1 -42 18
-49 19 -83 5 -33 -13 -38 -13 -47 2 -16 25 -44 -3 -37 -37 4 -19 -4 -41 -25
-75 -17 -26 -31 -54 -31 -62 0 -8 -10 -20 -22 -26 -30 -15 -113 -99 -121 -121
-3 -10 -19 -20 -34 -24 -50 -12 -110 -54 -123 -84 -15 -37 -74 -90 -99 -90
-13 0 -40 -33 -85 -104 -63 -98 -69 -104 -121 -124 -30 -12 -78 -36 -107 -55
-49 -31 -55 -33 -85 -21 -17 8 -76 15 -130 16 l-98 3 -47 -47 c-38 -38 -48
-54 -54 -94 -8 -56 -16 -64 -62 -64 -33 0 -95 -34 -144 -79 -17 -15 -37 -53
-53 -102 -15 -43 -33 -83 -41 -90 -10 -8 -35 -10 -82 -6 -81 8 -79 9 -187
-102 -66 -68 -84 -81 -111 -81 -17 0 -37 -7 -44 -15 -7 -8 -24 -15 -39 -15
-43 0 -73 -22 -88 -65 -7 -22 -20 -46 -27 -53 -11 -11 -11 -22 1 -64 12 -38
13 -56 4 -75 -6 -13 -11 -35 -11 -48 0 -13 -4 -26 -9 -29 -4 -3 -11 -32 -15
-65 -5 -39 -13 -64 -26 -76 -11 -10 -23 -34 -26 -54 -4 -20 -15 -44 -25 -54
-11 -11 -19 -32 -19 -52 0 -19 -11 -55 -25 -81 -14 -26 -25 -53 -25 -61 0 -16
-40 -33 -79 -33 -38 0 -150 -115 -153 -157 -6 -102 -22 -180 -42 -202 -8 -9
-17 -32 -21 -51 -11 -60 -16 -70 -31 -70 -8 0 -14 -4 -14 -10 0 -5 5 -10 11
-10 6 0 8 -8 4 -19 -4 -13 5 -30 30 -56 34 -37 45 -65 25 -65 -7 0 -7 -6 0
-19 13 -26 3 -51 -21 -51 -21 0 -25 -20 -8 -37 8 -8 7 -16 -1 -30 -10 -15 -7
-27 19 -71 26 -44 29 -57 20 -74 -14 -26 -18 -78 -9 -98 28 -58 32 -72 28
-102 -3 -19 1 -47 10 -65 12 -26 13 -35 2 -48 -7 -8 -21 -15 -31 -15 -10 0
-23 -9 -29 -20 -12 -22 -1 -27 18 -8 9 9 18 6 41 -16 26 -25 27 -30 19 -69
-17 -81 -11 -108 37 -157 25 -25 45 -51 45 -57 0 -6 9 -15 20 -18 11 -3 20
-13 20 -21 0 -8 9 -23 20 -34 30 -30 42 -67 29 -89 -9 -13 -8 -33 1 -77 15
-65 18 -273 6 -316 -7 -24 -5 -28 12 -28 11 0 25 -7 32 -15 7 -8 18 -15 24
-15 6 0 19 -18 29 -40 10 -23 27 -44 41 -50 32 -12 42 -50 13 -50 -27 -1 -71
-36 -62 -50 3 -5 14 -10 24 -10 11 0 24 -12 31 -31 12 -28 16 -30 46 -25 29 6
36 2 68 -36 37 -43 46 -84 24 -106 -9 -9 -9 -12 1 -12 9 0 10 -12 5 -47 -7
-51 -16 -63 -51 -63 -16 0 -23 -8 -28 -31 -9 -41 -1 -46 41 -25 33 15 38 15
60 1 13 -8 24 -24 24 -35 0 -11 7 -20 15 -20 8 0 15 -6 15 -14 0 -20 57 -38
80 -26 25 14 120 13 120 -1 0 -6 19 -43 42 -82 42 -73 49 -107 25 -136 -7 -9
-19 -29 -25 -44 -11 -26 -10 -29 7 -34 28 -7 45 -53 31 -85 -10 -20 -9 -31 4
-56 21 -41 20 -58 -5 -76 -12 -8 -18 -19 -14 -26 13 -22 -4 -60 -28 -60 l-22
-1 24 -19 c20 -17 23 -27 19 -64 -3 -24 -1 -52 5 -61 8 -15 5 -22 -12 -36 -22
-18 -22 -47 -1 -74 13 -16 -1 -65 -21 -75 -11 -7 -27 -7 -44 0 -14 5 -37 10
-51 10 -19 0 -24 -5 -24 -27 0 -14 -7 -35 -17 -45 -15 -17 -15 -18 10 -18 21
0 33 -10 57 -47 16 -27 30 -54 30 -60 0 -7 9 -22 19 -32 16 -16 19 -28 14 -58
-3 -21 -11 -45 -18 -53 -24 -30 -26 -38 -5 -33 24 6 29 -24 5 -33 -17 -7 -22
-94 -5 -94 6 0 10 -7 10 -16 0 -12 7 -15 26 -11 21 4 26 0 31 -25 4 -20 10
-27 20 -24 8 4 18 6 23 6 4 0 10 18 13 41 7 51 11 56 46 42 25 -9 32 -7 50 10
17 18 25 19 55 10 32 -10 37 -9 51 13 8 13 24 24 35 24 27 0 40 28 27 57 -8
17 -7 27 1 35 9 9 12 8 12 -6 0 -25 34 -16 38 10 2 14 -6 27 -22 37 -24 16
-24 17 -9 56 9 24 12 47 8 58 -11 24 -7 44 12 66 19 21 52 22 59 2 3 -8 14
-17 24 -20 11 -4 16 -12 13 -24 -3 -13 2 -20 20 -25 18 -4 27 -17 37 -51 7
-24 10 -51 7 -60 -5 -11 1 -15 22 -15 17 0 31 6 35 16 3 8 10 13 16 9 5 -3 20
1 34 10 24 16 24 15 31 -14 6 -29 35 -45 35 -20 0 6 8 8 19 4 23 -7 35 29 19
58 -8 16 -7 22 6 29 15 9 15 11 -1 38 -14 24 -15 34 -5 55 7 14 12 37 12 50 0
26 52 71 70 60 6 -4 10 8 10 28 0 36 17 51 45 41 19 -8 20 19 1 35 -21 18 -30
69 -15 87 10 12 10 25 0 65 -18 71 -7 125 36 164 31 28 33 34 23 59 -16 44 -5
60 58 83 67 24 110 20 122 -11 4 -12 15 -28 23 -35 13 -10 17 -9 27 9 6 11 16
18 22 14 5 -4 14 -1 18 6 12 20 30 2 30 -30 0 -17 7 -33 18 -39 14 -8 15 -13
5 -29 -9 -16 -8 -22 9 -36 15 -13 23 -15 34 -5 8 6 14 18 14 25 0 18 11 18 60
-2 22 -9 47 -14 55 -10 8 3 15 1 15 -4 0 -6 7 -10 15 -10 12 0 13 9 9 44 -6
38 -3 46 15 58 11 7 21 19 21 27 0 9 6 11 23 6 12 -4 36 -8 52 -8 17 0 33 -4
37 -10 6 -11 108 -28 108 -18 0 3 -12 18 -27 34 -27 28 -28 29 -9 43 11 8 28
14 37 14 10 0 21 9 24 20 4 11 20 27 36 35 16 9 29 22 29 30 0 9 16 30 35 48
62 58 62 58 75 42 7 -8 19 -15 27 -15 10 0 11 4 3 19 -7 13 -7 28 0 46 8 22
14 24 37 18 30 -7 37 -8 97 -5 36 2 38 4 33 29 -11 58 18 72 158 78 95 4 117
15 140 65 15 33 16 45 7 60 -7 12 -8 21 -2 25 15 9 12 75 -3 75 -7 0 -32 16
-54 35 -23 19 -48 35 -57 35 -12 0 -16 10 -16 35 0 47 42 90 72 74 11 -6 36
-8 55 -4 35 6 35 7 30 47 -8 56 -1 68 39 68 21 0 37 6 40 15 8 19 66 55 91 55
10 0 40 14 66 30 26 17 54 30 61 30 11 0 26 20 26 35 0 11 -42 10 -57 -1 -29
-22 -33 -17 -33 40 0 37 6 61 18 76 18 22 19 22 51 6 18 -10 39 -15 47 -12 24
9 15 34 -17 45 -24 8 -30 15 -24 28 4 10 10 26 12 36 8 26 63 22 107 -8 20
-14 39 -25 41 -25 3 0 5 29 5 65 0 57 -2 65 -19 65 -27 0 -39 56 -17 78 14 15
19 14 50 0 32 -16 84 -13 115 6 19 12 12 39 -16 61 -21 17 -25 27 -19 48 8 35
54 67 66 47 14 -23 58 3 62 37 3 24 8 28 41 31 39 3 42 10 37 70 -1 13 11 34
29 53 24 24 31 39 31 70 0 33 4 40 25 45 18 4 25 13 25 30 0 25 35 42 65 31
21 -9 75 12 117 46 31 25 39 27 58 17 18 -10 24 -9 32 1 26 40 38 72 38 104 0
33 2 35 34 35 45 0 66 9 66 27 0 10 -7 14 -19 10 -13 -3 -21 1 -24 15 -5 16
-2 19 15 14 15 -3 32 4 55 24 19 17 40 30 47 30 9 0 16 18 20 53 4 29 16 66
26 82 11 17 20 38 20 48 0 12 8 17 30 17 22 0 33 6 38 21 l8 20 18 -20 c18
-20 56 -28 68 -15 13 12 -6 45 -28 50 -14 4 -24 14 -24 24 0 10 -3 26 -6 34
-5 12 -2 15 10 10 10 -4 33 2 52 12 31 17 34 22 34 67 0 37 -4 49 -17 53 -40
12 -46 20 -46 64 0 25 3 56 7 68 6 18 3 27 -14 39 -30 21 -23 57 12 61 30 4
45 35 35 72 -3 10 0 25 7 33 15 20 65 30 81 17 9 -8 14 -7 18 3 3 9 -14 26
-49 47 -35 21 -54 39 -54 52 0 10 -7 30 -16 43 -15 23 -14 27 7 70 15 29 29
45 41 45 11 0 28 5 39 10 19 11 19 12 2 40 -16 28 -16 31 -1 47 14 14 22 15
43 5 45 -21 80 -15 95 16 7 15 12 35 11 45 -1 10 4 29 13 41 16 26 4 49 -20
39 -8 -3 -32 13 -55 36 -23 23 -45 41 -49 41 -5 0 -14 16 -20 35 -6 19 -16 35
-21 35 -16 0 -40 73 -33 103 8 40 -36 107 -71 107 -18 0 -31 10 -46 33 -17 27
-19 41 -13 87 4 30 8 69 10 85 1 17 5 40 9 51 5 16 1 26 -16 38 -22 15 -24 24
-25 110 -1 74 -6 100 -20 120 -22 29 -34 33 -34 10 0 -9 -11 -27 -25 -40 -14
-13 -25 -32 -25 -43 0 -28 -8 -30 -72 -19 -49 8 -63 16 -98 54 -54 59 -56 106
-5 163 40 44 46 88 17 114 -23 21 -66 22 -97 1 -39 -25 -67 -15 -92 36 -28 54
-30 120 -5 143 39 38 79 64 105 71 22 5 27 11 22 24 -4 9 -11 33 -14 52 -7 34
-8 35 -50 32 -34 -2 -49 2 -67 19 -21 19 -29 21 -56 12 -24 -7 -41 -6 -63 3
-16 7 -40 13 -52 14 -12 0 -26 6 -30 13 -4 6 -33 29 -65 49 -59 39 -60 40 -73
143 -8 60 -28 100 -56 115 -33 18 -112 40 -218 60 -106 20 -171 43 -171 59 0
6 -10 11 -22 11 -13 0 -41 12 -63 25 -48 30 -47 30 -70 5z"/>
<path d="M2695 296 c-20 -17 -38 -23 -52 -19 -17 4 -23 1 -23 -11 0 -12 -6
-15 -23 -11 -16 4 -29 -1 -45 -18 -15 -16 -30 -23 -43 -20 -21 6 -52 -14 -43
-28 2 -5 -2 -19 -11 -32 -8 -13 -12 -27 -8 -30 3 -4 1 -7 -5 -7 -7 0 -12 -7
-12 -15 0 -12 8 -14 39 -9 34 5 40 3 46 -15 3 -11 3 -26 0 -32 -4 -6 2 -19 13
-29 18 -17 21 -17 42 -3 18 13 27 14 42 4 24 -15 70 12 61 36 -4 9 0 21 8 27
8 6 25 24 38 38 l24 27 -27 31 c-30 36 -33 50 -11 50 9 0 15 9 15 24 0 14 5
28 10 31 12 7 14 35 3 35 -5 0 -21 -11 -38 -24z"/>
</g>
</svg>
