<?xml version="1.0" standalone="no"?>
<!DOCTYPE svg PUBLIC "-//W3C//DTD SVG 20010904//EN"
 "http://www.w3.org/TR/2001/REC-SVG-20010904/DTD/svg10.dtd">
<svg version="1.0" xmlns="http://www.w3.org/2000/svg"
 width="1024.000000pt" height="1024.000000pt" viewBox="0 0 1024.000000 1024.000000"
 preserveAspectRatio="xMidYMid meet">
<metadata>
Created by potrace 1.10, written by Peter Selinger 2001-2011
</metadata>
<g transform="translate(0.000000,1024.000000) scale(0.100000,-0.100000)"
fill="#000000" stroke="none">
<path d="M5445 10230 c-5 -8 -20 -9 -42 -5 -26 5 -40 2 -54 -11 -17 -15 -25
-16 -53 -6 -46 17 -63 15 -69 -9 -4 -15 5 -30 35 -57 114 -103 170 -167 216
-247 19 -33 41 -67 48 -76 18 -20 44 -106 44 -145 0 -35 -22 -59 -45 -50 -30
11 -28 -25 3 -57 17 -18 40 -54 53 -82 14 -32 41 -66 75 -95 29 -25 53 -52 53
-61 1 -9 8 -22 16 -29 8 -7 15 -20 15 -29 0 -10 50 -75 111 -145 132 -154 261
-343 281 -411 13 -47 16 -50 48 -52 19 -2 43 3 52 11 16 12 17 16 3 44 -9 16
-22 32 -29 35 -8 3 -29 27 -47 53 -23 34 -27 46 -15 41 10 -4 21 -7 26 -7 4 0
27 -16 50 -35 61 -51 110 -47 55 5 -27 25 -33 50 -12 50 7 0 21 -16 31 -35 11
-19 25 -35 32 -35 7 0 18 -9 24 -20 6 -11 18 -20 26 -20 9 0 14 -5 12 -12 -8
-22 -24 -19 -38 7 -16 30 -45 34 -37 5 3 -11 1 -20 -4 -20 -5 0 -9 -16 -9 -35
0 -29 4 -36 27 -41 14 -4 34 -2 44 5 10 6 21 11 24 11 3 0 5 -45 5 -100 0 -92
-1 -100 -19 -100 -28 0 -37 21 -16 36 17 13 16 15 -17 28 -22 9 -38 24 -41 38
-4 13 -13 32 -20 43 -13 16 -17 17 -31 6 -9 -7 -16 -10 -16 -5 0 13 -20 -19
-20 -33 0 -6 21 -35 46 -65 63 -74 123 -186 136 -255 20 -109 47 -146 78 -108
7 9 19 14 27 11 7 -3 13 1 13 9 0 18 43 41 95 49 30 4 35 3 18 -4 -13 -5 -23
-12 -23 -15 0 -19 23 -45 39 -45 10 0 34 -6 52 -14 35 -15 32 -18 -23 -30 -42
-9 -90 -55 -82 -78 4 -15 2 -19 -7 -16 -8 3 -15 19 -17 36 -2 18 -7 32 -13 32
-5 0 -8 10 -6 23 2 19 -3 22 -35 25 -21 2 -38 -1 -38 -5 0 -5 20 -59 45 -120
24 -61 53 -142 64 -180 10 -37 30 -107 45 -156 14 -48 26 -98 26 -111 0 -20 4
-22 26 -18 14 2 28 11 31 18 8 22 32 17 26 -5 -3 -14 -17 -20 -49 -24 -65 -7
-76 -20 -68 -81 9 -69 22 -85 45 -54 16 20 19 21 24 6 9 -24 -2 -38 -31 -38
-20 0 -24 -5 -24 -31 l0 -30 30 18 c23 13 33 14 41 6 22 -22 -9 -45 -55 -42
-76 6 -82 -1 -78 -86 3 -58 1 -80 -11 -93 -10 -12 -17 -52 -22 -132 -4 -63
-13 -146 -21 -185 -14 -65 -19 -75 -77 -132 l-61 -63 -66 0 c-55 0 -72 -4
-110 -30 -25 -16 -52 -30 -61 -30 -9 0 -22 -6 -28 -14 -6 -7 -38 -25 -70 -40
-49 -22 -63 -34 -80 -69 -12 -24 -21 -51 -21 -60 0 -31 33 -102 67 -144 45
-56 88 -80 153 -88 106 -11 164 -34 190 -72 13 -19 36 -42 50 -51 14 -8 39
-30 57 -49 18 -19 42 -33 55 -33 13 0 34 -7 46 -16 14 -9 34 -14 50 -11 48 9
125 -29 185 -91 122 -129 146 -248 94 -467 -19 -79 -71 -185 -108 -221 -16
-15 -29 -37 -29 -48 -1 -29 -20 -60 -52 -86 -16 -12 -28 -28 -28 -37 0 -8 -34
-48 -76 -87 -84 -79 -92 -107 -43 -135 23 -13 33 -13 68 -1 29 9 41 19 41 32
0 11 -4 17 -9 13 -5 -3 -13 0 -16 6 -8 13 23 38 48 39 22 0 23 -41 2 -74 -11
-17 -13 -30 -6 -48 14 -37 37 -41 84 -14 44 24 89 28 109 8 7 -7 18 -12 26
-12 11 0 13 -9 8 -39 -7 -47 14 -115 38 -119 22 -5 111 33 152 64 17 13 36 24
42 24 7 0 29 15 50 34 21 19 50 38 65 41 14 4 45 28 69 53 23 26 55 55 70 64
15 10 28 23 28 30 0 7 15 32 34 55 18 23 41 63 51 90 10 26 32 64 50 83 18 19
36 51 40 70 12 55 53 130 73 130 10 1 34 27 56 61 23 36 50 65 65 70 54 19 59
29 90 163 4 19 22 40 50 61 61 42 79 70 92 140 6 33 24 85 40 116 16 31 29 67
29 80 0 24 13 49 58 108 l23 31 -39 0 c-50 0 -72 23 -72 78 0 35 -3 42 -20 42
-39 0 -19 77 35 138 24 26 45 59 47 72 4 31 71 69 181 105 62 20 99 25 177 25
61 0 101 -4 106 -11 4 -6 19 -9 36 -5 33 6 48 -14 28 -39 -11 -13 -9 -43 6
-97 8 -29 24 -21 40 20 9 20 25 47 36 59 20 22 17 43 -6 43 -28 0 -33 25 -24
125 5 54 14 105 19 111 5 7 7 23 4 36 -7 27 27 68 40 49 11 -20 42 -12 53 14
7 15 20 25 32 25 11 0 20 4 20 8 0 5 18 26 40 48 26 25 40 48 40 65 0 15 11
35 27 49 l27 23 -23 9 c-18 6 -21 11 -12 22 6 7 8 16 4 19 -3 4 0 13 6 21 8
10 9 16 1 21 -15 9 -12 41 5 55 14 12 14 15 0 30 -21 23 -19 35 7 52 21 14 22
17 8 42 -12 24 -12 30 3 55 9 16 17 40 17 54 0 24 68 138 90 152 5 3 10 15 10
25 0 24 -45 48 -105 57 -37 5 -46 10 -51 29 -4 14 -14 24 -23 24 -10 0 -21 3
-25 7 -4 4 -41 8 -82 8 -72 1 -76 0 -92 -27 -9 -15 -28 -30 -43 -33 -15 -4
-30 -13 -33 -21 -3 -8 -14 -14 -25 -14 -11 0 -23 -4 -26 -10 -3 -5 -15 -10
-27 -10 -13 0 -18 -5 -15 -14 3 -9 -4 -21 -19 -30 -13 -9 -24 -25 -24 -36 0
-10 -8 -21 -18 -24 -9 -3 -28 -24 -42 -46 -13 -21 -42 -51 -63 -65 -33 -21
-50 -25 -117 -25 -64 0 -81 -3 -89 -17 -8 -15 -13 -15 -37 -4 -21 9 -25 14
-15 21 20 12 -38 40 -82 40 -18 0 -42 7 -53 15 -10 8 -26 15 -34 15 -20 0
-151 63 -210 100 -25 15 -61 31 -80 35 -19 4 -58 25 -86 46 -51 37 -79 42 -48
8 9 -10 13 -23 9 -28 -10 -17 -23 -13 -21 7 1 11 -5 16 -17 14 -10 -2 -38 7
-62 19 -47 24 -71 63 -60 98 4 12 2 21 -4 21 -6 0 -11 7 -11 15 0 8 5 15 11
15 14 0 3 70 -19 119 -9 20 -19 77 -23 126 -8 109 -18 167 -30 180 -5 5 -9 21
-9 36 0 37 -21 52 -54 39 -14 -5 -26 -14 -26 -20 0 -5 -5 -10 -10 -10 -27 0
40 79 68 80 8 0 12 9 10 23 -3 23 -23 26 -80 12 -38 -10 -90 29 -81 62 9 38
-36 116 -61 107 -7 -3 -19 2 -26 11 -7 8 -25 15 -41 15 -25 0 -29 -4 -29 -29
0 -21 9 -36 35 -55 29 -23 34 -32 34 -69 1 -89 2 -98 16 -87 9 8 14 6 19 -6 9
-23 8 -24 -18 -24 -39 0 -40 -36 -2 -105 18 -33 36 -78 39 -100 3 -22 8 -47
12 -57 5 -11 -2 -21 -22 -32 -69 -37 -75 -38 -100 -15 -19 19 -23 32 -23 81 0
48 -5 66 -25 93 -28 36 -83 51 -119 32 -16 -8 -18 -6 -12 8 3 10 1 24 -5 31
-13 16 -64 19 -54 4 13 -20 -24 -9 -39 12 -14 19 -16 19 -22 5 -8 -21 -24 -22
-24 -3 0 19 -99 33 -110 16 -6 -9 -11 -6 -20 10 -13 25 -8 36 12 24 15 -9 88
-13 88 -5 0 4 -11 33 -25 66 l-24 60 34 18 c43 22 46 40 5 25 -45 -15 -64 -4
-56 34 3 17 1 37 -5 44 -9 11 -5 16 15 24 29 11 34 28 11 36 -23 9 -1 31 38
40 31 6 31 7 8 15 -15 6 -21 14 -17 24 3 8 9 21 12 29 3 9 -2 17 -15 21 -30 9
-77 69 -126 157 -5 10 -17 18 -27 18 -9 0 -26 12 -38 28 -19 23 -21 35 -16 84
6 61 1 68 -54 68 -20 0 -29 6 -34 23 -10 36 -7 38 27 17 17 -11 38 -20 45 -20
7 0 24 -12 37 -26 15 -16 31 -24 40 -20 17 6 20 22 5 31 -14 9 -12 62 3 68 7
3 5 6 -5 6 -26 1 -39 34 -32 85 6 38 4 46 -10 46 -10 0 -16 8 -16 24 0 13 -7
26 -15 30 -8 3 -15 17 -15 31 0 18 -5 25 -18 25 -25 0 -34 10 -22 25 6 7 -1
22 -20 45 -23 27 -28 40 -23 64 3 17 10 37 16 44 7 9 4 12 -12 12 -13 0 -21
-6 -21 -16 0 -12 -6 -15 -25 -10 -20 5 -26 2 -31 -19 -5 -22 -11 -25 -38 -23
-21 2 -33 9 -37 23 -4 14 -13 19 -30 18 -20 -3 -24 2 -26 23 -1 19 2 23 10 15
13 -13 54 -15 62 -2 9 15 -37 41 -72 41 -25 0 -33 4 -33 18 0 20 -29 52 -47
52 -6 0 -16 7 -23 15 -9 11 -22 14 -41 10 -20 -5 -33 -1 -48 14 -12 12 -30 21
-40 21 -11 0 -23 5 -26 10 -3 6 -17 10 -30 10 -18 0 -26 -7 -31 -24 -7 -30
-29 -40 -54 -26 -44 24 -49 83 -9 93 21 6 21 6 2 31 -22 31 -29 32 -36 6 -3
-12 -14 -20 -26 -20 -30 0 -36 -24 -15 -60 21 -35 11 -63 -25 -68 -30 -5 -38
25 -17 61 9 16 15 30 14 31 -2 1 -15 7 -31 14 -18 8 -29 22 -33 41 -3 15 -24
50 -45 77 -22 27 -47 66 -57 87 -12 25 -27 41 -50 49 -21 8 -31 17 -27 26 3 7
5 19 5 25 0 6 10 1 23 -11 28 -26 37 -20 37 25 0 23 5 33 16 33 20 0 13 24 -8
28 -9 2 -19 -2 -23 -8z m509 -515 c-4 -8 -11 -15 -16 -15 -6 0 -5 6 2 15 7 8
14 15 16 15 2 0 1 -7 -2 -15z m-205 -302 c-13 -16 -27 -32 -31 -37 -5 -6 -8 0
-8 11 0 25 25 53 47 53 13 0 12 -6 -8 -27z"/>
<path d="M7011 8927 c-6 -6 -11 -21 -11 -34 0 -13 -4 -23 -9 -23 -4 0 -8 -10
-7 -22 1 -13 8 -23 16 -23 9 0 14 -8 12 -18 -4 -21 86 -109 108 -105 24 5 24
45 1 60 -22 13 -28 43 -11 53 17 10 11 25 -13 36 -13 6 -30 26 -37 45 -15 37
-32 48 -49 31z"/>
<path d="M6817 8823 c-4 -3 -7 -15 -7 -25 0 -26 24 -17 28 10 3 21 -8 29 -21
15z"/>
<path d="M6720 8382 c0 -5 -11 -14 -25 -20 -29 -13 -33 -32 -7 -32 17 0 62 38
62 53 0 4 -7 7 -15 7 -8 0 -15 -4 -15 -8z"/>
<path d="M6868 8373 c-10 -2 -18 -9 -18 -14 0 -5 -10 -9 -22 -8 -35 3 -58 0
-58 -8 0 -13 89 -46 105 -39 10 3 15 -1 15 -13 0 -10 7 -24 15 -31 13 -11 15
-8 15 19 0 17 -5 31 -11 31 -6 0 -9 14 -7 32 3 32 -4 39 -34 31z"/>
<path d="M7440 7779 c0 -9 7 -22 15 -29 8 -7 15 -23 15 -36 0 -30 43 -55 62
-36 10 10 1 24 -40 65 -33 33 -52 46 -52 36z"/>
<path d="M5188 5369 c-30 -22 -38 -45 -13 -35 22 8 18 -12 -4 -24 -25 -13 -34
-13 -26 0 3 6 0 10 -8 10 -8 0 -48 -30 -89 -67 -41 -38 -97 -84 -124 -103
l-49 -35 -5 -155 c-3 -86 -11 -168 -18 -183 -7 -16 -12 -43 -12 -61 0 -19 -7
-40 -17 -47 -9 -8 -42 -50 -74 -94 -32 -44 -67 -88 -76 -98 -29 -30 -84 -54
-141 -61 -92 -12 -100 -18 -95 -69 5 -37 2 -48 -16 -63 -14 -13 -21 -30 -21
-56 0 -21 -4 -38 -10 -38 -5 0 -10 -9 -10 -20 0 -12 -9 -30 -19 -41 -14 -15
-20 -39 -23 -89 -3 -59 -8 -74 -35 -108 -18 -22 -35 -53 -39 -68 -13 -56 -87
-165 -156 -232 -39 -37 -77 -79 -86 -94 -9 -16 -20 -28 -25 -28 -5 0 -30 -18
-57 -41 -30 -25 -72 -48 -111 -60 -34 -11 -83 -33 -108 -49 -24 -17 -49 -30
-55 -30 -12 0 -66 -50 -66 -62 0 -4 8 -8 18 -8 15 -1 15 -2 -2 -15 -11 -8 -26
-15 -33 -15 -18 0 -121 -78 -133 -100 -5 -10 -27 -20 -49 -24 -39 -6 -83 -44
-95 -84 -8 -23 -94 -78 -116 -74 -9 1 -23 -4 -30 -13 -7 -8 -26 -15 -42 -15
-30 0 -134 -56 -203 -110 -22 -17 -53 -41 -70 -54 -16 -13 -46 -31 -65 -41
-19 -10 -52 -33 -73 -51 -31 -29 -45 -34 -86 -34 -35 0 -51 4 -55 15 -5 14
-11 13 -45 -5 -22 -11 -51 -20 -63 -20 -43 0 -63 -11 -88 -48 -33 -49 -64 -77
-127 -113 -57 -33 -61 -40 -39 -59 22 -17 8 -40 -24 -40 -19 0 -31 -6 -35 -18
-3 -11 -16 -24 -29 -30 -28 -12 -85 -83 -79 -98 8 -22 -16 -64 -36 -64 -34 0
-91 -32 -91 -51 0 -11 -9 -19 -22 -21 -15 -2 -24 -11 -26 -25 -2 -14 -10 -23
-22 -23 -10 0 -20 -7 -24 -15 -3 -8 -13 -15 -23 -15 -10 -1 -29 -9 -41 -20
-24 -19 -24 -20 -7 -70 9 -27 15 -55 13 -62 -3 -7 -10 9 -17 34 -21 76 -66 73
-119 -6 l-30 -45 21 -15 c21 -15 21 -15 -7 -4 -25 11 -30 10 -46 -10 -10 -12
-23 -22 -28 -22 -5 0 -16 -7 -23 -16 -11 -14 -9 -19 14 -36 15 -11 27 -24 27
-29 0 -5 -9 0 -21 12 -11 11 -26 18 -32 16 -14 -4 -16 -70 -3 -106 13 -37 -13
-15 -30 26 l-15 34 -19 -23 c-16 -20 -17 -25 -4 -39 20 -22 18 -27 -10 -22
-31 6 -66 -13 -66 -37 0 -10 -6 -25 -13 -32 -7 -7 -19 -29 -27 -48 -8 -19 -17
-37 -22 -40 -4 -4 -11 -20 -14 -38 -8 -41 14 -51 59 -27 18 9 42 15 52 13 14
-3 4 -10 -32 -22 -41 -14 -53 -22 -54 -39 -1 -17 -2 -18 -6 -5 -3 12 -14 18
-32 18 -56 0 -85 -19 -115 -73 l-28 -52 41 39 40 39 10 -24 c8 -22 5 -25 -24
-34 -44 -13 -59 -30 -20 -21 17 3 46 9 65 12 19 3 42 8 50 11 8 3 49 7 90 9
69 4 73 3 56 -11 -13 -10 -41 -15 -82 -15 -34 0 -78 -7 -97 -15 -20 -8 -48
-15 -61 -15 -33 0 -76 -39 -77 -70 -1 -14 6 -42 15 -63 15 -33 19 -37 44 -31
15 4 36 15 48 25 11 11 33 19 50 19 l29 -1 -30 -15 c-39 -21 -55 -42 -55 -72
0 -19 3 -22 13 -13 10 8 17 7 25 -1 9 -9 15 -7 26 8 14 18 15 18 21 1 8 -19
-10 -47 -30 -47 -8 0 -15 5 -17 11 -2 7 -9 5 -17 -5 -30 -36 94 -107 138 -79
11 7 27 6 53 -3 20 -7 70 -15 110 -19 40 -3 99 -8 131 -11 55 -5 57 -4 57 19
0 62 92 78 163 28 55 -38 81 -67 68 -76 -16 -9 -13 -25 4 -25 8 0 15 -9 15
-19 0 -15 9 -20 48 -23 29 -3 52 0 60 7 11 10 23 10 49 2 30 -9 37 -8 48 6 11
16 15 16 51 1 51 -21 72 -41 90 -83 18 -42 18 -39 -8 -43 -22 -3 -22 -5 13
-42 36 -39 36 -39 104 -37 38 1 84 9 103 17 19 8 63 14 98 14 55 0 64 -3 64
-18 0 -42 21 -53 109 -55 69 -1 85 2 96 16 11 15 13 16 19 2 6 -17 41 -20 51
-5 3 6 21 10 38 10 50 0 98 17 115 41 12 17 22 20 48 16 21 -4 37 -1 44 8 6 8
25 17 42 20 17 4 32 15 35 24 2 10 20 24 39 31 25 10 33 18 29 29 -4 9 -9 28
-12 42 -4 23 -1 27 26 32 35 7 217 130 231 157 6 10 10 30 10 45 0 60 123 126
243 130 59 2 71 6 92 29 28 30 34 76 10 76 -9 0 -18 7 -22 16 -3 8 -17 20 -30
25 -24 9 -24 10 -9 32 9 12 20 31 25 42 5 12 17 27 26 35 28 23 75 97 75 119
0 11 8 24 18 30 14 8 15 13 5 30 -7 12 -13 29 -13 38 1 28 38 105 65 133 13
14 39 41 58 60 34 35 77 93 77 104 0 3 -15 10 -32 15 l-33 9 37 1 c34 1 38 4
43 34 6 29 7 91 4 199 -1 26 9 53 29 87 17 27 32 66 34 87 3 33 13 46 78 103
59 52 75 71 73 91 -1 14 1 17 4 8 2 -10 9 -18 15 -18 15 0 178 93 178 102 0 4
6 5 13 3 6 -3 45 11 85 30 153 73 265 110 367 120 33 3 80 11 103 17 34 9 46
8 51 -1 10 -16 107 -61 132 -61 23 0 25 13 4 30 -17 14 -21 90 -5 90 6 0 11
-8 12 -17 1 -10 2 -27 3 -38 1 -11 3 -26 4 -32 2 -19 42 -15 68 5 19 15 53 87
53 113 0 13 -97 59 -158 75 -40 11 -64 12 -91 4 -45 -12 -51 -12 -51 0 0 6 13
10 28 10 38 0 46 10 25 32 -21 24 -30 179 -13 247 18 75 55 105 177 145 29 10
59 26 66 36 7 10 31 26 54 35 23 9 45 26 51 41 7 13 16 24 22 24 5 0 10 9 10
21 0 11 11 35 24 52 40 54 107 197 101 216 -4 13 7 29 35 55 40 36 64 44 75
26 11 -17 23 -2 18 23 -5 27 8 45 100 134 47 47 57 62 57 90 0 26 10 45 43 81
65 70 187 222 187 233 0 5 -14 9 -30 9 -36 0 -50 27 -50 95 0 37 -3 44 -24 49
-59 15 -72 68 -31 122 14 18 25 37 25 43 0 6 5 11 10 11 6 0 10 -7 10 -15 0
-8 7 -15 15 -15 8 0 15 5 15 10 0 6 5 10 11 10 16 0 38 31 39 52 0 10 15 28
34 40 23 15 36 32 39 53 6 37 4 39 -22 24 -14 -10 -17 -17 -10 -26 8 -9 5 -14
-13 -18 -13 -4 -29 -5 -34 -3 -5 2 -23 -9 -39 -24 -16 -16 -39 -28 -50 -28
-11 -1 -31 -7 -45 -15 -14 -8 -36 -14 -49 -15 -47 0 4 35 69 48 66 14 84 33
54 58 -18 14 -17 15 9 9 23 -5 30 -2 34 15 3 11 9 20 14 20 12 0 11 27 -1 35
-6 4 -17 1 -25 -5 -12 -10 -15 -9 -15 9 0 11 6 21 13 22 6 0 -1 5 -18 10 -22
6 -33 4 -47 -8 -17 -15 -18 -14 -18 15 0 35 -19 43 -27 12 -6 -22 -14 -25 -29
-10 -6 6 -15 3 -26 -9 -14 -16 -14 -22 -3 -31 9 -8 15 -8 20 0 9 15 25 12 25
-5 0 -8 -4 -15 -10 -15 -5 0 -7 -7 -4 -15 4 -9 0 -15 -9 -15 -8 0 -17 6 -20
13 -3 8 -13 4 -31 -12 -28 -26 -37 -86 -13 -94 6 -2 -2 -11 -20 -20 -40 -21
-65 -22 -35 -1 25 17 29 52 7 60 -22 9 -18 24 5 24 11 0 24 8 27 18 4 9 16 25
28 35 20 18 19 18 -19 13 -21 -3 -44 -13 -51 -23 -12 -16 -14 -15 -13 15 1 28
4 32 28 32 30 0 90 45 90 68 0 9 7 11 20 7 14 -5 20 -2 20 9 0 26 -36 19 -73
-14 -19 -16 -37 -30 -41 -30 -15 0 -4 50 17 73 56 65 62 76 58 109 -5 49 -12
54 -27 19 -10 -25 -18 -31 -32 -27 -42 14 -98 -127 -61 -150 13 -8 -36 -54
-58 -54 -7 0 -13 -11 -13 -24 0 -13 -7 -30 -16 -37 -13 -11 -17 -10 -25 4 -14
25 -26 21 -63 -18 -19 -19 -43 -35 -54 -35 -39 0 -73 -23 -79 -52 -4 -20 -15
-31 -39 -40 -19 -7 -34 -18 -34 -25 0 -7 -4 -13 -10 -13 -5 0 -10 5 -10 10 0
6 -11 15 -25 20 -13 5 -32 24 -41 42 -9 18 -26 39 -36 46 -13 9 -16 18 -10 25
10 13 9 84 -2 94 -12 12 -6 23 12 23 15 0 19 8 20 45 0 30 -5 48 -15 53 -8 5
-15 13 -15 18 -3 27 -12 44 -24 44 -8 0 -14 -5 -14 -12 0 -6 -3 -8 -6 -5 -4 3
-16 0 -28 -8 -26 -19 -66 -19 -66 -1 0 8 -16 23 -35 35 -20 11 -38 29 -41 38
-3 10 -10 26 -15 36 -6 11 -6 17 1 17 5 0 10 12 10 28 0 15 9 38 19 51 24 31
100 40 154 18 44 -19 49 -14 7 8 -20 10 -58 15 -122 15 -78 -1 -97 -4 -120
-21z m-3109 -3238 c7 -5 12 -14 9 -21 -2 -7 -10 -4 -22 9 -19 21 -12 28 13 12z
m-579 -563 c0 -13 -43 -6 -47 8 -2 7 6 10 22 7 14 -3 25 -10 25 -15z m2414
-393 c-10 -8 -25 -15 -31 -15 -7 0 -13 -7 -13 -15 0 -8 -8 -15 -17 -15 -14 1
-10 8 15 30 18 17 40 30 49 30 15 0 14 -2 -3 -15z m-1535 -514 c8 -15 7 -20
-7 -23 -14 -4 -18 0 -16 16 4 34 8 35 23 7z m9 -90 c4 -27 -12 -21 -29 10 -9
18 -8 20 8 17 10 -2 19 -14 21 -27z"/>
<path d="M1982 474 c-14 -10 -22 -26 -22 -45 0 -16 -5 -29 -12 -29 -7 0 3 -15
21 -33 29 -31 31 -36 20 -60 -7 -15 -18 -27 -26 -27 -8 0 -13 -13 -13 -39 0
-37 -1 -39 -39 -45 -43 -7 -53 -22 -45 -66 6 -26 3 -31 -30 -47 -32 -15 -37
-21 -34 -48 3 -25 8 -31 32 -33 19 -2 32 2 38 12 5 8 15 13 23 9 10 -3 29 9
50 31 31 33 38 36 69 30 26 -4 42 -1 63 13 30 21 105 43 147 43 17 0 26 5 26
16 0 12 6 15 21 11 16 -4 19 -3 11 5 -8 8 -7 15 4 25 21 21 17 42 -9 48 -13 4
-27 5 -33 4 -5 -1 -16 -1 -24 0 -11 1 -12 3 -2 9 8 5 -6 13 -38 22 -27 7 -50
17 -50 22 0 15 30 21 45 8 18 -15 88 -4 82 13 -2 6 -19 19 -38 30 -41 22 -69
53 -69 77 0 30 -35 51 -92 55 -38 3 -61 0 -76 -11z"/>
</g>
</svg>
