<?xml version="1.0" standalone="no"?>
<!DOCTYPE svg PUBLIC "-//W3C//DTD SVG 20010904//EN"
 "http://www.w3.org/TR/2001/REC-SVG-20010904/DTD/svg10.dtd">
<svg version="1.0" xmlns="http://www.w3.org/2000/svg"
 width="1024.000000pt" height="1024.000000pt" viewBox="0 0 1024.000000 1024.000000"
 preserveAspectRatio="xMidYMid meet">
<metadata>
Created by potrace 1.10, written by Peter Selinger 2001-2011
</metadata>
<g transform="translate(0.000000,1024.000000) scale(0.100000,-0.100000)"
fill="#000000" stroke="none">
<path d="M5464 10221 c-42 -19 -150 -108 -269 -221 -83 -79 -169 -150 -182
-150 -5 0 -31 -14 -59 -32 -123 -80 -305 -125 -428 -107 -139 21 -145 20 -193
-49 -22 -31 -54 -84 -71 -117 -17 -33 -65 -96 -106 -140 -41 -44 -83 -98 -92
-120 -126 -298 -293 -600 -417 -755 -56 -69 -233 -223 -281 -244 -12 -5 -45
-12 -74 -16 -29 -5 -74 -19 -100 -31 -41 -20 -63 -23 -172 -24 -73 0 -135 4
-150 11 -14 6 -43 15 -65 18 -22 4 -51 14 -64 23 -15 10 -27 11 -33 5 -5 -5
-27 -8 -48 -5 -33 5 -47 -1 -113 -46 -166 -114 -296 -152 -393 -116 -27 10
-53 22 -59 26 -5 4 -34 14 -63 23 -67 19 -81 12 -124 -64 -81 -142 -131 -199
-164 -186 -9 3 -27 -18 -55 -67 -46 -80 -126 -197 -145 -212 -18 -14 -110
-177 -150 -263 -93 -203 -153 -486 -110 -521 9 -7 16 -24 16 -37 0 -28 15 -32
25 -6 4 9 10 61 13 115 2 53 7 97 9 97 3 0 18 -9 34 -21 22 -15 29 -28 29 -53
0 -35 33 -121 50 -131 13 -8 50 -89 50 -109 0 -10 9 -16 23 -16 59 0 102 -23
163 -87 47 -50 63 -74 68 -104 3 -21 11 -39 16 -39 6 0 10 -6 10 -13 0 -18 48
-67 65 -67 19 0 19 -11 -1 -54 -9 -19 -28 -39 -43 -46 -23 -10 -28 -9 -52 18
-14 16 -56 43 -93 61 -65 31 -103 34 -218 22 -4 -1 -13 -20 -19 -43 l-12 -43
-8 30 c-12 54 -10 85 6 85 8 0 15 9 15 20 0 17 -7 20 -44 20 -53 0 -99 30 -78
51 22 23 13 37 -38 55 -27 10 -50 21 -50 25 0 19 14 39 27 39 11 0 13 7 9 25
-4 17 0 34 14 53 18 25 19 31 7 71 l-14 44 -19 -29 c-44 -64 -71 -122 -83
-179 -7 -33 -26 -114 -41 -180 l-29 -120 3 -395 c2 -217 7 -456 11 -530 6
-120 4 -156 -19 -315 -15 -99 -30 -232 -33 -296 -5 -101 -3 -128 17 -200 12
-46 30 -105 40 -130 11 -27 25 -110 34 -200 8 -85 20 -177 25 -204 41 -209 11
-427 -100 -724 -28 -74 -54 -142 -59 -151 -10 -19 13 -60 34 -60 27 0 173 -80
201 -110 17 -18 56 -50 88 -71 31 -22 57 -44 57 -49 0 -6 9 -10 20 -10 16 0
20 7 20 33 0 33 -12 50 -64 95 -26 22 -27 25 -12 41 15 16 14 19 -13 39 -38
28 -44 65 -17 116 18 35 26 41 57 44 50 4 68 -19 38 -47 -22 -20 -22 -22 -7
-53 13 -28 53 -76 166 -204 10 -11 26 -25 37 -31 29 -16 12 -43 -28 -43 -35 0
-57 -13 -76 -45 -11 -18 -12 -17 -6 7 7 34 -8 36 -29 6 -22 -30 -21 -33 19
-75 46 -48 116 -192 123 -249 6 -53 36 -80 77 -70 28 7 49 45 34 60 -5 6 -9
18 -9 28 0 9 -8 33 -17 53 -14 29 -14 39 -4 58 10 20 10 32 -2 68 -15 45 -42
63 -53 34 -10 -26 -34 3 -34 42 0 41 20 52 56 28 23 -15 28 -15 40 -3 23 23
150 3 194 -30 19 -15 45 -32 59 -37 21 -9 30 -32 68 -160 52 -180 51 -206 -6
-224 -21 -6 -44 -18 -51 -26 -7 -9 -29 -15 -54 -15 -68 0 -106 -43 -77 -88 15
-24 60 -3 76 34 8 19 19 34 24 34 6 0 27 11 47 25 20 14 42 25 48 25 13 0 15
-79 2 -99 -5 -8 -4 -16 2 -20 22 -13 31 -57 21 -101 -6 -26 -6 -46 -1 -49 7
-5 42 -165 42 -193 0 -5 -9 -8 -20 -8 -25 0 -26 -16 -3 -29 17 -9 17 -13 -1
-68 -11 -32 -25 -67 -31 -78 -7 -11 -20 -57 -30 -101 l-17 -81 26 -89 c30
-102 31 -128 11 -204 -8 -30 -15 -70 -15 -87 0 -34 5 -37 60 -34 14 1 40 -9
59 -23 29 -21 41 -24 79 -19 25 3 57 12 72 20 34 17 70 16 91 -3 15 -14 22
-14 61 -1 73 25 210 -9 282 -70 28 -23 34 -24 120 -18 86 6 93 5 127 -18 20
-14 52 -28 70 -32 48 -10 59 -22 53 -54 -8 -39 20 -91 49 -91 13 0 28 -5 35
-12 7 -7 12 -8 12 -2 0 5 15 8 34 6 49 -6 93 21 112 68 14 34 21 40 45 40 19
0 29 -5 29 -15 0 -9 9 -15 25 -15 14 0 25 3 25 8 0 4 14 13 32 21 34 15 77 58
78 77 0 14 67 47 79 40 11 -7 77 20 86 35 4 6 -2 13 -14 16 -33 9 -26 30 9 25
20 -3 36 -14 47 -33 10 -17 26 -29 38 -29 19 -1 19 -1 3 -14 -23 -17 -23 -31
2 -56 12 -12 33 -20 55 -20 24 0 37 -6 45 -19 15 -28 67 -37 91 -15 24 22 24
49 -1 74 -11 11 -20 29 -20 40 0 21 -27 40 -47 33 -8 -3 -13 4 -13 16 0 24 3
25 48 12 21 -6 43 -6 61 0 23 8 35 6 62 -10 46 -28 70 -26 113 8 41 33 63 32
113 -5 17 -13 36 -24 42 -24 15 0 51 -41 65 -73 l12 -28 26 21 c15 11 37 20
51 20 60 0 71 22 38 75 -10 17 -20 53 -23 81 -4 40 -19 75 -68 158 -72 122
-108 156 -166 156 -35 0 -46 7 -109 71 -91 93 -150 124 -222 115 -53 -6 -133
-46 -133 -66 0 -6 -7 -10 -15 -10 -10 0 -15 -10 -15 -30 0 -27 3 -30 31 -30
17 0 39 5 51 11 11 6 22 8 25 6 3 -3 -13 -15 -36 -27 -23 -11 -41 -24 -41 -28
1 -4 17 -17 36 -30 30 -18 49 -22 120 -22 85 0 96 -4 68 -24 -26 -19 -2 -66
34 -66 36 0 74 -36 52 -50 -12 -7 -11 -10 4 -16 18 -7 17 -8 -5 -16 -20 -8
-28 -4 -49 22 -14 16 -30 30 -36 30 -6 0 -17 7 -24 15 -21 25 -32 17 -25 -16
13 -59 22 -139 15 -139 -4 0 -10 28 -14 61 -3 34 -10 67 -15 73 -5 6 -11 22
-13 36 -2 20 -11 27 -48 35 -25 5 -56 18 -70 27 -14 9 -38 22 -53 29 -16 7
-37 30 -48 51 -24 46 -65 70 -83 47 -6 -8 -35 -27 -64 -42 -83 -42 -175 -34
-188 18 -11 43 11 58 77 50 56 -7 57 -7 98 35 43 43 52 77 28 106 -32 41 -73
74 -92 74 -11 0 -26 4 -34 9 -21 13 4 24 39 16 31 -7 60 3 43 14 -15 10 -41
68 -34 77 6 9 24 21 75 52 16 9 41 27 56 39 37 30 67 29 82 -2 14 -31 26 -31
68 0 19 14 42 25 53 25 16 0 17 5 11 46 -6 40 -4 48 20 73 22 23 27 36 24 66
-3 33 -10 43 -52 72 -57 39 -109 45 -126 13 -6 -11 -17 -20 -25 -20 -8 0 -20
-12 -27 -27 -8 -18 -22 -29 -38 -31 l-25 -2 26 14 c15 9 29 24 32 36 3 12 13
20 26 20 12 0 21 4 21 8 0 5 10 18 21 31 15 16 24 20 32 12 6 -6 21 -11 34
-11 l23 0 -26 40 c-15 22 -32 40 -38 40 -6 0 -3 5 7 11 11 6 17 22 17 45 0 47
-13 69 -50 84 -34 14 -35 17 -15 44 23 30 18 71 -11 106 -23 27 -25 34 -15 56
8 19 16 24 31 19 10 -3 30 -1 42 6 29 15 88 75 88 89 0 6 -24 35 -53 65 -38
39 -61 55 -80 55 -14 0 -28 -4 -31 -9 -7 -11 -126 -11 -126 1 0 4 23 8 50 8
44 0 50 3 50 21 0 11 -5 29 -11 41 -6 11 -9 22 -6 24 10 10 55 -9 60 -25 6
-26 76 -21 95 7 10 15 25 22 48 22 44 0 53 -18 12 -22 -33 -3 -33 -3 -33 -56
1 -59 25 -96 47 -74 10 10 10 17 0 33 -8 12 -11 23 -9 25 10 10 56 -20 61 -41
5 -21 43 -45 71 -45 7 0 15 -10 17 -22 2 -15 15 -28 36 -37 38 -17 42 -41 6
-41 -17 0 -41 16 -74 50 -27 28 -56 50 -64 50 -22 0 -20 -12 6 -40 13 -13 21
-34 20 -46 -2 -16 4 -23 23 -28 15 -4 35 -4 46 -1 10 4 32 -2 49 -12 35 -20
41 -48 9 -40 -24 6 -49 -1 -49 -14 0 -5 7 -9 16 -9 9 0 29 -8 45 -17 46 -27
37 -63 -20 -83 -24 -8 -46 -21 -49 -28 -4 -14 64 -47 119 -57 34 -6 39 -11 58
-64 22 -61 21 -131 -2 -179 -9 -19 -7 -25 11 -38 30 -21 28 -36 -4 -28 -42 11
-25 -18 24 -40 27 -12 42 -26 42 -37 0 -13 12 -21 43 -29 66 -17 67 -18 67
-47 0 -15 5 -35 10 -43 8 -13 11 -13 22 -1 10 11 10 14 1 18 -7 3 -13 9 -13
14 0 18 29 -4 40 -31 19 -45 106 -56 146 -19 l23 21 20 -41 c12 -22 21 -47 21
-55 0 -8 3 -16 8 -18 15 -7 53 -69 47 -78 -3 -6 -25 -13 -47 -17 -57 -9 -107
-56 -115 -107 -6 -35 -4 -39 13 -33 95 30 103 31 139 14 20 -9 42 -17 49 -17
8 0 16 -9 19 -20 8 -31 32 -24 50 15 15 31 21 35 57 35 29 0 40 -4 40 -15 0
-19 31 -55 47 -55 6 0 16 -6 20 -14 13 -22 63 -26 82 -7 21 21 41 16 41 -10 0
-27 50 -49 112 -49 31 -1 61 -7 72 -15 27 -21 51 -19 110 9 52 24 116 42 116
32 0 -3 -16 -13 -35 -22 -19 -9 -35 -23 -35 -31 0 -8 -15 -20 -32 -28 -62 -27
-69 -37 -62 -91 4 -27 14 -58 24 -69 10 -11 20 -32 24 -48 6 -24 10 -26 34
-21 15 4 30 12 34 18 5 8 13 7 28 -2 26 -16 40 -15 40 1 0 21 43 56 78 63 20
4 32 13 32 23 0 9 3 26 6 39 10 34 -27 28 -48 -8 -19 -33 -52 -40 -62 -14 -4
9 0 24 9 34 8 9 15 28 15 42 0 14 7 31 15 38 20 16 19 30 -2 46 -24 17 -15 21
32 13 22 -3 30 -7 17 -8 -41 -2 -13 -20 29 -18 36 1 40 3 37 27 -2 16 -13 30
-31 38 -21 10 -26 17 -18 25 8 8 14 8 22 0 7 -7 21 -5 48 8 32 15 40 26 50 63
6 25 17 49 25 53 8 5 18 43 25 98 8 56 20 103 33 125 29 48 32 153 6 240 -10
36 -18 77 -16 92 2 18 -4 32 -17 41 -18 14 -18 15 7 46 15 17 30 40 33 52 10
32 -15 110 -47 147 -15 18 -28 37 -28 43 0 20 -75 108 -93 109 -9 0 -23 12
-29 28 -7 15 -23 36 -36 47 -43 37 -1 91 77 97 45 4 60 28 37 59 -9 13 -28 39
-41 58 -15 20 -25 48 -25 68 0 19 -8 46 -18 61 -64 95 -93 142 -111 182 -11
25 -21 39 -21 32 0 -10 -8 -12 -30 -7 -35 8 -41 -8 -10 -25 11 -6 20 -17 20
-24 0 -8 7 -19 15 -26 10 -8 15 -29 15 -59 l-1 -46 -25 45 -25 45 6 -35 c4
-19 10 -44 14 -55 14 -33 32 -128 25 -134 -3 -3 -16 6 -28 22 -23 29 -45 34
-64 15 -17 -17 3 -45 41 -57 38 -13 63 -51 44 -70 -6 -6 -27 -11 -47 -11 -19
0 -44 -7 -54 -15 -10 -8 -22 -12 -27 -10 -4 3 -10 1 -14 -5 -3 -5 -27 -10 -52
-10 l-45 0 6 -31 c8 -39 -9 -56 -60 -61 -31 -2 -38 0 -35 12 2 8 6 31 9 50 5
43 28 70 59 70 12 0 23 5 23 11 0 7 8 18 18 25 16 13 16 15 0 28 -10 7 -18 20
-18 28 0 8 -5 19 -11 25 -7 7 -6 15 5 26 9 9 16 20 16 26 0 6 6 11 13 11 15 0
36 -20 68 -62 22 -30 39 -36 39 -15 -1 18 -40 59 -90 94 -25 17 -72 55 -105
85 -61 55 -222 158 -246 158 -27 0 -44 -17 -32 -32 6 -7 13 -31 15 -53 2 -30
-1 -40 -12 -40 -10 0 -16 12 -18 39 l-3 38 -51 -6 c-28 -4 -61 -12 -72 -19
-12 -6 -25 -10 -30 -9 -5 2 -12 -2 -17 -9 -7 -12 -69 -39 -99 -43 -9 -1 -27
-10 -40 -19 -14 -9 -32 -17 -41 -17 -17 0 -107 -58 -192 -123 -51 -39 -101
-57 -159 -57 -46 0 -68 28 -68 87 0 38 -3 43 -27 49 -19 5 -38 1 -64 -14 -21
-12 -47 -22 -58 -22 -17 0 -20 -5 -14 -30 4 -23 2 -30 -10 -30 -23 0 -47 39
-47 77 0 29 4 33 36 39 31 6 38 13 59 60 13 30 28 54 34 54 10 0 94 68 99 80
6 16 -106 23 -139 10 -40 -17 -56 -2 -68 63 -10 53 -34 87 -63 87 -10 0 -29
12 -42 26 -20 24 -32 27 -99 32 -47 3 -81 10 -88 18 -15 18 -5 21 89 32 55 6
80 5 99 -5 14 -7 30 -13 37 -13 6 0 22 -18 36 -40 24 -38 27 -40 77 -40 33 0
57 -5 67 -15 17 -17 64 -11 81 10 18 21 216 69 287 69 20 0 35 4 32 8 -3 4 0
16 6 27 9 18 6 20 -22 23 -50 5 -46 30 7 51 25 11 45 23 45 29 0 5 8 7 18 4
24 -8 46 9 39 28 -4 11 -19 16 -46 16 -30 0 -43 5 -51 19 -17 33 -11 54 28
100 35 41 38 48 28 73 -7 19 -17 28 -33 28 -24 0 -27 9 -17 48 6 19 13 22 61
22 59 0 93 13 93 34 0 29 -103 35 -137 8 -12 -9 -28 -34 -37 -55 -8 -20 -22
-40 -30 -43 -8 -3 -54 4 -103 16 -125 31 -144 50 -69 69 31 8 53 8 72 1 31
-12 28 -14 41 25 9 29 12 30 89 38 113 11 153 10 168 -2 7 -6 20 -9 28 -6 12
5 17 -4 22 -34 7 -44 47 -81 86 -81 18 0 21 4 17 22 -4 12 -2 27 3 33 6 7 5
26 -3 50 -9 31 -9 39 2 43 7 2 27 18 45 36 18 17 40 36 49 41 13 8 16 28 17
95 1 47 -2 105 -5 128 -5 28 -3 48 4 55 6 6 11 19 11 29 0 9 7 21 16 26 13 7
14 13 5 30 -6 11 -11 37 -11 57 0 20 -5 46 -11 58 -7 11 -20 54 -30 94 -10 40
-28 91 -39 113 -19 37 -20 46 -9 103 12 63 43 111 81 123 10 3 30 28 43 55 17
32 32 49 44 49 27 0 42 23 49 77 6 41 11 49 37 58 36 12 44 21 38 45 -4 14 4
18 36 23 56 7 78 0 85 -29 7 -25 25 -31 42 -14 7 7 18 3 34 -12 l25 -23 -23
-3 c-12 -2 -22 -10 -22 -18 0 -8 -16 -31 -35 -53 -40 -44 -42 -51 -16 -51 13
0 20 -10 25 -32 9 -45 -21 -62 -59 -34 -16 12 -17 16 -6 30 23 28 -28 20 -55
-9 -13 -14 -33 -26 -46 -27 -13 0 -30 -1 -38 -2 -23 -2 -24 -33 -1 -41 13 -4
23 -18 27 -40 9 -49 24 -58 74 -45 22 6 43 17 46 25 10 25 43 27 79 5 19 -12
39 -19 45 -15 18 11 28 -5 21 -33 -5 -20 -15 -28 -37 -32 -17 -3 -30 -12 -32
-23 -4 -18 52 -147 63 -147 22 0 66 35 71 56 9 35 -3 113 -21 141 -20 30 -11
67 29 118 18 22 39 52 48 66 31 50 148 41 148 -10 0 -11 -14 -33 -31 -50 -34
-34 -33 -55 5 -103 11 -15 29 -39 39 -53 14 -19 26 -25 44 -23 22 2 29 12 44
58 10 30 19 84 19 120 0 58 4 70 30 102 17 21 43 43 57 50 15 8 38 38 58 75
17 35 43 75 58 90 15 16 46 54 70 85 l44 58 7 126 c8 136 16 171 43 181 50 18
30 67 -56 137 -56 46 -70 63 -82 103 -13 44 -19 50 -74 77 l-60 29 -65 -17
c-36 -9 -90 -16 -120 -16 -30 0 -95 -11 -143 -25 -107 -29 -172 -33 -212 -13
-16 8 -50 18 -75 21 -38 5 -52 13 -94 59 -60 66 -86 106 -86 135 0 26 -36 63
-62 63 -12 0 -18 -7 -18 -23 0 -13 -18 -43 -40 -67 -22 -24 -40 -49 -40 -55 0
-5 -11 -20 -25 -33 -14 -14 -25 -38 -28 -60 -3 -27 -4 -21 -5 21 -1 31 2 57 8
57 5 0 13 16 19 35 11 40 121 152 158 161 34 9 66 67 58 104 -4 17 -2 36 3 43
6 8 4 31 -6 65 -18 65 -48 82 -97 59 -20 -9 -38 -11 -53 -6 -25 9 -60 -1 -103
-32 -28 -20 -28 -20 -45 -1 -56 66 -64 72 -96 72 -27 0 -37 -6 -51 -30 -25
-42 -50 -53 -83 -38 -23 11 -28 10 -40 -7 -8 -10 -14 -25 -14 -32 0 -7 -8 -13
-17 -13 -27 0 -80 -36 -87 -58 -6 -18 -18 -21 -107 -24 -74 -2 -102 -7 -109
-18 -5 -8 -12 -11 -16 -7 -15 15 13 27 99 40 75 12 93 19 121 46 17 17 40 31
50 31 11 0 35 16 54 36 31 32 39 35 73 30 34 -5 40 -3 59 24 18 25 28 30 64
30 23 0 51 -7 62 -15 28 -21 46 -18 70 12 19 24 25 26 45 16 13 -6 44 -14 69
-17 25 -3 60 -8 78 -12 29 -6 32 -5 32 19 0 14 -11 42 -24 62 -39 57 -65 150
-81 289 -19 161 -14 366 10 402 9 14 13 33 10 43 -3 12 0 21 10 25 8 3 15 17
15 31 0 24 -2 25 -65 25 -36 0 -81 6 -99 14 -39 16 -156 95 -156 105 0 4 -32
33 -71 65 -39 32 -78 74 -87 92 -21 46 -63 47 -109 2 -18 -17 -35 -29 -38 -26
-12 11 9 40 50 68 47 33 48 32 119 -34 21 -20 55 -45 75 -55 20 -11 55 -39 77
-63 127 -132 180 -167 231 -152 16 4 55 8 87 8 l59 1 33 100 c19 54 34 111 34
125 0 42 69 269 102 333 33 67 96 147 114 147 6 0 28 18 48 40 33 37 36 45 36
100 0 33 -13 145 -30 250 -21 139 -27 197 -20 216 6 14 10 40 10 59 0 33 8 58
34 103 15 27 4 88 -19 107 -7 5 -21 25 -31 44 -11 19 -40 64 -66 99 -78 105
-108 207 -88 294 13 53 79 160 164 263 23 28 57 71 76 97 19 26 46 52 60 57
14 6 39 22 55 36 29 25 29 26 11 40 -27 20 -72 18 -122 -4z m-598 -4137 c-3
-8 -11 -14 -17 -14 -8 0 -9 12 -5 38 13 69 21 81 24 33 2 -24 1 -50 -2 -57z"/>
<path d="M6443 8809 c-35 -16 -52 -18 -97 -11 -48 8 -55 7 -59 -9 -3 -12 -19
-19 -53 -24 -113 -14 -146 -27 -171 -70 -39 -65 -54 -105 -48 -124 7 -24 54
-46 69 -31 5 5 17 10 26 10 21 0 80 -61 80 -83 0 -23 6 -22 87 18 85 42 123
86 123 142 0 22 -5 44 -12 51 -18 18 -1 29 71 47 60 16 75 16 112 0 13 -5 20
2 28 28 16 49 7 63 -46 71 -59 8 -61 8 -110 -15z"/>
<path d="M6248 8444 c-31 -16 -28 -44 4 -44 46 0 78 40 42 54 -19 7 -13 8 -46
-10z"/>
<path d="M8425 4896 c-73 -23 -121 -56 -355 -241 -151 -120 -230 -173 -308
-206 -52 -21 -60 -28 -44 -33 11 -4 26 -20 32 -37 15 -35 52 -53 89 -44 13 3
57 22 98 41 41 20 81 34 90 32 16 -3 50 -95 74 -201 7 -32 16 -60 21 -63 14
-9 9 -54 -7 -60 -21 -8 -19 -25 15 -123 16 -47 34 -111 39 -141 5 -30 15 -75
21 -100 13 -52 12 -51 7 -110 -6 -51 -15 -80 -27 -80 -14 0 -20 -31 -9 -51 12
-23 2 -62 -14 -56 -6 2 -14 14 -17 28 -8 31 -40 39 -40 9 0 -16 -5 -21 -22
-18 -17 2 -24 11 -26 32 -3 27 -2 29 28 23 23 -5 32 -3 37 9 7 20 -13 34 -50
34 -24 0 -27 3 -22 21 6 17 3 20 -12 17 -12 -2 -18 -12 -19 -29 -2 -46 -12
-59 -44 -59 -23 0 -30 -4 -30 -19 0 -26 -10 -51 -21 -51 -17 0 5 66 43 124 21
32 38 67 38 77 0 28 11 49 26 49 8 0 14 -9 14 -19 0 -27 25 -33 45 -11 9 10
27 20 39 22 13 2 20 9 17 18 -2 8 -4 63 -5 121 -1 65 -6 111 -13 120 -6 8 -15
38 -19 67 -5 39 -12 56 -28 64 -11 6 -24 16 -28 22 -13 20 -8 66 11 104 24 46
13 72 -29 72 -19 0 -33 7 -40 19 -11 21 -23 26 -86 36 l-41 6 -6 -38 c-5 -31
-2 -42 18 -63 17 -18 25 -37 25 -63 0 -26 4 -37 15 -37 25 0 45 -42 39 -82 -8
-45 -45 -81 -101 -97 -31 -8 -43 -17 -43 -31 0 -10 -4 -21 -9 -24 -5 -4 -12
-41 -16 -84 -12 -155 -63 -317 -87 -280 -4 7 -8 23 -8 34 0 12 -7 24 -15 28
-8 3 -15 16 -15 28 0 48 -11 53 -97 40 -43 -7 -93 -12 -111 -12 -52 0 -34 24
24 31 27 4 62 12 77 18 16 6 39 11 53 11 31 0 34 35 3 43 -17 5 -20 11 -15 31
6 25 -19 106 -34 106 -4 0 -37 -16 -74 -35 -73 -38 -116 -44 -137 -19 -10 13
-10 17 2 25 8 5 19 9 26 9 7 0 18 18 24 39 14 46 34 58 59 36 24 -21 67 -19
80 4 26 49 -6 138 -72 200 -36 33 -38 83 -6 105 29 21 50 20 46 -1 -2 -11 7
-21 23 -27 44 -15 59 -3 59 51 1 53 13 76 48 87 18 6 22 15 22 51 0 30 -5 45
-16 49 -19 7 -20 6 -101 -52 -76 -57 -143 -76 -191 -56 -19 7 -36 23 -39 34
-6 23 -9 24 -67 8 -36 -9 -57 -9 -117 5 -41 9 -98 19 -126 22 -69 8 -179 57
-227 103 -21 20 -35 30 -31 22 5 -8 11 -30 15 -50 4 -29 13 -39 52 -60 25 -14
61 -33 79 -44 19 -11 60 -21 99 -23 78 -6 141 -27 170 -58 20 -21 22 -32 19
-109 -4 -81 -5 -86 -38 -120 -28 -29 -42 -36 -73 -36 -22 0 -57 -9 -79 -21
-37 -19 -42 -19 -58 -5 -10 9 -26 16 -36 16 -17 0 -17 -1 0 -20 23 -25 32
-143 15 -194 -12 -39 -51 -66 -93 -66 -12 0 -28 -5 -35 -12 -7 -7 -12 -8 -12
-3 0 6 -9 -5 -20 -23 -18 -29 -25 -33 -48 -28 -15 4 -34 16 -44 26 -21 26 -25
25 -32 -5 -8 -32 -34 -32 -46 -1 -16 44 -127 48 -165 6 -22 -24 -56 -25 -155
-4 -72 15 -195 15 -220 -1 -6 -4 -1 -15 14 -26 18 -14 40 -19 86 -19 64 0 100
-12 100 -33 0 -21 92 -104 133 -121 42 -17 47 -30 16 -47 -23 -12 -44 -10
-169 16 -93 19 -90 19 -90 -4 0 -27 15 -34 83 -42 90 -11 237 -92 266 -147 20
-38 41 -121 41 -163 0 -46 -17 -60 -74 -62 -36 -2 -46 -6 -46 -19 0 -9 -3 -23
-6 -32 -4 -11 3 -19 22 -26 23 -9 31 -8 41 5 6 9 9 24 6 32 -3 8 17 -9 44 -39
31 -33 53 -66 58 -88 4 -19 16 -52 27 -73 14 -29 17 -49 13 -82 -4 -26 -2 -57
5 -78 7 -18 10 -45 7 -58 -7 -28 -78 -69 -120 -69 -72 0 -93 -60 -36 -100 17
-13 34 -32 39 -45 8 -21 89 -81 145 -107 26 -11 27 -15 22 -60 -3 -26 0 -70 7
-97 8 -31 9 -54 3 -60 -14 -14 10 -50 41 -57 15 -4 32 -10 37 -15 18 -14 137
-30 225 -30 83 0 132 10 144 29 7 11 44 5 63 -11 7 -5 36 -11 65 -12 64 -4
143 -36 158 -64 11 -21 50 -30 50 -12 0 21 -13 41 -26 41 -8 0 -14 2 -14 5 0
16 31 63 45 69 27 10 73 7 81 -5 5 -8 -1 -10 -18 -6 -21 6 -26 2 -36 -26 -16
-45 -16 -47 13 -47 14 0 25 5 25 10 0 6 7 10 15 10 21 0 19 -13 -5 -28 -23
-14 -26 -35 -7 -50 6 -6 39 -12 72 -15 64 -6 95 -14 95 -27 0 -25 -13 -36 -38
-32 -18 2 -36 -4 -51 -17 -26 -22 -41 -27 -41 -12 0 22 -31 19 -42 -4 -10 -21
-7 -30 24 -67 19 -24 40 -53 47 -65 6 -13 19 -23 28 -23 13 0 13 3 3 15 -27
32 10 13 54 -28 54 -50 65 -93 18 -68 -95 50 -287 116 -318 109 -13 -3 -4 -9
26 -17 25 -7 52 -19 60 -26 8 -7 41 -22 72 -33 95 -35 167 -81 194 -124 14
-22 38 -44 55 -50 21 -7 29 -16 29 -33 0 -13 6 -25 13 -28 8 -3 13 4 12 22 0
21 5 27 29 29 46 6 75 -6 91 -38 18 -34 90 -70 141 -70 25 0 45 10 74 36 l40
36 0 -28 0 -29 26 32 c29 37 53 42 77 15 22 -24 21 -32 -2 -32 -11 0 -32 -10
-47 -23 -22 -19 -26 -29 -20 -50 4 -16 14 -27 24 -28 10 0 6 -4 -10 -11 -23
-8 -28 -16 -28 -43 0 -20 -6 -35 -15 -39 -30 -11 -14 -26 28 -26 29 0 38 -3
28 -9 -12 -8 -13 -14 -3 -36 12 -26 16 -27 67 -23 29 3 61 11 70 18 9 8 45 53
81 100 48 65 77 94 115 114 47 26 56 28 127 21 47 -4 98 -16 131 -31 66 -30
126 -32 141 -5 17 33 11 75 -17 131 -23 44 -34 56 -62 63 -18 4 -44 15 -57 24
-17 11 -67 18 -162 25 l-137 9 -40 45 -40 45 -24 -25 c-27 -29 -22 -41 25 -61
27 -11 34 -19 34 -42 0 -16 -5 -34 -10 -39 -8 -8 -7 -19 1 -38 14 -31 18 -28
-50 -48 -47 -15 -57 -15 -81 -3 -40 21 -62 45 -56 62 3 8 -5 41 -19 73 -14 33
-25 66 -25 75 0 8 -6 15 -14 15 -24 0 -35 60 -17 89 6 10 13 10 28 2 26 -13
53 13 53 52 0 15 5 27 10 27 6 0 10 8 10 18 0 39 -87 86 -115 62 -22 -18 -135
-3 -142 19 -4 9 -12 20 -20 24 -17 11 -16 38 3 65 12 18 25 22 64 22 l50 0
-16 -41 c-21 -52 -10 -81 25 -68 22 9 23 13 16 65 l-7 56 77 74 c42 41 84 74
93 74 9 0 36 11 59 24 39 23 50 24 133 19 76 -5 90 -4 90 9 0 21 32 48 57 48
11 0 28 10 39 21 10 12 29 25 42 30 30 11 44 51 31 86 -5 14 -7 45 -4 67 8 54
-4 84 -70 165 -57 70 -94 91 -163 91 -17 0 -33 4 -36 9 -3 4 -26 14 -50 21
-25 7 -63 28 -85 46 -34 30 -40 40 -43 86 -6 65 37 212 81 277 27 41 143 141
163 141 5 0 29 19 53 41 43 39 48 41 95 37 28 -3 58 -12 68 -22 10 -9 30 -16
45 -16 24 0 26 4 25 34 -2 47 25 86 59 86 l27 0 -28 -29 c-19 -20 -28 -40 -28
-63 0 -45 26 -105 49 -112 10 -3 23 -16 28 -28 15 -34 82 -29 111 8 12 14 39
34 61 44 34 15 41 23 46 56 11 65 8 80 -23 110 -22 22 -30 38 -30 66 0 51 -42
128 -62 117 -37 -21 -63 89 -38 157 14 36 15 118 1 185 -5 30 -15 83 -22 119
-6 35 -30 106 -54 156 -41 87 -43 96 -38 161 8 95 47 177 106 223 46 36 57 54
57 102 0 20 -15 40 -64 83 -66 58 -113 78 -279 120 -38 10 -81 28 -96 41 -16
13 -40 28 -55 34 -44 16 -135 10 -211 -14z"/>
<path d="M5417 4478 c-37 -36 -38 -39 -35 -100 l3 -63 35 -5 c19 -3 50 -16 68
-29 37 -28 40 -51 17 -128 -12 -42 -21 -54 -50 -67 -66 -32 -81 -105 -47 -243
l17 -73 53 -2 c28 -1 59 -2 69 -2 25 -1 58 118 43 161 -9 27 -8 39 11 75 12
24 35 59 50 79 38 49 38 70 0 63 -35 -7 -86 18 -94 44 -6 25 2 38 31 46 33 11
27 23 -25 48 -59 28 -89 78 -100 168 l-9 65 -37 -37z"/>
<path d="M6380 4236 c0 -8 18 -28 39 -46 22 -17 43 -40 46 -50 4 -11 12 -20
18 -20 7 0 39 -14 71 -30 32 -16 63 -27 68 -24 14 9 9 22 -12 29 -12 4 -42 26
-68 51 -26 24 -61 57 -79 74 -34 31 -83 41 -83 16z"/>
<path d="M4989 3801 c-19 -35 -27 -40 -62 -43 -39 -3 -70 -28 -54 -45 5 -4 28
-8 52 -8 24 0 47 -3 51 -7 19 -20 41 -6 52 31 15 49 15 72 -2 94 -13 17 -16
15 -37 -22z"/>
<path d="M1767 2000 c-27 -21 -37 -54 -42 -133 -1 -23 -6 -78 -10 -122 -7 -75
-6 -84 19 -133 15 -29 33 -55 42 -59 19 -7 74 16 74 31 0 6 9 19 20 29 21 18
27 61 10 72 -6 4 -7 23 -4 44 4 22 1 48 -6 60 -9 18 -9 26 3 39 25 29 58 116
53 137 -4 15 -21 26 -61 38 -69 21 -67 21 -98 -3z"/>
<path d="M6089 1832 c-15 -21 -32 -55 -38 -75 -7 -20 -17 -39 -22 -42 -5 -4
-9 -27 -9 -52 0 -34 -11 -68 -43 -132 -24 -47 -49 -107 -56 -133 -10 -36 -22
-53 -52 -72 -21 -14 -43 -26 -48 -26 -8 0 -36 -30 -91 -101 -31 -40 -70 -115
-70 -135 0 -9 11 -14 30 -14 20 0 33 -6 37 -17 4 -10 11 -21 17 -25 14 -9 -12
-38 -35 -38 -10 0 -21 5 -24 10 -14 22 -33 8 -39 -27 -4 -21 -12 -53 -18 -72
-10 -33 -11 -33 -54 -27 -26 3 -44 2 -44 -4 0 -10 7 -17 63 -68 42 -37 60
-108 51 -202 l-7 -80 40 0 c27 0 46 6 58 20 20 23 75 180 75 217 0 25 34 113
79 203 18 36 32 85 39 140 12 96 37 162 88 233 23 32 39 68 46 106 5 31 21 90
34 131 13 41 24 89 24 107 0 17 9 53 20 79 16 37 19 56 12 88 -10 53 -30 55
-63 8z"/>
<path d="M7135 1320 c-17 -19 -17 -21 -2 -33 10 -6 28 -30 41 -52 l24 -40 7
28 c4 15 19 37 34 48 l26 21 -28 24 c-34 29 -78 31 -102 4z"/>
<path d="M4810 1261 c0 -14 60 -101 70 -101 5 0 10 -8 10 -18 0 -30 80 -132
118 -150 23 -11 39 -28 46 -49 10 -27 142 -162 150 -152 1 2 12 18 24 35 19
27 29 32 82 37 72 8 80 12 80 38 0 27 -93 119 -121 119 l-22 0 23 -25 c19 -21
21 -25 7 -25 -9 0 -17 -4 -17 -10 0 -25 -30 -7 -40 24 -6 19 -17 37 -25 40 -8
3 -15 12 -15 19 0 8 -9 22 -19 31 -19 17 -19 17 -14 -3 3 -11 3 -28 -1 -37 -5
-14 -9 -13 -35 5 -16 12 -36 21 -44 21 -9 0 -18 8 -21 18 -3 9 -24 27 -46 40
-25 14 -40 30 -40 42 0 13 -7 20 -19 20 -19 0 -81 53 -81 70 0 4 -11 10 -25
12 -14 3 -25 2 -25 -1z"/>
<path d="M6964 1241 c-4 -17 -10 -28 -14 -26 -5 3 -23 7 -40 9 -29 3 -31 2
-25 -21 5 -21 61 -83 75 -82 3 0 14 14 25 32 16 25 28 33 58 35 28 2 37 8 37
21 0 25 -36 55 -55 47 -9 -3 -25 -1 -36 4 -17 10 -20 7 -25 -19z"/>
<path d="M7568 1249 c-10 -5 -18 -21 -18 -34 0 -14 -6 -25 -13 -25 -8 0 -22
-9 -31 -19 -17 -19 -17 -20 21 -23 l38 -3 0 -61 c0 -34 6 -67 12 -76 17 -20 7
-28 -34 -28 -35 0 -92 37 -139 90 -17 19 -25 22 -34 14 -8 -8 -9 -18 -2 -30 5
-11 12 -42 16 -70 6 -47 5 -51 -19 -62 -15 -7 -44 -9 -70 -5 -54 7 -66 -10
-39 -53 l18 -27 -74 7 c-41 4 -77 11 -80 15 -3 5 -15 12 -28 16 -18 5 -22 13
-20 33 3 23 -1 27 -26 30 -16 2 -38 13 -50 24 -11 11 -35 26 -52 34 -39 16
-55 36 -63 76 -5 23 -17 37 -46 53 -22 13 -50 38 -63 56 -28 40 -49 47 -163
54 -77 4 -89 3 -113 -16 -14 -11 -26 -16 -26 -10 0 6 -7 8 -15 5 -8 -4 -15
-12 -15 -20 0 -9 -12 -14 -34 -14 -26 0 -45 -10 -85 -46 -48 -43 -51 -49 -51
-93 0 -50 20 -81 52 -81 11 0 14 -6 11 -19 -3 -14 2 -20 22 -25 21 -5 25 -11
20 -27 -9 -26 12 -51 36 -44 26 8 25 -17 -1 -40 -17 -15 -22 -16 -36 -4 -15
12 -16 11 -10 -19 7 -30 6 -32 -18 -32 -17 0 -26 6 -26 15 0 17 -38 35 -72 35
-18 0 -19 -2 -7 -16 11 -14 10 -18 -6 -30 -10 -8 -24 -14 -31 -14 -14 0 -36
78 -23 86 17 10 9 34 -11 34 -34 0 -25 -58 22 -150 50 -96 73 -112 225 -159
56 -17 135 -47 175 -66 40 -19 80 -35 90 -35 10 0 25 -11 34 -26 9 -14 29 -31
45 -39 15 -8 37 -30 49 -49 12 -21 45 -49 78 -67 31 -18 74 -47 95 -66 20 -18
41 -33 46 -33 4 0 25 -13 46 -30 27 -21 48 -30 74 -29 l36 0 -47 15 c-73 22
-61 70 27 109 29 13 55 27 56 32 2 4 22 17 44 28 31 15 52 19 92 15 29 -3 54
-2 56 3 1 5 29 3 62 -3 33 -7 78 -15 100 -19 22 -4 50 -14 62 -21 19 -12 27
-12 58 3 20 10 35 23 33 29 -3 7 3 21 13 31 10 11 15 25 12 33 -3 8 0 14 6 14
23 0 10 30 -19 45 -39 20 -38 35 8 72 l38 30 32 -26 32 -27 -30 -42 c-20 -26
-33 -58 -36 -89 -6 -43 -2 -57 40 -135 29 -56 46 -100 46 -123 0 -32 4 -37 49
-60 38 -19 50 -21 54 -11 3 7 1 80 -5 162 -14 211 -11 225 51 288 36 36 56 68
66 100 19 62 75 137 119 161 24 13 40 31 47 53 8 23 20 37 40 44 41 14 39 53
-6 102 -19 21 -37 45 -40 55 -9 29 -60 50 -136 57 -96 9 -106 15 -114 69 -8
52 -20 64 -69 72 -31 5 -36 3 -36 -14 0 -25 -22 -45 -42 -38 -8 3 -20 21 -27
40 -11 30 -70 85 -92 85 -4 0 -17 -16 -29 -37 l-21 -36 -42 41 c-47 46 -45 45
-69 31z"/>
<path d="M8090 1180 c-8 -5 -27 -10 -42 -10 -21 0 -28 -5 -28 -19 0 -11 6 -23
13 -28 16 -10 120 -32 129 -27 14 9 20 65 8 79 -14 17 -58 19 -80 5z"/>
</g>
</svg>
