<?xml version="1.0" standalone="no"?>
<!DOCTYPE svg PUBLIC "-//W3C//DTD SVG 20010904//EN"
 "http://www.w3.org/TR/2001/REC-SVG-20010904/DTD/svg10.dtd">
<svg version="1.0" xmlns="http://www.w3.org/2000/svg"
 width="1024.000000pt" height="1024.000000pt" viewBox="0 0 1024.000000 1024.000000"
 preserveAspectRatio="xMidYMid meet">
<metadata>
Created by potrace 1.10, written by Peter Selinger 2001-2011
</metadata>
<g transform="translate(0.000000,1024.000000) scale(0.100000,-0.100000)"
fill="#000000" stroke="none">
<path d="M1960 9483 l0 -756 -50 -69 c-27 -38 -68 -104 -90 -147 -58 -116 -85
-130 -176 -87 -72 33 -122 82 -149 142 -31 71 -53 81 -120 59 -50 -17 -55 -17
-118 0 -106 29 -175 15 -300 -58 -47 -28 -53 -50 -39 -155 13 -95 48 -182 93
-228 l31 -32 -29 -43 c-26 -39 -28 -51 -31 -155 -4 -110 -3 -114 32 -195 40
-92 42 -115 21 -242 -17 -103 -11 -126 55 -249 21 -40 45 -98 54 -128 21 -78
32 -310 15 -341 -15 -30 -39 -48 -61 -49 -24 0 -22 -9 7 -32 30 -24 31 -39 5
-63 -18 -17 -20 -31 -20 -177 l0 -158 44 -57 c24 -32 49 -74 56 -93 7 -19 32
-55 56 -80 30 -32 47 -62 60 -105 9 -33 30 -76 45 -95 16 -19 29 -42 29 -51 0
-9 10 -29 22 -44 12 -16 27 -58 35 -97 7 -38 19 -78 26 -88 24 -35 212 -204
283 -255 107 -77 103 -103 -40 -252 -32 -35 -67 -63 -77 -63 -10 0 -28 -14
-42 -31 -18 -24 -38 -34 -83 -44 -79 -19 -106 -51 -185 -223 l-64 -137 0 -150
c0 -104 5 -165 15 -198 13 -43 13 -50 -3 -76 -9 -16 -17 -38 -17 -49 0 -11 -9
-41 -20 -67 -11 -26 -20 -68 -20 -95 0 -43 -8 -60 -77 -163 -68 -103 -81 -117
-120 -132 -35 -13 -43 -21 -37 -34 18 -42 15 -68 -10 -98 -14 -17 -26 -35 -26
-41 0 -6 18 -25 40 -44 39 -32 40 -36 46 -109 6 -68 4 -86 -20 -151 -26 -71
-27 -77 -13 -111 19 -44 86 -77 159 -77 59 0 86 -16 133 -80 27 -37 34 -56 33
-86 -1 -22 2 -60 7 -86 7 -42 4 -52 -24 -98 -18 -28 -35 -66 -38 -83 -8 -42
-28 -64 -87 -94 -54 -27 -95 -32 -167 -19 -46 8 -47 8 -42 -18 6 -31 -24 -80
-87 -141 l-40 -39 0 -116 0 -115 2779 -1018 2778 -1017 1501 0 1502 0 0 5120
0 5120 -3720 0 -3720 0 0 -757z"/>
</g>
</svg>
