<?xml version="1.0" standalone="no"?>
<!DOCTYPE svg PUBLIC "-//W3C//DTD SVG 20010904//EN"
 "http://www.w3.org/TR/2001/REC-SVG-20010904/DTD/svg10.dtd">
<svg version="1.0" xmlns="http://www.w3.org/2000/svg"
 width="1024.000000pt" height="1024.000000pt" viewBox="0 0 1024.000000 1024.000000"
 preserveAspectRatio="xMidYMid meet">
<metadata>
Created by potrace 1.10, written by Peter Selinger 2001-2011
</metadata>
<g transform="translate(0.000000,1024.000000) scale(0.100000,-0.100000)"
fill="#000000" stroke="none">
<path d="M6920 10202 c-13 -22 -37 -46 -56 -56 -30 -14 -34 -20 -34 -54 0 -48
40 -90 122 -125 31 -14 64 -37 74 -52 16 -25 16 -32 1 -120 l-17 -93 50 -153
c27 -84 47 -155 46 -157 -6 -5 -48 58 -99 148 -42 73 -49 95 -53 155 -8 101
-28 151 -66 164 -17 6 -39 11 -48 11 -30 0 -80 -71 -101 -143 -7 -24 -2 -42
26 -98 19 -38 35 -82 35 -100 0 -17 14 -69 30 -116 30 -84 30 -89 29 -262 -2
-171 -1 -178 24 -234 24 -52 26 -64 17 -104 -6 -24 -21 -66 -34 -92 -23 -45
-24 -49 -11 -112 18 -80 18 -92 3 -87 -7 3 -17 27 -23 54 l-10 49 -70 -4 c-39
-2 -72 -5 -74 -7 -2 -2 4 -21 13 -44 10 -25 16 -69 16 -115 0 -69 3 -78 33
-118 18 -23 59 -89 91 -147 33 -58 77 -125 99 -150 21 -24 55 -73 74 -108 33
-60 74 -95 90 -78 4 4 9 37 11 74 4 66 3 68 -45 138 -42 60 -49 76 -45 107 3
24 -2 46 -12 62 -9 14 -16 45 -16 72 0 34 -6 53 -22 70 -20 21 -20 25 -7 39
14 14 18 12 40 -18 45 -60 67 -102 74 -143 11 -59 60 -139 103 -167 22 -15 46
-43 56 -67 23 -49 54 -61 168 -61 l77 0 26 37 c31 46 31 48 0 93 -25 36 -25
37 -14 143 9 80 9 110 0 121 -6 7 -45 26 -86 42 -64 25 -85 39 -148 104 -64
65 -78 87 -106 159 -17 46 -30 85 -28 87 2 2 17 -1 33 -8 18 -7 48 -35 74 -73
25 -33 70 -82 102 -107 l57 -45 93 16 93 16 13 40 c8 22 16 73 19 113 5 66 4
75 -17 97 -14 15 -35 25 -51 25 -22 0 -32 8 -49 38 -19 33 -31 42 -89 60 -64
21 -69 25 -144 117 -43 52 -76 95 -74 95 2 0 41 -15 88 -34 132 -53 289 -106
315 -106 27 0 29 11 14 74 -8 38 -6 43 52 123 l60 83 -80 87 c-101 110 -129
137 -135 126 -3 -4 -10 -35 -17 -67 -11 -54 -53 -136 -69 -136 -25 0 -30 29
-24 125 7 123 -10 184 -57 202 -20 7 -41 34 -74 89 -45 77 -46 81 -46 167 0
86 -1 89 -54 195 -49 95 -60 111 -106 140 -28 18 -64 35 -79 38 -25 5 -31 1
-51 -34z"/>
<path d="M5820 9949 c0 -78 73 -360 141 -548 60 -163 169 -361 247 -446 l54
-60 -5 -145 -5 -146 109 -87 c60 -48 112 -87 116 -87 5 0 20 21 35 48 22 40
27 61 29 132 l2 84 -49 33 c-58 39 -80 84 -120 236 -22 84 -49 147 -161 362
l-135 260 -16 122 -16 123 -36 24 c-20 13 -56 54 -79 90 -39 60 -46 66 -77 66
l-34 0 0 -61z"/>
<path d="M6370 9879 c-27 -38 -29 -45 -23 -103 3 -35 1 -92 -6 -127 -7 -43 -8
-76 -1 -98 5 -19 12 -68 16 -110 5 -67 12 -87 59 -171 29 -52 67 -139 85 -194
18 -55 59 -144 93 -203 53 -92 66 -107 106 -127 41 -20 51 -22 91 -11 l45 11
11 69 c11 65 10 71 -16 129 -16 34 -38 108 -50 166 -20 95 -33 125 -130 310
l-108 205 -1 110 c-1 125 -2 126 -94 164 l-48 20 -29 -40z"/>
<path d="M8049 9764 c-18 -48 -30 -137 -23 -177 3 -21 22 -72 41 -114 30 -66
37 -74 56 -69 12 3 50 6 83 6 l61 0 17 45 c17 44 19 45 62 45 24 0 44 2 44 5
0 3 -9 24 -21 46 -15 29 -17 44 -10 53 8 10 6 26 -6 60 -15 40 -21 46 -46 46
-16 0 -40 -9 -54 -20 -41 -32 -59 -26 -67 20 -7 45 -33 68 -90 77 -32 5 -37 3
-47 -23z"/>
<path d="M5031 9630 c-15 -13 -38 -20 -67 -20 -43 0 -44 0 -55 -45 -8 -33 -24
-57 -63 -92 -44 -42 -62 -51 -128 -68 l-77 -19 -43 34 c-24 18 -49 38 -55 43
-9 7 -21 -7 -42 -52 l-29 -61 18 -58 18 -57 53 -10 53 -10 -3 -46 c-2 -39 4
-56 33 -102 29 -45 36 -66 36 -105 0 -43 6 -57 45 -108 45 -57 45 -58 45 -136
0 -59 4 -80 14 -84 8 -3 28 -35 45 -70 31 -67 65 -118 114 -171 24 -25 35 -55
57 -153 16 -67 30 -123 32 -125 2 -2 24 -13 50 -24 39 -16 49 -27 71 -73 15
-35 43 -70 76 -99 44 -38 51 -49 50 -79 -1 -20 -3 -26 -6 -14 -6 32 -125 131
-255 214 -93 59 -118 80 -118 98 0 16 6 22 23 22 30 0 44 11 55 41 9 23 1 39
-80 155 -127 183 -201 334 -237 484 -24 101 -38 136 -90 227 -46 80 -74 117
-107 141 l-45 33 -42 -31 -42 -31 -9 38 c-6 28 -21 47 -57 75 -62 49 -98 45
-131 -14 -20 -35 -23 -37 -30 -18 -11 29 -92 29 -108 0 -6 -11 -16 -20 -23
-20 -7 0 -22 -18 -35 -40 -20 -35 -21 -41 -7 -46 11 -5 15 -21 15 -64 0 -33
-4 -61 -10 -65 -5 -3 -9 -34 -10 -68 0 -34 -1 -84 -2 -112 -3 -82 9 -122 43
-142 28 -17 29 -18 10 -33 -14 -11 -26 -50 -46 -154 -17 -93 -36 -158 -56
-198 -28 -55 -29 -59 -13 -83 15 -23 15 -26 -4 -52 -11 -16 -23 -51 -27 -78
-4 -28 -11 -57 -16 -66 -6 -12 0 -24 23 -45 16 -16 52 -60 78 -99 70 -103 154
-179 218 -200 28 -9 52 -22 52 -28 0 -6 11 -48 25 -94 26 -83 26 -84 102 -144
l75 -60 97 2 c53 0 112 -4 131 -10 19 -6 65 -11 102 -11 l66 0 66 -72 c45 -50
71 -88 80 -119 8 -25 24 -65 36 -88 19 -39 21 -56 19 -214 l-2 -171 27 -9 c20
-7 29 -19 37 -54 15 -58 40 -70 111 -55 126 27 121 28 157 -45 27 -56 34 -84
43 -184 l11 -117 93 -71 c93 -71 155 -136 357 -373 63 -74 118 -129 132 -132
13 -3 39 -28 59 -55 32 -43 40 -49 83 -54 27 -3 56 -9 65 -12 11 -4 29 5 54
28 l38 34 -21 94 c-18 79 -20 106 -13 164 15 114 17 109 -60 167 -55 42 -71
60 -76 87 -4 19 -19 45 -33 57 l-26 22 27 56 c18 36 38 61 58 71 34 18 36 26
15 84 -14 40 -14 41 11 47 l25 6 -20 22 c-11 11 -29 60 -41 107 l-22 86 -50
12 c-28 6 -56 19 -63 27 -11 15 -20 15 -110 -5 l-98 -22 -86 45 c-58 30 -94
43 -111 39 -18 -3 -32 3 -48 20 l-23 25 45 6 c38 6 54 2 105 -23 33 -17 68
-31 76 -31 9 0 55 32 103 72 48 40 89 74 91 75 3 2 -36 86 -85 187 -88 182
-89 184 -129 196 -22 7 -63 25 -90 41 -63 35 -85 31 -147 -29 -43 -42 -50 -45
-104 -46 -46 -1 -59 2 -62 15 -2 12 7 18 37 23 31 5 48 16 77 51 28 35 43 45
67 45 16 0 49 12 73 28 39 24 44 31 44 65 0 29 -9 49 -35 82 -20 23 -43 64
-52 90 -11 33 -25 52 -45 64 -16 9 -53 30 -81 48 l-52 32 30 11 c61 23 78 21
150 -18 67 -36 72 -42 115 -123 73 -135 144 -232 219 -299 45 -40 83 -84 103
-122 21 -37 50 -72 79 -94 l46 -34 6 76 c6 61 12 83 37 119 36 52 36 55 10
204 -18 105 -26 128 -85 243 -59 114 -77 140 -171 237 -99 104 -124 142 -124
193 0 11 8 18 18 18 13 0 38 -29 75 -84 40 -61 73 -96 121 -131 63 -46 68 -54
151 -210 73 -139 85 -169 85 -211 0 -27 11 -92 25 -144 14 -52 25 -98 25 -102
0 -4 -14 -8 -32 -10 -29 -3 -33 -7 -44 -50 -10 -39 -9 -49 2 -59 9 -8 14 -28
13 -53 -2 -34 13 -72 85 -213 l86 -173 39 0 c22 0 43 5 46 10 4 6 6 50 6 98 0
48 6 110 13 138 11 43 11 64 0 125 -20 114 -20 115 16 89 45 -32 119 -20 180
28 25 20 47 37 49 39 8 5 -83 134 -108 154 -15 12 -28 34 -31 52 -5 29 -12 35
-87 66 -65 26 -83 38 -83 54 0 19 4 20 113 14 107 -6 117 -8 212 -53 148 -68
142 -67 148 -38 4 22 -4 29 -87 71 -65 33 -113 68 -166 119 -62 59 -86 75
-140 93 -52 17 -77 33 -119 75 -35 36 -65 56 -86 60 -48 9 -115 85 -115 130 0
19 5 38 10 41 6 3 10 19 10 35 l0 28 113 -35 c61 -19 171 -61 242 -94 l130
-58 18 22 c13 16 16 33 13 62 -3 22 -8 65 -12 96 l-6 56 -169 68 c-168 68
-171 70 -225 132 -65 73 -80 77 -157 34 -88 -49 -92 -49 -150 5 -47 43 -95
113 -97 138 0 6 15 -5 34 -23 39 -38 54 -37 128 13 38 25 49 39 58 74 6 24 8
58 4 75 -9 51 -70 110 -159 156 l-81 41 -87 -35 c-48 -19 -90 -35 -93 -35 -3
0 -4 10 -1 23 3 12 10 47 17 78 11 56 12 57 55 68 63 16 62 44 -6 96 l-50 38
-52 -21 c-34 -15 -74 -22 -114 -22 -56 0 -63 -2 -82 -29 -17 -24 -30 -29 -78
-35 -32 -4 -63 -10 -69 -14 -6 -4 -18 -42 -27 -85 -15 -70 -43 -134 -54 -123
-2 2 4 44 13 93 l17 90 -27 73 -27 73 71 65 c42 38 100 78 141 98 38 18 69 36
69 39 0 3 -42 36 -92 74 -51 38 -121 97 -155 130 -61 59 -64 61 -115 61 -38
-1 -60 -6 -77 -20z"/>
<path d="M7967 9246 c-20 -18 -46 -55 -57 -81 -11 -26 -30 -60 -41 -76 -18
-26 -26 -29 -79 -29 -56 0 -60 -2 -94 -42 -49 -57 -49 -98 -1 -162 20 -25 40
-46 45 -46 20 0 38 -58 43 -139 5 -73 9 -87 31 -110 l26 -25 65 32 c36 18 80
32 99 32 18 0 47 5 65 11 l31 11 0 89 c0 65 4 96 16 114 22 33 11 57 -44 101
-26 21 -51 40 -55 44 -4 4 -5 20 -1 35 l7 28 95 -7 c52 -4 104 -11 117 -16 22
-8 22 -7 22 76 0 96 -8 108 -74 117 -46 6 -103 40 -103 63 0 10 -12 14 -38 14
-29 0 -47 -8 -75 -34z"/>
<path d="M3680 7720 c-99 -50 -150 -71 -192 -76 -63 -7 -68 -14 -68 -91 0 -48
-18 -96 -34 -90 -6 2 -51 17 -100 33 -66 22 -91 35 -99 52 -8 17 -18 22 -49
22 -29 0 -54 10 -96 39 -51 34 -61 38 -102 32 l-45 -6 -6 -55 c-4 -30 -4 -72
-1 -93 4 -35 10 -41 48 -58 43 -18 44 -19 44 -65 0 -55 23 -98 89 -166 27 -29
54 -48 68 -48 12 0 26 -6 30 -14 14 -23 90 -56 165 -71 40 -7 98 -22 128 -33
l55 -19 17 -61 c9 -34 14 -62 11 -62 -3 0 -27 13 -53 29 -44 27 -50 28 -94 18
-43 -10 -48 -9 -74 16 -46 43 -72 44 -136 1 -45 -30 -54 -39 -42 -46 9 -5 16
-22 16 -37 0 -23 5 -30 29 -34 21 -4 30 -13 34 -34 9 -42 114 -100 207 -113
47 -7 77 -7 90 0 15 8 24 3 53 -30 32 -37 35 -39 68 -30 47 14 44 15 80 -35
18 -25 40 -45 51 -45 10 0 18 -6 18 -13 0 -7 34 -46 75 -87 68 -68 76 -73 97
-62 13 6 54 16 92 22 37 6 86 20 107 30 21 11 54 20 73 20 51 0 106 50 106 96
0 37 -19 51 -100 75 -84 24 -95 49 -20 49 48 0 50 1 50 28 1 25 1 26 12 7 18
-32 28 -35 132 -35 90 0 102 -2 132 -25 43 -33 58 -32 87 8 20 26 26 46 29
107 3 69 7 80 41 127 20 28 37 56 37 62 0 26 -81 168 -112 199 -32 30 -42 34
-138 45 l-104 12 -89 123 -89 123 -127 63 c-164 83 -169 87 -177 158 -7 56 -6
57 21 64 l28 7 -22 19 c-45 36 -102 24 -251 -52z"/>
<path d="M2192 7352 c-23 -9 -45 -24 -48 -34 -3 -11 -15 -18 -29 -18 -13 0
-37 -11 -53 -25 -16 -14 -58 -38 -93 -54 -35 -16 -77 -42 -93 -60 l-29 -30 54
6 c32 3 63 13 75 24 29 27 82 24 126 -6 35 -24 45 -25 168 -25 93 0 141 -4
166 -15 20 -8 65 -18 101 -21 60 -6 66 -6 60 10 -4 10 -7 31 -7 47 0 24 -4 29
-23 29 -15 0 -45 23 -87 66 -36 36 -81 72 -100 81 -35 15 -131 44 -140 42 -3
-1 -24 -9 -48 -17z"/>
<path d="M6410 6366 c0 -1 14 -42 30 -89 23 -67 30 -104 30 -164 0 -137 9
-182 39 -198 30 -15 103 -137 122 -203 11 -38 57 -92 78 -92 17 0 49 48 59 90
11 44 11 46 -38 117 -48 68 -50 74 -50 138 0 58 -3 68 -20 72 -14 4 -20 14
-20 33 0 20 -12 37 -48 68 -42 35 -51 49 -70 114 -20 70 -23 75 -67 96 -25 12
-45 20 -45 18z"/>
<path d="M4964 6202 c-9 -5 -9 -23 -2 -65 10 -57 11 -58 97 -124 47 -37 98
-78 113 -91 l27 -24 -25 76 c-13 42 -24 84 -24 92 0 9 -28 45 -62 80 -60 63
-92 77 -124 56z"/>
<path d="M5314 5803 c3 -10 8 -30 12 -46 3 -15 19 -35 34 -44 16 -9 37 -33 48
-52 12 -20 41 -55 65 -78 24 -23 49 -54 56 -70 15 -38 66 -67 92 -53 24 13 24
18 -1 71 -11 24 -20 53 -20 65 0 44 -52 125 -112 175 -56 47 -62 49 -119 49
-53 0 -60 -2 -55 -17z"/>
<path d="M5215 5290 c-16 -26 7 -82 55 -135 27 -30 59 -73 71 -96 18 -36 19
-47 10 -83 -11 -45 3 -114 40 -191 10 -22 19 -56 19 -75 0 -25 9 -43 32 -67
l32 -33 -32 0 c-18 0 -32 -2 -32 -5 0 -20 46 -113 75 -150 19 -26 38 -57 41
-71 5 -21 51 -64 68 -64 3 0 6 15 6 33 1 47 45 91 113 111 69 20 67 20 67 -8
0 -17 15 -37 50 -66 l50 -42 0 81 c0 45 3 81 6 81 3 0 24 -13 47 -29 23 -15
57 -36 75 -45 24 -13 41 -33 60 -74 22 -50 25 -68 23 -153 l-3 -96 45 -69 c24
-38 52 -85 62 -104 10 -19 43 -67 74 -105 31 -39 64 -86 75 -105 10 -20 41
-50 69 -69 l51 -33 64 66 c63 65 64 66 57 108 -5 25 -23 64 -46 95 -22 29 -39
56 -39 61 0 5 16 22 35 36 l35 27 0 87 c0 86 0 87 -32 114 -18 14 -31 28 -28
30 3 3 39 25 81 51 74 45 76 48 83 93 3 26 4 49 1 52 -2 3 -27 0 -54 -5 -54
-11 -61 -6 -61 40 0 12 -22 49 -48 82 -26 33 -67 92 -91 131 -40 64 -47 72
-90 83 -25 6 -63 16 -83 22 -25 6 -43 20 -55 39 -14 25 -24 30 -54 30 -52 0
-146 65 -187 129 -60 92 -151 140 -265 141 -33 0 -49 9 -100 54 -60 54 -61 54
-141 61 -74 6 -165 24 -207 40 -10 3 -20 1 -24 -5z"/>
<path d="M5637 3973 c-4 -21 -7 -72 -7 -114 l0 -75 85 -101 c46 -56 88 -104
92 -106 14 -8 133 16 133 27 0 20 -69 270 -89 321 -17 45 -22 50 -52 53 -40 3
-117 18 -140 27 -13 5 -18 -2 -22 -32z"/>
<path d="M6050 3067 l0 -83 68 -22 c38 -12 72 -22 75 -22 4 0 -1 17 -11 38
-11 20 -27 61 -37 90 -14 45 -23 56 -51 68 -18 8 -36 14 -39 14 -3 0 -5 -37
-5 -83z"/>
<path d="M5202 2622 l-113 -26 7 -63 c6 -62 6 -63 -18 -63 -35 0 -53 -19 -72
-74 -21 -64 -13 -120 20 -135 19 -8 24 -18 24 -49 0 -32 -5 -41 -25 -50 -32
-15 -32 -21 8 -64 23 -25 44 -37 75 -43 l42 -7 -25 -42 c-32 -54 -32 -86 0
-140 18 -30 37 -48 64 -58 31 -13 47 -29 81 -88 23 -40 53 -97 65 -127 12 -31
43 -77 71 -106 27 -29 54 -61 61 -72 19 -31 16 -135 -5 -175 -13 -27 -17 -52
-14 -108 4 -71 4 -73 36 -86 41 -17 66 -55 66 -100 0 -22 6 -38 16 -44 14 -8
15 -15 6 -40 -9 -26 -8 -31 13 -40 13 -6 35 -33 50 -61 21 -37 35 -52 57 -56
16 -4 34 -17 39 -29 6 -13 32 -34 57 -47 27 -13 87 -66 138 -119 l92 -95 17
-80 c15 -71 22 -85 63 -127 26 -27 50 -48 55 -48 27 0 140 -66 190 -110 45
-41 60 -50 71 -41 10 8 21 8 41 1 34 -13 41 -5 50 61 10 74 -19 188 -60 236
-49 57 -65 105 -65 190 l0 75 -27 -6 c-92 -18 -103 -18 -103 -3 0 8 9 43 20
78 18 59 18 63 2 76 -23 18 -97 10 -162 -18 -41 -18 -56 -31 -75 -68 l-24 -46
-1 47 c0 40 -6 54 -33 85 -43 48 -80 103 -75 108 2 3 46 -3 97 -11 l93 -16 47
46 c39 39 53 46 85 46 31 0 45 7 72 36 19 19 34 41 34 48 0 19 -25 38 -47 36
-10 -1 -37 -2 -60 -1 -39 1 -44 5 -67 43 -13 24 -27 54 -31 67 -7 23 -7 23 64
19 45 -2 71 0 71 7 0 5 -9 28 -18 50 -14 30 -16 46 -9 66 9 23 5 34 -34 90
-42 61 -48 64 -150 108 -94 41 -116 56 -196 131 -50 47 -96 95 -102 107 -11
21 -8 21 63 -10 66 -28 80 -39 120 -94 48 -66 63 -73 106 -48 14 8 43 15 65
15 50 0 55 4 83 63 l23 49 -42 36 c-37 34 -41 42 -43 89 -1 32 -7 58 -16 67
-27 25 -154 56 -232 56 -40 0 -78 4 -83 8 -24 17 -65 83 -65 104 -1 13 -20 44
-45 71 l-43 47 -101 0 c-104 0 -179 -11 -244 -36 -47 -18 -57 -18 -57 0 0 8
21 21 48 30 34 12 53 25 66 48 31 51 84 104 139 139 29 18 54 34 56 36 2 1 -2
10 -10 19 -11 13 -26 15 -91 9 -74 -7 -78 -6 -78 13 0 13 16 33 43 52 24 17
51 44 60 59 l17 29 -72 51 c-39 28 -79 50 -87 50 -9 -1 -67 -13 -129 -27z"/>
<path d="M6267 2503 c-3 -5 -8 -29 -12 -55 l-7 -48 66 0 c66 0 66 0 66 28 0
36 -46 82 -82 82 -15 0 -29 -3 -31 -7z"/>
</g>
</svg>
