<?xml version="1.0" standalone="no"?>
<!DOCTYPE svg PUBLIC "-//W3C//DTD SVG 20010904//EN"
 "http://www.w3.org/TR/2001/REC-SVG-20010904/DTD/svg10.dtd">
<svg version="1.0" xmlns="http://www.w3.org/2000/svg"
 width="1024.000000pt" height="1024.000000pt" viewBox="0 0 1024.000000 1024.000000"
 preserveAspectRatio="xMidYMid meet">
<metadata>
Created by potrace 1.10, written by Peter Selinger 2001-2011
</metadata>
<g transform="translate(0.000000,1024.000000) scale(0.100000,-0.100000)"
fill="#000000" stroke="none">
<path d="M1566 10219 c-79 -17 -94 -24 -135 -62 -35 -33 -58 -46 -91 -51 -24
-4 -52 -14 -62 -23 -14 -13 -28 -14 -70 -8 -29 5 -82 8 -117 7 -53 -2 -67 -6
-86 -27 -29 -30 -63 -39 -121 -31 -31 4 -44 2 -44 -7 0 -6 -5 -29 -10 -49 -10
-35 -15 -38 -80 -59 -62 -20 -70 -26 -76 -53 -3 -17 -17 -45 -30 -63 -13 -17
-24 -43 -24 -57 0 -19 -6 -26 -28 -31 -15 -3 -40 -21 -55 -40 -20 -25 -42 -38
-86 -50 l-58 -17 -6 -56 c-5 -44 -12 -62 -31 -78 -13 -12 -30 -41 -36 -65 -7
-24 -21 -61 -31 -82 -17 -33 -19 -45 -9 -94 5 -31 10 -112 10 -179 0 -123 0
-124 -36 -188 -40 -73 -39 -99 4 -114 15 -6 73 -36 129 -69 l102 -59 110 -167
c61 -92 115 -167 120 -167 17 0 33 -78 26 -125 -4 -25 -2 -58 5 -79 10 -32 15
-36 46 -36 27 0 36 -5 43 -23 6 -14 26 -28 57 -40 46 -16 52 -23 97 -102 42
-74 55 -89 98 -110 27 -14 68 -47 91 -73 149 -165 165 -177 307 -237 74 -31
173 -72 220 -90 47 -18 100 -40 116 -49 17 -9 36 -16 44 -16 15 0 95 -43 226
-120 44 -26 103 -55 130 -64 50 -16 50 -17 93 -109 26 -56 42 -106 42 -129 0
-28 8 -46 33 -74 17 -20 48 -68 67 -108 l35 -71 72 -22 c40 -12 91 -36 114
-53 25 -18 55 -30 73 -30 46 0 108 -39 119 -75 5 -16 19 -40 30 -52 18 -21 22
-21 48 -8 47 25 85 19 129 -21 l39 -36 89 7 89 7 41 -36 c40 -36 41 -37 71
-22 39 21 196 21 271 1 30 -8 75 -15 100 -15 43 0 46 -2 55 -32 8 -24 17 -34
40 -39 17 -4 44 -13 62 -20 29 -12 35 -11 55 8 28 25 82 21 115 -10 22 -19 24
-19 66 -3 38 14 47 24 61 60 16 41 21 45 64 54 85 19 387 23 492 7 52 -8 98
-15 103 -15 4 0 7 -26 7 -57 l0 -58 93 -97 c61 -63 104 -100 127 -108 38 -12
295 -40 375 -40 67 0 117 -33 133 -88 14 -47 34 -66 62 -59 14 4 26 -3 41 -24
15 -21 29 -29 50 -29 32 0 170 -67 317 -153 76 -44 100 -64 129 -108 20 -30
67 -88 105 -130 59 -67 68 -82 68 -116 0 -52 26 -152 49 -183 9 -14 23 -40 29
-58 15 -43 -4 -83 -53 -115 -27 -17 -35 -29 -35 -53 0 -35 30 -80 60 -89 29
-9 29 -114 0 -140 -16 -14 -20 -31 -20 -75 l0 -58 -40 -16 c-22 -9 -46 -16
-53 -16 -6 0 -35 -11 -63 -24 l-52 -24 21 -74 21 -73 58 -27 c57 -26 58 -28
58 -67 0 -29 5 -43 19 -50 15 -8 17 -19 14 -63 -2 -29 -9 -69 -14 -89 -10 -31
-7 -44 18 -104 29 -68 31 -70 72 -77 40 -7 47 -4 98 33 54 40 55 42 47 77 -4
21 -8 88 -9 149 0 87 3 117 15 131 21 27 134 85 156 80 10 -2 41 -36 69 -75
45 -65 54 -73 83 -73 31 0 32 2 32 38 0 30 7 45 34 71 19 19 41 31 52 29 14
-2 20 4 22 25 4 35 49 57 117 57 l45 0 0 -44 c0 -35 5 -47 24 -60 23 -15 28
-14 73 5 55 23 63 33 63 76 0 25 -9 40 -45 71 -41 36 -45 44 -45 85 l0 45 48
6 c97 14 98 14 111 57 9 29 21 44 44 55 30 14 32 18 29 62 -2 26 -9 52 -16 57
-7 6 -23 38 -37 72 -15 40 -31 65 -46 72 -16 8 -23 19 -23 40 0 42 -19 56
-100 76 -71 17 -72 19 -123 86 -37 50 -58 69 -74 69 -14 0 -23 -6 -23 -15 0
-9 -9 -41 -20 -72 -11 -32 -20 -67 -20 -79 0 -36 -29 -53 -82 -47 -41 5 -48 9
-59 36 -8 18 -12 44 -10 59 1 15 -3 37 -10 50 -25 48 -94 121 -128 135 -40 17
-68 47 -76 84 -6 27 -40 49 -77 49 -11 0 -47 9 -79 21 -54 20 -57 22 -47 44 8
19 6 30 -11 58 -11 19 -21 44 -21 55 0 24 -69 82 -98 82 -35 0 -52 11 -52 34
0 35 -48 73 -102 81 -31 5 -48 12 -48 21 0 10 -13 14 -40 14 -33 0 -42 4 -52
25 -7 15 -23 27 -42 31 -56 12 -86 34 -110 82 -13 26 -27 69 -31 95 -6 37 -13
50 -39 66 l-31 20 -26 -25 c-23 -22 -29 -23 -57 -13 -54 19 -65 54 -67 220 -2
139 -3 148 -27 180 -25 33 -25 35 -12 99 8 36 12 70 10 76 -2 5 -31 18 -64 29
-40 12 -72 29 -93 51 l-33 34 -6 140 -6 141 -106 107 c-111 113 -141 157 -183
267 -14 37 -34 83 -45 100 -11 18 -20 44 -20 58 0 39 -17 75 -39 82 -11 3 -22
18 -26 34 -3 15 -30 51 -60 81 -34 33 -55 64 -59 84 -5 24 -25 48 -82 95 -60
51 -193 198 -282 312 -9 12 -10 24 -3 42 9 24 6 28 -39 57 -33 21 -51 40 -55
59 -3 16 -17 39 -31 51 -15 15 -24 35 -24 54 -1 46 -23 77 -66 95 -65 27 -142
92 -153 130 -16 53 -58 91 -101 91 -32 0 -39 5 -58 39 -12 21 -22 55 -22 75 0
39 -17 51 -87 63 -21 4 -42 17 -58 39 -22 29 -32 34 -66 34 -22 0 -67 12 -102
29 -48 21 -66 36 -81 65 -11 21 -27 36 -37 36 -32 0 -148 48 -192 80 -54 39
-407 412 -455 482 -46 65 -104 98 -177 98 -33 0 -60 7 -80 20 -17 11 -47 20
-68 20 -23 0 -64 13 -105 34 -52 26 -71 42 -84 70 -15 31 -23 36 -51 36 -18 0
-42 -7 -53 -15 -10 -8 -26 -15 -33 -15 -8 0 -27 -12 -42 -26 l-28 -27 -43 18
c-55 22 -68 33 -68 59 -1 40 -37 103 -73 125 -19 12 -38 32 -41 45 -11 46 -63
66 -165 66 -54 0 -91 4 -91 10 0 14 -41 11 -144 -11z"/>
<path d="M8478 3570 c-37 -22 -211 -60 -321 -70 -113 -10 -121 -9 -153 10 -39
25 -66 20 -82 -15 -6 -13 -30 -34 -53 -46 -40 -20 -42 -22 -22 -33 l21 -11
-23 -57 c-20 -50 -44 -80 -99 -126 -9 -7 -16 -22 -16 -32 0 -11 -18 -39 -40
-61 -22 -23 -42 -51 -44 -63 -2 -11 -9 -48 -15 -82 -6 -33 -11 -69 -11 -81 0
-14 -12 -26 -40 -38 -36 -16 -40 -22 -40 -55 0 -21 -6 -43 -14 -50 -8 -6 -42
-52 -76 -101 -77 -112 -109 -206 -140 -404 -22 -147 -22 -152 -5 -225 10 -41
23 -131 30 -200 l13 -125 -34 -36 -35 -36 2 -165 c1 -136 -1 -170 -15 -196
-10 -19 -24 -32 -35 -32 -15 0 -19 -10 -23 -57 l-5 -57 62 -61 c53 -53 63 -68
67 -106 6 -54 53 -152 113 -237 45 -63 45 -64 45 -148 l0 -84 35 -14 c23 -10
39 -26 49 -49 9 -23 24 -38 45 -45 24 -8 31 -17 31 -36 0 -21 12 -31 75 -63
41 -20 75 -43 75 -50 0 -7 9 -22 20 -33 11 -11 20 -33 20 -50 0 -26 5 -30 42
-41 24 -6 60 -20 80 -30 20 -10 47 -19 59 -19 13 0 32 -8 43 -18 12 -10 35
-24 53 -31 29 -12 38 -10 102 19 38 18 72 39 75 47 5 12 12 11 41 -7 32 -20
40 -21 84 -10 46 11 49 14 61 56 11 37 19 48 49 60 20 8 46 13 58 11 13 -2 33
6 50 19 22 19 40 23 90 24 58 0 66 3 102 36 l40 35 89 -2 c86 -2 93 0 146 32
150 90 183 96 288 54 34 -14 65 -25 70 -25 19 0 85 51 101 79 9 16 47 47 84
69 94 56 126 100 135 182 10 100 23 167 35 182 6 7 14 36 17 63 12 83 16 91
52 108 30 15 34 21 34 55 0 26 7 45 20 57 16 15 20 31 20 90 0 47 -5 78 -15
91 -16 21 -20 64 -6 64 25 0 41 34 41 87 0 44 4 58 22 72 l22 18 -27 45 c-14
25 -40 90 -58 144 -29 91 -30 102 -19 144 27 101 25 154 -13 248 -48 120 -61
189 -48 253 6 27 11 72 11 98 0 40 -3 50 -20 54 -16 4 -20 14 -20 50 0 25 4
57 9 70 8 21 5 29 -21 53 -16 16 -39 46 -50 67 -12 25 -31 44 -53 53 -35 14
-92 85 -111 139 -7 19 -19 31 -32 33 -28 4 -44 34 -36 67 8 32 -8 52 -61 76
-22 10 -48 24 -57 31 -14 10 -23 9 -50 -3 -30 -14 -37 -14 -68 -1 -19 9 -60
18 -90 21 -54 6 -55 7 -112 81 -32 41 -60 87 -63 102 -4 15 -22 47 -41 72 -26
34 -43 47 -72 52 -20 4 -51 18 -69 31 -27 21 -35 23 -53 13 -36 -19 -238 -22
-263 -5 -25 17 -36 18 -59 5z"/>
</g>
</svg>
