<?xml version="1.0" standalone="no"?>
<!DOCTYPE svg PUBLIC "-//W3C//DTD SVG 20010904//EN"
 "http://www.w3.org/TR/2001/REC-SVG-20010904/DTD/svg10.dtd">
<svg version="1.0" xmlns="http://www.w3.org/2000/svg"
 width="1024.000000pt" height="1024.000000pt" viewBox="0 0 1024.000000 1024.000000"
 preserveAspectRatio="xMidYMid meet">
<metadata>
Created by potrace 1.10, written by Peter Selinger 2001-2011
</metadata>
<g transform="translate(0.000000,1024.000000) scale(0.100000,-0.100000)"
fill="#000000" stroke="none">
<path d="M3720 9257 c-58 -35 -149 -87 -203 -116 l-98 -53 -57 19 c-55 19 -60
19 -134 3 -42 -10 -83 -20 -92 -23 -8 -3 -36 -44 -62 -91 -26 -47 -53 -86 -58
-86 -6 0 -84 -9 -174 -19 l-163 -19 -95 29 c-52 15 -98 30 -102 33 -4 2 -47
54 -97 115 -70 85 -96 110 -115 110 -14 1 -104 -11 -201 -26 l-176 -26 -28
-95 c-23 -81 -26 -106 -21 -171 l7 -76 -115 -120 -115 -120 -1 -102 0 -101 38
-9 37 -9 6 -79 c5 -70 12 -94 58 -189 39 -80 58 -134 72 -208 10 -54 19 -106
19 -116 0 -10 -33 -39 -85 -72 l-85 -55 0 -60 0 -60 -98 -28 c-68 -20 -126
-47 -194 -88 l-98 -58 -67 28 c-49 21 -97 32 -172 40 -58 5 -108 8 -111 6 -4
-2 -10 -39 -14 -82 -3 -43 -11 -128 -17 -190 -13 -126 -2 -114 -116 -128 l-52
-7 -67 -104 -66 -105 -52 3 -51 3 -8 -76 -9 -75 60 -120 c41 -82 81 -143 127
-196 l66 -76 72 -7 c130 -11 123 -7 152 -96 15 -43 25 -83 23 -89 -2 -5 -63
-60 -136 -123 -123 -105 -144 -119 -270 -176 -75 -35 -142 -68 -149 -74 -6 -7
-61 -134 -122 -283 -61 -149 -133 -320 -161 -379 -28 -60 -49 -114 -47 -119 3
-6 16 -18 30 -25 25 -13 30 -11 121 63 l95 76 77 0 c71 0 94 6 258 67 100 36
186 66 191 66 8 0 261 -163 293 -188 1 -1 -2 -32 -8 -68 -10 -63 -9 -68 34
-188 24 -68 47 -132 51 -141 5 -12 23 -20 55 -24 26 -3 53 -9 59 -13 10 -6
249 -509 254 -534 1 -5 -50 -50 -113 -99 -63 -49 -163 -132 -222 -184 -104
-92 -108 -97 -114 -145 -4 -27 -12 -55 -18 -63 -6 -8 -80 -46 -164 -85 l-153
-71 -197 -1 c-108 0 -242 -6 -297 -12 l-100 -12 -57 -85 c-53 -78 -63 -87
-112 -105 -30 -11 -57 -23 -60 -26 -5 -5 3 -34 29 -107 3 -9 21 -6 71 13 36
14 72 25 80 25 7 0 21 -25 31 -56 l17 -56 86 6 c47 3 130 8 185 11 l100 6 145
-145 145 -146 -38 -73 -38 -72 29 -134 30 -134 49 -42 c26 -23 61 -53 78 -67
l29 -26 -78 -87 -79 -86 32 -107 c18 -58 57 -154 87 -213 l54 -108 -67 25
c-37 14 -72 28 -77 32 -20 12 36 -56 121 -146 l88 -93 195 -29 c184 -28 209
-35 456 -120 l262 -90 216 0 217 0 225 -66 226 -66 161 58 162 57 285 18 c157
10 308 18 336 18 l51 1 7 48 c3 26 9 106 13 179 l6 132 86 29 c47 16 86 33 86
38 0 5 -4 82 -9 171 -8 160 -8 163 19 243 21 62 31 81 48 85 30 7 168 35 171
35 2 0 43 -52 90 -115 77 -103 93 -118 142 -140 87 -38 82 -41 128 68 32 76
63 126 136 221 l94 123 136 77 135 78 91 -47 90 -48 170 17 c208 20 230 20
376 -1 l118 -16 57 50 c32 27 63 52 70 56 6 4 37 -5 68 -20 l56 -28 91 49 90
48 49 -48 49 -48 86 28 86 28 31 69 c25 59 37 74 78 99 55 33 55 23 1 140
l-29 66 19 48 c10 26 34 121 53 210 49 235 58 270 66 280 4 4 172 26 374 47
l366 39 154 -116 155 -116 37 33 c21 18 110 101 198 185 88 83 208 191 267
239 86 70 110 94 118 124 5 20 10 112 10 205 l0 169 -45 55 c-25 30 -45 57
-45 61 0 4 25 15 55 25 l55 17 69 137 c65 130 69 144 86 261 18 119 18 126 0
196 l-18 73 38 94 38 93 -18 131 -18 131 68 125 c62 117 74 133 169 220 178
166 163 157 309 199 l132 38 117 -10 118 -11 107 58 c131 70 386 267 379 293
-14 49 -89 287 -92 292 -2 3 -108 -12 -235 -33 l-232 -39 -171 57 c-123 41
-214 79 -326 137 -141 74 -164 82 -260 99 -58 10 -135 18 -172 18 -58 0 -75 4
-118 31 -40 25 -49 35 -45 52 3 12 16 91 30 175 l25 153 60 80 c40 53 60 90
60 109 0 21 11 36 47 64 26 20 73 67 105 105 l59 70 -30 58 c-16 32 -32 84
-36 116 -4 31 -11 57 -15 57 -4 0 -29 -19 -56 -42 -27 -23 -56 -48 -65 -55
-14 -12 -39 -11 -165 6 -81 12 -183 21 -225 21 -64 0 -96 6 -181 37 -94 34
-111 44 -196 118 -122 108 -175 130 -380 156 l-154 20 -102 -61 -102 -60 -105
-1 c-57 0 -126 -4 -153 -8 -62 -10 -134 5 -198 43 -44 26 -47 30 -54 82 -4 35
-12 58 -23 63 -23 13 -375 91 -475 105 l-81 12 -99 -49 -99 -49 -77 11 c-52 7
-89 7 -111 0 -46 -13 -159 -2 -247 26 -85 27 -121 22 -186 -26 -33 -24 -50
-29 -98 -29 l-58 0 -66 133 c-37 72 -71 135 -77 138 -5 4 -28 10 -51 13 -41 7
-346 73 -378 82 -16 5 -18 19 -18 103 l0 98 -45 17 c-24 10 -46 25 -49 34 -2
9 -8 58 -11 109 l-7 92 -71 3 -71 3 -63 89 c-34 48 -64 91 -67 93 -3 3 -40 -7
-84 -22 l-78 -28 -115 86 c-64 48 -118 87 -120 87 -2 0 -51 -28 -109 -63z"/>
</g>
</svg>
