<?xml version="1.0" standalone="no"?>
<!DOCTYPE svg PUBLIC "-//W3C//DTD SVG 20010904//EN"
 "http://www.w3.org/TR/2001/REC-SVG-20010904/DTD/svg10.dtd">
<svg version="1.0" xmlns="http://www.w3.org/2000/svg"
 width="1024.000000pt" height="1024.000000pt" viewBox="0 0 1024.000000 1024.000000"
 preserveAspectRatio="xMidYMid meet">
<metadata>
Created by potrace 1.10, written by Peter Selinger 2001-2011
</metadata>
<g transform="translate(0.000000,1024.000000) scale(0.100000,-0.100000)"
fill="#000000" stroke="none">
<path d="M6813 10212 c-9 -15 -31 -39 -49 -52 -38 -28 -42 -40 -15 -40 29 0
47 -28 33 -51 -7 -10 -12 -28 -12 -39 0 -13 -7 -20 -20 -20 -11 0 -23 -7 -26
-15 -4 -8 -16 -15 -28 -15 -28 0 -62 -37 -64 -68 0 -13 -8 -35 -17 -49 l-17
-25 -27 26 c-33 32 -82 43 -99 23 -10 -12 -9 -16 3 -21 8 -3 15 -10 15 -17 0
-18 52 -74 66 -71 9 2 11 -8 7 -36 -3 -24 -1 -42 6 -46 6 -4 11 -19 11 -34 0
-15 7 -37 15 -49 21 -30 11 -91 -32 -181 -26 -54 -35 -87 -36 -130 0 -32 -7
-63 -14 -70 -7 -7 -13 -23 -13 -36 0 -36 -21 -54 -84 -70 -77 -20 -97 -10
-118 57 l-16 52 -1 -48 c0 -26 6 -64 14 -84 20 -46 19 -56 -2 -45 -10 6 -24 6
-35 1 -10 -5 -27 -14 -38 -19 -14 -7 -20 -7 -20 1 0 6 -5 9 -11 7 -7 -2 -13
-39 -16 -88 -3 -76 -7 -88 -30 -108 -23 -21 -27 -22 -42 -8 -10 9 -25 42 -35
73 -10 32 -30 70 -45 84 -14 14 -31 34 -38 45 -12 18 -13 18 -26 2 -17 -22
-27 -23 -27 -3 0 8 -4 15 -10 15 -5 0 -10 -7 -10 -15 0 -9 -12 -27 -26 -40
-21 -20 -25 -31 -21 -57 2 -19 -2 -45 -10 -61 -12 -25 -12 -35 1 -81 16 -53
29 -66 67 -66 26 0 24 -16 -5 -36 -30 -19 -25 -38 14 -54 35 -15 43 -43 24
-89 -8 -19 -12 -41 -9 -49 3 -7 -2 -23 -10 -35 -15 -21 -15 -20 -15 13 1 19 7
46 15 60 21 37 18 47 -17 59 -38 14 -47 7 -24 -18 12 -13 15 -27 10 -46 -6
-25 -10 -26 -48 -23 -22 3 -47 6 -55 9 -9 2 -18 -8 -25 -31 -6 -19 -22 -51
-34 -70 -16 -25 -20 -42 -15 -60 3 -14 7 -38 8 -55 4 -59 3 -58 36 -51 19 3
38 1 46 -5 10 -9 20 -9 39 1 23 13 27 11 53 -16 30 -30 49 -74 33 -74 -5 0
-14 11 -20 25 -14 30 -32 33 -32 5 0 -11 -4 -20 -10 -20 -5 0 -10 6 -10 13 0
10 -68 57 -83 57 -8 0 -84 -105 -112 -155 -15 -27 -34 -59 -41 -70 -8 -11 -14
-32 -14 -47 0 -18 -6 -29 -20 -33 -11 -3 -20 -15 -20 -25 0 -11 -13 -26 -30
-35 l-30 -16 0 53 c0 40 7 65 28 101 25 41 28 54 22 97 -10 75 -21 80 -72 35
-78 -70 -98 -125 -41 -110 18 4 24 2 21 -7 -3 -7 -20 -17 -39 -22 -28 -7 -38
-17 -54 -54 -12 -26 -40 -62 -69 -86 -26 -22 -52 -51 -57 -64 -10 -25 7 -72
27 -72 7 0 22 -21 34 -46 12 -25 31 -51 41 -57 28 -17 23 -27 -14 -27 -18 0
-50 -9 -72 -20 -22 -11 -47 -20 -57 -20 -11 0 -18 -7 -18 -20 0 -11 -4 -20 -9
-20 -14 0 6 71 28 99 12 14 27 38 35 52 15 25 14 27 -19 45 -24 13 -35 26 -35
41 0 31 -15 36 -49 18 -35 -17 -136 -99 -201 -161 -25 -24 -66 -52 -91 -62
-66 -29 -109 -84 -109 -142 0 -25 -7 -56 -16 -68 -18 -26 -11 -42 17 -42 12 0
29 -10 40 -22 20 -25 26 -49 7 -30 -18 18 -38 15 -38 -6 0 -24 -37 -26 -45 -2
-3 10 -17 34 -30 53 -17 26 -20 37 -11 40 8 3 11 17 8 35 -3 26 -9 31 -42 37
-41 7 -69 -3 -107 -38 -26 -23 -32 -60 -8 -51 9 4 15 0 15 -8 0 -26 -57 -10
-64 17 -8 31 -38 40 -74 21 -29 -15 -107 -12 -118 5 -8 14 -24 11 -24 -4 0 -8
-9 -22 -19 -31 -14 -13 -18 -26 -14 -55 3 -23 1 -41 -6 -45 -6 -4 -8 -18 -5
-32 5 -18 2 -24 -10 -24 -11 0 -16 9 -16 31 l0 31 -47 -6 c-92 -13 -103 -17
-103 -37 0 -10 5 -19 10 -19 23 0 7 -19 -30 -38 -43 -21 -54 -19 -40 8 12 23
1 90 -17 97 -27 11 -93 -29 -127 -78 -19 -26 -48 -55 -65 -65 -17 -10 -31 -22
-31 -26 0 -4 -8 -8 -17 -8 -9 0 -25 -7 -35 -16 -12 -12 -21 -14 -30 -7 -7 6
-58 13 -113 17 -55 3 -113 7 -129 9 -27 2 -30 -1 -47 -62 l-18 -64 29 -34 c36
-40 37 -53 9 -103 -18 -32 -20 -44 -12 -82 10 -44 9 -46 -23 -72 -19 -15 -34
-35 -34 -46 0 -10 -5 -22 -10 -25 -6 -4 -17 -23 -25 -42 -9 -20 -25 -46 -36
-57 -32 -32 -89 -126 -89 -147 0 -10 -9 -23 -20 -29 -11 -6 -20 -15 -20 -21 0
-6 -18 -40 -40 -77 -23 -37 -48 -91 -56 -121 -15 -49 -15 -56 2 -92 9 -22 28
-54 41 -71 27 -38 29 -63 6 -135 -16 -52 -16 -56 7 -151 14 -55 23 -123 22
-157 -1 -77 21 -145 58 -179 17 -14 30 -32 30 -39 0 -7 16 -50 35 -95 27 -64
32 -88 25 -106 -5 -13 -14 -51 -20 -85 -10 -58 -10 -63 17 -108 15 -27 37 -62
50 -79 13 -17 23 -34 23 -39 0 -4 20 -38 45 -75 53 -82 56 -113 21 -195 -35
-82 -43 -125 -24 -139 19 -15 58 -80 58 -98 0 -9 -6 -21 -14 -27 -8 -7 -17
-23 -20 -37 -4 -14 -21 -40 -39 -58 -18 -17 -54 -76 -80 -129 -26 -53 -52 -97
-57 -97 -5 0 -25 -21 -45 -46 -25 -33 -35 -57 -35 -82 0 -40 -44 -122 -65
-122 -34 0 -96 -102 -106 -175 -13 -96 -29 -160 -48 -185 -15 -21 -28 -26 -87
-30 -40 -4 -85 -14 -106 -25 -31 -17 -39 -27 -48 -68 -13 -63 -13 -92 4 -155
12 -47 12 -52 -4 -52 -9 0 -31 -21 -49 -47 -28 -40 -32 -53 -28 -90 2 -24 1
-43 -4 -43 -5 0 -9 7 -9 16 0 14 -3 14 -15 4 -8 -7 -15 -22 -15 -33 0 -11 -7
-28 -15 -37 -35 -39 -28 -160 9 -160 8 0 16 -7 20 -15 4 -11 -2 -15 -23 -15
-26 0 -29 -4 -34 -37 -2 -21 0 -43 4 -49 14 -17 39 -106 39 -139 1 -16 11 -74
24 -128 24 -106 45 -141 152 -255 46 -49 52 -61 57 -110 3 -30 3 -67 1 -82 -5
-22 3 -35 49 -79 50 -48 55 -56 46 -78 -6 -17 -6 -30 1 -38 13 -16 2 -25 -31
-25 -41 0 -44 -27 -29 -216 7 -89 9 -167 6 -173 -4 -6 -4 -55 0 -108 l7 -97
104 -108 c90 -93 103 -110 93 -127 -17 -32 -12 -54 25 -111 19 -30 37 -70 41
-88 3 -18 11 -36 18 -40 6 -4 16 -16 22 -27 7 -12 24 -21 45 -23 18 -2 50 -17
70 -33 20 -16 41 -29 46 -29 5 0 13 -19 19 -42 l9 -43 95 -7 c52 -4 139 -19
192 -34 89 -25 98 -30 115 -62 14 -27 34 -42 91 -68 57 -26 72 -38 72 -55 0
-18 4 -20 28 -15 15 3 77 9 137 12 120 7 162 22 225 78 55 49 287 168 345 177
28 4 95 20 151 35 99 27 102 27 153 10 50 -16 52 -16 94 5 23 12 63 39 89 60
42 35 50 38 68 27 19 -12 24 -10 46 15 14 16 37 32 52 36 19 6 27 14 26 29 0
12 5 22 13 22 8 0 13 12 13 29 0 16 11 42 23 58 14 16 27 48 30 76 4 26 16 65
26 86 11 21 30 79 42 127 12 49 26 94 30 99 25 33 84 165 75 168 -6 2 -2 13
10 23 32 30 82 152 93 229 18 125 27 159 72 260 32 74 44 114 45 155 1 31 9
71 19 90 21 41 45 150 69 315 10 66 22 127 26 136 14 27 60 165 60 179 0 7 27
70 61 139 33 69 68 153 76 186 8 33 19 68 25 78 5 9 18 52 28 93 11 42 29 91
40 109 11 18 24 59 29 91 5 32 19 92 31 133 18 60 20 75 8 83 -10 7 -10 10 4
19 19 11 47 95 104 319 23 89 52 175 76 223 38 77 96 222 103 262 2 11 12 63
20 115 11 59 29 121 50 165 19 39 38 89 44 110 30 127 53 198 80 255 44 93 78
182 113 289 16 52 40 111 52 130 13 21 27 69 34 116 8 51 19 86 32 100 12 13
16 25 10 35 -13 23 5 136 36 225 26 76 27 83 14 145 -7 36 -13 77 -13 93 0 16
-5 27 -13 27 -9 0 -14 11 -14 29 0 17 -4 33 -10 36 -19 12 -10 55 25 125 19
38 35 78 35 88 0 11 13 48 29 84 34 73 54 87 144 95 67 7 73 21 22 53 -40 25
-47 63 -15 80 11 6 20 17 20 24 0 7 11 29 23 48 24 35 45 138 29 138 -19 0
-23 78 -6 120 19 46 12 61 -40 87 -17 8 -39 25 -48 37 -22 27 -23 104 -2 134
8 12 11 22 6 22 -6 0 -13 11 -16 24 -3 13 -16 46 -28 73 -11 26 -22 62 -23 78
-1 17 -5 37 -8 45 -5 9 4 34 22 62 28 44 31 46 91 53 34 4 64 4 68 1 3 -4 5
-32 4 -62 -2 -50 0 -55 22 -64 22 -8 24 -14 19 -44 -4 -29 -1 -39 21 -59 19
-17 26 -34 26 -60 0 -28 7 -40 31 -59 17 -13 40 -32 52 -43 31 -29 66 -21 83
20 7 19 18 36 23 40 12 7 41 64 41 81 0 7 20 55 46 106 52 109 78 212 68 278
-7 54 -43 126 -78 159 -14 14 -26 32 -26 41 0 9 -9 34 -21 55 -35 67 -60 141
-53 158 3 9 -4 33 -17 54 -24 38 -28 85 -19 215 2 29 -2 53 -10 63 -8 9 -14
49 -16 98 -5 147 -20 292 -32 314 -7 12 -12 31 -12 43 0 11 -6 31 -14 43 -8
12 -19 55 -26 96 -8 47 -19 80 -32 93 -11 11 -17 22 -15 25 3 3 -4 26 -15 51
-15 35 -18 60 -14 95 4 37 0 58 -16 93 -12 24 -28 44 -34 44 -7 0 -12 8 -12
18 1 18 -66 122 -86 134 -8 5 -17 -2 -24 -17 -17 -37 -37 -31 -38 10 0 24 -9
44 -26 63 -27 28 -52 112 -29 98 14 -9 15 37 2 62 -6 9 -12 29 -16 45 -5 24
-10 27 -43 27 -37 0 -39 2 -53 47 -15 50 -49 74 -49 34 0 -25 -20 -38 -31 -20
-6 11 -11 11 -21 1 -14 -14 -48 -16 -48 -2 0 6 9 10 19 10 27 0 37 21 18 35
-18 13 -23 45 -8 45 5 0 14 -7 21 -15 10 -12 15 -13 21 -3 6 9 13 8 30 -7 l22
-20 -8 30 c-5 17 -8 42 -7 57 1 15 -5 29 -13 32 -8 3 -15 15 -15 26 0 21 -33
60 -50 60 -6 0 -18 -13 -27 -28z m-18 -63 c11 -17 -1 -21 -15 -4 -8 9 -8 15
-2 15 6 0 14 -5 17 -11z m-3440 -9849 c18 -19 17 -20 -2 -20 -12 0 -23 8 -26
20 -3 11 -2 20 2 20 5 0 16 -9 26 -20z"/>
<path d="M6130 9274 c0 -23 -3 -26 -30 -22 -29 4 -30 3 -30 -34 0 -51 27 -78
80 -78 l41 0 -5 38 c-16 115 -18 122 -37 122 -14 0 -19 -7 -19 -26z"/>
<path d="M6170 9100 c0 -5 10 -14 22 -21 18 -10 20 -9 15 6 -4 9 -7 19 -7 21
0 2 -7 4 -15 4 -8 0 -15 -4 -15 -10z"/>
<path d="M7351 6615 c-12 -31 -21 -59 -21 -64 0 -4 -11 -18 -25 -31 -14 -13
-25 -35 -25 -50 0 -14 -4 -30 -9 -35 -18 -18 -41 -84 -32 -90 18 -10 151 253
151 299 0 37 -20 22 -39 -29z"/>
</g>
</svg>
