<?xml version="1.0" standalone="no"?>
<!DOCTYPE svg PUBLIC "-//W3C//DTD SVG 20010904//EN"
 "http://www.w3.org/TR/2001/REC-SVG-20010904/DTD/svg10.dtd">
<svg version="1.0" xmlns="http://www.w3.org/2000/svg"
 width="1024.000000pt" height="1024.000000pt" viewBox="0 0 1024.000000 1024.000000"
 preserveAspectRatio="xMidYMid meet">
<metadata>
Created by potrace 1.10, written by Peter Selinger 2001-2011
</metadata>
<g transform="translate(0.000000,1024.000000) scale(0.100000,-0.100000)"
fill="#000000" stroke="none">
<path d="M16 8003 c-3 -120 -8 -1512 -12 -3094 l-6 -2877 2274 -7 c2478 -8
7943 -4 7952 6 4 4 1 39 -5 79 -11 63 -10 82 6 145 l18 73 -28 104 c-21 80
-28 132 -32 235 l-4 131 -33 26 c-19 14 -37 38 -41 53 -3 15 -21 48 -39 73
-44 61 -71 137 -86 240 -6 46 -25 120 -41 164 -30 82 -36 130 -19 141 14 9 13
181 -2 221 -10 27 -7 47 20 140 37 125 39 142 17 124 -8 -6 -19 -9 -24 -6 -16
10 -52 117 -46 137 4 11 2 19 -5 19 -20 0 -23 30 -5 50 15 16 16 24 6 48 -7
16 -11 50 -11 78 1 27 -3 90 -8 139 -5 50 -6 94 -2 98 4 5 3 24 -3 42 -7 23
-7 54 0 95 8 50 7 64 -6 83 -16 22 -22 109 -24 327 -1 41 -5 78 -11 82 -6 4
-5 17 2 35 12 29 12 50 -2 71 -4 7 -5 25 -1 40 3 17 0 35 -9 47 -9 11 -16 41
-16 67 0 34 -6 54 -24 75 -14 17 -29 53 -35 87 -10 53 -25 87 -72 165 -11 18
-11 25 -2 28 10 4 9 8 -2 19 -8 8 -19 33 -25 54 -6 22 -15 42 -20 45 -6 3 -10
26 -10 51 0 30 -8 60 -24 87 -19 32 -26 64 -31 134 -6 71 -12 96 -26 109 -10
9 -26 42 -35 73 -9 31 -23 69 -32 85 -13 23 -14 30 -4 33 10 4 9 8 -4 18 -16
11 -16 15 -1 61 14 44 14 49 -1 60 -16 11 -15 15 6 43 19 26 21 34 10 52 -10
17 -10 23 -1 26 16 6 17 33 2 33 -5 0 -7 6 -3 12 14 23 8 60 -19 116 -8 16 -8
25 1 34 8 8 7 15 -6 25 -16 12 -16 14 0 27 20 15 24 36 6 36 -6 0 -1 11 12 25
21 22 21 25 6 25 -14 0 -17 6 -13 23 3 12 0 30 -8 41 -12 16 -12 22 0 39 11
16 12 24 3 35 -10 11 -8 16 6 24 17 9 16 12 -9 38 -15 16 -24 33 -21 38 4 6 1
14 -5 17 -7 5 -3 15 10 29 12 12 22 35 23 52 1 16 7 36 14 44 19 23 44 86 44
111 0 13 -6 30 -13 38 -8 9 -31 68 -52 131 -21 63 -42 123 -47 133 -5 10 -4
25 2 37 8 15 2 44 -25 128 -19 60 -35 128 -35 150 l0 42 -4654 0 -4655 0 -5
-217z"/>
</g>
</svg>
