<?xml version="1.0" standalone="no"?>
<!DOCTYPE svg PUBLIC "-//W3C//DTD SVG 20010904//EN"
 "http://www.w3.org/TR/2001/REC-SVG-20010904/DTD/svg10.dtd">
<svg version="1.0" xmlns="http://www.w3.org/2000/svg"
 width="1024.000000pt" height="1024.000000pt" viewBox="0 0 1024.000000 1024.000000"
 preserveAspectRatio="xMidYMid meet">
<metadata>
Created by potrace 1.10, written by Peter Selinger 2001-2011
</metadata>
<g transform="translate(0.000000,1024.000000) scale(0.100000,-0.100000)"
fill="#000000" stroke="none">
<path d="M4703 10168 c-93 -67 -105 -80 -151 -158 -28 -47 -97 -184 -153 -305
-69 -149 -141 -283 -223 -417 l-121 -196 -71 -7 c-67 -7 -79 -4 -248 50 -178
57 -178 57 -533 99 l-355 42 -257 -118 c-141 -64 -260 -119 -264 -120 -4 -2
12 -58 35 -125 40 -112 45 -122 65 -117 18 5 23 1 29 -20 5 -21 11 -26 33 -24
21 2 27 -2 29 -21 4 -29 -14 -42 -47 -34 -22 5 -23 4 -17 -23 4 -16 9 -30 11
-32 2 -2 21 6 44 17 22 12 42 21 45 21 2 0 10 -17 17 -37 11 -34 10 -38 -15
-59 -18 -17 -26 -33 -26 -57 0 -44 27 -122 58 -170 23 -35 24 -38 8 -55 -18
-21 -12 -32 18 -32 30 0 82 -136 62 -160 -18 -21 -9 -40 20 -40 20 0 26 -8 40
-56 17 -58 12 -73 -23 -74 -18 0 -16 -8 15 -65 25 -46 30 -50 69 -53 35 -3 43
-8 53 -33 14 -33 11 -33 69 -15 60 17 69 41 13 33 -37 -6 -52 2 -52 28 0 5
122 45 137 45 7 0 21 -16 30 -35 9 -20 22 -34 27 -32 6 2 68 21 138 43 95 29
128 43 128 55 0 15 -6 15 -62 3 -81 -17 -78 -17 -78 5 0 22 -16 16 373 133
167 51 207 66 207 80 0 22 -11 22 -74 3 -66 -20 -66 -20 -66 19 0 34 0 34 70
51 41 10 70 22 70 30 0 10 -18 8 -77 -6 -43 -9 -79 -17 -80 -16 0 1 -9 31 -18
66 -11 44 -13 66 -6 71 6 3 42 14 80 24 60 16 93 38 77 53 -2 2 -59 -7 -127
-20 -121 -23 -124 -24 -127 -5 -2 11 -2 21 0 23 2 2 39 10 83 17 79 13 79 13
88 49 l8 36 106 18 c102 16 106 16 124 -2 15 -15 249 -731 249 -762 0 -6 -8
-15 -19 -20 -10 -6 -285 -96 -611 -201 -327 -105 -597 -193 -602 -196 -4 -3
-8 -34 -8 -69 l0 -64 95 -66 94 -66 153 49 153 49 13 -29 c7 -17 18 -28 25
-25 114 42 126 42 140 2 2 -5 35 0 79 12 l76 21 28 -95 28 -94 43 7 c36 5 42
4 37 -9 -3 -10 -27 -17 -72 -22 -37 -4 -165 -27 -286 -51 l-219 -44 -34 30
c-18 17 -40 30 -48 30 -43 0 -117 -27 -150 -55 -32 -26 -39 -39 -45 -83 -3
-29 -2 -53 3 -55 5 -1 5 -19 -2 -42 -16 -57 -14 -102 4 -109 26 -10 -8 -64
-42 -68 -26 -3 -28 -7 -49 -123 -13 -66 -28 -136 -33 -155 -16 -53 -14 -60 19
-60 19 0 30 -5 30 -14 0 -7 3 -28 6 -45 6 -27 4 -31 -14 -31 -28 0 -40 -54
-18 -79 21 -23 21 -51 0 -51 -14 0 -16 -7 -11 -40 5 -40 5 -40 -29 -40 -37 0
-35 4 -68 -140 -22 -94 -22 -100 15 -100 31 0 32 0 25 -42 -3 -24 -16 -85 -27
-135 -19 -85 -23 -93 -44 -93 -31 0 -38 -15 -59 -120 -10 -47 -20 -93 -22
-102 -5 -15 1 -18 37 -18 41 0 41 0 35 -31 -3 -17 -6 -35 -6 -40 0 -5 -6 -9
-14 -9 -20 0 -26 -23 -26 -91 0 -58 0 -59 -29 -59 -27 0 -30 -4 -41 -50 -14
-59 -9 -77 22 -82 33 -4 37 -38 5 -38 -19 0 -28 -8 -40 -37 -15 -38 -15 -38
10 -41 18 -3 23 -9 21 -25 -3 -23 -16 -25 -74 -12 l-31 7 -17 -66 c-9 -36 -16
-70 -16 -76 0 -5 18 -10 40 -10 22 0 40 -5 40 -10 0 -6 -11 -32 -24 -59 -19
-36 -33 -50 -56 -57 -22 -6 -36 -19 -46 -42 -13 -33 -13 -33 16 -44 33 -11 35
-16 19 -88 -11 -53 -19 -57 -65 -40 -15 6 -29 9 -31 6 -2 -2 -13 -41 -24 -86
-25 -104 -105 -259 -134 -260 -13 -1 -40 -27 -75 -73 -378 -499 -441 -588
-430 -602 10 -12 5 -25 -26 -66 -35 -48 -36 -52 -20 -65 26 -18 11 -36 -20
-24 -30 12 -30 12 -181 -184 -59 -77 -144 -204 -189 -282 l-83 -143 20 -26
c15 -18 19 -33 14 -55 -6 -27 -2 -32 59 -72 36 -24 66 -46 66 -50 0 -4 -16
-34 -36 -68 -19 -33 -40 -74 -46 -90 -7 -22 -16 -30 -34 -30 -33 0 -53 -39
-29 -56 24 -18 13 -43 -17 -37 -19 4 -27 -1 -36 -22 -17 -36 -15 -45 10 -72
25 -27 18 -28 -64 -9 l-56 14 -10 -40 c-11 -44 -16 -40 75 -67 55 -16 58 -19
65 -57 l8 -40 96 -16 c53 -10 98 -19 101 -21 2 -3 -1 -34 -8 -70 l-12 -65 -51
18 c-86 30 -86 30 -86 64 0 60 -10 76 -45 76 -59 0 -95 -11 -95 -30 0 -34 -56
-38 -149 -10 -60 19 -70 25 -86 58 -10 20 -19 33 -21 27 -2 -5 -15 -49 -28
-97 -22 -81 -23 -95 -15 -210 16 -209 23 -236 100 -391 71 -141 138 -236 168
-238 9 0 11 -3 5 -5 -17 -7 -1 -69 37 -139 20 -38 55 -80 93 -113 61 -53 201
-138 276 -168 l40 -16 0 -72 c0 -39 -4 -77 -9 -85 -14 -22 3 -66 27 -69 29 -4
62 15 62 36 0 9 -9 31 -20 47 -12 18 -20 47 -20 74 l0 43 47 -7 c26 -4 72 -19
103 -35 55 -28 268 -80 480 -117 158 -27 477 -25 715 6 253 32 417 87 736 247
178 89 266 156 504 385 72 69 142 132 155 139 13 7 83 24 154 37 72 13 144 32
160 42 17 10 89 35 159 55 105 30 161 39 301 51 94 7 182 18 196 23 72 28 254
147 409 268 4 4 -52 53 -61 54 -4 0 -57 -42 -118 -93 -62 -50 -121 -100 -133
-109 -20 -16 -455 -122 -707 -173 -47 -10 -115 -28 -151 -41 -81 -29 -118 -30
-250 -4 -200 40 -301 71 -411 127 -94 47 -109 59 -116 86 -11 43 -53 73 -80
58 -19 -10 -29 -4 -92 55 -137 130 -274 327 -341 490 l-21 53 31 42 c16 23 28
45 26 50 -3 4 -25 20 -49 35 l-44 28 -7 88 c-4 49 -4 134 0 189 7 94 12 113
79 277 l71 176 52 16 c28 8 55 18 58 22 4 3 1 24 -6 47 -10 35 -10 46 6 81 13
29 23 39 34 35 20 -8 774 -433 796 -449 16 -11 16 -17 5 -51 -12 -36 -11 -39
11 -56 13 -10 43 -28 66 -41 41 -22 42 -22 97 -5 51 16 56 21 56 47 0 37 13
44 48 26 27 -14 31 -13 60 7 18 12 32 30 32 41 0 10 14 42 30 71 28 49 37 56
106 85 42 17 77 30 79 28 1 -2 9 -24 18 -50 14 -43 14 -48 0 -48 -8 0 -13 -6
-10 -13 3 -6 102 -252 220 -545 119 -294 217 -536 220 -538 2 -2 124 50 272
116 148 66 274 120 281 120 6 0 17 -7 25 -16 11 -13 -4 -32 -110 -138 -117
-117 -121 -123 -103 -139 23 -21 46 -22 63 -1 8 9 93 90 189 178 l175 162 293
117 c160 64 296 117 301 117 19 0 43 -91 37 -143 -3 -29 -3 -57 1 -63 13 -18
45 -25 59 -13 26 21 16 79 -27 157 -22 40 -39 75 -37 76 2 2 140 58 308 126
168 67 564 229 880 360 l575 237 355 17 c509 24 512 24 508 50 -4 24 27 24
-523 -3 l-350 -18 -173 -71 c-95 -40 -176 -72 -181 -72 -5 0 -18 12 -28 26
l-19 26 -104 -32 c-57 -17 -109 -34 -116 -37 -8 -3 -18 12 -27 44 -10 34 -21
52 -40 61 -14 7 -28 24 -32 40 -3 15 -52 236 -109 492 -84 373 -102 469 -94
490 10 24 11 22 30 -33 20 -57 20 -58 52 -51 63 15 70 12 86 -34 15 -43 14
-44 -9 -63 -66 -54 -25 -243 67 -304 37 -24 40 -25 85 -11 42 12 47 12 47 -1
0 -9 -7 -21 -15 -27 -12 -9 -13 -18 -1 -61 13 -50 13 -50 53 -48 40 1 40 1 50
-43 10 -44 10 -45 -18 -60 -16 -8 -29 -20 -29 -26 0 -23 33 -128 40 -128 4 0
26 7 49 15 44 15 172 15 258 0 l42 -7 27 55 c26 53 29 55 57 50 54 -11 20 16
-79 62 -91 43 -93 44 -123 104 -17 33 -31 64 -31 69 0 5 23 19 50 32 28 13 50
29 50 37 0 17 -8 16 -60 -2 -54 -19 -70 -19 -70 0 0 13 -34 91 -45 103 -2 2
-13 -2 -25 -8 -21 -11 -22 -11 -15 29 6 39 6 41 -19 41 -16 0 -26 6 -26 15 0
8 7 15 16 15 18 0 17 5 -28 122 -23 61 -34 77 -54 82 -23 6 -35 36 -13 36 21
0 4 45 -18 48 -36 5 -27 16 37 47 33 16 60 31 60 33 0 3 -29 61 -65 128 -59
111 -65 129 -65 181 0 32 5 76 10 97 12 55 -2 71 -147 162 -68 42 -123 83
-123 90 0 7 5 24 11 38 l12 25 51 -35 c28 -19 54 -34 58 -34 9 0 98 124 98
137 0 5 -22 26 -50 47 l-50 38 22 32 c155 218 169 234 211 235 14 1 16 -3 7
-18 -5 -11 -10 -24 -10 -30 0 -9 588 -311 604 -311 5 0 292 529 305 563 6 15
7 27 3 27 -12 0 -72 -58 -72 -69 0 -6 -9 -11 -20 -11 -14 0 -30 -15 -48 -46
-15 -25 -35 -59 -45 -75 l-17 -30 -70 38 c-42 23 -70 44 -70 54 0 17 65 54
111 63 37 8 164 103 164 124 0 9 5 16 11 15 6 -1 25 33 43 76 37 90 33 87 188
131 59 17 138 44 174 61 56 27 70 38 87 74 l20 42 -20 94 c-15 70 -323 1082
-354 1164 -4 8 12 17 45 25 33 8 51 17 51 27 0 8 -13 61 -29 117 -55 188 -65
298 -51 564 7 128 9 260 5 293 -5 46 -4 63 6 69 43 27 -3 389 -73 580 -70 188
-197 350 -377 479 -113 81 -304 162 -510 216 -69 18 -259 83 -421 145 -321
122 -344 130 -377 135 -22 3 -977 375 -1458 568 -137 55 -302 115 -365 134
-114 35 -116 35 -247 29 -107 -5 -137 -4 -155 8 -15 9 -65 17 -143 20 l-120 7
-102 -73z m-1756 -8455 c-4 -21 -9 -69 -13 -108 -7 -65 -10 -73 -54 -120 -52
-55 -66 -85 -52 -112 6 -11 6 -44 0 -86 -11 -84 0 -105 74 -127 52 -15 53 -17
55 -55 2 -22 7 -63 13 -91 9 -40 8 -57 -5 -87 -22 -53 -20 -156 5 -187 11 -14
20 -41 20 -62 0 -34 -4 -39 -42 -56 -47 -21 -188 -138 -188 -155 0 -6 7 -19
17 -29 15 -17 14 -18 -17 -18 l-33 0 24 -26 c23 -25 23 -26 2 -15 -28 14 -33
14 -33 -3 0 -7 10 -21 23 -29 15 -11 17 -16 7 -16 -8 0 -24 6 -34 14 -19 15
-36 12 -36 -6 0 -5 15 -18 33 -29 34 -21 33 -22 -23 -24 l-35 -1 3 -46 4 -46
-126 -27 c-112 -25 -141 -27 -259 -24 -121 4 -144 8 -287 51 -390 116 -542
190 -643 316 -54 67 -117 169 -117 190 0 20 26 12 147 -42 83 -38 119 -60 121
-73 10 -50 64 -76 117 -55 12 5 28 3 40 -4 35 -22 101 -26 177 -10 94 20 135
57 179 164 50 118 61 188 48 288 -6 47 -8 98 -5 115 10 51 67 88 208 134 78
25 90 32 120 73 37 49 78 157 78 203 0 25 3 28 25 22 29 -7 34 12 9 31 -25 17
-11 57 30 88 25 19 57 30 127 41 85 14 267 61 278 72 15 14 23 -1 18 -33z"/>
</g>
</svg>
