<?xml version="1.0" standalone="no"?>
<!DOCTYPE svg PUBLIC "-//W3C//DTD SVG 20010904//EN"
 "http://www.w3.org/TR/2001/REC-SVG-20010904/DTD/svg10.dtd">
<svg version="1.0" xmlns="http://www.w3.org/2000/svg"
 width="1024.000000pt" height="1024.000000pt" viewBox="0 0 1024.000000 1024.000000"
 preserveAspectRatio="xMidYMid meet">
<metadata>
Created by potrace 1.10, written by Peter Selinger 2001-2011
</metadata>
<g transform="translate(0.000000,1024.000000) scale(0.100000,-0.100000)"
fill="#000000" stroke="none">
<path d="M2405 10230 l-149 -5 -12 -40 c-19 -62 -16 -85 14 -124 24 -32 27
-45 30 -131 l3 -95 -40 -54 c-44 -59 -46 -64 -56 -133 -3 -26 -17 -68 -31 -94
-35 -66 -27 -96 45 -175 32 -35 63 -74 69 -86 19 -35 15 -97 -8 -118 -10 -9
-31 -47 -45 -84 -22 -57 -25 -82 -25 -183 0 -92 -4 -124 -19 -158 -15 -34 -17
-48 -8 -67 8 -19 7 -31 -5 -56 -9 -18 -24 -56 -34 -86 -15 -50 -15 -59 -1
-125 9 -39 21 -97 27 -128 9 -47 18 -64 49 -90 42 -37 79 -96 111 -178 12 -30
28 -62 36 -71 17 -19 50 -170 59 -268 5 -57 1 -80 -29 -175 -23 -73 -44 -118
-62 -137 -37 -39 -50 -140 -22 -166 11 -10 18 -29 17 -47 -1 -17 4 -51 10 -75
7 -24 9 -60 6 -82 -5 -29 -2 -47 9 -64 33 -50 6 -152 -51 -193 -16 -12 -45
-49 -63 -84 -18 -35 -49 -81 -70 -103 -38 -41 -80 -143 -80 -196 0 -14 -11
-43 -25 -63 -21 -32 -24 -45 -19 -89 4 -44 -2 -76 -40 -197 -25 -80 -46 -153
-46 -162 0 -11 17 -26 45 -39 28 -13 52 -33 62 -52 14 -28 14 -37 -2 -109 -16
-68 -17 -87 -6 -148 7 -39 10 -82 7 -97 -11 -42 14 -133 60 -223 42 -81 44
-87 33 -128 -10 -36 -9 -45 5 -61 21 -23 20 -28 -9 -67 -39 -51 -34 -89 26
-173 74 -105 75 -114 41 -202 -16 -41 -32 -87 -36 -104 -4 -16 -23 -55 -42
-86 -46 -77 -74 -139 -74 -170 0 -24 -27 -85 -60 -136 -12 -19 -11 -26 5 -62
14 -32 15 -44 6 -55 -7 -8 -14 -32 -15 -53 -2 -21 -7 -47 -11 -59 -5 -16 4
-30 40 -63 25 -23 51 -41 58 -38 13 4 30 53 46 132 5 28 12 62 15 77 9 39 48
63 75 46 16 -10 23 -10 33 0 6 6 36 12 66 12 l53 0 31 -66 c27 -59 30 -71 21
-108 l-9 -43 47 -16 c55 -20 99 -67 99 -105 0 -15 7 -40 15 -55 11 -22 12 -38
5 -70 -6 -23 -30 -715 -55 -1537 -39 -1279 -48 -1500 -62 -1530 -24 -55 -28
-154 -8 -266 10 -54 21 -103 25 -108 7 -7 2329 -85 2558 -86 l63 0 -17 32 c-9
18 -24 55 -33 82 -20 62 -42 77 -71 51 -19 -17 -22 -17 -37 -2 -14 13 -15 21
-5 42 11 24 8 30 -37 78 -46 49 -50 58 -80 176 -43 171 -40 209 19 243 21 12
31 27 36 54 4 21 13 44 19 51 14 13 5 86 -15 122 -5 11 -10 31 -10 45 0 29 24
44 122 76 86 29 102 42 102 87 1 48 11 63 42 63 17 0 24 5 24 20 0 11 -4 20
-10 20 -5 0 -19 9 -30 20 -15 15 -20 33 -20 74 0 30 -4 58 -10 61 -17 10 -12
22 31 71 70 81 72 85 53 129 -15 36 -15 39 5 66 28 38 26 60 -8 93 -45 43 -54
74 -42 141 6 32 16 64 22 71 6 7 8 26 4 42 -4 20 0 39 12 59 15 25 18 51 17
146 l-1 117 32 25 c25 18 40 45 64 110 34 95 38 130 16 159 -23 31 -18 80 11
115 24 28 24 31 6 31 -51 0 -75 76 -43 139 23 44 52 212 52 299 0 37 8 67 25
99 31 59 30 71 -6 124 -16 24 -30 49 -30 56 0 6 11 35 25 65 16 35 25 71 25
105 0 75 15 98 85 138 84 46 92 57 76 101 -16 44 -7 84 30 130 16 20 29 48 29
62 0 14 8 34 18 45 14 16 16 34 14 102 l-3 83 56 60 c30 33 55 64 55 70 0 5
12 12 28 15 42 9 95 49 114 87 18 38 25 46 56 72 12 10 19 24 16 35 -3 11 10
39 30 68 38 52 43 74 25 106 -7 14 -7 29 2 54 11 28 11 42 0 70 -11 31 -10 39
4 62 9 14 26 28 36 30 22 6 22 5 7 38 -11 24 -6 30 87 125 l98 100 -6 45 c-4
42 -2 48 22 63 34 22 42 33 35 54 -3 10 2 18 13 21 10 3 4 5 -13 6 -42 1 -57
21 -44 55 7 19 7 33 -1 47 -8 15 -6 25 10 46 12 14 21 36 21 49 0 15 6 24 15
24 9 0 15 9 15 21 0 17 5 20 21 16 24 -6 40 25 32 65 -4 19 0 30 15 39 11 7
17 19 15 30 -4 12 2 18 19 21 19 2 25 12 32 51 9 47 11 49 39 44 l29 -4 -23
18 c-20 16 -22 20 -9 29 8 5 18 10 23 10 9 0 9 34 0 43 -3 4 -13 1 -21 -5 -20
-17 -42 15 -42 59 0 25 7 37 28 50 15 9 29 18 31 19 1 2 -4 13 -13 26 -9 13
-16 43 -16 70 0 36 -10 67 -36 119 -34 68 -35 73 -21 108 8 20 22 69 32 108
16 67 16 76 1 120 -9 25 -16 55 -16 64 0 10 -10 23 -21 30 -21 11 -20 13 29
62 31 32 58 71 69 102 17 47 24 53 103 97 79 45 90 48 157 48 56 0 80 5 108
22 l37 21 63 -22 c62 -22 66 -22 115 -6 68 23 115 69 123 121 8 50 53 114 102
144 30 18 46 22 85 17 38 -5 51 -2 64 12 11 12 36 20 67 23 57 6 102 34 107
67 2 13 18 31 36 42 23 13 35 30 44 63 7 29 18 47 32 51 22 7 24 13 11 34 -6
9 1 22 25 44 35 30 58 31 33 1 -13 -16 -12 -16 16 -1 42 23 71 48 84 75 7 13
24 27 38 33 l26 10 -26 27 c-34 36 -34 46 3 74 17 12 30 27 30 34 0 6 -20 35
-45 62 l-46 51 21 21 c15 15 33 20 70 20 52 0 70 15 70 59 0 25 15 27 28 5 8
-15 10 -14 16 2 7 19 -1 30 -36 48 -20 11 -23 18 -21 70 1 32 7 64 14 72 10
12 7 20 -15 43 -20 21 -26 35 -21 50 6 19 3 21 -27 19 -28 -3 -33 1 -36 21 -2
13 1 28 7 34 21 21 12 59 -23 91 -18 17 -39 47 -45 67 -6 20 -27 61 -45 92
-29 47 -33 64 -32 114 1 53 5 64 35 99 19 21 43 53 54 72 11 18 32 39 48 48
32 16 32 16 33 95 1 45 6 61 29 88 17 21 27 44 27 65 0 35 31 85 138 220 34
42 62 81 62 86 0 5 -11 17 -23 27 -38 29 -50 62 -57 150 -5 67 -11 88 -33 117
-15 19 -27 44 -27 54 0 12 21 38 46 61 l47 41 -244 0 c-134 -1 -782 -7 -1439
-15 -1177 -13 -1675 -9 -1824 15 -63 10 -1988 11 -2271 0z"/>
<path d="M8226 10215 c25 -19 64 -19 64 0 0 11 -11 15 -42 15 -39 0 -40 -1
-22 -15z"/>
</g>
</svg>
