<?xml version="1.0" standalone="no"?>
<!DOCTYPE svg PUBLIC "-//W3C//DTD SVG 20010904//EN"
 "http://www.w3.org/TR/2001/REC-SVG-20010904/DTD/svg10.dtd">
<svg version="1.0" xmlns="http://www.w3.org/2000/svg"
 width="1024.000000pt" height="1024.000000pt" viewBox="0 0 1024.000000 1024.000000"
 preserveAspectRatio="xMidYMid meet">
<metadata>
Created by potrace 1.10, written by Peter Selinger 2001-2011
</metadata>
<g transform="translate(0.000000,1024.000000) scale(0.100000,-0.100000)"
fill="#000000" stroke="none">
<path d="M1032 7934 c-144 -80 -266 -142 -271 -139 -5 3 -53 -25 -108 -61 -54
-36 -222 -127 -375 -202 l-278 -136 0 -2623 0 -2623 4163 0 4162 0 25 47 c53
101 193 200 311 222 80 14 190 -3 255 -39 l50 -29 55 45 c82 69 117 84 187 81
53 -2 65 2 105 31 25 17 57 32 71 32 14 0 37 5 51 12 26 11 26 14 20 70 -8 70
-3 79 74 118 32 16 60 38 66 52 6 12 31 34 57 48 25 14 69 44 97 67 30 24 77
50 116 63 74 25 120 58 129 95 6 25 39 35 51 15 3 -5 13 -10 22 -10 21 0 112
62 113 76 0 6 -12 21 -26 35 -14 13 -36 44 -48 68 -15 32 -35 53 -71 74 -58
34 -65 43 -88 106 -14 40 -27 54 -87 95 -68 47 -70 50 -90 117 -22 74 -42 94
-85 83 -36 -9 -83 14 -101 49 -13 23 -14 48 -9 122 9 116 -11 174 -70 202 -34
16 -37 16 -69 -1 -40 -21 -73 -10 -80 27 -13 65 -13 83 -1 101 12 16 12 22 -2
43 -15 22 -14 25 7 48 l22 23 -26 17 c-31 21 -33 41 -6 75 24 30 25 53 5 70
-8 7 -15 16 -15 21 0 17 66 69 89 69 33 0 85 42 101 80 10 25 10 36 0 55 -17
32 -6 45 41 45 46 0 51 16 14 50 -14 13 -25 31 -25 39 0 9 -18 42 -39 74 -47
69 -60 127 -37 162 9 14 43 39 76 55 43 22 70 45 96 80 20 28 43 54 52 60 10
5 12 10 5 10 -18 0 -16 46 3 64 8 9 24 16 35 16 23 0 96 65 134 120 15 22 36
72 47 112 39 144 121 252 236 309 37 19 69 35 71 36 2 2 -17 26 -43 53 -34 36
-46 57 -43 71 6 23 -13 25 -54 4 -26 -14 -30 -14 -34 0 -17 54 -15 52 -29 33
-17 -23 -31 -23 -57 3 -18 18 -25 19 -46 10 -38 -17 -53 -14 -53 13 0 31 -62
80 -90 71 -11 -3 -30 1 -44 11 -35 23 -96 122 -96 157 0 18 -13 45 -37 74 -37
44 -37 45 -26 97 6 28 9 63 6 78 -3 14 0 35 6 45 8 15 7 25 -4 39 -19 25 -19
50 0 58 34 13 2 113 -42 131 -45 19 -49 33 -18 65 l28 29 -29 11 c-33 13 -44
26 -44 56 0 25 -18 34 -62 34 -21 0 -31 6 -35 20 -4 16 -14 20 -44 20 -22 0
-48 -5 -58 -11 -29 -19 -71 -3 -71 26 0 13 -5 27 -10 30 -6 4 -8 21 -4 39 3
18 0 52 -6 75 -9 36 -14 41 -26 30 -19 -16 -54 16 -79 71 l-18 39 -586 5
c-322 3 -2070 8 -3883 11 l-3298 6 0 310 c0 170 -3 309 -7 309 -5 0 -126 -66
-271 -146z"/>
</g>
</svg>
