<?xml version="1.0" standalone="no"?>
<!DOCTYPE svg PUBLIC "-//W3C//DTD SVG 20010904//EN"
 "http://www.w3.org/TR/2001/REC-SVG-20010904/DTD/svg10.dtd">
<svg version="1.0" xmlns="http://www.w3.org/2000/svg"
 width="1024.000000pt" height="1024.000000pt" viewBox="0 0 1024.000000 1024.000000"
 preserveAspectRatio="xMidYMid meet">
<metadata>
Created by potrace 1.10, written by Peter Selinger 2001-2011
</metadata>
<g transform="translate(0.000000,1024.000000) scale(0.100000,-0.100000)"
fill="#000000" stroke="none">
<path d="M3040 10234 c-125 -23 -214 -49 -254 -75 -26 -16 -75 -43 -109 -60
-72 -36 -131 -88 -157 -140 -28 -54 -125 -136 -205 -175 -49 -23 -100 -61
-169 -125 -54 -50 -113 -97 -130 -104 -42 -18 -49 -28 -71 -95 -25 -75 -61
-110 -115 -110 -23 0 -55 -8 -71 -17 -25 -15 -32 -16 -51 -4 -20 12 -25 10
-66 -38 -59 -68 -143 -132 -247 -188 -77 -40 -95 -46 -179 -53 -53 -4 -107
-15 -126 -25 -31 -16 -35 -16 -71 0 -44 21 -119 16 -168 -10 -17 -8 -80 -61
-139 -118 -112 -105 -207 -170 -277 -188 -122 -32 -311 -103 -336 -125 -22
-20 -24 -45 -7 -62 16 -16 51 -15 67 1 10 10 17 7 34 -15 12 -14 41 -34 65
-43 65 -26 127 -115 173 -249 24 -69 32 -82 56 -89 15 -4 212 -55 438 -113
744 -191 810 -212 964 -314 152 -100 163 -106 252 -126 41 -9 96 -25 122 -35
61 -24 66 -24 77 6 8 22 12 24 29 13 16 -10 28 -10 56 1 34 12 38 11 56 -8 11
-12 27 -21 35 -21 8 0 32 -9 54 -20 24 -12 41 -16 45 -10 11 18 37 11 72 -20
35 -31 71 -38 90 -19 9 9 23 6 55 -9 24 -11 69 -31 101 -45 63 -29 77 -50 77
-120 0 -31 -7 -48 -27 -69 -22 -23 -24 -30 -13 -43 8 -9 26 -23 41 -31 25 -12
33 -12 70 2 41 17 41 17 62 -10 17 -20 38 -30 85 -39 56 -12 66 -17 103 -62
74 -89 75 -92 49 -120 l-24 -25 24 -32 c32 -44 30 -85 -5 -116 -28 -24 -28
-25 -12 -56 30 -58 27 -80 -23 -140 -30 -36 -40 -57 -40 -83 0 -19 -7 -47 -15
-64 -20 -37 -13 -49 28 -49 52 0 109 20 150 52 l38 31 35 -34 c19 -18 34 -40
34 -48 0 -9 -21 -54 -46 -101 -60 -110 -79 -172 -63 -202 13 -27 110 -128 121
-128 4 0 8 9 8 21 0 30 16 55 90 144 80 96 130 168 130 188 0 9 18 38 40 66
65 82 98 140 93 161 -3 12 34 96 98 221 98 190 107 204 149 228 25 14 62 43
83 63 l38 37 -16 31 c-25 48 -12 124 25 152 16 11 26 27 23 34 -5 14 6 33 46
84 19 24 20 24 40 6 30 -28 26 -55 -16 -98 l-37 -38 12 -47 c10 -39 30 -173
32 -207 0 -4 8 1 18 13 9 12 37 27 62 34 42 11 47 17 75 75 17 35 41 72 55 82
20 15 22 21 11 34 -15 18 -8 47 19 71 20 18 21 18 43 -2 28 -26 92 -47 111
-36 8 4 35 34 62 66 l47 58 34 -33 c18 -17 33 -36 33 -41 0 -5 -16 -36 -36
-69 -32 -53 -35 -63 -25 -85 15 -33 9 -38 -30 -24 -32 11 -61 5 -39 -9 13 -8
-80 -144 -106 -154 -25 -10 -15 -44 24 -73 20 -17 45 -32 54 -36 15 -5 16 -2
8 19 -14 37 -13 40 21 72 22 20 32 40 33 61 1 30 3 32 32 26 28 -5 32 -2 36
20 3 14 1 25 -3 25 -5 0 -9 4 -9 9 0 4 24 13 54 19 37 7 63 20 84 41 22 23 40
31 65 31 l34 0 6 65 c11 115 65 204 135 222 15 3 30 11 34 16 4 7 20 6 48 -3
36 -12 44 -12 70 3 39 23 53 22 150 -18 l85 -34 25 23 c32 30 63 46 89 46 12
0 21 5 21 10 0 16 42 12 106 -10 32 -12 69 -18 81 -15 12 3 54 50 100 112 86
116 121 145 153 125 26 -16 45 -15 60 3 17 21 47 19 61 -4 10 -15 17 -16 40
-8 24 10 39 5 115 -33 56 -27 89 -39 92 -31 6 19 53 12 123 -18 89 -38 148
-80 184 -132 31 -44 154 -169 213 -216 29 -23 36 -25 59 -14 17 8 23 15 15 19
-17 11 -27 89 -13 106 9 11 9 20 2 35 -18 33 -13 52 19 64 29 11 30 14 30 72
0 34 5 66 12 73 19 19 60 14 117 -14 42 -21 57 -36 71 -68 10 -23 19 -34 19
-25 1 25 33 33 48 13 12 -16 13 -16 13 4 0 25 32 30 74 11 34 -16 39 -36 14
-53 -20 -14 -20 -18 -8 -41 8 -15 16 -21 20 -15 4 6 15 8 24 4 16 -6 17 -5 5
14 -12 19 -11 23 6 36 11 9 30 16 43 16 12 0 31 5 42 12 16 10 32 8 89 -10 53
-17 75 -20 90 -12 30 16 53 12 117 -17 53 -24 61 -25 103 -14 25 7 56 19 69
27 24 16 29 53 10 72 -16 16 -55 15 -61 0 -8 -18 -125 105 -133 138 -5 18 0
32 16 49 l22 23 -33 17 c-19 10 -43 26 -54 36 -28 25 -74 27 -108 4 -27 -18
-29 -18 -55 2 -17 13 -28 31 -30 51 -3 25 4 36 41 67 l45 38 -19 31 c-12 20
-19 50 -19 81 0 31 -8 66 -20 89 -11 22 -27 62 -36 90 -20 61 -51 125 -72 149
-38 43 -126 7 -162 -67 -22 -46 -40 -67 -40 -47 0 18 -29 12 -68 -14 -46 -31
-57 -31 -78 0 -12 18 -13 29 -6 38 8 10 4 20 -18 40 -15 15 -36 27 -45 27 -10
0 -52 -16 -95 -35 -43 -19 -87 -35 -98 -35 -11 0 -53 16 -93 35 -76 36 -99 42
-99 25 0 -16 -27 -12 -70 10 -44 22 -65 53 -54 78 4 9 10 82 14 162 8 157 20
203 68 254 l27 29 -150 -6 c-174 -6 -221 -18 -350 -86 -153 -81 -173 -85 -370
-75 -239 11 -293 11 -348 -6 -42 -13 -49 -13 -57 0 -8 12 -17 11 -62 -9 -77
-34 -100 -36 -122 -12 l-18 20 -57 -41 c-142 -103 -274 -178 -312 -178 -32 0
-100 -60 -187 -164 -41 -50 -80 -91 -86 -91 -6 0 -12 10 -14 23 -3 17 -10 22
-30 22 -18 0 -37 11 -54 30 -33 38 -57 38 -94 -1 -43 -46 -59 -52 -92 -35 -34
18 -105 93 -126 134 -25 49 -48 49 -127 1 -64 -38 -72 -41 -95 -29 -21 12 -33
11 -79 -5 -49 -16 -61 -17 -112 -5 -82 18 -123 60 -123 127 0 47 -2 50 -34 61
-34 13 -65 51 -129 164 -15 25 -38 55 -50 65 -30 23 -47 55 -47 87 0 38 -9 52
-57 92 -36 29 -47 34 -54 23 -12 -20 -40 -1 -58 39 -8 18 -20 32 -26 32 -7 0
-24 9 -38 21 -15 11 -44 23 -64 26 -21 3 -45 12 -55 20 -11 10 -51 16 -125 20
-244 12 -262 7 -330 -96 -56 -85 -67 -95 -60 -53 14 71 57 141 113 184 30 22
53 43 51 45 -13 12 -106 -45 -168 -104 -39 -37 -80 -68 -90 -67 -10 0 -16 -3
-13 -8 12 -19 -9 -60 -67 -134 l-61 -76 -21 20 c-19 20 -19 22 -3 46 9 14 21
26 26 26 6 0 4 13 -5 30 -21 40 -19 89 8 202 22 88 28 101 68 140 34 32 49 58
61 101 11 38 26 65 45 81 16 14 38 43 48 65 14 31 24 41 42 41 20 0 23 5 23
35 0 52 24 91 63 104 20 7 64 42 106 86 52 54 93 86 143 111 67 34 69 36 53
54 -28 31 -16 63 30 78 38 13 56 12 131 -3 22 -5 40 -1 65 14 19 12 42 21 52
21 9 0 17 7 17 16 0 59 -70 83 -260 89 -74 2 -146 2 -160 -1z"/>
<path d="M7879 8478 c-27 -22 -72 -88 -60 -88 19 0 51 -39 51 -62 0 -45 21
-98 50 -127 17 -16 30 -34 30 -40 0 -11 39 -35 46 -29 2 2 -13 31 -33 63 -59
100 -59 96 -8 196 45 88 45 89 22 89 -14 0 -37 3 -53 6 -17 3 -36 0 -45 -8z"/>
<path d="M7910 8098 c1 -7 18 -46 38 -86 36 -70 39 -72 55 -55 16 18 15 22 -4
74 -26 67 -35 79 -65 79 -13 0 -24 -6 -24 -12z"/>
<path d="M8525 7691 c-3 -5 7 -11 22 -13 22 -2 29 -9 31 -31 4 -36 -11 -54
-51 -63 -19 -4 -49 -24 -74 -52 l-43 -45 -21 27 c-17 21 -24 24 -35 15 -24
-19 -16 -46 23 -78 39 -32 68 -40 75 -20 3 9 14 8 41 -2 30 -10 44 -11 72 -1
31 12 39 10 93 -18 72 -37 101 -31 131 29 12 22 25 43 31 46 16 10 3 23 -52
51 -41 21 -49 29 -45 46 7 27 -15 70 -49 97 -20 16 -41 21 -85 21 -32 0 -60
-4 -64 -9z"/>
<path d="M7491 7119 c43 -46 69 -64 105 -75 26 -8 50 -14 54 -14 7 0 40 65 40
79 0 7 -221 71 -246 71 -5 0 16 -27 47 -61z"/>
<path d="M7183 7107 c4 -12 3 -27 -1 -33 -9 -15 -99 -26 -107 -14 -9 14 -43
12 -48 -2 -3 -10 -13 -9 -41 5 -45 21 -58 22 -28 1 34 -24 28 -62 -19 -117
-23 -26 -58 -56 -79 -67 -36 -18 -90 -89 -104 -136 -8 -28 38 -176 62 -197 27
-25 87 -47 127 -47 49 0 75 -16 75 -45 0 -32 -51 -62 -135 -80 -55 -11 -74
-11 -110 -1 -33 11 -50 11 -77 1 -42 -14 -108 -54 -108 -64 0 -13 154 -81 183
-81 20 0 32 -9 49 -40 13 -21 33 -44 46 -50 27 -12 26 -37 -1 -54 -15 -9 -25
-3 -67 40 -40 42 -57 53 -93 58 -35 5 -53 17 -92 56 -28 28 -58 50 -70 50 -26
0 -91 -53 -111 -92 -20 -38 -19 -100 1 -216 9 -51 13 -102 10 -112 -4 -11 -10
-70 -15 -130 -6 -89 -12 -117 -32 -152 -14 -24 -28 -54 -31 -68 -4 -14 -27
-59 -51 -100 -25 -41 -48 -88 -52 -103 -13 -62 -94 -71 -94 -10 0 24 -1 25
-13 9 -9 -12 -23 -17 -42 -14 -29 3 -30 5 -38 78 -12 109 -5 163 26 203 14 18
29 51 33 73 7 38 7 39 -13 21 -18 -16 -53 -15 -53 2 0 3 16 33 36 66 56 93 57
100 30 152 -31 58 -23 81 38 110 36 18 46 28 46 47 0 33 -15 41 -33 16 -7 -11
-29 -26 -49 -34 -29 -12 -40 -27 -66 -86 -18 -38 -32 -74 -32 -78 0 -4 -20
-28 -45 -52 -33 -32 -50 -60 -61 -98 -17 -57 -53 -107 -85 -117 -13 -5 -34 2
-59 19 -22 14 -43 26 -47 26 -5 0 -18 -15 -31 -34 -12 -18 -34 -44 -48 -57
-22 -21 -28 -22 -56 -11 -23 8 -34 9 -39 1 -3 -6 -9 -63 -12 -127 -6 -135 -9
-147 -45 -160 -15 -5 -49 -18 -76 -27 -27 -10 -65 -32 -83 -49 l-34 -31 26
-98 26 -98 -21 -67 c-15 -46 -23 -100 -25 -171 -3 -104 -3 -105 -55 -205 -29
-55 -58 -118 -66 -139 -17 -48 -69 -136 -146 -244 -32 -45 -58 -88 -58 -95 0
-7 14 -42 31 -78 32 -68 51 -138 69 -257 14 -90 4 -131 -55 -217 -60 -87 -75
-120 -75 -157 0 -76 159 -550 237 -704 69 -138 108 -235 140 -350 21 -77 26
-126 35 -342 10 -224 10 -256 -5 -295 -9 -23 -21 -106 -28 -183 -10 -125 -16
-154 -59 -275 -66 -189 -100 -258 -178 -369 -95 -133 -107 -155 -151 -272 -72
-196 -113 -254 -259 -371 l-73 -58 1259 0 c1062 0 1261 -2 1271 -14 7 -9 9
-29 5 -55 l-7 -41 39 0 c22 0 379 14 794 30 415 16 775 30 799 30 34 0 42 3
37 15 -3 9 3 19 14 25 14 7 20 21 20 43 0 27 12 47 64 102 47 51 66 79 70 106
7 45 27 63 65 57 26 -4 32 0 47 35 12 27 29 44 50 53 39 17 51 32 29 40 -13 5
-14 18 -10 73 9 94 13 111 31 111 8 0 18 -10 23 -22 16 -42 25 64 11 120 -12
45 -11 53 12 103 14 30 46 74 71 99 45 44 137 99 167 100 20 1 43 19 65 53 14
22 20 54 23 135 6 123 16 146 73 163 l38 12 -20 38 c-36 72 -30 85 65 130 l84
40 51 -22 c35 -15 50 -26 47 -35 -4 -8 -9 -20 -12 -28 -7 -19 19 -32 77 -41
l47 -7 16 89 c9 48 16 94 16 102 0 8 8 23 17 33 14 16 15 25 5 66 -20 79 -2
190 43 263 44 72 43 85 -22 209 -54 105 -83 248 -83 411 0 95 -5 129 -45 284
-38 147 -47 202 -56 333 -14 203 -37 302 -111 470 -53 122 -104 176 -201 215
-81 33 -130 37 -155 14 -10 -10 -25 -17 -33 -17 -7 0 -29 -17 -49 -39 -32 -34
-46 -41 -145 -65 -60 -15 -112 -32 -114 -38 -7 -20 -63 -77 -81 -83 -16 -5
-18 -9 -7 -25 10 -17 5 -26 -41 -71 -36 -35 -65 -78 -94 -138 -23 -47 -53
-103 -66 -123 -26 -40 -58 -50 -64 -20 -2 12 -17 -3 -47 -48 -69 -103 -111
-150 -132 -150 -10 0 -48 20 -85 45 -41 29 -76 45 -95 45 -58 0 -127 48 -160
112 -23 45 -24 91 -3 149 9 24 20 81 25 127 9 86 20 116 72 194 31 47 33 48
84 48 28 0 55 5 59 11 4 6 20 9 39 6 30 -5 33 -3 39 23 9 47 41 73 85 68 l38
-3 11 55 c6 30 13 90 16 133 6 80 28 140 69 185 15 16 32 22 60 22 34 0 48 7
93 50 29 28 57 50 62 50 5 0 12 84 15 188 9 251 20 335 53 410 l27 63 -22 22
c-17 19 -21 35 -21 94 0 39 -5 95 -12 123 -11 47 -17 56 -73 95 -83 59 -91 70
-105 145 -17 86 0 129 60 160 l42 21 15 -20 c13 -20 91 -71 107 -71 5 0 -6 16
-23 35 -24 28 -31 45 -31 78 0 23 -6 53 -13 67 -114 214 -108 199 -91 226 16
24 16 26 -27 67 -68 65 -138 108 -165 101 -27 -7 -116 31 -168 71 -24 18 -42
25 -55 20 -27 -8 -73 17 -142 76 -84 72 -101 79 -206 79 -117 0 -137 9 -154
69 -30 111 -82 175 -170 208 -72 27 -189 37 -189 16 0 -36 -102 17 -303 158
-116 81 -164 99 -154 56z"/>
<path d="M6200 7059 c0 -13 -12 -49 -26 -79 -28 -59 -58 -190 -46 -201 4 -3
20 -9 35 -13 25 -6 35 -1 74 38 34 34 43 50 38 63 -4 10 -10 60 -13 111 -3 66
-8 92 -17 92 -8 0 -20 3 -29 6 -12 5 -16 0 -16 -17z"/>
<path d="M5810 6493 c1 -5 7 -19 15 -33 l14 -25 1 33 c0 22 -5 32 -15 32 -8 0
-15 -3 -15 -7z"/>
<path d="M5580 5950 c0 -29 8 -51 26 -76 40 -52 49 -44 48 38 l-1 73 -37 3
-36 3 0 -41z"/>
<path d="M5477 5782 c-23 -25 -22 -52 3 -52 13 0 22 9 26 26 9 35 -8 50 -29
26z"/>
</g>
</svg>
