<?xml version="1.0" standalone="no"?>
<!DOCTYPE svg PUBLIC "-//W3C//DTD SVG 20010904//EN"
 "http://www.w3.org/TR/2001/REC-SVG-20010904/DTD/svg10.dtd">
<svg version="1.0" xmlns="http://www.w3.org/2000/svg"
 width="1024.000000pt" height="1024.000000pt" viewBox="0 0 1024.000000 1024.000000"
 preserveAspectRatio="xMidYMid meet">
<metadata>
Created by potrace 1.10, written by Peter Selinger 2001-2011
</metadata>
<g transform="translate(0.000000,1024.000000) scale(0.100000,-0.100000)"
fill="#000000" stroke="none">
<path d="M5971 8132 c-8 -15 -4 -26 19 -53 36 -42 41 -107 11 -145 l-19 -24
-31 50 c-17 27 -34 68 -37 90 -14 86 -66 110 -161 74 -40 -16 -43 -20 -68 -95
l-27 -79 -67 0 c-57 0 -77 -5 -126 -32 -48 -26 -63 -30 -84 -21 -15 5 -43 8
-64 5 -32 -4 -44 -13 -78 -58 -37 -49 -43 -52 -66 -43 -21 8 -30 6 -50 -12
l-23 -23 -29 28 -29 27 -78 -38 c-77 -37 -79 -39 -87 -83 -12 -60 -31 -82 -64
-69 -13 5 -37 9 -53 9 -27 0 -28 -2 -33 -62 -18 -220 -8 -405 30 -559 16 -62
16 -68 0 -92 -21 -32 -23 -119 -3 -173 7 -22 16 -82 20 -134 4 -52 14 -114 22
-138 9 -27 14 -85 14 -160 0 -88 4 -123 15 -138 8 -10 15 -41 15 -69 0 -73
-51 -153 -186 -290 -119 -121 -217 -197 -319 -247 -54 -27 -66 -37 -71 -63
-11 -52 -67 -88 -204 -133 -134 -43 -300 -70 -364 -58 -33 6 -43 16 -84 81
-51 80 -88 105 -180 119 -57 8 -109 36 -150 78 -27 29 -37 52 -58 144 -14 60
-35 136 -46 169 -10 33 -24 92 -29 130 -6 40 -23 98 -41 135 -21 44 -30 78
-29 106 2 41 1 42 -46 58 -26 9 -80 37 -120 64 -65 41 -83 61 -158 167 -56 81
-101 133 -136 160 -85 64 -185 162 -217 213 -16 26 -37 71 -47 100 -16 50 -16
60 -1 142 9 48 16 100 16 115 l0 27 -57 -7 c-70 -9 -172 -48 -279 -109 -44
-25 -130 -68 -191 -95 -61 -28 -153 -73 -205 -101 l-95 -50 -107 0 c-103 0
-111 -2 -206 -41 l-98 -41 -16 -65 c-31 -123 -105 -256 -163 -295 -15 -9 -51
-62 -83 -120 -31 -57 -77 -131 -102 -166 l-46 -63 -7 -224 c-4 -123 -5 -231
-2 -239 3 -8 -7 -63 -23 -123 l-28 -108 -85 -80 c-46 -44 -91 -92 -100 -107
-10 -15 -71 -71 -136 -123 -66 -53 -126 -107 -135 -120 -13 -19 -16 -52 -16
-157 0 -173 -34 -357 -82 -450 l-33 -63 -1 -160 c-2 -145 -4 -167 -29 -240
-25 -75 -27 -87 -20 -190 5 -87 3 -119 -9 -154 -23 -64 -20 -99 24 -244 21
-73 42 -162 46 -198 4 -37 10 -72 14 -78 5 -8 25 -6 71 9 35 11 78 20 95 20
38 0 81 42 95 96 10 35 9 40 -15 59 l-26 21 52 23 c38 16 65 37 93 74 31 39
58 60 118 89 42 21 77 42 77 47 0 4 18 29 41 55 33 37 47 46 73 46 23 0 41 9
65 34 42 43 63 48 147 37 l66 -10 52 38 c84 63 106 71 199 71 l85 0 31 38 c66
81 63 79 169 84 94 4 99 3 145 -25 49 -30 107 -39 247 -37 25 0 91 -3 148 -6
l103 -6 56 -48 c64 -54 133 -81 158 -60 15 13 196 10 226 -4 12 -5 26 9 59 66
24 40 43 74 44 75 1 0 17 4 37 8 l35 7 18 -83 c21 -98 55 -154 102 -169 31
-11 39 -8 94 25 33 20 67 49 74 64 14 26 21 28 122 40 l107 12 56 -34 c130
-79 193 -86 296 -33 59 30 80 36 135 36 81 0 94 -8 85 -48 -7 -33 9 -52 28
-33 16 16 97 13 127 -4 14 -8 50 -15 80 -15 44 0 64 -6 99 -30 24 -17 49 -30
55 -30 7 0 20 -13 29 -30 10 -16 34 -42 54 -57 l35 -27 47 18 c25 10 73 26
106 37 32 11 67 27 77 36 16 14 20 13 48 -11 21 -17 43 -26 68 -26 22 0 44 -8
57 -20 l22 -20 39 20 c21 11 58 25 81 30 54 13 103 54 103 86 0 16 8 28 24 35
19 9 25 21 31 65 7 55 7 56 70 69 19 3 36 16 46 34 14 23 25 29 69 35 29 4 62
14 74 22 11 8 30 14 42 14 23 0 34 17 34 51 0 20 1 20 30 3 20 -12 36 -36 51
-73 12 -31 30 -69 40 -86 10 -16 21 -59 24 -95 7 -60 11 -69 56 -115 49 -50
79 -113 94 -197 6 -32 13 -39 63 -61 87 -38 99 -40 111 -20 26 45 27 46 52 33
13 -7 45 -33 71 -57 47 -43 49 -44 99 -37 36 5 73 1 125 -12 l74 -18 30 29 29
28 41 -36 c44 -41 69 -45 123 -22 20 8 38 15 41 15 2 0 7 -28 11 -62 10 -81
27 -106 95 -135 37 -17 83 -52 140 -107 65 -63 107 -94 177 -130 53 -26 98
-56 104 -69 44 -86 85 -129 170 -178 86 -50 88 -51 99 -102 7 -29 28 -79 46
-113 26 -47 43 -65 73 -79 47 -21 86 -59 101 -99 10 -26 13 -28 49 -22 41 6
82 -7 135 -43 17 -11 47 -23 69 -27 34 -5 51 0 124 37 l84 44 32 -18 c18 -11
43 -26 58 -34 24 -14 27 -13 60 19 19 18 50 44 68 58 27 20 35 36 43 79 8 48
18 64 81 132 65 71 75 79 110 79 44 0 82 18 116 54 43 46 73 36 181 -59 l95
-83 62 44 62 45 53 -28 c46 -24 67 -28 164 -31 l111 -4 17 41 c9 25 16 70 16
114 0 79 36 235 65 284 24 41 48 54 111 60 52 6 54 7 54 36 0 21 10 41 30 62
30 31 30 31 10 50 -25 23 -26 35 -2 35 10 0 29 11 42 25 13 14 31 25 40 25 10
0 39 31 68 73 59 85 64 90 115 108 20 7 37 19 37 25 0 7 14 15 30 19 17 4 30
13 30 21 0 7 15 21 33 30 55 28 76 54 88 111 11 47 10 56 -4 70 -14 15 -13 21
20 82 l36 66 -57 112 c-59 119 -71 180 -45 237 11 22 7 30 -34 78 -24 29 -48
67 -51 85 -4 17 -18 43 -32 58 -30 33 -30 43 1 85 14 19 25 42 25 51 0 28 -53
59 -99 59 -36 0 -44 4 -66 38 -14 22 -30 63 -34 93 -5 30 -14 67 -20 83 -18
45 -69 110 -101 130 -39 23 -38 46 6 139 22 46 34 86 32 104 -3 25 -7 28 -35
25 -27 -2 -40 6 -78 44 -26 25 -60 67 -76 94 -16 26 -36 51 -44 54 -26 10 -67
105 -61 141 7 37 -1 65 -19 65 -23 0 -47 37 -37 57 6 10 16 37 23 60 11 39 10
46 -13 91 -23 44 -24 50 -9 59 13 8 14 13 3 26 -12 14 -6 20 45 46 l59 29 13
84 c7 46 22 120 33 164 l21 82 -20 48 c-19 44 -26 50 -65 60 -37 9 -46 16 -66
55 -19 37 -32 48 -85 72 -34 15 -80 45 -102 67 -37 35 -61 46 -172 76 -21 5
-15 64 12 129 33 81 33 118 -2 140 -25 17 -29 17 -80 1 -29 -9 -74 -17 -100
-16 -27 1 -63 -2 -81 -6 -26 -5 -41 -1 -73 20 -29 20 -61 29 -117 36 -90 10
-107 15 -147 45 -17 12 -45 26 -62 29 -18 4 -41 18 -51 31 -17 21 -20 22 -50
9 -42 -17 -88 -2 -96 32 -10 40 -28 31 -71 -38 -34 -54 -59 -68 -119 -68 -36
0 -54 -8 -106 -47 -47 -35 -66 -57 -72 -80 -7 -26 -14 -33 -34 -33 -16 0 -27
7 -33 22 -8 21 -8 21 -27 1 -10 -11 -24 -28 -29 -38 -18 -31 -64 0 -85 58 -10
27 -23 54 -29 61 -6 7 -41 16 -78 19 -46 5 -77 14 -102 31 -20 13 -49 30 -66
37 -17 8 -37 30 -47 49 -9 19 -31 65 -48 101 -17 37 -55 97 -84 135 l-53 69
-82 19 -82 19 7 66 c3 36 13 73 20 82 15 16 17 57 6 97 l-7 23 -34 -26 c-86
-63 -272 -3 -291 94 -7 37 -70 52 -112 28 -29 -17 -29 -16 -95 28 -39 25 -71
56 -78 72 -10 24 -24 32 -89 51 -74 21 -78 24 -95 65 -12 28 -37 57 -72 84
-30 23 -67 55 -83 72 -34 36 -80 42 -95 13z"/>
</g>
</svg>
