<?xml version="1.0" standalone="no"?>
<!DOCTYPE svg PUBLIC "-//W3C//DTD SVG 20010904//EN"
 "http://www.w3.org/TR/2001/REC-SVG-20010904/DTD/svg10.dtd">
<svg version="1.0" xmlns="http://www.w3.org/2000/svg"
 width="1024.000000pt" height="1024.000000pt" viewBox="0 0 1024.000000 1024.000000"
 preserveAspectRatio="xMidYMid meet">
<metadata>
Created by potrace 1.10, written by Peter Selinger 2001-2011
</metadata>
<g transform="translate(0.000000,1024.000000) scale(0.100000,-0.100000)"
fill="#000000" stroke="none">
<path d="M8923 9643 c-32 -19 -76 -52 -98 -73 -50 -47 -96 -54 -226 -35 -52 8
-148 15 -215 15 l-121 0 -79 -47 -79 -48 -8 -55 c-6 -42 -15 -62 -39 -87 l-32
-33 42 -173 c23 -94 42 -175 42 -179 0 -3 -20 -14 -45 -23 -34 -14 -59 -16
-110 -10 -65 7 -66 7 -81 45 -13 32 -24 41 -77 64 -45 19 -79 26 -125 26 -56
0 -70 4 -120 37 -31 20 -111 60 -176 88 -117 51 -120 52 -170 41 -44 -10 -54
-17 -73 -51 -19 -34 -23 -55 -23 -142 0 -56 -5 -124 -12 -152 -9 -40 -8 -66 2
-120 11 -60 11 -78 -4 -135 -9 -36 -21 -119 -26 -183 -12 -137 -18 -167 -54
-247 -43 -94 -134 -190 -281 -294 l-130 -93 -50 6 c-27 3 -114 12 -192 19
-139 13 -145 15 -210 54 -52 31 -74 51 -92 86 -30 55 -82 79 -163 74 -52 -3
-53 -3 -69 -47 -13 -35 -24 -47 -52 -59 -35 -13 -37 -16 -31 -51 5 -29 0 -50
-20 -89 l-26 -52 -55 0 -55 0 7 -133 6 -133 -64 -46 c-35 -25 -95 -70 -133
-101 -37 -30 -85 -59 -105 -65 -56 -17 -124 -94 -162 -185 l-32 -77 -107 -57
-108 -58 -14 -65 -14 -65 58 -143 c32 -79 58 -149 58 -155 0 -7 5 -28 10 -47
8 -29 21 -43 74 -73 l65 -38 7 -55 7 -56 -90 -131 c-49 -73 -136 -202 -194
-287 l-106 -155 8 -64 7 -63 -130 -127 c-152 -148 -228 -192 -410 -241 -183
-50 -176 -46 -183 -89 -5 -32 -17 -46 -76 -91 l-70 -54 -137 -15 -137 -15
-135 53 c-74 28 -165 70 -202 92 -58 34 -75 39 -130 40 l-63 1 -68 79 c-57 66
-82 86 -147 119 -75 38 -82 44 -155 145 -76 106 -95 141 -95 173 0 26 126 148
179 173 80 37 82 65 7 107 -29 17 -56 40 -59 51 -3 13 12 43 48 94 45 62 95
162 95 190 0 9 -110 9 -162 1 -26 -5 -39 -13 -44 -28 -4 -11 -25 -52 -47 -89
-33 -57 -49 -73 -91 -94 -157 -78 -247 -146 -281 -211 -13 -26 -37 -67 -54
-91 -28 -42 -36 -47 -123 -73 -119 -36 -241 -38 -354 -7 -81 22 -241 104 -384
197 -47 31 -143 84 -214 119 -116 58 -142 66 -245 83 -106 17 -125 18 -206 5
-50 -7 -107 -21 -129 -30 -21 -9 -68 -22 -105 -28 l-66 -12 -5 -135 c-3 -74
-9 -142 -14 -150 -5 -8 -31 -45 -58 -82 -40 -54 -63 -75 -117 -104 -38 -20
-76 -49 -85 -64 -8 -15 -32 -42 -52 -60 -32 -27 -39 -42 -50 -103 -8 -40 -14
-76 -14 -82 0 -5 35 -26 77 -45 42 -19 109 -55 147 -80 60 -39 279 -130 396
-165 14 -4 70 -29 125 -55 84 -40 112 -59 173 -122 l73 -74 -26 -110 c-14 -60
-28 -117 -31 -126 -4 -13 8 -21 56 -39 55 -20 67 -30 139 -118 l79 -97 72 -11
c59 -9 110 -30 258 -103 208 -102 263 -138 323 -213 44 -56 44 -51 23 -187 -5
-33 -1 -40 92 -134 81 -83 110 -105 175 -135 65 -30 83 -44 111 -86 25 -37 41
-51 68 -57 155 -36 158 -37 177 -84 19 -48 37 -58 94 -52 31 3 36 9 95 121 78
150 97 165 227 178 51 4 166 9 255 9 246 0 339 -28 562 -171 64 -41 143 -87
175 -102 56 -27 65 -36 134 -140 87 -129 100 -161 100 -242 l1 -60 -46 -30
c-26 -18 -62 -56 -86 -93 l-41 -63 14 -61 14 -61 83 -31 c73 -27 86 -36 112
-76 16 -25 49 -59 72 -77 53 -40 113 -43 214 -12 38 12 80 21 94 21 84 -2 450
-95 486 -124 7 -4 14 -22 18 -39 3 -16 22 -72 43 -124 l37 -95 37 0 c22 0 71
16 121 39 133 63 127 64 248 -28 58 -44 120 -100 138 -125 41 -55 106 -81 177
-70 53 7 57 11 108 93 l37 61 60 0 c49 0 245 -37 347 -66 17 -5 28 -24 47 -83
22 -64 86 -320 86 -343 0 -5 15 -8 34 -8 33 0 34 1 51 65 19 70 17 101 -25
334 -11 63 -19 115 -18 116 2 1 39 29 83 62 44 34 135 88 202 122 117 58 126
61 195 61 40 0 100 -6 133 -14 33 -8 91 -17 129 -21 89 -9 303 -100 347 -148
41 -45 44 -65 25 -188 l-17 -109 29 -67 c17 -38 37 -93 46 -125 9 -31 31 -74
51 -98 29 -35 33 -45 25 -66 -18 -45 -32 -68 -75 -116 l-42 -47 -13 -134 -13
-134 46 -72 c26 -39 52 -71 59 -71 17 0 94 24 140 44 20 9 49 33 65 53 15 21
51 65 79 98 77 91 124 166 124 200 1 25 10 37 60 73 32 23 82 51 112 61 123
43 136 51 152 91 14 35 20 39 60 45 37 6 51 15 84 54 25 29 42 61 46 86 4 22
19 62 34 89 25 45 34 53 100 79 67 27 75 34 98 78 35 70 33 151 -8 286 -32
103 -32 106 -13 117 10 6 42 32 70 57 27 25 78 65 112 87 34 23 82 67 107 98
39 47 46 63 46 99 0 38 6 50 50 98 28 30 50 57 50 60 0 2 -39 26 -86 53 l-86
48 7 70 c4 39 18 107 31 151 14 44 29 112 36 150 10 66 14 73 72 135 45 47 81
74 138 102 71 34 81 43 122 106 32 50 57 76 88 93 41 23 43 26 46 76 2 29 -6
86 -19 134 -12 46 -25 136 -30 199 -4 63 -11 122 -14 131 -4 11 14 32 62 71
52 42 73 67 89 106 l22 51 -24 16 c-19 12 -40 14 -102 9 l-77 -6 -72 74 -72
73 30 47 c43 65 68 69 150 22 35 -21 78 -51 96 -67 28 -26 37 -29 85 -26 l53
4 15 -63 15 -62 56 0 55 0 48 65 48 66 -7 72 c-4 39 -16 89 -27 110 -11 22
-35 79 -54 129 l-34 90 15 61 c9 34 27 91 42 127 29 74 33 139 14 223 -11 50
-18 61 -56 87 l-44 31 -50 -26 c-28 -14 -59 -25 -70 -25 -11 0 -41 -18 -67
-41 -75 -65 -74 -65 -230 -30 -212 49 -210 48 -262 100 -40 40 -56 49 -98 55
-33 5 -79 25 -141 62 -99 59 -118 62 -227 44 -49 -8 -67 -17 -100 -49 -36 -35
-47 -40 -95 -42 -46 -3 -56 0 -68 18 -12 18 -11 30 3 84 15 53 26 72 66 110
26 25 48 53 48 64 0 10 16 38 36 61 35 44 36 44 101 44 63 0 68 2 132 49 36
27 89 60 118 75 46 23 54 31 63 68 6 24 13 50 16 58 2 9 30 42 63 74 54 54 64
59 137 76 43 10 82 16 86 14 15 -9 8 -53 -17 -109 -13 -31 -37 -101 -51 -156
-31 -116 -34 -101 58 -349 54 -144 62 -156 151 -231 48 -41 65 -49 98 -49 40
0 42 2 53 52 5 24 2 28 -36 40 -52 18 -75 53 -165 256 -76 172 -79 202 -28
273 19 27 35 57 35 68 0 10 3 33 6 50 6 28 13 33 72 51 l66 20 63 -21 c62 -20
65 -20 113 -3 l50 18 0 60 c0 52 5 69 42 130 22 39 64 105 93 146 28 41 55 80
59 87 9 17 -71 55 -159 77 -144 36 -316 156 -486 343 -68 74 -130 152 -138
172 -8 20 -34 82 -57 137 l-44 102 0 205 c0 194 -1 210 -25 275 -14 38 -25 89
-25 114 0 40 -7 51 -83 143 -80 95 -84 103 -95 168 l-11 68 45 74 45 74 67 3
c78 3 210 -9 226 -21 6 -4 36 -22 67 -39 l55 -31 59 39 c50 33 63 48 77 87 28
81 23 139 -18 208 -20 33 -52 76 -71 97 -35 36 -35 37 -49 175 -7 76 -13 212
-14 303 l0 166 -68 61 c-74 66 -148 107 -257 143 -38 13 -100 36 -137 51 l-66
27 -59 -35z"/>
<path d="M9880 8352 c-57 -24 -69 -34 -97 -82 -25 -40 -33 -66 -33 -100 l0
-45 76 -42 76 -42 51 28 c29 16 96 39 151 52 l99 22 -6 65 c-4 36 -8 66 -9 67
-2 1 -34 25 -72 53 -62 47 -74 52 -120 52 -33 -1 -74 -11 -116 -28z"/>
<path d="M10197 6967 c-28 -7 -39 -15 -44 -36 -9 -30 -8 -129 0 -138 3 -3 19
5 36 16 34 24 54 81 49 135 -3 32 -3 32 -41 23z"/>
</g>
</svg>
