<?xml version="1.0" standalone="no"?>
<!DOCTYPE svg PUBLIC "-//W3C//DTD SVG 20010904//EN"
 "http://www.w3.org/TR/2001/REC-SVG-20010904/DTD/svg10.dtd">
<svg version="1.0" xmlns="http://www.w3.org/2000/svg"
 width="1024.000000pt" height="1024.000000pt" viewBox="0 0 1024.000000 1024.000000"
 preserveAspectRatio="xMidYMid meet">
<metadata>
Created by potrace 1.10, written by Peter Selinger 2001-2011
</metadata>
<g transform="translate(0.000000,1024.000000) scale(0.100000,-0.100000)"
fill="#000000" stroke="none">
<path d="M4572 10228 c-8 -8 -8 -17 -1 -30 15 -27 5 -34 -52 -41 -107 -13
-149 -57 -182 -192 -7 -33 -25 -95 -38 -138 l-23 -78 27 -52 c31 -59 35 -105
11 -114 -9 -3 -29 -33 -45 -67 -35 -74 -39 -150 -11 -187 24 -31 34 -97 26
-170 -6 -56 -8 -59 -55 -87 -50 -32 -89 -91 -89 -135 0 -24 54 -82 99 -107 41
-22 23 -122 -39 -210 -10 -14 -25 -54 -34 -90 -12 -48 -24 -70 -44 -85 -15
-10 -49 -41 -75 -67 -45 -45 -77 -61 -77 -38 0 6 -11 10 -25 10 -24 0 -25 -2
-25 -69 0 -51 -5 -74 -18 -92 -10 -13 -34 -53 -52 -88 -19 -35 -44 -70 -57
-78 -28 -18 -118 -149 -142 -206 -10 -23 -24 -70 -31 -104 -7 -35 -17 -63 -21
-63 -5 0 -9 6 -9 13 0 8 -4 7 -10 -3 -5 -8 -10 -41 -10 -72 0 -31 -5 -60 -10
-63 -6 -4 -19 -24 -30 -45 -15 -30 -27 -40 -57 -47 -35 -8 -38 -12 -41 -48 -2
-22 -9 -47 -17 -55 -58 -67 -95 -260 -95 -497 0 -99 -1 -102 -33 -145 -18 -24
-39 -63 -46 -88 -7 -25 -24 -66 -37 -92 -19 -38 -24 -63 -24 -125 0 -57 -5
-88 -19 -113 -10 -19 -23 -58 -29 -85 -17 -79 -46 -138 -86 -173 -20 -18 -41
-32 -46 -32 -6 0 -10 -7 -10 -16 0 -8 -16 -30 -35 -48 -22 -21 -35 -43 -35
-59 0 -14 -5 -29 -11 -33 -6 -3 -17 -22 -25 -40 -9 -22 -28 -41 -53 -53 -32
-17 -40 -27 -45 -58 -18 -100 -35 -130 -94 -170 -49 -33 -63 -50 -102 -126
-54 -104 -91 -144 -169 -182 -66 -31 -65 -27 -78 -208 l-6 -88 44 -45 c24 -24
49 -44 57 -44 11 0 13 -9 8 -37 -9 -50 -9 -47 4 -213 17 -215 9 -359 -24 -441
-14 -36 -26 -82 -26 -103 0 -21 -13 -62 -30 -96 -23 -46 -30 -73 -30 -119 0
-98 -51 -212 -130 -286 -17 -16 -86 -68 -152 -115 -88 -62 -124 -93 -129 -112
-7 -28 3 -38 41 -38 10 0 31 -11 47 -23 15 -13 80 -47 143 -76 63 -28 138 -67
165 -85 28 -18 66 -36 85 -39 37 -8 102 -47 273 -167 101 -70 115 -84 208
-208 73 -98 102 -144 105 -170 13 -95 27 -171 41 -217 18 -55 71 -155 82 -155
5 0 20 -11 35 -25 21 -20 26 -33 26 -75 0 -50 12 -64 36 -40 8 8 40 -17 105
-78 83 -79 102 -92 155 -107 60 -16 61 -18 92 -78 17 -34 34 -82 37 -106 9
-57 52 -124 103 -161 50 -36 120 -122 192 -235 56 -89 79 -152 80 -217 0 -35
4 -39 48 -61 26 -14 72 -32 102 -42 96 -32 154 -62 196 -102 23 -22 82 -61
133 -87 50 -26 106 -63 124 -83 18 -19 52 -46 77 -58 25 -13 56 -39 69 -59 18
-28 35 -39 79 -51 72 -21 120 -62 146 -123 29 -68 110 -154 176 -187 30 -15
80 -42 110 -60 92 -55 155 -69 315 -66 77 2 144 7 150 12 5 5 24 9 43 9 20 0
74 19 131 46 53 26 115 49 139 52 38 4 51 -1 119 -43 90 -55 143 -63 209 -28
36 18 42 19 79 6 54 -20 134 -12 173 15 28 21 35 22 79 11 26 -7 65 -20 87
-30 41 -18 77 -14 122 16 27 18 71 19 110 4 18 -6 66 -8 129 -3 l101 6 18 44
c51 125 127 202 240 245 l55 21 89 167 c50 91 100 186 112 211 28 56 115 157
143 166 11 3 50 26 87 50 64 41 68 46 72 87 4 34 21 68 68 137 35 50 74 99 87
107 13 8 44 47 70 87 47 70 48 72 47 151 -1 111 -23 175 -92 265 -89 114 -141
196 -158 243 -8 23 -27 53 -43 67 -37 33 -54 113 -58 288 l-4 133 52 72 c28
40 70 91 92 114 l40 41 -7 99 c-4 57 -3 117 3 142 8 38 7 50 -12 84 -12 22
-28 51 -36 65 -8 14 -16 45 -19 70 -4 34 0 50 17 73 20 26 22 39 17 97 -3 37
-9 128 -15 202 -5 74 -12 151 -16 170 -13 62 -71 174 -103 202 -48 40 -70 92
-92 223 -23 140 -26 232 -7 278 8 18 39 54 70 80 l57 49 0 149 c0 146 -1 151
-30 209 -16 33 -30 67 -30 77 0 43 -54 213 -70 218 -9 3 -32 21 -50 40 -35 36
-35 36 -41 153 -5 104 -9 124 -37 182 -18 36 -32 70 -32 77 0 7 -10 18 -22 24
-13 7 -68 56 -123 109 -99 97 -101 98 -200 130 -107 35 -214 98 -238 140 -8
14 -18 41 -22 60 -12 55 -33 78 -99 107 -56 25 -103 63 -261 212 -22 21 -53
63 -68 94 -26 51 -27 60 -16 91 9 26 10 47 1 92 -7 31 -12 83 -12 115 0 54 -2
60 -35 86 -33 27 -34 31 -25 63 6 19 10 63 10 98 0 55 -5 73 -40 136 -49 90
-69 108 -148 136 -65 24 -92 53 -92 100 0 11 -25 54 -55 95 -67 90 -70 99 -80
199 -4 44 -13 97 -21 119 -8 22 -14 55 -14 74 0 20 -15 65 -35 105 -29 57 -34
77 -29 102 11 43 9 50 -38 147 -39 83 -43 88 -103 120 -58 31 -64 37 -79 85
-9 28 -16 55 -16 60 0 10 108 2 146 -11 18 -6 24 1 42 44 12 27 22 54 22 60 0
7 -24 11 -60 11 -33 0 -60 4 -60 10 0 6 50 10 130 10 l130 0 0 30 c0 46 -42
84 -83 76 -117 -24 -131 -24 -166 -3 -41 25 -70 70 -63 100 3 12 38 50 78 85
56 47 81 62 104 62 l31 0 -5 91 c-3 50 -9 96 -14 102 -5 7 -19 39 -32 72 -33
88 -69 156 -101 193 -24 27 -29 42 -29 87 0 50 -2 55 -32 73 -18 11 -51 23
-73 27 -60 10 -100 46 -114 100 -9 38 -15 45 -35 45 -13 0 -26 -7 -30 -15 -4
-11 -20 -15 -56 -15 -50 0 -76 10 -115 41 -11 10 -46 23 -79 30 -36 8 -85 30
-129 58 -39 25 -105 60 -147 76 -59 24 -76 35 -78 53 -5 33 -76 32 -112 -3
-26 -24 -29 -25 -56 -11 -16 8 -41 18 -56 21 -17 3 -33 17 -43 34 -8 16 -24
32 -35 36 -11 4 -20 15 -20 27 0 16 -4 19 -22 13 -55 -17 -69 -17 -86 -1 -14
12 -21 13 -30 4z"/>
</g>
</svg>
