<?xml version="1.0" standalone="no"?>
<!DOCTYPE svg PUBLIC "-//W3C//DTD SVG 20010904//EN"
 "http://www.w3.org/TR/2001/REC-SVG-20010904/DTD/svg10.dtd">
<svg version="1.0" xmlns="http://www.w3.org/2000/svg"
 width="1024.000000pt" height="1024.000000pt" viewBox="0 0 1024.000000 1024.000000"
 preserveAspectRatio="xMidYMid meet">
<metadata>
Created by potrace 1.10, written by Peter Selinger 2001-2011
</metadata>
<g transform="translate(0.000000,1024.000000) scale(0.100000,-0.100000)"
fill="#000000" stroke="none">
<path d="M6320 10225 c-14 -8 -39 -14 -56 -15 -17 0 -37 -7 -45 -16 -7 -8 -26
-22 -43 -31 -17 -8 -47 -33 -67 -54 -45 -48 -87 -52 -143 -14 -55 37 -88 33
-129 -15 -19 -23 -49 -69 -68 -103 -18 -34 -49 -78 -70 -98 -28 -28 -38 -47
-42 -80 -7 -58 -39 -180 -83 -313 l-36 -109 7 -127 7 -127 -32 -57 c-30 -52
-36 -57 -60 -52 -23 4 -36 -3 -73 -39 -38 -36 -50 -57 -68 -117 -28 -96 -43
-118 -77 -118 -29 0 -69 34 -90 76 -7 14 -28 24 -64 33 -85 19 -136 46 -159
86 -12 19 -29 40 -39 45 -15 8 -21 2 -39 -40 -11 -27 -21 -53 -21 -59 0 -6
-10 -11 -22 -11 -35 0 -110 -30 -149 -61 -41 -31 -49 -29 -49 13 0 27 -1 28
-56 28 -59 0 -91 12 -112 42 -10 14 -26 18 -68 18 l-54 0 0 48 c0 27 -7 71
-16 98 -8 27 -21 72 -29 99 -13 49 -100 269 -124 312 -19 36 -81 63 -122 54
-45 -10 -89 -34 -113 -60 -16 -17 -18 -30 -13 -83 10 -99 -11 -109 -77 -39
-28 29 -30 29 -57 15 -24 -12 -49 -41 -49 -58 0 -2 18 -15 39 -27 42 -24 51
-41 51 -106 0 -41 1 -43 30 -43 40 0 87 -35 100 -76 6 -18 20 -36 30 -39 14
-4 20 -17 22 -48 3 -36 9 -46 48 -75 26 -20 48 -46 53 -63 6 -24 12 -28 31
-23 29 7 44 -11 48 -61 3 -35 7 -40 33 -46 17 -3 77 -29 135 -57 87 -42 108
-57 124 -87 11 -19 31 -41 45 -48 42 -20 72 -74 65 -116 -4 -20 -7 -40 -8 -46
0 -5 15 -14 34 -21 30 -10 36 -18 44 -53 6 -28 18 -48 38 -62 23 -17 28 -28
28 -62 0 -26 -7 -48 -19 -61 -28 -30 -47 -209 -30 -278 11 -47 10 -51 -14 -76
-13 -15 -27 -39 -29 -54 -5 -25 -2 -28 20 -28 40 0 92 -40 91 -70 -1 -14 4
-38 10 -54 15 -37 -2 -64 -49 -80 -33 -10 -35 -14 -34 -51 1 -36 49 -189 124
-397 16 -44 24 -80 19 -85 -5 -5 -15 -31 -23 -59 -26 -92 -64 -166 -107 -210
-38 -39 -42 -47 -31 -64 16 -27 15 -50 -4 -71 -12 -13 -13 -22 -5 -38 6 -11
11 -35 11 -54 0 -27 12 -47 65 -105 l65 -73 0 -75 c0 -61 4 -82 21 -105 20
-28 20 -34 9 -157 -6 -70 -15 -144 -19 -166 -5 -21 -7 -62 -4 -92 5 -49 7 -53
19 -35 20 28 44 151 45 229 1 37 4 77 7 89 7 21 9 20 62 -24 88 -73 137 -103
167 -103 21 0 46 -17 101 -72 l73 -72 -5 -140 c-3 -93 -10 -155 -20 -181 -23
-60 -20 -77 24 -120 43 -42 49 -65 25 -85 -12 -10 -21 -10 -41 -1 -33 15 -34
15 -34 -12 0 -17 9 -26 34 -35 67 -24 56 -92 -14 -92 -33 0 -40 3 -40 20 0 29
-55 35 -131 14 -73 -19 -113 -52 -190 -155 -44 -59 -49 -72 -49 -117 0 -61 -9
-71 -121 -136 -78 -46 -79 -47 -79 -87 0 -49 -44 -115 -101 -153 -21 -14 -50
-45 -64 -70 -14 -24 -34 -46 -44 -49 -12 -3 -23 -24 -36 -69 -15 -57 -22 -68
-54 -86 -20 -11 -46 -34 -59 -51 -12 -17 -26 -31 -30 -31 -4 0 -17 18 -30 40
-25 45 -28 46 -79 25 -19 -8 -46 -15 -59 -15 -21 0 -24 -5 -24 -35 0 -35 0
-35 45 -35 38 0 47 -4 56 -24 8 -17 8 -29 0 -45 -10 -19 -20 -21 -87 -21 -74
0 -75 -1 -85 -29 -6 -16 -27 -42 -48 -59 -30 -24 -37 -36 -34 -55 3 -17 -4
-35 -27 -61 -32 -36 -32 -37 -21 -95 13 -67 8 -87 -28 -118 -34 -29 -101 -31
-125 -4 -9 10 -34 21 -54 24 -47 8 -157 -16 -182 -38 -18 -16 -18 -20 -5 -46
8 -15 15 -39 15 -53 0 -30 -128 -257 -169 -301 -19 -20 -30 -45 -34 -74 -3
-27 -15 -53 -31 -70 -24 -25 -25 -28 -9 -44 20 -20 19 -89 -3 -184 l-14 -62
30 -43 c16 -24 36 -68 43 -98 13 -50 12 -61 -7 -136 -25 -94 -19 -146 26 -224
45 -77 50 -135 20 -258 -22 -93 -25 -125 -23 -248 l3 -141 -31 -55 c-17 -30
-31 -64 -31 -76 0 -18 -6 -22 -34 -22 -30 0 -35 -4 -41 -30 -4 -16 -11 -32
-16 -35 -15 -10 -11 -118 6 -141 8 -12 19 -48 24 -80 l9 -59 -44 -45 c-24 -25
-44 -51 -44 -56 0 -6 10 -24 21 -38 19 -24 20 -29 7 -42 -21 -22 -11 -64 19
-75 31 -12 43 -4 43 26 0 29 16 41 24 19 9 -23 68 -12 111 21 30 22 75 34 75
20 0 -3 -9 -23 -20 -45 -25 -49 -25 -51 3 -41 30 12 73 -7 114 -50 41 -44 55
-81 43 -115 -21 -56 -13 -87 38 -137 26 -26 55 -47 65 -47 10 0 17 -8 17 -20
0 -13 -7 -20 -20 -20 -15 0 -20 -7 -20 -26 0 -43 22 -104 41 -115 10 -5 16
-15 13 -22 -2 -7 15 -23 42 -37 l46 -25 17 25 c37 55 103 130 115 130 19 0 56
-44 56 -67 0 -12 -11 -30 -25 -41 -14 -11 -25 -27 -25 -36 0 -20 38 -22 46 -2
7 18 42 9 54 -15 9 -15 5 -19 -24 -24 -28 -6 -36 -14 -49 -46 l-15 -39 52 0
c47 0 56 4 101 45 28 25 57 47 65 50 28 8 265 53 345 65 44 6 96 18 116 25
l37 14 6 -34 c7 -34 9 -35 51 -35 35 0 45 4 45 16 0 9 8 38 17 64 16 45 20 49
67 62 39 10 51 18 56 37 l6 24 16 -25 c26 -39 71 -45 113 -16 22 14 35 31 35
45 0 25 14 29 150 38 82 6 103 4 147 -14 60 -23 70 -18 75 44 2 33 7 41 26 43
14 2 29 -4 36 -13 11 -16 15 -14 39 14 31 37 70 41 103 10 18 -17 29 -20 51
-13 26 7 26 8 6 11 -27 5 -27 6 -8 43 14 28 15 28 62 16 47 -12 50 -12 151 36
120 56 192 64 262 28 36 -18 46 -19 110 -9 39 7 72 10 74 8 9 -9 -30 -146 -52
-185 -34 -58 -83 -72 -287 -83 l-119 -6 28 -19 c36 -23 161 -40 246 -32 64 6
65 6 136 77 61 60 75 82 93 135 12 36 21 84 21 108 0 65 30 124 93 183 30 29
72 82 92 119 20 36 63 93 94 126 52 56 63 62 107 67 l49 6 6 46 c14 95 75 179
149 204 48 16 100 62 100 90 0 16 79 126 136 187 24 26 44 56 44 67 0 11 13
35 29 53 16 18 31 47 35 64 4 16 27 53 51 81 28 31 45 61 45 76 0 16 10 31 28
44 62 40 152 152 193 240 33 68 60 106 124 174 74 78 133 153 189 240 21 35
96 251 96 280 0 11 11 52 25 91 14 39 25 77 25 83 0 7 -34 48 -75 91 -61 64
-75 85 -75 111 0 28 -10 39 -85 98 -47 36 -106 84 -130 105 -28 24 -59 41 -83
45 -92 15 -122 27 -122 50 0 14 -31 54 -87 111 -49 50 -98 108 -110 131 l-22
40 44 33 c28 21 49 46 56 69 7 20 32 74 56 121 47 92 51 113 28 167 -9 21 -13
49 -10 64 6 27 -14 47 -114 112 -64 41 -94 90 -102 165 -5 49 -3 74 7 94 18
36 20 216 2 223 -7 3 -47 8 -88 13 l-75 7 -17 70 c-31 130 -20 187 43 212 22
8 39 18 39 22 -1 30 -37 101 -62 123 l-32 28 22 39 c16 27 22 56 22 97 0 61 9
107 31 160 12 30 11 33 -16 57 l-29 25 73 37 74 37 -6 81 c-8 110 -70 286
-127 358 -22 28 -40 57 -40 65 0 7 -18 55 -39 106 -24 58 -43 123 -50 173 -9
63 -18 89 -43 125 -18 25 -56 80 -84 123 -50 76 -52 81 -59 172 -7 92 -7 93
25 141 37 57 141 244 182 326 18 36 41 66 62 80 40 26 56 73 56 160 0 53 0 54
-79 136 -71 73 -83 93 -124 189 l-45 108 -93 47 c-52 26 -108 52 -126 58 -42
14 -55 33 -58 78 -2 20 -10 69 -19 107 -9 39 -21 98 -27 132 -10 60 -10 64 19
105 16 24 41 77 56 118 16 41 37 95 47 119 11 24 17 46 14 50 -4 3 -31 6 -60
6 -29 0 -56 3 -60 6 -12 12 44 80 100 122 62 45 65 63 24 116 -31 39 -18 128
28 193 19 26 41 51 48 56 7 4 26 35 43 68 35 69 35 69 -13 184 -34 81 -38 86
-83 101 -20 6 -46 19 -57 29 -11 9 -42 25 -69 35 -36 14 -73 44 -148 118 -106
106 -104 101 -82 180 6 20 -3 21 -36 2z"/>
<path d="M4946 5217 c-16 -12 -17 -18 -7 -50 7 -20 25 -45 40 -56 27 -20 28
-20 58 -1 38 23 49 52 33 91 -11 26 -17 29 -59 29 -26 0 -55 -6 -65 -13z"/>
<path d="M3266 3508 c4 -19 21 -47 40 -66 34 -32 54 -35 54 -7 0 7 10 15 23
17 18 2 23 10 25 41 3 35 -9 49 -23 27 -10 -15 -52 -12 -59 5 -3 9 -18 15 -35
15 -29 0 -30 -2 -25 -32z"/>
<path d="M2356 727 c-4 -21 -1 -36 10 -48 14 -15 14 -21 4 -34 -7 -8 -23 -15
-36 -15 -14 0 -54 -6 -89 -12 -60 -12 -66 -15 -76 -45 -14 -45 5 -77 35 -58
30 19 66 3 66 -29 0 -31 34 -56 75 -56 25 0 35 -8 57 -45 18 -29 40 -50 64
-60 46 -19 44 -19 44 9 0 13 14 39 30 56 34 37 36 63 4 68 -14 2 -24 -5 -32
-23 -14 -31 -22 -31 -56 0 -31 29 -38 82 -8 70 59 -23 71 -19 91 25 11 24 17
50 13 59 -11 31 -87 106 -138 138 l-52 31 -6 -31z"/>
</g>
</svg>
