<?xml version="1.0" standalone="no"?>
<!DOCTYPE svg PUBLIC "-//W3C//DTD SVG 20010904//EN"
 "http://www.w3.org/TR/2001/REC-SVG-20010904/DTD/svg10.dtd">
<svg version="1.0" xmlns="http://www.w3.org/2000/svg"
 width="1024.000000pt" height="1024.000000pt" viewBox="0 0 1024.000000 1024.000000"
 preserveAspectRatio="xMidYMid meet">
<metadata>
Created by potrace 1.10, written by Peter Selinger 2001-2011
</metadata>
<g transform="translate(0.000000,1024.000000) scale(0.100000,-0.100000)"
fill="#000000" stroke="none">
<path d="M7354 8899 c-6 -13 -6 -49 -1 -95 5 -40 6 -90 2 -110 l-6 -37 -260 7
c-142 4 -259 6 -259 3 0 -2 54 -53 120 -113 l120 -108 0 -235 0 -235 34 -36
35 -35 -161 -145 c-88 -80 -185 -160 -215 -179 -52 -32 -59 -41 -102 -132 -41
-88 -70 -127 -281 -378 l-235 -281 -154 0 c-117 0 -167 -4 -208 -17 l-53 -17
-43 40 c-23 21 -67 62 -97 91 -69 65 -543 363 -578 363 -5 0 -84 -41 -175 -91
l-167 -91 -1 -76 c0 -87 -12 -169 -25 -182 -5 -5 -81 -14 -169 -21 -131 -10
-169 -17 -207 -36 l-48 -23 0 191 0 192 -482 -7 c-265 -4 -484 -9 -486 -11 -3
-2 -7 -82 -10 -177 -4 -165 -4 -176 17 -217 12 -23 20 -45 17 -48 -3 -3 -157
-1 -343 4 l-338 9 -55 -27 c-61 -31 -198 -79 -245 -86 -28 -4 -208 33 -266 56
-35 13 -83 101 -115 210 -21 73 -33 94 -94 166 -38 45 -94 104 -124 130 l-56
47 7 87 c7 103 13 97 -111 107 -76 6 -88 4 -119 -15 -28 -17 -50 -21 -123 -21
-165 0 -341 -54 -383 -118 -22 -33 -22 -37 -7 -68 26 -56 0 -98 -139 -223
l-120 -107 -3 -130 -4 -129 -59 -48 c-57 -47 -59 -50 -59 -95 0 -31 -7 -55
-20 -72 -23 -30 -26 -112 -9 -220 11 -66 11 -69 -14 -101 -22 -30 -50 -43
-216 -104 l-191 -69 -6 -35 c-6 -28 -3 -37 17 -52 27 -20 27 -18 -49 -100 -29
-31 -33 -41 -27 -71 9 -45 10 -47 83 -98 l62 -43 65 9 c60 9 66 8 87 -12 20
-19 45 -25 174 -40 l152 -18 38 -89 c32 -75 46 -96 87 -128 41 -33 51 -37 73
-29 14 6 31 10 37 10 19 0 54 -62 73 -126 9 -33 19 -64 21 -70 2 -7 -12 -17
-31 -24 l-36 -12 0 -62 0 -63 36 -14 c24 -9 63 -45 118 -109 l81 -94 186 -71
185 -70 155 -170 c125 -136 166 -175 207 -194 29 -14 52 -29 52 -35 0 -5 -14
-25 -31 -42 l-31 -33 7 -93 7 -93 99 -59 100 -58 -31 -54 c-16 -30 -30 -58
-30 -64 0 -5 14 -10 31 -10 23 0 44 -11 75 -40 42 -38 46 -40 111 -40 l68 -1
155 -108 c137 -95 159 -114 191 -167 35 -57 36 -62 42 -184 3 -69 8 -134 12
-146 3 -11 47 -51 96 -89 90 -69 90 -69 65 -82 l-25 -13 28 -63 c27 -61 28
-62 90 -82 45 -15 69 -29 84 -50 11 -17 30 -41 43 -55 13 -15 25 -46 29 -75 4
-33 15 -59 33 -77 24 -26 32 -28 103 -28 l77 0 23 -55 c22 -50 27 -56 51 -52
23 3 29 -3 49 -45 24 -52 29 -54 106 -39 40 8 44 6 66 -22 l23 -29 110 55 c95
48 119 64 161 115 l50 60 43 -34 c45 -36 53 -37 140 -24 55 8 55 8 158 -52 92
-54 104 -59 120 -46 141 118 138 116 157 183 17 64 18 65 51 65 33 0 88 -19
196 -67 l56 -25 7 -79 7 -79 53 -37 c34 -24 51 -42 48 -53 -3 -10 25 -36 86
-80 87 -62 92 -68 111 -126 l21 -61 151 -44 c118 -34 152 -48 159 -64 4 -11
11 -60 14 -109 l7 -89 77 7 c62 5 79 10 93 28 9 13 18 21 20 18 3 -3 22 -27
43 -55 22 -27 42 -54 46 -59 4 -5 24 24 44 63 l36 72 83 39 c46 21 106 41 134
45 47 6 60 3 180 -50 l129 -56 66 40 c36 22 83 49 105 60 l41 21 55 -51 c31
-28 56 -57 56 -65 0 -29 170 -124 222 -124 4 0 8 15 8 34 0 32 7 39 93 100
l92 66 131 0 131 0 137 61 136 60 72 -56 72 -57 156 7 155 7 370 368 370 369
485 10 c267 6 572 14 678 17 l193 6 -23 29 c-113 140 -106 127 -123 244 l-15
110 22 17 c13 10 27 18 32 18 5 0 6 21 2 48 -3 26 -2 63 4 82 9 31 7 37 -20
65 -23 24 -56 39 -138 64 l-108 33 -75 -41 -76 -41 -20 23 c-12 12 -24 43 -28
69 -7 47 -9 49 -90 100 l-82 51 -57 114 c-52 105 -56 118 -56 183 0 65 -3 75
-40 135 -57 90 -128 252 -141 321 -23 127 -63 169 -179 194 l-60 13 0 50 c0
45 -3 52 -42 88 -33 29 -52 38 -79 39 -89 1 -97 6 -141 95 -38 76 -45 84 -99
114 -58 32 -59 33 -59 77 0 42 -3 48 -67 106 -38 34 -104 98 -148 143 -70 73
-85 83 -125 89 -25 4 -71 16 -103 28 -57 20 -59 20 -116 3 l-58 -17 -43 28
c-40 27 -51 29 -127 27 -82 -1 -83 -1 -89 25 -3 15 -10 42 -14 60 -5 20 -5 44
0 58 13 34 85 126 109 142 12 7 21 23 21 37 0 14 5 34 12 44 9 14 8 23 -5 42
-28 40 -22 90 16 126 31 30 37 32 181 47 166 17 159 18 251 -48 l50 -37 30 36
c23 27 38 35 63 35 79 0 115 18 161 82 l44 60 -17 321 c-9 177 -19 342 -22
367 l-6 45 -95 45 c-108 51 -139 84 -149 160 -5 43 -3 49 60 135 36 49 66 92
66 95 0 12 -40 233 -42 235 -2 2 -18 7 -37 12 -30 8 -38 17 -62 73 -23 54 -43
80 -122 155 -52 50 -116 118 -141 153 l-47 62 -68 0 c-65 0 -68 1 -105 39
l-38 39 17 30 c18 29 17 36 -39 333 -31 167 -56 316 -56 331 0 15 11 67 25
114 23 79 38 168 52 314 3 30 14 67 25 82 l18 27 -42 5 c-45 6 -347 26 -384
26 -12 0 -25 -9 -30 -21z"/>
</g>
</svg>
