<?xml version="1.0" standalone="no"?>
<!DOCTYPE svg PUBLIC "-//W3C//DTD SVG 20010904//EN"
 "http://www.w3.org/TR/2001/REC-SVG-20010904/DTD/svg10.dtd">
<svg version="1.0" xmlns="http://www.w3.org/2000/svg"
 width="1024.000000pt" height="1024.000000pt" viewBox="0 0 1024.000000 1024.000000"
 preserveAspectRatio="xMidYMid meet">
<metadata>
Created by potrace 1.10, written by Peter Selinger 2001-2011
</metadata>
<g transform="translate(0.000000,1024.000000) scale(0.100000,-0.100000)"
fill="#000000" stroke="none">
<path d="M914 9762 c-55 -21 -114 -48 -132 -60 -42 -31 -169 -82 -200 -82 -14
0 -51 -5 -82 -12 -55 -11 -56 -11 -131 30 -43 24 -88 42 -105 41 -16 0 -76
-19 -133 -42 -125 -50 -120 -41 -128 -237 -5 -130 -4 -143 32 -310 36 -166 40
-176 70 -203 23 -18 42 -51 61 -100 39 -103 68 -161 127 -249 42 -64 58 -80
94 -93 38 -15 53 -30 115 -123 77 -114 286 -473 472 -810 96 -173 131 -250
215 -469 97 -252 105 -268 209 -430 147 -228 306 -526 298 -558 -5 -20 8 -36
82 -107 71 -66 98 -100 135 -169 28 -54 65 -105 98 -136 55 -53 52 -46 79
-218 5 -33 10 -95 10 -138 0 -75 -1 -77 -20 -67 -14 8 -26 8 -40 0 -26 -14
-26 -47 1 -228 20 -130 20 -146 7 -181 -14 -34 -13 -42 4 -85 10 -26 25 -91
33 -145 8 -54 17 -105 20 -112 3 -8 -3 -40 -14 -72 -20 -57 -20 -57 0 -173 11
-63 33 -148 49 -188 16 -41 36 -102 45 -136 9 -35 33 -88 54 -119 74 -109 88
-147 96 -262 6 -90 4 -112 -10 -140 -15 -28 -16 -42 -6 -100 6 -37 11 -126 11
-196 l0 -129 40 -83 c42 -88 52 -141 24 -141 -13 0 -15 -8 -9 -42 17 -112 15
-108 67 -140 43 -27 55 -42 98 -129 28 -54 50 -101 50 -103 0 -3 -12 -6 -27
-8 -27 -3 -28 -6 -31 -61 -3 -50 1 -64 22 -91 19 -25 28 -54 36 -122 19 -141
62 -250 162 -410 63 -102 88 -151 88 -174 0 -25 13 -47 59 -99 33 -37 63 -81
68 -98 5 -21 33 -55 83 -99 117 -106 430 -436 444 -469 l13 -30 35 38 c33 36
38 38 114 44 113 8 120 15 144 148 6 32 17 55 30 64 11 7 20 21 20 30 0 9 9
35 19 57 15 32 27 45 56 54 56 19 82 7 96 -43 15 -57 20 -61 88 -82 78 -23 89
-45 50 -102 -35 -51 -37 -82 -4 -113 15 -14 29 -44 36 -76 14 -60 25 -65 101
-42 37 11 40 10 71 -20 28 -27 44 -33 105 -41 72 -9 83 -14 132 -57 29 -25 74
-32 227 -36 104 -2 114 -1 136 20 15 14 36 22 58 22 19 0 58 7 88 15 71 18
138 7 163 -28 55 -75 50 -73 115 -59 33 6 73 12 89 12 43 0 54 16 47 66 -8 60
6 74 73 74 50 0 54 2 70 32 35 70 87 128 114 128 61 0 245 64 270 95 11 13 44
937 90 2535 17 580 39 1348 50 1705 11 358 20 676 20 708 l0 59 368 -3 c358
-3 367 -3 369 16 12 103 113 2579 113 2758 l0 25 173 7 c152 6 204 13 442 61
343 70 1176 226 1181 222 1 -2 12 -41 24 -88 13 -52 35 -106 56 -137 29 -45
34 -61 34 -111 0 -46 4 -63 19 -76 30 -27 78 -13 98 29 12 26 30 39 78 60 53
22 65 32 81 67 43 96 67 121 190 199 l119 75 132 12 c88 8 149 19 185 33 37
15 88 24 170 29 109 7 120 10 152 36 19 16 35 32 35 36 1 3 -17 29 -38 56 -37
46 -47 52 -136 82 -88 29 -102 31 -177 25 -76 -7 -86 -5 -213 35 l-133 43
-253 -56 c-140 -31 -312 -67 -384 -81 -71 -14 -274 -57 -450 -95 -365 -81
-980 -201 -1029 -201 -19 0 -53 8 -77 17 -37 15 -76 17 -234 17 -104 -1 -218
-6 -252 -12 -60 -10 -65 -9 -150 25 -128 52 -177 63 -284 63 -93 0 -645 46
-659 55 -4 2 -53 9 -110 14 -154 15 -181 31 -381 233 l-166 168 -1599 0 -1600
0 -34 -25 c-63 -47 -182 -28 -268 42 -38 31 -62 43 -85 43 -40 0 -48 6 -79 55
-14 22 -50 67 -81 100 l-55 60 -82 -2 c-56 -1 -92 3 -111 13 -44 22 -96 16
-205 -24z"/>
</g>
</svg>
