<?xml version="1.0" standalone="no"?>
<!DOCTYPE svg PUBLIC "-//W3C//DTD SVG 20010904//EN"
 "http://www.w3.org/TR/2001/REC-SVG-20010904/DTD/svg10.dtd">
<svg version="1.0" xmlns="http://www.w3.org/2000/svg"
 width="1024.000000pt" height="1024.000000pt" viewBox="0 0 1024.000000 1024.000000"
 preserveAspectRatio="xMidYMid meet">
<metadata>
Created by potrace 1.10, written by Peter Selinger 2001-2011
</metadata>
<g transform="translate(0.000000,1024.000000) scale(0.100000,-0.100000)"
fill="#000000" stroke="none">
<path d="M4714 9276 c-3 -8 -17 -22 -30 -31 -24 -15 -28 -15 -71 10 -38 23
-49 25 -69 16 -29 -13 -30 -28 -4 -61 24 -31 24 -39 4 -61 -13 -15 -27 -17
-78 -12 -50 4 -71 1 -111 -16 -43 -18 -59 -20 -113 -13 -52 7 -78 5 -148 -13
-91 -24 -114 -20 -152 24 -14 16 -26 18 -73 14 l-56 -5 5 -44 c4 -40 3 -43
-23 -50 -15 -4 -54 -4 -86 -1 -57 5 -61 4 -95 -28 -50 -47 -74 -50 -168 -22
-45 14 -132 32 -194 40 -103 13 -119 13 -163 -1 -39 -13 -56 -14 -79 -5 -24 9
-39 8 -72 -5 l-41 -16 -34 39 c-18 21 -37 53 -41 69 -12 45 -54 47 -110 6 -36
-26 -50 -30 -106 -30 -64 0 -96 -14 -96 -43 0 -7 -14 -32 -30 -57 -17 -26 -30
-58 -30 -76 0 -18 -8 -38 -19 -48 -11 -10 -23 -36 -26 -58 -5 -27 -14 -42 -30
-50 -28 -13 -44 -46 -38 -79 2 -16 -8 -43 -31 -80 -30 -47 -40 -56 -60 -52
-17 4 -33 -5 -60 -32 -35 -35 -37 -40 -35 -93 3 -83 -24 -159 -72 -202 l-39
-35 -25 -165 c-38 -247 -54 -288 -152 -394 -44 -48 -68 -83 -76 -113 -7 -29
-41 -80 -103 -157 -51 -63 -95 -127 -98 -143 -5 -19 -20 -37 -47 -53 -30 -18
-72 -68 -152 -180 -60 -85 -160 -213 -221 -285 -61 -71 -127 -150 -146 -175
-19 -25 -89 -102 -156 -171 -94 -99 -125 -138 -139 -177 l-18 -50 -271 -106
c-149 -58 -284 -106 -300 -106 -16 0 -53 -8 -83 -17 -65 -20 -69 -42 -15 -78
21 -14 51 -47 67 -75 16 -27 32 -50 36 -50 3 0 17 28 30 63 l25 62 52 3 c45 3
61 -2 103 -27 27 -17 61 -31 74 -31 34 0 95 -40 129 -85 16 -21 40 -69 53
-109 14 -39 35 -82 48 -96 15 -17 24 -43 29 -80 3 -30 11 -57 17 -59 35 -11
121 -97 166 -164 40 -62 52 -89 56 -130 8 -81 28 -141 54 -161 24 -17 24 -17
18 11 l-6 28 17 -30 c13 -21 17 -47 15 -92 l-2 -61 35 -13 c20 -7 36 -18 36
-25 0 -6 7 -18 16 -25 15 -12 16 -43 12 -276 -3 -198 -1 -260 8 -253 7 6 13
57 16 127 5 116 6 118 36 143 29 24 61 84 75 140 5 20 16 28 49 37 41 11 41
11 20 -5 -12 -9 -32 -38 -45 -64 -22 -43 -22 -48 -7 -48 9 0 25 -9 35 -20 29
-32 66 -25 110 21 22 23 60 55 85 73 59 40 134 122 120 131 -5 3 -10 18 -10
32 l0 26 21 -27 c26 -33 79 -37 79 -6 0 26 43 37 73 18 19 -13 33 -13 97 -2
64 11 78 11 98 -2 38 -25 21 -55 -19 -33 -17 8 -36 8 -80 -1 -50 -11 -64 -10
-97 3 -42 17 -52 14 -52 -14 0 -17 -27 -29 -66 -29 -11 0 -36 -16 -55 -36 -18
-20 -53 -49 -76 -65 -31 -22 -43 -37 -43 -54 0 -29 5 -30 40 -10 29 17 70 20
70 5 0 -5 9 -10 20 -10 13 0 20 7 20 19 0 10 11 26 24 35 22 14 29 14 63 1 38
-13 38 -14 8 -14 -63 -2 -75 -10 -75 -51 0 -21 -6 -43 -14 -49 -8 -6 -16 -24
-19 -39 -3 -15 -16 -55 -28 -90 -12 -34 -19 -65 -16 -68 10 -10 44 19 54 47
17 43 33 35 33 -16 0 -40 -3 -45 -22 -45 -31 0 -41 -9 -53 -45 -10 -28 -13
-29 -58 -26 -58 3 -62 -14 -7 -30 47 -14 50 -31 15 -83 -23 -33 -23 -36 -5
-36 33 0 32 -35 -2 -114 -29 -69 -36 -77 -68 -86 -19 -5 -43 -10 -52 -10 -12
0 -18 -8 -18 -23 0 -27 17 -47 35 -41 7 3 18 -8 24 -25 12 -28 16 -29 89 -35
130 -10 1722 -60 1727 -54 3 3 25 58 48 122 l42 118 105 43 104 43 69 -35 69
-34 127 50 c142 58 181 62 266 30 31 -12 66 -18 78 -15 14 4 60 -11 130 -41
128 -55 158 -88 167 -182 5 -53 7 -56 65 -102 l60 -47 79 44 79 44 112 -35
113 -35 22 -73 c11 -39 23 -79 26 -87 2 -8 37 -37 76 -65 61 -42 84 -52 143
-61 64 -10 75 -9 135 13 36 13 90 38 120 55 78 44 155 68 219 68 31 1 85 7
121 15 50 10 76 11 113 2 54 -12 59 -18 170 -178 l66 -96 -87 -85 c-84 -82
-89 -85 -144 -92 -31 -3 -94 -15 -140 -26 -46 -11 -100 -20 -121 -20 -31 0
-49 -9 -90 -44 -43 -36 -64 -46 -124 -59 l-73 -14 -37 28 c-36 27 -44 28 -139
29 l-100 0 -56 50 c-33 30 -79 58 -114 71 -33 12 -78 35 -101 50 -46 32 -63
34 -127 18 -41 -10 -45 -9 -121 37 -47 28 -85 60 -96 79 -24 41 -118 85 -180
85 -80 1 -114 16 -231 103 -96 73 -118 95 -138 137 -21 45 -27 50 -55 50 -23
0 -53 -15 -101 -50 l-68 -50 -31 -112 -30 -113 -75 -37 c-67 -33 -83 -37 -157
-37 -76 -1 -89 2 -158 36 l-75 37 -79 -39 -80 -39 -93 21 c-77 18 -97 19 -118
9 -16 -8 -49 -11 -92 -8 -38 2 -68 3 -69 1 0 -2 -6 -68 -14 -147 -7 -79 -16
-146 -19 -149 -5 -6 -1093 19 -1446 33 -128 5 -153 4 -142 -7 18 -20 15 -27
-19 -45 -26 -13 -30 -20 -26 -42 3 -16 -3 -39 -17 -61 -12 -20 -27 -48 -33
-63 -21 -47 -93 -325 -93 -356 0 -16 -6 -32 -14 -35 -7 -3 -16 -23 -20 -44 -4
-21 -9 -51 -12 -68 l-5 -30 15 25 15 25 1 -36 c0 -22 -7 -42 -17 -50 -14 -12
-43 -68 -43 -84 0 -12 28 -3 62 20 20 14 48 25 62 25 16 0 26 6 26 14 0 18 86
67 104 60 8 -3 32 4 55 15 64 33 71 29 71 -34 0 -53 -1 -55 -44 -84 -24 -17
-46 -37 -50 -46 -8 -22 -26 -9 -26 19 0 22 -2 23 -82 18 -83 -4 -83 -4 -120
-45 l-38 -42 6 -75 c5 -62 3 -78 -9 -89 -9 -7 -13 -19 -10 -27 6 -15 58 -20
67 -6 3 5 46 33 95 63 76 45 91 58 91 80 0 37 18 49 75 49 43 0 55 -4 79 -29
32 -33 71 -44 87 -25 17 21 29 17 29 -10 0 -14 11 -33 25 -44 14 -11 25 -27
25 -35 0 -18 46 -54 75 -58 26 -4 65 18 65 36 0 11 13 15 50 15 57 0 64 -13
27 -48 -16 -15 -42 -24 -84 -28 -52 -6 -68 -3 -121 21 -47 21 -72 26 -102 22
l-40 -5 -30 64 c-17 35 -37 64 -43 64 -7 0 -37 -24 -66 -54 -29 -30 -70 -62
-91 -71 -43 -19 -50 -41 -50 -159 0 -55 -3 -67 -12 -58 -7 7 -15 33 -18 59 -5
44 -7 48 -38 54 -18 4 -42 15 -53 25 -19 17 -20 17 -41 -4 -29 -29 -37 -99
-21 -189 18 -95 54 -153 97 -153 17 0 78 -2 136 -5 58 -2 165 -5 238 -6 l132
-1 174 94 173 94 52 -17 c47 -16 61 -17 168 -4 l117 13 59 -29 c53 -27 64 -29
125 -24 50 5 106 0 222 -20 85 -14 166 -26 180 -27 14 0 219 101 456 225 l431
224 1034 -62 c569 -35 1270 -77 1559 -95 l525 -31 55 -28 c50 -26 58 -27 85
-15 46 20 112 17 146 -7 21 -15 37 -19 59 -14 18 4 50 0 80 -10 42 -14 55 -14
84 -4 31 11 38 11 56 -6 30 -27 25 -66 -15 -112 -32 -38 -35 -46 -35 -106 l0
-64 38 -7 c20 -3 50 -6 66 -6 18 0 40 -10 56 -25 24 -23 30 -24 58 -14 l32 11
0 79 c0 76 1 79 28 93 29 15 29 14 93 -50 35 -36 80 -74 99 -84 19 -10 46 -30
59 -44 23 -24 31 -26 110 -26 l86 0 68 -60 c38 -33 72 -60 76 -60 4 0 31 7 61
16 55 16 58 16 183 -17 35 -9 41 -17 68 -77 17 -37 32 -68 33 -70 2 -2 80 20
172 49 156 48 172 54 209 93 38 40 45 43 172 70 l131 29 74 -40 c69 -38 76
-40 142 -35 41 3 83 -1 106 -8 35 -12 53 -9 204 29 139 34 181 41 263 41 83
-1 105 -5 143 -24 45 -24 45 -24 82 -5 27 14 35 23 31 38 -3 13 2 21 16 26 21
6 21 6 -3 38 -13 18 -30 49 -37 71 -10 27 -24 43 -51 57 -25 13 -38 26 -38 39
0 11 3 20 8 20 4 0 22 9 40 20 l34 21 -26 34 c-14 18 -26 43 -26 54 0 11 -4
31 -9 44 -8 20 -4 34 19 71 27 42 33 46 70 46 38 0 52 12 30 25 -5 3 -10 37
-10 74 0 38 -7 88 -15 111 -12 34 -13 50 -4 81 10 32 19 41 60 58 43 17 49 24
49 49 0 36 -19 92 -31 92 -4 0 -13 -9 -19 -20 -13 -24 -66 -29 -57 -6 15 39
17 86 5 133 -11 40 -23 59 -53 83 -21 17 -47 44 -57 61 -10 16 -25 32 -33 35
-13 5 -13 9 0 27 19 28 19 67 -1 95 -9 13 -13 29 -10 37 7 19 -13 85 -35 117
-11 14 -19 41 -19 60 0 53 -23 78 -65 71 -24 -4 -41 -1 -53 9 -9 9 -27 19 -39
22 -13 4 -23 14 -23 22 0 10 -85 64 -102 64 -2 0 -2 -17 0 -38 3 -28 -1 -42
-17 -56 -12 -11 -21 -30 -21 -43 0 -20 -5 -23 -34 -23 -30 0 -35 -4 -41 -30
-5 -23 -12 -30 -30 -30 -20 0 -25 7 -31 37 -4 21 -18 57 -31 80 -23 40 -23 42
-7 80 27 63 20 108 -26 169 -22 30 -53 60 -69 68 -34 18 -78 74 -87 112 -4 16
-20 46 -37 67 -32 42 -68 174 -49 186 5 3 52 34 104 69 l96 63 11 88 c16 128
16 133 -29 184 -23 25 -47 65 -55 89 -14 42 -14 46 38 207 50 156 53 168 44
225 -10 76 -30 105 -90 134 -45 21 -47 24 -47 63 0 54 -31 96 -87 120 -65 28
-79 51 -88 139 -13 134 -11 146 17 175 15 14 45 51 69 81 39 51 41 57 37 106
-4 39 -11 56 -29 69 -69 52 -77 61 -87 101 -10 37 -18 47 -59 68 -36 19 -50
33 -57 57 -7 21 -18 34 -34 38 -13 3 -61 26 -107 51 -67 36 -85 50 -89 72 -3
15 -11 56 -17 92 -14 75 -39 109 -110 146 -64 32 -118 85 -125 123 -5 25 -11
31 -33 31 -14 -1 -44 -7 -66 -15 -54 -20 -65 -19 -65 7 0 13 -23 44 -60 79
-33 33 -62 70 -66 86 -14 65 -13 64 -49 57 -31 -5 -35 -3 -60 36 -40 63 -40
65 5 79 37 11 40 15 40 46 0 30 -5 37 -37 53 -21 11 -51 22 -66 26 -38 9 -69
75 -56 120 9 32 -11 127 -33 154 -7 8 -39 12 -91 12 -77 0 -83 1 -114 32 l-32
31 24 29 c37 43 32 72 -22 134 -41 46 -53 54 -83 54 -68 1 -80 8 -80 51 0 25
9 52 26 76 l26 38 -46 42 c-33 29 -46 49 -46 68 0 26 2 26 40 20 36 -6 40 -5
40 14 0 12 -8 24 -17 27 -90 29 -113 59 -113 147 0 54 -3 62 -40 106 -35 41
-40 54 -40 97 0 63 -46 148 -86 158 -14 4 -38 16 -53 27 -23 17 -31 18 -54 8
-36 -16 -57 -6 -57 30 0 27 4 31 43 38 33 7 43 13 45 31 3 20 0 22 -25 17 -15
-4 -44 -13 -64 -20 -28 -10 -46 -11 -73 -4 -32 9 -43 7 -84 -17 -99 -56 -227
-10 -156 57 49 46 16 72 -41 33 -20 -13 -49 -24 -66 -24 -39 0 -86 -25 -94
-50 -10 -31 -35 -24 -51 16 -12 28 -13 43 -5 67 14 40 14 47 -4 47 -28 0 -60
22 -82 55 -20 30 -27 34 -51 29 -41 -8 -50 20 -17 51 l26 23 -28 21 -28 22 23
15 c12 9 22 22 22 30 0 18 -38 37 -61 31 -14 -4 -24 3 -34 23 -8 16 -25 37
-38 47 -13 10 -27 30 -30 44 -4 16 -25 38 -57 58 -52 34 -62 58 -35 81 14 12
13 16 -11 42 -15 15 -38 28 -50 28 -14 0 -30 14 -48 40 -32 49 -62 53 -71 10
-4 -16 -13 -30 -21 -30 -18 0 -28 41 -21 91 6 44 -11 61 -38 39 -38 -31 -61
23 -29 68 9 13 14 24 13 26 -2 1 -26 9 -54 19 -92 32 -191 19 -248 -32 -18
-15 -21 -14 -44 13 l-25 29 -50 -18 c-35 -12 -53 -14 -60 -7 -8 8 -17 8 -30 1
-14 -7 -24 -7 -34 2 -13 10 -13 14 1 29 8 9 15 20 15 23 0 13 -46 7 -66 -8
-10 -8 -33 -15 -50 -15 -21 0 -36 -7 -46 -21 -12 -19 -17 -20 -37 -10 -16 9
-19 16 -12 24 6 9 4 20 -9 37 l-18 24 -19 -23 c-16 -19 -23 -22 -39 -14 -10 6
-33 9 -50 6 -20 -3 -35 1 -43 11 -15 18 -51 22 -51 6 0 -5 -15 -10 -34 -10
-27 0 -39 7 -56 30 -17 23 -29 30 -56 30 -21 0 -37 -6 -40 -14z"/>
<path d="M1481 4434 c-25 -7 -54 -23 -66 -34 -23 -21 -89 -28 -100 -10 -10 16
-52 11 -89 -11 -31 -18 -36 -26 -36 -59 0 -45 18 -63 55 -54 26 6 26 5 15 -16
-6 -12 -10 -39 -8 -60 2 -21 0 -36 -4 -34 -5 3 -8 11 -8 17 0 7 -9 23 -19 36
-13 18 -23 22 -40 16 -22 -7 -23 -10 -16 -74 4 -36 13 -73 21 -82 8 -8 14 -25
14 -37 0 -12 3 -22 8 -22 11 0 74 40 99 62 12 11 44 28 72 37 45 14 56 24 105
95 52 74 55 77 66 56 12 -21 13 -20 32 31 11 30 22 72 25 95 4 36 2 41 -22 52
-32 15 -47 14 -104 -4z"/>
<path d="M1407 4068 c-61 -42 -90 -83 -95 -133 -9 -82 -6 -122 11 -148 16 -25
19 -26 40 -13 12 8 39 18 59 21 29 6 43 16 59 44 12 20 31 45 41 57 18 20 18
21 -2 39 -26 24 -25 41 5 81 29 38 30 44 10 44 -9 0 -27 11 -41 25 -14 14 -26
25 -27 24 -1 0 -28 -19 -60 -41z"/>
</g>
</svg>
