<?xml version="1.0" standalone="no"?>
<!DOCTYPE svg PUBLIC "-//W3C//DTD SVG 20010904//EN"
 "http://www.w3.org/TR/2001/REC-SVG-20010904/DTD/svg10.dtd">
<svg version="1.0" xmlns="http://www.w3.org/2000/svg"
 width="1024.000000pt" height="1024.000000pt" viewBox="0 0 1024.000000 1024.000000"
 preserveAspectRatio="xMidYMid meet">
<metadata>
Created by potrace 1.10, written by Peter Selinger 2001-2011
</metadata>
<g transform="translate(0.000000,1024.000000) scale(0.100000,-0.100000)"
fill="#000000" stroke="none">
<path d="M6323 10227 l-23 -13 25 -36 c14 -20 25 -41 25 -45 0 -4 -23 -25 -51
-45 -35 -26 -62 -38 -84 -38 -26 0 -39 -8 -69 -45 -36 -43 -38 -44 -104 -47
-61 -3 -67 -5 -70 -25 -2 -13 -6 -23 -9 -23 -7 0 -162 95 -184 112 -8 7 -31
41 -50 76 l-36 62 -32 -40 c-26 -32 -30 -43 -21 -59 14 -27 59 -61 80 -61 25
0 106 -66 167 -136 l51 -60 -29 -71 -30 -71 32 -46 c32 -45 33 -48 22 -99 -6
-28 -8 -53 -4 -55 57 -24 87 -51 104 -97 28 -76 60 -105 119 -105 47 0 48 1
84 58 40 63 112 142 129 142 16 0 52 -40 64 -73 8 -21 7 -35 -5 -61 -19 -38
-7 -94 17 -87 8 2 21 6 30 8 17 5 39 -40 39 -79 0 -27 38 -78 57 -78 12 0 14
7 10 30 -6 26 -2 32 23 45 44 23 55 50 28 69 -19 14 -24 14 -38 1 -22 -20 -37
-19 -50 4 -9 18 -3 21 73 39 l82 19 20 -22 c11 -13 38 -32 59 -43 37 -18 38
-20 17 -27 -23 -7 -45 -49 -37 -72 3 -7 16 -13 30 -13 29 0 66 -42 66 -77 0
-25 -3 -24 73 -8 23 5 29 1 37 -20 12 -31 13 -85 3 -85 -5 1 -19 7 -32 14 -25
14 -51 11 -51 -4 0 -4 15 -19 33 -33 31 -23 38 -25 75 -15 l42 10 0 72 c-1 39
-7 97 -14 128 -10 40 -11 69 -4 101 8 39 5 56 -27 148 -20 57 -39 112 -42 122
-3 10 6 35 21 57 26 40 26 41 12 93 -8 28 -18 74 -22 101 -4 33 -14 55 -30 69
-13 11 -24 26 -24 33 0 24 21 26 44 5 17 -16 25 -18 34 -9 17 17 15 35 -10 68
-20 28 -26 30 -90 30 -56 0 -85 7 -152 34 -46 19 -92 32 -103 30 -17 -5 -22 0
-26 28 -3 18 -8 43 -12 55 -6 19 -2 25 21 33 33 13 44 26 44 57 0 34 -17 37
-51 9 -16 -14 -47 -30 -69 -36 -33 -9 -46 -7 -92 13 -43 19 -55 30 -66 60 -15
41 -17 42 -49 24z"/>
<path d="M5684 9279 c-10 -12 -80 -51 -154 -87 -74 -35 -146 -73 -160 -82 -14
-9 -56 -28 -95 -40 -79 -26 -209 -30 -315 -9 -56 11 -59 13 -62 43 -2 24 -8
32 -26 34 -26 4 -46 44 -39 80 4 18 -3 26 -41 42 -24 11 -64 20 -87 20 -39 0
-47 -5 -87 -49 -24 -26 -62 -58 -85 -69 -30 -16 -43 -30 -48 -52 -9 -41 -18
-44 -73 -26 -70 23 -209 39 -274 32 -31 -4 -85 -15 -121 -25 -58 -16 -74 -16
-158 -5 -91 13 -99 12 -249 -17 -85 -16 -171 -35 -190 -41 -48 -15 -125 -87
-122 -113 2 -12 -8 -31 -23 -45 -14 -13 -25 -28 -25 -34 0 -5 -12 -23 -27 -38
-21 -22 -36 -28 -69 -28 -72 0 -90 -12 -108 -72 -10 -35 -13 -72 -9 -111 5
-49 10 -61 35 -78 15 -11 35 -33 43 -48 8 -16 27 -34 43 -40 l29 -12 6 -121
c13 -226 10 -264 -20 -316 -15 -26 -40 -62 -56 -81 -29 -34 -29 -37 -24 -111
5 -65 3 -81 -14 -108 -25 -43 -20 -74 47 -290 30 -95 54 -186 54 -203 0 -25
-7 -32 -61 -60 -52 -26 -60 -33 -55 -52 3 -12 6 -30 6 -40 0 -18 2 -17 34 2
48 30 96 28 128 -6 20 -22 27 -42 31 -91 4 -54 12 -73 46 -122 24 -35 41 -70
41 -87 0 -35 14 -58 29 -49 7 4 11 -1 11 -13 0 -11 -4 -23 -10 -26 -21 -13 -8
-33 31 -49 l40 -16 -6 -54 -7 -54 41 -7 c40 -7 41 -8 41 -46 0 -42 18 -59 64
-59 24 0 26 -4 26 -40 0 -27 8 -52 23 -71 18 -25 22 -42 20 -92 -1 -36 4 -72
13 -88 7 -15 14 -52 15 -81 0 -29 1 -84 1 -123 1 -38 -4 -108 -11 -154 -14
-93 -6 -146 32 -209 17 -29 19 -45 14 -113 -6 -69 -3 -89 18 -148 14 -38 25
-82 25 -99 0 -48 -39 -143 -74 -182 -44 -47 -92 -126 -111 -180 -33 -95 -69
-170 -81 -170 -26 0 -23 -19 5 -36 23 -14 29 -23 26 -43 -29 -189 -20 -169
-173 -384 -98 -138 -110 -158 -114 -205 -6 -58 -31 -90 -56 -69 -10 8 -16 7
-23 -4 -6 -10 -3 -17 11 -23 16 -7 20 -19 20 -55 0 -25 7 -84 15 -131 19 -109
19 -110 -7 -110 -22 -1 -22 -1 5 -23 19 -16 27 -32 27 -53 0 -17 20 -74 44
-126 24 -51 52 -120 61 -151 13 -46 33 -75 108 -160 105 -119 173 -171 237
-184 41 -8 51 -16 110 -93 35 -47 83 -101 105 -120 55 -47 197 -232 301 -392
104 -159 93 -146 104 -128 5 8 5 21 -1 32 -6 10 -25 54 -43 97 -39 90 -36 112
12 92 37 -16 66 -81 113 -258 30 -114 37 -128 195 -394 89 -151 191 -336 225
-410 l61 -134 7 -200 7 -200 68 -168 c59 -148 73 -193 100 -307 7 -28 135
-261 136 -245 0 6 -9 47 -20 93 -33 136 -31 143 56 262 42 58 143 173 224 255
82 83 227 241 323 353 l175 203 -23 52 c-27 58 -34 170 -21 307 4 41 3 104 -2
140 -8 54 -6 74 9 119 24 69 24 74 -6 120 l-24 39 61 189 c60 187 61 189 63
323 3 134 4 136 54 278 28 79 51 153 51 165 0 12 -8 49 -18 82 -17 56 -18 71
-5 230 8 94 16 241 18 327 2 86 7 178 10 203 6 39 10 45 31 45 13 0 24 4 24 8
0 5 7 60 15 123 9 63 15 142 14 176 -3 82 86 404 113 411 16 4 18 19 18 138 0
73 5 145 10 160 9 24 7 31 -13 51 l-23 24 83 85 c46 46 83 89 83 94 0 5 -48
42 -106 82 l-106 73 6 80 c6 73 4 84 -19 124 -20 35 -25 57 -25 115 l0 71 54
50 c51 48 54 52 49 91 -4 37 -13 49 -68 95 l-64 54 0 62 c-1 49 3 64 17 72 57
34 56 30 22 145 l-30 106 47 95 48 95 63 -30 c35 -17 66 -30 69 -30 2 0 -14
23 -36 51 -50 63 -55 110 -16 166 l24 37 -32 40 c-144 179 -144 178 -150 239
-4 44 -13 66 -36 94 -32 38 -32 47 -1 63 17 9 30 -12 134 -204 110 -202 115
-215 105 -245 -9 -24 -8 -43 1 -77 11 -38 11 -47 -1 -54 -25 -16 -1 -23 86
-24 76 -2 85 0 85 16 0 10 -7 21 -15 24 -22 9 -18 32 7 45 l23 12 -28 10 c-16
5 -27 16 -27 27 0 10 -6 21 -12 23 -8 4 -4 8 10 12 15 5 22 15 22 32 0 18 -4
23 -17 19 -51 -15 -73 -17 -73 -8 0 6 -3 17 -6 26 -5 12 1 16 22 16 l29 0 -22
18 c-18 14 -24 31 -29 90 -5 51 -4 72 5 72 21 0 11 30 -14 42 -20 9 -25 19
-25 46 0 54 28 92 90 119 l55 25 22 -27 23 -26 81 28 c79 28 80 28 75 58 -4
17 -18 52 -31 79 -14 27 -22 52 -18 56 4 3 46 23 92 44 57 26 95 37 120 35 20
-2 77 3 128 10 73 11 97 19 114 37 31 33 19 39 -29 14 -29 -15 -54 -20 -88
-18 -42 3 -49 6 -55 29 -6 23 -1 31 44 64 28 21 57 38 64 38 16 0 15 -3 2 36
-9 25 -14 29 -24 21 -8 -6 -12 -17 -9 -25 3 -8 -21 -29 -63 -55 -66 -41 -611
-340 -619 -340 -2 0 -15 25 -29 56 -18 41 -25 74 -25 121 0 57 2 64 15 53 8
-7 15 -19 15 -27 0 -10 6 -13 16 -9 9 3 20 6 25 6 16 0 10 19 -18 61 -22 34
-24 42 -12 49 10 7 14 30 14 82 1 92 -4 118 -21 118 -8 0 -14 9 -14 20 0 13
-10 24 -25 30 -29 11 -34 45 -7 55 16 6 16 7 0 19 -10 7 -18 18 -18 25 0 6
-16 11 -37 11 l-38 1 44 39 45 39 -10 48 c-8 44 -12 48 -39 51 -16 1 -40 8
-52 14 -24 12 -106 -3 -158 -30 -52 -26 -125 -95 -172 -161 l-45 -65 12 -60
c23 -120 28 -133 60 -145 25 -8 30 -15 30 -44 0 -34 -24 -67 -49 -67 -9 0 -6
-11 8 -34 12 -18 21 -42 21 -52 0 -14 3 -15 12 -6 16 16 49 15 72 -3 11 -8 30
-15 42 -15 34 0 118 -82 139 -135 9 -25 15 -49 12 -52 -14 -14 -74 8 -85 31
-13 29 -86 56 -150 56 -25 0 -52 6 -61 14 -9 8 -39 18 -67 21 l-51 7 -13 -52
-13 -53 -33 54 c-39 61 -41 75 -14 109 37 48 29 60 -125 191 -98 84 -140 126
-130 129 17 6 -43 68 -134 139 -56 44 -77 78 -127 209 -25 65 -22 89 11 117
17 13 29 95 15 95 -6 0 -24 -7 -40 -15 -34 -18 -36 -13 -18 47 l12 39 60 -6
c53 -6 69 -3 119 19 l58 25 97 -47 c53 -26 115 -55 137 -65 22 -10 54 -25 70
-34 39 -22 132 -28 165 -11 14 8 34 28 45 45 29 46 86 76 120 63 30 -11 88
-13 98 -3 4 3 -2 16 -13 28 -11 11 -23 35 -26 53 -6 32 -6 32 27 25 19 -3 39
-13 45 -22 19 -25 74 17 110 83 15 27 15 31 -5 66 -12 21 -21 45 -21 54 0 21
-6 20 -37 -4 -24 -18 -27 -19 -57 -3 -17 8 -32 17 -34 18 -2 2 6 22 18 44 23
47 20 61 -14 61 -15 0 -26 -7 -29 -20 -7 -29 -51 -26 -75 5 -24 30 -30 30 -62
5 -29 -23 -40 -25 -40 -7 0 6 -14 24 -32 39 l-33 26 25 96 c25 100 25 98 -6
273 -8 43 -57 85 -129 112 -69 26 -68 26 -91 0z"/>
</g>
</svg>
