<?xml version="1.0" standalone="no"?>
<!DOCTYPE svg PUBLIC "-//W3C//DTD SVG 20010904//EN"
 "http://www.w3.org/TR/2001/REC-SVG-20010904/DTD/svg10.dtd">
<svg version="1.0" xmlns="http://www.w3.org/2000/svg"
 width="1024.000000pt" height="1024.000000pt" viewBox="0 0 1024.000000 1024.000000"
 preserveAspectRatio="xMidYMid meet">
<metadata>
Created by potrace 1.10, written by Peter Selinger 2001-2011
</metadata>
<g transform="translate(0.000000,1024.000000) scale(0.100000,-0.100000)"
fill="#000000" stroke="none">
<path d="M6039 10223 c-10 -11 -14 -46 -15 -112 0 -112 -21 -176 -80 -248 -81
-99 -268 -223 -336 -223 -15 0 -71 10 -125 21 l-97 22 -54 -28 c-57 -30 -68
-29 -124 17 l-28 22 -101 -18 c-98 -17 -104 -17 -155 0 l-53 18 -55 -37 c-31
-20 -61 -37 -67 -37 -6 0 -43 14 -82 31 -68 30 -74 31 -117 19 -80 -22 -91
-23 -132 -4 -40 18 -41 18 -102 -4 -33 -12 -73 -22 -88 -22 -34 0 -202 -131
-242 -188 -15 -22 -30 -59 -33 -82 -5 -37 -13 -48 -68 -91 -54 -42 -65 -57
-85 -111 -32 -88 -127 -181 -208 -204 -32 -9 -61 -22 -67 -28 -5 -7 -9 -50 -7
-94 l4 -82 26 6 27 7 -33 -35 -33 -35 7 -79 c3 -45 1 -99 -5 -124 l-10 -45 61
-57 c34 -32 65 -58 70 -58 4 0 8 -4 8 -10 0 -19 -29 -10 -93 30 -35 22 -69 52
-75 66 -7 14 -12 56 -12 94 0 39 -3 70 -7 70 -5 -1 -19 -7 -33 -15 -33 -19
-74 -19 -111 0 -27 14 -30 14 -36 -1 -16 -43 14 -179 65 -294 28 -63 54 -132
57 -152 6 -32 11 -38 32 -38 25 0 25 0 -11 -40 -20 -22 -36 -43 -36 -48 0 -4
16 -18 36 -32 33 -22 36 -27 31 -62 -5 -40 7 -58 26 -39 15 15 27 14 65 -9
l33 -20 -20 -29 c-12 -16 -21 -35 -21 -43 0 -8 29 -30 65 -49 70 -37 78 -54
24 -53 -19 0 -36 -2 -39 -5 -11 -13 -82 -41 -90 -36 -11 7 -17 -65 -12 -137 4
-49 7 -57 19 -47 25 22 37 -4 25 -53 l-11 -43 52 58 c56 63 90 73 135 41 31
-22 28 -39 -17 -74 -36 -29 -38 -34 -34 -74 4 -28 0 -53 -11 -74 -17 -32 -17
-32 10 -32 14 0 39 -8 55 -17 25 -15 27 -19 14 -33 -13 -14 -7 -23 48 -81 82
-86 95 -93 138 -71 27 13 35 24 37 50 3 34 11 39 30 20 19 -19 14 -63 -11 -86
-12 -12 -53 -35 -89 -52 -69 -30 -91 -53 -103 -103 -12 -46 -24 -40 -40 20
-36 127 -57 181 -83 212 -24 29 -37 35 -92 43 -58 8 -66 7 -78 -10 -12 -18
-14 -17 -50 17 -21 20 -71 56 -111 80 l-73 43 -28 -33 c-30 -37 -29 -46 13
-91 18 -19 21 -28 12 -32 -8 -3 -15 -15 -17 -28 -3 -20 -7 -17 -31 24 -32 56
-52 68 -104 68 -42 -1 -114 -28 -78 -29 32 -1 67 -31 60 -49 -4 -11 6 -27 32
-48 l38 -32 -18 -36 c-9 -21 -31 -45 -47 -54 -16 -9 -30 -22 -30 -27 0 -6 -7
-21 -16 -33 -14 -21 -18 -22 -33 -8 -15 13 -16 11 -16 -22 0 -40 -23 -54 -50
-32 -23 19 -20 104 4 121 18 14 18 15 1 54 l-17 40 -23 -52 c-29 -66 -79 -82
-96 -31 -4 13 -9 17 -15 11 -6 -6 -5 -20 3 -37 10 -24 10 -29 -5 -37 -22 -13
-22 -26 2 -34 23 -7 35 -35 22 -48 -7 -7 -19 -6 -37 2 -24 11 -30 9 -56 -16
-41 -39 -50 -59 -42 -96 l6 -31 15 27 c14 28 14 28 44 10 45 -27 62 -49 54
-72 -5 -16 -15 -21 -41 -21 -24 0 -34 -5 -34 -15 0 -24 24 -18 81 20 56 38 79
39 79 4 0 -12 16 -39 35 -60 38 -42 45 -80 20 -113 -19 -25 -19 -56 0 -56 27
0 47 -59 52 -158 5 -79 10 -101 31 -133 22 -34 30 -39 64 -39 24 0 38 5 38 13
0 6 -32 118 -70 247 -67 226 -81 292 -61 305 20 12 41 -39 41 -98 0 -38 4 -59
13 -61 6 -2 26 -8 44 -13 36 -12 43 -4 43 51 0 36 24 76 46 76 14 0 19 -34 17
-102 -1 -16 3 -28 8 -28 15 0 10 -22 -7 -35 -15 -10 -14 -18 5 -86 12 -42 21
-103 21 -137 0 -46 4 -64 15 -68 18 -7 19 -36 3 -82 -11 -29 -11 -36 0 -40 20
-6 82 -62 82 -74 0 -5 -13 -14 -30 -19 -17 -6 -30 -15 -30 -21 0 -5 14 -29 30
-52 l31 -42 -21 -108 c-12 -60 -20 -109 -18 -111 2 -1 21 -12 43 -23 57 -28
125 -104 125 -139 1 -39 64 -123 92 -123 12 0 34 12 49 26 26 25 189 89 189
74 0 -14 -47 -50 -93 -70 -27 -12 -51 -28 -54 -36 -9 -24 -34 -32 -174 -54
-74 -12 -136 -24 -138 -26 -2 -2 18 -8 43 -15 54 -13 69 -34 64 -87 -3 -32 0
-37 19 -40 12 -2 36 4 54 13 28 15 40 15 90 5 54 -12 60 -11 93 9 20 13 45 21
57 19 20 -3 18 -7 -24 -50 -38 -40 -53 -48 -95 -54 -73 -9 -83 -19 -48 -49 16
-13 47 -31 68 -41 33 -15 38 -21 38 -51 0 -38 -13 -42 -50 -13 -19 15 -41 20
-97 20 l-72 0 -21 -47 c-26 -60 -71 -107 -127 -134 -44 -21 -123 -101 -123
-125 0 -7 12 -26 26 -43 30 -36 49 -38 136 -15 77 19 106 16 131 -18 21 -29
17 -72 -5 -50 -18 18 -45 14 -61 -8 -10 -15 -32 -22 -84 -29 -39 -5 -79 -14
-90 -19 -29 -16 -69 -72 -109 -154 -27 -56 -34 -81 -30 -108 4 -28 1 -38 -13
-47 -11 -7 -26 -34 -35 -60 -9 -26 -37 -79 -61 -117 -25 -38 -45 -74 -45 -80
0 -7 7 -22 16 -35 13 -19 23 -22 49 -18 32 5 33 4 39 -35 5 -33 19 -53 68
-100 l61 -60 -12 -38 c-12 -39 -60 -100 -80 -100 -14 0 -14 17 -1 25 14 9 -31
85 -50 85 -9 0 -26 7 -38 16 -18 12 -22 25 -22 66 0 40 -3 48 -13 40 -7 -6
-32 -12 -57 -14 -43 -3 -56 -14 -73 -62 -2 -5 -12 -3 -23 4 -25 16 -86 6 -105
-16 -11 -13 -7 -21 27 -49 21 -19 49 -34 61 -35 13 0 32 -9 44 -21 l21 -21 22
21 c12 12 32 21 44 21 18 0 22 6 22 31 0 24 3 30 16 25 9 -3 18 -6 20 -6 2 0
4 -16 4 -35 0 -33 2 -35 34 -35 22 0 36 -6 40 -16 7 -19 8 -17 -21 -33 -15 -8
-23 -21 -23 -39 0 -26 2 -27 44 -24 l44 4 -14 -59 c-18 -77 -17 -115 3 -158
l17 -35 -37 -38 c-20 -21 -37 -48 -37 -60 0 -27 1 -27 50 -2 49 25 61 25 111
0 l40 -21 19 23 19 23 1 -31 c0 -30 -25 -64 -47 -64 -6 0 -16 7 -23 15 -7 8
-27 15 -44 15 -40 0 -123 -37 -110 -49 5 -5 42 -19 82 -31 73 -21 112 -47 112
-75 0 -8 9 -19 20 -25 32 -17 23 -30 -20 -30 -22 0 -40 -4 -40 -10 0 -5 -6
-10 -14 -10 -13 0 -26 26 -41 78 -3 12 -14 22 -23 22 -9 0 -26 3 -37 6 -16 4
-24 -3 -38 -31 -27 -57 -22 -69 49 -126 77 -61 74 -82 -8 -51 -66 24 -91 59
-108 149 -16 85 -35 133 -53 133 -17 0 -57 -104 -57 -147 0 -17 9 -42 21 -57
13 -16 19 -35 16 -48 -8 -28 31 -65 77 -73 21 -5 45 -18 57 -33 15 -20 22 -23
28 -13 11 18 43 7 80 -29 26 -23 31 -36 31 -73 0 -24 3 -59 6 -76 6 -26 11
-31 35 -31 26 0 29 -3 29 -34 0 -19 -5 -38 -10 -41 -6 -3 -17 -20 -26 -36 -14
-29 -14 -29 4 -18 36 22 52 5 52 -56 0 -30 2 -55 5 -55 3 0 19 10 35 21 16 12
35 19 44 16 21 -8 28 7 35 77 l6 61 66 35 c82 43 99 58 92 76 -3 7 2 17 11 20
30 12 57 82 63 163 7 98 15 113 36 68 12 -25 17 -62 17 -131 l0 -95 37 -26
c44 -29 69 -32 95 -8 15 13 23 14 44 5 33 -16 31 -16 39 18 5 25 11 30 26 25
17 -6 19 -1 19 53 0 46 4 63 20 77 15 14 17 21 8 32 -8 10 -8 20 1 39 6 14 11
33 11 43 0 12 25 35 67 62 38 24 85 59 105 77 32 29 40 32 59 22 34 -19 65 2
94 64 32 67 47 74 78 35 l23 -30 26 21 c35 27 45 25 63 -10 19 -37 19 -73 -1
-116 -14 -29 -21 -34 -50 -34 -33 0 -34 1 -34 40 0 22 -4 40 -10 40 -17 0 -43
-63 -44 -107 -1 -40 -3 -43 -28 -43 -20 0 -28 5 -29 18 0 10 -7 3 -17 -19 -9
-19 -36 -57 -59 -84 -24 -26 -43 -51 -43 -55 0 -3 11 -17 25 -30 24 -22 28
-23 58 -11 81 33 93 28 174 -74 l31 -40 24 21 c12 12 42 31 65 43 35 18 73 62
73 86 0 3 -13 5 -30 5 -29 0 -40 13 -20 25 6 3 10 11 10 16 0 6 -13 1 -29 -11
-32 -22 -35 -20 -45 22 -5 22 -1 31 18 43 22 15 27 14 70 -7 39 -18 50 -20 66
-10 16 10 21 9 30 -8 17 -31 50 -9 50 33 0 27 -5 35 -31 44 -23 9 -29 16 -25
31 5 14 -6 27 -48 56 -38 26 -57 46 -61 67 -4 16 -11 31 -16 34 -17 11 -9 42
14 58 22 15 22 15 2 31 -20 16 -20 16 1 34 l21 17 -29 29 c-32 32 -31 44 2 26
19 -10 27 -8 52 10 21 16 40 21 71 18 41 -3 42 -2 45 30 2 17 7 32 11 32 4 0
22 -15 40 -34 29 -30 33 -39 27 -68 -5 -28 -3 -35 16 -43 20 -9 67 -77 68 -97
0 -3 -11 -20 -25 -36 -18 -22 -21 -32 -12 -41 9 -9 9 -16 -1 -31 -6 -11 -12
-33 -12 -50 0 -26 4 -30 28 -30 15 0 38 -7 50 -16 26 -18 26 -18 7 57 -17 66
-14 77 33 123 l31 28 27 -21 c50 -39 104 -16 104 45 0 16 7 54 15 84 8 30 15
61 15 68 0 15 -96 17 -105 2 -9 -14 -81 -50 -100 -50 -21 0 -76 89 -74 120 1
14 -2 33 -6 43 -15 35 10 42 64 18 27 -11 55 -21 62 -21 7 0 35 25 64 55 57
61 79 67 125 33 28 -20 31 -20 48 -5 22 20 49 22 54 5 9 -26 57 10 83 63 l26
51 20 -21 c14 -15 32 -21 64 -21 53 0 58 14 19 60 -30 36 -22 60 14 41 33 -17
39 -13 46 29 4 28 11 40 22 40 14 0 15 -7 9 -38 -4 -20 -7 -48 -6 -62 3 -39 3
-123 -1 -150 -3 -23 1 -25 46 -31 37 -4 54 -12 70 -32 12 -15 31 -27 43 -27
28 0 73 37 73 61 0 16 7 19 51 19 47 0 51 -2 61 -30 12 -35 32 -35 36 1 4 32
23 79 32 79 20 0 70 -85 70 -120 0 -18 -4 -20 -35 -14 -30 5 -35 3 -35 -12 0
-15 8 -19 33 -19 17 0 51 -4 73 -8 l41 -7 12 61 c9 43 9 64 2 73 -8 10 -6 18
9 31 19 17 19 18 -6 38 -32 25 -18 37 43 37 53 0 64 17 29 47 -35 30 -50 29
-108 -8 -27 -17 -52 -29 -55 -25 -4 3 1 22 10 41 22 46 76 73 112 57 42 -19
47 -14 25 28 -27 53 -26 59 13 57 17 -1 52 2 77 6 39 6 49 4 73 -18 28 -25 28
-26 12 -51 -20 -31 -18 -33 23 -22 42 11 42 33 -3 122 -38 74 -44 125 -19 150
25 26 44 20 38 -11 -7 -37 28 -117 44 -101 8 8 15 8 26 -1 8 -7 29 -11 47 -9
34 3 36 1 55 -71 3 -9 14 -11 37 -7 102 19 102 19 134 -8 17 -14 43 -26 57
-26 21 0 29 8 42 40 19 47 38 43 32 -7 -3 -28 -2 -32 7 -20 6 9 24 17 41 19
27 3 29 0 32 -32 5 -49 17 -57 38 -24 10 16 20 31 22 34 1 2 7 -2 11 -9 7 -11
12 -8 21 10 18 34 61 79 77 79 7 0 13 -9 13 -20 0 -11 6 -20 14 -20 8 0 22 -3
30 -6 14 -6 16 1 10 50 l-7 56 56 0 c49 0 58 3 81 31 14 17 38 51 52 76 23 37
25 48 15 66 -10 18 -9 29 3 52 9 17 16 40 16 53 0 15 6 22 20 22 11 0 37 16
59 35 21 19 46 35 55 35 14 0 15 4 6 20 -8 15 -8 30 2 55 9 26 9 45 2 74 -10
36 -9 40 12 50 31 14 49 78 29 101 -8 9 -15 24 -15 33 0 31 31 5 59 -51 l28
-55 23 84 c27 97 29 141 10 185 -12 29 -10 40 29 144 28 76 40 122 36 139 -4
19 3 43 25 81 30 56 39 105 19 112 -9 3 -8 10 2 25 10 17 10 27 1 48 -11 23
-9 29 11 48 13 12 27 38 31 57 3 19 16 53 27 75 19 35 20 45 10 83 -7 23 -15
42 -19 42 -4 0 -22 -21 -41 -45 -47 -64 -111 -125 -129 -125 -8 0 -37 22 -63
49 -58 59 -65 95 -21 113 71 30 79 64 27 104 -27 20 -35 34 -35 58 0 18 -7 41
-15 52 -19 25 -19 44 0 58 12 9 13 18 5 46 -5 19 -10 66 -10 104 0 59 6 81 39
155 65 140 78 277 36 361 -38 75 -34 112 23 194 43 63 47 73 47 130 0 49 -8
79 -38 149 -29 66 -41 111 -48 175 -11 114 -11 229 1 271 8 29 6 39 -19 75
-73 106 -110 211 -91 257 18 43 7 69 -59 137 -47 49 -61 71 -71 114 -10 40
-25 65 -62 104 -26 28 -48 57 -48 65 0 8 -27 55 -60 104 -57 85 -73 125 -50
125 22 0 7 27 -51 87 -58 60 -61 66 -54 99 7 41 7 41 -146 220 -106 124 -150
184 -218 294 -29 47 -96 145 -150 217 -133 184 -167 242 -175 304 -10 75 -136
367 -198 457 -16 24 -27 50 -24 57 3 8 -3 19 -14 25 -12 6 -23 30 -30 67 -20
95 -80 223 -106 223 -6 0 -18 -7 -25 -17z"/>
<path d="M3046 8678 c-35 -31 -52 -117 -32 -157 8 -15 22 -33 30 -40 9 -7 25
-29 37 -48 l21 -34 -26 -28 c-14 -15 -26 -36 -26 -48 0 -36 26 -47 117 -48 79
-2 86 0 100 22 14 22 14 33 -6 139 -29 156 -53 218 -95 244 -44 26 -88 26
-120 -2z"/>
<path d="M2810 8654 c-6 -14 -10 -35 -10 -46 0 -16 4 -19 23 -13 12 3 40 11
62 16 73 18 84 43 28 58 -65 18 -92 14 -103 -15z"/>
<path d="M2916 8541 c-12 -19 3 -67 35 -111 25 -35 32 -39 49 -30 28 15 25 42
-8 71 -15 14 -37 38 -48 54 -14 19 -23 24 -28 16z"/>
<path d="M3214 8103 c-16 -20 -34 -28 -79 -34 -63 -8 -113 -44 -102 -73 7 -16
77 -56 101 -56 8 0 32 20 54 45 22 25 43 45 46 45 4 0 30 10 57 21 41 18 47
24 37 36 -7 8 -21 19 -33 23 -52 19 -60 18 -81 -7z"/>
<path d="M3335 7649 c-8 -12 -24 -119 -18 -119 3 0 12 7 21 16 10 11 17 13 20
5 5 -14 39 -14 47 0 5 7 14 4 26 -7 18 -16 19 -16 19 0 0 17 -86 116 -101 116
-4 0 -11 -5 -14 -11z"/>
<path d="M3147 7643 c-4 -3 -7 -19 -7 -35 0 -32 19 -37 49 -11 15 12 18 21 10
35 -10 18 -39 24 -52 11z"/>
<path d="M2601 7608 c-6 -17 -3 -30 12 -50 26 -35 50 -36 71 -3 17 25 17 26
-19 40 -19 9 -35 20 -35 25 0 19 -21 10 -29 -12z"/>
<path d="M2633 3585 c-3 -9 -27 -27 -54 -41 -42 -21 -49 -29 -49 -53 0 -39 47
-75 84 -65 24 6 26 11 26 57 0 39 5 56 22 74 19 20 20 25 8 33 -21 14 -30 12
-37 -5z"/>
<path d="M2695 3426 l-30 -13 43 -13 c46 -14 62 -8 46 17 -14 23 -24 24 -59 9z"/>
<path d="M6570 3351 c0 -37 -32 -76 -81 -101 -21 -11 -39 -23 -39 -26 0 -3 11
-19 25 -36 38 -45 32 -75 -11 -56 -18 9 -30 8 -49 -2 -22 -12 -28 -11 -49 9
-29 27 -56 22 -86 -16 -28 -36 -25 -54 15 -93 19 -19 35 -29 35 -24 0 6 18 21
41 33 l40 23 25 -23 c30 -28 30 -40 -1 -77 -25 -30 -25 -31 -5 -37 23 -7 25
-17 9 -46 -8 -17 -7 -23 7 -34 16 -11 16 -15 4 -30 -12 -14 -12 -18 1 -26 10
-6 20 -1 36 19 26 31 29 52 11 71 -11 10 -8 17 14 36 15 13 30 35 34 49 5 22
9 24 26 15 25 -14 56 -3 40 13 -20 20 -13 51 16 74 l27 22 -26 -5 c-32 -6 -47
21 -26 46 25 28 27 74 6 120 -21 49 -24 82 -8 98 13 13 4 33 -17 33 -9 0 -14
-10 -14 -29z"/>
<path d="M2642 3362 c-9 -7 -8 -13 8 -27 11 -10 20 -24 20 -32 0 -7 7 -13 15
-13 11 0 15 11 15 40 0 35 -3 40 -22 40 -13 0 -29 -4 -36 -8z"/>
<path d="M2946 3255 c7 -24 41 -61 49 -53 3 3 8 21 11 39 6 33 5 34 -30 34
-31 0 -35 -3 -30 -20z"/>
<path d="M2558 3202 c-4 -15 -16 -24 -37 -28 -24 -5 -31 -12 -31 -30 0 -12 5
-26 10 -29 6 -3 10 -15 10 -26 0 -23 11 -24 49 -4 36 18 42 50 21 100 -15 35
-17 37 -22 17z"/>
<path d="M5321 3173 c-16 -20 -40 -55 -52 -78 l-22 -42 31 -68 c35 -73 38 -91
20 -97 -10 -4 -10 -10 -1 -31 10 -22 19 -27 49 -27 34 0 35 1 29 29 -8 38 17
63 59 59 30 -3 31 -5 31 -50 1 -53 19 -83 35 -58 9 13 11 13 19 0 9 -12 11
-12 16 2 4 9 14 14 25 11 16 -4 21 6 35 71 13 58 14 80 6 90 -20 23 -63 25
-103 5 -47 -24 -64 -24 -71 1 -3 13 -14 20 -30 20 -22 0 -25 5 -31 52 -7 48
-5 54 18 71 28 20 33 46 14 65 -21 21 -46 13 -77 -25z"/>
<path d="M2910 3153 c-1 -36 -19 -60 -52 -68 -15 -4 -35 -16 -45 -27 -18 -21
-18 -21 32 -14 28 4 63 14 79 22 36 17 55 5 48 -32 -3 -16 1 -30 9 -35 25 -15
29 -10 29 35 0 41 -2 45 -29 51 -28 6 -29 8 -20 33 9 22 7 29 -13 44 -31 24
-38 22 -38 -9z"/>
<path d="M5513 3158 c-11 -13 -28 -35 -37 -50 -16 -25 -16 -28 -1 -52 13 -19
26 -26 50 -26 18 0 53 -3 79 -6 39 -6 46 -4 46 10 0 9 -7 19 -15 22 -8 4 -15
12 -15 19 0 6 -9 20 -21 31 -17 16 -22 16 -30 4 -7 -11 -8 -2 -4 28 6 37 4 42
-12 42 -11 0 -29 -10 -40 -22z"/>
<path d="M6174 3086 c-43 -36 -49 -45 -35 -53 15 -10 14 -12 -1 -30 -24 -26
-23 -44 4 -78 24 -31 32 -24 43 41 5 34 3 43 -11 48 -16 6 -16 8 5 19 15 8 29
28 36 55 7 23 12 42 11 41 0 0 -24 -20 -52 -43z"/>
<path d="M2568 3020 c5 -33 8 -35 48 -20 26 10 26 11 9 30 -10 11 -28 20 -40
20 -18 0 -21 -5 -17 -30z"/>
<path d="M2416 2943 c-4 -5 -31 -13 -59 -18 -43 -9 -53 -14 -55 -34 -8 -53 17
-88 53 -75 9 4 13 14 10 28 -5 17 2 25 32 41 24 13 39 28 41 43 3 22 -8 29
-22 15z"/>
<path d="M2601 2868 c-5 -13 -5 -27 0 -32 5 -6 9 -18 9 -28 0 -21 4 -22 31 -5
17 10 22 9 34 -6 16 -23 48 -19 53 6 5 23 -25 57 -48 57 -10 0 -23 7 -30 15
-18 22 -39 18 -49 -7z"/>
<path d="M2367 2789 c-15 -17 -27 -35 -27 -39 0 -4 16 -17 35 -28 l34 -21 21
33 c26 44 25 60 -5 74 -14 7 -27 12 -28 12 -2 0 -15 -14 -30 -31z"/>
<path d="M5141 2713 c-27 -22 -43 -86 -27 -107 14 -20 67 -39 77 -29 5 5 11
35 15 67 6 51 5 61 -11 72 -24 18 -28 18 -54 -3z"/>
<path d="M2475 2606 c-10 -66 15 -102 54 -77 13 8 12 17 -4 65 -11 31 -25 56
-31 56 -7 0 -16 -19 -19 -44z"/>
<path d="M2552 2633 c-10 -4 -9 -9 4 -24 21 -23 14 -91 -12 -120 -29 -32 -8
-33 38 -2 38 26 43 33 40 64 -3 37 -48 90 -70 82z"/>
<path d="M2862 2493 c2 -33 0 -37 -27 -46 -65 -21 -189 -131 -216 -190 -13
-28 2 -67 26 -67 7 0 27 -11 43 -25 17 -14 37 -25 45 -25 8 0 40 11 71 25 61
27 86 31 102 15 7 -7 9 -1 6 19 -3 23 1 32 18 41 18 9 24 9 30 0 6 -9 13 -4
23 16 23 45 49 142 43 161 -3 10 -25 30 -49 45 -24 15 -52 37 -62 48 -10 11
-27 20 -37 20 -16 0 -19 -6 -16 -37z"/>
<path d="M5101 2476 l-23 -25 56 -36 c82 -52 97 -43 46 25 -22 30 -44 56 -49
58 -4 1 -18 -9 -30 -22z"/>
<path d="M4671 2467 c-8 -11 -8 -24 2 -53 11 -30 20 -40 40 -42 15 -2 34 1 43
6 14 8 12 12 -15 28 -17 10 -31 26 -31 35 0 26 -25 42 -39 26z"/>
<path d="M4255 2360 c-11 -5 -34 -9 -52 -9 -42 -1 -46 -11 -22 -50 18 -29 24
-33 51 -27 17 3 43 6 58 6 22 0 29 6 34 28 4 15 9 35 12 45 4 14 -1 17 -28 16
-18 0 -42 -4 -53 -9z"/>
<path d="M4698 2339 c-24 -13 -23 -26 2 -34 11 -4 27 -20 36 -36 12 -24 19
-29 37 -23 12 3 26 10 30 14 15 14 -4 51 -36 71 -36 21 -45 23 -69 8z"/>
<path d="M3682 2271 c-53 -30 -92 -91 -58 -91 8 0 16 -7 18 -16 3 -14 7 -13
30 5 14 12 35 21 46 21 46 0 72 30 37 44 -8 3 -15 17 -15 31 0 29 -13 31 -58
6z"/>
<path d="M3480 2197 c-31 -15 -36 -46 -15 -87 21 -40 91 -90 127 -90 15 0 28
1 28 3 0 16 -74 165 -87 174 -21 16 -22 16 -53 0z"/>
<path d="M3801 2191 c-8 -15 -6 -20 15 -30 37 -16 84 -14 91 5 15 39 -86 63
-106 25z"/>
<path d="M3735 2120 c-3 -5 -20 -13 -38 -18 -47 -12 -41 -36 9 -40 30 -2 44
-9 50 -23 9 -18 11 -18 46 11 36 30 37 32 20 49 -20 21 -78 35 -87 21z"/>
<path d="M2504 2046 c-9 -24 24 -56 58 -56 24 0 28 4 28 30 0 22 -5 30 -17 30
-10 0 -28 3 -40 6 -16 4 -25 1 -29 -10z"/>
<path d="M3310 1848 c0 -24 6 -41 18 -48 14 -9 11 -10 -15 -6 -26 4 -36 1 -53
-21 -24 -30 -23 -66 2 -71 9 -2 32 11 51 27 19 17 42 31 51 31 20 0 21 19 2
26 -20 8 -8 34 14 34 10 0 20 7 24 15 11 29 -5 43 -50 47 l-44 3 0 -37z"/>
<path d="M3792 1826 c-14 -31 9 -66 44 -66 27 0 28 1 13 53 -12 43 -40 50 -57
13z"/>
<path d="M3595 639 c-38 -11 -86 -18 -107 -17 -20 1 -42 -3 -50 -8 -7 -6 -56
-16 -110 -22 -89 -10 -122 -19 -328 -93 -36 -13 -59 -28 -65 -42 -6 -12 -20
-23 -33 -25 -12 -2 -29 -15 -36 -30 -8 -15 -39 -50 -69 -78 -99 -92 -99 -167
1 -250 31 -26 63 -54 69 -63 7 -8 14 -13 16 -10 2 2 16 20 30 40 27 35 28 36
115 42 58 4 106 2 144 -7 49 -12 59 -12 78 1 17 12 29 13 71 3 42 -10 52 -10
72 4 12 9 37 28 56 41 19 14 46 25 60 25 43 0 97 19 116 40 13 14 31 20 62 20
36 0 43 3 43 20 0 11 11 27 24 35 13 9 27 26 30 38 3 12 23 42 46 65 22 24 40
53 40 65 0 12 -12 52 -27 89 -19 51 -31 68 -45 68 -24 0 -54 16 -91 46 -16 13
-32 24 -35 23 -4 0 -38 -9 -77 -20z"/>
</g>
</svg>
