<?xml version="1.0" standalone="no"?>
<!DOCTYPE svg PUBLIC "-//W3C//DTD SVG 20010904//EN"
 "http://www.w3.org/TR/2001/REC-SVG-20010904/DTD/svg10.dtd">
<svg version="1.0" xmlns="http://www.w3.org/2000/svg"
 width="1024.000000pt" height="1024.000000pt" viewBox="0 0 1024.000000 1024.000000"
 preserveAspectRatio="xMidYMid meet">
<metadata>
Created by potrace 1.10, written by Peter Selinger 2001-2011
</metadata>
<g transform="translate(0.000000,1024.000000) scale(0.100000,-0.100000)"
fill="#000000" stroke="none">
<path d="M4587 10196 c-42 -24 -88 -52 -100 -64 -30 -28 -150 -48 -203 -33
-34 9 -42 7 -93 -23 -31 -19 -74 -37 -97 -41 -36 -5 -43 -12 -62 -50 -17 -34
-28 -45 -54 -50 -67 -13 -68 -14 -68 -56 0 -25 -5 -39 -13 -39 -18 0 -77 -56
-77 -73 0 -8 -12 -17 -27 -20 -17 -4 -45 -27 -71 -59 -42 -50 -44 -55 -38 -99
4 -26 2 -58 -3 -72 -8 -19 -6 -28 5 -37 7 -7 14 -26 14 -42 0 -19 10 -40 29
-58 16 -16 24 -31 18 -33 -7 -2 -7 -9 0 -22 6 -11 16 -66 23 -122 7 -62 18
-107 26 -114 18 -15 18 -30 0 -23 -26 10 -25 -11 5 -81 22 -53 29 -85 29 -136
0 -47 7 -87 25 -134 14 -37 30 -103 36 -145 5 -43 23 -122 40 -176 40 -131 59
-226 59 -299 0 -102 -37 -345 -70 -460 -17 -60 -34 -121 -37 -135 -2 -14 -14
-56 -26 -94 -18 -61 -19 -71 -6 -94 20 -35 35 -24 31 21 -2 26 1 42 12 50 8 7
20 40 25 74 5 34 16 75 25 91 8 16 12 39 9 50 -3 13 -1 22 6 22 6 0 11 -5 11
-11 0 -7 11 -8 30 -4 19 4 30 3 30 -4 0 -6 -8 -11 -18 -11 -26 0 -49 -29 -57
-71 -8 -45 10 -62 69 -63 32 0 42 -4 39 -13 -3 -7 -15 -14 -27 -15 -11 0 -26
-2 -32 -2 -22 -2 -106 -51 -111 -64 -9 -23 3 -23 43 0 28 15 48 19 67 14 29
-7 37 -26 12 -26 -8 0 -15 -5 -15 -10 0 -17 -51 -60 -71 -60 -22 0 -49 -37
-49 -66 0 -29 -46 -164 -60 -178 -16 -15 -4 47 27 148 17 53 21 82 15 88 -7 7
-14 -2 -21 -28 -40 -152 -83 -336 -101 -432 -15 -76 -36 -145 -64 -210 -24
-53 -49 -114 -55 -134 -7 -20 -18 -42 -26 -48 -21 -17 -9 -56 30 -94 22 -22
30 -38 25 -47 -5 -8 -35 -109 -69 -226 -59 -206 -129 -383 -178 -451 -30 -40
-63 -134 -63 -179 0 -19 -17 -67 -40 -113 -22 -44 -36 -80 -30 -80 13 0 13
-37 1 -45 -6 -3 -31 -37 -57 -76 -25 -39 -56 -74 -68 -79 -11 -4 -36 -24 -54
-43 l-34 -35 21 -48 c12 -27 27 -51 33 -55 7 -4 7 -12 1 -24 -7 -13 -12 -14
-18 -6 -5 9 -11 7 -21 -6 -12 -16 -12 -14 -7 20 5 30 2 42 -15 57 -12 11 -23
20 -25 20 -1 0 -29 -32 -61 -71 -48 -58 -61 -68 -68 -55 -13 22 -25 20 -32 -6
-5 -22 -6 -22 -19 -3 -14 18 -16 18 -41 1 -38 -24 -31 -52 12 -48 30 2 32 0
30 -27 -1 -17 5 -38 15 -49 40 -44 4 -256 -51 -298 -20 -16 -33 -39 -41 -71
-7 -26 -17 -54 -23 -61 -6 -7 -15 -75 -20 -150 -12 -175 -14 -190 -37 -292
-16 -70 -25 -90 -50 -111 -39 -32 -39 -59 0 -88 l31 -23 -22 -23 -22 -24 33
-31 c30 -27 39 -30 76 -24 33 5 50 2 76 -15 40 -24 72 -26 107 -6 16 9 55 14
110 15 99 0 126 12 185 85 31 38 39 56 43 100 3 42 9 55 27 65 15 8 35 42 57
94 19 44 69 134 112 198 76 115 78 117 121 124 25 3 53 2 62 -2 13 -6 3 -10
-35 -12 -39 -2 -55 -8 -59 -20 -4 -9 -18 -35 -33 -57 -48 -73 -73 -144 -66
-192 3 -25 1 -54 -6 -69 -11 -22 -10 -28 7 -40 10 -8 16 -16 13 -19 -3 -4 0
-26 7 -50 13 -42 13 -44 -10 -59 -14 -9 -37 -16 -52 -16 -41 0 -103 -45 -103
-74 0 -30 27 -38 68 -21 17 8 33 11 36 8 13 -14 5 -32 -16 -35 -16 -2 -23 -10
-22 -24 0 -19 -5 -20 -63 -20 -44 1 -67 -4 -78 -15 -15 -14 -12 -18 25 -44 31
-21 40 -34 40 -56 0 -36 -7 -37 -20 -4 -10 27 -50 48 -74 39 -21 -8 -28 12
-10 26 12 11 12 15 2 21 -7 5 -13 16 -13 25 0 32 -31 41 -69 20 -24 -13 -45
-17 -67 -12 -36 7 -109 -3 -109 -15 0 -5 18 -18 39 -29 49 -24 85 -72 76 -100
-4 -13 1 -30 14 -46 18 -23 21 -41 21 -121 0 -80 -4 -101 -25 -143 -13 -27
-29 -51 -35 -55 -15 -9 -12 -25 4 -19 8 3 23 1 34 -5 15 -8 23 -6 37 9 12 14
31 20 59 20 23 0 59 7 81 15 22 8 54 14 70 15 17 0 41 7 55 15 14 8 49 26 78
40 37 17 52 31 52 45 0 12 12 26 31 36 37 18 73 8 124 -37 27 -24 61 -34 102
-30 17 1 32 62 21 84 -5 10 -6 26 -2 35 4 9 6 23 5 30 -1 6 4 12 12 12 9 0 13
-12 12 -36 0 -19 3 -38 8 -41 5 -3 6 -35 3 -73 -5 -52 -4 -69 7 -79 8 -6 19
-10 24 -9 6 2 24 -12 40 -29 l31 -33 -33 0 c-23 0 -46 11 -76 36 -31 26 -44
32 -50 22 -6 -9 -10 -8 -15 6 -4 11 -14 16 -25 13 -10 -3 -20 1 -23 9 -10 25
-29 16 -22 -11 4 -14 4 -25 2 -25 -13 0 -75 68 -81 88 -6 21 -40 42 -66 42
-19 0 21 -59 70 -101 74 -66 93 -114 112 -284 23 -203 23 -225 2 -264 -11 -20
-27 -58 -36 -86 -8 -27 -30 -97 -47 -155 -29 -94 -36 -107 -64 -120 -36 -17
-45 -50 -18 -65 56 -29 102 -68 108 -89 3 -13 1 -39 -4 -57 -5 -21 -5 -46 0
-64 14 -45 10 -96 -8 -131 -18 -33 -14 -74 9 -95 14 -14 7 -137 -14 -247 -11
-54 -10 -67 4 -96 29 -62 31 -103 9 -154 -11 -26 -26 -79 -32 -119 -8 -51 -20
-84 -40 -112 -30 -41 -45 -125 -30 -166 13 -37 -32 -122 -74 -138 -14 -5 -16
-13 -11 -30 21 -67 18 -83 -24 -128 -23 -24 -41 -49 -41 -55 0 -6 -7 -17 -16
-25 -9 -7 -14 -22 -11 -35 2 -13 -3 -26 -15 -33 -25 -16 -24 -44 2 -36 13 4
28 -2 45 -19 14 -14 28 -26 31 -26 2 0 22 17 44 37 32 31 46 37 74 35 27 -3
38 2 48 17 10 17 23 21 65 21 28 0 54 4 57 9 9 14 87 23 102 10 19 -16 35 -2
32 29 -2 21 1 27 17 27 11 0 26 4 33 8 7 5 18 4 25 -1 7 -6 42 -7 86 -3 53 5
74 4 78 -5 6 -17 65 -26 171 -25 85 0 97 -2 133 -26 35 -23 42 -25 64 -13 13
7 33 10 45 7 12 -3 34 -1 49 5 34 14 70 12 90 -6 9 -7 27 -17 41 -21 30 -8
211 -112 293 -167 87 -59 107 -64 159 -38 23 12 57 35 73 50 17 15 50 40 75
55 25 15 36 24 25 20 -11 -4 -34 -11 -51 -16 -18 -5 -43 -24 -57 -42 -14 -17
-41 -40 -60 -51 -32 -17 -40 -17 -69 -5 l-32 13 41 12 c48 14 133 62 133 75 0
5 12 11 28 15 15 4 38 13 51 21 14 9 35 13 52 9 16 -3 40 -1 53 4 35 13 156
134 157 156 0 11 18 34 41 51 36 29 48 33 107 35 98 2 124 -2 137 -20 21 -28
28 -4 11 35 -34 79 -41 120 -28 163 10 34 9 43 -5 65 -12 18 -17 57 -20 160
l-5 136 -39 61 c-38 59 -64 125 -62 159 2 44 26 102 76 180 49 79 53 91 49
131 l-5 44 105 97 105 97 48 140 49 139 79 22 c44 11 90 28 102 36 17 11 33
12 72 5 61 -11 128 10 113 36 -6 10 5 57 34 141 40 121 59 191 51 191 -3 0
-46 -16 -96 -35 l-92 -35 -28 22 c-21 17 -32 39 -41 78 -11 49 -23 66 -107
155 -63 67 -105 123 -128 168 -19 37 -49 81 -67 96 l-31 29 21 48 c13 29 24
79 27 123 4 56 11 83 27 105 18 24 24 51 30 126 5 52 8 107 9 121 0 22 11 31
73 61 82 40 92 49 110 104 12 35 19 40 58 47 24 5 56 20 71 32 15 13 37 26 48
30 26 8 26 22 0 30 -31 10 -24 47 23 114 68 99 87 134 87 161 0 68 -69 185
-113 192 -12 2 -44 0 -71 -5 -45 -8 -51 -7 -68 15 -9 13 -18 40 -18 60 0 28
-5 40 -22 49 -27 14 -46 36 -97 109 -31 45 -37 59 -29 79 7 19 4 27 -14 39
-13 9 -42 36 -66 62 -48 50 -48 52 -23 204 12 72 2 98 -48 121 -21 9 -45 29
-54 45 -9 15 -42 52 -73 81 -31 30 -65 72 -75 94 -10 22 -32 64 -50 94 -32 54
-32 54 -8 47 13 -4 60 -9 104 -12 44 -3 102 -10 128 -16 36 -8 59 -7 93 2 25
7 64 10 90 6 25 -3 53 -2 62 3 10 5 49 3 96 -5 l79 -14 46 34 c25 19 55 43 65
54 22 25 77 239 69 270 -4 19 2 30 30 53 42 34 54 71 32 102 -18 26 -19 44 -2
77 8 15 16 56 20 92 6 61 4 68 -23 109 -17 24 -40 59 -52 78 -12 19 -39 41
-65 52 -42 18 -43 19 -43 67 0 27 7 69 15 92 20 58 91 140 120 140 65 0 83 11
101 61 12 32 31 59 56 79 21 17 38 35 38 40 0 6 -18 26 -39 45 -42 38 -71 104
-71 160 0 23 11 45 40 78 25 28 40 55 40 71 0 29 -40 76 -63 76 -31 0 -25 38
9 70 31 28 34 35 34 88 0 31 -5 109 -11 172 -6 63 -12 147 -14 185 -3 69 -21
121 -50 145 -8 7 -15 25 -15 41 0 42 -14 70 -54 109 -29 28 -66 87 -66 106 0
2 12 4 26 4 14 0 56 9 94 21 90 27 121 60 154 166 19 62 40 101 86 162 65 87
87 105 138 116 18 4 45 17 60 29 15 13 38 26 52 29 102 23 130 37 130 62 0 6
18 31 40 54 22 23 43 53 46 67 5 17 20 31 56 46 37 16 54 30 63 52 7 17 37 72
67 122 30 50 60 109 67 132 l14 41 -57 62 c-76 84 -174 129 -282 129 -56 0
-73 -3 -78 -16 -11 -29 -62 21 -105 102 l-39 76 19 55 c10 31 19 73 19 93 0
20 5 41 12 48 15 15 -7 42 -34 42 -28 0 -34 28 -16 78 16 44 16 44 -10 68 -33
29 -29 28 -86 4 -35 -16 -62 -20 -113 -18 -68 3 -68 3 -88 42 -37 72 -95 68
-95 -5 0 -43 8 -41 -123 -44 -55 -2 -58 0 -77 32 -22 38 -41 41 -77 13 -16
-13 -41 -20 -67 -20 -37 0 -43 3 -53 30 -10 26 -16 30 -48 30 -49 0 -116 -20
-122 -37 -3 -7 3 -32 12 -56 27 -72 20 -85 -75 -145 -78 -49 -89 -53 -131 -48
-51 5 -65 0 -70 -29 -8 -42 -89 -20 -89 24 0 58 -82 84 -88 29 -3 -28 -26 -40
-104 -53 -32 -6 -37 -4 -43 16 -6 17 -2 27 14 41 31 24 18 38 -33 38 -29 0
-52 7 -70 21 -27 21 -28 21 -118 5 -71 -13 -99 -23 -127 -46 -19 -17 -38 -30
-42 -30 -3 0 -12 33 -19 74 -15 89 -19 97 -48 89 -18 -4 -22 -13 -22 -42 0
-34 -3 -38 -42 -51 -39 -14 -43 -19 -46 -51 -3 -31 -8 -39 -40 -53 -55 -24
-130 -36 -162 -24 -25 8 -29 17 -39 70 -9 53 -29 86 -52 88 -3 0 -11 11 -17
25 -11 23 -8 31 27 78 21 29 41 62 45 73 3 12 24 29 46 39 38 17 40 20 40 65
0 36 -5 51 -24 69 -20 19 -28 21 -45 12 -11 -6 -32 -8 -47 -5 -26 7 -26 8 -21
70 2 35 2 64 -2 63 -3 0 -41 -19 -84 -43z m-597 -2505 c0 -5 -7 -22 -15 -37
l-15 -29 0 31 c0 17 3 34 7 37 9 10 23 9 23 -2z"/>
</g>
</svg>
