<?xml version="1.0" standalone="no"?>
<!DOCTYPE svg PUBLIC "-//W3C//DTD SVG 20010904//EN"
 "http://www.w3.org/TR/2001/REC-SVG-20010904/DTD/svg10.dtd">
<svg version="1.0" xmlns="http://www.w3.org/2000/svg"
 width="1024.000000pt" height="1024.000000pt" viewBox="0 0 1024.000000 1024.000000"
 preserveAspectRatio="xMidYMid meet">
<metadata>
Created by potrace 1.10, written by Peter Selinger 2001-2011
</metadata>
<g transform="translate(0.000000,1024.000000) scale(0.100000,-0.100000)"
fill="#000000" stroke="none">
<path d="M48 9591 c2 -17 -6 -47 -22 -79 -34 -68 -33 -87 10 -152 50 -75 96
-123 181 -186 107 -80 111 -95 62 -216 -31 -73 -31 -79 -18 -114 12 -32 21
-40 54 -49 52 -13 65 -22 65 -44 0 -11 -15 -25 -39 -36 -22 -10 -50 -28 -62
-41 -21 -23 -22 -25 -6 -41 16 -16 15 -19 -10 -45 -15 -15 -23 -28 -17 -28 5
1 58 13 118 28 107 26 110 28 118 59 6 23 25 45 63 73 30 22 59 49 65 59 15
29 12 67 -6 81 -26 22 -38 51 -24 60 9 6 9 12 -1 28 -17 28 0 47 34 38 17 -4
38 -28 67 -76 36 -59 42 -76 37 -108 -4 -33 -1 -29 27 30 17 37 41 78 54 91
26 28 28 44 5 69 -15 17 -15 18 4 18 12 0 31 -9 44 -19 19 -16 22 -22 12 -32
-7 -7 -13 -27 -13 -44 0 -17 -6 -37 -12 -44 -16 -16 1 -29 95 -77 37 -19 65
-39 62 -44 -8 -13 -45 -13 -45 0 0 19 -33 10 -93 -27 -47 -29 -70 -38 -102
-36 -28 1 -49 -5 -65 -19 -14 -11 -20 -17 -14 -14 24 12 463 66 536 66 60 0
79 -4 86 -16 6 -10 20 -14 43 -12 l34 3 -3 48 c-4 53 11 62 43 27 17 -18 20
-19 36 -5 9 9 30 20 45 24 23 6 30 14 32 40 3 25 6 30 17 21 9 -8 14 -7 19 5
6 16 56 21 56 6 0 -5 -7 -14 -15 -21 -14 -12 -14 -15 1 -31 22 -25 43 -24 99
3 40 19 47 20 55 8 8 -13 14 -13 43 3 29 16 38 17 55 6 18 -11 24 -10 41 5 19
17 20 17 23 -11 3 -24 7 -28 36 -28 26 0 32 -3 29 -17 -3 -9 9 -30 29 -49 19
-19 34 -43 34 -56 0 -21 -5 -23 -49 -23 -41 0 -57 6 -95 35 -49 37 -67 45 -46
20 9 -11 10 -19 3 -26 -14 -14 -93 7 -93 24 0 7 -8 -1 -18 -18 l-18 -30 115
-31 c225 -62 494 -186 595 -274 32 -28 66 -50 77 -50 23 0 25 13 4 30 -9 7
-15 29 -15 51 0 21 -7 45 -16 54 -15 15 -18 15 -41 0 -39 -26 -66 -16 -76 28
-11 46 2 66 43 65 16 -1 43 5 60 12 30 12 34 12 52 -11 10 -13 24 -36 29 -50
l10 -27 24 24 c19 19 35 24 75 24 45 0 50 2 50 23 0 12 9 33 19 47 l19 24 13
-27 c10 -22 10 -32 0 -51 -16 -28 -79 -66 -112 -66 -21 0 -53 -38 -77 -92 -5
-11 133 -99 154 -98 10 0 39 3 63 6 37 5 43 4 38 -9 -3 -8 4 -24 17 -36 13
-12 29 -41 36 -64 l12 -42 22 28 c27 33 46 34 76 2 20 -21 21 -25 6 -31 -9 -3
-23 -4 -31 0 -10 4 -15 -1 -15 -14 0 -16 -7 -20 -31 -20 -43 0 -94 33 -113 75
-13 26 -24 36 -52 41 -19 4 -47 17 -62 29 -15 12 -38 26 -52 30 -20 6 -16 -1
20 -31 24 -22 52 -46 61 -56 10 -9 42 -32 72 -51 31 -20 60 -48 68 -65 10 -23
24 -33 64 -46 63 -19 81 -36 147 -134 l53 -77 5 -106 5 -106 120 29 c96 23
133 27 186 22 73 -6 112 6 164 50 29 25 29 26 11 41 -19 14 -18 15 18 15 29 0
37 4 33 14 -4 9 3 16 16 20 55 15 61 -3 22 -71 -14 -23 -23 -43 -20 -43 3 0
117 65 253 144 298 173 323 180 465 121 14 -6 17 -2 17 23 0 26 -4 31 -32 37
-96 20 -109 25 -106 48 3 23 20 26 72 12 26 -7 28 -6 21 11 -9 21 -18 96 -9
77 9 -21 24 -15 24 11 0 43 35 55 93 31 14 -6 17 -2 17 23 0 37 20 44 68 25
27 -11 33 -11 31 -1 -5 43 17 54 27 13 11 -45 25 -48 118 -24 101 27 96 29
266 -81 58 -37 150 -93 205 -125 147 -86 245 -192 245 -267 0 -31 7 -43 52
-83 56 -50 135 -95 168 -95 19 0 20 -6 20 -109 l0 -108 79 -72 c67 -60 85 -71
115 -71 32 0 38 -5 66 -52 17 -29 38 -78 47 -109 15 -50 23 -60 70 -89 50 -32
53 -36 53 -75 0 -55 22 -85 64 -85 17 0 36 4 41 9 6 6 52 1 120 -14 96 -20
112 -21 127 -8 20 17 23 12 32 -50 6 -38 4 -53 -9 -67 -15 -16 -14 -18 15 -24
34 -6 60 -52 60 -104 0 -31 15 -55 87 -136 25 -28 43 -58 43 -72 0 -22 -4 -24
-45 -24 -61 0 -68 -20 -25 -65 21 -22 31 -40 28 -53 -3 -11 2 -23 12 -30 9 -6
20 -29 24 -52 5 -35 9 -40 26 -35 27 8 25 -1 -6 -38 -20 -24 -24 -37 -19 -61
28 -135 7 -282 -54 -376 -6 -8 -22 -58 -36 -110 -14 -52 -43 -130 -64 -172
l-39 -77 16 -60 c14 -51 14 -70 4 -119 -7 -32 -12 -69 -12 -83 0 -14 -18 -55
-40 -92 -42 -69 -46 -89 -30 -132 14 -38 124 -165 131 -153 13 20 61 -1 72
-32 9 -23 18 -30 39 -30 27 0 28 2 28 52 0 44 5 57 29 83 l29 30 -21 45 c-15
30 -43 60 -89 95 -37 27 -67 54 -68 59 0 5 12 20 26 33 23 21 26 30 22 68 l-5
43 59 -31 c73 -38 164 -124 174 -162 4 -17 1 -39 -9 -61 -16 -33 -16 -34 6
-48 12 -8 32 -17 44 -21 22 -6 22 -6 8 29 -23 53 -20 113 6 126 17 9 23 8 33
-6 12 -16 15 -16 31 9 23 36 37 34 34 -5 -1 -18 5 -51 15 -72 10 -22 20 -55
23 -73 5 -30 0 -38 -61 -97 -36 -35 -66 -68 -66 -73 0 -5 -16 -25 -36 -44 -44
-42 -64 -79 -64 -118 0 -20 -8 -35 -27 -49 l-28 -20 29 5 c27 6 28 5 15 -18
-7 -13 -19 -29 -27 -35 -8 -6 -12 -16 -8 -22 10 -16 45 -15 96 3 43 15 80 12
80 -6 0 -5 -13 -12 -30 -15 -16 -4 -32 -15 -35 -25 -8 -23 -39 -24 -115 -4
-70 19 -68 19 -62 -10 2 -14 -1 -32 -8 -40 -10 -11 -1 -19 49 -45 47 -23 62
-36 67 -58 3 -15 12 -48 20 -74 9 -28 13 -61 9 -81 -6 -29 -2 -42 23 -76 21
-29 38 -72 52 -134 29 -125 48 -164 120 -249 34 -40 77 -105 96 -144 26 -54
41 -74 59 -78 14 -4 37 -24 51 -46 15 -22 29 -40 32 -40 4 0 16 12 29 27 19
24 24 26 33 13 9 -13 10 -13 9 0 0 20 -24 117 -39 158 -7 19 -19 32 -29 32
-18 0 -46 27 -74 72 -16 26 -16 27 5 33 16 6 26 0 45 -24 13 -17 33 -31 43
-31 10 0 28 -14 40 -31 l22 -30 20 20 c11 13 32 21 51 21 18 0 58 11 89 24 59
24 68 24 68 -4 0 -10 -26 -28 -70 -50 -73 -35 -85 -55 -53 -81 21 -18 43 -71
43 -106 0 -15 -12 -61 -26 -101 l-27 -73 28 -80 c24 -70 26 -83 14 -105 -11
-22 -10 -27 8 -46 20 -20 22 -20 70 -4 58 19 94 61 91 104 -3 35 20 72 66 107
36 27 106 45 106 28 0 -6 -25 -32 -55 -58 -40 -34 -66 -67 -92 -119 -38 -77
-78 -126 -102 -126 -10 0 -3 -12 19 -35 33 -34 35 -35 44 -16 8 18 15 20 50
15 26 -4 50 -15 65 -32 22 -24 23 -31 17 -107 -3 -44 -2 -96 4 -115 5 -19 18
-100 30 -179 25 -170 49 -240 93 -276 74 -60 128 -95 148 -95 11 0 32 -9 46
-20 14 -11 39 -20 55 -20 16 0 61 -17 101 -39 40 -21 85 -42 102 -46 16 -3 52
-29 80 -57 45 -45 48 -51 32 -63 -23 -17 -21 -40 5 -84 17 -27 24 -32 26 -18
4 20 31 22 56 4 16 -12 16 -16 6 -34 -11 -18 -8 -33 21 -112 29 -77 37 -91 57
-91 26 0 27 -2 7 -39 -13 -27 -13 -31 15 -67 16 -22 32 -55 36 -74 10 -57 53
-116 100 -138 36 -18 47 -19 79 -9 l38 11 58 -62 c62 -66 68 -85 44 -133 l-16
-29 -27 20 c-15 11 -50 26 -77 33 -43 10 -50 16 -53 40 -3 21 -9 27 -27 27
-25 0 -35 17 -35 56 0 22 -4 25 -31 22 -28 -3 -33 -8 -45 -48 -8 -25 -14 -57
-14 -72 0 -44 38 -132 70 -163 l30 -29 103 17 c66 12 117 27 146 44 38 22 52
25 107 20 39 -3 77 -13 99 -26 l36 -21 54 40 c117 86 142 99 183 89 73 -17 80
-13 173 78 71 69 86 89 74 95 -20 12 -19 32 5 101 11 31 20 77 20 102 0 25 8
60 17 78 9 18 20 57 24 87 5 43 17 72 53 125 26 39 62 80 80 92 32 20 34 26
40 96 7 69 13 84 58 148 18 26 43 197 103 713 39 335 47 588 20 636 -17 30
-19 70 -4 70 19 0 3 72 -52 235 -57 168 -74 201 -136 263 -53 51 -71 53 -75
10 l-3 -33 -22 40 c-11 22 -33 51 -47 64 -14 14 -26 28 -26 33 0 17 38 7 60
-17 25 -26 37 -30 58 -16 10 6 -1 41 -49 157 -94 227 -126 322 -147 435 -18
91 -33 132 -127 329 -305 641 -406 913 -485 1304 -16 82 -30 162 -30 178 l0
28 47 -29 c26 -17 49 -28 51 -27 1 2 -28 59 -66 127 -100 178 -187 357 -282
573 -70 161 -81 194 -76 226 5 32 -14 84 -145 396 -98 235 -151 375 -154 405
-2 25 -20 84 -39 132 -39 92 -44 132 -22 162 12 17 14 13 26 -36 7 -30 17 -61
22 -69 7 -11 8 -10 4 5 -18 67 -50 228 -76 387 -17 101 -33 189 -35 197 -4 11
-10 10 -31 -4 -21 -13 -38 -16 -75 -11 -45 6 -49 5 -49 -14 0 -25 -3 -25 -67
0 l-51 19 0 -43 c1 -51 -6 -66 -33 -66 -30 0 -26 -57 8 -92 25 -26 25 -29 10
-46 -18 -20 -23 -47 -7 -37 22 14 8 -19 -20 -45 -16 -15 -30 -31 -30 -34 0 -3
18 -6 40 -6 45 0 49 -8 19 -36 -30 -27 -49 -68 -49 -106 0 -29 5 -36 34 -46
39 -14 112 -82 98 -91 -5 -3 -17 -23 -26 -43 l-18 -37 51 -100 c28 -55 51
-111 51 -124 0 -14 -17 -44 -41 -71 -31 -35 -48 -46 -70 -46 -35 0 -35 -3 -4
-59 14 -23 25 -51 25 -61 0 -31 -30 -52 -64 -47 -17 2 -41 1 -52 -4 -29 -10
-39 -55 -19 -85 8 -13 15 -41 15 -63 0 -22 5 -43 10 -46 6 -4 8 -10 5 -14 -2
-5 2 -17 10 -27 8 -10 15 -27 15 -36 0 -10 17 -26 38 -37 46 -23 122 -104 122
-129 0 -10 -4 -22 -10 -28 -6 -6 -6 -21 2 -42 15 -40 5 -59 -44 -87 -54 -29
-80 -13 -106 64 -12 34 -30 73 -41 88 -23 28 -27 58 -11 68 15 9 12 41 -5 55
-14 12 -13 15 5 35 l20 22 -26 12 c-28 12 -29 25 -8 113 4 20 1 31 -15 44 -29
25 -26 58 8 96 23 26 37 33 68 33 42 0 60 28 23 38 -11 3 -20 13 -20 24 0 11
-7 28 -15 39 -32 43 -13 68 64 80 38 6 41 9 42 38 2 52 -1 62 -41 141 -43 83
-48 106 -25 125 35 29 16 61 -57 100 -38 20 -68 64 -68 98 0 10 7 33 15 50 14
27 12 82 -2 82 -2 0 -19 -11 -37 -25 -18 -14 -36 -25 -39 -25 -18 0 -4 37 24
66 18 18 46 58 64 90 31 54 32 57 14 75 -10 10 -26 15 -38 12 -29 -7 -26 4 15
65 39 58 57 70 78 53 11 -9 15 -8 20 5 13 33 5 54 -29 80 -20 15 -35 35 -35
47 0 19 1 19 18 4 21 -19 45 -21 73 -7 14 8 25 6 46 -9 25 -18 34 -18 81 -8
41 9 58 8 73 -1 26 -16 59 1 59 31 0 31 -33 107 -46 107 -6 0 -17 7 -24 15
-10 12 -15 13 -21 4 -4 -8 -21 -9 -51 -5 -39 6 -46 11 -57 42 -7 20 -11 37 -9
38 1 2 24 17 49 34 34 23 48 39 51 61 3 19 0 32 -8 35 -7 3 -10 14 -7 25 4 14
1 21 -9 21 -15 0 -77 59 -77 74 0 6 -24 16 -53 23 -29 8 -57 18 -62 23 -6 6
-29 10 -52 10 -26 0 -47 6 -55 16 -7 9 -21 13 -33 10 -12 -3 -27 3 -41 18 -28
30 -166 80 -199 72 -14 -3 -33 -20 -41 -37 -11 -21 -21 -28 -33 -25 -14 5 -21
-6 -36 -58 -25 -88 -24 -131 5 -203 l24 -63 -27 -132 c-15 -73 -25 -145 -22
-159 9 -41 -14 -52 -110 -48 -113 5 -126 17 -126 112 0 57 -5 78 -26 114 -18
32 -24 52 -19 73 l6 28 -63 6 c-254 25 -2426 161 -2896 181 l-583 26 -42 45
c-58 63 -76 106 -77 182 0 66 -22 129 -47 139 -7 3 -13 13 -13 24 0 10 -5 30
-12 44 l-11 25 -1742 0 -1742 0 5 -29z"/>
<path d="M8328 9143 c-21 -23 -23 -39 -5 -47 8 -3 5 -11 -10 -24 -15 -13 -18
-23 -12 -29 6 -6 16 -28 24 -49 l13 -38 7 85 c4 47 5 94 4 103 -4 17 -5 17
-21 -1z"/>
<path d="M9294 6040 c-16 -6 -23 -20 -27 -55 -4 -26 -5 -51 -2 -55 3 -4 21
-11 40 -14 50 -10 60 -35 39 -98 -13 -41 -15 -70 -10 -142 3 -50 10 -107 15
-126 8 -32 9 -31 10 25 1 53 3 58 15 42 13 -16 15 -13 21 31 3 27 19 74 35
105 22 45 27 65 23 98 -5 33 -2 45 12 55 10 8 17 15 14 17 -2 1 -35 28 -74 58
-87 69 -85 68 -111 59z"/>
<path d="M9510 5718 c-7 -40 -17 -81 -22 -92 -7 -13 3 -9 39 14 26 18 49 34
50 34 1 1 -11 27 -26 59 l-28 57 -13 -72z"/>
<path d="M9481 5230 c0 -19 6 -46 14 -60 13 -22 14 -23 14 -5 0 11 -6 38 -14
60 l-13 40 -1 -35z"/>
</g>
</svg>
