<?xml version="1.0" standalone="no"?>
<!DOCTYPE svg PUBLIC "-//W3C//DTD SVG 20010904//EN"
 "http://www.w3.org/TR/2001/REC-SVG-20010904/DTD/svg10.dtd">
<svg version="1.0" xmlns="http://www.w3.org/2000/svg"
 width="1024.000000pt" height="1024.000000pt" viewBox="0 0 1024.000000 1024.000000"
 preserveAspectRatio="xMidYMid meet">
<metadata>
Created by potrace 1.10, written by Peter Selinger 2001-2011
</metadata>
<g transform="translate(0.000000,1024.000000) scale(0.100000,-0.100000)"
fill="#000000" stroke="none">
<path d="M4410 10168 c0 -120 -33 -293 -73 -392 -20 -49 -51 -141 -67 -205
-52 -197 -100 -330 -175 -488 -93 -193 -263 -506 -328 -603 -28 -41 -68 -111
-90 -155 -21 -44 -51 -95 -67 -115 -37 -47 -56 -87 -64 -134 -4 -22 -21 -56
-37 -75 -26 -32 -29 -42 -29 -111 0 -109 -27 -307 -49 -365 -26 -67 -61 -144
-173 -380 -53 -110 -121 -264 -153 -343 -49 -123 -58 -158 -70 -260 -24 -197
-19 -396 15 -644 42 -305 88 -494 150 -618 15 -30 31 -80 35 -110 5 -35 25
-90 56 -150 26 -52 58 -124 71 -160 13 -36 62 -126 109 -200 101 -159 221
-383 250 -466 30 -88 86 -339 94 -424 4 -41 20 -130 36 -197 32 -136 68 -343
99 -568 12 -82 40 -220 63 -305 l42 -155 0 -230 c0 -217 -1 -234 -24 -300 -25
-71 -77 -163 -140 -246 -37 -49 -189 -177 -371 -314 -58 -43 -159 -124 -225
-180 -182 -153 -229 -187 -360 -255 -66 -35 -175 -100 -243 -144 -111 -73
-124 -85 -133 -120 -13 -46 -3 -195 16 -246 7 -19 24 -64 38 -100 13 -36 30
-107 37 -158 l13 -93 30 3 31 3 -3 66 c-3 74 1 79 69 98 25 7 53 15 63 17 15
5 17 -1 15 -53 -2 -50 4 -70 38 -143 36 -75 77 -131 88 -119 1 2 35 65 74 139
105 198 124 215 194 179 24 -12 57 -35 74 -51 21 -20 40 -29 55 -26 20 2 26
13 39 64 l15 62 28 -15 c34 -17 77 -18 239 -5 145 12 189 30 208 85 25 73 42
83 213 122 87 19 183 47 214 60 30 14 68 25 84 25 19 0 35 10 52 32 25 31 73
51 153 65 32 5 84 -17 194 -82 30 -18 76 -41 101 -50 39 -14 52 -26 73 -65 14
-27 46 -69 70 -95 47 -49 58 -85 71 -235 11 -117 24 -165 53 -192 51 -48 146
-56 189 -17 72 64 119 88 207 103 49 9 103 25 123 37 32 20 50 23 167 23 l131
1 80 47 c44 25 99 51 122 58 26 8 45 21 52 36 15 34 51 53 122 66 49 8 70 18
94 42 16 17 53 40 80 51 43 17 51 25 59 57 7 30 17 40 45 51 33 13 38 13 60
-4 56 -45 111 -12 169 100 23 46 42 92 42 104 0 12 16 67 35 122 45 129 45
166 0 241 -47 77 -49 90 -34 174 l12 70 49 0 c26 0 75 -9 109 -21 33 -12 62
-19 63 -18 2 2 34 49 71 104 38 55 70 101 71 103 1 2 66 10 145 18 175 18 179
21 179 113 0 49 7 80 25 119 42 91 32 263 -25 426 -24 69 -191 396 -244 476
-20 30 -37 57 -38 60 -2 3 -17 16 -34 28 -47 32 -50 62 -15 130 40 77 60 150
68 249 6 80 7 83 64 160 47 62 69 82 108 99 56 25 78 57 88 129 3 24 17 59 30
77 l24 33 -29 6 c-15 3 -72 36 -126 72 -53 37 -104 67 -112 67 -29 0 -44 64
-44 185 0 94 -4 123 -19 153 -10 20 -24 56 -30 79 -11 38 -9 46 13 81 13 21
33 68 44 104 l20 66 -34 33 c-36 34 -91 137 -109 202 l-10 38 -87 -66 c-48
-37 -90 -75 -93 -84 -6 -21 -79 -41 -151 -41 -118 0 -190 76 -225 237 -22 102
-37 141 -64 163 -11 9 -14 22 -9 44 19 105 -129 270 -366 406 -41 24 -122 81
-179 127 -118 95 -138 100 -221 58 -43 -22 -63 -25 -147 -25 -83 0 -106 4
-152 25 l-54 25 7 42 c8 48 21 68 45 68 9 0 27 9 41 20 14 11 31 20 38 20 7 0
33 31 57 70 25 38 50 72 55 75 16 10 12 300 -5 380 -8 39 -15 112 -15 163 l0
93 108 117 c103 112 108 121 134 202 47 148 97 281 119 311 11 16 17 34 13 41
-4 7 -52 55 -105 106 -87 82 -98 98 -109 143 -7 28 -25 65 -39 83 -15 17 -34
47 -41 65 -8 19 -26 49 -40 65 -14 17 -48 69 -75 115 -52 86 -54 89 -144 116
-39 12 -73 33 -123 78 -73 66 -98 75 -194 76 -32 1 -56 6 -64 15 -9 11 -18 13
-37 5 -14 -5 -28 -7 -31 -4 -9 9 76 212 121 290 69 120 162 257 231 340 108
130 111 218 12 350 -29 38 -67 98 -85 132 -56 105 -398 426 -504 473 -26 12
-52 31 -58 43 -6 12 -26 38 -43 57 -29 31 -77 153 -88 224 -2 13 -15 23 -36
28 -21 6 -63 39 -121 98 -49 50 -96 90 -105 90 -13 0 -16 -13 -16 -72z"/>
</g>
</svg>
