<?xml version="1.0" standalone="no"?>
<!DOCTYPE svg PUBLIC "-//W3C//DTD SVG 20010904//EN"
 "http://www.w3.org/TR/2001/REC-SVG-20010904/DTD/svg10.dtd">
<svg version="1.0" xmlns="http://www.w3.org/2000/svg"
 width="1024.000000pt" height="1024.000000pt" viewBox="0 0 1024.000000 1024.000000"
 preserveAspectRatio="xMidYMid meet">
<metadata>
Created by potrace 1.10, written by Peter Selinger 2001-2011
</metadata>
<g transform="translate(0.000000,1024.000000) scale(0.100000,-0.100000)"
fill="#000000" stroke="none">
<path d="M4035 10209 c-71 -25 -94 -29 -197 -29 -128 0 -163 -8 -194 -46 -22
-26 -21 -50 7 -174 10 -42 9 -46 -15 -65 -39 -31 -59 -139 -40 -214 21 -80 14
-98 -52 -128 -42 -19 -84 -28 -168 -35 -197 -16 -205 -20 -294 -103 -43 -40
-86 -88 -95 -107 -19 -37 -77 -348 -77 -413 0 -38 -4 -45 -37 -67 -21 -14 -54
-30 -73 -37 -20 -6 -59 -35 -87 -64 -40 -41 -53 -63 -63 -104 -15 -64 -7 -91
50 -171 22 -32 40 -63 40 -70 0 -7 -24 -59 -54 -115 -30 -56 -59 -118 -65
-138 -8 -26 -21 -40 -49 -53 -20 -10 -75 -42 -122 -72 -92 -58 -140 -113 -140
-162 0 -48 26 -118 68 -185 22 -35 47 -86 55 -113 13 -44 13 -53 -3 -90 -19
-45 -66 -84 -99 -84 -37 0 -129 -40 -143 -63 -8 -12 -20 -44 -27 -72 -7 -27
-19 -58 -28 -67 -14 -15 -18 -14 -58 14 -49 35 -95 39 -144 13 -36 -18 -39
-26 -51 -151 -10 -103 -18 -139 -43 -189 -8 -16 -22 -89 -32 -161 l-17 -130
-47 -29 c-25 -16 -88 -72 -139 -125 -79 -81 -92 -99 -87 -120 8 -31 33 -51 93
-72 151 -54 276 -215 231 -299 -17 -34 -28 -39 -85 -39 -41 0 -55 -5 -74 -25
-23 -25 -24 -31 -21 -143 7 -214 8 -209 -30 -248 -34 -35 -34 -36 -33 -122 1
-48 6 -100 13 -115 6 -16 11 -69 11 -119 0 -50 5 -120 11 -154 10 -56 15 -65
45 -83 41 -24 101 -21 176 10 93 38 128 18 128 -73 0 -66 15 -115 41 -128 10
-6 38 -41 63 -78 24 -37 58 -86 74 -109 17 -25 34 -67 41 -104 11 -52 20 -70
53 -103 l40 -40 -7 -106 c-8 -128 -9 -269 -2 -276 2 -3 45 -8 94 -11 70 -4
101 -2 142 12 l53 17 72 -36 c69 -35 73 -39 99 -99 30 -69 35 -142 15 -209
-11 -36 -29 -57 -73 -83 -19 -12 -44 -116 -45 -191 0 -43 5 -56 35 -91 26 -31
47 -44 84 -53 52 -12 199 -93 206 -113 23 -62 43 -360 29 -415 -4 -15 -37 -40
-98 -76 -125 -74 -133 -85 -152 -192 -12 -71 -19 -92 -37 -103 -12 -8 -49 -43
-82 -77 -33 -34 -81 -72 -108 -84 -57 -27 -60 -31 -52 -73 5 -28 17 -39 73
-73 37 -21 91 -50 120 -64 51 -23 53 -26 48 -54 -8 -38 -9 -39 -58 -45 -35 -5
-47 -13 -69 -45 -14 -21 -43 -48 -63 -58 -29 -15 -43 -33 -66 -82 -26 -60 -32
-65 -103 -104 -71 -39 -76 -45 -106 -107 -44 -95 -37 -133 43 -237 34 -44 86
-112 116 -152 144 -190 157 -203 238 -232 41 -15 118 -37 171 -49 88 -20 100
-20 145 -7 37 11 90 13 220 10 l172 -4 46 -32 c37 -25 57 -32 96 -32 45 0 55
-4 101 -46 l51 -46 -2 -172 c-1 -117 3 -193 13 -241 13 -66 16 -71 51 -88 35
-17 41 -17 92 -3 77 23 129 21 152 -5 16 -18 27 -20 64 -16 25 3 66 17 90 31
57 32 80 33 110 1 23 -24 64 -33 85 -17 6 4 32 40 59 79 l48 73 87 0 c79 0 91
-3 132 -29 25 -16 59 -50 78 -80 29 -44 37 -51 65 -51 18 0 41 6 51 14 17 12
18 17 7 40 -24 53 -10 157 27 200 13 15 25 17 73 12 l57 -6 20 56 c12 30 21
63 21 72 0 10 12 32 28 50 24 30 40 36 157 64 72 17 132 33 135 35 3 3 4 39 3
82 -2 50 2 83 10 95 20 28 78 36 327 46 206 8 245 13 315 35 96 30 120 31 182
6 26 -10 65 -21 86 -25 20 -4 37 -12 37 -17 0 -6 29 -41 65 -78 49 -51 65 -75
65 -97 0 -16 9 -49 20 -73 11 -24 20 -52 20 -63 0 -31 49 -88 76 -88 14 0 50
-9 82 -21 41 -15 78 -21 133 -20 l77 2 42 -53 c23 -29 47 -64 53 -77 10 -21
16 -22 57 -17 41 5 49 3 89 -29 32 -26 50 -33 67 -29 18 5 32 -1 56 -25 38
-37 70 -48 107 -35 36 13 38 45 5 83 -25 30 -26 36 -20 104 21 248 20 285 -13
412 -16 66 -42 153 -56 194 -26 79 -33 188 -16 262 5 20 37 74 72 120 78 102
99 143 99 188 0 30 -10 44 -80 111 -75 72 -80 79 -80 118 0 46 26 79 70 88 63
13 70 21 70 73 0 30 -5 53 -15 61 -16 13 -13 50 11 116 13 37 19 42 72 57 31
9 73 19 92 22 52 10 77 30 117 93 20 31 51 77 70 101 18 24 38 62 44 85 22 79
61 170 88 206 52 65 84 141 89 211 4 64 4 66 -28 93 -18 15 -46 30 -61 33 -59
12 -45 98 24 148 23 17 96 82 162 145 112 107 180 162 251 205 16 9 65 65 108
123 88 118 102 162 72 226 -9 19 -16 50 -16 70 0 41 10 44 67 21 49 -21 53
-19 53 15 0 22 -12 44 -43 78 -82 89 -88 103 -81 177 6 60 9 67 40 85 18 12
56 46 84 77 47 51 51 60 46 92 -3 20 -14 42 -25 51 -30 23 -40 78 -23 120 10
25 12 53 8 102 -9 82 0 100 58 122 82 31 123 126 97 223 -14 50 -20 55 -59 47
-23 -5 -32 -13 -37 -34 -3 -15 -19 -40 -35 -55 -37 -35 -73 -28 -101 19 -30
52 -89 86 -148 86 -44 0 -49 3 -55 25 -7 27 -25 39 -72 49 -29 6 -35 3 -60
-33 -18 -24 -48 -49 -76 -62 -41 -19 -57 -21 -124 -15 -65 5 -90 13 -158 50
-45 23 -105 49 -134 56 -45 10 -60 21 -105 72 -29 32 -73 72 -99 89 -46 30
-59 50 -93 141 -11 31 -32 60 -59 81 -60 49 -79 57 -136 57 -43 0 -60 -6 -106
-37 -30 -21 -57 -46 -60 -56 -12 -36 -46 -48 -102 -36 -29 6 -54 14 -57 19 -3
5 -10 59 -16 120 -7 69 -23 149 -43 212 -34 110 -33 108 -118 123 -21 3 -44
12 -52 21 -23 23 -152 74 -225 89 -62 13 -70 18 -126 78 -195 208 -244 289
-252 418 -6 83 -6 85 -54 140 -46 53 -48 58 -38 88 6 17 20 36 31 42 24 13 18
37 -23 96 -16 23 -32 55 -35 72 -4 18 -11 34 -17 38 -5 3 -46 5 -91 4 -95 -2
-132 10 -193 67 -34 31 -43 47 -43 72 0 25 -10 43 -44 77 -39 39 -47 55 -62
119 -13 59 -14 77 -4 89 22 26 -26 105 -80 132 -25 12 -55 23 -68 23 -21 0
-50 27 -104 96 -24 30 -18 74 10 74 26 0 94 66 90 86 -2 9 -12 22 -23 28 -11
6 -23 16 -27 21 -13 17 -9 66 9 95 l16 29 -58 78 c-66 87 -84 128 -85 193 0
25 -7 71 -14 104 -12 50 -12 64 1 102 29 86 2 132 -61 101 -32 -15 -37 -15
-51 -1 -18 19 -18 14 1 94 8 36 31 93 50 128 27 51 32 67 24 83 -8 15 -6 30
10 65 11 27 20 68 20 97 0 41 5 56 26 78 37 38 54 122 54 265 0 142 -2 146
-108 221 -37 26 -69 48 -71 49 -2 2 11 26 28 53 32 50 33 51 26 143 -9 127
-26 171 -82 210 -44 29 -52 31 -163 36 l-117 5 -21 -28 c-12 -15 -24 -42 -28
-61 -11 -60 -41 -74 -160 -74 -100 0 -105 1 -163 35 -33 20 -63 39 -66 44 -3
5 -9 50 -14 101 -7 62 -16 98 -27 111 -24 27 -82 23 -179 -12z"/>
</g>
</svg>
