<?xml version="1.0" standalone="no"?>
<!DOCTYPE svg PUBLIC "-//W3C//DTD SVG 20010904//EN"
 "http://www.w3.org/TR/2001/REC-SVG-20010904/DTD/svg10.dtd">
<svg version="1.0" xmlns="http://www.w3.org/2000/svg"
 width="1024.000000pt" height="1024.000000pt" viewBox="0 0 1024.000000 1024.000000"
 preserveAspectRatio="xMidYMid meet">
<metadata>
Created by potrace 1.10, written by Peter Selinger 2001-2011
</metadata>
<g transform="translate(0.000000,1024.000000) scale(0.100000,-0.100000)"
fill="#000000" stroke="none">
<path d="M9117 7407 c-55 -27 -63 -29 -200 -29 -113 0 -161 4 -232 21 -132 32
-190 36 -261 17 -34 -9 -92 -16 -129 -16 -36 0 -75 -4 -85 -10 -10 -6 -129
-12 -265 -14 -203 -3 -250 -7 -270 -20 -13 -9 -38 -16 -55 -16 -17 0 -57 -8
-90 -17 -57 -15 -64 -15 -114 0 -29 9 -66 17 -83 17 -17 0 -41 8 -54 18 -39
30 -51 31 -201 16 -166 -17 -189 -24 -181 -53 5 -19 1 -21 -40 -21 -35 0 -49
-5 -56 -19 -9 -16 -27 -20 -113 -26 -79 -6 -108 -12 -130 -28 -26 -19 -42 -21
-293 -21 l-266 -1 -19 -25 c-11 -14 -20 -33 -20 -43 0 -9 -11 -35 -25 -56 -39
-58 -64 -62 -317 -51 -119 4 -234 6 -255 3 -43 -6 -93 15 -171 70 -33 24 -56
32 -102 35 -34 2 -65 10 -71 18 -7 8 -31 14 -58 14 -25 0 -77 12 -116 26 -38
14 -82 28 -97 31 -15 3 -45 20 -67 39 -29 25 -49 34 -75 34 -25 0 -36 5 -36
14 0 32 -156 86 -247 86 -26 0 -36 -5 -40 -20 -6 -23 -12 -25 -123 -40 -72
-10 -90 -10 -120 3 l-35 15 -45 -48 -45 -48 -67 0 c-50 0 -74 -4 -94 -18 -61
-44 -80 -54 -99 -54 -38 0 -82 -37 -109 -91 -21 -44 -26 -67 -26 -131 0 -70
-4 -86 -36 -151 -36 -71 -37 -73 -31 -162 7 -117 32 -180 77 -190 30 -7 31 -8
14 -26 -14 -16 -31 -19 -98 -19 l-82 0 -68 57 -68 56 -154 -12 c-150 -11 -156
-11 -183 9 -19 13 -45 20 -75 20 -34 0 -62 9 -104 33 -53 29 -64 32 -152 33
-63 1 -110 7 -140 19 -38 14 -60 16 -140 9 -127 -11 -272 -7 -343 11 -105 27
-141 21 -260 -40 -59 -30 -132 -62 -162 -70 -60 -15 -164 -96 -191 -148 -9
-17 -33 -36 -58 -47 -59 -25 -67 -55 -20 -78 31 -14 34 -20 32 -53 -1 -31 8
-48 66 -123 67 -86 67 -86 105 -80 35 6 40 3 69 -32 49 -59 56 -46 -105 -191
-37 -34 -96 -84 -130 -112 -34 -28 -78 -71 -99 -95 -20 -24 -54 -52 -75 -61
-23 -11 -40 -26 -43 -40 -4 -17 -40 -43 -131 -95 l-125 -71 0 -40 c0 -22 7
-51 16 -64 14 -21 24 -25 68 -25 42 0 64 -7 110 -35 32 -19 62 -35 66 -35 4 0
37 16 74 35 80 42 144 47 176 15 17 -17 20 -33 20 -115 0 -59 4 -95 10 -95 6
0 29 9 51 20 l40 21 28 -21 c38 -26 59 -25 103 5 45 30 49 30 123 5 32 -11 68
-20 81 -20 15 0 36 -16 61 -45 20 -25 44 -45 53 -45 30 0 50 53 50 132 l0 74
35 17 c35 17 35 17 35 -7 0 -23 28 -56 47 -56 6 0 13 18 17 39 5 33 13 44 51
68 52 32 56 52 19 96 -28 33 -21 47 27 47 14 0 31 6 38 13 11 10 12 3 7 -40
-6 -45 -4 -53 13 -63 13 -7 22 -7 26 0 12 20 34 10 40 -18 3 -16 19 -38 34
-50 l29 -21 -14 -63 c-7 -35 -13 -71 -14 -80 0 -32 33 -39 144 -30 l106 8 6
-34 c4 -18 4 -46 0 -62 l-6 -30 68 0 c43 0 91 8 131 21 l63 21 81 -22 c102
-29 124 -40 165 -83 32 -33 34 -34 83 -25 43 8 62 5 131 -18 79 -26 82 -26
114 -9 23 12 37 14 50 7 9 -5 29 -6 43 -3 35 10 75 -1 79 -22 3 -15 -7 -17
-80 -17 l-84 0 -56 -50 c-36 -32 -67 -73 -89 -115 l-34 -66 -37 6 c-51 9 -61
0 -42 -36 8 -17 13 -33 10 -36 -3 -4 -34 -9 -68 -12 -60 -6 -66 -4 -123 30
-57 35 -165 62 -165 41 0 -14 40 -52 55 -52 17 0 20 -21 5 -36 -5 -5 -13 -34
-17 -64 -7 -45 -12 -56 -29 -58 -27 -4 -84 43 -84 69 0 58 -114 -26 -137 -101
-6 -19 -25 -66 -41 -105 l-29 -70 -49 -1 c-30 -2 -64 -11 -86 -23 -49 -29
-158 -40 -177 -17 -11 13 -32 16 -102 16 -78 0 -90 2 -99 20 -8 14 -21 20 -48
20 -20 1 -48 7 -62 15 -40 23 -157 19 -221 -7 -68 -27 -79 -41 -79 -99 0 -42
4 -50 48 -91 26 -24 55 -49 65 -54 21 -12 41 -87 33 -121 -5 -19 -11 -21 -41
-16 -23 4 -43 0 -60 -11 -29 -19 -31 -10 -10 41 23 55 19 88 -15 116 -23 20
-30 34 -30 62 l0 37 -104 -4 c-103 -3 -104 -4 -144 -40 -22 -20 -49 -39 -60
-42 -14 -5 -26 -24 -37 -57 -20 -58 -80 -114 -96 -88 -5 8 -9 26 -9 40 0 32
-10 36 -93 45 -49 5 -77 1 -134 -16 l-71 -21 -39 24 c-39 25 -159 56 -296 78
l-77 12 -51 -32 c-28 -17 -58 -31 -67 -31 -30 0 -100 -34 -113 -55 -7 -11 -16
-40 -19 -64 -4 -40 -8 -45 -42 -57 -36 -12 -37 -12 -64 27 -15 22 -32 38 -38
36 -6 -2 -14 -28 -17 -58 -3 -30 -13 -70 -23 -90 l-18 -36 32 -62 c30 -60 31
-68 25 -135 -10 -108 -16 -106 292 -106 153 0 269 5 305 12 51 11 62 10 87 -5
40 -24 60 -21 101 12 l34 29 40 -20 c31 -16 44 -18 63 -9 34 15 124 13 147 -4
14 -11 17 -22 12 -49 -3 -20 -9 -52 -12 -72 -5 -30 -2 -40 22 -65 34 -35 79
-39 118 -8 14 11 69 38 122 59 53 21 106 48 118 59 32 30 170 91 207 91 26 0
43 -12 94 -66 61 -63 65 -65 122 -71 86 -8 113 -37 113 -119 0 -74 18 -98 51
-68 18 16 25 17 66 6 40 -11 47 -11 59 5 7 10 14 21 14 26 1 21 55 1 143 -53
53 -33 108 -60 120 -60 27 0 61 32 76 72 14 37 63 70 151 103 68 24 93 28 275
35 110 5 258 16 329 25 127 15 130 16 222 70 80 47 100 55 144 55 28 0 61 -7
74 -15 22 -14 24 -13 55 25 23 29 40 40 59 40 15 0 46 9 68 19 32 15 44 26 49
50 4 17 18 44 31 60 l24 29 -16 112 -15 112 23 25 c13 14 51 44 86 66 66 44
83 70 119 182 21 64 39 85 76 85 18 0 48 14 77 35 56 41 122 54 179 35 34 -11
44 -10 87 9 27 12 60 33 74 45 14 13 48 35 75 49 28 15 61 42 75 61 17 24 43
42 85 58 46 18 61 29 63 46 5 35 44 48 106 35 62 -13 141 -6 158 14 10 12 7
20 -19 42 -28 22 -73 111 -73 141 0 18 44 10 89 -15 l44 -26 115 32 c150 42
298 120 328 174 38 67 64 85 107 78 31 -5 39 -11 44 -33 3 -16 18 -44 35 -64
27 -33 34 -36 84 -36 51 0 54 -2 54 -24 0 -14 -9 -31 -21 -39 -20 -14 -20 -16
-4 -71 9 -31 19 -56 21 -56 3 0 23 9 45 21 38 19 42 19 59 4 24 -22 66 -10 92
26 18 24 29 29 62 29 30 0 45 5 54 20 7 12 18 17 27 14 19 -8 95 20 147 53 21
12 40 23 43 23 2 0 12 -14 20 -31 l16 -30 34 25 c18 14 46 26 62 26 22 1 45
19 113 92 l85 91 -3 86 c-2 67 -7 92 -22 113 -11 15 -20 30 -20 34 0 4 20 31
45 60 25 28 45 62 45 74 0 39 32 77 84 102 27 12 63 34 78 46 25 21 32 23 60
13 28 -10 34 -9 58 14 23 22 34 25 106 25 49 0 85 5 92 12 7 7 38 13 70 14 31
2 76 9 99 18 29 10 63 13 115 9 66 -5 80 -3 146 26 42 17 90 30 110 30 20 -1
67 11 105 25 55 21 85 26 160 26 136 0 156 14 229 159 32 62 67 140 79 172 15
40 27 59 38 59 9 0 38 22 65 49 38 38 58 50 90 55 31 5 48 15 69 41 15 19 62
61 105 93 42 33 121 100 174 149 96 90 97 91 156 95 54 4 64 9 113 51 52 46
99 61 114 37 3 -5 24 -14 47 -21 79 -21 158 37 210 152 9 22 28 44 42 50 13 7
30 25 37 41 20 48 72 75 173 88 70 9 96 17 119 36 16 14 42 31 58 40 23 12 29
21 29 49 0 18 -3 36 -8 39 -4 2 -27 1 -52 -4 l-45 -8 -77 74 c-62 59 -84 74
-108 74 -17 0 -44 7 -60 15 -41 21 -225 15 -261 -8 -14 -9 -45 -20 -70 -23
-36 -5 -52 -1 -91 21 -27 15 -48 30 -48 34 0 21 -82 99 -110 105 -17 3 -48 20
-70 37 -33 26 -39 39 -45 83 -4 28 -10 56 -14 62 -4 6 -26 0 -64 -19z"/>
</g>
</svg>
