<?xml version="1.0" standalone="no"?>
<!DOCTYPE svg PUBLIC "-//W3C//DTD SVG 20010904//EN"
 "http://www.w3.org/TR/2001/REC-SVG-20010904/DTD/svg10.dtd">
<svg version="1.0" xmlns="http://www.w3.org/2000/svg"
 width="1024.000000pt" height="1024.000000pt" viewBox="0 0 1024.000000 1024.000000"
 preserveAspectRatio="xMidYMid meet">
<metadata>
Created by potrace 1.10, written by Peter Selinger 2001-2011
</metadata>
<g transform="translate(0.000000,1024.000000) scale(0.100000,-0.100000)"
fill="#000000" stroke="none">
<path d="M584 7359 c-28 -32 -51 -41 -123 -49 -62 -8 -68 -11 -106 -54 -25
-29 -48 -46 -62 -46 -33 0 -82 -58 -68 -80 3 -5 37 -28 75 -50 l70 -41 0 -65
c0 -41 -6 -73 -15 -88 -19 -28 -100 -82 -139 -92 l-29 -7 7 -83 c8 -101 3
-114 -88 -204 -50 -48 -66 -71 -66 -92 0 -23 6 -29 38 -37 20 -5 74 -13 119
-17 70 -5 87 -4 110 11 60 39 133 37 133 -4 0 -14 -19 -25 -75 -46 -41 -15
-94 -41 -117 -58 -24 -18 -61 -39 -83 -48 -39 -16 -40 -18 -42 -65 0 -27 -10
-69 -21 -94 -12 -24 -19 -47 -16 -49 2 -3 30 20 62 50 31 30 83 75 115 99 32
24 67 54 77 67 23 30 159 93 199 93 23 0 37 9 58 35 17 22 42 39 65 45 42 12
119 92 151 158 17 34 26 42 48 42 14 0 40 5 56 10 24 9 41 7 80 -8 l51 -19 42
28 c37 25 53 29 109 29 56 0 77 -5 140 -37 79 -40 103 -43 224 -28 l58 8 42
-47 c24 -25 47 -46 52 -46 5 0 30 -21 56 -46 l47 -46 112 -9 c136 -11 163 -24
35 -16 -57 3 -106 0 -135 -8 -25 -7 -89 -19 -143 -28 -71 -11 -109 -22 -138
-41 -47 -32 -49 -48 -9 -76 24 -17 39 -20 69 -15 34 6 41 3 51 -14 9 -17 8
-21 -5 -21 -8 0 -15 -7 -15 -16 0 -15 -8 -16 -62 -9 -113 13 -220 19 -380 20
-159 0 -196 9 -142 34 44 20 30 47 -34 65 -32 9 -68 16 -79 16 -21 0 -21 -1
-5 -42 8 -24 22 -51 30 -60 24 -29 -18 -41 -125 -36 -90 5 -96 7 -129 39 -19
18 -34 39 -34 47 0 12 -10 13 -52 8 -28 -4 -59 -11 -69 -17 -23 -12 -85 -12
-128 1 -38 11 -61 -1 -142 -76 -25 -23 -55 -45 -67 -48 -16 -5 -26 -23 -38
-66 -16 -57 -17 -58 -59 -64 -35 -6 -45 -12 -53 -34 -21 -54 -32 -108 -32
-162 0 -30 -9 -84 -20 -119 -24 -75 -18 -89 32 -72 55 20 249 51 320 51 56 0
69 -3 77 -19 9 -16 2 -26 -43 -65 -39 -33 -63 -46 -85 -46 -26 0 -31 -4 -31
-25 0 -15 9 -31 25 -41 14 -9 25 -25 25 -35 0 -10 13 -33 29 -51 40 -46 46
-71 21 -93 -39 -35 -14 -65 54 -65 44 0 60 -33 27 -57 -28 -19 -61 -55 -61
-65 0 -12 -68 -10 -75 2 -14 23 -25 7 -25 -34 0 -36 5 -49 25 -64 16 -13 25
-30 25 -48 0 -42 8 -49 85 -85 l70 -32 -50 -9 c-58 -9 -120 -2 -152 18 -30 19
-31 19 -35 -18 l-3 -33 -22 42 c-19 34 -21 46 -12 71 9 27 6 37 -25 86 -30 48
-40 56 -66 56 l-30 0 0 -70 c0 -45 6 -82 16 -102 19 -36 7 -50 -39 -46 -22 2
-32 -4 -45 -24 -15 -25 -15 -28 3 -47 10 -12 30 -21 44 -21 16 0 40 -15 67
-41 l42 -42 27 27 c38 38 89 36 110 -4 8 -16 15 -43 15 -60 0 -29 3 -31 29
-29 18 2 43 -6 69 -23 22 -15 52 -30 66 -34 30 -7 40 -18 53 -59 16 -46 -9
-80 -79 -107 -32 -13 -58 -26 -58 -29 0 -4 11 -10 24 -13 32 -8 56 -79 56
-167 0 -54 3 -68 18 -74 12 -4 25 3 43 24 29 36 77 45 59 12 -16 -31 -12 -51
10 -51 13 0 18 -5 14 -15 -5 -11 3 -17 25 -21 30 -6 31 -9 29 -50 -3 -40 -6
-45 -35 -55 -24 -8 -41 -7 -67 2 -30 11 -37 10 -64 -9 -28 -21 -29 -24 -20
-56 9 -30 13 -33 29 -23 13 8 27 7 56 -2 26 -9 69 -11 138 -7 269 17 357 17
353 4 -3 -7 -16 -14 -31 -16 -14 -2 -31 -10 -37 -18 -7 -8 -25 -14 -41 -14
-24 0 -30 -6 -40 -40 l-12 -40 -61 -2 c-34 -1 -83 -3 -111 -3 -31 0 -77 -11
-123 -29 -66 -27 -72 -31 -56 -43 24 -17 140 -17 151 0 4 7 21 21 37 31 23 15
33 16 53 7 31 -14 85 -14 118 1 14 6 28 8 32 4 12 -11 -12 -40 -38 -46 -20 -5
-21 -7 -6 -13 21 -8 23 -37 2 -37 -12 0 -35 -28 -35 -44 0 -20 48 0 88 37 26
24 60 48 76 55 20 9 27 18 23 31 -4 16 3 20 52 25 87 10 118 0 131 -40 9 -25
22 -38 48 -50 21 -8 44 -25 54 -36 14 -19 19 -20 32 -9 9 7 16 19 16 25 0 6 7
22 16 34 l15 23 41 -32 c33 -27 37 -34 24 -41 -22 -12 -20 -44 3 -60 15 -11
19 -26 19 -71 l-1 -58 59 -54 c42 -38 65 -52 79 -49 13 3 28 -3 39 -15 14 -15
31 -21 61 -21 32 0 46 -6 63 -25 27 -31 45 -31 86 0 18 14 44 25 59 25 32 0
108 32 125 53 12 14 18 14 53 2 22 -8 53 -22 70 -32 36 -21 43 -14 59 62 6 27
20 65 31 85 13 21 22 58 25 95 7 118 14 144 45 166 28 20 32 20 70 5 27 -11
71 -16 138 -16 77 0 110 -5 145 -20 25 -10 46 -24 46 -29 0 -5 15 -13 33 -16
17 -4 48 -20 67 -35 19 -15 91 -56 160 -90 135 -67 144 -75 225 -195 67 -101
118 -155 145 -155 11 0 33 -9 49 -21 44 -32 101 -36 156 -9 39 19 51 21 72 11
25 -12 42 -3 43 22 0 4 58 7 129 7 102 0 131 3 141 15 14 17 41 20 56 5 7 -7
26 7 59 40 55 55 69 60 86 28 l11 -21 17 26 c8 15 23 27 33 27 14 0 16 6 12
29 -5 25 3 37 78 111 45 45 101 93 123 107 22 14 51 36 65 49 20 18 41 24 102
30 73 6 78 5 108 -20 17 -14 37 -26 43 -26 7 0 34 -18 61 -40 26 -22 55 -40
63 -40 9 0 31 -9 49 -21 26 -16 38 -18 53 -10 11 6 39 11 63 11 24 0 48 4 54
8 14 9 34 68 34 98 0 19 5 24 26 24 18 0 45 17 86 55 32 30 63 55 69 55 22 0
88 -54 99 -81 7 -17 11 -53 8 -84 -4 -46 -10 -62 -38 -90 -18 -18 -45 -39 -59
-45 -15 -6 -46 -33 -69 -60 l-43 -50 40 -95 c44 -101 47 -123 30 -174 -16 -46
8 -68 81 -73 53 -3 54 -3 63 29 6 18 18 35 28 38 9 3 29 15 43 26 24 18 26 27
26 90 l0 69 44 0 c25 0 56 -4 70 -10 21 -8 30 -5 55 20 l30 30 -29 15 c-49 25
-73 70 -66 118 4 23 10 69 15 103 8 54 21 91 49 132 7 11 17 10 48 -7 21 -12
50 -21 64 -21 55 0 72 -11 68 -42 -7 -42 28 -65 73 -49 18 6 67 11 109 11 63
0 80 3 94 19 20 22 96 51 135 51 14 0 49 14 76 30 109 64 149 80 203 80 66 0
142 -36 194 -94 l38 -41 218 1 c272 2 344 12 464 65 51 23 120 52 153 66 33
14 76 40 95 59 19 18 51 40 70 48 20 8 44 24 54 35 12 13 31 21 52 21 18 0 54
5 81 11 40 9 68 8 145 -5 118 -20 178 -20 223 -2 19 8 56 18 82 21 88 12 201
54 225 85 13 15 38 35 56 44 31 16 35 16 65 -1 25 -15 33 -27 37 -59 4 -29 9
-39 23 -38 9 0 31 1 48 2 39 2 90 55 109 112 7 22 24 47 38 56 22 15 28 15 68
-1 42 -16 47 -16 93 1 39 14 54 15 81 5 18 -6 48 -11 67 -11 18 0 51 -11 73
-25 21 -14 46 -22 55 -19 8 4 22 1 30 -6 10 -8 40 -11 91 -8 70 3 78 6 99 32
22 28 26 29 82 22 41 -4 63 -12 76 -27 19 -23 23 -64 7 -74 -19 -12 -10 -61
15 -85 20 -19 30 -22 43 -14 9 6 18 20 20 32 2 13 17 26 45 37 22 9 56 30 74
46 21 18 45 29 64 29 19 0 32 6 36 18 3 9 13 25 21 34 13 16 12 18 -11 27 -15
6 -38 30 -54 53 -15 24 -35 52 -45 64 -13 15 -20 46 -26 110 -7 87 -8 89 -34
92 -16 2 -30 11 -33 23 -8 25 -55 49 -98 49 -31 0 -35 3 -39 32 -3 17 1 43 8
57 8 14 14 31 14 37 0 6 11 21 25 34 14 13 25 35 25 49 0 13 9 44 21 68 27 56
22 77 -18 81 -17 2 -37 9 -43 17 -12 15 -29 124 -36 245 -5 66 -8 77 -27 85
-34 15 -48 53 -41 111 8 65 0 88 -31 102 -18 8 -25 19 -25 40 0 16 -5 44 -11
62 -9 26 -9 34 2 41 18 11 66 11 88 0 12 -7 28 -2 59 17 41 26 42 28 42 82 1
87 14 128 54 165 20 18 36 37 36 43 0 5 -29 41 -64 78 l-64 69 -123 1 c-168 1
-288 33 -259 69 8 9 8 15 0 20 -14 9 -60 112 -60 134 0 9 -7 26 -15 38 -13 19
-12 24 14 60 16 22 37 65 47 96 16 52 16 58 1 99 -10 24 -17 53 -17 64 0 30
-34 70 -86 100 -31 18 -44 32 -44 48 0 12 -7 32 -16 44 -12 18 -25 22 -69 22
-49 0 -56 3 -68 28 -8 15 -13 32 -10 38 2 5 -15 18 -37 28 -24 10 -54 36 -73
62 -23 32 -37 43 -52 40 -15 -4 -24 3 -35 27 -14 29 -20 32 -66 35 -46 3 -54
0 -73 -24 -12 -15 -21 -34 -21 -43 0 -31 -15 -43 -41 -32 -13 6 -82 15 -153
20 l-129 9 -25 -29 c-22 -27 -26 -28 -42 -14 -9 8 -28 15 -43 15 -14 0 -38 5
-54 11 -27 10 -31 8 -93 -59 -51 -55 -73 -72 -103 -77 -20 -4 -59 -25 -86 -46
-31 -25 -59 -39 -77 -39 -51 0 -97 -19 -133 -54 -38 -37 -78 -56 -115 -56 -13
0 -29 -7 -37 -16 -7 -9 -40 -29 -73 -46 -58 -30 -62 -30 -89 -14 -16 9 -51 16
-80 16 -39 0 -77 11 -154 44 -89 39 -106 43 -140 35 -21 -5 -59 -9 -84 -9 -26
0 -110 -21 -200 -49 -85 -27 -174 -52 -197 -56 -47 -8 -167 7 -269 32 -60 15
-62 16 -68 54 -7 38 -7 39 -50 39 -36 0 -45 -4 -50 -21 -6 -18 -12 -20 -43
-14 -20 4 -49 13 -64 21 -16 8 -62 20 -104 27 -73 11 -75 13 -99 54 -37 62
-73 83 -155 90 l-71 6 -39 -38 c-37 -36 -39 -37 -75 -25 -27 9 -41 21 -51 45
-10 26 -22 35 -51 42 l-38 9 -7 72 c-4 39 -15 83 -24 96 -23 36 -89 44 -176
21 -90 -23 -165 -16 -227 22 -54 34 -106 105 -114 160 -8 47 -45 106 -70 111
-10 2 -27 -7 -38 -21 -46 -59 -71 -66 -243 -66 -117 0 -167 3 -193 14 -20 8
-56 15 -82 15 -26 0 -98 7 -161 16 -63 9 -130 14 -149 11 -77 -10 -168 -41
-201 -67 -28 -22 -57 -31 -133 -43 -73 -11 -110 -23 -145 -45 -26 -16 -60 -33
-76 -36 -16 -4 -49 -24 -75 -45 -25 -21 -65 -43 -88 -50 -24 -6 -71 -34 -105
-62 -60 -47 -89 -63 -192 -108 -38 -17 -46 -26 -61 -70 -14 -43 -24 -55 -58
-72 -37 -19 -54 -21 -181 -17 -141 4 -141 4 -212 41 -91 49 -133 56 -171 30
-15 -11 -47 -23 -70 -27 -47 -7 -173 8 -247 30 -94 27 -225 45 -245 34 -28
-14 -31 -13 -31 15 0 29 -3 30 -31 13 -18 -12 -40 -3 -184 71 -138 71 -175 95
-234 152 -40 39 -73 80 -77 96 -4 15 -15 45 -25 65 -23 45 -24 87 -4 94 25 10
17 33 -17 54 -44 26 -84 26 -99 -1 -7 -14 -17 -19 -31 -15 -12 2 -38 -4 -58
-14 l-37 -19 -33 47 c-52 77 -136 132 -155 102 -3 -5 -19 -10 -35 -10 -16 0
-32 5 -35 10 -10 16 -30 12 -51 -11z"/>
</g>
</svg>
