<?xml version="1.0" standalone="no"?>
<!DOCTYPE svg PUBLIC "-//W3C//DTD SVG 20010904//EN"
 "http://www.w3.org/TR/2001/REC-SVG-20010904/DTD/svg10.dtd">
<svg version="1.0" xmlns="http://www.w3.org/2000/svg"
 width="1024.000000pt" height="1024.000000pt" viewBox="0 0 1024.000000 1024.000000"
 preserveAspectRatio="xMidYMid meet">
<metadata>
Created by potrace 1.10, written by Peter Selinger 2001-2011
</metadata>
<g transform="translate(0.000000,1024.000000) scale(0.100000,-0.100000)"
fill="#000000" stroke="none">
<path d="M1595 9605 c-5 -2 -27 -6 -49 -10 -52 -9 -86 -44 -86 -90 0 -19 -9
-62 -21 -96 -24 -69 -20 -116 12 -145 54 -49 45 -102 -22 -124 -21 -7 -56 -27
-77 -45 -20 -17 -86 -55 -145 -83 -80 -39 -121 -67 -162 -107 -30 -30 -62 -55
-72 -55 -28 -1 -59 -32 -85 -85 -21 -43 -29 -50 -84 -70 -111 -41 -140 -61
-158 -105 -29 -73 -21 -154 25 -264 l41 -98 -12 -87 c-10 -75 -15 -90 -44
-121 -18 -19 -47 -57 -64 -85 -49 -79 -89 -112 -147 -120 -27 -4 -99 -24 -159
-46 -91 -31 -117 -46 -153 -81 l-42 -43 34 -95 c18 -52 52 -135 75 -185 50
-106 141 -368 165 -475 17 -73 16 -82 -9 -348 l-26 -272 26 -81 c14 -44 29
-105 34 -136 8 -49 7 -61 -10 -88 -11 -18 -20 -50 -20 -73 0 -34 -5 -45 -32
-65 -27 -21 -32 -33 -36 -80 -6 -70 32 -251 60 -291 20 -27 20 -33 9 -110 -19
-123 -19 -123 -93 -181 -63 -49 -75 -55 -118 -55 l-48 0 -51 -80 c-28 -45 -51
-82 -51 -85 0 -2 90 -136 200 -297 l200 -293 0 -80 c1 -111 12 -157 48 -201
26 -31 32 -48 32 -86 l0 -48 71 -36 72 -36 61 26 c73 31 72 31 79 7 5 -22 90
-35 121 -19 13 7 35 7 70 -1 47 -11 54 -16 84 -66 18 -29 40 -56 50 -59 9 -2
92 -17 184 -32 163 -26 167 -28 177 -54 8 -24 3 -37 -30 -93 l-40 -66 137
-173 c75 -95 142 -178 148 -185 6 -6 243 -64 526 -127 283 -64 524 -120 535
-125 11 -5 108 -73 215 -153 107 -79 201 -148 208 -152 8 -5 234 99 587 269
l574 277 2625 -1251 c1444 -688 2630 -1251 2636 -1251 6 0 8 10 6 23 -3 12 -7
64 -11 115 -4 71 -3 92 7 92 207 4 662 21 665 24 3 3 -72 1431 -166 3175
l-170 3171 -81 103 -80 102 5 60 c3 33 6 71 7 85 1 14 -19 78 -45 142 -45 115
-46 117 -36 184 8 59 20 84 85 191 l75 123 -46 74 c-43 70 -48 85 -76 235
l-30 159 84 82 c47 44 87 89 90 100 5 19 -29 58 -70 79 -14 7 -23 22 -25 44
-3 31 -5 32 -58 38 -30 3 -75 13 -99 23 -40 15 -50 15 -101 2 -32 -8 -108 -16
-170 -17 -95 -1 -114 1 -122 15 -5 9 -17 16 -27 16 -10 0 -51 12 -92 27 -65
24 -94 27 -237 32 -140 5 -165 9 -176 24 -7 9 -26 17 -42 17 -40 0 -50 9 -62
53 -11 38 -10 39 14 33 19 -5 24 -3 24 13 0 10 -7 24 -15 31 -8 7 -15 28 -15
46 0 40 -12 46 -112 64 -73 13 -276 77 -297 94 -8 6 -50 11 -94 12 -71 1 -81
3 -97 24 -15 20 -21 21 -51 12 -19 -6 -90 -13 -158 -16 l-125 -6 -47 -40 c-59
-50 -86 -61 -174 -70 -38 -4 -93 -14 -120 -22 -79 -22 -253 -121 -328 -186
-37 -32 -85 -67 -106 -77 -29 -13 -52 -36 -87 -89 -26 -39 -61 -89 -79 -111
-55 -68 -78 -124 -83 -200 -4 -66 -2 -76 32 -143 20 -39 36 -82 36 -95 0 -15
16 -38 45 -64 l45 -40 0 -73 c0 -104 -32 -186 -121 -307 -88 -121 -162 -198
-214 -225 -22 -12 -90 -38 -150 -58 -86 -29 -116 -35 -135 -28 -14 5 -53 14
-88 19 -41 6 -75 18 -95 33 -18 14 -45 28 -62 32 -16 4 -52 26 -80 49 -27 23
-72 57 -100 75 -27 18 -68 49 -90 68 -59 50 -153 102 -186 102 -28 0 -69 30
-69 50 0 6 -14 10 -31 10 -45 0 -145 28 -200 56 -27 13 -62 24 -80 24 -45 0
-149 28 -185 51 -38 23 -122 35 -364 54 -102 8 -208 19 -237 25 -55 12 -182
74 -285 139 l-63 40 -55 137 c-51 130 -54 145 -60 249 -7 142 -19 167 -90 183
-28 7 -75 12 -103 12 -59 0 -153 15 -218 36 -26 8 -60 14 -75 14 -31 0 -136
75 -174 122 -15 20 -33 27 -77 33 -32 4 -73 13 -93 21 -47 18 -143 34 -203 34
-38 0 -62 8 -108 35 -76 44 -108 45 -264 2 -107 -29 -133 -32 -242 -30 l-122
1 -208 106 c-203 103 -237 118 -258 111z"/>
</g>
</svg>
