<?xml version="1.0" standalone="no"?>
<!DOCTYPE svg PUBLIC "-//W3C//DTD SVG 20010904//EN"
 "http://www.w3.org/TR/2001/REC-SVG-20010904/DTD/svg10.dtd">
<svg version="1.0" xmlns="http://www.w3.org/2000/svg"
 width="1024.000000pt" height="1024.000000pt" viewBox="0 0 1024.000000 1024.000000"
 preserveAspectRatio="xMidYMid meet">
<metadata>
Created by potrace 1.10, written by Peter Selinger 2001-2011
</metadata>
<g transform="translate(0.000000,1024.000000) scale(0.100000,-0.100000)"
fill="#000000" stroke="none">
<path d="M1101 10162 c-39 -78 -42 -81 -95 -101 -30 -11 -66 -23 -80 -27 -19
-5 -30 -20 -48 -66 -22 -57 -24 -59 -53 -55 -16 3 -37 8 -46 12 -14 5 -18 -4
-24 -52 -6 -55 -10 -62 -73 -126 -55 -56 -65 -70 -56 -85 6 -9 40 -71 77 -138
l67 -120 -24 -60 c-24 -59 -24 -60 -8 -128 l16 -68 51 6 c27 4 80 9 118 13 37
3 67 9 67 12 1 3 5 105 10 226 l9 220 -25 20 -26 21 56 17 c62 20 109 67 189
194 49 77 43 73 180 98 l38 7 -34 42 c-18 22 -54 70 -79 106 -40 56 -54 68
-100 85 -29 11 -56 21 -60 23 -4 2 -25 -33 -47 -76z"/>
<path d="M3468 9105 c-3 -3 -407 -7 -899 -9 -651 -2 -906 -7 -939 -15 -35 -10
-68 -10 -147 0 l-101 12 -98 -53 c-127 -69 -292 -120 -385 -120 -38 0 -69 -2
-69 -5 0 -3 20 -41 45 -84 25 -43 57 -112 70 -152 34 -99 131 -245 234 -351
l84 -87 28 -123 c26 -116 39 -146 232 -543 l204 -420 -54 -125 c-53 -123 -55
-126 -148 -215 l-95 -90 0 -70 0 -71 51 -49 c31 -31 66 -81 91 -130 39 -77 40
-81 34 -152 -6 -67 -5 -75 19 -113 15 -23 53 -97 85 -163 33 -67 82 -164 110
-215 30 -56 50 -106 50 -125 0 -28 11 -41 86 -102 47 -38 90 -75 96 -82 6 -8
1 -26 -17 -58 -15 -25 -26 -47 -24 -49 2 -1 23 -17 47 -35 l42 -33 0 -96 c-1
-54 -9 -140 -19 -192 -15 -81 -16 -120 -9 -270 l9 -175 -60 -126 c-33 -70 -96
-181 -141 -247 l-81 -121 -57 -11 c-31 -6 -64 -13 -73 -16 -9 -2 -52 -42 -97
-88 l-82 -84 0 -73 0 -74 -99 -89 c-82 -73 -101 -96 -110 -130 -9 -35 -18 -45
-61 -69 l-50 -27 5 -88 c3 -48 8 -121 10 -163 l5 -76 -60 -92 -60 -91 -6 -163
-6 -162 -74 -265 c-41 -146 -102 -355 -136 -465 l-60 -201 -52 -20 c-31 -13
-50 -26 -49 -35 1 -8 23 -154 47 -325 l46 -311 -16 -197 c-8 -109 -14 -208
-12 -221 3 -23 6 -22 95 35 51 33 98 60 103 60 6 0 41 -20 78 -45 l68 -45 46
16 c44 14 49 14 85 -4 l38 -20 90 45 c49 25 120 67 156 93 58 42 78 50 173 71
95 20 116 21 173 12 59 -11 72 -17 117 -61 28 -27 96 -75 151 -107 72 -41 117
-75 162 -123 l61 -66 59 13 c32 8 81 24 108 36 l51 22 1459 12 c1247 11 1460
11 1469 -1 6 -8 66 -77 133 -154 l122 -141 70 -13 c70 -13 71 -13 144 18 l74
31 129 -34 c71 -19 149 -35 174 -35 40 0 48 -4 63 -30 l18 -30 53 40 53 40 71
-31 72 -32 77 16 78 16 182 -60 181 -60 95 40 95 39 106 -34 c58 -19 113 -34
123 -34 29 0 1416 220 1436 228 15 6 -7 22 -97 71 -114 64 -116 65 -168 145
-39 61 -124 153 -350 381 l-298 300 -30 90 -31 90 7 1213 7 1212 26 0 c14 0
334 -9 711 -20 377 -11 698 -20 713 -20 28 0 28 0 -27 63 l-56 62 0 78 0 79
53 61 c84 99 80 86 63 163 -18 84 -27 207 -27 379 -1 130 -1 130 41 235 l42
105 -23 45 c-20 39 -24 65 -29 185 l-5 140 -33 -62 c-18 -35 -35 -63 -39 -63
-4 0 -81 21 -170 46 l-163 47 -55 -42 c-68 -52 -87 -58 -195 -65 -65 -5 -96
-2 -131 11 -45 16 -48 15 -76 -5 l-30 -21 -92 24 c-51 14 -94 25 -95 25 -2 0
-6 -13 -9 -28 -5 -25 -16 -33 -87 -60 -45 -18 -85 -32 -91 -32 -5 0 -9 29 -9
65 0 36 -9 99 -21 141 -11 41 -19 77 -17 79 1 1 22 12 44 23 l41 21 -5 96 c-3
56 0 118 7 153 12 56 12 59 -43 228 l-56 172 -93 85 -94 86 -47 124 -48 124
36 71 c34 67 35 74 25 114 -10 38 -7 67 32 254 l45 210 -33 164 c-31 157 -35
166 -70 202 l-36 37 6 86 c5 74 11 95 48 166 l43 82 -20 96 -19 96 -471 -3
-471 -3 -7 78 c-6 70 -4 84 17 133 47 107 53 99 -65 93 -94 -5 -105 -7 -121
-29 l-19 -24 -284 0 c-156 0 -284 -2 -284 -5 0 -2 9 -19 19 -36 l20 -32 -30
-41 -29 -42 9 -104 8 -105 -28 -42 c-20 -29 -39 -43 -61 -48 -49 -11 -49 -12
-16 -66 l32 -50 -36 -67 c-28 -52 -35 -75 -31 -101 l6 -34 -214 6 c-229 7
-219 5 -254 61 -16 26 -152 11 -181 -21 -19 -21 -30 -23 -110 -23 -87 0 -90
-1 -149 -40 l-60 -40 -196 0 -196 0 -93 158 c-53 88 -135 209 -190 277 -53 66
-118 151 -143 190 l-47 70 0 98 0 98 -99 190 -99 189 21 81 20 81 -47 40 c-46
39 -46 40 -46 102 l0 63 -67 6 c-81 8 -547 9 -555 2z"/>
</g>
</svg>
