<?xml version="1.0" standalone="no"?>
<!DOCTYPE svg PUBLIC "-//W3C//DTD SVG 20010904//EN"
 "http://www.w3.org/TR/2001/REC-SVG-20010904/DTD/svg10.dtd">
<svg version="1.0" xmlns="http://www.w3.org/2000/svg"
 width="1024.000000pt" height="1024.000000pt" viewBox="0 0 1024.000000 1024.000000"
 preserveAspectRatio="xMidYMid meet">
<metadata>
Created by potrace 1.10, written by Peter Selinger 2001-2011
</metadata>
<g transform="translate(0.000000,1024.000000) scale(0.100000,-0.100000)"
fill="#000000" stroke="none">
<path d="M5095 10228 c-44 -5 -99 -13 -123 -18 -29 -7 -81 -7 -158 1 -135 12
-150 7 -140 -50 4 -25 1 -40 -11 -53 -14 -16 -15 -108 -11 -1028 l5 -1010
-236 0 c-130 0 -706 5 -1281 10 l-1044 10 -36 28 c-59 48 -79 55 -136 49 -35
-4 -65 -14 -86 -31 -45 -34 -117 -66 -150 -66 -25 0 -27 -2 -17 -24 6 -13 21
-28 34 -34 19 -9 23 -20 29 -99 3 -48 10 -89 15 -91 37 -12 42 -29 51 -152 6
-69 14 -170 19 -224 8 -92 7 -103 -15 -157 -13 -32 -24 -65 -24 -74 0 -8 -5
-15 -10 -15 -19 0 -31 53 -24 111 4 32 4 66 0 75 -6 16 -8 16 -25 0 -18 -17
-20 -17 -31 3 -6 12 -21 21 -34 21 -13 0 -38 3 -57 7 -28 5 -30 7 -14 14 11 4
44 8 73 8 l52 1 0 49 c0 48 -1 49 -34 55 -43 8 -82 -1 -119 -27 -22 -15 -38
-18 -70 -14 -34 5 -46 2 -65 -16 -15 -14 -41 -23 -75 -27 -59 -6 -64 -15 -66
-117 -1 -58 1 -63 21 -63 12 0 29 7 38 15 16 15 21 12 58 -32 35 -43 87 -132
158 -274 13 -25 31 -52 40 -60 21 -17 85 -12 100 7 10 13 16 9 40 -25 35 -48
140 -111 185 -111 20 0 48 -13 80 -36 l49 -36 110 4 c61 1 110 2 110 1 0 0
-21 -13 -47 -28 -27 -15 -57 -39 -69 -53 -14 -17 -23 -22 -28 -14 -4 7 -25 12
-47 12 -34 0 -39 -3 -39 -22 0 -13 14 -45 30 -73 16 -27 30 -56 30 -64 0 -25
-31 10 -52 59 -28 64 -55 90 -95 90 -19 0 -50 7 -70 15 -45 19 -70 19 -107 0
-32 -17 -46 -12 -46 14 0 39 -64 65 -118 47 -22 -7 -23 -11 -16 -62 6 -50 5
-54 -14 -54 -16 0 -21 9 -27 55 -5 47 -11 58 -45 85 -45 36 -85 39 -117 8 -13
-12 -23 -17 -23 -11 0 5 9 18 21 29 19 17 20 28 17 115 -3 103 -19 139 -59
139 -24 0 -72 -64 -65 -87 3 -10 12 -85 21 -168 9 -82 23 -171 32 -198 10 -32
13 -68 9 -110 -3 -34 -5 -96 -5 -139 0 -81 -15 -148 -51 -218 -20 -40 -22 -52
-15 -146 l7 -103 -51 -73 c-27 -40 -77 -103 -110 -140 -33 -37 -62 -76 -66
-87 -3 -11 -28 -36 -54 -55 -49 -36 -71 -80 -71 -143 0 -20 -10 -39 -30 -58
-23 -22 -30 -36 -25 -53 4 -16 -3 -33 -25 -60 -26 -31 -30 -45 -30 -93 0 -61
-7 -89 -21 -89 -5 0 -9 29 -9 64 0 55 -3 67 -23 83 -35 28 -67 79 -67 107 0
16 -9 31 -25 42 -33 22 -60 15 -59 -16 1 -28 -11 -40 -43 -40 -19 0 -22 -7
-28 -55 -4 -30 -11 -55 -16 -55 -5 0 -9 6 -9 13 0 7 -13 23 -28 34 -24 18 -31
33 -40 92 -16 96 -39 151 -63 151 -10 0 -19 4 -19 9 0 5 -11 12 -25 15 -19 5
-25 13 -25 32 0 16 -5 24 -12 21 -9 -3 -12 -23 -11 -60 2 -49 8 -67 48 -129
29 -44 50 -89 54 -117 5 -27 24 -72 48 -108 22 -34 46 -82 53 -107 8 -30 23
-54 40 -66 22 -16 28 -29 33 -75 6 -57 9 -62 148 -251 26 -35 33 -56 43 -141
8 -72 17 -107 34 -130 12 -17 22 -42 22 -56 0 -18 16 -41 51 -74 28 -26 67
-75 87 -108 20 -33 71 -107 113 -165 70 -96 78 -112 97 -195 12 -49 21 -119
21 -155 0 -77 21 -156 42 -154 8 1 23 3 34 5 13 3 20 -2 23 -16 6 -34 62 -64
62 -33 0 16 51 68 66 68 7 0 27 -21 45 -47 30 -43 33 -45 40 -25 6 15 17 22
36 22 23 0 34 -10 65 -59 33 -52 36 -64 27 -89 -9 -26 -6 -32 36 -75 37 -36
46 -52 43 -74 -5 -43 -30 -38 -61 12 -24 37 -34 45 -59 45 -29 0 -30 2 -24 33
20 97 21 92 -22 105 -22 7 -51 12 -64 12 -14 0 -37 9 -52 21 -21 17 -26 18
-26 5 0 -26 -48 -19 -108 15 l-54 31 20 -29 c11 -15 30 -37 42 -48 13 -11 49
-54 80 -95 32 -41 79 -95 105 -120 26 -25 91 -97 145 -161 l97 -116 7 -73 c9
-91 41 -164 96 -215 31 -29 39 -33 30 -17 -6 13 21 -11 62 -54 40 -42 116
-115 168 -162 52 -47 114 -113 137 -147 30 -45 79 -94 170 -168 70 -58 173
-144 228 -192 55 -47 124 -97 153 -110 41 -19 104 -75 285 -252 127 -125 247
-250 265 -278 25 -38 42 -53 73 -64 31 -10 48 -25 70 -59 16 -25 27 -53 25
-62 -2 -8 -7 -41 -11 -72 l-6 -56 48 -28 c133 -77 245 -165 380 -302 107 -108
145 -154 156 -186 16 -45 108 -177 176 -251 23 -25 43 -45 45 -45 2 0 40 73
85 163 58 117 100 186 151 249 l70 88 66 0 c99 0 143 34 159 123 l8 39 56 -6
c113 -13 104 -6 203 -154 50 -76 96 -140 101 -144 24 -15 177 -47 233 -49 45
-1 72 5 113 24 89 42 91 60 15 112 -108 74 -110 120 -17 321 36 80 75 150 85
155 11 6 18 21 18 37 0 25 -5 28 -83 50 -70 20 -89 30 -132 72 -34 32 -75 59
-126 81 -68 29 -78 36 -87 67 -9 27 -8 41 4 63 l14 29 37 -18 c35 -16 36 -16
47 2 6 11 21 30 33 43 13 13 26 36 29 51 4 15 16 34 27 43 20 16 17 21 -123
202 l-144 186 -23 -38 c-13 -22 -37 -44 -54 -51 -28 -12 -33 -12 -46 6 -37 51
-17 123 42 151 38 18 106 154 113 225 4 43 0 54 -38 113 -42 64 -42 67 -34
118 7 40 5 68 -8 117 -24 94 -23 110 7 110 58 0 116 -24 136 -57 11 -17 29
-35 40 -38 10 -4 26 -20 34 -36 l16 -29 56 55 c47 46 61 54 92 54 47 -1 147
23 163 39 27 27 61 13 124 -49 l62 -62 344 83 c189 45 349 88 357 94 31 24 52
95 50 164 -1 53 3 74 20 102 29 48 27 76 -6 92 -42 20 -67 80 -71 173 -3 47
-10 88 -19 102 -10 15 -12 33 -8 53 7 30 8 31 21 12 7 -11 27 -25 44 -30 26
-9 32 -8 45 11 8 12 15 35 15 52 1 25 10 37 59 72 76 56 95 55 120 -2 22 -50
38 -55 81 -25 l28 20 10 -28 c6 -15 14 -37 17 -49 6 -23 30 -29 97 -24 38 3
88 -25 88 -49 0 -11 11 -27 26 -36 14 -10 23 -23 20 -31 -3 -8 1 -30 9 -50 8
-19 15 -48 15 -64 0 -20 8 -33 30 -46 25 -14 30 -23 25 -42 -4 -15 0 -30 11
-42 9 -10 14 -25 10 -35 -4 -10 1 -25 13 -38 11 -12 21 -32 23 -46 2 -19 10
-26 33 -28 43 -5 85 -48 85 -87 0 -24 6 -35 24 -43 l24 -11 -28 -58 c-15 -32
-31 -69 -35 -83 -7 -23 -4 -22 40 14 l47 39 52 -18 c28 -10 70 -28 93 -42 41
-23 44 -23 68 -7 29 19 20 21 200 -44 97 -35 124 -41 226 -46 l116 -5 18 40
c14 29 26 42 46 46 18 3 37 19 53 43 16 25 36 41 55 45 19 4 33 16 40 34 7 15
48 63 91 106 69 69 80 84 80 115 1 25 10 46 34 73 l34 38 34 -40 c33 -39 68
-126 68 -169 0 -12 13 -36 30 -55 17 -20 32 -51 36 -75 6 -39 9 -42 39 -42 24
0 34 -6 43 -25 9 -20 9 -25 -2 -25 -7 0 -32 -23 -55 -50 -39 -47 -42 -54 -36
-91 6 -35 13 -42 55 -64 l48 -24 26 20 c27 21 96 38 96 23 1 -29 17 -34 64
-18 35 12 51 13 59 5 18 -18 67 -13 74 7 3 9 16 28 28 42 13 14 25 41 29 61 9
48 27 62 118 89 l76 22 -34 35 c-19 18 -34 38 -34 43 0 4 -15 13 -33 19 -24 8
-39 23 -54 54 l-21 43 57 32 c56 31 57 31 53 72 -4 35 -1 42 16 47 17 4 25 20
38 80 12 55 13 78 5 86 -6 6 -11 35 -11 64 l0 53 38 0 c26 0 45 7 57 20 9 10
48 31 85 45 37 14 78 37 90 50 23 24 23 26 8 58 -10 22 -13 39 -7 48 11 17 11
76 0 104 -5 13 -2 32 10 55 11 19 19 40 19 48 0 8 8 10 25 6 18 -4 25 -2 25 8
0 19 -20 38 -42 38 -10 0 -24 13 -32 29 -9 16 -27 42 -41 59 l-25 30 34 6 c29
6 36 12 42 39 8 38 19 47 60 47 38 0 52 25 24 40 -32 17 -44 49 -27 68 8 9 17
28 19 42 1 14 13 29 25 35 12 5 25 21 28 35 6 21 -1 32 -44 72 -57 52 -65 86
-32 122 11 12 24 46 29 76 10 50 8 59 -14 97 -15 27 -24 57 -24 86 0 29 -7 53
-20 70 -11 14 -20 33 -20 42 0 9 -7 30 -16 46 -12 24 -14 47 -8 110 7 79 8 81
54 129 60 62 66 83 33 126 -22 30 -24 40 -18 81 4 30 20 68 42 99 21 31 37 69
40 95 3 24 13 52 21 62 14 16 12 21 -31 65 -26 26 -47 56 -47 65 0 10 -16 27
-35 38 -24 15 -35 28 -35 44 0 18 -8 26 -37 36 -21 7 -58 23 -82 36 -49 26
-115 30 -167 11 -29 -10 -36 -9 -54 7 -17 15 -24 16 -46 7 -13 -7 -26 -12 -28
-12 -2 0 -6 33 -8 73 -6 81 -50 187 -78 187 -9 0 -35 14 -58 31 -38 28 -45 30
-76 19 -29 -9 -47 -8 -104 9 -92 28 -115 27 -132 -4 l-13 -25 -19 27 c-27 41
-26 175 2 210 11 14 20 36 20 48 0 12 11 32 25 45 18 17 25 34 25 61 0 21 -5
41 -11 45 -10 6 -7 30 7 67 4 11 -4 17 -26 22 l-31 7 2 66 c1 47 -5 85 -20
126 -27 77 -27 87 8 120 16 15 44 61 62 102 30 70 37 78 108 127 84 58 105 89
106 157 0 45 0 45 60 74 57 27 61 28 110 16 27 -7 72 -13 99 -12 43 1 52 5 82
40 18 21 63 58 99 82 60 39 64 44 50 60 -27 30 -18 67 25 106 24 22 40 45 40
58 0 23 38 66 58 66 6 0 24 19 38 42 24 37 25 45 15 74 -7 18 -11 52 -10 76 3
50 -9 75 -67 143 -31 37 -43 61 -46 89 -3 37 -5 40 -59 59 -45 16 -61 28 -86
66 -48 72 -56 109 -48 223 l7 100 -28 29 c-15 16 -33 29 -40 29 -7 0 -38 14
-70 31 l-58 30 -88 -11 -88 -12 -36 31 c-31 27 -42 31 -97 31 -46 1 -71 6 -98
23 -32 19 -46 21 -115 17 l-79 -5 -28 -52 -28 -53 -31 16 c-28 15 -31 14 -52
-5 -14 -13 -36 -21 -58 -21 -20 0 -41 -7 -48 -15 -7 -9 -32 -20 -56 -26 -30
-8 -51 -22 -69 -45 -14 -19 -35 -34 -46 -34 -11 0 -33 -9 -48 -21 l-28 -21
-67 27 c-45 18 -73 24 -88 19 -13 -4 -32 -7 -44 -5 -11 1 -28 -7 -39 -19 -10
-11 -24 -20 -31 -20 -7 0 -29 -14 -49 -31 -35 -31 -65 -37 -140 -30 -11 1 -33
-1 -50 -4 -27 -6 -31 -3 -41 28 -15 49 0 77 41 77 27 0 35 5 46 32 7 17 12 41
11 52 -1 12 3 35 9 52 14 44 -13 118 -59 167 -30 31 -36 44 -33 72 2 32 0 35
-23 35 -20 0 -30 9 -46 41 -13 24 -18 48 -14 57 7 18 24 154 27 215 1 24 6 37
15 37 36 0 55 132 28 206 -13 39 -13 40 20 78 24 27 34 49 34 72 0 27 7 37 47
63 72 48 84 76 93 216 4 66 5 125 2 130 -3 6 -19 27 -35 47 -28 36 -30 36 -54
21 -23 -15 -25 -15 -51 11 -40 38 -109 36 -177 -4 -44 -26 -59 -30 -130 -30
-44 0 -97 4 -117 9 -27 6 -42 5 -58 -6 -23 -17 -77 -14 -147 8 -39 12 -46 11
-93 -11 -50 -23 -52 -23 -98 -7 -27 10 -76 17 -118 17 -41 0 -87 6 -107 15
-20 8 -52 15 -72 15 -20 0 -58 11 -85 25 -49 25 -51 25 -104 10 l-54 -16 -52
32 -51 31 -87 -36 c-48 -20 -102 -36 -120 -36 -18 0 -42 -5 -53 -10 -14 -8
-25 -6 -46 8 -27 18 -40 19 -283 10 -296 -10 -332 -7 -411 33 -32 16 -69 28
-81 27 -13 0 -59 -5 -103 -10z m-2700 -3485 c45 -6 46 -7 24 -19 -31 -17 -69
-17 -108 -1 -56 24 -15 34 84 20z"/>
</g>
</svg>
