<?xml version="1.0" standalone="no"?>
<!DOCTYPE svg PUBLIC "-//W3C//DTD SVG 20010904//EN"
 "http://www.w3.org/TR/2001/REC-SVG-20010904/DTD/svg10.dtd">
<svg version="1.0" xmlns="http://www.w3.org/2000/svg"
 width="1024.000000pt" height="1024.000000pt" viewBox="0 0 1024.000000 1024.000000"
 preserveAspectRatio="xMidYMid meet">
<metadata>
Created by potrace 1.10, written by Peter Selinger 2001-2011
</metadata>
<g transform="translate(0.000000,1024.000000) scale(0.100000,-0.100000)"
fill="#000000" stroke="none">
<path d="M1162 8034 c-30 -13 -94 -30 -143 -38 -81 -12 -93 -16 -127 -49 -20
-20 -63 -47 -94 -61 -61 -27 -61 -28 -52 -63 6 -22 10 -23 124 -23 126 0 171
-10 210 -45 14 -13 35 -26 47 -29 17 -5 23 -19 32 -70 15 -88 14 -114 -8 -145
-11 -15 -25 -55 -32 -89 -11 -52 -19 -67 -50 -91 -36 -29 -39 -30 -175 -34
-105 -2 -150 -8 -184 -21 -25 -10 -80 -21 -123 -24 -71 -4 -78 -6 -83 -28 -4
-17 2 -35 21 -60 22 -28 31 -33 48 -27 12 4 60 7 107 5 69 -3 94 -8 135 -30
43 -24 52 -35 73 -87 14 -33 28 -91 32 -130 5 -44 21 -101 44 -156 l37 -86 52
-15 c28 -9 79 -22 112 -28 91 -17 92 -18 108 -58 13 -31 13 -42 2 -69 -13 -30
-12 -35 16 -72 24 -35 35 -41 64 -41 31 0 39 -6 65 -47 16 -26 32 -54 35 -63
3 -9 29 -27 58 -40 100 -45 152 -87 178 -143 13 -29 44 -82 69 -118 l45 -67
95 -4 c114 -5 208 12 254 47 32 24 34 24 119 13 82 -11 88 -13 128 -54 42 -42
42 -45 44 -116 0 -41 5 -79 9 -86 4 -7 51 -33 104 -58 225 -105 222 -103 253
-169 34 -71 38 -130 10 -138 -11 -3 -22 -17 -26 -36 -7 -34 -35 -43 -35 -11 0
15 -7 20 -29 20 -24 0 -29 -5 -33 -30 -4 -24 0 -31 22 -40 21 -9 34 -28 54
-80 26 -64 32 -72 84 -102 31 -18 97 -71 145 -119 84 -83 88 -88 99 -148 11
-57 16 -65 52 -91 23 -15 56 -53 75 -84 l34 -57 -19 -41 c-15 -34 -28 -45 -72
-65 -30 -13 -55 -23 -56 -21 -1 2 -18 23 -37 48 -20 25 -53 71 -73 103 -32 51
-36 61 -28 91 12 42 -1 67 -58 112 -39 31 -49 34 -108 34 -54 0 -72 -4 -103
-26 -66 -45 -93 -146 -68 -254 11 -50 155 -248 207 -287 16 -12 56 -46 88 -76
l59 -54 133 -1 c149 -2 171 -9 221 -69 28 -34 31 -43 25 -83 -4 -25 -13 -52
-20 -61 -21 -24 -17 -39 26 -104 22 -32 42 -71 45 -86 7 -32 70 -93 109 -106
24 -7 34 -22 62 -93 44 -108 113 -183 189 -206 39 -11 70 -32 136 -93 85 -79
86 -80 119 -179 29 -86 38 -102 66 -117 17 -9 66 -49 108 -88 l78 -72 24 -100
c13 -55 24 -130 24 -167 0 -75 25 -132 63 -144 12 -4 35 -16 51 -27 16 -11 53
-26 82 -33 35 -8 69 -25 101 -52 42 -34 57 -41 113 -46 l66 -7 12 46 c6 25 12
60 12 78 0 33 27 111 61 179 13 26 32 44 54 54 35 14 36 16 55 104 13 59 35
125 69 204 20 45 23 48 35 31 13 -18 14 -18 20 3 7 20 2 100 -10 164 -5 23 -1
28 30 38 19 6 82 43 140 81 l105 70 40 -27 c30 -19 42 -35 47 -60 5 -29 12
-35 61 -51 l54 -18 49 -119 c62 -148 86 -182 140 -191 27 -5 40 -12 41 -23 0
-10 6 -66 12 -127 l12 -110 30 -6 c17 -4 46 -7 65 -8 35 -1 36 0 80 88 l43 89
-6 145 c-7 190 -8 187 59 187 30 0 54 -4 54 -9 0 -5 23 -35 51 -65 l51 -56 69
0 69 0 -21 40 c-34 66 -32 238 5 404 32 145 36 152 141 207 33 17 98 54 144
82 l83 50 92 -6 c152 -10 238 -50 257 -121 14 -52 76 -176 89 -176 5 0 34 9
64 20 39 15 56 27 60 44 5 22 38 36 81 36 23 0 47 -86 60 -218 7 -74 15 -136
17 -138 3 -2 18 0 35 5 30 9 35 5 131 -92 54 -56 112 -124 127 -151 l28 -49
45 52 c34 40 50 51 73 51 19 0 42 12 69 36 36 33 43 35 92 32 l52 -3 8 48 c5
26 5 55 0 63 -14 24 -2 64 18 64 13 0 21 13 29 46 11 42 9 50 -19 108 -16 35
-30 80 -30 100 0 20 -7 53 -16 74 -8 20 -22 88 -30 151 -12 100 -12 121 1 171
8 32 15 70 15 86 0 15 5 68 11 116 l12 89 116 95 c194 158 300 204 475 204
l93 0 68 49 c40 29 87 54 115 61 l48 11 39 92 c22 51 46 106 52 124 13 32 98
106 158 137 18 9 51 16 74 16 36 0 47 5 73 36 24 28 44 39 91 50 86 20 91 19
125 -31 25 -36 40 -48 76 -57 59 -16 130 -98 139 -162 8 -52 42 -82 162 -142
l83 -42 29 51 c36 63 54 129 52 182 -2 56 -136 457 -177 531 -44 79 -48 150
-9 160 14 3 34 19 46 35 12 18 29 29 44 29 30 0 80 78 89 140 4 25 14 66 22
93 15 45 15 50 -7 103 -16 38 -38 68 -70 95 -34 29 -50 50 -59 84 l-13 46 47
47 c44 45 46 50 46 105 0 48 -5 65 -38 115 -21 33 -44 84 -52 116 -13 54 -14
56 -47 56 -33 0 -33 0 -33 -50 0 -48 -2 -51 -51 -87 -32 -25 -62 -59 -84 -98
-30 -55 -40 -63 -102 -92 -37 -18 -87 -37 -110 -43 -24 -6 -43 -13 -43 -15 0
-2 8 -19 19 -37 11 -20 21 -63 25 -110 l6 -77 -86 6 c-47 3 -117 13 -156 22
l-71 16 -23 67 c-20 59 -21 76 -13 135 9 60 7 73 -14 128 -14 33 -27 88 -31
122 -6 53 -15 76 -59 142 -50 77 -54 80 -103 91 -35 7 -59 8 -78 0 -64 -24
-80 -16 -126 63 -24 39 -59 92 -80 117 -21 25 -52 73 -69 108 -40 79 -41 151
-2 272 l27 85 152 3 c139 2 152 4 162 22 19 35 -1 68 -92 151 l-90 83 -45 -25
c-24 -13 -74 -46 -111 -74 -84 -63 -85 -70 -79 -321 5 -191 5 -191 37 -255 18
-35 54 -89 80 -119 26 -30 72 -88 103 -129 56 -72 57 -74 57 -140 -1 -49 -8
-82 -28 -130 -27 -62 -29 -64 -92 -88 -77 -29 -98 -26 -222 24 l-87 36 -25 59
c-21 49 -26 75 -26 146 0 48 4 92 8 99 4 7 33 24 65 38 61 27 60 24 40 98 -5
18 -45 22 -115 11 -28 -5 -38 -11 -38 -26 0 -25 -38 -38 -109 -38 -51 0 -63
-4 -120 -44 -87 -62 -129 -113 -136 -167 -16 -116 -12 -109 -53 -109 -48 0
-204 27 -212 37 -13 15 -30 76 -30 109 0 25 7 39 30 56 24 17 30 29 30 59 0
33 3 38 28 44 16 3 56 33 92 70 l63 64 -38 43 c-21 24 -58 53 -81 65 l-42 22
-7 78 c-3 43 -7 89 -8 103 -2 23 -6 25 -47 25 l-45 0 -5 -59 -5 -59 -48 -12
c-27 -7 -69 -27 -95 -45 l-46 -32 -71 35 c-38 19 -90 38 -115 42 -25 4 -69 13
-98 22 -45 12 -54 20 -67 50 -8 19 -15 60 -15 89 0 47 -3 56 -27 71 -16 10
-34 26 -41 35 -7 10 -26 18 -42 18 -22 0 -34 -9 -56 -44 -29 -46 -124 -117
-183 -137 l-33 -12 7 -61 c3 -33 15 -83 24 -111 10 -27 28 -78 41 -112 l22
-63 -37 -65 c-20 -36 -50 -75 -67 -88 -33 -25 -105 -140 -114 -184 -4 -21 -19
-36 -55 -56 -30 -17 -51 -37 -53 -50 -3 -12 -12 -67 -22 -121 -15 -91 -20
-102 -56 -142 -30 -33 -55 -48 -106 -65 -37 -12 -89 -33 -116 -46 -44 -22 -58
-24 -125 -19 -42 3 -126 9 -186 13 -94 7 -117 12 -158 36 -56 33 -62 65 -21
108 21 22 24 32 19 62 -4 20 -16 44 -26 53 -18 16 -25 17 -77 4 -31 -7 -83
-15 -114 -17 -55 -5 -58 -6 -97 -58 -42 -55 -77 -73 -111 -55 -23 12 -40 13
-40 1 0 -5 -16 -47 -36 -94 l-35 -86 -72 -29 c-40 -16 -84 -32 -98 -36 -19 -4
-30 -17 -42 -48 -16 -40 -16 -43 7 -94 18 -40 36 -60 71 -82 l46 -28 -33 -42
c-18 -23 -60 -64 -93 -92 -53 -45 -64 -50 -106 -50 -26 0 -54 -3 -63 -6 -12
-5 -16 0 -16 19 0 38 -49 45 -113 18 l-47 -20 -113 48 c-61 27 -145 59 -186
72 -68 22 -77 28 -100 68 -14 24 -47 76 -73 116 -40 64 -46 78 -41 112 5 38 8
41 60 58 46 16 58 25 70 53 11 27 12 41 3 66 -7 17 -15 60 -20 96 -4 36 -13
84 -19 108 -11 41 -13 42 -54 42 -31 0 -55 -9 -93 -34 -48 -33 -52 -34 -105
-24 -41 7 -63 18 -91 46 -21 20 -41 45 -44 56 -4 12 -28 46 -54 76 -52 60
-120 180 -120 211 0 11 7 33 15 49 14 27 20 30 64 30 45 0 50 2 61 30 10 23
10 40 1 73 -6 23 -12 64 -13 92 l-3 49 -69 20 -69 20 -36 -21 c-28 -16 -57
-22 -121 -24 -76 -2 -92 1 -150 28 -36 17 -73 39 -82 50 -22 24 -58 196 -58
277 0 61 0 61 -46 99 -26 20 -51 37 -56 37 -5 0 -68 -11 -141 -24 -73 -13
-163 -28 -200 -31 -37 -4 -74 -14 -82 -22 -8 -8 -22 -36 -32 -63 -17 -47 -21
-51 -93 -83 -130 -59 -137 -60 -324 -53 -94 3 -186 9 -204 12 -35 7 -37 10
-47 107 -6 53 -9 59 -50 87 -24 17 -54 30 -67 30 -38 0 -68 -27 -69 -63 -2
-51 -14 -82 -34 -86 -10 -2 -51 -18 -91 -36 l-72 -33 -30 32 c-16 17 -55 75
-86 128 -55 94 -56 99 -54 166 1 37 -1 73 -5 79 -4 6 -53 27 -109 48 -57 21
-109 43 -115 48 -23 17 -14 27 26 27 38 0 39 1 70 70 17 39 31 79 31 90 0 56
-119 232 -155 229 -5 0 -34 -12 -63 -25z"/>
<path d="M180 7201 c-24 -19 -24 -20 -8 -55 21 -43 103 -89 151 -84 l32 3 -3
60 c-3 48 -8 64 -25 77 -31 24 -114 24 -147 -1z"/>
<path d="M0 7124 c0 -45 0 -45 33 -42 30 3 32 6 35 46 l3 42 -35 0 c-36 0 -36
0 -36 -46z"/>
</g>
</svg>
