<?xml version="1.0" standalone="no"?>
<!DOCTYPE svg PUBLIC "-//W3C//DTD SVG 20010904//EN"
 "http://www.w3.org/TR/2001/REC-SVG-20010904/DTD/svg10.dtd">
<svg version="1.0" xmlns="http://www.w3.org/2000/svg"
 width="1024.000000pt" height="1024.000000pt" viewBox="0 0 1024.000000 1024.000000"
 preserveAspectRatio="xMidYMid meet">
<metadata>
Created by potrace 1.10, written by Peter Selinger 2001-2011
</metadata>
<g transform="translate(0.000000,1024.000000) scale(0.100000,-0.100000)"
fill="#000000" stroke="none">
<path d="M6362 9087 c-17 -18 -20 -26 -10 -29 22 -8 -111 -70 -134 -62 -15 4
-30 -4 -58 -31 -33 -32 -41 -36 -71 -30 -28 5 -38 2 -58 -18 -12 -14 -72 -47
-132 -73 -70 -30 -114 -55 -122 -69 -7 -12 -77 -83 -157 -157 -184 -172 -421
-415 -439 -451 -12 -23 -13 -34 -3 -60 12 -32 12 -33 -47 -87 -32 -30 -61 -63
-65 -73 -3 -9 -16 -21 -28 -26 -13 -5 -50 -37 -83 -71 -91 -93 -155 -138 -250
-175 -136 -54 -304 -189 -290 -234 3 -12 13 -21 20 -21 8 0 12 -6 9 -14 -3 -9
4 -16 21 -20 24 -6 27 -11 23 -41 -2 -19 -3 -35 -1 -35 2 0 10 18 19 39 15 39
23 45 77 61 21 7 27 5 27 -7 0 -12 8 -13 40 -8 32 5 40 4 40 -9 0 -8 -4 -18
-10 -21 -19 -12 -10 -22 15 -17 14 2 25 0 25 -6 0 -26 -16 -44 -61 -69 -54
-29 -62 -43 -24 -43 14 0 25 -4 25 -10 0 -18 15 -11 57 25 41 35 67 38 85 11
16 -23 7 -36 -30 -46 -53 -14 -77 -41 -62 -70 17 -31 3 -57 -35 -70 -19 -6
-44 -23 -54 -37 -19 -23 -22 -24 -43 -9 -30 21 -44 20 -69 -5 l-20 -20 33 -22
c42 -29 54 -55 74 -158 17 -90 25 -112 57 -147 l21 -22 -28 -29 c-19 -20 -27
-38 -26 -57 1 -16 2 -39 1 -51 -2 -34 -57 -90 -108 -109 -39 -15 -53 -16 -100
-6 -65 13 -73 11 -143 -43 -30 -23 -79 -54 -108 -70 -48 -26 -114 -89 -170
-164 -13 -17 -31 -31 -41 -31 -9 0 -33 -11 -51 -25 -19 -14 -78 -39 -130 -55
-125 -39 -126 -40 -106 -78 32 -62 11 -70 -44 -17 -54 52 -137 67 -357 60
-207 -6 -289 -22 -341 -68 -19 -18 -21 -27 -16 -70 6 -40 4 -49 -7 -45 -15 5
-27 39 -28 84 -1 30 -5 33 -110 75 -92 37 -110 48 -115 69 -3 14 -9 30 -13 37
-5 6 -91 25 -193 42 -161 26 -226 31 -505 40 l-320 10 -115 -25 c-63 -14 -194
-51 -290 -81 -96 -31 -203 -64 -238 -75 -55 -17 -62 -22 -58 -41 3 -12 10 -60
16 -107 10 -72 9 -91 -4 -122 -26 -62 -24 -65 60 -72 96 -9 119 -18 139 -55
15 -30 15 -31 -22 -72 l-37 -41 22 -39 c12 -21 22 -51 22 -68 0 -16 16 -71 35
-121 19 -50 35 -97 35 -104 0 -29 -60 -94 -106 -116 -79 -36 -164 -100 -171
-128 -6 -25 -79 -137 -115 -178 -11 -12 -53 -34 -95 -49 -41 -15 -95 -43 -119
-61 -24 -19 -44 -29 -44 -23 0 6 -13 -3 -29 -20 -16 -17 -34 -31 -40 -31 -6 0
-20 -14 -30 -30 -17 -28 -217 -174 -359 -262 -56 -34 -59 -39 -66 -84 -3 -26
-6 -129 -6 -230 l0 -184 2855 0 2856 0 20 -35 c12 -19 32 -38 46 -41 28 -7 43
-39 43 -90 0 -19 5 -34 11 -34 6 0 9 -9 6 -20 -6 -23 -8 -22 53 -11 38 8 46 6
57 -9 7 -10 27 -21 44 -25 17 -4 33 -14 36 -23 3 -10 15 -27 25 -38 16 -18 17
-25 7 -41 -10 -17 -7 -26 20 -63 32 -44 40 -75 20 -82 -9 -3 -8 -14 2 -41 11
-32 11 -44 -4 -88 l-16 -52 29 -34 c17 -19 30 -45 30 -58 0 -13 12 -44 28 -69
23 -39 31 -45 51 -41 18 5 32 -3 61 -33 31 -33 46 -41 91 -47 30 -4 62 -14 72
-23 15 -13 22 -14 37 -4 31 19 40 14 40 -18 0 -16 4 -30 9 -30 5 0 19 -16 31
-35 16 -26 67 -62 208 -147 103 -61 326 -196 496 -300 170 -104 311 -187 313
-184 3 3 1 59 -5 125 -9 110 -12 123 -41 163 -38 54 -49 114 -27 156 9 17 13
39 9 48 -5 14 -3 16 11 11 10 -4 20 -7 22 -7 11 0 2 -39 -11 -50 -8 -7 -15
-17 -15 -22 0 -6 26 -41 58 -78 l59 -67 6 -99 c4 -66 1 -119 -7 -159 -27 -124
-68 -250 -106 -325 -36 -73 -80 -187 -80 -210 0 -5 9 -10 20 -10 13 0 20 7 20
20 0 30 23 70 62 106 45 43 69 54 116 54 l40 0 -6 46 c-4 37 -2 46 9 42 9 -3
25 15 44 51 24 45 39 60 78 79 35 17 52 32 63 57 21 52 18 66 -36 149 l-49 76
137 81 c75 44 147 88 160 95 l23 15 -21 29 c-11 16 -31 53 -44 82 l-24 53 39
630 c36 565 38 635 26 680 l-14 50 154 565 c144 533 153 569 147 630 -3 36 4
357 16 714 l21 649 -30 49 c-17 27 -31 55 -31 63 0 33 -13 45 -50 45 -35 0
-39 -3 -45 -32 -4 -18 -13 -43 -21 -56 -12 -18 -18 -20 -34 -12 -15 8 -20 21
-20 53 0 66 28 179 51 211 32 43 36 103 9 156 -21 41 -21 45 -6 71 15 25 14
31 -9 100 -16 47 -25 95 -25 135 0 38 -7 77 -16 98 -16 32 -15 38 5 106 12 39
21 79 20 88 -3 36 3 50 56 131 60 92 63 105 44 220 -11 66 -10 69 21 142 31
69 32 77 21 118 -7 25 -35 83 -64 130 -50 83 -52 88 -51 156 2 80 29 226 51
268 13 26 12 32 -11 78 -31 59 -32 69 -5 171 17 69 19 88 9 129 l-12 48 -96
-5 c-470 -25 -793 -31 -1175 -22 -359 8 -414 7 -461 -6 -73 -21 -97 -20 -103
4 -3 11 -10 20 -17 20 -6 0 -20 3 -31 6 -14 3 -28 -3 -43 -19z"/>
<path d="M9680 2235 c0 -8 4 -15 9 -15 5 0 14 7 21 15 10 13 9 15 -9 15 -12 0
-21 -6 -21 -15z"/>
<path d="M9558 2177 c-147 -131 -271 -214 -335 -222 -26 -3 -73 -11 -103 -18
-33 -7 -134 -12 -257 -12 -110 0 -196 -3 -190 -7 8 -5 7 -8 -3 -8 -9 0 -26 7
-38 16 -31 21 -51 12 -45 -20 4 -20 -1 -29 -28 -45 -51 -31 -95 -36 -154 -17
-72 22 -93 21 -97 -6 -2 -14 -9 -22 -18 -20 -8 2 -35 5 -60 5 -40 2 -45 5 -43
23 2 15 -5 24 -19 28 -31 8 -32 3 -14 -50 9 -26 16 -51 16 -56 0 -13 -22 -9
-42 9 -11 9 -18 11 -18 5 0 -25 -41 -11 -58 18 -18 32 -39 37 -91 19 -31 -11
-31 -12 -31 -77 l0 -66 -42 43 c-39 39 -43 41 -55 25 -11 -15 -10 -21 8 -40
15 -16 19 -29 14 -45 l-8 -23 -21 27 c-27 34 -36 26 -36 -30 0 -47 -8 -54 -28
-23 -9 15 -23 20 -52 20 -36 0 -40 -3 -40 -25 0 -30 -4 -31 -37 -5 -14 11 -34
20 -44 20 -24 0 -57 -45 -70 -94 -7 -29 -19 -46 -40 -58 -23 -14 -28 -22 -24
-41 4 -16 0 -29 -14 -41 -29 -26 -26 -48 10 -75 18 -13 28 -28 25 -37 -8 -20
63 -19 92 2 13 9 30 13 38 10 12 -5 12 -2 -1 24 -14 27 -14 30 6 49 35 32 74
36 109 11 18 -13 39 -20 50 -17 29 8 24 -8 -11 -36 l-31 -24 28 -2 c16 0 58
-4 94 -7 62 -5 67 -4 79 19 20 37 80 65 162 77 126 18 291 68 334 102 20 15
34 19 58 13 69 -14 92 -11 95 12 3 19 6 20 32 12 23 -8 40 -5 96 21 50 22 76
29 99 24 21 -4 44 0 63 10 39 20 52 20 52 1 0 -25 31 -17 71 20 25 22 49 35
67 35 16 0 32 8 40 20 9 15 17 18 30 11 9 -5 31 -6 48 -4 18 3 35 0 38 -6 4
-6 15 -11 26 -11 18 0 24 6 93 84 22 24 37 34 41 27 11 -18 26 -13 26 8 0 11
5 23 11 27 22 13 -63 54 -113 54 -27 0 -48 4 -48 10 0 5 17 18 39 29 21 11 48
36 59 56 12 19 28 35 37 35 31 0 95 35 95 52 0 22 19 33 50 30 l25 -2 -23 13
-24 14 49 54 c73 81 78 89 62 89 -8 0 -35 -19 -61 -43z"/>
<path d="M9896 2165 c-2 -7 4 -15 15 -18 10 -3 19 -13 19 -24 0 -15 2 -16 10
-3 15 23 12 34 -14 46 -19 9 -26 9 -30 -1z"/>
<path d="M9601 2126 c-24 -26 -20 -52 7 -41 8 3 19 0 23 -7 6 -10 11 -10 20
-1 10 10 15 9 25 -5 12 -16 13 -16 14 0 0 13 -53 78 -64 78 -1 0 -13 -11 -25
-24z"/>
<path d="M10170 2100 l0 -30 35 17 35 17 -31 13 c-41 17 -39 18 -39 -17z"/>
<path d="M10121 2088 c-7 -20 -18 -28 -34 -28 -13 0 -37 -15 -58 -36 l-34 -36
55 25 c125 55 119 51 96 83 -14 18 -15 18 -25 -8z"/>
<path d="M9830 2030 c0 -37 -9 -38 -40 -5 l-24 25 -29 -35 c-30 -37 -54 -45
-63 -20 -5 13 -8 13 -21 0 -8 -8 -24 -15 -36 -15 -22 0 -106 -76 -159 -143
l-28 -34 39 -27 39 -27 40 20 c22 11 49 33 60 48 16 21 23 25 34 16 10 -9 32
-1 97 37 46 27 109 58 140 70 86 33 101 41 71 34 -34 -7 -80 29 -80 62 0 17
-5 24 -20 24 -16 0 -20 -7 -20 -30z"/>
<path d="M7255 1361 c-26 -5 -31 -11 -36 -49 -3 -27 -15 -52 -33 -71 -17 -18
-29 -42 -30 -65 -2 -20 -1 -36 1 -36 3 0 40 18 84 41 70 36 149 104 149 128 0
4 -9 20 -21 35 -21 27 -49 31 -114 17z"/>
</g>
</svg>
