<?xml version="1.0" standalone="no"?>
<!DOCTYPE svg PUBLIC "-//W3C//DTD SVG 20010904//EN"
 "http://www.w3.org/TR/2001/REC-SVG-20010904/DTD/svg10.dtd">
<svg version="1.0" xmlns="http://www.w3.org/2000/svg"
 width="1024.000000pt" height="1024.000000pt" viewBox="0 0 1024.000000 1024.000000"
 preserveAspectRatio="xMidYMid meet">
<metadata>
Created by potrace 1.10, written by Peter Selinger 2001-2011
</metadata>
<g transform="translate(0.000000,1024.000000) scale(0.100000,-0.100000)"
fill="#000000" stroke="none">
<path d="M3156 7715 c-11 -19 -27 -35 -36 -35 -15 0 -17 -7 -13 -44 5 -39 3
-45 -26 -65 -24 -18 -34 -20 -51 -11 -22 12 -40 6 -40 -14 0 -7 -6 -20 -13
-30 -13 -17 -15 -17 -45 -2 -45 23 -89 20 -123 -8 -26 -22 -36 -24 -110 -20
-82 3 -129 -11 -129 -40 0 -7 -14 -38 -30 -68 -20 -37 -38 -58 -55 -62 -13 -3
-37 -25 -52 -49 -24 -34 -35 -42 -59 -41 -16 0 -36 4 -46 8 -12 6 -18 1 -23
-22 -3 -16 -20 -42 -36 -58 -17 -16 -39 -45 -49 -65 -11 -20 -26 -39 -35 -42
-16 -7 -21 -33 -6 -39 4 -1 11 -12 15 -23 4 -15 -2 -24 -24 -37 -25 -14 -29
-22 -24 -43 10 -40 -4 -93 -26 -100 -12 -4 -20 -15 -20 -28 0 -28 -8 -39 -45
-57 -23 -12 -29 -22 -27 -42 2 -19 -2 -27 -17 -31 -22 -5 -41 -43 -41 -82 0
-18 -7 -26 -24 -31 -14 -3 -29 -18 -36 -34 -8 -20 -22 -31 -43 -36 -18 -3 -40
-14 -51 -23 -11 -10 -38 -17 -74 -18 -53 -1 -58 -3 -79 -37 -13 -19 -31 -40
-42 -45 -10 -6 -24 -24 -31 -41 -8 -18 -30 -41 -56 -56 -24 -14 -44 -32 -44
-40 0 -8 -7 -14 -15 -14 -27 0 -39 -50 -21 -88 9 -18 16 -41 16 -50 0 -24 -30
-56 -67 -71 -31 -13 -77 -90 -89 -149 -4 -21 -19 -39 -46 -57 -21 -14 -55 -51
-75 -83 -20 -31 -37 -59 -39 -60 -1 -2 -24 1 -49 6 -40 9 -55 7 -108 -14 -70
-27 -101 -53 -128 -106 -15 -29 -26 -38 -44 -38 -18 0 -31 -10 -45 -32 -11
-19 -15 -35 -10 -38 5 -3 -10 -26 -35 -50 -48 -47 -60 -95 -30 -120 21 -17 19
-25 -16 -65 -21 -24 -30 -42 -26 -56 3 -11 -3 -35 -13 -52 -15 -25 -17 -40
-11 -69 7 -32 6 -39 -11 -50 -20 -13 -19 -15 20 -60 41 -48 58 -93 48 -126 -7
-21 16 -46 52 -56 18 -6 22 -15 22 -46 0 -31 -4 -40 -22 -45 -13 -4 -36 -19
-51 -33 l-28 -27 -23 30 c-13 17 -32 41 -43 54 l-20 24 -46 -32 c-26 -18 -47
-38 -47 -46 0 -8 -5 -37 -11 -65 -9 -44 -16 -53 -49 -70 -22 -11 -56 -20 -77
-20 -21 0 -56 -5 -78 -11 -47 -13 -108 -56 -99 -70 3 -6 -2 -53 -12 -105 l-18
-94 -34 0 c-19 0 -47 -9 -63 -21 -23 -16 -29 -28 -29 -59 0 -21 -5 -42 -12
-46 -17 -11 70 -43 118 -43 31 -1 50 -9 80 -35 25 -21 61 -40 94 -48 l53 -13
19 -69 c16 -60 17 -81 8 -168 -14 -144 -13 -298 3 -298 6 0 38 32 70 70 l59
70 45 -37 45 -37 -6 -61 -6 -60 54 -29 53 -29 55 32 c65 37 74 38 83 11 4 -13
19 -23 36 -27 29 -5 30 -7 23 -49 l-6 -44 36 15 c32 13 40 14 71 1 31 -13 35
-19 35 -53 0 -21 7 -47 15 -57 8 -11 15 -33 15 -48 0 -16 6 -41 14 -57 15 -28
90 -101 104 -101 5 0 30 7 56 16 38 13 56 14 82 6 25 -7 47 -7 85 3 29 8 72
11 104 8 44 -5 56 -3 61 10 3 9 41 37 84 62 64 38 82 44 97 35 14 -9 31 -7 73
8 95 33 110 33 110 -2 0 -29 17 -36 100 -40 72 -4 100 -23 100 -72 0 -48 32
-67 85 -53 22 6 44 15 49 20 6 5 49 9 97 9 81 0 88 -2 103 -25 18 -27 84 -65
114 -65 10 0 24 -6 30 -12 7 -7 35 -13 63 -14 58 -1 73 -12 64 -46 -6 -23 -47
-56 -70 -56 -13 -1 -30 -65 -22 -85 4 -12 15 -14 40 -10 20 3 37 1 41 -6 11
-17 43 4 61 39 13 26 19 29 36 20 11 -6 28 -8 39 -5 10 3 21 1 25 -5 3 -5 15
-10 26 -10 11 0 23 -10 28 -22 8 -20 10 -21 16 -6 7 18 71 41 87 31 6 -3 8
-14 5 -24 -3 -13 6 -30 25 -50 l31 -30 57 21 58 22 77 -22 c78 -22 97 -21 76
3 -16 20 1 93 20 88 93 -26 128 -31 230 -31 77 0 128 5 150 14 22 9 58 12 113
9 85 -5 107 1 462 132 l40 15 -10 59 c-12 72 6 121 68 188 35 40 43 43 88 43
27 0 78 -8 113 -17 l64 -17 70 47 c54 36 71 53 71 70 0 46 19 56 120 62 l95 7
194 -146 c129 -97 208 -150 235 -157 203 -53 219 -58 246 -90 25 -31 27 -31
63 -20 35 12 40 11 79 -18 47 -35 72 -38 125 -16 51 22 674 69 685 52 5 -8 21
-7 61 7 52 18 55 18 148 -3 l94 -21 72 74 72 74 49 -18 c40 -15 76 -18 218
-18 186 0 237 -9 294 -53 53 -41 156 -49 228 -17 44 20 60 35 100 96 l48 72
76 -58 c50 -39 95 -64 136 -76 60 -19 61 -19 212 8 116 20 159 32 188 51 44
30 47 30 136 4 110 -33 169 -18 371 93 l160 88 49 84 c49 83 50 84 100 94 l51
10 102 -59 c57 -33 124 -81 151 -108 45 -45 52 -48 117 -55 93 -10 132 -8 158
9 12 7 41 18 65 25 38 10 42 14 42 41 0 19 10 43 25 61 24 28 25 36 25 153 0
114 -2 125 -20 135 -14 8 -20 21 -20 48 0 40 -21 73 -57 91 -18 9 -21 17 -17
41 8 37 -31 76 -86 85 -38 6 -39 8 -50 63 -7 31 -18 72 -26 90 -18 42 -18 71
1 78 23 9 29 68 11 120 l-16 46 35 35 c19 19 35 42 35 50 0 8 9 27 19 42 33
45 35 73 9 111 -16 23 -33 36 -51 38 -24 3 -27 7 -21 25 4 12 12 25 18 29 23
15 79 21 97 9 27 -16 118 -14 125 3 13 34 -57 106 -104 106 -16 0 -82 92 -82
114 0 11 -12 33 -27 48 l-28 29 22 58 21 59 -24 28 c-13 16 -23 43 -24 59 0
21 -9 37 -31 55 -23 19 -32 36 -36 70 -3 25 -10 53 -15 63 -13 26 -47 21 -77
-12 -22 -23 -38 -30 -90 -36 -57 -6 -64 -5 -83 15 -18 19 -28 21 -66 16 -28
-4 -50 -2 -59 5 -10 9 -20 9 -38 1 -21 -10 -26 -8 -36 9 -6 11 -16 18 -24 16
-7 -3 -18 0 -25 6 -9 9 -17 5 -35 -17 -17 -21 -30 -28 -51 -26 -58 4 -108 0
-118 -10 -15 -15 -46 -12 -52 4 -7 19 -34 29 -48 18 -47 -37 -136 -30 -116 9
14 26 12 39 -7 46 -10 4 -25 16 -35 27 -15 20 -17 20 -35 3 -11 -9 -24 -17
-29 -17 -6 0 -25 -11 -44 -25 -38 -28 -60 -20 -60 22 0 16 -10 30 -34 44 -23
13 -39 34 -51 64 -11 30 -23 45 -34 45 -22 0 -61 41 -61 64 0 10 -11 31 -25
48 -30 35 -31 45 -5 78 26 33 25 39 -6 71 -23 25 -26 33 -20 73 5 33 15 52 37
71 17 14 34 25 38 25 4 0 15 16 24 35 10 20 24 35 34 35 44 1 73 67 73 169 0
20 7 46 15 59 14 19 14 24 0 51 -8 17 -15 41 -15 54 0 44 -27 92 -64 112 -25
14 -38 16 -48 8 -7 -6 -32 -14 -55 -18 l-41 -6 -21 56 c-27 71 -26 77 5 69 20
-5 26 -2 31 15 6 23 23 27 41 9 8 -8 15 -8 26 1 8 7 20 10 26 6 5 -3 20 -3 31
0 28 9 19 44 -28 108 -38 51 -50 55 -119 32 -17 -5 -25 0 -42 29 -12 20 -27
36 -34 36 -7 0 -40 14 -73 30 -33 16 -65 30 -71 30 -23 0 -36 27 -23 48 17 27
3 70 -26 84 -14 6 -25 17 -25 24 0 6 -6 14 -14 17 -8 3 -16 15 -18 27 -2 16
-19 28 -61 45 -32 13 -65 21 -73 18 -8 -3 -22 1 -32 10 -9 8 -40 23 -69 32
-28 9 -61 28 -74 41 -12 13 -28 24 -34 24 -7 0 -34 9 -60 21 -38 17 -58 19
-105 14 -53 -6 -59 -5 -77 19 -17 21 -23 23 -32 12 -7 -8 -23 -17 -36 -20 -22
-6 -25 -12 -25 -51 0 -35 -6 -51 -29 -78 -20 -22 -31 -46 -33 -72 -4 -50 -38
-67 -84 -42 -69 38 -74 38 -102 16 -23 -17 -35 -20 -82 -14 -30 3 -76 11 -102
17 -42 10 -50 9 -67 -6 -24 -22 -51 -15 -51 13 0 13 -9 21 -30 26 -17 4 -35
15 -40 25 -8 15 -17 18 -48 13 -55 -9 -82 -21 -82 -37 0 -18 -37 -28 -44 -11
-3 8 -15 15 -28 17 -16 2 -24 11 -26 28 -5 32 -30 60 -53 60 -10 0 -21 5 -24
10 -10 16 -26 0 -20 -20 4 -13 -2 -19 -26 -24 -17 -3 -41 -6 -53 -5 -19 0 -19
1 -4 12 15 10 9 16 -45 44 -62 33 -87 40 -87 24 0 -22 -186 -32 -250 -13 -160
48 -155 47 -199 27 -35 -15 -47 -16 -81 -6 -28 8 -46 9 -59 1 -11 -5 -91 -11
-178 -13 -148 -2 -162 0 -216 23 -39 16 -62 21 -71 15 -51 -38 -68 -47 -101
-52 -32 -5 -39 -2 -63 25 -33 38 -129 62 -148 36 -6 -8 -26 -14 -45 -14 -32 0
-35 3 -58 61 -13 33 -29 63 -37 66 -8 3 -14 11 -14 17 0 20 -53 64 -85 72 -38
8 -65 32 -65 55 0 37 -12 49 -49 49 -27 0 -44 -7 -61 -25 -27 -29 -47 -31
-120 -9 -59 18 -110 51 -104 68 8 25 -44 59 -132 86 -61 18 -80 12 -76 -28 2
-18 -2 -40 -9 -48 -10 -12 -8 -20 9 -44 12 -16 22 -36 22 -43 0 -21 -41 -29
-65 -12 -11 8 -29 21 -40 29 -11 8 -41 18 -67 21 -43 7 -48 5 -48 -12 0 -53
-74 -43 -88 12 -6 20 -19 35 -42 46 -18 9 -38 23 -44 31 -33 44 -105 46 -124
3 -16 -34 -32 -31 -32 5 0 28 -3 30 -35 30 -20 0 -46 -7 -59 -15 -22 -15 -25
-14 -57 24 -19 21 -47 57 -62 80 -29 43 -45 49 -75 30 -15 -10 -23 -7 -45 15
-14 14 -36 26 -48 26 -13 0 -32 9 -44 20 l-21 19 -18 -34z"/>
</g>
</svg>
