<?xml version="1.0" standalone="no"?>
<!DOCTYPE svg PUBLIC "-//W3C//DTD SVG 20010904//EN"
 "http://www.w3.org/TR/2001/REC-SVG-20010904/DTD/svg10.dtd">
<svg version="1.0" xmlns="http://www.w3.org/2000/svg"
 width="1024.000000pt" height="1024.000000pt" viewBox="0 0 1024.000000 1024.000000"
 preserveAspectRatio="xMidYMid meet">
<metadata>
Created by potrace 1.10, written by Peter Selinger 2001-2011
</metadata>
<g transform="translate(0.000000,1024.000000) scale(0.100000,-0.100000)"
fill="#000000" stroke="none">
<path d="M945 9720 c-25 -16 -31 -28 -36 -72 -3 -29 -2 -57 2 -62 5 -6 9 -23
9 -38 0 -24 -4 -28 -29 -28 -16 0 -34 -7 -41 -15 -15 -18 -5 -65 15 -65 8 0
35 -7 60 -15 42 -15 48 -15 76 2 18 11 39 39 55 73 22 46 25 65 21 115 -5 53
-10 64 -41 92 -42 38 -51 40 -91 13z"/>
<path d="M247 9309 c-9 -6 -17 -19 -17 -29 0 -16 -7 -20 -37 -20 -20 0 -45 8
-55 17 -16 14 -22 15 -36 5 -9 -7 -28 -17 -42 -22 -14 -6 -32 -14 -40 -19 -17
-9 -26 -60 -13 -70 4 -3 13 -15 19 -26 7 -12 26 -22 47 -26 20 -3 42 -10 49
-16 7 -6 37 -16 67 -22 53 -11 56 -11 90 17 22 18 37 40 39 56 2 16 21 45 43
67 21 21 39 43 39 49 0 15 -35 30 -70 30 -17 0 -39 4 -48 9 -11 6 -24 6 -35 0z"/>
<path d="M2157 9073 c-3 -5 -8 -48 -12 -96 l-7 -89 -52 7 c-125 15 -124 14
-144 53 -14 28 -25 37 -43 36 -13 -1 -30 7 -37 17 -15 22 -56 17 -84 -10 -13
-13 -15 -28 -9 -89 9 -92 30 -117 99 -117 36 0 47 -4 50 -17 3 -14 -3 -18 -23
-18 -15 0 -40 -8 -55 -17 -26 -15 -33 -15 -84 -1 -31 8 -58 13 -61 10 -14 -14
-4 -73 15 -84 11 -7 20 -20 20 -29 0 -20 20 -29 61 -29 16 0 29 -4 29 -10 0
-5 -11 -10 -25 -10 -20 0 -25 -5 -25 -25 0 -33 -35 -52 -58 -32 -26 23 -99 46
-111 34 -13 -13 26 -86 54 -99 12 -5 35 -33 51 -61 23 -40 38 -54 64 -62 67
-19 78 -39 33 -56 -58 -22 -91 -91 -57 -119 8 -8 20 -22 26 -33 10 -19 8 -20
-53 -14 -34 4 -70 14 -80 23 -24 21 -33 3 -24 -52 6 -40 4 -47 -24 -75 -25
-24 -29 -35 -24 -59 5 -27 3 -30 -18 -30 -47 0 -54 -12 -41 -77 20 -93 21 -88
-16 -85 -26 3 -46 -7 -104 -49 -70 -50 -72 -51 -106 -39 -29 10 -36 10 -43 -1
-24 -39 -24 -39 -75 -30 -45 9 -51 8 -75 -15 -14 -13 -28 -21 -32 -18 -3 4
-23 -1 -43 -11 l-36 -17 5 -101 5 -101 33 -23 c18 -13 48 -28 66 -34 31 -10
33 -14 33 -54 0 -47 25 -116 46 -128 8 -4 14 -20 14 -36 0 -19 14 -42 49 -77
26 -27 52 -60 56 -74 11 -38 55 -79 90 -86 l32 -6 -5 -69 c-5 -76 10 -112 53
-129 15 -6 27 -20 31 -37 9 -44 34 -106 49 -123 9 -10 11 -32 8 -68 -6 -52 -7
-53 -32 -47 -14 4 -26 7 -26 8 0 1 -6 18 -14 37 -7 19 -16 48 -18 63 -3 16
-16 35 -29 44 -13 8 -24 24 -24 34 0 10 -4 21 -10 24 -5 3 -10 17 -10 30 0 14
-9 29 -20 35 -26 14 -61 4 -54 -15 4 -8 -3 -15 -17 -17 -16 -2 -25 -13 -31
-36 -5 -18 -15 -35 -22 -38 -8 -3 -35 16 -62 42 l-48 46 -21 -27 c-11 -15 -37
-44 -57 -64 -39 -37 -46 -59 -28 -77 7 -7 8 -19 1 -36 -8 -21 -6 -29 10 -44
27 -25 24 -42 -14 -64 l-34 -20 19 -58 c11 -31 36 -82 56 -112 20 -30 47 -72
60 -93 17 -25 37 -41 63 -48 30 -9 36 -15 29 -28 -4 -9 -15 -38 -23 -66 -11
-40 -16 -46 -22 -30 -20 57 -43 89 -67 99 -16 6 -28 18 -28 28 0 26 -21 66
-37 72 -19 8 -33 -1 -41 -25 -7 -18 -11 -16 -45 16 -63 59 -101 38 -97 -53 4
-77 2 -82 -26 -82 -24 0 -26 -3 -22 -42 3 -38 0 -43 -19 -46 -17 -2 -23 -10
-23 -27 0 -13 -5 -25 -11 -27 -5 -2 -11 -19 -11 -37 -1 -26 6 -41 29 -61 20
-18 28 -32 23 -41 -5 -8 -2 -28 5 -45 16 -38 57 -49 141 -38 45 5 54 4 54 -9
0 -9 -12 -22 -28 -29 -38 -18 -62 -92 -38 -116 15 -15 21 -15 83 3 107 29 139
31 155 6 11 -17 23 -21 71 -21 32 0 74 7 94 15 19 8 43 15 51 15 36 0 -25 -38
-98 -61 -76 -23 -118 -27 -178 -14 -30 7 -32 5 -38 -24 -4 -17 -13 -36 -20
-42 -29 -24 -16 -57 41 -99 30 -22 59 -40 65 -40 5 0 10 -7 10 -15 0 -18 89
-46 111 -34 19 10 29 2 29 -22 0 -33 78 -39 106 -8 33 37 101 79 128 79 13 0
37 5 53 11 88 35 139 25 78 -16 -18 -13 -43 -26 -56 -30 -13 -4 -44 -22 -69
-39 -26 -18 -67 -40 -93 -50 -53 -20 -61 -45 -26 -82 17 -18 28 -21 60 -17
l39 6 0 -39 c0 -55 -10 -66 -56 -62 -29 2 -42 9 -49 26 -17 38 -75 20 -75 -23
0 -36 -27 -21 -34 20 -6 28 -17 39 -74 72 -65 37 -70 39 -157 38 l-90 0 3 -25
c2 -14 5 -58 7 -99 5 -80 11 -93 55 -111 32 -13 41 -46 16 -56 -26 -10 -55 16
-73 65 -9 26 -27 61 -39 77 -21 25 -24 26 -30 10 -4 -10 -2 -27 5 -38 7 -11
11 -21 9 -22 -2 -1 -15 -7 -30 -14 -25 -10 -28 -17 -28 -61 0 -27 4 -52 10
-56 5 -3 9 -18 10 -33 1 -68 13 -148 24 -154 6 -4 24 -8 40 -8 27 0 28 -2 22
-31 -3 -18 -1 -38 5 -45 13 -16 49 -19 49 -4 0 6 6 10 14 10 8 0 32 -33 53
-72 25 -47 49 -78 67 -86 34 -17 38 -13 45 41 5 37 9 42 33 45 26 3 98 -24 98
-37 0 -3 -29 -19 -65 -36 -36 -16 -64 -34 -62 -39 2 -5 22 -16 45 -25 40 -14
42 -14 67 9 l25 23 0 -26 c0 -32 -7 -37 -78 -47 -86 -12 -109 -25 -127 -66
-14 -34 -14 -39 1 -55 11 -12 14 -27 10 -43 -5 -21 1 -30 40 -57 39 -26 50
-30 65 -20 26 15 26 15 33 -21 13 -71 111 -110 206 -82 61 18 80 37 80 77 0
17 10 55 21 83 17 40 28 53 48 57 14 3 38 9 53 13 24 5 29 2 38 -21 14 -37 6
-57 -31 -79 -49 -29 -69 -53 -69 -85 0 -37 15 -49 70 -53 l45 -4 -30 -13 c-31
-13 -106 -29 -186 -38 -27 -3 -67 1 -95 10 -43 13 -54 13 -75 1 -13 -7 -34
-13 -46 -14 -13 0 -24 -8 -28 -21 -4 -11 -25 -28 -50 -39 -57 -24 -89 -76 -80
-128 5 -31 2 -41 -14 -57 -34 -30 -27 -70 25 -136 41 -51 51 -59 80 -59 29 0
34 3 34 24 0 17 14 34 48 59 26 19 68 51 94 72 53 42 81 43 86 3 4 -34 -30
-58 -83 -58 -30 0 -47 -6 -62 -22 -27 -30 -38 -91 -21 -117 10 -16 10 -23 0
-33 -22 -22 -13 -38 22 -38 21 0 45 -9 63 -24 30 -25 67 -46 80 -46 4 0 24 29
43 65 19 36 38 65 43 65 16 0 5 -43 -24 -90 -30 -49 -31 -53 -19 -96 7 -24 18
-48 25 -52 23 -13 22 -46 -2 -79 -19 -26 -22 -37 -13 -53 6 -11 19 -20 29 -20
23 0 30 -17 22 -49 -5 -18 -22 -29 -74 -49 -54 -20 -76 -35 -109 -73 -22 -27
-56 -58 -74 -69 -19 -10 -34 -26 -34 -35 0 -8 -8 -15 -17 -15 -10 0 -39 -7
-65 -17 -41 -14 -45 -18 -35 -34 9 -14 8 -25 -4 -46 -33 -60 1 -93 96 -93 56
0 67 -8 41 -30 -8 -6 -16 -21 -18 -33 -2 -14 -11 -23 -26 -25 -12 -2 -29 -14
-38 -27 -14 -21 -14 -26 1 -55 9 -17 23 -34 31 -37 21 -8 17 -33 -11 -59 -14
-13 -25 -33 -25 -44 0 -17 -4 -20 -20 -15 -25 8 -51 -11 -43 -31 3 -8 0 -28
-7 -44 -10 -24 -10 -33 0 -45 15 -19 14 -20 -41 -48 -43 -21 -44 -24 -49 -77
-4 -45 -14 -67 -50 -119 -25 -35 -57 -77 -72 -94 -16 -16 -28 -34 -28 -41 0
-11 33 -104 50 -141 5 -11 10 -31 12 -45 2 -17 9 -25 20 -24 12 1 21 -10 28
-35 15 -54 12 -70 -14 -94 -13 -12 -31 -37 -40 -54 -18 -35 -27 -39 -56 -23
-25 13 -66 -21 -76 -63 -3 -17 -13 -41 -20 -52 -23 -33 -16 -50 42 -105 47
-44 59 -51 84 -47 25 5 27 4 23 -16 -3 -12 -11 -27 -17 -32 -6 -6 -19 -24 -28
-41 l-18 -32 40 -27 c32 -22 38 -31 30 -45 -8 -15 -3 -22 25 -39 39 -23 43
-35 18 -50 -38 -22 -43 -28 -38 -43 5 -13 13 -14 43 -6 58 14 131 18 137 8 14
-23 61 -8 118 38 16 12 35 22 43 22 8 0 24 10 35 21 19 19 28 21 91 15 48 -5
80 -15 105 -32 20 -13 45 -24 57 -24 12 0 34 -7 50 -15 15 -8 35 -15 43 -15
24 0 90 58 97 85 5 18 13 25 32 25 13 0 27 -7 30 -15 4 -10 21 -14 57 -14 29
0 78 -1 111 -3 53 -3 62 0 94 28 30 26 40 29 55 20 21 -13 38 6 34 39 -2 18 5
20 72 23 66 3 78 6 108 32 19 17 39 30 45 30 7 0 25 12 40 27 16 15 55 37 86
48 l57 20 -3 81 c-3 50 1 90 8 104 10 19 8 25 -11 43 l-22 21 25 8 c19 7 25
14 21 29 -3 10 0 32 6 47 14 32 -3 85 -38 116 -11 10 -23 32 -26 48 -4 18 -15
32 -26 35 -12 3 -19 14 -19 28 0 12 -9 34 -20 48 -11 14 -20 34 -20 44 0 10
-9 35 -20 56 -22 41 -22 46 -16 156 3 41 2 80 -2 85 -4 6 -5 36 -3 67 1 33 -2
60 -8 63 -13 9 -3 66 16 88 20 23 50 29 64 12 6 -8 25 -14 41 -14 31 0 48 -24
29 -43 -6 -6 -11 -19 -11 -28 0 -9 -7 -23 -16 -30 -11 -9 -14 -23 -11 -46 3
-18 1 -47 -5 -64 -8 -24 -7 -38 7 -69 11 -25 15 -50 11 -72 -3 -19 0 -50 9
-73 8 -22 14 -54 15 -71 0 -26 6 -34 39 -49 22 -9 43 -15 48 -12 4 2 18 1 31
-4 18 -7 22 -14 17 -30 -5 -16 0 -27 18 -43 l26 -21 -24 -55 c-30 -69 -30 -74
-1 -88 22 -10 32 -6 81 26 65 43 76 69 45 109 -21 27 -21 27 -2 43 29 22 36
57 19 84 l-15 22 58 -2 c55 -3 58 -2 65 24 4 18 2 30 -9 38 -14 10 -7 15 44
34 46 17 59 27 56 39 -3 9 -8 28 -11 43 -6 22 -13 27 -48 30 -26 3 -48 0 -57
-8 -8 -7 -36 -18 -61 -24 -43 -11 -51 -10 -98 14 -46 24 -51 30 -51 60 0 19 7
39 16 47 14 11 18 10 30 -6 8 -10 14 -25 14 -32 0 -25 47 -34 87 -18 19 8 46
15 58 15 34 0 59 65 38 97 -12 18 -13 28 -2 58 12 31 11 40 -6 73 -23 43 -46
64 -96 90 -20 10 -57 42 -84 72 -42 47 -45 54 -29 63 14 8 21 4 36 -17 11 -14
26 -26 33 -26 8 0 15 -9 17 -21 2 -11 15 -28 30 -37 25 -15 28 -15 47 3 21 18
21 18 21 -2 0 -22 31 -54 77 -77 32 -16 40 -31 67 -138 9 -36 12 -68 7 -85
-12 -40 4 -76 28 -68 11 3 34 -1 50 -9 17 -9 40 -16 51 -16 20 0 21 4 17 62
-9 100 -18 139 -36 146 -23 9 -51 45 -46 59 2 6 -3 17 -11 23 -20 18 -17 40 6
40 23 0 25 15 8 70 -14 42 -36 52 -58 25 -22 -26 -100 -14 -122 19 -4 6 -8 21
-8 33 0 13 -17 36 -45 59 -49 40 -56 54 -25 54 26 0 110 -85 110 -111 0 -12 9
-21 26 -25 31 -8 44 7 44 53 0 17 4 34 9 37 15 10 19 55 5 67 -8 6 -14 19 -14
29 0 24 -48 40 -122 40 -50 0 -69 6 -123 37 -41 23 -70 48 -82 70 -18 34 -40
41 -74 23 -19 -11 -25 -4 -11 16 12 18 50 34 66 28 8 -3 24 -22 36 -41 13 -22
35 -40 60 -50 22 -9 42 -24 45 -34 6 -17 18 -19 102 -19 80 0 99 3 120 20 34
26 61 25 122 -5 60 -31 66 -46 82 -210 12 -116 51 -239 90 -281 12 -13 19 -35
19 -61 0 -43 17 -103 29 -103 5 0 24 -16 44 -35 45 -44 93 -50 83 -11 -4 18 1
32 20 53 l25 28 20 -25 c11 -14 22 -37 25 -52 8 -33 28 -52 48 -45 10 4 13 22
11 69 -3 72 -18 118 -39 118 -8 0 -17 13 -21 30 -4 20 -13 30 -25 30 -23 0
-32 36 -13 52 15 12 15 25 -7 125 -9 46 -8 56 10 90 11 21 20 50 20 65 0 15 4
29 9 32 24 15 17 160 -9 176 -19 12 -60 114 -48 121 27 17 107 -48 135 -110
15 -31 7 -129 -12 -151 -7 -8 -24 -36 -38 -62 -42 -79 -50 -299 -11 -284 10 4
14 -2 14 -18 0 -13 7 -29 15 -36 8 -7 15 -19 15 -27 0 -36 31 -72 72 -83 23
-7 52 -19 65 -27 12 -8 48 -16 79 -17 50 -1 59 -5 80 -31 13 -17 24 -36 24
-44 0 -7 14 -29 30 -48 20 -22 30 -45 30 -66 0 -38 7 -50 38 -66 12 -6 22 -18
22 -26 0 -8 16 -33 36 -54 22 -25 37 -54 41 -78 3 -21 14 -47 24 -58 10 -11
27 -30 38 -42 12 -13 38 -26 61 -29 22 -4 40 -10 40 -15 0 -5 9 -9 19 -9 11 0
23 -5 26 -10 3 -6 38 -10 76 -10 39 0 85 -7 105 -15 28 -12 45 -12 87 -4 29 6
57 16 64 21 7 6 19 5 32 -1 18 -10 133 -14 216 -8 17 1 41 10 55 19 39 26 80
34 80 14 0 -10 25 -29 66 -49 l66 -32 -4 -54 c-2 -40 1 -55 12 -61 8 -3 34
-16 57 -28 23 -12 53 -22 66 -22 13 0 70 27 126 61 79 47 102 66 107 87 3 15
15 50 27 77 15 37 20 70 19 124 -1 60 3 79 19 99 19 25 19 25 -1 47 -11 12
-18 29 -15 37 3 8 -1 21 -10 28 -22 19 -18 47 10 66 31 20 31 37 0 96 -20 38
-24 55 -19 91 6 44 5 46 -46 95 -45 44 -52 55 -48 81 4 25 0 32 -23 41 -15 7
-30 18 -32 25 -3 7 -18 16 -34 19 -33 9 -112 58 -138 86 -15 17 -16 27 -8 70
9 45 8 50 -8 50 -22 0 -34 47 -20 83 6 15 17 27 26 27 17 0 55 -56 55 -80 0
-31 36 -100 55 -106 51 -16 103 -59 114 -94 6 -21 22 -49 35 -63 30 -32 76
-37 76 -9 0 11 9 27 20 37 24 22 27 108 6 169 -13 37 -49 75 -72 76 -5 0 -23
13 -38 28 -21 23 -26 37 -24 66 2 33 -3 42 -37 71 -30 25 -37 36 -29 45 20 20
67 -14 97 -69 27 -49 78 -101 100 -101 7 0 32 -21 56 -46 38 -40 46 -43 54
-29 7 13 -1 27 -37 64 -59 60 -60 76 -1 22 24 -22 51 -41 59 -41 34 0 66 -23
66 -48 0 -32 67 -140 92 -148 11 -3 35 -19 54 -36 43 -38 47 -85 10 -121 -14
-14 -30 -43 -36 -65 -11 -34 -10 -48 9 -101 11 -34 21 -86 21 -117 0 -30 7
-68 16 -85 8 -17 18 -53 21 -82 5 -51 41 -147 55 -147 13 0 48 -68 48 -92 0
-33 29 -58 67 -58 17 0 41 -8 54 -19 22 -18 22 -20 9 -74 -13 -55 -13 -57 15
-96 15 -22 36 -43 46 -46 28 -9 43 -43 28 -61 -31 -38 47 -100 116 -92 19 2
35 0 35 -6 0 -5 10 -20 22 -33 16 -17 18 -23 7 -23 -23 0 -73 -56 -66 -75 6
-14 10 -14 40 -1 23 9 56 12 105 8 l72 -5 0 29 c0 40 10 51 59 69 53 18 193
20 221 3 15 -10 26 -10 52 0 27 10 34 9 41 -3 4 -8 15 -15 23 -15 18 0 74 -56
74 -74 0 -36 97 -65 125 -37 6 6 34 7 65 3 47 -6 57 -11 68 -35 7 -15 18 -27
24 -27 23 0 78 -33 83 -51 10 -29 76 -60 100 -46 11 5 23 16 27 22 4 7 29 16
54 20 33 5 48 12 51 25 3 11 13 22 22 25 9 3 34 20 55 39 37 30 41 38 47 97 3
35 2 68 -2 73 -5 6 -9 14 -9 18 0 16 22 7 56 -25 19 -17 48 -39 64 -48 29 -16
30 -16 70 22 35 33 47 39 86 39 32 0 56 7 82 25 20 14 46 25 57 25 18 0 20 -5
17 -45 -3 -31 0 -45 8 -45 14 0 100 67 113 87 4 7 14 13 22 13 29 0 58 153 39
204 -3 9 -15 16 -25 16 -10 0 -19 5 -19 11 0 6 -10 24 -22 39 -13 15 -36 44
-52 64 -18 22 -45 41 -67 48 -25 7 -39 18 -43 32 -4 16 -20 25 -65 38 -58 15
-61 15 -108 -7 -47 -21 -145 -39 -157 -28 -10 11 13 39 55 69 32 22 59 31 108
36 36 3 87 10 113 13 37 6 53 4 74 -10 18 -12 36 -15 59 -11 54 10 166 -14
192 -41 12 -13 33 -23 47 -23 26 0 77 17 86 28 3 4 14 12 25 18 13 7 24 29 30
60 14 63 41 124 55 124 19 0 49 43 50 71 0 54 13 92 32 97 16 4 18 11 12 56
-8 68 -22 104 -45 111 -10 4 -19 13 -19 21 0 33 -96 83 -212 108 -16 4 -32 17
-40 34 -13 26 -17 27 -83 27 -57 0 -79 5 -120 28 -38 20 -64 27 -106 27 -47 0
-59 4 -80 26 -51 56 -116 86 -257 119 l-53 13 -52 -45 c-53 -45 -59 -48 -139
-58 -31 -4 -51 -12 -58 -24 -6 -12 -26 -20 -55 -24 -25 -4 -65 -18 -88 -31
-23 -14 -64 -30 -90 -37 -53 -13 -99 -58 -118 -116 -10 -30 -8 -37 24 -81 27
-37 36 -61 42 -110 8 -70 35 -102 87 -102 15 0 64 -18 108 -40 44 -22 86 -40
95 -40 8 0 23 -17 34 -38 20 -38 102 -122 121 -122 5 0 12 -11 16 -25 4 -17
18 -31 40 -40 19 -8 38 -24 43 -37 7 -19 4 -25 -17 -37 -22 -12 -29 -11 -56 5
-67 39 -123 87 -166 142 -51 64 -103 94 -193 114 -46 10 -62 18 -75 40 -9 15
-24 28 -34 28 -10 0 -24 14 -33 30 -19 36 -22 37 -65 5 -29 -21 -45 -25 -110
-25 -50 0 -83 -5 -97 -15 -17 -12 -27 -12 -64 -2 -37 11 -46 20 -76 74 -45 82
-114 138 -191 153 -31 7 -84 27 -117 45 -66 37 -87 42 -127 31 -22 -6 -41 0
-95 30 -66 38 -71 39 -155 36 -54 -1 -88 2 -88 8 0 5 9 10 20 10 10 0 29 4 42
9 13 5 31 12 41 15 17 6 16 9 -12 41 -17 20 -31 41 -31 47 0 6 -9 8 -21 5 -40
-11 -51 4 -17 23 25 13 34 25 36 48 3 28 1 30 -40 37 -24 4 -54 13 -68 20 -24
13 -24 13 15 13 88 0 133 24 106 56 -7 8 -9 29 -5 52 6 42 10 38 -73 78 -18 8
-33 20 -33 25 0 6 0 14 0 19 0 4 8 8 18 8 9 1 23 2 30 3 18 1 15 48 -4 59 -9
5 -25 7 -36 4 -12 -3 -26 5 -39 23 -14 17 -28 25 -40 22 -10 -3 -23 1 -29 9
-7 7 -36 20 -66 29 -30 8 -54 17 -54 20 0 2 16 9 36 15 30 10 38 9 53 -4 49
-44 14 83 -43 158 -22 29 -34 36 -62 36 -19 0 -52 9 -73 20 -37 18 -81 63 -81
81 0 4 -29 38 -64 75 -58 60 -66 66 -92 60 -88 -22 -90 -22 -147 35 -81 82
-133 126 -156 134 -26 8 -27 25 -2 25 31 0 85 -27 114 -57 95 -100 99 -103
128 -103 17 0 39 5 50 11 16 8 25 7 38 -5 10 -9 24 -16 33 -16 19 0 51 -35 76
-85 12 -24 44 -58 77 -83 65 -49 90 -54 81 -17 -8 32 19 86 39 79 10 -4 12
-15 9 -33 -9 -42 29 -111 60 -111 22 0 25 -5 31 -62 9 -80 17 -95 54 -100 31
-5 41 9 41 60 0 39 32 22 48 -26 10 -30 20 -44 38 -48 17 -4 24 -13 24 -29 0
-37 22 -48 59 -29 34 17 39 29 17 37 -8 3 -18 23 -22 44 -4 21 -20 53 -36 72
-16 18 -34 44 -40 57 -6 12 -30 33 -53 45 -37 20 -41 25 -31 41 7 13 21 18 41
16 53 -5 43 26 -29 97 -36 36 -66 69 -66 74 0 5 -9 13 -20 16 -11 3 -20 14
-20 24 0 10 -7 24 -15 31 -17 14 -20 40 -5 40 14 0 50 -37 50 -51 0 -6 39 -51
86 -99 l86 -88 44 42 c46 44 59 91 29 102 -8 4 -15 12 -15 19 0 16 -33 45 -53
45 -8 0 -28 5 -42 10 -23 9 -25 13 -15 25 16 20 35 19 81 -2 34 -17 69 -67 69
-101 0 -7 19 -24 43 -38 58 -36 117 -94 117 -116 0 -20 57 -88 74 -88 7 0 34
-27 62 -60 27 -33 66 -71 87 -85 33 -23 37 -24 37 -7 0 10 -15 36 -34 58 -33
38 -40 54 -37 82 2 20 18 14 50 -20 28 -30 38 -48 55 -102 6 -17 9 -17 36 10
27 26 29 35 30 96 0 65 -1 68 -30 83 -16 8 -38 15 -50 15 -11 0 -20 4 -20 9 0
5 -13 14 -30 21 -17 7 -30 20 -30 29 0 10 -6 26 -14 36 -17 24 -4 55 22 55 10
0 24 6 31 12 7 8 40 13 84 13 89 0 96 15 36 80 -52 56 -90 61 -114 14 -19 -35
-48 -36 -53 -1 -3 16 4 25 23 32 35 13 28 29 -20 46 -34 11 -43 11 -62 -1 -26
-18 -63 -20 -63 -4 0 6 10 19 22 29 22 18 22 18 4 39 -10 11 -22 18 -27 15
-12 -7 -49 14 -49 29 0 17 -72 86 -130 124 -63 43 -83 67 -75 92 7 24 13 25
49 11 18 -6 27 -19 32 -44 5 -28 15 -41 48 -60 22 -13 52 -36 65 -50 29 -31
47 -33 61 -6 6 11 20 20 32 20 19 0 47 25 48 42 0 3 -22 14 -49 23 -27 9 -56
24 -65 34 -16 18 -16 20 4 34 29 20 74 7 115 -33 17 -16 37 -30 45 -30 8 0 29
-14 46 -31 32 -31 34 -32 86 -21 52 11 54 10 123 -30 96 -56 131 -74 196 -99
50 -19 61 -20 105 -9 98 23 104 23 127 2 26 -24 61 -15 72 18 6 19 12 21 38
15 18 -3 66 -9 107 -12 41 -3 81 -10 87 -15 7 -6 20 -8 28 -4 13 4 15 21 12
86 -4 80 -4 80 22 87 14 3 46 16 71 29 54 29 72 30 93 6 15 -16 26 -17 97 -10
106 12 256 -2 251 -22 -2 -8 -6 -23 -8 -33 -5 -15 -2 -16 20 -8 18 7 36 7 58
-1 17 -6 53 -8 80 -5 47 6 49 5 49 -18 0 -27 36 -59 85 -75 36 -12 45 -30 45
-97 0 -23 5 -45 10 -48 6 -3 10 -17 10 -30 0 -15 10 -31 25 -41 14 -9 25 -23
25 -30 0 -8 18 -34 41 -59 36 -39 41 -52 46 -104 5 -55 4 -60 -20 -75 -24 -16
-24 -18 -9 -49 21 -43 20 -43 36 -22 13 18 15 18 77 1 35 -10 92 -31 125 -47
34 -16 70 -29 81 -29 10 0 23 -4 29 -9 23 -23 265 -10 337 18 16 6 61 11 102
11 96 0 110 5 90 33 -8 12 -15 36 -15 53 0 38 -34 62 -126 89 -33 9 -75 25
-94 35 -21 11 -64 20 -107 23 -59 4 -77 9 -103 31 -17 14 -43 26 -56 26 -14 0
-27 7 -30 15 -11 27 -34 17 -34 -15 0 -25 -4 -30 -23 -30 -32 0 -67 27 -67 53
0 12 -11 39 -24 61 -21 33 -23 43 -14 70 16 48 23 51 67 32 22 -10 44 -15 50
-12 20 13 11 68 -19 118 -16 26 -30 52 -30 57 0 5 11 32 25 59 22 43 30 50 62
56 56 9 59 8 71 -19 11 -23 14 -24 74 -18 72 6 94 -8 100 -62 3 -27 6 -30 33
-27 47 4 72 -6 105 -41 27 -28 31 -37 26 -73 -3 -24 -1 -45 6 -52 13 -13 70
-16 82 -5 4 4 21 12 39 18 28 9 32 15 32 45 0 29 5 37 39 56 31 18 39 28 41
55 3 38 27 59 66 59 22 0 32 9 54 48 15 26 36 56 45 67 10 11 20 42 24 69 7
53 15 63 58 72 36 8 54 30 68 84 6 25 20 59 30 77 11 18 26 76 35 130 9 54 23
112 31 128 21 42 84 238 84 260 0 10 -8 27 -17 38 -17 18 -17 19 0 32 22 16
23 87 2 105 -11 9 -15 29 -13 69 2 45 -4 68 -27 115 -17 32 -42 67 -57 78 -33
23 -54 66 -67 133 -5 28 -19 84 -30 125 -30 108 -28 149 9 185 28 27 30 34 30
103 0 62 -3 76 -20 90 -11 10 -28 33 -38 52 -14 29 -28 38 -82 57 -36 12 -78
33 -95 46 -16 13 -40 29 -52 35 -12 7 -23 22 -25 34 -4 30 -58 44 -95 25 -32
-16 -47 -13 -86 19 -15 13 -46 28 -68 34 -21 6 -56 20 -76 32 -26 16 -61 23
-124 28 -53 4 -94 12 -105 21 -11 9 -34 13 -69 11 -38 -3 -60 2 -87 18 -36 21
-36 21 -50 2 -7 -11 -43 -32 -78 -47 -74 -31 -94 -46 -110 -83 -16 -39 -78
-83 -105 -76 -17 4 -25 1 -30 -15 -3 -12 -17 -24 -29 -27 -13 -3 -29 -18 -37
-32 -7 -15 -21 -34 -32 -42 -29 -25 -51 -174 -40 -272 8 -69 7 -80 -8 -94 -10
-9 -21 -30 -24 -48 -12 -60 -29 -116 -37 -116 -4 0 -8 6 -8 14 0 23 -22 31
-35 12 -7 -9 -19 -14 -27 -11 -9 4 -17 -5 -23 -27 -15 -49 -41 -48 -55 1 -6
22 -16 42 -23 44 -8 3 -4 11 11 22 28 21 30 65 3 65 -11 0 -30 -13 -43 -28
-13 -16 -44 -43 -69 -60 -35 -24 -48 -39 -53 -65 -6 -32 -60 -97 -71 -85 -3 2
2 27 10 54 8 27 15 82 15 122 0 70 -1 73 -39 111 -21 21 -52 42 -69 45 -16 4
-38 17 -49 29 -55 61 -105 97 -133 97 -16 0 -45 8 -65 17 -34 16 -36 16 -55
-5 -12 -12 -33 -22 -49 -22 -17 0 -36 -10 -49 -25 -12 -14 -29 -25 -37 -25
-13 0 -15 -12 -13 -62 3 -60 2 -63 -21 -66 -14 -2 -42 2 -63 9 -59 19 -175 -1
-205 -36 -32 -36 -30 -73 3 -85 14 -6 24 -16 21 -23 -7 -22 -36 -19 -60 6
l-22 25 -62 -29 c-47 -22 -75 -45 -113 -90 -54 -65 -60 -90 -34 -140 8 -17 14
-40 12 -52 -4 -28 -34 -34 -42 -9 -4 11 -15 22 -26 25 -11 3 -27 21 -37 41 -9
20 -22 36 -29 36 -7 0 -17 -23 -24 -50 -13 -54 -25 -69 -43 -51 -31 31 -97
-11 -97 -61 0 -26 16 -38 51 -38 10 0 19 -7 19 -15 0 -11 -11 -15 -38 -15 -20
0 -51 -4 -69 -9 -27 -8 -35 -6 -54 15 -12 13 -30 24 -38 24 -14 0 -17 -19 -19
-132 -1 -73 -3 -146 -3 -163 -1 -16 4 -54 11 -83 8 -34 9 -60 4 -73 l-9 -20
-28 21 c-35 28 -79 19 -109 -21 -15 -20 -30 -29 -50 -29 -28 0 -28 0 -28 -68
0 -64 -2 -70 -33 -100 -47 -46 -66 -16 -30 47 17 29 17 31 -5 76 -12 25 -22
57 -22 71 0 13 -7 27 -14 30 -23 9 -76 -28 -83 -56 -20 -82 -69 -143 -174
-213 -30 -20 -67 -50 -82 -66 -25 -27 -35 -30 -78 -30 -27 1 -54 -3 -61 -8 -7
-6 -37 -13 -65 -17 -48 -6 -53 -5 -53 12 0 28 -28 48 -92 67 -68 19 -127 22
-156 6 -31 -17 -131 -12 -182 8 -53 22 -59 34 -25 49 34 16 51 15 78 -2 17
-11 49 -14 137 -11 123 4 186 -7 210 -37 16 -19 46 -23 149 -20 61 2 63 2 43
20 -29 24 -32 55 -7 60 11 3 31 8 43 13 l24 9 -24 20 c-12 11 -18 19 -11 20
16 0 35 58 21 66 -13 8 48 43 75 44 14 0 17 9 17 48 0 27 -6 56 -12 65 -31 41
-159 38 -204 -4 -18 -17 -30 -19 -69 -14 -42 7 -47 5 -52 -14 -4 -17 -13 -21
-44 -21 -32 0 -39 -4 -39 -20 0 -32 -31 -42 -57 -18 -21 20 -24 20 -41 5 -10
-10 -27 -17 -38 -17 -11 0 -24 -4 -30 -9 -18 -16 -108 -41 -150 -41 -27 0 -64
11 -102 30 -69 34 -145 41 -160 14 -5 -9 -46 -25 -98 -38 -87 -22 -92 -22
-227 -7 -114 13 -143 13 -170 2 -18 -7 -36 -13 -42 -12 -5 0 -40 3 -77 7 -64
6 -68 8 -68 32 l0 25 115 -7 c99 -6 116 -5 121 9 4 8 1 22 -6 30 -11 13 -3 15
57 15 55 0 76 4 96 20 14 11 31 20 37 20 7 0 18 7 24 15 6 9 32 17 61 20 65 5
107 15 124 29 8 6 28 15 45 21 42 14 39 36 -9 59 -35 17 -48 18 -114 8 -40 -5
-77 -15 -80 -21 -5 -8 -23 -8 -62 -1 -29 5 -88 13 -129 17 -44 5 -73 12 -70
18 3 6 16 10 30 10 14 0 47 4 73 9 53 9 58 28 11 36 l-29 6 25 7 c44 12 149 8
187 -8 43 -18 75 -19 91 -3 20 20 15 25 -60 55 -40 15 -81 36 -90 46 -21 20
-101 23 -145 6 l-28 -11 28 -10 c20 -7 37 -7 55 1 20 10 27 9 33 -1 7 -10 -8
-15 -64 -22 -52 -6 -75 -14 -85 -27 -15 -22 -44 -26 -36 -5 3 7 -2 16 -10 19
-9 4 -16 15 -16 25 0 11 -7 25 -15 32 -13 10 -19 10 -33 -4 -26 -23 -35 -20
-28 10 5 17 0 33 -14 51 -27 35 -25 43 10 43 29 0 90 24 90 36 0 2 -10 9 -22
15 -13 5 -38 21 -57 34 -19 14 -44 25 -57 25 -17 0 -25 7 -30 25 -5 21 -12 25
-48 26 -63 2 -69 0 -96 -31 -21 -24 -32 -29 -67 -28 -60 1 -55 30 10 63 11 5
25 25 29 43 9 34 32 41 67 22 10 -5 36 -10 57 -10 133 -2 177 1 196 15 23 15
25 14 -49 40 -7 2 -13 8 -13 12 0 10 79 43 102 43 28 0 78 55 78 87 0 45 -25
73 -66 73 -27 0 -44 -10 -85 -50 -28 -27 -55 -50 -60 -50 -18 0 -8 28 27 75
32 41 35 50 25 71 -9 22 -17 24 -72 24 -91 0 -137 -17 -166 -62 -27 -40 -43
-42 -43 -3 0 30 -27 40 -56 20 -29 -19 -30 -44 -4 -78 27 -34 25 -69 -5 -97
-14 -13 -25 -32 -25 -43 0 -10 -8 -32 -17 -49 -18 -29 -18 -29 -88 -23 l-70 6
-30 -48 c-16 -26 -37 -48 -45 -48 -23 0 -23 39 0 76 11 19 27 48 35 66 8 17
24 34 35 38 11 3 20 13 20 22 0 8 9 17 20 20 18 5 19 11 14 57 -6 52 -6 53 25
66 39 16 61 63 61 132 0 34 -4 50 -15 54 -14 6 -22 44 -9 44 15 0 44 -22 44
-34 0 -8 18 -16 46 -20 67 -9 71 -8 77 13 17 66 321 25 375 -51 9 -13 26 -18
57 -18 31 0 55 -8 81 -25 25 -17 50 -25 79 -25 23 0 62 -7 85 -15 31 -11 86
-15 207 -15 163 0 163 0 173 24 5 13 13 27 19 31 22 13 118 23 159 15 31 -5
45 -4 53 6 6 8 20 14 30 14 39 0 99 25 99 41 0 8 -16 23 -35 32 -30 15 -38 15
-69 2 -19 -8 -68 -18 -108 -21 -89 -8 -168 -27 -202 -49 -32 -21 -46 -12 -46
29 0 36 15 54 69 81 61 31 91 35 128 20 43 -18 75 -19 91 -3 7 7 46 13 90 15
54 2 80 8 88 18 6 8 16 15 23 15 6 0 11 9 11 19 0 20 -18 31 -50 31 -10 0 -20
7 -24 15 -8 23 -120 20 -174 -5 -39 -18 -47 -18 -80 -6 -20 8 -55 17 -76 21
-48 8 -31 25 25 25 50 0 98 18 135 50 25 22 45 28 104 34 91 8 120 22 145 68
19 35 19 37 2 56 -13 14 -16 28 -11 46 3 15 2 26 -4 26 -5 0 -12 10 -15 23 -4
12 -12 31 -20 41 -13 18 -15 18 -45 -4 -18 -13 -32 -29 -32 -36 0 -12 -59 -38
-67 -30 -3 2 2 15 10 28 8 12 18 33 21 45 7 21 4 22 -56 21 -43 -1 -83 6 -126
22 l-63 23 -24 -23 c-32 -30 -55 -20 -55 24 0 31 4 36 28 42 24 5 90 23 162
42 34 10 39 56 10 88 -36 37 -68 39 -130 5 -51 -28 -70 -31 -70 -12 0 5 20 16
45 25 25 10 52 27 59 38 14 19 18 20 46 8 38 -16 83 0 74 25 -9 21 -61 48 -69
35 -3 -6 -19 -10 -35 -10 -37 0 -108 -27 -136 -52 -25 -22 -34 -23 -34 -3 0
19 179 105 219 105 17 0 36 7 43 16 7 8 21 23 31 32 46 42 64 127 30 138 -10
3 -28 11 -40 17 -30 14 -60 -12 -69 -59 -5 -29 -11 -34 -48 -42 -24 -5 -46 -5
-53 1 -7 5 -40 6 -75 2 -56 -6 -61 -5 -43 7 11 8 39 20 62 26 39 12 67 32 44
32 -21 0 -11 31 13 40 35 13 41 30 18 46 -13 9 -21 26 -21 42 0 15 -1 34 -1
42 -1 8 0 24 2 34 2 15 -5 22 -28 29 -26 7 -41 4 -92 -22 -34 -17 -62 -35 -62
-40 0 -4 -14 -26 -31 -47 -17 -22 -44 -66 -61 -98 -28 -55 -29 -63 -21 -122 9
-59 8 -63 -13 -74 -14 -8 -24 -25 -28 -49 -11 -65 -31 -146 -39 -158 -11 -18
-27 -16 -27 2 0 8 -9 15 -19 15 -15 0 -21 -9 -25 -37 -9 -60 -10 -164 -2 -210
9 -48 -9 -91 -47 -116 -13 -8 -53 -60 -88 -116 -53 -82 -67 -99 -84 -94 -49
14 -48 25 5 72 l52 46 9 88 c7 71 6 94 -6 116 -9 18 -12 42 -8 64 3 21 -1 55
-11 83 -9 26 -16 58 -16 70 0 32 -65 87 -93 78 -32 -9 -37 -16 -44 -57 -4 -25
0 -44 11 -61 15 -24 13 -56 -4 -56 -5 0 -18 12 -30 27 -20 26 -22 26 -60 12
-21 -8 -64 -38 -95 -68 -54 -51 -56 -55 -45 -82 16 -37 -4 -71 -55 -95 -27
-13 -37 -25 -46 -57 -6 -23 -24 -57 -40 -75 -16 -18 -29 -36 -29 -40 0 -4 -20
-18 -45 -32 -43 -23 -44 -26 -39 -61 5 -31 3 -38 -15 -44 -11 -3 -29 -2 -39 4
-13 7 -35 6 -73 -4 -30 -8 -70 -15 -89 -15 -42 0 -177 -32 -211 -50 -13 -7
-33 -21 -45 -31 -11 -11 -31 -18 -44 -17 -21 3 -25 -2 -32 -42 -5 -28 -18 -55
-37 -73 -25 -25 -34 -29 -64 -23 -31 6 -35 10 -40 47 -10 77 -78 118 -98 60
-14 -41 -39 -49 -39 -12 0 15 -8 35 -18 44 -16 15 -21 15 -46 2 -15 -8 -32
-12 -37 -9 -16 9 -10 52 9 66 11 7 24 23 31 36 6 12 18 22 26 22 16 0 55 73
55 101 0 10 -4 21 -10 24 -19 11 -10 43 16 60 23 15 26 22 21 58 -4 32 -15 51
-46 79 -40 38 -40 38 -46 130 -7 104 -19 128 -69 128 -50 0 -76 11 -76 31 0
22 -36 49 -66 49 -17 0 -24 8 -29 30 -4 17 -11 30 -16 30 -5 0 -16 11 -25 25
-16 24 -16 27 1 45 15 17 16 24 7 45 -10 21 -19 25 -51 25 -36 0 -44 -5 -76
-46 -19 -26 -35 -57 -35 -70 0 -17 -11 -29 -40 -44 -24 -12 -42 -29 -45 -43
-2 -12 -8 -42 -13 -67 -9 -45 -9 -45 -20 -17 -15 36 -31 34 -73 -10 -58 -63
-73 -103 -64 -170 4 -32 10 -62 13 -68 10 -16 1 -89 -13 -105 -42 -50 -8 -145
75 -207 31 -23 50 -45 50 -58 0 -11 5 -27 10 -35 7 -12 4 -16 -18 -20 -19 -4
-28 -12 -30 -28 -3 -23 -4 -23 -23 -6 -12 11 -19 30 -19 54 0 29 -5 39 -25 48
-13 6 -33 29 -45 51 -24 47 -85 79 -168 88 -65 7 -79 23 -19 23 41 0 45 2 62
39 11 26 15 52 12 78 -17 107 -18 110 -62 142 -24 17 -52 31 -62 31 -12 0 -7
6 15 17 48 23 65 71 57 155 l-7 67 51 7 c28 4 54 11 57 15 3 5 14 9 25 9 31 0
23 42 -16 80 -19 19 -35 42 -35 52 0 12 -8 18 -24 18 -38 0 -76 18 -76 36 0
11 5 14 18 9 9 -4 34 -9 54 -12 27 -4 45 -15 68 -44 27 -34 36 -39 72 -39 37
0 47 7 117 74 42 40 87 77 101 81 52 15 110 57 141 103 27 40 32 55 31 102 -3
154 -6 168 -47 184 -6 2 -5 9 3 17 15 16 16 65 1 74 -5 4 -14 18 -19 31 -14
37 -38 30 -45 -13 -12 -74 -16 -83 -50 -118 -43 -42 -99 -72 -153 -81 -32 -5
-44 -2 -61 15 -32 32 -26 49 22 62 55 16 97 46 97 69 0 10 11 32 25 48 17 20
25 42 25 66 0 20 4 36 9 36 6 0 30 26 55 58 88 111 98 120 123 104 29 -18 63
-1 63 32 0 17 -11 30 -36 45 -48 28 -40 46 19 42 43 -2 47 0 62 31 9 18 28 42
42 54 22 19 26 32 33 116 7 88 5 161 -6 216 -5 24 -34 31 -34 7 0 -8 -11 -22
-24 -30 -15 -10 -29 -33 -35 -58 -31 -127 -37 -147 -44 -141 -4 4 -7 20 -7 35
0 21 -7 31 -27 41 -27 13 -28 16 -25 75 5 80 -3 103 -34 103 -21 0 -24 5 -24
34 0 47 9 66 31 66 37 0 99 32 124 65 17 24 37 36 63 41 20 4 54 18 74 31 23
14 53 23 77 23 31 0 43 5 51 21 7 11 10 22 8 23 -2 1 -16 8 -32 14 -26 12 -28
16 -22 51 6 38 6 38 -44 59 -32 13 -52 17 -56 10 -3 -5 -18 -8 -32 -5 -14 3
-36 -1 -47 -9 -19 -13 -24 -12 -35 1 -17 20 -29 19 -56 -7 -51 -49 -65 -58
-95 -58 -32 0 -39 -6 -134 -115 -31 -35 -46 -45 -71 -45 -22 0 -49 -14 -95
-51 -103 -82 -139 -121 -139 -151 0 -39 10 -58 30 -58 24 0 34 -41 14 -57 -10
-7 -13 -19 -9 -32 4 -13 -1 -27 -14 -40 -12 -12 -21 -34 -21 -50 0 -29 -21
-57 -33 -44 -10 10 -8 68 3 99 6 16 7 31 1 38 -5 6 -12 26 -16 44 -4 21 -16
37 -34 47 -27 13 -30 12 -60 -18 -17 -18 -31 -38 -31 -45 0 -7 -15 -12 -38
-12 -26 0 -45 -7 -57 -20 -10 -11 -29 -20 -42 -20 -13 0 -26 -7 -29 -15 -4 -8
-16 -15 -28 -15 -42 0 -66 -27 -66 -76 0 -42 3 -46 59 -90 40 -31 69 -64 87
-99 27 -51 27 -54 11 -78 -24 -37 -23 -93 3 -100 11 -3 20 -12 20 -21 0 -13
-4 -15 -19 -6 -29 15 -32 23 -35 105 -4 89 -11 100 -101 144 -34 17 -66 38
-69 46 -3 8 -16 15 -30 15 -19 0 -29 -10 -45 -44 -12 -24 -22 -59 -21 -77 1
-70 -9 -121 -26 -140 -9 -10 -22 -29 -28 -41 -6 -12 -17 -23 -23 -26 -20 -6
-5 112 22 178 13 30 26 69 29 86 10 47 62 143 106 195 22 26 47 63 57 83 17
36 85 86 117 86 29 0 50 73 24 83 -19 8 11 27 41 27 13 0 42 13 66 29 24 16
52 32 62 35 10 3 44 30 75 60 56 54 183 136 211 136 21 0 33 20 40 62 4 27 20
50 63 92 32 31 63 56 68 56 6 1 26 14 45 30 19 16 63 39 98 51 l63 21 0 46 c0
26 -6 58 -13 72 -16 32 -47 39 -47 11 0 -13 -14 -30 -38 -45 -20 -13 -43 -30
-50 -39 -7 -9 -51 -28 -98 -43 -74 -23 -90 -33 -132 -79 -27 -29 -59 -56 -73
-60 -13 -4 -31 -13 -39 -19 -48 -39 -208 -106 -252 -106 -26 0 17 29 57 39 35
9 55 24 102 76 31 35 71 70 88 77 31 12 66 38 139 101 24 20 48 37 53 37 16 0
43 35 43 57 0 11 -7 26 -16 34 -13 10 -20 10 -44 -4 -15 -9 -41 -17 -56 -17
-15 0 -35 -6 -43 -14 -9 -8 -47 -21 -86 -29 -72 -15 -181 -63 -204 -91 -8 -9
-22 -16 -32 -16 -27 0 -24 37 4 46 12 4 53 24 90 45 38 22 74 39 79 39 6 0 34
18 62 39 28 22 65 45 81 53 17 7 39 24 49 36 10 13 39 32 63 43 23 10 43 23
43 28 0 5 3 16 6 25 8 20 -21 22 -33 3 -21 -35 -93 -25 -93 13 0 22 -47 56
-93 66 -15 3 -26 11 -24 17 3 8 27 11 71 9 68 -3 96 7 96 34 0 8 -11 19 -25
24 -15 6 -32 25 -41 45 -18 43 -56 63 -110 57 -24 -2 -45 1 -48 7 -8 13 -23
14 -29 4z m563 -6553 c0 -5 -9 -14 -19 -19 -14 -8 -20 -7 -24 3 -3 8 -3 17 0
20 10 10 43 7 43 -4z"/>
<path d="M4617 8972 c-27 -16 -28 -20 -22 -62 3 -25 9 -69 12 -98 5 -45 10
-55 35 -68 19 -10 41 -13 63 -8 29 5 35 11 35 31 0 18 -8 27 -30 34 -27 10
-30 15 -30 53 0 35 4 45 25 56 15 8 25 22 25 36 0 18 -8 25 -37 33 -47 13 -42
14 -76 -7z"/>
<path d="M4545 8589 c-25 -47 -14 -63 37 -55 47 8 58 18 58 59 0 25 -3 27 -40
27 -34 0 -42 -4 -55 -31z"/>
<path d="M4340 7738 c-19 -12 -57 -30 -85 -40 -27 -11 -53 -25 -57 -31 -11
-17 -10 -116 1 -153 9 -31 114 -166 149 -190 10 -7 31 -31 47 -53 22 -32 31
-39 41 -30 11 9 14 8 14 -2 1 -32 16 -41 63 -34 37 6 46 12 51 31 4 13 24 36
46 50 22 14 42 34 45 44 3 9 19 29 35 44 17 14 30 35 30 45 0 10 9 29 19 42
19 24 19 24 -1 46 -16 17 -25 20 -45 12 -31 -12 -63 5 -63 33 0 20 -3 20 -85
13 -68 -5 -85 -4 -85 7 0 7 9 19 20 26 21 13 27 51 10 68 -8 8 -6 15 5 24 14
12 13 16 -11 42 -34 35 -91 37 -144 6z"/>
<path d="M3198 7522 c-15 -9 -44 -45 -65 -81 -21 -36 -50 -79 -65 -96 -17 -20
-37 -68 -57 -137 -39 -134 -83 -233 -110 -248 -23 -12 -30 -65 -9 -72 20 -7
23 -213 4 -278 -10 -32 -14 -68 -10 -88 7 -38 43 -67 73 -57 24 7 131 109 131
125 0 21 52 101 77 117 38 25 66 89 59 134 -7 43 4 55 48 50 28 -3 29 -2 24
41 -10 78 -23 98 -63 98 -43 0 -44 8 -4 46 28 26 31 27 40 12 6 -10 19 -18 29
-18 17 0 20 7 20 45 0 38 6 51 36 85 36 40 39 63 12 98 -17 20 -27 14 -59 -38
-33 -53 -61 -64 -79 -31 -13 25 -13 68 0 76 17 10 11 51 -10 70 -27 24 -25 48
7 96 23 34 24 42 12 54 -12 12 -18 12 -41 -3z"/>
<path d="M4263 7283 c-7 -3 -13 -17 -13 -31 0 -15 -9 -40 -20 -57 -25 -38 -25
-62 0 -70 15 -5 20 -15 20 -44 0 -44 28 -79 48 -59 7 7 12 22 12 34 0 17 9 25
34 34 27 8 38 20 46 46 11 31 10 38 -7 57 -11 12 -27 34 -36 48 -16 27 -62 49
-84 42z"/>
<path d="M3890 7237 c-32 -16 -50 -33 -63 -59 -9 -21 -21 -38 -26 -38 -5 0
-12 -18 -16 -40 -8 -48 -21 -59 -40 -34 -17 23 -28 13 -45 -38 -6 -21 -18 -38
-26 -38 -55 0 -146 -85 -182 -171 -11 -25 -32 -55 -46 -67 -15 -11 -31 -35
-38 -54 -17 -50 -28 -60 -59 -53 -22 5 -29 2 -34 -17 -4 -13 -26 -43 -49 -68
-23 -25 -57 -70 -76 -100 -29 -45 -35 -64 -35 -110 0 -30 6 -74 14 -98 11 -32
12 -57 5 -107 -11 -70 -3 -97 42 -145 34 -37 48 -108 40 -206 -3 -46 -12 -98
-20 -116 -28 -66 -36 -113 -29 -163 7 -42 12 -51 32 -53 15 -3 34 6 55 25 80
75 163 103 303 103 158 0 228 24 164 56 -32 17 -10 27 42 19 31 -5 54 -1 90
14 51 22 60 43 26 62 -12 6 -39 29 -59 50 -32 34 -43 39 -82 39 -31 0 -61 -8
-89 -25 -49 -28 -79 -32 -79 -11 0 23 98 64 170 71 57 5 70 11 103 43 30 29
37 43 37 73 0 43 -24 58 -60 39 -11 -6 -20 -8 -20 -5 0 11 22 50 40 70 10 11
21 37 24 57 7 38 7 38 -33 44 -26 4 -41 12 -44 24 -7 27 12 40 61 40 37 0 50
6 79 35 32 32 34 38 28 75 -7 40 -5 42 45 88 30 27 75 85 107 139 38 64 61 93
76 95 12 2 27 14 33 28 16 33 54 174 49 179 -3 2 -47 6 -98 9 l-94 5 -63 -43
c-52 -35 -74 -44 -126 -49 -55 -6 -70 -13 -123 -54 -37 -30 -62 -43 -66 -36
-17 27 115 124 278 205 91 46 98 51 92 74 -10 38 -22 46 -46 32 -35 -22 -36
-2 -2 28 21 19 32 39 34 62 2 28 -5 40 -50 86 -61 59 -81 63 -151 29z"/>
<path d="M4570 6365 c-16 -36 -27 -71 -24 -79 3 -7 -2 -19 -11 -26 -36 -30
-10 -58 34 -35 28 14 31 14 40 -3 10 -16 12 -16 26 3 10 12 13 30 10 47 -4 14
1 47 9 73 25 72 22 85 -19 85 -34 0 -37 -3 -65 -65z"/>
<path d="M5493 6280 c-40 -24 -41 -37 -8 -52 19 -8 31 -8 50 0 14 7 35 12 45
12 30 0 26 38 -6 50 -35 14 -44 13 -81 -10z"/>
<path d="M5495 6140 c-11 -5 -39 -9 -63 -9 -23 -1 -59 -8 -79 -16 -19 -8 -50
-15 -69 -15 -40 0 -51 -15 -29 -40 25 -28 96 -36 128 -16 13 9 51 21 83 26 70
12 91 28 75 59 -13 23 -16 24 -46 11z"/>
<path d="M5605 5505 c-30 -29 -36 -109 -9 -119 28 -11 74 -6 105 10 27 13 30
19 24 47 -7 34 -56 87 -81 87 -8 0 -26 -11 -39 -25z"/>
<path d="M5391 5170 c-30 -17 -61 -30 -69 -30 -18 0 -64 -48 -57 -60 2 -4 34
-16 70 -25 37 -10 64 -23 62 -29 -6 -17 -43 -19 -59 -3 -35 36 -124 22 -148
-23 -6 -11 -19 -20 -30 -20 -26 0 -173 -54 -202 -74 -12 -9 -30 -16 -39 -16
-21 0 -82 -77 -75 -95 3 -8 21 -17 41 -21 19 -3 38 -10 41 -16 9 -14 114 -59
164 -69 158 -31 224 -39 234 -29 5 5 27 10 47 10 45 0 69 23 42 39 -15 8 -10
10 23 11 45 0 68 18 58 44 -5 14 1 16 39 14 49 -3 63 10 29 28 -12 6 -30 22
-41 35 -16 20 -17 28 -6 42 7 9 18 17 26 17 18 1 -28 40 -47 40 -19 0 -18 24
1 40 9 7 14 19 11 27 -3 8 0 23 7 33 10 17 8 22 -11 35 -32 23 -28 38 8 30 31
-7 65 9 55 26 -3 4 9 12 27 17 l33 9 -42 21 c-61 32 -125 29 -192 -8z"/>
<path d="M5013 4448 c-53 -57 -3 -91 122 -84 41 3 79 7 84 11 5 3 0 16 -13 28
-12 12 -27 30 -32 39 -6 12 -29 19 -74 23 -60 7 -67 5 -87 -17z"/>
<path d="M425 3762 c-24 -20 -49 -87 -40 -103 5 -6 22 -8 46 -4 25 4 39 3 39
-4 0 -6 -8 -11 -19 -11 -10 0 -24 -6 -30 -13 -6 -8 -23 -12 -41 -9 -25 4 -31
0 -40 -23 -7 -20 -7 -31 1 -41 6 -8 9 -23 6 -34 -8 -33 53 -58 153 -63 52 -2
85 -8 88 -15 5 -15 49 -16 57 -1 4 6 44 9 104 8 96 -2 127 3 116 22 -15 24 32
5 74 -30 45 -38 47 -39 83 -26 31 10 38 10 42 -1 8 -21 36 -17 36 5 0 10 7 25
16 32 13 10 15 24 11 61 -4 28 -2 50 4 54 6 4 4 13 -7 25 -12 13 -24 17 -43
12 l-26 -6 23 25 c26 29 23 65 -8 93 -16 15 -19 14 -38 -9 -12 -16 -30 -26
-45 -26 -36 0 -57 -10 -57 -26 0 -8 -10 -14 -25 -14 -14 0 -25 -4 -25 -9 0
-13 -29 -41 -42 -41 -6 0 -7 12 -3 31 l7 30 -64 -7 c-99 -12 -101 -11 -108 15
-3 13 -14 29 -25 35 -11 6 -22 14 -25 17 -3 3 -27 11 -55 18 -27 8 -62 22 -77
32 -33 23 -38 23 -63 1z"/>
<path d="M6715 3469 c-26 -13 -48 -46 -40 -59 4 -6 17 -10 30 -10 12 0 25 -7
29 -15 6 -17 36 -21 36 -5 0 25 22 10 105 -71 17 -16 35 -29 41 -29 7 0 14 -9
17 -20 7 -29 33 -25 58 9 15 21 34 32 60 36 22 4 41 11 45 16 11 18 -7 49 -28
49 -12 0 -38 18 -58 40 -32 35 -43 40 -81 40 -24 1 -64 5 -89 11 -82 17 -105
19 -125 8z"/>
<path d="M6403 3063 c-7 -3 -13 -16 -13 -29 0 -20 -5 -24 -29 -24 -33 0 -41
-14 -41 -72 0 -33 7 -46 38 -77 21 -21 44 -56 51 -78 8 -24 34 -61 60 -87 41
-40 54 -47 102 -53 42 -5 60 -13 82 -36 15 -16 27 -40 27 -52 0 -37 11 -55 32
-55 10 0 33 -7 50 -16 30 -15 32 -15 45 2 16 22 17 36 2 51 -13 13 -4 33 17
33 21 0 17 19 -12 57 -16 21 -33 33 -50 33 -13 0 -23 5 -21 12 3 15 -36 26
-103 27 -63 2 -81 12 -100 61 -7 19 -19 42 -27 51 -18 21 -16 39 3 39 9 0 18
-9 21 -20 5 -18 79 -67 88 -58 2 2 -2 27 -9 56 -9 40 -20 59 -43 78 -17 13
-45 47 -62 74 -17 28 -36 50 -43 50 -6 0 -21 8 -32 19 -12 10 -27 16 -33 14z"/>
<path d="M6433 2403 c-28 -19 -29 -43 -3 -66 12 -10 20 -29 20 -47 0 -25 4
-30 25 -30 22 0 25 -4 25 -39 0 -35 3 -39 33 -46 17 -5 39 -9 47 -9 8 -1 29
-16 47 -33 19 -20 41 -33 57 -33 37 0 65 -13 126 -59 31 -24 71 -44 93 -48 20
-3 40 -10 43 -14 3 -5 16 -9 30 -9 13 0 32 -7 42 -15 9 -9 34 -29 55 -47 21
-17 44 -43 52 -57 7 -14 33 -47 57 -73 38 -41 49 -48 95 -53 44 -6 54 -4 59
10 9 23 -16 96 -40 115 -64 51 -101 89 -112 115 -18 45 -42 62 -114 82 -52 14
-73 26 -102 58 -20 23 -39 52 -43 67 -4 14 -24 42 -45 63 -42 41 -116 65 -202
65 -27 0 -48 5 -48 10 0 6 -10 10 -22 10 -33 0 -86 36 -106 70 -19 33 -36 37
-69 13z"/>
<path d="M5850 2129 c0 -49 38 -164 60 -184 11 -10 20 -26 20 -36 0 -19 25
-49 41 -49 13 0 11 43 -7 131 -14 70 -21 83 -60 124 -25 25 -47 45 -49 45 -3
0 -5 -14 -5 -31z"/>
<path d="M3613 1693 c-33 -13 1 -83 40 -83 20 0 21 15 6 59 -11 30 -20 35 -46
24z"/>
<path d="M3340 1661 c0 -11 11 -28 25 -39 34 -27 31 -43 -10 -70 -40 -25 -44
-50 -15 -77 11 -10 20 -24 20 -31 0 -13 30 -34 48 -34 5 0 17 15 26 33 17 30
17 36 2 87 -9 29 -16 66 -16 82 0 21 -8 33 -32 48 -41 25 -48 25 -48 1z"/>
<path d="M5912 1598 c-8 -31 -5 -37 40 -85 53 -58 57 -73 28 -121 -15 -24 -20
-50 -20 -97 0 -62 1 -65 24 -65 29 0 43 16 48 55 2 21 11 34 31 43 19 9 27 21
27 38 0 37 -26 91 -49 104 -12 6 -35 38 -51 72 -47 98 -64 109 -78 56z"/>
<path d="M6076 1274 c-3 -9 -6 -27 -6 -40 0 -14 -7 -27 -15 -30 -8 -3 -19 -21
-25 -40 -10 -29 -9 -39 4 -59 9 -13 16 -31 16 -40 0 -10 10 -15 31 -15 37 0
129 -29 129 -41 0 -5 13 -9 29 -9 27 0 28 2 35 62 6 58 4 64 -22 92 -16 17
-36 43 -45 59 -10 15 -23 27 -31 27 -7 0 -18 11 -24 25 -14 29 -66 36 -76 9z"/>
</g>
</svg>
