<?xml version="1.0" standalone="no"?>
<!DOCTYPE svg PUBLIC "-//W3C//DTD SVG 20010904//EN"
 "http://www.w3.org/TR/2001/REC-SVG-20010904/DTD/svg10.dtd">
<svg version="1.0" xmlns="http://www.w3.org/2000/svg"
 width="1024.000000pt" height="1024.000000pt" viewBox="0 0 1024.000000 1024.000000"
 preserveAspectRatio="xMidYMid meet">
<metadata>
Created by potrace 1.10, written by Peter Selinger 2001-2011
</metadata>
<g transform="translate(0.000000,1024.000000) scale(0.100000,-0.100000)"
fill="#000000" stroke="none">
<path d="M4123 10228 c-13 -6 -25 -20 -29 -30 -3 -11 -18 -34 -33 -51 -15 -18
-47 -65 -71 -104 -39 -64 -49 -74 -80 -79 -19 -3 -53 -12 -75 -20 -23 -8 -53
-14 -68 -14 -25 0 -27 -3 -27 -37 -1 -36 -16 -54 -269 -318 l-269 -280 -218
-40 -217 -40 -59 -106 -58 -105 -22 -195 -22 -194 56 -105 56 -105 7 -148 7
-148 -58 -87 c-55 -83 -57 -90 -61 -162 -4 -57 -13 -95 -40 -160 l-36 -85 11
-273 12 -274 -41 -59 c-22 -33 -76 -133 -120 -222 -44 -89 -92 -174 -107 -189
-20 -19 -1817 -972 -2238 -1186 l-42 -21 45 -178 c24 -98 84 -334 133 -524 50
-191 90 -353 90 -362 0 -10 -15 -17 -45 -21 -34 -6 -45 -12 -45 -26 0 -18 38
-212 43 -216 1 -1 52 8 113 20 l111 23 27 -54 c14 -29 26 -57 26 -62 0 -5 -32
-37 -71 -70 -43 -37 -65 -63 -57 -66 7 -2 292 -65 633 -138 l621 -134 508
-366 508 -365 340 -163 340 -164 312 -293 c261 -247 395 -363 836 -721 411
-335 1587 -1287 1647 -1333 15 -12 433 -56 1178 -124 l620 -56 40 20 c22 12
65 32 95 45 68 30 187 157 245 262 22 39 52 82 68 97 16 15 43 65 63 113 19
47 54 118 79 157 26 42 45 85 45 101 0 16 9 41 19 56 10 14 34 69 52 121 32
92 111 248 133 262 6 4 33 12 61 19 27 6 62 22 76 36 26 24 26 24 225 21 l199
-3 137 -54 137 -54 32 28 c30 24 39 27 94 23 46 -3 74 -12 120 -38 110 -64
264 -95 340 -70 34 11 36 13 21 29 -9 9 -40 20 -68 26 l-51 10 -24 70 c-14 39
-25 92 -25 120 0 47 -4 53 -71 127 -61 68 -74 78 -104 78 -53 0 -70 14 -78 66
-10 66 -13 72 -48 79 -18 4 -51 16 -74 27 l-43 20 0 137 c0 76 -3 220 -7 321
l-6 183 -172 -5 -172 -5 -7 60 c-3 33 -6 151 -6 262 l0 202 75 223 c42 123 73
231 70 241 -3 10 -21 31 -40 48 -19 17 -35 37 -35 45 0 9 -9 20 -21 26 -11 6
-36 37 -56 68 -20 31 -51 75 -70 97 -18 22 -45 55 -60 73 -16 19 -40 38 -55
44 -23 8 -28 16 -28 42 0 18 4 36 9 41 6 6 -14 39 -53 87 -46 55 -65 87 -70
117 -7 49 -58 111 -90 111 -12 0 -31 6 -42 14 -17 13 -21 12 -39 -3 -11 -10
-40 -21 -65 -24 -42 -5 -49 -2 -135 57 -87 61 -172 142 -209 197 -9 15 -30 29
-46 33 -17 3 -59 30 -95 60 -35 31 -84 65 -107 77 -23 12 -67 40 -96 63 -29
22 -66 50 -81 62 -36 26 -150 47 -260 48 -104 1 -118 14 -84 76 l21 40 -36 30
c-20 16 -41 30 -46 30 -4 0 -3 7 4 15 7 8 22 15 35 15 12 0 39 15 60 34 39 33
39 33 22 59 -9 15 -17 38 -17 51 0 15 -8 30 -19 35 -38 21 -101 112 -101 146
0 41 -76 139 -100 129 -8 -4 -30 -9 -47 -12 -41 -5 -45 18 -9 52 24 21 24 24
11 62 -12 36 -17 40 -57 45 -34 5 -49 2 -71 -14 -31 -21 -43 -16 -49 23 -2 16
-21 38 -55 64 -39 29 -53 45 -53 64 0 14 -15 43 -34 66 -18 23 -43 61 -56 86
-43 85 -58 100 -99 100 -23 0 -44 6 -52 16 -12 14 -10 19 13 38 16 13 28 36
33 61 9 54 28 86 65 113 25 19 30 29 26 47 -3 13 1 39 9 59 18 42 19 68 4 118
-9 34 -14 39 -50 44 -34 6 -43 13 -59 45 -29 56 -27 97 5 105 33 8 55 51 55
108 0 54 11 63 48 38 20 -15 44 -20 96 -20 l68 -1 -4 48 c-3 32 -17 69 -41
107 l-35 58 19 38 c10 20 19 43 19 50 0 7 18 21 40 30 38 16 40 18 40 62 0 25
2 46 4 46 2 0 23 -7 47 -15 57 -21 61 -15 64 95 0 40 7 65 25 92 14 20 29 37
33 38 4 0 25 -11 45 -25 l36 -25 26 25 c14 14 37 25 51 25 56 0 64 8 60 56 -2
25 2 51 8 57 27 27 -2 87 -43 87 -14 0 -17 5 -12 23 3 12 9 41 12 64 6 39 4
43 -20 55 -15 6 -37 30 -48 52 -11 23 -33 59 -48 81 -16 24 -29 59 -32 87 -5
42 -3 47 16 50 18 3 21 9 18 48 -1 25 0 56 3 68 5 22 9 23 55 17 43 -6 50 -4
60 14 9 17 20 21 64 21 57 0 70 9 100 67 24 47 21 83 -6 83 -12 0 -31 -9 -43
-20 -27 -25 -87 -18 -101 13 -5 11 -21 29 -35 40 -24 17 -28 18 -64 2 -22 -9
-51 -13 -66 -10 -19 4 -28 1 -32 -10 -4 -10 -17 -15 -36 -13 -16 1 -36 -4 -45
-11 -9 -8 -26 -10 -45 -6 -17 3 -32 2 -36 -4 -3 -6 -16 -11 -29 -11 -16 0 -28
12 -44 46 -32 65 -76 117 -141 166 l-55 41 -80 -11 c-72 -10 -136 -8 -136 5 0
2 9 21 20 43 25 48 25 58 0 90 -14 18 -20 41 -20 80 0 53 -2 56 -31 67 -27 11
-29 14 -19 34 9 16 9 31 2 58 -6 20 -13 51 -16 69 -8 45 -38 83 -57 71 -17
-11 -79 -12 -95 -1 -14 8 -104 141 -104 152 0 4 13 27 30 51 37 54 37 78 4
140 -28 51 -66 75 -152 98 -34 10 -42 16 -42 36 0 13 11 37 25 53 38 45 46 76
28 102 -11 16 -14 34 -9 67 7 50 -9 72 -49 73 -13 0 -30 16 -48 47 -24 39 -27
50 -18 70 6 13 11 26 11 28 0 3 -38 5 -85 5 -75 0 -93 -4 -143 -29 -32 -16
-75 -48 -95 -70 -33 -36 -42 -41 -82 -41 -45 0 -45 0 -45 -34 0 -49 -9 -66
-34 -66 -31 1 -49 18 -86 83 -29 51 -31 61 -21 84 7 14 23 34 36 45 30 23 32
60 9 118 -13 33 -27 46 -67 67 -43 22 -60 25 -112 20 -59 -4 -64 -7 -110 -56
-54 -57 -108 -81 -143 -62 -11 6 -57 11 -102 11 -55 0 -91 5 -112 16 -18 10
-45 14 -67 11 -41 -5 -118 29 -164 71 -24 23 -31 25 -57 15 -25 -10 -34 -7
-67 17 -42 30 -145 58 -151 40 -2 -5 -15 -10 -29 -10 -14 0 -47 -8 -73 -17
-46 -16 -51 -16 -104 0 -31 10 -56 22 -56 28 0 12 -49 10 -77 -3z"/>
</g>
</svg>
