<?xml version="1.0" standalone="no"?>
<!DOCTYPE svg PUBLIC "-//W3C//DTD SVG 20010904//EN"
 "http://www.w3.org/TR/2001/REC-SVG-20010904/DTD/svg10.dtd">
<svg version="1.0" xmlns="http://www.w3.org/2000/svg"
 width="1024.000000pt" height="1024.000000pt" viewBox="0 0 1024.000000 1024.000000"
 preserveAspectRatio="xMidYMid meet">
<metadata>
Created by potrace 1.10, written by Peter Selinger 2001-2011
</metadata>
<g transform="translate(0.000000,1024.000000) scale(0.100000,-0.100000)"
fill="#000000" stroke="none">
<path d="M5087 10226 c-3 -8 -20 -22 -38 -31 -27 -14 -38 -15 -73 -5 -94 26
-173 -11 -94 -44 40 -17 69 -48 96 -102 12 -23 37 -54 57 -70 36 -29 36 -30
22 -63 -13 -30 -12 -40 4 -95 25 -82 19 -100 -32 -93 -52 7 -58 -3 -106 -182
l-38 -143 -190 -204 c-114 -123 -229 -236 -289 -283 l-99 -79 -361 -121 -361
-122 -52 -67 c-28 -37 -68 -88 -88 -114 -32 -41 -35 -49 -25 -68 10 -19 9 -26
-8 -42 -20 -20 -20 -20 -43 11 -27 36 -56 40 -68 9 -4 -13 -11 -59 -14 -103
-6 -76 -8 -82 -44 -115 -34 -32 -39 -41 -44 -100 -3 -36 -15 -87 -27 -115 -11
-27 -24 -81 -29 -120 -7 -65 -10 -71 -43 -92 -84 -53 -92 -63 -85 -103 6 -34
4 -38 -20 -44 -22 -6 -36 -25 -60 -83 -1 -2 -35 4 -76 13 -98 20 -137 56 -174
163 -20 57 -36 84 -63 107 -33 28 -40 30 -71 22 -28 -8 -41 -6 -71 11 -21 12
-46 21 -56 21 -11 0 -39 16 -63 35 l-45 36 -51 -51 c-44 -44 -56 -50 -92 -50
-61 0 -70 22 -31 77 33 45 32 71 -1 80 -14 3 -22 17 -26 44 -11 63 12 79 79
53 10 -4 16 -1 16 9 0 9 15 20 34 27 l35 11 -6 87 c-3 48 -12 96 -19 107 -8
11 -14 28 -14 39 0 11 -9 30 -21 42 l-21 22 -29 -32 c-16 -18 -50 -41 -76 -51
-119 -45 -208 -117 -217 -175 -5 -34 -10 -38 -41 -44 -28 -6 -35 -11 -35 -31
0 -17 -20 -40 -75 -85 -74 -60 -75 -62 -75 -108 0 -26 -7 -72 -15 -102 -8 -30
-15 -66 -15 -79 0 -24 41 -82 109 -154 l36 -38 -22 -42 c-44 -85 -42 -95 34
-168 37 -36 80 -73 94 -83 48 -30 44 -156 -5 -188 -17 -12 -91 -9 -103 3 -24
24 -52 -85 -33 -130 9 -24 30 -40 150 -117 19 -13 60 -26 90 -30 30 -3 68 -16
85 -28 17 -11 84 -48 149 -81 130 -65 178 -105 206 -169 10 -22 32 -54 50 -71
48 -45 146 -185 160 -230 7 -22 30 -59 51 -83 23 -27 40 -58 44 -82 7 -40 107
-179 129 -180 13 -1 139 -193 166 -253 10 -23 36 -56 58 -74 43 -35 59 -81 41
-115 -9 -16 -5 -29 23 -71 37 -56 58 -107 58 -142 0 -16 9 -26 30 -35 17 -7
30 -17 30 -22 0 -5 11 -20 24 -33 17 -17 30 -52 46 -120 19 -84 26 -98 54
-120 31 -23 34 -31 39 -97 5 -57 13 -82 40 -127 19 -31 41 -76 48 -101 13 -45
69 -128 140 -206 58 -65 111 -184 120 -273 4 -42 8 -77 8 -78 1 -1 22 -14 49
-30 92 -53 111 -75 171 -199 31 -66 65 -149 75 -186 l18 -68 84 -57 c80 -54
84 -58 84 -94 0 -29 12 -55 56 -118 30 -45 64 -85 74 -91 12 -6 20 -26 25 -60
4 -32 17 -62 36 -86 16 -20 29 -43 29 -51 0 -8 20 -36 45 -62 25 -27 52 -69
61 -94 14 -42 14 -51 0 -101 -9 -30 -16 -66 -16 -81 0 -24 -3 -27 -25 -23 -35
7 -48 -36 -17 -58 14 -10 23 -30 27 -68 6 -48 11 -57 44 -78 26 -17 36 -30 36
-50 0 -19 12 -37 44 -64 45 -39 80 -101 81 -141 0 -13 6 -23 14 -23 7 0 36
-18 64 -40 28 -22 67 -47 89 -56 51 -21 90 -59 119 -116 14 -27 37 -54 53 -63
22 -11 28 -20 24 -35 -3 -11 -1 -20 4 -20 6 0 35 -25 67 -55 31 -30 80 -67
109 -81 28 -15 78 -44 110 -65 32 -22 70 -42 85 -45 15 -4 45 -23 67 -44 47
-44 95 -64 132 -57 23 4 41 -7 123 -83 l95 -88 75 -11 c115 -18 150 -30 210
-72 31 -21 63 -39 71 -39 9 0 26 -11 39 -25 13 -14 31 -25 41 -25 9 0 54 -16
99 -35 45 -19 91 -35 103 -35 28 0 106 -24 145 -44 19 -10 33 -26 37 -45 4
-20 14 -31 31 -35 14 -4 48 -25 76 -46 27 -22 58 -40 68 -40 11 0 33 -18 50
-39 20 -25 43 -41 63 -45 18 -3 60 -20 94 -38 56 -28 66 -37 93 -91 16 -33 30
-75 30 -93 0 -26 7 -38 38 -60 21 -15 50 -44 65 -65 22 -30 35 -38 73 -44 41
-6 56 -16 118 -77 39 -39 103 -91 141 -116 61 -40 78 -46 135 -50 48 -3 81 2
130 18 83 28 110 48 139 104 l23 45 -21 78 c-19 70 -19 79 -5 100 12 19 23 23
53 22 28 -2 47 4 73 24 31 24 37 35 43 83 6 48 4 58 -12 69 -48 35 -51 39 -42
70 6 21 22 38 58 57 26 15 57 40 66 55 10 16 40 53 67 84 26 30 48 62 48 70 0
8 21 25 46 38 44 24 45 26 39 61 -7 39 6 56 83 117 l24 18 -45 33 c-35 25 -56
32 -90 32 -29 0 -52 6 -64 18 -21 18 -87 216 -97 287 -7 55 38 151 88 190 47
36 50 77 7 99 -16 9 -43 33 -60 54 -26 34 -29 43 -22 73 5 19 12 46 15 61 4
18 14 28 29 30 18 2 23 10 25 41 2 26 10 42 27 53 13 8 26 26 29 39 3 13 24
38 46 55 33 26 40 38 40 66 0 30 5 36 38 51 20 10 38 18 40 19 6 3 -32 81 -55
111 -17 22 -27 53 -34 100 -11 92 -12 88 14 120 21 26 22 35 19 161 -2 72 -8
132 -13 132 -5 0 -86 -34 -180 -76 l-172 -76 -126 65 c-138 71 -297 127 -363
127 l-41 0 23 -24 23 -25 -27 -7 c-55 -13 -260 21 -300 50 -17 13 -53 29 -81
36 -27 7 -68 23 -90 35 -25 14 -66 25 -108 28 -108 10 -161 61 -150 145 8 58
-18 111 -73 153 -24 18 -47 42 -50 53 -9 28 -53 86 -65 86 -20 0 -70 42 -80
66 -5 16 -4 53 3 102 10 65 18 87 55 139 36 51 43 70 42 101 -2 29 5 49 30 86
33 47 33 48 18 92 -16 50 -14 51 54 27 73 -26 146 -8 248 62 54 38 89 55 110
55 72 0 174 80 247 192 36 56 44 77 44 114 0 42 4 49 53 94 47 43 56 58 76
125 14 48 19 88 16 108 -5 25 -2 37 14 51 23 21 19 36 -10 36 -28 0 -190 -111
-231 -159 -19 -23 -40 -41 -45 -41 -6 0 -39 -19 -73 -42 -34 -22 -81 -45 -104
-50 -22 -5 -132 -12 -243 -15 l-203 -6 0 60 c0 46 -4 64 -19 77 -10 10 -24 37
-30 62 -13 51 -41 84 -72 84 -12 0 -37 9 -55 21 -28 17 -61 22 -196 30 -90 6
-166 14 -170 17 -4 4 7 25 23 47 62 86 69 100 69 145 0 38 -8 57 -51 118 -28
39 -58 72 -67 72 -28 0 -72 51 -72 83 0 23 -13 42 -59 86 -49 47 -61 66 -76
119 -15 50 -26 69 -56 93 -46 37 -58 75 -30 102 16 16 17 24 9 43 -7 14 -20
24 -32 24 -13 0 -43 21 -71 50 -38 39 -46 53 -37 62 7 7 12 24 12 39 0 34 19
54 66 69 53 18 65 66 28 111 -12 13 -10 27 12 91 21 64 32 82 73 116 71 60
142 102 172 102 29 0 73 30 91 63 6 12 10 49 9 82 -1 52 -5 64 -29 86 l-28 25
18 40 c10 21 18 46 18 55 0 9 25 38 55 63 68 59 86 108 62 173 -16 42 -15 43
9 72 19 23 24 40 24 84 0 62 2 65 85 98 33 13 69 33 80 45 11 12 36 27 55 34
48 18 58 27 65 61 4 19 13 29 25 29 32 0 129 40 142 59 7 9 40 34 73 54 55 34
67 37 135 37 41 0 97 7 124 15 27 8 62 15 77 15 16 0 32 7 38 17 8 15 15 16
63 6 42 -9 58 -8 80 3 15 8 37 14 50 14 17 0 29 11 43 37 43 80 49 84 134 84
42 -1 85 -1 96 0 46 0 85 -14 85 -31 0 -22 70 -54 98 -45 13 3 31 -1 47 -11
14 -9 27 -15 29 -13 1 2 12 20 25 41 l22 36 -55 31 c-62 36 -71 45 -80 86 -4
16 -22 45 -39 65 -18 19 -40 45 -49 58 l-16 24 -40 -25 c-45 -29 -102 -28
-140 3 l-23 19 186 288 c179 279 185 288 163 298 -31 13 -68 46 -68 59 0 6
-45 28 -101 49 -72 28 -114 51 -150 83 -86 76 -93 79 -132 56 -18 -12 -81 -31
-141 -43 -100 -20 -110 -20 -118 -5 -5 9 -17 16 -27 16 -10 0 -29 8 -42 19
-13 10 -48 29 -77 41 -63 27 -61 28 -185 -69 -75 -58 -96 -70 -135 -73 -26 -3
-57 -1 -70 4 -34 12 -137 10 -166 -3 -19 -9 -29 -9 -39 -1 -9 8 -23 7 -52 -3
-22 -8 -47 -14 -55 -14 -8 0 -44 26 -80 58 -62 56 -64 60 -52 85 18 41 14 118
-10 181 -20 53 -23 56 -49 50 -40 -9 -91 3 -124 29 -26 21 -28 29 -30 92 0 46
-7 77 -18 95 -23 35 -95 85 -135 94 -18 3 -37 15 -42 26 -6 10 -17 19 -25 19
-8 0 -32 16 -54 35 -28 26 -47 35 -74 35 -28 0 -40 7 -62 36 -18 23 -26 43
-22 60 3 15 -4 35 -19 56 -13 17 -24 38 -24 46 0 23 -42 91 -60 97 -8 3 -23
18 -32 33 -10 17 -32 34 -56 41 -29 10 -43 23 -61 57 -22 40 -27 44 -62 44
-29 0 -42 6 -56 26 -10 14 -46 37 -78 50 -85 36 -92 37 -98 20z"/>
</g>
</svg>
