<?xml version="1.0" standalone="no"?>
<!DOCTYPE svg PUBLIC "-//W3C//DTD SVG 20010904//EN"
 "http://www.w3.org/TR/2001/REC-SVG-20010904/DTD/svg10.dtd">
<svg version="1.0" xmlns="http://www.w3.org/2000/svg"
 width="1024.000000pt" height="1024.000000pt" viewBox="0 0 1024.000000 1024.000000"
 preserveAspectRatio="xMidYMid meet">
<metadata>
Created by potrace 1.10, written by Peter Selinger 2001-2011
</metadata>
<g transform="translate(0.000000,1024.000000) scale(0.100000,-0.100000)"
fill="#000000" stroke="none">
<path d="M3076 10213 l-49 -28 -3 -84 c-2 -47 -8 -89 -14 -95 -7 -7 -89 -10
-245 -9 -254 3 -264 4 -331 62 -17 16 -54 32 -87 40 -55 12 -58 12 -114 -19
-32 -17 -79 -46 -104 -64 -41 -31 -47 -40 -59 -96 -10 -48 -19 -65 -39 -77
-159 -96 -159 -97 -216 -216 -36 -73 -56 -130 -61 -166 -3 -31 -17 -81 -31
-112 l-24 -55 -67 -17 c-37 -9 -108 -19 -159 -22 l-92 -6 -16 37 c-8 20 -44
76 -80 124 -60 80 -74 93 -187 163 -68 42 -129 80 -136 85 -11 7 -11 21 -2 73
l12 64 -65 60 c-86 78 -155 169 -167 219 -15 59 -38 120 -54 141 -13 18 -17
18 -97 2 -46 -10 -123 -17 -171 -17 l-86 0 -86 -72 c-55 -46 -84 -78 -82 -88
3 -8 12 -50 22 -92 17 -76 17 -77 -3 -95 -18 -16 -19 -26 -13 -103 5 -63 3
-95 -8 -123 -10 -26 -11 -41 -4 -50 17 -20 18 -138 2 -176 l-14 -34 53 -47
c30 -26 49 -50 44 -53 -6 -4 -23 -51 -38 -106 l-28 -99 -89 -7 c-103 -8 -100
2 -37 -134 21 -46 39 -85 39 -87 0 -2 -20 -4 -45 -4 -25 0 -45 -3 -45 -6 0 -3
14 -39 31 -80 22 -53 30 -84 25 -105 -4 -20 1 -43 14 -70 18 -34 19 -42 6 -62
-7 -12 -16 -45 -19 -73 -5 -48 -2 -57 56 -164 50 -90 69 -116 99 -133 l38 -21
49 24 c49 23 53 23 173 11 184 -18 166 -9 222 -114 69 -129 148 -239 216 -299
56 -49 59 -54 81 -138 20 -81 25 -89 61 -111 43 -26 43 -30 12 -111 l-18 -48
29 -30 c31 -33 31 -32 -11 -143 l-18 -47 82 -80 c45 -43 82 -86 82 -95 0 -9
-11 -36 -25 -59 -33 -57 -23 -93 27 -98 l33 -3 10 -100 c6 -59 7 -110 2 -125
-6 -16 -4 -80 6 -171 l15 -146 169 -231 168 -231 61 -1 c35 0 68 6 79 14 10 7
26 12 34 10 9 -2 32 -6 52 -9 37 -5 37 -6 49 -73 6 -37 26 -95 42 -129 34 -66
46 -73 133 -73 79 0 105 -10 106 -39 0 -14 17 -73 37 -131 l37 -105 51 -8 c48
-8 51 -10 60 -45 l9 -37 79 -12 c74 -11 82 -15 126 -58 l47 -46 6 -128 c4 -70
10 -148 13 -174 l7 -46 202 -140 202 -140 70 -151 70 -152 282 -259 283 -259
53 0 c30 0 56 4 60 9 3 5 25 17 49 26 37 14 52 15 98 6 48 -10 58 -17 96 -66
l43 -55 -42 -50 c-41 -48 -41 -50 -25 -75 12 -19 25 -25 51 -25 30 0 35 -3 35
-23 0 -12 -23 -50 -51 -85 -50 -61 -51 -63 -35 -87 12 -18 25 -25 50 -25 l34
0 36 -192 c20 -106 39 -205 42 -219 3 -15 16 -41 29 -59 l24 -33 23 48 23 47
60 -6 c54 -5 63 -10 91 -43 28 -34 33 -48 43 -143 7 -58 15 -119 18 -136 l5
-32 91 -7 90 -7 227 -193 c218 -186 227 -195 245 -249 10 -30 16 -58 13 -61
-3 -3 -50 -22 -104 -41 -93 -33 -102 -35 -153 -25 -30 6 -56 9 -58 7 -2 -2 47
-33 109 -70 l112 -68 61 15 c59 14 113 8 101 -12 -3 -5 -66 -30 -140 -56 -129
-45 -136 -47 -187 -36 -28 6 -54 10 -56 8 -2 -2 47 -34 109 -71 l112 -68 61
15 c60 15 60 15 155 -19 l95 -34 90 25 c50 14 93 25 97 25 14 0 79 -123 95
-180 12 -43 30 -75 70 -122 88 -102 100 -114 194 -193 89 -75 90 -75 148 -75
l58 0 239 -184 c233 -180 240 -186 293 -270 30 -47 59 -86 65 -86 5 0 58 12
117 26 l108 25 125 -81 126 -82 144 63 c140 60 144 63 135 86 -5 13 -9 39 -9
58 0 33 1 34 55 45 30 6 55 14 55 17 0 3 -12 48 -26 100 -26 98 -25 112 14
113 16 0 17 -9 -31 176 l-42 162 -100 112 c-56 63 -103 124 -106 140 -5 25 -1
32 37 60 24 17 45 34 48 39 3 4 -5 45 -18 92 l-23 84 24 30 c13 17 63 79 111
140 l88 110 69 18 c39 10 87 23 107 28 l38 10 -1 167 c-1 140 2 174 17 205 14
29 15 43 7 70 -10 33 -7 38 58 128 l68 94 1 115 1 115 154 142 c85 79 169 150
188 159 34 16 35 16 104 -25 l70 -42 13 -75 12 -76 82 -38 c68 -31 96 -38 157
-40 141 -6 135 -8 148 60 11 56 10 62 -14 110 -19 37 -22 50 -11 50 8 0 18 21
25 59 l12 60 -49 98 c-36 72 -51 114 -55 159 -6 55 -49 194 -68 219 -4 6 -55
26 -113 45 l-106 34 0 37 0 36 85 18 c47 10 88 16 91 12 3 -3 8 -33 11 -66 3
-34 9 -61 12 -61 3 1 35 7 71 15 36 8 87 14 115 15 41 0 53 4 71 27 l21 27 89
-10 c71 -8 103 -7 158 5 l68 15 -7 35 c-21 115 -23 104 45 168 73 68 80 72 80
43 0 -24 3 -24 97 15 32 13 59 22 60 21 1 -1 -1 -42 -5 -90 l-8 -89 30 -18
c39 -24 53 -24 61 -1 3 9 25 38 48 63 38 42 50 48 116 63 77 17 141 49 141 70
0 7 -7 35 -15 62 -19 63 -19 99 1 129 12 19 14 40 10 97 -7 92 -7 107 0 191 5
58 2 77 -21 136 l-27 69 -64 12 -63 12 -6 57 c-3 31 -11 85 -18 121 l-12 65
-113 40 c-131 46 -121 35 -223 260 -65 142 -69 171 -17 132 18 -14 49 -28 68
-32 19 -3 110 -24 203 -47 166 -40 168 -40 252 -28 97 14 91 4 75 129 -7 55
-7 77 2 82 6 4 55 10 110 14 54 4 101 11 104 16 3 5 2 50 -2 101 l-7 91 -111
-6 c-135 -7 -122 8 16 18 54 4 101 11 104 16 3 5 2 51 -2 101 l-7 91 -121 -7
-122 -6 -94 87 c-52 47 -95 93 -94 102 0 9 3 40 7 69 l6 52 -76 0 -75 0 -97
89 -96 89 -19 104 c-17 99 -20 106 -50 124 -60 36 -197 74 -268 74 l-66 0 -75
63 c-101 83 -112 130 -43 178 30 20 35 30 45 93 8 48 9 89 2 126 -6 36 -5 73
2 109 9 45 14 55 38 63 18 6 38 27 54 55 l25 45 -30 38 -30 38 57 8 57 9 19
70 c16 59 25 75 53 94 l34 24 0 115 0 116 36 37 c34 35 37 44 47 129 8 67 8
97 0 110 -18 28 3 161 29 181 12 10 25 38 33 78 11 54 11 70 -1 105 -13 36
-13 51 0 109 13 64 12 71 -9 140 l-23 72 -109 41 c-59 22 -123 48 -140 57 -44
23 -114 15 -273 -33 -69 -21 -154 -46 -190 -56 -47 -12 -92 -36 -160 -84 -52
-36 -100 -69 -107 -73 -7 -4 -43 -11 -80 -16 l-68 -8 -68 64 c-75 70 -99 83
-156 83 -20 0 -44 6 -53 13 -42 34 -65 107 -33 107 8 0 19 17 27 41 11 39 10
45 -16 94 -23 42 -27 59 -22 89 4 21 4 51 1 68 l-7 30 -88 -6 -88 -7 8 36 c7
30 5 37 -11 46 -31 16 -71 106 -64 141 11 48 -4 130 -29 161 l-22 28 -29 -73
c-16 -40 -35 -88 -42 -107 l-14 -34 -19 31 c-17 27 -25 31 -82 37 -57 6 -70 4
-133 -25 -68 -31 -71 -31 -130 -19 -43 9 -70 22 -100 49 -97 87 -105 90 -208
90 -90 0 -96 1 -133 31 -21 17 -76 51 -122 76 l-84 46 -39 -39 -39 -39 16 -58
c11 -45 13 -66 4 -91 -10 -31 -13 -33 -88 -44 -42 -7 -118 -12 -169 -12 -88 0
-92 1 -113 27 -14 18 -19 34 -14 48 3 11 8 36 11 56 4 33 1 38 -30 58 -32 20
-37 20 -71 6 -27 -12 -53 -14 -96 -9 -57 6 -60 5 -103 -30 -53 -43 -82 -104
-92 -193 -7 -62 -8 -63 -43 -73 -50 -14 -57 -13 -138 11 -57 17 -95 38 -178
100 -59 44 -112 90 -118 104 -13 29 -66 65 -94 65 -11 0 -69 -14 -131 -31
l-112 -31 -29 21 c-16 11 -50 26 -77 33 l-47 13 -38 -45 c-21 -25 -40 -43 -43
-40 -3 3 -21 24 -40 47 l-35 42 -29 -44 c-33 -51 -51 -48 -59 11 -10 67 -10
67 -55 37 -40 -26 -43 -26 -107 -15 -66 11 -67 12 -140 91 -89 97 -106 101
-164 39 l-40 -43 -110 2 -110 3 -102 93 c-122 112 -219 188 -260 203 -23 8
-42 7 -75 -3 -24 -7 -48 -13 -52 -13 -4 0 -20 24 -36 53 -28 51 -29 52 -78 55
-39 1 -61 -4 -99 -25z"/>
</g>
</svg>
