<?xml version="1.0" standalone="no"?>
<!DOCTYPE svg PUBLIC "-//W3C//DTD SVG 20010904//EN"
 "http://www.w3.org/TR/2001/REC-SVG-20010904/DTD/svg10.dtd">
<svg version="1.0" xmlns="http://www.w3.org/2000/svg"
 width="1024.000000pt" height="1024.000000pt" viewBox="0 0 1024.000000 1024.000000"
 preserveAspectRatio="xMidYMid meet">
<metadata>
Created by potrace 1.10, written by Peter Selinger 2001-2011
</metadata>
<g transform="translate(0.000000,1024.000000) scale(0.100000,-0.100000)"
fill="#000000" stroke="none">
<path d="M3923 10213 c-51 -26 -53 -27 -88 -10 -51 24 -82 8 -90 -47 -3 -22
-9 -54 -11 -69 -5 -23 -2 -29 15 -34 26 -7 26 -7 -6 -50 -26 -33 -29 -35 -73
-29 -25 3 -84 25 -132 48 -73 34 -88 45 -93 69 -5 24 -50 67 -60 57 -2 -2 -15
-30 -29 -62 -21 -46 -28 -82 -32 -160 l-6 -101 46 -30 c25 -16 46 -32 46 -35
0 -3 -27 -35 -59 -72 l-59 -67 -38 33 -38 33 -80 -20 c-61 -14 -100 -17 -158
-13 l-77 6 -40 -54 -40 -54 29 -71 29 -71 -59 -40 c-33 -22 -65 -43 -73 -45
-7 -3 -26 13 -43 38 -18 25 -57 59 -95 82 -63 38 -65 39 -151 36 l-88 -3 0 27
c0 24 -3 26 -22 20 -13 -3 -44 -9 -70 -12 -51 -6 -56 -1 -37 40 8 17 8 35 0
64 -10 37 -16 43 -61 59 l-50 18 0 51 c0 43 -5 56 -27 78 l-28 26 -82 -29
c-94 -33 -128 -29 -171 22 l-24 28 -79 -61 c-88 -67 -95 -85 -59 -145 l21 -33
-34 -6 c-29 -6 -41 -20 -102 -115 -65 -102 -72 -109 -108 -114 -22 -4 -53 -17
-71 -30 -23 -17 -37 -21 -56 -15 -14 4 -30 7 -37 8 -6 1 -35 -37 -64 -84 -47
-77 -59 -90 -116 -122 -62 -34 -66 -39 -104 -121 -21 -46 -39 -89 -39 -93 0
-5 9 -9 19 -9 11 0 27 -3 36 -6 14 -6 14 -8 -2 -26 -17 -20 -17 -21 20 -52 38
-32 38 -34 28 -72 -5 -21 -17 -89 -25 -149 -9 -61 -22 -128 -31 -148 -8 -20
-18 -63 -21 -95 -5 -56 -4 -59 55 -158 l60 -101 73 -14 c59 -12 81 -13 113 -3
22 7 59 13 81 13 33 1 43 5 47 21 3 12 14 20 26 20 29 0 27 -44 -4 -95 -17
-26 -25 -55 -25 -84 0 -32 -9 -59 -35 -102 -31 -49 -35 -63 -27 -90 4 -18 19
-41 33 -51 23 -17 27 -18 62 -3 51 21 58 20 47 -10 -8 -21 -4 -28 28 -54 21
-16 59 -39 85 -52 26 -13 47 -26 47 -29 0 -4 -15 -13 -33 -22 -30 -15 -35 -14
-71 4 l-38 20 -37 -35 c-23 -23 -54 -40 -83 -48 -51 -12 -53 -16 -39 -66 8
-26 6 -37 -10 -57 -11 -13 -28 -67 -39 -121 l-20 -98 32 -37 c30 -35 36 -38
68 -32 19 4 53 5 75 3 22 -3 59 -5 82 -5 42 0 42 -1 67 -61 14 -33 42 -114 62
-180 24 -77 47 -133 66 -157 l29 -37 -30 -48 -30 -48 52 -54 52 -54 -40 7
c-22 3 -66 6 -97 6 l-57 0 -16 58 c-9 31 -18 64 -21 73 -4 13 -62 39 -88 39
-3 0 -6 -21 -6 -46 0 -45 -1 -46 -26 -40 -15 4 -39 9 -54 13 -22 4 -33 16 -49
55 l-21 50 -42 -8 c-53 -10 -49 -10 -244 -1 l-162 8 -23 -48 c-21 -42 -24 -61
-22 -147 1 -55 -2 -119 -7 -142 -14 -59 3 -98 56 -135 38 -26 50 -29 87 -24
39 6 43 4 59 -23 26 -44 71 -48 101 -10 19 25 26 28 47 20 22 -8 24 -14 25
-75 0 -66 0 -66 52 -119 42 -43 50 -56 42 -71 -10 -17 -12 -16 -39 3 -21 15
-44 20 -89 20 -34 0 -61 -2 -61 -4 0 -3 4 -16 10 -30 8 -22 1 -42 -50 -139
-33 -63 -60 -119 -60 -125 0 -6 16 -20 36 -32 29 -19 34 -27 30 -49 -3 -14 -7
-46 -11 -72 -4 -36 -12 -49 -34 -62 -23 -13 -32 -32 -51 -97 -16 -57 -35 -96
-62 -131 -22 -27 -44 -49 -49 -49 -5 0 -35 20 -66 44 l-58 44 -64 -10 c-57 -9
-66 -8 -91 10 l-27 20 -51 -39 c-62 -48 -67 -74 -19 -105 27 -18 35 -32 51
-95 11 -41 21 -104 23 -140 4 -58 8 -70 34 -95 24 -23 29 -36 29 -77 0 -69 27
-104 85 -113 25 -3 45 -9 45 -13 0 -3 -12 -38 -26 -78 l-26 -72 27 -81 c29
-87 26 -99 -18 -100 -24 0 -28 -17 -19 -70 6 -36 4 -51 -11 -78 -16 -28 -18
-40 -9 -89 l10 -57 -62 -68 c-36 -39 -65 -83 -72 -105 -8 -30 -17 -39 -40 -44
-17 -3 -62 -25 -102 -48 -63 -38 -72 -47 -72 -72 0 -18 -9 -36 -22 -48 -61
-51 -77 -68 -82 -87 -6 -20 -3 -21 42 -16 l49 4 43 -66 43 -66 27 17 c16 9 32
29 37 45 l8 29 41 -35 c53 -45 63 -80 33 -112 -23 -25 -20 -54 6 -54 9 0 34 9
56 21 l41 20 44 -36 c24 -20 71 -45 104 -57 34 -11 68 -30 79 -44 26 -33 99
-32 207 3 78 25 84 26 102 10 12 -11 35 -17 64 -17 38 0 53 -7 104 -47 33 -27
70 -55 83 -63 l23 -16 -21 -70 c-22 -73 -28 -164 -12 -164 6 0 26 9 45 21 l36
21 9 -25 c5 -14 15 -54 21 -89 9 -51 19 -70 48 -101 35 -37 99 -77 122 -77 5
0 10 7 10 16 0 13 7 11 36 -11 19 -15 47 -30 62 -34 18 -5 28 -15 30 -32 2
-13 13 -34 24 -46 l21 -22 25 20 26 20 38 -37 38 -38 15 37 c14 33 18 37 43
31 39 -9 46 -19 31 -45 -9 -16 -12 -55 -10 -113 2 -88 3 -89 51 -161 l49 -72
-30 -29 -29 -29 29 -36 30 -36 -50 -37 c-27 -21 -49 -42 -49 -48 0 -5 7 -22
15 -38 15 -28 14 -30 -5 -30 -24 0 -25 -11 -3 -68 16 -44 21 -46 64 -28 13 6
18 -1 23 -34 7 -44 -7 -82 -43 -114 -21 -19 -21 -19 -21 2 0 26 4 26 -53 6
l-47 -16 1 -91 c0 -112 -17 -170 -52 -175 -13 -2 -38 -14 -55 -28 -31 -22 -31
-25 -22 -68 7 -33 6 -52 -5 -79 -14 -32 -13 -37 9 -75 l24 -40 -50 -17 -50
-17 0 -88 c0 -84 1 -88 24 -94 13 -3 26 -16 30 -28 10 -39 6 -170 -8 -241 -11
-56 -11 -70 0 -85 17 -21 18 -112 2 -163 -10 -35 -9 -42 10 -62 20 -21 21 -24
6 -46 -15 -21 -15 -24 12 -53 27 -28 32 -30 90 -25 75 6 129 29 220 95 52 38
86 55 127 63 45 9 57 16 57 30 0 13 19 28 58 48 47 24 75 30 163 36 59 4 110
10 115 14 5 3 33 34 62 67 43 51 60 63 92 68 35 5 40 10 45 39 l7 33 151 18
c93 11 166 25 187 36 19 10 54 21 77 25 31 5 51 16 70 40 26 31 34 34 123 44
129 16 137 18 142 39 4 12 31 28 84 47 43 15 252 97 464 181 378 150 388 154
540 179 460 78 524 85 1085 120 450 29 572 39 670 60 66 13 243 36 395 50 151
13 380 37 508 51 l233 27 147 -36 c163 -41 197 -46 800 -121 412 -51 426 -52
499 -38 l75 14 32 -31 c42 -41 80 -41 129 0 l37 31 93 -11 c50 -6 104 -13 119
-16 22 -3 31 2 47 28 19 31 19 33 2 107 -10 41 -28 95 -39 120 -12 25 -22 62
-22 83 0 35 1 37 33 37 49 0 60 29 35 100 -10 30 -27 118 -38 195 -12 82 -25
142 -32 147 -7 4 -38 25 -68 46 l-54 40 -58 -39 c-56 -38 -59 -39 -83 -23 -22
14 -25 23 -25 75 l0 59 -51 0 -52 0 7 124 7 125 -39 68 c-30 51 -46 98 -66
186 -28 124 -81 321 -91 337 -3 6 -17 10 -30 10 -20 0 -26 7 -35 39 -23 85
-60 244 -96 407 l-37 171 52 76 53 76 -31 75 c-17 41 -31 81 -31 88 2 36 123
215 212 313 75 82 99 115 103 143 11 66 23 92 71 152 44 57 46 61 31 78 -24
26 -22 49 18 232 27 126 35 184 35 264 l0 104 77 163 c42 90 83 168 91 173 40
24 49 44 56 126 l8 82 28 -27 28 -26 56 79 c57 82 72 92 137 92 31 0 38 5 52
35 l17 36 -39 57 -39 58 23 28 c21 26 25 27 60 17 35 -9 43 -8 84 18 l46 28
-3 94 c-2 67 -22 186 -67 409 -96 472 -80 420 -123 420 l-36 0 28 29 28 29
-21 40 c-12 23 -21 57 -21 77 0 23 -9 48 -25 69 -17 23 -25 46 -25 74 0 38 -3
43 -42 66 -24 13 -64 27 -90 31 l-46 7 -5 62 c-2 33 -6 70 -8 81 -3 16 2 21
28 23 26 3 41 16 87 77 31 41 56 78 56 82 0 5 -18 30 -40 57 -22 26 -40 50
-40 52 0 3 14 31 30 64 33 65 35 87 17 174 l-12 58 -54 -63 c-30 -35 -58 -68
-63 -74 -5 -5 -47 29 -104 85 -87 87 -104 110 -196 273 -55 97 -104 180 -109
182 -5 3 -22 -1 -40 -10 -17 -9 -33 -14 -36 -11 -3 2 -26 47 -51 98 l-47 93
-47 3 -46 3 -7 50 c-4 27 -10 49 -14 49 -4 0 -27 -20 -51 -45 -35 -35 -51 -45
-77 -45 -28 0 -33 4 -33 23 0 21 -8 24 -102 40 -57 9 -161 22 -233 27 -129 11
-130 11 -165 45 l-35 34 -25 -19 c-18 -14 -41 -20 -84 -20 -53 0 -62 -3 -105
-39 l-47 -40 -72 11 -72 10 -76 -43 c-41 -24 -94 -60 -116 -81 l-41 -38 -78
13 -78 14 -35 -36 c-23 -23 -59 -44 -98 -57 l-63 -21 -41 -104 -42 -104 -41
-3 c-34 -3 -42 -7 -47 -28 -3 -13 -8 -24 -11 -24 -18 0 -45 26 -57 54 -17 40
-55 53 -112 37 -21 -6 -38 -9 -39 -8 0 1 -8 19 -18 41 -17 37 -17 39 3 73 11
19 18 39 15 44 -4 5 -24 9 -46 9 -36 0 -39 -2 -34 -22 7 -33 -36 -64 -64 -46
-16 9 -33 8 -92 -10 l-74 -22 -17 22 c-10 13 -23 36 -29 51 -12 29 -23 30 -73
11 -14 -5 -16 4 -16 64 0 48 -4 73 -14 81 -31 26 -209 111 -232 111 -23 0 -24
3 -24 57 0 45 -5 62 -22 81 l-23 24 23 15 c12 9 22 19 22 23 0 5 -20 21 -46
37 -46 28 -49 38 -29 85 7 17 5 17 -29 3 -35 -15 -36 -15 -36 8 0 13 -9 32
-21 43 -30 27 -49 68 -49 104 0 29 -1 30 -48 30 -36 0 -54 5 -67 20 -17 18
-16 21 5 55 19 31 21 39 10 65 -14 34 -22 37 -40 15 -16 -19 -33 -19 -71 1
-28 14 -40 13 -157 -6 l-127 -22 -36 21 c-20 12 -63 60 -100 110 -78 109 -126
139 -198 122 -35 -8 -49 -6 -68 6 -22 14 -28 14 -86 -12 -39 -18 -77 -27 -103
-26 -40 2 -45 -2 -127 -89 -71 -76 -86 -98 -89 -128 l-3 -37 -53 0 -52 0 -34
-60 -33 -60 -94 0 c-131 0 -164 8 -179 45 -7 17 -23 33 -35 36 -12 3 -29 21
-38 39 l-16 34 34 11 c41 13 95 82 95 120 0 15 -7 48 -16 74 -13 38 -14 53 -5
73 13 29 9 38 -28 58 -19 9 -42 12 -66 8 -34 -5 -38 -4 -32 11 4 10 7 27 7 37
0 13 10 24 29 30 23 8 31 18 36 47 4 20 13 44 21 53 14 15 12 19 -16 39 -30
21 -31 26 -25 66 6 41 4 45 -20 54 -52 20 -71 19 -122 -7z"/>
</g>
</svg>
