<?xml version="1.0" standalone="no"?>
<!DOCTYPE svg PUBLIC "-//W3C//DTD SVG 20010904//EN"
 "http://www.w3.org/TR/2001/REC-SVG-20010904/DTD/svg10.dtd">
<svg version="1.0" xmlns="http://www.w3.org/2000/svg"
 width="1024.000000pt" height="1024.000000pt" viewBox="0 0 1024.000000 1024.000000"
 preserveAspectRatio="xMidYMid meet">
<metadata>
Created by potrace 1.10, written by Peter Selinger 2001-2011
</metadata>
<g transform="translate(0.000000,1024.000000) scale(0.100000,-0.100000)"
fill="#000000" stroke="none">
<path d="M7790 9825 l-435 -414 -305 6 -305 6 -147 114 c-80 62 -151 113 -157
113 -5 0 -56 -33 -113 -74 -101 -72 -106 -75 -263 -119 l-160 -45 -294 -7
-294 -7 -187 -116 -187 -117 -7 -84 c-3 -47 -7 -86 -9 -87 -1 -1 -39 2 -85 8
l-82 11 -31 53 -30 53 -93 -6 c-110 -7 -108 -8 -127 106 -9 54 -18 77 -34 90
-13 9 -39 42 -58 72 -19 30 -62 81 -95 113 l-61 59 -52 -47 c-59 -53 -91 -93
-109 -136 -12 -30 -19 -31 -219 -56 -39 -5 -63 -15 -87 -37 l-34 -29 -83 43
c-45 23 -145 76 -221 116 l-140 74 -112 6 -112 6 -60 -47 c-33 -26 -77 -52
-98 -58 -22 -5 -60 -25 -85 -44 -28 -20 -58 -34 -76 -34 -34 0 -73 -36 -73
-68 0 -14 -13 -28 -40 -43 -47 -27 -102 -106 -124 -179 -9 -30 -16 -57 -16
-61 0 -13 64 12 78 30 12 15 14 14 25 -4 7 -11 17 -51 22 -90 10 -69 10 -71
-24 -135 -36 -68 -76 -125 -122 -175 -20 -21 -38 -65 -62 -145 -19 -63 -46
-146 -60 -185 -43 -121 -43 -122 2 -163 137 -128 136 -127 149 -181 26 -115 5
-224 -51 -260 -25 -16 -34 -31 -48 -88 -9 -37 -33 -106 -53 -153 -25 -61 -36
-100 -36 -138 0 -42 -6 -60 -30 -94 -23 -32 -30 -51 -28 -78 l3 -35 90 -12
c50 -6 91 -12 91 -12 1 -1 5 -18 8 -38 4 -21 15 -57 24 -81 14 -34 24 -44 52
-52 19 -5 40 -10 46 -10 12 0 43 40 68 88 28 54 65 45 174 -41 53 -42 62 -54
58 -73 -5 -19 1 -27 40 -50 44 -26 48 -27 109 -16 96 18 92 20 115 -60 13 -41
31 -79 43 -89 20 -16 89 -39 116 -39 6 0 31 28 56 62 42 59 45 60 53 37 5 -13
19 -50 31 -82 12 -32 23 -85 24 -118 2 -43 9 -67 26 -90 23 -31 23 -32 6 -88
-15 -50 -15 -67 -5 -135 l12 -78 -70 -107 c-39 -62 -72 -125 -76 -147 -10 -54
-46 -106 -108 -155 -29 -22 -69 -60 -90 -84 -68 -77 -94 -88 -218 -87 l-109 0
-15 -39 c-13 -31 -27 -44 -75 -68 -36 -19 -71 -46 -92 -73 -18 -24 -58 -72
-89 -108 -31 -36 -71 -90 -88 -120 -17 -30 -74 -98 -127 -150 -75 -75 -95
-101 -95 -123 0 -40 -44 -121 -77 -142 -15 -10 -60 -49 -99 -87 l-71 -68 -68
9 c-37 5 -69 12 -72 15 -3 3 0 26 6 51 10 38 9 50 -4 68 -8 12 -15 37 -16 57
0 19 -4 44 -8 55 -6 14 -2 28 10 47 l19 26 -39 7 c-29 5 -49 1 -78 -13 -21
-10 -58 -22 -83 -25 -25 -4 -62 -11 -83 -17 -32 -10 -37 -15 -37 -41 0 -29 0
-30 -30 -14 -40 21 -45 20 -89 -21 -63 -56 -99 -121 -116 -210 -28 -136 -40
-165 -93 -211 -28 -23 -68 -46 -93 -53 -24 -6 -92 -37 -151 -68 -104 -55 -107
-57 -118 -101 -7 -27 -8 -74 -4 -122 6 -67 4 -82 -14 -111 -18 -30 -19 -41
-10 -113 5 -44 16 -87 24 -96 9 -10 14 -38 14 -77 l0 -61 -83 -94 c-81 -93
-83 -96 -115 -205 -24 -85 -32 -129 -32 -192 l0 -81 -55 6 -55 7 0 -30 c0 -23
-6 -32 -29 -42 -21 -8 -36 -27 -51 -63 -21 -49 -22 -53 -6 -102 14 -45 14 -56
1 -105 -21 -79 -20 -87 20 -100 19 -6 50 -29 69 -52 19 -22 52 -55 74 -74 39
-33 41 -34 76 -19 19 8 48 15 62 15 l27 0 -20 -22 c-16 -18 -22 -41 -26 -98
-10 -145 -80 -300 -136 -300 -16 0 -51 -17 -84 -40 -30 -22 -64 -40 -75 -40
-30 0 -105 -86 -99 -113 3 -12 9 -54 12 -92 7 -68 6 -71 -16 -81 -17 -8 -24
-20 -25 -40 0 -16 -9 -56 -18 -89 -10 -33 -21 -121 -26 -195 l-8 -135 29 -42
c16 -23 29 -44 29 -47 0 -3 -27 -6 -60 -6 l-59 0 -10 -37 c-6 -21 -11 -54 -12
-73 0 -19 -8 -60 -18 -90 -17 -53 -17 -56 2 -100 14 -32 20 -71 21 -135 2 -75
6 -97 26 -129 20 -33 22 -44 14 -75 -6 -21 -7 -50 -2 -67 5 -16 12 -60 17 -98
5 -38 15 -72 22 -77 7 -4 32 -10 57 -14 38 -6 48 -3 71 17 58 53 77 60 138 48
73 -13 68 -14 81 15 9 19 19 25 44 25 42 0 92 -57 101 -114 8 -49 57 -130 81
-134 10 -2 54 15 97 37 55 29 86 40 102 36 19 -5 28 0 42 22 27 42 77 82 103
83 39 0 79 28 91 62 29 83 46 107 81 119 19 6 47 27 63 45 15 18 36 36 47 39
11 3 42 43 69 88 37 62 51 96 56 139 l7 57 121 0 c100 -1 128 -4 160 -21 l39
-19 22 20 c27 25 69 27 146 6 30 -8 55 -15 55 -15 1 0 18 23 39 50 32 42 47
53 95 66 31 9 60 23 64 30 11 18 59 18 104 -1 31 -13 155 -15 909 -15 952 0
894 -4 862 53 -8 14 -11 52 -9 105 4 102 -9 122 -74 122 -45 0 -55 10 -55 55
0 38 46 128 85 165 20 19 42 49 50 66 7 18 25 36 44 43 38 16 38 20 5 46 -25
20 -25 20 -13 93 7 39 17 72 23 72 6 0 26 28 45 63 52 93 81 127 113 127 24 0
68 33 68 50 0 12 109 152 129 166 16 12 21 11 31 -1 7 -8 16 -15 21 -15 14 0
11 24 -12 78 -16 38 -29 53 -50 61 -24 8 -29 16 -29 41 0 49 -16 70 -54 70
l-33 0 5 58 c3 44 10 63 30 85 25 26 30 27 125 27 l99 0 -14 22 c-9 14 -28 24
-46 26 -26 3 -50 27 -39 39 3 2 30 11 61 20 55 15 57 15 79 -4 30 -28 94 -59
137 -67 32 -5 37 -3 47 21 7 16 18 36 25 45 10 14 8 21 -12 43 -36 39 0 33 55
-10 40 -30 49 -33 70 -23 35 16 35 71 0 94 -14 9 -25 22 -25 30 0 10 17 7 68
-12 81 -31 92 -39 92 -70 0 -31 15 -31 36 0 10 16 16 46 15 86 0 60 1 62 34
76 18 7 36 23 40 34 4 14 15 20 36 20 16 0 29 -4 29 -9 0 -5 -15 -32 -34 -60
-27 -40 -31 -52 -21 -61 18 -15 62 -2 68 20 5 18 64 34 73 19 7 -12 123 -9
130 3 4 6 -5 22 -20 35 -20 17 -26 29 -21 44 4 12 12 18 21 15 8 -3 21 -9 30
-12 12 -5 14 -1 8 20 -4 19 -2 27 10 32 13 5 12 9 -10 26 -36 29 -31 78 11 91
17 5 38 16 47 24 9 9 38 18 63 20 40 5 45 3 45 -14 0 -12 -7 -26 -16 -33 -8
-8 -14 -25 -12 -39 4 -38 40 -39 91 -1 l42 31 17 -22 c17 -20 17 -22 -5 -39
-13 -10 -41 -21 -63 -25 -72 -12 -74 -14 -74 -52 l0 -36 63 7 c34 4 70 15 80
23 14 14 23 14 54 5 20 -6 37 -10 37 -9 6 22 34 47 84 72 33 17 68 37 76 44
13 11 17 6 26 -30 10 -38 10 -44 -6 -56 -17 -13 -17 -15 -1 -42 9 -16 17 -36
17 -45 0 -19 22 -16 118 20 70 26 124 62 195 127 53 51 58 69 22 93 -33 21
-17 44 31 44 27 0 34 -4 34 -20 0 -11 4 -20 9 -20 20 0 41 13 41 25 0 7 10 19
22 27 20 13 21 18 9 44 -12 32 -1 84 18 84 12 0 179 98 185 109 3 5 -12 21
-33 35 l-38 27 18 37 c11 20 19 42 19 49 0 18 7 17 57 -13 39 -22 48 -24 76
-14 17 6 44 24 60 41 22 25 30 29 42 19 12 -10 11 -17 -10 -44 -15 -19 -25
-46 -25 -65 0 -26 -3 -31 -17 -27 -69 20 -71 20 -78 -17 -10 -52 -1 -60 58
-54 49 6 49 6 32 -13 -40 -44 50 -71 102 -30 33 25 59 25 75 0 8 -12 24 -20
40 -20 23 0 28 -4 28 -25 0 -14 6 -28 14 -31 8 -3 12 -12 9 -20 -6 -16 -44
-19 -59 -4 -6 6 -25 5 -52 -2 -34 -8 -40 -13 -31 -24 9 -11 7 -20 -6 -40 -10
-15 -13 -30 -8 -35 15 -15 136 -59 162 -59 14 0 39 -7 55 -15 28 -15 31 -14
56 10 14 14 33 25 42 25 17 0 33 35 43 95 3 22 11 55 18 73 10 29 14 32 43 26
21 -4 47 1 76 14 32 14 49 16 65 9 l22 -10 -29 -37 c-39 -49 -39 -70 0 -70
l30 0 -20 -40 c-11 -21 -20 -51 -20 -65 0 -24 2 -25 65 -25 64 0 65 0 65 28 1
26 1 26 15 8 8 -11 15 -39 15 -63 0 -36 3 -43 19 -43 14 0 21 10 26 32 11 48
13 49 48 28 40 -25 64 -25 72 -1 3 11 12 22 20 25 8 3 15 14 15 25 0 13 9 21
29 26 16 3 40 19 55 36 14 16 30 29 35 29 4 0 4 -26 -1 -57 -13 -83 -7 -95 24
-43 14 25 49 64 76 87 29 25 65 70 86 107 30 54 36 74 36 126 0 39 7 74 19 98
22 44 75 190 90 248 11 40 13 42 97 75 l86 34 35 70 c20 39 41 93 47 120 l11
50 48 5 c65 7 117 48 117 93 0 25 10 42 41 72 22 22 53 61 70 86 25 39 29 55
29 115 0 73 17 131 59 197 15 25 28 36 40 33 70 -21 67 -23 91 48 l22 66 45 0
c36 0 54 7 85 32 30 23 59 35 112 45 39 7 95 18 124 24 l52 10 0 55 c0 30 -7
71 -16 92 -8 20 -19 55 -24 77 -5 22 -12 50 -15 62 -7 20 0 26 56 51 69 31 98
70 100 135 2 71 10 81 74 92 57 10 60 12 73 50 8 22 27 75 43 118 28 75 29 85
29 250 0 155 2 175 20 202 27 41 25 54 -12 92 -28 29 -34 44 -43 116 -10 73
-10 86 7 119 l18 38 -30 59 c-46 92 -105 246 -146 380 -41 137 -41 137 34 183
32 20 34 23 28 64 -3 23 -19 64 -36 90 -16 26 -30 60 -30 75 0 14 -3 40 -6 56
l-6 30 -39 -21 c-46 -24 -37 -32 -101 87 -32 57 -38 78 -38 127 0 62 -43 199
-64 205 -6 2 -22 6 -36 9 -18 4 -32 19 -48 52 l-23 47 -30 -29 -31 -29 -49 55
c-28 30 -57 69 -66 85 -23 42 -43 123 -43 172 0 26 -13 71 -36 121 l-36 79
-54 12 c-48 11 -57 17 -74 51 -11 22 -20 50 -20 64 0 14 -9 48 -20 76 -11 28
-20 69 -20 92 0 28 -11 60 -35 103 l-34 62 16 51 c16 48 16 54 0 86 l-16 35
32 3 c31 3 32 5 38 58 4 30 13 80 20 110 16 63 14 139 -4 145 -7 2 -24 6 -39
9 -26 6 -28 10 -28 56 l0 50 -71 0 c-55 0 -79 -5 -105 -21 l-34 -21 -11 28
c-5 16 -15 51 -21 79 -6 27 -11 51 -12 52 -1 2 -37 -4 -80 -12 -102 -20 -104
-19 -76 10 13 14 22 26 19 28 -2 1 -20 10 -39 18 l-35 16 58 17 c31 9 57 19
57 22 0 2 -6 20 -14 39 -13 30 -19 34 -58 37 -24 2 -67 -5 -97 -14 l-53 -18 7
80 c7 79 7 80 -25 120 l-33 41 22 23 c11 12 24 42 27 67 6 42 5 45 -36 78 -34
27 -41 38 -36 57 3 13 9 34 12 47 4 20 -4 31 -50 66 -31 23 -62 43 -68 46 -7
2 -209 -182 -448 -410z"/>
<path d="M6850 3163 c-15 -4 -85 -92 -78 -98 1 -2 26 -14 53 -27 40 -18 51
-29 53 -51 3 -24 0 -27 -25 -27 -46 0 -60 -16 -25 -28 16 -5 46 -31 67 -56 33
-39 40 -43 50 -30 9 14 13 10 23 -23 11 -36 14 -39 42 -35 35 5 35 4 14 43 -9
19 -13 41 -9 60 6 25 4 29 -14 29 -29 0 -28 40 3 69 16 16 30 20 48 16 30 -8
57 20 64 67 5 29 2 37 -20 51 -25 17 -26 17 -40 -12 -22 -41 -41 -44 -77 -12
-27 25 -29 32 -20 50 11 20 10 21 -41 20 -29 -1 -60 -3 -68 -6z"/>
<path d="M7437 2877 l-29 -12 26 -28 c32 -34 71 -38 62 -4 -3 12 -6 30 -6 40
0 20 -14 21 -53 4z"/>
<path d="M7822 2812 c-9 -6 -11 -18 -6 -35 6 -26 8 -27 85 -27 69 0 80 2 93
22 15 21 15 23 -5 30 -34 13 -153 20 -167 10z"/>
<path d="M6012 2668 c-25 -9 -34 -19 -42 -48 -11 -42 -54 -105 -114 -169 l-41
-43 48 7 c37 5 54 3 74 -11 25 -16 28 -16 69 6 23 13 49 36 58 52 19 31 16 32
-32 19 -28 -9 -32 -7 -32 10 0 21 27 65 69 111 23 26 23 28 7 53 -18 28 -17
27 -64 13z"/>
<path d="M4707 2192 c-23 -25 -22 -28 22 -52 21 -12 45 -36 52 -53 12 -25 26
-35 83 -54 39 -13 80 -23 93 -23 28 0 53 -44 53 -95 0 -29 -3 -35 -22 -35 -22
0 -108 -81 -143 -133 -16 -25 -16 -28 5 -62 l22 -35 44 45 c24 25 44 55 44 66
0 19 4 20 38 14 20 -4 40 -13 44 -20 4 -7 18 -10 32 -8 17 4 26 14 30 35 10
50 7 93 -9 131 -8 20 -15 41 -15 46 0 5 22 22 50 38 49 28 49 29 34 52 -14 20
-22 22 -58 16 -63 -11 -195 -10 -207 2 -6 6 -13 28 -16 50 -5 36 -2 41 27 60
l31 20 -68 6 c-114 11 -148 9 -166 -11z"/>
</g>
</svg>
