<?xml version="1.0" standalone="no"?>
<!DOCTYPE svg PUBLIC "-//W3C//DTD SVG 20010904//EN"
 "http://www.w3.org/TR/2001/REC-SVG-20010904/DTD/svg10.dtd">
<svg version="1.0" xmlns="http://www.w3.org/2000/svg"
 width="1024.000000pt" height="1024.000000pt" viewBox="0 0 1024.000000 1024.000000"
 preserveAspectRatio="xMidYMid meet">
<metadata>
Created by potrace 1.10, written by Peter Selinger 2001-2011
</metadata>
<g transform="translate(0.000000,1024.000000) scale(0.100000,-0.100000)"
fill="#000000" stroke="none">
<path d="M5810 8981 c-63 -4 -120 -10 -126 -14 -7 -4 -43 -11 -82 -17 -39 -5
-96 -19 -127 -31 -54 -20 -56 -22 -39 -40 11 -12 30 -19 56 -19 21 0 87 -16
146 -35 69 -22 137 -37 192 -41 102 -7 242 -37 325 -69 33 -12 91 -26 128 -29
38 -4 79 -13 90 -20 14 -9 71 -16 150 -21 l128 -7 -15 29 c-18 35 -79 93 -131
125 -22 14 -105 46 -185 73 -80 26 -187 65 -239 86 -51 22 -107 38 -125 37
-17 -1 -83 -4 -146 -7z"/>
<path d="M5923 8450 c-11 -16 -20 -18 -61 -13 -41 5 -52 2 -77 -19 -26 -22
-33 -24 -68 -15 -66 17 -257 -29 -257 -62 0 -33 -14 -33 -41 0 l-27 33 -51
-12 c-28 -6 -72 -9 -98 -6 -46 5 -47 5 -23 -10 l25 -14 -27 -12 c-22 -10 -30
-9 -54 8 -22 15 -62 24 -164 36 -299 34 -303 34 -365 -24 -36 -34 -181 -133
-233 -159 -20 -10 -73 -29 -118 -41 -45 -12 -110 -39 -144 -59 l-64 -38 -39
17 c-31 14 -47 16 -74 8 -19 -5 -51 -7 -72 -3 -33 5 -39 3 -59 -25 -26 -35
-20 -54 14 -46 13 4 42 2 65 -3 39 -9 44 -8 70 20 15 16 32 29 38 29 15 0 14
-2 -11 -48 -26 -45 -78 -92 -102 -92 -10 0 -29 -6 -45 -14 -17 -9 -32 -11 -42
-5 -22 14 -23 13 -75 -63 l-49 -73 -3 -127 -4 -128 35 -41 c53 -61 167 -148
212 -161 22 -7 45 -17 50 -24 11 -12 192 -4 304 14 41 7 71 8 82 1 10 -5 38
-9 63 -9 41 0 48 3 66 33 11 17 20 42 20 54 0 40 36 38 86 -5 66 -59 254 -127
254 -93 0 6 9 20 20 31 42 42 179 20 273 -44 90 -61 123 -73 146 -52 17 15 41
22 41 11 0 -3 -6 -14 -12 -25 -11 -16 -9 -22 7 -35 11 -8 28 -13 38 -11 11 3
17 -2 17 -15 0 -22 44 -46 140 -78 36 -12 88 -35 115 -51 28 -17 57 -34 65
-39 8 -5 41 -16 72 -26 36 -11 69 -30 89 -51 18 -19 42 -34 53 -34 27 0 148
-127 176 -185 35 -72 133 -105 161 -54 11 21 49 26 49 7 0 -6 8 -4 19 6 11 10
28 16 38 14 15 -3 18 -12 15 -57 -2 -46 1 -57 28 -87 16 -19 30 -39 30 -44 0
-5 -16 -21 -35 -36 -30 -22 -38 -24 -51 -13 -8 7 -13 20 -11 30 3 11 -2 19
-15 22 -13 4 -18 13 -16 29 2 13 -1 24 -7 25 -5 1 -9 -15 -8 -35 1 -20 -1 -31
-4 -24 -2 6 -9 10 -14 6 -18 -11 -8 -32 20 -44 41 -17 45 -35 14 -81 -33 -49
-65 -59 -103 -30 -37 27 -44 27 -69 -5 -28 -36 -29 -94 -1 -94 14 0 20 -7 20
-24 0 -35 23 -49 66 -42 44 9 68 -7 53 -35 -6 -12 -6 -19 0 -19 5 0 17 -14 25
-32 15 -28 15 -34 1 -55 -13 -19 -19 -21 -35 -13 -11 6 -20 16 -21 23 0 7 -5
2 -12 -11 -8 -19 -8 -25 3 -32 8 -5 11 -12 7 -16 -3 -4 -12 -2 -19 3 -7 6 -32
13 -56 17 -39 6 -43 5 -38 -12 4 -11 0 -24 -9 -32 -8 -7 -15 -28 -15 -49 0
-20 -7 -47 -16 -60 -12 -16 -13 -26 -6 -33 8 -8 15 -3 23 15 13 29 37 35 57
15 18 -18 15 -28 -8 -28 -10 0 -36 -11 -56 -25 -23 -16 -44 -23 -56 -19 -17 5
-18 3 -9 -13 5 -11 17 -26 26 -33 9 -8 33 -46 52 -84 19 -39 43 -79 52 -90 24
-28 83 -63 129 -77 76 -22 97 -60 68 -117 -34 -65 -98 -91 -180 -73 -51 11
-63 10 -122 -9 -92 -31 -124 -60 -124 -115 0 -62 26 -89 118 -119 114 -39 193
-124 216 -233 8 -37 58 -73 99 -73 41 0 147 -66 219 -137 65 -64 80 -88 92
-145 4 -18 13 -28 24 -28 25 0 109 -101 139 -167 14 -32 34 -67 44 -78 11 -11
30 -34 44 -52 31 -38 79 -56 154 -56 36 -1 70 -8 96 -21 33 -18 43 -31 63 -84
14 -35 33 -67 45 -73 11 -6 59 -14 106 -17 72 -4 91 -9 115 -29 39 -33 90 -57
158 -77 85 -24 104 -74 44 -120 -19 -14 -46 -47 -61 -73 -29 -52 -28 -83 1
-138 9 -16 17 -47 18 -67 1 -30 -3 -38 -19 -40 -17 -3 -20 -10 -18 -45 1 -36
-3 -46 -28 -68 -40 -33 -76 -32 -125 5 -65 47 -88 53 -119 28 -15 -12 -39 -20
-53 -20 -15 1 -107 3 -205 4 l-179 3 -21 26 c-37 45 -96 52 -191 25 -92 -27
-156 -95 -182 -192 -37 -144 -101 -250 -161 -269 -13 -3 -23 -12 -23 -19 0 -7
-14 -13 -32 -13 -18 -1 -54 -2 -79 -3 -25 0 -58 4 -73 10 -16 6 -49 8 -75 4
-38 -5 -55 -1 -95 20 -38 20 -63 26 -112 26 -56 0 -66 -3 -104 -35 -40 -34
-81 -44 -106 -27 -19 12 -28 54 -13 63 7 4 11 10 9 12 -3 2 -72 20 -155 40
-144 34 -155 35 -260 27 -118 -8 -184 -22 -195 -40 -4 -6 -22 -15 -41 -20 -19
-5 -44 -12 -55 -15 -16 -5 -30 1 -53 24 -17 17 -36 31 -42 31 -5 0 -14 11 -19
25 -12 30 -45 47 -138 70 -77 18 -100 17 -172 -10 -34 -13 -60 -15 -110 -10
-36 4 -94 10 -130 13 -49 5 -78 15 -115 39 -28 17 -63 34 -80 38 -16 3 -52 12
-80 20 -63 17 -142 33 -222 45 -35 5 -81 14 -102 20 -27 7 -47 7 -66 0 -19 -7
-45 -7 -83 0 -99 18 -143 13 -213 -24 -80 -42 -218 -71 -275 -58 -27 6 -53 5
-82 -3 -38 -12 -45 -11 -67 7 -31 24 -32 57 -4 92 25 31 18 44 -27 49 -16 2
-35 6 -41 10 -7 4 -15 2 -19 -4 -5 -8 -8 -8 -14 0 -5 9 -14 9 -35 1 -20 -7
-31 -7 -41 1 -7 6 -18 7 -25 3 -7 -4 -10 -2 -7 7 3 8 18 14 34 14 16 0 48 6
71 13 43 13 66 32 39 32 -9 0 -16 5 -16 10 0 17 43 11 78 -10 35 -22 72 -26
88 -10 6 6 37 5 89 -4 44 -8 88 -10 100 -6 23 9 95 84 95 100 0 31 -198 17
-288 -21 -47 -20 -58 -21 -109 -10 -84 17 -104 14 -159 -21 -42 -28 -46 -33
-26 -36 12 -2 22 -7 22 -11 0 -11 -150 -62 -161 -55 -6 3 -16 1 -23 -5 -20
-17 -59 -9 -79 17 -23 28 -179 104 -191 92 -5 -5 -17 -4 -26 3 -13 8 -42 8
-99 1 -74 -9 -81 -8 -81 8 0 11 -8 18 -20 18 -11 0 -20 7 -20 15 0 9 -6 12
-15 9 -10 -4 -15 0 -15 14 0 29 -18 37 -39 18 -16 -14 -20 -13 -55 12 -36 26
-45 27 -155 28 -112 1 -224 19 -274 45 -56 30 -157 113 -157 130 0 11 -10 21
-25 25 -13 3 -29 12 -36 20 -6 8 -22 14 -34 14 -12 0 -38 6 -56 14 -19 7 -72
19 -119 26 -69 10 -96 10 -145 -1 -33 -7 -70 -12 -82 -11 -15 2 -32 -10 -54
-38 -38 -46 -52 -49 -75 -15 -20 30 -54 33 -61 5 -6 -23 -5 -23 -36 -11 -28
11 -84 -5 -148 -42 -33 -19 -42 -20 -70 -10 -29 11 -33 10 -51 -12 -11 -14
-26 -25 -34 -25 -26 0 -83 -45 -89 -70 -5 -19 -1 -29 19 -45 14 -12 26 -27 26
-35 0 -20 -48 -121 -67 -142 -9 -10 -12 -18 -8 -18 5 0 -2 -12 -16 -26 -16
-17 -23 -34 -21 -55 3 -21 -5 -40 -27 -68 -31 -39 -39 -61 -22 -61 23 0 22
-43 -2 -78 -42 -62 -75 -141 -69 -167 4 -21 14 -31 25 -23 9 6 50 -28 62 -53
13 -25 14 -37 5 -65 -9 -26 -9 -38 0 -49 7 -8 9 -26 6 -43 -9 -36 14 -57 76
-71 59 -13 98 -31 99 -45 1 -6 2 -20 3 -31 1 -13 9 -21 24 -23 13 -2 38 -18
55 -37 25 -26 49 -37 117 -54 47 -12 96 -21 109 -21 13 0 62 20 108 45 71 39
91 45 141 45 49 0 62 -4 82 -25 19 -20 33 -25 72 -25 45 0 52 -3 103 -55 31
-30 64 -55 74 -55 33 0 205 -83 233 -112 14 -15 33 -28 43 -28 18 0 75 -58 75
-77 0 -7 5 -13 11 -13 6 0 24 -11 41 -25 16 -14 35 -25 43 -25 7 0 15 -7 19
-15 3 -8 17 -20 30 -26 14 -7 29 -24 35 -40 7 -22 17 -28 43 -31 27 -2 34 -8
36 -28 4 -31 59 -90 84 -90 22 0 58 -56 58 -91 0 -17 14 -40 40 -67 30 -31 40
-48 40 -74 0 -20 12 -50 29 -76 16 -24 27 -52 24 -61 -9 -33 57 -49 207 -49
155 0 204 10 195 39 -4 13 -2 19 9 19 32 0 16 39 -29 70 -25 17 -54 49 -65 70
-11 22 -34 47 -50 55 -16 8 -37 29 -46 46 -14 29 -14 35 1 74 27 72 171 186
269 213 30 9 150 83 166 103 3 4 20 10 38 14 20 4 32 12 29 19 -3 7 1 26 9 44
12 28 18 32 53 32 22 0 41 -5 43 -12 7 -21 55 7 73 42 13 26 19 29 31 19 22
-18 17 -34 -26 -80 -45 -49 -52 -74 -17 -64 50 15 72 40 75 87 3 43 5 46 35
52 67 14 82 12 85 -11 2 -13 -4 -26 -16 -32 -22 -12 -45 -67 -36 -83 8 -12 70
-3 90 13 8 7 12 20 8 35 -9 37 14 29 30 -11 16 -38 44 -46 66 -20 11 13 7 23
-20 62 -39 54 -33 75 26 84 52 9 69 -2 89 -56 17 -44 19 -45 61 -45 47 0 74 8
74 21 0 5 -7 9 -15 9 -23 0 -18 16 12 40 15 12 38 20 53 19 14 -2 35 3 48 10
13 7 28 10 35 8 7 -2 17 3 23 12 9 12 15 13 26 4 8 -7 24 -10 36 -6 13 3 22 1
22 -6 0 -7 16 -19 35 -27 44 -18 47 -18 43 3 -2 11 8 22 24 31 16 7 31 24 34
38 5 19 13 24 35 24 32 0 51 -26 30 -40 -15 -8 46 -50 73 -50 25 0 19 -29 -14
-60 -37 -34 -52 -90 -25 -90 10 0 26 7 36 16 14 13 22 13 39 4 18 -10 34 -8
84 8 126 42 166 41 186 -9 12 -27 17 -30 59 -30 25 0 102 -3 171 -8 101 -6
137 -12 185 -33 105 -46 201 -65 408 -84 35 -4 70 -1 87 6 24 10 32 9 57 -9
35 -25 132 -51 193 -51 47 0 128 -23 165 -46 11 -7 38 -15 60 -19 22 -4 53
-11 68 -17 21 -8 34 -8 53 3 21 11 32 11 70 -4 33 -12 51 -14 70 -7 14 6 41
10 59 10 29 0 36 4 41 25 7 29 17 30 72 11 22 -8 43 -12 46 -9 3 4 -5 21 -19
39 -24 31 -24 33 -6 55 18 22 19 22 60 6 46 -19 106 -22 116 -7 3 5 20 9 38 8
18 -1 43 5 56 11 13 7 36 10 52 7 15 -3 44 1 63 9 32 14 41 13 113 -9 43 -14
89 -24 103 -24 14 0 46 -8 71 -18 44 -17 48 -17 73 -1 30 20 35 61 9 75 -9 6
-22 32 -29 58 -11 42 -10 51 3 67 25 26 59 20 102 -18 21 -19 42 -35 47 -35 5
0 27 10 49 21 32 17 43 19 58 10 12 -8 23 -9 30 -3 7 6 35 12 62 15 28 3 100
11 160 18 61 8 162 14 226 14 99 -1 120 -3 148 -21 31 -20 36 -20 94 -6 56 13
71 12 153 -4 87 -17 93 -17 160 1 40 10 113 19 174 21 58 1 132 9 166 17 82
20 203 10 218 -18 30 -54 114 -105 124 -77 6 18 30 14 61 -8 16 -13 62 -27
112 -36 113 -19 111 -19 156 -67 22 -23 66 -60 97 -82 32 -22 105 -86 162
-141 85 -84 104 -107 104 -131 0 -25 14 -41 94 -106 52 -42 97 -77 100 -77 3
0 6 7 6 15 0 8 10 24 23 35 12 12 23 33 24 48 1 15 4 53 6 85 5 50 3 57 -11
55 -21 -4 -29 46 -12 67 14 17 -5 58 -44 94 -14 14 -26 30 -26 37 0 7 -13 21
-29 30 -55 32 -43 133 22 198 14 14 28 39 32 56 4 16 15 35 25 40 11 6 16 17
13 28 -6 23 56 129 80 135 11 4 17 15 17 35 0 16 7 35 15 42 8 7 15 22 15 33
0 11 13 44 29 73 17 28 27 54 24 57 -3 3 -18 4 -33 0 -22 -4 -31 0 -40 17 -9
17 -17 20 -39 15 -29 -6 -132 32 -145 54 -4 6 -18 11 -31 11 -14 0 -40 16 -65
40 -23 22 -59 44 -80 50 -40 11 -61 34 -53 58 7 18 -56 82 -80 82 -30 0 -137
51 -137 66 0 7 -9 16 -20 19 -29 9 -42 41 -35 85 5 31 12 41 36 49 16 5 29 12
29 16 0 8 -144 -6 -154 -16 -17 -15 -34 -10 -71 22 -30 26 -35 37 -35 74 0 28
-7 51 -22 70 -19 24 -25 26 -62 21 -22 -4 -44 -14 -49 -21 -12 -21 -31 -18
-64 9 -15 13 -45 31 -66 39 -20 9 -37 22 -38 29 -3 32 4 63 18 85 14 21 13 25
-13 56 -16 18 -38 49 -48 68 -19 36 -19 37 0 75 10 21 31 45 46 53 37 21 69 4
109 -58 36 -55 48 -64 70 -50 11 7 10 11 -6 23 -27 20 -10 47 35 59 19 5 49
22 67 38 39 34 76 37 96 9 8 -11 16 -17 20 -14 3 3 15 0 28 -6 19 -11 29 -9
57 6 34 18 34 18 52 -4 12 -15 20 -18 23 -10 7 19 41 -4 45 -31 4 -27 28 -27
42 -1 6 11 21 20 34 20 31 0 86 -20 86 -31 0 -16 28 -10 34 7 5 12 14 15 36
11 32 -7 49 8 31 26 -6 6 -11 35 -11 64 0 71 30 130 76 149 19 8 34 20 34 28
0 17 31 37 93 61 38 14 47 22 47 41 0 13 8 32 18 42 12 13 17 34 17 82 1 41 7
78 18 99 10 20 14 43 11 58 -4 14 -1 35 6 49 11 20 11 27 -2 41 -22 25 -30 72
-18 112 10 37 5 55 -10 31 -13 -21 -51 16 -45 44 4 18 -4 25 -54 47 l-59 27
-6 58 c-4 33 -7 74 -7 92 0 29 -3 32 -32 32 -50 0 -122 25 -125 44 -4 16 -38
22 -58 8 -6 -4 -13 -15 -17 -25 -4 -11 -14 -17 -24 -15 -12 2 -22 -6 -30 -24
-13 -30 -37 -37 -47 -13 -3 8 -10 15 -16 15 -5 0 -10 -7 -10 -15 0 -8 -9 -15
-20 -15 -24 0 -27 32 -5 50 8 7 15 23 15 37 0 13 7 38 16 55 13 26 20 29 44
25 24 -5 29 -2 34 18 9 34 67 61 95 43 17 -11 25 -10 52 6 30 18 33 18 44 2
19 -25 38 -20 31 8 -4 15 0 28 9 36 8 7 15 19 15 26 0 7 12 21 28 31 15 9 41
30 59 46 17 16 36 26 42 23 6 -4 16 -2 23 3 7 6 29 24 49 41 20 16 44 30 53
30 14 0 14 3 4 19 -10 16 -9 23 5 39 20 22 21 35 5 62 -11 17 -10 22 2 30 24
16 70 12 70 -5 0 -20 10 -19 36 6 19 17 25 19 42 8 17 -10 23 -10 36 0 26 22
77 123 67 135 -15 20 -10 80 9 111 12 20 17 40 13 55 -5 18 0 29 23 46 l29 23
-35 36 c-19 20 -46 38 -60 42 -14 3 -31 10 -37 15 -7 6 -20 7 -29 4 -9 -4 -27
0 -40 9 -15 9 -34 13 -53 9 -38 -8 -53 4 -88 67 -20 38 -30 48 -45 43 -23 -7
-93 32 -114 64 -10 15 -13 34 -9 52 5 24 2 32 -19 45 -14 10 -26 25 -26 35 0
11 -12 22 -30 29 -16 5 -30 14 -30 20 0 12 55 31 89 31 33 0 50 11 65 41 7 14
21 24 33 24 12 0 31 10 43 23 17 18 31 23 61 21 50 -4 57 5 35 46 -17 31 -17
37 -4 57 10 16 12 28 6 38 -7 11 -1 34 21 80 30 62 30 65 12 85 -10 11 -25 41
-35 67 -15 40 -15 53 -5 88 12 38 11 42 -14 68 -15 16 -27 38 -27 50 0 12 -9
27 -20 34 -11 7 -20 22 -20 34 0 11 -13 33 -29 48 -25 24 -28 31 -18 47 10 16
8 21 -11 34 -24 18 -29 44 -10 63 9 9 10 17 2 30 -6 9 -17 41 -24 70 -11 47
-10 55 5 72 26 29 10 104 -23 108 -25 4 -62 66 -62 106 0 27 6 25 -137 46 -39
5 -86 10 -102 10 -30 0 -31 -1 -31 -45 0 -33 4 -45 15 -45 28 0 93 -32 100
-48 4 -10 -1 -22 -11 -29 -10 -7 -18 -27 -18 -45 -1 -31 -26 -54 -26 -23 0 9
-10 29 -22 45 -19 26 -26 29 -68 26 -26 -2 -59 -11 -74 -21 -26 -17 -27 -17
-51 5 -13 12 -28 19 -34 15 -6 -3 -11 -2 -11 4 0 5 5 13 12 17 7 5 4 10 -10
15 -12 5 -22 12 -22 18 0 16 36 19 69 5 28 -12 34 -11 51 6 19 19 32 24 56 21
16 -2 26 59 13 75 -6 8 -26 14 -43 14 -17 0 -58 7 -91 16 -33 8 -88 18 -121
22 -53 7 -63 5 -73 -10 -10 -15 -13 -14 -40 13 -27 26 -35 29 -68 23 -55 -10
-63 -20 -63 -80 l0 -54 -37 1 c-76 0 -129 -6 -151 -19 -19 -11 -28 -11 -52 0
-27 11 -28 14 -14 29 11 13 25 16 50 12 l34 -6 -5 53 c-4 50 -25 85 -34 57 -2
-7 -15 -25 -27 -40 -13 -16 -24 -35 -24 -42 0 -16 -36 -39 -49 -31 -5 3 -11
15 -14 26 -4 17 0 20 23 20 20 0 31 6 35 20 3 11 11 20 16 20 5 0 9 5 9 10 0
16 -52 11 -72 -7 -12 -11 -18 -12 -18 -4 0 9 -9 11 -30 6 -42 -9 -116 26 -132
62 -15 34 -26 43 -57 43 -19 0 -21 -3 -11 -15 20 -24 3 -34 -36 -22 -27 8 -40
8 -55 -1 -24 -15 -82 -15 -97 0 -9 9 -12 8 -12 -5 0 -9 -4 -17 -10 -17 -5 0
-10 2 -10 5 0 9 24 49 36 60 7 5 15 34 18 63 8 59 3 62 -80 41 -34 -9 -47 -9
-59 1 -22 18 -48 4 -42 -21 5 -18 2 -20 -19 -16 -20 3 -24 0 -24 -19 0 -32
-13 -37 -60 -23 -33 10 -48 10 -76 0 -30 -11 -39 -10 -60 4 l-25 16 16 -31
c15 -30 15 -33 -1 -44 -16 -12 -15 -13 6 -19 15 -4 19 -10 14 -19 -5 -7 -9
-35 -9 -63 0 -44 -3 -50 -22 -53 -33 -5 -68 36 -83 97 -9 40 -10 55 -1 64 9 9
14 9 20 -2 6 -9 11 -10 15 -2 4 6 4 11 -1 11 -4 0 -18 22 -30 48 -17 36 -38
59 -87 95 -54 38 -66 52 -66 74 l0 28 -13 -25 c-22 -44 -86 -39 -136 10 -17
17 -32 26 -36 20 -15 -24 -95 -3 -95 25 0 21 -13 19 -28 -5 -16 -27 -26 -25
-57 7 -27 30 -34 21 -10 -11 24 -32 17 -39 -15 -16 -16 12 -30 27 -30 35 0 7
-6 24 -13 38 -12 23 -15 24 -28 11 -13 -13 -24 -7 -86 50 -39 35 -69 66 -67
69 3 3 -11 15 -31 27 -19 12 -40 31 -46 42 -10 18 -17 19 -57 13 -91 -14 -123
-11 -146 16 -12 14 -27 24 -32 22 -6 -2 -19 6 -29 17 -10 11 -28 20 -41 20
-13 0 -25 4 -28 9 -3 5 -20 11 -38 14 -18 2 -58 15 -88 27 -30 12 -75 26 -100
31 -24 5 -75 19 -112 31 -59 19 -74 20 -111 11 -26 -7 -46 -8 -51 -2 -16 15
-40 10 -53 -11z m-197 -85 c18 -13 17 -14 -18 -15 -27 0 -38 4 -38 15 0 19 30
19 56 0z m3964 -872 c0 -5 -11 -18 -24 -31 -15 -14 -23 -31 -21 -47 2 -18 -3
-25 -15 -25 -21 0 -34 26 -19 36 6 3 9 17 6 31 -3 17 -1 23 8 19 7 -2 21 2 32
9 20 16 33 19 33 8z m-3230 -1155 c0 -23 -16 -39 -33 -32 -20 7 -21 16 -5 32
16 16 38 15 38 0z m55 -34 c23 -56 20 -71 -15 -70 -20 1 -32 8 -39 24 -11 24
-2 29 17 10 9 -9 12 -9 12 3 0 8 -5 20 -10 25 -12 12 -3 44 11 44 5 0 16 -16
24 -36z m-125 -94 c0 -5 -2 -10 -4 -10 -3 0 -8 5 -11 10 -3 6 -1 10 4 10 6 0
11 -4 11 -10z m297 -24 c-4 -9 -12 -16 -19 -16 -9 0 -9 3 -1 11 6 6 9 19 6 28
-5 13 -3 13 7 4 7 -6 10 -19 7 -27z m-487 -17 c0 -5 -4 -9 -10 -9 -5 0 -10 7
-10 16 0 8 5 12 10 9 6 -3 10 -10 10 -16z m194 -15 c18 -7 22 -48 4 -42 -6 2
-15 14 -19 26 -9 24 -8 25 15 16z m-54 -14 c0 -5 -5 -10 -11 -10 -5 0 -7 5 -4
10 3 6 8 10 11 10 2 0 4 -4 4 -10z m-120 -1200 c0 -5 -2 -10 -4 -10 -3 0 -8 5
-11 10 -3 6 -1 10 4 10 6 0 11 -4 11 -10z m2691 -356 c15 -16 18 -23 7 -19 -9
4 -19 2 -23 -4 -3 -6 -14 -11 -23 -11 -21 -1 -72 -44 -72 -61 0 -7 -14 0 -30
16 -17 16 -27 32 -23 35 5 4 36 17 71 31 34 13 62 27 62 31 0 13 5 10 31 -18z
m86 -36 c-3 -8 -6 -5 -6 6 -1 11 2 17 5 13 3 -3 4 -12 1 -19z m210 -13 c-4 -8
-17 -15 -29 -14 l-23 0 23 9 c12 5 22 15 22 21 0 7 3 10 6 6 4 -3 4 -13 1 -22z
m36 -3 c-10 -10 -20 -17 -22 -16 -6 5 20 34 30 34 5 0 1 -8 -8 -18z m-243 -31
c0 -33 -12 -52 -27 -43 -18 11 -5 82 13 75 8 -3 14 -17 14 -32z m57 -19 c-13
-14 -14 -21 -5 -30 16 -16 8 -21 -26 -15 l-29 6 34 28 c39 33 49 37 26 11z
m175 -27 c9 -4 13 -16 10 -33 -3 -22 -9 -27 -35 -30 -54 -4 -65 -7 -84 -25
-18 -15 -19 -15 -21 13 -2 32 -3 32 83 34 24 1 30 5 29 24 -1 25 -1 24 18 17z
m-832 -880 c18 -19 31 -38 27 -41 -10 -10 -110 10 -114 23 -4 11 34 53 47 53
3 0 21 -16 40 -35z m-3277 -862 c4 -10 17 -31 29 -46 23 -28 23 -29 4 -43 -24
-17 -80 -28 -102 -20 -14 5 -13 9 5 32 12 15 21 32 21 39 0 7 7 16 16 19 9 4
14 13 10 21 -3 8 -2 15 3 15 5 0 11 -8 14 -17z m217 -38 c0 -10 -10 -15 -26
-15 -22 0 -25 2 -14 15 7 8 19 15 26 15 8 0 14 -7 14 -15z m-3070 -345 c0 -5
-4 -10 -10 -10 -5 0 -10 5 -10 10 0 6 5 10 10 10 6 0 10 -4 10 -10z m170 -40
c0 -5 -4 -10 -10 -10 -5 0 -10 5 -10 10 0 6 5 10 10 10 6 0 10 -4 10 -10z
m1752 -196 c19 -12 5 -20 -34 -20 -34 1 -44 5 -46 20 -4 17 0 18 34 11 22 -4
42 -9 46 -11z"/>
<path d="M4468 4779 c-84 -7 -138 -32 -202 -93 -29 -26 -36 -41 -36 -70 0 -39
12 -55 83 -109 21 -15 55 -52 76 -81 23 -30 51 -56 65 -60 13 -3 34 -22 46
-41 20 -33 25 -35 75 -35 30 0 76 -8 102 -19 26 -10 71 -22 100 -26 36 -5 71
-20 117 -49 36 -24 83 -46 106 -50 27 -4 44 -13 47 -24 8 -25 109 -109 167
-137 58 -27 170 -45 287 -45 67 0 93 -5 155 -31 58 -24 85 -30 115 -26 32 4
39 2 35 -9 -4 -11 4 -14 34 -14 36 0 40 -3 40 -25 0 -26 52 -83 59 -64 2 6 -2
16 -8 22 -15 15 -14 27 4 27 9 0 19 -9 23 -21 7 -18 10 -19 20 -6 9 11 8 18
-8 32 -36 33 -23 66 33 80 32 8 32 6 8 47 -10 18 -21 56 -24 84 -4 39 -17 67
-48 114 -41 59 -103 120 -123 120 -5 0 -17 6 -25 13 -24 20 -153 67 -177 65
-32 -3 -253 93 -288 126 -17 16 -65 45 -106 63 -41 19 -81 40 -88 46 -28 23
-120 50 -192 57 -76 7 -123 26 -270 107 -65 36 -99 41 -202 32z"/>
<path d="M2535 3559 c-45 -26 -85 -73 -85 -100 0 -27 22 -59 41 -59 6 0 29 -9
51 -20 23 -11 49 -20 58 -20 9 0 20 -4 26 -10 13 -13 102 30 135 66 55 61 45
81 -56 120 -81 31 -142 39 -170 23z"/>
<path d="M2760 1545 c0 -9 16 -32 35 -49 19 -18 35 -37 35 -42 1 -5 14 -24 30
-43 25 -29 34 -33 72 -31 58 2 57 2 179 -6 104 -7 107 -6 119 15 9 19 9 26 -4
40 -9 10 -16 22 -16 28 0 15 -58 63 -76 63 -8 0 -39 -14 -69 -31 -65 -36 -111
-34 -152 7 -13 13 -29 22 -34 18 -6 -3 -21 4 -33 15 -14 13 -29 19 -40 15 -9
-3 -23 -1 -31 6 -12 10 -15 9 -15 -5z"/>
</g>
</svg>
