<?xml version="1.0" standalone="no"?>
<!DOCTYPE svg PUBLIC "-//W3C//DTD SVG 20010904//EN"
 "http://www.w3.org/TR/2001/REC-SVG-20010904/DTD/svg10.dtd">
<svg version="1.0" xmlns="http://www.w3.org/2000/svg"
 width="1024.000000pt" height="1024.000000pt" viewBox="0 0 1024.000000 1024.000000"
 preserveAspectRatio="xMidYMid meet">
<metadata>
Created by potrace 1.10, written by Peter Selinger 2001-2011
</metadata>
<g transform="translate(0.000000,1024.000000) scale(0.100000,-0.100000)"
fill="#000000" stroke="none">
<path d="M6808 9401 c-439 -54 -800 -100 -804 -103 -3 -4 6 -26 19 -50 24 -40
25 -48 17 -115 l-8 -72 -103 -130 c-95 -119 -115 -138 -239 -227 -129 -93
-150 -110 -150 -126 0 -4 24 -25 54 -47 l54 -40 46 -139 c39 -116 45 -144 36
-166 -13 -36 -15 -33 24 -46 l34 -11 -24 -71 c-14 -41 -24 -95 -24 -126 0 -30
-10 -92 -22 -138 -19 -71 -20 -89 -10 -117 7 -18 12 -42 12 -53 0 -10 9 -32
19 -47 15 -23 17 -36 9 -69 -7 -31 -5 -46 7 -64 8 -13 15 -37 15 -53 0 -17 7
-34 16 -39 15 -8 15 -12 -1 -42 -9 -18 -25 -34 -35 -37 -31 -8 -90 -107 -90
-151 0 -26 -7 -45 -20 -57 -14 -13 -20 -31 -20 -64 0 -66 -49 -278 -77 -334
-13 -27 -27 -70 -30 -96 -5 -43 -3 -50 21 -68 21 -17 26 -29 26 -66 0 -29 6
-49 16 -58 15 -12 14 -15 -5 -30 -26 -21 -19 -44 20 -64 15 -8 30 -24 34 -35
5 -16 15 -20 50 -20 39 0 45 -4 64 -35 16 -27 27 -35 49 -35 38 0 51 -12 107
-102 35 -56 54 -78 69 -78 15 -1 37 -26 81 -96 l59 -95 96 7 c96 6 96 6 113
-20 12 -18 26 -26 47 -26 16 0 45 -10 65 -21 l36 -22 35 34 35 34 -26 8 c-22
8 -25 14 -25 53 0 39 3 46 28 56 15 6 47 12 72 13 71 3 106 14 130 41 13 13
32 24 43 24 19 0 20 -6 13 -227 -3 -126 -9 -376 -12 -556 l-7 -329 -23 -10
c-38 -18 -92 -1 -114 35 l-19 31 30 52 30 53 -43 11 c-24 6 -50 13 -58 16 -9
2 -37 -14 -62 -35 -29 -24 -91 -56 -162 -84 -113 -46 -114 -46 -154 -31 -37
15 -42 15 -86 -4 l-46 -21 -35 46 c-29 39 -35 54 -35 97 0 45 -3 54 -32 78
-31 25 -33 31 -36 101 l-4 75 -74 73 -74 73 -30 -29 c-29 -28 -30 -28 -50 -10
-11 10 -20 23 -20 28 0 6 -13 31 -29 56 -25 39 -28 52 -22 86 6 34 3 46 -21
82 -24 35 -28 52 -28 109 l0 67 -83 -7 c-50 -4 -94 -3 -113 4 -22 8 -39 8 -60
0 -25 -10 -31 -8 -45 9 -11 13 -29 21 -47 21 -51 0 -82 17 -82 44 0 19 -10 28
-55 46 -51 21 -57 21 -73 7 -16 -14 -26 -15 -80 -5 -48 9 -62 16 -62 29 0 10
-21 30 -50 48 -28 17 -50 38 -50 47 0 9 -13 33 -30 54 -21 27 -31 53 -36 93
-7 56 -7 57 -84 117 l-77 61 -12 86 c-6 47 -12 87 -14 89 -2 2 -39 0 -82 -4
l-80 -7 3 -40 c2 -30 -3 -48 -19 -68 -18 -24 -20 -36 -15 -76 l6 -48 -52 -44
c-90 -75 -83 -72 -115 -56 -25 14 -31 13 -64 -4 l-37 -18 -116 41 -116 41 -39
-17 c-36 -17 -41 -17 -100 0 -54 15 -67 15 -102 4 -60 -20 -91 -6 -102 46 -6
35 -13 43 -40 50 -24 7 -33 16 -35 36 -4 32 -28 40 -62 20 -24 -13 -31 -11
-94 24 -67 36 -69 37 -117 25 -58 -15 -79 -5 -79 39 0 24 -9 33 -63 63 -47 27
-67 45 -81 73 -15 33 -16 39 -3 49 13 9 13 24 4 98 -8 69 -7 96 3 128 12 35
12 42 -1 50 -21 13 -36 11 -87 -15 -34 -17 -79 -27 -162 -36 -67 -7 -130 -19
-150 -30 -19 -9 -56 -20 -81 -24 -40 -6 -55 -15 -103 -66 -33 -34 -72 -64 -92
-70 -32 -11 -41 -10 -75 9 -25 14 -47 20 -60 16 -28 -9 -99 23 -92 40 2 8 22
16 43 20 33 6 40 11 53 48 9 24 15 75 15 120 l0 77 -38 30 c-24 19 -50 30 -71
31 -69 2 -83 11 -91 58 -9 55 -32 81 -71 81 -25 0 -28 -2 -17 -15 10 -12 10
-24 0 -60 -10 -34 -10 -55 -1 -87 6 -24 16 -96 21 -160 l11 -118 -58 -109 -58
-109 24 -54 c14 -29 24 -66 23 -83 -1 -16 -5 -96 -8 -177 l-5 -148 44 -94 45
-94 -44 -50 c-27 -31 -59 -85 -81 -137 l-36 -87 12 -72 c18 -101 18 -101 56
-122 30 -16 35 -23 35 -56 l0 -38 -242 5 c-134 3 -536 7 -894 10 l-652 5 -6
-22 c-3 -13 -6 -675 -6 -1472 l0 -1448 43 -47 c32 -36 47 -66 65 -124 l22 -77
79 -39 c82 -42 91 -54 91 -128 0 -18 50 -76 197 -229 193 -200 204 -209 438
-376 l239 -172 141 29 c77 15 201 46 275 67 74 21 149 38 167 38 18 0 83 -18
145 -40 114 -41 219 -63 358 -76 41 -3 99 -15 127 -26 77 -28 167 -92 207
-146 22 -30 66 -67 123 -104 l89 -57 130 -7 c168 -8 274 -38 325 -90 l34 -36
75 5 c41 3 95 13 120 22 35 13 64 15 130 10 153 -11 202 -23 231 -58 25 -30
29 -31 122 -35 85 -4 100 -2 130 17 19 11 41 21 49 21 23 0 109 49 146 84 18
17 49 63 68 103 30 63 47 83 132 156 53 45 128 107 165 137 75 60 99 93 117
160 9 31 38 75 100 151 l89 106 123 56 c120 55 124 58 194 139 l70 83 229 80
230 81 17 46 c9 25 19 85 21 134 3 49 12 106 21 126 9 21 16 54 16 73 0 50 52
115 92 115 34 0 119 50 175 103 45 43 110 68 271 108 46 11 96 25 110 30 15 6
65 19 111 29 83 18 85 18 135 -1 42 -15 65 -18 128 -13 42 4 85 3 95 -1 10 -5
59 -9 108 -9 l91 -1 2 122 3 122 -46 66 c-53 77 -57 92 -53 169 l3 58 247 103
c245 102 250 104 539 169 290 66 291 66 341 108 42 35 61 43 124 54 52 9 94
25 141 52 61 36 125 54 648 187 319 81 582 148 583 150 2 2 -9 19 -24 38 -24
31 -32 35 -63 30 -20 -3 -45 -14 -56 -24 -22 -19 -55 -10 -55 15 0 8 -16 40
-35 71 -19 32 -37 66 -40 76 -4 11 -21 19 -50 24 -30 4 -49 13 -55 26 -6 10
-7 19 -3 19 4 1 19 10 32 21 l24 20 -27 28 c-15 16 -41 31 -57 35 -21 4 -29
11 -29 26 0 11 7 20 15 20 29 0 92 39 110 67 10 15 28 39 40 53 13 14 26 41
30 60 9 45 51 127 67 132 9 3 8 13 -4 42 -13 35 -13 44 4 104 10 37 18 88 18
113 0 38 -4 48 -20 52 -16 4 -20 14 -20 48 0 33 9 57 41 106 39 59 44 63 80
63 21 0 50 -5 64 -12 23 -10 29 -8 61 23 25 24 50 37 87 44 46 9 52 13 55 37
3 22 10 29 38 34 19 3 34 11 34 17 0 6 9 21 21 33 l21 22 -29 16 c-17 8 -50
20 -75 26 -37 9 -48 18 -62 46 -9 19 -16 42 -16 52 -1 9 -7 34 -14 55 -12 33
-12 42 0 65 8 15 14 34 14 43 0 9 7 33 15 53 11 26 13 46 6 75 -7 31 -5 43 7
55 14 14 14 19 0 54 -12 31 -13 45 -3 79 11 38 11 43 -11 66 -13 14 -33 28
-44 32 -21 7 -24 18 -11 50 5 11 5 30 0 41 -4 12 -5 31 -2 42 5 19 7 20 27 7
23 -16 36 -11 36 11 0 7 25 54 55 104 30 50 55 96 55 103 0 7 -18 39 -40 72
-28 42 -40 71 -40 96 0 21 -7 42 -16 49 -8 8 -20 22 -26 33 -9 17 -8 19 7 13
11 -4 25 0 35 9 11 10 45 18 87 22 65 5 72 8 88 37 10 17 49 63 87 101 l67 71
-56 84 -56 83 6 74 6 74 -95 75 c-52 42 -94 79 -94 83 1 3 9 42 20 86 10 44
16 84 12 90 -3 5 -27 37 -53 70 -38 50 -46 65 -42 91 8 50 -11 74 -57 74 -33
0 -40 -3 -40 -20 0 -24 -9 -25 -55 -6 -29 13 -35 20 -35 46 0 17 4 40 10 50 8
15 4 22 -25 39 -24 14 -35 28 -35 44 0 29 -16 44 -103 92 -45 25 -77 51 -94
76 -27 41 -31 43 -166 74 -72 18 -75 19 -96 62 l-21 43 -96 0 c-85 0 -99 3
-127 24 -54 40 -107 58 -157 52 -43 -5 -46 -3 -72 31 -16 20 -28 46 -28 59 0
22 -21 33 -120 66 -8 3 -33 -4 -54 -14 l-39 -20 -51 51 c-49 49 -50 52 -51
108 l0 58 -35 3 c-22 2 -55 19 -88 45 -50 38 -56 40 -91 31 -32 -9 -42 -7 -72
12 -27 19 -49 23 -110 23 l-76 1 -122 160 c-106 140 -125 160 -149 159 -15 -1
-386 -45 -824 -98z"/>
</g>
</svg>
