<?xml version="1.0" standalone="no"?>
<!DOCTYPE svg PUBLIC "-//W3C//DTD SVG 20010904//EN"
 "http://www.w3.org/TR/2001/REC-SVG-20010904/DTD/svg10.dtd">
<svg version="1.0" xmlns="http://www.w3.org/2000/svg"
 width="1024.000000pt" height="1024.000000pt" viewBox="0 0 1024.000000 1024.000000"
 preserveAspectRatio="xMidYMid meet">
<metadata>
Created by potrace 1.10, written by Peter Selinger 2001-2011
</metadata>
<g transform="translate(0.000000,1024.000000) scale(0.100000,-0.100000)"
fill="#000000" stroke="none">
<path d="M4737 7598 c-9 -13 -49 -58 -91 -102 l-75 -78 -65 7 c-58 6 -69 4
-96 -15 -19 -14 -30 -30 -30 -45 0 -13 -9 -46 -19 -73 -14 -35 -16 -53 -9 -66
11 -19 -3 -36 -28 -36 -12 0 -44 -69 -44 -94 0 -18 -112 -31 -139 -16 -29 15
-97 12 -111 -5 -15 -19 -120 -21 -120 -3 0 6 5 26 11 43 10 26 8 39 -10 79
-11 27 -21 69 -21 95 0 76 -16 86 -152 95 -92 7 -101 6 -165 -22 -68 -28 -69
-28 -98 -10 -35 21 -73 23 -145 7 -45 -10 -53 -9 -64 7 -10 13 -21 16 -52 11
-47 -8 -69 -32 -77 -84 -5 -32 -13 -42 -41 -56 -24 -11 -44 -32 -60 -64 -39
-74 -51 -86 -79 -79 -33 8 -53 -18 -60 -78 -6 -56 -30 -82 -120 -131 -36 -20
-246 -85 -273 -85 -2 0 -4 -6 -4 -13 0 -8 -13 -25 -29 -40 -21 -18 -32 -39
-36 -71 -4 -24 -4 -49 -1 -54 3 -6 -5 -34 -19 -64 -14 -29 -25 -64 -25 -78 0
-14 -9 -36 -20 -50 -14 -18 -20 -41 -20 -80 -1 -89 -24 -168 -59 -204 -31 -31
-32 -31 -156 -34 l-124 -4 -20 -31 c-10 -18 -22 -54 -26 -82 -4 -27 -16 -68
-27 -90 l-21 -41 -86 -2 c-96 -2 -79 8 -175 -107 -43 -52 -87 -75 -140 -75
-43 0 -104 -28 -111 -51 -7 -20 -79 -33 -135 -24 -26 4 -41 13 -48 29 -14 32
-75 40 -100 13 -32 -36 -68 -48 -112 -38 -37 8 -69 33 -70 53 0 4 -11 13 -24
20 -100 55 -129 68 -172 73 -46 7 -53 4 -91 -26 -23 -19 -57 -43 -75 -54 -23
-14 -43 -41 -65 -87 -20 -41 -40 -69 -53 -73 -11 -3 -30 -25 -42 -48 -11 -23
-31 -55 -43 -72 -13 -16 -26 -41 -30 -55 -4 -14 -18 -38 -30 -55 -12 -16 -27
-50 -34 -75 -20 -74 -32 -98 -57 -115 -20 -13 -24 -24 -24 -66 0 -27 5 -70 11
-95 11 -44 11 -46 -19 -77 -16 -18 -33 -42 -36 -54 -4 -12 -16 -25 -27 -28
-14 -5 -18 -12 -14 -25 4 -14 0 -19 -17 -22 -14 -2 -33 -20 -51 -50 -26 -42
-28 -48 -15 -73 13 -23 13 -33 0 -71 -8 -24 -18 -44 -23 -44 -5 0 -9 -25 -9
-55 0 -47 3 -55 19 -55 30 0 93 -68 85 -92 -8 -26 15 -108 31 -108 27 0 48
-38 41 -78 -4 -27 -1 -50 10 -71 9 -18 21 -59 27 -93 14 -72 53 -123 111 -142
32 -11 45 -24 70 -70 28 -52 30 -58 14 -69 -19 -15 -21 -23 -19 -104 l1 -63
30 0 c17 0 46 -9 66 -19 31 -17 49 -19 120 -14 70 5 84 4 84 -9 0 -29 45 -58
99 -65 49 -6 54 -9 89 -59 20 -30 44 -56 52 -59 23 -9 91 -103 102 -141 10
-40 79 -99 125 -109 26 -5 34 -14 44 -43 17 -54 46 -82 85 -82 31 0 74 -30 74
-52 0 -4 34 -36 75 -72 51 -43 88 -66 113 -71 20 -4 43 -12 51 -18 13 -11 98
-16 256 -17 28 0 67 7 87 16 37 17 38 16 57 -7 l19 -24 24 23 c30 27 63 28
153 2 38 -11 114 -24 169 -30 56 -6 127 -14 158 -20 50 -8 74 -5 180 21 68 17
127 34 131 38 5 5 25 0 45 -10 41 -21 73 -24 89 -8 12 12 53 13 167 3 49 -4
92 -2 115 5 46 14 96 60 115 105 13 30 19 35 64 41 31 4 58 2 70 -4 35 -18 72
-14 72 9 0 10 -9 24 -19 30 -11 5 -21 20 -23 32 -2 15 -17 29 -45 42 -44 22
-57 42 -68 110 -5 30 -1 48 17 82 20 39 21 46 9 80 -12 34 -12 39 5 51 10 7
27 13 38 13 37 0 50 17 51 62 1 62 14 96 38 104 20 7 140 14 227 14 26 -1 41
6 56 26 l22 27 35 -27 c35 -27 36 -27 68 -11 20 11 44 15 64 12 18 -3 37 -1
42 4 8 8 70 -6 177 -41 25 -8 32 -6 44 11 7 11 41 33 75 48 52 24 72 28 122
25 33 -2 73 -7 88 -10 21 -5 34 -1 52 16 l24 23 19 -23 18 -22 27 32 c20 23
27 43 27 73 0 26 8 51 20 67 11 14 20 39 20 57 0 17 5 35 10 38 6 3 10 17 10
30 0 19 7 24 39 30 28 5 54 20 90 55 45 44 55 49 84 44 51 -9 54 -11 61 -41
15 -57 64 -83 91 -47 11 15 15 15 56 -3 24 -11 53 -30 64 -42 19 -22 19 -24 2
-53 -12 -22 -15 -34 -7 -42 7 -7 14 -6 21 1 7 7 25 9 40 6 21 -4 30 -1 35 11
6 15 9 14 39 -4 18 -11 39 -20 48 -20 18 0 30 -40 16 -57 -6 -6 -8 -17 -4 -23
13 -21 39 -9 85 39 59 61 102 81 163 74 43 -5 47 -3 56 19 5 14 35 49 65 78
43 40 56 60 56 81 0 28 1 29 55 29 58 0 115 28 115 57 0 19 14 16 69 -12 l48
-24 20 22 c12 12 33 41 47 65 15 24 33 45 41 48 7 3 17 20 20 37 4 18 21 47
38 65 30 31 38 52 66 172 14 57 22 70 47 76 26 7 49 38 39 54 -3 5 0 12 7 17
51 32 87 120 56 139 -18 11 22 34 49 28 17 -5 23 -2 23 9 0 25 19 30 46 12 23
-15 27 -15 52 2 41 28 100 53 125 53 12 0 31 6 42 14 11 7 63 16 120 20 55 4
109 9 120 12 15 4 23 -2 32 -26 8 -21 18 -30 35 -31 104 -3 111 -5 122 -23 28
-48 45 -57 104 -55 66 2 152 -10 170 -24 6 -5 12 -18 12 -28 0 -12 11 -23 26
-29 34 -13 33 -13 44 14 6 16 25 30 57 42 26 9 55 23 64 31 8 7 23 13 32 13 9
0 19 5 22 11 5 7 12 5 23 -4 25 -22 92 -38 112 -27 10 5 20 27 24 49 7 45 16
49 131 54 51 2 60 5 63 22 6 32 19 38 39 20 32 -28 95 -75 103 -75 4 0 11 -19
16 -42 11 -53 59 -81 139 -82 40 -1 40 -1 47 -46 12 -78 20 -104 40 -124 25
-23 48 -77 48 -110 0 -18 6 -25 23 -28 14 -2 23 -11 25 -24 2 -12 12 -30 23
-40 10 -9 19 -23 19 -31 0 -7 11 -13 28 -13 15 -1 38 -7 51 -14 16 -9 34 -11
52 -6 16 5 38 6 50 3 24 -7 39 10 39 45 0 25 22 29 40 7 16 -19 34 -19 51 1 9
11 23 14 46 11 18 -3 33 -2 33 3 0 20 34 40 66 40 19 0 48 7 65 15 28 15 32
14 58 -4 26 -19 29 -19 45 -3 14 14 18 15 25 3 11 -18 111 -5 111 14 0 8 8 18
17 23 16 9 16 11 0 27 -22 22 -23 134 -1 230 9 39 19 113 23 166 7 98 26 149
55 149 8 0 16 7 20 15 3 9 21 25 41 36 20 12 35 29 35 40 0 12 28 38 78 73 76
53 79 57 95 115 20 71 21 97 6 107 -17 10 -3 60 27 89 23 23 26 32 21 73 -2
26 -6 52 -7 57 -1 6 -2 29 -1 52 1 38 5 46 41 69 l40 27 0 67 c0 54 4 70 20
85 11 10 35 51 54 91 35 72 36 73 68 68 43 -7 78 16 59 39 -9 12 -10 21 -2 36
6 11 11 38 11 60 0 22 5 52 10 67 22 56 -17 89 -69 58 -28 -16 -32 -16 -73 -1
-27 11 -56 15 -75 11 -28 -5 -33 -2 -66 49 -41 61 -68 74 -136 62 -20 -3 -68
-1 -105 5 -54 10 -65 15 -56 26 7 7 10 23 8 36 -3 20 -10 24 -66 29 -43 4 -69
12 -85 27 -12 11 -57 31 -101 45 -48 15 -83 32 -89 43 -6 11 -12 48 -13 84 -2
56 -5 66 -28 83 -14 10 -26 23 -26 28 0 5 -17 36 -37 69 -39 62 -76 87 -112
75 -15 -4 -25 2 -43 27 -16 23 -29 32 -45 30 -15 -2 -26 6 -39 27 -20 34 -37
34 -85 0 -21 -14 -25 -24 -21 -45 4 -23 2 -26 -12 -21 -10 4 -20 7 -22 7 -2 0
-4 10 -4 23 0 13 -13 36 -29 51 -16 16 -32 39 -35 52 -5 19 -13 24 -40 24 -60
0 -97 12 -127 42 -27 28 -32 29 -58 18 -16 -6 -37 -10 -47 -9 -11 2 -45 -5
-77 -15 -31 -11 -60 -16 -63 -13 -3 3 -21 -1 -39 -9 -48 -20 -88 -18 -118 6
-14 11 -35 20 -48 20 -12 0 -32 8 -43 18 -25 22 -130 47 -148 35 -7 -4 -29
-13 -48 -18 -31 -9 -35 -15 -38 -48 -2 -26 -10 -42 -27 -53 -31 -20 -54 -12
-105 37 -37 36 -43 39 -58 26 -9 -8 -38 -18 -64 -21 -44 -7 -48 -9 -48 -35 0
-27 41 -81 61 -81 5 0 9 -7 9 -15 0 -11 -11 -15 -38 -15 -28 0 -46 -8 -70 -29
-17 -17 -32 -35 -32 -42 0 -6 -11 -22 -25 -35 -14 -13 -25 -31 -25 -41 0 -14
-13 -22 -47 -31 -44 -12 -47 -12 -74 14 -19 18 -33 24 -48 19 -22 -7 -26 1
-12 24 6 10 2 24 -12 43 -21 28 -21 28 -41 9 -19 -17 -25 -18 -58 -8 -25 8
-38 18 -38 30 0 10 -7 20 -15 23 -8 4 -15 15 -15 26 0 15 -5 18 -17 14 -18 -7
-33 9 -33 37 0 10 -12 34 -26 53 -31 40 -74 45 -114 14 -32 -25 -41 -25 -74 1
l-26 20 0 -23 c0 -15 -16 -39 -40 -63 -39 -39 -40 -39 -77 -26 -21 7 -49 24
-63 36 -32 29 -66 46 -108 56 -28 6 -35 4 -48 -15 -8 -13 -26 -28 -41 -35 -23
-11 -29 -10 -40 5 -10 14 -24 17 -61 15 -26 -1 -48 -4 -50 -5 -1 -2 2 -15 8
-30 7 -19 7 -41 -1 -72 l-11 -44 -52 1 c-28 1 -62 4 -76 8 -41 13 -95 -25
-136 -95 -9 -16 -14 -17 -27 -6 -14 12 -18 7 -31 -39 -9 -29 -16 -58 -16 -64
0 -7 -9 -24 -20 -38 -11 -14 -25 -49 -31 -79 -28 -139 -35 -152 -58 -125 -6 8
-28 19 -50 25 -27 9 -41 19 -45 36 -7 27 -91 96 -118 96 -31 0 -54 -17 -67
-48 -7 -16 -24 -34 -37 -41 -58 -26 -214 0 -214 35 0 27 60 134 84 149 27 18
25 50 -5 66 -14 7 -17 14 -10 26 13 24 2 182 -17 230 -10 24 -24 43 -31 43 -8
0 -32 -12 -54 -27 -24 -17 -41 -23 -45 -16 -10 15 -52 35 -87 43 -29 6 -30 8
-35 70 l-5 65 -37 -3 c-44 -4 -88 21 -88 52 0 11 -7 30 -15 40 -8 11 -15 32
-15 48 0 18 -7 31 -21 39 -19 10 -21 17 -15 68 6 51 4 59 -16 78 -13 11 -33
26 -45 32 -14 7 -23 21 -23 35 0 40 -49 49 -73 14z"/>
</g>
</svg>
