<?xml version="1.0" standalone="no"?>
<!DOCTYPE svg PUBLIC "-//W3C//DTD SVG 20010904//EN"
 "http://www.w3.org/TR/2001/REC-SVG-20010904/DTD/svg10.dtd">
<svg version="1.0" xmlns="http://www.w3.org/2000/svg"
 width="1024.000000pt" height="1024.000000pt" viewBox="0 0 1024.000000 1024.000000"
 preserveAspectRatio="xMidYMid meet">
<metadata>
Created by potrace 1.10, written by Peter Selinger 2001-2011
</metadata>
<g transform="translate(0.000000,1024.000000) scale(0.100000,-0.100000)"
fill="#000000" stroke="none">
<path d="M7747 8543 c-15 -37 -57 -87 -84 -101 -17 -9 -25 -6 -53 23 -36 37
-60 36 -60 -2 0 -22 -2 -24 -15 -13 -8 7 -15 21 -15 30 0 10 -3 25 -6 34 -10
27 -44 0 -44 -34 0 -20 -5 -30 -15 -30 -10 0 -15 10 -15 28 l0 27 -20 -33
c-24 -39 -24 -40 -4 -44 25 -5 43 -88 44 -194 0 -69 4 -95 15 -104 8 -7 15
-23 15 -36 0 -14 14 -50 32 -80 25 -46 29 -60 20 -75 -14 -21 -48 -148 -58
-214 l-7 -47 -22 28 -22 28 -36 -23 c-24 -15 -44 -20 -61 -15 -25 6 -26 5 -26
-45 0 -52 -8 -62 -30 -36 -18 22 -26 19 -40 -15 -13 -32 -30 -31 -30 1 0 28
-20 32 -81 16 -46 -12 -54 -16 -51 -35 2 -16 -2 -22 -16 -22 -17 0 -22 11 -31
63 -16 93 -29 132 -53 162 -18 23 -26 26 -57 20 -20 -4 -46 -16 -59 -28 -19
-18 -26 -19 -43 -9 -17 11 -23 9 -44 -12 -25 -25 -34 -66 -15 -66 6 0 10 -14
10 -32 0 -24 -10 -40 -46 -74 -35 -31 -48 -52 -54 -83 -4 -23 -3 -41 1 -41 16
0 9 -37 -10 -54 -10 -9 -21 -30 -24 -46 -8 -37 -32 -49 -110 -57 l-63 -5 4
-37 3 -36 -28 32 c-15 18 -40 35 -55 39 -26 6 -28 10 -28 53 -1 25 -6 58 -13
73 -15 34 -126 150 -137 143 -9 -5 -60 50 -60 66 0 19 -41 49 -66 49 -14 0
-38 -9 -52 -21 l-26 -20 -19 37 c-17 33 -21 35 -29 20 -9 -17 -11 -16 -33 4
-19 17 -30 20 -55 15 -22 -5 -35 -3 -40 5 -9 15 -60 -67 -60 -97 0 -11 7 -40
15 -63 8 -23 15 -59 15 -79 0 -62 25 -137 64 -194 33 -48 36 -57 25 -75 -11
-17 -10 -25 5 -47 13 -19 20 -24 26 -15 15 24 83 -97 101 -179 9 -43 7 -60
-12 -119 l-22 -68 22 -97 c26 -119 26 -127 2 -127 -20 0 -31 18 -31 52 0 11
-15 42 -33 67 -25 35 -35 61 -40 103 -3 32 -13 68 -21 80 -11 15 -16 44 -16
86 0 59 -2 64 -30 80 -23 13 -34 31 -49 82 -29 92 -45 113 -85 106 -26 -5 -37
-1 -55 18 -12 13 -35 26 -51 30 l-29 5 2 93 c2 102 -17 188 -36 169 -6 -6 -31
-11 -55 -11 l-44 0 26 44 26 45 -25 27 c-14 15 -25 35 -25 45 0 16 -3 17 -27
7 -16 -7 -37 -20 -49 -30 -26 -23 -48 -24 -39 0 3 9 12 37 18 60 10 39 10 45
-8 58 -32 24 -55 18 -55 -14 0 -29 -52 -112 -69 -112 -6 0 -6 12 -1 31 14 46
-2 70 -41 62 -49 -9 -85 -51 -102 -115 l-15 -56 34 -48 c18 -26 31 -51 28 -55
-6 -11 -40 5 -70 33 -21 19 -21 19 -27 -3 -6 -22 -6 -22 -39 6 -29 25 -38 27
-86 22 -30 -3 -75 -16 -100 -29 -53 -26 -50 -13 -36 -171 4 -51 1 -80 -11
-115 l-17 -48 30 -59 c16 -33 35 -79 42 -102 12 -38 11 -45 -4 -62 -13 -14
-16 -28 -11 -54 5 -25 2 -42 -9 -59 -9 -12 -16 -33 -16 -45 0 -13 -9 -32 -21
-44 l-21 -21 -45 43 -45 44 7 -37 7 -36 -55 20 c-60 22 -77 45 -77 106 0 20
-13 73 -28 117 -25 73 -30 81 -72 105 -25 14 -54 25 -64 25 -13 0 -22 12 -31
41 -7 23 -25 58 -40 79 -22 27 -25 39 -16 44 15 9 4 33 -48 111 -17 25 -31 55
-31 67 0 12 -4 25 -10 28 -5 3 -10 16 -10 29 0 12 -13 35 -30 51 -16 16 -30
35 -30 42 0 25 -50 27 -82 3 -17 -12 -48 -25 -69 -27 -26 -4 -46 -14 -59 -31
-16 -20 -23 -22 -35 -12 -20 17 -38 4 -25 -20 7 -12 5 -33 -5 -68 -14 -46 -14
-53 5 -93 11 -24 20 -58 20 -76 0 -17 16 -82 35 -144 20 -62 35 -131 34 -153
0 -23 11 -79 25 -125 31 -100 32 -126 6 -169 -11 -18 -20 -49 -20 -70 -1 -58
-19 -123 -45 -164 -18 -28 -23 -45 -19 -68 8 -37 -15 -74 -27 -43 -4 10 -8 33
-8 51 -1 27 -5 32 -26 32 -41 0 -47 -35 -13 -72 15 -17 28 -36 28 -42 0 -19
-58 -106 -76 -113 -23 -8 -82 54 -95 99 -11 43 -24 49 -33 16 -4 -18 -8 -20
-18 -10 -9 9 -9 35 0 120 16 144 15 166 -6 185 -17 15 -20 15 -48 -1 -16 -9
-68 -57 -115 -107 l-84 -90 -29 -127 -29 -126 38 -129 c20 -70 39 -135 42
-144 5 -18 -28 -32 -53 -22 -20 8 -48 66 -69 143 -10 36 -23 74 -28 85 -20 39
-25 -24 -10 -140 12 -99 12 -114 -3 -146 -9 -20 -13 -46 -10 -57 4 -12 2 -29
-5 -39 -9 -15 -6 -43 14 -132 26 -114 26 -141 2 -141 -8 0 -16 20 -20 53 -8
66 -29 131 -72 226 -31 68 -33 79 -24 116 7 30 7 60 -1 106 -6 35 -12 78 -12
94 -1 18 -10 37 -22 47 -12 10 -27 32 -34 50 -8 18 -14 34 -16 36 -1 2 -35
-17 -77 -43 -66 -40 -107 -55 -107 -40 0 3 32 42 71 87 91 106 101 125 97 196
-3 54 -4 57 -31 60 -23 3 -37 -6 -74 -47 -27 -30 -51 -47 -59 -44 -24 9 -16
30 32 89 l46 56 -29 30 c-29 31 -25 31 -128 13 -44 -8 -95 26 -95 63 0 15 -7
38 -16 51 -16 22 -16 24 0 33 38 21 11 82 -57 125 -34 22 -38 27 -23 35 31 17
69 5 91 -29 11 -18 33 -53 49 -78 31 -51 46 -59 122 -68 l51 -6 12 40 c7 22
19 42 27 45 49 15 49 13 19 44 -22 23 -31 27 -42 18 -10 -8 -18 -6 -33 7 -27
24 -25 32 9 40 37 8 118 68 125 92 21 75 19 78 -26 89 -47 10 -54 30 -9 28 23
-1 31 5 45 33 21 44 21 46 -10 83 -17 20 -30 27 -38 22 -9 -7 -87 -9 -106 -3
-3 1 9 13 25 27 30 24 30 25 4 15 -18 -7 -30 -6 -38 2 -8 8 -20 6 -46 -6 -20
-9 -42 -17 -51 -17 -13 0 -42 46 -33 53 12 10 209 67 238 69 l34 3 -28 33
c-24 29 -33 33 -59 27 -107 -22 -136 -15 -136 31 0 12 -5 26 -10 29 -20 12 3
27 31 21 34 -7 35 -3 9 39 -19 31 -22 32 -51 22 -24 -9 -29 -16 -24 -32 19
-60 18 -65 -26 -107 -50 -48 -64 -36 -24 22 22 32 25 42 15 60 l-12 22 -14
-21 c-22 -30 -29 -27 -51 27 -16 37 -18 52 -9 71 8 19 7 26 -9 37 -18 13 -18
16 -2 49 22 45 21 48 -4 40 -19 -6 -21 -4 -15 19 5 20 2 28 -11 32 -10 3 -26
10 -37 16 -13 7 -21 6 -26 -2 -5 -8 -17 0 -36 24 -32 40 -48 44 -76 19 -36
-32 -31 -2 6 36 32 32 36 42 27 58 -21 40 -36 45 -76 26 l-38 -18 -20 26 -19
27 -29 -32 -28 -31 9 33 c10 36 5 39 -29 16 -21 -15 -24 -15 -38 -1 -13 13
-14 21 -4 45 10 24 10 34 -1 51 -11 17 -11 25 1 43 12 19 11 23 -6 37 -11 9
-27 33 -37 54 -9 20 -23 37 -31 37 -30 0 -66 46 -88 114 -12 39 -29 72 -37 74
-12 4 -13 2 -2 -9 17 -18 15 -50 -4 -78 l-16 -23 -64 63 c-58 57 -64 61 -64
39 -1 -15 -18 -44 -45 -73 l-44 -47 -21 39 c-29 51 -129 103 -156 80 -16 -12
-17 -12 -11 4 5 13 1 17 -15 17 -17 0 -19 -3 -10 -12 12 -12 3 -38 -26 -71
-14 -16 -16 -16 -34 0 -14 13 -21 14 -30 5 -9 -9 -8 -15 7 -25 21 -16 13 -37
-15 -37 -13 0 -20 8 -22 28 -2 19 -9 28 -25 30 -28 4 -29 -2 -2 -44 14 -24 28
-34 45 -34 21 0 24 -4 24 -38 0 -21 5 -43 12 -50 9 -9 5 -12 -17 -12 -17 0
-38 -7 -49 -15 -16 -12 -23 -12 -57 6 -46 23 -51 11 -12 -26 46 -44 101 -77
127 -77 13 0 44 7 69 17 34 13 46 23 51 43 3 15 24 42 46 60 35 29 41 31 47
16 4 -12 -2 -25 -20 -40 -27 -23 -35 -58 -17 -69 16 -10 60 22 78 57 28 51 49
68 87 68 41 0 46 -16 10 -32 -15 -7 -27 -23 -31 -42 -3 -17 -13 -43 -20 -58
-13 -25 -12 -27 18 -37 53 -19 76 -13 119 29 44 42 59 44 59 6 0 -15 -13 -33
-35 -50 -19 -15 -35 -31 -35 -35 0 -18 31 -20 71 -6 48 17 95 19 104 5 8 -13
-133 -83 -156 -77 -22 6 -23 3 -7 -23 10 -15 10 -22 0 -32 -11 -11 -19 -7 -41
18 -18 20 -42 34 -67 38 -21 4 -47 14 -58 22 -29 20 -90 17 -142 -6 -24 -11
-56 -25 -70 -30 -22 -9 -25 -14 -19 -38 17 -69 87 -140 167 -167 78 -28 203
-93 215 -114 18 -28 73 -37 111 -17 44 23 54 1 16 -33 -16 -15 -35 -44 -41
-65 -11 -36 -10 -40 13 -58 34 -27 43 -48 60 -135 8 -42 21 -84 29 -93 19 -22
19 -44 0 -36 -11 4 -15 -2 -15 -22 0 -47 -50 -133 -119 -203 -71 -71 -120
-102 -153 -97 -17 2 -10 11 36 42 108 74 156 157 156 271 0 63 -2 71 -22 80
-12 6 -25 21 -29 35 -4 14 -7 19 -8 11 -1 -8 -10 -32 -20 -55 -39 -84 -61
-145 -61 -171 0 -30 -26 -85 -40 -85 -17 0 -11 43 19 148 45 156 46 174 19
231 -12 28 -29 50 -36 51 -8 0 -21 18 -30 40 -13 32 -21 40 -36 36 -11 -3 -26
0 -33 6 -7 6 -13 9 -13 7 -1 -2 -5 -61 -9 -131 -8 -110 -13 -134 -36 -177 -43
-77 -60 -46 -30 53 8 27 15 68 15 90 l0 41 -38 -67 c-20 -36 -54 -86 -74 -110
-31 -36 -38 -40 -44 -25 -4 12 7 35 36 73 40 53 41 56 25 74 -17 19 -17 31 1
103 10 41 -7 32 -49 -26 -20 -28 -55 -72 -77 -97 -60 -69 -52 -21 12 76 48 72
53 84 53 136 -1 41 -6 62 -19 77 -11 12 -22 21 -25 21 -4 0 -19 -24 -33 -53
-23 -48 -30 -54 -57 -54 -25 0 -31 4 -31 22 0 13 10 29 22 37 17 12 23 25 23
56 0 47 -23 77 -75 98 -19 8 -42 27 -51 43 -12 21 -33 34 -80 50 -77 26 -97
26 -129 1 -14 -11 -30 -20 -36 -20 -11 0 -54 -42 -54 -53 0 -4 12 -7 28 -7 42
0 86 -29 131 -86 23 -29 41 -55 41 -58 0 -12 -55 22 -102 63 -49 44 -58 47
-86 31 -9 -5 -30 -15 -46 -20 l-29 -11 33 -34 c19 -19 60 -54 92 -77 32 -23
58 -47 58 -52 0 -5 7 -18 16 -28 32 -34 -11 -31 -87 8 -84 42 -172 74 -203 74
-12 0 -30 -12 -40 -27 -17 -23 -18 -31 -7 -71 6 -24 23 -59 38 -78 40 -53 202
-184 227 -184 12 0 37 -16 56 -34 23 -25 48 -38 82 -45 55 -12 168 -66 168
-81 0 -17 -56 -11 -82 10 -16 12 -49 22 -93 26 -49 5 -74 13 -96 31 -22 19
-35 23 -61 18 -28 -5 -48 2 -128 49 -52 31 -100 56 -107 56 -24 0 -53 -39 -53
-72 0 -39 52 -145 98 -198 44 -52 177 -106 225 -92 18 6 59 11 92 12 101 3
109 4 142 28 37 26 60 23 86 -13 l17 -24 -35 -7 c-35 -6 -35 -7 -20 -30 21
-33 6 -39 -105 -40 -117 0 -190 -12 -190 -29 0 -15 50 -59 90 -80 23 -12 38
-12 84 -3 30 7 59 8 63 4 10 -10 -25 -36 -49 -36 -10 0 -18 -7 -18 -15 0 -10
-10 -15 -30 -15 -30 0 -30 0 -14 -26 16 -23 16 -26 1 -42 -15 -15 -18 -14 -41
7 -21 20 -24 20 -30 5 -5 -13 -9 -15 -18 -6 -18 18 -24 15 -38 -18 -7 -17 -20
-30 -30 -30 -24 0 -34 54 -16 88 17 32 2 72 -27 72 -15 0 -18 5 -13 24 5 22
-2 28 -88 70 -52 25 -107 57 -122 71 -20 19 -31 22 -45 15 -24 -13 -29 -13
-23 3 5 14 -11 31 -46 52 -9 5 -35 23 -58 38 -33 24 -44 27 -61 17 -27 -14
-28 -58 -3 -137 30 -95 52 -120 169 -197 75 -49 111 -80 117 -98 14 -39 0 -46
-32 -16 -60 57 -123 88 -179 88 l-52 0 27 -45 c15 -24 30 -45 33 -45 4 0 38
-31 76 -68 57 -57 77 -70 112 -76 36 -6 41 -9 31 -21 -7 -8 -20 -15 -30 -15
-10 0 -23 -7 -30 -15 -7 -8 -16 -15 -21 -15 -18 0 -89 73 -89 91 0 15 -7 19
-31 19 -42 0 -65 14 -131 78 -41 40 -74 62 -118 78 -55 20 -60 20 -60 4 0 -9
-9 -25 -20 -35 -16 -14 -20 -31 -20 -75 0 -62 -8 -74 -54 -86 -26 -6 -95 -69
-96 -87 0 -4 11 -12 24 -19 19 -8 34 -7 65 6 26 10 77 17 138 18 107 3 148
-10 189 -59 19 -22 24 -23 42 -12 17 11 24 10 47 -5 23 -15 25 -22 19 -49 -14
-63 -12 -70 30 -80 30 -7 58 -5 113 8 73 17 74 17 104 71 29 50 32 53 62 47
18 -3 34 -7 36 -9 2 -2 40 15 84 37 83 42 83 42 180 19 56 -14 70 -10 92 23
14 23 14 28 0 65 -15 36 -15 43 -2 69 8 15 24 37 36 47 21 19 21 19 21 -10 0
-40 9 -50 57 -64 36 -11 46 -11 67 3 14 9 27 30 31 49 11 55 26 98 35 98 4 0
16 -20 26 -44 18 -42 20 -44 36 -29 12 11 18 31 18 60 0 23 3 43 6 43 3 0 15
-11 26 -25 26 -33 38 -32 38 5 0 34 14 38 42 13 17 -15 20 -15 42 6 21 19 24
20 36 6 11 -13 8 -22 -20 -56 -31 -39 -32 -42 -20 -86 6 -25 19 -60 28 -77
l17 -31 3 45 c2 24 8 50 13 57 6 7 7 36 3 72 -3 34 -3 61 0 61 16 0 45 -89 44
-134 -1 -57 8 -69 22 -30 9 21 8 50 0 107 -10 72 -8 97 8 97 27 0 62 -135 62
-237 0 -65 5 -72 42 -52 17 9 19 17 13 55 -7 49 4 58 25 19 7 -14 16 -25 20
-25 3 0 21 20 38 45 32 45 52 51 52 16 0 -10 -10 -30 -21 -45 -24 -30 -20 -41
9 -32 36 12 71 46 90 89 13 29 32 49 60 65 23 13 42 20 42 17 0 -4 -14 -24
-30 -45 -17 -21 -41 -63 -55 -93 -26 -59 -56 -87 -92 -87 -35 0 -103 -31 -103
-46 0 -8 9 -14 20 -14 11 0 37 -16 59 -35 21 -19 43 -35 49 -35 6 0 12 -5 14
-12 6 -18 23 -3 61 55 24 36 34 60 30 77 -5 28 12 80 26 80 5 0 20 -17 32 -37
13 -20 25 -31 27 -25 7 23 30 12 77 -39 29 -31 45 -56 41 -65 -3 -9 -2 -12 4
-9 6 4 35 -4 65 -16 l55 -23 31 23 c27 20 35 22 57 11 l27 -12 -35 -29 c-19
-16 -62 -42 -95 -59 l-60 -29 -17 21 c-14 19 -18 20 -33 8 -9 -7 -14 -22 -12
-32 3 -11 0 -18 -9 -18 -8 0 -14 -7 -14 -15 0 -9 -12 -20 -26 -25 -15 -6 -37
-19 -50 -29 -13 -11 -33 -17 -43 -14 -23 6 -51 -30 -44 -56 3 -14 -4 -21 -28
-30 -17 -6 -40 -11 -50 -11 -9 0 -31 -12 -48 -26 -23 -19 -38 -24 -56 -20 -14
4 -25 2 -25 -3 0 -5 -13 -23 -30 -39 -16 -17 -30 -37 -30 -46 0 -8 -10 -16
-22 -18 -12 -2 -31 -18 -41 -36 l-20 -33 28 -29 27 -28 -31 -18 c-16 -10 -28
-21 -25 -26 9 -13 53 -9 79 8 23 15 26 14 67 -19 57 -45 80 -57 118 -57 17 0
53 -11 81 -26 50 -25 51 -25 102 -8 64 21 161 113 174 165 8 30 13 34 47 37
80 7 102 -69 46 -163 -16 -27 -30 -58 -30 -67 0 -9 -11 -30 -25 -46 l-24 -29
24 -11 c31 -14 32 -43 2 -77 -20 -23 -25 -25 -54 -15 -23 8 -37 8 -52 1 -15
-8 -36 -7 -83 4 -77 18 -115 19 -121 3 -3 -10 -9 -10 -28 -2 -13 6 -49 19 -80
28 -31 9 -62 23 -69 31 -10 13 -16 12 -44 -2 -21 -12 -52 -17 -98 -16 -65 1
-68 0 -98 -33 -36 -41 -36 -43 -9 -89 27 -45 17 -57 -19 -22 -16 15 -33 27
-39 27 -7 0 -21 14 -33 31 -13 17 -28 28 -36 25 -19 -7 -18 18 1 34 16 13 21
60 6 60 -5 0 -14 -7 -21 -15 -8 -10 -21 -13 -33 -9 -12 4 -23 1 -28 -7 -14
-23 -10 -29 16 -29 49 0 24 -31 -46 -55 -24 -9 -53 -25 -65 -36 -19 -17 -22
-18 -34 -4 -19 23 -47 18 -66 -10 -16 -25 -16 -27 6 -50 23 -24 23 -26 7 -60
-20 -43 -41 -46 -35 -6 3 19 0 27 -8 24 -6 -2 -14 6 -17 17 -10 38 -27 11 -27
-41 0 -58 -13 -62 -41 -14 -12 19 -25 35 -30 35 -5 0 2 22 16 50 33 65 32 73
-10 86 -51 16 -62 -1 -45 -70 24 -102 -7 -142 -84 -104 -41 19 -44 24 -39 50
4 21 2 28 -10 28 -10 0 -13 -6 -10 -19 4 -18 0 -19 -54 -15 -57 5 -58 4 -78
-28 -12 -19 -34 -37 -53 -44 -18 -5 -39 -20 -48 -32 -27 -39 -118 -21 -176 35
-26 25 -30 26 -68 14 -24 -7 -56 -28 -78 -51 -20 -22 -45 -40 -54 -40 -21 0
-21 -1 -7 -60 6 -25 19 -55 30 -66 11 -12 33 -49 49 -82 22 -47 38 -66 73 -86
l45 -27 49 20 c27 10 60 17 75 14 31 -6 41 7 48 67 4 40 9 47 44 64 38 19 39
19 82 -3 25 -11 50 -21 57 -21 6 0 22 18 35 40 21 37 26 40 65 40 45 0 226
-46 242 -61 14 -14 41 -11 55 6 10 12 16 12 39 1 35 -18 166 -17 210 2 23 9
37 10 39 4 2 -6 9 -9 16 -6 6 2 22 -9 34 -26 13 -16 27 -30 32 -30 6 0 23 14
39 32 24 27 31 30 44 20 11 -10 17 -9 27 3 10 12 16 13 26 4 11 -9 17 -9 28 0
21 17 37 -9 30 -48 -6 -29 -5 -31 24 -31 46 0 62 -10 62 -36 0 -31 -38 -107
-49 -99 -5 3 -12 -2 -15 -11 -11 -28 -7 -35 13 -25 16 9 20 7 25 -14 4 -14 2
-34 -4 -44 -7 -14 -6 -21 3 -24 7 -3 2 -13 -16 -27 l-28 -22 21 -23 c12 -13
21 -31 20 -41 -10 -89 9 -115 51 -73 21 21 21 21 33 1 6 -10 19 -31 29 -45 16
-23 17 -31 6 -60 -10 -29 -10 -38 3 -56 9 -12 13 -32 10 -43 -4 -19 -2 -20 19
-13 13 4 36 8 50 9 24 1 29 8 48 67 12 37 19 74 15 83 -8 20 13 46 37 46 16 0
17 -4 7 -31 -15 -43 -4 -46 37 -10 20 17 40 31 45 31 5 0 29 14 53 31 25 17
62 33 87 36 l44 6 -37 -45 c-32 -40 -35 -47 -22 -58 20 -17 19 -30 -2 -30 -10
0 -34 -6 -53 -13 -99 -37 -119 -61 -150 -182 -15 -57 -17 -82 -9 -97 6 -10 13
-18 17 -16 4 2 19 10 34 17 16 8 34 10 45 6 10 -5 25 -9 33 -9 9 -1 15 -11 15
-26 0 -26 -22 -36 -80 -40 -22 -1 -40 -13 -67 -46 -21 -25 -38 -49 -38 -53 0
-4 16 -16 35 -26 32 -18 36 -18 68 -3 37 18 177 131 190 154 4 8 31 26 59 40
46 23 56 25 88 15 21 -6 56 -11 78 -11 22 0 63 -5 91 -12 l50 -11 -40 -40
c-38 -39 -41 -39 -90 -33 -28 4 -61 13 -73 21 -19 13 -25 12 -56 -7 -34 -21
-35 -21 -12 -31 42 -19 23 -33 -37 -28 -40 4 -81 -20 -102 -58 -11 -20 -36
-61 -55 -91 -39 -62 -42 -75 -14 -58 26 16 55 -1 54 -31 0 -16 6 -21 25 -22
14 0 35 -4 46 -8 19 -8 19 -8 -3 -20 -29 -16 -28 -31 3 -31 43 0 28 -27 -30
-55 -30 -15 -55 -29 -55 -30 0 -2 7 -11 16 -19 14 -15 14 -16 -4 -16 -11 0
-27 11 -36 25 -14 21 -20 23 -43 14 -19 -7 -28 -6 -34 2 -4 7 -15 9 -25 5 -16
-6 -13 -12 21 -41 33 -28 36 -34 20 -35 -16 0 -17 -2 -6 -9 23 -15 -5 -42 -34
-35 -28 7 -40 -9 -20 -26 22 -18 18 -36 -11 -59 -17 -14 -41 -21 -67 -21 -34
0 -48 -7 -79 -37 l-37 -36 -34 17 c-33 18 -34 18 -86 -8 -39 -20 -56 -36 -67
-63 -16 -37 -15 -37 -98 -17 -19 5 -31 2 -37 -7 -14 -21 -26 4 -34 70 -6 47
-14 64 -50 105 -58 65 -75 59 -75 -26 0 -46 -5 -71 -20 -93 -11 -16 -20 -35
-20 -41 0 -23 29 -47 65 -53 47 -7 56 -27 20 -43 -14 -6 -33 -26 -40 -42 -8
-17 -20 -38 -26 -47 -10 -13 -8 -22 10 -47 20 -29 21 -33 6 -61 -8 -17 -15
-36 -15 -44 0 -25 30 -28 58 -7 24 17 32 18 71 8 38 -10 46 -9 56 5 7 10 18
17 26 17 8 1 25 7 39 15 17 9 29 10 37 3 9 -7 20 -1 39 21 25 30 28 31 50 16
13 -8 30 -15 38 -15 8 0 28 -8 45 -17 25 -15 35 -16 62 -6 25 10 35 9 54 -3
18 -12 32 -12 76 -3 90 18 153 40 170 59 11 12 37 21 78 26 57 6 61 5 61 -14
0 -66 38 -68 117 -5 32 25 63 50 70 55 6 5 34 18 62 28 l51 18 30 -24 29 -25
3 32 c5 49 42 71 132 77 44 3 76 1 76 -5 0 -21 -27 -33 -73 -33 -43 0 -48 -2
-41 -17 4 -10 8 -33 9 -52 2 -30 9 -38 70 -77 38 -24 87 -49 109 -54 60 -15
83 -27 126 -61 52 -42 78 -35 120 33 31 50 31 53 16 79 -19 32 -21 60 -4 77
17 17 23 15 36 -13 20 -44 15 -153 -8 -191 l-21 -32 58 -56 c62 -59 73 -66 73
-40 0 22 34 68 65 88 35 23 31 6 -11 -49 -32 -43 -34 -50 -24 -75 7 -16 52
-67 101 -115 49 -47 89 -90 89 -95 0 -16 129 -101 198 -131 75 -32 158 -37
286 -19 68 10 71 10 93 -15 28 -29 94 -65 121 -65 11 0 25 7 32 15 16 20 30
19 30 -2 0 -14 4 -13 24 6 16 15 29 20 38 15 7 -5 21 -7 31 -6 14 3 17 -5 17
-52 l0 -55 114 -56 c62 -30 116 -55 120 -55 3 0 6 7 6 15 0 27 29 28 63 3 27
-21 37 -23 65 -15 24 7 49 6 95 -6 154 -41 143 -41 284 9 70 25 168 52 217 59
48 8 90 16 93 19 3 3 -7 40 -21 83 -30 91 -31 93 -12 93 21 0 63 -59 82 -114
9 -25 18 -46 21 -46 19 0 177 107 206 140 42 46 80 117 97 180 6 25 29 75 51
111 44 74 44 85 -4 136 -49 53 -21 51 32 -1 l49 -49 34 21 c18 11 44 32 57 46
13 13 29 22 37 19 7 -3 28 4 46 15 18 11 50 23 71 26 21 4 43 16 50 26 14 24
27 26 27 5 0 -20 24 -19 40 0 10 12 15 13 21 4 4 -8 22 -9 54 -5 46 7 46 8 29
27 -15 17 -16 24 -6 53 7 18 12 50 12 72 1 21 7 53 14 69 12 26 15 27 21 12 5
-12 14 -16 26 -12 16 5 19 1 19 -25 0 -17 4 -29 9 -25 13 7 71 93 71 104 0 9
43 51 52 51 4 0 9 -18 13 -40 4 -22 10 -38 15 -35 4 3 13 -8 18 -25 10 -26 14
-29 40 -24 29 6 30 4 42 -46 7 -28 19 -54 26 -57 8 -3 14 -12 14 -20 0 -9 17
2 40 26 23 23 45 41 50 41 6 0 10 7 10 15 0 10 10 15 34 15 38 0 109 49 207
142 49 46 58 60 63 101 7 46 8 47 42 47 24 0 50 10 80 32 40 28 43 33 29 48
-13 14 -11 18 14 33 22 13 30 14 34 5 3 -8 26 8 61 42 31 30 54 61 51 68 -8
20 43 66 59 53 9 -8 28 -2 72 24 32 20 66 43 74 53 9 9 29 24 45 32 17 9 41
32 54 52 20 31 26 35 42 25 15 -9 27 -7 64 11 25 12 53 22 63 22 9 0 24 5 32
10 12 7 12 12 2 22 -6 6 -12 19 -12 27 0 11 4 11 19 -3 18 -17 21 -17 55 -1
20 10 33 22 30 27 -4 5 -1 21 7 34 10 19 10 27 1 36 -16 16 -15 45 1 51 10 3
10 9 0 26 -16 26 -17 51 -2 51 17 0 69 -57 69 -77 0 -15 2 -16 10 -3 9 13 13
12 30 -9 11 -13 20 -31 20 -42 0 -21 22 -38 28 -21 2 7 15 -1 29 -18 27 -33
50 -38 59 -15 4 8 13 15 21 15 22 0 68 -29 83 -53 10 -17 10 -22 -4 -33 -20
-14 -6 -27 18 -18 15 6 76 85 76 98 0 3 -9 6 -20 6 -11 0 -23 7 -26 15 -7 18
51 88 80 95 29 8 32 37 6 65 -18 20 -20 26 -10 45 12 22 13 22 34 -15 11 -21
26 -40 32 -42 6 -2 30 25 53 61 23 35 49 67 57 70 33 13 78 5 110 -19 39 -30
44 -31 44 -7 0 9 7 26 15 36 11 15 12 23 3 33 -8 10 -5 25 16 63 26 47 26 51
11 74 -9 14 -14 30 -10 36 10 16 -23 24 -41 10 -22 -19 -35 0 -40 55 -6 78 22
101 89 76 29 -11 67 10 67 38 0 10 -18 35 -41 56 -31 29 -38 40 -27 46 26 17
92 9 132 -16 32 -19 42 -21 57 -12 28 18 23 30 -24 52 -33 16 -49 33 -72 77
-17 32 -44 71 -60 88 -24 25 -27 34 -18 49 9 15 7 22 -10 40 -16 16 -18 21 -6
21 24 0 124 -115 142 -162 3 -10 21 -27 39 -39 56 -35 184 -12 245 45 l35 32
-46 44 c-25 25 -46 53 -46 64 0 16 5 18 35 13 19 -3 37 -1 40 4 4 5 20 7 36 4
17 -3 49 0 71 6 l42 11 -31 15 c-37 17 -69 50 -60 60 4 3 32 0 62 -7 53 -13
56 -12 80 10 14 13 25 34 25 46 0 30 -64 68 -147 87 -74 17 -113 40 -113 67 0
11 1 20 3 20 1 0 24 -7 51 -15 27 -8 67 -15 89 -15 24 0 50 -8 68 -21 25 -17
38 -20 75 -14 56 8 57 28 2 44 -30 9 -63 34 -112 83 -62 62 -76 71 -125 80
-31 6 -89 13 -130 14 -48 2 -79 8 -89 18 -24 24 -7 35 42 24 35 -7 51 -6 75 6
16 9 44 16 61 16 l31 0 -23 39 c-12 22 -20 42 -17 46 4 3 29 -9 57 -27 29 -18
70 -44 93 -58 23 -14 55 -43 71 -65 32 -43 51 -52 114 -54 55 -1 79 17 71 56
-5 27 -1 35 43 72 54 45 62 70 30 92 -18 12 -19 18 -9 50 8 24 8 42 2 54 -8
14 -15 7 -45 -46 -37 -68 -64 -90 -56 -45 5 23 2 26 -23 26 -33 0 -36 7 -11
26 16 13 16 13 0 14 -10 0 -18 5 -18 10 0 6 -9 10 -21 10 -37 0 -18 33 25 42
50 11 66 24 66 55 0 24 -1 24 -92 23 -51 0 -113 0 -138 1 -25 2 -66 -1 -92 -6
-40 -6 -48 -5 -48 7 0 25 118 58 209 58 99 0 133 12 164 58 44 67 42 74 -15
100 -41 18 -54 20 -66 10 -8 -7 -45 -13 -86 -13 -56 0 -83 -6 -130 -28 -32
-15 -61 -25 -64 -23 -11 12 10 55 30 62 13 4 40 19 62 33 28 18 58 28 99 31
82 7 84 24 8 58 -34 15 -60 31 -58 37 2 5 34 10 71 10 59 1 70 4 94 28 24 24
25 30 14 48 -12 18 -11 24 7 40 20 19 20 21 5 60 -16 39 -16 41 5 63 30 32 38
88 16 106 -10 8 -25 15 -34 15 -9 0 -17 10 -19 22 -5 37 -31 36 -53 -2 -12
-19 -27 -35 -34 -35 -24 0 -45 31 -45 65 0 24 -5 34 -20 38 -28 7 -36 35 -16
50 24 18 10 44 -26 49 -23 4 -39 -3 -76 -34 -55 -45 -72 -48 -73 -10 -1 16 -3
20 -6 10 -2 -10 -8 -18 -13 -18 -13 0 -32 29 -25 40 3 5 -1 10 -10 10 -27 0
-99 40 -122 68 l-23 27 -90 -90 c-81 -81 -90 -87 -90 -63 0 16 16 46 43 78 23
29 53 68 66 87 l24 34 -29 32 c-59 63 -58 59 -25 137 17 40 31 75 31 80 0 8
-103 -10 -110 -20 -11 -15 -50 -30 -79 -30 -55 0 -125 -24 -189 -64 l-64 -39
-20 21 -21 20 22 37 c27 47 27 51 -5 26 -15 -12 -31 -21 -35 -21 -17 0 -9 27
16 50 15 14 31 48 42 91 13 52 23 71 39 76 36 13 119 118 137 174 26 79 22
121 -20 206 -53 109 -93 121 -134 41 -35 -69 -57 -75 -85 -23 -16 31 -23 35
-46 30 -15 -4 -39 0 -55 8 -17 9 -36 11 -48 7 -35 -13 -45 6 -28 50 20 50 12
74 -24 67 -34 -6 -73 19 -73 48 0 27 26 51 66 59 16 4 60 33 96 66 97 88 102
133 21 195 l-45 34 63 41 c35 22 75 43 89 47 14 3 41 23 60 43 22 24 57 45 95
59 33 11 78 30 100 40 l40 20 -33 0 c-18 1 -50 -8 -72 -19 -51 -26 -57 -26
-114 10 -42 27 -52 30 -80 20 -45 -15 -104 -66 -121 -106 -22 -54 -103 -141
-147 -159 -21 -8 -60 -15 -86 -15 -26 0 -53 -5 -60 -12 -15 -15 -15 -59 -1
-108 10 -32 8 -43 -15 -89 l-27 -52 -30 18 c-17 10 -36 31 -43 47 -8 19 -23
32 -46 40 -22 7 -36 19 -38 31 -2 11 -13 30 -25 43 -18 19 -22 20 -29 8 -6
-10 -22 -15 -44 -14 -45 2 -73 36 -56 72 9 21 8 22 -14 18 -13 -2 -24 0 -24 6
0 6 -10 12 -22 14 -36 5 -33 40 5 63 59 37 86 133 58 208 -8 20 -19 27 -48 32
-84 14 -92 17 -87 29 3 9 -8 12 -38 12 l-43 -1 -11 54 c-10 41 -10 58 -1 72 7
11 15 19 18 19 4 0 2 11 -4 25 -7 14 -18 25 -24 25 -7 0 -13 8 -13 18 -1 20
-46 56 -60 47 -6 -3 -10 -13 -10 -21 0 -18 -2 -18 -42 5 -61 35 -77 36 -91 4z"/>
<path d="M2306 6183 c-6 -14 -5 -15 5 -6 7 7 10 15 7 18 -3 3 -9 -2 -12 -12z"/>
<path d="M8567 3600 c-3 -12 0 -20 8 -20 8 0 11 8 8 20 -3 11 -7 20 -8 20 -1
0 -5 -9 -8 -20z"/>
</g>
</svg>
