<?xml version="1.0" standalone="no"?>
<!DOCTYPE svg PUBLIC "-//W3C//DTD SVG 20010904//EN"
 "http://www.w3.org/TR/2001/REC-SVG-20010904/DTD/svg10.dtd">
<svg version="1.0" xmlns="http://www.w3.org/2000/svg"
 width="1024.000000pt" height="1024.000000pt" viewBox="0 0 1024.000000 1024.000000"
 preserveAspectRatio="xMidYMid meet">
<metadata>
Created by potrace 1.10, written by Peter Selinger 2001-2011
</metadata>
<g transform="translate(0.000000,1024.000000) scale(0.100000,-0.100000)"
fill="#000000" stroke="none">
<path d="M9206 9344 c-27 -15 -28 -18 -22 -67 13 -99 13 -100 -16 -115 -21 -9
-28 -21 -28 -40 0 -15 -6 -37 -14 -48 -8 -11 -20 -57 -27 -102 -15 -96 -34
-123 -73 -102 -28 15 -46 5 -91 -49 l-29 -33 -140 7 c-76 4 -156 13 -177 20
-20 8 -58 17 -84 21 -38 5 -58 17 -106 61 -76 71 -79 98 -14 155 27 24 58 66
80 111 20 39 44 81 54 92 10 11 22 30 26 43 5 18 3 22 -18 22 -13 0 -34 -12
-48 -26 -13 -14 -44 -37 -69 -50 -25 -13 -63 -37 -85 -53 -22 -16 -50 -32 -62
-36 -19 -5 -23 -2 -23 15 0 36 -36 76 -84 94 l-45 17 -45 -30 c-65 -45 -119
-54 -208 -36 -40 9 -81 18 -90 21 -16 5 -18 -2 -18 -45 l0 -49 -67 -7 c-42 -3
-104 -20 -160 -42 -89 -35 -93 -37 -93 -67 0 -17 -3 -41 -6 -53 -5 -18 -2 -23
13 -23 24 0 43 -19 43 -42 0 -17 8 -18 115 -11 l116 6 32 -31 c18 -18 57 -40
87 -50 l55 -19 3 -48 c2 -26 -2 -60 -7 -74 -8 -19 -7 -48 3 -108 l15 -83 -31
-65 c-20 -43 -40 -70 -57 -80 -15 -7 -33 -21 -40 -29 -8 -9 -24 -16 -37 -16
-22 0 -24 -4 -24 -46 0 -46 0 -46 23 -30 55 39 54 40 50 -22 -2 -31 -13 -96
-24 -143 -25 -111 -24 -123 6 -143 43 -28 46 -47 18 -108 -32 -72 -68 -90
-167 -86 l-68 3 -19 75 c-24 96 -66 139 -155 158 l-59 12 -54 96 -54 97 17 46
c10 25 20 80 23 123 l6 76 -31 16 c-26 14 -42 14 -112 4 -70 -10 -84 -15 -105
-40 -20 -23 -25 -41 -25 -82 0 -49 -3 -55 -47 -98 -44 -43 -57 -49 -166 -78
-66 -17 -125 -29 -133 -26 -8 3 -14 20 -14 42 0 23 -10 53 -27 80 -24 38 -33
44 -63 44 -24 0 -51 -11 -86 -35 l-52 -36 -37 26 c-21 14 -43 25 -50 25 -7 0
-18 7 -25 15 -14 17 -56 20 -65 5 -4 -6 -33 -24 -66 -40 -32 -17 -59 -34 -59
-38 0 -18 48 -52 72 -52 30 0 38 -15 38 -76 0 -59 -33 -109 -91 -139 -57 -30
-76 -20 -87 45 -7 39 -11 45 -40 54 -31 9 -36 6 -76 -33 -34 -34 -42 -47 -38
-70 3 -26 -2 -32 -42 -56 -26 -15 -45 -32 -43 -39 2 -6 25 -13 52 -16 37 -4
52 -11 68 -32 20 -27 20 -28 2 -88 l-18 -60 -72 0 c-60 0 -76 -4 -105 -25 -18
-13 -48 -29 -67 -36 -39 -12 -42 -31 -9 -48 46 -25 48 -51 8 -115 l-37 -59
-65 6 c-84 7 -92 11 -115 53 -11 20 -35 47 -55 60 l-35 25 -25 -29 c-14 -16
-30 -37 -35 -47 -10 -16 -14 -15 -61 14 -47 29 -58 31 -140 31 -58 -1 -98 -6
-114 -15 -14 -8 -44 -14 -67 -15 -35 0 -45 5 -63 29 -18 27 -23 29 -50 20 -48
-17 -73 -132 -54 -249 l6 -36 57 59 57 59 53 -11 c28 -6 75 -11 104 -11 29 0
82 -7 119 -16 60 -15 68 -19 73 -45 10 -46 -5 -108 -35 -142 -20 -24 -29 -47
-33 -92 -8 -74 -55 -220 -83 -260 -12 -17 -37 -86 -57 -155 -19 -69 -40 -137
-45 -151 -11 -29 -55 -49 -105 -49 -16 0 -69 -18 -118 -40 -87 -39 -91 -40
-203 -40 -66 0 -117 4 -121 10 -12 20 -23 9 -30 -30 -4 -22 -11 -42 -16 -45
-4 -3 -30 6 -56 20 -26 14 -56 25 -66 25 -16 0 -16 -2 -3 -28 8 -16 22 -34 30
-41 11 -9 16 -31 16 -70 0 -52 -3 -58 -28 -73 -39 -23 -68 -13 -96 34 -13 21
-38 49 -56 62 -33 22 -34 24 -31 85 l2 63 -43 -7 c-63 -11 -75 -20 -82 -64
l-6 -41 -63 7 c-47 4 -71 13 -99 35 -31 25 -42 28 -77 22 -23 -4 -44 -11 -47
-16 -12 -19 8 -61 49 -102 40 -39 50 -44 122 -55 147 -24 183 -80 187 -288 l3
-128 -37 -66 c-40 -70 -148 -181 -231 -236 -33 -21 -79 -39 -145 -54 -53 -12
-113 -30 -133 -40 -48 -24 -143 -39 -251 -39 -92 0 -153 17 -223 62 -31 20
-35 28 -35 65 0 40 -2 43 -46 62 l-46 21 4 47 3 47 -62 15 c-34 9 -65 19 -69
24 -4 4 -19 7 -33 7 l-26 0 3 -87 4 -88 -67 -39 c-88 -51 -110 -92 -95 -173
17 -95 14 -109 -55 -228 -64 -109 -67 -113 -122 -137 -52 -23 -61 -24 -122
-13 -81 14 -177 63 -248 128 l-53 49 -55 -21 c-34 -13 -79 -21 -117 -21 -53 0
-66 -4 -107 -34 -25 -19 -64 -58 -86 -87 -54 -69 -188 -169 -229 -169 -17 0
-47 -3 -66 -6 -31 -5 -37 -3 -47 19 -8 17 -27 30 -61 41 -27 9 -60 28 -72 41
-36 39 -105 32 -94 -9 3 -13 -4 -63 -16 -113 -16 -71 -27 -96 -51 -118 -16
-16 -29 -37 -29 -46 0 -16 12 -19 93 -21 90 -3 92 -4 95 -28 2 -14 12 -34 23
-46 17 -18 28 -20 104 -16 68 4 85 2 85 -9 0 -8 9 -20 21 -27 11 -7 47 -68 79
-135 l58 -122 21 -203 c18 -172 20 -214 10 -285 -8 -55 -8 -102 -2 -142 8 -54
6 -66 -18 -125 -70 -172 -95 -214 -147 -253 l-50 -38 -4 -87 c-3 -83 -5 -90
-45 -148 -56 -81 -127 -144 -218 -190 l-74 -39 -52 18 c-38 14 -65 17 -112 12
-34 -4 -72 -3 -84 2 -13 5 -37 38 -60 83 -32 63 -43 76 -68 81 -37 7 -65 -14
-65 -49 0 -24 -2 -25 -52 -18 -29 3 -72 6 -95 6 -41 0 -44 2 -68 51 -17 32
-24 58 -19 71 7 24 -1 20 -62 -29 -30 -24 -51 -33 -78 -33 -41 0 -41 -1 -21
-39 14 -27 12 -33 -30 -121 -52 -105 -66 -180 -43 -226 22 -42 29 -104 17
-147 -12 -45 3 -79 65 -141 23 -24 55 -68 71 -99 27 -51 31 -54 53 -46 14 5
26 8 27 7 1 -2 12 -20 24 -40 20 -33 25 -37 53 -31 35 7 58 -14 58 -53 0 -12
21 -64 46 -115 43 -87 47 -92 60 -74 8 11 16 29 18 40 15 80 22 98 43 106 18
7 26 2 43 -27 12 -18 27 -34 33 -34 6 0 3 -6 -7 -13 -18 -13 -17 -15 2 -54 12
-22 32 -47 46 -57 26 -16 26 -16 26 14 0 18 6 33 15 36 24 10 71 -15 84 -43
12 -26 12 -26 27 -5 8 11 30 26 49 32 19 6 37 20 40 31 10 30 68 26 83 -5 8
-18 26 -29 67 -40 70 -21 114 -10 181 46 82 67 104 70 134 13 20 -37 58 -30
87 15 12 19 48 65 80 103 49 57 62 67 90 67 31 0 33 -2 33 -37 0 -55 12 -70
47 -57 21 7 30 19 37 47 9 35 12 37 48 37 55 0 98 -47 98 -107 0 -40 2 -43 38
-52 20 -6 53 -11 73 -11 20 0 51 -3 68 -6 29 -6 31 -9 31 -51 0 -44 1 -45 29
-41 23 3 32 -1 46 -24 18 -31 29 -34 65 -13 14 8 43 15 65 15 22 0 51 7 65 15
42 24 92 18 138 -15 23 -17 42 -34 42 -40 0 -5 14 -17 32 -26 27 -14 39 -15
83 -4 44 11 56 10 81 -3 42 -22 54 -38 62 -88 7 -41 11 -46 67 -76 71 -38 79
-40 65 -12 -22 40 -6 49 46 30 37 -14 55 -16 83 -9 69 19 170 -35 212 -115
l20 -38 32 18 c21 13 34 29 37 48 l5 30 24 -35 c14 -19 26 -37 29 -40 2 -3 9
3 16 13 21 28 123 77 160 77 49 0 56 -27 17 -62 -22 -20 -31 -37 -31 -58 0
-27 6 -34 42 -50 24 -11 62 -20 85 -20 38 0 45 4 82 52 29 35 38 55 31 62 -16
16 -12 24 18 39 45 24 100 29 158 16 52 -12 67 -23 99 -72 9 -14 19 -12 80 18
59 29 73 33 93 23 15 -8 22 -21 23 -42 0 -17 6 -46 13 -65 l12 -34 20 27 c15
21 32 28 83 37 35 5 73 15 84 21 26 14 80 4 116 -21 28 -20 28 -20 46 -1 30
33 59 25 102 -27 21 -27 44 -60 50 -74 7 -16 30 -35 57 -49 40 -19 50 -20 83
-10 57 18 60 26 27 61 -24 25 -29 39 -29 80 0 38 -5 54 -19 65 -14 10 -20 27
-21 64 l-2 50 34 -21 c29 -18 43 -21 91 -14 31 4 102 10 157 15 55 4 110 11
123 15 l22 7 -25 34 -25 33 26 20 26 20 33 -34 c34 -37 55 -45 55 -21 0 7 9
35 21 61 l21 47 -21 22 c-22 23 -27 61 -11 86 6 10 21 14 46 11 l36 -3 -7 44
c-4 23 -15 62 -26 86 l-18 43 22 8 c22 8 32 2 133 -82 30 -26 33 -34 36 -90 2
-49 6 -62 21 -65 15 -3 17 5 17 57 0 42 4 61 13 61 75 -1 255 -23 283 -35 45
-19 82 -11 114 25 32 36 61 44 86 25 19 -15 19 -15 -1 -30 -19 -15 -19 -16 5
-32 14 -10 36 -28 49 -41 17 -17 27 -20 34 -13 29 29 91 1 112 -51 15 -38 15
-39 -11 -61 l-26 -22 21 -84 c26 -103 57 -162 96 -180 49 -23 64 -41 71 -88 3
-24 17 -57 30 -73 18 -20 24 -40 24 -74 0 -25 2 -46 4 -46 27 0 55 24 61 52 5
21 24 47 51 71 24 21 44 45 44 52 0 7 16 25 36 40 34 26 35 27 19 52 -16 23
-16 28 0 69 18 48 30 50 40 4 7 -33 9 -35 46 -43 21 -5 28 -2 38 19 11 25 12
25 36 10 25 -16 25 -16 31 23 5 30 12 41 27 43 38 6 29 28 -37 96 -54 56 -67
77 -76 118 -20 92 24 139 69 75 12 -16 37 -39 56 -51 19 -11 37 -30 40 -40 4
-14 15 -20 36 -20 24 0 32 6 40 30 15 40 39 39 39 -1 0 -27 2 -30 15 -19 19
16 20 104 1 157 -9 26 -11 45 -4 56 13 25 55 21 69 -5 21 -41 70 -98 84 -98 7
0 16 13 20 30 3 16 23 46 44 67 24 24 41 52 45 75 6 30 12 39 41 48 19 6 46
25 60 42 25 30 28 30 65 19 22 -6 46 -21 55 -33 12 -18 23 -22 56 -19 35 2 46
-2 75 -30 28 -27 38 -31 65 -25 17 3 37 13 43 22 8 10 34 18 74 21 l63 6 -7
-29 c-16 -68 -49 -139 -79 -173 -30 -33 -32 -40 -28 -87 6 -61 -18 -145 -54
-188 -23 -27 -23 -29 -7 -47 14 -15 25 -18 52 -13 34 7 35 6 30 -22 -3 -16 -8
-37 -13 -46 -5 -13 0 -21 18 -29 19 -9 27 -22 32 -51 6 -31 10 -38 23 -33 10
4 40 11 67 17 45 9 52 14 69 50 16 33 22 39 43 35 18 -3 23 -1 19 9 -3 8 -8
20 -11 26 -4 12 91 78 113 78 5 0 23 -15 40 -34 17 -19 44 -42 61 -50 l31 -17
0 56 c0 31 -5 65 -10 76 -8 14 -6 27 6 51 10 19 19 66 22 111 4 74 6 78 26 72
11 -3 36 -8 53 -12 21 -4 35 -13 39 -27 3 -11 12 -28 19 -36 7 -8 15 -24 18
-35 2 -11 5 4 6 33 1 32 -5 62 -14 76 -14 21 -13 26 10 61 25 36 25 38 8 59
-10 11 -31 33 -48 47 -30 27 -30 28 -27 119 3 107 -3 121 -74 172 -25 18 -55
50 -65 70 l-19 38 34 38 c32 35 34 40 19 54 -12 12 -22 14 -40 7 -34 -13 -43
-4 -43 42 0 22 -6 50 -14 62 -8 12 -18 53 -21 90 l-7 68 -45 21 c-25 12 -60
36 -79 53 -46 43 -47 94 -4 153 17 23 32 42 34 42 2 0 24 -11 49 -25 l45 -26
-4 43 c-3 24 -10 66 -16 95 -15 71 -4 198 24 270 20 51 23 82 28 270 3 116 7
213 10 215 20 16 96 29 148 26 34 -1 62 0 62 4 0 4 -14 23 -31 43 -30 34 -31
39 -26 93 5 48 3 64 -14 92 -34 57 -80 99 -154 142 -108 63 -115 71 -115 140
0 46 3 58 16 58 8 0 79 18 156 41 179 51 231 58 258 34 11 -10 27 -42 36 -72
8 -29 17 -53 18 -53 1 0 24 7 50 16 41 14 47 20 42 38 -3 11 -13 51 -23 88
l-17 68 44 45 c29 29 41 48 34 55 -6 6 -30 -9 -69 -44 -33 -29 -75 -61 -94
-71 l-34 -17 -31 35 c-50 57 -68 62 -126 32 -41 -21 -51 -23 -56 -11 -4 10
-14 12 -42 5 -20 -5 -40 -9 -44 -9 -4 0 -16 21 -27 46 -19 41 -19 48 -6 74 13
25 13 33 -1 66 -19 47 -14 117 11 144 23 25 32 25 40 0 5 -16 15 -20 54 -20
47 0 48 -1 95 -65 43 -59 86 -98 86 -78 0 4 -7 33 -15 63 -8 30 -15 56 -15 58
0 1 5 2 12 2 7 0 34 -21 60 -46 45 -45 48 -47 77 -34 17 7 31 17 31 23 0 5
-25 46 -55 91 -45 67 -58 98 -79 181 -14 56 -35 122 -46 148 -19 43 -24 47
-55 47 -30 0 -35 3 -35 23 0 13 -14 36 -31 53 -25 24 -39 29 -78 29 -46 0 -49
2 -104 65 l-57 65 1 80 c0 136 19 213 73 299 37 59 50 92 58 144 21 131 23
136 112 226 46 46 92 87 104 90 11 4 32 24 47 46 15 22 44 52 64 67 32 25 46
29 141 34 58 3 119 11 135 17 17 6 84 23 150 38 66 14 144 34 173 45 69 24
139 24 237 -1 43 -11 95 -20 116 -20 32 0 39 4 51 30 7 17 22 33 33 36 94 26
117 62 159 245 5 23 1 28 -27 40 -17 7 -44 21 -59 31 -20 14 -45 18 -116 18
l-90 0 -3 38 c-6 53 0 82 16 82 8 0 21 15 30 33 10 22 27 37 50 46 39 14 75
54 75 83 0 12 12 24 33 33 17 7 43 25 56 39 22 23 23 31 18 93 -4 36 -11 71
-17 77 -21 21 -10 58 27 92 32 30 37 40 34 72 -1 20 -8 46 -15 57 -11 17 -36
101 -36 120 0 3 30 2 67 -1 54 -6 71 -12 90 -33 12 -14 23 -38 23 -53 0 -33
25 -38 35 -7 7 20 9 20 44 -14 44 -42 75 -55 67 -29 -2 9 -8 28 -11 42 -4 14
-17 35 -28 47 -20 22 -20 27 -8 133 14 126 30 191 61 255 14 28 20 56 17 73
-26 140 -26 144 -11 180 19 46 11 84 -27 127 -16 18 -36 52 -44 75 -13 37 -13
46 1 78 l15 37 -35 30 c-63 54 -69 118 -20 196 l24 39 -34 68 c-44 87 -60 146
-47 170 8 15 5 24 -17 45 -24 23 -29 24 -46 11 -34 -24 -70 -18 -90 18 l-19
31 -16 -41 c-20 -50 -46 -71 -88 -72 -25 0 -36 -7 -50 -30 -15 -25 -23 -30
-58 -30 -22 0 -54 8 -70 18 -34 21 -112 47 -167 57 -36 6 -38 8 -38 44 0 27
-7 44 -25 61 -14 13 -25 28 -25 33 0 5 -9 22 -20 38 -20 26 -20 30 -5 53 16
24 15 25 -22 50 -43 30 -57 31 -97 10z"/>
</g>
</svg>
