<?xml version="1.0" standalone="no"?>
<!DOCTYPE svg PUBLIC "-//W3C//DTD SVG 20010904//EN"
 "http://www.w3.org/TR/2001/REC-SVG-20010904/DTD/svg10.dtd">
<svg version="1.0" xmlns="http://www.w3.org/2000/svg"
 width="1024.000000pt" height="1024.000000pt" viewBox="0 0 1024.000000 1024.000000"
 preserveAspectRatio="xMidYMid meet">
<metadata>
Created by potrace 1.10, written by Peter Selinger 2001-2011
</metadata>
<g transform="translate(0.000000,1024.000000) scale(0.100000,-0.100000)"
fill="#000000" stroke="none">
<path d="M3330 9529 l0 -711 -217 6 c-481 13 -829 17 -845 11 -13 -5 -18 -18
-18 -45 0 -41 1 -42 67 -55 21 -4 51 -26 87 -63 53 -54 55 -56 74 -39 15 14
29 16 61 11 55 -9 80 -30 100 -85 13 -34 28 -51 68 -78 45 -28 54 -40 67 -83
25 -88 51 -115 143 -150 l81 -31 7 -43 c4 -27 14 -50 28 -61 40 -32 80 -93 92
-141 12 -46 13 -47 61 -57 28 -5 63 -20 78 -32 41 -33 56 -30 56 12 0 32 3 35
29 35 40 0 59 -25 37 -49 -16 -17 -14 -21 42 -79 50 -50 67 -62 112 -71 29 -6
64 -20 77 -31 19 -15 41 -20 83 -20 l57 0 12 -41 c10 -34 19 -43 58 -60 75
-32 100 -56 191 -178 l86 -116 1 -67 c0 -64 1 -67 25 -70 20 -2 24 -8 22 -28
-2 -14 -6 -51 -9 -83 l-5 -57 36 -15 c40 -17 42 -23 21 -51 -21 -28 -19 -31
33 -38 26 -4 72 -12 102 -17 30 -5 80 -13 110 -17 72 -10 80 -16 80 -62 l0
-38 69 -7 c48 -5 75 -13 86 -25 9 -10 23 -16 30 -13 10 3 16 -7 21 -34 3 -21
11 -44 17 -51 12 -15 12 -14 -33 -37 l-34 -18 29 -24 30 -24 -58 -51 -58 -51
28 -13 c20 -9 23 -13 9 -13 -14 -1 -17 -6 -13 -23 5 -18 -1 -28 -28 -46 -42
-27 -44 -39 -9 -48 l25 -6 -21 -23 c-12 -13 -24 -41 -27 -62 -5 -36 -2 -41 31
-63 l35 -25 -25 -26 -25 -26 28 -21 c27 -20 27 -21 6 -22 -26 0 -58 -43 -49
-65 3 -8 15 -15 26 -15 17 0 20 -4 15 -22 -4 -13 -10 -26 -14 -30 -3 -4 -699
-3 -1545 2 -1449 9 -1540 8 -1552 -8 -31 -41 -246 -410 -551 -942 -181 -316
-396 -680 -476 -809 -96 -152 -147 -243 -147 -260 0 -20 46 -89 165 -247 90
-120 165 -226 165 -234 0 -8 -13 -37 -29 -63 -23 -39 -41 -55 -92 -80 l-64
-32 3 -139 4 -138 -30 -32 c-83 -86 -99 -144 -62 -216 11 -22 20 -50 20 -63 0
-13 9 -61 21 -106 25 -100 20 -157 -16 -191 -26 -25 -45 -76 -45 -123 0 -20
-11 -39 -40 -64 -22 -20 -40 -44 -40 -54 0 -15 -6 -17 -30 -12 -16 3 -30 2
-30 -2 0 -22 77 -107 118 -131 66 -38 334 -240 412 -311 70 -63 437 -361 498
-404 55 -39 137 -88 227 -135 44 -24 117 -74 161 -112 92 -78 278 -184 427
-243 54 -22 130 -55 169 -75 39 -20 167 -65 284 -100 166 -50 250 -69 385 -89
200 -29 280 -30 514 -10 144 13 395 19 713 16 161 -1 450 -88 712 -214 85 -41
194 -91 241 -110 77 -32 356 -127 372 -127 13 0 7 33 -9 51 -11 12 -16 40 -17
95 -2 99 14 130 103 198 36 27 66 51 67 55 1 3 7 24 12 47 10 38 16 44 115 97
103 56 141 89 184 159 18 29 29 36 64 41 26 4 48 14 58 27 9 12 34 25 55 30
36 8 46 5 118 -36 95 -53 107 -49 107 35 1 47 8 70 48 146 45 85 51 92 137
152 89 63 90 64 145 58 42 -4 67 -1 110 16 30 12 59 25 63 29 8 7 -20 184 -33
209 -4 8 -27 22 -51 32 -53 20 -61 44 -24 73 25 20 26 22 11 51 -17 31 -13 78
6 102 17 21 76 16 83 -6 3 -11 13 -25 21 -32 13 -10 24 -4 68 40 l53 53 53
-16 c58 -17 59 -17 125 37 l30 25 48 -24 c26 -14 52 -22 57 -19 6 4 10 23 10
43 0 60 9 78 46 91 22 8 44 27 59 51 13 21 46 61 72 88 26 28 60 64 74 81 26
30 28 31 117 31 77 0 93 3 100 18 6 9 12 71 14 137 3 70 11 132 18 148 13 26
12 30 -28 70 -33 34 -42 50 -42 78 0 27 -14 54 -65 123 -56 75 -65 94 -65 130
0 38 4 45 40 72 46 33 98 128 107 193 5 34 2 46 -16 65 -19 21 -22 31 -16 72
4 27 18 65 31 86 21 32 38 42 176 96 84 33 180 69 213 81 49 18 90 49 220 163
166 145 308 246 482 342 87 48 114 70 188 150 77 84 91 95 130 100 37 6 47 13
67 45 13 21 127 131 253 245 154 138 236 219 249 244 13 28 34 47 77 71 32 18
61 36 64 42 4 5 28 9 56 9 l49 0 0 39 c0 29 6 43 23 54 l22 16 -25 20 c-14 12
-59 38 -100 60 -42 22 -88 53 -103 70 -24 27 -237 141 -264 141 -6 0 -41 23
-79 51 -38 28 -78 56 -89 61 -11 6 -55 44 -98 84 -86 81 -154 112 -202 94 -29
-11 -29 -11 -14 -44 7 -15 42 -43 85 -67 48 -28 77 -51 84 -69 8 -19 23 -31
50 -39 41 -12 86 -62 74 -82 -7 -11 -79 -7 -133 8 -22 6 -23 4 -17 -23 20 -91
20 -90 -22 -151 -23 -32 -47 -79 -53 -105 -11 -39 -19 -49 -50 -63 -21 -10
-42 -14 -48 -11 -16 10 -13 42 5 56 9 8 14 25 12 44 -3 26 -12 35 -59 61 -30
16 -92 50 -137 74 -54 30 -84 53 -92 70 -10 24 -33 43 -99 80 -18 10 -54 14
-118 14 -92 -2 -93 -1 -134 33 -40 33 -43 34 -134 34 -64 0 -113 6 -157 20
-64 20 -190 23 -231 5 -19 -8 -103 2 -128 16 -12 6 -23 1 -39 -16 -17 -18 -34
-25 -63 -25 l-39 0 6 93 c3 50 11 196 16 322 11 240 33 642 75 1350 52 875 66
1421 58 2281 l-6 781 -75 7 c-41 3 -1033 6 -2204 6 l-2128 0 0 -711z"/>
</g>
</svg>
